%TF.GenerationSoftware,KiCad,Pcbnew,7.0.2-0*%
%TF.CreationDate,2024-01-24T17:58:37-05:00*%
%TF.ProjectId,Pi_HAT_V4_Simple,50695f48-4154-45f5-9634-5f53696d706c,rev?*%
%TF.SameCoordinates,Original*%
%TF.FileFunction,Copper,L2,Bot*%
%TF.FilePolarity,Positive*%
%FSLAX46Y46*%
G04 Gerber Fmt 4.6, Leading zero omitted, Abs format (unit mm)*
G04 Created by KiCad (PCBNEW 7.0.2-0) date 2024-01-24 17:58:37*
%MOMM*%
%LPD*%
G01*
G04 APERTURE LIST*
%TA.AperFunction,ComponentPad*%
%ADD10C,1.635000*%
%TD*%
%TA.AperFunction,ComponentPad*%
%ADD11C,1.800000*%
%TD*%
%TA.AperFunction,ComponentPad*%
%ADD12R,1.800000X1.800000*%
%TD*%
%TA.AperFunction,ComponentPad*%
%ADD13R,1.700000X1.700000*%
%TD*%
%TA.AperFunction,ComponentPad*%
%ADD14O,1.700000X1.700000*%
%TD*%
%TA.AperFunction,ComponentPad*%
%ADD15R,3.716000X3.716000*%
%TD*%
%TA.AperFunction,ComponentPad*%
%ADD16C,3.716000*%
%TD*%
%TA.AperFunction,ComponentPad*%
%ADD17O,1.200000X2.400000*%
%TD*%
%TA.AperFunction,ComponentPad*%
%ADD18R,2.000000X2.000000*%
%TD*%
%TA.AperFunction,Conductor*%
%ADD19C,1.000000*%
%TD*%
%TA.AperFunction,Conductor*%
%ADD20C,0.250000*%
%TD*%
%TA.AperFunction,Conductor*%
%ADD21C,0.200000*%
%TD*%
G04 APERTURE END LIST*
D10*
%TO.P,S1,1,1*%
%TO.N,/12Vin*%
X130149600Y-80746600D03*
%TO.P,S1,3,3*%
%TO.N,/12Vout*%
X130149600Y-75666600D03*
%TD*%
D11*
%TO.P,TB1,30,VIN*%
%TO.N,unconnected-(TB1-VIN-Pad30)*%
X116492300Y-89077800D03*
%TO.P,TB1,29,COM/GND*%
%TO.N,GND*%
X116492300Y-91617800D03*
%TO.P,TB1,28,RESET*%
%TO.N,unconnected-(TB1-RESET-Pad28)*%
X116492300Y-94157800D03*
%TO.P,TB1,27,+5V*%
%TO.N,unconnected-(TB1-+5V-Pad27)*%
X116492300Y-96697800D03*
%TO.P,TB1,26,A7*%
%TO.N,unconnected-(TB1-A7-Pad26)*%
X116492300Y-99237800D03*
%TO.P,TB1,25,A6*%
%TO.N,unconnected-(TB1-A6-Pad25)*%
X116492300Y-101777800D03*
%TO.P,TB1,24,A5*%
%TO.N,/SCLN*%
X116492300Y-104317800D03*
%TO.P,TB1,23,A4*%
%TO.N,/SDAN*%
X116492300Y-106857800D03*
%TO.P,TB1,22,A3*%
%TO.N,unconnected-(TB1-A3-Pad22)*%
X116492300Y-109397800D03*
%TO.P,TB1,21,A2*%
%TO.N,unconnected-(TB1-A2-Pad21)*%
X116492300Y-111937800D03*
%TO.P,TB1,20,A1*%
%TO.N,unconnected-(TB1-A1-Pad20)*%
X116492300Y-114477800D03*
%TO.P,TB1,19,A0*%
%TO.N,unconnected-(TB1-A0-Pad19)*%
X116492300Y-117017800D03*
%TO.P,TB1,18,AREF*%
%TO.N,unconnected-(TB1-AREF-Pad18)*%
X116492300Y-119557800D03*
%TO.P,TB1,17,3V3*%
%TO.N,/3.3VN*%
X116492300Y-122097800D03*
%TO.P,TB1,16,D13/SCK*%
%TO.N,unconnected-(TB1-D13{slash}SCK-Pad16)*%
X116492300Y-124637800D03*
%TO.P,TB1,15,D12/MISO*%
%TO.N,unconnected-(TB1-D12{slash}MISO-Pad15)*%
X101252300Y-124637800D03*
%TO.P,TB1,14,D11/MOSI*%
%TO.N,unconnected-(TB1-D11{slash}MOSI-Pad14)*%
X101252300Y-122097800D03*
%TO.P,TB1,13,D10*%
%TO.N,unconnected-(TB1-D10-Pad13)*%
X101252300Y-119557800D03*
%TO.P,TB1,12,D9*%
%TO.N,unconnected-(TB1-D9-Pad12)*%
X101252300Y-117017800D03*
%TO.P,TB1,11,D8*%
%TO.N,unconnected-(TB1-D8-Pad11)*%
X101252300Y-114477800D03*
%TO.P,TB1,10,D7*%
%TO.N,unconnected-(TB1-D7-Pad10)*%
X101252300Y-111937800D03*
%TO.P,TB1,9,D6*%
%TO.N,unconnected-(TB1-D6-Pad9)*%
X101252300Y-109397800D03*
%TO.P,TB1,8,D5*%
%TO.N,unconnected-(TB1-D5-Pad8)*%
X101252300Y-106857800D03*
%TO.P,TB1,7,D4*%
%TO.N,unconnected-(TB1-D4-Pad7)*%
X101252300Y-104317800D03*
%TO.P,TB1,6,D3*%
%TO.N,unconnected-(TB1-D3-Pad6)*%
X101252300Y-101777800D03*
%TO.P,TB1,5,D2*%
%TO.N,unconnected-(TB1-D2-Pad5)*%
X101252300Y-99237800D03*
%TO.P,TB1,4,COM/GND*%
%TO.N,GND*%
X101252300Y-96697800D03*
%TO.P,TB1,3,RESET*%
%TO.N,unconnected-(TB1-RESET-Pad28)*%
X101252300Y-94157800D03*
%TO.P,TB1,2,D0/RX*%
%TO.N,unconnected-(TB1-D0{slash}RX-Pad2)*%
X101252300Y-91617800D03*
D12*
%TO.P,TB1,1,D1/TX*%
%TO.N,unconnected-(TB1-D1{slash}TX-Pad1)*%
X101252300Y-89077800D03*
%TD*%
D13*
%TO.P,J3,1,Pin_1*%
%TO.N,/3.3V*%
X137475000Y-70525000D03*
D14*
%TO.P,J3,2,Pin_2*%
%TO.N,/5V*%
X137475000Y-67985000D03*
%TO.P,J3,3,Pin_3*%
%TO.N,/SDA*%
X140015000Y-70525000D03*
%TO.P,J3,4,Pin_4*%
%TO.N,/5V*%
X140015000Y-67985000D03*
%TO.P,J3,5,Pin_5*%
%TO.N,/SCL*%
X142555000Y-70525000D03*
%TO.P,J3,6,Pin_6*%
%TO.N,GND*%
X142555000Y-67985000D03*
%TD*%
%TO.P,J1,10,Pin_10*%
%TO.N,unconnected-(J1-Pin_10-Pad10)*%
X96956800Y-108543800D03*
%TO.P,J1,9,Pin_9*%
%TO.N,unconnected-(J1-Pin_9-Pad9)*%
X96956800Y-111083800D03*
%TO.P,J1,8,Pin_8*%
%TO.N,unconnected-(J1-Pin_8-Pad8)*%
X96956800Y-113623800D03*
%TO.P,J1,7,Pin_7*%
%TO.N,unconnected-(J1-Pin_7-Pad7)*%
X96956800Y-116163800D03*
%TO.P,J1,6,Pin_6*%
%TO.N,unconnected-(J1-Pin_6-Pad6)*%
X96956800Y-118703800D03*
%TO.P,J1,5,Pin_5*%
%TO.N,unconnected-(J1-Pin_5-Pad5)*%
X96956800Y-121243800D03*
%TO.P,J1,4,Pin_4*%
%TO.N,/SDAN*%
X96956800Y-123783800D03*
%TO.P,J1,3,Pin_3*%
%TO.N,/SCLN*%
X96956800Y-126323800D03*
%TO.P,J1,2,Pin_2*%
%TO.N,GND*%
X96956800Y-128863800D03*
D13*
%TO.P,J1,1,Pin_1*%
%TO.N,/3.3VN*%
X96956800Y-131403800D03*
%TD*%
%TO.P,J2,1,Pin_1*%
%TO.N,/3.3V*%
X151000000Y-79400000D03*
D14*
%TO.P,J2,2,Pin_2*%
%TO.N,/5V*%
X153540000Y-79400000D03*
%TO.P,J2,3,Pin_3*%
%TO.N,/SDA*%
X151000000Y-81940000D03*
%TO.P,J2,4,Pin_4*%
%TO.N,/5V*%
X153540000Y-81940000D03*
%TO.P,J2,5,Pin_5*%
%TO.N,/SCL*%
X151000000Y-84480000D03*
%TO.P,J2,6,Pin_6*%
%TO.N,GND*%
X153540000Y-84480000D03*
%TO.P,J2,7,Pin_7*%
%TO.N,unconnected-(J2-Pin_7-Pad7)*%
X151000000Y-87020000D03*
%TO.P,J2,8,Pin_8*%
%TO.N,unconnected-(J2-Pin_8-Pad8)*%
X153540000Y-87020000D03*
%TO.P,J2,9,Pin_9*%
%TO.N,unconnected-(J2-Pin_9-Pad9)*%
X151000000Y-89560000D03*
%TO.P,J2,10,Pin_10*%
%TO.N,unconnected-(J2-Pin_10-Pad10)*%
X153540000Y-89560000D03*
%TO.P,J2,11,Pin_11*%
%TO.N,unconnected-(J2-Pin_11-Pad11)*%
X151000000Y-92100000D03*
%TO.P,J2,12,Pin_12*%
%TO.N,unconnected-(J2-Pin_12-Pad12)*%
X153540000Y-92100000D03*
%TO.P,J2,13,Pin_13*%
%TO.N,unconnected-(J2-Pin_13-Pad13)*%
X151000000Y-94640000D03*
%TO.P,J2,14,Pin_14*%
%TO.N,unconnected-(J2-Pin_14-Pad14)*%
X153540000Y-94640000D03*
%TO.P,J2,15,Pin_15*%
%TO.N,unconnected-(J2-Pin_15-Pad15)*%
X151000000Y-97180000D03*
%TO.P,J2,16,Pin_16*%
%TO.N,unconnected-(J2-Pin_16-Pad16)*%
X153540000Y-97180000D03*
%TO.P,J2,17,Pin_17*%
%TO.N,unconnected-(J2-Pin_17-Pad17)*%
X151000000Y-99720000D03*
%TO.P,J2,18,Pin_18*%
%TO.N,unconnected-(J2-Pin_18-Pad18)*%
X153540000Y-99720000D03*
%TO.P,J2,19,Pin_19*%
%TO.N,unconnected-(J2-Pin_19-Pad19)*%
X151000000Y-102260000D03*
%TO.P,J2,20,Pin_20*%
%TO.N,unconnected-(J2-Pin_20-Pad20)*%
X153540000Y-102260000D03*
%TO.P,J2,21,Pin_21*%
%TO.N,unconnected-(J2-Pin_21-Pad21)*%
X151000000Y-104800000D03*
%TO.P,J2,22,Pin_22*%
%TO.N,unconnected-(J2-Pin_22-Pad22)*%
X153540000Y-104800000D03*
%TO.P,J2,23,Pin_23*%
%TO.N,unconnected-(J2-Pin_23-Pad23)*%
X151000000Y-107340000D03*
%TO.P,J2,24,Pin_24*%
%TO.N,unconnected-(J2-Pin_24-Pad24)*%
X153540000Y-107340000D03*
%TO.P,J2,25,Pin_25*%
%TO.N,unconnected-(J2-Pin_25-Pad25)*%
X151000000Y-109880000D03*
%TO.P,J2,26,Pin_26*%
%TO.N,unconnected-(J2-Pin_26-Pad26)*%
X153540000Y-109880000D03*
%TO.P,J2,27,Pin_27*%
%TO.N,unconnected-(J2-Pin_27-Pad27)*%
X151000000Y-112420000D03*
%TO.P,J2,28,Pin_28*%
%TO.N,unconnected-(J2-Pin_28-Pad28)*%
X153540000Y-112420000D03*
%TO.P,J2,29,Pin_29*%
%TO.N,unconnected-(J2-Pin_29-Pad29)*%
X151000000Y-114960000D03*
%TO.P,J2,30,Pin_30*%
%TO.N,unconnected-(J2-Pin_30-Pad30)*%
X153540000Y-114960000D03*
%TO.P,J2,31,Pin_31*%
%TO.N,unconnected-(J2-Pin_31-Pad31)*%
X151000000Y-117500000D03*
%TO.P,J2,32,Pin_32*%
%TO.N,unconnected-(J2-Pin_32-Pad32)*%
X153540000Y-117500000D03*
%TO.P,J2,33,Pin_33*%
%TO.N,unconnected-(J2-Pin_33-Pad33)*%
X151000000Y-120040000D03*
%TO.P,J2,34,Pin_34*%
%TO.N,unconnected-(J2-Pin_34-Pad34)*%
X153540000Y-120040000D03*
%TO.P,J2,35,Pin_35*%
%TO.N,unconnected-(J2-Pin_35-Pad35)*%
X151000000Y-122580000D03*
%TO.P,J2,36,Pin_36*%
%TO.N,unconnected-(J2-Pin_36-Pad36)*%
X153540000Y-122580000D03*
%TO.P,J2,37,Pin_37*%
%TO.N,unconnected-(J2-Pin_37-Pad37)*%
X151000000Y-125120000D03*
%TO.P,J2,38,Pin_38*%
%TO.N,unconnected-(J2-Pin_38-Pad38)*%
X153540000Y-125120000D03*
%TO.P,J2,39,Pin_39*%
%TO.N,unconnected-(J2-Pin_39-Pad39)*%
X151000000Y-127660000D03*
%TO.P,J2,40,Pin_40*%
%TO.N,unconnected-(J2-Pin_40-Pad40)*%
X153540000Y-127660000D03*
%TD*%
D15*
%TO.P,J5,1,+*%
%TO.N,/12Vin*%
X119398600Y-81489200D03*
D16*
%TO.P,J5,2,-*%
%TO.N,GND*%
X112198600Y-81489200D03*
D17*
%TO.P,J5,S1*%
%TO.N,N/C*%
X122548600Y-75489200D03*
%TO.P,J5,S2*%
X109048600Y-75489200D03*
%TD*%
D13*
%TO.P,J7,1,Pin_1*%
%TO.N,/12Vout*%
X82829400Y-95935800D03*
D14*
%TO.P,J7,2,Pin_2*%
%TO.N,GND*%
X82829400Y-98475800D03*
%TO.P,J7,3,Pin_3*%
%TO.N,/SDA*%
X82829400Y-101015800D03*
%TO.P,J7,4,Pin_4*%
%TO.N,/SCL*%
X82829400Y-103555800D03*
%TD*%
D18*
%TO.P,U1,1,IN+*%
%TO.N,/12Vout*%
X142595600Y-132308600D03*
%TO.P,U1,2,IN-*%
%TO.N,GND*%
X123143600Y-132422600D03*
%TO.P,U1,3,OUT+*%
%TO.N,/5V*%
X142643600Y-87672600D03*
%TO.P,U1,4,OUT-*%
%TO.N,GND*%
X123143600Y-87672600D03*
%TD*%
D19*
%TO.N,/12Vout*%
X142595600Y-95250000D02*
X135991600Y-88646000D01*
X142595600Y-132308600D02*
X142595600Y-95250000D01*
X135991600Y-88646000D02*
X135991600Y-81508600D01*
X135991600Y-81508600D02*
X130149600Y-75666600D01*
D20*
%TO.N,GND*%
X123143600Y-87672600D02*
X119311200Y-87672600D01*
X119311200Y-87672600D02*
X118846600Y-88137200D01*
X101252300Y-96697800D02*
X111412300Y-96697800D01*
X111412300Y-96697800D02*
X116492300Y-91617800D01*
X82829400Y-98475800D02*
X89331800Y-98475800D01*
X89331800Y-98475800D02*
X106318400Y-81489200D01*
X106318400Y-81489200D02*
X112198600Y-81489200D01*
X96956800Y-128863800D02*
X95351600Y-130469000D01*
X95351600Y-130469000D02*
X95351600Y-132232400D01*
X95351600Y-132232400D02*
X98399600Y-135280400D01*
X98399600Y-135280400D02*
X119710200Y-135280400D01*
X119710200Y-135280400D02*
X122568000Y-132422600D01*
X122568000Y-132422600D02*
X123143600Y-132422600D01*
%TO.N,/SCLN*%
X96956800Y-126323800D02*
X102503404Y-126323800D01*
X102503404Y-126323800D02*
X115619404Y-113207800D01*
X118396600Y-106222100D02*
X116492300Y-104317800D01*
X115619404Y-113207800D02*
X117830600Y-113207800D01*
X117830600Y-113207800D02*
X118396600Y-112641800D01*
X118396600Y-112641800D02*
X118396600Y-106222100D01*
%TO.N,/SDAN*%
X96956800Y-123783800D02*
X99912800Y-120827800D01*
X99912800Y-120827800D02*
X102522300Y-120827800D01*
X102522300Y-120827800D02*
X116492300Y-106857800D01*
%TO.N,GND*%
X123143600Y-87672600D02*
X123143600Y-85593600D01*
X123143600Y-85593600D02*
X125018800Y-83718400D01*
X125018800Y-83718400D02*
X125018800Y-73380600D01*
X125018800Y-73380600D02*
X131876800Y-66522600D01*
X131876800Y-66522600D02*
X141092600Y-66522600D01*
X141092600Y-66522600D02*
X142555000Y-67985000D01*
X142555000Y-67985000D02*
X142789396Y-67985000D01*
X142789396Y-67985000D02*
X144505129Y-69700733D01*
X155117800Y-82902200D02*
X153540000Y-84480000D01*
X144505129Y-69700733D02*
X144505129Y-72715671D01*
X144505129Y-72715671D02*
X149393658Y-77604200D01*
X149393658Y-77604200D02*
X153804200Y-77604200D01*
X153804200Y-77604200D02*
X155117800Y-78917800D01*
X155117800Y-78917800D02*
X155117800Y-82902200D01*
X118846600Y-88137200D02*
X118846600Y-91694000D01*
X118846600Y-91694000D02*
X118846600Y-127965200D01*
X116492300Y-91617800D02*
X118770400Y-91617800D01*
X118770400Y-91617800D02*
X118846600Y-91694000D01*
X112198600Y-81489200D02*
X118846600Y-88137200D01*
X118846600Y-127965200D02*
X123143600Y-132262200D01*
X123143600Y-132262200D02*
X123143600Y-132422600D01*
%TO.N,/3.3VN*%
X96956800Y-131403800D02*
X98059800Y-131403800D01*
X107365800Y-122097800D02*
X116492300Y-122097800D01*
X98059800Y-131403800D02*
X107365800Y-122097800D01*
D21*
%TO.N,/3.3V*%
X142702022Y-72150000D02*
X149952022Y-79400000D01*
X139100000Y-72150000D02*
X142702022Y-72150000D01*
X137475000Y-70525000D02*
X139100000Y-72150000D01*
X149952022Y-79400000D02*
X151000000Y-79400000D01*
D20*
%TO.N,/5V*%
X144018000Y-72864938D02*
X144018000Y-69850000D01*
X141295800Y-69265800D02*
X140015000Y-67985000D01*
X152194200Y-78054200D02*
X149207262Y-78054200D01*
X143433800Y-69265800D02*
X141295800Y-69265800D01*
X153540000Y-81940000D02*
X153540000Y-79400000D01*
X144018000Y-69850000D02*
X143433800Y-69265800D01*
X149207262Y-78054200D02*
X144018000Y-72864938D01*
X153540000Y-79400000D02*
X152194200Y-78054200D01*
%TD*%
M02*
