M48
; DRILL file {KiCad 7.0.2-0} date 2024 January 24, Wednesday 17:00:20
; FORMAT={-:-/ absolute / metric / decimal}
; #@! TF.CreationDate,2024-01-24T17:00:20-05:00
; #@! TF.GenerationSoftware,Kicad,Pcbnew,7.0.2-0
; #@! TF.FileFunction,Plated,1,2,PTH
FMAT,2
METRIC
; #@! TA.AperFunction,Plated,PTH,ComponentDrill
T1C0.600
; #@! TA.AperFunction,Plated,PTH,ComponentDrill
T2C1.000
; #@! TA.AperFunction,Plated,PTH,ComponentDrill
T3C1.090
; #@! TA.AperFunction,Plated,PTH,ComponentDrill
T4C2.700
%
G90
G05
T2
X96.622Y-95.936
X96.622Y-98.476
X96.622Y-101.016
X96.622Y-103.556
X101.386Y-86.563
X101.386Y-89.103
X101.386Y-91.643
X101.386Y-94.183
X101.386Y-96.723
X101.386Y-99.263
X101.386Y-101.803
X101.386Y-104.343
X101.386Y-106.883
X101.386Y-109.423
X123.144Y-87.673
X123.144Y-132.423
X137.475Y-67.985
X137.475Y-70.525
X140.015Y-67.985
X140.015Y-70.525
X142.555Y-67.985
X142.555Y-70.525
X142.596Y-132.309
X142.644Y-87.673
X151.0Y-79.4
X151.0Y-81.94
X151.0Y-84.48
X151.0Y-87.02
X151.0Y-89.56
X151.0Y-92.1
X151.0Y-94.64
X151.0Y-97.18
X151.0Y-99.72
X151.0Y-102.26
X151.0Y-104.8
X151.0Y-107.34
X151.0Y-109.88
X151.0Y-112.42
X151.0Y-114.96
X151.0Y-117.5
X151.0Y-120.04
X151.0Y-122.58
X151.0Y-125.12
X151.0Y-127.66
X153.54Y-79.4
X153.54Y-81.94
X153.54Y-84.48
X153.54Y-87.02
X153.54Y-89.56
X153.54Y-92.1
X153.54Y-94.64
X153.54Y-97.18
X153.54Y-99.72
X153.54Y-102.26
X153.54Y-104.8
X153.54Y-107.34
X153.54Y-109.88
X153.54Y-112.42
X153.54Y-114.96
X153.54Y-117.5
X153.54Y-120.04
X153.54Y-122.58
X153.54Y-125.12
X153.54Y-127.66
X160.35Y-96.0
X160.35Y-98.54
X160.35Y-101.08
X160.35Y-103.62
T3
X104.927Y-121.514
X110.007Y-121.514
T4
X114.764Y-81.563
X121.964Y-81.563
T1
G00X111.614Y-75.013
M15
G01X111.614Y-76.113
M16
G05
G00X125.114Y-75.013
M15
G01X125.114Y-76.113
M16
G05
T0
M30
