%TF.GenerationSoftware,KiCad,Pcbnew,7.0.2-0*%
%TF.CreationDate,2024-01-24T17:00:23-05:00*%
%TF.ProjectId,Pi_HAT_V4_Simple,50695f48-4154-45f5-9634-5f53696d706c,rev?*%
%TF.SameCoordinates,Original*%
%TF.FileFunction,Copper,L2,Bot*%
%TF.FilePolarity,Positive*%
%FSLAX46Y46*%
G04 Gerber Fmt 4.6, Leading zero omitted, Abs format (unit mm)*
G04 Created by KiCad (PCBNEW 7.0.2-0) date 2024-01-24 17:00:23*
%MOMM*%
%LPD*%
G01*
G04 APERTURE LIST*
%TA.AperFunction,ComponentPad*%
%ADD10R,1.700000X1.700000*%
%TD*%
%TA.AperFunction,ComponentPad*%
%ADD11O,1.700000X1.700000*%
%TD*%
%TA.AperFunction,ComponentPad*%
%ADD12R,3.716000X3.716000*%
%TD*%
%TA.AperFunction,ComponentPad*%
%ADD13C,3.716000*%
%TD*%
%TA.AperFunction,ComponentPad*%
%ADD14O,1.200000X2.400000*%
%TD*%
%TA.AperFunction,ComponentPad*%
%ADD15C,1.635000*%
%TD*%
%TA.AperFunction,ComponentPad*%
%ADD16R,2.000000X2.000000*%
%TD*%
%TA.AperFunction,Conductor*%
%ADD17C,0.200000*%
%TD*%
%TA.AperFunction,Conductor*%
%ADD18C,0.250000*%
%TD*%
%TA.AperFunction,Conductor*%
%ADD19C,1.000000*%
%TD*%
G04 APERTURE END LIST*
D10*
%TO.P,J3,1,Pin_1*%
%TO.N,/3.3V*%
X137475000Y-70525000D03*
D11*
%TO.P,J3,2,Pin_2*%
%TO.N,/5V*%
X137475000Y-67985000D03*
%TO.P,J3,3,Pin_3*%
%TO.N,/SDA*%
X140015000Y-70525000D03*
%TO.P,J3,4,Pin_4*%
%TO.N,/5V*%
X140015000Y-67985000D03*
%TO.P,J3,5,Pin_5*%
%TO.N,/SCL*%
X142555000Y-70525000D03*
%TO.P,J3,6,Pin_6*%
%TO.N,GND*%
X142555000Y-67985000D03*
%TD*%
D10*
%TO.P,J1,1,Pin_1*%
%TO.N,/3.3V*%
X101386000Y-86563200D03*
D11*
%TO.P,J1,2,Pin_2*%
%TO.N,GND*%
X101386000Y-89103200D03*
%TO.P,J1,3,Pin_3*%
%TO.N,/SCL*%
X101386000Y-91643200D03*
%TO.P,J1,4,Pin_4*%
%TO.N,/SDA*%
X101386000Y-94183200D03*
%TO.P,J1,5,Pin_5*%
%TO.N,unconnected-(J1-Pin_5-Pad5)*%
X101386000Y-96723200D03*
%TO.P,J1,6,Pin_6*%
%TO.N,unconnected-(J1-Pin_6-Pad6)*%
X101386000Y-99263200D03*
%TO.P,J1,7,Pin_7*%
%TO.N,unconnected-(J1-Pin_7-Pad7)*%
X101386000Y-101803200D03*
%TO.P,J1,8,Pin_8*%
%TO.N,unconnected-(J1-Pin_8-Pad8)*%
X101386000Y-104343200D03*
%TO.P,J1,9,Pin_9*%
%TO.N,unconnected-(J1-Pin_9-Pad9)*%
X101386000Y-106883200D03*
%TO.P,J1,10,Pin_10*%
%TO.N,unconnected-(J1-Pin_10-Pad10)*%
X101386000Y-109423200D03*
%TD*%
D10*
%TO.P,J2,1,Pin_1*%
%TO.N,/3.3V*%
X151000000Y-79400000D03*
D11*
%TO.P,J2,2,Pin_2*%
%TO.N,/5V*%
X153540000Y-79400000D03*
%TO.P,J2,3,Pin_3*%
%TO.N,/SDA*%
X151000000Y-81940000D03*
%TO.P,J2,4,Pin_4*%
%TO.N,/5V*%
X153540000Y-81940000D03*
%TO.P,J2,5,Pin_5*%
%TO.N,/SCL*%
X151000000Y-84480000D03*
%TO.P,J2,6,Pin_6*%
%TO.N,GND*%
X153540000Y-84480000D03*
%TO.P,J2,7,Pin_7*%
%TO.N,unconnected-(J2-Pin_7-Pad7)*%
X151000000Y-87020000D03*
%TO.P,J2,8,Pin_8*%
%TO.N,unconnected-(J2-Pin_8-Pad8)*%
X153540000Y-87020000D03*
%TO.P,J2,9,Pin_9*%
%TO.N,unconnected-(J2-Pin_9-Pad9)*%
X151000000Y-89560000D03*
%TO.P,J2,10,Pin_10*%
%TO.N,unconnected-(J2-Pin_10-Pad10)*%
X153540000Y-89560000D03*
%TO.P,J2,11,Pin_11*%
%TO.N,unconnected-(J2-Pin_11-Pad11)*%
X151000000Y-92100000D03*
%TO.P,J2,12,Pin_12*%
%TO.N,unconnected-(J2-Pin_12-Pad12)*%
X153540000Y-92100000D03*
%TO.P,J2,13,Pin_13*%
%TO.N,unconnected-(J2-Pin_13-Pad13)*%
X151000000Y-94640000D03*
%TO.P,J2,14,Pin_14*%
%TO.N,unconnected-(J2-Pin_14-Pad14)*%
X153540000Y-94640000D03*
%TO.P,J2,15,Pin_15*%
%TO.N,unconnected-(J2-Pin_15-Pad15)*%
X151000000Y-97180000D03*
%TO.P,J2,16,Pin_16*%
%TO.N,unconnected-(J2-Pin_16-Pad16)*%
X153540000Y-97180000D03*
%TO.P,J2,17,Pin_17*%
%TO.N,unconnected-(J2-Pin_17-Pad17)*%
X151000000Y-99720000D03*
%TO.P,J2,18,Pin_18*%
%TO.N,unconnected-(J2-Pin_18-Pad18)*%
X153540000Y-99720000D03*
%TO.P,J2,19,Pin_19*%
%TO.N,unconnected-(J2-Pin_19-Pad19)*%
X151000000Y-102260000D03*
%TO.P,J2,20,Pin_20*%
%TO.N,unconnected-(J2-Pin_20-Pad20)*%
X153540000Y-102260000D03*
%TO.P,J2,21,Pin_21*%
%TO.N,unconnected-(J2-Pin_21-Pad21)*%
X151000000Y-104800000D03*
%TO.P,J2,22,Pin_22*%
%TO.N,unconnected-(J2-Pin_22-Pad22)*%
X153540000Y-104800000D03*
%TO.P,J2,23,Pin_23*%
%TO.N,unconnected-(J2-Pin_23-Pad23)*%
X151000000Y-107340000D03*
%TO.P,J2,24,Pin_24*%
%TO.N,unconnected-(J2-Pin_24-Pad24)*%
X153540000Y-107340000D03*
%TO.P,J2,25,Pin_25*%
%TO.N,unconnected-(J2-Pin_25-Pad25)*%
X151000000Y-109880000D03*
%TO.P,J2,26,Pin_26*%
%TO.N,unconnected-(J2-Pin_26-Pad26)*%
X153540000Y-109880000D03*
%TO.P,J2,27,Pin_27*%
%TO.N,unconnected-(J2-Pin_27-Pad27)*%
X151000000Y-112420000D03*
%TO.P,J2,28,Pin_28*%
%TO.N,unconnected-(J2-Pin_28-Pad28)*%
X153540000Y-112420000D03*
%TO.P,J2,29,Pin_29*%
%TO.N,unconnected-(J2-Pin_29-Pad29)*%
X151000000Y-114960000D03*
%TO.P,J2,30,Pin_30*%
%TO.N,unconnected-(J2-Pin_30-Pad30)*%
X153540000Y-114960000D03*
%TO.P,J2,31,Pin_31*%
%TO.N,unconnected-(J2-Pin_31-Pad31)*%
X151000000Y-117500000D03*
%TO.P,J2,32,Pin_32*%
%TO.N,unconnected-(J2-Pin_32-Pad32)*%
X153540000Y-117500000D03*
%TO.P,J2,33,Pin_33*%
%TO.N,unconnected-(J2-Pin_33-Pad33)*%
X151000000Y-120040000D03*
%TO.P,J2,34,Pin_34*%
%TO.N,unconnected-(J2-Pin_34-Pad34)*%
X153540000Y-120040000D03*
%TO.P,J2,35,Pin_35*%
%TO.N,unconnected-(J2-Pin_35-Pad35)*%
X151000000Y-122580000D03*
%TO.P,J2,36,Pin_36*%
%TO.N,unconnected-(J2-Pin_36-Pad36)*%
X153540000Y-122580000D03*
%TO.P,J2,37,Pin_37*%
%TO.N,unconnected-(J2-Pin_37-Pad37)*%
X151000000Y-125120000D03*
%TO.P,J2,38,Pin_38*%
%TO.N,unconnected-(J2-Pin_38-Pad38)*%
X153540000Y-125120000D03*
%TO.P,J2,39,Pin_39*%
%TO.N,unconnected-(J2-Pin_39-Pad39)*%
X151000000Y-127660000D03*
%TO.P,J2,40,Pin_40*%
%TO.N,unconnected-(J2-Pin_40-Pad40)*%
X153540000Y-127660000D03*
%TD*%
D12*
%TO.P,J5,1,+*%
%TO.N,/12Vin*%
X121964000Y-81562550D03*
D13*
%TO.P,J5,2,-*%
%TO.N,GND*%
X114764000Y-81562550D03*
D14*
%TO.P,J5,S1*%
%TO.N,N/C*%
X125114000Y-75562550D03*
%TO.P,J5,S2*%
X111614000Y-75562550D03*
%TD*%
D10*
%TO.P,J7,1,Pin_1*%
%TO.N,/12Vout*%
X96621600Y-95935800D03*
D11*
%TO.P,J7,2,Pin_2*%
%TO.N,GND*%
X96621600Y-98475800D03*
%TO.P,J7,3,Pin_3*%
%TO.N,/SDA*%
X96621600Y-101015800D03*
%TO.P,J7,4,Pin_4*%
%TO.N,/SCL*%
X96621600Y-103555800D03*
%TD*%
D10*
%TO.P,J6,1,Pin_1*%
%TO.N,/12Vout*%
X160350000Y-96000000D03*
D11*
%TO.P,J6,2,Pin_2*%
%TO.N,GND*%
X160350000Y-98540000D03*
%TO.P,J6,3,Pin_3*%
%TO.N,/SDA*%
X160350000Y-101080000D03*
%TO.P,J6,4,Pin_4*%
%TO.N,/SCL*%
X160350000Y-103620000D03*
%TD*%
D15*
%TO.P,S1,1,1*%
%TO.N,/12Vin*%
X110007400Y-121513600D03*
%TO.P,S1,3,3*%
%TO.N,/12Vout*%
X104927400Y-121513600D03*
%TD*%
D16*
%TO.P,U1,1,IN+*%
%TO.N,/12Vout*%
X142595600Y-132308600D03*
%TO.P,U1,2,IN-*%
%TO.N,GND*%
X123143600Y-132422600D03*
%TO.P,U1,3,OUT+*%
%TO.N,/5V*%
X142643600Y-87672600D03*
%TO.P,U1,4,OUT-*%
%TO.N,GND*%
X123143600Y-87672600D03*
%TD*%
D17*
%TO.N,/3.3V*%
X142702022Y-72150000D02*
X149952022Y-79400000D01*
X139100000Y-72150000D02*
X142702022Y-72150000D01*
X137475000Y-70525000D02*
X139100000Y-72150000D01*
X149952022Y-79400000D02*
X151000000Y-79400000D01*
D18*
%TO.N,GND*%
X150266400Y-80721200D02*
X151815800Y-80721200D01*
X162471600Y-125005600D02*
X162471600Y-100661600D01*
X136330396Y-66413800D02*
X136111400Y-66632796D01*
X98882200Y-97942400D02*
X147980400Y-97942400D01*
X142555000Y-67985000D02*
X142185881Y-67615881D01*
X96621600Y-98475800D02*
X97155000Y-97942400D01*
X142030162Y-66413800D02*
X136330396Y-66413800D01*
X162471600Y-100661600D02*
X160350000Y-98540000D01*
X123143600Y-87672600D02*
X123143600Y-91121400D01*
X143858400Y-91193200D02*
X146793800Y-88257800D01*
X135522398Y-74105198D02*
X146938302Y-85521102D01*
X101386000Y-89103200D02*
X103476000Y-91193200D01*
X136111400Y-71204796D02*
X135522398Y-71793798D01*
X152247600Y-82551204D02*
X153540000Y-83843604D01*
X98882200Y-91607000D02*
X101386000Y-89103200D01*
X146793800Y-85665604D02*
X146938302Y-85521102D01*
X114764000Y-81562550D02*
X120874050Y-87672600D01*
X157911800Y-129565400D02*
X162471600Y-125005600D01*
X153540000Y-83843604D02*
X153540000Y-84480000D01*
X149606000Y-82853404D02*
X149606000Y-81381600D01*
X123215400Y-91193200D02*
X143858400Y-91193200D01*
X142185881Y-67615881D02*
X142185881Y-66569519D01*
X146938302Y-85521102D02*
X149606000Y-82853404D01*
X120874050Y-87672600D02*
X123143600Y-87672600D01*
X149606000Y-81381600D02*
X150266400Y-80721200D01*
X152247600Y-81153000D02*
X152247600Y-82551204D01*
X123143600Y-91121400D02*
X123215400Y-91193200D01*
X147980400Y-97942400D02*
X150037800Y-95885000D01*
X135522398Y-71793798D02*
X135522398Y-74105198D01*
X123143600Y-132422600D02*
X136944400Y-132422600D01*
X151815800Y-80721200D02*
X152247600Y-81153000D01*
X103476000Y-91193200D02*
X123215400Y-91193200D01*
X139801600Y-129565400D02*
X157911800Y-129565400D01*
X146793800Y-88257800D02*
X146793800Y-85665604D01*
X97155000Y-97942400D02*
X98882200Y-97942400D01*
X136111400Y-66632796D02*
X136111400Y-71204796D01*
X98882200Y-97942400D02*
X98882200Y-91607000D01*
X142185881Y-66569519D02*
X142030162Y-66413800D01*
X150037800Y-95885000D02*
X157695000Y-95885000D01*
X157695000Y-95885000D02*
X160350000Y-98540000D01*
X136944400Y-132422600D02*
X139801600Y-129565400D01*
%TO.N,/5V*%
X144018000Y-72864938D02*
X144018000Y-69850000D01*
X153540000Y-81940000D02*
X154965400Y-80514600D01*
X154965400Y-78714600D02*
X153898600Y-77647800D01*
X144475200Y-72669400D02*
X144475200Y-66624200D01*
X141295800Y-69265800D02*
X140015000Y-67985000D01*
X134975600Y-71704200D02*
X134975600Y-77825600D01*
X152194200Y-78054200D02*
X149207262Y-78054200D01*
X143433800Y-69265800D02*
X141295800Y-69265800D01*
X153540000Y-81940000D02*
X153540000Y-79400000D01*
X134975600Y-77825600D02*
X142643600Y-85493600D01*
X144018000Y-69850000D02*
X143433800Y-69265800D01*
X149207262Y-78054200D02*
X144018000Y-72864938D01*
X153898600Y-77647800D02*
X149453600Y-77647800D01*
X135661400Y-71018400D02*
X134975600Y-71704200D01*
X149453600Y-77647800D02*
X144475200Y-72669400D01*
X136144000Y-65963800D02*
X135661400Y-66446400D01*
X135661400Y-66446400D02*
X135661400Y-71018400D01*
X143814800Y-65963800D02*
X136144000Y-65963800D01*
X144475200Y-66624200D02*
X143814800Y-65963800D01*
X153540000Y-79400000D02*
X152194200Y-78054200D01*
X142643600Y-85493600D02*
X142643600Y-87672600D01*
X154965400Y-80514600D02*
X154965400Y-78714600D01*
%TO.N,/SCL*%
X144068800Y-91643200D02*
X147243800Y-88468200D01*
X150822600Y-84302600D02*
X151000000Y-84480000D01*
X160350000Y-103620000D02*
X157745800Y-101015800D01*
X97815400Y-103047800D02*
X97307400Y-103555800D01*
X97307400Y-103555800D02*
X96621600Y-103555800D01*
X104597200Y-101015800D02*
X102565200Y-103047800D01*
X147243800Y-85852000D02*
X148793200Y-84302600D01*
X147243800Y-88468200D02*
X147243800Y-85852000D01*
X101386000Y-91643200D02*
X144068800Y-91643200D01*
X157745800Y-101015800D02*
X104597200Y-101015800D01*
X102565200Y-103047800D02*
X97815400Y-103047800D01*
X148793200Y-84302600D02*
X150822600Y-84302600D01*
%TO.N,/SDA*%
X101386000Y-94183200D02*
X142165196Y-94183200D01*
X152298400Y-83238400D02*
X151000000Y-81940000D01*
X97104200Y-100533200D02*
X147980400Y-100533200D01*
X147726400Y-88621996D02*
X147726400Y-87477600D01*
X147726400Y-87477600D02*
X149453600Y-85750400D01*
X150037800Y-98475800D02*
X157745800Y-98475800D01*
X96621600Y-101015800D02*
X97104200Y-100533200D01*
X147980400Y-100533200D02*
X150037800Y-98475800D01*
X151892000Y-85750400D02*
X152298400Y-85344000D01*
X142165196Y-94183200D02*
X147726400Y-88621996D01*
X149453600Y-85750400D02*
X151892000Y-85750400D01*
X152298400Y-85344000D02*
X152298400Y-83238400D01*
X157745800Y-98475800D02*
X160350000Y-101080000D01*
D19*
%TO.N,/12Vout*%
X157429200Y-135153400D02*
X163296600Y-129286000D01*
X163296600Y-98946600D02*
X160350000Y-96000000D01*
X94945200Y-95935800D02*
X94157800Y-96723200D01*
X145440400Y-135153400D02*
X157429200Y-135153400D01*
X163296600Y-129286000D02*
X163296600Y-98946600D01*
X142595600Y-132308600D02*
X145440400Y-135153400D01*
X96621600Y-95935800D02*
X94945200Y-95935800D01*
X94157800Y-96723200D02*
X94157800Y-110744000D01*
X94157800Y-110744000D02*
X104927400Y-121513600D01*
%TD*%
M02*
