%TF.GenerationSoftware,KiCad,Pcbnew,7.0.2-0*%
%TF.CreationDate,2024-01-24T17:58:37-05:00*%
%TF.ProjectId,Pi_HAT_V4_Simple,50695f48-4154-45f5-9634-5f53696d706c,rev?*%
%TF.SameCoordinates,Original*%
%TF.FileFunction,Soldermask,Bot*%
%TF.FilePolarity,Negative*%
%FSLAX46Y46*%
G04 Gerber Fmt 4.6, Leading zero omitted, Abs format (unit mm)*
G04 Created by KiCad (PCBNEW 7.0.2-0) date 2024-01-24 17:58:37*
%MOMM*%
%LPD*%
G01*
G04 APERTURE LIST*
%ADD10C,1.635000*%
%ADD11C,1.800000*%
%ADD12R,1.800000X1.800000*%
%ADD13R,1.700000X1.700000*%
%ADD14O,1.700000X1.700000*%
%ADD15C,2.500000*%
%ADD16R,3.716000X3.716000*%
%ADD17C,3.716000*%
%ADD18O,1.200000X2.400000*%
%ADD19R,2.000000X2.000000*%
G04 APERTURE END LIST*
D10*
%TO.C,S1*%
X130149600Y-80746600D03*
X130149600Y-75666600D03*
%TD*%
D11*
%TO.C,TB1*%
X116492300Y-89077800D03*
X116492300Y-91617800D03*
X116492300Y-94157800D03*
X116492300Y-96697800D03*
X116492300Y-99237800D03*
X116492300Y-101777800D03*
X116492300Y-104317800D03*
X116492300Y-106857800D03*
X116492300Y-109397800D03*
X116492300Y-111937800D03*
X116492300Y-114477800D03*
X116492300Y-117017800D03*
X116492300Y-119557800D03*
X116492300Y-122097800D03*
X116492300Y-124637800D03*
X101252300Y-124637800D03*
X101252300Y-122097800D03*
X101252300Y-119557800D03*
X101252300Y-117017800D03*
X101252300Y-114477800D03*
X101252300Y-111937800D03*
X101252300Y-109397800D03*
X101252300Y-106857800D03*
X101252300Y-104317800D03*
X101252300Y-101777800D03*
X101252300Y-99237800D03*
X101252300Y-96697800D03*
X101252300Y-94157800D03*
X101252300Y-91617800D03*
D12*
X101252300Y-89077800D03*
%TD*%
D13*
%TO.C,J3*%
X137475000Y-70525000D03*
D14*
X137475000Y-67985000D03*
X140015000Y-70525000D03*
X140015000Y-67985000D03*
X142555000Y-70525000D03*
X142555000Y-67985000D03*
%TD*%
D15*
%TO.C,H1*%
X152500000Y-74500000D03*
%TD*%
%TO.C,H2*%
X102500000Y-74500000D03*
%TD*%
%TO.C,H3*%
X102500000Y-132500000D03*
%TD*%
D14*
%TO.C,J1*%
X96956800Y-108543800D03*
X96956800Y-111083800D03*
X96956800Y-113623800D03*
X96956800Y-116163800D03*
X96956800Y-118703800D03*
X96956800Y-121243800D03*
X96956800Y-123783800D03*
X96956800Y-126323800D03*
X96956800Y-128863800D03*
D13*
X96956800Y-131403800D03*
%TD*%
D15*
%TO.C,H4*%
X152500000Y-132500000D03*
%TD*%
D13*
%TO.C,J2*%
X151000000Y-79400000D03*
D14*
X153540000Y-79400000D03*
X151000000Y-81940000D03*
X153540000Y-81940000D03*
X151000000Y-84480000D03*
X153540000Y-84480000D03*
X151000000Y-87020000D03*
X153540000Y-87020000D03*
X151000000Y-89560000D03*
X153540000Y-89560000D03*
X151000000Y-92100000D03*
X153540000Y-92100000D03*
X151000000Y-94640000D03*
X153540000Y-94640000D03*
X151000000Y-97180000D03*
X153540000Y-97180000D03*
X151000000Y-99720000D03*
X153540000Y-99720000D03*
X151000000Y-102260000D03*
X153540000Y-102260000D03*
X151000000Y-104800000D03*
X153540000Y-104800000D03*
X151000000Y-107340000D03*
X153540000Y-107340000D03*
X151000000Y-109880000D03*
X153540000Y-109880000D03*
X151000000Y-112420000D03*
X153540000Y-112420000D03*
X151000000Y-114960000D03*
X153540000Y-114960000D03*
X151000000Y-117500000D03*
X153540000Y-117500000D03*
X151000000Y-120040000D03*
X153540000Y-120040000D03*
X151000000Y-122580000D03*
X153540000Y-122580000D03*
X151000000Y-125120000D03*
X153540000Y-125120000D03*
X151000000Y-127660000D03*
X153540000Y-127660000D03*
%TD*%
D16*
%TO.C,J5*%
X119398600Y-81489200D03*
D17*
X112198600Y-81489200D03*
D18*
X122548600Y-75489200D03*
X109048600Y-75489200D03*
%TD*%
D13*
%TO.C,J7*%
X82829400Y-95935800D03*
D14*
X82829400Y-98475800D03*
X82829400Y-101015800D03*
X82829400Y-103555800D03*
%TD*%
D19*
%TO.C,U1*%
X142595600Y-132308600D03*
X123143600Y-132422600D03*
X142643600Y-87672600D03*
X123143600Y-87672600D03*
%TD*%
M02*
