%TF.GenerationSoftware,KiCad,Pcbnew,7.0.2-0*%
%TF.CreationDate,2024-01-24T17:58:37-05:00*%
%TF.ProjectId,Pi_HAT_V4_Simple,50695f48-4154-45f5-9634-5f53696d706c,rev?*%
%TF.SameCoordinates,Original*%
%TF.FileFunction,Legend,Top*%
%TF.FilePolarity,Positive*%
%FSLAX46Y46*%
G04 Gerber Fmt 4.6, Leading zero omitted, Abs format (unit mm)*
G04 Created by KiCad (PCBNEW 7.0.2-0) date 2024-01-24 17:58:37*
%MOMM*%
%LPD*%
G01*
G04 APERTURE LIST*
%ADD10C,0.150000*%
%ADD11C,0.100000*%
%ADD12C,0.250000*%
%ADD13C,0.254000*%
%ADD14C,0.010000*%
%ADD15C,0.127000*%
%ADD16C,0.200000*%
%ADD17C,0.120000*%
G04 APERTURE END LIST*
D10*
X133659419Y-122934476D02*
X133754657Y-122648762D01*
X133754657Y-122648762D02*
X133849895Y-122553524D01*
X133849895Y-122553524D02*
X134040371Y-122458286D01*
X134040371Y-122458286D02*
X134326085Y-122458286D01*
X134326085Y-122458286D02*
X134516561Y-122553524D01*
X134516561Y-122553524D02*
X134611800Y-122648762D01*
X134611800Y-122648762D02*
X134707038Y-122839238D01*
X134707038Y-122839238D02*
X134707038Y-123601143D01*
X134707038Y-123601143D02*
X132707038Y-123601143D01*
X132707038Y-123601143D02*
X132707038Y-122934476D01*
X132707038Y-122934476D02*
X132802276Y-122744000D01*
X132802276Y-122744000D02*
X132897514Y-122648762D01*
X132897514Y-122648762D02*
X133087990Y-122553524D01*
X133087990Y-122553524D02*
X133278466Y-122553524D01*
X133278466Y-122553524D02*
X133468942Y-122648762D01*
X133468942Y-122648762D02*
X133564180Y-122744000D01*
X133564180Y-122744000D02*
X133659419Y-122934476D01*
X133659419Y-122934476D02*
X133659419Y-123601143D01*
X132707038Y-121601143D02*
X134326085Y-121601143D01*
X134326085Y-121601143D02*
X134516561Y-121505905D01*
X134516561Y-121505905D02*
X134611800Y-121410667D01*
X134611800Y-121410667D02*
X134707038Y-121220191D01*
X134707038Y-121220191D02*
X134707038Y-120839238D01*
X134707038Y-120839238D02*
X134611800Y-120648762D01*
X134611800Y-120648762D02*
X134516561Y-120553524D01*
X134516561Y-120553524D02*
X134326085Y-120458286D01*
X134326085Y-120458286D02*
X132707038Y-120458286D01*
X134516561Y-118363048D02*
X134611800Y-118458286D01*
X134611800Y-118458286D02*
X134707038Y-118744000D01*
X134707038Y-118744000D02*
X134707038Y-118934476D01*
X134707038Y-118934476D02*
X134611800Y-119220191D01*
X134611800Y-119220191D02*
X134421323Y-119410667D01*
X134421323Y-119410667D02*
X134230847Y-119505905D01*
X134230847Y-119505905D02*
X133849895Y-119601143D01*
X133849895Y-119601143D02*
X133564180Y-119601143D01*
X133564180Y-119601143D02*
X133183228Y-119505905D01*
X133183228Y-119505905D02*
X132992752Y-119410667D01*
X132992752Y-119410667D02*
X132802276Y-119220191D01*
X132802276Y-119220191D02*
X132707038Y-118934476D01*
X132707038Y-118934476D02*
X132707038Y-118744000D01*
X132707038Y-118744000D02*
X132802276Y-118458286D01*
X132802276Y-118458286D02*
X132897514Y-118363048D01*
X134707038Y-117505905D02*
X132707038Y-117505905D01*
X134707038Y-116363048D02*
X133564180Y-117220191D01*
X132707038Y-116363048D02*
X133849895Y-117505905D01*
X134516561Y-112839238D02*
X134611800Y-112934476D01*
X134611800Y-112934476D02*
X134707038Y-113220190D01*
X134707038Y-113220190D02*
X134707038Y-113410666D01*
X134707038Y-113410666D02*
X134611800Y-113696381D01*
X134611800Y-113696381D02*
X134421323Y-113886857D01*
X134421323Y-113886857D02*
X134230847Y-113982095D01*
X134230847Y-113982095D02*
X133849895Y-114077333D01*
X133849895Y-114077333D02*
X133564180Y-114077333D01*
X133564180Y-114077333D02*
X133183228Y-113982095D01*
X133183228Y-113982095D02*
X132992752Y-113886857D01*
X132992752Y-113886857D02*
X132802276Y-113696381D01*
X132802276Y-113696381D02*
X132707038Y-113410666D01*
X132707038Y-113410666D02*
X132707038Y-113220190D01*
X132707038Y-113220190D02*
X132802276Y-112934476D01*
X132802276Y-112934476D02*
X132897514Y-112839238D01*
X132707038Y-111601143D02*
X132707038Y-111220190D01*
X132707038Y-111220190D02*
X132802276Y-111029714D01*
X132802276Y-111029714D02*
X132992752Y-110839238D01*
X132992752Y-110839238D02*
X133373704Y-110744000D01*
X133373704Y-110744000D02*
X134040371Y-110744000D01*
X134040371Y-110744000D02*
X134421323Y-110839238D01*
X134421323Y-110839238D02*
X134611800Y-111029714D01*
X134611800Y-111029714D02*
X134707038Y-111220190D01*
X134707038Y-111220190D02*
X134707038Y-111601143D01*
X134707038Y-111601143D02*
X134611800Y-111791619D01*
X134611800Y-111791619D02*
X134421323Y-111982095D01*
X134421323Y-111982095D02*
X134040371Y-112077333D01*
X134040371Y-112077333D02*
X133373704Y-112077333D01*
X133373704Y-112077333D02*
X132992752Y-111982095D01*
X132992752Y-111982095D02*
X132802276Y-111791619D01*
X132802276Y-111791619D02*
X132707038Y-111601143D01*
X134707038Y-109886857D02*
X132707038Y-109886857D01*
X132707038Y-109886857D02*
X134707038Y-108744000D01*
X134707038Y-108744000D02*
X132707038Y-108744000D01*
X132707038Y-108077333D02*
X134707038Y-107410667D01*
X134707038Y-107410667D02*
X132707038Y-106744000D01*
X133659419Y-106077333D02*
X133659419Y-105410666D01*
X134707038Y-105124952D02*
X134707038Y-106077333D01*
X134707038Y-106077333D02*
X132707038Y-106077333D01*
X132707038Y-106077333D02*
X132707038Y-105124952D01*
X134707038Y-103124952D02*
X133754657Y-103791619D01*
X134707038Y-104267809D02*
X132707038Y-104267809D01*
X132707038Y-104267809D02*
X132707038Y-103505904D01*
X132707038Y-103505904D02*
X132802276Y-103315428D01*
X132802276Y-103315428D02*
X132897514Y-103220190D01*
X132897514Y-103220190D02*
X133087990Y-103124952D01*
X133087990Y-103124952D02*
X133373704Y-103124952D01*
X133373704Y-103124952D02*
X133564180Y-103220190D01*
X133564180Y-103220190D02*
X133659419Y-103315428D01*
X133659419Y-103315428D02*
X133754657Y-103505904D01*
X133754657Y-103505904D02*
X133754657Y-104267809D01*
X132707038Y-102553523D02*
X132707038Y-101410666D01*
X134707038Y-101982095D02*
X132707038Y-101982095D01*
X133659419Y-100743999D02*
X133659419Y-100077332D01*
X134707038Y-99791618D02*
X134707038Y-100743999D01*
X134707038Y-100743999D02*
X132707038Y-100743999D01*
X132707038Y-100743999D02*
X132707038Y-99791618D01*
X134707038Y-97791618D02*
X133754657Y-98458285D01*
X134707038Y-98934475D02*
X132707038Y-98934475D01*
X132707038Y-98934475D02*
X132707038Y-98172570D01*
X132707038Y-98172570D02*
X132802276Y-97982094D01*
X132802276Y-97982094D02*
X132897514Y-97886856D01*
X132897514Y-97886856D02*
X133087990Y-97791618D01*
X133087990Y-97791618D02*
X133373704Y-97791618D01*
X133373704Y-97791618D02*
X133564180Y-97886856D01*
X133564180Y-97886856D02*
X133659419Y-97982094D01*
X133659419Y-97982094D02*
X133754657Y-98172570D01*
X133754657Y-98172570D02*
X133754657Y-98934475D01*
X107634361Y-103257790D02*
X109634361Y-103257790D01*
X109634361Y-103257790D02*
X107634361Y-104400647D01*
X107634361Y-104400647D02*
X109634361Y-104400647D01*
X108205790Y-105257790D02*
X108205790Y-106210171D01*
X107634361Y-105067314D02*
X109634361Y-105733980D01*
X109634361Y-105733980D02*
X107634361Y-106400647D01*
X107634361Y-107067314D02*
X109634361Y-107067314D01*
X109634361Y-107067314D02*
X107634361Y-108210171D01*
X107634361Y-108210171D02*
X109634361Y-108210171D01*
X109634361Y-109543504D02*
X109634361Y-109924457D01*
X109634361Y-109924457D02*
X109539123Y-110114933D01*
X109539123Y-110114933D02*
X109348647Y-110305409D01*
X109348647Y-110305409D02*
X108967695Y-110400647D01*
X108967695Y-110400647D02*
X108301028Y-110400647D01*
X108301028Y-110400647D02*
X107920076Y-110305409D01*
X107920076Y-110305409D02*
X107729600Y-110114933D01*
X107729600Y-110114933D02*
X107634361Y-109924457D01*
X107634361Y-109924457D02*
X107634361Y-109543504D01*
X107634361Y-109543504D02*
X107729600Y-109353028D01*
X107729600Y-109353028D02*
X107920076Y-109162552D01*
X107920076Y-109162552D02*
X108301028Y-109067314D01*
X108301028Y-109067314D02*
X108967695Y-109067314D01*
X108967695Y-109067314D02*
X109348647Y-109162552D01*
X109348647Y-109162552D02*
X109539123Y-109353028D01*
X109539123Y-109353028D02*
X109634361Y-109543504D01*
X87181561Y-113551685D02*
X89181561Y-113551685D01*
X89181561Y-113551685D02*
X87752990Y-114218352D01*
X87752990Y-114218352D02*
X89181561Y-114885018D01*
X89181561Y-114885018D02*
X87181561Y-114885018D01*
X87181561Y-115837399D02*
X89181561Y-115837399D01*
X89181561Y-115837399D02*
X89181561Y-116599304D01*
X89181561Y-116599304D02*
X89086323Y-116789780D01*
X89086323Y-116789780D02*
X88991085Y-116885018D01*
X88991085Y-116885018D02*
X88800609Y-116980256D01*
X88800609Y-116980256D02*
X88514895Y-116980256D01*
X88514895Y-116980256D02*
X88324419Y-116885018D01*
X88324419Y-116885018D02*
X88229180Y-116789780D01*
X88229180Y-116789780D02*
X88133942Y-116599304D01*
X88133942Y-116599304D02*
X88133942Y-115837399D01*
X89181561Y-117837399D02*
X87562514Y-117837399D01*
X87562514Y-117837399D02*
X87372038Y-117932637D01*
X87372038Y-117932637D02*
X87276800Y-118027875D01*
X87276800Y-118027875D02*
X87181561Y-118218351D01*
X87181561Y-118218351D02*
X87181561Y-118599304D01*
X87181561Y-118599304D02*
X87276800Y-118789780D01*
X87276800Y-118789780D02*
X87372038Y-118885018D01*
X87372038Y-118885018D02*
X87562514Y-118980256D01*
X87562514Y-118980256D02*
X89181561Y-118980256D01*
X87181561Y-121551685D02*
X87181561Y-121932637D01*
X87181561Y-121932637D02*
X87276800Y-122123114D01*
X87276800Y-122123114D02*
X87372038Y-122218352D01*
X87372038Y-122218352D02*
X87657752Y-122408828D01*
X87657752Y-122408828D02*
X88038704Y-122504066D01*
X88038704Y-122504066D02*
X88800609Y-122504066D01*
X88800609Y-122504066D02*
X88991085Y-122408828D01*
X88991085Y-122408828D02*
X89086323Y-122313590D01*
X89086323Y-122313590D02*
X89181561Y-122123114D01*
X89181561Y-122123114D02*
X89181561Y-121742161D01*
X89181561Y-121742161D02*
X89086323Y-121551685D01*
X89086323Y-121551685D02*
X88991085Y-121456447D01*
X88991085Y-121456447D02*
X88800609Y-121361209D01*
X88800609Y-121361209D02*
X88324419Y-121361209D01*
X88324419Y-121361209D02*
X88133942Y-121456447D01*
X88133942Y-121456447D02*
X88038704Y-121551685D01*
X88038704Y-121551685D02*
X87943466Y-121742161D01*
X87943466Y-121742161D02*
X87943466Y-122123114D01*
X87943466Y-122123114D02*
X88038704Y-122313590D01*
X88038704Y-122313590D02*
X88133942Y-122408828D01*
X88133942Y-122408828D02*
X88324419Y-122504066D01*
X88991085Y-123265971D02*
X89086323Y-123361209D01*
X89086323Y-123361209D02*
X89181561Y-123551685D01*
X89181561Y-123551685D02*
X89181561Y-124027876D01*
X89181561Y-124027876D02*
X89086323Y-124218352D01*
X89086323Y-124218352D02*
X88991085Y-124313590D01*
X88991085Y-124313590D02*
X88800609Y-124408828D01*
X88800609Y-124408828D02*
X88610133Y-124408828D01*
X88610133Y-124408828D02*
X88324419Y-124313590D01*
X88324419Y-124313590D02*
X87181561Y-123170733D01*
X87181561Y-123170733D02*
X87181561Y-124408828D01*
X89181561Y-126218352D02*
X89181561Y-125265971D01*
X89181561Y-125265971D02*
X88229180Y-125170733D01*
X88229180Y-125170733D02*
X88324419Y-125265971D01*
X88324419Y-125265971D02*
X88419657Y-125456447D01*
X88419657Y-125456447D02*
X88419657Y-125932638D01*
X88419657Y-125932638D02*
X88324419Y-126123114D01*
X88324419Y-126123114D02*
X88229180Y-126218352D01*
X88229180Y-126218352D02*
X88038704Y-126313590D01*
X88038704Y-126313590D02*
X87562514Y-126313590D01*
X87562514Y-126313590D02*
X87372038Y-126218352D01*
X87372038Y-126218352D02*
X87276800Y-126123114D01*
X87276800Y-126123114D02*
X87181561Y-125932638D01*
X87181561Y-125932638D02*
X87181561Y-125456447D01*
X87181561Y-125456447D02*
X87276800Y-125265971D01*
X87276800Y-125265971D02*
X87372038Y-125170733D01*
X89181561Y-127551685D02*
X89181561Y-127742162D01*
X89181561Y-127742162D02*
X89086323Y-127932638D01*
X89086323Y-127932638D02*
X88991085Y-128027876D01*
X88991085Y-128027876D02*
X88800609Y-128123114D01*
X88800609Y-128123114D02*
X88419657Y-128218352D01*
X88419657Y-128218352D02*
X87943466Y-128218352D01*
X87943466Y-128218352D02*
X87562514Y-128123114D01*
X87562514Y-128123114D02*
X87372038Y-128027876D01*
X87372038Y-128027876D02*
X87276800Y-127932638D01*
X87276800Y-127932638D02*
X87181561Y-127742162D01*
X87181561Y-127742162D02*
X87181561Y-127551685D01*
X87181561Y-127551685D02*
X87276800Y-127361209D01*
X87276800Y-127361209D02*
X87372038Y-127265971D01*
X87372038Y-127265971D02*
X87562514Y-127170733D01*
X87562514Y-127170733D02*
X87943466Y-127075495D01*
X87943466Y-127075495D02*
X88419657Y-127075495D01*
X88419657Y-127075495D02*
X88800609Y-127170733D01*
X88800609Y-127170733D02*
X88991085Y-127265971D01*
X88991085Y-127265971D02*
X89086323Y-127361209D01*
X89086323Y-127361209D02*
X89181561Y-127551685D01*
D11*
X136283847Y-73179295D02*
X136779085Y-73179295D01*
X136779085Y-73179295D02*
X136512419Y-73484057D01*
X136512419Y-73484057D02*
X136626704Y-73484057D01*
X136626704Y-73484057D02*
X136702895Y-73522152D01*
X136702895Y-73522152D02*
X136740990Y-73560247D01*
X136740990Y-73560247D02*
X136779085Y-73636438D01*
X136779085Y-73636438D02*
X136779085Y-73826914D01*
X136779085Y-73826914D02*
X136740990Y-73903104D01*
X136740990Y-73903104D02*
X136702895Y-73941200D01*
X136702895Y-73941200D02*
X136626704Y-73979295D01*
X136626704Y-73979295D02*
X136398133Y-73979295D01*
X136398133Y-73979295D02*
X136321942Y-73941200D01*
X136321942Y-73941200D02*
X136283847Y-73903104D01*
X137121943Y-73903104D02*
X137160038Y-73941200D01*
X137160038Y-73941200D02*
X137121943Y-73979295D01*
X137121943Y-73979295D02*
X137083847Y-73941200D01*
X137083847Y-73941200D02*
X137121943Y-73903104D01*
X137121943Y-73903104D02*
X137121943Y-73979295D01*
X137426704Y-73179295D02*
X137921942Y-73179295D01*
X137921942Y-73179295D02*
X137655276Y-73484057D01*
X137655276Y-73484057D02*
X137769561Y-73484057D01*
X137769561Y-73484057D02*
X137845752Y-73522152D01*
X137845752Y-73522152D02*
X137883847Y-73560247D01*
X137883847Y-73560247D02*
X137921942Y-73636438D01*
X137921942Y-73636438D02*
X137921942Y-73826914D01*
X137921942Y-73826914D02*
X137883847Y-73903104D01*
X137883847Y-73903104D02*
X137845752Y-73941200D01*
X137845752Y-73941200D02*
X137769561Y-73979295D01*
X137769561Y-73979295D02*
X137540990Y-73979295D01*
X137540990Y-73979295D02*
X137464799Y-73941200D01*
X137464799Y-73941200D02*
X137426704Y-73903104D01*
X138150514Y-73179295D02*
X138417181Y-73979295D01*
X138417181Y-73979295D02*
X138683847Y-73179295D01*
X137566380Y-65733304D02*
X137947332Y-65733304D01*
X137947332Y-65733304D02*
X137985428Y-65352352D01*
X137985428Y-65352352D02*
X137947332Y-65390447D01*
X137947332Y-65390447D02*
X137871142Y-65428542D01*
X137871142Y-65428542D02*
X137680666Y-65428542D01*
X137680666Y-65428542D02*
X137604475Y-65390447D01*
X137604475Y-65390447D02*
X137566380Y-65352352D01*
X137566380Y-65352352D02*
X137528285Y-65276161D01*
X137528285Y-65276161D02*
X137528285Y-65085685D01*
X137528285Y-65085685D02*
X137566380Y-65009495D01*
X137566380Y-65009495D02*
X137604475Y-64971400D01*
X137604475Y-64971400D02*
X137680666Y-64933304D01*
X137680666Y-64933304D02*
X137871142Y-64933304D01*
X137871142Y-64933304D02*
X137947332Y-64971400D01*
X137947332Y-64971400D02*
X137985428Y-65009495D01*
X137299713Y-65733304D02*
X137033046Y-64933304D01*
X137033046Y-64933304D02*
X136766380Y-65733304D01*
X80378009Y-97637676D02*
X80416104Y-97561486D01*
X80416104Y-97561486D02*
X80416104Y-97447200D01*
X80416104Y-97447200D02*
X80378009Y-97332914D01*
X80378009Y-97332914D02*
X80301819Y-97256724D01*
X80301819Y-97256724D02*
X80225628Y-97218629D01*
X80225628Y-97218629D02*
X80073247Y-97180533D01*
X80073247Y-97180533D02*
X79958961Y-97180533D01*
X79958961Y-97180533D02*
X79806580Y-97218629D01*
X79806580Y-97218629D02*
X79730390Y-97256724D01*
X79730390Y-97256724D02*
X79654200Y-97332914D01*
X79654200Y-97332914D02*
X79616104Y-97447200D01*
X79616104Y-97447200D02*
X79616104Y-97523391D01*
X79616104Y-97523391D02*
X79654200Y-97637676D01*
X79654200Y-97637676D02*
X79692295Y-97675772D01*
X79692295Y-97675772D02*
X79958961Y-97675772D01*
X79958961Y-97675772D02*
X79958961Y-97523391D01*
X79616104Y-98018629D02*
X80416104Y-98018629D01*
X80416104Y-98018629D02*
X79616104Y-98475772D01*
X79616104Y-98475772D02*
X80416104Y-98475772D01*
X79616104Y-98856724D02*
X80416104Y-98856724D01*
X80416104Y-98856724D02*
X80416104Y-99047200D01*
X80416104Y-99047200D02*
X80378009Y-99161486D01*
X80378009Y-99161486D02*
X80301819Y-99237676D01*
X80301819Y-99237676D02*
X80225628Y-99275771D01*
X80225628Y-99275771D02*
X80073247Y-99313867D01*
X80073247Y-99313867D02*
X79958961Y-99313867D01*
X79958961Y-99313867D02*
X79806580Y-99275771D01*
X79806580Y-99275771D02*
X79730390Y-99237676D01*
X79730390Y-99237676D02*
X79654200Y-99161486D01*
X79654200Y-99161486D02*
X79616104Y-99047200D01*
X79616104Y-99047200D02*
X79616104Y-98856724D01*
X79616104Y-95211961D02*
X79616104Y-94754818D01*
X79616104Y-94983390D02*
X80416104Y-94983390D01*
X80416104Y-94983390D02*
X80301819Y-94907199D01*
X80301819Y-94907199D02*
X80225628Y-94831009D01*
X80225628Y-94831009D02*
X80187533Y-94754818D01*
X80339914Y-95516723D02*
X80378009Y-95554819D01*
X80378009Y-95554819D02*
X80416104Y-95631009D01*
X80416104Y-95631009D02*
X80416104Y-95821485D01*
X80416104Y-95821485D02*
X80378009Y-95897676D01*
X80378009Y-95897676D02*
X80339914Y-95935771D01*
X80339914Y-95935771D02*
X80263723Y-95973866D01*
X80263723Y-95973866D02*
X80187533Y-95973866D01*
X80187533Y-95973866D02*
X80073247Y-95935771D01*
X80073247Y-95935771D02*
X79616104Y-95478628D01*
X79616104Y-95478628D02*
X79616104Y-95973866D01*
X80416104Y-96202438D02*
X79616104Y-96469105D01*
X79616104Y-96469105D02*
X80416104Y-96735771D01*
X79654200Y-99942771D02*
X79616104Y-100057057D01*
X79616104Y-100057057D02*
X79616104Y-100247533D01*
X79616104Y-100247533D02*
X79654200Y-100323724D01*
X79654200Y-100323724D02*
X79692295Y-100361819D01*
X79692295Y-100361819D02*
X79768485Y-100399914D01*
X79768485Y-100399914D02*
X79844676Y-100399914D01*
X79844676Y-100399914D02*
X79920866Y-100361819D01*
X79920866Y-100361819D02*
X79958961Y-100323724D01*
X79958961Y-100323724D02*
X79997057Y-100247533D01*
X79997057Y-100247533D02*
X80035152Y-100095152D01*
X80035152Y-100095152D02*
X80073247Y-100018962D01*
X80073247Y-100018962D02*
X80111342Y-99980867D01*
X80111342Y-99980867D02*
X80187533Y-99942771D01*
X80187533Y-99942771D02*
X80263723Y-99942771D01*
X80263723Y-99942771D02*
X80339914Y-99980867D01*
X80339914Y-99980867D02*
X80378009Y-100018962D01*
X80378009Y-100018962D02*
X80416104Y-100095152D01*
X80416104Y-100095152D02*
X80416104Y-100285629D01*
X80416104Y-100285629D02*
X80378009Y-100399914D01*
X79616104Y-100742772D02*
X80416104Y-100742772D01*
X80416104Y-100742772D02*
X80416104Y-100933248D01*
X80416104Y-100933248D02*
X80378009Y-101047534D01*
X80378009Y-101047534D02*
X80301819Y-101123724D01*
X80301819Y-101123724D02*
X80225628Y-101161819D01*
X80225628Y-101161819D02*
X80073247Y-101199915D01*
X80073247Y-101199915D02*
X79958961Y-101199915D01*
X79958961Y-101199915D02*
X79806580Y-101161819D01*
X79806580Y-101161819D02*
X79730390Y-101123724D01*
X79730390Y-101123724D02*
X79654200Y-101047534D01*
X79654200Y-101047534D02*
X79616104Y-100933248D01*
X79616104Y-100933248D02*
X79616104Y-100742772D01*
X79844676Y-101504676D02*
X79844676Y-101885629D01*
X79616104Y-101428486D02*
X80416104Y-101695153D01*
X80416104Y-101695153D02*
X79616104Y-101961819D01*
X79754200Y-102705018D02*
X79716104Y-102819304D01*
X79716104Y-102819304D02*
X79716104Y-103009780D01*
X79716104Y-103009780D02*
X79754200Y-103085971D01*
X79754200Y-103085971D02*
X79792295Y-103124066D01*
X79792295Y-103124066D02*
X79868485Y-103162161D01*
X79868485Y-103162161D02*
X79944676Y-103162161D01*
X79944676Y-103162161D02*
X80020866Y-103124066D01*
X80020866Y-103124066D02*
X80058961Y-103085971D01*
X80058961Y-103085971D02*
X80097057Y-103009780D01*
X80097057Y-103009780D02*
X80135152Y-102857399D01*
X80135152Y-102857399D02*
X80173247Y-102781209D01*
X80173247Y-102781209D02*
X80211342Y-102743114D01*
X80211342Y-102743114D02*
X80287533Y-102705018D01*
X80287533Y-102705018D02*
X80363723Y-102705018D01*
X80363723Y-102705018D02*
X80439914Y-102743114D01*
X80439914Y-102743114D02*
X80478009Y-102781209D01*
X80478009Y-102781209D02*
X80516104Y-102857399D01*
X80516104Y-102857399D02*
X80516104Y-103047876D01*
X80516104Y-103047876D02*
X80478009Y-103162161D01*
X79792295Y-103962162D02*
X79754200Y-103924066D01*
X79754200Y-103924066D02*
X79716104Y-103809781D01*
X79716104Y-103809781D02*
X79716104Y-103733590D01*
X79716104Y-103733590D02*
X79754200Y-103619304D01*
X79754200Y-103619304D02*
X79830390Y-103543114D01*
X79830390Y-103543114D02*
X79906580Y-103505019D01*
X79906580Y-103505019D02*
X80058961Y-103466923D01*
X80058961Y-103466923D02*
X80173247Y-103466923D01*
X80173247Y-103466923D02*
X80325628Y-103505019D01*
X80325628Y-103505019D02*
X80401819Y-103543114D01*
X80401819Y-103543114D02*
X80478009Y-103619304D01*
X80478009Y-103619304D02*
X80516104Y-103733590D01*
X80516104Y-103733590D02*
X80516104Y-103809781D01*
X80516104Y-103809781D02*
X80478009Y-103924066D01*
X80478009Y-103924066D02*
X80439914Y-103962162D01*
X79716104Y-104685971D02*
X79716104Y-104305019D01*
X79716104Y-104305019D02*
X80516104Y-104305019D01*
D12*
X83333457Y-66879273D02*
X83333457Y-65629273D01*
X83333457Y-65629273D02*
X83809647Y-65629273D01*
X83809647Y-65629273D02*
X83928695Y-65688797D01*
X83928695Y-65688797D02*
X83988218Y-65748321D01*
X83988218Y-65748321D02*
X84047742Y-65867369D01*
X84047742Y-65867369D02*
X84047742Y-66045940D01*
X84047742Y-66045940D02*
X83988218Y-66164988D01*
X83988218Y-66164988D02*
X83928695Y-66224511D01*
X83928695Y-66224511D02*
X83809647Y-66284035D01*
X83809647Y-66284035D02*
X83333457Y-66284035D01*
X84583457Y-66879273D02*
X84583457Y-65629273D01*
X86131076Y-66879273D02*
X86131076Y-65629273D01*
X86131076Y-66224511D02*
X86845361Y-66224511D01*
X86845361Y-66879273D02*
X86845361Y-65629273D01*
X87381076Y-66522130D02*
X87976314Y-66522130D01*
X87262028Y-66879273D02*
X87678695Y-65629273D01*
X87678695Y-65629273D02*
X88095361Y-66879273D01*
X88333457Y-65629273D02*
X89047743Y-65629273D01*
X88690600Y-66879273D02*
X88690600Y-65629273D01*
X90238219Y-65629273D02*
X90654886Y-66879273D01*
X90654886Y-66879273D02*
X91071552Y-65629273D01*
X91369172Y-65629273D02*
X92142981Y-65629273D01*
X92142981Y-65629273D02*
X91726315Y-66105464D01*
X91726315Y-66105464D02*
X91904886Y-66105464D01*
X91904886Y-66105464D02*
X92023934Y-66164988D01*
X92023934Y-66164988D02*
X92083458Y-66224511D01*
X92083458Y-66224511D02*
X92142981Y-66343559D01*
X92142981Y-66343559D02*
X92142981Y-66641178D01*
X92142981Y-66641178D02*
X92083458Y-66760226D01*
X92083458Y-66760226D02*
X92023934Y-66819750D01*
X92023934Y-66819750D02*
X91904886Y-66879273D01*
X91904886Y-66879273D02*
X91547743Y-66879273D01*
X91547743Y-66879273D02*
X91428696Y-66819750D01*
X91428696Y-66819750D02*
X91369172Y-66760226D01*
X93869172Y-65629273D02*
X93988219Y-65629273D01*
X93988219Y-65629273D02*
X94107267Y-65688797D01*
X94107267Y-65688797D02*
X94166791Y-65748321D01*
X94166791Y-65748321D02*
X94226315Y-65867369D01*
X94226315Y-65867369D02*
X94285838Y-66105464D01*
X94285838Y-66105464D02*
X94285838Y-66403083D01*
X94285838Y-66403083D02*
X94226315Y-66641178D01*
X94226315Y-66641178D02*
X94166791Y-66760226D01*
X94166791Y-66760226D02*
X94107267Y-66819750D01*
X94107267Y-66819750D02*
X93988219Y-66879273D01*
X93988219Y-66879273D02*
X93869172Y-66879273D01*
X93869172Y-66879273D02*
X93750124Y-66819750D01*
X93750124Y-66819750D02*
X93690600Y-66760226D01*
X93690600Y-66760226D02*
X93631077Y-66641178D01*
X93631077Y-66641178D02*
X93571553Y-66403083D01*
X93571553Y-66403083D02*
X93571553Y-66105464D01*
X93571553Y-66105464D02*
X93631077Y-65867369D01*
X93631077Y-65867369D02*
X93690600Y-65748321D01*
X93690600Y-65748321D02*
X93750124Y-65688797D01*
X93750124Y-65688797D02*
X93869172Y-65629273D01*
X95476314Y-66879273D02*
X94762029Y-66879273D01*
X95119172Y-66879273D02*
X95119172Y-65629273D01*
X95119172Y-65629273D02*
X95000124Y-65807845D01*
X95000124Y-65807845D02*
X94881076Y-65926892D01*
X94881076Y-65926892D02*
X94762029Y-65986416D01*
X96904886Y-65569750D02*
X95833457Y-67176892D01*
X97262029Y-65748321D02*
X97321553Y-65688797D01*
X97321553Y-65688797D02*
X97440600Y-65629273D01*
X97440600Y-65629273D02*
X97738219Y-65629273D01*
X97738219Y-65629273D02*
X97857267Y-65688797D01*
X97857267Y-65688797D02*
X97916791Y-65748321D01*
X97916791Y-65748321D02*
X97976314Y-65867369D01*
X97976314Y-65867369D02*
X97976314Y-65986416D01*
X97976314Y-65986416D02*
X97916791Y-66164988D01*
X97916791Y-66164988D02*
X97202505Y-66879273D01*
X97202505Y-66879273D02*
X97976314Y-66879273D01*
X99047743Y-66045940D02*
X99047743Y-66879273D01*
X98750124Y-65569750D02*
X98452505Y-66462607D01*
X98452505Y-66462607D02*
X99226314Y-66462607D01*
X100595362Y-65569750D02*
X99523933Y-67176892D01*
X100952505Y-65748321D02*
X101012029Y-65688797D01*
X101012029Y-65688797D02*
X101131076Y-65629273D01*
X101131076Y-65629273D02*
X101428695Y-65629273D01*
X101428695Y-65629273D02*
X101547743Y-65688797D01*
X101547743Y-65688797D02*
X101607267Y-65748321D01*
X101607267Y-65748321D02*
X101666790Y-65867369D01*
X101666790Y-65867369D02*
X101666790Y-65986416D01*
X101666790Y-65986416D02*
X101607267Y-66164988D01*
X101607267Y-66164988D02*
X100892981Y-66879273D01*
X100892981Y-66879273D02*
X101666790Y-66879273D01*
X102738219Y-66045940D02*
X102738219Y-66879273D01*
X102440600Y-65569750D02*
X102142981Y-66462607D01*
X102142981Y-66462607D02*
X102916790Y-66462607D01*
X85863219Y-68249511D02*
X86279885Y-68249511D01*
X86458457Y-68904273D02*
X85863219Y-68904273D01*
X85863219Y-68904273D02*
X85863219Y-67654273D01*
X85863219Y-67654273D02*
X86458457Y-67654273D01*
X86934647Y-68547130D02*
X87529885Y-68547130D01*
X86815599Y-68904273D02*
X87232266Y-67654273D01*
X87232266Y-67654273D02*
X87648932Y-68904273D01*
X88006076Y-68844750D02*
X88184647Y-68904273D01*
X88184647Y-68904273D02*
X88482266Y-68904273D01*
X88482266Y-68904273D02*
X88601314Y-68844750D01*
X88601314Y-68844750D02*
X88660838Y-68785226D01*
X88660838Y-68785226D02*
X88720361Y-68666178D01*
X88720361Y-68666178D02*
X88720361Y-68547130D01*
X88720361Y-68547130D02*
X88660838Y-68428083D01*
X88660838Y-68428083D02*
X88601314Y-68368559D01*
X88601314Y-68368559D02*
X88482266Y-68309035D01*
X88482266Y-68309035D02*
X88244171Y-68249511D01*
X88244171Y-68249511D02*
X88125123Y-68189988D01*
X88125123Y-68189988D02*
X88065600Y-68130464D01*
X88065600Y-68130464D02*
X88006076Y-68011416D01*
X88006076Y-68011416D02*
X88006076Y-67892369D01*
X88006076Y-67892369D02*
X88065600Y-67773321D01*
X88065600Y-67773321D02*
X88125123Y-67713797D01*
X88125123Y-67713797D02*
X88244171Y-67654273D01*
X88244171Y-67654273D02*
X88541790Y-67654273D01*
X88541790Y-67654273D02*
X88720361Y-67713797D01*
X89494171Y-68309035D02*
X89494171Y-68904273D01*
X89077504Y-67654273D02*
X89494171Y-68309035D01*
X89494171Y-68309035D02*
X89910837Y-67654273D01*
X91994171Y-68785226D02*
X91934647Y-68844750D01*
X91934647Y-68844750D02*
X91756076Y-68904273D01*
X91756076Y-68904273D02*
X91637028Y-68904273D01*
X91637028Y-68904273D02*
X91458457Y-68844750D01*
X91458457Y-68844750D02*
X91339409Y-68725702D01*
X91339409Y-68725702D02*
X91279886Y-68606654D01*
X91279886Y-68606654D02*
X91220362Y-68368559D01*
X91220362Y-68368559D02*
X91220362Y-68189988D01*
X91220362Y-68189988D02*
X91279886Y-67951892D01*
X91279886Y-67951892D02*
X91339409Y-67832845D01*
X91339409Y-67832845D02*
X91458457Y-67713797D01*
X91458457Y-67713797D02*
X91637028Y-67654273D01*
X91637028Y-67654273D02*
X91756076Y-67654273D01*
X91756076Y-67654273D02*
X91934647Y-67713797D01*
X91934647Y-67713797D02*
X91994171Y-67773321D01*
X92767981Y-67654273D02*
X93006076Y-67654273D01*
X93006076Y-67654273D02*
X93125124Y-67713797D01*
X93125124Y-67713797D02*
X93244171Y-67832845D01*
X93244171Y-67832845D02*
X93303695Y-68070940D01*
X93303695Y-68070940D02*
X93303695Y-68487607D01*
X93303695Y-68487607D02*
X93244171Y-68725702D01*
X93244171Y-68725702D02*
X93125124Y-68844750D01*
X93125124Y-68844750D02*
X93006076Y-68904273D01*
X93006076Y-68904273D02*
X92767981Y-68904273D01*
X92767981Y-68904273D02*
X92648933Y-68844750D01*
X92648933Y-68844750D02*
X92529886Y-68725702D01*
X92529886Y-68725702D02*
X92470362Y-68487607D01*
X92470362Y-68487607D02*
X92470362Y-68070940D01*
X92470362Y-68070940D02*
X92529886Y-67832845D01*
X92529886Y-67832845D02*
X92648933Y-67713797D01*
X92648933Y-67713797D02*
X92767981Y-67654273D01*
X93839410Y-68904273D02*
X93839410Y-67654273D01*
X93839410Y-67654273D02*
X94553695Y-68904273D01*
X94553695Y-68904273D02*
X94553695Y-67654273D01*
X94970362Y-67654273D02*
X95684648Y-67654273D01*
X95327505Y-68904273D02*
X95327505Y-67654273D01*
X96815600Y-68904273D02*
X96398934Y-68309035D01*
X96101315Y-68904273D02*
X96101315Y-67654273D01*
X96101315Y-67654273D02*
X96577505Y-67654273D01*
X96577505Y-67654273D02*
X96696553Y-67713797D01*
X96696553Y-67713797D02*
X96756076Y-67773321D01*
X96756076Y-67773321D02*
X96815600Y-67892369D01*
X96815600Y-67892369D02*
X96815600Y-68070940D01*
X96815600Y-68070940D02*
X96756076Y-68189988D01*
X96756076Y-68189988D02*
X96696553Y-68249511D01*
X96696553Y-68249511D02*
X96577505Y-68309035D01*
X96577505Y-68309035D02*
X96101315Y-68309035D01*
X97589410Y-67654273D02*
X97827505Y-67654273D01*
X97827505Y-67654273D02*
X97946553Y-67713797D01*
X97946553Y-67713797D02*
X98065600Y-67832845D01*
X98065600Y-67832845D02*
X98125124Y-68070940D01*
X98125124Y-68070940D02*
X98125124Y-68487607D01*
X98125124Y-68487607D02*
X98065600Y-68725702D01*
X98065600Y-68725702D02*
X97946553Y-68844750D01*
X97946553Y-68844750D02*
X97827505Y-68904273D01*
X97827505Y-68904273D02*
X97589410Y-68904273D01*
X97589410Y-68904273D02*
X97470362Y-68844750D01*
X97470362Y-68844750D02*
X97351315Y-68725702D01*
X97351315Y-68725702D02*
X97291791Y-68487607D01*
X97291791Y-68487607D02*
X97291791Y-68070940D01*
X97291791Y-68070940D02*
X97351315Y-67832845D01*
X97351315Y-67832845D02*
X97470362Y-67713797D01*
X97470362Y-67713797D02*
X97589410Y-67654273D01*
X99256077Y-68904273D02*
X98660839Y-68904273D01*
X98660839Y-68904273D02*
X98660839Y-67654273D01*
X99613220Y-68844750D02*
X99791791Y-68904273D01*
X99791791Y-68904273D02*
X100089410Y-68904273D01*
X100089410Y-68904273D02*
X100208458Y-68844750D01*
X100208458Y-68844750D02*
X100267982Y-68785226D01*
X100267982Y-68785226D02*
X100327505Y-68666178D01*
X100327505Y-68666178D02*
X100327505Y-68547130D01*
X100327505Y-68547130D02*
X100267982Y-68428083D01*
X100267982Y-68428083D02*
X100208458Y-68368559D01*
X100208458Y-68368559D02*
X100089410Y-68309035D01*
X100089410Y-68309035D02*
X99851315Y-68249511D01*
X99851315Y-68249511D02*
X99732267Y-68189988D01*
X99732267Y-68189988D02*
X99672744Y-68130464D01*
X99672744Y-68130464D02*
X99613220Y-68011416D01*
X99613220Y-68011416D02*
X99613220Y-67892369D01*
X99613220Y-67892369D02*
X99672744Y-67773321D01*
X99672744Y-67773321D02*
X99732267Y-67713797D01*
X99732267Y-67713797D02*
X99851315Y-67654273D01*
X99851315Y-67654273D02*
X100148934Y-67654273D01*
X100148934Y-67654273D02*
X100327505Y-67713797D01*
X80565601Y-70929273D02*
X80565601Y-69679273D01*
X80565601Y-69679273D02*
X80863220Y-69679273D01*
X80863220Y-69679273D02*
X81041791Y-69738797D01*
X81041791Y-69738797D02*
X81160839Y-69857845D01*
X81160839Y-69857845D02*
X81220362Y-69976892D01*
X81220362Y-69976892D02*
X81279886Y-70214988D01*
X81279886Y-70214988D02*
X81279886Y-70393559D01*
X81279886Y-70393559D02*
X81220362Y-70631654D01*
X81220362Y-70631654D02*
X81160839Y-70750702D01*
X81160839Y-70750702D02*
X81041791Y-70869750D01*
X81041791Y-70869750D02*
X80863220Y-70929273D01*
X80863220Y-70929273D02*
X80565601Y-70929273D01*
X82291791Y-70869750D02*
X82172743Y-70929273D01*
X82172743Y-70929273D02*
X81934648Y-70929273D01*
X81934648Y-70929273D02*
X81815601Y-70869750D01*
X81815601Y-70869750D02*
X81756077Y-70750702D01*
X81756077Y-70750702D02*
X81756077Y-70274511D01*
X81756077Y-70274511D02*
X81815601Y-70155464D01*
X81815601Y-70155464D02*
X81934648Y-70095940D01*
X81934648Y-70095940D02*
X82172743Y-70095940D01*
X82172743Y-70095940D02*
X82291791Y-70155464D01*
X82291791Y-70155464D02*
X82351315Y-70274511D01*
X82351315Y-70274511D02*
X82351315Y-70393559D01*
X82351315Y-70393559D02*
X81756077Y-70512607D01*
X82827506Y-70869750D02*
X82946553Y-70929273D01*
X82946553Y-70929273D02*
X83184649Y-70929273D01*
X83184649Y-70929273D02*
X83303696Y-70869750D01*
X83303696Y-70869750D02*
X83363220Y-70750702D01*
X83363220Y-70750702D02*
X83363220Y-70691178D01*
X83363220Y-70691178D02*
X83303696Y-70572130D01*
X83303696Y-70572130D02*
X83184649Y-70512607D01*
X83184649Y-70512607D02*
X83006077Y-70512607D01*
X83006077Y-70512607D02*
X82887030Y-70453083D01*
X82887030Y-70453083D02*
X82827506Y-70334035D01*
X82827506Y-70334035D02*
X82827506Y-70274511D01*
X82827506Y-70274511D02*
X82887030Y-70155464D01*
X82887030Y-70155464D02*
X83006077Y-70095940D01*
X83006077Y-70095940D02*
X83184649Y-70095940D01*
X83184649Y-70095940D02*
X83303696Y-70155464D01*
X83898935Y-70929273D02*
X83898935Y-70095940D01*
X83898935Y-69679273D02*
X83839411Y-69738797D01*
X83839411Y-69738797D02*
X83898935Y-69798321D01*
X83898935Y-69798321D02*
X83958458Y-69738797D01*
X83958458Y-69738797D02*
X83898935Y-69679273D01*
X83898935Y-69679273D02*
X83898935Y-69798321D01*
X85029887Y-70095940D02*
X85029887Y-71107845D01*
X85029887Y-71107845D02*
X84970363Y-71226892D01*
X84970363Y-71226892D02*
X84910839Y-71286416D01*
X84910839Y-71286416D02*
X84791792Y-71345940D01*
X84791792Y-71345940D02*
X84613220Y-71345940D01*
X84613220Y-71345940D02*
X84494173Y-71286416D01*
X85029887Y-70869750D02*
X84910839Y-70929273D01*
X84910839Y-70929273D02*
X84672744Y-70929273D01*
X84672744Y-70929273D02*
X84553696Y-70869750D01*
X84553696Y-70869750D02*
X84494173Y-70810226D01*
X84494173Y-70810226D02*
X84434649Y-70691178D01*
X84434649Y-70691178D02*
X84434649Y-70334035D01*
X84434649Y-70334035D02*
X84494173Y-70214988D01*
X84494173Y-70214988D02*
X84553696Y-70155464D01*
X84553696Y-70155464D02*
X84672744Y-70095940D01*
X84672744Y-70095940D02*
X84910839Y-70095940D01*
X84910839Y-70095940D02*
X85029887Y-70155464D01*
X85625125Y-70095940D02*
X85625125Y-70929273D01*
X85625125Y-70214988D02*
X85684648Y-70155464D01*
X85684648Y-70155464D02*
X85803696Y-70095940D01*
X85803696Y-70095940D02*
X85982267Y-70095940D01*
X85982267Y-70095940D02*
X86101315Y-70155464D01*
X86101315Y-70155464D02*
X86160839Y-70274511D01*
X86160839Y-70274511D02*
X86160839Y-70929273D01*
X87232267Y-70869750D02*
X87113219Y-70929273D01*
X87113219Y-70929273D02*
X86875124Y-70929273D01*
X86875124Y-70929273D02*
X86756077Y-70869750D01*
X86756077Y-70869750D02*
X86696553Y-70750702D01*
X86696553Y-70750702D02*
X86696553Y-70274511D01*
X86696553Y-70274511D02*
X86756077Y-70155464D01*
X86756077Y-70155464D02*
X86875124Y-70095940D01*
X86875124Y-70095940D02*
X87113219Y-70095940D01*
X87113219Y-70095940D02*
X87232267Y-70155464D01*
X87232267Y-70155464D02*
X87291791Y-70274511D01*
X87291791Y-70274511D02*
X87291791Y-70393559D01*
X87291791Y-70393559D02*
X86696553Y-70512607D01*
X88363220Y-70929273D02*
X88363220Y-69679273D01*
X88363220Y-70869750D02*
X88244172Y-70929273D01*
X88244172Y-70929273D02*
X88006077Y-70929273D01*
X88006077Y-70929273D02*
X87887029Y-70869750D01*
X87887029Y-70869750D02*
X87827506Y-70810226D01*
X87827506Y-70810226D02*
X87767982Y-70691178D01*
X87767982Y-70691178D02*
X87767982Y-70334035D01*
X87767982Y-70334035D02*
X87827506Y-70214988D01*
X87827506Y-70214988D02*
X87887029Y-70155464D01*
X87887029Y-70155464D02*
X88006077Y-70095940D01*
X88006077Y-70095940D02*
X88244172Y-70095940D01*
X88244172Y-70095940D02*
X88363220Y-70155464D01*
X89910839Y-70929273D02*
X89910839Y-69679273D01*
X89910839Y-70155464D02*
X90029886Y-70095940D01*
X90029886Y-70095940D02*
X90267981Y-70095940D01*
X90267981Y-70095940D02*
X90387029Y-70155464D01*
X90387029Y-70155464D02*
X90446553Y-70214988D01*
X90446553Y-70214988D02*
X90506077Y-70334035D01*
X90506077Y-70334035D02*
X90506077Y-70691178D01*
X90506077Y-70691178D02*
X90446553Y-70810226D01*
X90446553Y-70810226D02*
X90387029Y-70869750D01*
X90387029Y-70869750D02*
X90267981Y-70929273D01*
X90267981Y-70929273D02*
X90029886Y-70929273D01*
X90029886Y-70929273D02*
X89910839Y-70869750D01*
X90922743Y-70095940D02*
X91220362Y-70929273D01*
X91517981Y-70095940D02*
X91220362Y-70929273D01*
X91220362Y-70929273D02*
X91101314Y-71226892D01*
X91101314Y-71226892D02*
X91041791Y-71286416D01*
X91041791Y-71286416D02*
X90922743Y-71345940D01*
X91994172Y-70810226D02*
X92053695Y-70869750D01*
X92053695Y-70869750D02*
X91994172Y-70929273D01*
X91994172Y-70929273D02*
X91934648Y-70869750D01*
X91934648Y-70869750D02*
X91994172Y-70810226D01*
X91994172Y-70810226D02*
X91994172Y-70929273D01*
X91994172Y-70155464D02*
X92053695Y-70214988D01*
X92053695Y-70214988D02*
X91994172Y-70274511D01*
X91994172Y-70274511D02*
X91934648Y-70214988D01*
X91934648Y-70214988D02*
X91994172Y-70155464D01*
X91994172Y-70155464D02*
X91994172Y-70274511D01*
X93898933Y-69679273D02*
X93898933Y-70572130D01*
X93898933Y-70572130D02*
X93839410Y-70750702D01*
X93839410Y-70750702D02*
X93720362Y-70869750D01*
X93720362Y-70869750D02*
X93541791Y-70929273D01*
X93541791Y-70929273D02*
X93422743Y-70929273D01*
X95029886Y-70929273D02*
X95029886Y-70274511D01*
X95029886Y-70274511D02*
X94970362Y-70155464D01*
X94970362Y-70155464D02*
X94851314Y-70095940D01*
X94851314Y-70095940D02*
X94613219Y-70095940D01*
X94613219Y-70095940D02*
X94494172Y-70155464D01*
X95029886Y-70869750D02*
X94910838Y-70929273D01*
X94910838Y-70929273D02*
X94613219Y-70929273D01*
X94613219Y-70929273D02*
X94494172Y-70869750D01*
X94494172Y-70869750D02*
X94434648Y-70750702D01*
X94434648Y-70750702D02*
X94434648Y-70631654D01*
X94434648Y-70631654D02*
X94494172Y-70512607D01*
X94494172Y-70512607D02*
X94613219Y-70453083D01*
X94613219Y-70453083D02*
X94910838Y-70453083D01*
X94910838Y-70453083D02*
X95029886Y-70393559D01*
X96160838Y-70869750D02*
X96041790Y-70929273D01*
X96041790Y-70929273D02*
X95803695Y-70929273D01*
X95803695Y-70929273D02*
X95684647Y-70869750D01*
X95684647Y-70869750D02*
X95625124Y-70810226D01*
X95625124Y-70810226D02*
X95565600Y-70691178D01*
X95565600Y-70691178D02*
X95565600Y-70334035D01*
X95565600Y-70334035D02*
X95625124Y-70214988D01*
X95625124Y-70214988D02*
X95684647Y-70155464D01*
X95684647Y-70155464D02*
X95803695Y-70095940D01*
X95803695Y-70095940D02*
X96041790Y-70095940D01*
X96041790Y-70095940D02*
X96160838Y-70155464D01*
X96875124Y-70929273D02*
X96756076Y-70869750D01*
X96756076Y-70869750D02*
X96696553Y-70810226D01*
X96696553Y-70810226D02*
X96637029Y-70691178D01*
X96637029Y-70691178D02*
X96637029Y-70334035D01*
X96637029Y-70334035D02*
X96696553Y-70214988D01*
X96696553Y-70214988D02*
X96756076Y-70155464D01*
X96756076Y-70155464D02*
X96875124Y-70095940D01*
X96875124Y-70095940D02*
X97053695Y-70095940D01*
X97053695Y-70095940D02*
X97172743Y-70155464D01*
X97172743Y-70155464D02*
X97232267Y-70214988D01*
X97232267Y-70214988D02*
X97291791Y-70334035D01*
X97291791Y-70334035D02*
X97291791Y-70691178D01*
X97291791Y-70691178D02*
X97232267Y-70810226D01*
X97232267Y-70810226D02*
X97172743Y-70869750D01*
X97172743Y-70869750D02*
X97053695Y-70929273D01*
X97053695Y-70929273D02*
X96875124Y-70929273D01*
X97827505Y-70929273D02*
X97827505Y-69679273D01*
X97827505Y-70155464D02*
X97946552Y-70095940D01*
X97946552Y-70095940D02*
X98184647Y-70095940D01*
X98184647Y-70095940D02*
X98303695Y-70155464D01*
X98303695Y-70155464D02*
X98363219Y-70214988D01*
X98363219Y-70214988D02*
X98422743Y-70334035D01*
X98422743Y-70334035D02*
X98422743Y-70691178D01*
X98422743Y-70691178D02*
X98363219Y-70810226D01*
X98363219Y-70810226D02*
X98303695Y-70869750D01*
X98303695Y-70869750D02*
X98184647Y-70929273D01*
X98184647Y-70929273D02*
X97946552Y-70929273D01*
X97946552Y-70929273D02*
X97827505Y-70869750D01*
X100625123Y-70929273D02*
X100208457Y-70334035D01*
X99910838Y-70929273D02*
X99910838Y-69679273D01*
X99910838Y-69679273D02*
X100387028Y-69679273D01*
X100387028Y-69679273D02*
X100506076Y-69738797D01*
X100506076Y-69738797D02*
X100565599Y-69798321D01*
X100565599Y-69798321D02*
X100625123Y-69917369D01*
X100625123Y-69917369D02*
X100625123Y-70095940D01*
X100625123Y-70095940D02*
X100565599Y-70214988D01*
X100565599Y-70214988D02*
X100506076Y-70274511D01*
X100506076Y-70274511D02*
X100387028Y-70334035D01*
X100387028Y-70334035D02*
X99910838Y-70334035D01*
X101339409Y-70929273D02*
X101220361Y-70869750D01*
X101220361Y-70869750D02*
X101160838Y-70810226D01*
X101160838Y-70810226D02*
X101101314Y-70691178D01*
X101101314Y-70691178D02*
X101101314Y-70334035D01*
X101101314Y-70334035D02*
X101160838Y-70214988D01*
X101160838Y-70214988D02*
X101220361Y-70155464D01*
X101220361Y-70155464D02*
X101339409Y-70095940D01*
X101339409Y-70095940D02*
X101517980Y-70095940D01*
X101517980Y-70095940D02*
X101637028Y-70155464D01*
X101637028Y-70155464D02*
X101696552Y-70214988D01*
X101696552Y-70214988D02*
X101756076Y-70334035D01*
X101756076Y-70334035D02*
X101756076Y-70691178D01*
X101756076Y-70691178D02*
X101696552Y-70810226D01*
X101696552Y-70810226D02*
X101637028Y-70869750D01*
X101637028Y-70869750D02*
X101517980Y-70929273D01*
X101517980Y-70929273D02*
X101339409Y-70929273D01*
X102291790Y-70929273D02*
X102291790Y-70095940D01*
X102291790Y-70214988D02*
X102351313Y-70155464D01*
X102351313Y-70155464D02*
X102470361Y-70095940D01*
X102470361Y-70095940D02*
X102648932Y-70095940D01*
X102648932Y-70095940D02*
X102767980Y-70155464D01*
X102767980Y-70155464D02*
X102827504Y-70274511D01*
X102827504Y-70274511D02*
X102827504Y-70929273D01*
X102827504Y-70274511D02*
X102887028Y-70155464D01*
X102887028Y-70155464D02*
X103006075Y-70095940D01*
X103006075Y-70095940D02*
X103184647Y-70095940D01*
X103184647Y-70095940D02*
X103303694Y-70155464D01*
X103303694Y-70155464D02*
X103363218Y-70274511D01*
X103363218Y-70274511D02*
X103363218Y-70929273D01*
X104434647Y-70869750D02*
X104315599Y-70929273D01*
X104315599Y-70929273D02*
X104077504Y-70929273D01*
X104077504Y-70929273D02*
X103958457Y-70869750D01*
X103958457Y-70869750D02*
X103898933Y-70750702D01*
X103898933Y-70750702D02*
X103898933Y-70274511D01*
X103898933Y-70274511D02*
X103958457Y-70155464D01*
X103958457Y-70155464D02*
X104077504Y-70095940D01*
X104077504Y-70095940D02*
X104315599Y-70095940D01*
X104315599Y-70095940D02*
X104434647Y-70155464D01*
X104434647Y-70155464D02*
X104494171Y-70274511D01*
X104494171Y-70274511D02*
X104494171Y-70393559D01*
X104494171Y-70393559D02*
X103898933Y-70512607D01*
X105208457Y-70929273D02*
X105089409Y-70869750D01*
X105089409Y-70869750D02*
X105029886Y-70810226D01*
X105029886Y-70810226D02*
X104970362Y-70691178D01*
X104970362Y-70691178D02*
X104970362Y-70334035D01*
X104970362Y-70334035D02*
X105029886Y-70214988D01*
X105029886Y-70214988D02*
X105089409Y-70155464D01*
X105089409Y-70155464D02*
X105208457Y-70095940D01*
X105208457Y-70095940D02*
X105387028Y-70095940D01*
X105387028Y-70095940D02*
X105506076Y-70155464D01*
X105506076Y-70155464D02*
X105565600Y-70214988D01*
X105565600Y-70214988D02*
X105625124Y-70334035D01*
X105625124Y-70334035D02*
X105625124Y-70691178D01*
X105625124Y-70691178D02*
X105565600Y-70810226D01*
X105565600Y-70810226D02*
X105506076Y-70869750D01*
X105506076Y-70869750D02*
X105387028Y-70929273D01*
X105387028Y-70929273D02*
X105208457Y-70929273D01*
D13*
%TO.C,S1*%
X129181980Y-78733650D02*
X129363409Y-78794126D01*
X129363409Y-78794126D02*
X129665790Y-78794126D01*
X129665790Y-78794126D02*
X129786742Y-78733650D01*
X129786742Y-78733650D02*
X129847218Y-78673173D01*
X129847218Y-78673173D02*
X129907695Y-78552221D01*
X129907695Y-78552221D02*
X129907695Y-78431269D01*
X129907695Y-78431269D02*
X129847218Y-78310316D01*
X129847218Y-78310316D02*
X129786742Y-78249840D01*
X129786742Y-78249840D02*
X129665790Y-78189364D01*
X129665790Y-78189364D02*
X129423885Y-78128888D01*
X129423885Y-78128888D02*
X129302933Y-78068411D01*
X129302933Y-78068411D02*
X129242456Y-78007935D01*
X129242456Y-78007935D02*
X129181980Y-77886983D01*
X129181980Y-77886983D02*
X129181980Y-77766030D01*
X129181980Y-77766030D02*
X129242456Y-77645078D01*
X129242456Y-77645078D02*
X129302933Y-77584602D01*
X129302933Y-77584602D02*
X129423885Y-77524126D01*
X129423885Y-77524126D02*
X129726266Y-77524126D01*
X129726266Y-77524126D02*
X129907695Y-77584602D01*
X131117219Y-78794126D02*
X130391504Y-78794126D01*
X130754361Y-78794126D02*
X130754361Y-77524126D01*
X130754361Y-77524126D02*
X130633409Y-77705554D01*
X130633409Y-77705554D02*
X130512457Y-77826507D01*
X130512457Y-77826507D02*
X130391504Y-77886983D01*
D10*
%TO.C,TB1*%
X102350633Y-83316466D02*
X103150633Y-83316466D01*
X102750633Y-84716466D02*
X102750633Y-83316466D01*
X104083967Y-83983133D02*
X104283967Y-84049800D01*
X104283967Y-84049800D02*
X104350633Y-84116466D01*
X104350633Y-84116466D02*
X104417300Y-84249800D01*
X104417300Y-84249800D02*
X104417300Y-84449800D01*
X104417300Y-84449800D02*
X104350633Y-84583133D01*
X104350633Y-84583133D02*
X104283967Y-84649800D01*
X104283967Y-84649800D02*
X104150633Y-84716466D01*
X104150633Y-84716466D02*
X103617300Y-84716466D01*
X103617300Y-84716466D02*
X103617300Y-83316466D01*
X103617300Y-83316466D02*
X104083967Y-83316466D01*
X104083967Y-83316466D02*
X104217300Y-83383133D01*
X104217300Y-83383133D02*
X104283967Y-83449800D01*
X104283967Y-83449800D02*
X104350633Y-83583133D01*
X104350633Y-83583133D02*
X104350633Y-83716466D01*
X104350633Y-83716466D02*
X104283967Y-83849800D01*
X104283967Y-83849800D02*
X104217300Y-83916466D01*
X104217300Y-83916466D02*
X104083967Y-83983133D01*
X104083967Y-83983133D02*
X103617300Y-83983133D01*
X105750633Y-84716466D02*
X104950633Y-84716466D01*
X105350633Y-84716466D02*
X105350633Y-83316466D01*
X105350633Y-83316466D02*
X105217300Y-83516466D01*
X105217300Y-83516466D02*
X105083967Y-83649800D01*
X105083967Y-83649800D02*
X104950633Y-83716466D01*
%TO.C,J3*%
X134541666Y-70187619D02*
X134541666Y-70901904D01*
X134541666Y-70901904D02*
X134494047Y-71044761D01*
X134494047Y-71044761D02*
X134398809Y-71140000D01*
X134398809Y-71140000D02*
X134255952Y-71187619D01*
X134255952Y-71187619D02*
X134160714Y-71187619D01*
X134922619Y-70187619D02*
X135541666Y-70187619D01*
X135541666Y-70187619D02*
X135208333Y-70568571D01*
X135208333Y-70568571D02*
X135351190Y-70568571D01*
X135351190Y-70568571D02*
X135446428Y-70616190D01*
X135446428Y-70616190D02*
X135494047Y-70663809D01*
X135494047Y-70663809D02*
X135541666Y-70759047D01*
X135541666Y-70759047D02*
X135541666Y-70997142D01*
X135541666Y-70997142D02*
X135494047Y-71092380D01*
X135494047Y-71092380D02*
X135446428Y-71140000D01*
X135446428Y-71140000D02*
X135351190Y-71187619D01*
X135351190Y-71187619D02*
X135065476Y-71187619D01*
X135065476Y-71187619D02*
X134970238Y-71140000D01*
X134970238Y-71140000D02*
X134922619Y-71092380D01*
%TO.C,H1*%
X154738095Y-72462619D02*
X154738095Y-71462619D01*
X154738095Y-71938809D02*
X155309523Y-71938809D01*
X155309523Y-72462619D02*
X155309523Y-71462619D01*
X156309523Y-72462619D02*
X155738095Y-72462619D01*
X156023809Y-72462619D02*
X156023809Y-71462619D01*
X156023809Y-71462619D02*
X155928571Y-71605476D01*
X155928571Y-71605476D02*
X155833333Y-71700714D01*
X155833333Y-71700714D02*
X155738095Y-71748333D01*
%TO.C,H2*%
X98738095Y-72462619D02*
X98738095Y-71462619D01*
X98738095Y-71938809D02*
X99309523Y-71938809D01*
X99309523Y-72462619D02*
X99309523Y-71462619D01*
X99738095Y-71557857D02*
X99785714Y-71510238D01*
X99785714Y-71510238D02*
X99880952Y-71462619D01*
X99880952Y-71462619D02*
X100119047Y-71462619D01*
X100119047Y-71462619D02*
X100214285Y-71510238D01*
X100214285Y-71510238D02*
X100261904Y-71557857D01*
X100261904Y-71557857D02*
X100309523Y-71653095D01*
X100309523Y-71653095D02*
X100309523Y-71748333D01*
X100309523Y-71748333D02*
X100261904Y-71891190D01*
X100261904Y-71891190D02*
X99690476Y-72462619D01*
X99690476Y-72462619D02*
X100309523Y-72462619D01*
%TO.C,H3*%
X98738095Y-135462619D02*
X98738095Y-134462619D01*
X98738095Y-134938809D02*
X99309523Y-134938809D01*
X99309523Y-135462619D02*
X99309523Y-134462619D01*
X99690476Y-134462619D02*
X100309523Y-134462619D01*
X100309523Y-134462619D02*
X99976190Y-134843571D01*
X99976190Y-134843571D02*
X100119047Y-134843571D01*
X100119047Y-134843571D02*
X100214285Y-134891190D01*
X100214285Y-134891190D02*
X100261904Y-134938809D01*
X100261904Y-134938809D02*
X100309523Y-135034047D01*
X100309523Y-135034047D02*
X100309523Y-135272142D01*
X100309523Y-135272142D02*
X100261904Y-135367380D01*
X100261904Y-135367380D02*
X100214285Y-135415000D01*
X100214285Y-135415000D02*
X100119047Y-135462619D01*
X100119047Y-135462619D02*
X99833333Y-135462619D01*
X99833333Y-135462619D02*
X99738095Y-135415000D01*
X99738095Y-135415000D02*
X99690476Y-135367380D01*
%TO.C,J1*%
X96623466Y-133196419D02*
X96623466Y-133910704D01*
X96623466Y-133910704D02*
X96575847Y-134053561D01*
X96575847Y-134053561D02*
X96480609Y-134148800D01*
X96480609Y-134148800D02*
X96337752Y-134196419D01*
X96337752Y-134196419D02*
X96242514Y-134196419D01*
X97623466Y-134196419D02*
X97052038Y-134196419D01*
X97337752Y-134196419D02*
X97337752Y-133196419D01*
X97337752Y-133196419D02*
X97242514Y-133339276D01*
X97242514Y-133339276D02*
X97147276Y-133434514D01*
X97147276Y-133434514D02*
X97052038Y-133482133D01*
%TO.C,H4*%
X154738095Y-135462619D02*
X154738095Y-134462619D01*
X154738095Y-134938809D02*
X155309523Y-134938809D01*
X155309523Y-135462619D02*
X155309523Y-134462619D01*
X156214285Y-134795952D02*
X156214285Y-135462619D01*
X155976190Y-134415000D02*
X155738095Y-135129285D01*
X155738095Y-135129285D02*
X156357142Y-135129285D01*
%TO.C,J2*%
X155516666Y-76262619D02*
X155516666Y-76976904D01*
X155516666Y-76976904D02*
X155469047Y-77119761D01*
X155469047Y-77119761D02*
X155373809Y-77215000D01*
X155373809Y-77215000D02*
X155230952Y-77262619D01*
X155230952Y-77262619D02*
X155135714Y-77262619D01*
X155945238Y-76357857D02*
X155992857Y-76310238D01*
X155992857Y-76310238D02*
X156088095Y-76262619D01*
X156088095Y-76262619D02*
X156326190Y-76262619D01*
X156326190Y-76262619D02*
X156421428Y-76310238D01*
X156421428Y-76310238D02*
X156469047Y-76357857D01*
X156469047Y-76357857D02*
X156516666Y-76453095D01*
X156516666Y-76453095D02*
X156516666Y-76548333D01*
X156516666Y-76548333D02*
X156469047Y-76691190D01*
X156469047Y-76691190D02*
X155897619Y-77262619D01*
X155897619Y-77262619D02*
X156516666Y-77262619D01*
X149058038Y-108308114D02*
X147058038Y-108308114D01*
X147058038Y-108308114D02*
X147058038Y-107546209D01*
X147058038Y-107546209D02*
X147153276Y-107355733D01*
X147153276Y-107355733D02*
X147248514Y-107260495D01*
X147248514Y-107260495D02*
X147438990Y-107165257D01*
X147438990Y-107165257D02*
X147724704Y-107165257D01*
X147724704Y-107165257D02*
X147915180Y-107260495D01*
X147915180Y-107260495D02*
X148010419Y-107355733D01*
X148010419Y-107355733D02*
X148105657Y-107546209D01*
X148105657Y-107546209D02*
X148105657Y-108308114D01*
X149058038Y-106308114D02*
X147724704Y-106308114D01*
X147058038Y-106308114D02*
X147153276Y-106403352D01*
X147153276Y-106403352D02*
X147248514Y-106308114D01*
X147248514Y-106308114D02*
X147153276Y-106212876D01*
X147153276Y-106212876D02*
X147058038Y-106308114D01*
X147058038Y-106308114D02*
X147248514Y-106308114D01*
X149248514Y-105831924D02*
X149248514Y-104308114D01*
X147153276Y-102784304D02*
X147058038Y-102974780D01*
X147058038Y-102974780D02*
X147058038Y-103260494D01*
X147058038Y-103260494D02*
X147153276Y-103546209D01*
X147153276Y-103546209D02*
X147343752Y-103736685D01*
X147343752Y-103736685D02*
X147534228Y-103831923D01*
X147534228Y-103831923D02*
X147915180Y-103927161D01*
X147915180Y-103927161D02*
X148200895Y-103927161D01*
X148200895Y-103927161D02*
X148581847Y-103831923D01*
X148581847Y-103831923D02*
X148772323Y-103736685D01*
X148772323Y-103736685D02*
X148962800Y-103546209D01*
X148962800Y-103546209D02*
X149058038Y-103260494D01*
X149058038Y-103260494D02*
X149058038Y-103070018D01*
X149058038Y-103070018D02*
X148962800Y-102784304D01*
X148962800Y-102784304D02*
X148867561Y-102689066D01*
X148867561Y-102689066D02*
X148200895Y-102689066D01*
X148200895Y-102689066D02*
X148200895Y-103070018D01*
X149058038Y-101831923D02*
X147058038Y-101831923D01*
X147058038Y-101831923D02*
X147058038Y-101070018D01*
X147058038Y-101070018D02*
X147153276Y-100879542D01*
X147153276Y-100879542D02*
X147248514Y-100784304D01*
X147248514Y-100784304D02*
X147438990Y-100689066D01*
X147438990Y-100689066D02*
X147724704Y-100689066D01*
X147724704Y-100689066D02*
X147915180Y-100784304D01*
X147915180Y-100784304D02*
X148010419Y-100879542D01*
X148010419Y-100879542D02*
X148105657Y-101070018D01*
X148105657Y-101070018D02*
X148105657Y-101831923D01*
X149058038Y-99831923D02*
X147058038Y-99831923D01*
X147058038Y-98498590D02*
X147058038Y-98117637D01*
X147058038Y-98117637D02*
X147153276Y-97927161D01*
X147153276Y-97927161D02*
X147343752Y-97736685D01*
X147343752Y-97736685D02*
X147724704Y-97641447D01*
X147724704Y-97641447D02*
X148391371Y-97641447D01*
X148391371Y-97641447D02*
X148772323Y-97736685D01*
X148772323Y-97736685D02*
X148962800Y-97927161D01*
X148962800Y-97927161D02*
X149058038Y-98117637D01*
X149058038Y-98117637D02*
X149058038Y-98498590D01*
X149058038Y-98498590D02*
X148962800Y-98689066D01*
X148962800Y-98689066D02*
X148772323Y-98879542D01*
X148772323Y-98879542D02*
X148391371Y-98974780D01*
X148391371Y-98974780D02*
X147724704Y-98974780D01*
X147724704Y-98974780D02*
X147343752Y-98879542D01*
X147343752Y-98879542D02*
X147153276Y-98689066D01*
X147153276Y-98689066D02*
X147058038Y-98498590D01*
%TO.C,J5*%
X115215119Y-80885833D02*
X115215119Y-81600433D01*
X115215119Y-81600433D02*
X115167479Y-81743353D01*
X115167479Y-81743353D02*
X115072199Y-81838634D01*
X115072199Y-81838634D02*
X114929279Y-81886274D01*
X114929279Y-81886274D02*
X114833999Y-81886274D01*
X116167920Y-80885833D02*
X115691520Y-80885833D01*
X115691520Y-80885833D02*
X115643880Y-81362233D01*
X115643880Y-81362233D02*
X115691520Y-81314593D01*
X115691520Y-81314593D02*
X115786800Y-81266953D01*
X115786800Y-81266953D02*
X116025000Y-81266953D01*
X116025000Y-81266953D02*
X116120280Y-81314593D01*
X116120280Y-81314593D02*
X116167920Y-81362233D01*
X116167920Y-81362233D02*
X116215560Y-81457513D01*
X116215560Y-81457513D02*
X116215560Y-81695713D01*
X116215560Y-81695713D02*
X116167920Y-81790993D01*
X116167920Y-81790993D02*
X116120280Y-81838634D01*
X116120280Y-81838634D02*
X116025000Y-81886274D01*
X116025000Y-81886274D02*
X115786800Y-81886274D01*
X115786800Y-81886274D02*
X115691520Y-81838634D01*
X115691520Y-81838634D02*
X115643880Y-81790993D01*
%TO.C,J7*%
X82496066Y-93068419D02*
X82496066Y-93782704D01*
X82496066Y-93782704D02*
X82448447Y-93925561D01*
X82448447Y-93925561D02*
X82353209Y-94020800D01*
X82353209Y-94020800D02*
X82210352Y-94068419D01*
X82210352Y-94068419D02*
X82115114Y-94068419D01*
X82877019Y-93068419D02*
X83543685Y-93068419D01*
X83543685Y-93068419D02*
X83115114Y-94068419D01*
%TO.C,G\u002A\u002A\u002A*%
D14*
X86950370Y-75403509D02*
X86825312Y-75536676D01*
X86764615Y-75590749D01*
X86570031Y-75803307D01*
X86376105Y-76085983D01*
X86302402Y-76220237D01*
X86078200Y-76761674D01*
X85925240Y-77350397D01*
X85842028Y-78008209D01*
X85827076Y-78756915D01*
X85878889Y-79618318D01*
X85995977Y-80614223D01*
X85999908Y-80642314D01*
X86134909Y-81500398D01*
X86303579Y-82381539D01*
X86509681Y-83297231D01*
X86756977Y-84258973D01*
X87049232Y-85278260D01*
X87390207Y-86366590D01*
X87783669Y-87535458D01*
X88233376Y-88796361D01*
X88743096Y-90160794D01*
X89316590Y-91640258D01*
X89957623Y-93246246D01*
X90669955Y-94990255D01*
X90798183Y-95300732D01*
X90959983Y-95702066D01*
X91091070Y-96046865D01*
X91180818Y-96305592D01*
X91218604Y-96448714D01*
X91217443Y-96466246D01*
X91172440Y-96492135D01*
X91171179Y-96488008D01*
X91132654Y-96390234D01*
X91035307Y-96166103D01*
X90891499Y-95842902D01*
X90713592Y-95447917D01*
X90513946Y-95008436D01*
X90304922Y-94551748D01*
X90098882Y-94105137D01*
X89908185Y-93695893D01*
X89857823Y-93588745D01*
X89302690Y-92361728D01*
X88745833Y-91039234D01*
X88200820Y-89658438D01*
X87681212Y-88256517D01*
X87200576Y-86870648D01*
X86772476Y-85538005D01*
X86410478Y-84295766D01*
X86262042Y-83734099D01*
X86002570Y-82611447D01*
X85795213Y-81502922D01*
X85649163Y-80461439D01*
X85595252Y-79896924D01*
X85567148Y-79028210D01*
X85612094Y-78191753D01*
X85725267Y-77417645D01*
X85901844Y-76735985D01*
X86137002Y-76176867D01*
X86212244Y-76047079D01*
X86353056Y-75859619D01*
X86538848Y-75658576D01*
X86730863Y-75480074D01*
X86890341Y-75360235D01*
X86977200Y-75334145D01*
X86950370Y-75403509D01*
G36*
X86950370Y-75403509D02*
G01*
X86825312Y-75536676D01*
X86764615Y-75590749D01*
X86570031Y-75803307D01*
X86376105Y-76085983D01*
X86302402Y-76220237D01*
X86078200Y-76761674D01*
X85925240Y-77350397D01*
X85842028Y-78008209D01*
X85827076Y-78756915D01*
X85878889Y-79618318D01*
X85995977Y-80614223D01*
X85999908Y-80642314D01*
X86134909Y-81500398D01*
X86303579Y-82381539D01*
X86509681Y-83297231D01*
X86756977Y-84258973D01*
X87049232Y-85278260D01*
X87390207Y-86366590D01*
X87783669Y-87535458D01*
X88233376Y-88796361D01*
X88743096Y-90160794D01*
X89316590Y-91640258D01*
X89957623Y-93246246D01*
X90669955Y-94990255D01*
X90798183Y-95300732D01*
X90959983Y-95702066D01*
X91091070Y-96046865D01*
X91180818Y-96305592D01*
X91218604Y-96448714D01*
X91217443Y-96466246D01*
X91172440Y-96492135D01*
X91171179Y-96488008D01*
X91132654Y-96390234D01*
X91035307Y-96166103D01*
X90891499Y-95842902D01*
X90713592Y-95447917D01*
X90513946Y-95008436D01*
X90304922Y-94551748D01*
X90098882Y-94105137D01*
X89908185Y-93695893D01*
X89857823Y-93588745D01*
X89302690Y-92361728D01*
X88745833Y-91039234D01*
X88200820Y-89658438D01*
X87681212Y-88256517D01*
X87200576Y-86870648D01*
X86772476Y-85538005D01*
X86410478Y-84295766D01*
X86262042Y-83734099D01*
X86002570Y-82611447D01*
X85795213Y-81502922D01*
X85649163Y-80461439D01*
X85595252Y-79896924D01*
X85567148Y-79028210D01*
X85612094Y-78191753D01*
X85725267Y-77417645D01*
X85901844Y-76735985D01*
X86137002Y-76176867D01*
X86212244Y-76047079D01*
X86353056Y-75859619D01*
X86538848Y-75658576D01*
X86730863Y-75480074D01*
X86890341Y-75360235D01*
X86977200Y-75334145D01*
X86950370Y-75403509D01*
G37*
X90482583Y-75466745D02*
X91036029Y-75630499D01*
X91519901Y-75911830D01*
X91908189Y-76304543D01*
X92064520Y-76552290D01*
X92155232Y-76778897D01*
X92258107Y-77126606D01*
X92368266Y-77568199D01*
X92480830Y-78076457D01*
X92590924Y-78624164D01*
X92693670Y-79184101D01*
X92784188Y-79729051D01*
X92857603Y-80231797D01*
X92909036Y-80665120D01*
X92933610Y-81001803D01*
X92926445Y-81214628D01*
X92909309Y-81266273D01*
X92711438Y-81424356D01*
X92465967Y-81429093D01*
X92283611Y-81339756D01*
X92219336Y-81287046D01*
X92164590Y-81213888D01*
X92113804Y-81098816D01*
X92061410Y-80920363D01*
X92001842Y-80657065D01*
X91929530Y-80287454D01*
X91838908Y-79790065D01*
X91746586Y-79269286D01*
X91635131Y-78643483D01*
X91545556Y-78161161D01*
X91471907Y-77798768D01*
X91408232Y-77532757D01*
X91348575Y-77339577D01*
X91286985Y-77195677D01*
X91217505Y-77077507D01*
X91178213Y-77021080D01*
X91005222Y-76841208D01*
X90776668Y-76677634D01*
X90537450Y-76553281D01*
X90332470Y-76491071D01*
X90206628Y-76513929D01*
X90200154Y-76521734D01*
X90202354Y-76618951D01*
X90231450Y-76860103D01*
X90284008Y-77222531D01*
X90356595Y-77683575D01*
X90445777Y-78220577D01*
X90539891Y-78764267D01*
X90660944Y-79455870D01*
X90751947Y-79999371D01*
X90812948Y-80413307D01*
X90843998Y-80716211D01*
X90845147Y-80926618D01*
X90816442Y-81063065D01*
X90757934Y-81144084D01*
X90669673Y-81188213D01*
X90551707Y-81213985D01*
X90546436Y-81214886D01*
X90412784Y-81235585D01*
X90304652Y-81235573D01*
X90215259Y-81197567D01*
X90137827Y-81104286D01*
X90065580Y-80938450D01*
X89991737Y-80682779D01*
X89909520Y-80319989D01*
X89812152Y-79832801D01*
X89692853Y-79203935D01*
X89633416Y-78887214D01*
X89520123Y-78295151D01*
X89413912Y-77762186D01*
X89319374Y-77309642D01*
X89241105Y-76958846D01*
X89183697Y-76731122D01*
X89151743Y-76647797D01*
X89151033Y-76647774D01*
X89058302Y-76708536D01*
X88896921Y-76848545D01*
X88827424Y-76914516D01*
X88680778Y-77067709D01*
X88571652Y-77219907D01*
X88499357Y-77393201D01*
X88463206Y-77609682D01*
X88462512Y-77891441D01*
X88496588Y-78260568D01*
X88564747Y-78739154D01*
X88666301Y-79349291D01*
X88738796Y-79763995D01*
X88848257Y-80389067D01*
X88929525Y-80869383D01*
X88984715Y-81226788D01*
X89015944Y-81483126D01*
X89025328Y-81660241D01*
X89014981Y-81779977D01*
X88987022Y-81864177D01*
X88948396Y-81927845D01*
X88751932Y-82113743D01*
X88510627Y-82145826D01*
X88373436Y-82112173D01*
X88318298Y-82086827D01*
X88270524Y-82037428D01*
X88225284Y-81944482D01*
X88177749Y-81788499D01*
X88123087Y-81549986D01*
X88056470Y-81209452D01*
X87973065Y-80747404D01*
X87868045Y-80144352D01*
X87827407Y-79908681D01*
X87727132Y-79312776D01*
X87638521Y-78759812D01*
X87565341Y-78275490D01*
X87511360Y-77885509D01*
X87480345Y-77615570D01*
X87474668Y-77502185D01*
X87589783Y-76966555D01*
X87848124Y-76467022D01*
X88223597Y-76042152D01*
X88664914Y-75742866D01*
X89271014Y-75516734D01*
X89885575Y-75426759D01*
X90482583Y-75466745D01*
G36*
X90482583Y-75466745D02*
G01*
X91036029Y-75630499D01*
X91519901Y-75911830D01*
X91908189Y-76304543D01*
X92064520Y-76552290D01*
X92155232Y-76778897D01*
X92258107Y-77126606D01*
X92368266Y-77568199D01*
X92480830Y-78076457D01*
X92590924Y-78624164D01*
X92693670Y-79184101D01*
X92784188Y-79729051D01*
X92857603Y-80231797D01*
X92909036Y-80665120D01*
X92933610Y-81001803D01*
X92926445Y-81214628D01*
X92909309Y-81266273D01*
X92711438Y-81424356D01*
X92465967Y-81429093D01*
X92283611Y-81339756D01*
X92219336Y-81287046D01*
X92164590Y-81213888D01*
X92113804Y-81098816D01*
X92061410Y-80920363D01*
X92001842Y-80657065D01*
X91929530Y-80287454D01*
X91838908Y-79790065D01*
X91746586Y-79269286D01*
X91635131Y-78643483D01*
X91545556Y-78161161D01*
X91471907Y-77798768D01*
X91408232Y-77532757D01*
X91348575Y-77339577D01*
X91286985Y-77195677D01*
X91217505Y-77077507D01*
X91178213Y-77021080D01*
X91005222Y-76841208D01*
X90776668Y-76677634D01*
X90537450Y-76553281D01*
X90332470Y-76491071D01*
X90206628Y-76513929D01*
X90200154Y-76521734D01*
X90202354Y-76618951D01*
X90231450Y-76860103D01*
X90284008Y-77222531D01*
X90356595Y-77683575D01*
X90445777Y-78220577D01*
X90539891Y-78764267D01*
X90660944Y-79455870D01*
X90751947Y-79999371D01*
X90812948Y-80413307D01*
X90843998Y-80716211D01*
X90845147Y-80926618D01*
X90816442Y-81063065D01*
X90757934Y-81144084D01*
X90669673Y-81188213D01*
X90551707Y-81213985D01*
X90546436Y-81214886D01*
X90412784Y-81235585D01*
X90304652Y-81235573D01*
X90215259Y-81197567D01*
X90137827Y-81104286D01*
X90065580Y-80938450D01*
X89991737Y-80682779D01*
X89909520Y-80319989D01*
X89812152Y-79832801D01*
X89692853Y-79203935D01*
X89633416Y-78887214D01*
X89520123Y-78295151D01*
X89413912Y-77762186D01*
X89319374Y-77309642D01*
X89241105Y-76958846D01*
X89183697Y-76731122D01*
X89151743Y-76647797D01*
X89151033Y-76647774D01*
X89058302Y-76708536D01*
X88896921Y-76848545D01*
X88827424Y-76914516D01*
X88680778Y-77067709D01*
X88571652Y-77219907D01*
X88499357Y-77393201D01*
X88463206Y-77609682D01*
X88462512Y-77891441D01*
X88496588Y-78260568D01*
X88564747Y-78739154D01*
X88666301Y-79349291D01*
X88738796Y-79763995D01*
X88848257Y-80389067D01*
X88929525Y-80869383D01*
X88984715Y-81226788D01*
X89015944Y-81483126D01*
X89025328Y-81660241D01*
X89014981Y-81779977D01*
X88987022Y-81864177D01*
X88948396Y-81927845D01*
X88751932Y-82113743D01*
X88510627Y-82145826D01*
X88373436Y-82112173D01*
X88318298Y-82086827D01*
X88270524Y-82037428D01*
X88225284Y-81944482D01*
X88177749Y-81788499D01*
X88123087Y-81549986D01*
X88056470Y-81209452D01*
X87973065Y-80747404D01*
X87868045Y-80144352D01*
X87827407Y-79908681D01*
X87727132Y-79312776D01*
X87638521Y-78759812D01*
X87565341Y-78275490D01*
X87511360Y-77885509D01*
X87480345Y-77615570D01*
X87474668Y-77502185D01*
X87589783Y-76966555D01*
X87848124Y-76467022D01*
X88223597Y-76042152D01*
X88664914Y-75742866D01*
X89271014Y-75516734D01*
X89885575Y-75426759D01*
X90482583Y-75466745D01*
G37*
X93108158Y-82410605D02*
X93167287Y-82467879D01*
X93214493Y-82592212D01*
X93282474Y-82858146D01*
X93366653Y-83239859D01*
X93462452Y-83711527D01*
X93565295Y-84247330D01*
X93670606Y-84821441D01*
X93773809Y-85408038D01*
X93870326Y-85981299D01*
X93955582Y-86515402D01*
X94025001Y-86984522D01*
X94074003Y-87362835D01*
X94098015Y-87624520D01*
X94098059Y-87719793D01*
X93996837Y-88070362D01*
X93790606Y-88426078D01*
X93523619Y-88712113D01*
X93500724Y-88729923D01*
X93129515Y-88931318D01*
X92694910Y-89046668D01*
X92251252Y-89070856D01*
X91852883Y-88998764D01*
X91653121Y-88903894D01*
X91466468Y-88781156D01*
X91316837Y-88669031D01*
X91195888Y-88546507D01*
X91095278Y-88392570D01*
X91006668Y-88186209D01*
X90921716Y-87906410D01*
X90832081Y-87532161D01*
X90729423Y-87042449D01*
X90605401Y-86416262D01*
X90546714Y-86116602D01*
X90115416Y-83914374D01*
X89416914Y-83994551D01*
X89023131Y-84029094D01*
X88763314Y-84016602D01*
X88605786Y-83945198D01*
X88518869Y-83803009D01*
X88481126Y-83643719D01*
X88476452Y-83412978D01*
X88504888Y-83274145D01*
X88557894Y-83193086D01*
X88669960Y-83128225D01*
X88873357Y-83068195D01*
X89200356Y-83001628D01*
X89360092Y-82972897D01*
X89752674Y-82909143D01*
X90024159Y-82882705D01*
X90218570Y-82893354D01*
X90379927Y-82940866D01*
X90439228Y-82967343D01*
X90598670Y-83052811D01*
X90730268Y-83155139D01*
X90841185Y-83294167D01*
X90938581Y-83489734D01*
X91029619Y-83761684D01*
X91121461Y-84129855D01*
X91221265Y-84614090D01*
X91336196Y-85234228D01*
X91412637Y-85664159D01*
X91773982Y-87713446D01*
X92014730Y-87882020D01*
X92315348Y-88005261D01*
X92554890Y-87997800D01*
X92861005Y-87873664D01*
X93022875Y-87704256D01*
X93191448Y-87463508D01*
X92307979Y-82453105D01*
X92680257Y-82387462D01*
X92946961Y-82362197D01*
X93108158Y-82410605D01*
G36*
X93108158Y-82410605D02*
G01*
X93167287Y-82467879D01*
X93214493Y-82592212D01*
X93282474Y-82858146D01*
X93366653Y-83239859D01*
X93462452Y-83711527D01*
X93565295Y-84247330D01*
X93670606Y-84821441D01*
X93773809Y-85408038D01*
X93870326Y-85981299D01*
X93955582Y-86515402D01*
X94025001Y-86984522D01*
X94074003Y-87362835D01*
X94098015Y-87624520D01*
X94098059Y-87719793D01*
X93996837Y-88070362D01*
X93790606Y-88426078D01*
X93523619Y-88712113D01*
X93500724Y-88729923D01*
X93129515Y-88931318D01*
X92694910Y-89046668D01*
X92251252Y-89070856D01*
X91852883Y-88998764D01*
X91653121Y-88903894D01*
X91466468Y-88781156D01*
X91316837Y-88669031D01*
X91195888Y-88546507D01*
X91095278Y-88392570D01*
X91006668Y-88186209D01*
X90921716Y-87906410D01*
X90832081Y-87532161D01*
X90729423Y-87042449D01*
X90605401Y-86416262D01*
X90546714Y-86116602D01*
X90115416Y-83914374D01*
X89416914Y-83994551D01*
X89023131Y-84029094D01*
X88763314Y-84016602D01*
X88605786Y-83945198D01*
X88518869Y-83803009D01*
X88481126Y-83643719D01*
X88476452Y-83412978D01*
X88504888Y-83274145D01*
X88557894Y-83193086D01*
X88669960Y-83128225D01*
X88873357Y-83068195D01*
X89200356Y-83001628D01*
X89360092Y-82972897D01*
X89752674Y-82909143D01*
X90024159Y-82882705D01*
X90218570Y-82893354D01*
X90379927Y-82940866D01*
X90439228Y-82967343D01*
X90598670Y-83052811D01*
X90730268Y-83155139D01*
X90841185Y-83294167D01*
X90938581Y-83489734D01*
X91029619Y-83761684D01*
X91121461Y-84129855D01*
X91221265Y-84614090D01*
X91336196Y-85234228D01*
X91412637Y-85664159D01*
X91773982Y-87713446D01*
X92014730Y-87882020D01*
X92315348Y-88005261D01*
X92554890Y-87997800D01*
X92861005Y-87873664D01*
X93022875Y-87704256D01*
X93191448Y-87463508D01*
X92307979Y-82453105D01*
X92680257Y-82387462D01*
X92946961Y-82362197D01*
X93108158Y-82410605D01*
G37*
X94239642Y-89678162D02*
X94342327Y-89717604D01*
X94430470Y-89810570D01*
X94510402Y-89973361D01*
X94588455Y-90222280D01*
X94670962Y-90573628D01*
X94764253Y-91043710D01*
X94874661Y-91648827D01*
X95000540Y-92360042D01*
X95125101Y-93070485D01*
X95221724Y-93635366D01*
X95292844Y-94075710D01*
X95340888Y-94412543D01*
X95368291Y-94666890D01*
X95377483Y-94859778D01*
X95370896Y-95012232D01*
X95350960Y-95145278D01*
X95332388Y-95229665D01*
X95170761Y-95648235D01*
X94900481Y-95961719D01*
X94503424Y-96186275D01*
X94130303Y-96301621D01*
X93566237Y-96375225D01*
X93090230Y-96304837D01*
X92700497Y-96090003D01*
X92502858Y-95885916D01*
X92426171Y-95781494D01*
X92360418Y-95667993D01*
X92299710Y-95523661D01*
X92238158Y-95326744D01*
X92169873Y-95055491D01*
X92088965Y-94688150D01*
X91989544Y-94202968D01*
X91865724Y-93578195D01*
X91833158Y-93412387D01*
X91409210Y-91251847D01*
X90781582Y-91336865D01*
X90352103Y-91372818D01*
X90057322Y-91338705D01*
X89874407Y-91226571D01*
X89780525Y-91028456D01*
X89771640Y-90984879D01*
X89775219Y-90742447D01*
X89822591Y-90580849D01*
X89888076Y-90488166D01*
X90001553Y-90418109D01*
X90198743Y-90357291D01*
X90515368Y-90292325D01*
X90663523Y-90265686D01*
X91048033Y-90204387D01*
X91312877Y-90182445D01*
X91503069Y-90199806D01*
X91663626Y-90256416D01*
X91680255Y-90264465D01*
X91854640Y-90358815D01*
X91997325Y-90465026D01*
X92115925Y-90603327D01*
X92218057Y-90793946D01*
X92311333Y-91057111D01*
X92403369Y-91413048D01*
X92501780Y-91881987D01*
X92614182Y-92484154D01*
X92702430Y-92979699D01*
X92816345Y-93621424D01*
X92906966Y-94116895D01*
X92979529Y-94486771D01*
X93039274Y-94751707D01*
X93091439Y-94932364D01*
X93141262Y-95049397D01*
X93193982Y-95123465D01*
X93254837Y-95175226D01*
X93260111Y-95178950D01*
X93491873Y-95289812D01*
X93675361Y-95330401D01*
X93907054Y-95293141D01*
X94157014Y-95179030D01*
X94351197Y-95027005D01*
X94405284Y-94946524D01*
X94403434Y-94839672D01*
X94376961Y-94587099D01*
X94328782Y-94210162D01*
X94261811Y-93730219D01*
X94178967Y-93168627D01*
X94083164Y-92546745D01*
X94042840Y-92291991D01*
X93636112Y-89741539D01*
X93965319Y-89694634D01*
X94116084Y-89675939D01*
X94239642Y-89678162D01*
G36*
X94239642Y-89678162D02*
G01*
X94342327Y-89717604D01*
X94430470Y-89810570D01*
X94510402Y-89973361D01*
X94588455Y-90222280D01*
X94670962Y-90573628D01*
X94764253Y-91043710D01*
X94874661Y-91648827D01*
X95000540Y-92360042D01*
X95125101Y-93070485D01*
X95221724Y-93635366D01*
X95292844Y-94075710D01*
X95340888Y-94412543D01*
X95368291Y-94666890D01*
X95377483Y-94859778D01*
X95370896Y-95012232D01*
X95350960Y-95145278D01*
X95332388Y-95229665D01*
X95170761Y-95648235D01*
X94900481Y-95961719D01*
X94503424Y-96186275D01*
X94130303Y-96301621D01*
X93566237Y-96375225D01*
X93090230Y-96304837D01*
X92700497Y-96090003D01*
X92502858Y-95885916D01*
X92426171Y-95781494D01*
X92360418Y-95667993D01*
X92299710Y-95523661D01*
X92238158Y-95326744D01*
X92169873Y-95055491D01*
X92088965Y-94688150D01*
X91989544Y-94202968D01*
X91865724Y-93578195D01*
X91833158Y-93412387D01*
X91409210Y-91251847D01*
X90781582Y-91336865D01*
X90352103Y-91372818D01*
X90057322Y-91338705D01*
X89874407Y-91226571D01*
X89780525Y-91028456D01*
X89771640Y-90984879D01*
X89775219Y-90742447D01*
X89822591Y-90580849D01*
X89888076Y-90488166D01*
X90001553Y-90418109D01*
X90198743Y-90357291D01*
X90515368Y-90292325D01*
X90663523Y-90265686D01*
X91048033Y-90204387D01*
X91312877Y-90182445D01*
X91503069Y-90199806D01*
X91663626Y-90256416D01*
X91680255Y-90264465D01*
X91854640Y-90358815D01*
X91997325Y-90465026D01*
X92115925Y-90603327D01*
X92218057Y-90793946D01*
X92311333Y-91057111D01*
X92403369Y-91413048D01*
X92501780Y-91881987D01*
X92614182Y-92484154D01*
X92702430Y-92979699D01*
X92816345Y-93621424D01*
X92906966Y-94116895D01*
X92979529Y-94486771D01*
X93039274Y-94751707D01*
X93091439Y-94932364D01*
X93141262Y-95049397D01*
X93193982Y-95123465D01*
X93254837Y-95175226D01*
X93260111Y-95178950D01*
X93491873Y-95289812D01*
X93675361Y-95330401D01*
X93907054Y-95293141D01*
X94157014Y-95179030D01*
X94351197Y-95027005D01*
X94405284Y-94946524D01*
X94403434Y-94839672D01*
X94376961Y-94587099D01*
X94328782Y-94210162D01*
X94261811Y-93730219D01*
X94178967Y-93168627D01*
X94083164Y-92546745D01*
X94042840Y-92291991D01*
X93636112Y-89741539D01*
X93965319Y-89694634D01*
X94116084Y-89675939D01*
X94239642Y-89678162D01*
G37*
X91387149Y-99090013D02*
X91564577Y-99199105D01*
X91787329Y-99341474D01*
X92242926Y-99636902D01*
X92535599Y-101296737D01*
X92644686Y-101933606D01*
X92718457Y-102424543D01*
X92755686Y-102789488D01*
X92755145Y-103048375D01*
X92715607Y-103221141D01*
X92635844Y-103327724D01*
X92514630Y-103388059D01*
X92405291Y-103413306D01*
X92271690Y-103431056D01*
X92164501Y-103419300D01*
X92076476Y-103359471D01*
X92000370Y-103232998D01*
X91928935Y-103021311D01*
X91854925Y-102705842D01*
X91771093Y-102268019D01*
X91670194Y-101689276D01*
X91622114Y-101406381D01*
X91529062Y-100848589D01*
X91446185Y-100335064D01*
X91377713Y-99893397D01*
X91327878Y-99551180D01*
X91300911Y-99336007D01*
X91297376Y-99288529D01*
X91299503Y-99116925D01*
X91311705Y-99049578D01*
X91387149Y-99090013D01*
G36*
X91387149Y-99090013D02*
G01*
X91564577Y-99199105D01*
X91787329Y-99341474D01*
X92242926Y-99636902D01*
X92535599Y-101296737D01*
X92644686Y-101933606D01*
X92718457Y-102424543D01*
X92755686Y-102789488D01*
X92755145Y-103048375D01*
X92715607Y-103221141D01*
X92635844Y-103327724D01*
X92514630Y-103388059D01*
X92405291Y-103413306D01*
X92271690Y-103431056D01*
X92164501Y-103419300D01*
X92076476Y-103359471D01*
X92000370Y-103232998D01*
X91928935Y-103021311D01*
X91854925Y-102705842D01*
X91771093Y-102268019D01*
X91670194Y-101689276D01*
X91622114Y-101406381D01*
X91529062Y-100848589D01*
X91446185Y-100335064D01*
X91377713Y-99893397D01*
X91327878Y-99551180D01*
X91300911Y-99336007D01*
X91297376Y-99288529D01*
X91299503Y-99116925D01*
X91311705Y-99049578D01*
X91387149Y-99090013D01*
G37*
X92691377Y-97946068D02*
X92853477Y-98338642D01*
X92883494Y-98578494D01*
X92917950Y-98824604D01*
X93013239Y-99106882D01*
X93185098Y-99467800D01*
X93276785Y-99639982D01*
X93470087Y-100026272D01*
X93619224Y-100384065D01*
X93717771Y-100688885D01*
X93759302Y-100916254D01*
X93737393Y-101041696D01*
X93645621Y-101040735D01*
X93644248Y-101039959D01*
X93510773Y-100925702D01*
X93329753Y-100724500D01*
X93207533Y-100569107D01*
X93025677Y-100335486D01*
X92865585Y-100148702D01*
X92794282Y-100077751D01*
X92669770Y-99935412D01*
X92526674Y-99721580D01*
X92501774Y-99678689D01*
X92317489Y-99450435D01*
X92057080Y-99237663D01*
X91968836Y-99184048D01*
X91727118Y-99034785D01*
X91556104Y-98872680D01*
X91405163Y-98641728D01*
X91304302Y-98449073D01*
X91257106Y-98340871D01*
X91282638Y-98318776D01*
X91405580Y-98386590D01*
X91561479Y-98488705D01*
X91786056Y-98622878D01*
X91912810Y-98653874D01*
X91967033Y-98602238D01*
X92079204Y-98494589D01*
X92254373Y-98424676D01*
X92466538Y-98342685D01*
X92556583Y-98195323D01*
X92550631Y-97938644D01*
X92549222Y-97928656D01*
X92513194Y-97677090D01*
X92691377Y-97946068D01*
G36*
X92691377Y-97946068D02*
G01*
X92853477Y-98338642D01*
X92883494Y-98578494D01*
X92917950Y-98824604D01*
X93013239Y-99106882D01*
X93185098Y-99467800D01*
X93276785Y-99639982D01*
X93470087Y-100026272D01*
X93619224Y-100384065D01*
X93717771Y-100688885D01*
X93759302Y-100916254D01*
X93737393Y-101041696D01*
X93645621Y-101040735D01*
X93644248Y-101039959D01*
X93510773Y-100925702D01*
X93329753Y-100724500D01*
X93207533Y-100569107D01*
X93025677Y-100335486D01*
X92865585Y-100148702D01*
X92794282Y-100077751D01*
X92669770Y-99935412D01*
X92526674Y-99721580D01*
X92501774Y-99678689D01*
X92317489Y-99450435D01*
X92057080Y-99237663D01*
X91968836Y-99184048D01*
X91727118Y-99034785D01*
X91556104Y-98872680D01*
X91405163Y-98641728D01*
X91304302Y-98449073D01*
X91257106Y-98340871D01*
X91282638Y-98318776D01*
X91405580Y-98386590D01*
X91561479Y-98488705D01*
X91786056Y-98622878D01*
X91912810Y-98653874D01*
X91967033Y-98602238D01*
X92079204Y-98494589D01*
X92254373Y-98424676D01*
X92466538Y-98342685D01*
X92556583Y-98195323D01*
X92550631Y-97938644D01*
X92549222Y-97928656D01*
X92513194Y-97677090D01*
X92691377Y-97946068D01*
G37*
X91340046Y-96621222D02*
X91372963Y-96749783D01*
X91361642Y-96782196D01*
X91319360Y-96764011D01*
X91298552Y-96680481D01*
X91303227Y-96587920D01*
X91340046Y-96621222D01*
G36*
X91340046Y-96621222D02*
G01*
X91372963Y-96749783D01*
X91361642Y-96782196D01*
X91319360Y-96764011D01*
X91298552Y-96680481D01*
X91303227Y-96587920D01*
X91340046Y-96621222D01*
G37*
X91518764Y-96992707D02*
X91612462Y-97158459D01*
X91636440Y-97248275D01*
X91585150Y-97230707D01*
X91555520Y-97201158D01*
X91455001Y-97035352D01*
X91435170Y-96964461D01*
X91450185Y-96910401D01*
X91518764Y-96992707D01*
G36*
X91518764Y-96992707D02*
G01*
X91612462Y-97158459D01*
X91636440Y-97248275D01*
X91585150Y-97230707D01*
X91555520Y-97201158D01*
X91455001Y-97035352D01*
X91435170Y-96964461D01*
X91450185Y-96910401D01*
X91518764Y-96992707D01*
G37*
X95645603Y-96941485D02*
X95765055Y-97016165D01*
X95833731Y-97140527D01*
X95871561Y-97299851D01*
X95890452Y-97478201D01*
X95862070Y-97616659D01*
X95765667Y-97726221D01*
X95580492Y-97817877D01*
X95285799Y-97902625D01*
X94860837Y-97991456D01*
X94412401Y-98072977D01*
X93127079Y-98299614D01*
X92961757Y-98041865D01*
X92784179Y-97754501D01*
X92694712Y-97572638D01*
X92683073Y-97463958D01*
X92738979Y-97396147D01*
X92753391Y-97386999D01*
X92876809Y-97347010D01*
X93135472Y-97285867D01*
X93497610Y-97210340D01*
X93931452Y-97127197D01*
X94199985Y-97078758D01*
X94752565Y-96985126D01*
X95162360Y-96929008D01*
X95452372Y-96913447D01*
X95645603Y-96941485D01*
G36*
X95645603Y-96941485D02*
G01*
X95765055Y-97016165D01*
X95833731Y-97140527D01*
X95871561Y-97299851D01*
X95890452Y-97478201D01*
X95862070Y-97616659D01*
X95765667Y-97726221D01*
X95580492Y-97817877D01*
X95285799Y-97902625D01*
X94860837Y-97991456D01*
X94412401Y-98072977D01*
X93127079Y-98299614D01*
X92961757Y-98041865D01*
X92784179Y-97754501D01*
X92694712Y-97572638D01*
X92683073Y-97463958D01*
X92738979Y-97396147D01*
X92753391Y-97386999D01*
X92876809Y-97347010D01*
X93135472Y-97285867D01*
X93497610Y-97210340D01*
X93931452Y-97127197D01*
X94199985Y-97078758D01*
X94752565Y-96985126D01*
X95162360Y-96929008D01*
X95452372Y-96913447D01*
X95645603Y-96941485D01*
G37*
D11*
%TO.C,S1*%
X127149600Y-74141600D02*
X133149600Y-74141600D01*
X133149600Y-74141600D02*
X133149600Y-82271600D01*
X133149600Y-82271600D02*
X127149600Y-82271600D01*
X127149600Y-82271600D02*
X127149600Y-74141600D01*
X130149600Y-82946600D02*
X130149600Y-82946600D01*
X130149600Y-82846600D02*
X130149600Y-82846600D01*
X130149600Y-82946600D02*
G75*
G03*
X130149600Y-82846600I0J50000D01*
G01*
X130149600Y-82846600D02*
G75*
G03*
X130149600Y-82946600I0J-50000D01*
G01*
D15*
%TO.C,TB1*%
X99982300Y-128447800D02*
X99982300Y-85267800D01*
X117762300Y-128447800D02*
X99982300Y-128447800D01*
X117762300Y-85267800D02*
X117762300Y-128447800D01*
X99982300Y-85267800D02*
X117762300Y-85267800D01*
D16*
X98772300Y-89057800D02*
G75*
G03*
X98772300Y-89057800I-100000J0D01*
G01*
D17*
%TO.C,J3*%
X136145000Y-71855000D02*
X136145000Y-70525000D01*
X137475000Y-71855000D02*
X136145000Y-71855000D01*
X138745000Y-71855000D02*
X143885000Y-71855000D01*
X138745000Y-71855000D02*
X138745000Y-69255000D01*
X143885000Y-71855000D02*
X143885000Y-66655000D01*
X136145000Y-69255000D02*
X136145000Y-66655000D01*
X138745000Y-69255000D02*
X136145000Y-69255000D01*
X136145000Y-66655000D02*
X143885000Y-66655000D01*
%TO.C,J1*%
X95626800Y-130133800D02*
X95626800Y-107213800D01*
X98286800Y-107213800D02*
X95626800Y-107213800D01*
X98286800Y-130133800D02*
X95626800Y-130133800D01*
X98286800Y-130133800D02*
X98286800Y-107213800D01*
X98286800Y-131403800D02*
X98286800Y-132733800D01*
X98286800Y-132733800D02*
X96956800Y-132733800D01*
%TO.C,J2*%
X149670000Y-78070000D02*
X151000000Y-78070000D01*
X149670000Y-79400000D02*
X149670000Y-78070000D01*
X149670000Y-80670000D02*
X149670000Y-128990000D01*
X149670000Y-80670000D02*
X152270000Y-80670000D01*
X149670000Y-128990000D02*
X154870000Y-128990000D01*
X152270000Y-78070000D02*
X154870000Y-78070000D01*
X152270000Y-80670000D02*
X152270000Y-78070000D01*
X154870000Y-78070000D02*
X154870000Y-128990000D01*
D15*
%TO.C,J5*%
X108048600Y-65139200D02*
X108048600Y-83339200D01*
X108048600Y-83339200D02*
X110020600Y-83339200D01*
X114376600Y-83339200D02*
X117220600Y-83339200D01*
X123548600Y-65139200D02*
X108048600Y-65139200D01*
X123548600Y-83339200D02*
X121576600Y-83339200D01*
X123548600Y-83339200D02*
X123548600Y-65139200D01*
D17*
%TO.C,J7*%
X81499400Y-94605800D02*
X82829400Y-94605800D01*
X81499400Y-95935800D02*
X81499400Y-94605800D01*
X81499400Y-97205800D02*
X81499400Y-104885800D01*
X81499400Y-97205800D02*
X84159400Y-97205800D01*
X81499400Y-104885800D02*
X84159400Y-104885800D01*
X84159400Y-97205800D02*
X84159400Y-104885800D01*
%TD*%
M02*
