%TF.GenerationSoftware,KiCad,Pcbnew,7.0.2-0*%
%TF.CreationDate,2024-01-24T17:58:35-05:00*%
%TF.ProjectId,Pi_HAT_V4_Simple,50695f48-4154-45f5-9634-5f53696d706c,rev?*%
%TF.SameCoordinates,Original*%
%TF.FileFunction,Drillmap*%
%TF.FilePolarity,Positive*%
%FSLAX45Y45*%
G04 Gerber Fmt 4.5, Leading zero omitted, Abs format (unit mm)*
G04 Created by KiCad (PCBNEW 7.0.2-0) date 2024-01-24 17:58:35*
%MOMM*%
%LPD*%
G01*
G04 APERTURE LIST*
%ADD10C,0.100000*%
%ADD11C,0.200000*%
%ADD12C,0.060000*%
%ADD13C,0.090000*%
%ADD14C,0.109000*%
%ADD15C,0.270000*%
G04 APERTURE END LIST*
D10*
X8051186Y-6475113D02*
X15562739Y-6473750D01*
X8051186Y-6475113D02*
G75*
G03*
X7900053Y-6626250I4J-151137D01*
G01*
X7913987Y-13450000D02*
X7900053Y-6626250D01*
X15564173Y-13598934D02*
G75*
G03*
X15714173Y-13448934I-4J150004D01*
G01*
X15712739Y-6623750D02*
X15714173Y-13448934D01*
X7913987Y-13450000D02*
G75*
G03*
X8063987Y-13600000I150000J0D01*
G01*
X15712739Y-6623750D02*
G75*
G03*
X15562739Y-6473750I-150000J0D01*
G01*
X15564173Y-13598934D02*
X8063987Y-13600000D01*
D11*
D12*
X10874860Y-7518920D02*
X10934860Y-7578920D01*
X10934860Y-7518920D02*
X10874860Y-7578920D01*
D11*
X10874860Y-7493920D02*
X10874860Y-7603920D01*
X10874860Y-7603920D02*
G75*
G03*
X10934860Y-7603920I30000J0D01*
G01*
X10934860Y-7603920D02*
X10934860Y-7493920D01*
X10934860Y-7493920D02*
G75*
G03*
X10874860Y-7493920I-30000J0D01*
G01*
D12*
X12224860Y-7518920D02*
X12284860Y-7578920D01*
X12284860Y-7518920D02*
X12224860Y-7578920D01*
D11*
X12224860Y-7493920D02*
X12224860Y-7603920D01*
X12224860Y-7603920D02*
G75*
G03*
X12284860Y-7603920I30000J0D01*
G01*
X12284860Y-7603920D02*
X12284860Y-7493920D01*
X12284860Y-7493920D02*
G75*
G03*
X12224860Y-7493920I-30000J0D01*
G01*
D13*
X10170230Y-8907780D02*
G75*
G03*
X10170230Y-8907780I-45000J0D01*
G01*
X10170230Y-9161780D02*
G75*
G03*
X10170230Y-9161780I-45000J0D01*
G01*
X10170230Y-9415780D02*
G75*
G03*
X10170230Y-9415780I-45000J0D01*
G01*
X10170230Y-9669780D02*
G75*
G03*
X10170230Y-9669780I-45000J0D01*
G01*
X10170230Y-9923780D02*
G75*
G03*
X10170230Y-9923780I-45000J0D01*
G01*
X10170230Y-10177780D02*
G75*
G03*
X10170230Y-10177780I-45000J0D01*
G01*
X10170230Y-10431780D02*
G75*
G03*
X10170230Y-10431780I-45000J0D01*
G01*
X10170230Y-10685780D02*
G75*
G03*
X10170230Y-10685780I-45000J0D01*
G01*
X10170230Y-10939780D02*
G75*
G03*
X10170230Y-10939780I-45000J0D01*
G01*
X10170230Y-11193780D02*
G75*
G03*
X10170230Y-11193780I-45000J0D01*
G01*
X10170230Y-11447780D02*
G75*
G03*
X10170230Y-11447780I-45000J0D01*
G01*
X10170230Y-11701780D02*
G75*
G03*
X10170230Y-11701780I-45000J0D01*
G01*
X10170230Y-11955780D02*
G75*
G03*
X10170230Y-11955780I-45000J0D01*
G01*
X10170230Y-12209780D02*
G75*
G03*
X10170230Y-12209780I-45000J0D01*
G01*
X10170230Y-12463780D02*
G75*
G03*
X10170230Y-12463780I-45000J0D01*
G01*
X11694230Y-8907780D02*
G75*
G03*
X11694230Y-8907780I-45000J0D01*
G01*
X11694230Y-9161780D02*
G75*
G03*
X11694230Y-9161780I-45000J0D01*
G01*
X11694230Y-9415780D02*
G75*
G03*
X11694230Y-9415780I-45000J0D01*
G01*
X11694230Y-9669780D02*
G75*
G03*
X11694230Y-9669780I-45000J0D01*
G01*
X11694230Y-9923780D02*
G75*
G03*
X11694230Y-9923780I-45000J0D01*
G01*
X11694230Y-10177780D02*
G75*
G03*
X11694230Y-10177780I-45000J0D01*
G01*
X11694230Y-10431780D02*
G75*
G03*
X11694230Y-10431780I-45000J0D01*
G01*
X11694230Y-10685780D02*
G75*
G03*
X11694230Y-10685780I-45000J0D01*
G01*
X11694230Y-10939780D02*
G75*
G03*
X11694230Y-10939780I-45000J0D01*
G01*
X11694230Y-11193780D02*
G75*
G03*
X11694230Y-11193780I-45000J0D01*
G01*
X11694230Y-11447780D02*
G75*
G03*
X11694230Y-11447780I-45000J0D01*
G01*
X11694230Y-11701780D02*
G75*
G03*
X11694230Y-11701780I-45000J0D01*
G01*
X11694230Y-11955780D02*
G75*
G03*
X11694230Y-11955780I-45000J0D01*
G01*
X11694230Y-12209780D02*
G75*
G03*
X11694230Y-12209780I-45000J0D01*
G01*
X11694230Y-12463780D02*
G75*
G03*
X11694230Y-12463780I-45000J0D01*
G01*
D10*
X8282940Y-9543580D02*
X8282940Y-9643580D01*
X8232940Y-9593580D02*
X8332940Y-9593580D01*
X8282940Y-9797580D02*
X8282940Y-9897580D01*
X8232940Y-9847580D02*
X8332940Y-9847580D01*
X8282940Y-10051580D02*
X8282940Y-10151580D01*
X8232940Y-10101580D02*
X8332940Y-10101580D01*
X8282940Y-10305580D02*
X8282940Y-10405580D01*
X8232940Y-10355580D02*
X8332940Y-10355580D01*
X9695680Y-10804380D02*
X9695680Y-10904380D01*
X9645680Y-10854380D02*
X9745680Y-10854380D01*
X9695680Y-11058380D02*
X9695680Y-11158380D01*
X9645680Y-11108380D02*
X9745680Y-11108380D01*
X9695680Y-11312380D02*
X9695680Y-11412380D01*
X9645680Y-11362380D02*
X9745680Y-11362380D01*
X9695680Y-11566380D02*
X9695680Y-11666380D01*
X9645680Y-11616380D02*
X9745680Y-11616380D01*
X9695680Y-11820380D02*
X9695680Y-11920380D01*
X9645680Y-11870380D02*
X9745680Y-11870380D01*
X9695680Y-12074380D02*
X9695680Y-12174380D01*
X9645680Y-12124380D02*
X9745680Y-12124380D01*
X9695680Y-12328380D02*
X9695680Y-12428380D01*
X9645680Y-12378380D02*
X9745680Y-12378380D01*
X9695680Y-12582380D02*
X9695680Y-12682380D01*
X9645680Y-12632380D02*
X9745680Y-12632380D01*
X9695680Y-12836380D02*
X9695680Y-12936380D01*
X9645680Y-12886380D02*
X9745680Y-12886380D01*
X9695680Y-13090380D02*
X9695680Y-13190380D01*
X9645680Y-13140380D02*
X9745680Y-13140380D01*
X12314360Y-8717260D02*
X12314360Y-8817260D01*
X12264360Y-8767260D02*
X12364360Y-8767260D01*
X12314360Y-13192260D02*
X12314360Y-13292260D01*
X12264360Y-13242260D02*
X12364360Y-13242260D01*
X13747500Y-6748500D02*
X13747500Y-6848500D01*
X13697500Y-6798500D02*
X13797500Y-6798500D01*
X13747500Y-7002500D02*
X13747500Y-7102500D01*
X13697500Y-7052500D02*
X13797500Y-7052500D01*
X14001500Y-6748500D02*
X14001500Y-6848500D01*
X13951500Y-6798500D02*
X14051500Y-6798500D01*
X14001500Y-7002500D02*
X14001500Y-7102500D01*
X13951500Y-7052500D02*
X14051500Y-7052500D01*
X14255500Y-6748500D02*
X14255500Y-6848500D01*
X14205500Y-6798500D02*
X14305500Y-6798500D01*
X14255500Y-7002500D02*
X14255500Y-7102500D01*
X14205500Y-7052500D02*
X14305500Y-7052500D01*
X14259560Y-13180860D02*
X14259560Y-13280860D01*
X14209560Y-13230860D02*
X14309560Y-13230860D01*
X14264360Y-8717260D02*
X14264360Y-8817260D01*
X14214360Y-8767260D02*
X14314360Y-8767260D01*
X15100000Y-7890000D02*
X15100000Y-7990000D01*
X15050000Y-7940000D02*
X15150000Y-7940000D01*
X15100000Y-8144000D02*
X15100000Y-8244000D01*
X15050000Y-8194000D02*
X15150000Y-8194000D01*
X15100000Y-8398000D02*
X15100000Y-8498000D01*
X15050000Y-8448000D02*
X15150000Y-8448000D01*
X15100000Y-8652000D02*
X15100000Y-8752000D01*
X15050000Y-8702000D02*
X15150000Y-8702000D01*
X15100000Y-8906000D02*
X15100000Y-9006000D01*
X15050000Y-8956000D02*
X15150000Y-8956000D01*
X15100000Y-9160000D02*
X15100000Y-9260000D01*
X15050000Y-9210000D02*
X15150000Y-9210000D01*
X15100000Y-9414000D02*
X15100000Y-9514000D01*
X15050000Y-9464000D02*
X15150000Y-9464000D01*
X15100000Y-9668000D02*
X15100000Y-9768000D01*
X15050000Y-9718000D02*
X15150000Y-9718000D01*
X15100000Y-9922000D02*
X15100000Y-10022000D01*
X15050000Y-9972000D02*
X15150000Y-9972000D01*
X15100000Y-10176000D02*
X15100000Y-10276000D01*
X15050000Y-10226000D02*
X15150000Y-10226000D01*
X15100000Y-10430000D02*
X15100000Y-10530000D01*
X15050000Y-10480000D02*
X15150000Y-10480000D01*
X15100000Y-10684000D02*
X15100000Y-10784000D01*
X15050000Y-10734000D02*
X15150000Y-10734000D01*
X15100000Y-10938000D02*
X15100000Y-11038000D01*
X15050000Y-10988000D02*
X15150000Y-10988000D01*
X15100000Y-11192000D02*
X15100000Y-11292000D01*
X15050000Y-11242000D02*
X15150000Y-11242000D01*
X15100000Y-11446000D02*
X15100000Y-11546000D01*
X15050000Y-11496000D02*
X15150000Y-11496000D01*
X15100000Y-11700000D02*
X15100000Y-11800000D01*
X15050000Y-11750000D02*
X15150000Y-11750000D01*
X15100000Y-11954000D02*
X15100000Y-12054000D01*
X15050000Y-12004000D02*
X15150000Y-12004000D01*
X15100000Y-12208000D02*
X15100000Y-12308000D01*
X15050000Y-12258000D02*
X15150000Y-12258000D01*
X15100000Y-12462000D02*
X15100000Y-12562000D01*
X15050000Y-12512000D02*
X15150000Y-12512000D01*
X15100000Y-12716000D02*
X15100000Y-12816000D01*
X15050000Y-12766000D02*
X15150000Y-12766000D01*
X15354000Y-7890000D02*
X15354000Y-7990000D01*
X15304000Y-7940000D02*
X15404000Y-7940000D01*
X15354000Y-8144000D02*
X15354000Y-8244000D01*
X15304000Y-8194000D02*
X15404000Y-8194000D01*
X15354000Y-8398000D02*
X15354000Y-8498000D01*
X15304000Y-8448000D02*
X15404000Y-8448000D01*
X15354000Y-8652000D02*
X15354000Y-8752000D01*
X15304000Y-8702000D02*
X15404000Y-8702000D01*
X15354000Y-8906000D02*
X15354000Y-9006000D01*
X15304000Y-8956000D02*
X15404000Y-8956000D01*
X15354000Y-9160000D02*
X15354000Y-9260000D01*
X15304000Y-9210000D02*
X15404000Y-9210000D01*
X15354000Y-9414000D02*
X15354000Y-9514000D01*
X15304000Y-9464000D02*
X15404000Y-9464000D01*
X15354000Y-9668000D02*
X15354000Y-9768000D01*
X15304000Y-9718000D02*
X15404000Y-9718000D01*
X15354000Y-9922000D02*
X15354000Y-10022000D01*
X15304000Y-9972000D02*
X15404000Y-9972000D01*
X15354000Y-10176000D02*
X15354000Y-10276000D01*
X15304000Y-10226000D02*
X15404000Y-10226000D01*
X15354000Y-10430000D02*
X15354000Y-10530000D01*
X15304000Y-10480000D02*
X15404000Y-10480000D01*
X15354000Y-10684000D02*
X15354000Y-10784000D01*
X15304000Y-10734000D02*
X15404000Y-10734000D01*
X15354000Y-10938000D02*
X15354000Y-11038000D01*
X15304000Y-10988000D02*
X15404000Y-10988000D01*
X15354000Y-11192000D02*
X15354000Y-11292000D01*
X15304000Y-11242000D02*
X15404000Y-11242000D01*
X15354000Y-11446000D02*
X15354000Y-11546000D01*
X15304000Y-11496000D02*
X15404000Y-11496000D01*
X15354000Y-11700000D02*
X15354000Y-11800000D01*
X15304000Y-11750000D02*
X15404000Y-11750000D01*
X15354000Y-11954000D02*
X15354000Y-12054000D01*
X15304000Y-12004000D02*
X15404000Y-12004000D01*
X15354000Y-12208000D02*
X15354000Y-12308000D01*
X15304000Y-12258000D02*
X15404000Y-12258000D01*
X15354000Y-12462000D02*
X15354000Y-12562000D01*
X15304000Y-12512000D02*
X15404000Y-12512000D01*
X15354000Y-12716000D02*
X15354000Y-12816000D01*
X15304000Y-12766000D02*
X15404000Y-12766000D01*
D14*
X13053498Y-7605198D02*
X13053498Y-7528122D01*
X12976422Y-7528122D01*
X12976422Y-7605198D01*
X13053498Y-7605198D01*
X13053498Y-8113198D02*
X13053498Y-8036122D01*
X12976422Y-8036122D01*
X12976422Y-8113198D01*
X13053498Y-8113198D01*
D15*
X11219860Y-8283920D02*
X11354860Y-8148920D01*
X11219860Y-8013920D01*
X11084860Y-8148920D01*
X11219860Y-8283920D01*
X11939860Y-8283920D02*
X12074860Y-8148920D01*
X11939860Y-8013920D01*
X11804860Y-8148920D01*
X11939860Y-8283920D01*
D11*
X8142672Y-13917524D02*
X8142672Y-13717524D01*
X8142672Y-13717524D02*
X8190291Y-13717524D01*
X8190291Y-13717524D02*
X8218862Y-13727048D01*
X8218862Y-13727048D02*
X8237910Y-13746095D01*
X8237910Y-13746095D02*
X8247434Y-13765143D01*
X8247434Y-13765143D02*
X8256958Y-13803238D01*
X8256958Y-13803238D02*
X8256958Y-13831809D01*
X8256958Y-13831809D02*
X8247434Y-13869905D01*
X8247434Y-13869905D02*
X8237910Y-13888952D01*
X8237910Y-13888952D02*
X8218862Y-13908000D01*
X8218862Y-13908000D02*
X8190291Y-13917524D01*
X8190291Y-13917524D02*
X8142672Y-13917524D01*
X8342672Y-13917524D02*
X8342672Y-13784190D01*
X8342672Y-13822286D02*
X8352196Y-13803238D01*
X8352196Y-13803238D02*
X8361720Y-13793714D01*
X8361720Y-13793714D02*
X8380767Y-13784190D01*
X8380767Y-13784190D02*
X8399815Y-13784190D01*
X8466482Y-13917524D02*
X8466482Y-13784190D01*
X8466482Y-13717524D02*
X8456958Y-13727048D01*
X8456958Y-13727048D02*
X8466482Y-13736571D01*
X8466482Y-13736571D02*
X8476005Y-13727048D01*
X8476005Y-13727048D02*
X8466482Y-13717524D01*
X8466482Y-13717524D02*
X8466482Y-13736571D01*
X8590291Y-13917524D02*
X8571243Y-13908000D01*
X8571243Y-13908000D02*
X8561720Y-13888952D01*
X8561720Y-13888952D02*
X8561720Y-13717524D01*
X8695053Y-13917524D02*
X8676005Y-13908000D01*
X8676005Y-13908000D02*
X8666482Y-13888952D01*
X8666482Y-13888952D02*
X8666482Y-13717524D01*
X8923624Y-13917524D02*
X8923624Y-13717524D01*
X8923624Y-13717524D02*
X8990291Y-13860381D01*
X8990291Y-13860381D02*
X9056958Y-13717524D01*
X9056958Y-13717524D02*
X9056958Y-13917524D01*
X9237910Y-13917524D02*
X9237910Y-13812762D01*
X9237910Y-13812762D02*
X9228386Y-13793714D01*
X9228386Y-13793714D02*
X9209339Y-13784190D01*
X9209339Y-13784190D02*
X9171243Y-13784190D01*
X9171243Y-13784190D02*
X9152196Y-13793714D01*
X9237910Y-13908000D02*
X9218863Y-13917524D01*
X9218863Y-13917524D02*
X9171243Y-13917524D01*
X9171243Y-13917524D02*
X9152196Y-13908000D01*
X9152196Y-13908000D02*
X9142672Y-13888952D01*
X9142672Y-13888952D02*
X9142672Y-13869905D01*
X9142672Y-13869905D02*
X9152196Y-13850857D01*
X9152196Y-13850857D02*
X9171243Y-13841333D01*
X9171243Y-13841333D02*
X9218863Y-13841333D01*
X9218863Y-13841333D02*
X9237910Y-13831809D01*
X9333148Y-13784190D02*
X9333148Y-13984190D01*
X9333148Y-13793714D02*
X9352196Y-13784190D01*
X9352196Y-13784190D02*
X9390291Y-13784190D01*
X9390291Y-13784190D02*
X9409339Y-13793714D01*
X9409339Y-13793714D02*
X9418863Y-13803238D01*
X9418863Y-13803238D02*
X9428386Y-13822286D01*
X9428386Y-13822286D02*
X9428386Y-13879428D01*
X9428386Y-13879428D02*
X9418863Y-13898476D01*
X9418863Y-13898476D02*
X9409339Y-13908000D01*
X9409339Y-13908000D02*
X9390291Y-13917524D01*
X9390291Y-13917524D02*
X9352196Y-13917524D01*
X9352196Y-13917524D02*
X9333148Y-13908000D01*
X9514101Y-13898476D02*
X9523624Y-13908000D01*
X9523624Y-13908000D02*
X9514101Y-13917524D01*
X9514101Y-13917524D02*
X9504577Y-13908000D01*
X9504577Y-13908000D02*
X9514101Y-13898476D01*
X9514101Y-13898476D02*
X9514101Y-13917524D01*
X9514101Y-13793714D02*
X9523624Y-13803238D01*
X9523624Y-13803238D02*
X9514101Y-13812762D01*
X9514101Y-13812762D02*
X9504577Y-13803238D01*
X9504577Y-13803238D02*
X9514101Y-13793714D01*
X9514101Y-13793714D02*
X9514101Y-13812762D01*
D12*
X7835053Y-14215000D02*
X7895053Y-14275000D01*
X7895053Y-14215000D02*
X7835053Y-14275000D01*
D11*
X8180767Y-14137524D02*
X8199815Y-14137524D01*
X8199815Y-14137524D02*
X8218862Y-14147048D01*
X8218862Y-14147048D02*
X8228386Y-14156571D01*
X8228386Y-14156571D02*
X8237910Y-14175619D01*
X8237910Y-14175619D02*
X8247434Y-14213714D01*
X8247434Y-14213714D02*
X8247434Y-14261333D01*
X8247434Y-14261333D02*
X8237910Y-14299428D01*
X8237910Y-14299428D02*
X8228386Y-14318476D01*
X8228386Y-14318476D02*
X8218862Y-14328000D01*
X8218862Y-14328000D02*
X8199815Y-14337524D01*
X8199815Y-14337524D02*
X8180767Y-14337524D01*
X8180767Y-14337524D02*
X8161720Y-14328000D01*
X8161720Y-14328000D02*
X8152196Y-14318476D01*
X8152196Y-14318476D02*
X8142672Y-14299428D01*
X8142672Y-14299428D02*
X8133148Y-14261333D01*
X8133148Y-14261333D02*
X8133148Y-14213714D01*
X8133148Y-14213714D02*
X8142672Y-14175619D01*
X8142672Y-14175619D02*
X8152196Y-14156571D01*
X8152196Y-14156571D02*
X8161720Y-14147048D01*
X8161720Y-14147048D02*
X8180767Y-14137524D01*
X8333148Y-14318476D02*
X8342672Y-14328000D01*
X8342672Y-14328000D02*
X8333148Y-14337524D01*
X8333148Y-14337524D02*
X8323624Y-14328000D01*
X8323624Y-14328000D02*
X8333148Y-14318476D01*
X8333148Y-14318476D02*
X8333148Y-14337524D01*
X8514101Y-14137524D02*
X8476005Y-14137524D01*
X8476005Y-14137524D02*
X8456958Y-14147048D01*
X8456958Y-14147048D02*
X8447434Y-14156571D01*
X8447434Y-14156571D02*
X8428386Y-14185143D01*
X8428386Y-14185143D02*
X8418863Y-14223238D01*
X8418863Y-14223238D02*
X8418863Y-14299428D01*
X8418863Y-14299428D02*
X8428386Y-14318476D01*
X8428386Y-14318476D02*
X8437910Y-14328000D01*
X8437910Y-14328000D02*
X8456958Y-14337524D01*
X8456958Y-14337524D02*
X8495053Y-14337524D01*
X8495053Y-14337524D02*
X8514101Y-14328000D01*
X8514101Y-14328000D02*
X8523624Y-14318476D01*
X8523624Y-14318476D02*
X8533148Y-14299428D01*
X8533148Y-14299428D02*
X8533148Y-14251809D01*
X8533148Y-14251809D02*
X8523624Y-14232762D01*
X8523624Y-14232762D02*
X8514101Y-14223238D01*
X8514101Y-14223238D02*
X8495053Y-14213714D01*
X8495053Y-14213714D02*
X8456958Y-14213714D01*
X8456958Y-14213714D02*
X8437910Y-14223238D01*
X8437910Y-14223238D02*
X8428386Y-14232762D01*
X8428386Y-14232762D02*
X8418863Y-14251809D01*
X8656958Y-14137524D02*
X8676005Y-14137524D01*
X8676005Y-14137524D02*
X8695053Y-14147048D01*
X8695053Y-14147048D02*
X8704577Y-14156571D01*
X8704577Y-14156571D02*
X8714101Y-14175619D01*
X8714101Y-14175619D02*
X8723624Y-14213714D01*
X8723624Y-14213714D02*
X8723624Y-14261333D01*
X8723624Y-14261333D02*
X8714101Y-14299428D01*
X8714101Y-14299428D02*
X8704577Y-14318476D01*
X8704577Y-14318476D02*
X8695053Y-14328000D01*
X8695053Y-14328000D02*
X8676005Y-14337524D01*
X8676005Y-14337524D02*
X8656958Y-14337524D01*
X8656958Y-14337524D02*
X8637910Y-14328000D01*
X8637910Y-14328000D02*
X8628386Y-14318476D01*
X8628386Y-14318476D02*
X8618863Y-14299428D01*
X8618863Y-14299428D02*
X8609339Y-14261333D01*
X8609339Y-14261333D02*
X8609339Y-14213714D01*
X8609339Y-14213714D02*
X8618863Y-14175619D01*
X8618863Y-14175619D02*
X8628386Y-14156571D01*
X8628386Y-14156571D02*
X8637910Y-14147048D01*
X8637910Y-14147048D02*
X8656958Y-14137524D01*
X8847434Y-14137524D02*
X8866482Y-14137524D01*
X8866482Y-14137524D02*
X8885529Y-14147048D01*
X8885529Y-14147048D02*
X8895053Y-14156571D01*
X8895053Y-14156571D02*
X8904577Y-14175619D01*
X8904577Y-14175619D02*
X8914101Y-14213714D01*
X8914101Y-14213714D02*
X8914101Y-14261333D01*
X8914101Y-14261333D02*
X8904577Y-14299428D01*
X8904577Y-14299428D02*
X8895053Y-14318476D01*
X8895053Y-14318476D02*
X8885529Y-14328000D01*
X8885529Y-14328000D02*
X8866482Y-14337524D01*
X8866482Y-14337524D02*
X8847434Y-14337524D01*
X8847434Y-14337524D02*
X8828386Y-14328000D01*
X8828386Y-14328000D02*
X8818863Y-14318476D01*
X8818863Y-14318476D02*
X8809339Y-14299428D01*
X8809339Y-14299428D02*
X8799815Y-14261333D01*
X8799815Y-14261333D02*
X8799815Y-14213714D01*
X8799815Y-14213714D02*
X8809339Y-14175619D01*
X8809339Y-14175619D02*
X8818863Y-14156571D01*
X8818863Y-14156571D02*
X8828386Y-14147048D01*
X8828386Y-14147048D02*
X8847434Y-14137524D01*
X8999815Y-14337524D02*
X8999815Y-14204190D01*
X8999815Y-14223238D02*
X9009339Y-14213714D01*
X9009339Y-14213714D02*
X9028386Y-14204190D01*
X9028386Y-14204190D02*
X9056958Y-14204190D01*
X9056958Y-14204190D02*
X9076005Y-14213714D01*
X9076005Y-14213714D02*
X9085529Y-14232762D01*
X9085529Y-14232762D02*
X9085529Y-14337524D01*
X9085529Y-14232762D02*
X9095053Y-14213714D01*
X9095053Y-14213714D02*
X9114101Y-14204190D01*
X9114101Y-14204190D02*
X9142672Y-14204190D01*
X9142672Y-14204190D02*
X9161720Y-14213714D01*
X9161720Y-14213714D02*
X9171244Y-14232762D01*
X9171244Y-14232762D02*
X9171244Y-14337524D01*
X9266482Y-14337524D02*
X9266482Y-14204190D01*
X9266482Y-14223238D02*
X9276005Y-14213714D01*
X9276005Y-14213714D02*
X9295053Y-14204190D01*
X9295053Y-14204190D02*
X9323625Y-14204190D01*
X9323625Y-14204190D02*
X9342672Y-14213714D01*
X9342672Y-14213714D02*
X9352196Y-14232762D01*
X9352196Y-14232762D02*
X9352196Y-14337524D01*
X9352196Y-14232762D02*
X9361720Y-14213714D01*
X9361720Y-14213714D02*
X9380767Y-14204190D01*
X9380767Y-14204190D02*
X9409339Y-14204190D01*
X9409339Y-14204190D02*
X9428386Y-14213714D01*
X9428386Y-14213714D02*
X9437910Y-14232762D01*
X9437910Y-14232762D02*
X9437910Y-14337524D01*
X9828386Y-14128000D02*
X9656958Y-14385143D01*
X10085529Y-14137524D02*
X10104577Y-14137524D01*
X10104577Y-14137524D02*
X10123625Y-14147048D01*
X10123625Y-14147048D02*
X10133148Y-14156571D01*
X10133148Y-14156571D02*
X10142672Y-14175619D01*
X10142672Y-14175619D02*
X10152196Y-14213714D01*
X10152196Y-14213714D02*
X10152196Y-14261333D01*
X10152196Y-14261333D02*
X10142672Y-14299428D01*
X10142672Y-14299428D02*
X10133148Y-14318476D01*
X10133148Y-14318476D02*
X10123625Y-14328000D01*
X10123625Y-14328000D02*
X10104577Y-14337524D01*
X10104577Y-14337524D02*
X10085529Y-14337524D01*
X10085529Y-14337524D02*
X10066482Y-14328000D01*
X10066482Y-14328000D02*
X10056958Y-14318476D01*
X10056958Y-14318476D02*
X10047434Y-14299428D01*
X10047434Y-14299428D02*
X10037910Y-14261333D01*
X10037910Y-14261333D02*
X10037910Y-14213714D01*
X10037910Y-14213714D02*
X10047434Y-14175619D01*
X10047434Y-14175619D02*
X10056958Y-14156571D01*
X10056958Y-14156571D02*
X10066482Y-14147048D01*
X10066482Y-14147048D02*
X10085529Y-14137524D01*
X10237910Y-14318476D02*
X10247434Y-14328000D01*
X10247434Y-14328000D02*
X10237910Y-14337524D01*
X10237910Y-14337524D02*
X10228387Y-14328000D01*
X10228387Y-14328000D02*
X10237910Y-14318476D01*
X10237910Y-14318476D02*
X10237910Y-14337524D01*
X10371244Y-14137524D02*
X10390291Y-14137524D01*
X10390291Y-14137524D02*
X10409339Y-14147048D01*
X10409339Y-14147048D02*
X10418863Y-14156571D01*
X10418863Y-14156571D02*
X10428387Y-14175619D01*
X10428387Y-14175619D02*
X10437910Y-14213714D01*
X10437910Y-14213714D02*
X10437910Y-14261333D01*
X10437910Y-14261333D02*
X10428387Y-14299428D01*
X10428387Y-14299428D02*
X10418863Y-14318476D01*
X10418863Y-14318476D02*
X10409339Y-14328000D01*
X10409339Y-14328000D02*
X10390291Y-14337524D01*
X10390291Y-14337524D02*
X10371244Y-14337524D01*
X10371244Y-14337524D02*
X10352196Y-14328000D01*
X10352196Y-14328000D02*
X10342672Y-14318476D01*
X10342672Y-14318476D02*
X10333148Y-14299428D01*
X10333148Y-14299428D02*
X10323625Y-14261333D01*
X10323625Y-14261333D02*
X10323625Y-14213714D01*
X10323625Y-14213714D02*
X10333148Y-14175619D01*
X10333148Y-14175619D02*
X10342672Y-14156571D01*
X10342672Y-14156571D02*
X10352196Y-14147048D01*
X10352196Y-14147048D02*
X10371244Y-14137524D01*
X10514101Y-14156571D02*
X10523625Y-14147048D01*
X10523625Y-14147048D02*
X10542672Y-14137524D01*
X10542672Y-14137524D02*
X10590291Y-14137524D01*
X10590291Y-14137524D02*
X10609339Y-14147048D01*
X10609339Y-14147048D02*
X10618863Y-14156571D01*
X10618863Y-14156571D02*
X10628387Y-14175619D01*
X10628387Y-14175619D02*
X10628387Y-14194667D01*
X10628387Y-14194667D02*
X10618863Y-14223238D01*
X10618863Y-14223238D02*
X10504577Y-14337524D01*
X10504577Y-14337524D02*
X10628387Y-14337524D01*
X10695053Y-14137524D02*
X10818863Y-14137524D01*
X10818863Y-14137524D02*
X10752196Y-14213714D01*
X10752196Y-14213714D02*
X10780768Y-14213714D01*
X10780768Y-14213714D02*
X10799815Y-14223238D01*
X10799815Y-14223238D02*
X10809339Y-14232762D01*
X10809339Y-14232762D02*
X10818863Y-14251809D01*
X10818863Y-14251809D02*
X10818863Y-14299428D01*
X10818863Y-14299428D02*
X10809339Y-14318476D01*
X10809339Y-14318476D02*
X10799815Y-14328000D01*
X10799815Y-14328000D02*
X10780768Y-14337524D01*
X10780768Y-14337524D02*
X10723625Y-14337524D01*
X10723625Y-14337524D02*
X10704577Y-14328000D01*
X10704577Y-14328000D02*
X10695053Y-14318476D01*
X10990291Y-14137524D02*
X10952196Y-14137524D01*
X10952196Y-14137524D02*
X10933148Y-14147048D01*
X10933148Y-14147048D02*
X10923625Y-14156571D01*
X10923625Y-14156571D02*
X10904577Y-14185143D01*
X10904577Y-14185143D02*
X10895053Y-14223238D01*
X10895053Y-14223238D02*
X10895053Y-14299428D01*
X10895053Y-14299428D02*
X10904577Y-14318476D01*
X10904577Y-14318476D02*
X10914101Y-14328000D01*
X10914101Y-14328000D02*
X10933148Y-14337524D01*
X10933148Y-14337524D02*
X10971244Y-14337524D01*
X10971244Y-14337524D02*
X10990291Y-14328000D01*
X10990291Y-14328000D02*
X10999815Y-14318476D01*
X10999815Y-14318476D02*
X11009339Y-14299428D01*
X11009339Y-14299428D02*
X11009339Y-14251809D01*
X11009339Y-14251809D02*
X10999815Y-14232762D01*
X10999815Y-14232762D02*
X10990291Y-14223238D01*
X10990291Y-14223238D02*
X10971244Y-14213714D01*
X10971244Y-14213714D02*
X10933148Y-14213714D01*
X10933148Y-14213714D02*
X10914101Y-14223238D01*
X10914101Y-14223238D02*
X10904577Y-14232762D01*
X10904577Y-14232762D02*
X10895053Y-14251809D01*
X11085529Y-14137524D02*
X11085529Y-14175619D01*
X11161720Y-14137524D02*
X11161720Y-14175619D01*
X11456958Y-14413714D02*
X11447434Y-14404190D01*
X11447434Y-14404190D02*
X11428387Y-14375619D01*
X11428387Y-14375619D02*
X11418863Y-14356571D01*
X11418863Y-14356571D02*
X11409339Y-14328000D01*
X11409339Y-14328000D02*
X11399815Y-14280381D01*
X11399815Y-14280381D02*
X11399815Y-14242286D01*
X11399815Y-14242286D02*
X11409339Y-14194667D01*
X11409339Y-14194667D02*
X11418863Y-14166095D01*
X11418863Y-14166095D02*
X11428387Y-14147048D01*
X11428387Y-14147048D02*
X11447434Y-14118476D01*
X11447434Y-14118476D02*
X11456958Y-14108952D01*
X11571244Y-14137524D02*
X11590291Y-14137524D01*
X11590291Y-14137524D02*
X11609339Y-14147048D01*
X11609339Y-14147048D02*
X11618863Y-14156571D01*
X11618863Y-14156571D02*
X11628387Y-14175619D01*
X11628387Y-14175619D02*
X11637910Y-14213714D01*
X11637910Y-14213714D02*
X11637910Y-14261333D01*
X11637910Y-14261333D02*
X11628387Y-14299428D01*
X11628387Y-14299428D02*
X11618863Y-14318476D01*
X11618863Y-14318476D02*
X11609339Y-14328000D01*
X11609339Y-14328000D02*
X11590291Y-14337524D01*
X11590291Y-14337524D02*
X11571244Y-14337524D01*
X11571244Y-14337524D02*
X11552196Y-14328000D01*
X11552196Y-14328000D02*
X11542672Y-14318476D01*
X11542672Y-14318476D02*
X11533148Y-14299428D01*
X11533148Y-14299428D02*
X11523625Y-14261333D01*
X11523625Y-14261333D02*
X11523625Y-14213714D01*
X11523625Y-14213714D02*
X11533148Y-14175619D01*
X11533148Y-14175619D02*
X11542672Y-14156571D01*
X11542672Y-14156571D02*
X11552196Y-14147048D01*
X11552196Y-14147048D02*
X11571244Y-14137524D01*
X11876006Y-14337524D02*
X11876006Y-14137524D01*
X11961720Y-14337524D02*
X11961720Y-14232762D01*
X11961720Y-14232762D02*
X11952196Y-14213714D01*
X11952196Y-14213714D02*
X11933149Y-14204190D01*
X11933149Y-14204190D02*
X11904577Y-14204190D01*
X11904577Y-14204190D02*
X11885529Y-14213714D01*
X11885529Y-14213714D02*
X11876006Y-14223238D01*
X12085529Y-14337524D02*
X12066482Y-14328000D01*
X12066482Y-14328000D02*
X12056958Y-14318476D01*
X12056958Y-14318476D02*
X12047434Y-14299428D01*
X12047434Y-14299428D02*
X12047434Y-14242286D01*
X12047434Y-14242286D02*
X12056958Y-14223238D01*
X12056958Y-14223238D02*
X12066482Y-14213714D01*
X12066482Y-14213714D02*
X12085529Y-14204190D01*
X12085529Y-14204190D02*
X12114101Y-14204190D01*
X12114101Y-14204190D02*
X12133149Y-14213714D01*
X12133149Y-14213714D02*
X12142672Y-14223238D01*
X12142672Y-14223238D02*
X12152196Y-14242286D01*
X12152196Y-14242286D02*
X12152196Y-14299428D01*
X12152196Y-14299428D02*
X12142672Y-14318476D01*
X12142672Y-14318476D02*
X12133149Y-14328000D01*
X12133149Y-14328000D02*
X12114101Y-14337524D01*
X12114101Y-14337524D02*
X12085529Y-14337524D01*
X12266482Y-14337524D02*
X12247434Y-14328000D01*
X12247434Y-14328000D02*
X12237910Y-14308952D01*
X12237910Y-14308952D02*
X12237910Y-14137524D01*
X12418863Y-14328000D02*
X12399815Y-14337524D01*
X12399815Y-14337524D02*
X12361720Y-14337524D01*
X12361720Y-14337524D02*
X12342672Y-14328000D01*
X12342672Y-14328000D02*
X12333149Y-14308952D01*
X12333149Y-14308952D02*
X12333149Y-14232762D01*
X12333149Y-14232762D02*
X12342672Y-14213714D01*
X12342672Y-14213714D02*
X12361720Y-14204190D01*
X12361720Y-14204190D02*
X12399815Y-14204190D01*
X12399815Y-14204190D02*
X12418863Y-14213714D01*
X12418863Y-14213714D02*
X12428387Y-14232762D01*
X12428387Y-14232762D02*
X12428387Y-14251809D01*
X12428387Y-14251809D02*
X12333149Y-14270857D01*
X12504577Y-14328000D02*
X12523625Y-14337524D01*
X12523625Y-14337524D02*
X12561720Y-14337524D01*
X12561720Y-14337524D02*
X12580768Y-14328000D01*
X12580768Y-14328000D02*
X12590291Y-14308952D01*
X12590291Y-14308952D02*
X12590291Y-14299428D01*
X12590291Y-14299428D02*
X12580768Y-14280381D01*
X12580768Y-14280381D02*
X12561720Y-14270857D01*
X12561720Y-14270857D02*
X12533149Y-14270857D01*
X12533149Y-14270857D02*
X12514101Y-14261333D01*
X12514101Y-14261333D02*
X12504577Y-14242286D01*
X12504577Y-14242286D02*
X12504577Y-14232762D01*
X12504577Y-14232762D02*
X12514101Y-14213714D01*
X12514101Y-14213714D02*
X12533149Y-14204190D01*
X12533149Y-14204190D02*
X12561720Y-14204190D01*
X12561720Y-14204190D02*
X12580768Y-14213714D01*
X12828387Y-14261333D02*
X12980768Y-14261333D01*
X12904577Y-14337524D02*
X12904577Y-14185143D01*
X13218863Y-14156571D02*
X13228387Y-14147048D01*
X13228387Y-14147048D02*
X13247434Y-14137524D01*
X13247434Y-14137524D02*
X13295053Y-14137524D01*
X13295053Y-14137524D02*
X13314101Y-14147048D01*
X13314101Y-14147048D02*
X13323625Y-14156571D01*
X13323625Y-14156571D02*
X13333149Y-14175619D01*
X13333149Y-14175619D02*
X13333149Y-14194667D01*
X13333149Y-14194667D02*
X13323625Y-14223238D01*
X13323625Y-14223238D02*
X13209339Y-14337524D01*
X13209339Y-14337524D02*
X13333149Y-14337524D01*
X13561720Y-14328000D02*
X13580768Y-14337524D01*
X13580768Y-14337524D02*
X13618863Y-14337524D01*
X13618863Y-14337524D02*
X13637911Y-14328000D01*
X13637911Y-14328000D02*
X13647434Y-14308952D01*
X13647434Y-14308952D02*
X13647434Y-14299428D01*
X13647434Y-14299428D02*
X13637911Y-14280381D01*
X13637911Y-14280381D02*
X13618863Y-14270857D01*
X13618863Y-14270857D02*
X13590292Y-14270857D01*
X13590292Y-14270857D02*
X13571244Y-14261333D01*
X13571244Y-14261333D02*
X13561720Y-14242286D01*
X13561720Y-14242286D02*
X13561720Y-14232762D01*
X13561720Y-14232762D02*
X13571244Y-14213714D01*
X13571244Y-14213714D02*
X13590292Y-14204190D01*
X13590292Y-14204190D02*
X13618863Y-14204190D01*
X13618863Y-14204190D02*
X13637911Y-14213714D01*
X13761720Y-14337524D02*
X13742673Y-14328000D01*
X13742673Y-14328000D02*
X13733149Y-14308952D01*
X13733149Y-14308952D02*
X13733149Y-14137524D01*
X13866482Y-14337524D02*
X13847434Y-14328000D01*
X13847434Y-14328000D02*
X13837911Y-14318476D01*
X13837911Y-14318476D02*
X13828387Y-14299428D01*
X13828387Y-14299428D02*
X13828387Y-14242286D01*
X13828387Y-14242286D02*
X13837911Y-14223238D01*
X13837911Y-14223238D02*
X13847434Y-14213714D01*
X13847434Y-14213714D02*
X13866482Y-14204190D01*
X13866482Y-14204190D02*
X13895054Y-14204190D01*
X13895054Y-14204190D02*
X13914101Y-14213714D01*
X13914101Y-14213714D02*
X13923625Y-14223238D01*
X13923625Y-14223238D02*
X13933149Y-14242286D01*
X13933149Y-14242286D02*
X13933149Y-14299428D01*
X13933149Y-14299428D02*
X13923625Y-14318476D01*
X13923625Y-14318476D02*
X13914101Y-14328000D01*
X13914101Y-14328000D02*
X13895054Y-14337524D01*
X13895054Y-14337524D02*
X13866482Y-14337524D01*
X13990292Y-14204190D02*
X14066482Y-14204190D01*
X14018863Y-14137524D02*
X14018863Y-14308952D01*
X14018863Y-14308952D02*
X14028387Y-14328000D01*
X14028387Y-14328000D02*
X14047434Y-14337524D01*
X14047434Y-14337524D02*
X14066482Y-14337524D01*
X14123625Y-14328000D02*
X14142673Y-14337524D01*
X14142673Y-14337524D02*
X14180768Y-14337524D01*
X14180768Y-14337524D02*
X14199815Y-14328000D01*
X14199815Y-14328000D02*
X14209339Y-14308952D01*
X14209339Y-14308952D02*
X14209339Y-14299428D01*
X14209339Y-14299428D02*
X14199815Y-14280381D01*
X14199815Y-14280381D02*
X14180768Y-14270857D01*
X14180768Y-14270857D02*
X14152196Y-14270857D01*
X14152196Y-14270857D02*
X14133149Y-14261333D01*
X14133149Y-14261333D02*
X14123625Y-14242286D01*
X14123625Y-14242286D02*
X14123625Y-14232762D01*
X14123625Y-14232762D02*
X14133149Y-14213714D01*
X14133149Y-14213714D02*
X14152196Y-14204190D01*
X14152196Y-14204190D02*
X14180768Y-14204190D01*
X14180768Y-14204190D02*
X14199815Y-14213714D01*
X14276006Y-14413714D02*
X14285530Y-14404190D01*
X14285530Y-14404190D02*
X14304577Y-14375619D01*
X14304577Y-14375619D02*
X14314101Y-14356571D01*
X14314101Y-14356571D02*
X14323625Y-14328000D01*
X14323625Y-14328000D02*
X14333149Y-14280381D01*
X14333149Y-14280381D02*
X14333149Y-14242286D01*
X14333149Y-14242286D02*
X14323625Y-14194667D01*
X14323625Y-14194667D02*
X14314101Y-14166095D01*
X14314101Y-14166095D02*
X14304577Y-14147048D01*
X14304577Y-14147048D02*
X14285530Y-14118476D01*
X14285530Y-14118476D02*
X14276006Y-14108952D01*
D13*
X7895053Y-14509000D02*
G75*
G03*
X7895053Y-14509000I-45000J0D01*
G01*
D11*
X8180767Y-14401524D02*
X8199815Y-14401524D01*
X8199815Y-14401524D02*
X8218862Y-14411048D01*
X8218862Y-14411048D02*
X8228386Y-14420571D01*
X8228386Y-14420571D02*
X8237910Y-14439619D01*
X8237910Y-14439619D02*
X8247434Y-14477714D01*
X8247434Y-14477714D02*
X8247434Y-14525333D01*
X8247434Y-14525333D02*
X8237910Y-14563428D01*
X8237910Y-14563428D02*
X8228386Y-14582476D01*
X8228386Y-14582476D02*
X8218862Y-14592000D01*
X8218862Y-14592000D02*
X8199815Y-14601524D01*
X8199815Y-14601524D02*
X8180767Y-14601524D01*
X8180767Y-14601524D02*
X8161720Y-14592000D01*
X8161720Y-14592000D02*
X8152196Y-14582476D01*
X8152196Y-14582476D02*
X8142672Y-14563428D01*
X8142672Y-14563428D02*
X8133148Y-14525333D01*
X8133148Y-14525333D02*
X8133148Y-14477714D01*
X8133148Y-14477714D02*
X8142672Y-14439619D01*
X8142672Y-14439619D02*
X8152196Y-14420571D01*
X8152196Y-14420571D02*
X8161720Y-14411048D01*
X8161720Y-14411048D02*
X8180767Y-14401524D01*
X8333148Y-14582476D02*
X8342672Y-14592000D01*
X8342672Y-14592000D02*
X8333148Y-14601524D01*
X8333148Y-14601524D02*
X8323624Y-14592000D01*
X8323624Y-14592000D02*
X8333148Y-14582476D01*
X8333148Y-14582476D02*
X8333148Y-14601524D01*
X8437910Y-14601524D02*
X8476005Y-14601524D01*
X8476005Y-14601524D02*
X8495053Y-14592000D01*
X8495053Y-14592000D02*
X8504577Y-14582476D01*
X8504577Y-14582476D02*
X8523624Y-14553905D01*
X8523624Y-14553905D02*
X8533148Y-14515809D01*
X8533148Y-14515809D02*
X8533148Y-14439619D01*
X8533148Y-14439619D02*
X8523624Y-14420571D01*
X8523624Y-14420571D02*
X8514101Y-14411048D01*
X8514101Y-14411048D02*
X8495053Y-14401524D01*
X8495053Y-14401524D02*
X8456958Y-14401524D01*
X8456958Y-14401524D02*
X8437910Y-14411048D01*
X8437910Y-14411048D02*
X8428386Y-14420571D01*
X8428386Y-14420571D02*
X8418863Y-14439619D01*
X8418863Y-14439619D02*
X8418863Y-14487238D01*
X8418863Y-14487238D02*
X8428386Y-14506286D01*
X8428386Y-14506286D02*
X8437910Y-14515809D01*
X8437910Y-14515809D02*
X8456958Y-14525333D01*
X8456958Y-14525333D02*
X8495053Y-14525333D01*
X8495053Y-14525333D02*
X8514101Y-14515809D01*
X8514101Y-14515809D02*
X8523624Y-14506286D01*
X8523624Y-14506286D02*
X8533148Y-14487238D01*
X8656958Y-14401524D02*
X8676005Y-14401524D01*
X8676005Y-14401524D02*
X8695053Y-14411048D01*
X8695053Y-14411048D02*
X8704577Y-14420571D01*
X8704577Y-14420571D02*
X8714101Y-14439619D01*
X8714101Y-14439619D02*
X8723624Y-14477714D01*
X8723624Y-14477714D02*
X8723624Y-14525333D01*
X8723624Y-14525333D02*
X8714101Y-14563428D01*
X8714101Y-14563428D02*
X8704577Y-14582476D01*
X8704577Y-14582476D02*
X8695053Y-14592000D01*
X8695053Y-14592000D02*
X8676005Y-14601524D01*
X8676005Y-14601524D02*
X8656958Y-14601524D01*
X8656958Y-14601524D02*
X8637910Y-14592000D01*
X8637910Y-14592000D02*
X8628386Y-14582476D01*
X8628386Y-14582476D02*
X8618863Y-14563428D01*
X8618863Y-14563428D02*
X8609339Y-14525333D01*
X8609339Y-14525333D02*
X8609339Y-14477714D01*
X8609339Y-14477714D02*
X8618863Y-14439619D01*
X8618863Y-14439619D02*
X8628386Y-14420571D01*
X8628386Y-14420571D02*
X8637910Y-14411048D01*
X8637910Y-14411048D02*
X8656958Y-14401524D01*
X8847434Y-14401524D02*
X8866482Y-14401524D01*
X8866482Y-14401524D02*
X8885529Y-14411048D01*
X8885529Y-14411048D02*
X8895053Y-14420571D01*
X8895053Y-14420571D02*
X8904577Y-14439619D01*
X8904577Y-14439619D02*
X8914101Y-14477714D01*
X8914101Y-14477714D02*
X8914101Y-14525333D01*
X8914101Y-14525333D02*
X8904577Y-14563428D01*
X8904577Y-14563428D02*
X8895053Y-14582476D01*
X8895053Y-14582476D02*
X8885529Y-14592000D01*
X8885529Y-14592000D02*
X8866482Y-14601524D01*
X8866482Y-14601524D02*
X8847434Y-14601524D01*
X8847434Y-14601524D02*
X8828386Y-14592000D01*
X8828386Y-14592000D02*
X8818863Y-14582476D01*
X8818863Y-14582476D02*
X8809339Y-14563428D01*
X8809339Y-14563428D02*
X8799815Y-14525333D01*
X8799815Y-14525333D02*
X8799815Y-14477714D01*
X8799815Y-14477714D02*
X8809339Y-14439619D01*
X8809339Y-14439619D02*
X8818863Y-14420571D01*
X8818863Y-14420571D02*
X8828386Y-14411048D01*
X8828386Y-14411048D02*
X8847434Y-14401524D01*
X8999815Y-14601524D02*
X8999815Y-14468190D01*
X8999815Y-14487238D02*
X9009339Y-14477714D01*
X9009339Y-14477714D02*
X9028386Y-14468190D01*
X9028386Y-14468190D02*
X9056958Y-14468190D01*
X9056958Y-14468190D02*
X9076005Y-14477714D01*
X9076005Y-14477714D02*
X9085529Y-14496762D01*
X9085529Y-14496762D02*
X9085529Y-14601524D01*
X9085529Y-14496762D02*
X9095053Y-14477714D01*
X9095053Y-14477714D02*
X9114101Y-14468190D01*
X9114101Y-14468190D02*
X9142672Y-14468190D01*
X9142672Y-14468190D02*
X9161720Y-14477714D01*
X9161720Y-14477714D02*
X9171244Y-14496762D01*
X9171244Y-14496762D02*
X9171244Y-14601524D01*
X9266482Y-14601524D02*
X9266482Y-14468190D01*
X9266482Y-14487238D02*
X9276005Y-14477714D01*
X9276005Y-14477714D02*
X9295053Y-14468190D01*
X9295053Y-14468190D02*
X9323625Y-14468190D01*
X9323625Y-14468190D02*
X9342672Y-14477714D01*
X9342672Y-14477714D02*
X9352196Y-14496762D01*
X9352196Y-14496762D02*
X9352196Y-14601524D01*
X9352196Y-14496762D02*
X9361720Y-14477714D01*
X9361720Y-14477714D02*
X9380767Y-14468190D01*
X9380767Y-14468190D02*
X9409339Y-14468190D01*
X9409339Y-14468190D02*
X9428386Y-14477714D01*
X9428386Y-14477714D02*
X9437910Y-14496762D01*
X9437910Y-14496762D02*
X9437910Y-14601524D01*
X9828386Y-14392000D02*
X9656958Y-14649143D01*
X10085529Y-14401524D02*
X10104577Y-14401524D01*
X10104577Y-14401524D02*
X10123625Y-14411048D01*
X10123625Y-14411048D02*
X10133148Y-14420571D01*
X10133148Y-14420571D02*
X10142672Y-14439619D01*
X10142672Y-14439619D02*
X10152196Y-14477714D01*
X10152196Y-14477714D02*
X10152196Y-14525333D01*
X10152196Y-14525333D02*
X10142672Y-14563428D01*
X10142672Y-14563428D02*
X10133148Y-14582476D01*
X10133148Y-14582476D02*
X10123625Y-14592000D01*
X10123625Y-14592000D02*
X10104577Y-14601524D01*
X10104577Y-14601524D02*
X10085529Y-14601524D01*
X10085529Y-14601524D02*
X10066482Y-14592000D01*
X10066482Y-14592000D02*
X10056958Y-14582476D01*
X10056958Y-14582476D02*
X10047434Y-14563428D01*
X10047434Y-14563428D02*
X10037910Y-14525333D01*
X10037910Y-14525333D02*
X10037910Y-14477714D01*
X10037910Y-14477714D02*
X10047434Y-14439619D01*
X10047434Y-14439619D02*
X10056958Y-14420571D01*
X10056958Y-14420571D02*
X10066482Y-14411048D01*
X10066482Y-14411048D02*
X10085529Y-14401524D01*
X10237910Y-14582476D02*
X10247434Y-14592000D01*
X10247434Y-14592000D02*
X10237910Y-14601524D01*
X10237910Y-14601524D02*
X10228387Y-14592000D01*
X10228387Y-14592000D02*
X10237910Y-14582476D01*
X10237910Y-14582476D02*
X10237910Y-14601524D01*
X10371244Y-14401524D02*
X10390291Y-14401524D01*
X10390291Y-14401524D02*
X10409339Y-14411048D01*
X10409339Y-14411048D02*
X10418863Y-14420571D01*
X10418863Y-14420571D02*
X10428387Y-14439619D01*
X10428387Y-14439619D02*
X10437910Y-14477714D01*
X10437910Y-14477714D02*
X10437910Y-14525333D01*
X10437910Y-14525333D02*
X10428387Y-14563428D01*
X10428387Y-14563428D02*
X10418863Y-14582476D01*
X10418863Y-14582476D02*
X10409339Y-14592000D01*
X10409339Y-14592000D02*
X10390291Y-14601524D01*
X10390291Y-14601524D02*
X10371244Y-14601524D01*
X10371244Y-14601524D02*
X10352196Y-14592000D01*
X10352196Y-14592000D02*
X10342672Y-14582476D01*
X10342672Y-14582476D02*
X10333148Y-14563428D01*
X10333148Y-14563428D02*
X10323625Y-14525333D01*
X10323625Y-14525333D02*
X10323625Y-14477714D01*
X10323625Y-14477714D02*
X10333148Y-14439619D01*
X10333148Y-14439619D02*
X10342672Y-14420571D01*
X10342672Y-14420571D02*
X10352196Y-14411048D01*
X10352196Y-14411048D02*
X10371244Y-14401524D01*
X10504577Y-14401524D02*
X10628387Y-14401524D01*
X10628387Y-14401524D02*
X10561720Y-14477714D01*
X10561720Y-14477714D02*
X10590291Y-14477714D01*
X10590291Y-14477714D02*
X10609339Y-14487238D01*
X10609339Y-14487238D02*
X10618863Y-14496762D01*
X10618863Y-14496762D02*
X10628387Y-14515809D01*
X10628387Y-14515809D02*
X10628387Y-14563428D01*
X10628387Y-14563428D02*
X10618863Y-14582476D01*
X10618863Y-14582476D02*
X10609339Y-14592000D01*
X10609339Y-14592000D02*
X10590291Y-14601524D01*
X10590291Y-14601524D02*
X10533148Y-14601524D01*
X10533148Y-14601524D02*
X10514101Y-14592000D01*
X10514101Y-14592000D02*
X10504577Y-14582476D01*
X10809339Y-14401524D02*
X10714101Y-14401524D01*
X10714101Y-14401524D02*
X10704577Y-14496762D01*
X10704577Y-14496762D02*
X10714101Y-14487238D01*
X10714101Y-14487238D02*
X10733148Y-14477714D01*
X10733148Y-14477714D02*
X10780768Y-14477714D01*
X10780768Y-14477714D02*
X10799815Y-14487238D01*
X10799815Y-14487238D02*
X10809339Y-14496762D01*
X10809339Y-14496762D02*
X10818863Y-14515809D01*
X10818863Y-14515809D02*
X10818863Y-14563428D01*
X10818863Y-14563428D02*
X10809339Y-14582476D01*
X10809339Y-14582476D02*
X10799815Y-14592000D01*
X10799815Y-14592000D02*
X10780768Y-14601524D01*
X10780768Y-14601524D02*
X10733148Y-14601524D01*
X10733148Y-14601524D02*
X10714101Y-14592000D01*
X10714101Y-14592000D02*
X10704577Y-14582476D01*
X10990291Y-14468190D02*
X10990291Y-14601524D01*
X10942672Y-14392000D02*
X10895053Y-14534857D01*
X10895053Y-14534857D02*
X11018863Y-14534857D01*
X11085529Y-14401524D02*
X11085529Y-14439619D01*
X11161720Y-14401524D02*
X11161720Y-14439619D01*
X11456958Y-14677714D02*
X11447434Y-14668190D01*
X11447434Y-14668190D02*
X11428387Y-14639619D01*
X11428387Y-14639619D02*
X11418863Y-14620571D01*
X11418863Y-14620571D02*
X11409339Y-14592000D01*
X11409339Y-14592000D02*
X11399815Y-14544381D01*
X11399815Y-14544381D02*
X11399815Y-14506286D01*
X11399815Y-14506286D02*
X11409339Y-14458667D01*
X11409339Y-14458667D02*
X11418863Y-14430095D01*
X11418863Y-14430095D02*
X11428387Y-14411048D01*
X11428387Y-14411048D02*
X11447434Y-14382476D01*
X11447434Y-14382476D02*
X11456958Y-14372952D01*
X11514101Y-14401524D02*
X11637910Y-14401524D01*
X11637910Y-14401524D02*
X11571244Y-14477714D01*
X11571244Y-14477714D02*
X11599815Y-14477714D01*
X11599815Y-14477714D02*
X11618863Y-14487238D01*
X11618863Y-14487238D02*
X11628387Y-14496762D01*
X11628387Y-14496762D02*
X11637910Y-14515809D01*
X11637910Y-14515809D02*
X11637910Y-14563428D01*
X11637910Y-14563428D02*
X11628387Y-14582476D01*
X11628387Y-14582476D02*
X11618863Y-14592000D01*
X11618863Y-14592000D02*
X11599815Y-14601524D01*
X11599815Y-14601524D02*
X11542672Y-14601524D01*
X11542672Y-14601524D02*
X11523625Y-14592000D01*
X11523625Y-14592000D02*
X11514101Y-14582476D01*
X11761720Y-14401524D02*
X11780768Y-14401524D01*
X11780768Y-14401524D02*
X11799815Y-14411048D01*
X11799815Y-14411048D02*
X11809339Y-14420571D01*
X11809339Y-14420571D02*
X11818863Y-14439619D01*
X11818863Y-14439619D02*
X11828387Y-14477714D01*
X11828387Y-14477714D02*
X11828387Y-14525333D01*
X11828387Y-14525333D02*
X11818863Y-14563428D01*
X11818863Y-14563428D02*
X11809339Y-14582476D01*
X11809339Y-14582476D02*
X11799815Y-14592000D01*
X11799815Y-14592000D02*
X11780768Y-14601524D01*
X11780768Y-14601524D02*
X11761720Y-14601524D01*
X11761720Y-14601524D02*
X11742672Y-14592000D01*
X11742672Y-14592000D02*
X11733148Y-14582476D01*
X11733148Y-14582476D02*
X11723625Y-14563428D01*
X11723625Y-14563428D02*
X11714101Y-14525333D01*
X11714101Y-14525333D02*
X11714101Y-14477714D01*
X11714101Y-14477714D02*
X11723625Y-14439619D01*
X11723625Y-14439619D02*
X11733148Y-14420571D01*
X11733148Y-14420571D02*
X11742672Y-14411048D01*
X11742672Y-14411048D02*
X11761720Y-14401524D01*
X12066482Y-14601524D02*
X12066482Y-14401524D01*
X12152196Y-14601524D02*
X12152196Y-14496762D01*
X12152196Y-14496762D02*
X12142672Y-14477714D01*
X12142672Y-14477714D02*
X12123625Y-14468190D01*
X12123625Y-14468190D02*
X12095053Y-14468190D01*
X12095053Y-14468190D02*
X12076006Y-14477714D01*
X12076006Y-14477714D02*
X12066482Y-14487238D01*
X12276006Y-14601524D02*
X12256958Y-14592000D01*
X12256958Y-14592000D02*
X12247434Y-14582476D01*
X12247434Y-14582476D02*
X12237910Y-14563428D01*
X12237910Y-14563428D02*
X12237910Y-14506286D01*
X12237910Y-14506286D02*
X12247434Y-14487238D01*
X12247434Y-14487238D02*
X12256958Y-14477714D01*
X12256958Y-14477714D02*
X12276006Y-14468190D01*
X12276006Y-14468190D02*
X12304577Y-14468190D01*
X12304577Y-14468190D02*
X12323625Y-14477714D01*
X12323625Y-14477714D02*
X12333149Y-14487238D01*
X12333149Y-14487238D02*
X12342672Y-14506286D01*
X12342672Y-14506286D02*
X12342672Y-14563428D01*
X12342672Y-14563428D02*
X12333149Y-14582476D01*
X12333149Y-14582476D02*
X12323625Y-14592000D01*
X12323625Y-14592000D02*
X12304577Y-14601524D01*
X12304577Y-14601524D02*
X12276006Y-14601524D01*
X12456958Y-14601524D02*
X12437910Y-14592000D01*
X12437910Y-14592000D02*
X12428387Y-14572952D01*
X12428387Y-14572952D02*
X12428387Y-14401524D01*
X12609339Y-14592000D02*
X12590291Y-14601524D01*
X12590291Y-14601524D02*
X12552196Y-14601524D01*
X12552196Y-14601524D02*
X12533149Y-14592000D01*
X12533149Y-14592000D02*
X12523625Y-14572952D01*
X12523625Y-14572952D02*
X12523625Y-14496762D01*
X12523625Y-14496762D02*
X12533149Y-14477714D01*
X12533149Y-14477714D02*
X12552196Y-14468190D01*
X12552196Y-14468190D02*
X12590291Y-14468190D01*
X12590291Y-14468190D02*
X12609339Y-14477714D01*
X12609339Y-14477714D02*
X12618863Y-14496762D01*
X12618863Y-14496762D02*
X12618863Y-14515809D01*
X12618863Y-14515809D02*
X12523625Y-14534857D01*
X12695053Y-14592000D02*
X12714101Y-14601524D01*
X12714101Y-14601524D02*
X12752196Y-14601524D01*
X12752196Y-14601524D02*
X12771244Y-14592000D01*
X12771244Y-14592000D02*
X12780768Y-14572952D01*
X12780768Y-14572952D02*
X12780768Y-14563428D01*
X12780768Y-14563428D02*
X12771244Y-14544381D01*
X12771244Y-14544381D02*
X12752196Y-14534857D01*
X12752196Y-14534857D02*
X12723625Y-14534857D01*
X12723625Y-14534857D02*
X12704577Y-14525333D01*
X12704577Y-14525333D02*
X12695053Y-14506286D01*
X12695053Y-14506286D02*
X12695053Y-14496762D01*
X12695053Y-14496762D02*
X12704577Y-14477714D01*
X12704577Y-14477714D02*
X12723625Y-14468190D01*
X12723625Y-14468190D02*
X12752196Y-14468190D01*
X12752196Y-14468190D02*
X12771244Y-14477714D01*
X12847434Y-14677714D02*
X12856958Y-14668190D01*
X12856958Y-14668190D02*
X12876006Y-14639619D01*
X12876006Y-14639619D02*
X12885530Y-14620571D01*
X12885530Y-14620571D02*
X12895053Y-14592000D01*
X12895053Y-14592000D02*
X12904577Y-14544381D01*
X12904577Y-14544381D02*
X12904577Y-14506286D01*
X12904577Y-14506286D02*
X12895053Y-14458667D01*
X12895053Y-14458667D02*
X12885530Y-14430095D01*
X12885530Y-14430095D02*
X12876006Y-14411048D01*
X12876006Y-14411048D02*
X12856958Y-14382476D01*
X12856958Y-14382476D02*
X12847434Y-14372952D01*
D10*
X7845053Y-14723000D02*
X7845053Y-14823000D01*
X7795053Y-14773000D02*
X7895053Y-14773000D01*
D11*
X8247434Y-14865524D02*
X8133148Y-14865524D01*
X8190291Y-14865524D02*
X8190291Y-14665524D01*
X8190291Y-14665524D02*
X8171243Y-14694095D01*
X8171243Y-14694095D02*
X8152196Y-14713143D01*
X8152196Y-14713143D02*
X8133148Y-14722667D01*
X8333148Y-14846476D02*
X8342672Y-14856000D01*
X8342672Y-14856000D02*
X8333148Y-14865524D01*
X8333148Y-14865524D02*
X8323624Y-14856000D01*
X8323624Y-14856000D02*
X8333148Y-14846476D01*
X8333148Y-14846476D02*
X8333148Y-14865524D01*
X8466482Y-14665524D02*
X8485529Y-14665524D01*
X8485529Y-14665524D02*
X8504577Y-14675048D01*
X8504577Y-14675048D02*
X8514101Y-14684571D01*
X8514101Y-14684571D02*
X8523624Y-14703619D01*
X8523624Y-14703619D02*
X8533148Y-14741714D01*
X8533148Y-14741714D02*
X8533148Y-14789333D01*
X8533148Y-14789333D02*
X8523624Y-14827428D01*
X8523624Y-14827428D02*
X8514101Y-14846476D01*
X8514101Y-14846476D02*
X8504577Y-14856000D01*
X8504577Y-14856000D02*
X8485529Y-14865524D01*
X8485529Y-14865524D02*
X8466482Y-14865524D01*
X8466482Y-14865524D02*
X8447434Y-14856000D01*
X8447434Y-14856000D02*
X8437910Y-14846476D01*
X8437910Y-14846476D02*
X8428386Y-14827428D01*
X8428386Y-14827428D02*
X8418863Y-14789333D01*
X8418863Y-14789333D02*
X8418863Y-14741714D01*
X8418863Y-14741714D02*
X8428386Y-14703619D01*
X8428386Y-14703619D02*
X8437910Y-14684571D01*
X8437910Y-14684571D02*
X8447434Y-14675048D01*
X8447434Y-14675048D02*
X8466482Y-14665524D01*
X8656958Y-14665524D02*
X8676005Y-14665524D01*
X8676005Y-14665524D02*
X8695053Y-14675048D01*
X8695053Y-14675048D02*
X8704577Y-14684571D01*
X8704577Y-14684571D02*
X8714101Y-14703619D01*
X8714101Y-14703619D02*
X8723624Y-14741714D01*
X8723624Y-14741714D02*
X8723624Y-14789333D01*
X8723624Y-14789333D02*
X8714101Y-14827428D01*
X8714101Y-14827428D02*
X8704577Y-14846476D01*
X8704577Y-14846476D02*
X8695053Y-14856000D01*
X8695053Y-14856000D02*
X8676005Y-14865524D01*
X8676005Y-14865524D02*
X8656958Y-14865524D01*
X8656958Y-14865524D02*
X8637910Y-14856000D01*
X8637910Y-14856000D02*
X8628386Y-14846476D01*
X8628386Y-14846476D02*
X8618863Y-14827428D01*
X8618863Y-14827428D02*
X8609339Y-14789333D01*
X8609339Y-14789333D02*
X8609339Y-14741714D01*
X8609339Y-14741714D02*
X8618863Y-14703619D01*
X8618863Y-14703619D02*
X8628386Y-14684571D01*
X8628386Y-14684571D02*
X8637910Y-14675048D01*
X8637910Y-14675048D02*
X8656958Y-14665524D01*
X8847434Y-14665524D02*
X8866482Y-14665524D01*
X8866482Y-14665524D02*
X8885529Y-14675048D01*
X8885529Y-14675048D02*
X8895053Y-14684571D01*
X8895053Y-14684571D02*
X8904577Y-14703619D01*
X8904577Y-14703619D02*
X8914101Y-14741714D01*
X8914101Y-14741714D02*
X8914101Y-14789333D01*
X8914101Y-14789333D02*
X8904577Y-14827428D01*
X8904577Y-14827428D02*
X8895053Y-14846476D01*
X8895053Y-14846476D02*
X8885529Y-14856000D01*
X8885529Y-14856000D02*
X8866482Y-14865524D01*
X8866482Y-14865524D02*
X8847434Y-14865524D01*
X8847434Y-14865524D02*
X8828386Y-14856000D01*
X8828386Y-14856000D02*
X8818863Y-14846476D01*
X8818863Y-14846476D02*
X8809339Y-14827428D01*
X8809339Y-14827428D02*
X8799815Y-14789333D01*
X8799815Y-14789333D02*
X8799815Y-14741714D01*
X8799815Y-14741714D02*
X8809339Y-14703619D01*
X8809339Y-14703619D02*
X8818863Y-14684571D01*
X8818863Y-14684571D02*
X8828386Y-14675048D01*
X8828386Y-14675048D02*
X8847434Y-14665524D01*
X8999815Y-14865524D02*
X8999815Y-14732190D01*
X8999815Y-14751238D02*
X9009339Y-14741714D01*
X9009339Y-14741714D02*
X9028386Y-14732190D01*
X9028386Y-14732190D02*
X9056958Y-14732190D01*
X9056958Y-14732190D02*
X9076005Y-14741714D01*
X9076005Y-14741714D02*
X9085529Y-14760762D01*
X9085529Y-14760762D02*
X9085529Y-14865524D01*
X9085529Y-14760762D02*
X9095053Y-14741714D01*
X9095053Y-14741714D02*
X9114101Y-14732190D01*
X9114101Y-14732190D02*
X9142672Y-14732190D01*
X9142672Y-14732190D02*
X9161720Y-14741714D01*
X9161720Y-14741714D02*
X9171244Y-14760762D01*
X9171244Y-14760762D02*
X9171244Y-14865524D01*
X9266482Y-14865524D02*
X9266482Y-14732190D01*
X9266482Y-14751238D02*
X9276005Y-14741714D01*
X9276005Y-14741714D02*
X9295053Y-14732190D01*
X9295053Y-14732190D02*
X9323625Y-14732190D01*
X9323625Y-14732190D02*
X9342672Y-14741714D01*
X9342672Y-14741714D02*
X9352196Y-14760762D01*
X9352196Y-14760762D02*
X9352196Y-14865524D01*
X9352196Y-14760762D02*
X9361720Y-14741714D01*
X9361720Y-14741714D02*
X9380767Y-14732190D01*
X9380767Y-14732190D02*
X9409339Y-14732190D01*
X9409339Y-14732190D02*
X9428386Y-14741714D01*
X9428386Y-14741714D02*
X9437910Y-14760762D01*
X9437910Y-14760762D02*
X9437910Y-14865524D01*
X9828386Y-14656000D02*
X9656958Y-14913143D01*
X10085529Y-14665524D02*
X10104577Y-14665524D01*
X10104577Y-14665524D02*
X10123625Y-14675048D01*
X10123625Y-14675048D02*
X10133148Y-14684571D01*
X10133148Y-14684571D02*
X10142672Y-14703619D01*
X10142672Y-14703619D02*
X10152196Y-14741714D01*
X10152196Y-14741714D02*
X10152196Y-14789333D01*
X10152196Y-14789333D02*
X10142672Y-14827428D01*
X10142672Y-14827428D02*
X10133148Y-14846476D01*
X10133148Y-14846476D02*
X10123625Y-14856000D01*
X10123625Y-14856000D02*
X10104577Y-14865524D01*
X10104577Y-14865524D02*
X10085529Y-14865524D01*
X10085529Y-14865524D02*
X10066482Y-14856000D01*
X10066482Y-14856000D02*
X10056958Y-14846476D01*
X10056958Y-14846476D02*
X10047434Y-14827428D01*
X10047434Y-14827428D02*
X10037910Y-14789333D01*
X10037910Y-14789333D02*
X10037910Y-14741714D01*
X10037910Y-14741714D02*
X10047434Y-14703619D01*
X10047434Y-14703619D02*
X10056958Y-14684571D01*
X10056958Y-14684571D02*
X10066482Y-14675048D01*
X10066482Y-14675048D02*
X10085529Y-14665524D01*
X10237910Y-14846476D02*
X10247434Y-14856000D01*
X10247434Y-14856000D02*
X10237910Y-14865524D01*
X10237910Y-14865524D02*
X10228387Y-14856000D01*
X10228387Y-14856000D02*
X10237910Y-14846476D01*
X10237910Y-14846476D02*
X10237910Y-14865524D01*
X10371244Y-14665524D02*
X10390291Y-14665524D01*
X10390291Y-14665524D02*
X10409339Y-14675048D01*
X10409339Y-14675048D02*
X10418863Y-14684571D01*
X10418863Y-14684571D02*
X10428387Y-14703619D01*
X10428387Y-14703619D02*
X10437910Y-14741714D01*
X10437910Y-14741714D02*
X10437910Y-14789333D01*
X10437910Y-14789333D02*
X10428387Y-14827428D01*
X10428387Y-14827428D02*
X10418863Y-14846476D01*
X10418863Y-14846476D02*
X10409339Y-14856000D01*
X10409339Y-14856000D02*
X10390291Y-14865524D01*
X10390291Y-14865524D02*
X10371244Y-14865524D01*
X10371244Y-14865524D02*
X10352196Y-14856000D01*
X10352196Y-14856000D02*
X10342672Y-14846476D01*
X10342672Y-14846476D02*
X10333148Y-14827428D01*
X10333148Y-14827428D02*
X10323625Y-14789333D01*
X10323625Y-14789333D02*
X10323625Y-14741714D01*
X10323625Y-14741714D02*
X10333148Y-14703619D01*
X10333148Y-14703619D02*
X10342672Y-14684571D01*
X10342672Y-14684571D02*
X10352196Y-14675048D01*
X10352196Y-14675048D02*
X10371244Y-14665524D01*
X10504577Y-14665524D02*
X10628387Y-14665524D01*
X10628387Y-14665524D02*
X10561720Y-14741714D01*
X10561720Y-14741714D02*
X10590291Y-14741714D01*
X10590291Y-14741714D02*
X10609339Y-14751238D01*
X10609339Y-14751238D02*
X10618863Y-14760762D01*
X10618863Y-14760762D02*
X10628387Y-14779809D01*
X10628387Y-14779809D02*
X10628387Y-14827428D01*
X10628387Y-14827428D02*
X10618863Y-14846476D01*
X10618863Y-14846476D02*
X10609339Y-14856000D01*
X10609339Y-14856000D02*
X10590291Y-14865524D01*
X10590291Y-14865524D02*
X10533148Y-14865524D01*
X10533148Y-14865524D02*
X10514101Y-14856000D01*
X10514101Y-14856000D02*
X10504577Y-14846476D01*
X10723625Y-14865524D02*
X10761720Y-14865524D01*
X10761720Y-14865524D02*
X10780768Y-14856000D01*
X10780768Y-14856000D02*
X10790291Y-14846476D01*
X10790291Y-14846476D02*
X10809339Y-14817905D01*
X10809339Y-14817905D02*
X10818863Y-14779809D01*
X10818863Y-14779809D02*
X10818863Y-14703619D01*
X10818863Y-14703619D02*
X10809339Y-14684571D01*
X10809339Y-14684571D02*
X10799815Y-14675048D01*
X10799815Y-14675048D02*
X10780768Y-14665524D01*
X10780768Y-14665524D02*
X10742672Y-14665524D01*
X10742672Y-14665524D02*
X10723625Y-14675048D01*
X10723625Y-14675048D02*
X10714101Y-14684571D01*
X10714101Y-14684571D02*
X10704577Y-14703619D01*
X10704577Y-14703619D02*
X10704577Y-14751238D01*
X10704577Y-14751238D02*
X10714101Y-14770286D01*
X10714101Y-14770286D02*
X10723625Y-14779809D01*
X10723625Y-14779809D02*
X10742672Y-14789333D01*
X10742672Y-14789333D02*
X10780768Y-14789333D01*
X10780768Y-14789333D02*
X10799815Y-14779809D01*
X10799815Y-14779809D02*
X10809339Y-14770286D01*
X10809339Y-14770286D02*
X10818863Y-14751238D01*
X10990291Y-14732190D02*
X10990291Y-14865524D01*
X10942672Y-14656000D02*
X10895053Y-14798857D01*
X10895053Y-14798857D02*
X11018863Y-14798857D01*
X11085529Y-14665524D02*
X11085529Y-14703619D01*
X11161720Y-14665524D02*
X11161720Y-14703619D01*
X11456958Y-14941714D02*
X11447434Y-14932190D01*
X11447434Y-14932190D02*
X11428387Y-14903619D01*
X11428387Y-14903619D02*
X11418863Y-14884571D01*
X11418863Y-14884571D02*
X11409339Y-14856000D01*
X11409339Y-14856000D02*
X11399815Y-14808381D01*
X11399815Y-14808381D02*
X11399815Y-14770286D01*
X11399815Y-14770286D02*
X11409339Y-14722667D01*
X11409339Y-14722667D02*
X11418863Y-14694095D01*
X11418863Y-14694095D02*
X11428387Y-14675048D01*
X11428387Y-14675048D02*
X11447434Y-14646476D01*
X11447434Y-14646476D02*
X11456958Y-14636952D01*
X11618863Y-14665524D02*
X11580767Y-14665524D01*
X11580767Y-14665524D02*
X11561720Y-14675048D01*
X11561720Y-14675048D02*
X11552196Y-14684571D01*
X11552196Y-14684571D02*
X11533148Y-14713143D01*
X11533148Y-14713143D02*
X11523625Y-14751238D01*
X11523625Y-14751238D02*
X11523625Y-14827428D01*
X11523625Y-14827428D02*
X11533148Y-14846476D01*
X11533148Y-14846476D02*
X11542672Y-14856000D01*
X11542672Y-14856000D02*
X11561720Y-14865524D01*
X11561720Y-14865524D02*
X11599815Y-14865524D01*
X11599815Y-14865524D02*
X11618863Y-14856000D01*
X11618863Y-14856000D02*
X11628387Y-14846476D01*
X11628387Y-14846476D02*
X11637910Y-14827428D01*
X11637910Y-14827428D02*
X11637910Y-14779809D01*
X11637910Y-14779809D02*
X11628387Y-14760762D01*
X11628387Y-14760762D02*
X11618863Y-14751238D01*
X11618863Y-14751238D02*
X11599815Y-14741714D01*
X11599815Y-14741714D02*
X11561720Y-14741714D01*
X11561720Y-14741714D02*
X11542672Y-14751238D01*
X11542672Y-14751238D02*
X11533148Y-14760762D01*
X11533148Y-14760762D02*
X11523625Y-14779809D01*
X11809339Y-14732190D02*
X11809339Y-14865524D01*
X11761720Y-14656000D02*
X11714101Y-14798857D01*
X11714101Y-14798857D02*
X11837910Y-14798857D01*
X12066482Y-14865524D02*
X12066482Y-14665524D01*
X12152196Y-14865524D02*
X12152196Y-14760762D01*
X12152196Y-14760762D02*
X12142672Y-14741714D01*
X12142672Y-14741714D02*
X12123625Y-14732190D01*
X12123625Y-14732190D02*
X12095053Y-14732190D01*
X12095053Y-14732190D02*
X12076006Y-14741714D01*
X12076006Y-14741714D02*
X12066482Y-14751238D01*
X12276006Y-14865524D02*
X12256958Y-14856000D01*
X12256958Y-14856000D02*
X12247434Y-14846476D01*
X12247434Y-14846476D02*
X12237910Y-14827428D01*
X12237910Y-14827428D02*
X12237910Y-14770286D01*
X12237910Y-14770286D02*
X12247434Y-14751238D01*
X12247434Y-14751238D02*
X12256958Y-14741714D01*
X12256958Y-14741714D02*
X12276006Y-14732190D01*
X12276006Y-14732190D02*
X12304577Y-14732190D01*
X12304577Y-14732190D02*
X12323625Y-14741714D01*
X12323625Y-14741714D02*
X12333149Y-14751238D01*
X12333149Y-14751238D02*
X12342672Y-14770286D01*
X12342672Y-14770286D02*
X12342672Y-14827428D01*
X12342672Y-14827428D02*
X12333149Y-14846476D01*
X12333149Y-14846476D02*
X12323625Y-14856000D01*
X12323625Y-14856000D02*
X12304577Y-14865524D01*
X12304577Y-14865524D02*
X12276006Y-14865524D01*
X12456958Y-14865524D02*
X12437910Y-14856000D01*
X12437910Y-14856000D02*
X12428387Y-14836952D01*
X12428387Y-14836952D02*
X12428387Y-14665524D01*
X12609339Y-14856000D02*
X12590291Y-14865524D01*
X12590291Y-14865524D02*
X12552196Y-14865524D01*
X12552196Y-14865524D02*
X12533149Y-14856000D01*
X12533149Y-14856000D02*
X12523625Y-14836952D01*
X12523625Y-14836952D02*
X12523625Y-14760762D01*
X12523625Y-14760762D02*
X12533149Y-14741714D01*
X12533149Y-14741714D02*
X12552196Y-14732190D01*
X12552196Y-14732190D02*
X12590291Y-14732190D01*
X12590291Y-14732190D02*
X12609339Y-14741714D01*
X12609339Y-14741714D02*
X12618863Y-14760762D01*
X12618863Y-14760762D02*
X12618863Y-14779809D01*
X12618863Y-14779809D02*
X12523625Y-14798857D01*
X12695053Y-14856000D02*
X12714101Y-14865524D01*
X12714101Y-14865524D02*
X12752196Y-14865524D01*
X12752196Y-14865524D02*
X12771244Y-14856000D01*
X12771244Y-14856000D02*
X12780768Y-14836952D01*
X12780768Y-14836952D02*
X12780768Y-14827428D01*
X12780768Y-14827428D02*
X12771244Y-14808381D01*
X12771244Y-14808381D02*
X12752196Y-14798857D01*
X12752196Y-14798857D02*
X12723625Y-14798857D01*
X12723625Y-14798857D02*
X12704577Y-14789333D01*
X12704577Y-14789333D02*
X12695053Y-14770286D01*
X12695053Y-14770286D02*
X12695053Y-14760762D01*
X12695053Y-14760762D02*
X12704577Y-14741714D01*
X12704577Y-14741714D02*
X12723625Y-14732190D01*
X12723625Y-14732190D02*
X12752196Y-14732190D01*
X12752196Y-14732190D02*
X12771244Y-14741714D01*
X12847434Y-14941714D02*
X12856958Y-14932190D01*
X12856958Y-14932190D02*
X12876006Y-14903619D01*
X12876006Y-14903619D02*
X12885530Y-14884571D01*
X12885530Y-14884571D02*
X12895053Y-14856000D01*
X12895053Y-14856000D02*
X12904577Y-14808381D01*
X12904577Y-14808381D02*
X12904577Y-14770286D01*
X12904577Y-14770286D02*
X12895053Y-14722667D01*
X12895053Y-14722667D02*
X12885530Y-14694095D01*
X12885530Y-14694095D02*
X12876006Y-14675048D01*
X12876006Y-14675048D02*
X12856958Y-14646476D01*
X12856958Y-14646476D02*
X12847434Y-14636952D01*
D14*
X7879091Y-15075538D02*
X7879091Y-14998462D01*
X7802015Y-14998462D01*
X7802015Y-15075538D01*
X7879091Y-15075538D01*
D11*
X8247434Y-15129524D02*
X8133148Y-15129524D01*
X8190291Y-15129524D02*
X8190291Y-14929524D01*
X8190291Y-14929524D02*
X8171243Y-14958095D01*
X8171243Y-14958095D02*
X8152196Y-14977143D01*
X8152196Y-14977143D02*
X8133148Y-14986667D01*
X8333148Y-15110476D02*
X8342672Y-15120000D01*
X8342672Y-15120000D02*
X8333148Y-15129524D01*
X8333148Y-15129524D02*
X8323624Y-15120000D01*
X8323624Y-15120000D02*
X8333148Y-15110476D01*
X8333148Y-15110476D02*
X8333148Y-15129524D01*
X8466482Y-14929524D02*
X8485529Y-14929524D01*
X8485529Y-14929524D02*
X8504577Y-14939048D01*
X8504577Y-14939048D02*
X8514101Y-14948571D01*
X8514101Y-14948571D02*
X8523624Y-14967619D01*
X8523624Y-14967619D02*
X8533148Y-15005714D01*
X8533148Y-15005714D02*
X8533148Y-15053333D01*
X8533148Y-15053333D02*
X8523624Y-15091428D01*
X8523624Y-15091428D02*
X8514101Y-15110476D01*
X8514101Y-15110476D02*
X8504577Y-15120000D01*
X8504577Y-15120000D02*
X8485529Y-15129524D01*
X8485529Y-15129524D02*
X8466482Y-15129524D01*
X8466482Y-15129524D02*
X8447434Y-15120000D01*
X8447434Y-15120000D02*
X8437910Y-15110476D01*
X8437910Y-15110476D02*
X8428386Y-15091428D01*
X8428386Y-15091428D02*
X8418863Y-15053333D01*
X8418863Y-15053333D02*
X8418863Y-15005714D01*
X8418863Y-15005714D02*
X8428386Y-14967619D01*
X8428386Y-14967619D02*
X8437910Y-14948571D01*
X8437910Y-14948571D02*
X8447434Y-14939048D01*
X8447434Y-14939048D02*
X8466482Y-14929524D01*
X8628386Y-15129524D02*
X8666482Y-15129524D01*
X8666482Y-15129524D02*
X8685529Y-15120000D01*
X8685529Y-15120000D02*
X8695053Y-15110476D01*
X8695053Y-15110476D02*
X8714101Y-15081905D01*
X8714101Y-15081905D02*
X8723624Y-15043809D01*
X8723624Y-15043809D02*
X8723624Y-14967619D01*
X8723624Y-14967619D02*
X8714101Y-14948571D01*
X8714101Y-14948571D02*
X8704577Y-14939048D01*
X8704577Y-14939048D02*
X8685529Y-14929524D01*
X8685529Y-14929524D02*
X8647434Y-14929524D01*
X8647434Y-14929524D02*
X8628386Y-14939048D01*
X8628386Y-14939048D02*
X8618863Y-14948571D01*
X8618863Y-14948571D02*
X8609339Y-14967619D01*
X8609339Y-14967619D02*
X8609339Y-15015238D01*
X8609339Y-15015238D02*
X8618863Y-15034286D01*
X8618863Y-15034286D02*
X8628386Y-15043809D01*
X8628386Y-15043809D02*
X8647434Y-15053333D01*
X8647434Y-15053333D02*
X8685529Y-15053333D01*
X8685529Y-15053333D02*
X8704577Y-15043809D01*
X8704577Y-15043809D02*
X8714101Y-15034286D01*
X8714101Y-15034286D02*
X8723624Y-15015238D01*
X8847434Y-14929524D02*
X8866482Y-14929524D01*
X8866482Y-14929524D02*
X8885529Y-14939048D01*
X8885529Y-14939048D02*
X8895053Y-14948571D01*
X8895053Y-14948571D02*
X8904577Y-14967619D01*
X8904577Y-14967619D02*
X8914101Y-15005714D01*
X8914101Y-15005714D02*
X8914101Y-15053333D01*
X8914101Y-15053333D02*
X8904577Y-15091428D01*
X8904577Y-15091428D02*
X8895053Y-15110476D01*
X8895053Y-15110476D02*
X8885529Y-15120000D01*
X8885529Y-15120000D02*
X8866482Y-15129524D01*
X8866482Y-15129524D02*
X8847434Y-15129524D01*
X8847434Y-15129524D02*
X8828386Y-15120000D01*
X8828386Y-15120000D02*
X8818863Y-15110476D01*
X8818863Y-15110476D02*
X8809339Y-15091428D01*
X8809339Y-15091428D02*
X8799815Y-15053333D01*
X8799815Y-15053333D02*
X8799815Y-15005714D01*
X8799815Y-15005714D02*
X8809339Y-14967619D01*
X8809339Y-14967619D02*
X8818863Y-14948571D01*
X8818863Y-14948571D02*
X8828386Y-14939048D01*
X8828386Y-14939048D02*
X8847434Y-14929524D01*
X8999815Y-15129524D02*
X8999815Y-14996190D01*
X8999815Y-15015238D02*
X9009339Y-15005714D01*
X9009339Y-15005714D02*
X9028386Y-14996190D01*
X9028386Y-14996190D02*
X9056958Y-14996190D01*
X9056958Y-14996190D02*
X9076005Y-15005714D01*
X9076005Y-15005714D02*
X9085529Y-15024762D01*
X9085529Y-15024762D02*
X9085529Y-15129524D01*
X9085529Y-15024762D02*
X9095053Y-15005714D01*
X9095053Y-15005714D02*
X9114101Y-14996190D01*
X9114101Y-14996190D02*
X9142672Y-14996190D01*
X9142672Y-14996190D02*
X9161720Y-15005714D01*
X9161720Y-15005714D02*
X9171244Y-15024762D01*
X9171244Y-15024762D02*
X9171244Y-15129524D01*
X9266482Y-15129524D02*
X9266482Y-14996190D01*
X9266482Y-15015238D02*
X9276005Y-15005714D01*
X9276005Y-15005714D02*
X9295053Y-14996190D01*
X9295053Y-14996190D02*
X9323625Y-14996190D01*
X9323625Y-14996190D02*
X9342672Y-15005714D01*
X9342672Y-15005714D02*
X9352196Y-15024762D01*
X9352196Y-15024762D02*
X9352196Y-15129524D01*
X9352196Y-15024762D02*
X9361720Y-15005714D01*
X9361720Y-15005714D02*
X9380767Y-14996190D01*
X9380767Y-14996190D02*
X9409339Y-14996190D01*
X9409339Y-14996190D02*
X9428386Y-15005714D01*
X9428386Y-15005714D02*
X9437910Y-15024762D01*
X9437910Y-15024762D02*
X9437910Y-15129524D01*
X9828386Y-14920000D02*
X9656958Y-15177143D01*
X10085529Y-14929524D02*
X10104577Y-14929524D01*
X10104577Y-14929524D02*
X10123625Y-14939048D01*
X10123625Y-14939048D02*
X10133148Y-14948571D01*
X10133148Y-14948571D02*
X10142672Y-14967619D01*
X10142672Y-14967619D02*
X10152196Y-15005714D01*
X10152196Y-15005714D02*
X10152196Y-15053333D01*
X10152196Y-15053333D02*
X10142672Y-15091428D01*
X10142672Y-15091428D02*
X10133148Y-15110476D01*
X10133148Y-15110476D02*
X10123625Y-15120000D01*
X10123625Y-15120000D02*
X10104577Y-15129524D01*
X10104577Y-15129524D02*
X10085529Y-15129524D01*
X10085529Y-15129524D02*
X10066482Y-15120000D01*
X10066482Y-15120000D02*
X10056958Y-15110476D01*
X10056958Y-15110476D02*
X10047434Y-15091428D01*
X10047434Y-15091428D02*
X10037910Y-15053333D01*
X10037910Y-15053333D02*
X10037910Y-15005714D01*
X10037910Y-15005714D02*
X10047434Y-14967619D01*
X10047434Y-14967619D02*
X10056958Y-14948571D01*
X10056958Y-14948571D02*
X10066482Y-14939048D01*
X10066482Y-14939048D02*
X10085529Y-14929524D01*
X10237910Y-15110476D02*
X10247434Y-15120000D01*
X10247434Y-15120000D02*
X10237910Y-15129524D01*
X10237910Y-15129524D02*
X10228387Y-15120000D01*
X10228387Y-15120000D02*
X10237910Y-15110476D01*
X10237910Y-15110476D02*
X10237910Y-15129524D01*
X10371244Y-14929524D02*
X10390291Y-14929524D01*
X10390291Y-14929524D02*
X10409339Y-14939048D01*
X10409339Y-14939048D02*
X10418863Y-14948571D01*
X10418863Y-14948571D02*
X10428387Y-14967619D01*
X10428387Y-14967619D02*
X10437910Y-15005714D01*
X10437910Y-15005714D02*
X10437910Y-15053333D01*
X10437910Y-15053333D02*
X10428387Y-15091428D01*
X10428387Y-15091428D02*
X10418863Y-15110476D01*
X10418863Y-15110476D02*
X10409339Y-15120000D01*
X10409339Y-15120000D02*
X10390291Y-15129524D01*
X10390291Y-15129524D02*
X10371244Y-15129524D01*
X10371244Y-15129524D02*
X10352196Y-15120000D01*
X10352196Y-15120000D02*
X10342672Y-15110476D01*
X10342672Y-15110476D02*
X10333148Y-15091428D01*
X10333148Y-15091428D02*
X10323625Y-15053333D01*
X10323625Y-15053333D02*
X10323625Y-15005714D01*
X10323625Y-15005714D02*
X10333148Y-14967619D01*
X10333148Y-14967619D02*
X10342672Y-14948571D01*
X10342672Y-14948571D02*
X10352196Y-14939048D01*
X10352196Y-14939048D02*
X10371244Y-14929524D01*
X10609339Y-14996190D02*
X10609339Y-15129524D01*
X10561720Y-14920000D02*
X10514101Y-15062857D01*
X10514101Y-15062857D02*
X10637910Y-15062857D01*
X10704577Y-14948571D02*
X10714101Y-14939048D01*
X10714101Y-14939048D02*
X10733148Y-14929524D01*
X10733148Y-14929524D02*
X10780768Y-14929524D01*
X10780768Y-14929524D02*
X10799815Y-14939048D01*
X10799815Y-14939048D02*
X10809339Y-14948571D01*
X10809339Y-14948571D02*
X10818863Y-14967619D01*
X10818863Y-14967619D02*
X10818863Y-14986667D01*
X10818863Y-14986667D02*
X10809339Y-15015238D01*
X10809339Y-15015238D02*
X10695053Y-15129524D01*
X10695053Y-15129524D02*
X10818863Y-15129524D01*
X10914101Y-15129524D02*
X10952196Y-15129524D01*
X10952196Y-15129524D02*
X10971244Y-15120000D01*
X10971244Y-15120000D02*
X10980768Y-15110476D01*
X10980768Y-15110476D02*
X10999815Y-15081905D01*
X10999815Y-15081905D02*
X11009339Y-15043809D01*
X11009339Y-15043809D02*
X11009339Y-14967619D01*
X11009339Y-14967619D02*
X10999815Y-14948571D01*
X10999815Y-14948571D02*
X10990291Y-14939048D01*
X10990291Y-14939048D02*
X10971244Y-14929524D01*
X10971244Y-14929524D02*
X10933148Y-14929524D01*
X10933148Y-14929524D02*
X10914101Y-14939048D01*
X10914101Y-14939048D02*
X10904577Y-14948571D01*
X10904577Y-14948571D02*
X10895053Y-14967619D01*
X10895053Y-14967619D02*
X10895053Y-15015238D01*
X10895053Y-15015238D02*
X10904577Y-15034286D01*
X10904577Y-15034286D02*
X10914101Y-15043809D01*
X10914101Y-15043809D02*
X10933148Y-15053333D01*
X10933148Y-15053333D02*
X10971244Y-15053333D01*
X10971244Y-15053333D02*
X10990291Y-15043809D01*
X10990291Y-15043809D02*
X10999815Y-15034286D01*
X10999815Y-15034286D02*
X11009339Y-15015238D01*
X11085529Y-14929524D02*
X11085529Y-14967619D01*
X11161720Y-14929524D02*
X11161720Y-14967619D01*
X11456958Y-15205714D02*
X11447434Y-15196190D01*
X11447434Y-15196190D02*
X11428387Y-15167619D01*
X11428387Y-15167619D02*
X11418863Y-15148571D01*
X11418863Y-15148571D02*
X11409339Y-15120000D01*
X11409339Y-15120000D02*
X11399815Y-15072381D01*
X11399815Y-15072381D02*
X11399815Y-15034286D01*
X11399815Y-15034286D02*
X11409339Y-14986667D01*
X11409339Y-14986667D02*
X11418863Y-14958095D01*
X11418863Y-14958095D02*
X11428387Y-14939048D01*
X11428387Y-14939048D02*
X11447434Y-14910476D01*
X11447434Y-14910476D02*
X11456958Y-14900952D01*
X11523625Y-14948571D02*
X11533148Y-14939048D01*
X11533148Y-14939048D02*
X11552196Y-14929524D01*
X11552196Y-14929524D02*
X11599815Y-14929524D01*
X11599815Y-14929524D02*
X11618863Y-14939048D01*
X11618863Y-14939048D02*
X11628387Y-14948571D01*
X11628387Y-14948571D02*
X11637910Y-14967619D01*
X11637910Y-14967619D02*
X11637910Y-14986667D01*
X11637910Y-14986667D02*
X11628387Y-15015238D01*
X11628387Y-15015238D02*
X11514101Y-15129524D01*
X11514101Y-15129524D02*
X11637910Y-15129524D01*
X11876006Y-15129524D02*
X11876006Y-14929524D01*
X11961720Y-15129524D02*
X11961720Y-15024762D01*
X11961720Y-15024762D02*
X11952196Y-15005714D01*
X11952196Y-15005714D02*
X11933149Y-14996190D01*
X11933149Y-14996190D02*
X11904577Y-14996190D01*
X11904577Y-14996190D02*
X11885529Y-15005714D01*
X11885529Y-15005714D02*
X11876006Y-15015238D01*
X12085529Y-15129524D02*
X12066482Y-15120000D01*
X12066482Y-15120000D02*
X12056958Y-15110476D01*
X12056958Y-15110476D02*
X12047434Y-15091428D01*
X12047434Y-15091428D02*
X12047434Y-15034286D01*
X12047434Y-15034286D02*
X12056958Y-15015238D01*
X12056958Y-15015238D02*
X12066482Y-15005714D01*
X12066482Y-15005714D02*
X12085529Y-14996190D01*
X12085529Y-14996190D02*
X12114101Y-14996190D01*
X12114101Y-14996190D02*
X12133149Y-15005714D01*
X12133149Y-15005714D02*
X12142672Y-15015238D01*
X12142672Y-15015238D02*
X12152196Y-15034286D01*
X12152196Y-15034286D02*
X12152196Y-15091428D01*
X12152196Y-15091428D02*
X12142672Y-15110476D01*
X12142672Y-15110476D02*
X12133149Y-15120000D01*
X12133149Y-15120000D02*
X12114101Y-15129524D01*
X12114101Y-15129524D02*
X12085529Y-15129524D01*
X12266482Y-15129524D02*
X12247434Y-15120000D01*
X12247434Y-15120000D02*
X12237910Y-15100952D01*
X12237910Y-15100952D02*
X12237910Y-14929524D01*
X12418863Y-15120000D02*
X12399815Y-15129524D01*
X12399815Y-15129524D02*
X12361720Y-15129524D01*
X12361720Y-15129524D02*
X12342672Y-15120000D01*
X12342672Y-15120000D02*
X12333149Y-15100952D01*
X12333149Y-15100952D02*
X12333149Y-15024762D01*
X12333149Y-15024762D02*
X12342672Y-15005714D01*
X12342672Y-15005714D02*
X12361720Y-14996190D01*
X12361720Y-14996190D02*
X12399815Y-14996190D01*
X12399815Y-14996190D02*
X12418863Y-15005714D01*
X12418863Y-15005714D02*
X12428387Y-15024762D01*
X12428387Y-15024762D02*
X12428387Y-15043809D01*
X12428387Y-15043809D02*
X12333149Y-15062857D01*
X12504577Y-15120000D02*
X12523625Y-15129524D01*
X12523625Y-15129524D02*
X12561720Y-15129524D01*
X12561720Y-15129524D02*
X12580768Y-15120000D01*
X12580768Y-15120000D02*
X12590291Y-15100952D01*
X12590291Y-15100952D02*
X12590291Y-15091428D01*
X12590291Y-15091428D02*
X12580768Y-15072381D01*
X12580768Y-15072381D02*
X12561720Y-15062857D01*
X12561720Y-15062857D02*
X12533149Y-15062857D01*
X12533149Y-15062857D02*
X12514101Y-15053333D01*
X12514101Y-15053333D02*
X12504577Y-15034286D01*
X12504577Y-15034286D02*
X12504577Y-15024762D01*
X12504577Y-15024762D02*
X12514101Y-15005714D01*
X12514101Y-15005714D02*
X12533149Y-14996190D01*
X12533149Y-14996190D02*
X12561720Y-14996190D01*
X12561720Y-14996190D02*
X12580768Y-15005714D01*
X12656958Y-15205714D02*
X12666482Y-15196190D01*
X12666482Y-15196190D02*
X12685530Y-15167619D01*
X12685530Y-15167619D02*
X12695053Y-15148571D01*
X12695053Y-15148571D02*
X12704577Y-15120000D01*
X12704577Y-15120000D02*
X12714101Y-15072381D01*
X12714101Y-15072381D02*
X12714101Y-15034286D01*
X12714101Y-15034286D02*
X12704577Y-14986667D01*
X12704577Y-14986667D02*
X12695053Y-14958095D01*
X12695053Y-14958095D02*
X12685530Y-14939048D01*
X12685530Y-14939048D02*
X12666482Y-14910476D01*
X12666482Y-14910476D02*
X12656958Y-14900952D01*
X7795053Y-15401000D02*
X7895053Y-15301000D01*
X7795053Y-15201000D01*
X7695053Y-15301000D01*
X7795053Y-15401000D01*
X8133148Y-15212571D02*
X8142672Y-15203048D01*
X8142672Y-15203048D02*
X8161720Y-15193524D01*
X8161720Y-15193524D02*
X8209339Y-15193524D01*
X8209339Y-15193524D02*
X8228386Y-15203048D01*
X8228386Y-15203048D02*
X8237910Y-15212571D01*
X8237910Y-15212571D02*
X8247434Y-15231619D01*
X8247434Y-15231619D02*
X8247434Y-15250667D01*
X8247434Y-15250667D02*
X8237910Y-15279238D01*
X8237910Y-15279238D02*
X8123624Y-15393524D01*
X8123624Y-15393524D02*
X8247434Y-15393524D01*
X8333148Y-15374476D02*
X8342672Y-15384000D01*
X8342672Y-15384000D02*
X8333148Y-15393524D01*
X8333148Y-15393524D02*
X8323624Y-15384000D01*
X8323624Y-15384000D02*
X8333148Y-15374476D01*
X8333148Y-15374476D02*
X8333148Y-15393524D01*
X8409339Y-15193524D02*
X8542672Y-15193524D01*
X8542672Y-15193524D02*
X8456958Y-15393524D01*
X8656958Y-15193524D02*
X8676005Y-15193524D01*
X8676005Y-15193524D02*
X8695053Y-15203048D01*
X8695053Y-15203048D02*
X8704577Y-15212571D01*
X8704577Y-15212571D02*
X8714101Y-15231619D01*
X8714101Y-15231619D02*
X8723624Y-15269714D01*
X8723624Y-15269714D02*
X8723624Y-15317333D01*
X8723624Y-15317333D02*
X8714101Y-15355428D01*
X8714101Y-15355428D02*
X8704577Y-15374476D01*
X8704577Y-15374476D02*
X8695053Y-15384000D01*
X8695053Y-15384000D02*
X8676005Y-15393524D01*
X8676005Y-15393524D02*
X8656958Y-15393524D01*
X8656958Y-15393524D02*
X8637910Y-15384000D01*
X8637910Y-15384000D02*
X8628386Y-15374476D01*
X8628386Y-15374476D02*
X8618863Y-15355428D01*
X8618863Y-15355428D02*
X8609339Y-15317333D01*
X8609339Y-15317333D02*
X8609339Y-15269714D01*
X8609339Y-15269714D02*
X8618863Y-15231619D01*
X8618863Y-15231619D02*
X8628386Y-15212571D01*
X8628386Y-15212571D02*
X8637910Y-15203048D01*
X8637910Y-15203048D02*
X8656958Y-15193524D01*
X8847434Y-15193524D02*
X8866482Y-15193524D01*
X8866482Y-15193524D02*
X8885529Y-15203048D01*
X8885529Y-15203048D02*
X8895053Y-15212571D01*
X8895053Y-15212571D02*
X8904577Y-15231619D01*
X8904577Y-15231619D02*
X8914101Y-15269714D01*
X8914101Y-15269714D02*
X8914101Y-15317333D01*
X8914101Y-15317333D02*
X8904577Y-15355428D01*
X8904577Y-15355428D02*
X8895053Y-15374476D01*
X8895053Y-15374476D02*
X8885529Y-15384000D01*
X8885529Y-15384000D02*
X8866482Y-15393524D01*
X8866482Y-15393524D02*
X8847434Y-15393524D01*
X8847434Y-15393524D02*
X8828386Y-15384000D01*
X8828386Y-15384000D02*
X8818863Y-15374476D01*
X8818863Y-15374476D02*
X8809339Y-15355428D01*
X8809339Y-15355428D02*
X8799815Y-15317333D01*
X8799815Y-15317333D02*
X8799815Y-15269714D01*
X8799815Y-15269714D02*
X8809339Y-15231619D01*
X8809339Y-15231619D02*
X8818863Y-15212571D01*
X8818863Y-15212571D02*
X8828386Y-15203048D01*
X8828386Y-15203048D02*
X8847434Y-15193524D01*
X8999815Y-15393524D02*
X8999815Y-15260190D01*
X8999815Y-15279238D02*
X9009339Y-15269714D01*
X9009339Y-15269714D02*
X9028386Y-15260190D01*
X9028386Y-15260190D02*
X9056958Y-15260190D01*
X9056958Y-15260190D02*
X9076005Y-15269714D01*
X9076005Y-15269714D02*
X9085529Y-15288762D01*
X9085529Y-15288762D02*
X9085529Y-15393524D01*
X9085529Y-15288762D02*
X9095053Y-15269714D01*
X9095053Y-15269714D02*
X9114101Y-15260190D01*
X9114101Y-15260190D02*
X9142672Y-15260190D01*
X9142672Y-15260190D02*
X9161720Y-15269714D01*
X9161720Y-15269714D02*
X9171244Y-15288762D01*
X9171244Y-15288762D02*
X9171244Y-15393524D01*
X9266482Y-15393524D02*
X9266482Y-15260190D01*
X9266482Y-15279238D02*
X9276005Y-15269714D01*
X9276005Y-15269714D02*
X9295053Y-15260190D01*
X9295053Y-15260190D02*
X9323625Y-15260190D01*
X9323625Y-15260190D02*
X9342672Y-15269714D01*
X9342672Y-15269714D02*
X9352196Y-15288762D01*
X9352196Y-15288762D02*
X9352196Y-15393524D01*
X9352196Y-15288762D02*
X9361720Y-15269714D01*
X9361720Y-15269714D02*
X9380767Y-15260190D01*
X9380767Y-15260190D02*
X9409339Y-15260190D01*
X9409339Y-15260190D02*
X9428386Y-15269714D01*
X9428386Y-15269714D02*
X9437910Y-15288762D01*
X9437910Y-15288762D02*
X9437910Y-15393524D01*
X9828386Y-15184000D02*
X9656958Y-15441143D01*
X10085529Y-15193524D02*
X10104577Y-15193524D01*
X10104577Y-15193524D02*
X10123625Y-15203048D01*
X10123625Y-15203048D02*
X10133148Y-15212571D01*
X10133148Y-15212571D02*
X10142672Y-15231619D01*
X10142672Y-15231619D02*
X10152196Y-15269714D01*
X10152196Y-15269714D02*
X10152196Y-15317333D01*
X10152196Y-15317333D02*
X10142672Y-15355428D01*
X10142672Y-15355428D02*
X10133148Y-15374476D01*
X10133148Y-15374476D02*
X10123625Y-15384000D01*
X10123625Y-15384000D02*
X10104577Y-15393524D01*
X10104577Y-15393524D02*
X10085529Y-15393524D01*
X10085529Y-15393524D02*
X10066482Y-15384000D01*
X10066482Y-15384000D02*
X10056958Y-15374476D01*
X10056958Y-15374476D02*
X10047434Y-15355428D01*
X10047434Y-15355428D02*
X10037910Y-15317333D01*
X10037910Y-15317333D02*
X10037910Y-15269714D01*
X10037910Y-15269714D02*
X10047434Y-15231619D01*
X10047434Y-15231619D02*
X10056958Y-15212571D01*
X10056958Y-15212571D02*
X10066482Y-15203048D01*
X10066482Y-15203048D02*
X10085529Y-15193524D01*
X10237910Y-15374476D02*
X10247434Y-15384000D01*
X10247434Y-15384000D02*
X10237910Y-15393524D01*
X10237910Y-15393524D02*
X10228387Y-15384000D01*
X10228387Y-15384000D02*
X10237910Y-15374476D01*
X10237910Y-15374476D02*
X10237910Y-15393524D01*
X10437910Y-15393524D02*
X10323625Y-15393524D01*
X10380767Y-15393524D02*
X10380767Y-15193524D01*
X10380767Y-15193524D02*
X10361720Y-15222095D01*
X10361720Y-15222095D02*
X10342672Y-15241143D01*
X10342672Y-15241143D02*
X10323625Y-15250667D01*
X10561720Y-15193524D02*
X10580768Y-15193524D01*
X10580768Y-15193524D02*
X10599815Y-15203048D01*
X10599815Y-15203048D02*
X10609339Y-15212571D01*
X10609339Y-15212571D02*
X10618863Y-15231619D01*
X10618863Y-15231619D02*
X10628387Y-15269714D01*
X10628387Y-15269714D02*
X10628387Y-15317333D01*
X10628387Y-15317333D02*
X10618863Y-15355428D01*
X10618863Y-15355428D02*
X10609339Y-15374476D01*
X10609339Y-15374476D02*
X10599815Y-15384000D01*
X10599815Y-15384000D02*
X10580768Y-15393524D01*
X10580768Y-15393524D02*
X10561720Y-15393524D01*
X10561720Y-15393524D02*
X10542672Y-15384000D01*
X10542672Y-15384000D02*
X10533148Y-15374476D01*
X10533148Y-15374476D02*
X10523625Y-15355428D01*
X10523625Y-15355428D02*
X10514101Y-15317333D01*
X10514101Y-15317333D02*
X10514101Y-15269714D01*
X10514101Y-15269714D02*
X10523625Y-15231619D01*
X10523625Y-15231619D02*
X10533148Y-15212571D01*
X10533148Y-15212571D02*
X10542672Y-15203048D01*
X10542672Y-15203048D02*
X10561720Y-15193524D01*
X10799815Y-15193524D02*
X10761720Y-15193524D01*
X10761720Y-15193524D02*
X10742672Y-15203048D01*
X10742672Y-15203048D02*
X10733148Y-15212571D01*
X10733148Y-15212571D02*
X10714101Y-15241143D01*
X10714101Y-15241143D02*
X10704577Y-15279238D01*
X10704577Y-15279238D02*
X10704577Y-15355428D01*
X10704577Y-15355428D02*
X10714101Y-15374476D01*
X10714101Y-15374476D02*
X10723625Y-15384000D01*
X10723625Y-15384000D02*
X10742672Y-15393524D01*
X10742672Y-15393524D02*
X10780768Y-15393524D01*
X10780768Y-15393524D02*
X10799815Y-15384000D01*
X10799815Y-15384000D02*
X10809339Y-15374476D01*
X10809339Y-15374476D02*
X10818863Y-15355428D01*
X10818863Y-15355428D02*
X10818863Y-15307809D01*
X10818863Y-15307809D02*
X10809339Y-15288762D01*
X10809339Y-15288762D02*
X10799815Y-15279238D01*
X10799815Y-15279238D02*
X10780768Y-15269714D01*
X10780768Y-15269714D02*
X10742672Y-15269714D01*
X10742672Y-15269714D02*
X10723625Y-15279238D01*
X10723625Y-15279238D02*
X10714101Y-15288762D01*
X10714101Y-15288762D02*
X10704577Y-15307809D01*
X10885529Y-15193524D02*
X11009339Y-15193524D01*
X11009339Y-15193524D02*
X10942672Y-15269714D01*
X10942672Y-15269714D02*
X10971244Y-15269714D01*
X10971244Y-15269714D02*
X10990291Y-15279238D01*
X10990291Y-15279238D02*
X10999815Y-15288762D01*
X10999815Y-15288762D02*
X11009339Y-15307809D01*
X11009339Y-15307809D02*
X11009339Y-15355428D01*
X11009339Y-15355428D02*
X10999815Y-15374476D01*
X10999815Y-15374476D02*
X10990291Y-15384000D01*
X10990291Y-15384000D02*
X10971244Y-15393524D01*
X10971244Y-15393524D02*
X10914101Y-15393524D01*
X10914101Y-15393524D02*
X10895053Y-15384000D01*
X10895053Y-15384000D02*
X10885529Y-15374476D01*
X11085529Y-15193524D02*
X11085529Y-15231619D01*
X11161720Y-15193524D02*
X11161720Y-15231619D01*
X11456958Y-15469714D02*
X11447434Y-15460190D01*
X11447434Y-15460190D02*
X11428387Y-15431619D01*
X11428387Y-15431619D02*
X11418863Y-15412571D01*
X11418863Y-15412571D02*
X11409339Y-15384000D01*
X11409339Y-15384000D02*
X11399815Y-15336381D01*
X11399815Y-15336381D02*
X11399815Y-15298286D01*
X11399815Y-15298286D02*
X11409339Y-15250667D01*
X11409339Y-15250667D02*
X11418863Y-15222095D01*
X11418863Y-15222095D02*
X11428387Y-15203048D01*
X11428387Y-15203048D02*
X11447434Y-15174476D01*
X11447434Y-15174476D02*
X11456958Y-15164952D01*
X11523625Y-15212571D02*
X11533148Y-15203048D01*
X11533148Y-15203048D02*
X11552196Y-15193524D01*
X11552196Y-15193524D02*
X11599815Y-15193524D01*
X11599815Y-15193524D02*
X11618863Y-15203048D01*
X11618863Y-15203048D02*
X11628387Y-15212571D01*
X11628387Y-15212571D02*
X11637910Y-15231619D01*
X11637910Y-15231619D02*
X11637910Y-15250667D01*
X11637910Y-15250667D02*
X11628387Y-15279238D01*
X11628387Y-15279238D02*
X11514101Y-15393524D01*
X11514101Y-15393524D02*
X11637910Y-15393524D01*
X11876006Y-15393524D02*
X11876006Y-15193524D01*
X11961720Y-15393524D02*
X11961720Y-15288762D01*
X11961720Y-15288762D02*
X11952196Y-15269714D01*
X11952196Y-15269714D02*
X11933149Y-15260190D01*
X11933149Y-15260190D02*
X11904577Y-15260190D01*
X11904577Y-15260190D02*
X11885529Y-15269714D01*
X11885529Y-15269714D02*
X11876006Y-15279238D01*
X12085529Y-15393524D02*
X12066482Y-15384000D01*
X12066482Y-15384000D02*
X12056958Y-15374476D01*
X12056958Y-15374476D02*
X12047434Y-15355428D01*
X12047434Y-15355428D02*
X12047434Y-15298286D01*
X12047434Y-15298286D02*
X12056958Y-15279238D01*
X12056958Y-15279238D02*
X12066482Y-15269714D01*
X12066482Y-15269714D02*
X12085529Y-15260190D01*
X12085529Y-15260190D02*
X12114101Y-15260190D01*
X12114101Y-15260190D02*
X12133149Y-15269714D01*
X12133149Y-15269714D02*
X12142672Y-15279238D01*
X12142672Y-15279238D02*
X12152196Y-15298286D01*
X12152196Y-15298286D02*
X12152196Y-15355428D01*
X12152196Y-15355428D02*
X12142672Y-15374476D01*
X12142672Y-15374476D02*
X12133149Y-15384000D01*
X12133149Y-15384000D02*
X12114101Y-15393524D01*
X12114101Y-15393524D02*
X12085529Y-15393524D01*
X12266482Y-15393524D02*
X12247434Y-15384000D01*
X12247434Y-15384000D02*
X12237910Y-15364952D01*
X12237910Y-15364952D02*
X12237910Y-15193524D01*
X12418863Y-15384000D02*
X12399815Y-15393524D01*
X12399815Y-15393524D02*
X12361720Y-15393524D01*
X12361720Y-15393524D02*
X12342672Y-15384000D01*
X12342672Y-15384000D02*
X12333149Y-15364952D01*
X12333149Y-15364952D02*
X12333149Y-15288762D01*
X12333149Y-15288762D02*
X12342672Y-15269714D01*
X12342672Y-15269714D02*
X12361720Y-15260190D01*
X12361720Y-15260190D02*
X12399815Y-15260190D01*
X12399815Y-15260190D02*
X12418863Y-15269714D01*
X12418863Y-15269714D02*
X12428387Y-15288762D01*
X12428387Y-15288762D02*
X12428387Y-15307809D01*
X12428387Y-15307809D02*
X12333149Y-15326857D01*
X12504577Y-15384000D02*
X12523625Y-15393524D01*
X12523625Y-15393524D02*
X12561720Y-15393524D01*
X12561720Y-15393524D02*
X12580768Y-15384000D01*
X12580768Y-15384000D02*
X12590291Y-15364952D01*
X12590291Y-15364952D02*
X12590291Y-15355428D01*
X12590291Y-15355428D02*
X12580768Y-15336381D01*
X12580768Y-15336381D02*
X12561720Y-15326857D01*
X12561720Y-15326857D02*
X12533149Y-15326857D01*
X12533149Y-15326857D02*
X12514101Y-15317333D01*
X12514101Y-15317333D02*
X12504577Y-15298286D01*
X12504577Y-15298286D02*
X12504577Y-15288762D01*
X12504577Y-15288762D02*
X12514101Y-15269714D01*
X12514101Y-15269714D02*
X12533149Y-15260190D01*
X12533149Y-15260190D02*
X12561720Y-15260190D01*
X12561720Y-15260190D02*
X12580768Y-15269714D01*
X12656958Y-15469714D02*
X12666482Y-15460190D01*
X12666482Y-15460190D02*
X12685530Y-15431619D01*
X12685530Y-15431619D02*
X12695053Y-15412571D01*
X12695053Y-15412571D02*
X12704577Y-15384000D01*
X12704577Y-15384000D02*
X12714101Y-15336381D01*
X12714101Y-15336381D02*
X12714101Y-15298286D01*
X12714101Y-15298286D02*
X12704577Y-15250667D01*
X12704577Y-15250667D02*
X12695053Y-15222095D01*
X12695053Y-15222095D02*
X12685530Y-15203048D01*
X12685530Y-15203048D02*
X12666482Y-15174476D01*
X12666482Y-15174476D02*
X12656958Y-15164952D01*
M02*
