%TF.GenerationSoftware,KiCad,Pcbnew,7.0.2-0*%
%TF.CreationDate,2024-01-24T17:00:23-05:00*%
%TF.ProjectId,Pi_HAT_V4_Simple,50695f48-4154-45f5-9634-5f53696d706c,rev?*%
%TF.SameCoordinates,Original*%
%TF.FileFunction,Soldermask,Top*%
%TF.FilePolarity,Negative*%
%FSLAX46Y46*%
G04 Gerber Fmt 4.6, Leading zero omitted, Abs format (unit mm)*
G04 Created by KiCad (PCBNEW 7.0.2-0) date 2024-01-24 17:00:23*
%MOMM*%
%LPD*%
G01*
G04 APERTURE LIST*
%ADD10R,1.700000X1.700000*%
%ADD11O,1.700000X1.700000*%
%ADD12C,2.500000*%
%ADD13R,3.716000X3.716000*%
%ADD14C,3.716000*%
%ADD15O,1.200000X2.400000*%
%ADD16C,1.635000*%
%ADD17R,2.000000X2.000000*%
G04 APERTURE END LIST*
D10*
%TO.C,J3*%
X137475000Y-70525000D03*
D11*
X137475000Y-67985000D03*
X140015000Y-70525000D03*
X140015000Y-67985000D03*
X142555000Y-70525000D03*
X142555000Y-67985000D03*
%TD*%
D12*
%TO.C,H1*%
X152500000Y-74500000D03*
%TD*%
%TO.C,H2*%
X102500000Y-74500000D03*
%TD*%
%TO.C,H3*%
X102500000Y-132500000D03*
%TD*%
D10*
%TO.C,J1*%
X101386000Y-86563200D03*
D11*
X101386000Y-89103200D03*
X101386000Y-91643200D03*
X101386000Y-94183200D03*
X101386000Y-96723200D03*
X101386000Y-99263200D03*
X101386000Y-101803200D03*
X101386000Y-104343200D03*
X101386000Y-106883200D03*
X101386000Y-109423200D03*
%TD*%
D12*
%TO.C,H4*%
X152500000Y-132500000D03*
%TD*%
D10*
%TO.C,J2*%
X151000000Y-79400000D03*
D11*
X153540000Y-79400000D03*
X151000000Y-81940000D03*
X153540000Y-81940000D03*
X151000000Y-84480000D03*
X153540000Y-84480000D03*
X151000000Y-87020000D03*
X153540000Y-87020000D03*
X151000000Y-89560000D03*
X153540000Y-89560000D03*
X151000000Y-92100000D03*
X153540000Y-92100000D03*
X151000000Y-94640000D03*
X153540000Y-94640000D03*
X151000000Y-97180000D03*
X153540000Y-97180000D03*
X151000000Y-99720000D03*
X153540000Y-99720000D03*
X151000000Y-102260000D03*
X153540000Y-102260000D03*
X151000000Y-104800000D03*
X153540000Y-104800000D03*
X151000000Y-107340000D03*
X153540000Y-107340000D03*
X151000000Y-109880000D03*
X153540000Y-109880000D03*
X151000000Y-112420000D03*
X153540000Y-112420000D03*
X151000000Y-114960000D03*
X153540000Y-114960000D03*
X151000000Y-117500000D03*
X153540000Y-117500000D03*
X151000000Y-120040000D03*
X153540000Y-120040000D03*
X151000000Y-122580000D03*
X153540000Y-122580000D03*
X151000000Y-125120000D03*
X153540000Y-125120000D03*
X151000000Y-127660000D03*
X153540000Y-127660000D03*
%TD*%
D13*
%TO.C,J5*%
X121964000Y-81562550D03*
D14*
X114764000Y-81562550D03*
D15*
X125114000Y-75562550D03*
X111614000Y-75562550D03*
%TD*%
D10*
%TO.C,J7*%
X96621600Y-95935800D03*
D11*
X96621600Y-98475800D03*
X96621600Y-101015800D03*
X96621600Y-103555800D03*
%TD*%
D10*
%TO.C,J6*%
X160350000Y-96000000D03*
D11*
X160350000Y-98540000D03*
X160350000Y-101080000D03*
X160350000Y-103620000D03*
%TD*%
D16*
%TO.C,S1*%
X110007400Y-121513600D03*
X104927400Y-121513600D03*
%TD*%
D17*
%TO.C,U1*%
X142595600Y-132308600D03*
X123143600Y-132422600D03*
X142643600Y-87672600D03*
X123143600Y-87672600D03*
%TD*%
M02*
