%TF.GenerationSoftware,KiCad,Pcbnew,7.0.2-0*%
%TF.CreationDate,2024-01-24T17:00:23-05:00*%
%TF.ProjectId,Pi_HAT_V4_Simple,50695f48-4154-45f5-9634-5f53696d706c,rev?*%
%TF.SameCoordinates,Original*%
%TF.FileFunction,Copper,L1,Top*%
%TF.FilePolarity,Positive*%
%FSLAX46Y46*%
G04 Gerber Fmt 4.6, Leading zero omitted, Abs format (unit mm)*
G04 Created by KiCad (PCBNEW 7.0.2-0) date 2024-01-24 17:00:23*
%MOMM*%
%LPD*%
G01*
G04 APERTURE LIST*
%TA.AperFunction,ComponentPad*%
%ADD10R,1.700000X1.700000*%
%TD*%
%TA.AperFunction,ComponentPad*%
%ADD11O,1.700000X1.700000*%
%TD*%
%TA.AperFunction,ComponentPad*%
%ADD12R,3.716000X3.716000*%
%TD*%
%TA.AperFunction,ComponentPad*%
%ADD13C,3.716000*%
%TD*%
%TA.AperFunction,ComponentPad*%
%ADD14O,1.200000X2.400000*%
%TD*%
%TA.AperFunction,ComponentPad*%
%ADD15C,1.635000*%
%TD*%
%TA.AperFunction,ComponentPad*%
%ADD16R,2.000000X2.000000*%
%TD*%
%TA.AperFunction,Conductor*%
%ADD17C,1.000000*%
%TD*%
%TA.AperFunction,Conductor*%
%ADD18C,0.250000*%
%TD*%
%TA.AperFunction,Conductor*%
%ADD19C,0.200000*%
%TD*%
G04 APERTURE END LIST*
D10*
%TO.P,J3,1,Pin_1*%
%TO.N,/3.3V*%
X137475000Y-70525000D03*
D11*
%TO.P,J3,2,Pin_2*%
%TO.N,/5V*%
X137475000Y-67985000D03*
%TO.P,J3,3,Pin_3*%
%TO.N,/SDA*%
X140015000Y-70525000D03*
%TO.P,J3,4,Pin_4*%
%TO.N,/5V*%
X140015000Y-67985000D03*
%TO.P,J3,5,Pin_5*%
%TO.N,/SCL*%
X142555000Y-70525000D03*
%TO.P,J3,6,Pin_6*%
%TO.N,GND*%
X142555000Y-67985000D03*
%TD*%
D10*
%TO.P,J1,1,Pin_1*%
%TO.N,/3.3V*%
X101386000Y-86563200D03*
D11*
%TO.P,J1,2,Pin_2*%
%TO.N,GND*%
X101386000Y-89103200D03*
%TO.P,J1,3,Pin_3*%
%TO.N,/SCL*%
X101386000Y-91643200D03*
%TO.P,J1,4,Pin_4*%
%TO.N,/SDA*%
X101386000Y-94183200D03*
%TO.P,J1,5,Pin_5*%
%TO.N,unconnected-(J1-Pin_5-Pad5)*%
X101386000Y-96723200D03*
%TO.P,J1,6,Pin_6*%
%TO.N,unconnected-(J1-Pin_6-Pad6)*%
X101386000Y-99263200D03*
%TO.P,J1,7,Pin_7*%
%TO.N,unconnected-(J1-Pin_7-Pad7)*%
X101386000Y-101803200D03*
%TO.P,J1,8,Pin_8*%
%TO.N,unconnected-(J1-Pin_8-Pad8)*%
X101386000Y-104343200D03*
%TO.P,J1,9,Pin_9*%
%TO.N,unconnected-(J1-Pin_9-Pad9)*%
X101386000Y-106883200D03*
%TO.P,J1,10,Pin_10*%
%TO.N,unconnected-(J1-Pin_10-Pad10)*%
X101386000Y-109423200D03*
%TD*%
D10*
%TO.P,J2,1,Pin_1*%
%TO.N,/3.3V*%
X151000000Y-79400000D03*
D11*
%TO.P,J2,2,Pin_2*%
%TO.N,/5V*%
X153540000Y-79400000D03*
%TO.P,J2,3,Pin_3*%
%TO.N,/SDA*%
X151000000Y-81940000D03*
%TO.P,J2,4,Pin_4*%
%TO.N,/5V*%
X153540000Y-81940000D03*
%TO.P,J2,5,Pin_5*%
%TO.N,/SCL*%
X151000000Y-84480000D03*
%TO.P,J2,6,Pin_6*%
%TO.N,GND*%
X153540000Y-84480000D03*
%TO.P,J2,7,Pin_7*%
%TO.N,unconnected-(J2-Pin_7-Pad7)*%
X151000000Y-87020000D03*
%TO.P,J2,8,Pin_8*%
%TO.N,unconnected-(J2-Pin_8-Pad8)*%
X153540000Y-87020000D03*
%TO.P,J2,9,Pin_9*%
%TO.N,unconnected-(J2-Pin_9-Pad9)*%
X151000000Y-89560000D03*
%TO.P,J2,10,Pin_10*%
%TO.N,unconnected-(J2-Pin_10-Pad10)*%
X153540000Y-89560000D03*
%TO.P,J2,11,Pin_11*%
%TO.N,unconnected-(J2-Pin_11-Pad11)*%
X151000000Y-92100000D03*
%TO.P,J2,12,Pin_12*%
%TO.N,unconnected-(J2-Pin_12-Pad12)*%
X153540000Y-92100000D03*
%TO.P,J2,13,Pin_13*%
%TO.N,unconnected-(J2-Pin_13-Pad13)*%
X151000000Y-94640000D03*
%TO.P,J2,14,Pin_14*%
%TO.N,unconnected-(J2-Pin_14-Pad14)*%
X153540000Y-94640000D03*
%TO.P,J2,15,Pin_15*%
%TO.N,unconnected-(J2-Pin_15-Pad15)*%
X151000000Y-97180000D03*
%TO.P,J2,16,Pin_16*%
%TO.N,unconnected-(J2-Pin_16-Pad16)*%
X153540000Y-97180000D03*
%TO.P,J2,17,Pin_17*%
%TO.N,unconnected-(J2-Pin_17-Pad17)*%
X151000000Y-99720000D03*
%TO.P,J2,18,Pin_18*%
%TO.N,unconnected-(J2-Pin_18-Pad18)*%
X153540000Y-99720000D03*
%TO.P,J2,19,Pin_19*%
%TO.N,unconnected-(J2-Pin_19-Pad19)*%
X151000000Y-102260000D03*
%TO.P,J2,20,Pin_20*%
%TO.N,unconnected-(J2-Pin_20-Pad20)*%
X153540000Y-102260000D03*
%TO.P,J2,21,Pin_21*%
%TO.N,unconnected-(J2-Pin_21-Pad21)*%
X151000000Y-104800000D03*
%TO.P,J2,22,Pin_22*%
%TO.N,unconnected-(J2-Pin_22-Pad22)*%
X153540000Y-104800000D03*
%TO.P,J2,23,Pin_23*%
%TO.N,unconnected-(J2-Pin_23-Pad23)*%
X151000000Y-107340000D03*
%TO.P,J2,24,Pin_24*%
%TO.N,unconnected-(J2-Pin_24-Pad24)*%
X153540000Y-107340000D03*
%TO.P,J2,25,Pin_25*%
%TO.N,unconnected-(J2-Pin_25-Pad25)*%
X151000000Y-109880000D03*
%TO.P,J2,26,Pin_26*%
%TO.N,unconnected-(J2-Pin_26-Pad26)*%
X153540000Y-109880000D03*
%TO.P,J2,27,Pin_27*%
%TO.N,unconnected-(J2-Pin_27-Pad27)*%
X151000000Y-112420000D03*
%TO.P,J2,28,Pin_28*%
%TO.N,unconnected-(J2-Pin_28-Pad28)*%
X153540000Y-112420000D03*
%TO.P,J2,29,Pin_29*%
%TO.N,unconnected-(J2-Pin_29-Pad29)*%
X151000000Y-114960000D03*
%TO.P,J2,30,Pin_30*%
%TO.N,unconnected-(J2-Pin_30-Pad30)*%
X153540000Y-114960000D03*
%TO.P,J2,31,Pin_31*%
%TO.N,unconnected-(J2-Pin_31-Pad31)*%
X151000000Y-117500000D03*
%TO.P,J2,32,Pin_32*%
%TO.N,unconnected-(J2-Pin_32-Pad32)*%
X153540000Y-117500000D03*
%TO.P,J2,33,Pin_33*%
%TO.N,unconnected-(J2-Pin_33-Pad33)*%
X151000000Y-120040000D03*
%TO.P,J2,34,Pin_34*%
%TO.N,unconnected-(J2-Pin_34-Pad34)*%
X153540000Y-120040000D03*
%TO.P,J2,35,Pin_35*%
%TO.N,unconnected-(J2-Pin_35-Pad35)*%
X151000000Y-122580000D03*
%TO.P,J2,36,Pin_36*%
%TO.N,unconnected-(J2-Pin_36-Pad36)*%
X153540000Y-122580000D03*
%TO.P,J2,37,Pin_37*%
%TO.N,unconnected-(J2-Pin_37-Pad37)*%
X151000000Y-125120000D03*
%TO.P,J2,38,Pin_38*%
%TO.N,unconnected-(J2-Pin_38-Pad38)*%
X153540000Y-125120000D03*
%TO.P,J2,39,Pin_39*%
%TO.N,unconnected-(J2-Pin_39-Pad39)*%
X151000000Y-127660000D03*
%TO.P,J2,40,Pin_40*%
%TO.N,unconnected-(J2-Pin_40-Pad40)*%
X153540000Y-127660000D03*
%TD*%
D12*
%TO.P,J5,1,+*%
%TO.N,/12Vin*%
X121964000Y-81562550D03*
D13*
%TO.P,J5,2,-*%
%TO.N,GND*%
X114764000Y-81562550D03*
D14*
%TO.P,J5,S1*%
%TO.N,N/C*%
X125114000Y-75562550D03*
%TO.P,J5,S2*%
X111614000Y-75562550D03*
%TD*%
D10*
%TO.P,J7,1,Pin_1*%
%TO.N,/12Vout*%
X96621600Y-95935800D03*
D11*
%TO.P,J7,2,Pin_2*%
%TO.N,GND*%
X96621600Y-98475800D03*
%TO.P,J7,3,Pin_3*%
%TO.N,/SDA*%
X96621600Y-101015800D03*
%TO.P,J7,4,Pin_4*%
%TO.N,/SCL*%
X96621600Y-103555800D03*
%TD*%
D10*
%TO.P,J6,1,Pin_1*%
%TO.N,/12Vout*%
X160350000Y-96000000D03*
D11*
%TO.P,J6,2,Pin_2*%
%TO.N,GND*%
X160350000Y-98540000D03*
%TO.P,J6,3,Pin_3*%
%TO.N,/SDA*%
X160350000Y-101080000D03*
%TO.P,J6,4,Pin_4*%
%TO.N,/SCL*%
X160350000Y-103620000D03*
%TD*%
D15*
%TO.P,S1,1,1*%
%TO.N,/12Vin*%
X110007400Y-121513600D03*
%TO.P,S1,3,3*%
%TO.N,/12Vout*%
X104927400Y-121513600D03*
%TD*%
D16*
%TO.P,U1,1,IN+*%
%TO.N,/12Vout*%
X142595600Y-132308600D03*
%TO.P,U1,2,IN-*%
%TO.N,GND*%
X123143600Y-132422600D03*
%TO.P,U1,3,OUT+*%
%TO.N,/5V*%
X142643600Y-87672600D03*
%TO.P,U1,4,OUT-*%
%TO.N,GND*%
X123143600Y-87672600D03*
%TD*%
D17*
%TO.N,/12Vin*%
X110007400Y-121513600D02*
X118821200Y-112699800D01*
X118821200Y-112699800D02*
X118821200Y-84705350D01*
X118821200Y-84705350D02*
X121964000Y-81562550D01*
D18*
%TO.N,/3.3V*%
X101386000Y-86563200D02*
X104216200Y-86563200D01*
X120254400Y-70525000D02*
X137475000Y-70525000D01*
X104216200Y-86563200D02*
X120254400Y-70525000D01*
%TO.N,GND*%
X160350000Y-98540000D02*
X161700000Y-97190000D01*
X161700000Y-85400000D02*
X160780000Y-84480000D01*
X160780000Y-84480000D02*
X153540000Y-84480000D01*
X161700000Y-97190000D02*
X161700000Y-85400000D01*
%TO.N,/5V*%
X137475000Y-67985000D02*
X140015000Y-67985000D01*
%TO.N,/SCL*%
X158343600Y-85750400D02*
X152270400Y-85750400D01*
D19*
X139538856Y-69375489D02*
X138865489Y-70048856D01*
X142555000Y-70525000D02*
X141405489Y-69375489D01*
D18*
X158851600Y-102121600D02*
X158851600Y-86258400D01*
D19*
X141405489Y-69375489D02*
X139538856Y-69375489D01*
X138865489Y-70048856D02*
X138865489Y-72345489D01*
D18*
X158851600Y-86258400D02*
X158343600Y-85750400D01*
X152270400Y-85750400D02*
X151000000Y-84480000D01*
D19*
X138865489Y-72345489D02*
X151000000Y-84480000D01*
D18*
X160350000Y-103620000D02*
X158851600Y-102121600D01*
D19*
%TO.N,/SDA*%
X140015000Y-70525000D02*
X140015000Y-72715000D01*
D18*
X152781000Y-80695800D02*
X157632196Y-80695800D01*
X157632196Y-80695800D02*
X162150000Y-85213604D01*
X151536800Y-81940000D02*
X152781000Y-80695800D01*
X162150000Y-85213604D02*
X162150000Y-99280000D01*
X162150000Y-99280000D02*
X160350000Y-101080000D01*
D19*
X140015000Y-72715000D02*
X149240000Y-81940000D01*
D18*
X151000000Y-81940000D02*
X151536800Y-81940000D01*
D19*
X149240000Y-81940000D02*
X151000000Y-81940000D01*
D17*
%TO.N,/12Vout*%
X142595600Y-130429000D02*
X141376400Y-129209800D01*
X104902000Y-124688600D02*
X104927400Y-124663200D01*
X141376400Y-129209800D02*
X109423200Y-129209800D01*
X104927400Y-124663200D02*
X104927400Y-121513600D01*
X142595600Y-132308600D02*
X142595600Y-130429000D01*
X109423200Y-129209800D02*
X104902000Y-124688600D01*
%TD*%
M02*
