%TF.GenerationSoftware,KiCad,Pcbnew,7.0.2-0*%
%TF.CreationDate,2024-01-24T17:00:23-05:00*%
%TF.ProjectId,Pi_HAT_V4_Simple,50695f48-4154-45f5-9634-5f53696d706c,rev?*%
%TF.SameCoordinates,Original*%
%TF.FileFunction,Legend,Top*%
%TF.FilePolarity,Positive*%
%FSLAX46Y46*%
G04 Gerber Fmt 4.6, Leading zero omitted, Abs format (unit mm)*
G04 Created by KiCad (PCBNEW 7.0.2-0) date 2024-01-24 17:00:23*
%MOMM*%
%LPD*%
G01*
G04 APERTURE LIST*
%ADD10C,0.150000*%
%ADD11C,0.100000*%
%ADD12C,0.250000*%
%ADD13C,0.254000*%
%ADD14C,0.120000*%
%ADD15C,0.127000*%
G04 APERTURE END LIST*
D10*
X111161238Y-104415314D02*
X109161238Y-104415314D01*
X109161238Y-104415314D02*
X110589809Y-103748647D01*
X110589809Y-103748647D02*
X109161238Y-103081981D01*
X109161238Y-103081981D02*
X111161238Y-103081981D01*
X111161238Y-102129600D02*
X109161238Y-102129600D01*
X109161238Y-102129600D02*
X109161238Y-101367695D01*
X109161238Y-101367695D02*
X109256476Y-101177219D01*
X109256476Y-101177219D02*
X109351714Y-101081981D01*
X109351714Y-101081981D02*
X109542190Y-100986743D01*
X109542190Y-100986743D02*
X109827904Y-100986743D01*
X109827904Y-100986743D02*
X110018380Y-101081981D01*
X110018380Y-101081981D02*
X110113619Y-101177219D01*
X110113619Y-101177219D02*
X110208857Y-101367695D01*
X110208857Y-101367695D02*
X110208857Y-102129600D01*
X109161238Y-100129600D02*
X110780285Y-100129600D01*
X110780285Y-100129600D02*
X110970761Y-100034362D01*
X110970761Y-100034362D02*
X111066000Y-99939124D01*
X111066000Y-99939124D02*
X111161238Y-99748648D01*
X111161238Y-99748648D02*
X111161238Y-99367695D01*
X111161238Y-99367695D02*
X111066000Y-99177219D01*
X111066000Y-99177219D02*
X110970761Y-99081981D01*
X110970761Y-99081981D02*
X110780285Y-98986743D01*
X110780285Y-98986743D02*
X109161238Y-98986743D01*
X111161238Y-96415314D02*
X111161238Y-96034362D01*
X111161238Y-96034362D02*
X111066000Y-95843885D01*
X111066000Y-95843885D02*
X110970761Y-95748647D01*
X110970761Y-95748647D02*
X110685047Y-95558171D01*
X110685047Y-95558171D02*
X110304095Y-95462933D01*
X110304095Y-95462933D02*
X109542190Y-95462933D01*
X109542190Y-95462933D02*
X109351714Y-95558171D01*
X109351714Y-95558171D02*
X109256476Y-95653409D01*
X109256476Y-95653409D02*
X109161238Y-95843885D01*
X109161238Y-95843885D02*
X109161238Y-96224838D01*
X109161238Y-96224838D02*
X109256476Y-96415314D01*
X109256476Y-96415314D02*
X109351714Y-96510552D01*
X109351714Y-96510552D02*
X109542190Y-96605790D01*
X109542190Y-96605790D02*
X110018380Y-96605790D01*
X110018380Y-96605790D02*
X110208857Y-96510552D01*
X110208857Y-96510552D02*
X110304095Y-96415314D01*
X110304095Y-96415314D02*
X110399333Y-96224838D01*
X110399333Y-96224838D02*
X110399333Y-95843885D01*
X110399333Y-95843885D02*
X110304095Y-95653409D01*
X110304095Y-95653409D02*
X110208857Y-95558171D01*
X110208857Y-95558171D02*
X110018380Y-95462933D01*
X109351714Y-94701028D02*
X109256476Y-94605790D01*
X109256476Y-94605790D02*
X109161238Y-94415314D01*
X109161238Y-94415314D02*
X109161238Y-93939123D01*
X109161238Y-93939123D02*
X109256476Y-93748647D01*
X109256476Y-93748647D02*
X109351714Y-93653409D01*
X109351714Y-93653409D02*
X109542190Y-93558171D01*
X109542190Y-93558171D02*
X109732666Y-93558171D01*
X109732666Y-93558171D02*
X110018380Y-93653409D01*
X110018380Y-93653409D02*
X111161238Y-94796266D01*
X111161238Y-94796266D02*
X111161238Y-93558171D01*
X109161238Y-91748647D02*
X109161238Y-92701028D01*
X109161238Y-92701028D02*
X110113619Y-92796266D01*
X110113619Y-92796266D02*
X110018380Y-92701028D01*
X110018380Y-92701028D02*
X109923142Y-92510552D01*
X109923142Y-92510552D02*
X109923142Y-92034361D01*
X109923142Y-92034361D02*
X110018380Y-91843885D01*
X110018380Y-91843885D02*
X110113619Y-91748647D01*
X110113619Y-91748647D02*
X110304095Y-91653409D01*
X110304095Y-91653409D02*
X110780285Y-91653409D01*
X110780285Y-91653409D02*
X110970761Y-91748647D01*
X110970761Y-91748647D02*
X111066000Y-91843885D01*
X111066000Y-91843885D02*
X111161238Y-92034361D01*
X111161238Y-92034361D02*
X111161238Y-92510552D01*
X111161238Y-92510552D02*
X111066000Y-92701028D01*
X111066000Y-92701028D02*
X110970761Y-92796266D01*
X109161238Y-90415314D02*
X109161238Y-90224837D01*
X109161238Y-90224837D02*
X109256476Y-90034361D01*
X109256476Y-90034361D02*
X109351714Y-89939123D01*
X109351714Y-89939123D02*
X109542190Y-89843885D01*
X109542190Y-89843885D02*
X109923142Y-89748647D01*
X109923142Y-89748647D02*
X110399333Y-89748647D01*
X110399333Y-89748647D02*
X110780285Y-89843885D01*
X110780285Y-89843885D02*
X110970761Y-89939123D01*
X110970761Y-89939123D02*
X111066000Y-90034361D01*
X111066000Y-90034361D02*
X111161238Y-90224837D01*
X111161238Y-90224837D02*
X111161238Y-90415314D01*
X111161238Y-90415314D02*
X111066000Y-90605790D01*
X111066000Y-90605790D02*
X110970761Y-90701028D01*
X110970761Y-90701028D02*
X110780285Y-90796266D01*
X110780285Y-90796266D02*
X110399333Y-90891504D01*
X110399333Y-90891504D02*
X109923142Y-90891504D01*
X109923142Y-90891504D02*
X109542190Y-90796266D01*
X109542190Y-90796266D02*
X109351714Y-90701028D01*
X109351714Y-90701028D02*
X109256476Y-90605790D01*
X109256476Y-90605790D02*
X109161238Y-90415314D01*
D11*
X136283847Y-73179295D02*
X136779085Y-73179295D01*
X136779085Y-73179295D02*
X136512419Y-73484057D01*
X136512419Y-73484057D02*
X136626704Y-73484057D01*
X136626704Y-73484057D02*
X136702895Y-73522152D01*
X136702895Y-73522152D02*
X136740990Y-73560247D01*
X136740990Y-73560247D02*
X136779085Y-73636438D01*
X136779085Y-73636438D02*
X136779085Y-73826914D01*
X136779085Y-73826914D02*
X136740990Y-73903104D01*
X136740990Y-73903104D02*
X136702895Y-73941200D01*
X136702895Y-73941200D02*
X136626704Y-73979295D01*
X136626704Y-73979295D02*
X136398133Y-73979295D01*
X136398133Y-73979295D02*
X136321942Y-73941200D01*
X136321942Y-73941200D02*
X136283847Y-73903104D01*
X137121943Y-73903104D02*
X137160038Y-73941200D01*
X137160038Y-73941200D02*
X137121943Y-73979295D01*
X137121943Y-73979295D02*
X137083847Y-73941200D01*
X137083847Y-73941200D02*
X137121943Y-73903104D01*
X137121943Y-73903104D02*
X137121943Y-73979295D01*
X137426704Y-73179295D02*
X137921942Y-73179295D01*
X137921942Y-73179295D02*
X137655276Y-73484057D01*
X137655276Y-73484057D02*
X137769561Y-73484057D01*
X137769561Y-73484057D02*
X137845752Y-73522152D01*
X137845752Y-73522152D02*
X137883847Y-73560247D01*
X137883847Y-73560247D02*
X137921942Y-73636438D01*
X137921942Y-73636438D02*
X137921942Y-73826914D01*
X137921942Y-73826914D02*
X137883847Y-73903104D01*
X137883847Y-73903104D02*
X137845752Y-73941200D01*
X137845752Y-73941200D02*
X137769561Y-73979295D01*
X137769561Y-73979295D02*
X137540990Y-73979295D01*
X137540990Y-73979295D02*
X137464799Y-73941200D01*
X137464799Y-73941200D02*
X137426704Y-73903104D01*
X138150514Y-73179295D02*
X138417181Y-73979295D01*
X138417181Y-73979295D02*
X138683847Y-73179295D01*
X137566380Y-65733304D02*
X137947332Y-65733304D01*
X137947332Y-65733304D02*
X137985428Y-65352352D01*
X137985428Y-65352352D02*
X137947332Y-65390447D01*
X137947332Y-65390447D02*
X137871142Y-65428542D01*
X137871142Y-65428542D02*
X137680666Y-65428542D01*
X137680666Y-65428542D02*
X137604475Y-65390447D01*
X137604475Y-65390447D02*
X137566380Y-65352352D01*
X137566380Y-65352352D02*
X137528285Y-65276161D01*
X137528285Y-65276161D02*
X137528285Y-65085685D01*
X137528285Y-65085685D02*
X137566380Y-65009495D01*
X137566380Y-65009495D02*
X137604475Y-64971400D01*
X137604475Y-64971400D02*
X137680666Y-64933304D01*
X137680666Y-64933304D02*
X137871142Y-64933304D01*
X137871142Y-64933304D02*
X137947332Y-64971400D01*
X137947332Y-64971400D02*
X137985428Y-65009495D01*
X137299713Y-65733304D02*
X137033046Y-64933304D01*
X137033046Y-64933304D02*
X136766380Y-65733304D01*
X163882000Y-104552381D02*
X163920095Y-104438095D01*
X163920095Y-104438095D02*
X163920095Y-104247619D01*
X163920095Y-104247619D02*
X163882000Y-104171428D01*
X163882000Y-104171428D02*
X163843904Y-104133333D01*
X163843904Y-104133333D02*
X163767714Y-104095238D01*
X163767714Y-104095238D02*
X163691523Y-104095238D01*
X163691523Y-104095238D02*
X163615333Y-104133333D01*
X163615333Y-104133333D02*
X163577238Y-104171428D01*
X163577238Y-104171428D02*
X163539142Y-104247619D01*
X163539142Y-104247619D02*
X163501047Y-104400000D01*
X163501047Y-104400000D02*
X163462952Y-104476190D01*
X163462952Y-104476190D02*
X163424857Y-104514285D01*
X163424857Y-104514285D02*
X163348666Y-104552381D01*
X163348666Y-104552381D02*
X163272476Y-104552381D01*
X163272476Y-104552381D02*
X163196285Y-104514285D01*
X163196285Y-104514285D02*
X163158190Y-104476190D01*
X163158190Y-104476190D02*
X163120095Y-104400000D01*
X163120095Y-104400000D02*
X163120095Y-104209523D01*
X163120095Y-104209523D02*
X163158190Y-104095238D01*
X163843904Y-103295237D02*
X163882000Y-103333333D01*
X163882000Y-103333333D02*
X163920095Y-103447618D01*
X163920095Y-103447618D02*
X163920095Y-103523809D01*
X163920095Y-103523809D02*
X163882000Y-103638095D01*
X163882000Y-103638095D02*
X163805809Y-103714285D01*
X163805809Y-103714285D02*
X163729619Y-103752380D01*
X163729619Y-103752380D02*
X163577238Y-103790476D01*
X163577238Y-103790476D02*
X163462952Y-103790476D01*
X163462952Y-103790476D02*
X163310571Y-103752380D01*
X163310571Y-103752380D02*
X163234380Y-103714285D01*
X163234380Y-103714285D02*
X163158190Y-103638095D01*
X163158190Y-103638095D02*
X163120095Y-103523809D01*
X163120095Y-103523809D02*
X163120095Y-103447618D01*
X163120095Y-103447618D02*
X163158190Y-103333333D01*
X163158190Y-103333333D02*
X163196285Y-103295237D01*
X163920095Y-102571428D02*
X163920095Y-102952380D01*
X163920095Y-102952380D02*
X163120095Y-102952380D01*
X94041809Y-97637676D02*
X94079904Y-97561486D01*
X94079904Y-97561486D02*
X94079904Y-97447200D01*
X94079904Y-97447200D02*
X94041809Y-97332914D01*
X94041809Y-97332914D02*
X93965619Y-97256724D01*
X93965619Y-97256724D02*
X93889428Y-97218629D01*
X93889428Y-97218629D02*
X93737047Y-97180533D01*
X93737047Y-97180533D02*
X93622761Y-97180533D01*
X93622761Y-97180533D02*
X93470380Y-97218629D01*
X93470380Y-97218629D02*
X93394190Y-97256724D01*
X93394190Y-97256724D02*
X93318000Y-97332914D01*
X93318000Y-97332914D02*
X93279904Y-97447200D01*
X93279904Y-97447200D02*
X93279904Y-97523391D01*
X93279904Y-97523391D02*
X93318000Y-97637676D01*
X93318000Y-97637676D02*
X93356095Y-97675772D01*
X93356095Y-97675772D02*
X93622761Y-97675772D01*
X93622761Y-97675772D02*
X93622761Y-97523391D01*
X93279904Y-98018629D02*
X94079904Y-98018629D01*
X94079904Y-98018629D02*
X93279904Y-98475772D01*
X93279904Y-98475772D02*
X94079904Y-98475772D01*
X93279904Y-98856724D02*
X94079904Y-98856724D01*
X94079904Y-98856724D02*
X94079904Y-99047200D01*
X94079904Y-99047200D02*
X94041809Y-99161486D01*
X94041809Y-99161486D02*
X93965619Y-99237676D01*
X93965619Y-99237676D02*
X93889428Y-99275771D01*
X93889428Y-99275771D02*
X93737047Y-99313867D01*
X93737047Y-99313867D02*
X93622761Y-99313867D01*
X93622761Y-99313867D02*
X93470380Y-99275771D01*
X93470380Y-99275771D02*
X93394190Y-99237676D01*
X93394190Y-99237676D02*
X93318000Y-99161486D01*
X93318000Y-99161486D02*
X93279904Y-99047200D01*
X93279904Y-99047200D02*
X93279904Y-98856724D01*
X163782000Y-102071428D02*
X163820095Y-101957142D01*
X163820095Y-101957142D02*
X163820095Y-101766666D01*
X163820095Y-101766666D02*
X163782000Y-101690475D01*
X163782000Y-101690475D02*
X163743904Y-101652380D01*
X163743904Y-101652380D02*
X163667714Y-101614285D01*
X163667714Y-101614285D02*
X163591523Y-101614285D01*
X163591523Y-101614285D02*
X163515333Y-101652380D01*
X163515333Y-101652380D02*
X163477238Y-101690475D01*
X163477238Y-101690475D02*
X163439142Y-101766666D01*
X163439142Y-101766666D02*
X163401047Y-101919047D01*
X163401047Y-101919047D02*
X163362952Y-101995237D01*
X163362952Y-101995237D02*
X163324857Y-102033332D01*
X163324857Y-102033332D02*
X163248666Y-102071428D01*
X163248666Y-102071428D02*
X163172476Y-102071428D01*
X163172476Y-102071428D02*
X163096285Y-102033332D01*
X163096285Y-102033332D02*
X163058190Y-101995237D01*
X163058190Y-101995237D02*
X163020095Y-101919047D01*
X163020095Y-101919047D02*
X163020095Y-101728570D01*
X163020095Y-101728570D02*
X163058190Y-101614285D01*
X163820095Y-101271427D02*
X163020095Y-101271427D01*
X163020095Y-101271427D02*
X163020095Y-101080951D01*
X163020095Y-101080951D02*
X163058190Y-100966665D01*
X163058190Y-100966665D02*
X163134380Y-100890475D01*
X163134380Y-100890475D02*
X163210571Y-100852380D01*
X163210571Y-100852380D02*
X163362952Y-100814284D01*
X163362952Y-100814284D02*
X163477238Y-100814284D01*
X163477238Y-100814284D02*
X163629619Y-100852380D01*
X163629619Y-100852380D02*
X163705809Y-100890475D01*
X163705809Y-100890475D02*
X163782000Y-100966665D01*
X163782000Y-100966665D02*
X163820095Y-101080951D01*
X163820095Y-101080951D02*
X163820095Y-101271427D01*
X163591523Y-100509523D02*
X163591523Y-100128570D01*
X163820095Y-100585713D02*
X163020095Y-100319046D01*
X163020095Y-100319046D02*
X163820095Y-100052380D01*
X93279904Y-95211961D02*
X93279904Y-94754818D01*
X93279904Y-94983390D02*
X94079904Y-94983390D01*
X94079904Y-94983390D02*
X93965619Y-94907199D01*
X93965619Y-94907199D02*
X93889428Y-94831009D01*
X93889428Y-94831009D02*
X93851333Y-94754818D01*
X94003714Y-95516723D02*
X94041809Y-95554819D01*
X94041809Y-95554819D02*
X94079904Y-95631009D01*
X94079904Y-95631009D02*
X94079904Y-95821485D01*
X94079904Y-95821485D02*
X94041809Y-95897676D01*
X94041809Y-95897676D02*
X94003714Y-95935771D01*
X94003714Y-95935771D02*
X93927523Y-95973866D01*
X93927523Y-95973866D02*
X93851333Y-95973866D01*
X93851333Y-95973866D02*
X93737047Y-95935771D01*
X93737047Y-95935771D02*
X93279904Y-95478628D01*
X93279904Y-95478628D02*
X93279904Y-95973866D01*
X94079904Y-96202438D02*
X93279904Y-96469105D01*
X93279904Y-96469105D02*
X94079904Y-96735771D01*
X93318000Y-99942771D02*
X93279904Y-100057057D01*
X93279904Y-100057057D02*
X93279904Y-100247533D01*
X93279904Y-100247533D02*
X93318000Y-100323724D01*
X93318000Y-100323724D02*
X93356095Y-100361819D01*
X93356095Y-100361819D02*
X93432285Y-100399914D01*
X93432285Y-100399914D02*
X93508476Y-100399914D01*
X93508476Y-100399914D02*
X93584666Y-100361819D01*
X93584666Y-100361819D02*
X93622761Y-100323724D01*
X93622761Y-100323724D02*
X93660857Y-100247533D01*
X93660857Y-100247533D02*
X93698952Y-100095152D01*
X93698952Y-100095152D02*
X93737047Y-100018962D01*
X93737047Y-100018962D02*
X93775142Y-99980867D01*
X93775142Y-99980867D02*
X93851333Y-99942771D01*
X93851333Y-99942771D02*
X93927523Y-99942771D01*
X93927523Y-99942771D02*
X94003714Y-99980867D01*
X94003714Y-99980867D02*
X94041809Y-100018962D01*
X94041809Y-100018962D02*
X94079904Y-100095152D01*
X94079904Y-100095152D02*
X94079904Y-100285629D01*
X94079904Y-100285629D02*
X94041809Y-100399914D01*
X93279904Y-100742772D02*
X94079904Y-100742772D01*
X94079904Y-100742772D02*
X94079904Y-100933248D01*
X94079904Y-100933248D02*
X94041809Y-101047534D01*
X94041809Y-101047534D02*
X93965619Y-101123724D01*
X93965619Y-101123724D02*
X93889428Y-101161819D01*
X93889428Y-101161819D02*
X93737047Y-101199915D01*
X93737047Y-101199915D02*
X93622761Y-101199915D01*
X93622761Y-101199915D02*
X93470380Y-101161819D01*
X93470380Y-101161819D02*
X93394190Y-101123724D01*
X93394190Y-101123724D02*
X93318000Y-101047534D01*
X93318000Y-101047534D02*
X93279904Y-100933248D01*
X93279904Y-100933248D02*
X93279904Y-100742772D01*
X93508476Y-101504676D02*
X93508476Y-101885629D01*
X93279904Y-101428486D02*
X94079904Y-101695153D01*
X94079904Y-101695153D02*
X93279904Y-101961819D01*
X93418000Y-102705018D02*
X93379904Y-102819304D01*
X93379904Y-102819304D02*
X93379904Y-103009780D01*
X93379904Y-103009780D02*
X93418000Y-103085971D01*
X93418000Y-103085971D02*
X93456095Y-103124066D01*
X93456095Y-103124066D02*
X93532285Y-103162161D01*
X93532285Y-103162161D02*
X93608476Y-103162161D01*
X93608476Y-103162161D02*
X93684666Y-103124066D01*
X93684666Y-103124066D02*
X93722761Y-103085971D01*
X93722761Y-103085971D02*
X93760857Y-103009780D01*
X93760857Y-103009780D02*
X93798952Y-102857399D01*
X93798952Y-102857399D02*
X93837047Y-102781209D01*
X93837047Y-102781209D02*
X93875142Y-102743114D01*
X93875142Y-102743114D02*
X93951333Y-102705018D01*
X93951333Y-102705018D02*
X94027523Y-102705018D01*
X94027523Y-102705018D02*
X94103714Y-102743114D01*
X94103714Y-102743114D02*
X94141809Y-102781209D01*
X94141809Y-102781209D02*
X94179904Y-102857399D01*
X94179904Y-102857399D02*
X94179904Y-103047876D01*
X94179904Y-103047876D02*
X94141809Y-103162161D01*
X93456095Y-103962162D02*
X93418000Y-103924066D01*
X93418000Y-103924066D02*
X93379904Y-103809781D01*
X93379904Y-103809781D02*
X93379904Y-103733590D01*
X93379904Y-103733590D02*
X93418000Y-103619304D01*
X93418000Y-103619304D02*
X93494190Y-103543114D01*
X93494190Y-103543114D02*
X93570380Y-103505019D01*
X93570380Y-103505019D02*
X93722761Y-103466923D01*
X93722761Y-103466923D02*
X93837047Y-103466923D01*
X93837047Y-103466923D02*
X93989428Y-103505019D01*
X93989428Y-103505019D02*
X94065619Y-103543114D01*
X94065619Y-103543114D02*
X94141809Y-103619304D01*
X94141809Y-103619304D02*
X94179904Y-103733590D01*
X94179904Y-103733590D02*
X94179904Y-103809781D01*
X94179904Y-103809781D02*
X94141809Y-103924066D01*
X94141809Y-103924066D02*
X94103714Y-103962162D01*
X93379904Y-104685971D02*
X93379904Y-104305019D01*
X93379904Y-104305019D02*
X94179904Y-104305019D01*
X163058190Y-99109523D02*
X163020095Y-99185713D01*
X163020095Y-99185713D02*
X163020095Y-99299999D01*
X163020095Y-99299999D02*
X163058190Y-99414285D01*
X163058190Y-99414285D02*
X163134380Y-99490475D01*
X163134380Y-99490475D02*
X163210571Y-99528570D01*
X163210571Y-99528570D02*
X163362952Y-99566666D01*
X163362952Y-99566666D02*
X163477238Y-99566666D01*
X163477238Y-99566666D02*
X163629619Y-99528570D01*
X163629619Y-99528570D02*
X163705809Y-99490475D01*
X163705809Y-99490475D02*
X163782000Y-99414285D01*
X163782000Y-99414285D02*
X163820095Y-99299999D01*
X163820095Y-99299999D02*
X163820095Y-99223808D01*
X163820095Y-99223808D02*
X163782000Y-99109523D01*
X163782000Y-99109523D02*
X163743904Y-99071427D01*
X163743904Y-99071427D02*
X163477238Y-99071427D01*
X163477238Y-99071427D02*
X163477238Y-99223808D01*
X163820095Y-98728570D02*
X163020095Y-98728570D01*
X163020095Y-98728570D02*
X163820095Y-98271427D01*
X163820095Y-98271427D02*
X163020095Y-98271427D01*
X163820095Y-97890475D02*
X163020095Y-97890475D01*
X163020095Y-97890475D02*
X163020095Y-97699999D01*
X163020095Y-97699999D02*
X163058190Y-97585713D01*
X163058190Y-97585713D02*
X163134380Y-97509523D01*
X163134380Y-97509523D02*
X163210571Y-97471428D01*
X163210571Y-97471428D02*
X163362952Y-97433332D01*
X163362952Y-97433332D02*
X163477238Y-97433332D01*
X163477238Y-97433332D02*
X163629619Y-97471428D01*
X163629619Y-97471428D02*
X163705809Y-97509523D01*
X163705809Y-97509523D02*
X163782000Y-97585713D01*
X163782000Y-97585713D02*
X163820095Y-97699999D01*
X163820095Y-97699999D02*
X163820095Y-97890475D01*
X163820095Y-96595238D02*
X163820095Y-97052381D01*
X163820095Y-96823809D02*
X163020095Y-96823809D01*
X163020095Y-96823809D02*
X163134380Y-96900000D01*
X163134380Y-96900000D02*
X163210571Y-96976190D01*
X163210571Y-96976190D02*
X163248666Y-97052381D01*
X163096285Y-96290476D02*
X163058190Y-96252380D01*
X163058190Y-96252380D02*
X163020095Y-96176190D01*
X163020095Y-96176190D02*
X163020095Y-95985714D01*
X163020095Y-95985714D02*
X163058190Y-95909523D01*
X163058190Y-95909523D02*
X163096285Y-95871428D01*
X163096285Y-95871428D02*
X163172476Y-95833333D01*
X163172476Y-95833333D02*
X163248666Y-95833333D01*
X163248666Y-95833333D02*
X163362952Y-95871428D01*
X163362952Y-95871428D02*
X163820095Y-96328571D01*
X163820095Y-96328571D02*
X163820095Y-95833333D01*
X163020095Y-95604761D02*
X163820095Y-95338094D01*
X163820095Y-95338094D02*
X163020095Y-95071428D01*
D12*
X158751073Y-130305942D02*
X157501073Y-130305942D01*
X157501073Y-130305942D02*
X157501073Y-129829752D01*
X157501073Y-129829752D02*
X157560597Y-129710704D01*
X157560597Y-129710704D02*
X157620121Y-129651181D01*
X157620121Y-129651181D02*
X157739169Y-129591657D01*
X157739169Y-129591657D02*
X157917740Y-129591657D01*
X157917740Y-129591657D02*
X158036788Y-129651181D01*
X158036788Y-129651181D02*
X158096311Y-129710704D01*
X158096311Y-129710704D02*
X158155835Y-129829752D01*
X158155835Y-129829752D02*
X158155835Y-130305942D01*
X158751073Y-129055942D02*
X157501073Y-129055942D01*
X158751073Y-127508323D02*
X157501073Y-127508323D01*
X158096311Y-127508323D02*
X158096311Y-126794038D01*
X158751073Y-126794038D02*
X157501073Y-126794038D01*
X158393930Y-126258323D02*
X158393930Y-125663085D01*
X158751073Y-126377371D02*
X157501073Y-125960704D01*
X157501073Y-125960704D02*
X158751073Y-125544038D01*
X157501073Y-125305942D02*
X157501073Y-124591656D01*
X158751073Y-124948799D02*
X157501073Y-124948799D01*
X157501073Y-123401180D02*
X158751073Y-122984513D01*
X158751073Y-122984513D02*
X157501073Y-122567847D01*
X157501073Y-122270227D02*
X157501073Y-121496418D01*
X157501073Y-121496418D02*
X157977264Y-121913084D01*
X157977264Y-121913084D02*
X157977264Y-121734513D01*
X157977264Y-121734513D02*
X158036788Y-121615465D01*
X158036788Y-121615465D02*
X158096311Y-121555941D01*
X158096311Y-121555941D02*
X158215359Y-121496418D01*
X158215359Y-121496418D02*
X158512978Y-121496418D01*
X158512978Y-121496418D02*
X158632026Y-121555941D01*
X158632026Y-121555941D02*
X158691550Y-121615465D01*
X158691550Y-121615465D02*
X158751073Y-121734513D01*
X158751073Y-121734513D02*
X158751073Y-122091656D01*
X158751073Y-122091656D02*
X158691550Y-122210703D01*
X158691550Y-122210703D02*
X158632026Y-122270227D01*
X158751073Y-119353561D02*
X158751073Y-120067846D01*
X158751073Y-119710703D02*
X157501073Y-119710703D01*
X157501073Y-119710703D02*
X157679645Y-119829751D01*
X157679645Y-119829751D02*
X157798692Y-119948799D01*
X157798692Y-119948799D02*
X157858216Y-120067846D01*
X157501073Y-118579751D02*
X157501073Y-118460704D01*
X157501073Y-118460704D02*
X157560597Y-118341656D01*
X157560597Y-118341656D02*
X157620121Y-118282132D01*
X157620121Y-118282132D02*
X157739169Y-118222608D01*
X157739169Y-118222608D02*
X157977264Y-118163085D01*
X157977264Y-118163085D02*
X158274883Y-118163085D01*
X158274883Y-118163085D02*
X158512978Y-118222608D01*
X158512978Y-118222608D02*
X158632026Y-118282132D01*
X158632026Y-118282132D02*
X158691550Y-118341656D01*
X158691550Y-118341656D02*
X158751073Y-118460704D01*
X158751073Y-118460704D02*
X158751073Y-118579751D01*
X158751073Y-118579751D02*
X158691550Y-118698799D01*
X158691550Y-118698799D02*
X158632026Y-118758323D01*
X158632026Y-118758323D02*
X158512978Y-118817846D01*
X158512978Y-118817846D02*
X158274883Y-118877370D01*
X158274883Y-118877370D02*
X157977264Y-118877370D01*
X157977264Y-118877370D02*
X157739169Y-118817846D01*
X157739169Y-118817846D02*
X157620121Y-118758323D01*
X157620121Y-118758323D02*
X157560597Y-118698799D01*
X157560597Y-118698799D02*
X157501073Y-118579751D01*
X157441550Y-116734513D02*
X159048692Y-117805942D01*
X157620121Y-116377370D02*
X157560597Y-116317846D01*
X157560597Y-116317846D02*
X157501073Y-116198799D01*
X157501073Y-116198799D02*
X157501073Y-115901180D01*
X157501073Y-115901180D02*
X157560597Y-115782132D01*
X157560597Y-115782132D02*
X157620121Y-115722608D01*
X157620121Y-115722608D02*
X157739169Y-115663085D01*
X157739169Y-115663085D02*
X157858216Y-115663085D01*
X157858216Y-115663085D02*
X158036788Y-115722608D01*
X158036788Y-115722608D02*
X158751073Y-116436894D01*
X158751073Y-116436894D02*
X158751073Y-115663085D01*
X158751073Y-114472609D02*
X158751073Y-115186894D01*
X158751073Y-114829751D02*
X157501073Y-114829751D01*
X157501073Y-114829751D02*
X157679645Y-114948799D01*
X157679645Y-114948799D02*
X157798692Y-115067847D01*
X157798692Y-115067847D02*
X157858216Y-115186894D01*
X157441550Y-113044037D02*
X159048692Y-114115466D01*
X157620121Y-112686894D02*
X157560597Y-112627370D01*
X157560597Y-112627370D02*
X157501073Y-112508323D01*
X157501073Y-112508323D02*
X157501073Y-112210704D01*
X157501073Y-112210704D02*
X157560597Y-112091656D01*
X157560597Y-112091656D02*
X157620121Y-112032132D01*
X157620121Y-112032132D02*
X157739169Y-111972609D01*
X157739169Y-111972609D02*
X157858216Y-111972609D01*
X157858216Y-111972609D02*
X158036788Y-112032132D01*
X158036788Y-112032132D02*
X158751073Y-112746418D01*
X158751073Y-112746418D02*
X158751073Y-111972609D01*
X157620121Y-111496418D02*
X157560597Y-111436894D01*
X157560597Y-111436894D02*
X157501073Y-111317847D01*
X157501073Y-111317847D02*
X157501073Y-111020228D01*
X157501073Y-111020228D02*
X157560597Y-110901180D01*
X157560597Y-110901180D02*
X157620121Y-110841656D01*
X157620121Y-110841656D02*
X157739169Y-110782133D01*
X157739169Y-110782133D02*
X157858216Y-110782133D01*
X157858216Y-110782133D02*
X158036788Y-110841656D01*
X158036788Y-110841656D02*
X158751073Y-111555942D01*
X158751073Y-111555942D02*
X158751073Y-110782133D01*
X160121311Y-127776180D02*
X160121311Y-127359514D01*
X160776073Y-127180942D02*
X160776073Y-127776180D01*
X160776073Y-127776180D02*
X159526073Y-127776180D01*
X159526073Y-127776180D02*
X159526073Y-127180942D01*
X160418930Y-126704752D02*
X160418930Y-126109514D01*
X160776073Y-126823800D02*
X159526073Y-126407133D01*
X159526073Y-126407133D02*
X160776073Y-125990467D01*
X160716550Y-125633323D02*
X160776073Y-125454752D01*
X160776073Y-125454752D02*
X160776073Y-125157133D01*
X160776073Y-125157133D02*
X160716550Y-125038085D01*
X160716550Y-125038085D02*
X160657026Y-124978561D01*
X160657026Y-124978561D02*
X160537978Y-124919038D01*
X160537978Y-124919038D02*
X160418930Y-124919038D01*
X160418930Y-124919038D02*
X160299883Y-124978561D01*
X160299883Y-124978561D02*
X160240359Y-125038085D01*
X160240359Y-125038085D02*
X160180835Y-125157133D01*
X160180835Y-125157133D02*
X160121311Y-125395228D01*
X160121311Y-125395228D02*
X160061788Y-125514276D01*
X160061788Y-125514276D02*
X160002264Y-125573799D01*
X160002264Y-125573799D02*
X159883216Y-125633323D01*
X159883216Y-125633323D02*
X159764169Y-125633323D01*
X159764169Y-125633323D02*
X159645121Y-125573799D01*
X159645121Y-125573799D02*
X159585597Y-125514276D01*
X159585597Y-125514276D02*
X159526073Y-125395228D01*
X159526073Y-125395228D02*
X159526073Y-125097609D01*
X159526073Y-125097609D02*
X159585597Y-124919038D01*
X160180835Y-124145228D02*
X160776073Y-124145228D01*
X159526073Y-124561895D02*
X160180835Y-124145228D01*
X160180835Y-124145228D02*
X159526073Y-123728562D01*
X160657026Y-121645228D02*
X160716550Y-121704752D01*
X160716550Y-121704752D02*
X160776073Y-121883323D01*
X160776073Y-121883323D02*
X160776073Y-122002371D01*
X160776073Y-122002371D02*
X160716550Y-122180942D01*
X160716550Y-122180942D02*
X160597502Y-122299990D01*
X160597502Y-122299990D02*
X160478454Y-122359513D01*
X160478454Y-122359513D02*
X160240359Y-122419037D01*
X160240359Y-122419037D02*
X160061788Y-122419037D01*
X160061788Y-122419037D02*
X159823692Y-122359513D01*
X159823692Y-122359513D02*
X159704645Y-122299990D01*
X159704645Y-122299990D02*
X159585597Y-122180942D01*
X159585597Y-122180942D02*
X159526073Y-122002371D01*
X159526073Y-122002371D02*
X159526073Y-121883323D01*
X159526073Y-121883323D02*
X159585597Y-121704752D01*
X159585597Y-121704752D02*
X159645121Y-121645228D01*
X159526073Y-120871418D02*
X159526073Y-120633323D01*
X159526073Y-120633323D02*
X159585597Y-120514275D01*
X159585597Y-120514275D02*
X159704645Y-120395228D01*
X159704645Y-120395228D02*
X159942740Y-120335704D01*
X159942740Y-120335704D02*
X160359407Y-120335704D01*
X160359407Y-120335704D02*
X160597502Y-120395228D01*
X160597502Y-120395228D02*
X160716550Y-120514275D01*
X160716550Y-120514275D02*
X160776073Y-120633323D01*
X160776073Y-120633323D02*
X160776073Y-120871418D01*
X160776073Y-120871418D02*
X160716550Y-120990466D01*
X160716550Y-120990466D02*
X160597502Y-121109513D01*
X160597502Y-121109513D02*
X160359407Y-121169037D01*
X160359407Y-121169037D02*
X159942740Y-121169037D01*
X159942740Y-121169037D02*
X159704645Y-121109513D01*
X159704645Y-121109513D02*
X159585597Y-120990466D01*
X159585597Y-120990466D02*
X159526073Y-120871418D01*
X160776073Y-119799989D02*
X159526073Y-119799989D01*
X159526073Y-119799989D02*
X160776073Y-119085704D01*
X160776073Y-119085704D02*
X159526073Y-119085704D01*
X159526073Y-118669037D02*
X159526073Y-117954751D01*
X160776073Y-118311894D02*
X159526073Y-118311894D01*
X160776073Y-116823799D02*
X160180835Y-117240465D01*
X160776073Y-117538084D02*
X159526073Y-117538084D01*
X159526073Y-117538084D02*
X159526073Y-117061894D01*
X159526073Y-117061894D02*
X159585597Y-116942846D01*
X159585597Y-116942846D02*
X159645121Y-116883323D01*
X159645121Y-116883323D02*
X159764169Y-116823799D01*
X159764169Y-116823799D02*
X159942740Y-116823799D01*
X159942740Y-116823799D02*
X160061788Y-116883323D01*
X160061788Y-116883323D02*
X160121311Y-116942846D01*
X160121311Y-116942846D02*
X160180835Y-117061894D01*
X160180835Y-117061894D02*
X160180835Y-117538084D01*
X159526073Y-116049989D02*
X159526073Y-115811894D01*
X159526073Y-115811894D02*
X159585597Y-115692846D01*
X159585597Y-115692846D02*
X159704645Y-115573799D01*
X159704645Y-115573799D02*
X159942740Y-115514275D01*
X159942740Y-115514275D02*
X160359407Y-115514275D01*
X160359407Y-115514275D02*
X160597502Y-115573799D01*
X160597502Y-115573799D02*
X160716550Y-115692846D01*
X160716550Y-115692846D02*
X160776073Y-115811894D01*
X160776073Y-115811894D02*
X160776073Y-116049989D01*
X160776073Y-116049989D02*
X160716550Y-116169037D01*
X160716550Y-116169037D02*
X160597502Y-116288084D01*
X160597502Y-116288084D02*
X160359407Y-116347608D01*
X160359407Y-116347608D02*
X159942740Y-116347608D01*
X159942740Y-116347608D02*
X159704645Y-116288084D01*
X159704645Y-116288084D02*
X159585597Y-116169037D01*
X159585597Y-116169037D02*
X159526073Y-116049989D01*
X160776073Y-114383322D02*
X160776073Y-114978560D01*
X160776073Y-114978560D02*
X159526073Y-114978560D01*
X160716550Y-114026179D02*
X160776073Y-113847608D01*
X160776073Y-113847608D02*
X160776073Y-113549989D01*
X160776073Y-113549989D02*
X160716550Y-113430941D01*
X160716550Y-113430941D02*
X160657026Y-113371417D01*
X160657026Y-113371417D02*
X160537978Y-113311894D01*
X160537978Y-113311894D02*
X160418930Y-113311894D01*
X160418930Y-113311894D02*
X160299883Y-113371417D01*
X160299883Y-113371417D02*
X160240359Y-113430941D01*
X160240359Y-113430941D02*
X160180835Y-113549989D01*
X160180835Y-113549989D02*
X160121311Y-113788084D01*
X160121311Y-113788084D02*
X160061788Y-113907132D01*
X160061788Y-113907132D02*
X160002264Y-113966655D01*
X160002264Y-113966655D02*
X159883216Y-114026179D01*
X159883216Y-114026179D02*
X159764169Y-114026179D01*
X159764169Y-114026179D02*
X159645121Y-113966655D01*
X159645121Y-113966655D02*
X159585597Y-113907132D01*
X159585597Y-113907132D02*
X159526073Y-113788084D01*
X159526073Y-113788084D02*
X159526073Y-113490465D01*
X159526073Y-113490465D02*
X159585597Y-113311894D01*
X162801073Y-133073798D02*
X161551073Y-133073798D01*
X161551073Y-133073798D02*
X161551073Y-132776179D01*
X161551073Y-132776179D02*
X161610597Y-132597608D01*
X161610597Y-132597608D02*
X161729645Y-132478560D01*
X161729645Y-132478560D02*
X161848692Y-132419037D01*
X161848692Y-132419037D02*
X162086788Y-132359513D01*
X162086788Y-132359513D02*
X162265359Y-132359513D01*
X162265359Y-132359513D02*
X162503454Y-132419037D01*
X162503454Y-132419037D02*
X162622502Y-132478560D01*
X162622502Y-132478560D02*
X162741550Y-132597608D01*
X162741550Y-132597608D02*
X162801073Y-132776179D01*
X162801073Y-132776179D02*
X162801073Y-133073798D01*
X162741550Y-131347608D02*
X162801073Y-131466656D01*
X162801073Y-131466656D02*
X162801073Y-131704751D01*
X162801073Y-131704751D02*
X162741550Y-131823798D01*
X162741550Y-131823798D02*
X162622502Y-131883322D01*
X162622502Y-131883322D02*
X162146311Y-131883322D01*
X162146311Y-131883322D02*
X162027264Y-131823798D01*
X162027264Y-131823798D02*
X161967740Y-131704751D01*
X161967740Y-131704751D02*
X161967740Y-131466656D01*
X161967740Y-131466656D02*
X162027264Y-131347608D01*
X162027264Y-131347608D02*
X162146311Y-131288084D01*
X162146311Y-131288084D02*
X162265359Y-131288084D01*
X162265359Y-131288084D02*
X162384407Y-131883322D01*
X162741550Y-130811893D02*
X162801073Y-130692846D01*
X162801073Y-130692846D02*
X162801073Y-130454750D01*
X162801073Y-130454750D02*
X162741550Y-130335703D01*
X162741550Y-130335703D02*
X162622502Y-130276179D01*
X162622502Y-130276179D02*
X162562978Y-130276179D01*
X162562978Y-130276179D02*
X162443930Y-130335703D01*
X162443930Y-130335703D02*
X162384407Y-130454750D01*
X162384407Y-130454750D02*
X162384407Y-130633322D01*
X162384407Y-130633322D02*
X162324883Y-130752369D01*
X162324883Y-130752369D02*
X162205835Y-130811893D01*
X162205835Y-130811893D02*
X162146311Y-130811893D01*
X162146311Y-130811893D02*
X162027264Y-130752369D01*
X162027264Y-130752369D02*
X161967740Y-130633322D01*
X161967740Y-130633322D02*
X161967740Y-130454750D01*
X161967740Y-130454750D02*
X162027264Y-130335703D01*
X162801073Y-129740464D02*
X161967740Y-129740464D01*
X161551073Y-129740464D02*
X161610597Y-129799988D01*
X161610597Y-129799988D02*
X161670121Y-129740464D01*
X161670121Y-129740464D02*
X161610597Y-129680941D01*
X161610597Y-129680941D02*
X161551073Y-129740464D01*
X161551073Y-129740464D02*
X161670121Y-129740464D01*
X161967740Y-128609512D02*
X162979645Y-128609512D01*
X162979645Y-128609512D02*
X163098692Y-128669036D01*
X163098692Y-128669036D02*
X163158216Y-128728560D01*
X163158216Y-128728560D02*
X163217740Y-128847607D01*
X163217740Y-128847607D02*
X163217740Y-129026179D01*
X163217740Y-129026179D02*
X163158216Y-129145226D01*
X162741550Y-128609512D02*
X162801073Y-128728560D01*
X162801073Y-128728560D02*
X162801073Y-128966655D01*
X162801073Y-128966655D02*
X162741550Y-129085703D01*
X162741550Y-129085703D02*
X162682026Y-129145226D01*
X162682026Y-129145226D02*
X162562978Y-129204750D01*
X162562978Y-129204750D02*
X162205835Y-129204750D01*
X162205835Y-129204750D02*
X162086788Y-129145226D01*
X162086788Y-129145226D02*
X162027264Y-129085703D01*
X162027264Y-129085703D02*
X161967740Y-128966655D01*
X161967740Y-128966655D02*
X161967740Y-128728560D01*
X161967740Y-128728560D02*
X162027264Y-128609512D01*
X161967740Y-128014274D02*
X162801073Y-128014274D01*
X162086788Y-128014274D02*
X162027264Y-127954751D01*
X162027264Y-127954751D02*
X161967740Y-127835703D01*
X161967740Y-127835703D02*
X161967740Y-127657132D01*
X161967740Y-127657132D02*
X162027264Y-127538084D01*
X162027264Y-127538084D02*
X162146311Y-127478560D01*
X162146311Y-127478560D02*
X162801073Y-127478560D01*
X162741550Y-126407132D02*
X162801073Y-126526180D01*
X162801073Y-126526180D02*
X162801073Y-126764275D01*
X162801073Y-126764275D02*
X162741550Y-126883322D01*
X162741550Y-126883322D02*
X162622502Y-126942846D01*
X162622502Y-126942846D02*
X162146311Y-126942846D01*
X162146311Y-126942846D02*
X162027264Y-126883322D01*
X162027264Y-126883322D02*
X161967740Y-126764275D01*
X161967740Y-126764275D02*
X161967740Y-126526180D01*
X161967740Y-126526180D02*
X162027264Y-126407132D01*
X162027264Y-126407132D02*
X162146311Y-126347608D01*
X162146311Y-126347608D02*
X162265359Y-126347608D01*
X162265359Y-126347608D02*
X162384407Y-126942846D01*
X162801073Y-125276179D02*
X161551073Y-125276179D01*
X162741550Y-125276179D02*
X162801073Y-125395227D01*
X162801073Y-125395227D02*
X162801073Y-125633322D01*
X162801073Y-125633322D02*
X162741550Y-125752370D01*
X162741550Y-125752370D02*
X162682026Y-125811893D01*
X162682026Y-125811893D02*
X162562978Y-125871417D01*
X162562978Y-125871417D02*
X162205835Y-125871417D01*
X162205835Y-125871417D02*
X162086788Y-125811893D01*
X162086788Y-125811893D02*
X162027264Y-125752370D01*
X162027264Y-125752370D02*
X161967740Y-125633322D01*
X161967740Y-125633322D02*
X161967740Y-125395227D01*
X161967740Y-125395227D02*
X162027264Y-125276179D01*
X162801073Y-123728560D02*
X161551073Y-123728560D01*
X162027264Y-123728560D02*
X161967740Y-123609513D01*
X161967740Y-123609513D02*
X161967740Y-123371418D01*
X161967740Y-123371418D02*
X162027264Y-123252370D01*
X162027264Y-123252370D02*
X162086788Y-123192846D01*
X162086788Y-123192846D02*
X162205835Y-123133322D01*
X162205835Y-123133322D02*
X162562978Y-123133322D01*
X162562978Y-123133322D02*
X162682026Y-123192846D01*
X162682026Y-123192846D02*
X162741550Y-123252370D01*
X162741550Y-123252370D02*
X162801073Y-123371418D01*
X162801073Y-123371418D02*
X162801073Y-123609513D01*
X162801073Y-123609513D02*
X162741550Y-123728560D01*
X161967740Y-122716656D02*
X162801073Y-122419037D01*
X161967740Y-122121418D02*
X162801073Y-122419037D01*
X162801073Y-122419037D02*
X163098692Y-122538085D01*
X163098692Y-122538085D02*
X163158216Y-122597608D01*
X163158216Y-122597608D02*
X163217740Y-122716656D01*
X162682026Y-121645227D02*
X162741550Y-121585704D01*
X162741550Y-121585704D02*
X162801073Y-121645227D01*
X162801073Y-121645227D02*
X162741550Y-121704751D01*
X162741550Y-121704751D02*
X162682026Y-121645227D01*
X162682026Y-121645227D02*
X162801073Y-121645227D01*
X162027264Y-121645227D02*
X162086788Y-121585704D01*
X162086788Y-121585704D02*
X162146311Y-121645227D01*
X162146311Y-121645227D02*
X162086788Y-121704751D01*
X162086788Y-121704751D02*
X162027264Y-121645227D01*
X162027264Y-121645227D02*
X162146311Y-121645227D01*
X161551073Y-119740466D02*
X162443930Y-119740466D01*
X162443930Y-119740466D02*
X162622502Y-119799989D01*
X162622502Y-119799989D02*
X162741550Y-119919037D01*
X162741550Y-119919037D02*
X162801073Y-120097608D01*
X162801073Y-120097608D02*
X162801073Y-120216656D01*
X162801073Y-118609513D02*
X162146311Y-118609513D01*
X162146311Y-118609513D02*
X162027264Y-118669037D01*
X162027264Y-118669037D02*
X161967740Y-118788085D01*
X161967740Y-118788085D02*
X161967740Y-119026180D01*
X161967740Y-119026180D02*
X162027264Y-119145227D01*
X162741550Y-118609513D02*
X162801073Y-118728561D01*
X162801073Y-118728561D02*
X162801073Y-119026180D01*
X162801073Y-119026180D02*
X162741550Y-119145227D01*
X162741550Y-119145227D02*
X162622502Y-119204751D01*
X162622502Y-119204751D02*
X162503454Y-119204751D01*
X162503454Y-119204751D02*
X162384407Y-119145227D01*
X162384407Y-119145227D02*
X162324883Y-119026180D01*
X162324883Y-119026180D02*
X162324883Y-118728561D01*
X162324883Y-118728561D02*
X162265359Y-118609513D01*
X162741550Y-117478561D02*
X162801073Y-117597609D01*
X162801073Y-117597609D02*
X162801073Y-117835704D01*
X162801073Y-117835704D02*
X162741550Y-117954752D01*
X162741550Y-117954752D02*
X162682026Y-118014275D01*
X162682026Y-118014275D02*
X162562978Y-118073799D01*
X162562978Y-118073799D02*
X162205835Y-118073799D01*
X162205835Y-118073799D02*
X162086788Y-118014275D01*
X162086788Y-118014275D02*
X162027264Y-117954752D01*
X162027264Y-117954752D02*
X161967740Y-117835704D01*
X161967740Y-117835704D02*
X161967740Y-117597609D01*
X161967740Y-117597609D02*
X162027264Y-117478561D01*
X162801073Y-116764275D02*
X162741550Y-116883323D01*
X162741550Y-116883323D02*
X162682026Y-116942846D01*
X162682026Y-116942846D02*
X162562978Y-117002370D01*
X162562978Y-117002370D02*
X162205835Y-117002370D01*
X162205835Y-117002370D02*
X162086788Y-116942846D01*
X162086788Y-116942846D02*
X162027264Y-116883323D01*
X162027264Y-116883323D02*
X161967740Y-116764275D01*
X161967740Y-116764275D02*
X161967740Y-116585704D01*
X161967740Y-116585704D02*
X162027264Y-116466656D01*
X162027264Y-116466656D02*
X162086788Y-116407132D01*
X162086788Y-116407132D02*
X162205835Y-116347608D01*
X162205835Y-116347608D02*
X162562978Y-116347608D01*
X162562978Y-116347608D02*
X162682026Y-116407132D01*
X162682026Y-116407132D02*
X162741550Y-116466656D01*
X162741550Y-116466656D02*
X162801073Y-116585704D01*
X162801073Y-116585704D02*
X162801073Y-116764275D01*
X162801073Y-115811894D02*
X161551073Y-115811894D01*
X162027264Y-115811894D02*
X161967740Y-115692847D01*
X161967740Y-115692847D02*
X161967740Y-115454752D01*
X161967740Y-115454752D02*
X162027264Y-115335704D01*
X162027264Y-115335704D02*
X162086788Y-115276180D01*
X162086788Y-115276180D02*
X162205835Y-115216656D01*
X162205835Y-115216656D02*
X162562978Y-115216656D01*
X162562978Y-115216656D02*
X162682026Y-115276180D01*
X162682026Y-115276180D02*
X162741550Y-115335704D01*
X162741550Y-115335704D02*
X162801073Y-115454752D01*
X162801073Y-115454752D02*
X162801073Y-115692847D01*
X162801073Y-115692847D02*
X162741550Y-115811894D01*
X162801073Y-113014276D02*
X162205835Y-113430942D01*
X162801073Y-113728561D02*
X161551073Y-113728561D01*
X161551073Y-113728561D02*
X161551073Y-113252371D01*
X161551073Y-113252371D02*
X161610597Y-113133323D01*
X161610597Y-113133323D02*
X161670121Y-113073800D01*
X161670121Y-113073800D02*
X161789169Y-113014276D01*
X161789169Y-113014276D02*
X161967740Y-113014276D01*
X161967740Y-113014276D02*
X162086788Y-113073800D01*
X162086788Y-113073800D02*
X162146311Y-113133323D01*
X162146311Y-113133323D02*
X162205835Y-113252371D01*
X162205835Y-113252371D02*
X162205835Y-113728561D01*
X162801073Y-112299990D02*
X162741550Y-112419038D01*
X162741550Y-112419038D02*
X162682026Y-112478561D01*
X162682026Y-112478561D02*
X162562978Y-112538085D01*
X162562978Y-112538085D02*
X162205835Y-112538085D01*
X162205835Y-112538085D02*
X162086788Y-112478561D01*
X162086788Y-112478561D02*
X162027264Y-112419038D01*
X162027264Y-112419038D02*
X161967740Y-112299990D01*
X161967740Y-112299990D02*
X161967740Y-112121419D01*
X161967740Y-112121419D02*
X162027264Y-112002371D01*
X162027264Y-112002371D02*
X162086788Y-111942847D01*
X162086788Y-111942847D02*
X162205835Y-111883323D01*
X162205835Y-111883323D02*
X162562978Y-111883323D01*
X162562978Y-111883323D02*
X162682026Y-111942847D01*
X162682026Y-111942847D02*
X162741550Y-112002371D01*
X162741550Y-112002371D02*
X162801073Y-112121419D01*
X162801073Y-112121419D02*
X162801073Y-112299990D01*
X162801073Y-111347609D02*
X161967740Y-111347609D01*
X162086788Y-111347609D02*
X162027264Y-111288086D01*
X162027264Y-111288086D02*
X161967740Y-111169038D01*
X161967740Y-111169038D02*
X161967740Y-110990467D01*
X161967740Y-110990467D02*
X162027264Y-110871419D01*
X162027264Y-110871419D02*
X162146311Y-110811895D01*
X162146311Y-110811895D02*
X162801073Y-110811895D01*
X162146311Y-110811895D02*
X162027264Y-110752371D01*
X162027264Y-110752371D02*
X161967740Y-110633324D01*
X161967740Y-110633324D02*
X161967740Y-110454752D01*
X161967740Y-110454752D02*
X162027264Y-110335705D01*
X162027264Y-110335705D02*
X162146311Y-110276181D01*
X162146311Y-110276181D02*
X162801073Y-110276181D01*
X162741550Y-109204752D02*
X162801073Y-109323800D01*
X162801073Y-109323800D02*
X162801073Y-109561895D01*
X162801073Y-109561895D02*
X162741550Y-109680942D01*
X162741550Y-109680942D02*
X162622502Y-109740466D01*
X162622502Y-109740466D02*
X162146311Y-109740466D01*
X162146311Y-109740466D02*
X162027264Y-109680942D01*
X162027264Y-109680942D02*
X161967740Y-109561895D01*
X161967740Y-109561895D02*
X161967740Y-109323800D01*
X161967740Y-109323800D02*
X162027264Y-109204752D01*
X162027264Y-109204752D02*
X162146311Y-109145228D01*
X162146311Y-109145228D02*
X162265359Y-109145228D01*
X162265359Y-109145228D02*
X162384407Y-109740466D01*
X162801073Y-108430942D02*
X162741550Y-108549990D01*
X162741550Y-108549990D02*
X162682026Y-108609513D01*
X162682026Y-108609513D02*
X162562978Y-108669037D01*
X162562978Y-108669037D02*
X162205835Y-108669037D01*
X162205835Y-108669037D02*
X162086788Y-108609513D01*
X162086788Y-108609513D02*
X162027264Y-108549990D01*
X162027264Y-108549990D02*
X161967740Y-108430942D01*
X161967740Y-108430942D02*
X161967740Y-108252371D01*
X161967740Y-108252371D02*
X162027264Y-108133323D01*
X162027264Y-108133323D02*
X162086788Y-108073799D01*
X162086788Y-108073799D02*
X162205835Y-108014275D01*
X162205835Y-108014275D02*
X162562978Y-108014275D01*
X162562978Y-108014275D02*
X162682026Y-108073799D01*
X162682026Y-108073799D02*
X162741550Y-108133323D01*
X162741550Y-108133323D02*
X162801073Y-108252371D01*
X162801073Y-108252371D02*
X162801073Y-108430942D01*
D10*
%TO.C,J3*%
X134541666Y-70187619D02*
X134541666Y-70901904D01*
X134541666Y-70901904D02*
X134494047Y-71044761D01*
X134494047Y-71044761D02*
X134398809Y-71140000D01*
X134398809Y-71140000D02*
X134255952Y-71187619D01*
X134255952Y-71187619D02*
X134160714Y-71187619D01*
X134922619Y-70187619D02*
X135541666Y-70187619D01*
X135541666Y-70187619D02*
X135208333Y-70568571D01*
X135208333Y-70568571D02*
X135351190Y-70568571D01*
X135351190Y-70568571D02*
X135446428Y-70616190D01*
X135446428Y-70616190D02*
X135494047Y-70663809D01*
X135494047Y-70663809D02*
X135541666Y-70759047D01*
X135541666Y-70759047D02*
X135541666Y-70997142D01*
X135541666Y-70997142D02*
X135494047Y-71092380D01*
X135494047Y-71092380D02*
X135446428Y-71140000D01*
X135446428Y-71140000D02*
X135351190Y-71187619D01*
X135351190Y-71187619D02*
X135065476Y-71187619D01*
X135065476Y-71187619D02*
X134970238Y-71140000D01*
X134970238Y-71140000D02*
X134922619Y-71092380D01*
%TO.C,H1*%
X154738095Y-72462619D02*
X154738095Y-71462619D01*
X154738095Y-71938809D02*
X155309523Y-71938809D01*
X155309523Y-72462619D02*
X155309523Y-71462619D01*
X156309523Y-72462619D02*
X155738095Y-72462619D01*
X156023809Y-72462619D02*
X156023809Y-71462619D01*
X156023809Y-71462619D02*
X155928571Y-71605476D01*
X155928571Y-71605476D02*
X155833333Y-71700714D01*
X155833333Y-71700714D02*
X155738095Y-71748333D01*
%TO.C,H2*%
X98738095Y-72462619D02*
X98738095Y-71462619D01*
X98738095Y-71938809D02*
X99309523Y-71938809D01*
X99309523Y-72462619D02*
X99309523Y-71462619D01*
X99738095Y-71557857D02*
X99785714Y-71510238D01*
X99785714Y-71510238D02*
X99880952Y-71462619D01*
X99880952Y-71462619D02*
X100119047Y-71462619D01*
X100119047Y-71462619D02*
X100214285Y-71510238D01*
X100214285Y-71510238D02*
X100261904Y-71557857D01*
X100261904Y-71557857D02*
X100309523Y-71653095D01*
X100309523Y-71653095D02*
X100309523Y-71748333D01*
X100309523Y-71748333D02*
X100261904Y-71891190D01*
X100261904Y-71891190D02*
X99690476Y-72462619D01*
X99690476Y-72462619D02*
X100309523Y-72462619D01*
%TO.C,H3*%
X98738095Y-135462619D02*
X98738095Y-134462619D01*
X98738095Y-134938809D02*
X99309523Y-134938809D01*
X99309523Y-135462619D02*
X99309523Y-134462619D01*
X99690476Y-134462619D02*
X100309523Y-134462619D01*
X100309523Y-134462619D02*
X99976190Y-134843571D01*
X99976190Y-134843571D02*
X100119047Y-134843571D01*
X100119047Y-134843571D02*
X100214285Y-134891190D01*
X100214285Y-134891190D02*
X100261904Y-134938809D01*
X100261904Y-134938809D02*
X100309523Y-135034047D01*
X100309523Y-135034047D02*
X100309523Y-135272142D01*
X100309523Y-135272142D02*
X100261904Y-135367380D01*
X100261904Y-135367380D02*
X100214285Y-135415000D01*
X100214285Y-135415000D02*
X100119047Y-135462619D01*
X100119047Y-135462619D02*
X99833333Y-135462619D01*
X99833333Y-135462619D02*
X99738095Y-135415000D01*
X99738095Y-135415000D02*
X99690476Y-135367380D01*
%TO.C,J1*%
X101052666Y-83695819D02*
X101052666Y-84410104D01*
X101052666Y-84410104D02*
X101005047Y-84552961D01*
X101005047Y-84552961D02*
X100909809Y-84648200D01*
X100909809Y-84648200D02*
X100766952Y-84695819D01*
X100766952Y-84695819D02*
X100671714Y-84695819D01*
X102052666Y-84695819D02*
X101481238Y-84695819D01*
X101766952Y-84695819D02*
X101766952Y-83695819D01*
X101766952Y-83695819D02*
X101671714Y-83838676D01*
X101671714Y-83838676D02*
X101576476Y-83933914D01*
X101576476Y-83933914D02*
X101481238Y-83981533D01*
%TO.C,H4*%
X154738095Y-135462619D02*
X154738095Y-134462619D01*
X154738095Y-134938809D02*
X155309523Y-134938809D01*
X155309523Y-135462619D02*
X155309523Y-134462619D01*
X156214285Y-134795952D02*
X156214285Y-135462619D01*
X155976190Y-134415000D02*
X155738095Y-135129285D01*
X155738095Y-135129285D02*
X156357142Y-135129285D01*
%TO.C,J2*%
X155516666Y-76262619D02*
X155516666Y-76976904D01*
X155516666Y-76976904D02*
X155469047Y-77119761D01*
X155469047Y-77119761D02*
X155373809Y-77215000D01*
X155373809Y-77215000D02*
X155230952Y-77262619D01*
X155230952Y-77262619D02*
X155135714Y-77262619D01*
X155945238Y-76357857D02*
X155992857Y-76310238D01*
X155992857Y-76310238D02*
X156088095Y-76262619D01*
X156088095Y-76262619D02*
X156326190Y-76262619D01*
X156326190Y-76262619D02*
X156421428Y-76310238D01*
X156421428Y-76310238D02*
X156469047Y-76357857D01*
X156469047Y-76357857D02*
X156516666Y-76453095D01*
X156516666Y-76453095D02*
X156516666Y-76548333D01*
X156516666Y-76548333D02*
X156469047Y-76691190D01*
X156469047Y-76691190D02*
X155897619Y-77262619D01*
X155897619Y-77262619D02*
X156516666Y-77262619D01*
X149058038Y-108308114D02*
X147058038Y-108308114D01*
X147058038Y-108308114D02*
X147058038Y-107546209D01*
X147058038Y-107546209D02*
X147153276Y-107355733D01*
X147153276Y-107355733D02*
X147248514Y-107260495D01*
X147248514Y-107260495D02*
X147438990Y-107165257D01*
X147438990Y-107165257D02*
X147724704Y-107165257D01*
X147724704Y-107165257D02*
X147915180Y-107260495D01*
X147915180Y-107260495D02*
X148010419Y-107355733D01*
X148010419Y-107355733D02*
X148105657Y-107546209D01*
X148105657Y-107546209D02*
X148105657Y-108308114D01*
X149058038Y-106308114D02*
X147724704Y-106308114D01*
X147058038Y-106308114D02*
X147153276Y-106403352D01*
X147153276Y-106403352D02*
X147248514Y-106308114D01*
X147248514Y-106308114D02*
X147153276Y-106212876D01*
X147153276Y-106212876D02*
X147058038Y-106308114D01*
X147058038Y-106308114D02*
X147248514Y-106308114D01*
X149248514Y-105831924D02*
X149248514Y-104308114D01*
X147153276Y-102784304D02*
X147058038Y-102974780D01*
X147058038Y-102974780D02*
X147058038Y-103260494D01*
X147058038Y-103260494D02*
X147153276Y-103546209D01*
X147153276Y-103546209D02*
X147343752Y-103736685D01*
X147343752Y-103736685D02*
X147534228Y-103831923D01*
X147534228Y-103831923D02*
X147915180Y-103927161D01*
X147915180Y-103927161D02*
X148200895Y-103927161D01*
X148200895Y-103927161D02*
X148581847Y-103831923D01*
X148581847Y-103831923D02*
X148772323Y-103736685D01*
X148772323Y-103736685D02*
X148962800Y-103546209D01*
X148962800Y-103546209D02*
X149058038Y-103260494D01*
X149058038Y-103260494D02*
X149058038Y-103070018D01*
X149058038Y-103070018D02*
X148962800Y-102784304D01*
X148962800Y-102784304D02*
X148867561Y-102689066D01*
X148867561Y-102689066D02*
X148200895Y-102689066D01*
X148200895Y-102689066D02*
X148200895Y-103070018D01*
X149058038Y-101831923D02*
X147058038Y-101831923D01*
X147058038Y-101831923D02*
X147058038Y-101070018D01*
X147058038Y-101070018D02*
X147153276Y-100879542D01*
X147153276Y-100879542D02*
X147248514Y-100784304D01*
X147248514Y-100784304D02*
X147438990Y-100689066D01*
X147438990Y-100689066D02*
X147724704Y-100689066D01*
X147724704Y-100689066D02*
X147915180Y-100784304D01*
X147915180Y-100784304D02*
X148010419Y-100879542D01*
X148010419Y-100879542D02*
X148105657Y-101070018D01*
X148105657Y-101070018D02*
X148105657Y-101831923D01*
X149058038Y-99831923D02*
X147058038Y-99831923D01*
X147058038Y-98498590D02*
X147058038Y-98117637D01*
X147058038Y-98117637D02*
X147153276Y-97927161D01*
X147153276Y-97927161D02*
X147343752Y-97736685D01*
X147343752Y-97736685D02*
X147724704Y-97641447D01*
X147724704Y-97641447D02*
X148391371Y-97641447D01*
X148391371Y-97641447D02*
X148772323Y-97736685D01*
X148772323Y-97736685D02*
X148962800Y-97927161D01*
X148962800Y-97927161D02*
X149058038Y-98117637D01*
X149058038Y-98117637D02*
X149058038Y-98498590D01*
X149058038Y-98498590D02*
X148962800Y-98689066D01*
X148962800Y-98689066D02*
X148772323Y-98879542D01*
X148772323Y-98879542D02*
X148391371Y-98974780D01*
X148391371Y-98974780D02*
X147724704Y-98974780D01*
X147724704Y-98974780D02*
X147343752Y-98879542D01*
X147343752Y-98879542D02*
X147153276Y-98689066D01*
X147153276Y-98689066D02*
X147058038Y-98498590D01*
%TO.C,J5*%
X117780519Y-80959183D02*
X117780519Y-81673783D01*
X117780519Y-81673783D02*
X117732879Y-81816703D01*
X117732879Y-81816703D02*
X117637599Y-81911984D01*
X117637599Y-81911984D02*
X117494679Y-81959624D01*
X117494679Y-81959624D02*
X117399399Y-81959624D01*
X118733320Y-80959183D02*
X118256920Y-80959183D01*
X118256920Y-80959183D02*
X118209280Y-81435583D01*
X118209280Y-81435583D02*
X118256920Y-81387943D01*
X118256920Y-81387943D02*
X118352200Y-81340303D01*
X118352200Y-81340303D02*
X118590400Y-81340303D01*
X118590400Y-81340303D02*
X118685680Y-81387943D01*
X118685680Y-81387943D02*
X118733320Y-81435583D01*
X118733320Y-81435583D02*
X118780960Y-81530863D01*
X118780960Y-81530863D02*
X118780960Y-81769063D01*
X118780960Y-81769063D02*
X118733320Y-81864343D01*
X118733320Y-81864343D02*
X118685680Y-81911984D01*
X118685680Y-81911984D02*
X118590400Y-81959624D01*
X118590400Y-81959624D02*
X118352200Y-81959624D01*
X118352200Y-81959624D02*
X118256920Y-81911984D01*
X118256920Y-81911984D02*
X118209280Y-81864343D01*
%TO.C,J7*%
X96288266Y-93068419D02*
X96288266Y-93782704D01*
X96288266Y-93782704D02*
X96240647Y-93925561D01*
X96240647Y-93925561D02*
X96145409Y-94020800D01*
X96145409Y-94020800D02*
X96002552Y-94068419D01*
X96002552Y-94068419D02*
X95907314Y-94068419D01*
X96669219Y-93068419D02*
X97335885Y-93068419D01*
X97335885Y-93068419D02*
X96907314Y-94068419D01*
%TO.C,J6*%
X160016666Y-93132619D02*
X160016666Y-93846904D01*
X160016666Y-93846904D02*
X159969047Y-93989761D01*
X159969047Y-93989761D02*
X159873809Y-94085000D01*
X159873809Y-94085000D02*
X159730952Y-94132619D01*
X159730952Y-94132619D02*
X159635714Y-94132619D01*
X160921428Y-93132619D02*
X160730952Y-93132619D01*
X160730952Y-93132619D02*
X160635714Y-93180238D01*
X160635714Y-93180238D02*
X160588095Y-93227857D01*
X160588095Y-93227857D02*
X160492857Y-93370714D01*
X160492857Y-93370714D02*
X160445238Y-93561190D01*
X160445238Y-93561190D02*
X160445238Y-93942142D01*
X160445238Y-93942142D02*
X160492857Y-94037380D01*
X160492857Y-94037380D02*
X160540476Y-94085000D01*
X160540476Y-94085000D02*
X160635714Y-94132619D01*
X160635714Y-94132619D02*
X160826190Y-94132619D01*
X160826190Y-94132619D02*
X160921428Y-94085000D01*
X160921428Y-94085000D02*
X160969047Y-94037380D01*
X160969047Y-94037380D02*
X161016666Y-93942142D01*
X161016666Y-93942142D02*
X161016666Y-93704047D01*
X161016666Y-93704047D02*
X160969047Y-93608809D01*
X160969047Y-93608809D02*
X160921428Y-93561190D01*
X160921428Y-93561190D02*
X160826190Y-93513571D01*
X160826190Y-93513571D02*
X160635714Y-93513571D01*
X160635714Y-93513571D02*
X160540476Y-93561190D01*
X160540476Y-93561190D02*
X160492857Y-93608809D01*
X160492857Y-93608809D02*
X160445238Y-93704047D01*
D13*
%TO.C,S1*%
X107994450Y-122481219D02*
X108054926Y-122299790D01*
X108054926Y-122299790D02*
X108054926Y-121997409D01*
X108054926Y-121997409D02*
X107994450Y-121876457D01*
X107994450Y-121876457D02*
X107933973Y-121815981D01*
X107933973Y-121815981D02*
X107813021Y-121755504D01*
X107813021Y-121755504D02*
X107692069Y-121755504D01*
X107692069Y-121755504D02*
X107571116Y-121815981D01*
X107571116Y-121815981D02*
X107510640Y-121876457D01*
X107510640Y-121876457D02*
X107450164Y-121997409D01*
X107450164Y-121997409D02*
X107389688Y-122239314D01*
X107389688Y-122239314D02*
X107329211Y-122360266D01*
X107329211Y-122360266D02*
X107268735Y-122420743D01*
X107268735Y-122420743D02*
X107147783Y-122481219D01*
X107147783Y-122481219D02*
X107026830Y-122481219D01*
X107026830Y-122481219D02*
X106905878Y-122420743D01*
X106905878Y-122420743D02*
X106845402Y-122360266D01*
X106845402Y-122360266D02*
X106784926Y-122239314D01*
X106784926Y-122239314D02*
X106784926Y-121936933D01*
X106784926Y-121936933D02*
X106845402Y-121755504D01*
X108054926Y-120545980D02*
X108054926Y-121271695D01*
X108054926Y-120908838D02*
X106784926Y-120908838D01*
X106784926Y-120908838D02*
X106966354Y-121029790D01*
X106966354Y-121029790D02*
X107087307Y-121150742D01*
X107087307Y-121150742D02*
X107147783Y-121271695D01*
D14*
%TO.C,J3*%
X136145000Y-71855000D02*
X136145000Y-70525000D01*
X137475000Y-71855000D02*
X136145000Y-71855000D01*
X138745000Y-71855000D02*
X143885000Y-71855000D01*
X138745000Y-71855000D02*
X138745000Y-69255000D01*
X143885000Y-71855000D02*
X143885000Y-66655000D01*
X136145000Y-69255000D02*
X136145000Y-66655000D01*
X138745000Y-69255000D02*
X136145000Y-69255000D01*
X136145000Y-66655000D02*
X143885000Y-66655000D01*
%TO.C,J1*%
X100056000Y-85233200D02*
X101386000Y-85233200D01*
X100056000Y-86563200D02*
X100056000Y-85233200D01*
X100056000Y-87833200D02*
X100056000Y-110753200D01*
X100056000Y-87833200D02*
X102716000Y-87833200D01*
X100056000Y-110753200D02*
X102716000Y-110753200D01*
X102716000Y-87833200D02*
X102716000Y-110753200D01*
%TO.C,J2*%
X149670000Y-78070000D02*
X151000000Y-78070000D01*
X149670000Y-79400000D02*
X149670000Y-78070000D01*
X149670000Y-80670000D02*
X149670000Y-128990000D01*
X149670000Y-80670000D02*
X152270000Y-80670000D01*
X149670000Y-128990000D02*
X154870000Y-128990000D01*
X152270000Y-78070000D02*
X154870000Y-78070000D01*
X152270000Y-80670000D02*
X152270000Y-78070000D01*
X154870000Y-78070000D02*
X154870000Y-128990000D01*
D15*
%TO.C,J5*%
X110614000Y-65212550D02*
X110614000Y-83412550D01*
X110614000Y-83412550D02*
X112586000Y-83412550D01*
X116942000Y-83412550D02*
X119786000Y-83412550D01*
X126114000Y-65212550D02*
X110614000Y-65212550D01*
X126114000Y-83412550D02*
X124142000Y-83412550D01*
X126114000Y-83412550D02*
X126114000Y-65212550D01*
D14*
%TO.C,J7*%
X95291600Y-94605800D02*
X96621600Y-94605800D01*
X95291600Y-95935800D02*
X95291600Y-94605800D01*
X95291600Y-97205800D02*
X95291600Y-104885800D01*
X95291600Y-97205800D02*
X97951600Y-97205800D01*
X95291600Y-104885800D02*
X97951600Y-104885800D01*
X97951600Y-97205800D02*
X97951600Y-104885800D01*
%TO.C,J6*%
X159020000Y-94670000D02*
X160350000Y-94670000D01*
X159020000Y-96000000D02*
X159020000Y-94670000D01*
X159020000Y-97270000D02*
X159020000Y-104950000D01*
X159020000Y-97270000D02*
X161680000Y-97270000D01*
X159020000Y-104950000D02*
X161680000Y-104950000D01*
X161680000Y-97270000D02*
X161680000Y-104950000D01*
D11*
%TO.C,S1*%
X103402400Y-124513600D02*
X103402400Y-118513600D01*
X111532400Y-124513600D02*
X103402400Y-124513600D01*
X112107400Y-121513600D02*
X112107400Y-121513600D01*
X112207400Y-121513600D02*
X112207400Y-121513600D01*
X103402400Y-118513600D02*
X111532400Y-118513600D01*
X111532400Y-118513600D02*
X111532400Y-124513600D01*
X112207400Y-121513600D02*
G75*
G03*
X112107400Y-121513600I-50000J0D01*
G01*
X112107400Y-121513600D02*
G75*
G03*
X112207400Y-121513600I50000J0D01*
G01*
%TD*%
M02*
