M48
; DRILL file {KiCad 7.0.2-0} date 2024 January 24, Wednesday 17:58:35
; FORMAT={-:-/ absolute / metric / decimal}
; #@! TF.CreationDate,2024-01-24T17:58:35-05:00
; #@! TF.GenerationSoftware,Kicad,Pcbnew,7.0.2-0
; #@! TF.FileFunction,Plated,1,2,PTH
FMAT,2
METRIC
; #@! TA.AperFunction,Plated,PTH,ComponentDrill
T1C0.600
; #@! TA.AperFunction,Plated,PTH,ComponentDrill
T2C0.900
; #@! TA.AperFunction,Plated,PTH,ComponentDrill
T3C1.000
; #@! TA.AperFunction,Plated,PTH,ComponentDrill
T4C1.090
; #@! TA.AperFunction,Plated,PTH,ComponentDrill
T5C2.700
%
G90
G05
T2
X101.252Y-89.078
X101.252Y-91.618
X101.252Y-94.158
X101.252Y-96.698
X101.252Y-99.238
X101.252Y-101.778
X101.252Y-104.318
X101.252Y-106.858
X101.252Y-109.398
X101.252Y-111.938
X101.252Y-114.478
X101.252Y-117.018
X101.252Y-119.558
X101.252Y-122.098
X101.252Y-124.638
X116.492Y-89.078
X116.492Y-91.618
X116.492Y-94.158
X116.492Y-96.698
X116.492Y-99.238
X116.492Y-101.778
X116.492Y-104.318
X116.492Y-106.858
X116.492Y-109.398
X116.492Y-111.938
X116.492Y-114.478
X116.492Y-117.018
X116.492Y-119.558
X116.492Y-122.098
X116.492Y-124.638
T3
X82.829Y-95.936
X82.829Y-98.476
X82.829Y-101.016
X82.829Y-103.556
X96.957Y-108.544
X96.957Y-111.084
X96.957Y-113.624
X96.957Y-116.164
X96.957Y-118.704
X96.957Y-121.244
X96.957Y-123.784
X96.957Y-126.324
X96.957Y-128.864
X96.957Y-131.404
X123.144Y-87.673
X123.144Y-132.423
X137.475Y-67.985
X137.475Y-70.525
X140.015Y-67.985
X140.015Y-70.525
X142.555Y-67.985
X142.555Y-70.525
X142.596Y-132.309
X142.644Y-87.673
X151.0Y-79.4
X151.0Y-81.94
X151.0Y-84.48
X151.0Y-87.02
X151.0Y-89.56
X151.0Y-92.1
X151.0Y-94.64
X151.0Y-97.18
X151.0Y-99.72
X151.0Y-102.26
X151.0Y-104.8
X151.0Y-107.34
X151.0Y-109.88
X151.0Y-112.42
X151.0Y-114.96
X151.0Y-117.5
X151.0Y-120.04
X151.0Y-122.58
X151.0Y-125.12
X151.0Y-127.66
X153.54Y-79.4
X153.54Y-81.94
X153.54Y-84.48
X153.54Y-87.02
X153.54Y-89.56
X153.54Y-92.1
X153.54Y-94.64
X153.54Y-97.18
X153.54Y-99.72
X153.54Y-102.26
X153.54Y-104.8
X153.54Y-107.34
X153.54Y-109.88
X153.54Y-112.42
X153.54Y-114.96
X153.54Y-117.5
X153.54Y-120.04
X153.54Y-122.58
X153.54Y-125.12
X153.54Y-127.66
T4
X130.15Y-75.667
X130.15Y-80.747
T5
X112.199Y-81.489
X119.399Y-81.489
T1
G00X109.049Y-74.939
M15
G01X109.049Y-76.039
M16
G05
G00X122.549Y-74.939
M15
G01X122.549Y-76.039
M16
G05
T0
M30
