%TF.GenerationSoftware,KiCad,Pcbnew,(6.0.2)*%
%TF.CreationDate,2022-04-29T01:07:20-04:00*%
%TF.ProjectId,Spacecraft ATmega328 MOSFET,53706163-6563-4726-9166-742041546d65,rev?*%
%TF.SameCoordinates,Original*%
%TF.FileFunction,Soldermask,Top*%
%TF.FilePolarity,Negative*%
%FSLAX46Y46*%
G04 Gerber Fmt 4.6, Leading zero omitted, Abs format (unit mm)*
G04 Created by KiCad (PCBNEW (6.0.2)) date 2022-04-29 01:07:20*
%MOMM*%
%LPD*%
G01*
G04 APERTURE LIST*
G04 Aperture macros list*
%AMRoundRect*
0 Rectangle with rounded corners*
0 $1 Rounding radius*
0 $2 $3 $4 $5 $6 $7 $8 $9 X,Y pos of 4 corners*
0 Add a 4 corners polygon primitive as box body*
4,1,4,$2,$3,$4,$5,$6,$7,$8,$9,$2,$3,0*
0 Add four circle primitives for the rounded corners*
1,1,$1+$1,$2,$3*
1,1,$1+$1,$4,$5*
1,1,$1+$1,$6,$7*
1,1,$1+$1,$8,$9*
0 Add four rect primitives between the rounded corners*
20,1,$1+$1,$2,$3,$4,$5,0*
20,1,$1+$1,$4,$5,$6,$7,0*
20,1,$1+$1,$6,$7,$8,$9,0*
20,1,$1+$1,$8,$9,$2,$3,0*%
%AMRotRect*
0 Rectangle, with rotation*
0 The origin of the aperture is its center*
0 $1 length*
0 $2 width*
0 $3 Rotation angle, in degrees counterclockwise*
0 Add horizontal line*
21,1,$1,$2,0,0,$3*%
G04 Aperture macros list end*
%ADD10RoundRect,0.225000X0.017678X-0.335876X0.335876X-0.017678X-0.017678X0.335876X-0.335876X0.017678X0*%
%ADD11RoundRect,0.225000X0.250000X-0.225000X0.250000X0.225000X-0.250000X0.225000X-0.250000X-0.225000X0*%
%ADD12RoundRect,0.225000X-0.335876X-0.017678X-0.017678X-0.335876X0.335876X0.017678X0.017678X0.335876X0*%
%ADD13RoundRect,0.250000X-1.450000X0.312500X-1.450000X-0.312500X1.450000X-0.312500X1.450000X0.312500X0*%
%ADD14R,1.700000X1.700000*%
%ADD15O,1.700000X1.700000*%
%ADD16RoundRect,0.250000X-0.503814X-0.132583X-0.132583X-0.503814X0.503814X0.132583X0.132583X0.503814X0*%
%ADD17RoundRect,0.200000X0.053033X-0.335876X0.335876X-0.053033X-0.053033X0.335876X-0.335876X0.053033X0*%
%ADD18RotRect,1.600000X0.550000X315.000000*%
%ADD19RotRect,1.600000X0.550000X45.000000*%
%ADD20C,2.200000*%
%ADD21R,2.000000X5.500000*%
%ADD22R,1.250000X1.000000*%
%ADD23RoundRect,0.225000X-0.250000X0.225000X-0.250000X-0.225000X0.250000X-0.225000X0.250000X0.225000X0*%
%ADD24RoundRect,0.250000X0.450000X-0.262500X0.450000X0.262500X-0.450000X0.262500X-0.450000X-0.262500X0*%
%ADD25RoundRect,0.041300X-0.253700X0.748700X-0.253700X-0.748700X0.253700X-0.748700X0.253700X0.748700X0*%
%ADD26R,1.730000X0.960000*%
%ADD27R,6.490000X5.630000*%
%ADD28RoundRect,0.218750X-0.218750X-0.256250X0.218750X-0.256250X0.218750X0.256250X-0.218750X0.256250X0*%
G04 APERTURE END LIST*
D10*
%TO.C,C2*%
X114251992Y-77648008D03*
X115348008Y-76551992D03*
%TD*%
%TO.C,C1*%
X105151992Y-67948008D03*
X106248008Y-66851992D03*
%TD*%
%TO.C,C3*%
X102651992Y-70448008D03*
X103748008Y-69351992D03*
%TD*%
D11*
%TO.C,C4*%
X100550000Y-73575000D03*
X100550000Y-72025000D03*
%TD*%
D12*
%TO.C,C6*%
X112851992Y-65051992D03*
X113948008Y-66148008D03*
%TD*%
D13*
%TO.C,D2*%
X98800000Y-80962500D03*
X98800000Y-85237500D03*
%TD*%
D14*
%TO.C,J4*%
X104394000Y-90170000D03*
D15*
X106934000Y-90170000D03*
X109474000Y-90170000D03*
%TD*%
D16*
%TO.C,R5*%
X114454765Y-63254765D03*
X115745235Y-64545235D03*
%TD*%
D17*
%TO.C,R7*%
X100716637Y-69683363D03*
X101883363Y-68516637D03*
%TD*%
%TO.C,R8*%
X103316637Y-67083363D03*
X104483363Y-65916637D03*
%TD*%
D18*
%TO.C,328p*%
X109610695Y-67082897D03*
X109045010Y-67648583D03*
X108479324Y-68214268D03*
X107913639Y-68779953D03*
X107347953Y-69345639D03*
X106782268Y-69911324D03*
X106216583Y-70477010D03*
X105650897Y-71042695D03*
D19*
X105650897Y-73093305D03*
X106216583Y-73658990D03*
X106782268Y-74224676D03*
X107347953Y-74790361D03*
X107913639Y-75356047D03*
X108479324Y-75921732D03*
X109045010Y-76487417D03*
X109610695Y-77053103D03*
D18*
X111661305Y-77053103D03*
X112226990Y-76487417D03*
X112792676Y-75921732D03*
X113358361Y-75356047D03*
X113924047Y-74790361D03*
X114489732Y-74224676D03*
X115055417Y-73658990D03*
X115621103Y-73093305D03*
D19*
X115621103Y-71042695D03*
X115055417Y-70477010D03*
X114489732Y-69911324D03*
X113924047Y-69345639D03*
X113358361Y-68779953D03*
X112792676Y-68214268D03*
X112226990Y-67648583D03*
X111661305Y-67082897D03*
%TD*%
D14*
%TO.C,J1*%
X89408000Y-69088000D03*
D15*
X89408000Y-71628000D03*
X89408000Y-74168000D03*
X89408000Y-76708000D03*
%TD*%
D14*
%TO.C,J5*%
X95504000Y-90170000D03*
D15*
X98044000Y-90170000D03*
%TD*%
D20*
%TO.C,H2*%
X90424000Y-89154000D03*
%TD*%
%TO.C,H3*%
X90424000Y-64262000D03*
%TD*%
D21*
%TO.C,Y1*%
X96012000Y-64770000D03*
X96012000Y-74270000D03*
%TD*%
D14*
%TO.C,J3*%
X89408000Y-83820000D03*
D15*
X89408000Y-81280000D03*
X91948000Y-83820000D03*
X91948000Y-81280000D03*
X94488000Y-83820000D03*
X94488000Y-81280000D03*
%TD*%
D17*
%TO.C,R6*%
X107616637Y-65483363D03*
X108783363Y-64316637D03*
%TD*%
D22*
%TO.C,SW1*%
X119300000Y-66325000D03*
X119300000Y-74075000D03*
%TD*%
D20*
%TO.C,H4*%
X122936000Y-89154000D03*
%TD*%
D11*
%TO.C,C7*%
X112700000Y-85275000D03*
X112700000Y-83725000D03*
%TD*%
D23*
%TO.C,C5*%
X112700000Y-80325000D03*
X112700000Y-81875000D03*
%TD*%
D24*
%TO.C,R2*%
X101350000Y-77762500D03*
X101350000Y-75937500D03*
%TD*%
D25*
%TO.C,U2*%
X106045000Y-80350000D03*
X104775000Y-80350000D03*
X103505000Y-80350000D03*
X102235000Y-80350000D03*
X102235000Y-85600000D03*
X103505000Y-85600000D03*
X104775000Y-85600000D03*
X106045000Y-85600000D03*
%TD*%
D26*
%TO.C,VR1*%
X115154000Y-80519000D03*
X115154000Y-85089000D03*
D27*
X122174000Y-82804000D03*
%TD*%
D28*
%TO.C,Rx*%
X103462500Y-62400000D03*
X105037500Y-62400000D03*
%TD*%
%TO.C,Tx*%
X99662500Y-62400000D03*
X101237500Y-62400000D03*
%TD*%
%TO.C,5V*%
X107162500Y-62350000D03*
X108737500Y-62350000D03*
%TD*%
D14*
%TO.C,Jv*%
X115316000Y-90170000D03*
D15*
X117856000Y-90170000D03*
%TD*%
D24*
%TO.C,R3*%
X104050000Y-77762500D03*
X104050000Y-75937500D03*
%TD*%
D13*
%TO.C,D3*%
X109200000Y-80862500D03*
X109200000Y-85137500D03*
%TD*%
D14*
%TO.C,J2*%
X123952000Y-69088000D03*
D15*
X123952000Y-71628000D03*
X123952000Y-74168000D03*
X123952000Y-76708000D03*
%TD*%
D20*
%TO.C,H1*%
X122936000Y-64262000D03*
%TD*%
M02*
