%TF.GenerationSoftware,KiCad,Pcbnew,(6.0.4)*%
%TF.CreationDate,2022-09-23T14:26:36-04:00*%
%TF.ProjectId,CubeSat,43756265-5361-4742-9e6b-696361645f70,rev?*%
%TF.SameCoordinates,Original*%
%TF.FileFunction,Copper,L1,Top*%
%TF.FilePolarity,Positive*%
%FSLAX46Y46*%
G04 Gerber Fmt 4.6, Leading zero omitted, Abs format (unit mm)*
G04 Created by KiCad (PCBNEW (6.0.4)) date 2022-09-23 14:26:36*
%MOMM*%
%LPD*%
G01*
G04 APERTURE LIST*
G04 Aperture macros list*
%AMRoundRect*
0 Rectangle with rounded corners*
0 $1 Rounding radius*
0 $2 $3 $4 $5 $6 $7 $8 $9 X,Y pos of 4 corners*
0 Add a 4 corners polygon primitive as box body*
4,1,4,$2,$3,$4,$5,$6,$7,$8,$9,$2,$3,0*
0 Add four circle primitives for the rounded corners*
1,1,$1+$1,$2,$3*
1,1,$1+$1,$4,$5*
1,1,$1+$1,$6,$7*
1,1,$1+$1,$8,$9*
0 Add four rect primitives between the rounded corners*
20,1,$1+$1,$2,$3,$4,$5,0*
20,1,$1+$1,$4,$5,$6,$7,0*
20,1,$1+$1,$6,$7,$8,$9,0*
20,1,$1+$1,$8,$9,$2,$3,0*%
G04 Aperture macros list end*
%TA.AperFunction,ComponentPad*%
%ADD10R,1.700000X1.700000*%
%TD*%
%TA.AperFunction,ComponentPad*%
%ADD11O,1.700000X1.700000*%
%TD*%
%TA.AperFunction,ComponentPad*%
%ADD12RoundRect,0.750000X-0.750000X-4.250000X0.750000X-4.250000X0.750000X4.250000X-0.750000X4.250000X0*%
%TD*%
%TA.AperFunction,ComponentPad*%
%ADD13R,2.000000X2.000000*%
%TD*%
%TA.AperFunction,ViaPad*%
%ADD14C,0.800000*%
%TD*%
%TA.AperFunction,Conductor*%
%ADD15C,0.250000*%
%TD*%
%TA.AperFunction,Conductor*%
%ADD16C,1.000000*%
%TD*%
G04 APERTURE END LIST*
D10*
%TO.P,J4,1,Pin_1*%
%TO.N,/3.3V*%
X111800000Y-57390000D03*
D11*
%TO.P,J4,2,Pin_2*%
%TO.N,/5VB*%
X114340000Y-57390000D03*
%TO.P,J4,3,Pin_3*%
%TO.N,/SDA*%
X111800000Y-59930000D03*
%TO.P,J4,4,Pin_4*%
%TO.N,unconnected-(J4-Pad4)*%
X114340000Y-59930000D03*
%TO.P,J4,5,Pin_5*%
%TO.N,/SCL*%
X111800000Y-62470000D03*
%TO.P,J4,6,Pin_6*%
%TO.N,unconnected-(J4-Pad6)*%
X114340000Y-62470000D03*
%TO.P,J4,7,Pin_7*%
%TO.N,unconnected-(J4-Pad7)*%
X111800000Y-65010000D03*
%TO.P,J4,8,Pin_8*%
%TO.N,unconnected-(J4-Pad8)*%
X114340000Y-65010000D03*
%TO.P,J4,9,Pin_9*%
%TO.N,unconnected-(J4-Pad9)*%
X111800000Y-67550000D03*
%TO.P,J4,10,Pin_10*%
%TO.N,unconnected-(J4-Pad10)*%
X114340000Y-67550000D03*
%TO.P,J4,11,Pin_11*%
%TO.N,unconnected-(J4-Pad11)*%
X111800000Y-70090000D03*
%TO.P,J4,12,Pin_12*%
%TO.N,unconnected-(J4-Pad12)*%
X114340000Y-70090000D03*
%TO.P,J4,13,Pin_13*%
%TO.N,unconnected-(J4-Pad13)*%
X111800000Y-72630000D03*
%TO.P,J4,14,Pin_14*%
%TO.N,unconnected-(J4-Pad14)*%
X114340000Y-72630000D03*
%TO.P,J4,15,Pin_15*%
%TO.N,unconnected-(J4-Pad15)*%
X111800000Y-75170000D03*
%TO.P,J4,16,Pin_16*%
%TO.N,unconnected-(J4-Pad16)*%
X114340000Y-75170000D03*
%TO.P,J4,17,Pin_17*%
%TO.N,unconnected-(J4-Pad17)*%
X111800000Y-77710000D03*
%TO.P,J4,18,Pin_18*%
%TO.N,unconnected-(J4-Pad18)*%
X114340000Y-77710000D03*
%TO.P,J4,19,Pin_19*%
%TO.N,unconnected-(J4-Pad19)*%
X111800000Y-80250000D03*
%TO.P,J4,20,Pin_20*%
%TO.N,unconnected-(J4-Pad20)*%
X114340000Y-80250000D03*
%TO.P,J4,21,Pin_21*%
%TO.N,unconnected-(J4-Pad21)*%
X111800000Y-82790000D03*
%TO.P,J4,22,Pin_22*%
%TO.N,unconnected-(J4-Pad22)*%
X114340000Y-82790000D03*
%TO.P,J4,23,Pin_23*%
%TO.N,unconnected-(J4-Pad23)*%
X111800000Y-85330000D03*
%TO.P,J4,24,Pin_24*%
%TO.N,unconnected-(J4-Pad24)*%
X114340000Y-85330000D03*
%TO.P,J4,25,Pin_25*%
%TO.N,unconnected-(J4-Pad25)*%
X111800000Y-87870000D03*
%TO.P,J4,26,Pin_26*%
%TO.N,unconnected-(J4-Pad26)*%
X114340000Y-87870000D03*
%TO.P,J4,27,Pin_27*%
%TO.N,unconnected-(J4-Pad27)*%
X111800000Y-90410000D03*
%TO.P,J4,28,Pin_28*%
%TO.N,unconnected-(J4-Pad28)*%
X114340000Y-90410000D03*
%TO.P,J4,29,Pin_29*%
%TO.N,/brake*%
X111800000Y-92950000D03*
%TO.P,J4,30,Pin_30*%
%TO.N,unconnected-(J4-Pad30)*%
X114340000Y-92950000D03*
%TO.P,J4,31,Pin_31*%
%TO.N,/CW{slash}CCW*%
X111800000Y-95490000D03*
%TO.P,J4,32,Pin_32*%
%TO.N,/PWM*%
X114340000Y-95490000D03*
%TO.P,J4,33,Pin_33*%
%TO.N,/CHB*%
X111800000Y-98030000D03*
%TO.P,J4,34,Pin_34*%
%TO.N,unconnected-(J4-Pad34)*%
X114340000Y-98030000D03*
%TO.P,J4,35,Pin_35*%
%TO.N,/CHA*%
X111800000Y-100570000D03*
%TO.P,J4,36,Pin_36*%
%TO.N,unconnected-(J4-Pad36)*%
X114340000Y-100570000D03*
%TO.P,J4,37,Pin_37*%
%TO.N,unconnected-(J4-Pad37)*%
X111800000Y-103110000D03*
%TO.P,J4,38,Pin_38*%
%TO.N,unconnected-(J4-Pad38)*%
X114340000Y-103110000D03*
%TO.P,J4,39,Pin_39*%
%TO.N,unconnected-(J4-Pad39)*%
X111800000Y-105650000D03*
%TO.P,J4,40,Pin_40*%
%TO.N,unconnected-(J4-Pad40)*%
X114340000Y-105650000D03*
%TD*%
D12*
%TO.P,J1,GND,Pin_1*%
%TO.N,GND*%
X150276000Y-63819000D03*
%TO.P,J1,VCC,Pin_2*%
%TO.N,VCC*%
X127924000Y-63819000D03*
%TD*%
D10*
%TO.P,J2,1,Pin_1*%
%TO.N,/3.3V*%
X158800000Y-60600000D03*
D11*
%TO.P,J2,2,Pin_2*%
%TO.N,unconnected-(J2-Pad2)*%
X161340000Y-60600000D03*
%TO.P,J2,3,Pin_3*%
%TO.N,GND*%
X163880000Y-60600000D03*
%TO.P,J2,4,Pin_4*%
%TO.N,/SCL*%
X166420000Y-60600000D03*
%TO.P,J2,5,Pin_5*%
%TO.N,/SDA*%
X168960000Y-60600000D03*
%TO.P,J2,6,Pin_6*%
%TO.N,unconnected-(J2-Pad6)*%
X171500000Y-60600000D03*
%TD*%
D13*
%TO.P,U1,1,IN+*%
%TO.N,VCC*%
X163700000Y-106900000D03*
%TO.P,U1,2,IN-*%
%TO.N,GND*%
X180800000Y-106750000D03*
%TO.P,U1,3,OUT+*%
%TO.N,/5VB*%
X163552000Y-67464000D03*
%TO.P,U1,4,OUT-*%
%TO.N,GND*%
X180700000Y-67200000D03*
%TD*%
D10*
%TO.P,J3,1,Pin_1*%
%TO.N,VCC*%
X130300000Y-49900000D03*
D11*
%TO.P,J3,2,Pin_2*%
%TO.N,GND*%
X132840000Y-49900000D03*
%TO.P,J3,3,Pin_3*%
%TO.N,/brake*%
X135380000Y-49900000D03*
%TO.P,J3,4,Pin_4*%
%TO.N,/PWM*%
X137920000Y-49900000D03*
%TO.P,J3,5,Pin_5*%
%TO.N,/CW{slash}CCW*%
X140460000Y-49900000D03*
%TO.P,J3,6,Pin_6*%
%TO.N,unconnected-(J3-Pad6)*%
X143000000Y-49900000D03*
%TO.P,J3,7,Pin_7*%
%TO.N,/CHB*%
X145540000Y-49900000D03*
%TO.P,J3,8,Pin_8*%
%TO.N,/CHA*%
X148080000Y-49900000D03*
%TD*%
D14*
%TO.N,/SCL*%
X144597848Y-59003704D03*
%TO.N,/SDA*%
X145100000Y-58139500D03*
%TD*%
D15*
%TO.N,/SDA*%
X166010480Y-57650480D02*
X168960000Y-60600000D01*
X147060500Y-58139500D02*
X147549520Y-57650480D01*
X147549520Y-57650480D02*
X166010480Y-57650480D01*
X145100000Y-58139500D02*
X147060500Y-58139500D01*
%TO.N,/SCL*%
X147800000Y-58100000D02*
X163920000Y-58100000D01*
X146896296Y-59003704D02*
X147800000Y-58100000D01*
X163920000Y-58100000D02*
X166420000Y-60600000D01*
X144597848Y-59003704D02*
X146896296Y-59003704D01*
%TO.N,/CHA*%
X144480000Y-46300000D02*
X148080000Y-49900000D01*
X111564282Y-46300000D02*
X144480000Y-46300000D01*
X107701920Y-50162363D02*
X111564282Y-46300000D01*
X111800000Y-100570000D02*
X107701920Y-96471920D01*
X107701920Y-96471920D02*
X107701920Y-50162363D01*
%TO.N,/CHB*%
X142391440Y-46751440D02*
X145540000Y-49900000D01*
X111748560Y-46751440D02*
X142391440Y-46751440D01*
X108151440Y-50348560D02*
X111748560Y-46751440D01*
X108151440Y-94381440D02*
X108151440Y-50348560D01*
X111800000Y-98030000D02*
X108151440Y-94381440D01*
%TO.N,/CW{slash}CCW*%
X108600960Y-50563322D02*
X111963323Y-47200960D01*
X111963323Y-47200960D02*
X137760960Y-47200960D01*
X108600960Y-92290960D02*
X108600960Y-50563322D01*
X137760960Y-47200960D02*
X140460000Y-49900000D01*
X111800000Y-95490000D02*
X108600960Y-92290960D01*
%TO.N,/PWM*%
X135670480Y-47650480D02*
X137920000Y-49900000D01*
X112149520Y-47650480D02*
X135670480Y-47650480D01*
X109050480Y-50749520D02*
X112149520Y-47650480D01*
X109050480Y-92050480D02*
X109050480Y-50749520D01*
X111200000Y-94200000D02*
X109050480Y-92050480D01*
X113050000Y-94200000D02*
X111200000Y-94200000D01*
X114340000Y-95490000D02*
X113050000Y-94200000D01*
%TO.N,/brake*%
X133580000Y-48100000D02*
X135380000Y-49900000D01*
X112400000Y-48100000D02*
X133580000Y-48100000D01*
X109500000Y-51000000D02*
X112400000Y-48100000D01*
X109500000Y-90650000D02*
X109500000Y-51000000D01*
X111800000Y-92950000D02*
X109500000Y-90650000D01*
D16*
%TO.N,VCC*%
X130300000Y-61443000D02*
X130300000Y-49900000D01*
X127924000Y-63819000D02*
X130300000Y-61443000D01*
%TD*%
%TA.AperFunction,Conductor*%
%TO.N,GND*%
G36*
X182433621Y-45528502D02*
G01*
X182480114Y-45582158D01*
X182491500Y-45634500D01*
X182491500Y-105454461D01*
X182471498Y-105522582D01*
X182417842Y-105569075D01*
X182347568Y-105579179D01*
X182282988Y-105549685D01*
X182254980Y-105514970D01*
X182244788Y-105496354D01*
X182168285Y-105394276D01*
X182155724Y-105381715D01*
X182053649Y-105305214D01*
X182038054Y-105296676D01*
X181917606Y-105251522D01*
X181902351Y-105247895D01*
X181851486Y-105242369D01*
X181844672Y-105242000D01*
X181072115Y-105242000D01*
X181056876Y-105246475D01*
X181055671Y-105247865D01*
X181054000Y-105255548D01*
X181054000Y-108239884D01*
X181058475Y-108255123D01*
X181059865Y-108256328D01*
X181067548Y-108257999D01*
X181844669Y-108257999D01*
X181851490Y-108257629D01*
X181902352Y-108252105D01*
X181917604Y-108248479D01*
X182038054Y-108203324D01*
X182053649Y-108194786D01*
X182155724Y-108118285D01*
X182168285Y-108105724D01*
X182244788Y-108003646D01*
X182254980Y-107985030D01*
X182305238Y-107934884D01*
X182374629Y-107919870D01*
X182441122Y-107944755D01*
X182483605Y-108001638D01*
X182491500Y-108045539D01*
X182491500Y-117365500D01*
X182471498Y-117433621D01*
X182417842Y-117480114D01*
X182365500Y-117491500D01*
X150634500Y-117491500D01*
X150566379Y-117471498D01*
X150519886Y-117417842D01*
X150508500Y-117365500D01*
X150508500Y-114107655D01*
X177239858Y-114107655D01*
X177275104Y-114366638D01*
X177276412Y-114371124D01*
X177276412Y-114371126D01*
X177296098Y-114438664D01*
X177348243Y-114617567D01*
X177457668Y-114854928D01*
X177460231Y-114858837D01*
X177598410Y-115069596D01*
X177598414Y-115069601D01*
X177600976Y-115073509D01*
X177775018Y-115268506D01*
X177975970Y-115435637D01*
X177979973Y-115438066D01*
X178195422Y-115568804D01*
X178195426Y-115568806D01*
X178199419Y-115571229D01*
X178440455Y-115672303D01*
X178693783Y-115736641D01*
X178698434Y-115737109D01*
X178698438Y-115737110D01*
X178891308Y-115756531D01*
X178910867Y-115758500D01*
X179066354Y-115758500D01*
X179068679Y-115758327D01*
X179068685Y-115758327D01*
X179256000Y-115744407D01*
X179256004Y-115744406D01*
X179260652Y-115744061D01*
X179265200Y-115743032D01*
X179265206Y-115743031D01*
X179451601Y-115700853D01*
X179515577Y-115686377D01*
X179551769Y-115672303D01*
X179754824Y-115593340D01*
X179754827Y-115593339D01*
X179759177Y-115591647D01*
X179986098Y-115461951D01*
X180191357Y-115300138D01*
X180370443Y-115109763D01*
X180519424Y-114895009D01*
X180635025Y-114660593D01*
X180714707Y-114411665D01*
X180756721Y-114153693D01*
X180760142Y-113892345D01*
X180724896Y-113633362D01*
X180710473Y-113583877D01*
X180653068Y-113386932D01*
X180651757Y-113382433D01*
X180542332Y-113145072D01*
X180509519Y-113095024D01*
X180401590Y-112930404D01*
X180401586Y-112930399D01*
X180399024Y-112926491D01*
X180224982Y-112731494D01*
X180024030Y-112564363D01*
X179976844Y-112535730D01*
X179804578Y-112431196D01*
X179804574Y-112431194D01*
X179800581Y-112428771D01*
X179559545Y-112327697D01*
X179306217Y-112263359D01*
X179301566Y-112262891D01*
X179301562Y-112262890D01*
X179092271Y-112241816D01*
X179089133Y-112241500D01*
X178933646Y-112241500D01*
X178931321Y-112241673D01*
X178931315Y-112241673D01*
X178744000Y-112255593D01*
X178743996Y-112255594D01*
X178739348Y-112255939D01*
X178734800Y-112256968D01*
X178734794Y-112256969D01*
X178548399Y-112299147D01*
X178484423Y-112313623D01*
X178480071Y-112315315D01*
X178480069Y-112315316D01*
X178245176Y-112406660D01*
X178245173Y-112406661D01*
X178240823Y-112408353D01*
X178013902Y-112538049D01*
X177808643Y-112699862D01*
X177629557Y-112890237D01*
X177480576Y-113104991D01*
X177364975Y-113339407D01*
X177285293Y-113588335D01*
X177243279Y-113846307D01*
X177239858Y-114107655D01*
X150508500Y-114107655D01*
X150508500Y-108362659D01*
X150528502Y-108294538D01*
X150569101Y-108254961D01*
X150573805Y-108252105D01*
X151061252Y-107956104D01*
X151073217Y-107948134D01*
X162191500Y-107948134D01*
X162198255Y-108010316D01*
X162249385Y-108146705D01*
X162336739Y-108263261D01*
X162453295Y-108350615D01*
X162589684Y-108401745D01*
X162651866Y-108408500D01*
X164748134Y-108408500D01*
X164810316Y-108401745D01*
X164946705Y-108350615D01*
X165063261Y-108263261D01*
X165150615Y-108146705D01*
X165201745Y-108010316D01*
X165208500Y-107948134D01*
X165208500Y-107794669D01*
X179292001Y-107794669D01*
X179292371Y-107801490D01*
X179297895Y-107852352D01*
X179301521Y-107867604D01*
X179346676Y-107988054D01*
X179355214Y-108003649D01*
X179431715Y-108105724D01*
X179444276Y-108118285D01*
X179546351Y-108194786D01*
X179561946Y-108203324D01*
X179682394Y-108248478D01*
X179697649Y-108252105D01*
X179748514Y-108257631D01*
X179755328Y-108258000D01*
X180527885Y-108258000D01*
X180543124Y-108253525D01*
X180544329Y-108252135D01*
X180546000Y-108244452D01*
X180546000Y-107022115D01*
X180541525Y-107006876D01*
X180540135Y-107005671D01*
X180532452Y-107004000D01*
X179310116Y-107004000D01*
X179294877Y-107008475D01*
X179293672Y-107009865D01*
X179292001Y-107017548D01*
X179292001Y-107794669D01*
X165208500Y-107794669D01*
X165208500Y-106477885D01*
X179292000Y-106477885D01*
X179296475Y-106493124D01*
X179297865Y-106494329D01*
X179305548Y-106496000D01*
X180527885Y-106496000D01*
X180543124Y-106491525D01*
X180544329Y-106490135D01*
X180546000Y-106482452D01*
X180546000Y-105260116D01*
X180541525Y-105244877D01*
X180540135Y-105243672D01*
X180532452Y-105242001D01*
X179755331Y-105242001D01*
X179748510Y-105242371D01*
X179697648Y-105247895D01*
X179682396Y-105251521D01*
X179561946Y-105296676D01*
X179546351Y-105305214D01*
X179444276Y-105381715D01*
X179431715Y-105394276D01*
X179355214Y-105496351D01*
X179346676Y-105511946D01*
X179301522Y-105632394D01*
X179297895Y-105647649D01*
X179292369Y-105698514D01*
X179292000Y-105705328D01*
X179292000Y-106477885D01*
X165208500Y-106477885D01*
X165208500Y-105851866D01*
X165201745Y-105789684D01*
X165150615Y-105653295D01*
X165063261Y-105536739D01*
X164946705Y-105449385D01*
X164810316Y-105398255D01*
X164748134Y-105391500D01*
X162651866Y-105391500D01*
X162589684Y-105398255D01*
X162453295Y-105449385D01*
X162336739Y-105536739D01*
X162249385Y-105653295D01*
X162198255Y-105789684D01*
X162191500Y-105851866D01*
X162191500Y-107948134D01*
X151073217Y-107948134D01*
X151844119Y-107434650D01*
X151845177Y-107433879D01*
X151845192Y-107433869D01*
X152424782Y-107011753D01*
X152604473Y-106880884D01*
X152609701Y-106876731D01*
X153339958Y-106296592D01*
X153339972Y-106296580D01*
X153340982Y-106295778D01*
X154052355Y-105680357D01*
X154053293Y-105679474D01*
X154053311Y-105679458D01*
X154736362Y-105036625D01*
X154737345Y-105035700D01*
X155394752Y-104362936D01*
X156023423Y-103663245D01*
X156622257Y-102937853D01*
X157190203Y-102188032D01*
X157726267Y-101415096D01*
X158079005Y-100858069D01*
X158228800Y-100621520D01*
X158228805Y-100621512D01*
X158229509Y-100620400D01*
X158699046Y-99805336D01*
X158961688Y-99301797D01*
X159133429Y-98972536D01*
X159133438Y-98972518D01*
X159134056Y-98971333D01*
X159134623Y-98970125D01*
X159134633Y-98970105D01*
X159533213Y-98121055D01*
X159533218Y-98121044D01*
X159533777Y-98119853D01*
X159572859Y-98026646D01*
X159896999Y-97253601D01*
X159897009Y-97253576D01*
X159897507Y-97252388D01*
X160224609Y-96370459D01*
X160293658Y-96157325D01*
X160514110Y-95476846D01*
X160514111Y-95476842D01*
X160514510Y-95475611D01*
X160766702Y-94569414D01*
X160902677Y-93987529D01*
X160980445Y-93654732D01*
X160980449Y-93654714D01*
X160980743Y-93653455D01*
X161156257Y-92729339D01*
X161250388Y-92088401D01*
X161292747Y-91799982D01*
X161292748Y-91799973D01*
X161292937Y-91798687D01*
X161390544Y-90863130D01*
X161446021Y-89970702D01*
X161448824Y-89925618D01*
X161448825Y-89925594D01*
X161448905Y-89924307D01*
X161452786Y-89732401D01*
X161467893Y-88985199D01*
X161467920Y-88983864D01*
X161461318Y-88678990D01*
X161447584Y-88044767D01*
X161447583Y-88044745D01*
X161447555Y-88043449D01*
X161422361Y-87647361D01*
X161387928Y-87106024D01*
X161387926Y-87106001D01*
X161387844Y-87104711D01*
X161381276Y-87042617D01*
X161289034Y-86170613D01*
X161289031Y-86170591D01*
X161288894Y-86169294D01*
X161283168Y-86130688D01*
X161151074Y-85240168D01*
X161151074Y-85240167D01*
X161150877Y-85238840D01*
X160974036Y-84314977D01*
X160758680Y-83399326D01*
X160728593Y-83291811D01*
X160505544Y-82494768D01*
X160505187Y-82493492D01*
X160390591Y-82141492D01*
X160214405Y-81600305D01*
X160214400Y-81600291D01*
X160214000Y-81599062D01*
X159974812Y-80956994D01*
X159886089Y-80718830D01*
X159886084Y-80718818D01*
X159885632Y-80717604D01*
X159520656Y-79850662D01*
X159119713Y-78999757D01*
X159115076Y-78990897D01*
X158766329Y-78324616D01*
X158683505Y-78166380D01*
X158652419Y-78112596D01*
X158288139Y-77482342D01*
X158212798Y-77351991D01*
X157708415Y-76558018D01*
X157171241Y-75785853D01*
X156602219Y-75036848D01*
X156183063Y-74530590D01*
X156003182Y-74313330D01*
X156003179Y-74313327D01*
X156002344Y-74312318D01*
X155876851Y-74173051D01*
X155373538Y-73614496D01*
X155373527Y-73614485D01*
X155372668Y-73613531D01*
X155371776Y-73612621D01*
X155371764Y-73612608D01*
X154803361Y-73032596D01*
X154714296Y-72941712D01*
X154713359Y-72940833D01*
X154713345Y-72940819D01*
X154115408Y-72379707D01*
X154028380Y-72298039D01*
X153449019Y-71798277D01*
X153317118Y-71684498D01*
X153317106Y-71684488D01*
X153316124Y-71683641D01*
X153252256Y-71633051D01*
X152579829Y-71100428D01*
X152578775Y-71099593D01*
X152529671Y-71063938D01*
X152156569Y-70793028D01*
X151817626Y-70546920D01*
X151735815Y-70492596D01*
X151035122Y-70027328D01*
X151035120Y-70027327D01*
X151034012Y-70026591D01*
X151032893Y-70025914D01*
X151032873Y-70025901D01*
X150230444Y-69540206D01*
X150230443Y-69540206D01*
X150229304Y-69539516D01*
X150082646Y-69458934D01*
X150032576Y-69408600D01*
X150017667Y-69339186D01*
X150020201Y-69321722D01*
X150022000Y-69313452D01*
X150022000Y-69308884D01*
X150530000Y-69308884D01*
X150534475Y-69324123D01*
X150535865Y-69325328D01*
X150543548Y-69326999D01*
X151085961Y-69326999D01*
X151091071Y-69326791D01*
X151224767Y-69315918D01*
X151235320Y-69314148D01*
X151442185Y-69261033D01*
X151452731Y-69257299D01*
X151646705Y-69168490D01*
X151656412Y-69162954D01*
X151831597Y-69041197D01*
X151840176Y-69034024D01*
X151991024Y-68883176D01*
X151998197Y-68874597D01*
X152119954Y-68699412D01*
X152125490Y-68689705D01*
X152206789Y-68512134D01*
X162043500Y-68512134D01*
X162050255Y-68574316D01*
X162101385Y-68710705D01*
X162188739Y-68827261D01*
X162305295Y-68914615D01*
X162441684Y-68965745D01*
X162503866Y-68972500D01*
X164600134Y-68972500D01*
X164662316Y-68965745D01*
X164798705Y-68914615D01*
X164915261Y-68827261D01*
X165002615Y-68710705D01*
X165053745Y-68574316D01*
X165060500Y-68512134D01*
X165060500Y-68244669D01*
X179192001Y-68244669D01*
X179192371Y-68251490D01*
X179197895Y-68302352D01*
X179201521Y-68317604D01*
X179246676Y-68438054D01*
X179255214Y-68453649D01*
X179331715Y-68555724D01*
X179344276Y-68568285D01*
X179446351Y-68644786D01*
X179461946Y-68653324D01*
X179582394Y-68698478D01*
X179597649Y-68702105D01*
X179648514Y-68707631D01*
X179655328Y-68708000D01*
X180427885Y-68708000D01*
X180443124Y-68703525D01*
X180444329Y-68702135D01*
X180446000Y-68694452D01*
X180446000Y-68689884D01*
X180954000Y-68689884D01*
X180958475Y-68705123D01*
X180959865Y-68706328D01*
X180967548Y-68707999D01*
X181744669Y-68707999D01*
X181751490Y-68707629D01*
X181802352Y-68702105D01*
X181817604Y-68698479D01*
X181938054Y-68653324D01*
X181953649Y-68644786D01*
X182055724Y-68568285D01*
X182068285Y-68555724D01*
X182144786Y-68453649D01*
X182153324Y-68438054D01*
X182198478Y-68317606D01*
X182202105Y-68302351D01*
X182207631Y-68251486D01*
X182208000Y-68244672D01*
X182208000Y-67472115D01*
X182203525Y-67456876D01*
X182202135Y-67455671D01*
X182194452Y-67454000D01*
X180972115Y-67454000D01*
X180956876Y-67458475D01*
X180955671Y-67459865D01*
X180954000Y-67467548D01*
X180954000Y-68689884D01*
X180446000Y-68689884D01*
X180446000Y-67472115D01*
X180441525Y-67456876D01*
X180440135Y-67455671D01*
X180432452Y-67454000D01*
X179210116Y-67454000D01*
X179194877Y-67458475D01*
X179193672Y-67459865D01*
X179192001Y-67467548D01*
X179192001Y-68244669D01*
X165060500Y-68244669D01*
X165060500Y-66927885D01*
X179192000Y-66927885D01*
X179196475Y-66943124D01*
X179197865Y-66944329D01*
X179205548Y-66946000D01*
X180427885Y-66946000D01*
X180443124Y-66941525D01*
X180444329Y-66940135D01*
X180446000Y-66932452D01*
X180446000Y-66927885D01*
X180954000Y-66927885D01*
X180958475Y-66943124D01*
X180959865Y-66944329D01*
X180967548Y-66946000D01*
X182189884Y-66946000D01*
X182205123Y-66941525D01*
X182206328Y-66940135D01*
X182207999Y-66932452D01*
X182207999Y-66155331D01*
X182207629Y-66148510D01*
X182202105Y-66097648D01*
X182198479Y-66082396D01*
X182153324Y-65961946D01*
X182144786Y-65946351D01*
X182068285Y-65844276D01*
X182055724Y-65831715D01*
X181953649Y-65755214D01*
X181938054Y-65746676D01*
X181817606Y-65701522D01*
X181802351Y-65697895D01*
X181751486Y-65692369D01*
X181744672Y-65692000D01*
X180972115Y-65692000D01*
X180956876Y-65696475D01*
X180955671Y-65697865D01*
X180954000Y-65705548D01*
X180954000Y-66927885D01*
X180446000Y-66927885D01*
X180446000Y-65710116D01*
X180441525Y-65694877D01*
X180440135Y-65693672D01*
X180432452Y-65692001D01*
X179655331Y-65692001D01*
X179648510Y-65692371D01*
X179597648Y-65697895D01*
X179582396Y-65701521D01*
X179461946Y-65746676D01*
X179446351Y-65755214D01*
X179344276Y-65831715D01*
X179331715Y-65844276D01*
X179255214Y-65946351D01*
X179246676Y-65961946D01*
X179201522Y-66082394D01*
X179197895Y-66097649D01*
X179192369Y-66148514D01*
X179192000Y-66155328D01*
X179192000Y-66927885D01*
X165060500Y-66927885D01*
X165060500Y-66415866D01*
X165053745Y-66353684D01*
X165002615Y-66217295D01*
X164915261Y-66100739D01*
X164798705Y-66013385D01*
X164662316Y-65962255D01*
X164600134Y-65955500D01*
X162503866Y-65955500D01*
X162441684Y-65962255D01*
X162305295Y-66013385D01*
X162188739Y-66100739D01*
X162101385Y-66217295D01*
X162050255Y-66353684D01*
X162043500Y-66415866D01*
X162043500Y-68512134D01*
X152206789Y-68512134D01*
X152214299Y-68495731D01*
X152218033Y-68485185D01*
X152271147Y-68278321D01*
X152272918Y-68267766D01*
X152283793Y-68134070D01*
X152284000Y-68128964D01*
X152284000Y-64091115D01*
X152279525Y-64075876D01*
X152278135Y-64074671D01*
X152270452Y-64073000D01*
X150548115Y-64073000D01*
X150532876Y-64077475D01*
X150531671Y-64078865D01*
X150530000Y-64086548D01*
X150530000Y-69308884D01*
X150022000Y-69308884D01*
X150022000Y-64091115D01*
X150017525Y-64075876D01*
X150016135Y-64074671D01*
X150008452Y-64073000D01*
X148286116Y-64073000D01*
X148270877Y-64077475D01*
X148269672Y-64078865D01*
X148268001Y-64086548D01*
X148268001Y-68128961D01*
X148268209Y-68134071D01*
X148279082Y-68267767D01*
X148280852Y-68278317D01*
X148292846Y-68325030D01*
X148290414Y-68395985D01*
X148250007Y-68454361D01*
X148184453Y-68481625D01*
X148119578Y-68471483D01*
X148116474Y-68470102D01*
X147702903Y-68286063D01*
X147683329Y-68278317D01*
X146829497Y-67940431D01*
X146829483Y-67940426D01*
X146828263Y-67939943D01*
X145939902Y-67630736D01*
X145938662Y-67630362D01*
X145938638Y-67630354D01*
X145040627Y-67359360D01*
X145040618Y-67359357D01*
X145039377Y-67358983D01*
X144128266Y-67125161D01*
X143208167Y-66929680D01*
X142719427Y-66847054D01*
X142281996Y-66773102D01*
X142281983Y-66773100D01*
X142280693Y-66772882D01*
X141347468Y-66655043D01*
X141167473Y-66639935D01*
X140411433Y-66576478D01*
X140411412Y-66576477D01*
X140410129Y-66576369D01*
X140408825Y-66576314D01*
X140408819Y-66576314D01*
X139471639Y-66537052D01*
X139471623Y-66537052D01*
X139470318Y-66536997D01*
X138529682Y-66536997D01*
X138528377Y-66537052D01*
X138528361Y-66537052D01*
X137591181Y-66576314D01*
X137591175Y-66576314D01*
X137589871Y-66576369D01*
X137588588Y-66576477D01*
X137588567Y-66576478D01*
X136832527Y-66639935D01*
X136652532Y-66655043D01*
X135719307Y-66772882D01*
X135718017Y-66773100D01*
X135718004Y-66773102D01*
X135280573Y-66847054D01*
X134791833Y-66929680D01*
X133871734Y-67125161D01*
X132960623Y-67358983D01*
X132959382Y-67359357D01*
X132959373Y-67359360D01*
X132061362Y-67630354D01*
X132061338Y-67630362D01*
X132060098Y-67630736D01*
X131171737Y-67939943D01*
X131170517Y-67940426D01*
X131170503Y-67940431D01*
X130316671Y-68278317D01*
X130297097Y-68286063D01*
X130295893Y-68286599D01*
X130295853Y-68286616D01*
X130099797Y-68373861D01*
X130029428Y-68383283D01*
X129965137Y-68353164D01*
X129927335Y-68293068D01*
X129922985Y-68248531D01*
X129932293Y-68134094D01*
X129932294Y-68134070D01*
X129932500Y-68131542D01*
X129932500Y-63288924D01*
X129952502Y-63220803D01*
X129969405Y-63199829D01*
X130969379Y-62199855D01*
X130979522Y-62190753D01*
X131004218Y-62170897D01*
X131009025Y-62167032D01*
X131041320Y-62128544D01*
X131044478Y-62124925D01*
X131046124Y-62123110D01*
X131048309Y-62120925D01*
X131050264Y-62118545D01*
X131050273Y-62118535D01*
X131075549Y-62087764D01*
X131076391Y-62086749D01*
X131132194Y-62020245D01*
X131136154Y-62015526D01*
X131138723Y-62010852D01*
X131142102Y-62006739D01*
X131185975Y-61924915D01*
X131186584Y-61923793D01*
X131195715Y-61907185D01*
X131231433Y-61842213D01*
X131233045Y-61837131D01*
X131235562Y-61832437D01*
X131262762Y-61743469D01*
X131263108Y-61742358D01*
X131270572Y-61718831D01*
X131291235Y-61653694D01*
X131291829Y-61648398D01*
X131293387Y-61643302D01*
X131302790Y-61550743D01*
X131302911Y-61549607D01*
X131308500Y-61499773D01*
X131308500Y-61496246D01*
X131308555Y-61495261D01*
X131309002Y-61489581D01*
X131313374Y-61446538D01*
X131309059Y-61400891D01*
X131308500Y-61389033D01*
X131308500Y-59003704D01*
X143684344Y-59003704D01*
X143685034Y-59010269D01*
X143699998Y-59152639D01*
X143704306Y-59193632D01*
X143763321Y-59375260D01*
X143858808Y-59540648D01*
X143863226Y-59545555D01*
X143863227Y-59545556D01*
X143974906Y-59669588D01*
X143986595Y-59682570D01*
X144068583Y-59742138D01*
X144110534Y-59772617D01*
X144141096Y-59794822D01*
X144147124Y-59797506D01*
X144147126Y-59797507D01*
X144309529Y-59869813D01*
X144315560Y-59872498D01*
X144405249Y-59891562D01*
X144495904Y-59910832D01*
X144495909Y-59910832D01*
X144502361Y-59912204D01*
X144693335Y-59912204D01*
X144699787Y-59910832D01*
X144699792Y-59910832D01*
X144790447Y-59891562D01*
X144880136Y-59872498D01*
X144886167Y-59869813D01*
X145048570Y-59797507D01*
X145048572Y-59797506D01*
X145054600Y-59794822D01*
X145085163Y-59772617D01*
X145189189Y-59697037D01*
X145209101Y-59682570D01*
X145213516Y-59677667D01*
X145218428Y-59673244D01*
X145219553Y-59674493D01*
X145272862Y-59641653D01*
X145306048Y-59637204D01*
X146817529Y-59637204D01*
X146828712Y-59637731D01*
X146836205Y-59639406D01*
X146844131Y-59639157D01*
X146844132Y-59639157D01*
X146904282Y-59637266D01*
X146908241Y-59637204D01*
X146936152Y-59637204D01*
X146940087Y-59636707D01*
X146940152Y-59636699D01*
X146951989Y-59635766D01*
X146984247Y-59634752D01*
X146988266Y-59634626D01*
X146996185Y-59634377D01*
X147015639Y-59628725D01*
X147034996Y-59624717D01*
X147047226Y-59623172D01*
X147047227Y-59623172D01*
X147055093Y-59622178D01*
X147062464Y-59619259D01*
X147062466Y-59619259D01*
X147096208Y-59605900D01*
X147107438Y-59602055D01*
X147142279Y-59591933D01*
X147142280Y-59591933D01*
X147149889Y-59589722D01*
X147156708Y-59585689D01*
X147156713Y-59585687D01*
X147167324Y-59579411D01*
X147185072Y-59570716D01*
X147203913Y-59563256D01*
X147239683Y-59537268D01*
X147249603Y-59530752D01*
X147280831Y-59512284D01*
X147280834Y-59512282D01*
X147287658Y-59508246D01*
X147301979Y-59493925D01*
X147317013Y-59481084D01*
X147326990Y-59473835D01*
X147333403Y-59469176D01*
X147361594Y-59435099D01*
X147369584Y-59426320D01*
X148025499Y-58770405D01*
X148087811Y-58736379D01*
X148114594Y-58733500D01*
X148333570Y-58733500D01*
X148401691Y-58753502D01*
X148448184Y-58807158D01*
X148458288Y-58877432D01*
X148437035Y-58931409D01*
X148432050Y-58938582D01*
X148426510Y-58948295D01*
X148337701Y-59142269D01*
X148333967Y-59152815D01*
X148280853Y-59359679D01*
X148279082Y-59370234D01*
X148268207Y-59503930D01*
X148268000Y-59509036D01*
X148268000Y-63546885D01*
X148272475Y-63562124D01*
X148273865Y-63563329D01*
X148281548Y-63565000D01*
X152265884Y-63565000D01*
X152281123Y-63560525D01*
X152282328Y-63559135D01*
X152283999Y-63551452D01*
X152283999Y-61498134D01*
X157441500Y-61498134D01*
X157448255Y-61560316D01*
X157499385Y-61696705D01*
X157586739Y-61813261D01*
X157703295Y-61900615D01*
X157839684Y-61951745D01*
X157901866Y-61958500D01*
X159698134Y-61958500D01*
X159760316Y-61951745D01*
X159896705Y-61900615D01*
X160013261Y-61813261D01*
X160100615Y-61696705D01*
X160116821Y-61653475D01*
X160144598Y-61579382D01*
X160187240Y-61522618D01*
X160253802Y-61497918D01*
X160323150Y-61513126D01*
X160357817Y-61541114D01*
X160386250Y-61573938D01*
X160558126Y-61716632D01*
X160751000Y-61829338D01*
X160755825Y-61831180D01*
X160755826Y-61831181D01*
X160771408Y-61837131D01*
X160959692Y-61909030D01*
X160964760Y-61910061D01*
X160964763Y-61910062D01*
X161059862Y-61929410D01*
X161178597Y-61953567D01*
X161183772Y-61953757D01*
X161183774Y-61953757D01*
X161396673Y-61961564D01*
X161396677Y-61961564D01*
X161401837Y-61961753D01*
X161406957Y-61961097D01*
X161406959Y-61961097D01*
X161618288Y-61934025D01*
X161618289Y-61934025D01*
X161623416Y-61933368D01*
X161628366Y-61931883D01*
X161832429Y-61870661D01*
X161832434Y-61870659D01*
X161837384Y-61869174D01*
X162037994Y-61770896D01*
X162219860Y-61641173D01*
X162378096Y-61483489D01*
X162385597Y-61473051D01*
X162508453Y-61302077D01*
X162509640Y-61302930D01*
X162556960Y-61259362D01*
X162626897Y-61247145D01*
X162692338Y-61274678D01*
X162720166Y-61306511D01*
X162777694Y-61400388D01*
X162783777Y-61408699D01*
X162923213Y-61569667D01*
X162930580Y-61576883D01*
X163094434Y-61712916D01*
X163102881Y-61718831D01*
X163286756Y-61826279D01*
X163296042Y-61830729D01*
X163495001Y-61906703D01*
X163504899Y-61909579D01*
X163608250Y-61930606D01*
X163622299Y-61929410D01*
X163626000Y-61919065D01*
X163626000Y-59283102D01*
X163622082Y-59269758D01*
X163607806Y-59267771D01*
X163569324Y-59273660D01*
X163559288Y-59276051D01*
X163356868Y-59342212D01*
X163347359Y-59346209D01*
X163158463Y-59444542D01*
X163149738Y-59450036D01*
X162979433Y-59577905D01*
X162971726Y-59584748D01*
X162824590Y-59738717D01*
X162818109Y-59746722D01*
X162713498Y-59900074D01*
X162658587Y-59945076D01*
X162588062Y-59953247D01*
X162524315Y-59921993D01*
X162503618Y-59897509D01*
X162422822Y-59772617D01*
X162422820Y-59772614D01*
X162420014Y-59768277D01*
X162269670Y-59603051D01*
X162265619Y-59599852D01*
X162265615Y-59599848D01*
X162098414Y-59467800D01*
X162098410Y-59467798D01*
X162094359Y-59464598D01*
X162058028Y-59444542D01*
X162025018Y-59426320D01*
X161898789Y-59356638D01*
X161893920Y-59354914D01*
X161893916Y-59354912D01*
X161693087Y-59283795D01*
X161693083Y-59283794D01*
X161688212Y-59282069D01*
X161683119Y-59281162D01*
X161683116Y-59281161D01*
X161473373Y-59243800D01*
X161473367Y-59243799D01*
X161468284Y-59242894D01*
X161394452Y-59241992D01*
X161250081Y-59240228D01*
X161250079Y-59240228D01*
X161244911Y-59240165D01*
X161024091Y-59273955D01*
X160811756Y-59343357D01*
X160762544Y-59368975D01*
X160635522Y-59435099D01*
X160613607Y-59446507D01*
X160609474Y-59449610D01*
X160609471Y-59449612D01*
X160439100Y-59577530D01*
X160434965Y-59580635D01*
X160378537Y-59639684D01*
X160354283Y-59665064D01*
X160292759Y-59700494D01*
X160221846Y-59697037D01*
X160164060Y-59655791D01*
X160145207Y-59622243D01*
X160103767Y-59511703D01*
X160100615Y-59503295D01*
X160013261Y-59386739D01*
X159896705Y-59299385D01*
X159760316Y-59248255D01*
X159698134Y-59241500D01*
X157901866Y-59241500D01*
X157839684Y-59248255D01*
X157703295Y-59299385D01*
X157586739Y-59386739D01*
X157499385Y-59503295D01*
X157448255Y-59639684D01*
X157441500Y-59701866D01*
X157441500Y-61498134D01*
X152283999Y-61498134D01*
X152283999Y-59509039D01*
X152283791Y-59503929D01*
X152272918Y-59370233D01*
X152271148Y-59359680D01*
X152218033Y-59152815D01*
X152214299Y-59142269D01*
X152125490Y-58948295D01*
X152119950Y-58938582D01*
X152114965Y-58931409D01*
X152092512Y-58864056D01*
X152110038Y-58795257D01*
X152161977Y-58746854D01*
X152218430Y-58733500D01*
X163605405Y-58733500D01*
X163673526Y-58753502D01*
X163694501Y-58770405D01*
X164097975Y-59173880D01*
X164132000Y-59236192D01*
X164130697Y-59265795D01*
X164134000Y-59265795D01*
X164134000Y-61918517D01*
X164138064Y-61932359D01*
X164151478Y-61934393D01*
X164158184Y-61933534D01*
X164168262Y-61931392D01*
X164372255Y-61870191D01*
X164381842Y-61866433D01*
X164573095Y-61772739D01*
X164581945Y-61767464D01*
X164755328Y-61643792D01*
X164763200Y-61637139D01*
X164914052Y-61486812D01*
X164920730Y-61478965D01*
X165048022Y-61301819D01*
X165049279Y-61302722D01*
X165096373Y-61259362D01*
X165166311Y-61247145D01*
X165231751Y-61274678D01*
X165259579Y-61306511D01*
X165319987Y-61405088D01*
X165466250Y-61573938D01*
X165638126Y-61716632D01*
X165831000Y-61829338D01*
X165835825Y-61831180D01*
X165835826Y-61831181D01*
X165851408Y-61837131D01*
X166039692Y-61909030D01*
X166044760Y-61910061D01*
X166044763Y-61910062D01*
X166139862Y-61929410D01*
X166258597Y-61953567D01*
X166263772Y-61953757D01*
X166263774Y-61953757D01*
X166476673Y-61961564D01*
X166476677Y-61961564D01*
X166481837Y-61961753D01*
X166486957Y-61961097D01*
X166486959Y-61961097D01*
X166698288Y-61934025D01*
X166698289Y-61934025D01*
X166703416Y-61933368D01*
X166708366Y-61931883D01*
X166912429Y-61870661D01*
X166912434Y-61870659D01*
X166917384Y-61869174D01*
X167117994Y-61770896D01*
X167299860Y-61641173D01*
X167458096Y-61483489D01*
X167465597Y-61473051D01*
X167588453Y-61302077D01*
X167589776Y-61303028D01*
X167636645Y-61259857D01*
X167706580Y-61247625D01*
X167772026Y-61275144D01*
X167799875Y-61306994D01*
X167859987Y-61405088D01*
X168006250Y-61573938D01*
X168178126Y-61716632D01*
X168371000Y-61829338D01*
X168375825Y-61831180D01*
X168375826Y-61831181D01*
X168391408Y-61837131D01*
X168579692Y-61909030D01*
X168584760Y-61910061D01*
X168584763Y-61910062D01*
X168679862Y-61929410D01*
X168798597Y-61953567D01*
X168803772Y-61953757D01*
X168803774Y-61953757D01*
X169016673Y-61961564D01*
X169016677Y-61961564D01*
X169021837Y-61961753D01*
X169026957Y-61961097D01*
X169026959Y-61961097D01*
X169238288Y-61934025D01*
X169238289Y-61934025D01*
X169243416Y-61933368D01*
X169248366Y-61931883D01*
X169452429Y-61870661D01*
X169452434Y-61870659D01*
X169457384Y-61869174D01*
X169657994Y-61770896D01*
X169839860Y-61641173D01*
X169998096Y-61483489D01*
X170005597Y-61473051D01*
X170128453Y-61302077D01*
X170129776Y-61303028D01*
X170176645Y-61259857D01*
X170246580Y-61247625D01*
X170312026Y-61275144D01*
X170339875Y-61306994D01*
X170399987Y-61405088D01*
X170546250Y-61573938D01*
X170718126Y-61716632D01*
X170911000Y-61829338D01*
X170915825Y-61831180D01*
X170915826Y-61831181D01*
X170931408Y-61837131D01*
X171119692Y-61909030D01*
X171124760Y-61910061D01*
X171124763Y-61910062D01*
X171219862Y-61929410D01*
X171338597Y-61953567D01*
X171343772Y-61953757D01*
X171343774Y-61953757D01*
X171556673Y-61961564D01*
X171556677Y-61961564D01*
X171561837Y-61961753D01*
X171566957Y-61961097D01*
X171566959Y-61961097D01*
X171778288Y-61934025D01*
X171778289Y-61934025D01*
X171783416Y-61933368D01*
X171788366Y-61931883D01*
X171992429Y-61870661D01*
X171992434Y-61870659D01*
X171997384Y-61869174D01*
X172197994Y-61770896D01*
X172379860Y-61641173D01*
X172538096Y-61483489D01*
X172545597Y-61473051D01*
X172665435Y-61306277D01*
X172668453Y-61302077D01*
X172681011Y-61276669D01*
X172765136Y-61106453D01*
X172765137Y-61106451D01*
X172767430Y-61101811D01*
X172808228Y-60967529D01*
X172830865Y-60893023D01*
X172830865Y-60893021D01*
X172832370Y-60888069D01*
X172861529Y-60666590D01*
X172862486Y-60627438D01*
X172863074Y-60603365D01*
X172863074Y-60603361D01*
X172863156Y-60600000D01*
X172844852Y-60377361D01*
X172790431Y-60160702D01*
X172701354Y-59955840D01*
X172580014Y-59768277D01*
X172429670Y-59603051D01*
X172425619Y-59599852D01*
X172425615Y-59599848D01*
X172258414Y-59467800D01*
X172258410Y-59467798D01*
X172254359Y-59464598D01*
X172218028Y-59444542D01*
X172185018Y-59426320D01*
X172058789Y-59356638D01*
X172053920Y-59354914D01*
X172053916Y-59354912D01*
X171853087Y-59283795D01*
X171853083Y-59283794D01*
X171848212Y-59282069D01*
X171843119Y-59281162D01*
X171843116Y-59281161D01*
X171633373Y-59243800D01*
X171633367Y-59243799D01*
X171628284Y-59242894D01*
X171554452Y-59241992D01*
X171410081Y-59240228D01*
X171410079Y-59240228D01*
X171404911Y-59240165D01*
X171184091Y-59273955D01*
X170971756Y-59343357D01*
X170922544Y-59368975D01*
X170795522Y-59435099D01*
X170773607Y-59446507D01*
X170769474Y-59449610D01*
X170769471Y-59449612D01*
X170599100Y-59577530D01*
X170594965Y-59580635D01*
X170591393Y-59584373D01*
X170483729Y-59697037D01*
X170440629Y-59742138D01*
X170333201Y-59899621D01*
X170278293Y-59944621D01*
X170207768Y-59952792D01*
X170144021Y-59921538D01*
X170123324Y-59897054D01*
X170042822Y-59772617D01*
X170042820Y-59772614D01*
X170040014Y-59768277D01*
X169889670Y-59603051D01*
X169885619Y-59599852D01*
X169885615Y-59599848D01*
X169718414Y-59467800D01*
X169718410Y-59467798D01*
X169714359Y-59464598D01*
X169678028Y-59444542D01*
X169645018Y-59426320D01*
X169518789Y-59356638D01*
X169513920Y-59354914D01*
X169513916Y-59354912D01*
X169313087Y-59283795D01*
X169313083Y-59283794D01*
X169308212Y-59282069D01*
X169303119Y-59281162D01*
X169303116Y-59281161D01*
X169093373Y-59243800D01*
X169093367Y-59243799D01*
X169088284Y-59242894D01*
X169014452Y-59241992D01*
X168870081Y-59240228D01*
X168870079Y-59240228D01*
X168864911Y-59240165D01*
X168644091Y-59273955D01*
X168631532Y-59278060D01*
X168560568Y-59280210D01*
X168503294Y-59247389D01*
X166514132Y-57258227D01*
X166506592Y-57249941D01*
X166502480Y-57243462D01*
X166452828Y-57196836D01*
X166449987Y-57194082D01*
X166430250Y-57174345D01*
X166427053Y-57171865D01*
X166418031Y-57164160D01*
X166404602Y-57151549D01*
X166385801Y-57133894D01*
X166378855Y-57130075D01*
X166378852Y-57130073D01*
X166368046Y-57124132D01*
X166351527Y-57113281D01*
X166351063Y-57112921D01*
X166335521Y-57100866D01*
X166328252Y-57097721D01*
X166328248Y-57097718D01*
X166294943Y-57083306D01*
X166284293Y-57078089D01*
X166245540Y-57056785D01*
X166225917Y-57051747D01*
X166207214Y-57045343D01*
X166195900Y-57040447D01*
X166195899Y-57040447D01*
X166188625Y-57037299D01*
X166180802Y-57036060D01*
X166180792Y-57036057D01*
X166144956Y-57030381D01*
X166133336Y-57027975D01*
X166098191Y-57018952D01*
X166098190Y-57018952D01*
X166090510Y-57016980D01*
X166070256Y-57016980D01*
X166050545Y-57015429D01*
X166038366Y-57013500D01*
X166030537Y-57012260D01*
X166001266Y-57015027D01*
X165986519Y-57016421D01*
X165974661Y-57016980D01*
X147628288Y-57016980D01*
X147617105Y-57016453D01*
X147609612Y-57014778D01*
X147601686Y-57015027D01*
X147601685Y-57015027D01*
X147541522Y-57016918D01*
X147537564Y-57016980D01*
X147509664Y-57016980D01*
X147505674Y-57017484D01*
X147493840Y-57018416D01*
X147449631Y-57019806D01*
X147442017Y-57022018D01*
X147442012Y-57022019D01*
X147430179Y-57025457D01*
X147410816Y-57029468D01*
X147390723Y-57032006D01*
X147383356Y-57034923D01*
X147383351Y-57034924D01*
X147349612Y-57048282D01*
X147338385Y-57052126D01*
X147295927Y-57064462D01*
X147289101Y-57068499D01*
X147278492Y-57074773D01*
X147260744Y-57083468D01*
X147241903Y-57090928D01*
X147235487Y-57095590D01*
X147235486Y-57095590D01*
X147206133Y-57116916D01*
X147196213Y-57123432D01*
X147164985Y-57141900D01*
X147164982Y-57141902D01*
X147158158Y-57145938D01*
X147143837Y-57160259D01*
X147128804Y-57173099D01*
X147112413Y-57185008D01*
X147086036Y-57216893D01*
X147084232Y-57219073D01*
X147076242Y-57227854D01*
X146834999Y-57469096D01*
X146772687Y-57503121D01*
X146745904Y-57506000D01*
X145808200Y-57506000D01*
X145740079Y-57485998D01*
X145720853Y-57469657D01*
X145720580Y-57469960D01*
X145715668Y-57465537D01*
X145711253Y-57460634D01*
X145556752Y-57348382D01*
X145550724Y-57345698D01*
X145550722Y-57345697D01*
X145388319Y-57273391D01*
X145388318Y-57273391D01*
X145382288Y-57270706D01*
X145282278Y-57249448D01*
X145201944Y-57232372D01*
X145201939Y-57232372D01*
X145195487Y-57231000D01*
X145004513Y-57231000D01*
X144998061Y-57232372D01*
X144998056Y-57232372D01*
X144917722Y-57249448D01*
X144817712Y-57270706D01*
X144811682Y-57273391D01*
X144811681Y-57273391D01*
X144649278Y-57345697D01*
X144649276Y-57345698D01*
X144643248Y-57348382D01*
X144488747Y-57460634D01*
X144484326Y-57465544D01*
X144484325Y-57465545D01*
X144450492Y-57503121D01*
X144360960Y-57602556D01*
X144265473Y-57767944D01*
X144206458Y-57949572D01*
X144191481Y-58092077D01*
X144187797Y-58127125D01*
X144160784Y-58192782D01*
X144136551Y-58215888D01*
X144063047Y-58269292D01*
X143992036Y-58320885D01*
X143986595Y-58324838D01*
X143982174Y-58329748D01*
X143982173Y-58329749D01*
X143890851Y-58431173D01*
X143858808Y-58466760D01*
X143855507Y-58472478D01*
X143781239Y-58601114D01*
X143763321Y-58632148D01*
X143704306Y-58813776D01*
X143703616Y-58820337D01*
X143703616Y-58820339D01*
X143691085Y-58939568D01*
X143684344Y-59003704D01*
X131308500Y-59003704D01*
X131308500Y-51321009D01*
X131328502Y-51252888D01*
X131382158Y-51206395D01*
X131387694Y-51204097D01*
X131388296Y-51203768D01*
X131396705Y-51200615D01*
X131513261Y-51113261D01*
X131600615Y-50996705D01*
X131611618Y-50967355D01*
X131644798Y-50878848D01*
X131687440Y-50822084D01*
X131754001Y-50797384D01*
X131823350Y-50812592D01*
X131858017Y-50840580D01*
X131883218Y-50869673D01*
X131890580Y-50876883D01*
X132054434Y-51012916D01*
X132062881Y-51018831D01*
X132246756Y-51126279D01*
X132256042Y-51130729D01*
X132455001Y-51206703D01*
X132464899Y-51209579D01*
X132568250Y-51230606D01*
X132582299Y-51229410D01*
X132586000Y-51219065D01*
X132586000Y-49772000D01*
X132606002Y-49703879D01*
X132659658Y-49657386D01*
X132712000Y-49646000D01*
X132968000Y-49646000D01*
X133036121Y-49666002D01*
X133082614Y-49719658D01*
X133094000Y-49772000D01*
X133094000Y-51218517D01*
X133098064Y-51232359D01*
X133111478Y-51234393D01*
X133118184Y-51233534D01*
X133128262Y-51231392D01*
X133332255Y-51170191D01*
X133341842Y-51166433D01*
X133533095Y-51072739D01*
X133541945Y-51067464D01*
X133715328Y-50943792D01*
X133723200Y-50937139D01*
X133874052Y-50786812D01*
X133880730Y-50778965D01*
X134008022Y-50601819D01*
X134009279Y-50602722D01*
X134056373Y-50559362D01*
X134126311Y-50547145D01*
X134191751Y-50574678D01*
X134219579Y-50606511D01*
X134279987Y-50705088D01*
X134426250Y-50873938D01*
X134598126Y-51016632D01*
X134791000Y-51129338D01*
X134999692Y-51209030D01*
X135004760Y-51210061D01*
X135004763Y-51210062D01*
X135080639Y-51225499D01*
X135218597Y-51253567D01*
X135223772Y-51253757D01*
X135223774Y-51253757D01*
X135436673Y-51261564D01*
X135436677Y-51261564D01*
X135441837Y-51261753D01*
X135446957Y-51261097D01*
X135446959Y-51261097D01*
X135658288Y-51234025D01*
X135658289Y-51234025D01*
X135663416Y-51233368D01*
X135668366Y-51231883D01*
X135872429Y-51170661D01*
X135872434Y-51170659D01*
X135877384Y-51169174D01*
X136077994Y-51070896D01*
X136259860Y-50941173D01*
X136418096Y-50783489D01*
X136436280Y-50758184D01*
X136548453Y-50602077D01*
X136549776Y-50603028D01*
X136596645Y-50559857D01*
X136666580Y-50547625D01*
X136732026Y-50575144D01*
X136759875Y-50606994D01*
X136819987Y-50705088D01*
X136966250Y-50873938D01*
X137138126Y-51016632D01*
X137331000Y-51129338D01*
X137539692Y-51209030D01*
X137544760Y-51210061D01*
X137544763Y-51210062D01*
X137620639Y-51225499D01*
X137758597Y-51253567D01*
X137763772Y-51253757D01*
X137763774Y-51253757D01*
X137976673Y-51261564D01*
X137976677Y-51261564D01*
X137981837Y-51261753D01*
X137986957Y-51261097D01*
X137986959Y-51261097D01*
X138198288Y-51234025D01*
X138198289Y-51234025D01*
X138203416Y-51233368D01*
X138208366Y-51231883D01*
X138412429Y-51170661D01*
X138412434Y-51170659D01*
X138417384Y-51169174D01*
X138617994Y-51070896D01*
X138799860Y-50941173D01*
X138958096Y-50783489D01*
X138976280Y-50758184D01*
X139088453Y-50602077D01*
X139089776Y-50603028D01*
X139136645Y-50559857D01*
X139206580Y-50547625D01*
X139272026Y-50575144D01*
X139299875Y-50606994D01*
X139359987Y-50705088D01*
X139506250Y-50873938D01*
X139678126Y-51016632D01*
X139871000Y-51129338D01*
X140079692Y-51209030D01*
X140084760Y-51210061D01*
X140084763Y-51210062D01*
X140160639Y-51225499D01*
X140298597Y-51253567D01*
X140303772Y-51253757D01*
X140303774Y-51253757D01*
X140516673Y-51261564D01*
X140516677Y-51261564D01*
X140521837Y-51261753D01*
X140526957Y-51261097D01*
X140526959Y-51261097D01*
X140738288Y-51234025D01*
X140738289Y-51234025D01*
X140743416Y-51233368D01*
X140748366Y-51231883D01*
X140952429Y-51170661D01*
X140952434Y-51170659D01*
X140957384Y-51169174D01*
X141157994Y-51070896D01*
X141339860Y-50941173D01*
X141498096Y-50783489D01*
X141516280Y-50758184D01*
X141628453Y-50602077D01*
X141629776Y-50603028D01*
X141676645Y-50559857D01*
X141746580Y-50547625D01*
X141812026Y-50575144D01*
X141839875Y-50606994D01*
X141899987Y-50705088D01*
X142046250Y-50873938D01*
X142218126Y-51016632D01*
X142411000Y-51129338D01*
X142619692Y-51209030D01*
X142624760Y-51210061D01*
X142624763Y-51210062D01*
X142700639Y-51225499D01*
X142838597Y-51253567D01*
X142843772Y-51253757D01*
X142843774Y-51253757D01*
X143056673Y-51261564D01*
X143056677Y-51261564D01*
X143061837Y-51261753D01*
X143066957Y-51261097D01*
X143066959Y-51261097D01*
X143278288Y-51234025D01*
X143278289Y-51234025D01*
X143283416Y-51233368D01*
X143288366Y-51231883D01*
X143492429Y-51170661D01*
X143492434Y-51170659D01*
X143497384Y-51169174D01*
X143697994Y-51070896D01*
X143879860Y-50941173D01*
X144038096Y-50783489D01*
X144056280Y-50758184D01*
X144168453Y-50602077D01*
X144169776Y-50603028D01*
X144216645Y-50559857D01*
X144286580Y-50547625D01*
X144352026Y-50575144D01*
X144379875Y-50606994D01*
X144439987Y-50705088D01*
X144586250Y-50873938D01*
X144758126Y-51016632D01*
X144951000Y-51129338D01*
X145159692Y-51209030D01*
X145164760Y-51210061D01*
X145164763Y-51210062D01*
X145240639Y-51225499D01*
X145378597Y-51253567D01*
X145383772Y-51253757D01*
X145383774Y-51253757D01*
X145596673Y-51261564D01*
X145596677Y-51261564D01*
X145601837Y-51261753D01*
X145606957Y-51261097D01*
X145606959Y-51261097D01*
X145818288Y-51234025D01*
X145818289Y-51234025D01*
X145823416Y-51233368D01*
X145828366Y-51231883D01*
X146032429Y-51170661D01*
X146032434Y-51170659D01*
X146037384Y-51169174D01*
X146237994Y-51070896D01*
X146419860Y-50941173D01*
X146578096Y-50783489D01*
X146596280Y-50758184D01*
X146708453Y-50602077D01*
X146709776Y-50603028D01*
X146756645Y-50559857D01*
X146826580Y-50547625D01*
X146892026Y-50575144D01*
X146919875Y-50606994D01*
X146979987Y-50705088D01*
X147126250Y-50873938D01*
X147298126Y-51016632D01*
X147491000Y-51129338D01*
X147699692Y-51209030D01*
X147704760Y-51210061D01*
X147704763Y-51210062D01*
X147780639Y-51225499D01*
X147918597Y-51253567D01*
X147923772Y-51253757D01*
X147923774Y-51253757D01*
X148136673Y-51261564D01*
X148136677Y-51261564D01*
X148141837Y-51261753D01*
X148146957Y-51261097D01*
X148146959Y-51261097D01*
X148358288Y-51234025D01*
X148358289Y-51234025D01*
X148363416Y-51233368D01*
X148368366Y-51231883D01*
X148572429Y-51170661D01*
X148572434Y-51170659D01*
X148577384Y-51169174D01*
X148777994Y-51070896D01*
X148959860Y-50941173D01*
X149118096Y-50783489D01*
X149136280Y-50758184D01*
X149245435Y-50606277D01*
X149248453Y-50602077D01*
X149254754Y-50589329D01*
X149345136Y-50406453D01*
X149345137Y-50406451D01*
X149347430Y-50401811D01*
X149388992Y-50265016D01*
X149410865Y-50193023D01*
X149410865Y-50193021D01*
X149412370Y-50188069D01*
X149441529Y-49966590D01*
X149441775Y-49956529D01*
X149443074Y-49903365D01*
X149443074Y-49903361D01*
X149443156Y-49900000D01*
X149424852Y-49677361D01*
X149370431Y-49460702D01*
X149281354Y-49255840D01*
X149185489Y-49107655D01*
X177239858Y-49107655D01*
X177275104Y-49366638D01*
X177276412Y-49371124D01*
X177276412Y-49371126D01*
X177296098Y-49438664D01*
X177348243Y-49617567D01*
X177350203Y-49621820D01*
X177350204Y-49621821D01*
X177361351Y-49646000D01*
X177457668Y-49854928D01*
X177460231Y-49858837D01*
X177598410Y-50069596D01*
X177598414Y-50069601D01*
X177600976Y-50073509D01*
X177775018Y-50268506D01*
X177975970Y-50435637D01*
X177979973Y-50438066D01*
X178195422Y-50568804D01*
X178195426Y-50568806D01*
X178199419Y-50571229D01*
X178440455Y-50672303D01*
X178693783Y-50736641D01*
X178698434Y-50737109D01*
X178698438Y-50737110D01*
X178891308Y-50756531D01*
X178910867Y-50758500D01*
X179066354Y-50758500D01*
X179068679Y-50758327D01*
X179068685Y-50758327D01*
X179256000Y-50744407D01*
X179256004Y-50744406D01*
X179260652Y-50744061D01*
X179265200Y-50743032D01*
X179265206Y-50743031D01*
X179452332Y-50700688D01*
X179515577Y-50686377D01*
X179551769Y-50672303D01*
X179754824Y-50593340D01*
X179754827Y-50593339D01*
X179759177Y-50591647D01*
X179788052Y-50575144D01*
X179893953Y-50514616D01*
X179986098Y-50461951D01*
X180191357Y-50300138D01*
X180370443Y-50109763D01*
X180519424Y-49895009D01*
X180541284Y-49850682D01*
X180632960Y-49664781D01*
X180632961Y-49664778D01*
X180635025Y-49660593D01*
X180714707Y-49411665D01*
X180756721Y-49153693D01*
X180759420Y-48947540D01*
X180760081Y-48897022D01*
X180760081Y-48897019D01*
X180760142Y-48892345D01*
X180724896Y-48633362D01*
X180710473Y-48583877D01*
X180685755Y-48499075D01*
X180651757Y-48382433D01*
X180542332Y-48145072D01*
X180438855Y-47987243D01*
X180401590Y-47930404D01*
X180401586Y-47930399D01*
X180399024Y-47926491D01*
X180224982Y-47731494D01*
X180024030Y-47564363D01*
X179863429Y-47466908D01*
X179804578Y-47431196D01*
X179804574Y-47431194D01*
X179800581Y-47428771D01*
X179559545Y-47327697D01*
X179306217Y-47263359D01*
X179301566Y-47262891D01*
X179301562Y-47262890D01*
X179092271Y-47241816D01*
X179089133Y-47241500D01*
X178933646Y-47241500D01*
X178931321Y-47241673D01*
X178931315Y-47241673D01*
X178744000Y-47255593D01*
X178743996Y-47255594D01*
X178739348Y-47255939D01*
X178734800Y-47256968D01*
X178734794Y-47256969D01*
X178548399Y-47299147D01*
X178484423Y-47313623D01*
X178480071Y-47315315D01*
X178480069Y-47315316D01*
X178245176Y-47406660D01*
X178245173Y-47406661D01*
X178240823Y-47408353D01*
X178013902Y-47538049D01*
X177808643Y-47699862D01*
X177629557Y-47890237D01*
X177480576Y-48104991D01*
X177478510Y-48109181D01*
X177478508Y-48109184D01*
X177371592Y-48325990D01*
X177364975Y-48339407D01*
X177363553Y-48343850D01*
X177363552Y-48343852D01*
X177300462Y-48540948D01*
X177285293Y-48588335D01*
X177243279Y-48846307D01*
X177243218Y-48850980D01*
X177240317Y-49072617D01*
X177239858Y-49107655D01*
X149185489Y-49107655D01*
X149160014Y-49068277D01*
X149009670Y-48903051D01*
X149005619Y-48899852D01*
X149005615Y-48899848D01*
X148838414Y-48767800D01*
X148838410Y-48767798D01*
X148834359Y-48764598D01*
X148638789Y-48656638D01*
X148633920Y-48654914D01*
X148633916Y-48654912D01*
X148433087Y-48583795D01*
X148433083Y-48583794D01*
X148428212Y-48582069D01*
X148423119Y-48581162D01*
X148423116Y-48581161D01*
X148213373Y-48543800D01*
X148213367Y-48543799D01*
X148208284Y-48542894D01*
X148134452Y-48541992D01*
X147990081Y-48540228D01*
X147990079Y-48540228D01*
X147984911Y-48540165D01*
X147764091Y-48573955D01*
X147751532Y-48578060D01*
X147680568Y-48580210D01*
X147623294Y-48547389D01*
X144983652Y-45907747D01*
X144976112Y-45899461D01*
X144972000Y-45892982D01*
X144922348Y-45846356D01*
X144919507Y-45843602D01*
X144899770Y-45823865D01*
X144896573Y-45821385D01*
X144887551Y-45813680D01*
X144874116Y-45801064D01*
X144855321Y-45783414D01*
X144848375Y-45779595D01*
X144848372Y-45779593D01*
X144837566Y-45773652D01*
X144821047Y-45762801D01*
X144820583Y-45762441D01*
X144805041Y-45750386D01*
X144797770Y-45747239D01*
X144790943Y-45743202D01*
X144792652Y-45740313D01*
X144749874Y-45704699D01*
X144728532Y-45636986D01*
X144747185Y-45568484D01*
X144799913Y-45520942D01*
X144854507Y-45508500D01*
X182365500Y-45508500D01*
X182433621Y-45528502D01*
G37*
%TD.AperFunction*%
%TD*%
M02*
