%TF.GenerationSoftware,KiCad,Pcbnew,(6.0.4)*%
%TF.CreationDate,2022-10-08T17:17:15-04:00*%
%TF.ProjectId,CubeSat,43756265-5361-4742-9e6b-696361645f70,rev?*%
%TF.SameCoordinates,Original*%
%TF.FileFunction,Copper,L2,Bot*%
%TF.FilePolarity,Positive*%
%FSLAX46Y46*%
G04 Gerber Fmt 4.6, Leading zero omitted, Abs format (unit mm)*
G04 Created by KiCad (PCBNEW (6.0.4)) date 2022-10-08 17:17:15*
%MOMM*%
%LPD*%
G01*
G04 APERTURE LIST*
G04 Aperture macros list*
%AMRoundRect*
0 Rectangle with rounded corners*
0 $1 Rounding radius*
0 $2 $3 $4 $5 $6 $7 $8 $9 X,Y pos of 4 corners*
0 Add a 4 corners polygon primitive as box body*
4,1,4,$2,$3,$4,$5,$6,$7,$8,$9,$2,$3,0*
0 Add four circle primitives for the rounded corners*
1,1,$1+$1,$2,$3*
1,1,$1+$1,$4,$5*
1,1,$1+$1,$6,$7*
1,1,$1+$1,$8,$9*
0 Add four rect primitives between the rounded corners*
20,1,$1+$1,$2,$3,$4,$5,0*
20,1,$1+$1,$4,$5,$6,$7,0*
20,1,$1+$1,$6,$7,$8,$9,0*
20,1,$1+$1,$8,$9,$2,$3,0*%
G04 Aperture macros list end*
%TA.AperFunction,ComponentPad*%
%ADD10R,1.700000X1.700000*%
%TD*%
%TA.AperFunction,ComponentPad*%
%ADD11O,1.700000X1.700000*%
%TD*%
%TA.AperFunction,ComponentPad*%
%ADD12RoundRect,0.750000X-0.750000X-4.250000X0.750000X-4.250000X0.750000X4.250000X-0.750000X4.250000X0*%
%TD*%
%TA.AperFunction,ComponentPad*%
%ADD13R,2.000000X2.000000*%
%TD*%
%TA.AperFunction,ViaPad*%
%ADD14C,0.800000*%
%TD*%
%TA.AperFunction,Conductor*%
%ADD15C,0.300000*%
%TD*%
%TA.AperFunction,Conductor*%
%ADD16C,1.000000*%
%TD*%
%TA.AperFunction,Conductor*%
%ADD17C,0.250000*%
%TD*%
G04 APERTURE END LIST*
D10*
%TO.P,J4,1,Pin_1*%
%TO.N,/3.3V*%
X111800000Y-57390000D03*
D11*
%TO.P,J4,2,Pin_2*%
%TO.N,/5VB*%
X114340000Y-57390000D03*
%TO.P,J4,3,Pin_3*%
%TO.N,/SDA*%
X111800000Y-59930000D03*
%TO.P,J4,4,Pin_4*%
%TO.N,/5VB*%
X114340000Y-59930000D03*
%TO.P,J4,5,Pin_5*%
%TO.N,/SCL*%
X111800000Y-62470000D03*
%TO.P,J4,6,Pin_6*%
%TO.N,GND*%
X114340000Y-62470000D03*
%TO.P,J4,7,Pin_7*%
%TO.N,unconnected-(J4-Pad7)*%
X111800000Y-65010000D03*
%TO.P,J4,8,Pin_8*%
%TO.N,unconnected-(J4-Pad8)*%
X114340000Y-65010000D03*
%TO.P,J4,9,Pin_9*%
%TO.N,unconnected-(J4-Pad9)*%
X111800000Y-67550000D03*
%TO.P,J4,10,Pin_10*%
%TO.N,unconnected-(J4-Pad10)*%
X114340000Y-67550000D03*
%TO.P,J4,11,Pin_11*%
%TO.N,unconnected-(J4-Pad11)*%
X111800000Y-70090000D03*
%TO.P,J4,12,Pin_12*%
%TO.N,unconnected-(J4-Pad12)*%
X114340000Y-70090000D03*
%TO.P,J4,13,Pin_13*%
%TO.N,unconnected-(J4-Pad13)*%
X111800000Y-72630000D03*
%TO.P,J4,14,Pin_14*%
%TO.N,unconnected-(J4-Pad14)*%
X114340000Y-72630000D03*
%TO.P,J4,15,Pin_15*%
%TO.N,unconnected-(J4-Pad15)*%
X111800000Y-75170000D03*
%TO.P,J4,16,Pin_16*%
%TO.N,unconnected-(J4-Pad16)*%
X114340000Y-75170000D03*
%TO.P,J4,17,Pin_17*%
%TO.N,unconnected-(J4-Pad17)*%
X111800000Y-77710000D03*
%TO.P,J4,18,Pin_18*%
%TO.N,unconnected-(J4-Pad18)*%
X114340000Y-77710000D03*
%TO.P,J4,19,Pin_19*%
%TO.N,unconnected-(J4-Pad19)*%
X111800000Y-80250000D03*
%TO.P,J4,20,Pin_20*%
%TO.N,unconnected-(J4-Pad20)*%
X114340000Y-80250000D03*
%TO.P,J4,21,Pin_21*%
%TO.N,unconnected-(J4-Pad21)*%
X111800000Y-82790000D03*
%TO.P,J4,22,Pin_22*%
%TO.N,unconnected-(J4-Pad22)*%
X114340000Y-82790000D03*
%TO.P,J4,23,Pin_23*%
%TO.N,unconnected-(J4-Pad23)*%
X111800000Y-85330000D03*
%TO.P,J4,24,Pin_24*%
%TO.N,unconnected-(J4-Pad24)*%
X114340000Y-85330000D03*
%TO.P,J4,25,Pin_25*%
%TO.N,unconnected-(J4-Pad25)*%
X111800000Y-87870000D03*
%TO.P,J4,26,Pin_26*%
%TO.N,unconnected-(J4-Pad26)*%
X114340000Y-87870000D03*
%TO.P,J4,27,Pin_27*%
%TO.N,unconnected-(J4-Pad27)*%
X111800000Y-90410000D03*
%TO.P,J4,28,Pin_28*%
%TO.N,unconnected-(J4-Pad28)*%
X114340000Y-90410000D03*
%TO.P,J4,29,Pin_29*%
%TO.N,/brake*%
X111800000Y-92950000D03*
%TO.P,J4,30,Pin_30*%
%TO.N,unconnected-(J4-Pad30)*%
X114340000Y-92950000D03*
%TO.P,J4,31,Pin_31*%
%TO.N,/CW{slash}CCW*%
X111800000Y-95490000D03*
%TO.P,J4,32,Pin_32*%
%TO.N,/PWM*%
X114340000Y-95490000D03*
%TO.P,J4,33,Pin_33*%
%TO.N,/CHB*%
X111800000Y-98030000D03*
%TO.P,J4,34,Pin_34*%
%TO.N,unconnected-(J4-Pad34)*%
X114340000Y-98030000D03*
%TO.P,J4,35,Pin_35*%
%TO.N,/CHA*%
X111800000Y-100570000D03*
%TO.P,J4,36,Pin_36*%
%TO.N,unconnected-(J4-Pad36)*%
X114340000Y-100570000D03*
%TO.P,J4,37,Pin_37*%
%TO.N,unconnected-(J4-Pad37)*%
X111800000Y-103110000D03*
%TO.P,J4,38,Pin_38*%
%TO.N,unconnected-(J4-Pad38)*%
X114340000Y-103110000D03*
%TO.P,J4,39,Pin_39*%
%TO.N,unconnected-(J4-Pad39)*%
X111800000Y-105650000D03*
%TO.P,J4,40,Pin_40*%
%TO.N,unconnected-(J4-Pad40)*%
X114340000Y-105650000D03*
%TD*%
D12*
%TO.P,J1,GND,Pin_1*%
%TO.N,GND*%
X150276000Y-63819000D03*
%TO.P,J1,VCC,Pin_2*%
%TO.N,VCC*%
X127924000Y-63819000D03*
%TD*%
D10*
%TO.P,J2,1,Pin_1*%
%TO.N,/3.3V*%
X158800000Y-60600000D03*
D11*
%TO.P,J2,2,Pin_2*%
%TO.N,unconnected-(J2-Pad2)*%
X161340000Y-60600000D03*
%TO.P,J2,3,Pin_3*%
%TO.N,GND*%
X163880000Y-60600000D03*
%TO.P,J2,4,Pin_4*%
%TO.N,/SCL*%
X166420000Y-60600000D03*
%TO.P,J2,5,Pin_5*%
%TO.N,/SDA*%
X168960000Y-60600000D03*
%TO.P,J2,6,Pin_6*%
%TO.N,unconnected-(J2-Pad6)*%
X171500000Y-60600000D03*
%TD*%
D13*
%TO.P,U1,1,IN+*%
%TO.N,VCC*%
X163700000Y-106900000D03*
%TO.P,U1,2,IN-*%
%TO.N,GND*%
X180800000Y-106750000D03*
%TO.P,U1,3,OUT+*%
%TO.N,/5VB*%
X163552000Y-67464000D03*
%TO.P,U1,4,OUT-*%
%TO.N,GND*%
X180700000Y-67200000D03*
%TD*%
D10*
%TO.P,J3,1,Pin_1*%
%TO.N,VCC*%
X148100000Y-49900000D03*
D11*
%TO.P,J3,2,Pin_2*%
%TO.N,GND*%
X145560000Y-49900000D03*
%TO.P,J3,3,Pin_3*%
%TO.N,/brake*%
X143020000Y-49900000D03*
%TO.P,J3,4,Pin_4*%
%TO.N,/PWM*%
X140480000Y-49900000D03*
%TO.P,J3,5,Pin_5*%
%TO.N,/CW{slash}CCW*%
X137940000Y-49900000D03*
%TO.P,J3,6,Pin_6*%
%TO.N,unconnected-(J3-Pad6)*%
X135400000Y-49900000D03*
%TO.P,J3,7,Pin_7*%
%TO.N,/CHB*%
X132860000Y-49900000D03*
%TO.P,J3,8,Pin_8*%
%TO.N,/CHA*%
X130320000Y-49900000D03*
%TD*%
D14*
%TO.N,/SCL*%
X144597848Y-59003704D03*
%TO.N,/SDA*%
X145100000Y-58139500D03*
%TD*%
D15*
%TO.N,/CHB*%
X132860000Y-49160000D02*
X132860000Y-49900000D01*
X132100000Y-48400000D02*
X132860000Y-49160000D01*
X129200000Y-48400000D02*
X132100000Y-48400000D01*
X128349038Y-49250962D02*
X129200000Y-48400000D01*
X111200000Y-49250962D02*
X128349038Y-49250962D01*
X110749039Y-49250961D02*
X111200000Y-49250962D01*
X108201924Y-51798076D02*
X110749039Y-49250961D01*
X108201924Y-97264534D02*
X108201924Y-51798076D01*
X108201923Y-99851923D02*
X108201924Y-97264534D01*
X110200000Y-101850000D02*
X108201923Y-99851923D01*
X112550000Y-101850000D02*
X110200000Y-101850000D01*
X113100000Y-101300000D02*
X112550000Y-101850000D01*
X113100000Y-99330000D02*
X113100000Y-101300000D01*
X111800000Y-98030000D02*
X113100000Y-99330000D01*
%TO.N,/CHA*%
X110993091Y-49750481D02*
X108701443Y-52042129D01*
X108701443Y-97471443D02*
X111800000Y-100570000D01*
X130170481Y-49750481D02*
X110993091Y-49750481D01*
X130320000Y-49900000D02*
X130170481Y-49750481D01*
X108701443Y-52042129D02*
X108701443Y-97471443D01*
%TO.N,/CW{slash}CCW*%
X111383572Y-95490000D02*
X111800000Y-95490000D01*
X109200962Y-52249038D02*
X109200962Y-93307390D01*
X115150000Y-50250000D02*
X111200000Y-50250000D01*
X120341920Y-55441920D02*
X115150000Y-50250000D01*
X111200000Y-50250000D02*
X109200962Y-52249038D01*
X109200962Y-93307390D02*
X111383572Y-95490000D01*
X137350000Y-55441920D02*
X120341920Y-55441920D01*
X137940000Y-54851920D02*
X137350000Y-55441920D01*
X137940000Y-49900000D02*
X137940000Y-54851920D01*
%TO.N,/PWM*%
X113100000Y-94250000D02*
X114340000Y-95490000D01*
X110850000Y-94250000D02*
X113100000Y-94250000D01*
X109700481Y-93100481D02*
X110850000Y-94250000D01*
X110867611Y-54525961D02*
X109700481Y-55693091D01*
X109700481Y-55693091D02*
X109700481Y-93100481D01*
X115487982Y-54525962D02*
X110867611Y-54525961D01*
X116903460Y-55941440D02*
X115487982Y-54525962D01*
X137752132Y-55941440D02*
X116903460Y-55941440D01*
X140480000Y-53213572D02*
X137752132Y-55941440D01*
X140480000Y-49900000D02*
X140480000Y-53213572D01*
%TO.N,/brake*%
X143020000Y-51380000D02*
X143020000Y-49900000D01*
X137959040Y-56440960D02*
X143020000Y-51380000D01*
X116696552Y-56440960D02*
X137959040Y-56440960D01*
X115281073Y-55025481D02*
X116696552Y-56440960D01*
X111074520Y-55025480D02*
X115281073Y-55025481D01*
X110200000Y-55900000D02*
X111074520Y-55025480D01*
X110200000Y-91350000D02*
X110200000Y-55900000D01*
X111800000Y-92950000D02*
X110200000Y-91350000D01*
D16*
%TO.N,VCC*%
X150100000Y-47600000D02*
X148100000Y-49600000D01*
X162600000Y-47600000D02*
X150100000Y-47600000D01*
X148100000Y-49600000D02*
X148100000Y-49900000D01*
X175300000Y-95700000D02*
X175300000Y-60300000D01*
X175300000Y-60300000D02*
X162600000Y-47600000D01*
X163700000Y-106900000D02*
X164100000Y-106900000D01*
X164100000Y-106900000D02*
X175300000Y-95700000D01*
D17*
%TO.N,/3.3V*%
X113000000Y-55500000D02*
X115084520Y-55500000D01*
X111800000Y-56700000D02*
X113000000Y-55500000D01*
X151665481Y-56915481D02*
X155350000Y-60600000D01*
X115084520Y-55500000D02*
X116500000Y-56915480D01*
X111800000Y-57390000D02*
X111800000Y-56700000D01*
X155350000Y-60600000D02*
X158800000Y-60600000D01*
X116500000Y-56915480D02*
X151665481Y-56915481D01*
%TO.N,/SCL*%
X114900000Y-61200000D02*
X115400000Y-60700000D01*
X111800000Y-62470000D02*
X113070000Y-61200000D01*
X115400000Y-60700000D02*
X117785960Y-58314040D01*
X117785960Y-58314040D02*
X119500000Y-58314040D01*
X143908184Y-58314040D02*
X144597848Y-59003704D01*
X114000000Y-61200000D02*
X114900000Y-61200000D01*
X119500000Y-58314040D02*
X143908184Y-58314040D01*
X113070000Y-61200000D02*
X114000000Y-61200000D01*
%TO.N,/SDA*%
X114100000Y-58700000D02*
X115864520Y-58700000D01*
X111800000Y-59930000D02*
X113030000Y-58700000D01*
X115864520Y-58700000D02*
X116700000Y-57864520D01*
X144825020Y-57864520D02*
X145100000Y-58139500D01*
X116700000Y-57864520D02*
X144825020Y-57864520D01*
X113030000Y-58700000D02*
X114100000Y-58700000D01*
D15*
%TO.N,/5VB*%
X114340000Y-57390000D02*
X151390000Y-57390000D01*
X154500000Y-64000000D02*
X157964000Y-67464000D01*
X154500000Y-60500000D02*
X154500000Y-64000000D01*
X151390000Y-57390000D02*
X154500000Y-60500000D01*
X157964000Y-67464000D02*
X163552000Y-67464000D01*
%TD*%
M02*
