M48
; DRILL file {KiCad (6.0.4)} date Fri Sep 23 14:26:37 2022
; FORMAT={-:-/ absolute / inch / decimal}
; #@! TF.CreationDate,2022-09-23T14:26:37-04:00
; #@! TF.GenerationSoftware,Kicad,Pcbnew,(6.0.4)
; #@! TF.FileFunction,Plated,1,2,PTH
FMAT,2
INCH
; #@! TA.AperFunction,Plated,PTH,ViaDrill
T1C0.0157
; #@! TA.AperFunction,Plated,PTH,ComponentDrill
T2C0.0394
; #@! TA.AperFunction,Plated,PTH,ComponentDrill
T3C0.0591
%
G90
G05
T1
X5.6928Y-2.323
X5.7126Y-2.289
T2
X4.4016Y-2.2594
X4.4016Y-2.3594
X4.4016Y-2.4594
X4.4016Y-2.5594
X4.4016Y-2.6594
X4.4016Y-2.7594
X4.4016Y-2.8594
X4.4016Y-2.9594
X4.4016Y-3.0594
X4.4016Y-3.1594
X4.4016Y-3.2594
X4.4016Y-3.3594
X4.4016Y-3.4594
X4.4016Y-3.5594
X4.4016Y-3.6594
X4.4016Y-3.7594
X4.4016Y-3.8594
X4.4016Y-3.9594
X4.4016Y-4.0594
X4.4016Y-4.1594
X4.5016Y-2.2594
X4.5016Y-2.3594
X4.5016Y-2.4594
X4.5016Y-2.5594
X4.5016Y-2.6594
X4.5016Y-2.7594
X4.5016Y-2.8594
X4.5016Y-2.9594
X4.5016Y-3.0594
X4.5016Y-3.1594
X4.5016Y-3.2594
X4.5016Y-3.3594
X4.5016Y-3.4594
X4.5016Y-3.5594
X4.5016Y-3.6594
X4.5016Y-3.7594
X4.5016Y-3.8594
X4.5016Y-3.9594
X4.5016Y-4.0594
X4.5016Y-4.1594
X5.1299Y-1.9646
X5.2299Y-1.9646
X5.3299Y-1.9646
X5.4299Y-1.9646
X5.5299Y-1.9646
X5.6299Y-1.9646
X5.7299Y-1.9646
X5.8299Y-1.9646
X6.252Y-2.3858
X6.352Y-2.3858
X6.4391Y-2.6561
X6.4449Y-4.2087
X6.452Y-2.3858
X6.552Y-2.3858
X6.652Y-2.3858
X6.752Y-2.3858
X7.1142Y-2.6457
X7.1181Y-4.2028
T3
G00X5.0364Y-2.3846
M15
G01X5.0364Y-2.6405
M16
G05
G00X5.9164Y-2.3846
M15
G01X5.9164Y-2.6405
M16
G05
T0
M30
