%TF.GenerationSoftware,KiCad,Pcbnew,(6.0.4)*%
%TF.CreationDate,2022-10-08T17:17:15-04:00*%
%TF.ProjectId,CubeSat,43756265-5361-4742-9e6b-696361645f70,rev?*%
%TF.SameCoordinates,Original*%
%TF.FileFunction,Legend,Top*%
%TF.FilePolarity,Positive*%
%FSLAX46Y46*%
G04 Gerber Fmt 4.6, Leading zero omitted, Abs format (unit mm)*
G04 Created by KiCad (PCBNEW (6.0.4)) date 2022-10-08 17:17:15*
%MOMM*%
%LPD*%
G01*
G04 APERTURE LIST*
%ADD10C,0.150000*%
%ADD11C,0.120000*%
G04 APERTURE END LIST*
D10*
%TO.C,J4*%
X116666666Y-56352380D02*
X116666666Y-57066666D01*
X116619047Y-57209523D01*
X116523809Y-57304761D01*
X116380952Y-57352380D01*
X116285714Y-57352380D01*
X117571428Y-56685714D02*
X117571428Y-57352380D01*
X117333333Y-56304761D02*
X117095238Y-57019047D01*
X117714285Y-57019047D01*
%TO.C,J1*%
X139274666Y-59739380D02*
X139274666Y-60453666D01*
X139227047Y-60596523D01*
X139131809Y-60691761D01*
X138988952Y-60739380D01*
X138893714Y-60739380D01*
X140274666Y-60739380D02*
X139703238Y-60739380D01*
X139988952Y-60739380D02*
X139988952Y-59739380D01*
X139893714Y-59882238D01*
X139798476Y-59977476D01*
X139703238Y-60025095D01*
%TO.C,J2*%
X155922380Y-60933333D02*
X156636666Y-60933333D01*
X156779523Y-60980952D01*
X156874761Y-61076190D01*
X156922380Y-61219047D01*
X156922380Y-61314285D01*
X156017619Y-60504761D02*
X155970000Y-60457142D01*
X155922380Y-60361904D01*
X155922380Y-60123809D01*
X155970000Y-60028571D01*
X156017619Y-59980952D01*
X156112857Y-59933333D01*
X156208095Y-59933333D01*
X156350952Y-59980952D01*
X156922380Y-60552380D01*
X156922380Y-59933333D01*
%TO.C,U1*%
X169752380Y-87261904D02*
X170561904Y-87261904D01*
X170657142Y-87214285D01*
X170704761Y-87166666D01*
X170752380Y-87071428D01*
X170752380Y-86880952D01*
X170704761Y-86785714D01*
X170657142Y-86738095D01*
X170561904Y-86690476D01*
X169752380Y-86690476D01*
X170752380Y-85690476D02*
X170752380Y-86261904D01*
X170752380Y-85976190D02*
X169752380Y-85976190D01*
X169895238Y-86071428D01*
X169990476Y-86166666D01*
X170038095Y-86261904D01*
%TO.C,H2*%
X178238095Y-53952380D02*
X178238095Y-52952380D01*
X178238095Y-53428571D02*
X178809523Y-53428571D01*
X178809523Y-53952380D02*
X178809523Y-52952380D01*
X179238095Y-53047619D02*
X179285714Y-53000000D01*
X179380952Y-52952380D01*
X179619047Y-52952380D01*
X179714285Y-53000000D01*
X179761904Y-53047619D01*
X179809523Y-53142857D01*
X179809523Y-53238095D01*
X179761904Y-53380952D01*
X179190476Y-53952380D01*
X179809523Y-53952380D01*
%TO.C,H3*%
X98238095Y-110952380D02*
X98238095Y-109952380D01*
X98238095Y-110428571D02*
X98809523Y-110428571D01*
X98809523Y-110952380D02*
X98809523Y-109952380D01*
X99190476Y-109952380D02*
X99809523Y-109952380D01*
X99476190Y-110333333D01*
X99619047Y-110333333D01*
X99714285Y-110380952D01*
X99761904Y-110428571D01*
X99809523Y-110523809D01*
X99809523Y-110761904D01*
X99761904Y-110857142D01*
X99714285Y-110904761D01*
X99619047Y-110952380D01*
X99333333Y-110952380D01*
X99238095Y-110904761D01*
X99190476Y-110857142D01*
%TO.C,H5*%
X116238095Y-111552380D02*
X116238095Y-110552380D01*
X116238095Y-111028571D02*
X116809523Y-111028571D01*
X116809523Y-111552380D02*
X116809523Y-110552380D01*
X117761904Y-110552380D02*
X117285714Y-110552380D01*
X117238095Y-111028571D01*
X117285714Y-110980952D01*
X117380952Y-110933333D01*
X117619047Y-110933333D01*
X117714285Y-110980952D01*
X117761904Y-111028571D01*
X117809523Y-111123809D01*
X117809523Y-111361904D01*
X117761904Y-111457142D01*
X117714285Y-111504761D01*
X117619047Y-111552380D01*
X117380952Y-111552380D01*
X117285714Y-111504761D01*
X117238095Y-111457142D01*
%TO.C,J3*%
X149882380Y-50233333D02*
X150596666Y-50233333D01*
X150739523Y-50280952D01*
X150834761Y-50376190D01*
X150882380Y-50519047D01*
X150882380Y-50614285D01*
X149882380Y-49852380D02*
X149882380Y-49233333D01*
X150263333Y-49566666D01*
X150263333Y-49423809D01*
X150310952Y-49328571D01*
X150358571Y-49280952D01*
X150453809Y-49233333D01*
X150691904Y-49233333D01*
X150787142Y-49280952D01*
X150834761Y-49328571D01*
X150882380Y-49423809D01*
X150882380Y-49709523D01*
X150834761Y-49804761D01*
X150787142Y-49852380D01*
%TO.C,H1*%
X178238095Y-110952380D02*
X178238095Y-109952380D01*
X178238095Y-110428571D02*
X178809523Y-110428571D01*
X178809523Y-110952380D02*
X178809523Y-109952380D01*
X179809523Y-110952380D02*
X179238095Y-110952380D01*
X179523809Y-110952380D02*
X179523809Y-109952380D01*
X179428571Y-110095238D01*
X179333333Y-110190476D01*
X179238095Y-110238095D01*
%TO.C,H4*%
X98238095Y-53452380D02*
X98238095Y-52452380D01*
X98238095Y-52928571D02*
X98809523Y-52928571D01*
X98809523Y-53452380D02*
X98809523Y-52452380D01*
X99714285Y-52785714D02*
X99714285Y-53452380D01*
X99476190Y-52404761D02*
X99238095Y-53119047D01*
X99857142Y-53119047D01*
%TO.C,H6*%
X112238095Y-49352380D02*
X112238095Y-48352380D01*
X112238095Y-48828571D02*
X112809523Y-48828571D01*
X112809523Y-49352380D02*
X112809523Y-48352380D01*
X113714285Y-48352380D02*
X113523809Y-48352380D01*
X113428571Y-48400000D01*
X113380952Y-48447619D01*
X113285714Y-48590476D01*
X113238095Y-48780952D01*
X113238095Y-49161904D01*
X113285714Y-49257142D01*
X113333333Y-49304761D01*
X113428571Y-49352380D01*
X113619047Y-49352380D01*
X113714285Y-49304761D01*
X113761904Y-49257142D01*
X113809523Y-49161904D01*
X113809523Y-48923809D01*
X113761904Y-48828571D01*
X113714285Y-48780952D01*
X113619047Y-48733333D01*
X113428571Y-48733333D01*
X113333333Y-48780952D01*
X113285714Y-48828571D01*
X113238095Y-48923809D01*
D11*
%TO.C,J4*%
X110470000Y-58660000D02*
X110470000Y-106980000D01*
X110470000Y-57390000D02*
X110470000Y-56060000D01*
X110470000Y-56060000D02*
X111800000Y-56060000D01*
X113070000Y-58660000D02*
X113070000Y-56060000D01*
X115670000Y-56060000D02*
X115670000Y-106980000D01*
X110470000Y-106980000D02*
X115670000Y-106980000D01*
X113070000Y-56060000D02*
X115670000Y-56060000D01*
X110470000Y-58660000D02*
X113070000Y-58660000D01*
%TO.C,J2*%
X160070000Y-59270000D02*
X172830000Y-59270000D01*
X158800000Y-61930000D02*
X157470000Y-61930000D01*
X160070000Y-61930000D02*
X172830000Y-61930000D01*
X172830000Y-61930000D02*
X172830000Y-59270000D01*
X157470000Y-61930000D02*
X157470000Y-60600000D01*
X160070000Y-61930000D02*
X160070000Y-59270000D01*
%TO.C,U1*%
X162300000Y-108500000D02*
X182300000Y-108500000D01*
X182300000Y-108500000D02*
X182300000Y-65500000D01*
X182300000Y-65500000D02*
X162300000Y-65500000D01*
X162300000Y-65500000D02*
X162300000Y-108500000D01*
%TO.C,J3*%
X146830000Y-48570000D02*
X128990000Y-48570000D01*
X146830000Y-51230000D02*
X128990000Y-51230000D01*
X149430000Y-48570000D02*
X149430000Y-49900000D01*
X148100000Y-48570000D02*
X149430000Y-48570000D01*
X128990000Y-48570000D02*
X128990000Y-51230000D01*
X146830000Y-48570000D02*
X146830000Y-51230000D01*
%TD*%
M02*
