%TF.GenerationSoftware,KiCad,Pcbnew,(6.0.4)*%
%TF.CreationDate,2022-10-08T17:17:15-04:00*%
%TF.ProjectId,CubeSat,43756265-5361-4742-9e6b-696361645f70,rev?*%
%TF.SameCoordinates,Original*%
%TF.FileFunction,Copper,L1,Top*%
%TF.FilePolarity,Positive*%
%FSLAX46Y46*%
G04 Gerber Fmt 4.6, Leading zero omitted, Abs format (unit mm)*
G04 Created by KiCad (PCBNEW (6.0.4)) date 2022-10-08 17:17:15*
%MOMM*%
%LPD*%
G01*
G04 APERTURE LIST*
G04 Aperture macros list*
%AMRoundRect*
0 Rectangle with rounded corners*
0 $1 Rounding radius*
0 $2 $3 $4 $5 $6 $7 $8 $9 X,Y pos of 4 corners*
0 Add a 4 corners polygon primitive as box body*
4,1,4,$2,$3,$4,$5,$6,$7,$8,$9,$2,$3,0*
0 Add four circle primitives for the rounded corners*
1,1,$1+$1,$2,$3*
1,1,$1+$1,$4,$5*
1,1,$1+$1,$6,$7*
1,1,$1+$1,$8,$9*
0 Add four rect primitives between the rounded corners*
20,1,$1+$1,$2,$3,$4,$5,0*
20,1,$1+$1,$4,$5,$6,$7,0*
20,1,$1+$1,$6,$7,$8,$9,0*
20,1,$1+$1,$8,$9,$2,$3,0*%
G04 Aperture macros list end*
%TA.AperFunction,ComponentPad*%
%ADD10R,1.700000X1.700000*%
%TD*%
%TA.AperFunction,ComponentPad*%
%ADD11O,1.700000X1.700000*%
%TD*%
%TA.AperFunction,ComponentPad*%
%ADD12RoundRect,0.750000X-0.750000X-4.250000X0.750000X-4.250000X0.750000X4.250000X-0.750000X4.250000X0*%
%TD*%
%TA.AperFunction,ComponentPad*%
%ADD13R,2.000000X2.000000*%
%TD*%
%TA.AperFunction,ViaPad*%
%ADD14C,0.800000*%
%TD*%
%TA.AperFunction,Conductor*%
%ADD15C,1.000000*%
%TD*%
%TA.AperFunction,Conductor*%
%ADD16C,0.300000*%
%TD*%
%TA.AperFunction,Conductor*%
%ADD17C,0.250000*%
%TD*%
G04 APERTURE END LIST*
D10*
%TO.P,J4,1,Pin_1*%
%TO.N,/3.3V*%
X111800000Y-57390000D03*
D11*
%TO.P,J4,2,Pin_2*%
%TO.N,/5VB*%
X114340000Y-57390000D03*
%TO.P,J4,3,Pin_3*%
%TO.N,/SDA*%
X111800000Y-59930000D03*
%TO.P,J4,4,Pin_4*%
%TO.N,/5VB*%
X114340000Y-59930000D03*
%TO.P,J4,5,Pin_5*%
%TO.N,/SCL*%
X111800000Y-62470000D03*
%TO.P,J4,6,Pin_6*%
%TO.N,GND*%
X114340000Y-62470000D03*
%TO.P,J4,7,Pin_7*%
%TO.N,unconnected-(J4-Pad7)*%
X111800000Y-65010000D03*
%TO.P,J4,8,Pin_8*%
%TO.N,unconnected-(J4-Pad8)*%
X114340000Y-65010000D03*
%TO.P,J4,9,Pin_9*%
%TO.N,unconnected-(J4-Pad9)*%
X111800000Y-67550000D03*
%TO.P,J4,10,Pin_10*%
%TO.N,unconnected-(J4-Pad10)*%
X114340000Y-67550000D03*
%TO.P,J4,11,Pin_11*%
%TO.N,unconnected-(J4-Pad11)*%
X111800000Y-70090000D03*
%TO.P,J4,12,Pin_12*%
%TO.N,unconnected-(J4-Pad12)*%
X114340000Y-70090000D03*
%TO.P,J4,13,Pin_13*%
%TO.N,unconnected-(J4-Pad13)*%
X111800000Y-72630000D03*
%TO.P,J4,14,Pin_14*%
%TO.N,unconnected-(J4-Pad14)*%
X114340000Y-72630000D03*
%TO.P,J4,15,Pin_15*%
%TO.N,unconnected-(J4-Pad15)*%
X111800000Y-75170000D03*
%TO.P,J4,16,Pin_16*%
%TO.N,unconnected-(J4-Pad16)*%
X114340000Y-75170000D03*
%TO.P,J4,17,Pin_17*%
%TO.N,unconnected-(J4-Pad17)*%
X111800000Y-77710000D03*
%TO.P,J4,18,Pin_18*%
%TO.N,unconnected-(J4-Pad18)*%
X114340000Y-77710000D03*
%TO.P,J4,19,Pin_19*%
%TO.N,unconnected-(J4-Pad19)*%
X111800000Y-80250000D03*
%TO.P,J4,20,Pin_20*%
%TO.N,unconnected-(J4-Pad20)*%
X114340000Y-80250000D03*
%TO.P,J4,21,Pin_21*%
%TO.N,unconnected-(J4-Pad21)*%
X111800000Y-82790000D03*
%TO.P,J4,22,Pin_22*%
%TO.N,unconnected-(J4-Pad22)*%
X114340000Y-82790000D03*
%TO.P,J4,23,Pin_23*%
%TO.N,unconnected-(J4-Pad23)*%
X111800000Y-85330000D03*
%TO.P,J4,24,Pin_24*%
%TO.N,unconnected-(J4-Pad24)*%
X114340000Y-85330000D03*
%TO.P,J4,25,Pin_25*%
%TO.N,unconnected-(J4-Pad25)*%
X111800000Y-87870000D03*
%TO.P,J4,26,Pin_26*%
%TO.N,unconnected-(J4-Pad26)*%
X114340000Y-87870000D03*
%TO.P,J4,27,Pin_27*%
%TO.N,unconnected-(J4-Pad27)*%
X111800000Y-90410000D03*
%TO.P,J4,28,Pin_28*%
%TO.N,unconnected-(J4-Pad28)*%
X114340000Y-90410000D03*
%TO.P,J4,29,Pin_29*%
%TO.N,/brake*%
X111800000Y-92950000D03*
%TO.P,J4,30,Pin_30*%
%TO.N,unconnected-(J4-Pad30)*%
X114340000Y-92950000D03*
%TO.P,J4,31,Pin_31*%
%TO.N,/CW{slash}CCW*%
X111800000Y-95490000D03*
%TO.P,J4,32,Pin_32*%
%TO.N,/PWM*%
X114340000Y-95490000D03*
%TO.P,J4,33,Pin_33*%
%TO.N,/CHB*%
X111800000Y-98030000D03*
%TO.P,J4,34,Pin_34*%
%TO.N,unconnected-(J4-Pad34)*%
X114340000Y-98030000D03*
%TO.P,J4,35,Pin_35*%
%TO.N,/CHA*%
X111800000Y-100570000D03*
%TO.P,J4,36,Pin_36*%
%TO.N,unconnected-(J4-Pad36)*%
X114340000Y-100570000D03*
%TO.P,J4,37,Pin_37*%
%TO.N,unconnected-(J4-Pad37)*%
X111800000Y-103110000D03*
%TO.P,J4,38,Pin_38*%
%TO.N,unconnected-(J4-Pad38)*%
X114340000Y-103110000D03*
%TO.P,J4,39,Pin_39*%
%TO.N,unconnected-(J4-Pad39)*%
X111800000Y-105650000D03*
%TO.P,J4,40,Pin_40*%
%TO.N,unconnected-(J4-Pad40)*%
X114340000Y-105650000D03*
%TD*%
D12*
%TO.P,J1,GND,Pin_1*%
%TO.N,GND*%
X150276000Y-63819000D03*
%TO.P,J1,VCC,Pin_2*%
%TO.N,VCC*%
X127924000Y-63819000D03*
%TD*%
D10*
%TO.P,J2,1,Pin_1*%
%TO.N,/3.3V*%
X158800000Y-60600000D03*
D11*
%TO.P,J2,2,Pin_2*%
%TO.N,unconnected-(J2-Pad2)*%
X161340000Y-60600000D03*
%TO.P,J2,3,Pin_3*%
%TO.N,GND*%
X163880000Y-60600000D03*
%TO.P,J2,4,Pin_4*%
%TO.N,/SCL*%
X166420000Y-60600000D03*
%TO.P,J2,5,Pin_5*%
%TO.N,/SDA*%
X168960000Y-60600000D03*
%TO.P,J2,6,Pin_6*%
%TO.N,unconnected-(J2-Pad6)*%
X171500000Y-60600000D03*
%TD*%
D13*
%TO.P,U1,1,IN+*%
%TO.N,VCC*%
X163700000Y-106900000D03*
%TO.P,U1,2,IN-*%
%TO.N,GND*%
X180800000Y-106750000D03*
%TO.P,U1,3,OUT+*%
%TO.N,/5VB*%
X163552000Y-67464000D03*
%TO.P,U1,4,OUT-*%
%TO.N,GND*%
X180700000Y-67200000D03*
%TD*%
D10*
%TO.P,J3,1,Pin_1*%
%TO.N,VCC*%
X148100000Y-49900000D03*
D11*
%TO.P,J3,2,Pin_2*%
%TO.N,GND*%
X145560000Y-49900000D03*
%TO.P,J3,3,Pin_3*%
%TO.N,/brake*%
X143020000Y-49900000D03*
%TO.P,J3,4,Pin_4*%
%TO.N,/PWM*%
X140480000Y-49900000D03*
%TO.P,J3,5,Pin_5*%
%TO.N,/CW{slash}CCW*%
X137940000Y-49900000D03*
%TO.P,J3,6,Pin_6*%
%TO.N,unconnected-(J3-Pad6)*%
X135400000Y-49900000D03*
%TO.P,J3,7,Pin_7*%
%TO.N,/CHB*%
X132860000Y-49900000D03*
%TO.P,J3,8,Pin_8*%
%TO.N,/CHA*%
X130320000Y-49900000D03*
%TD*%
D14*
%TO.N,/SCL*%
X144597848Y-59003704D03*
%TO.N,/SDA*%
X145100000Y-58139500D03*
%TD*%
D15*
%TO.N,VCC*%
X127924000Y-48226000D02*
X127924000Y-63819000D01*
X147100000Y-46800000D02*
X129350000Y-46800000D01*
X148100000Y-47800000D02*
X147100000Y-46800000D01*
X129350000Y-46800000D02*
X127924000Y-48226000D01*
X148100000Y-49900000D02*
X148100000Y-47800000D01*
D16*
%TO.N,/5VB*%
X114340000Y-57390000D02*
X114340000Y-59930000D01*
D17*
%TO.N,/SCL*%
X163920000Y-58100000D02*
X166420000Y-60600000D01*
X144597848Y-59003704D02*
X146896296Y-59003704D01*
X147800000Y-58100000D02*
X163920000Y-58100000D01*
X146896296Y-59003704D02*
X147800000Y-58100000D01*
%TO.N,/SDA*%
X145100000Y-58139500D02*
X147060500Y-58139500D01*
X166010480Y-57650480D02*
X168960000Y-60600000D01*
X147549520Y-57650480D02*
X166010480Y-57650480D01*
X147060500Y-58139500D02*
X147549520Y-57650480D01*
%TD*%
%TA.AperFunction,Conductor*%
%TO.N,GND*%
G36*
X182433621Y-45528502D02*
G01*
X182480114Y-45582158D01*
X182491500Y-45634500D01*
X182491500Y-105454461D01*
X182471498Y-105522582D01*
X182417842Y-105569075D01*
X182347568Y-105579179D01*
X182282988Y-105549685D01*
X182254980Y-105514970D01*
X182244788Y-105496354D01*
X182168285Y-105394276D01*
X182155724Y-105381715D01*
X182053649Y-105305214D01*
X182038054Y-105296676D01*
X181917606Y-105251522D01*
X181902351Y-105247895D01*
X181851486Y-105242369D01*
X181844672Y-105242000D01*
X181072115Y-105242000D01*
X181056876Y-105246475D01*
X181055671Y-105247865D01*
X181054000Y-105255548D01*
X181054000Y-108239884D01*
X181058475Y-108255123D01*
X181059865Y-108256328D01*
X181067548Y-108257999D01*
X181844669Y-108257999D01*
X181851490Y-108257629D01*
X181902352Y-108252105D01*
X181917604Y-108248479D01*
X182038054Y-108203324D01*
X182053649Y-108194786D01*
X182155724Y-108118285D01*
X182168285Y-108105724D01*
X182244788Y-108003646D01*
X182254980Y-107985030D01*
X182305238Y-107934884D01*
X182374629Y-107919870D01*
X182441122Y-107944755D01*
X182483605Y-108001638D01*
X182491500Y-108045539D01*
X182491500Y-117365500D01*
X182471498Y-117433621D01*
X182417842Y-117480114D01*
X182365500Y-117491500D01*
X150634500Y-117491500D01*
X150566379Y-117471498D01*
X150519886Y-117417842D01*
X150508500Y-117365500D01*
X150508500Y-114107655D01*
X177239858Y-114107655D01*
X177275104Y-114366638D01*
X177276412Y-114371124D01*
X177276412Y-114371126D01*
X177296098Y-114438664D01*
X177348243Y-114617567D01*
X177457668Y-114854928D01*
X177460231Y-114858837D01*
X177598410Y-115069596D01*
X177598414Y-115069601D01*
X177600976Y-115073509D01*
X177775018Y-115268506D01*
X177975970Y-115435637D01*
X177979973Y-115438066D01*
X178195422Y-115568804D01*
X178195426Y-115568806D01*
X178199419Y-115571229D01*
X178440455Y-115672303D01*
X178693783Y-115736641D01*
X178698434Y-115737109D01*
X178698438Y-115737110D01*
X178891308Y-115756531D01*
X178910867Y-115758500D01*
X179066354Y-115758500D01*
X179068679Y-115758327D01*
X179068685Y-115758327D01*
X179256000Y-115744407D01*
X179256004Y-115744406D01*
X179260652Y-115744061D01*
X179265200Y-115743032D01*
X179265206Y-115743031D01*
X179451601Y-115700853D01*
X179515577Y-115686377D01*
X179551769Y-115672303D01*
X179754824Y-115593340D01*
X179754827Y-115593339D01*
X179759177Y-115591647D01*
X179986098Y-115461951D01*
X180191357Y-115300138D01*
X180370443Y-115109763D01*
X180519424Y-114895009D01*
X180635025Y-114660593D01*
X180714707Y-114411665D01*
X180756721Y-114153693D01*
X180760142Y-113892345D01*
X180724896Y-113633362D01*
X180710473Y-113583877D01*
X180653068Y-113386932D01*
X180651757Y-113382433D01*
X180542332Y-113145072D01*
X180509519Y-113095024D01*
X180401590Y-112930404D01*
X180401586Y-112930399D01*
X180399024Y-112926491D01*
X180224982Y-112731494D01*
X180024030Y-112564363D01*
X179976844Y-112535730D01*
X179804578Y-112431196D01*
X179804574Y-112431194D01*
X179800581Y-112428771D01*
X179559545Y-112327697D01*
X179306217Y-112263359D01*
X179301566Y-112262891D01*
X179301562Y-112262890D01*
X179092271Y-112241816D01*
X179089133Y-112241500D01*
X178933646Y-112241500D01*
X178931321Y-112241673D01*
X178931315Y-112241673D01*
X178744000Y-112255593D01*
X178743996Y-112255594D01*
X178739348Y-112255939D01*
X178734800Y-112256968D01*
X178734794Y-112256969D01*
X178548399Y-112299147D01*
X178484423Y-112313623D01*
X178480071Y-112315315D01*
X178480069Y-112315316D01*
X178245176Y-112406660D01*
X178245173Y-112406661D01*
X178240823Y-112408353D01*
X178013902Y-112538049D01*
X177808643Y-112699862D01*
X177629557Y-112890237D01*
X177480576Y-113104991D01*
X177364975Y-113339407D01*
X177285293Y-113588335D01*
X177243279Y-113846307D01*
X177239858Y-114107655D01*
X150508500Y-114107655D01*
X150508500Y-108362659D01*
X150528502Y-108294538D01*
X150569101Y-108254961D01*
X150573805Y-108252105D01*
X151061252Y-107956104D01*
X151073217Y-107948134D01*
X162191500Y-107948134D01*
X162198255Y-108010316D01*
X162249385Y-108146705D01*
X162336739Y-108263261D01*
X162453295Y-108350615D01*
X162589684Y-108401745D01*
X162651866Y-108408500D01*
X164748134Y-108408500D01*
X164810316Y-108401745D01*
X164946705Y-108350615D01*
X165063261Y-108263261D01*
X165150615Y-108146705D01*
X165201745Y-108010316D01*
X165208500Y-107948134D01*
X165208500Y-107794669D01*
X179292001Y-107794669D01*
X179292371Y-107801490D01*
X179297895Y-107852352D01*
X179301521Y-107867604D01*
X179346676Y-107988054D01*
X179355214Y-108003649D01*
X179431715Y-108105724D01*
X179444276Y-108118285D01*
X179546351Y-108194786D01*
X179561946Y-108203324D01*
X179682394Y-108248478D01*
X179697649Y-108252105D01*
X179748514Y-108257631D01*
X179755328Y-108258000D01*
X180527885Y-108258000D01*
X180543124Y-108253525D01*
X180544329Y-108252135D01*
X180546000Y-108244452D01*
X180546000Y-107022115D01*
X180541525Y-107006876D01*
X180540135Y-107005671D01*
X180532452Y-107004000D01*
X179310116Y-107004000D01*
X179294877Y-107008475D01*
X179293672Y-107009865D01*
X179292001Y-107017548D01*
X179292001Y-107794669D01*
X165208500Y-107794669D01*
X165208500Y-106477885D01*
X179292000Y-106477885D01*
X179296475Y-106493124D01*
X179297865Y-106494329D01*
X179305548Y-106496000D01*
X180527885Y-106496000D01*
X180543124Y-106491525D01*
X180544329Y-106490135D01*
X180546000Y-106482452D01*
X180546000Y-105260116D01*
X180541525Y-105244877D01*
X180540135Y-105243672D01*
X180532452Y-105242001D01*
X179755331Y-105242001D01*
X179748510Y-105242371D01*
X179697648Y-105247895D01*
X179682396Y-105251521D01*
X179561946Y-105296676D01*
X179546351Y-105305214D01*
X179444276Y-105381715D01*
X179431715Y-105394276D01*
X179355214Y-105496351D01*
X179346676Y-105511946D01*
X179301522Y-105632394D01*
X179297895Y-105647649D01*
X179292369Y-105698514D01*
X179292000Y-105705328D01*
X179292000Y-106477885D01*
X165208500Y-106477885D01*
X165208500Y-105851866D01*
X165201745Y-105789684D01*
X165150615Y-105653295D01*
X165063261Y-105536739D01*
X164946705Y-105449385D01*
X164810316Y-105398255D01*
X164748134Y-105391500D01*
X162651866Y-105391500D01*
X162589684Y-105398255D01*
X162453295Y-105449385D01*
X162336739Y-105536739D01*
X162249385Y-105653295D01*
X162198255Y-105789684D01*
X162191500Y-105851866D01*
X162191500Y-107948134D01*
X151073217Y-107948134D01*
X151844119Y-107434650D01*
X151845177Y-107433879D01*
X151845192Y-107433869D01*
X152424782Y-107011753D01*
X152604473Y-106880884D01*
X152609701Y-106876731D01*
X153339958Y-106296592D01*
X153339972Y-106296580D01*
X153340982Y-106295778D01*
X154052355Y-105680357D01*
X154053293Y-105679474D01*
X154053311Y-105679458D01*
X154736362Y-105036625D01*
X154737345Y-105035700D01*
X155394752Y-104362936D01*
X156023423Y-103663245D01*
X156622257Y-102937853D01*
X157190203Y-102188032D01*
X157726267Y-101415096D01*
X158079005Y-100858069D01*
X158228800Y-100621520D01*
X158228805Y-100621512D01*
X158229509Y-100620400D01*
X158699046Y-99805336D01*
X158961688Y-99301797D01*
X159133429Y-98972536D01*
X159133438Y-98972518D01*
X159134056Y-98971333D01*
X159134623Y-98970125D01*
X159134633Y-98970105D01*
X159533213Y-98121055D01*
X159533218Y-98121044D01*
X159533777Y-98119853D01*
X159583256Y-98001851D01*
X159896999Y-97253601D01*
X159897009Y-97253576D01*
X159897507Y-97252388D01*
X160224609Y-96370459D01*
X160300040Y-96137625D01*
X160514110Y-95476846D01*
X160514111Y-95476842D01*
X160514510Y-95475611D01*
X160518340Y-95461851D01*
X160646480Y-95001406D01*
X160766702Y-94569414D01*
X160918450Y-93920031D01*
X160980445Y-93654732D01*
X160980449Y-93654714D01*
X160980743Y-93653455D01*
X161156257Y-92729339D01*
X161250388Y-92088401D01*
X161292747Y-91799982D01*
X161292748Y-91799973D01*
X161292937Y-91798687D01*
X161390544Y-90863130D01*
X161446021Y-89970702D01*
X161448824Y-89925618D01*
X161448825Y-89925594D01*
X161448905Y-89924307D01*
X161452786Y-89732401D01*
X161467893Y-88985199D01*
X161467920Y-88983864D01*
X161461318Y-88678990D01*
X161447584Y-88044767D01*
X161447583Y-88044745D01*
X161447555Y-88043449D01*
X161422361Y-87647361D01*
X161387928Y-87106024D01*
X161387926Y-87106001D01*
X161387844Y-87104711D01*
X161381276Y-87042617D01*
X161289034Y-86170613D01*
X161289031Y-86170591D01*
X161288894Y-86169294D01*
X161283168Y-86130688D01*
X161151074Y-85240168D01*
X161151074Y-85240167D01*
X161150877Y-85238840D01*
X160974036Y-84314977D01*
X160758680Y-83399326D01*
X160728593Y-83291811D01*
X160505544Y-82494768D01*
X160505187Y-82493492D01*
X160390591Y-82141492D01*
X160214405Y-81600305D01*
X160214400Y-81600291D01*
X160214000Y-81599062D01*
X159974812Y-80956994D01*
X159886089Y-80718830D01*
X159886084Y-80718818D01*
X159885632Y-80717604D01*
X159520656Y-79850662D01*
X159119713Y-78999757D01*
X159115076Y-78990897D01*
X158766329Y-78324616D01*
X158683505Y-78166380D01*
X158652419Y-78112596D01*
X158288139Y-77482342D01*
X158212798Y-77351991D01*
X157708415Y-76558018D01*
X157171241Y-75785853D01*
X156602219Y-75036848D01*
X156183063Y-74530590D01*
X156003182Y-74313330D01*
X156003179Y-74313327D01*
X156002344Y-74312318D01*
X155876851Y-74173051D01*
X155373538Y-73614496D01*
X155373527Y-73614485D01*
X155372668Y-73613531D01*
X155371776Y-73612621D01*
X155371764Y-73612608D01*
X154803361Y-73032596D01*
X154714296Y-72941712D01*
X154713359Y-72940833D01*
X154713345Y-72940819D01*
X154115408Y-72379707D01*
X154028380Y-72298039D01*
X153449019Y-71798277D01*
X153317118Y-71684498D01*
X153317106Y-71684488D01*
X153316124Y-71683641D01*
X153252256Y-71633051D01*
X152579829Y-71100428D01*
X152578775Y-71099593D01*
X152529671Y-71063938D01*
X152156569Y-70793028D01*
X151817626Y-70546920D01*
X151735815Y-70492596D01*
X151035122Y-70027328D01*
X151035120Y-70027327D01*
X151034012Y-70026591D01*
X151032893Y-70025914D01*
X151032873Y-70025901D01*
X150230444Y-69540206D01*
X150230443Y-69540206D01*
X150229304Y-69539516D01*
X150082646Y-69458934D01*
X150032576Y-69408600D01*
X150017667Y-69339186D01*
X150020201Y-69321722D01*
X150022000Y-69313452D01*
X150022000Y-69308884D01*
X150530000Y-69308884D01*
X150534475Y-69324123D01*
X150535865Y-69325328D01*
X150543548Y-69326999D01*
X151085961Y-69326999D01*
X151091071Y-69326791D01*
X151224767Y-69315918D01*
X151235320Y-69314148D01*
X151442185Y-69261033D01*
X151452731Y-69257299D01*
X151646705Y-69168490D01*
X151656412Y-69162954D01*
X151831597Y-69041197D01*
X151840176Y-69034024D01*
X151991024Y-68883176D01*
X151998197Y-68874597D01*
X152119954Y-68699412D01*
X152125490Y-68689705D01*
X152206789Y-68512134D01*
X162043500Y-68512134D01*
X162050255Y-68574316D01*
X162101385Y-68710705D01*
X162188739Y-68827261D01*
X162305295Y-68914615D01*
X162441684Y-68965745D01*
X162503866Y-68972500D01*
X164600134Y-68972500D01*
X164662316Y-68965745D01*
X164798705Y-68914615D01*
X164915261Y-68827261D01*
X165002615Y-68710705D01*
X165053745Y-68574316D01*
X165060500Y-68512134D01*
X165060500Y-68244669D01*
X179192001Y-68244669D01*
X179192371Y-68251490D01*
X179197895Y-68302352D01*
X179201521Y-68317604D01*
X179246676Y-68438054D01*
X179255214Y-68453649D01*
X179331715Y-68555724D01*
X179344276Y-68568285D01*
X179446351Y-68644786D01*
X179461946Y-68653324D01*
X179582394Y-68698478D01*
X179597649Y-68702105D01*
X179648514Y-68707631D01*
X179655328Y-68708000D01*
X180427885Y-68708000D01*
X180443124Y-68703525D01*
X180444329Y-68702135D01*
X180446000Y-68694452D01*
X180446000Y-68689884D01*
X180954000Y-68689884D01*
X180958475Y-68705123D01*
X180959865Y-68706328D01*
X180967548Y-68707999D01*
X181744669Y-68707999D01*
X181751490Y-68707629D01*
X181802352Y-68702105D01*
X181817604Y-68698479D01*
X181938054Y-68653324D01*
X181953649Y-68644786D01*
X182055724Y-68568285D01*
X182068285Y-68555724D01*
X182144786Y-68453649D01*
X182153324Y-68438054D01*
X182198478Y-68317606D01*
X182202105Y-68302351D01*
X182207631Y-68251486D01*
X182208000Y-68244672D01*
X182208000Y-67472115D01*
X182203525Y-67456876D01*
X182202135Y-67455671D01*
X182194452Y-67454000D01*
X180972115Y-67454000D01*
X180956876Y-67458475D01*
X180955671Y-67459865D01*
X180954000Y-67467548D01*
X180954000Y-68689884D01*
X180446000Y-68689884D01*
X180446000Y-67472115D01*
X180441525Y-67456876D01*
X180440135Y-67455671D01*
X180432452Y-67454000D01*
X179210116Y-67454000D01*
X179194877Y-67458475D01*
X179193672Y-67459865D01*
X179192001Y-67467548D01*
X179192001Y-68244669D01*
X165060500Y-68244669D01*
X165060500Y-66927885D01*
X179192000Y-66927885D01*
X179196475Y-66943124D01*
X179197865Y-66944329D01*
X179205548Y-66946000D01*
X180427885Y-66946000D01*
X180443124Y-66941525D01*
X180444329Y-66940135D01*
X180446000Y-66932452D01*
X180446000Y-66927885D01*
X180954000Y-66927885D01*
X180958475Y-66943124D01*
X180959865Y-66944329D01*
X180967548Y-66946000D01*
X182189884Y-66946000D01*
X182205123Y-66941525D01*
X182206328Y-66940135D01*
X182207999Y-66932452D01*
X182207999Y-66155331D01*
X182207629Y-66148510D01*
X182202105Y-66097648D01*
X182198479Y-66082396D01*
X182153324Y-65961946D01*
X182144786Y-65946351D01*
X182068285Y-65844276D01*
X182055724Y-65831715D01*
X181953649Y-65755214D01*
X181938054Y-65746676D01*
X181817606Y-65701522D01*
X181802351Y-65697895D01*
X181751486Y-65692369D01*
X181744672Y-65692000D01*
X180972115Y-65692000D01*
X180956876Y-65696475D01*
X180955671Y-65697865D01*
X180954000Y-65705548D01*
X180954000Y-66927885D01*
X180446000Y-66927885D01*
X180446000Y-65710116D01*
X180441525Y-65694877D01*
X180440135Y-65693672D01*
X180432452Y-65692001D01*
X179655331Y-65692001D01*
X179648510Y-65692371D01*
X179597648Y-65697895D01*
X179582396Y-65701521D01*
X179461946Y-65746676D01*
X179446351Y-65755214D01*
X179344276Y-65831715D01*
X179331715Y-65844276D01*
X179255214Y-65946351D01*
X179246676Y-65961946D01*
X179201522Y-66082394D01*
X179197895Y-66097649D01*
X179192369Y-66148514D01*
X179192000Y-66155328D01*
X179192000Y-66927885D01*
X165060500Y-66927885D01*
X165060500Y-66415866D01*
X165053745Y-66353684D01*
X165002615Y-66217295D01*
X164915261Y-66100739D01*
X164798705Y-66013385D01*
X164662316Y-65962255D01*
X164600134Y-65955500D01*
X162503866Y-65955500D01*
X162441684Y-65962255D01*
X162305295Y-66013385D01*
X162188739Y-66100739D01*
X162101385Y-66217295D01*
X162050255Y-66353684D01*
X162043500Y-66415866D01*
X162043500Y-68512134D01*
X152206789Y-68512134D01*
X152214299Y-68495731D01*
X152218033Y-68485185D01*
X152271147Y-68278321D01*
X152272918Y-68267766D01*
X152283793Y-68134070D01*
X152284000Y-68128964D01*
X152284000Y-64091115D01*
X152279525Y-64075876D01*
X152278135Y-64074671D01*
X152270452Y-64073000D01*
X150548115Y-64073000D01*
X150532876Y-64077475D01*
X150531671Y-64078865D01*
X150530000Y-64086548D01*
X150530000Y-69308884D01*
X150022000Y-69308884D01*
X150022000Y-64091115D01*
X150017525Y-64075876D01*
X150016135Y-64074671D01*
X150008452Y-64073000D01*
X148286116Y-64073000D01*
X148270877Y-64077475D01*
X148269672Y-64078865D01*
X148268001Y-64086548D01*
X148268001Y-68128961D01*
X148268209Y-68134071D01*
X148279082Y-68267767D01*
X148280852Y-68278317D01*
X148292846Y-68325030D01*
X148290414Y-68395985D01*
X148250007Y-68454361D01*
X148184453Y-68481625D01*
X148119578Y-68471483D01*
X148116474Y-68470102D01*
X147702903Y-68286063D01*
X147683329Y-68278317D01*
X146829497Y-67940431D01*
X146829483Y-67940426D01*
X146828263Y-67939943D01*
X145939902Y-67630736D01*
X145938662Y-67630362D01*
X145938638Y-67630354D01*
X145040627Y-67359360D01*
X145040618Y-67359357D01*
X145039377Y-67358983D01*
X144128266Y-67125161D01*
X143208167Y-66929680D01*
X142719427Y-66847054D01*
X142281996Y-66773102D01*
X142281983Y-66773100D01*
X142280693Y-66772882D01*
X141347468Y-66655043D01*
X141167473Y-66639935D01*
X140411433Y-66576478D01*
X140411412Y-66576477D01*
X140410129Y-66576369D01*
X140408825Y-66576314D01*
X140408819Y-66576314D01*
X139471639Y-66537052D01*
X139471623Y-66537052D01*
X139470318Y-66536997D01*
X138529682Y-66536997D01*
X138528377Y-66537052D01*
X138528361Y-66537052D01*
X137591181Y-66576314D01*
X137591175Y-66576314D01*
X137589871Y-66576369D01*
X137588588Y-66576477D01*
X137588567Y-66576478D01*
X136832527Y-66639935D01*
X136652532Y-66655043D01*
X135719307Y-66772882D01*
X135718017Y-66773100D01*
X135718004Y-66773102D01*
X135280573Y-66847054D01*
X134791833Y-66929680D01*
X133871734Y-67125161D01*
X132960623Y-67358983D01*
X132959382Y-67359357D01*
X132959373Y-67359360D01*
X132061362Y-67630354D01*
X132061338Y-67630362D01*
X132060098Y-67630736D01*
X131171737Y-67939943D01*
X131170517Y-67940426D01*
X131170503Y-67940431D01*
X130316671Y-68278317D01*
X130297097Y-68286063D01*
X130295893Y-68286599D01*
X130295853Y-68286616D01*
X130099797Y-68373861D01*
X130029428Y-68383283D01*
X129965137Y-68353164D01*
X129927335Y-68293068D01*
X129922985Y-68248531D01*
X129932293Y-68134094D01*
X129932294Y-68134070D01*
X129932500Y-68131542D01*
X129932500Y-59506458D01*
X129931659Y-59496109D01*
X129921413Y-59370151D01*
X129920978Y-59364800D01*
X129915473Y-59343357D01*
X129866505Y-59152639D01*
X129866505Y-59152638D01*
X129865110Y-59147206D01*
X129799409Y-59003704D01*
X143684344Y-59003704D01*
X143685034Y-59010269D01*
X143699998Y-59152639D01*
X143704306Y-59193632D01*
X143763321Y-59375260D01*
X143858808Y-59540648D01*
X143863226Y-59545555D01*
X143863227Y-59545556D01*
X143974906Y-59669588D01*
X143986595Y-59682570D01*
X144068583Y-59742138D01*
X144110534Y-59772617D01*
X144141096Y-59794822D01*
X144147124Y-59797506D01*
X144147126Y-59797507D01*
X144309529Y-59869813D01*
X144315560Y-59872498D01*
X144405249Y-59891562D01*
X144495904Y-59910832D01*
X144495909Y-59910832D01*
X144502361Y-59912204D01*
X144693335Y-59912204D01*
X144699787Y-59910832D01*
X144699792Y-59910832D01*
X144790447Y-59891562D01*
X144880136Y-59872498D01*
X144886167Y-59869813D01*
X145048570Y-59797507D01*
X145048572Y-59797506D01*
X145054600Y-59794822D01*
X145085163Y-59772617D01*
X145189189Y-59697037D01*
X145209101Y-59682570D01*
X145213516Y-59677667D01*
X145218428Y-59673244D01*
X145219553Y-59674493D01*
X145272862Y-59641653D01*
X145306048Y-59637204D01*
X146817529Y-59637204D01*
X146828712Y-59637731D01*
X146836205Y-59639406D01*
X146844131Y-59639157D01*
X146844132Y-59639157D01*
X146904282Y-59637266D01*
X146908241Y-59637204D01*
X146936152Y-59637204D01*
X146940087Y-59636707D01*
X146940152Y-59636699D01*
X146951989Y-59635766D01*
X146984247Y-59634752D01*
X146988266Y-59634626D01*
X146996185Y-59634377D01*
X147015639Y-59628725D01*
X147034996Y-59624717D01*
X147047226Y-59623172D01*
X147047227Y-59623172D01*
X147055093Y-59622178D01*
X147062464Y-59619259D01*
X147062466Y-59619259D01*
X147096208Y-59605900D01*
X147107438Y-59602055D01*
X147142279Y-59591933D01*
X147142280Y-59591933D01*
X147149889Y-59589722D01*
X147156708Y-59585689D01*
X147156713Y-59585687D01*
X147167324Y-59579411D01*
X147185072Y-59570716D01*
X147203913Y-59563256D01*
X147239683Y-59537268D01*
X147249603Y-59530752D01*
X147280831Y-59512284D01*
X147280834Y-59512282D01*
X147287658Y-59508246D01*
X147301979Y-59493925D01*
X147317013Y-59481084D01*
X147326990Y-59473835D01*
X147333403Y-59469176D01*
X147361594Y-59435099D01*
X147369584Y-59426320D01*
X148025499Y-58770405D01*
X148087811Y-58736379D01*
X148114594Y-58733500D01*
X148333570Y-58733500D01*
X148401691Y-58753502D01*
X148448184Y-58807158D01*
X148458288Y-58877432D01*
X148437035Y-58931409D01*
X148432050Y-58938582D01*
X148426510Y-58948295D01*
X148337701Y-59142269D01*
X148333967Y-59152815D01*
X148280853Y-59359679D01*
X148279082Y-59370234D01*
X148268207Y-59503930D01*
X148268000Y-59509036D01*
X148268000Y-63546885D01*
X148272475Y-63562124D01*
X148273865Y-63563329D01*
X148281548Y-63565000D01*
X152265884Y-63565000D01*
X152281123Y-63560525D01*
X152282328Y-63559135D01*
X152283999Y-63551452D01*
X152283999Y-61498134D01*
X157441500Y-61498134D01*
X157448255Y-61560316D01*
X157499385Y-61696705D01*
X157586739Y-61813261D01*
X157703295Y-61900615D01*
X157839684Y-61951745D01*
X157901866Y-61958500D01*
X159698134Y-61958500D01*
X159760316Y-61951745D01*
X159896705Y-61900615D01*
X160013261Y-61813261D01*
X160100615Y-61696705D01*
X160122799Y-61637529D01*
X160144598Y-61579382D01*
X160187240Y-61522618D01*
X160253802Y-61497918D01*
X160323150Y-61513126D01*
X160357817Y-61541114D01*
X160386250Y-61573938D01*
X160558126Y-61716632D01*
X160751000Y-61829338D01*
X160959692Y-61909030D01*
X160964760Y-61910061D01*
X160964763Y-61910062D01*
X161059862Y-61929410D01*
X161178597Y-61953567D01*
X161183772Y-61953757D01*
X161183774Y-61953757D01*
X161396673Y-61961564D01*
X161396677Y-61961564D01*
X161401837Y-61961753D01*
X161406957Y-61961097D01*
X161406959Y-61961097D01*
X161618288Y-61934025D01*
X161618289Y-61934025D01*
X161623416Y-61933368D01*
X161628366Y-61931883D01*
X161832429Y-61870661D01*
X161832434Y-61870659D01*
X161837384Y-61869174D01*
X162037994Y-61770896D01*
X162219860Y-61641173D01*
X162226299Y-61634757D01*
X162363616Y-61497918D01*
X162378096Y-61483489D01*
X162382587Y-61477240D01*
X162508453Y-61302077D01*
X162509640Y-61302930D01*
X162556960Y-61259362D01*
X162626897Y-61247145D01*
X162692338Y-61274678D01*
X162720166Y-61306511D01*
X162777694Y-61400388D01*
X162783777Y-61408699D01*
X162923213Y-61569667D01*
X162930580Y-61576883D01*
X163094434Y-61712916D01*
X163102881Y-61718831D01*
X163286756Y-61826279D01*
X163296042Y-61830729D01*
X163495001Y-61906703D01*
X163504899Y-61909579D01*
X163608250Y-61930606D01*
X163622299Y-61929410D01*
X163626000Y-61919065D01*
X163626000Y-59283102D01*
X163622082Y-59269758D01*
X163607806Y-59267771D01*
X163569324Y-59273660D01*
X163559288Y-59276051D01*
X163356868Y-59342212D01*
X163347359Y-59346209D01*
X163158463Y-59444542D01*
X163149738Y-59450036D01*
X162979433Y-59577905D01*
X162971726Y-59584748D01*
X162824590Y-59738717D01*
X162818109Y-59746722D01*
X162713498Y-59900074D01*
X162658587Y-59945076D01*
X162588062Y-59953247D01*
X162524315Y-59921993D01*
X162503618Y-59897509D01*
X162422822Y-59772617D01*
X162422820Y-59772614D01*
X162420014Y-59768277D01*
X162269670Y-59603051D01*
X162265619Y-59599852D01*
X162265615Y-59599848D01*
X162098414Y-59467800D01*
X162098410Y-59467798D01*
X162094359Y-59464598D01*
X162058028Y-59444542D01*
X162025018Y-59426320D01*
X161898789Y-59356638D01*
X161893920Y-59354914D01*
X161893916Y-59354912D01*
X161693087Y-59283795D01*
X161693083Y-59283794D01*
X161688212Y-59282069D01*
X161683119Y-59281162D01*
X161683116Y-59281161D01*
X161473373Y-59243800D01*
X161473367Y-59243799D01*
X161468284Y-59242894D01*
X161394452Y-59241992D01*
X161250081Y-59240228D01*
X161250079Y-59240228D01*
X161244911Y-59240165D01*
X161024091Y-59273955D01*
X160811756Y-59343357D01*
X160762544Y-59368975D01*
X160635522Y-59435099D01*
X160613607Y-59446507D01*
X160609474Y-59449610D01*
X160609471Y-59449612D01*
X160439100Y-59577530D01*
X160434965Y-59580635D01*
X160378537Y-59639684D01*
X160354283Y-59665064D01*
X160292759Y-59700494D01*
X160221846Y-59697037D01*
X160164060Y-59655791D01*
X160145207Y-59622243D01*
X160103767Y-59511703D01*
X160100615Y-59503295D01*
X160013261Y-59386739D01*
X159896705Y-59299385D01*
X159760316Y-59248255D01*
X159698134Y-59241500D01*
X157901866Y-59241500D01*
X157839684Y-59248255D01*
X157703295Y-59299385D01*
X157586739Y-59386739D01*
X157499385Y-59503295D01*
X157448255Y-59639684D01*
X157441500Y-59701866D01*
X157441500Y-61498134D01*
X152283999Y-61498134D01*
X152283999Y-59509039D01*
X152283791Y-59503929D01*
X152272918Y-59370233D01*
X152271148Y-59359680D01*
X152218033Y-59152815D01*
X152214299Y-59142269D01*
X152125490Y-58948295D01*
X152119950Y-58938582D01*
X152114965Y-58931409D01*
X152092512Y-58864056D01*
X152110038Y-58795257D01*
X152161977Y-58746854D01*
X152218430Y-58733500D01*
X163605405Y-58733500D01*
X163673526Y-58753502D01*
X163694501Y-58770405D01*
X164097975Y-59173880D01*
X164132000Y-59236192D01*
X164130697Y-59265795D01*
X164134000Y-59265795D01*
X164134000Y-61918517D01*
X164138064Y-61932359D01*
X164151478Y-61934393D01*
X164158184Y-61933534D01*
X164168262Y-61931392D01*
X164372255Y-61870191D01*
X164381842Y-61866433D01*
X164573095Y-61772739D01*
X164581945Y-61767464D01*
X164755328Y-61643792D01*
X164763200Y-61637139D01*
X164914052Y-61486812D01*
X164920730Y-61478965D01*
X165048022Y-61301819D01*
X165049279Y-61302722D01*
X165096373Y-61259362D01*
X165166311Y-61247145D01*
X165231751Y-61274678D01*
X165259579Y-61306511D01*
X165262818Y-61311797D01*
X165319987Y-61405088D01*
X165466250Y-61573938D01*
X165638126Y-61716632D01*
X165831000Y-61829338D01*
X166039692Y-61909030D01*
X166044760Y-61910061D01*
X166044763Y-61910062D01*
X166139862Y-61929410D01*
X166258597Y-61953567D01*
X166263772Y-61953757D01*
X166263774Y-61953757D01*
X166476673Y-61961564D01*
X166476677Y-61961564D01*
X166481837Y-61961753D01*
X166486957Y-61961097D01*
X166486959Y-61961097D01*
X166698288Y-61934025D01*
X166698289Y-61934025D01*
X166703416Y-61933368D01*
X166708366Y-61931883D01*
X166912429Y-61870661D01*
X166912434Y-61870659D01*
X166917384Y-61869174D01*
X167117994Y-61770896D01*
X167299860Y-61641173D01*
X167306299Y-61634757D01*
X167443616Y-61497918D01*
X167458096Y-61483489D01*
X167462587Y-61477240D01*
X167588453Y-61302077D01*
X167589776Y-61303028D01*
X167636645Y-61259857D01*
X167706580Y-61247625D01*
X167772026Y-61275144D01*
X167799875Y-61306994D01*
X167802818Y-61311797D01*
X167859987Y-61405088D01*
X168006250Y-61573938D01*
X168178126Y-61716632D01*
X168371000Y-61829338D01*
X168579692Y-61909030D01*
X168584760Y-61910061D01*
X168584763Y-61910062D01*
X168679862Y-61929410D01*
X168798597Y-61953567D01*
X168803772Y-61953757D01*
X168803774Y-61953757D01*
X169016673Y-61961564D01*
X169016677Y-61961564D01*
X169021837Y-61961753D01*
X169026957Y-61961097D01*
X169026959Y-61961097D01*
X169238288Y-61934025D01*
X169238289Y-61934025D01*
X169243416Y-61933368D01*
X169248366Y-61931883D01*
X169452429Y-61870661D01*
X169452434Y-61870659D01*
X169457384Y-61869174D01*
X169657994Y-61770896D01*
X169839860Y-61641173D01*
X169846299Y-61634757D01*
X169983616Y-61497918D01*
X169998096Y-61483489D01*
X170002587Y-61477240D01*
X170128453Y-61302077D01*
X170129776Y-61303028D01*
X170176645Y-61259857D01*
X170246580Y-61247625D01*
X170312026Y-61275144D01*
X170339875Y-61306994D01*
X170342818Y-61311797D01*
X170399987Y-61405088D01*
X170546250Y-61573938D01*
X170718126Y-61716632D01*
X170911000Y-61829338D01*
X171119692Y-61909030D01*
X171124760Y-61910061D01*
X171124763Y-61910062D01*
X171219862Y-61929410D01*
X171338597Y-61953567D01*
X171343772Y-61953757D01*
X171343774Y-61953757D01*
X171556673Y-61961564D01*
X171556677Y-61961564D01*
X171561837Y-61961753D01*
X171566957Y-61961097D01*
X171566959Y-61961097D01*
X171778288Y-61934025D01*
X171778289Y-61934025D01*
X171783416Y-61933368D01*
X171788366Y-61931883D01*
X171992429Y-61870661D01*
X171992434Y-61870659D01*
X171997384Y-61869174D01*
X172197994Y-61770896D01*
X172379860Y-61641173D01*
X172386299Y-61634757D01*
X172523616Y-61497918D01*
X172538096Y-61483489D01*
X172542587Y-61477240D01*
X172665435Y-61306277D01*
X172668453Y-61302077D01*
X172673556Y-61291753D01*
X172765136Y-61106453D01*
X172765137Y-61106451D01*
X172767430Y-61101811D01*
X172808228Y-60967529D01*
X172830865Y-60893023D01*
X172830865Y-60893021D01*
X172832370Y-60888069D01*
X172861529Y-60666590D01*
X172862486Y-60627438D01*
X172863074Y-60603365D01*
X172863074Y-60603361D01*
X172863156Y-60600000D01*
X172844852Y-60377361D01*
X172790431Y-60160702D01*
X172701354Y-59955840D01*
X172580014Y-59768277D01*
X172429670Y-59603051D01*
X172425619Y-59599852D01*
X172425615Y-59599848D01*
X172258414Y-59467800D01*
X172258410Y-59467798D01*
X172254359Y-59464598D01*
X172218028Y-59444542D01*
X172185018Y-59426320D01*
X172058789Y-59356638D01*
X172053920Y-59354914D01*
X172053916Y-59354912D01*
X171853087Y-59283795D01*
X171853083Y-59283794D01*
X171848212Y-59282069D01*
X171843119Y-59281162D01*
X171843116Y-59281161D01*
X171633373Y-59243800D01*
X171633367Y-59243799D01*
X171628284Y-59242894D01*
X171554452Y-59241992D01*
X171410081Y-59240228D01*
X171410079Y-59240228D01*
X171404911Y-59240165D01*
X171184091Y-59273955D01*
X170971756Y-59343357D01*
X170922544Y-59368975D01*
X170795522Y-59435099D01*
X170773607Y-59446507D01*
X170769474Y-59449610D01*
X170769471Y-59449612D01*
X170599100Y-59577530D01*
X170594965Y-59580635D01*
X170591393Y-59584373D01*
X170483729Y-59697037D01*
X170440629Y-59742138D01*
X170333201Y-59899621D01*
X170278293Y-59944621D01*
X170207768Y-59952792D01*
X170144021Y-59921538D01*
X170123324Y-59897054D01*
X170042822Y-59772617D01*
X170042820Y-59772614D01*
X170040014Y-59768277D01*
X169889670Y-59603051D01*
X169885619Y-59599852D01*
X169885615Y-59599848D01*
X169718414Y-59467800D01*
X169718410Y-59467798D01*
X169714359Y-59464598D01*
X169678028Y-59444542D01*
X169645018Y-59426320D01*
X169518789Y-59356638D01*
X169513920Y-59354914D01*
X169513916Y-59354912D01*
X169313087Y-59283795D01*
X169313083Y-59283794D01*
X169308212Y-59282069D01*
X169303119Y-59281162D01*
X169303116Y-59281161D01*
X169093373Y-59243800D01*
X169093367Y-59243799D01*
X169088284Y-59242894D01*
X169014452Y-59241992D01*
X168870081Y-59240228D01*
X168870079Y-59240228D01*
X168864911Y-59240165D01*
X168644091Y-59273955D01*
X168631532Y-59278060D01*
X168560568Y-59280210D01*
X168503294Y-59247389D01*
X166514132Y-57258227D01*
X166506592Y-57249941D01*
X166502480Y-57243462D01*
X166452828Y-57196836D01*
X166449987Y-57194082D01*
X166430250Y-57174345D01*
X166427053Y-57171865D01*
X166418031Y-57164160D01*
X166404602Y-57151549D01*
X166385801Y-57133894D01*
X166378855Y-57130075D01*
X166378852Y-57130073D01*
X166368046Y-57124132D01*
X166351527Y-57113281D01*
X166351063Y-57112921D01*
X166335521Y-57100866D01*
X166328252Y-57097721D01*
X166328248Y-57097718D01*
X166294943Y-57083306D01*
X166284293Y-57078089D01*
X166245540Y-57056785D01*
X166225917Y-57051747D01*
X166207214Y-57045343D01*
X166195900Y-57040447D01*
X166195899Y-57040447D01*
X166188625Y-57037299D01*
X166180802Y-57036060D01*
X166180792Y-57036057D01*
X166144956Y-57030381D01*
X166133336Y-57027975D01*
X166098191Y-57018952D01*
X166098190Y-57018952D01*
X166090510Y-57016980D01*
X166070256Y-57016980D01*
X166050545Y-57015429D01*
X166038366Y-57013500D01*
X166030537Y-57012260D01*
X166001266Y-57015027D01*
X165986519Y-57016421D01*
X165974661Y-57016980D01*
X147628288Y-57016980D01*
X147617105Y-57016453D01*
X147609612Y-57014778D01*
X147601686Y-57015027D01*
X147601685Y-57015027D01*
X147541522Y-57016918D01*
X147537564Y-57016980D01*
X147509664Y-57016980D01*
X147505674Y-57017484D01*
X147493840Y-57018416D01*
X147449631Y-57019806D01*
X147442017Y-57022018D01*
X147442012Y-57022019D01*
X147430179Y-57025457D01*
X147410816Y-57029468D01*
X147390723Y-57032006D01*
X147383356Y-57034923D01*
X147383351Y-57034924D01*
X147349612Y-57048282D01*
X147338385Y-57052126D01*
X147295927Y-57064462D01*
X147289101Y-57068499D01*
X147278492Y-57074773D01*
X147260744Y-57083468D01*
X147241903Y-57090928D01*
X147235487Y-57095590D01*
X147235486Y-57095590D01*
X147206133Y-57116916D01*
X147196213Y-57123432D01*
X147164985Y-57141900D01*
X147164982Y-57141902D01*
X147158158Y-57145938D01*
X147143837Y-57160259D01*
X147128804Y-57173099D01*
X147112413Y-57185008D01*
X147086036Y-57216893D01*
X147084232Y-57219073D01*
X147076242Y-57227854D01*
X146834999Y-57469096D01*
X146772687Y-57503121D01*
X146745904Y-57506000D01*
X145808200Y-57506000D01*
X145740079Y-57485998D01*
X145720853Y-57469657D01*
X145720580Y-57469960D01*
X145715668Y-57465537D01*
X145711253Y-57460634D01*
X145556752Y-57348382D01*
X145550724Y-57345698D01*
X145550722Y-57345697D01*
X145388319Y-57273391D01*
X145388318Y-57273391D01*
X145382288Y-57270706D01*
X145282278Y-57249448D01*
X145201944Y-57232372D01*
X145201939Y-57232372D01*
X145195487Y-57231000D01*
X145004513Y-57231000D01*
X144998061Y-57232372D01*
X144998056Y-57232372D01*
X144917722Y-57249448D01*
X144817712Y-57270706D01*
X144811682Y-57273391D01*
X144811681Y-57273391D01*
X144649278Y-57345697D01*
X144649276Y-57345698D01*
X144643248Y-57348382D01*
X144488747Y-57460634D01*
X144484326Y-57465544D01*
X144484325Y-57465545D01*
X144450492Y-57503121D01*
X144360960Y-57602556D01*
X144265473Y-57767944D01*
X144206458Y-57949572D01*
X144191481Y-58092077D01*
X144187797Y-58127125D01*
X144160784Y-58192782D01*
X144136551Y-58215888D01*
X144075253Y-58260424D01*
X143992036Y-58320885D01*
X143986595Y-58324838D01*
X143982174Y-58329748D01*
X143982173Y-58329749D01*
X143890851Y-58431173D01*
X143858808Y-58466760D01*
X143763321Y-58632148D01*
X143704306Y-58813776D01*
X143703616Y-58820337D01*
X143703616Y-58820339D01*
X143691085Y-58939568D01*
X143684344Y-59003704D01*
X129799409Y-59003704D01*
X129771591Y-58942945D01*
X129767104Y-58936488D01*
X129716762Y-58864056D01*
X129643380Y-58758473D01*
X129484527Y-58599620D01*
X129339861Y-58499075D01*
X129304661Y-58474610D01*
X129304659Y-58474609D01*
X129300055Y-58471409D01*
X129161491Y-58407969D01*
X129100888Y-58380222D01*
X129100886Y-58380221D01*
X129095794Y-58377890D01*
X129090370Y-58376497D01*
X129090366Y-58376496D01*
X129049282Y-58365948D01*
X129027165Y-58360269D01*
X128966160Y-58323956D01*
X128934470Y-58260424D01*
X128932500Y-58238228D01*
X128932500Y-50682715D01*
X128952502Y-50614594D01*
X129006158Y-50568101D01*
X129076432Y-50557997D01*
X129141012Y-50587491D01*
X129165933Y-50616880D01*
X129219987Y-50705088D01*
X129366250Y-50873938D01*
X129538126Y-51016632D01*
X129731000Y-51129338D01*
X129939692Y-51209030D01*
X129944760Y-51210061D01*
X129944763Y-51210062D01*
X130039862Y-51229410D01*
X130158597Y-51253567D01*
X130163772Y-51253757D01*
X130163774Y-51253757D01*
X130376673Y-51261564D01*
X130376677Y-51261564D01*
X130381837Y-51261753D01*
X130386957Y-51261097D01*
X130386959Y-51261097D01*
X130598288Y-51234025D01*
X130598289Y-51234025D01*
X130603416Y-51233368D01*
X130608366Y-51231883D01*
X130812429Y-51170661D01*
X130812434Y-51170659D01*
X130817384Y-51169174D01*
X131017994Y-51070896D01*
X131199860Y-50941173D01*
X131358096Y-50783489D01*
X131376280Y-50758184D01*
X131488453Y-50602077D01*
X131489776Y-50603028D01*
X131536645Y-50559857D01*
X131606580Y-50547625D01*
X131672026Y-50575144D01*
X131699875Y-50606994D01*
X131759987Y-50705088D01*
X131906250Y-50873938D01*
X132078126Y-51016632D01*
X132271000Y-51129338D01*
X132479692Y-51209030D01*
X132484760Y-51210061D01*
X132484763Y-51210062D01*
X132579862Y-51229410D01*
X132698597Y-51253567D01*
X132703772Y-51253757D01*
X132703774Y-51253757D01*
X132916673Y-51261564D01*
X132916677Y-51261564D01*
X132921837Y-51261753D01*
X132926957Y-51261097D01*
X132926959Y-51261097D01*
X133138288Y-51234025D01*
X133138289Y-51234025D01*
X133143416Y-51233368D01*
X133148366Y-51231883D01*
X133352429Y-51170661D01*
X133352434Y-51170659D01*
X133357384Y-51169174D01*
X133557994Y-51070896D01*
X133739860Y-50941173D01*
X133898096Y-50783489D01*
X133916280Y-50758184D01*
X134028453Y-50602077D01*
X134029776Y-50603028D01*
X134076645Y-50559857D01*
X134146580Y-50547625D01*
X134212026Y-50575144D01*
X134239875Y-50606994D01*
X134299987Y-50705088D01*
X134446250Y-50873938D01*
X134618126Y-51016632D01*
X134811000Y-51129338D01*
X135019692Y-51209030D01*
X135024760Y-51210061D01*
X135024763Y-51210062D01*
X135119862Y-51229410D01*
X135238597Y-51253567D01*
X135243772Y-51253757D01*
X135243774Y-51253757D01*
X135456673Y-51261564D01*
X135456677Y-51261564D01*
X135461837Y-51261753D01*
X135466957Y-51261097D01*
X135466959Y-51261097D01*
X135678288Y-51234025D01*
X135678289Y-51234025D01*
X135683416Y-51233368D01*
X135688366Y-51231883D01*
X135892429Y-51170661D01*
X135892434Y-51170659D01*
X135897384Y-51169174D01*
X136097994Y-51070896D01*
X136279860Y-50941173D01*
X136438096Y-50783489D01*
X136456280Y-50758184D01*
X136568453Y-50602077D01*
X136569776Y-50603028D01*
X136616645Y-50559857D01*
X136686580Y-50547625D01*
X136752026Y-50575144D01*
X136779875Y-50606994D01*
X136839987Y-50705088D01*
X136986250Y-50873938D01*
X137158126Y-51016632D01*
X137351000Y-51129338D01*
X137559692Y-51209030D01*
X137564760Y-51210061D01*
X137564763Y-51210062D01*
X137659862Y-51229410D01*
X137778597Y-51253567D01*
X137783772Y-51253757D01*
X137783774Y-51253757D01*
X137996673Y-51261564D01*
X137996677Y-51261564D01*
X138001837Y-51261753D01*
X138006957Y-51261097D01*
X138006959Y-51261097D01*
X138218288Y-51234025D01*
X138218289Y-51234025D01*
X138223416Y-51233368D01*
X138228366Y-51231883D01*
X138432429Y-51170661D01*
X138432434Y-51170659D01*
X138437384Y-51169174D01*
X138637994Y-51070896D01*
X138819860Y-50941173D01*
X138978096Y-50783489D01*
X138996280Y-50758184D01*
X139108453Y-50602077D01*
X139109776Y-50603028D01*
X139156645Y-50559857D01*
X139226580Y-50547625D01*
X139292026Y-50575144D01*
X139319875Y-50606994D01*
X139379987Y-50705088D01*
X139526250Y-50873938D01*
X139698126Y-51016632D01*
X139891000Y-51129338D01*
X140099692Y-51209030D01*
X140104760Y-51210061D01*
X140104763Y-51210062D01*
X140199862Y-51229410D01*
X140318597Y-51253567D01*
X140323772Y-51253757D01*
X140323774Y-51253757D01*
X140536673Y-51261564D01*
X140536677Y-51261564D01*
X140541837Y-51261753D01*
X140546957Y-51261097D01*
X140546959Y-51261097D01*
X140758288Y-51234025D01*
X140758289Y-51234025D01*
X140763416Y-51233368D01*
X140768366Y-51231883D01*
X140972429Y-51170661D01*
X140972434Y-51170659D01*
X140977384Y-51169174D01*
X141177994Y-51070896D01*
X141359860Y-50941173D01*
X141518096Y-50783489D01*
X141536280Y-50758184D01*
X141648453Y-50602077D01*
X141649776Y-50603028D01*
X141696645Y-50559857D01*
X141766580Y-50547625D01*
X141832026Y-50575144D01*
X141859875Y-50606994D01*
X141919987Y-50705088D01*
X142066250Y-50873938D01*
X142238126Y-51016632D01*
X142431000Y-51129338D01*
X142639692Y-51209030D01*
X142644760Y-51210061D01*
X142644763Y-51210062D01*
X142739862Y-51229410D01*
X142858597Y-51253567D01*
X142863772Y-51253757D01*
X142863774Y-51253757D01*
X143076673Y-51261564D01*
X143076677Y-51261564D01*
X143081837Y-51261753D01*
X143086957Y-51261097D01*
X143086959Y-51261097D01*
X143298288Y-51234025D01*
X143298289Y-51234025D01*
X143303416Y-51233368D01*
X143308366Y-51231883D01*
X143512429Y-51170661D01*
X143512434Y-51170659D01*
X143517384Y-51169174D01*
X143717994Y-51070896D01*
X143899860Y-50941173D01*
X144058096Y-50783489D01*
X144076280Y-50758184D01*
X144188453Y-50602077D01*
X144189640Y-50602930D01*
X144236960Y-50559362D01*
X144306897Y-50547145D01*
X144372338Y-50574678D01*
X144400166Y-50606511D01*
X144457694Y-50700388D01*
X144463777Y-50708699D01*
X144603213Y-50869667D01*
X144610580Y-50876883D01*
X144774434Y-51012916D01*
X144782881Y-51018831D01*
X144966756Y-51126279D01*
X144976042Y-51130729D01*
X145175001Y-51206703D01*
X145184899Y-51209579D01*
X145288250Y-51230606D01*
X145302299Y-51229410D01*
X145306000Y-51219065D01*
X145306000Y-48583102D01*
X145302082Y-48569758D01*
X145287806Y-48567771D01*
X145249324Y-48573660D01*
X145239288Y-48576051D01*
X145036868Y-48642212D01*
X145027359Y-48646209D01*
X144838463Y-48744542D01*
X144829738Y-48750036D01*
X144659433Y-48877905D01*
X144651726Y-48884748D01*
X144504590Y-49038717D01*
X144498109Y-49046722D01*
X144393498Y-49200074D01*
X144338587Y-49245076D01*
X144268062Y-49253247D01*
X144204315Y-49221993D01*
X144183618Y-49197509D01*
X144102822Y-49072617D01*
X144102820Y-49072614D01*
X144100014Y-49068277D01*
X143949670Y-48903051D01*
X143945619Y-48899852D01*
X143945615Y-48899848D01*
X143778414Y-48767800D01*
X143778410Y-48767798D01*
X143774359Y-48764598D01*
X143738028Y-48744542D01*
X143722136Y-48735769D01*
X143578789Y-48656638D01*
X143573920Y-48654914D01*
X143573916Y-48654912D01*
X143373087Y-48583795D01*
X143373083Y-48583794D01*
X143368212Y-48582069D01*
X143363119Y-48581162D01*
X143363116Y-48581161D01*
X143153373Y-48543800D01*
X143153367Y-48543799D01*
X143148284Y-48542894D01*
X143074452Y-48541992D01*
X142930081Y-48540228D01*
X142930079Y-48540228D01*
X142924911Y-48540165D01*
X142704091Y-48573955D01*
X142491756Y-48643357D01*
X142293607Y-48746507D01*
X142289474Y-48749610D01*
X142289471Y-48749612D01*
X142119100Y-48877530D01*
X142114965Y-48880635D01*
X141960629Y-49042138D01*
X141853201Y-49199621D01*
X141798293Y-49244621D01*
X141727768Y-49252792D01*
X141664021Y-49221538D01*
X141643324Y-49197054D01*
X141562822Y-49072617D01*
X141562820Y-49072614D01*
X141560014Y-49068277D01*
X141409670Y-48903051D01*
X141405619Y-48899852D01*
X141405615Y-48899848D01*
X141238414Y-48767800D01*
X141238410Y-48767798D01*
X141234359Y-48764598D01*
X141198028Y-48744542D01*
X141182136Y-48735769D01*
X141038789Y-48656638D01*
X141033920Y-48654914D01*
X141033916Y-48654912D01*
X140833087Y-48583795D01*
X140833083Y-48583794D01*
X140828212Y-48582069D01*
X140823119Y-48581162D01*
X140823116Y-48581161D01*
X140613373Y-48543800D01*
X140613367Y-48543799D01*
X140608284Y-48542894D01*
X140534452Y-48541992D01*
X140390081Y-48540228D01*
X140390079Y-48540228D01*
X140384911Y-48540165D01*
X140164091Y-48573955D01*
X139951756Y-48643357D01*
X139753607Y-48746507D01*
X139749474Y-48749610D01*
X139749471Y-48749612D01*
X139579100Y-48877530D01*
X139574965Y-48880635D01*
X139420629Y-49042138D01*
X139313201Y-49199621D01*
X139258293Y-49244621D01*
X139187768Y-49252792D01*
X139124021Y-49221538D01*
X139103324Y-49197054D01*
X139022822Y-49072617D01*
X139022820Y-49072614D01*
X139020014Y-49068277D01*
X138869670Y-48903051D01*
X138865619Y-48899852D01*
X138865615Y-48899848D01*
X138698414Y-48767800D01*
X138698410Y-48767798D01*
X138694359Y-48764598D01*
X138658028Y-48744542D01*
X138642136Y-48735769D01*
X138498789Y-48656638D01*
X138493920Y-48654914D01*
X138493916Y-48654912D01*
X138293087Y-48583795D01*
X138293083Y-48583794D01*
X138288212Y-48582069D01*
X138283119Y-48581162D01*
X138283116Y-48581161D01*
X138073373Y-48543800D01*
X138073367Y-48543799D01*
X138068284Y-48542894D01*
X137994452Y-48541992D01*
X137850081Y-48540228D01*
X137850079Y-48540228D01*
X137844911Y-48540165D01*
X137624091Y-48573955D01*
X137411756Y-48643357D01*
X137213607Y-48746507D01*
X137209474Y-48749610D01*
X137209471Y-48749612D01*
X137039100Y-48877530D01*
X137034965Y-48880635D01*
X136880629Y-49042138D01*
X136773201Y-49199621D01*
X136718293Y-49244621D01*
X136647768Y-49252792D01*
X136584021Y-49221538D01*
X136563324Y-49197054D01*
X136482822Y-49072617D01*
X136482820Y-49072614D01*
X136480014Y-49068277D01*
X136329670Y-48903051D01*
X136325619Y-48899852D01*
X136325615Y-48899848D01*
X136158414Y-48767800D01*
X136158410Y-48767798D01*
X136154359Y-48764598D01*
X136118028Y-48744542D01*
X136102136Y-48735769D01*
X135958789Y-48656638D01*
X135953920Y-48654914D01*
X135953916Y-48654912D01*
X135753087Y-48583795D01*
X135753083Y-48583794D01*
X135748212Y-48582069D01*
X135743119Y-48581162D01*
X135743116Y-48581161D01*
X135533373Y-48543800D01*
X135533367Y-48543799D01*
X135528284Y-48542894D01*
X135454452Y-48541992D01*
X135310081Y-48540228D01*
X135310079Y-48540228D01*
X135304911Y-48540165D01*
X135084091Y-48573955D01*
X134871756Y-48643357D01*
X134673607Y-48746507D01*
X134669474Y-48749610D01*
X134669471Y-48749612D01*
X134499100Y-48877530D01*
X134494965Y-48880635D01*
X134340629Y-49042138D01*
X134233201Y-49199621D01*
X134178293Y-49244621D01*
X134107768Y-49252792D01*
X134044021Y-49221538D01*
X134023324Y-49197054D01*
X133942822Y-49072617D01*
X133942820Y-49072614D01*
X133940014Y-49068277D01*
X133789670Y-48903051D01*
X133785619Y-48899852D01*
X133785615Y-48899848D01*
X133618414Y-48767800D01*
X133618410Y-48767798D01*
X133614359Y-48764598D01*
X133578028Y-48744542D01*
X133562136Y-48735769D01*
X133418789Y-48656638D01*
X133413920Y-48654914D01*
X133413916Y-48654912D01*
X133213087Y-48583795D01*
X133213083Y-48583794D01*
X133208212Y-48582069D01*
X133203119Y-48581162D01*
X133203116Y-48581161D01*
X132993373Y-48543800D01*
X132993367Y-48543799D01*
X132988284Y-48542894D01*
X132914452Y-48541992D01*
X132770081Y-48540228D01*
X132770079Y-48540228D01*
X132764911Y-48540165D01*
X132544091Y-48573955D01*
X132331756Y-48643357D01*
X132133607Y-48746507D01*
X132129474Y-48749610D01*
X132129471Y-48749612D01*
X131959100Y-48877530D01*
X131954965Y-48880635D01*
X131800629Y-49042138D01*
X131693201Y-49199621D01*
X131638293Y-49244621D01*
X131567768Y-49252792D01*
X131504021Y-49221538D01*
X131483324Y-49197054D01*
X131402822Y-49072617D01*
X131402820Y-49072614D01*
X131400014Y-49068277D01*
X131249670Y-48903051D01*
X131245619Y-48899852D01*
X131245615Y-48899848D01*
X131078414Y-48767800D01*
X131078410Y-48767798D01*
X131074359Y-48764598D01*
X131038028Y-48744542D01*
X131022136Y-48735769D01*
X130878789Y-48656638D01*
X130873920Y-48654914D01*
X130873916Y-48654912D01*
X130673087Y-48583795D01*
X130673083Y-48583794D01*
X130668212Y-48582069D01*
X130663119Y-48581162D01*
X130663116Y-48581161D01*
X130453373Y-48543800D01*
X130453367Y-48543799D01*
X130448284Y-48542894D01*
X130374452Y-48541992D01*
X130230081Y-48540228D01*
X130230079Y-48540228D01*
X130224911Y-48540165D01*
X130004091Y-48573955D01*
X129791756Y-48643357D01*
X129593607Y-48746507D01*
X129589474Y-48749610D01*
X129589471Y-48749612D01*
X129419100Y-48877530D01*
X129414965Y-48880635D01*
X129260629Y-49042138D01*
X129257720Y-49046403D01*
X129257714Y-49046411D01*
X129162588Y-49185861D01*
X129107677Y-49230864D01*
X129037152Y-49239035D01*
X128973405Y-49207781D01*
X128936675Y-49147024D01*
X128932500Y-49114857D01*
X128932500Y-48695925D01*
X128952502Y-48627804D01*
X128969405Y-48606830D01*
X129730830Y-47845405D01*
X129793142Y-47811379D01*
X129819925Y-47808500D01*
X146630074Y-47808500D01*
X146698195Y-47828502D01*
X146719169Y-47845404D01*
X147054595Y-48180829D01*
X147088620Y-48243142D01*
X147091500Y-48269925D01*
X147091500Y-48478991D01*
X147071498Y-48547112D01*
X147017842Y-48593605D01*
X147012306Y-48595903D01*
X147011704Y-48596232D01*
X147003295Y-48599385D01*
X146886739Y-48686739D01*
X146799385Y-48803295D01*
X146796233Y-48811703D01*
X146796232Y-48811705D01*
X146754722Y-48922433D01*
X146712081Y-48979198D01*
X146645519Y-49003898D01*
X146576170Y-48988691D01*
X146543546Y-48963004D01*
X146492799Y-48907234D01*
X146485273Y-48900215D01*
X146318139Y-48768222D01*
X146309552Y-48762517D01*
X146123117Y-48659599D01*
X146113705Y-48655369D01*
X145912959Y-48584280D01*
X145902988Y-48581646D01*
X145831837Y-48568972D01*
X145818540Y-48570432D01*
X145814000Y-48584989D01*
X145814000Y-51218517D01*
X145818064Y-51232359D01*
X145831478Y-51234393D01*
X145838184Y-51233534D01*
X145848262Y-51231392D01*
X146052255Y-51170191D01*
X146061842Y-51166433D01*
X146253095Y-51072739D01*
X146261945Y-51067464D01*
X146435328Y-50943792D01*
X146443193Y-50937145D01*
X146547897Y-50832805D01*
X146610268Y-50798889D01*
X146681075Y-50804077D01*
X146737837Y-50846723D01*
X146754819Y-50877826D01*
X146788382Y-50967355D01*
X146799385Y-50996705D01*
X146886739Y-51113261D01*
X147003295Y-51200615D01*
X147139684Y-51251745D01*
X147201866Y-51258500D01*
X148998134Y-51258500D01*
X149060316Y-51251745D01*
X149196705Y-51200615D01*
X149313261Y-51113261D01*
X149400615Y-50996705D01*
X149451745Y-50860316D01*
X149458500Y-50798134D01*
X149458500Y-49107655D01*
X177239858Y-49107655D01*
X177275104Y-49366638D01*
X177276412Y-49371124D01*
X177276412Y-49371126D01*
X177293370Y-49429305D01*
X177348243Y-49617567D01*
X177350203Y-49621820D01*
X177350204Y-49621821D01*
X177366029Y-49656148D01*
X177457668Y-49854928D01*
X177460231Y-49858837D01*
X177598410Y-50069596D01*
X177598414Y-50069601D01*
X177600976Y-50073509D01*
X177775018Y-50268506D01*
X177975970Y-50435637D01*
X177979973Y-50438066D01*
X178195422Y-50568804D01*
X178195426Y-50568806D01*
X178199419Y-50571229D01*
X178440455Y-50672303D01*
X178693783Y-50736641D01*
X178698434Y-50737109D01*
X178698438Y-50737110D01*
X178891308Y-50756531D01*
X178910867Y-50758500D01*
X179066354Y-50758500D01*
X179068679Y-50758327D01*
X179068685Y-50758327D01*
X179256000Y-50744407D01*
X179256004Y-50744406D01*
X179260652Y-50744061D01*
X179265200Y-50743032D01*
X179265206Y-50743031D01*
X179453658Y-50700388D01*
X179515577Y-50686377D01*
X179551769Y-50672303D01*
X179754824Y-50593340D01*
X179754827Y-50593339D01*
X179759177Y-50591647D01*
X179766449Y-50587491D01*
X179893953Y-50514616D01*
X179986098Y-50461951D01*
X180191357Y-50300138D01*
X180370443Y-50109763D01*
X180519424Y-49895009D01*
X180635025Y-49660593D01*
X180714707Y-49411665D01*
X180756721Y-49153693D01*
X180760142Y-48892345D01*
X180724896Y-48633362D01*
X180716563Y-48604771D01*
X180697732Y-48540165D01*
X180651757Y-48382433D01*
X180542332Y-48145072D01*
X180468090Y-48031834D01*
X180401590Y-47930404D01*
X180401586Y-47930399D01*
X180399024Y-47926491D01*
X180224982Y-47731494D01*
X180024030Y-47564363D01*
X179875077Y-47473976D01*
X179804578Y-47431196D01*
X179804574Y-47431194D01*
X179800581Y-47428771D01*
X179559545Y-47327697D01*
X179306217Y-47263359D01*
X179301566Y-47262891D01*
X179301562Y-47262890D01*
X179092271Y-47241816D01*
X179089133Y-47241500D01*
X178933646Y-47241500D01*
X178931321Y-47241673D01*
X178931315Y-47241673D01*
X178744000Y-47255593D01*
X178743996Y-47255594D01*
X178739348Y-47255939D01*
X178734800Y-47256968D01*
X178734794Y-47256969D01*
X178548399Y-47299147D01*
X178484423Y-47313623D01*
X178480071Y-47315315D01*
X178480069Y-47315316D01*
X178245176Y-47406660D01*
X178245173Y-47406661D01*
X178240823Y-47408353D01*
X178236769Y-47410670D01*
X178236767Y-47410671D01*
X178211802Y-47424940D01*
X178013902Y-47538049D01*
X177808643Y-47699862D01*
X177629557Y-47890237D01*
X177480576Y-48104991D01*
X177478510Y-48109181D01*
X177478508Y-48109184D01*
X177394288Y-48279967D01*
X177364975Y-48339407D01*
X177363553Y-48343850D01*
X177363552Y-48343852D01*
X177291024Y-48570432D01*
X177285293Y-48588335D01*
X177243279Y-48846307D01*
X177242283Y-48922433D01*
X177240317Y-49072617D01*
X177239858Y-49107655D01*
X149458500Y-49107655D01*
X149458500Y-49001866D01*
X149451745Y-48939684D01*
X149400615Y-48803295D01*
X149313261Y-48686739D01*
X149196705Y-48599385D01*
X149188296Y-48596233D01*
X149180425Y-48591923D01*
X149181336Y-48590259D01*
X149133510Y-48554337D01*
X149108807Y-48487776D01*
X149108500Y-48478991D01*
X149108500Y-47861850D01*
X149109237Y-47848242D01*
X149111381Y-47828502D01*
X149113325Y-47810612D01*
X149108947Y-47760570D01*
X149108621Y-47755788D01*
X149108500Y-47753310D01*
X149108500Y-47750231D01*
X149108201Y-47747177D01*
X149108200Y-47747166D01*
X149104313Y-47707529D01*
X149104191Y-47706215D01*
X149099613Y-47653893D01*
X149096087Y-47613587D01*
X149094600Y-47608468D01*
X149094080Y-47603167D01*
X149067209Y-47514166D01*
X149066874Y-47513033D01*
X149042630Y-47429586D01*
X149042628Y-47429582D01*
X149040909Y-47423664D01*
X149038456Y-47418932D01*
X149036916Y-47413831D01*
X148993269Y-47331740D01*
X148992657Y-47330574D01*
X148952729Y-47253547D01*
X148949892Y-47248074D01*
X148946569Y-47243911D01*
X148944066Y-47239204D01*
X148885261Y-47167102D01*
X148884433Y-47166075D01*
X148855469Y-47129792D01*
X148855464Y-47129787D01*
X148853262Y-47127028D01*
X148850761Y-47124527D01*
X148850119Y-47123809D01*
X148846406Y-47119461D01*
X148838642Y-47109941D01*
X148819065Y-47085938D01*
X148814323Y-47082015D01*
X148814321Y-47082013D01*
X148783727Y-47056703D01*
X148774947Y-47048713D01*
X147856855Y-46130621D01*
X147847753Y-46120478D01*
X147827897Y-46095782D01*
X147824032Y-46090975D01*
X147785578Y-46058708D01*
X147781931Y-46055528D01*
X147780119Y-46053885D01*
X147777925Y-46051691D01*
X147744651Y-46024358D01*
X147743853Y-46023696D01*
X147672526Y-45963846D01*
X147667856Y-45961278D01*
X147663739Y-45957897D01*
X147581914Y-45914023D01*
X147580755Y-45913394D01*
X147504619Y-45871538D01*
X147504611Y-45871535D01*
X147499213Y-45868567D01*
X147494131Y-45866955D01*
X147489437Y-45864438D01*
X147400469Y-45837238D01*
X147399441Y-45836918D01*
X147310694Y-45808765D01*
X147305398Y-45808171D01*
X147300302Y-45806613D01*
X147207743Y-45797210D01*
X147206607Y-45797089D01*
X147172992Y-45793319D01*
X147160270Y-45791892D01*
X147160266Y-45791892D01*
X147156773Y-45791500D01*
X147153246Y-45791500D01*
X147152261Y-45791445D01*
X147146581Y-45790998D01*
X147117175Y-45788011D01*
X147109663Y-45787248D01*
X147109661Y-45787248D01*
X147103538Y-45786626D01*
X147061259Y-45790623D01*
X147057891Y-45790941D01*
X147046033Y-45791500D01*
X129411850Y-45791500D01*
X129398242Y-45790763D01*
X129366737Y-45787340D01*
X129366733Y-45787340D01*
X129360612Y-45786675D01*
X129354473Y-45787212D01*
X129354469Y-45787212D01*
X129310589Y-45791051D01*
X129305752Y-45791381D01*
X129303314Y-45791500D01*
X129300231Y-45791500D01*
X129297174Y-45791800D01*
X129297169Y-45791800D01*
X129257580Y-45795682D01*
X129256265Y-45795804D01*
X129169723Y-45803375D01*
X129169721Y-45803375D01*
X129163587Y-45803912D01*
X129158463Y-45805401D01*
X129153167Y-45805920D01*
X129064172Y-45832789D01*
X129063085Y-45833111D01*
X128973664Y-45859091D01*
X128968932Y-45861544D01*
X128963831Y-45863084D01*
X128958388Y-45865978D01*
X128881740Y-45906731D01*
X128880574Y-45907343D01*
X128803547Y-45947271D01*
X128798074Y-45950108D01*
X128793911Y-45953431D01*
X128789204Y-45955934D01*
X128784429Y-45959828D01*
X128784428Y-45959829D01*
X128717102Y-46014739D01*
X128716075Y-46015567D01*
X128679792Y-46044531D01*
X128679787Y-46044536D01*
X128677028Y-46046738D01*
X128674527Y-46049239D01*
X128673809Y-46049881D01*
X128669461Y-46053594D01*
X128635938Y-46080935D01*
X128632015Y-46085677D01*
X128632013Y-46085679D01*
X128606703Y-46116273D01*
X128598713Y-46125053D01*
X127254621Y-47469145D01*
X127244478Y-47478247D01*
X127214975Y-47501968D01*
X127205225Y-47513588D01*
X127182709Y-47540421D01*
X127179528Y-47544069D01*
X127177885Y-47545881D01*
X127175691Y-47548075D01*
X127148358Y-47581349D01*
X127147696Y-47582147D01*
X127087846Y-47653474D01*
X127085278Y-47658144D01*
X127081897Y-47662261D01*
X127063286Y-47696971D01*
X127038023Y-47744086D01*
X127037394Y-47745245D01*
X126995538Y-47821381D01*
X126995535Y-47821389D01*
X126992567Y-47826787D01*
X126990955Y-47831869D01*
X126988438Y-47836563D01*
X126961238Y-47925531D01*
X126960939Y-47926491D01*
X126932765Y-48015306D01*
X126932171Y-48020602D01*
X126930613Y-48025698D01*
X126922133Y-48109184D01*
X126921218Y-48118187D01*
X126921089Y-48119393D01*
X126915500Y-48169227D01*
X126915500Y-48172754D01*
X126915445Y-48173739D01*
X126914998Y-48179419D01*
X126910626Y-48222462D01*
X126911206Y-48228593D01*
X126914941Y-48268109D01*
X126915500Y-48279967D01*
X126915500Y-58238228D01*
X126895498Y-58306349D01*
X126841842Y-58352842D01*
X126820838Y-58360269D01*
X126798718Y-58365948D01*
X126757634Y-58376496D01*
X126757630Y-58376497D01*
X126752206Y-58377890D01*
X126747114Y-58380221D01*
X126747112Y-58380222D01*
X126686509Y-58407969D01*
X126547945Y-58471409D01*
X126543341Y-58474609D01*
X126543339Y-58474610D01*
X126508139Y-58499075D01*
X126363473Y-58599620D01*
X126204620Y-58758473D01*
X126131238Y-58864056D01*
X126080897Y-58936488D01*
X126076409Y-58942945D01*
X125982890Y-59147206D01*
X125981495Y-59152638D01*
X125981495Y-59152639D01*
X125932528Y-59343357D01*
X125927022Y-59364800D01*
X125926587Y-59370151D01*
X125916342Y-59496109D01*
X125915500Y-59506458D01*
X125915500Y-68131542D01*
X125915706Y-68134070D01*
X125915707Y-68134092D01*
X125918190Y-68164616D01*
X125927022Y-68273200D01*
X125928356Y-68278395D01*
X125928356Y-68278396D01*
X125947553Y-68353164D01*
X125982890Y-68490794D01*
X126076409Y-68695055D01*
X126079609Y-68699659D01*
X126079610Y-68699661D01*
X126085405Y-68707999D01*
X126204620Y-68879527D01*
X126363473Y-69038380D01*
X126547945Y-69166591D01*
X126752206Y-69260110D01*
X126757638Y-69261505D01*
X126757639Y-69261505D01*
X126962673Y-69314148D01*
X126969800Y-69315978D01*
X127023705Y-69320362D01*
X127108908Y-69327293D01*
X127108918Y-69327293D01*
X127111458Y-69327500D01*
X127669474Y-69327500D01*
X127737595Y-69347502D01*
X127784088Y-69401158D01*
X127794192Y-69471432D01*
X127764698Y-69536012D01*
X127734719Y-69561292D01*
X126967127Y-70025901D01*
X126967107Y-70025914D01*
X126965988Y-70026591D01*
X126964880Y-70027327D01*
X126964878Y-70027328D01*
X126264186Y-70492596D01*
X126182374Y-70546920D01*
X125843431Y-70793028D01*
X125470330Y-71063938D01*
X125421225Y-71099593D01*
X125420171Y-71100428D01*
X124747745Y-71633051D01*
X124683876Y-71683641D01*
X124682894Y-71684488D01*
X124682882Y-71684498D01*
X124550981Y-71798277D01*
X123971620Y-72298039D01*
X123884592Y-72379707D01*
X123286655Y-72940819D01*
X123286641Y-72940833D01*
X123285704Y-72941712D01*
X123196639Y-73032596D01*
X122628236Y-73612608D01*
X122628224Y-73612621D01*
X122627332Y-73613531D01*
X122626473Y-73614485D01*
X122626462Y-73614496D01*
X122123149Y-74173051D01*
X121997656Y-74312318D01*
X121996821Y-74313327D01*
X121996818Y-74313330D01*
X121816938Y-74530590D01*
X121397781Y-75036848D01*
X120828759Y-75785853D01*
X120291585Y-76558018D01*
X119787202Y-77351991D01*
X119711861Y-77482342D01*
X119347582Y-78112596D01*
X119316495Y-78166380D01*
X119233671Y-78324616D01*
X118884925Y-78990897D01*
X118880287Y-78999757D01*
X118479344Y-79850662D01*
X118114368Y-80717604D01*
X118113916Y-80718818D01*
X118113911Y-80718830D01*
X118025188Y-80956994D01*
X117786000Y-81599062D01*
X117785600Y-81600291D01*
X117785595Y-81600305D01*
X117609409Y-82141492D01*
X117494813Y-82493492D01*
X117494456Y-82494768D01*
X117271408Y-83291811D01*
X117241320Y-83399326D01*
X117025964Y-84314977D01*
X116849123Y-85238840D01*
X116848926Y-85240167D01*
X116848926Y-85240168D01*
X116716833Y-86130688D01*
X116711106Y-86169294D01*
X116710969Y-86170591D01*
X116710966Y-86170613D01*
X116618724Y-87042617D01*
X116612156Y-87104711D01*
X116612074Y-87106001D01*
X116612072Y-87106024D01*
X116577639Y-87647361D01*
X116552445Y-88043449D01*
X116552417Y-88044745D01*
X116552416Y-88044767D01*
X116538682Y-88678990D01*
X116532080Y-88983864D01*
X116532107Y-88985199D01*
X116547215Y-89732401D01*
X116551095Y-89924307D01*
X116551175Y-89925594D01*
X116551176Y-89925618D01*
X116553979Y-89970702D01*
X116609456Y-90863130D01*
X116707063Y-91798687D01*
X116707252Y-91799973D01*
X116707253Y-91799982D01*
X116749612Y-92088401D01*
X116843743Y-92729339D01*
X117019257Y-93653455D01*
X117019551Y-93654714D01*
X117019555Y-93654732D01*
X117081550Y-93920031D01*
X117233298Y-94569414D01*
X117353520Y-95001406D01*
X117481661Y-95461851D01*
X117485490Y-95475611D01*
X117485889Y-95476842D01*
X117485890Y-95476846D01*
X117699961Y-96137625D01*
X117775391Y-96370459D01*
X118102493Y-97252388D01*
X118102991Y-97253576D01*
X118103001Y-97253601D01*
X118416744Y-98001851D01*
X118466223Y-98119853D01*
X118466782Y-98121044D01*
X118466787Y-98121055D01*
X118865367Y-98970105D01*
X118865377Y-98970125D01*
X118865944Y-98971333D01*
X118866562Y-98972518D01*
X118866571Y-98972536D01*
X119038312Y-99301797D01*
X119300954Y-99805336D01*
X119770491Y-100620400D01*
X119771195Y-100621512D01*
X119771200Y-100621520D01*
X119920995Y-100858069D01*
X120273733Y-101415096D01*
X120809797Y-102188032D01*
X121377743Y-102937853D01*
X121976577Y-103663245D01*
X122605248Y-104362936D01*
X123262655Y-105035700D01*
X123263638Y-105036625D01*
X123946689Y-105679458D01*
X123946707Y-105679474D01*
X123947645Y-105680357D01*
X124659018Y-106295778D01*
X124660028Y-106296580D01*
X124660042Y-106296592D01*
X125390299Y-106876731D01*
X125395527Y-106880884D01*
X125575218Y-107011753D01*
X126154808Y-107433869D01*
X126154823Y-107433879D01*
X126155881Y-107434650D01*
X126938748Y-107956104D01*
X127426196Y-108252105D01*
X127430899Y-108254961D01*
X127478744Y-108307415D01*
X127491500Y-108362659D01*
X127491500Y-116865500D01*
X127471498Y-116933621D01*
X127417842Y-116980114D01*
X127365500Y-116991500D01*
X95634500Y-116991500D01*
X95566379Y-116971498D01*
X95519886Y-116917842D01*
X95508500Y-116865500D01*
X95508500Y-114107655D01*
X97239858Y-114107655D01*
X97275104Y-114366638D01*
X97276412Y-114371124D01*
X97276412Y-114371126D01*
X97296098Y-114438664D01*
X97348243Y-114617567D01*
X97457668Y-114854928D01*
X97460231Y-114858837D01*
X97598410Y-115069596D01*
X97598414Y-115069601D01*
X97600976Y-115073509D01*
X97775018Y-115268506D01*
X97975970Y-115435637D01*
X97979973Y-115438066D01*
X98195422Y-115568804D01*
X98195426Y-115568806D01*
X98199419Y-115571229D01*
X98440455Y-115672303D01*
X98693783Y-115736641D01*
X98698434Y-115737109D01*
X98698438Y-115737110D01*
X98891308Y-115756531D01*
X98910867Y-115758500D01*
X99066354Y-115758500D01*
X99068679Y-115758327D01*
X99068685Y-115758327D01*
X99256000Y-115744407D01*
X99256004Y-115744406D01*
X99260652Y-115744061D01*
X99265200Y-115743032D01*
X99265206Y-115743031D01*
X99451601Y-115700853D01*
X99515577Y-115686377D01*
X99551769Y-115672303D01*
X99754824Y-115593340D01*
X99754827Y-115593339D01*
X99759177Y-115591647D01*
X99986098Y-115461951D01*
X100191357Y-115300138D01*
X100370443Y-115109763D01*
X100519424Y-114895009D01*
X100635025Y-114660593D01*
X100714707Y-114411665D01*
X100756721Y-114153693D01*
X100760142Y-113892345D01*
X100724896Y-113633362D01*
X100710473Y-113583877D01*
X100653068Y-113386932D01*
X100651757Y-113382433D01*
X100542332Y-113145072D01*
X100509519Y-113095024D01*
X100401590Y-112930404D01*
X100401586Y-112930399D01*
X100399024Y-112926491D01*
X100224982Y-112731494D01*
X100024030Y-112564363D01*
X99976844Y-112535730D01*
X99804578Y-112431196D01*
X99804574Y-112431194D01*
X99800581Y-112428771D01*
X99559545Y-112327697D01*
X99306217Y-112263359D01*
X99301566Y-112262891D01*
X99301562Y-112262890D01*
X99092271Y-112241816D01*
X99089133Y-112241500D01*
X98933646Y-112241500D01*
X98931321Y-112241673D01*
X98931315Y-112241673D01*
X98744000Y-112255593D01*
X98743996Y-112255594D01*
X98739348Y-112255939D01*
X98734800Y-112256968D01*
X98734794Y-112256969D01*
X98548399Y-112299147D01*
X98484423Y-112313623D01*
X98480071Y-112315315D01*
X98480069Y-112315316D01*
X98245176Y-112406660D01*
X98245173Y-112406661D01*
X98240823Y-112408353D01*
X98013902Y-112538049D01*
X97808643Y-112699862D01*
X97629557Y-112890237D01*
X97480576Y-113104991D01*
X97364975Y-113339407D01*
X97285293Y-113588335D01*
X97243279Y-113846307D01*
X97239858Y-114107655D01*
X95508500Y-114107655D01*
X95508500Y-110707655D01*
X111239858Y-110707655D01*
X111275104Y-110966638D01*
X111276412Y-110971124D01*
X111276412Y-110971126D01*
X111296098Y-111038664D01*
X111348243Y-111217567D01*
X111457668Y-111454928D01*
X111460231Y-111458837D01*
X111598410Y-111669596D01*
X111598414Y-111669601D01*
X111600976Y-111673509D01*
X111775018Y-111868506D01*
X111975970Y-112035637D01*
X111979973Y-112038066D01*
X112195422Y-112168804D01*
X112195426Y-112168806D01*
X112199419Y-112171229D01*
X112440455Y-112272303D01*
X112693783Y-112336641D01*
X112698434Y-112337109D01*
X112698438Y-112337110D01*
X112891308Y-112356531D01*
X112910867Y-112358500D01*
X113066354Y-112358500D01*
X113068679Y-112358327D01*
X113068685Y-112358327D01*
X113256000Y-112344407D01*
X113256004Y-112344406D01*
X113260652Y-112344061D01*
X113265200Y-112343032D01*
X113265206Y-112343031D01*
X113451601Y-112300853D01*
X113515577Y-112286377D01*
X113551769Y-112272303D01*
X113754824Y-112193340D01*
X113754827Y-112193339D01*
X113759177Y-112191647D01*
X113986098Y-112061951D01*
X114191357Y-111900138D01*
X114370443Y-111709763D01*
X114519424Y-111495009D01*
X114635025Y-111260593D01*
X114714707Y-111011665D01*
X114756721Y-110753693D01*
X114760142Y-110492345D01*
X114724896Y-110233362D01*
X114710473Y-110183877D01*
X114653068Y-109986932D01*
X114651757Y-109982433D01*
X114542332Y-109745072D01*
X114509519Y-109695024D01*
X114401590Y-109530404D01*
X114401586Y-109530399D01*
X114399024Y-109526491D01*
X114224982Y-109331494D01*
X114024030Y-109164363D01*
X113976844Y-109135730D01*
X113804578Y-109031196D01*
X113804574Y-109031194D01*
X113800581Y-109028771D01*
X113559545Y-108927697D01*
X113306217Y-108863359D01*
X113301566Y-108862891D01*
X113301562Y-108862890D01*
X113092271Y-108841816D01*
X113089133Y-108841500D01*
X112933646Y-108841500D01*
X112931321Y-108841673D01*
X112931315Y-108841673D01*
X112744000Y-108855593D01*
X112743996Y-108855594D01*
X112739348Y-108855939D01*
X112734800Y-108856968D01*
X112734794Y-108856969D01*
X112548399Y-108899147D01*
X112484423Y-108913623D01*
X112480071Y-108915315D01*
X112480069Y-108915316D01*
X112245176Y-109006660D01*
X112245173Y-109006661D01*
X112240823Y-109008353D01*
X112013902Y-109138049D01*
X111808643Y-109299862D01*
X111629557Y-109490237D01*
X111480576Y-109704991D01*
X111364975Y-109939407D01*
X111285293Y-110188335D01*
X111243279Y-110446307D01*
X111239858Y-110707655D01*
X95508500Y-110707655D01*
X95508500Y-105616695D01*
X110437251Y-105616695D01*
X110437548Y-105621848D01*
X110437548Y-105621851D01*
X110443011Y-105716590D01*
X110450110Y-105839715D01*
X110451247Y-105844761D01*
X110451248Y-105844767D01*
X110452848Y-105851866D01*
X110499222Y-106057639D01*
X110583266Y-106264616D01*
X110634019Y-106347438D01*
X110697291Y-106450688D01*
X110699987Y-106455088D01*
X110846250Y-106623938D01*
X111018126Y-106766632D01*
X111211000Y-106879338D01*
X111419692Y-106959030D01*
X111424760Y-106960061D01*
X111424763Y-106960062D01*
X111532017Y-106981883D01*
X111638597Y-107003567D01*
X111643772Y-107003757D01*
X111643774Y-107003757D01*
X111856673Y-107011564D01*
X111856677Y-107011564D01*
X111861837Y-107011753D01*
X111866957Y-107011097D01*
X111866959Y-107011097D01*
X112078288Y-106984025D01*
X112078289Y-106984025D01*
X112083416Y-106983368D01*
X112088366Y-106981883D01*
X112292429Y-106920661D01*
X112292434Y-106920659D01*
X112297384Y-106919174D01*
X112497994Y-106820896D01*
X112679860Y-106691173D01*
X112838096Y-106533489D01*
X112865035Y-106496000D01*
X112968453Y-106352077D01*
X112969776Y-106353028D01*
X113016645Y-106309857D01*
X113086580Y-106297625D01*
X113152026Y-106325144D01*
X113179875Y-106356994D01*
X113239987Y-106455088D01*
X113386250Y-106623938D01*
X113558126Y-106766632D01*
X113751000Y-106879338D01*
X113959692Y-106959030D01*
X113964760Y-106960061D01*
X113964763Y-106960062D01*
X114072017Y-106981883D01*
X114178597Y-107003567D01*
X114183772Y-107003757D01*
X114183774Y-107003757D01*
X114396673Y-107011564D01*
X114396677Y-107011564D01*
X114401837Y-107011753D01*
X114406957Y-107011097D01*
X114406959Y-107011097D01*
X114618288Y-106984025D01*
X114618289Y-106984025D01*
X114623416Y-106983368D01*
X114628366Y-106981883D01*
X114832429Y-106920661D01*
X114832434Y-106920659D01*
X114837384Y-106919174D01*
X115037994Y-106820896D01*
X115219860Y-106691173D01*
X115378096Y-106533489D01*
X115405035Y-106496000D01*
X115505435Y-106356277D01*
X115508453Y-106352077D01*
X115529320Y-106309857D01*
X115605136Y-106156453D01*
X115605137Y-106156451D01*
X115607430Y-106151811D01*
X115672370Y-105938069D01*
X115701529Y-105716590D01*
X115701971Y-105698514D01*
X115703074Y-105653365D01*
X115703074Y-105653361D01*
X115703156Y-105650000D01*
X115684852Y-105427361D01*
X115630431Y-105210702D01*
X115541354Y-105005840D01*
X115501906Y-104944862D01*
X115422822Y-104822617D01*
X115422820Y-104822614D01*
X115420014Y-104818277D01*
X115269670Y-104653051D01*
X115265619Y-104649852D01*
X115265615Y-104649848D01*
X115098414Y-104517800D01*
X115098410Y-104517798D01*
X115094359Y-104514598D01*
X115053053Y-104491796D01*
X115003084Y-104441364D01*
X114988312Y-104371921D01*
X115013428Y-104305516D01*
X115040780Y-104278909D01*
X115084603Y-104247650D01*
X115219860Y-104151173D01*
X115378096Y-103993489D01*
X115437594Y-103910689D01*
X115505435Y-103816277D01*
X115508453Y-103812077D01*
X115529320Y-103769857D01*
X115605136Y-103616453D01*
X115605137Y-103616451D01*
X115607430Y-103611811D01*
X115672370Y-103398069D01*
X115701529Y-103176590D01*
X115703156Y-103110000D01*
X115684852Y-102887361D01*
X115630431Y-102670702D01*
X115541354Y-102465840D01*
X115420014Y-102278277D01*
X115269670Y-102113051D01*
X115265619Y-102109852D01*
X115265615Y-102109848D01*
X115098414Y-101977800D01*
X115098410Y-101977798D01*
X115094359Y-101974598D01*
X115053053Y-101951796D01*
X115003084Y-101901364D01*
X114988312Y-101831921D01*
X115013428Y-101765516D01*
X115040780Y-101738909D01*
X115084603Y-101707650D01*
X115219860Y-101611173D01*
X115378096Y-101453489D01*
X115437594Y-101370689D01*
X115505435Y-101276277D01*
X115508453Y-101272077D01*
X115529320Y-101229857D01*
X115605136Y-101076453D01*
X115605137Y-101076451D01*
X115607430Y-101071811D01*
X115672370Y-100858069D01*
X115701529Y-100636590D01*
X115703156Y-100570000D01*
X115684852Y-100347361D01*
X115630431Y-100130702D01*
X115541354Y-99925840D01*
X115464148Y-99806498D01*
X115422822Y-99742617D01*
X115422820Y-99742614D01*
X115420014Y-99738277D01*
X115269670Y-99573051D01*
X115265619Y-99569852D01*
X115265615Y-99569848D01*
X115098414Y-99437800D01*
X115098410Y-99437798D01*
X115094359Y-99434598D01*
X115053053Y-99411796D01*
X115003084Y-99361364D01*
X114988312Y-99291921D01*
X115013428Y-99225516D01*
X115040780Y-99198909D01*
X115084603Y-99167650D01*
X115219860Y-99071173D01*
X115378096Y-98913489D01*
X115437594Y-98830689D01*
X115505435Y-98736277D01*
X115508453Y-98732077D01*
X115529320Y-98689857D01*
X115605136Y-98536453D01*
X115605137Y-98536451D01*
X115607430Y-98531811D01*
X115672370Y-98318069D01*
X115701529Y-98096590D01*
X115703156Y-98030000D01*
X115684852Y-97807361D01*
X115630431Y-97590702D01*
X115541354Y-97385840D01*
X115420014Y-97198277D01*
X115269670Y-97033051D01*
X115265619Y-97029852D01*
X115265615Y-97029848D01*
X115098414Y-96897800D01*
X115098410Y-96897798D01*
X115094359Y-96894598D01*
X115053053Y-96871796D01*
X115003084Y-96821364D01*
X114988312Y-96751921D01*
X115013428Y-96685516D01*
X115040780Y-96658909D01*
X115084603Y-96627650D01*
X115219860Y-96531173D01*
X115378096Y-96373489D01*
X115437594Y-96290689D01*
X115505435Y-96196277D01*
X115508453Y-96192077D01*
X115529320Y-96149857D01*
X115605136Y-95996453D01*
X115605137Y-95996451D01*
X115607430Y-95991811D01*
X115672370Y-95778069D01*
X115701529Y-95556590D01*
X115703156Y-95490000D01*
X115684852Y-95267361D01*
X115630431Y-95050702D01*
X115541354Y-94845840D01*
X115420014Y-94658277D01*
X115269670Y-94493051D01*
X115265619Y-94489852D01*
X115265615Y-94489848D01*
X115098414Y-94357800D01*
X115098410Y-94357798D01*
X115094359Y-94354598D01*
X115053053Y-94331796D01*
X115003084Y-94281364D01*
X114988312Y-94211921D01*
X115013428Y-94145516D01*
X115040780Y-94118909D01*
X115084603Y-94087650D01*
X115219860Y-93991173D01*
X115378096Y-93833489D01*
X115437594Y-93750689D01*
X115505435Y-93656277D01*
X115508453Y-93652077D01*
X115529320Y-93609857D01*
X115605136Y-93456453D01*
X115605137Y-93456451D01*
X115607430Y-93451811D01*
X115672370Y-93238069D01*
X115701529Y-93016590D01*
X115703156Y-92950000D01*
X115684852Y-92727361D01*
X115630431Y-92510702D01*
X115541354Y-92305840D01*
X115420014Y-92118277D01*
X115269670Y-91953051D01*
X115265619Y-91949852D01*
X115265615Y-91949848D01*
X115098414Y-91817800D01*
X115098410Y-91817798D01*
X115094359Y-91814598D01*
X115053053Y-91791796D01*
X115003084Y-91741364D01*
X114988312Y-91671921D01*
X115013428Y-91605516D01*
X115040780Y-91578909D01*
X115084603Y-91547650D01*
X115219860Y-91451173D01*
X115378096Y-91293489D01*
X115437594Y-91210689D01*
X115505435Y-91116277D01*
X115508453Y-91112077D01*
X115529320Y-91069857D01*
X115605136Y-90916453D01*
X115605137Y-90916451D01*
X115607430Y-90911811D01*
X115672370Y-90698069D01*
X115701529Y-90476590D01*
X115703156Y-90410000D01*
X115684852Y-90187361D01*
X115630431Y-89970702D01*
X115541354Y-89765840D01*
X115420014Y-89578277D01*
X115269670Y-89413051D01*
X115265619Y-89409852D01*
X115265615Y-89409848D01*
X115098414Y-89277800D01*
X115098410Y-89277798D01*
X115094359Y-89274598D01*
X115053053Y-89251796D01*
X115003084Y-89201364D01*
X114988312Y-89131921D01*
X115013428Y-89065516D01*
X115040780Y-89038909D01*
X115084603Y-89007650D01*
X115219860Y-88911173D01*
X115378096Y-88753489D01*
X115437594Y-88670689D01*
X115505435Y-88576277D01*
X115508453Y-88572077D01*
X115529320Y-88529857D01*
X115605136Y-88376453D01*
X115605137Y-88376451D01*
X115607430Y-88371811D01*
X115672370Y-88158069D01*
X115701529Y-87936590D01*
X115703156Y-87870000D01*
X115684852Y-87647361D01*
X115630431Y-87430702D01*
X115541354Y-87225840D01*
X115420014Y-87038277D01*
X115269670Y-86873051D01*
X115265619Y-86869852D01*
X115265615Y-86869848D01*
X115098414Y-86737800D01*
X115098410Y-86737798D01*
X115094359Y-86734598D01*
X115053053Y-86711796D01*
X115003084Y-86661364D01*
X114988312Y-86591921D01*
X115013428Y-86525516D01*
X115040780Y-86498909D01*
X115084603Y-86467650D01*
X115219860Y-86371173D01*
X115378096Y-86213489D01*
X115437594Y-86130689D01*
X115505435Y-86036277D01*
X115508453Y-86032077D01*
X115529320Y-85989857D01*
X115605136Y-85836453D01*
X115605137Y-85836451D01*
X115607430Y-85831811D01*
X115672370Y-85618069D01*
X115701529Y-85396590D01*
X115703156Y-85330000D01*
X115684852Y-85107361D01*
X115630431Y-84890702D01*
X115541354Y-84685840D01*
X115420014Y-84498277D01*
X115269670Y-84333051D01*
X115265619Y-84329852D01*
X115265615Y-84329848D01*
X115098414Y-84197800D01*
X115098410Y-84197798D01*
X115094359Y-84194598D01*
X115053053Y-84171796D01*
X115003084Y-84121364D01*
X114988312Y-84051921D01*
X115013428Y-83985516D01*
X115040780Y-83958909D01*
X115084603Y-83927650D01*
X115219860Y-83831173D01*
X115378096Y-83673489D01*
X115437594Y-83590689D01*
X115505435Y-83496277D01*
X115508453Y-83492077D01*
X115529320Y-83449857D01*
X115605136Y-83296453D01*
X115605137Y-83296451D01*
X115607430Y-83291811D01*
X115672370Y-83078069D01*
X115701529Y-82856590D01*
X115703156Y-82790000D01*
X115684852Y-82567361D01*
X115630431Y-82350702D01*
X115541354Y-82145840D01*
X115420014Y-81958277D01*
X115269670Y-81793051D01*
X115265619Y-81789852D01*
X115265615Y-81789848D01*
X115098414Y-81657800D01*
X115098410Y-81657798D01*
X115094359Y-81654598D01*
X115053053Y-81631796D01*
X115003084Y-81581364D01*
X114988312Y-81511921D01*
X115013428Y-81445516D01*
X115040780Y-81418909D01*
X115084603Y-81387650D01*
X115219860Y-81291173D01*
X115259249Y-81251922D01*
X115374435Y-81137137D01*
X115378096Y-81133489D01*
X115437594Y-81050689D01*
X115505435Y-80956277D01*
X115508453Y-80952077D01*
X115529320Y-80909857D01*
X115605136Y-80756453D01*
X115605137Y-80756451D01*
X115607430Y-80751811D01*
X115672370Y-80538069D01*
X115701529Y-80316590D01*
X115703156Y-80250000D01*
X115684852Y-80027361D01*
X115630431Y-79810702D01*
X115541354Y-79605840D01*
X115420014Y-79418277D01*
X115269670Y-79253051D01*
X115265619Y-79249852D01*
X115265615Y-79249848D01*
X115098414Y-79117800D01*
X115098410Y-79117798D01*
X115094359Y-79114598D01*
X115053053Y-79091796D01*
X115003084Y-79041364D01*
X114988312Y-78971921D01*
X115013428Y-78905516D01*
X115040780Y-78878909D01*
X115084603Y-78847650D01*
X115219860Y-78751173D01*
X115378096Y-78593489D01*
X115437594Y-78510689D01*
X115505435Y-78416277D01*
X115508453Y-78412077D01*
X115529320Y-78369857D01*
X115605136Y-78216453D01*
X115605137Y-78216451D01*
X115607430Y-78211811D01*
X115672370Y-77998069D01*
X115701529Y-77776590D01*
X115703156Y-77710000D01*
X115684852Y-77487361D01*
X115630431Y-77270702D01*
X115541354Y-77065840D01*
X115420014Y-76878277D01*
X115269670Y-76713051D01*
X115265619Y-76709852D01*
X115265615Y-76709848D01*
X115098414Y-76577800D01*
X115098410Y-76577798D01*
X115094359Y-76574598D01*
X115053053Y-76551796D01*
X115003084Y-76501364D01*
X114988312Y-76431921D01*
X115013428Y-76365516D01*
X115040780Y-76338909D01*
X115084603Y-76307650D01*
X115219860Y-76211173D01*
X115378096Y-76053489D01*
X115437594Y-75970689D01*
X115505435Y-75876277D01*
X115508453Y-75872077D01*
X115529320Y-75829857D01*
X115605136Y-75676453D01*
X115605137Y-75676451D01*
X115607430Y-75671811D01*
X115672370Y-75458069D01*
X115701529Y-75236590D01*
X115703156Y-75170000D01*
X115684852Y-74947361D01*
X115630431Y-74730702D01*
X115541354Y-74525840D01*
X115420014Y-74338277D01*
X115269670Y-74173051D01*
X115265619Y-74169852D01*
X115265615Y-74169848D01*
X115098414Y-74037800D01*
X115098410Y-74037798D01*
X115094359Y-74034598D01*
X115053053Y-74011796D01*
X115003084Y-73961364D01*
X114988312Y-73891921D01*
X115013428Y-73825516D01*
X115040780Y-73798909D01*
X115084603Y-73767650D01*
X115219860Y-73671173D01*
X115378096Y-73513489D01*
X115437594Y-73430689D01*
X115505435Y-73336277D01*
X115508453Y-73332077D01*
X115529320Y-73289857D01*
X115605136Y-73136453D01*
X115605137Y-73136451D01*
X115607430Y-73131811D01*
X115644873Y-73008573D01*
X115670865Y-72923023D01*
X115670865Y-72923021D01*
X115672370Y-72918069D01*
X115701529Y-72696590D01*
X115703156Y-72630000D01*
X115684852Y-72407361D01*
X115630431Y-72190702D01*
X115541354Y-71985840D01*
X115420014Y-71798277D01*
X115269670Y-71633051D01*
X115265619Y-71629852D01*
X115265615Y-71629848D01*
X115098414Y-71497800D01*
X115098410Y-71497798D01*
X115094359Y-71494598D01*
X115053053Y-71471796D01*
X115003084Y-71421364D01*
X114988312Y-71351921D01*
X115013428Y-71285516D01*
X115040780Y-71258909D01*
X115084603Y-71227650D01*
X115219860Y-71131173D01*
X115378096Y-70973489D01*
X115437594Y-70890689D01*
X115505435Y-70796277D01*
X115508453Y-70792077D01*
X115529320Y-70749857D01*
X115605136Y-70596453D01*
X115605137Y-70596451D01*
X115607430Y-70591811D01*
X115672370Y-70378069D01*
X115701529Y-70156590D01*
X115703156Y-70090000D01*
X115684852Y-69867361D01*
X115630431Y-69650702D01*
X115541354Y-69445840D01*
X115477736Y-69347502D01*
X115422822Y-69262617D01*
X115422820Y-69262614D01*
X115420014Y-69258277D01*
X115269670Y-69093051D01*
X115265619Y-69089852D01*
X115265615Y-69089848D01*
X115098414Y-68957800D01*
X115098410Y-68957798D01*
X115094359Y-68954598D01*
X115053053Y-68931796D01*
X115003084Y-68881364D01*
X114988312Y-68811921D01*
X115013428Y-68745516D01*
X115040780Y-68718909D01*
X115084603Y-68687650D01*
X115219860Y-68591173D01*
X115378096Y-68433489D01*
X115414173Y-68383283D01*
X115505435Y-68256277D01*
X115508453Y-68252077D01*
X115512115Y-68244669D01*
X115605136Y-68056453D01*
X115605137Y-68056451D01*
X115607430Y-68051811D01*
X115672370Y-67838069D01*
X115701529Y-67616590D01*
X115703156Y-67550000D01*
X115684852Y-67327361D01*
X115630431Y-67110702D01*
X115541354Y-66905840D01*
X115420014Y-66718277D01*
X115269670Y-66553051D01*
X115265619Y-66549852D01*
X115265615Y-66549848D01*
X115098414Y-66417800D01*
X115098410Y-66417798D01*
X115094359Y-66414598D01*
X115053053Y-66391796D01*
X115003084Y-66341364D01*
X114988312Y-66271921D01*
X115013428Y-66205516D01*
X115040780Y-66178909D01*
X115084603Y-66147650D01*
X115219860Y-66051173D01*
X115252376Y-66018771D01*
X115374435Y-65897137D01*
X115378096Y-65893489D01*
X115437594Y-65810689D01*
X115505435Y-65716277D01*
X115508453Y-65712077D01*
X115517550Y-65693672D01*
X115605136Y-65516453D01*
X115605137Y-65516451D01*
X115607430Y-65511811D01*
X115672370Y-65298069D01*
X115701529Y-65076590D01*
X115703156Y-65010000D01*
X115684852Y-64787361D01*
X115630431Y-64570702D01*
X115541354Y-64365840D01*
X115420014Y-64178277D01*
X115269670Y-64013051D01*
X115265619Y-64009852D01*
X115265615Y-64009848D01*
X115098414Y-63877800D01*
X115098410Y-63877798D01*
X115094359Y-63874598D01*
X115052569Y-63851529D01*
X115002598Y-63801097D01*
X114987826Y-63731654D01*
X115012942Y-63665248D01*
X115040294Y-63638641D01*
X115215328Y-63513792D01*
X115223200Y-63507139D01*
X115374052Y-63356812D01*
X115380730Y-63348965D01*
X115505003Y-63176020D01*
X115510313Y-63167183D01*
X115604670Y-62976267D01*
X115608469Y-62966672D01*
X115670377Y-62762910D01*
X115672555Y-62752837D01*
X115673986Y-62741962D01*
X115671775Y-62727778D01*
X115658617Y-62724000D01*
X114212000Y-62724000D01*
X114143879Y-62703998D01*
X114097386Y-62650342D01*
X114086000Y-62598000D01*
X114086000Y-62342000D01*
X114106002Y-62273879D01*
X114159658Y-62227386D01*
X114212000Y-62216000D01*
X115658344Y-62216000D01*
X115671875Y-62212027D01*
X115673180Y-62202947D01*
X115631214Y-62035875D01*
X115627894Y-62026124D01*
X115542972Y-61830814D01*
X115538105Y-61821739D01*
X115422426Y-61642926D01*
X115416136Y-61634757D01*
X115272806Y-61477240D01*
X115265273Y-61470215D01*
X115098139Y-61338222D01*
X115089556Y-61332520D01*
X115052602Y-61312120D01*
X115002631Y-61261687D01*
X114987859Y-61192245D01*
X115012975Y-61125839D01*
X115040327Y-61099232D01*
X115063797Y-61082491D01*
X115219860Y-60971173D01*
X115378096Y-60813489D01*
X115437594Y-60730689D01*
X115505435Y-60636277D01*
X115508453Y-60632077D01*
X115522644Y-60603365D01*
X115605136Y-60436453D01*
X115605137Y-60436451D01*
X115607430Y-60431811D01*
X115672370Y-60218069D01*
X115701529Y-59996590D01*
X115703156Y-59930000D01*
X115684852Y-59707361D01*
X115630431Y-59490702D01*
X115541354Y-59285840D01*
X115455296Y-59152815D01*
X115422822Y-59102617D01*
X115422820Y-59102614D01*
X115420014Y-59098277D01*
X115269670Y-58933051D01*
X115265619Y-58929852D01*
X115265615Y-58929848D01*
X115110263Y-58807158D01*
X115094359Y-58794598D01*
X115089841Y-58792104D01*
X115089835Y-58792100D01*
X115063605Y-58777620D01*
X115013635Y-58727187D01*
X114998500Y-58667312D01*
X114998500Y-58653961D01*
X115018502Y-58585840D01*
X115051332Y-58551382D01*
X115110413Y-58509240D01*
X115219860Y-58431173D01*
X115378096Y-58273489D01*
X115403434Y-58238228D01*
X115505435Y-58096277D01*
X115508453Y-58092077D01*
X115575640Y-57956135D01*
X115605136Y-57896453D01*
X115605137Y-57896451D01*
X115607430Y-57891811D01*
X115672370Y-57678069D01*
X115701529Y-57456590D01*
X115703156Y-57390000D01*
X115684852Y-57167361D01*
X115630431Y-56950702D01*
X115541354Y-56745840D01*
X115420014Y-56558277D01*
X115269670Y-56393051D01*
X115265619Y-56389852D01*
X115265615Y-56389848D01*
X115098414Y-56257800D01*
X115098410Y-56257798D01*
X115094359Y-56254598D01*
X114898789Y-56146638D01*
X114893920Y-56144914D01*
X114893916Y-56144912D01*
X114693087Y-56073795D01*
X114693083Y-56073794D01*
X114688212Y-56072069D01*
X114683119Y-56071162D01*
X114683116Y-56071161D01*
X114473373Y-56033800D01*
X114473367Y-56033799D01*
X114468284Y-56032894D01*
X114394452Y-56031992D01*
X114250081Y-56030228D01*
X114250079Y-56030228D01*
X114244911Y-56030165D01*
X114024091Y-56063955D01*
X113811756Y-56133357D01*
X113613607Y-56236507D01*
X113609474Y-56239610D01*
X113609471Y-56239612D01*
X113439100Y-56367530D01*
X113434965Y-56370635D01*
X113378537Y-56429684D01*
X113354283Y-56455064D01*
X113292759Y-56490494D01*
X113221846Y-56487037D01*
X113164060Y-56445791D01*
X113145207Y-56412243D01*
X113103767Y-56301703D01*
X113100615Y-56293295D01*
X113013261Y-56176739D01*
X112896705Y-56089385D01*
X112760316Y-56038255D01*
X112698134Y-56031500D01*
X110901866Y-56031500D01*
X110839684Y-56038255D01*
X110703295Y-56089385D01*
X110586739Y-56176739D01*
X110499385Y-56293295D01*
X110448255Y-56429684D01*
X110441500Y-56491866D01*
X110441500Y-58288134D01*
X110448255Y-58350316D01*
X110499385Y-58486705D01*
X110586739Y-58603261D01*
X110703295Y-58690615D01*
X110711704Y-58693767D01*
X110711705Y-58693768D01*
X110820451Y-58734535D01*
X110877216Y-58777176D01*
X110901916Y-58843738D01*
X110886709Y-58913087D01*
X110867316Y-58939568D01*
X110740629Y-59072138D01*
X110614743Y-59256680D01*
X110599003Y-59290590D01*
X110524991Y-59450036D01*
X110520688Y-59459305D01*
X110460989Y-59674570D01*
X110437251Y-59896695D01*
X110437548Y-59901848D01*
X110437548Y-59901851D01*
X110443011Y-59996590D01*
X110450110Y-60119715D01*
X110451247Y-60124761D01*
X110451248Y-60124767D01*
X110471119Y-60212939D01*
X110499222Y-60337639D01*
X110583266Y-60544616D01*
X110634019Y-60627438D01*
X110697291Y-60730688D01*
X110699987Y-60735088D01*
X110846250Y-60903938D01*
X111018126Y-61046632D01*
X111088372Y-61087680D01*
X111091445Y-61089476D01*
X111140169Y-61141114D01*
X111153240Y-61210897D01*
X111126509Y-61276669D01*
X111086055Y-61310027D01*
X111073607Y-61316507D01*
X111069474Y-61319610D01*
X111069471Y-61319612D01*
X110950431Y-61408990D01*
X110894965Y-61450635D01*
X110740629Y-61612138D01*
X110737715Y-61616410D01*
X110737714Y-61616411D01*
X110688677Y-61688297D01*
X110614743Y-61796680D01*
X110580402Y-61870661D01*
X110538207Y-61961564D01*
X110520688Y-61999305D01*
X110460989Y-62214570D01*
X110437251Y-62436695D01*
X110450110Y-62659715D01*
X110451247Y-62664761D01*
X110451248Y-62664767D01*
X110464597Y-62724000D01*
X110499222Y-62877639D01*
X110583266Y-63084616D01*
X110699987Y-63275088D01*
X110846250Y-63443938D01*
X111018126Y-63586632D01*
X111088595Y-63627811D01*
X111091445Y-63629476D01*
X111140169Y-63681114D01*
X111153240Y-63750897D01*
X111126509Y-63816669D01*
X111086055Y-63850027D01*
X111073607Y-63856507D01*
X111069474Y-63859610D01*
X111069471Y-63859612D01*
X111045247Y-63877800D01*
X110894965Y-63990635D01*
X110740629Y-64152138D01*
X110614743Y-64336680D01*
X110520688Y-64539305D01*
X110460989Y-64754570D01*
X110437251Y-64976695D01*
X110437548Y-64981848D01*
X110437548Y-64981851D01*
X110443011Y-65076590D01*
X110450110Y-65199715D01*
X110451247Y-65204761D01*
X110451248Y-65204767D01*
X110471119Y-65292939D01*
X110499222Y-65417639D01*
X110583266Y-65624616D01*
X110624559Y-65692000D01*
X110697291Y-65810688D01*
X110699987Y-65815088D01*
X110846250Y-65983938D01*
X111018126Y-66126632D01*
X111055566Y-66148510D01*
X111091445Y-66169476D01*
X111140169Y-66221114D01*
X111153240Y-66290897D01*
X111126509Y-66356669D01*
X111086055Y-66390027D01*
X111073607Y-66396507D01*
X111069474Y-66399610D01*
X111069471Y-66399612D01*
X111047823Y-66415866D01*
X110894965Y-66530635D01*
X110740629Y-66692138D01*
X110614743Y-66876680D01*
X110520688Y-67079305D01*
X110460989Y-67294570D01*
X110437251Y-67516695D01*
X110437548Y-67521848D01*
X110437548Y-67521851D01*
X110443011Y-67616590D01*
X110450110Y-67739715D01*
X110451247Y-67744761D01*
X110451248Y-67744767D01*
X110471119Y-67832939D01*
X110499222Y-67957639D01*
X110537461Y-68051811D01*
X110570872Y-68134092D01*
X110583266Y-68164616D01*
X110632322Y-68244669D01*
X110697291Y-68350688D01*
X110699987Y-68355088D01*
X110846250Y-68523938D01*
X111018126Y-68666632D01*
X111074649Y-68699661D01*
X111091445Y-68709476D01*
X111140169Y-68761114D01*
X111153240Y-68830897D01*
X111126509Y-68896669D01*
X111086055Y-68930027D01*
X111073607Y-68936507D01*
X111069474Y-68939610D01*
X111069471Y-68939612D01*
X110933660Y-69041582D01*
X110894965Y-69070635D01*
X110891393Y-69074373D01*
X110801453Y-69168490D01*
X110740629Y-69232138D01*
X110737720Y-69236403D01*
X110737714Y-69236411D01*
X110679519Y-69321722D01*
X110614743Y-69416680D01*
X110589328Y-69471432D01*
X110547617Y-69561292D01*
X110520688Y-69619305D01*
X110460989Y-69834570D01*
X110437251Y-70056695D01*
X110437548Y-70061848D01*
X110437548Y-70061851D01*
X110443011Y-70156590D01*
X110450110Y-70279715D01*
X110451247Y-70284761D01*
X110451248Y-70284767D01*
X110471119Y-70372939D01*
X110499222Y-70497639D01*
X110583266Y-70704616D01*
X110634019Y-70787438D01*
X110697291Y-70890688D01*
X110699987Y-70895088D01*
X110846250Y-71063938D01*
X111018126Y-71206632D01*
X111088595Y-71247811D01*
X111091445Y-71249476D01*
X111140169Y-71301114D01*
X111153240Y-71370897D01*
X111126509Y-71436669D01*
X111086055Y-71470027D01*
X111073607Y-71476507D01*
X111069474Y-71479610D01*
X111069471Y-71479612D01*
X111045247Y-71497800D01*
X110894965Y-71610635D01*
X110740629Y-71772138D01*
X110614743Y-71956680D01*
X110520688Y-72159305D01*
X110460989Y-72374570D01*
X110437251Y-72596695D01*
X110437548Y-72601848D01*
X110437548Y-72601851D01*
X110443011Y-72696590D01*
X110450110Y-72819715D01*
X110451247Y-72824761D01*
X110451248Y-72824767D01*
X110471119Y-72912939D01*
X110499222Y-73037639D01*
X110583266Y-73244616D01*
X110634019Y-73327438D01*
X110697291Y-73430688D01*
X110699987Y-73435088D01*
X110846250Y-73603938D01*
X111018126Y-73746632D01*
X111088595Y-73787811D01*
X111091445Y-73789476D01*
X111140169Y-73841114D01*
X111153240Y-73910897D01*
X111126509Y-73976669D01*
X111086055Y-74010027D01*
X111073607Y-74016507D01*
X111069474Y-74019610D01*
X111069471Y-74019612D01*
X111045247Y-74037800D01*
X110894965Y-74150635D01*
X110740629Y-74312138D01*
X110614743Y-74496680D01*
X110520688Y-74699305D01*
X110460989Y-74914570D01*
X110437251Y-75136695D01*
X110437548Y-75141848D01*
X110437548Y-75141851D01*
X110443011Y-75236590D01*
X110450110Y-75359715D01*
X110451247Y-75364761D01*
X110451248Y-75364767D01*
X110471119Y-75452939D01*
X110499222Y-75577639D01*
X110583266Y-75784616D01*
X110634019Y-75867438D01*
X110697291Y-75970688D01*
X110699987Y-75975088D01*
X110846250Y-76143938D01*
X111018126Y-76286632D01*
X111088595Y-76327811D01*
X111091445Y-76329476D01*
X111140169Y-76381114D01*
X111153240Y-76450897D01*
X111126509Y-76516669D01*
X111086055Y-76550027D01*
X111073607Y-76556507D01*
X111069474Y-76559610D01*
X111069471Y-76559612D01*
X111045247Y-76577800D01*
X110894965Y-76690635D01*
X110740629Y-76852138D01*
X110614743Y-77036680D01*
X110520688Y-77239305D01*
X110460989Y-77454570D01*
X110437251Y-77676695D01*
X110437548Y-77681848D01*
X110437548Y-77681851D01*
X110443011Y-77776590D01*
X110450110Y-77899715D01*
X110451247Y-77904761D01*
X110451248Y-77904767D01*
X110471119Y-77992939D01*
X110499222Y-78117639D01*
X110583266Y-78324616D01*
X110634019Y-78407438D01*
X110697291Y-78510688D01*
X110699987Y-78515088D01*
X110846250Y-78683938D01*
X111018126Y-78826632D01*
X111088595Y-78867811D01*
X111091445Y-78869476D01*
X111140169Y-78921114D01*
X111153240Y-78990897D01*
X111126509Y-79056669D01*
X111086055Y-79090027D01*
X111073607Y-79096507D01*
X111069474Y-79099610D01*
X111069471Y-79099612D01*
X111045247Y-79117800D01*
X110894965Y-79230635D01*
X110740629Y-79392138D01*
X110614743Y-79576680D01*
X110520688Y-79779305D01*
X110460989Y-79994570D01*
X110437251Y-80216695D01*
X110437548Y-80221848D01*
X110437548Y-80221851D01*
X110443011Y-80316590D01*
X110450110Y-80439715D01*
X110451247Y-80444761D01*
X110451248Y-80444767D01*
X110471119Y-80532939D01*
X110499222Y-80657639D01*
X110583266Y-80864616D01*
X110634019Y-80947438D01*
X110697291Y-81050688D01*
X110699987Y-81055088D01*
X110846250Y-81223938D01*
X111018126Y-81366632D01*
X111088595Y-81407811D01*
X111091445Y-81409476D01*
X111140169Y-81461114D01*
X111153240Y-81530897D01*
X111126509Y-81596669D01*
X111086055Y-81630027D01*
X111073607Y-81636507D01*
X111069474Y-81639610D01*
X111069471Y-81639612D01*
X111045247Y-81657800D01*
X110894965Y-81770635D01*
X110740629Y-81932138D01*
X110614743Y-82116680D01*
X110520688Y-82319305D01*
X110460989Y-82534570D01*
X110437251Y-82756695D01*
X110437548Y-82761848D01*
X110437548Y-82761851D01*
X110443011Y-82856590D01*
X110450110Y-82979715D01*
X110451247Y-82984761D01*
X110451248Y-82984767D01*
X110453336Y-82994031D01*
X110499222Y-83197639D01*
X110583266Y-83404616D01*
X110634019Y-83487438D01*
X110697291Y-83590688D01*
X110699987Y-83595088D01*
X110846250Y-83763938D01*
X111018126Y-83906632D01*
X111088595Y-83947811D01*
X111091445Y-83949476D01*
X111140169Y-84001114D01*
X111153240Y-84070897D01*
X111126509Y-84136669D01*
X111086055Y-84170027D01*
X111073607Y-84176507D01*
X111069474Y-84179610D01*
X111069471Y-84179612D01*
X111045247Y-84197800D01*
X110894965Y-84310635D01*
X110740629Y-84472138D01*
X110614743Y-84656680D01*
X110520688Y-84859305D01*
X110460989Y-85074570D01*
X110437251Y-85296695D01*
X110437548Y-85301848D01*
X110437548Y-85301851D01*
X110443011Y-85396590D01*
X110450110Y-85519715D01*
X110451247Y-85524761D01*
X110451248Y-85524767D01*
X110471119Y-85612939D01*
X110499222Y-85737639D01*
X110583266Y-85944616D01*
X110634019Y-86027438D01*
X110697291Y-86130688D01*
X110699987Y-86135088D01*
X110846250Y-86303938D01*
X111018126Y-86446632D01*
X111088595Y-86487811D01*
X111091445Y-86489476D01*
X111140169Y-86541114D01*
X111153240Y-86610897D01*
X111126509Y-86676669D01*
X111086055Y-86710027D01*
X111073607Y-86716507D01*
X111069474Y-86719610D01*
X111069471Y-86719612D01*
X111045247Y-86737800D01*
X110894965Y-86850635D01*
X110740629Y-87012138D01*
X110614743Y-87196680D01*
X110520688Y-87399305D01*
X110460989Y-87614570D01*
X110437251Y-87836695D01*
X110437548Y-87841848D01*
X110437548Y-87841851D01*
X110443011Y-87936590D01*
X110450110Y-88059715D01*
X110451247Y-88064761D01*
X110451248Y-88064767D01*
X110471119Y-88152939D01*
X110499222Y-88277639D01*
X110583266Y-88484616D01*
X110634019Y-88567438D01*
X110697291Y-88670688D01*
X110699987Y-88675088D01*
X110846250Y-88843938D01*
X111018126Y-88986632D01*
X111088595Y-89027811D01*
X111091445Y-89029476D01*
X111140169Y-89081114D01*
X111153240Y-89150897D01*
X111126509Y-89216669D01*
X111086055Y-89250027D01*
X111073607Y-89256507D01*
X111069474Y-89259610D01*
X111069471Y-89259612D01*
X110899100Y-89387530D01*
X110894965Y-89390635D01*
X110740629Y-89552138D01*
X110614743Y-89736680D01*
X110599003Y-89770590D01*
X110528260Y-89922993D01*
X110520688Y-89939305D01*
X110460989Y-90154570D01*
X110437251Y-90376695D01*
X110437548Y-90381848D01*
X110437548Y-90381851D01*
X110443011Y-90476590D01*
X110450110Y-90599715D01*
X110451247Y-90604761D01*
X110451248Y-90604767D01*
X110471119Y-90692939D01*
X110499222Y-90817639D01*
X110583266Y-91024616D01*
X110634019Y-91107438D01*
X110697291Y-91210688D01*
X110699987Y-91215088D01*
X110846250Y-91383938D01*
X111018126Y-91526632D01*
X111088595Y-91567811D01*
X111091445Y-91569476D01*
X111140169Y-91621114D01*
X111153240Y-91690897D01*
X111126509Y-91756669D01*
X111086055Y-91790027D01*
X111073607Y-91796507D01*
X111069474Y-91799610D01*
X111069471Y-91799612D01*
X111045247Y-91817800D01*
X110894965Y-91930635D01*
X110740629Y-92092138D01*
X110614743Y-92276680D01*
X110520688Y-92479305D01*
X110460989Y-92694570D01*
X110437251Y-92916695D01*
X110437548Y-92921848D01*
X110437548Y-92921851D01*
X110443011Y-93016590D01*
X110450110Y-93139715D01*
X110451247Y-93144761D01*
X110451248Y-93144767D01*
X110471119Y-93232939D01*
X110499222Y-93357639D01*
X110583266Y-93564616D01*
X110634019Y-93647438D01*
X110697291Y-93750688D01*
X110699987Y-93755088D01*
X110846250Y-93923938D01*
X111018126Y-94066632D01*
X111088595Y-94107811D01*
X111091445Y-94109476D01*
X111140169Y-94161114D01*
X111153240Y-94230897D01*
X111126509Y-94296669D01*
X111086055Y-94330027D01*
X111073607Y-94336507D01*
X111069474Y-94339610D01*
X111069471Y-94339612D01*
X111045247Y-94357800D01*
X110894965Y-94470635D01*
X110891393Y-94474373D01*
X110800570Y-94569414D01*
X110740629Y-94632138D01*
X110614743Y-94816680D01*
X110520688Y-95019305D01*
X110460989Y-95234570D01*
X110437251Y-95456695D01*
X110437548Y-95461848D01*
X110437548Y-95461851D01*
X110443011Y-95556590D01*
X110450110Y-95679715D01*
X110451247Y-95684761D01*
X110451248Y-95684767D01*
X110471119Y-95772939D01*
X110499222Y-95897639D01*
X110583266Y-96104616D01*
X110634019Y-96187438D01*
X110697291Y-96290688D01*
X110699987Y-96295088D01*
X110846250Y-96463938D01*
X111018126Y-96606632D01*
X111088595Y-96647811D01*
X111091445Y-96649476D01*
X111140169Y-96701114D01*
X111153240Y-96770897D01*
X111126509Y-96836669D01*
X111086055Y-96870027D01*
X111073607Y-96876507D01*
X111069474Y-96879610D01*
X111069471Y-96879612D01*
X111045247Y-96897800D01*
X110894965Y-97010635D01*
X110740629Y-97172138D01*
X110614743Y-97356680D01*
X110520688Y-97559305D01*
X110460989Y-97774570D01*
X110437251Y-97996695D01*
X110437548Y-98001848D01*
X110437548Y-98001851D01*
X110443011Y-98096590D01*
X110450110Y-98219715D01*
X110451247Y-98224761D01*
X110451248Y-98224767D01*
X110471119Y-98312939D01*
X110499222Y-98437639D01*
X110583266Y-98644616D01*
X110634019Y-98727438D01*
X110697291Y-98830688D01*
X110699987Y-98835088D01*
X110846250Y-99003938D01*
X111018126Y-99146632D01*
X111088595Y-99187811D01*
X111091445Y-99189476D01*
X111140169Y-99241114D01*
X111153240Y-99310897D01*
X111126509Y-99376669D01*
X111086055Y-99410027D01*
X111073607Y-99416507D01*
X111069474Y-99419610D01*
X111069471Y-99419612D01*
X111045247Y-99437800D01*
X110894965Y-99550635D01*
X110740629Y-99712138D01*
X110614743Y-99896680D01*
X110520688Y-100099305D01*
X110460989Y-100314570D01*
X110437251Y-100536695D01*
X110437548Y-100541848D01*
X110437548Y-100541851D01*
X110443011Y-100636590D01*
X110450110Y-100759715D01*
X110451247Y-100764761D01*
X110451248Y-100764767D01*
X110471119Y-100852939D01*
X110499222Y-100977639D01*
X110583266Y-101184616D01*
X110634019Y-101267438D01*
X110697291Y-101370688D01*
X110699987Y-101375088D01*
X110846250Y-101543938D01*
X111018126Y-101686632D01*
X111088595Y-101727811D01*
X111091445Y-101729476D01*
X111140169Y-101781114D01*
X111153240Y-101850897D01*
X111126509Y-101916669D01*
X111086055Y-101950027D01*
X111073607Y-101956507D01*
X111069474Y-101959610D01*
X111069471Y-101959612D01*
X111045247Y-101977800D01*
X110894965Y-102090635D01*
X110740629Y-102252138D01*
X110614743Y-102436680D01*
X110520688Y-102639305D01*
X110460989Y-102854570D01*
X110460440Y-102859707D01*
X110459456Y-102868913D01*
X110437251Y-103076695D01*
X110437548Y-103081848D01*
X110437548Y-103081851D01*
X110443011Y-103176590D01*
X110450110Y-103299715D01*
X110451247Y-103304761D01*
X110451248Y-103304767D01*
X110471119Y-103392939D01*
X110499222Y-103517639D01*
X110583266Y-103724616D01*
X110634019Y-103807438D01*
X110697291Y-103910688D01*
X110699987Y-103915088D01*
X110846250Y-104083938D01*
X111018126Y-104226632D01*
X111088595Y-104267811D01*
X111091445Y-104269476D01*
X111140169Y-104321114D01*
X111153240Y-104390897D01*
X111126509Y-104456669D01*
X111086055Y-104490027D01*
X111073607Y-104496507D01*
X111069474Y-104499610D01*
X111069471Y-104499612D01*
X111045247Y-104517800D01*
X110894965Y-104630635D01*
X110740629Y-104792138D01*
X110614743Y-104976680D01*
X110520688Y-105179305D01*
X110460989Y-105394570D01*
X110437251Y-105616695D01*
X95508500Y-105616695D01*
X95508500Y-52507655D01*
X111239858Y-52507655D01*
X111275104Y-52766638D01*
X111276412Y-52771124D01*
X111276412Y-52771126D01*
X111296098Y-52838664D01*
X111348243Y-53017567D01*
X111457668Y-53254928D01*
X111460231Y-53258837D01*
X111598410Y-53469596D01*
X111598414Y-53469601D01*
X111600976Y-53473509D01*
X111775018Y-53668506D01*
X111975970Y-53835637D01*
X111979973Y-53838066D01*
X112195422Y-53968804D01*
X112195426Y-53968806D01*
X112199419Y-53971229D01*
X112440455Y-54072303D01*
X112693783Y-54136641D01*
X112698434Y-54137109D01*
X112698438Y-54137110D01*
X112891308Y-54156531D01*
X112910867Y-54158500D01*
X113066354Y-54158500D01*
X113068679Y-54158327D01*
X113068685Y-54158327D01*
X113256000Y-54144407D01*
X113256004Y-54144406D01*
X113260652Y-54144061D01*
X113265200Y-54143032D01*
X113265206Y-54143031D01*
X113451601Y-54100853D01*
X113515577Y-54086377D01*
X113551769Y-54072303D01*
X113754824Y-53993340D01*
X113754827Y-53993339D01*
X113759177Y-53991647D01*
X113986098Y-53861951D01*
X114191357Y-53700138D01*
X114370443Y-53509763D01*
X114519424Y-53295009D01*
X114635025Y-53060593D01*
X114714707Y-52811665D01*
X114756721Y-52553693D01*
X114760142Y-52292345D01*
X114724896Y-52033362D01*
X114710473Y-51983877D01*
X114653068Y-51786932D01*
X114651757Y-51782433D01*
X114542332Y-51545072D01*
X114509519Y-51495024D01*
X114401590Y-51330404D01*
X114401586Y-51330399D01*
X114399024Y-51326491D01*
X114224982Y-51131494D01*
X114024030Y-50964363D01*
X113976844Y-50935730D01*
X113804578Y-50831196D01*
X113804574Y-50831194D01*
X113800581Y-50828771D01*
X113559545Y-50727697D01*
X113306217Y-50663359D01*
X113301566Y-50662891D01*
X113301562Y-50662890D01*
X113092271Y-50641816D01*
X113089133Y-50641500D01*
X112933646Y-50641500D01*
X112931321Y-50641673D01*
X112931315Y-50641673D01*
X112744000Y-50655593D01*
X112743996Y-50655594D01*
X112739348Y-50655939D01*
X112734800Y-50656968D01*
X112734794Y-50656969D01*
X112548399Y-50699147D01*
X112484423Y-50713623D01*
X112480071Y-50715315D01*
X112480069Y-50715316D01*
X112245176Y-50806660D01*
X112245173Y-50806661D01*
X112240823Y-50808353D01*
X112013902Y-50938049D01*
X111808643Y-51099862D01*
X111629557Y-51290237D01*
X111480576Y-51504991D01*
X111364975Y-51739407D01*
X111285293Y-51988335D01*
X111243279Y-52246307D01*
X111239858Y-52507655D01*
X95508500Y-52507655D01*
X95508500Y-49107655D01*
X97239858Y-49107655D01*
X97275104Y-49366638D01*
X97276412Y-49371124D01*
X97276412Y-49371126D01*
X97293370Y-49429305D01*
X97348243Y-49617567D01*
X97350203Y-49621820D01*
X97350204Y-49621821D01*
X97366029Y-49656148D01*
X97457668Y-49854928D01*
X97460231Y-49858837D01*
X97598410Y-50069596D01*
X97598414Y-50069601D01*
X97600976Y-50073509D01*
X97775018Y-50268506D01*
X97975970Y-50435637D01*
X97979973Y-50438066D01*
X98195422Y-50568804D01*
X98195426Y-50568806D01*
X98199419Y-50571229D01*
X98440455Y-50672303D01*
X98693783Y-50736641D01*
X98698434Y-50737109D01*
X98698438Y-50737110D01*
X98891308Y-50756531D01*
X98910867Y-50758500D01*
X99066354Y-50758500D01*
X99068679Y-50758327D01*
X99068685Y-50758327D01*
X99256000Y-50744407D01*
X99256004Y-50744406D01*
X99260652Y-50744061D01*
X99265200Y-50743032D01*
X99265206Y-50743031D01*
X99453658Y-50700388D01*
X99515577Y-50686377D01*
X99551769Y-50672303D01*
X99754824Y-50593340D01*
X99754827Y-50593339D01*
X99759177Y-50591647D01*
X99766449Y-50587491D01*
X99893953Y-50514616D01*
X99986098Y-50461951D01*
X100191357Y-50300138D01*
X100370443Y-50109763D01*
X100519424Y-49895009D01*
X100635025Y-49660593D01*
X100714707Y-49411665D01*
X100756721Y-49153693D01*
X100760142Y-48892345D01*
X100724896Y-48633362D01*
X100716563Y-48604771D01*
X100697732Y-48540165D01*
X100651757Y-48382433D01*
X100542332Y-48145072D01*
X100468090Y-48031834D01*
X100401590Y-47930404D01*
X100401586Y-47930399D01*
X100399024Y-47926491D01*
X100224982Y-47731494D01*
X100024030Y-47564363D01*
X99875077Y-47473976D01*
X99804578Y-47431196D01*
X99804574Y-47431194D01*
X99800581Y-47428771D01*
X99559545Y-47327697D01*
X99306217Y-47263359D01*
X99301566Y-47262891D01*
X99301562Y-47262890D01*
X99092271Y-47241816D01*
X99089133Y-47241500D01*
X98933646Y-47241500D01*
X98931321Y-47241673D01*
X98931315Y-47241673D01*
X98744000Y-47255593D01*
X98743996Y-47255594D01*
X98739348Y-47255939D01*
X98734800Y-47256968D01*
X98734794Y-47256969D01*
X98548399Y-47299147D01*
X98484423Y-47313623D01*
X98480071Y-47315315D01*
X98480069Y-47315316D01*
X98245176Y-47406660D01*
X98245173Y-47406661D01*
X98240823Y-47408353D01*
X98236769Y-47410670D01*
X98236767Y-47410671D01*
X98211802Y-47424940D01*
X98013902Y-47538049D01*
X97808643Y-47699862D01*
X97629557Y-47890237D01*
X97480576Y-48104991D01*
X97478510Y-48109181D01*
X97478508Y-48109184D01*
X97394288Y-48279967D01*
X97364975Y-48339407D01*
X97363553Y-48343850D01*
X97363552Y-48343852D01*
X97291024Y-48570432D01*
X97285293Y-48588335D01*
X97243279Y-48846307D01*
X97242283Y-48922433D01*
X97240317Y-49072617D01*
X97239858Y-49107655D01*
X95508500Y-49107655D01*
X95508500Y-45634500D01*
X95528502Y-45566379D01*
X95582158Y-45519886D01*
X95634500Y-45508500D01*
X182365500Y-45508500D01*
X182433621Y-45528502D01*
G37*
%TD.AperFunction*%
%TD*%
M02*
