%TF.GenerationSoftware,KiCad,Pcbnew,6.0.8-f2edbf62ab~116~ubuntu22.04.1*%
%TF.CreationDate,2022-11-03T19:19:17-04:00*%
%TF.ProjectId,MJBOTS-CubeSat,4d4a424f-5453-42d4-9375-62655361742e,rev?*%
%TF.SameCoordinates,Original*%
%TF.FileFunction,Copper,L2,Bot*%
%TF.FilePolarity,Positive*%
%FSLAX46Y46*%
G04 Gerber Fmt 4.6, Leading zero omitted, Abs format (unit mm)*
G04 Created by KiCad (PCBNEW 6.0.8-f2edbf62ab~116~ubuntu22.04.1) date 2022-11-03 19:19:17*
%MOMM*%
%LPD*%
G01*
G04 APERTURE LIST*
G04 Aperture macros list*
%AMRoundRect*
0 Rectangle with rounded corners*
0 $1 Rounding radius*
0 $2 $3 $4 $5 $6 $7 $8 $9 X,Y pos of 4 corners*
0 Add a 4 corners polygon primitive as box body*
4,1,4,$2,$3,$4,$5,$6,$7,$8,$9,$2,$3,0*
0 Add four circle primitives for the rounded corners*
1,1,$1+$1,$2,$3*
1,1,$1+$1,$4,$5*
1,1,$1+$1,$6,$7*
1,1,$1+$1,$8,$9*
0 Add four rect primitives between the rounded corners*
20,1,$1+$1,$2,$3,$4,$5,0*
20,1,$1+$1,$4,$5,$6,$7,0*
20,1,$1+$1,$6,$7,$8,$9,0*
20,1,$1+$1,$8,$9,$2,$3,0*%
G04 Aperture macros list end*
%TA.AperFunction,ComponentPad*%
%ADD10R,1.600000X1.600000*%
%TD*%
%TA.AperFunction,ComponentPad*%
%ADD11C,1.600000*%
%TD*%
%TA.AperFunction,ComponentPad*%
%ADD12C,2.550000*%
%TD*%
%TA.AperFunction,ComponentPad*%
%ADD13C,1.500000*%
%TD*%
%TA.AperFunction,ComponentPad*%
%ADD14R,1.700000X1.700000*%
%TD*%
%TA.AperFunction,ComponentPad*%
%ADD15O,1.700000X1.700000*%
%TD*%
%TA.AperFunction,ComponentPad*%
%ADD16R,3.716000X3.716000*%
%TD*%
%TA.AperFunction,ComponentPad*%
%ADD17C,3.716000*%
%TD*%
%TA.AperFunction,ComponentPad*%
%ADD18O,1.200000X2.400000*%
%TD*%
%TA.AperFunction,ComponentPad*%
%ADD19R,2.000000X2.000000*%
%TD*%
%TA.AperFunction,SMDPad,CuDef*%
%ADD20RoundRect,0.042000X-0.258000X0.908000X-0.258000X-0.908000X0.258000X-0.908000X0.258000X0.908000X0*%
%TD*%
%TA.AperFunction,ViaPad*%
%ADD21C,0.800000*%
%TD*%
%TA.AperFunction,Conductor*%
%ADD22C,0.250000*%
%TD*%
%TA.AperFunction,Conductor*%
%ADD23C,1.000000*%
%TD*%
G04 APERTURE END LIST*
D10*
%TO.P,J4,1,1*%
%TO.N,unconnected-(J4-Pad1)*%
X147700000Y-76000000D03*
D11*
%TO.P,J4,2,2*%
%TO.N,/CAN_L*%
X144930000Y-76000000D03*
%TO.P,J4,3,3*%
%TO.N,GND*%
X142160000Y-76000000D03*
%TO.P,J4,4,4*%
%TO.N,unconnected-(J4-Pad4)*%
X139390000Y-76000000D03*
%TO.P,J4,5,5*%
%TO.N,unconnected-(J4-Pad5)*%
X136620000Y-76000000D03*
%TO.P,J4,6,6*%
%TO.N,unconnected-(J4-Pad6)*%
X146315000Y-73160000D03*
%TO.P,J4,7,7*%
%TO.N,/CAN_H*%
X143545000Y-73160000D03*
%TO.P,J4,8,8*%
%TO.N,unconnected-(J4-Pad8)*%
X140775000Y-73160000D03*
%TO.P,J4,9,9*%
%TO.N,unconnected-(J4-Pad9)*%
X138005000Y-73160000D03*
%TD*%
D12*
%TO.P,J9,1,+*%
%TO.N,/VCC*%
X150000000Y-59512000D03*
%TO.P,J9,2,-*%
%TO.N,GND*%
X155000000Y-59512000D03*
D13*
%TO.P,J9,3*%
%TO.N,N/C*%
X158000000Y-49512000D03*
%TO.P,J9,4*%
X147000000Y-49512000D03*
%TD*%
D14*
%TO.P,J1,1,Pin_1*%
%TO.N,/3.3V*%
X118725000Y-115075000D03*
D15*
%TO.P,J1,2,Pin_2*%
%TO.N,/5V*%
X121265000Y-115075000D03*
%TO.P,J1,3,Pin_3*%
%TO.N,/SDA*%
X118725000Y-117615000D03*
%TO.P,J1,4,Pin_4*%
%TO.N,/5V*%
X121265000Y-117615000D03*
%TO.P,J1,5,Pin_5*%
%TO.N,/SCL*%
X118725000Y-120155000D03*
%TO.P,J1,6,Pin_6*%
%TO.N,GND*%
X121265000Y-120155000D03*
%TD*%
D14*
%TO.P,J2,1,Pin_1*%
%TO.N,/3.3V*%
X165250000Y-62300000D03*
D15*
%TO.P,J2,2,Pin_2*%
%TO.N,unconnected-(J2-Pad2)*%
X167790000Y-62300000D03*
%TO.P,J2,3,Pin_3*%
%TO.N,GND*%
X170330000Y-62300000D03*
%TO.P,J2,4,Pin_4*%
%TO.N,/SCL*%
X172870000Y-62300000D03*
%TO.P,J2,5,Pin_5*%
%TO.N,/SDA*%
X175410000Y-62300000D03*
%TO.P,J2,6,Pin_6*%
%TO.N,unconnected-(J2-Pad6)*%
X177950000Y-62300000D03*
%TD*%
D16*
%TO.P,J7,1,+*%
%TO.N,/VCC*%
X138600000Y-62065750D03*
D17*
%TO.P,J7,2,-*%
%TO.N,GND*%
X131400000Y-62065750D03*
D18*
%TO.P,J7,S1*%
%TO.N,N/C*%
X141750000Y-56065750D03*
%TO.P,J7,S2*%
X128250000Y-56065750D03*
%TD*%
D19*
%TO.P,U1,1,IN+*%
%TO.N,/VCC*%
X162750000Y-106750000D03*
%TO.P,U1,2,IN-*%
%TO.N,GND*%
X179850000Y-106600000D03*
%TO.P,U1,3,OUT+*%
%TO.N,/5V*%
X162602000Y-67314000D03*
%TO.P,U1,4,OUT-*%
%TO.N,GND*%
X179750000Y-67050000D03*
%TD*%
D14*
%TO.P,J6,1,Pin_1*%
%TO.N,GND*%
X164375000Y-125100000D03*
D15*
%TO.P,J6,2,Pin_2*%
%TO.N,/CAN_H*%
X166915000Y-125100000D03*
%TO.P,J6,3,Pin_3*%
%TO.N,/CAN_L*%
X169455000Y-125100000D03*
%TD*%
D14*
%TO.P,J11,1,Pin_1*%
%TO.N,/A-D Converter/CELL1*%
X106000000Y-47600000D03*
D15*
%TO.P,J11,2,Pin_2*%
%TO.N,/A-D Converter/CELL2*%
X108540000Y-47600000D03*
%TO.P,J11,3,Pin_3*%
%TO.N,/A-D Converter/CELL3*%
X111080000Y-47600000D03*
%TO.P,J11,4,Pin_4*%
%TO.N,/A-D Converter/VT*%
X113620000Y-47600000D03*
%TD*%
D14*
%TO.P,J3,1,Pin_1*%
%TO.N,/3.3V*%
X118925000Y-57075000D03*
D15*
%TO.P,J3,2,Pin_2*%
%TO.N,/5V*%
X121465000Y-57075000D03*
%TO.P,J3,3,Pin_3*%
%TO.N,/SDA*%
X118925000Y-59615000D03*
%TO.P,J3,4,Pin_4*%
%TO.N,/5V*%
X121465000Y-59615000D03*
%TO.P,J3,5,Pin_5*%
%TO.N,/SCL*%
X118925000Y-62155000D03*
%TO.P,J3,6,Pin_6*%
%TO.N,GND*%
X121465000Y-62155000D03*
%TO.P,J3,7,Pin_7*%
%TO.N,unconnected-(J3-Pad7)*%
X118925000Y-64695000D03*
%TO.P,J3,8,Pin_8*%
%TO.N,unconnected-(J3-Pad8)*%
X121465000Y-64695000D03*
%TO.P,J3,9,Pin_9*%
%TO.N,unconnected-(J3-Pad9)*%
X118925000Y-67235000D03*
%TO.P,J3,10,Pin_10*%
%TO.N,unconnected-(J3-Pad10)*%
X121465000Y-67235000D03*
%TO.P,J3,11,Pin_11*%
%TO.N,unconnected-(J3-Pad11)*%
X118925000Y-69775000D03*
%TO.P,J3,12,Pin_12*%
%TO.N,unconnected-(J3-Pad12)*%
X121465000Y-69775000D03*
%TO.P,J3,13,Pin_13*%
%TO.N,unconnected-(J3-Pad13)*%
X118925000Y-72315000D03*
%TO.P,J3,14,Pin_14*%
%TO.N,unconnected-(J3-Pad14)*%
X121465000Y-72315000D03*
%TO.P,J3,15,Pin_15*%
%TO.N,unconnected-(J3-Pad15)*%
X118925000Y-74855000D03*
%TO.P,J3,16,Pin_16*%
%TO.N,unconnected-(J3-Pad16)*%
X121465000Y-74855000D03*
%TO.P,J3,17,Pin_17*%
%TO.N,unconnected-(J3-Pad17)*%
X118925000Y-77395000D03*
%TO.P,J3,18,Pin_18*%
%TO.N,unconnected-(J3-Pad18)*%
X121465000Y-77395000D03*
%TO.P,J3,19,Pin_19*%
%TO.N,/MOSI*%
X118925000Y-79935000D03*
%TO.P,J3,20,Pin_20*%
%TO.N,unconnected-(J3-Pad20)*%
X121465000Y-79935000D03*
%TO.P,J3,21,Pin_21*%
%TO.N,/MISO*%
X118925000Y-82475000D03*
%TO.P,J3,22,Pin_22*%
%TO.N,unconnected-(J3-Pad22)*%
X121465000Y-82475000D03*
%TO.P,J3,23,Pin_23*%
%TO.N,/SCLK*%
X118925000Y-85015000D03*
%TO.P,J3,24,Pin_24*%
%TO.N,/CS*%
X121465000Y-85015000D03*
%TO.P,J3,25,Pin_25*%
%TO.N,unconnected-(J3-Pad25)*%
X118925000Y-87555000D03*
%TO.P,J3,26,Pin_26*%
%TO.N,unconnected-(J3-Pad26)*%
X121465000Y-87555000D03*
%TO.P,J3,27,Pin_27*%
%TO.N,unconnected-(J3-Pad27)*%
X118925000Y-90095000D03*
%TO.P,J3,28,Pin_28*%
%TO.N,unconnected-(J3-Pad28)*%
X121465000Y-90095000D03*
%TO.P,J3,29,Pin_29*%
%TO.N,unconnected-(J3-Pad29)*%
X118925000Y-92635000D03*
%TO.P,J3,30,Pin_30*%
%TO.N,unconnected-(J3-Pad30)*%
X121465000Y-92635000D03*
%TO.P,J3,31,Pin_31*%
%TO.N,unconnected-(J3-Pad31)*%
X118925000Y-95175000D03*
%TO.P,J3,32,Pin_32*%
%TO.N,unconnected-(J3-Pad32)*%
X121465000Y-95175000D03*
%TO.P,J3,33,Pin_33*%
%TO.N,unconnected-(J3-Pad33)*%
X118925000Y-97715000D03*
%TO.P,J3,34,Pin_34*%
%TO.N,unconnected-(J3-Pad34)*%
X121465000Y-97715000D03*
%TO.P,J3,35,Pin_35*%
%TO.N,unconnected-(J3-Pad35)*%
X118925000Y-100255000D03*
%TO.P,J3,36,Pin_36*%
%TO.N,unconnected-(J3-Pad36)*%
X121465000Y-100255000D03*
%TO.P,J3,37,Pin_37*%
%TO.N,unconnected-(J3-Pad37)*%
X118925000Y-102795000D03*
%TO.P,J3,38,Pin_38*%
%TO.N,unconnected-(J3-Pad38)*%
X121465000Y-102795000D03*
%TO.P,J3,39,Pin_39*%
%TO.N,unconnected-(J3-Pad39)*%
X118925000Y-105335000D03*
%TO.P,J3,40,Pin_40*%
%TO.N,unconnected-(J3-Pad40)*%
X121465000Y-105335000D03*
%TD*%
D14*
%TO.P,J12,1,Pin_1*%
%TO.N,GND*%
X178500000Y-111375000D03*
D15*
%TO.P,J12,2,Pin_2*%
%TO.N,/CAN_H*%
X178500000Y-113915000D03*
%TO.P,J12,3,Pin_3*%
%TO.N,/CAN_L*%
X178500000Y-116455000D03*
%TD*%
D12*
%TO.P,J8,1,+*%
%TO.N,/VCC*%
X153700000Y-113488000D03*
%TO.P,J8,2,-*%
%TO.N,GND*%
X148700000Y-113488000D03*
D13*
%TO.P,J8,3*%
%TO.N,N/C*%
X145700000Y-123488000D03*
%TO.P,J8,4*%
X156700000Y-123488000D03*
%TD*%
D14*
%TO.P,J5,1,Pin_1*%
%TO.N,GND*%
X170600000Y-47900000D03*
D15*
%TO.P,J5,2,Pin_2*%
%TO.N,/CAN_H*%
X168060000Y-47900000D03*
%TO.P,J5,3,Pin_3*%
%TO.N,/CAN_L*%
X165520000Y-47900000D03*
%TD*%
D12*
%TO.P,J10,1,+*%
%TO.N,/VCC*%
X136400000Y-113388000D03*
%TO.P,J10,2,-*%
%TO.N,GND*%
X131400000Y-113388000D03*
D13*
%TO.P,J10,3*%
%TO.N,N/C*%
X128400000Y-123388000D03*
%TO.P,J10,4*%
X139400000Y-123388000D03*
%TD*%
D20*
%TO.P,U2,1,CH0*%
%TO.N,/A-D Converter/CELL1*%
X103255000Y-77745000D03*
%TO.P,U2,2,CH1*%
%TO.N,/A-D Converter/CELL2*%
X104525000Y-77745000D03*
%TO.P,U2,3,CH2*%
%TO.N,/A-D Converter/CELL3*%
X105795000Y-77745000D03*
%TO.P,U2,4,CH3*%
%TO.N,/A-D Converter/VT*%
X107065000Y-77745000D03*
%TO.P,U2,5,CH4*%
%TO.N,unconnected-(U2-Pad5)*%
X108335000Y-77745000D03*
%TO.P,U2,6,CH5*%
%TO.N,unconnected-(U2-Pad6)*%
X109605000Y-77745000D03*
%TO.P,U2,7,CH6*%
%TO.N,unconnected-(U2-Pad7)*%
X110875000Y-77745000D03*
%TO.P,U2,8,CH7*%
%TO.N,unconnected-(U2-Pad8)*%
X112145000Y-77745000D03*
%TO.P,U2,9,DGND*%
%TO.N,GND*%
X112145000Y-82655000D03*
%TO.P,U2,10,~{CS/SHDN}*%
%TO.N,/CS*%
X110875000Y-82655000D03*
%TO.P,U2,11,DIN*%
%TO.N,/MOSI*%
X109605000Y-82655000D03*
%TO.P,U2,12,DOUT*%
%TO.N,/MISO*%
X108335000Y-82655000D03*
%TO.P,U2,13,CLK*%
%TO.N,/SCLK*%
X107065000Y-82655000D03*
%TO.P,U2,14,AGND*%
%TO.N,GND*%
X105795000Y-82655000D03*
%TO.P,U2,15,VREF*%
%TO.N,/3.3V*%
X104525000Y-82655000D03*
%TO.P,U2,16,VDD*%
X103255000Y-82655000D03*
%TD*%
D21*
%TO.N,GND*%
X110000000Y-80300000D03*
%TO.N,/CS*%
X111750000Y-80750000D03*
%TD*%
D22*
%TO.N,/CAN_L*%
X144930000Y-76000000D02*
X144000000Y-76930000D01*
X179900000Y-115055000D02*
X178500000Y-116455000D01*
X144000000Y-76930000D02*
X144000000Y-84263604D01*
X144000000Y-84263604D02*
X172336396Y-112600000D01*
X172336396Y-112600000D02*
X179200000Y-112600000D01*
X179200000Y-112600000D02*
X179900000Y-113300000D01*
X179900000Y-113300000D02*
X179900000Y-115055000D01*
%TO.N,/CAN_H*%
X143545000Y-73160000D02*
X143545000Y-84445000D01*
X143545000Y-84445000D02*
X173015000Y-113915000D01*
X173015000Y-113915000D02*
X178500000Y-113915000D01*
%TO.N,/A-D Converter/CELL1*%
X106000000Y-47600000D02*
X103255000Y-50345000D01*
X103255000Y-50345000D02*
X103255000Y-77745000D01*
D23*
%TO.N,/VCC*%
X136400000Y-113388000D02*
X138712000Y-115700000D01*
X138712000Y-115700000D02*
X151488000Y-115700000D01*
X151488000Y-115700000D02*
X153700000Y-113488000D01*
D22*
%TO.N,/3.3V*%
X118925000Y-57075000D02*
X120300000Y-55700000D01*
X120300000Y-55700000D02*
X122200000Y-55700000D01*
X122200000Y-55700000D02*
X125200000Y-58700000D01*
X143372792Y-62300000D02*
X165250000Y-62300000D01*
X125200000Y-58700000D02*
X141172792Y-58700000D01*
X141172792Y-58700000D02*
X142000000Y-59527208D01*
X142000000Y-59527208D02*
X142000000Y-60927208D01*
X142000000Y-60927208D02*
X143372792Y-62300000D01*
D23*
%TO.N,/VCC*%
X137534250Y-62065750D02*
X138600000Y-62065750D01*
X135000000Y-64600000D02*
X137534250Y-62065750D01*
X135000000Y-111988000D02*
X135000000Y-64600000D01*
X136400000Y-113388000D02*
X135000000Y-111988000D01*
D22*
%TO.N,GND*%
X105795000Y-82655000D02*
X105795000Y-81405000D01*
X112145000Y-82655000D02*
X112800000Y-82000000D01*
X112000000Y-79900000D02*
X111800000Y-79900000D01*
X121465000Y-62155000D02*
X131310750Y-62155000D01*
X110400000Y-79900000D02*
X110000000Y-80300000D01*
X112800000Y-82000000D02*
X112800000Y-80700000D01*
X105795000Y-81405000D02*
X106900000Y-80300000D01*
X112800000Y-80700000D02*
X112000000Y-79900000D01*
X106900000Y-80300000D02*
X110000000Y-80300000D01*
X111800000Y-79900000D02*
X110400000Y-79900000D01*
X131310750Y-62155000D02*
X131400000Y-62065750D01*
%TO.N,/3.3V*%
X116800000Y-113150000D02*
X118725000Y-115075000D01*
X116700000Y-75800000D02*
X116700000Y-59300000D01*
X104525000Y-81875000D02*
X107100000Y-79300000D01*
X104525000Y-83070016D02*
X116800000Y-95345016D01*
X104525000Y-82655000D02*
X104525000Y-81875000D01*
X116800000Y-95345016D02*
X116800000Y-113150000D01*
X107100000Y-79300000D02*
X113200000Y-79300000D01*
X104525000Y-82655000D02*
X104525000Y-83070016D01*
X104525000Y-82655000D02*
X103255000Y-82655000D01*
X116700000Y-59300000D02*
X118925000Y-57075000D01*
X113200000Y-79300000D02*
X116700000Y-75800000D01*
%TO.N,/SCL*%
X141100000Y-59900000D02*
X140800000Y-59600000D01*
X122200000Y-60900000D02*
X120180000Y-60900000D01*
X164163604Y-64200000D02*
X163163604Y-63200000D01*
X143000000Y-63200000D02*
X141100000Y-61300000D01*
X123500000Y-59600000D02*
X122200000Y-60900000D01*
X140800000Y-59600000D02*
X123500000Y-59600000D01*
X120180000Y-60900000D02*
X118925000Y-62155000D01*
X163163604Y-63200000D02*
X143000000Y-63200000D01*
X170970000Y-64200000D02*
X164163604Y-64200000D01*
X141100000Y-61300000D02*
X141100000Y-59900000D01*
X172870000Y-62300000D02*
X170970000Y-64200000D01*
%TO.N,/SDA*%
X141550000Y-59713604D02*
X141550000Y-61113604D01*
X124100000Y-59150000D02*
X140986396Y-59150000D01*
X164300000Y-63700000D02*
X168900000Y-63700000D01*
X173910000Y-60800000D02*
X175410000Y-62300000D01*
X163350000Y-62750000D02*
X164300000Y-63700000D01*
X120240000Y-58300000D02*
X123250000Y-58300000D01*
X140986396Y-59150000D02*
X141550000Y-59713604D01*
X169100000Y-63500000D02*
X169100000Y-61600000D01*
X168900000Y-63700000D02*
X169100000Y-63500000D01*
X141550000Y-61113604D02*
X143186396Y-62750000D01*
X169900000Y-60800000D02*
X173910000Y-60800000D01*
X118925000Y-59615000D02*
X120240000Y-58300000D01*
X143186396Y-62750000D02*
X163350000Y-62750000D01*
X123250000Y-58300000D02*
X124100000Y-59150000D01*
X169100000Y-61600000D02*
X169900000Y-60800000D01*
%TO.N,/MOSI*%
X117065000Y-79935000D02*
X112750000Y-84250000D01*
X109605000Y-83355000D02*
X109605000Y-82655000D01*
X110500000Y-84250000D02*
X109605000Y-83355000D01*
X112750000Y-84250000D02*
X110500000Y-84250000D01*
X118925000Y-79935000D02*
X117065000Y-79935000D01*
%TO.N,/MISO*%
X108250000Y-84000000D02*
X108250000Y-82740000D01*
X118925000Y-82475000D02*
X115161396Y-82475000D01*
X112886396Y-84750000D02*
X109000000Y-84750000D01*
X109000000Y-84750000D02*
X108250000Y-84000000D01*
X115161396Y-82475000D02*
X112886396Y-84750000D01*
X108250000Y-82740000D02*
X108335000Y-82655000D01*
%TO.N,/CS*%
X110875000Y-81625000D02*
X110875000Y-82655000D01*
X111750000Y-80750000D02*
X110875000Y-81625000D01*
%TO.N,/SCLK*%
X118740000Y-85200000D02*
X118925000Y-85015000D01*
X107065000Y-83451396D02*
X108813604Y-85200000D01*
X108813604Y-85200000D02*
X118740000Y-85200000D01*
X107065000Y-82655000D02*
X107065000Y-83451396D01*
%TO.N,/CAN_L*%
X169855000Y-125100000D02*
X169455000Y-125100000D01*
X178500000Y-116455000D02*
X169855000Y-125100000D01*
%TO.N,/A-D Converter/CELL2*%
X104525000Y-77745000D02*
X104525000Y-51615000D01*
X104525000Y-51615000D02*
X108540000Y-47600000D01*
%TO.N,/A-D Converter/CELL3*%
X105795000Y-52885000D02*
X111080000Y-47600000D01*
X105795000Y-77745000D02*
X105795000Y-52885000D01*
%TO.N,/A-D Converter/VT*%
X107065000Y-54155000D02*
X113620000Y-47600000D01*
X107065000Y-77745000D02*
X107065000Y-54155000D01*
%TD*%
M02*
