%TF.GenerationSoftware,KiCad,Pcbnew,6.0.8-f2edbf62ab~116~ubuntu22.04.1*%
%TF.CreationDate,2022-11-03T19:19:17-04:00*%
%TF.ProjectId,MJBOTS-CubeSat,4d4a424f-5453-42d4-9375-62655361742e,rev?*%
%TF.SameCoordinates,Original*%
%TF.FileFunction,Legend,Top*%
%TF.FilePolarity,Positive*%
%FSLAX46Y46*%
G04 Gerber Fmt 4.6, Leading zero omitted, Abs format (unit mm)*
G04 Created by KiCad (PCBNEW 6.0.8-f2edbf62ab~116~ubuntu22.04.1) date 2022-11-03 19:19:17*
%MOMM*%
%LPD*%
G01*
G04 APERTURE LIST*
%ADD10C,0.150000*%
%ADD11C,0.254000*%
%ADD12C,0.120000*%
%ADD13C,0.100000*%
%ADD14C,0.127000*%
G04 APERTURE END LIST*
D10*
%TO.C,H7*%
X125838095Y-105652380D02*
X125838095Y-104652380D01*
X125838095Y-105128571D02*
X126409523Y-105128571D01*
X126409523Y-105652380D02*
X126409523Y-104652380D01*
X126790476Y-104652380D02*
X127457142Y-104652380D01*
X127028571Y-105652380D01*
%TO.C,H8*%
X156938095Y-105652380D02*
X156938095Y-104652380D01*
X156938095Y-105128571D02*
X157509523Y-105128571D01*
X157509523Y-105652380D02*
X157509523Y-104652380D01*
X158128571Y-105080952D02*
X158033333Y-105033333D01*
X157985714Y-104985714D01*
X157938095Y-104890476D01*
X157938095Y-104842857D01*
X157985714Y-104747619D01*
X158033333Y-104700000D01*
X158128571Y-104652380D01*
X158319047Y-104652380D01*
X158414285Y-104700000D01*
X158461904Y-104747619D01*
X158509523Y-104842857D01*
X158509523Y-104890476D01*
X158461904Y-104985714D01*
X158414285Y-105033333D01*
X158319047Y-105080952D01*
X158128571Y-105080952D01*
X158033333Y-105128571D01*
X157985714Y-105176190D01*
X157938095Y-105271428D01*
X157938095Y-105461904D01*
X157985714Y-105557142D01*
X158033333Y-105604761D01*
X158128571Y-105652380D01*
X158319047Y-105652380D01*
X158414285Y-105604761D01*
X158461904Y-105557142D01*
X158509523Y-105461904D01*
X158509523Y-105271428D01*
X158461904Y-105176190D01*
X158414285Y-105128571D01*
X158319047Y-105080952D01*
%TO.C,J4*%
X141826666Y-81342380D02*
X141826666Y-82056666D01*
X141779047Y-82199523D01*
X141683809Y-82294761D01*
X141540952Y-82342380D01*
X141445714Y-82342380D01*
X142731428Y-81675714D02*
X142731428Y-82342380D01*
X142493333Y-81294761D02*
X142255238Y-82009047D01*
X142874285Y-82009047D01*
D11*
%TO.C,J9*%
X152076666Y-52904523D02*
X152076666Y-53811666D01*
X152016190Y-53993095D01*
X151895238Y-54114047D01*
X151713809Y-54174523D01*
X151592857Y-54174523D01*
X152741904Y-54174523D02*
X152983809Y-54174523D01*
X153104761Y-54114047D01*
X153165238Y-54053571D01*
X153286190Y-53872142D01*
X153346666Y-53630238D01*
X153346666Y-53146428D01*
X153286190Y-53025476D01*
X153225714Y-52965000D01*
X153104761Y-52904523D01*
X152862857Y-52904523D01*
X152741904Y-52965000D01*
X152681428Y-53025476D01*
X152620952Y-53146428D01*
X152620952Y-53448809D01*
X152681428Y-53569761D01*
X152741904Y-53630238D01*
X152862857Y-53690714D01*
X153104761Y-53690714D01*
X153225714Y-53630238D01*
X153286190Y-53569761D01*
X153346666Y-53448809D01*
D10*
%TO.C,J1*%
X119661666Y-112197380D02*
X119661666Y-112911666D01*
X119614047Y-113054523D01*
X119518809Y-113149761D01*
X119375952Y-113197380D01*
X119280714Y-113197380D01*
X120661666Y-113197380D02*
X120090238Y-113197380D01*
X120375952Y-113197380D02*
X120375952Y-112197380D01*
X120280714Y-112340238D01*
X120185476Y-112435476D01*
X120090238Y-112483095D01*
%TO.C,J2*%
X162372380Y-62633333D02*
X163086666Y-62633333D01*
X163229523Y-62680952D01*
X163324761Y-62776190D01*
X163372380Y-62919047D01*
X163372380Y-63014285D01*
X162467619Y-62204761D02*
X162420000Y-62157142D01*
X162372380Y-62061904D01*
X162372380Y-61823809D01*
X162420000Y-61728571D01*
X162467619Y-61680952D01*
X162562857Y-61633333D01*
X162658095Y-61633333D01*
X162800952Y-61680952D01*
X163372380Y-62252380D01*
X163372380Y-61633333D01*
%TO.C,J7*%
X129437519Y-49480559D02*
X129437519Y-50195160D01*
X129389879Y-50338080D01*
X129294599Y-50433360D01*
X129151679Y-50481000D01*
X129056399Y-50481000D01*
X129818640Y-49480559D02*
X130485600Y-49480559D01*
X130056840Y-50481000D01*
%TO.C,U1*%
X168802380Y-87111904D02*
X169611904Y-87111904D01*
X169707142Y-87064285D01*
X169754761Y-87016666D01*
X169802380Y-86921428D01*
X169802380Y-86730952D01*
X169754761Y-86635714D01*
X169707142Y-86588095D01*
X169611904Y-86540476D01*
X168802380Y-86540476D01*
X169802380Y-85540476D02*
X169802380Y-86111904D01*
X169802380Y-85826190D02*
X168802380Y-85826190D01*
X168945238Y-85921428D01*
X169040476Y-86016666D01*
X169088095Y-86111904D01*
%TO.C,J6*%
X161497380Y-125433333D02*
X162211666Y-125433333D01*
X162354523Y-125480952D01*
X162449761Y-125576190D01*
X162497380Y-125719047D01*
X162497380Y-125814285D01*
X161497380Y-124528571D02*
X161497380Y-124719047D01*
X161545000Y-124814285D01*
X161592619Y-124861904D01*
X161735476Y-124957142D01*
X161925952Y-125004761D01*
X162306904Y-125004761D01*
X162402142Y-124957142D01*
X162449761Y-124909523D01*
X162497380Y-124814285D01*
X162497380Y-124623809D01*
X162449761Y-124528571D01*
X162402142Y-124480952D01*
X162306904Y-124433333D01*
X162068809Y-124433333D01*
X161973571Y-124480952D01*
X161925952Y-124528571D01*
X161878333Y-124623809D01*
X161878333Y-124814285D01*
X161925952Y-124909523D01*
X161973571Y-124957142D01*
X162068809Y-125004761D01*
%TO.C,J11*%
X103122380Y-48409523D02*
X103836666Y-48409523D01*
X103979523Y-48457142D01*
X104074761Y-48552380D01*
X104122380Y-48695238D01*
X104122380Y-48790476D01*
X104122380Y-47409523D02*
X104122380Y-47980952D01*
X104122380Y-47695238D02*
X103122380Y-47695238D01*
X103265238Y-47790476D01*
X103360476Y-47885714D01*
X103408095Y-47980952D01*
X104122380Y-46457142D02*
X104122380Y-47028571D01*
X104122380Y-46742857D02*
X103122380Y-46742857D01*
X103265238Y-46838095D01*
X103360476Y-46933333D01*
X103408095Y-47028571D01*
%TO.C,H8*%
X156938095Y-82552380D02*
X156938095Y-81552380D01*
X156938095Y-82028571D02*
X157509523Y-82028571D01*
X157509523Y-82552380D02*
X157509523Y-81552380D01*
X158128571Y-81980952D02*
X158033333Y-81933333D01*
X157985714Y-81885714D01*
X157938095Y-81790476D01*
X157938095Y-81742857D01*
X157985714Y-81647619D01*
X158033333Y-81600000D01*
X158128571Y-81552380D01*
X158319047Y-81552380D01*
X158414285Y-81600000D01*
X158461904Y-81647619D01*
X158509523Y-81742857D01*
X158509523Y-81790476D01*
X158461904Y-81885714D01*
X158414285Y-81933333D01*
X158319047Y-81980952D01*
X158128571Y-81980952D01*
X158033333Y-82028571D01*
X157985714Y-82076190D01*
X157938095Y-82171428D01*
X157938095Y-82361904D01*
X157985714Y-82457142D01*
X158033333Y-82504761D01*
X158128571Y-82552380D01*
X158319047Y-82552380D01*
X158414285Y-82504761D01*
X158461904Y-82457142D01*
X158509523Y-82361904D01*
X158509523Y-82171428D01*
X158461904Y-82076190D01*
X158414285Y-82028571D01*
X158319047Y-81980952D01*
%TO.C,J3*%
X124066666Y-55452380D02*
X124066666Y-56166666D01*
X124019047Y-56309523D01*
X123923809Y-56404761D01*
X123780952Y-56452380D01*
X123685714Y-56452380D01*
X124447619Y-55452380D02*
X125066666Y-55452380D01*
X124733333Y-55833333D01*
X124876190Y-55833333D01*
X124971428Y-55880952D01*
X125019047Y-55928571D01*
X125066666Y-56023809D01*
X125066666Y-56261904D01*
X125019047Y-56357142D01*
X124971428Y-56404761D01*
X124876190Y-56452380D01*
X124590476Y-56452380D01*
X124495238Y-56404761D01*
X124447619Y-56357142D01*
%TO.C,H7*%
X125838095Y-82552380D02*
X125838095Y-81552380D01*
X125838095Y-82028571D02*
X126409523Y-82028571D01*
X126409523Y-82552380D02*
X126409523Y-81552380D01*
X126790476Y-81552380D02*
X127457142Y-81552380D01*
X127028571Y-82552380D01*
%TO.C,H2*%
X178238095Y-53952380D02*
X178238095Y-52952380D01*
X178238095Y-53428571D02*
X178809523Y-53428571D01*
X178809523Y-53952380D02*
X178809523Y-52952380D01*
X179238095Y-53047619D02*
X179285714Y-53000000D01*
X179380952Y-52952380D01*
X179619047Y-52952380D01*
X179714285Y-53000000D01*
X179761904Y-53047619D01*
X179809523Y-53142857D01*
X179809523Y-53238095D01*
X179761904Y-53380952D01*
X179190476Y-53952380D01*
X179809523Y-53952380D01*
%TO.C,H3*%
X98138095Y-120952380D02*
X98138095Y-119952380D01*
X98138095Y-120428571D02*
X98709523Y-120428571D01*
X98709523Y-120952380D02*
X98709523Y-119952380D01*
X99090476Y-119952380D02*
X99709523Y-119952380D01*
X99376190Y-120333333D01*
X99519047Y-120333333D01*
X99614285Y-120380952D01*
X99661904Y-120428571D01*
X99709523Y-120523809D01*
X99709523Y-120761904D01*
X99661904Y-120857142D01*
X99614285Y-120904761D01*
X99519047Y-120952380D01*
X99233333Y-120952380D01*
X99138095Y-120904761D01*
X99090476Y-120857142D01*
%TO.C,J12*%
X177690476Y-108497380D02*
X177690476Y-109211666D01*
X177642857Y-109354523D01*
X177547619Y-109449761D01*
X177404761Y-109497380D01*
X177309523Y-109497380D01*
X178690476Y-109497380D02*
X178119047Y-109497380D01*
X178404761Y-109497380D02*
X178404761Y-108497380D01*
X178309523Y-108640238D01*
X178214285Y-108735476D01*
X178119047Y-108783095D01*
X179071428Y-108592619D02*
X179119047Y-108545000D01*
X179214285Y-108497380D01*
X179452380Y-108497380D01*
X179547619Y-108545000D01*
X179595238Y-108592619D01*
X179642857Y-108687857D01*
X179642857Y-108783095D01*
X179595238Y-108925952D01*
X179023809Y-109497380D01*
X179642857Y-109497380D01*
D11*
%TO.C,J8*%
X150776666Y-118704523D02*
X150776666Y-119611666D01*
X150716190Y-119793095D01*
X150595238Y-119914047D01*
X150413809Y-119974523D01*
X150292857Y-119974523D01*
X151562857Y-119248809D02*
X151441904Y-119188333D01*
X151381428Y-119127857D01*
X151320952Y-119006904D01*
X151320952Y-118946428D01*
X151381428Y-118825476D01*
X151441904Y-118765000D01*
X151562857Y-118704523D01*
X151804761Y-118704523D01*
X151925714Y-118765000D01*
X151986190Y-118825476D01*
X152046666Y-118946428D01*
X152046666Y-119006904D01*
X151986190Y-119127857D01*
X151925714Y-119188333D01*
X151804761Y-119248809D01*
X151562857Y-119248809D01*
X151441904Y-119309285D01*
X151381428Y-119369761D01*
X151320952Y-119490714D01*
X151320952Y-119732619D01*
X151381428Y-119853571D01*
X151441904Y-119914047D01*
X151562857Y-119974523D01*
X151804761Y-119974523D01*
X151925714Y-119914047D01*
X151986190Y-119853571D01*
X152046666Y-119732619D01*
X152046666Y-119490714D01*
X151986190Y-119369761D01*
X151925714Y-119309285D01*
X151804761Y-119248809D01*
D10*
%TO.C,J5*%
X172382380Y-48233333D02*
X173096666Y-48233333D01*
X173239523Y-48280952D01*
X173334761Y-48376190D01*
X173382380Y-48519047D01*
X173382380Y-48614285D01*
X172382380Y-47280952D02*
X172382380Y-47757142D01*
X172858571Y-47804761D01*
X172810952Y-47757142D01*
X172763333Y-47661904D01*
X172763333Y-47423809D01*
X172810952Y-47328571D01*
X172858571Y-47280952D01*
X172953809Y-47233333D01*
X173191904Y-47233333D01*
X173287142Y-47280952D01*
X173334761Y-47328571D01*
X173382380Y-47423809D01*
X173382380Y-47661904D01*
X173334761Y-47757142D01*
X173287142Y-47804761D01*
%TO.C,H1*%
X178138095Y-120952380D02*
X178138095Y-119952380D01*
X178138095Y-120428571D02*
X178709523Y-120428571D01*
X178709523Y-120952380D02*
X178709523Y-119952380D01*
X179709523Y-120952380D02*
X179138095Y-120952380D01*
X179423809Y-120952380D02*
X179423809Y-119952380D01*
X179328571Y-120095238D01*
X179233333Y-120190476D01*
X179138095Y-120238095D01*
%TO.C,H4*%
X98238095Y-53452380D02*
X98238095Y-52452380D01*
X98238095Y-52928571D02*
X98809523Y-52928571D01*
X98809523Y-53452380D02*
X98809523Y-52452380D01*
X99714285Y-52785714D02*
X99714285Y-53452380D01*
X99476190Y-52404761D02*
X99238095Y-53119047D01*
X99857142Y-53119047D01*
D11*
%TO.C,J10*%
X132871904Y-118604523D02*
X132871904Y-119511666D01*
X132811428Y-119693095D01*
X132690476Y-119814047D01*
X132509047Y-119874523D01*
X132388095Y-119874523D01*
X134141904Y-119874523D02*
X133416190Y-119874523D01*
X133779047Y-119874523D02*
X133779047Y-118604523D01*
X133658095Y-118785952D01*
X133537142Y-118906904D01*
X133416190Y-118967380D01*
X134928095Y-118604523D02*
X135049047Y-118604523D01*
X135170000Y-118665000D01*
X135230476Y-118725476D01*
X135290952Y-118846428D01*
X135351428Y-119088333D01*
X135351428Y-119390714D01*
X135290952Y-119632619D01*
X135230476Y-119753571D01*
X135170000Y-119814047D01*
X135049047Y-119874523D01*
X134928095Y-119874523D01*
X134807142Y-119814047D01*
X134746666Y-119753571D01*
X134686190Y-119632619D01*
X134625714Y-119390714D01*
X134625714Y-119088333D01*
X134686190Y-118846428D01*
X134746666Y-118725476D01*
X134807142Y-118665000D01*
X134928095Y-118604523D01*
D10*
%TO.C,H6*%
X119238095Y-49202380D02*
X119238095Y-48202380D01*
X119238095Y-48678571D02*
X119809523Y-48678571D01*
X119809523Y-49202380D02*
X119809523Y-48202380D01*
X120714285Y-48202380D02*
X120523809Y-48202380D01*
X120428571Y-48250000D01*
X120380952Y-48297619D01*
X120285714Y-48440476D01*
X120238095Y-48630952D01*
X120238095Y-49011904D01*
X120285714Y-49107142D01*
X120333333Y-49154761D01*
X120428571Y-49202380D01*
X120619047Y-49202380D01*
X120714285Y-49154761D01*
X120761904Y-49107142D01*
X120809523Y-49011904D01*
X120809523Y-48773809D01*
X120761904Y-48678571D01*
X120714285Y-48630952D01*
X120619047Y-48583333D01*
X120428571Y-48583333D01*
X120333333Y-48630952D01*
X120285714Y-48678571D01*
X120238095Y-48773809D01*
D12*
%TO.C,J4*%
X147700000Y-81351325D02*
X147950000Y-81784338D01*
X127735000Y-68270000D02*
X156585000Y-68270000D01*
X147950000Y-81784338D02*
X147450000Y-81784338D01*
X134293530Y-76841744D02*
X135192798Y-71741744D01*
X147450000Y-81784338D02*
X147700000Y-81351325D01*
X157645000Y-69330000D02*
X157645000Y-79830000D01*
X147492421Y-70370000D02*
X136827579Y-70370000D01*
X148391689Y-78790000D02*
X135928311Y-78790000D01*
X126675000Y-79830000D02*
X126675000Y-69330000D01*
X150026470Y-76841744D02*
X149127202Y-71741744D01*
X156585000Y-80890000D02*
X127735000Y-80890000D01*
X149127202Y-71741744D02*
G75*
G03*
X147492421Y-70370000I-1634783J-288259D01*
G01*
X126675000Y-79830000D02*
G75*
G03*
X127735000Y-80890000I1060000J0D01*
G01*
X148391689Y-78790000D02*
G75*
G03*
X150026470Y-76841744I1J1659999D01*
G01*
X127735000Y-68270000D02*
G75*
G03*
X126675000Y-69330000I0J-1060000D01*
G01*
X134293519Y-76841742D02*
G75*
G03*
X135928311Y-78790000I1634781J-288258D01*
G01*
X156585000Y-80890000D02*
G75*
G03*
X157645000Y-79830000I-1J1060001D01*
G01*
X157645000Y-69330000D02*
G75*
G03*
X156585000Y-68270000I-1060001J-1D01*
G01*
X136827579Y-70369999D02*
G75*
G03*
X135192798Y-71741744I1J-1660001D01*
G01*
D13*
%TO.C,J9*%
X147550000Y-46413000D02*
X157450000Y-46413000D01*
X157450000Y-46413000D02*
X157450000Y-48363000D01*
X147550000Y-60362000D02*
X148500000Y-60362000D01*
X147550000Y-50863000D02*
X147550000Y-60362000D01*
X147550000Y-48363000D02*
X147550000Y-46413000D01*
X157450000Y-60362000D02*
X157450000Y-50863000D01*
X156500000Y-60362000D02*
X157450000Y-60362000D01*
D12*
%TO.C,J1*%
X117395000Y-115075000D02*
X117395000Y-113745000D01*
X119995000Y-113745000D02*
X122595000Y-113745000D01*
X117395000Y-116345000D02*
X117395000Y-121485000D01*
X117395000Y-113745000D02*
X118725000Y-113745000D01*
X119995000Y-116345000D02*
X119995000Y-113745000D01*
X122595000Y-113745000D02*
X122595000Y-121485000D01*
X117395000Y-116345000D02*
X119995000Y-116345000D01*
X117395000Y-121485000D02*
X122595000Y-121485000D01*
%TO.C,J2*%
X166520000Y-60970000D02*
X179280000Y-60970000D01*
X165250000Y-63630000D02*
X163920000Y-63630000D01*
X166520000Y-63630000D02*
X179280000Y-63630000D01*
X179280000Y-63630000D02*
X179280000Y-60970000D01*
X163920000Y-63630000D02*
X163920000Y-62300000D01*
X166520000Y-63630000D02*
X166520000Y-60970000D01*
D14*
%TO.C,J7*%
X138810000Y-66225750D02*
X138810000Y-67495750D01*
X142750000Y-63915750D02*
X140778000Y-63915750D01*
X142750000Y-63915750D02*
X142750000Y-45715750D01*
X127250000Y-45715750D02*
X127250000Y-63915750D01*
X142750000Y-45715750D02*
X127250000Y-45715750D01*
X140080000Y-66225750D02*
X138810000Y-66225750D01*
X133578000Y-63915750D02*
X136422000Y-63915750D01*
X127250000Y-63915750D02*
X129222000Y-63915750D01*
X137540000Y-66225750D02*
X138810000Y-66225750D01*
X138810000Y-66225750D02*
X138810000Y-64955750D01*
D12*
%TO.C,U1*%
X161350000Y-108350000D02*
X181350000Y-108350000D01*
X181350000Y-108350000D02*
X181350000Y-65350000D01*
X181350000Y-65350000D02*
X161350000Y-65350000D01*
X161350000Y-65350000D02*
X161350000Y-108350000D01*
%TO.C,J6*%
X165645000Y-123770000D02*
X170785000Y-123770000D01*
X165645000Y-126430000D02*
X165645000Y-123770000D01*
X163045000Y-126430000D02*
X163045000Y-125100000D01*
X170785000Y-126430000D02*
X170785000Y-123770000D01*
X164375000Y-126430000D02*
X163045000Y-126430000D01*
X165645000Y-126430000D02*
X170785000Y-126430000D01*
%TO.C,J11*%
X104670000Y-48930000D02*
X104670000Y-47600000D01*
X107270000Y-46270000D02*
X114950000Y-46270000D01*
X107270000Y-48930000D02*
X114950000Y-48930000D01*
X107270000Y-48930000D02*
X107270000Y-46270000D01*
X106000000Y-48930000D02*
X104670000Y-48930000D01*
X114950000Y-48930000D02*
X114950000Y-46270000D01*
%TO.C,J3*%
X117595000Y-106665000D02*
X122795000Y-106665000D01*
X117595000Y-58345000D02*
X120195000Y-58345000D01*
X122795000Y-55745000D02*
X122795000Y-106665000D01*
X117595000Y-55745000D02*
X118925000Y-55745000D01*
X117595000Y-57075000D02*
X117595000Y-55745000D01*
X117595000Y-58345000D02*
X117595000Y-106665000D01*
X120195000Y-55745000D02*
X122795000Y-55745000D01*
X120195000Y-58345000D02*
X120195000Y-55745000D01*
%TO.C,J12*%
X177170000Y-110045000D02*
X178500000Y-110045000D01*
X177170000Y-112645000D02*
X177170000Y-117785000D01*
X179830000Y-112645000D02*
X179830000Y-117785000D01*
X177170000Y-112645000D02*
X179830000Y-112645000D01*
X177170000Y-111375000D02*
X177170000Y-110045000D01*
X177170000Y-117785000D02*
X179830000Y-117785000D01*
D13*
%TO.C,J8*%
X156150000Y-122137000D02*
X156150000Y-112638000D01*
X146250000Y-112638000D02*
X146250000Y-122137000D01*
X146250000Y-126587000D02*
X146250000Y-124637000D01*
X156150000Y-112638000D02*
X155200000Y-112638000D01*
X147200000Y-112638000D02*
X146250000Y-112638000D01*
X156150000Y-124637000D02*
X156150000Y-126587000D01*
X156150000Y-126587000D02*
X146250000Y-126587000D01*
D12*
%TO.C,J5*%
X169330000Y-49230000D02*
X164190000Y-49230000D01*
X171930000Y-46570000D02*
X171930000Y-47900000D01*
X169330000Y-46570000D02*
X164190000Y-46570000D01*
X169330000Y-46570000D02*
X169330000Y-49230000D01*
X170600000Y-46570000D02*
X171930000Y-46570000D01*
X164190000Y-46570000D02*
X164190000Y-49230000D01*
D13*
%TO.C,J10*%
X138850000Y-126487000D02*
X128950000Y-126487000D01*
X128950000Y-112538000D02*
X128950000Y-122037000D01*
X138850000Y-124537000D02*
X138850000Y-126487000D01*
X138850000Y-112538000D02*
X137900000Y-112538000D01*
X129900000Y-112538000D02*
X128950000Y-112538000D01*
X128950000Y-126487000D02*
X128950000Y-124537000D01*
X138850000Y-122037000D02*
X138850000Y-112538000D01*
%TD*%
M02*
