M48
; DRILL file {KiCad 6.0.8-f2edbf62ab~116~ubuntu22.04.1} date Thu 03 Nov 2022 07:19:15 PM EDT
; FORMAT={-:-/ absolute / inch / decimal}
; #@! TF.CreationDate,2022-11-03T19:19:15-04:00
; #@! TF.GenerationSoftware,Kicad,Pcbnew,6.0.8-f2edbf62ab~116~ubuntu22.04.1
; #@! TF.FileFunction,Plated,1,2,PTH
FMAT,2
INCH
; #@! TA.AperFunction,Plated,PTH,ViaDrill
T1C0.0157
; #@! TA.AperFunction,Plated,PTH,ComponentDrill
T2C0.0236
; #@! TA.AperFunction,Plated,PTH,ComponentDrill
T3C0.0394
; #@! TA.AperFunction,Plated,PTH,ComponentDrill
T4C0.0669
; #@! TA.AperFunction,Plated,PTH,ComponentDrill
T5C0.1063
%
G90
G05
T1
X4.3307Y-3.1614
X4.3996Y-3.1791
T3
X4.1732Y-1.874
X4.2732Y-1.874
X4.3732Y-1.874
X4.4732Y-1.874
X4.6742Y-4.5305
X4.6742Y-4.6305
X4.6742Y-4.7305
X4.6821Y-2.247
X4.6821Y-2.347
X4.6821Y-2.447
X4.6821Y-2.547
X4.6821Y-2.647
X4.6821Y-2.747
X4.6821Y-2.847
X4.6821Y-2.947
X4.6821Y-3.047
X4.6821Y-3.147
X4.6821Y-3.247
X4.6821Y-3.347
X4.6821Y-3.447
X4.6821Y-3.547
X4.6821Y-3.647
X4.6821Y-3.747
X4.6821Y-3.847
X4.6821Y-3.947
X4.6821Y-4.047
X4.6821Y-4.147
X4.7742Y-4.5305
X4.7742Y-4.6305
X4.7742Y-4.7305
X4.7821Y-2.247
X4.7821Y-2.347
X4.7821Y-2.447
X4.7821Y-2.547
X4.7821Y-2.647
X4.7821Y-2.747
X4.7821Y-2.847
X4.7821Y-2.947
X4.7821Y-3.047
X4.7821Y-3.147
X4.7821Y-3.247
X4.7821Y-3.347
X4.7821Y-3.447
X4.7821Y-3.547
X4.7821Y-3.647
X4.7821Y-3.747
X4.7821Y-3.847
X4.7821Y-3.947
X4.7821Y-4.047
X4.7821Y-4.147
X5.0551Y-4.8578
X5.3787Y-2.9921
X5.4333Y-2.8803
X5.4878Y-2.9921
X5.4882Y-4.8578
X5.5423Y-2.8803
X5.5969Y-2.9921
X5.6514Y-2.8803
X5.7059Y-2.9921
X5.7362Y-4.8617
X5.7604Y-2.8803
X5.7874Y-1.9493
X5.815Y-2.9921
X6.1693Y-4.8617
X6.2205Y-1.9493
X6.4017Y-2.6502
X6.4075Y-4.2028
X6.4715Y-4.9252
X6.5059Y-2.4528
X6.5165Y-1.8858
X6.5715Y-4.9252
X6.6059Y-2.4528
X6.6165Y-1.8858
X6.6715Y-4.9252
X6.7059Y-2.4528
X6.7165Y-1.8858
X6.8059Y-2.4528
X6.9059Y-2.4528
X7.0059Y-2.4528
X7.0276Y-4.3848
X7.0276Y-4.4848
X7.0276Y-4.5848
X7.0768Y-2.6398
X7.0807Y-4.1969
T4
X5.1732Y-4.4641
X5.3701Y-4.4641
X5.8543Y-4.468
X5.9055Y-2.343
X6.0512Y-4.468
X6.1024Y-2.343
T5
X5.1732Y-2.4435
X5.4567Y-2.4435
T2
G00X5.0492Y-2.1857
M15
G01X5.0492Y-2.229
M16
G05
G00X5.5807Y-2.1857
M15
G01X5.5807Y-2.229
M16
G05
T0
M30
