%TF.GenerationSoftware,KiCad,Pcbnew,6.0.8-f2edbf62ab~116~ubuntu22.04.1*%
%TF.CreationDate,2022-11-03T19:19:17-04:00*%
%TF.ProjectId,MJBOTS-CubeSat,4d4a424f-5453-42d4-9375-62655361742e,rev?*%
%TF.SameCoordinates,Original*%
%TF.FileFunction,Soldermask,Top*%
%TF.FilePolarity,Negative*%
%FSLAX46Y46*%
G04 Gerber Fmt 4.6, Leading zero omitted, Abs format (unit mm)*
G04 Created by KiCad (PCBNEW 6.0.8-f2edbf62ab~116~ubuntu22.04.1) date 2022-11-03 19:19:17*
%MOMM*%
%LPD*%
G01*
G04 APERTURE LIST*
%ADD10C,2.500000*%
%ADD11R,1.600000X1.600000*%
%ADD12C,1.600000*%
%ADD13C,2.550000*%
%ADD14C,1.500000*%
%ADD15R,1.700000X1.700000*%
%ADD16O,1.700000X1.700000*%
%ADD17R,3.716000X3.716000*%
%ADD18C,3.716000*%
%ADD19O,1.200000X2.400000*%
%ADD20R,2.000000X2.000000*%
G04 APERTURE END LIST*
D10*
%TO.C,H7*%
X129700000Y-107700000D03*
%TD*%
%TO.C,H8*%
X154700000Y-107700000D03*
%TD*%
D11*
%TO.C,J4*%
X147700000Y-76000000D03*
D12*
X144930000Y-76000000D03*
X142160000Y-76000000D03*
X139390000Y-76000000D03*
X136620000Y-76000000D03*
X146315000Y-73160000D03*
X143545000Y-73160000D03*
X140775000Y-73160000D03*
X138005000Y-73160000D03*
%TD*%
D13*
%TO.C,J9*%
X150000000Y-59512000D03*
X155000000Y-59512000D03*
D14*
X158000000Y-49512000D03*
X147000000Y-49512000D03*
%TD*%
D15*
%TO.C,J1*%
X118725000Y-115075000D03*
D16*
X121265000Y-115075000D03*
X118725000Y-117615000D03*
X121265000Y-117615000D03*
X118725000Y-120155000D03*
X121265000Y-120155000D03*
%TD*%
D15*
%TO.C,J2*%
X165250000Y-62300000D03*
D16*
X167790000Y-62300000D03*
X170330000Y-62300000D03*
X172870000Y-62300000D03*
X175410000Y-62300000D03*
X177950000Y-62300000D03*
%TD*%
D17*
%TO.C,J7*%
X138600000Y-62065750D03*
D18*
X131400000Y-62065750D03*
D19*
X141750000Y-56065750D03*
X128250000Y-56065750D03*
%TD*%
D20*
%TO.C,U1*%
X162750000Y-106750000D03*
X179850000Y-106600000D03*
X162602000Y-67314000D03*
X179750000Y-67050000D03*
%TD*%
D15*
%TO.C,J6*%
X164375000Y-125100000D03*
D16*
X166915000Y-125100000D03*
X169455000Y-125100000D03*
%TD*%
D15*
%TO.C,J11*%
X106000000Y-47600000D03*
D16*
X108540000Y-47600000D03*
X111080000Y-47600000D03*
X113620000Y-47600000D03*
%TD*%
D10*
%TO.C,H8*%
X154700000Y-84600000D03*
%TD*%
D15*
%TO.C,J3*%
X118925000Y-57075000D03*
D16*
X121465000Y-57075000D03*
X118925000Y-59615000D03*
X121465000Y-59615000D03*
X118925000Y-62155000D03*
X121465000Y-62155000D03*
X118925000Y-64695000D03*
X121465000Y-64695000D03*
X118925000Y-67235000D03*
X121465000Y-67235000D03*
X118925000Y-69775000D03*
X121465000Y-69775000D03*
X118925000Y-72315000D03*
X121465000Y-72315000D03*
X118925000Y-74855000D03*
X121465000Y-74855000D03*
X118925000Y-77395000D03*
X121465000Y-77395000D03*
X118925000Y-79935000D03*
X121465000Y-79935000D03*
X118925000Y-82475000D03*
X121465000Y-82475000D03*
X118925000Y-85015000D03*
X121465000Y-85015000D03*
X118925000Y-87555000D03*
X121465000Y-87555000D03*
X118925000Y-90095000D03*
X121465000Y-90095000D03*
X118925000Y-92635000D03*
X121465000Y-92635000D03*
X118925000Y-95175000D03*
X121465000Y-95175000D03*
X118925000Y-97715000D03*
X121465000Y-97715000D03*
X118925000Y-100255000D03*
X121465000Y-100255000D03*
X118925000Y-102795000D03*
X121465000Y-102795000D03*
X118925000Y-105335000D03*
X121465000Y-105335000D03*
%TD*%
D10*
%TO.C,H7*%
X129700000Y-84600000D03*
%TD*%
%TO.C,H2*%
X179000000Y-49000000D03*
%TD*%
%TO.C,H3*%
X98900000Y-124000000D03*
%TD*%
D15*
%TO.C,J12*%
X178500000Y-111375000D03*
D16*
X178500000Y-113915000D03*
X178500000Y-116455000D03*
%TD*%
D13*
%TO.C,J8*%
X153700000Y-113488000D03*
X148700000Y-113488000D03*
D14*
X145700000Y-123488000D03*
X156700000Y-123488000D03*
%TD*%
D15*
%TO.C,J5*%
X170600000Y-47900000D03*
D16*
X168060000Y-47900000D03*
X165520000Y-47900000D03*
%TD*%
D10*
%TO.C,H1*%
X178900000Y-124000000D03*
%TD*%
%TO.C,H4*%
X99000000Y-49000000D03*
%TD*%
D13*
%TO.C,J10*%
X136400000Y-113388000D03*
X131400000Y-113388000D03*
D14*
X128400000Y-123388000D03*
X139400000Y-123388000D03*
%TD*%
D10*
%TO.C,H6*%
X120000000Y-52250000D03*
%TD*%
M02*
