%TF.GenerationSoftware,KiCad,Pcbnew,6.0.8-f2edbf62ab~116~ubuntu22.04.1*%
%TF.CreationDate,2022-11-20T23:03:40-05:00*%
%TF.ProjectId,Pi_HAT_V3,50695f48-4154-45f5-9633-2e6b69636164,rev?*%
%TF.SameCoordinates,Original*%
%TF.FileFunction,Legend,Top*%
%TF.FilePolarity,Positive*%
%FSLAX46Y46*%
G04 Gerber Fmt 4.6, Leading zero omitted, Abs format (unit mm)*
G04 Created by KiCad (PCBNEW 6.0.8-f2edbf62ab~116~ubuntu22.04.1) date 2022-11-20 23:03:40*
%MOMM*%
%LPD*%
G01*
G04 APERTURE LIST*
%ADD10C,0.150000*%
%ADD11C,0.100000*%
%ADD12C,0.250000*%
%ADD13C,0.127000*%
%ADD14C,0.010000*%
%ADD15C,0.120000*%
G04 APERTURE END LIST*
D10*
X139654761Y-120023809D02*
X137654761Y-120023809D01*
X139083333Y-119357142D01*
X137654761Y-118690476D01*
X139654761Y-118690476D01*
X139654761Y-117738095D02*
X137654761Y-117738095D01*
X137654761Y-116976190D01*
X137750000Y-116785714D01*
X137845238Y-116690476D01*
X138035714Y-116595238D01*
X138321428Y-116595238D01*
X138511904Y-116690476D01*
X138607142Y-116785714D01*
X138702380Y-116976190D01*
X138702380Y-117738095D01*
X137654761Y-115738095D02*
X139273809Y-115738095D01*
X139464285Y-115642857D01*
X139559523Y-115547619D01*
X139654761Y-115357142D01*
X139654761Y-114976190D01*
X139559523Y-114785714D01*
X139464285Y-114690476D01*
X139273809Y-114595238D01*
X137654761Y-114595238D01*
X137654761Y-112785714D02*
X137654761Y-113166666D01*
X137750000Y-113357142D01*
X137845238Y-113452380D01*
X138130952Y-113642857D01*
X138511904Y-113738095D01*
X139273809Y-113738095D01*
X139464285Y-113642857D01*
X139559523Y-113547619D01*
X139654761Y-113357142D01*
X139654761Y-112976190D01*
X139559523Y-112785714D01*
X139464285Y-112690476D01*
X139273809Y-112595238D01*
X138797619Y-112595238D01*
X138607142Y-112690476D01*
X138511904Y-112785714D01*
X138416666Y-112976190D01*
X138416666Y-113357142D01*
X138511904Y-113547619D01*
X138607142Y-113642857D01*
X138797619Y-113738095D01*
X137654761Y-111357142D02*
X137654761Y-111166666D01*
X137750000Y-110976190D01*
X137845238Y-110880952D01*
X138035714Y-110785714D01*
X138416666Y-110690476D01*
X138892857Y-110690476D01*
X139273809Y-110785714D01*
X139464285Y-110880952D01*
X139559523Y-110976190D01*
X139654761Y-111166666D01*
X139654761Y-111357142D01*
X139559523Y-111547619D01*
X139464285Y-111642857D01*
X139273809Y-111738095D01*
X138892857Y-111833333D01*
X138416666Y-111833333D01*
X138035714Y-111738095D01*
X137845238Y-111642857D01*
X137750000Y-111547619D01*
X137654761Y-111357142D01*
X137654761Y-108880952D02*
X137654761Y-109833333D01*
X138607142Y-109928571D01*
X138511904Y-109833333D01*
X138416666Y-109642857D01*
X138416666Y-109166666D01*
X138511904Y-108976190D01*
X138607142Y-108880952D01*
X138797619Y-108785714D01*
X139273809Y-108785714D01*
X139464285Y-108880952D01*
X139559523Y-108976190D01*
X139654761Y-109166666D01*
X139654761Y-109642857D01*
X139559523Y-109833333D01*
X139464285Y-109928571D01*
X137654761Y-107547619D02*
X137654761Y-107357142D01*
X137750000Y-107166666D01*
X137845238Y-107071428D01*
X138035714Y-106976190D01*
X138416666Y-106880952D01*
X138892857Y-106880952D01*
X139273809Y-106976190D01*
X139464285Y-107071428D01*
X139559523Y-107166666D01*
X139654761Y-107357142D01*
X139654761Y-107547619D01*
X139559523Y-107738095D01*
X139464285Y-107833333D01*
X139273809Y-107928571D01*
X138892857Y-108023809D01*
X138416666Y-108023809D01*
X138035714Y-107928571D01*
X137845238Y-107833333D01*
X137750000Y-107738095D01*
X137654761Y-107547619D01*
D11*
X136561904Y-72676190D02*
X136871428Y-72676190D01*
X136704761Y-72866666D01*
X136776190Y-72866666D01*
X136823809Y-72890476D01*
X136847619Y-72914285D01*
X136871428Y-72961904D01*
X136871428Y-73080952D01*
X136847619Y-73128571D01*
X136823809Y-73152380D01*
X136776190Y-73176190D01*
X136633333Y-73176190D01*
X136585714Y-73152380D01*
X136561904Y-73128571D01*
X137085714Y-73128571D02*
X137109523Y-73152380D01*
X137085714Y-73176190D01*
X137061904Y-73152380D01*
X137085714Y-73128571D01*
X137085714Y-73176190D01*
X137276190Y-72676190D02*
X137585714Y-72676190D01*
X137419047Y-72866666D01*
X137490476Y-72866666D01*
X137538095Y-72890476D01*
X137561904Y-72914285D01*
X137585714Y-72961904D01*
X137585714Y-73080952D01*
X137561904Y-73128571D01*
X137538095Y-73152380D01*
X137490476Y-73176190D01*
X137347619Y-73176190D01*
X137300000Y-73152380D01*
X137276190Y-73128571D01*
X137728571Y-72676190D02*
X137895238Y-73176190D01*
X138061904Y-72676190D01*
X137404761Y-65226190D02*
X137166666Y-65226190D01*
X137142857Y-65464285D01*
X137166666Y-65440476D01*
X137214285Y-65416666D01*
X137333333Y-65416666D01*
X137380952Y-65440476D01*
X137404761Y-65464285D01*
X137428571Y-65511904D01*
X137428571Y-65630952D01*
X137404761Y-65678571D01*
X137380952Y-65702380D01*
X137333333Y-65726190D01*
X137214285Y-65726190D01*
X137166666Y-65702380D01*
X137142857Y-65678571D01*
X137571428Y-65226190D02*
X137738095Y-65726190D01*
X137904761Y-65226190D01*
X163352380Y-104195238D02*
X163376190Y-104123809D01*
X163376190Y-104004761D01*
X163352380Y-103957142D01*
X163328571Y-103933333D01*
X163280952Y-103909523D01*
X163233333Y-103909523D01*
X163185714Y-103933333D01*
X163161904Y-103957142D01*
X163138095Y-104004761D01*
X163114285Y-104100000D01*
X163090476Y-104147619D01*
X163066666Y-104171428D01*
X163019047Y-104195238D01*
X162971428Y-104195238D01*
X162923809Y-104171428D01*
X162900000Y-104147619D01*
X162876190Y-104100000D01*
X162876190Y-103980952D01*
X162900000Y-103909523D01*
X163328571Y-103409523D02*
X163352380Y-103433333D01*
X163376190Y-103504761D01*
X163376190Y-103552380D01*
X163352380Y-103623809D01*
X163304761Y-103671428D01*
X163257142Y-103695238D01*
X163161904Y-103719047D01*
X163090476Y-103719047D01*
X162995238Y-103695238D01*
X162947619Y-103671428D01*
X162900000Y-103623809D01*
X162876190Y-103552380D01*
X162876190Y-103504761D01*
X162900000Y-103433333D01*
X162923809Y-103409523D01*
X163376190Y-102957142D02*
X163376190Y-103195238D01*
X162876190Y-103195238D01*
X93900000Y-97769047D02*
X93923809Y-97721428D01*
X93923809Y-97650000D01*
X93900000Y-97578571D01*
X93852380Y-97530952D01*
X93804761Y-97507142D01*
X93709523Y-97483333D01*
X93638095Y-97483333D01*
X93542857Y-97507142D01*
X93495238Y-97530952D01*
X93447619Y-97578571D01*
X93423809Y-97650000D01*
X93423809Y-97697619D01*
X93447619Y-97769047D01*
X93471428Y-97792857D01*
X93638095Y-97792857D01*
X93638095Y-97697619D01*
X93423809Y-98007142D02*
X93923809Y-98007142D01*
X93423809Y-98292857D01*
X93923809Y-98292857D01*
X93423809Y-98530952D02*
X93923809Y-98530952D01*
X93923809Y-98650000D01*
X93900000Y-98721428D01*
X93852380Y-98769047D01*
X93804761Y-98792857D01*
X93709523Y-98816666D01*
X93638095Y-98816666D01*
X93542857Y-98792857D01*
X93495238Y-98769047D01*
X93447619Y-98721428D01*
X93423809Y-98650000D01*
X93423809Y-98530952D01*
X163252380Y-101707142D02*
X163276190Y-101635714D01*
X163276190Y-101516666D01*
X163252380Y-101469047D01*
X163228571Y-101445238D01*
X163180952Y-101421428D01*
X163133333Y-101421428D01*
X163085714Y-101445238D01*
X163061904Y-101469047D01*
X163038095Y-101516666D01*
X163014285Y-101611904D01*
X162990476Y-101659523D01*
X162966666Y-101683333D01*
X162919047Y-101707142D01*
X162871428Y-101707142D01*
X162823809Y-101683333D01*
X162800000Y-101659523D01*
X162776190Y-101611904D01*
X162776190Y-101492857D01*
X162800000Y-101421428D01*
X163276190Y-101207142D02*
X162776190Y-101207142D01*
X162776190Y-101088095D01*
X162800000Y-101016666D01*
X162847619Y-100969047D01*
X162895238Y-100945238D01*
X162990476Y-100921428D01*
X163061904Y-100921428D01*
X163157142Y-100945238D01*
X163204761Y-100969047D01*
X163252380Y-101016666D01*
X163276190Y-101088095D01*
X163276190Y-101207142D01*
X163133333Y-100730952D02*
X163133333Y-100492857D01*
X163276190Y-100778571D02*
X162776190Y-100611904D01*
X163276190Y-100445238D01*
X93423809Y-95440476D02*
X93423809Y-95154761D01*
X93423809Y-95297619D02*
X93923809Y-95297619D01*
X93852380Y-95250000D01*
X93804761Y-95202380D01*
X93780952Y-95154761D01*
X93876190Y-95630952D02*
X93900000Y-95654761D01*
X93923809Y-95702380D01*
X93923809Y-95821428D01*
X93900000Y-95869047D01*
X93876190Y-95892857D01*
X93828571Y-95916666D01*
X93780952Y-95916666D01*
X93709523Y-95892857D01*
X93423809Y-95607142D01*
X93423809Y-95916666D01*
X93923809Y-96059523D02*
X93423809Y-96226190D01*
X93923809Y-96392857D01*
X93447619Y-100142857D02*
X93423809Y-100214285D01*
X93423809Y-100333333D01*
X93447619Y-100380952D01*
X93471428Y-100404761D01*
X93519047Y-100428571D01*
X93566666Y-100428571D01*
X93614285Y-100404761D01*
X93638095Y-100380952D01*
X93661904Y-100333333D01*
X93685714Y-100238095D01*
X93709523Y-100190476D01*
X93733333Y-100166666D01*
X93780952Y-100142857D01*
X93828571Y-100142857D01*
X93876190Y-100166666D01*
X93900000Y-100190476D01*
X93923809Y-100238095D01*
X93923809Y-100357142D01*
X93900000Y-100428571D01*
X93423809Y-100642857D02*
X93923809Y-100642857D01*
X93923809Y-100761904D01*
X93900000Y-100833333D01*
X93852380Y-100880952D01*
X93804761Y-100904761D01*
X93709523Y-100928571D01*
X93638095Y-100928571D01*
X93542857Y-100904761D01*
X93495238Y-100880952D01*
X93447619Y-100833333D01*
X93423809Y-100761904D01*
X93423809Y-100642857D01*
X93566666Y-101119047D02*
X93566666Y-101357142D01*
X93423809Y-101071428D02*
X93923809Y-101238095D01*
X93423809Y-101404761D01*
X93547619Y-102654761D02*
X93523809Y-102726190D01*
X93523809Y-102845238D01*
X93547619Y-102892857D01*
X93571428Y-102916666D01*
X93619047Y-102940476D01*
X93666666Y-102940476D01*
X93714285Y-102916666D01*
X93738095Y-102892857D01*
X93761904Y-102845238D01*
X93785714Y-102750000D01*
X93809523Y-102702380D01*
X93833333Y-102678571D01*
X93880952Y-102654761D01*
X93928571Y-102654761D01*
X93976190Y-102678571D01*
X94000000Y-102702380D01*
X94023809Y-102750000D01*
X94023809Y-102869047D01*
X94000000Y-102940476D01*
X93571428Y-103440476D02*
X93547619Y-103416666D01*
X93523809Y-103345238D01*
X93523809Y-103297619D01*
X93547619Y-103226190D01*
X93595238Y-103178571D01*
X93642857Y-103154761D01*
X93738095Y-103130952D01*
X93809523Y-103130952D01*
X93904761Y-103154761D01*
X93952380Y-103178571D01*
X94000000Y-103226190D01*
X94023809Y-103297619D01*
X94023809Y-103345238D01*
X94000000Y-103416666D01*
X93976190Y-103440476D01*
X93523809Y-103892857D02*
X93523809Y-103654761D01*
X94023809Y-103654761D01*
X162800000Y-98880952D02*
X162776190Y-98928571D01*
X162776190Y-99000000D01*
X162800000Y-99071428D01*
X162847619Y-99119047D01*
X162895238Y-99142857D01*
X162990476Y-99166666D01*
X163061904Y-99166666D01*
X163157142Y-99142857D01*
X163204761Y-99119047D01*
X163252380Y-99071428D01*
X163276190Y-99000000D01*
X163276190Y-98952380D01*
X163252380Y-98880952D01*
X163228571Y-98857142D01*
X163061904Y-98857142D01*
X163061904Y-98952380D01*
X163276190Y-98642857D02*
X162776190Y-98642857D01*
X163276190Y-98357142D01*
X162776190Y-98357142D01*
X163276190Y-98119047D02*
X162776190Y-98119047D01*
X162776190Y-98000000D01*
X162800000Y-97928571D01*
X162847619Y-97880952D01*
X162895238Y-97857142D01*
X162990476Y-97833333D01*
X163061904Y-97833333D01*
X163157142Y-97857142D01*
X163204761Y-97880952D01*
X163252380Y-97928571D01*
X163276190Y-98000000D01*
X163276190Y-98119047D01*
X163276190Y-96409523D02*
X163276190Y-96695238D01*
X163276190Y-96552380D02*
X162776190Y-96552380D01*
X162847619Y-96600000D01*
X162895238Y-96647619D01*
X162919047Y-96695238D01*
X162823809Y-96219047D02*
X162800000Y-96195238D01*
X162776190Y-96147619D01*
X162776190Y-96028571D01*
X162800000Y-95980952D01*
X162823809Y-95957142D01*
X162871428Y-95933333D01*
X162919047Y-95933333D01*
X162990476Y-95957142D01*
X163276190Y-96242857D01*
X163276190Y-95933333D01*
X162776190Y-95790476D02*
X163276190Y-95623809D01*
X162776190Y-95457142D01*
D12*
X100367857Y-119652976D02*
X100367857Y-118402976D01*
X100844047Y-118402976D01*
X100963095Y-118462500D01*
X101022619Y-118522023D01*
X101082142Y-118641071D01*
X101082142Y-118819642D01*
X101022619Y-118938690D01*
X100963095Y-118998214D01*
X100844047Y-119057738D01*
X100367857Y-119057738D01*
X101617857Y-119652976D02*
X101617857Y-118402976D01*
X103165476Y-119652976D02*
X103165476Y-118402976D01*
X103165476Y-118998214D02*
X103879761Y-118998214D01*
X103879761Y-119652976D02*
X103879761Y-118402976D01*
X104415476Y-119295833D02*
X105010714Y-119295833D01*
X104296428Y-119652976D02*
X104713095Y-118402976D01*
X105129761Y-119652976D01*
X105367857Y-118402976D02*
X106082142Y-118402976D01*
X105725000Y-119652976D02*
X105725000Y-118402976D01*
X107272619Y-118402976D02*
X107689285Y-119652976D01*
X108105952Y-118402976D01*
X108403571Y-118402976D02*
X109177380Y-118402976D01*
X108760714Y-118879166D01*
X108939285Y-118879166D01*
X109058333Y-118938690D01*
X109117857Y-118998214D01*
X109177380Y-119117261D01*
X109177380Y-119414880D01*
X109117857Y-119533928D01*
X109058333Y-119593452D01*
X108939285Y-119652976D01*
X108582142Y-119652976D01*
X108463095Y-119593452D01*
X108403571Y-119533928D01*
X111320238Y-119652976D02*
X110605952Y-119652976D01*
X110963095Y-119652976D02*
X110963095Y-118402976D01*
X110844047Y-118581547D01*
X110724999Y-118700595D01*
X110605952Y-118760119D01*
X112094047Y-118402976D02*
X112213095Y-118402976D01*
X112332142Y-118462500D01*
X112391666Y-118522023D01*
X112451190Y-118641071D01*
X112510714Y-118879166D01*
X112510714Y-119176785D01*
X112451190Y-119414880D01*
X112391666Y-119533928D01*
X112332142Y-119593452D01*
X112213095Y-119652976D01*
X112094047Y-119652976D01*
X111974999Y-119593452D01*
X111915476Y-119533928D01*
X111855952Y-119414880D01*
X111796428Y-119176785D01*
X111796428Y-118879166D01*
X111855952Y-118641071D01*
X111915476Y-118522023D01*
X111974999Y-118462500D01*
X112094047Y-118402976D01*
X113939285Y-118343452D02*
X112867857Y-119950595D01*
X114296428Y-118522023D02*
X114355952Y-118462500D01*
X114474999Y-118402976D01*
X114772619Y-118402976D01*
X114891666Y-118462500D01*
X114951190Y-118522023D01*
X115010714Y-118641071D01*
X115010714Y-118760119D01*
X114951190Y-118938690D01*
X114236904Y-119652976D01*
X115010714Y-119652976D01*
X116201190Y-119652976D02*
X115486904Y-119652976D01*
X115844047Y-119652976D02*
X115844047Y-118402976D01*
X115724999Y-118581547D01*
X115605952Y-118700595D01*
X115486904Y-118760119D01*
X117629761Y-118343452D02*
X116558333Y-119950595D01*
X117986904Y-118522023D02*
X118046428Y-118462500D01*
X118165476Y-118402976D01*
X118463095Y-118402976D01*
X118582142Y-118462500D01*
X118641666Y-118522023D01*
X118701190Y-118641071D01*
X118701190Y-118760119D01*
X118641666Y-118938690D01*
X117927380Y-119652976D01*
X118701190Y-119652976D01*
X119177380Y-118522023D02*
X119236904Y-118462500D01*
X119355952Y-118402976D01*
X119653571Y-118402976D01*
X119772619Y-118462500D01*
X119832142Y-118522023D01*
X119891666Y-118641071D01*
X119891666Y-118760119D01*
X119832142Y-118938690D01*
X119117857Y-119652976D01*
X119891666Y-119652976D01*
X102897619Y-121010714D02*
X103314285Y-121010714D01*
X103492857Y-121665476D02*
X102897619Y-121665476D01*
X102897619Y-120415476D01*
X103492857Y-120415476D01*
X103969047Y-121308333D02*
X104564285Y-121308333D01*
X103850000Y-121665476D02*
X104266666Y-120415476D01*
X104683333Y-121665476D01*
X105040476Y-121605952D02*
X105219047Y-121665476D01*
X105516666Y-121665476D01*
X105635714Y-121605952D01*
X105695238Y-121546428D01*
X105754761Y-121427380D01*
X105754761Y-121308333D01*
X105695238Y-121189285D01*
X105635714Y-121129761D01*
X105516666Y-121070238D01*
X105278571Y-121010714D01*
X105159523Y-120951190D01*
X105100000Y-120891666D01*
X105040476Y-120772619D01*
X105040476Y-120653571D01*
X105100000Y-120534523D01*
X105159523Y-120475000D01*
X105278571Y-120415476D01*
X105576190Y-120415476D01*
X105754761Y-120475000D01*
X106528571Y-121070238D02*
X106528571Y-121665476D01*
X106111904Y-120415476D02*
X106528571Y-121070238D01*
X106945238Y-120415476D01*
X109028571Y-121546428D02*
X108969047Y-121605952D01*
X108790476Y-121665476D01*
X108671428Y-121665476D01*
X108492857Y-121605952D01*
X108373809Y-121486904D01*
X108314285Y-121367857D01*
X108254761Y-121129761D01*
X108254761Y-120951190D01*
X108314285Y-120713095D01*
X108373809Y-120594047D01*
X108492857Y-120475000D01*
X108671428Y-120415476D01*
X108790476Y-120415476D01*
X108969047Y-120475000D01*
X109028571Y-120534523D01*
X109802380Y-120415476D02*
X110040476Y-120415476D01*
X110159523Y-120475000D01*
X110278571Y-120594047D01*
X110338095Y-120832142D01*
X110338095Y-121248809D01*
X110278571Y-121486904D01*
X110159523Y-121605952D01*
X110040476Y-121665476D01*
X109802380Y-121665476D01*
X109683333Y-121605952D01*
X109564285Y-121486904D01*
X109504761Y-121248809D01*
X109504761Y-120832142D01*
X109564285Y-120594047D01*
X109683333Y-120475000D01*
X109802380Y-120415476D01*
X110873809Y-121665476D02*
X110873809Y-120415476D01*
X111588095Y-121665476D01*
X111588095Y-120415476D01*
X112004761Y-120415476D02*
X112719047Y-120415476D01*
X112361904Y-121665476D02*
X112361904Y-120415476D01*
X113850000Y-121665476D02*
X113433333Y-121070238D01*
X113135714Y-121665476D02*
X113135714Y-120415476D01*
X113611904Y-120415476D01*
X113730952Y-120475000D01*
X113790476Y-120534523D01*
X113850000Y-120653571D01*
X113850000Y-120832142D01*
X113790476Y-120951190D01*
X113730952Y-121010714D01*
X113611904Y-121070238D01*
X113135714Y-121070238D01*
X114623809Y-120415476D02*
X114861904Y-120415476D01*
X114980952Y-120475000D01*
X115100000Y-120594047D01*
X115159523Y-120832142D01*
X115159523Y-121248809D01*
X115100000Y-121486904D01*
X114980952Y-121605952D01*
X114861904Y-121665476D01*
X114623809Y-121665476D01*
X114504761Y-121605952D01*
X114385714Y-121486904D01*
X114326190Y-121248809D01*
X114326190Y-120832142D01*
X114385714Y-120594047D01*
X114504761Y-120475000D01*
X114623809Y-120415476D01*
X116290476Y-121665476D02*
X115695238Y-121665476D01*
X115695238Y-120415476D01*
X116647619Y-121605952D02*
X116826190Y-121665476D01*
X117123809Y-121665476D01*
X117242857Y-121605952D01*
X117302380Y-121546428D01*
X117361904Y-121427380D01*
X117361904Y-121308333D01*
X117302380Y-121189285D01*
X117242857Y-121129761D01*
X117123809Y-121070238D01*
X116885714Y-121010714D01*
X116766666Y-120951190D01*
X116707142Y-120891666D01*
X116647619Y-120772619D01*
X116647619Y-120653571D01*
X116707142Y-120534523D01*
X116766666Y-120475000D01*
X116885714Y-120415476D01*
X117183333Y-120415476D01*
X117361904Y-120475000D01*
X97600000Y-123677976D02*
X97600000Y-122427976D01*
X97897619Y-122427976D01*
X98076190Y-122487500D01*
X98195238Y-122606547D01*
X98254761Y-122725595D01*
X98314285Y-122963690D01*
X98314285Y-123142261D01*
X98254761Y-123380357D01*
X98195238Y-123499404D01*
X98076190Y-123618452D01*
X97897619Y-123677976D01*
X97600000Y-123677976D01*
X99326190Y-123618452D02*
X99207142Y-123677976D01*
X98969047Y-123677976D01*
X98850000Y-123618452D01*
X98790476Y-123499404D01*
X98790476Y-123023214D01*
X98850000Y-122904166D01*
X98969047Y-122844642D01*
X99207142Y-122844642D01*
X99326190Y-122904166D01*
X99385714Y-123023214D01*
X99385714Y-123142261D01*
X98790476Y-123261309D01*
X99861904Y-123618452D02*
X99980952Y-123677976D01*
X100219047Y-123677976D01*
X100338095Y-123618452D01*
X100397619Y-123499404D01*
X100397619Y-123439880D01*
X100338095Y-123320833D01*
X100219047Y-123261309D01*
X100040476Y-123261309D01*
X99921428Y-123201785D01*
X99861904Y-123082738D01*
X99861904Y-123023214D01*
X99921428Y-122904166D01*
X100040476Y-122844642D01*
X100219047Y-122844642D01*
X100338095Y-122904166D01*
X100933333Y-123677976D02*
X100933333Y-122844642D01*
X100933333Y-122427976D02*
X100873809Y-122487500D01*
X100933333Y-122547023D01*
X100992857Y-122487500D01*
X100933333Y-122427976D01*
X100933333Y-122547023D01*
X102064285Y-122844642D02*
X102064285Y-123856547D01*
X102004761Y-123975595D01*
X101945238Y-124035119D01*
X101826190Y-124094642D01*
X101647619Y-124094642D01*
X101528571Y-124035119D01*
X102064285Y-123618452D02*
X101945238Y-123677976D01*
X101707142Y-123677976D01*
X101588095Y-123618452D01*
X101528571Y-123558928D01*
X101469047Y-123439880D01*
X101469047Y-123082738D01*
X101528571Y-122963690D01*
X101588095Y-122904166D01*
X101707142Y-122844642D01*
X101945238Y-122844642D01*
X102064285Y-122904166D01*
X102659523Y-122844642D02*
X102659523Y-123677976D01*
X102659523Y-122963690D02*
X102719047Y-122904166D01*
X102838095Y-122844642D01*
X103016666Y-122844642D01*
X103135714Y-122904166D01*
X103195238Y-123023214D01*
X103195238Y-123677976D01*
X104266666Y-123618452D02*
X104147619Y-123677976D01*
X103909523Y-123677976D01*
X103790476Y-123618452D01*
X103730952Y-123499404D01*
X103730952Y-123023214D01*
X103790476Y-122904166D01*
X103909523Y-122844642D01*
X104147619Y-122844642D01*
X104266666Y-122904166D01*
X104326190Y-123023214D01*
X104326190Y-123142261D01*
X103730952Y-123261309D01*
X105397619Y-123677976D02*
X105397619Y-122427976D01*
X105397619Y-123618452D02*
X105278571Y-123677976D01*
X105040476Y-123677976D01*
X104921428Y-123618452D01*
X104861904Y-123558928D01*
X104802380Y-123439880D01*
X104802380Y-123082738D01*
X104861904Y-122963690D01*
X104921428Y-122904166D01*
X105040476Y-122844642D01*
X105278571Y-122844642D01*
X105397619Y-122904166D01*
X106945238Y-123677976D02*
X106945238Y-122427976D01*
X106945238Y-122904166D02*
X107064285Y-122844642D01*
X107302380Y-122844642D01*
X107421428Y-122904166D01*
X107480952Y-122963690D01*
X107540476Y-123082738D01*
X107540476Y-123439880D01*
X107480952Y-123558928D01*
X107421428Y-123618452D01*
X107302380Y-123677976D01*
X107064285Y-123677976D01*
X106945238Y-123618452D01*
X107957142Y-122844642D02*
X108254761Y-123677976D01*
X108552380Y-122844642D02*
X108254761Y-123677976D01*
X108135714Y-123975595D01*
X108076190Y-124035119D01*
X107957142Y-124094642D01*
X109028571Y-123558928D02*
X109088095Y-123618452D01*
X109028571Y-123677976D01*
X108969047Y-123618452D01*
X109028571Y-123558928D01*
X109028571Y-123677976D01*
X109028571Y-122904166D02*
X109088095Y-122963690D01*
X109028571Y-123023214D01*
X108969047Y-122963690D01*
X109028571Y-122904166D01*
X109028571Y-123023214D01*
X110933333Y-122427976D02*
X110933333Y-123320833D01*
X110873809Y-123499404D01*
X110754761Y-123618452D01*
X110576190Y-123677976D01*
X110457142Y-123677976D01*
X112064285Y-123677976D02*
X112064285Y-123023214D01*
X112004761Y-122904166D01*
X111885714Y-122844642D01*
X111647619Y-122844642D01*
X111528571Y-122904166D01*
X112064285Y-123618452D02*
X111945238Y-123677976D01*
X111647619Y-123677976D01*
X111528571Y-123618452D01*
X111469047Y-123499404D01*
X111469047Y-123380357D01*
X111528571Y-123261309D01*
X111647619Y-123201785D01*
X111945238Y-123201785D01*
X112064285Y-123142261D01*
X113195238Y-123618452D02*
X113076190Y-123677976D01*
X112838095Y-123677976D01*
X112719047Y-123618452D01*
X112659523Y-123558928D01*
X112600000Y-123439880D01*
X112600000Y-123082738D01*
X112659523Y-122963690D01*
X112719047Y-122904166D01*
X112838095Y-122844642D01*
X113076190Y-122844642D01*
X113195238Y-122904166D01*
X113909523Y-123677976D02*
X113790476Y-123618452D01*
X113730952Y-123558928D01*
X113671428Y-123439880D01*
X113671428Y-123082738D01*
X113730952Y-122963690D01*
X113790476Y-122904166D01*
X113909523Y-122844642D01*
X114088095Y-122844642D01*
X114207142Y-122904166D01*
X114266666Y-122963690D01*
X114326190Y-123082738D01*
X114326190Y-123439880D01*
X114266666Y-123558928D01*
X114207142Y-123618452D01*
X114088095Y-123677976D01*
X113909523Y-123677976D01*
X114861904Y-123677976D02*
X114861904Y-122427976D01*
X114861904Y-122904166D02*
X114980952Y-122844642D01*
X115219047Y-122844642D01*
X115338095Y-122904166D01*
X115397619Y-122963690D01*
X115457142Y-123082738D01*
X115457142Y-123439880D01*
X115397619Y-123558928D01*
X115338095Y-123618452D01*
X115219047Y-123677976D01*
X114980952Y-123677976D01*
X114861904Y-123618452D01*
X117659523Y-123677976D02*
X117242857Y-123082738D01*
X116945238Y-123677976D02*
X116945238Y-122427976D01*
X117421428Y-122427976D01*
X117540476Y-122487500D01*
X117600000Y-122547023D01*
X117659523Y-122666071D01*
X117659523Y-122844642D01*
X117600000Y-122963690D01*
X117540476Y-123023214D01*
X117421428Y-123082738D01*
X116945238Y-123082738D01*
X118373809Y-123677976D02*
X118254761Y-123618452D01*
X118195238Y-123558928D01*
X118135714Y-123439880D01*
X118135714Y-123082738D01*
X118195238Y-122963690D01*
X118254761Y-122904166D01*
X118373809Y-122844642D01*
X118552380Y-122844642D01*
X118671428Y-122904166D01*
X118730952Y-122963690D01*
X118790476Y-123082738D01*
X118790476Y-123439880D01*
X118730952Y-123558928D01*
X118671428Y-123618452D01*
X118552380Y-123677976D01*
X118373809Y-123677976D01*
X119326190Y-123677976D02*
X119326190Y-122844642D01*
X119326190Y-122963690D02*
X119385714Y-122904166D01*
X119504761Y-122844642D01*
X119683333Y-122844642D01*
X119802380Y-122904166D01*
X119861904Y-123023214D01*
X119861904Y-123677976D01*
X119861904Y-123023214D02*
X119921428Y-122904166D01*
X120040476Y-122844642D01*
X120219047Y-122844642D01*
X120338095Y-122904166D01*
X120397619Y-123023214D01*
X120397619Y-123677976D01*
X121469047Y-123618452D02*
X121350000Y-123677976D01*
X121111904Y-123677976D01*
X120992857Y-123618452D01*
X120933333Y-123499404D01*
X120933333Y-123023214D01*
X120992857Y-122904166D01*
X121111904Y-122844642D01*
X121350000Y-122844642D01*
X121469047Y-122904166D01*
X121528571Y-123023214D01*
X121528571Y-123142261D01*
X120933333Y-123261309D01*
X122242857Y-123677976D02*
X122123809Y-123618452D01*
X122064285Y-123558928D01*
X122004761Y-123439880D01*
X122004761Y-123082738D01*
X122064285Y-122963690D01*
X122123809Y-122904166D01*
X122242857Y-122844642D01*
X122421428Y-122844642D01*
X122540476Y-122904166D01*
X122600000Y-122963690D01*
X122659523Y-123082738D01*
X122659523Y-123439880D01*
X122600000Y-123558928D01*
X122540476Y-123618452D01*
X122421428Y-123677976D01*
X122242857Y-123677976D01*
D10*
%TO.C,J9*%
X106682380Y-68533333D02*
X107396666Y-68533333D01*
X107539523Y-68580952D01*
X107634761Y-68676190D01*
X107682380Y-68819047D01*
X107682380Y-68914285D01*
X107682380Y-68009523D02*
X107682380Y-67819047D01*
X107634761Y-67723809D01*
X107587142Y-67676190D01*
X107444285Y-67580952D01*
X107253809Y-67533333D01*
X106872857Y-67533333D01*
X106777619Y-67580952D01*
X106730000Y-67628571D01*
X106682380Y-67723809D01*
X106682380Y-67914285D01*
X106730000Y-68009523D01*
X106777619Y-68057142D01*
X106872857Y-68104761D01*
X107110952Y-68104761D01*
X107206190Y-68057142D01*
X107253809Y-68009523D01*
X107301428Y-67914285D01*
X107301428Y-67723809D01*
X107253809Y-67628571D01*
X107206190Y-67580952D01*
X107110952Y-67533333D01*
%TO.C,J3*%
X134541666Y-70177380D02*
X134541666Y-70891666D01*
X134494047Y-71034523D01*
X134398809Y-71129761D01*
X134255952Y-71177380D01*
X134160714Y-71177380D01*
X134922619Y-70177380D02*
X135541666Y-70177380D01*
X135208333Y-70558333D01*
X135351190Y-70558333D01*
X135446428Y-70605952D01*
X135494047Y-70653571D01*
X135541666Y-70748809D01*
X135541666Y-70986904D01*
X135494047Y-71082142D01*
X135446428Y-71129761D01*
X135351190Y-71177380D01*
X135065476Y-71177380D01*
X134970238Y-71129761D01*
X134922619Y-71082142D01*
%TO.C,H1*%
X154738095Y-72452380D02*
X154738095Y-71452380D01*
X154738095Y-71928571D02*
X155309523Y-71928571D01*
X155309523Y-72452380D02*
X155309523Y-71452380D01*
X156309523Y-72452380D02*
X155738095Y-72452380D01*
X156023809Y-72452380D02*
X156023809Y-71452380D01*
X155928571Y-71595238D01*
X155833333Y-71690476D01*
X155738095Y-71738095D01*
%TO.C,H2*%
X98738095Y-72452380D02*
X98738095Y-71452380D01*
X98738095Y-71928571D02*
X99309523Y-71928571D01*
X99309523Y-72452380D02*
X99309523Y-71452380D01*
X99738095Y-71547619D02*
X99785714Y-71500000D01*
X99880952Y-71452380D01*
X100119047Y-71452380D01*
X100214285Y-71500000D01*
X100261904Y-71547619D01*
X100309523Y-71642857D01*
X100309523Y-71738095D01*
X100261904Y-71880952D01*
X99690476Y-72452380D01*
X100309523Y-72452380D01*
%TO.C,H3*%
X98738095Y-135452380D02*
X98738095Y-134452380D01*
X98738095Y-134928571D02*
X99309523Y-134928571D01*
X99309523Y-135452380D02*
X99309523Y-134452380D01*
X99690476Y-134452380D02*
X100309523Y-134452380D01*
X99976190Y-134833333D01*
X100119047Y-134833333D01*
X100214285Y-134880952D01*
X100261904Y-134928571D01*
X100309523Y-135023809D01*
X100309523Y-135261904D01*
X100261904Y-135357142D01*
X100214285Y-135404761D01*
X100119047Y-135452380D01*
X99833333Y-135452380D01*
X99738095Y-135404761D01*
X99690476Y-135357142D01*
%TO.C,J1*%
X129566666Y-111072380D02*
X129566666Y-111786666D01*
X129519047Y-111929523D01*
X129423809Y-112024761D01*
X129280952Y-112072380D01*
X129185714Y-112072380D01*
X130566666Y-112072380D02*
X129995238Y-112072380D01*
X130280952Y-112072380D02*
X130280952Y-111072380D01*
X130185714Y-111215238D01*
X130090476Y-111310476D01*
X129995238Y-111358095D01*
%TO.C,H4*%
X154738095Y-135452380D02*
X154738095Y-134452380D01*
X154738095Y-134928571D02*
X155309523Y-134928571D01*
X155309523Y-135452380D02*
X155309523Y-134452380D01*
X156214285Y-134785714D02*
X156214285Y-135452380D01*
X155976190Y-134404761D02*
X155738095Y-135119047D01*
X156357142Y-135119047D01*
%TO.C,J2*%
X155516666Y-76252380D02*
X155516666Y-76966666D01*
X155469047Y-77109523D01*
X155373809Y-77204761D01*
X155230952Y-77252380D01*
X155135714Y-77252380D01*
X155945238Y-76347619D02*
X155992857Y-76300000D01*
X156088095Y-76252380D01*
X156326190Y-76252380D01*
X156421428Y-76300000D01*
X156469047Y-76347619D01*
X156516666Y-76442857D01*
X156516666Y-76538095D01*
X156469047Y-76680952D01*
X155897619Y-77252380D01*
X156516666Y-77252380D01*
X148904761Y-123385714D02*
X146904761Y-123385714D01*
X146904761Y-122623809D01*
X147000000Y-122433333D01*
X147095238Y-122338095D01*
X147285714Y-122242857D01*
X147571428Y-122242857D01*
X147761904Y-122338095D01*
X147857142Y-122433333D01*
X147952380Y-122623809D01*
X147952380Y-123385714D01*
X148904761Y-121385714D02*
X147571428Y-121385714D01*
X146904761Y-121385714D02*
X147000000Y-121480952D01*
X147095238Y-121385714D01*
X147000000Y-121290476D01*
X146904761Y-121385714D01*
X147095238Y-121385714D01*
X149095238Y-120909523D02*
X149095238Y-119385714D01*
X147000000Y-117861904D02*
X146904761Y-118052380D01*
X146904761Y-118338095D01*
X147000000Y-118623809D01*
X147190476Y-118814285D01*
X147380952Y-118909523D01*
X147761904Y-119004761D01*
X148047619Y-119004761D01*
X148428571Y-118909523D01*
X148619047Y-118814285D01*
X148809523Y-118623809D01*
X148904761Y-118338095D01*
X148904761Y-118147619D01*
X148809523Y-117861904D01*
X148714285Y-117766666D01*
X148047619Y-117766666D01*
X148047619Y-118147619D01*
X148904761Y-116909523D02*
X146904761Y-116909523D01*
X146904761Y-116147619D01*
X147000000Y-115957142D01*
X147095238Y-115861904D01*
X147285714Y-115766666D01*
X147571428Y-115766666D01*
X147761904Y-115861904D01*
X147857142Y-115957142D01*
X147952380Y-116147619D01*
X147952380Y-116909523D01*
X148904761Y-114909523D02*
X146904761Y-114909523D01*
X146904761Y-113576190D02*
X146904761Y-113195238D01*
X147000000Y-113004761D01*
X147190476Y-112814285D01*
X147571428Y-112719047D01*
X148238095Y-112719047D01*
X148619047Y-112814285D01*
X148809523Y-113004761D01*
X148904761Y-113195238D01*
X148904761Y-113576190D01*
X148809523Y-113766666D01*
X148619047Y-113957142D01*
X148238095Y-114052380D01*
X147571428Y-114052380D01*
X147190476Y-113957142D01*
X147000000Y-113766666D01*
X146904761Y-113576190D01*
%TO.C,J4*%
X96216666Y-93122380D02*
X96216666Y-93836666D01*
X96169047Y-93979523D01*
X96073809Y-94074761D01*
X95930952Y-94122380D01*
X95835714Y-94122380D01*
X97121428Y-93455714D02*
X97121428Y-94122380D01*
X96883333Y-93074761D02*
X96645238Y-93789047D01*
X97264285Y-93789047D01*
%TO.C,J5*%
X115916519Y-81386389D02*
X115916519Y-82100990D01*
X115868879Y-82243910D01*
X115773599Y-82339190D01*
X115630679Y-82386830D01*
X115535399Y-82386830D01*
X116869320Y-81386389D02*
X116392920Y-81386389D01*
X116345280Y-81862789D01*
X116392920Y-81815149D01*
X116488200Y-81767509D01*
X116726400Y-81767509D01*
X116821680Y-81815149D01*
X116869320Y-81862789D01*
X116916960Y-81958070D01*
X116916960Y-82196270D01*
X116869320Y-82291550D01*
X116821680Y-82339190D01*
X116726400Y-82386830D01*
X116488200Y-82386830D01*
X116392920Y-82339190D01*
X116345280Y-82291550D01*
%TO.C,J6*%
X160016666Y-93122380D02*
X160016666Y-93836666D01*
X159969047Y-93979523D01*
X159873809Y-94074761D01*
X159730952Y-94122380D01*
X159635714Y-94122380D01*
X160921428Y-93122380D02*
X160730952Y-93122380D01*
X160635714Y-93170000D01*
X160588095Y-93217619D01*
X160492857Y-93360476D01*
X160445238Y-93550952D01*
X160445238Y-93931904D01*
X160492857Y-94027142D01*
X160540476Y-94074761D01*
X160635714Y-94122380D01*
X160826190Y-94122380D01*
X160921428Y-94074761D01*
X160969047Y-94027142D01*
X161016666Y-93931904D01*
X161016666Y-93693809D01*
X160969047Y-93598571D01*
X160921428Y-93550952D01*
X160826190Y-93503333D01*
X160635714Y-93503333D01*
X160540476Y-93550952D01*
X160492857Y-93598571D01*
X160445238Y-93693809D01*
%TO.C,J7*%
X96216666Y-80997380D02*
X96216666Y-81711666D01*
X96169047Y-81854523D01*
X96073809Y-81949761D01*
X95930952Y-81997380D01*
X95835714Y-81997380D01*
X96597619Y-80997380D02*
X97264285Y-80997380D01*
X96835714Y-81997380D01*
D13*
%TO.C,L2*%
X113700001Y-111850001D02*
G75*
G03*
X125600000Y-101450000I7061J12000092D01*
G01*
X101800000Y-101450000D02*
G75*
G03*
X113700001Y-111850000I11866181J1569476D01*
G01*
X113700000Y-87849999D02*
G75*
G03*
X101800000Y-98250000I-58322J-11941440D01*
G01*
X125600000Y-98250000D02*
G75*
G03*
X113700000Y-87850000I-11926784J-1638820D01*
G01*
%TO.C,G\u002A\u002A\u002A*%
G36*
X126470377Y-74917776D02*
G01*
X126428657Y-75095632D01*
X126403129Y-75172809D01*
X126340893Y-75454181D01*
X126314286Y-75795949D01*
X126317584Y-75949068D01*
X126394138Y-76530067D01*
X126556032Y-77116396D01*
X126812875Y-77727683D01*
X127174278Y-78383558D01*
X127649851Y-79103648D01*
X128249205Y-79907583D01*
X128266655Y-79929946D01*
X128812612Y-80605568D01*
X129399254Y-81284323D01*
X130035590Y-81974285D01*
X130730626Y-82683530D01*
X131493369Y-83420131D01*
X132332827Y-84192164D01*
X133258009Y-85007703D01*
X134277919Y-85874823D01*
X135401566Y-86801597D01*
X136637958Y-87796103D01*
X137996103Y-88866413D01*
X139485005Y-90020604D01*
X139751292Y-90225370D01*
X140092081Y-90492036D01*
X140378006Y-90725097D01*
X140585094Y-90904287D01*
X140689378Y-91009341D01*
X140697139Y-91025104D01*
X140671110Y-91070027D01*
X140667954Y-91067084D01*
X140585704Y-91001671D01*
X140389333Y-90856242D01*
X140103191Y-90648245D01*
X139751626Y-90395132D01*
X139358988Y-90114353D01*
X138949624Y-89823361D01*
X138547882Y-89539605D01*
X138178112Y-89280538D01*
X138080923Y-89212926D01*
X136986655Y-88427865D01*
X135843156Y-87560979D01*
X134680763Y-86637682D01*
X133529809Y-85683387D01*
X132420631Y-84723507D01*
X131383565Y-83783454D01*
X130448946Y-82888643D01*
X130039562Y-82476443D01*
X129253527Y-81633934D01*
X128519688Y-80777602D01*
X127872464Y-79948676D01*
X127543518Y-79486746D01*
X127084822Y-78748471D01*
X126705518Y-78001604D01*
X126416475Y-77274621D01*
X126228564Y-76595997D01*
X126152658Y-75994208D01*
X126152926Y-75844187D01*
X126181143Y-75611436D01*
X126241522Y-75344432D01*
X126318561Y-75093837D01*
X126396753Y-74910315D01*
X126458930Y-74844290D01*
X126470377Y-74917776D01*
G37*
D14*
X126470377Y-74917776D02*
X126428657Y-75095632D01*
X126403129Y-75172809D01*
X126340893Y-75454181D01*
X126314286Y-75795949D01*
X126317584Y-75949068D01*
X126394138Y-76530067D01*
X126556032Y-77116396D01*
X126812875Y-77727683D01*
X127174278Y-78383558D01*
X127649851Y-79103648D01*
X128249205Y-79907583D01*
X128266655Y-79929946D01*
X128812612Y-80605568D01*
X129399254Y-81284323D01*
X130035590Y-81974285D01*
X130730626Y-82683530D01*
X131493369Y-83420131D01*
X132332827Y-84192164D01*
X133258009Y-85007703D01*
X134277919Y-85874823D01*
X135401566Y-86801597D01*
X136637958Y-87796103D01*
X137996103Y-88866413D01*
X139485005Y-90020604D01*
X139751292Y-90225370D01*
X140092081Y-90492036D01*
X140378006Y-90725097D01*
X140585094Y-90904287D01*
X140689378Y-91009341D01*
X140697139Y-91025104D01*
X140671110Y-91070027D01*
X140667954Y-91067084D01*
X140585704Y-91001671D01*
X140389333Y-90856242D01*
X140103191Y-90648245D01*
X139751626Y-90395132D01*
X139358988Y-90114353D01*
X138949624Y-89823361D01*
X138547882Y-89539605D01*
X138178112Y-89280538D01*
X138080923Y-89212926D01*
X136986655Y-88427865D01*
X135843156Y-87560979D01*
X134680763Y-86637682D01*
X133529809Y-85683387D01*
X132420631Y-84723507D01*
X131383565Y-83783454D01*
X130448946Y-82888643D01*
X130039562Y-82476443D01*
X129253527Y-81633934D01*
X128519688Y-80777602D01*
X127872464Y-79948676D01*
X127543518Y-79486746D01*
X127084822Y-78748471D01*
X126705518Y-78001604D01*
X126416475Y-77274621D01*
X126228564Y-76595997D01*
X126152658Y-75994208D01*
X126152926Y-75844187D01*
X126181143Y-75611436D01*
X126241522Y-75344432D01*
X126318561Y-75093837D01*
X126396753Y-74910315D01*
X126458930Y-74844290D01*
X126470377Y-74917776D01*
G36*
X130681867Y-73073230D02*
G01*
X131214491Y-73219186D01*
X131473752Y-73355575D01*
X131665614Y-73506466D01*
X131928560Y-73756153D01*
X132244757Y-74083505D01*
X132596369Y-74467387D01*
X132965567Y-74886668D01*
X133334516Y-75320215D01*
X133685383Y-75746896D01*
X134000335Y-76145580D01*
X134261538Y-76495132D01*
X134451161Y-76774421D01*
X134551370Y-76962315D01*
X134562352Y-77015610D01*
X134470032Y-77251449D01*
X134259816Y-77378286D01*
X134057222Y-77392097D01*
X133975204Y-77378585D01*
X133891213Y-77342602D01*
X133789696Y-77268340D01*
X133655095Y-77139992D01*
X133471858Y-76941753D01*
X133224428Y-76657817D01*
X132897252Y-76272376D01*
X132556910Y-75867529D01*
X132147486Y-75381296D01*
X131828750Y-75008380D01*
X131583772Y-74731363D01*
X131395623Y-74532828D01*
X131247368Y-74395357D01*
X131122079Y-74301532D01*
X131002824Y-74233934D01*
X130940582Y-74204712D01*
X130700831Y-74135434D01*
X130421110Y-74108052D01*
X130151765Y-74119968D01*
X129943142Y-74168582D01*
X129845589Y-74251300D01*
X129843884Y-74261296D01*
X129894399Y-74344388D01*
X130040173Y-74538684D01*
X130266903Y-74826276D01*
X130560287Y-75189259D01*
X130906022Y-75609725D01*
X131259372Y-76033517D01*
X131710009Y-76571937D01*
X132060570Y-76997121D01*
X132320366Y-77325100D01*
X132498709Y-77571897D01*
X132604907Y-77753541D01*
X132648271Y-77886059D01*
X132638112Y-77985478D01*
X132583740Y-78067826D01*
X132494465Y-78149128D01*
X132490350Y-78152544D01*
X132384954Y-78237295D01*
X132291302Y-78291351D01*
X132194882Y-78303133D01*
X132081185Y-78261065D01*
X131935698Y-78153571D01*
X131743913Y-77969075D01*
X131491316Y-77695998D01*
X131163399Y-77322765D01*
X130745649Y-76837800D01*
X130535815Y-76593231D01*
X130141669Y-76137136D01*
X129783205Y-75728679D01*
X129475061Y-75384034D01*
X129231880Y-75119370D01*
X129068301Y-74950859D01*
X128998966Y-74894674D01*
X128998339Y-74895010D01*
X128948413Y-74993997D01*
X128878657Y-75195939D01*
X128851457Y-75287820D01*
X128801055Y-75493812D01*
X128782648Y-75680182D01*
X128806685Y-75866406D01*
X128883618Y-76071961D01*
X129023896Y-76316318D01*
X129237970Y-76618953D01*
X129536291Y-76999341D01*
X129929307Y-77476958D01*
X130199442Y-77799855D01*
X130606775Y-78286452D01*
X130917312Y-78661784D01*
X131143811Y-78943711D01*
X131299025Y-79150092D01*
X131395709Y-79298786D01*
X131446617Y-79407654D01*
X131464503Y-79494553D01*
X131462886Y-79569004D01*
X131385692Y-79828229D01*
X131192758Y-79976665D01*
X131057120Y-80016116D01*
X130996696Y-80021736D01*
X130930623Y-80002841D01*
X130844972Y-79944968D01*
X130725813Y-79833650D01*
X130559218Y-79654423D01*
X130331259Y-79392820D01*
X130028004Y-79034378D01*
X129635528Y-78564630D01*
X129482499Y-78380851D01*
X129097706Y-77914920D01*
X128744485Y-77480345D01*
X128438948Y-77097499D01*
X128197208Y-76786757D01*
X128035379Y-76568490D01*
X127973770Y-76473134D01*
X127805648Y-75951707D01*
X127779611Y-75389928D01*
X127892345Y-74834244D01*
X128124894Y-74354396D01*
X128536726Y-73855510D01*
X129023964Y-73470309D01*
X129560981Y-73206434D01*
X130122156Y-73071526D01*
X130681867Y-73073230D01*
G37*
X130681867Y-73073230D02*
X131214491Y-73219186D01*
X131473752Y-73355575D01*
X131665614Y-73506466D01*
X131928560Y-73756153D01*
X132244757Y-74083505D01*
X132596369Y-74467387D01*
X132965567Y-74886668D01*
X133334516Y-75320215D01*
X133685383Y-75746896D01*
X134000335Y-76145580D01*
X134261538Y-76495132D01*
X134451161Y-76774421D01*
X134551370Y-76962315D01*
X134562352Y-77015610D01*
X134470032Y-77251449D01*
X134259816Y-77378286D01*
X134057222Y-77392097D01*
X133975204Y-77378585D01*
X133891213Y-77342602D01*
X133789696Y-77268340D01*
X133655095Y-77139992D01*
X133471858Y-76941753D01*
X133224428Y-76657817D01*
X132897252Y-76272376D01*
X132556910Y-75867529D01*
X132147486Y-75381296D01*
X131828750Y-75008380D01*
X131583772Y-74731363D01*
X131395623Y-74532828D01*
X131247368Y-74395357D01*
X131122079Y-74301532D01*
X131002824Y-74233934D01*
X130940582Y-74204712D01*
X130700831Y-74135434D01*
X130421110Y-74108052D01*
X130151765Y-74119968D01*
X129943142Y-74168582D01*
X129845589Y-74251300D01*
X129843884Y-74261296D01*
X129894399Y-74344388D01*
X130040173Y-74538684D01*
X130266903Y-74826276D01*
X130560287Y-75189259D01*
X130906022Y-75609725D01*
X131259372Y-76033517D01*
X131710009Y-76571937D01*
X132060570Y-76997121D01*
X132320366Y-77325100D01*
X132498709Y-77571897D01*
X132604907Y-77753541D01*
X132648271Y-77886059D01*
X132638112Y-77985478D01*
X132583740Y-78067826D01*
X132494465Y-78149128D01*
X132490350Y-78152544D01*
X132384954Y-78237295D01*
X132291302Y-78291351D01*
X132194882Y-78303133D01*
X132081185Y-78261065D01*
X131935698Y-78153571D01*
X131743913Y-77969075D01*
X131491316Y-77695998D01*
X131163399Y-77322765D01*
X130745649Y-76837800D01*
X130535815Y-76593231D01*
X130141669Y-76137136D01*
X129783205Y-75728679D01*
X129475061Y-75384034D01*
X129231880Y-75119370D01*
X129068301Y-74950859D01*
X128998966Y-74894674D01*
X128998339Y-74895010D01*
X128948413Y-74993997D01*
X128878657Y-75195939D01*
X128851457Y-75287820D01*
X128801055Y-75493812D01*
X128782648Y-75680182D01*
X128806685Y-75866406D01*
X128883618Y-76071961D01*
X129023896Y-76316318D01*
X129237970Y-76618953D01*
X129536291Y-76999341D01*
X129929307Y-77476958D01*
X130199442Y-77799855D01*
X130606775Y-78286452D01*
X130917312Y-78661784D01*
X131143811Y-78943711D01*
X131299025Y-79150092D01*
X131395709Y-79298786D01*
X131446617Y-79407654D01*
X131464503Y-79494553D01*
X131462886Y-79569004D01*
X131385692Y-79828229D01*
X131192758Y-79976665D01*
X131057120Y-80016116D01*
X130996696Y-80021736D01*
X130930623Y-80002841D01*
X130844972Y-79944968D01*
X130725813Y-79833650D01*
X130559218Y-79654423D01*
X130331259Y-79392820D01*
X130028004Y-79034378D01*
X129635528Y-78564630D01*
X129482499Y-78380851D01*
X129097706Y-77914920D01*
X128744485Y-77480345D01*
X128438948Y-77097499D01*
X128197208Y-76786757D01*
X128035379Y-76568490D01*
X127973770Y-76473134D01*
X127805648Y-75951707D01*
X127779611Y-75389928D01*
X127892345Y-74834244D01*
X128124894Y-74354396D01*
X128536726Y-73855510D01*
X129023964Y-73470309D01*
X129560981Y-73206434D01*
X130122156Y-73071526D01*
X130681867Y-73073230D01*
G36*
X135386570Y-77927242D02*
G01*
X135489618Y-78011314D01*
X135681459Y-78207629D01*
X135945216Y-78496113D01*
X136264014Y-78856690D01*
X136620980Y-79269287D01*
X136999238Y-79713826D01*
X137381913Y-80170233D01*
X137752130Y-80618434D01*
X138093015Y-81038352D01*
X138387693Y-81409912D01*
X138619287Y-81713040D01*
X138770925Y-81927659D01*
X138818599Y-82010146D01*
X138906222Y-82364359D01*
X138905480Y-82775534D01*
X138817280Y-83156740D01*
X138806357Y-83183612D01*
X138585578Y-83543630D01*
X138266874Y-83860828D01*
X137894749Y-84103605D01*
X137513705Y-84240356D01*
X137293271Y-84258077D01*
X137070256Y-84245110D01*
X136884609Y-84222821D01*
X136718602Y-84177188D01*
X136554503Y-84094179D01*
X136374584Y-83959770D01*
X136161114Y-83759933D01*
X135896364Y-83480641D01*
X135562603Y-83107867D01*
X135142103Y-82627585D01*
X134941449Y-82397415D01*
X133466819Y-80705878D01*
X132901988Y-81124565D01*
X132578233Y-81351371D01*
X132346979Y-81470461D01*
X132174853Y-81487389D01*
X132028487Y-81407707D01*
X131916156Y-81288629D01*
X131796737Y-81091139D01*
X131751947Y-80956688D01*
X131757322Y-80859986D01*
X131821943Y-80747782D01*
X131968075Y-80594096D01*
X132217982Y-80372948D01*
X132341951Y-80268198D01*
X132650061Y-80016694D01*
X132871954Y-79858055D01*
X133045643Y-79770073D01*
X133209139Y-79730540D01*
X133273733Y-79723819D01*
X133454548Y-79718117D01*
X133619679Y-79740936D01*
X133785250Y-79805879D01*
X133967382Y-79926547D01*
X134182198Y-80116544D01*
X134445820Y-80389469D01*
X134774371Y-80758926D01*
X135183973Y-81238515D01*
X135465138Y-81572626D01*
X136802716Y-83166689D01*
X137095496Y-83192303D01*
X137417460Y-83148725D01*
X137621179Y-83022492D01*
X137824215Y-82761930D01*
X137879694Y-82534284D01*
X137905309Y-82241503D01*
X134635000Y-78344101D01*
X134924581Y-78101114D01*
X135142921Y-77945881D01*
X135306726Y-77907205D01*
X135386570Y-77927242D01*
G37*
X135386570Y-77927242D02*
X135489618Y-78011314D01*
X135681459Y-78207629D01*
X135945216Y-78496113D01*
X136264014Y-78856690D01*
X136620980Y-79269287D01*
X136999238Y-79713826D01*
X137381913Y-80170233D01*
X137752130Y-80618434D01*
X138093015Y-81038352D01*
X138387693Y-81409912D01*
X138619287Y-81713040D01*
X138770925Y-81927659D01*
X138818599Y-82010146D01*
X138906222Y-82364359D01*
X138905480Y-82775534D01*
X138817280Y-83156740D01*
X138806357Y-83183612D01*
X138585578Y-83543630D01*
X138266874Y-83860828D01*
X137894749Y-84103605D01*
X137513705Y-84240356D01*
X137293271Y-84258077D01*
X137070256Y-84245110D01*
X136884609Y-84222821D01*
X136718602Y-84177188D01*
X136554503Y-84094179D01*
X136374584Y-83959770D01*
X136161114Y-83759933D01*
X135896364Y-83480641D01*
X135562603Y-83107867D01*
X135142103Y-82627585D01*
X134941449Y-82397415D01*
X133466819Y-80705878D01*
X132901988Y-81124565D01*
X132578233Y-81351371D01*
X132346979Y-81470461D01*
X132174853Y-81487389D01*
X132028487Y-81407707D01*
X131916156Y-81288629D01*
X131796737Y-81091139D01*
X131751947Y-80956688D01*
X131757322Y-80859986D01*
X131821943Y-80747782D01*
X131968075Y-80594096D01*
X132217982Y-80372948D01*
X132341951Y-80268198D01*
X132650061Y-80016694D01*
X132871954Y-79858055D01*
X133045643Y-79770073D01*
X133209139Y-79730540D01*
X133273733Y-79723819D01*
X133454548Y-79718117D01*
X133619679Y-79740936D01*
X133785250Y-79805879D01*
X133967382Y-79926547D01*
X134182198Y-80116544D01*
X134445820Y-80389469D01*
X134774371Y-80758926D01*
X135183973Y-81238515D01*
X135465138Y-81572626D01*
X136802716Y-83166689D01*
X137095496Y-83192303D01*
X137417460Y-83148725D01*
X137621179Y-83022492D01*
X137824215Y-82761930D01*
X137879694Y-82534284D01*
X137905309Y-82241503D01*
X134635000Y-78344101D01*
X134924581Y-78101114D01*
X135142921Y-77945881D01*
X135306726Y-77907205D01*
X135386570Y-77927242D01*
G36*
X140151863Y-83654607D02*
G01*
X140302483Y-83755622D01*
X140494538Y-83932165D01*
X140741665Y-84195189D01*
X141057499Y-84555646D01*
X141455673Y-85024489D01*
X141920295Y-85577480D01*
X142383389Y-86130461D01*
X142749508Y-86571350D01*
X143031272Y-86917140D01*
X143241295Y-87184823D01*
X143392201Y-87391393D01*
X143496605Y-87553844D01*
X143567128Y-87689166D01*
X143616386Y-87814355D01*
X143642495Y-87896722D01*
X143711807Y-88340027D01*
X143634480Y-88746653D01*
X143402897Y-89139652D01*
X143137437Y-89426106D01*
X142685744Y-89771881D01*
X142238316Y-89948928D01*
X141793380Y-89957742D01*
X141520176Y-89879817D01*
X141401552Y-89827729D01*
X141287858Y-89762310D01*
X141163118Y-89667669D01*
X141011353Y-89527910D01*
X140816590Y-89327141D01*
X140562851Y-89049468D01*
X140234160Y-88678998D01*
X139814541Y-88199839D01*
X139703434Y-88072528D01*
X138256015Y-86413420D01*
X137754982Y-86800861D01*
X137401018Y-87046737D01*
X137128674Y-87164585D01*
X136914198Y-87158932D01*
X136733836Y-87034299D01*
X136704354Y-87001004D01*
X136586236Y-86789262D01*
X136546463Y-86625627D01*
X136556833Y-86512620D01*
X136620079Y-86395209D01*
X136760442Y-86243945D01*
X137002164Y-86029370D01*
X137117151Y-85932223D01*
X137419496Y-85686881D01*
X137637886Y-85535457D01*
X137811278Y-85455396D01*
X137978630Y-85424143D01*
X137997055Y-85422800D01*
X138195252Y-85417316D01*
X138371926Y-85437955D01*
X138543788Y-85498427D01*
X138727546Y-85612442D01*
X138939908Y-85793712D01*
X139197582Y-86055945D01*
X139517278Y-86412851D01*
X139915705Y-86878143D01*
X140239902Y-87263173D01*
X140659418Y-87761966D01*
X140985633Y-88145746D01*
X141233413Y-88429786D01*
X141417621Y-88629356D01*
X141553126Y-88759726D01*
X141654791Y-88836168D01*
X141737482Y-88873953D01*
X141816064Y-88888352D01*
X141822493Y-88888940D01*
X142078636Y-88869069D01*
X142257836Y-88812475D01*
X142439858Y-88664361D01*
X142599274Y-88440558D01*
X142691429Y-88211809D01*
X142698029Y-88115067D01*
X142643001Y-88023455D01*
X142493788Y-87817957D01*
X142263596Y-87515610D01*
X141965626Y-87133452D01*
X141613085Y-86688521D01*
X141219176Y-86197857D01*
X141056877Y-85997396D01*
X139429414Y-83992003D01*
X139691063Y-83786779D01*
X139812282Y-83695206D01*
X139920398Y-83635352D01*
X140029047Y-83618168D01*
X140151863Y-83654607D01*
G37*
X140151863Y-83654607D02*
X140302483Y-83755622D01*
X140494538Y-83932165D01*
X140741665Y-84195189D01*
X141057499Y-84555646D01*
X141455673Y-85024489D01*
X141920295Y-85577480D01*
X142383389Y-86130461D01*
X142749508Y-86571350D01*
X143031272Y-86917140D01*
X143241295Y-87184823D01*
X143392201Y-87391393D01*
X143496605Y-87553844D01*
X143567128Y-87689166D01*
X143616386Y-87814355D01*
X143642495Y-87896722D01*
X143711807Y-88340027D01*
X143634480Y-88746653D01*
X143402897Y-89139652D01*
X143137437Y-89426106D01*
X142685744Y-89771881D01*
X142238316Y-89948928D01*
X141793380Y-89957742D01*
X141520176Y-89879817D01*
X141401552Y-89827729D01*
X141287858Y-89762310D01*
X141163118Y-89667669D01*
X141011353Y-89527910D01*
X140816590Y-89327141D01*
X140562851Y-89049468D01*
X140234160Y-88678998D01*
X139814541Y-88199839D01*
X139703434Y-88072528D01*
X138256015Y-86413420D01*
X137754982Y-86800861D01*
X137401018Y-87046737D01*
X137128674Y-87164585D01*
X136914198Y-87158932D01*
X136733836Y-87034299D01*
X136704354Y-87001004D01*
X136586236Y-86789262D01*
X136546463Y-86625627D01*
X136556833Y-86512620D01*
X136620079Y-86395209D01*
X136760442Y-86243945D01*
X137002164Y-86029370D01*
X137117151Y-85932223D01*
X137419496Y-85686881D01*
X137637886Y-85535457D01*
X137811278Y-85455396D01*
X137978630Y-85424143D01*
X137997055Y-85422800D01*
X138195252Y-85417316D01*
X138371926Y-85437955D01*
X138543788Y-85498427D01*
X138727546Y-85612442D01*
X138939908Y-85793712D01*
X139197582Y-86055945D01*
X139517278Y-86412851D01*
X139915705Y-86878143D01*
X140239902Y-87263173D01*
X140659418Y-87761966D01*
X140985633Y-88145746D01*
X141233413Y-88429786D01*
X141417621Y-88629356D01*
X141553126Y-88759726D01*
X141654791Y-88836168D01*
X141737482Y-88873953D01*
X141816064Y-88888352D01*
X141822493Y-88888940D01*
X142078636Y-88869069D01*
X142257836Y-88812475D01*
X142439858Y-88664361D01*
X142599274Y-88440558D01*
X142691429Y-88211809D01*
X142698029Y-88115067D01*
X142643001Y-88023455D01*
X142493788Y-87817957D01*
X142263596Y-87515610D01*
X141965626Y-87133452D01*
X141613085Y-86688521D01*
X141219176Y-86197857D01*
X141056877Y-85997396D01*
X139429414Y-83992003D01*
X139691063Y-83786779D01*
X139812282Y-83695206D01*
X139920398Y-83635352D01*
X140029047Y-83618168D01*
X140151863Y-83654607D01*
G36*
X142364195Y-93218263D02*
G01*
X142628288Y-93230183D01*
X143170561Y-93258232D01*
X144253941Y-94549355D01*
X144666847Y-95046356D01*
X144976204Y-95434635D01*
X145190918Y-95732071D01*
X145319893Y-95956545D01*
X145372035Y-96125934D01*
X145356250Y-96258119D01*
X145281443Y-96370978D01*
X145199376Y-96447512D01*
X145092549Y-96529683D01*
X144993842Y-96573098D01*
X144887696Y-96565296D01*
X144758550Y-96493821D01*
X144590841Y-96346212D01*
X144369012Y-96110013D01*
X144077501Y-95772763D01*
X143700748Y-95322006D01*
X143517662Y-95101052D01*
X143158180Y-94664516D01*
X142829644Y-94261229D01*
X142549512Y-93912970D01*
X142335246Y-93641518D01*
X142204305Y-93468657D01*
X142177505Y-93429307D01*
X142093544Y-93279630D01*
X142070439Y-93215205D01*
X142155993Y-93212501D01*
X142364195Y-93218263D01*
G37*
X142364195Y-93218263D02*
X142628288Y-93230183D01*
X143170561Y-93258232D01*
X144253941Y-94549355D01*
X144666847Y-95046356D01*
X144976204Y-95434635D01*
X145190918Y-95732071D01*
X145319893Y-95956545D01*
X145372035Y-96125934D01*
X145356250Y-96258119D01*
X145281443Y-96370978D01*
X145199376Y-96447512D01*
X145092549Y-96529683D01*
X144993842Y-96573098D01*
X144887696Y-96565296D01*
X144758550Y-96493821D01*
X144590841Y-96346212D01*
X144369012Y-96110013D01*
X144077501Y-95772763D01*
X143700748Y-95322006D01*
X143517662Y-95101052D01*
X143158180Y-94664516D01*
X142829644Y-94261229D01*
X142549512Y-93912970D01*
X142335246Y-93641518D01*
X142204305Y-93468657D01*
X142177505Y-93429307D01*
X142093544Y-93279630D01*
X142070439Y-93215205D01*
X142155993Y-93212501D01*
X142364195Y-93218263D01*
G36*
X142713515Y-91569702D02*
G01*
X143050184Y-91828631D01*
X143196105Y-92021340D01*
X143349000Y-92217249D01*
X143572662Y-92414065D01*
X143901955Y-92640700D01*
X144067449Y-92743970D01*
X144427999Y-92981856D01*
X144736052Y-93217145D01*
X144973806Y-93431854D01*
X145123457Y-93607996D01*
X145167205Y-93727586D01*
X145087247Y-93772640D01*
X145085671Y-93772654D01*
X144912949Y-93740443D01*
X144655581Y-93656706D01*
X144472038Y-93583242D01*
X144197735Y-93471848D01*
X143965700Y-93390135D01*
X143868474Y-93364341D01*
X143689474Y-93303328D01*
X143458633Y-93189692D01*
X143415624Y-93164997D01*
X143141901Y-93059466D01*
X142809995Y-93005404D01*
X142706766Y-93003094D01*
X142422800Y-92994688D01*
X142193645Y-92939807D01*
X141947450Y-92815268D01*
X141763775Y-92698854D01*
X141668801Y-92628746D01*
X141679865Y-92596845D01*
X141820243Y-92594104D01*
X142006312Y-92604588D01*
X142267889Y-92608497D01*
X142393159Y-92571963D01*
X142414299Y-92500134D01*
X142457617Y-92350821D01*
X142574361Y-92202690D01*
X142717107Y-92025601D01*
X142721407Y-91852960D01*
X142587913Y-91633645D01*
X142581698Y-91625700D01*
X142424714Y-91425852D01*
X142713515Y-91569702D01*
G37*
X142713515Y-91569702D02*
X143050184Y-91828631D01*
X143196105Y-92021340D01*
X143349000Y-92217249D01*
X143572662Y-92414065D01*
X143901955Y-92640700D01*
X144067449Y-92743970D01*
X144427999Y-92981856D01*
X144736052Y-93217145D01*
X144973806Y-93431854D01*
X145123457Y-93607996D01*
X145167205Y-93727586D01*
X145087247Y-93772640D01*
X145085671Y-93772654D01*
X144912949Y-93740443D01*
X144655581Y-93656706D01*
X144472038Y-93583242D01*
X144197735Y-93471848D01*
X143965700Y-93390135D01*
X143868474Y-93364341D01*
X143689474Y-93303328D01*
X143458633Y-93189692D01*
X143415624Y-93164997D01*
X143141901Y-93059466D01*
X142809995Y-93005404D01*
X142706766Y-93003094D01*
X142422800Y-92994688D01*
X142193645Y-92939807D01*
X141947450Y-92815268D01*
X141763775Y-92698854D01*
X141668801Y-92628746D01*
X141679865Y-92596845D01*
X141820243Y-92594104D01*
X142006312Y-92604588D01*
X142267889Y-92608497D01*
X142393159Y-92571963D01*
X142414299Y-92500134D01*
X142457617Y-92350821D01*
X142574361Y-92202690D01*
X142717107Y-92025601D01*
X142721407Y-91852960D01*
X142587913Y-91633645D01*
X142581698Y-91625700D01*
X142424714Y-91425852D01*
X142713515Y-91569702D01*
G36*
X140880804Y-91098017D02*
G01*
X140973592Y-91192896D01*
X140979994Y-91226626D01*
X140934284Y-91232018D01*
X140874499Y-91170083D01*
X140832267Y-91087586D01*
X140880804Y-91098017D01*
G37*
X140880804Y-91098017D02*
X140973592Y-91192896D01*
X140979994Y-91226626D01*
X140934284Y-91232018D01*
X140874499Y-91170083D01*
X140832267Y-91087586D01*
X140880804Y-91098017D01*
G36*
X141221321Y-91330373D02*
G01*
X141385342Y-91427069D01*
X141451016Y-91492864D01*
X141397813Y-91503294D01*
X141357378Y-91492519D01*
X141187423Y-91399187D01*
X141134804Y-91347708D01*
X141120777Y-91293384D01*
X141221321Y-91330373D01*
G37*
X141221321Y-91330373D02*
X141385342Y-91427069D01*
X141451016Y-91492864D01*
X141397813Y-91503294D01*
X141357378Y-91492519D01*
X141187423Y-91399187D01*
X141134804Y-91347708D01*
X141120777Y-91293384D01*
X141221321Y-91330373D01*
G36*
X144910446Y-89227542D02*
G01*
X145032102Y-89300906D01*
X145144526Y-89419969D01*
X145250061Y-89564979D01*
X145294710Y-89699078D01*
X145266004Y-89842163D01*
X145151466Y-90014128D01*
X144938628Y-90234868D01*
X144615016Y-90524279D01*
X144267419Y-90819096D01*
X143267616Y-91658030D01*
X142995569Y-91517474D01*
X142698100Y-91357399D01*
X142529687Y-91244635D01*
X142465268Y-91156334D01*
X142479778Y-91069655D01*
X142487686Y-91054527D01*
X142574575Y-90958186D01*
X142768012Y-90775903D01*
X143043869Y-90529426D01*
X143378016Y-90240501D01*
X143586352Y-90064285D01*
X144018084Y-89706908D01*
X144344918Y-89453411D01*
X144588296Y-89294928D01*
X144769657Y-89222594D01*
X144910446Y-89227542D01*
G37*
X144910446Y-89227542D02*
X145032102Y-89300906D01*
X145144526Y-89419969D01*
X145250061Y-89564979D01*
X145294710Y-89699078D01*
X145266004Y-89842163D01*
X145151466Y-90014128D01*
X144938628Y-90234868D01*
X144615016Y-90524279D01*
X144267419Y-90819096D01*
X143267616Y-91658030D01*
X142995569Y-91517474D01*
X142698100Y-91357399D01*
X142529687Y-91244635D01*
X142465268Y-91156334D01*
X142479778Y-91069655D01*
X142487686Y-91054527D01*
X142574575Y-90958186D01*
X142768012Y-90775903D01*
X143043869Y-90529426D01*
X143378016Y-90240501D01*
X143586352Y-90064285D01*
X144018084Y-89706908D01*
X144344918Y-89453411D01*
X144588296Y-89294928D01*
X144769657Y-89222594D01*
X144910446Y-89227542D01*
D15*
%TO.C,J9*%
X103630000Y-69530000D02*
X95950000Y-69530000D01*
X104900000Y-66870000D02*
X106230000Y-66870000D01*
X95950000Y-66870000D02*
X95950000Y-69530000D01*
X103630000Y-66870000D02*
X103630000Y-69530000D01*
X106230000Y-66870000D02*
X106230000Y-68200000D01*
X103630000Y-66870000D02*
X95950000Y-66870000D01*
%TO.C,J3*%
X136145000Y-66655000D02*
X143885000Y-66655000D01*
X137475000Y-71855000D02*
X136145000Y-71855000D01*
X138745000Y-69255000D02*
X136145000Y-69255000D01*
X138745000Y-71855000D02*
X138745000Y-69255000D01*
X136145000Y-71855000D02*
X136145000Y-70525000D01*
X136145000Y-69255000D02*
X136145000Y-66655000D01*
X143885000Y-71855000D02*
X143885000Y-66655000D01*
X138745000Y-71855000D02*
X143885000Y-71855000D01*
%TO.C,J1*%
X128570000Y-115220000D02*
X128570000Y-127980000D01*
X131230000Y-115220000D02*
X131230000Y-127980000D01*
X128570000Y-127980000D02*
X131230000Y-127980000D01*
X128570000Y-112620000D02*
X129900000Y-112620000D01*
X128570000Y-113950000D02*
X128570000Y-112620000D01*
X128570000Y-115220000D02*
X131230000Y-115220000D01*
%TO.C,J2*%
X152270000Y-80670000D02*
X152270000Y-78070000D01*
X154870000Y-78070000D02*
X154870000Y-128990000D01*
X152270000Y-78070000D02*
X154870000Y-78070000D01*
X149670000Y-78070000D02*
X151000000Y-78070000D01*
X149670000Y-80670000D02*
X149670000Y-128990000D01*
X149670000Y-80670000D02*
X152270000Y-80670000D01*
X149670000Y-79400000D02*
X149670000Y-78070000D01*
X149670000Y-128990000D02*
X154870000Y-128990000D01*
%TO.C,J4*%
X95220000Y-96000000D02*
X95220000Y-94670000D01*
X95220000Y-97270000D02*
X95220000Y-104950000D01*
X95220000Y-94670000D02*
X96550000Y-94670000D01*
X95220000Y-97270000D02*
X97880000Y-97270000D01*
X97880000Y-97270000D02*
X97880000Y-104950000D01*
X95220000Y-104950000D02*
X97880000Y-104950000D01*
D13*
%TO.C,J5*%
X120310000Y-86160000D02*
X120310000Y-87430000D01*
X108750000Y-65650000D02*
X108750000Y-83850000D01*
X115078000Y-83850000D02*
X117922000Y-83850000D01*
X124250000Y-83850000D02*
X124250000Y-65650000D01*
X108750000Y-83850000D02*
X110722000Y-83850000D01*
X124250000Y-83850000D02*
X122278000Y-83850000D01*
X120310000Y-86160000D02*
X120310000Y-84890000D01*
X124250000Y-65650000D02*
X108750000Y-65650000D01*
X119040000Y-86160000D02*
X120310000Y-86160000D01*
X121580000Y-86160000D02*
X120310000Y-86160000D01*
D15*
%TO.C,J6*%
X161680000Y-97270000D02*
X161680000Y-104950000D01*
X159020000Y-104950000D02*
X161680000Y-104950000D01*
X159020000Y-96000000D02*
X159020000Y-94670000D01*
X159020000Y-97270000D02*
X161680000Y-97270000D01*
X159020000Y-94670000D02*
X160350000Y-94670000D01*
X159020000Y-97270000D02*
X159020000Y-104950000D01*
%TO.C,J7*%
X95220000Y-82545000D02*
X96550000Y-82545000D01*
X95220000Y-83875000D02*
X95220000Y-82545000D01*
X95220000Y-85145000D02*
X95220000Y-90285000D01*
X95220000Y-85145000D02*
X97880000Y-85145000D01*
X95220000Y-90285000D02*
X97880000Y-90285000D01*
X97880000Y-85145000D02*
X97880000Y-90285000D01*
%TD*%
M02*
