%TF.GenerationSoftware,KiCad,Pcbnew,6.0.8-f2edbf62ab~116~ubuntu22.04.1*%
%TF.CreationDate,2022-11-20T23:03:40-05:00*%
%TF.ProjectId,Pi_HAT_V3,50695f48-4154-45f5-9633-2e6b69636164,rev?*%
%TF.SameCoordinates,Original*%
%TF.FileFunction,Paste,Bot*%
%TF.FilePolarity,Positive*%
%FSLAX46Y46*%
G04 Gerber Fmt 4.6, Leading zero omitted, Abs format (unit mm)*
G04 Created by KiCad (PCBNEW 6.0.8-f2edbf62ab~116~ubuntu22.04.1) date 2022-11-20 23:03:40*
%MOMM*%
%LPD*%
G01*
G04 APERTURE LIST*
G04 Aperture macros list*
%AMRoundRect*
0 Rectangle with rounded corners*
0 $1 Rounding radius*
0 $2 $3 $4 $5 $6 $7 $8 $9 X,Y pos of 4 corners*
0 Add a 4 corners polygon primitive as box body*
4,1,4,$2,$3,$4,$5,$6,$7,$8,$9,$2,$3,0*
0 Add four circle primitives for the rounded corners*
1,1,$1+$1,$2,$3*
1,1,$1+$1,$4,$5*
1,1,$1+$1,$6,$7*
1,1,$1+$1,$8,$9*
0 Add four rect primitives between the rounded corners*
20,1,$1+$1,$2,$3,$4,$5,0*
20,1,$1+$1,$4,$5,$6,$7,0*
20,1,$1+$1,$6,$7,$8,$9,0*
20,1,$1+$1,$8,$9,$2,$3,0*%
G04 Aperture macros list end*
%ADD10RoundRect,0.250000X0.412500X1.100000X-0.412500X1.100000X-0.412500X-1.100000X0.412500X-1.100000X0*%
%ADD11RoundRect,0.237500X-0.300000X-0.237500X0.300000X-0.237500X0.300000X0.237500X-0.300000X0.237500X0*%
%ADD12RoundRect,0.237500X-0.237500X0.300000X-0.237500X-0.300000X0.237500X-0.300000X0.237500X0.300000X0*%
%ADD13RoundRect,0.250000X1.100000X-0.412500X1.100000X0.412500X-1.100000X0.412500X-1.100000X-0.412500X0*%
%ADD14RoundRect,0.250000X0.625000X-0.400000X0.625000X0.400000X-0.625000X0.400000X-0.625000X-0.400000X0*%
%ADD15RoundRect,0.237500X0.300000X0.237500X-0.300000X0.237500X-0.300000X-0.237500X0.300000X-0.237500X0*%
%ADD16RoundRect,0.250000X0.350000X0.450000X-0.350000X0.450000X-0.350000X-0.450000X0.350000X-0.450000X0*%
%ADD17R,2.260600X2.108200*%
%ADD18RoundRect,0.250000X-0.350000X-0.450000X0.350000X-0.450000X0.350000X0.450000X-0.350000X0.450000X0*%
%ADD19R,0.609600X0.279400*%
%ADD20RoundRect,0.237500X-0.250000X-0.237500X0.250000X-0.237500X0.250000X0.237500X-0.250000X0.237500X0*%
%ADD21RoundRect,0.042000X-0.258000X0.908000X-0.258000X-0.908000X0.258000X-0.908000X0.258000X0.908000X0*%
%ADD22RoundRect,0.250000X-0.412500X-1.100000X0.412500X-1.100000X0.412500X1.100000X-0.412500X1.100000X0*%
G04 APERTURE END LIST*
D10*
%TO.C,C7*%
X115062500Y-102750000D03*
X111937500Y-102750000D03*
%TD*%
D11*
%TO.C,C9*%
X130212500Y-77275000D03*
X131937500Y-77275000D03*
%TD*%
D12*
%TO.C,C3*%
X136250000Y-79887500D03*
X136250000Y-81612500D03*
%TD*%
D10*
%TO.C,C6*%
X115062500Y-98850000D03*
X111937500Y-98850000D03*
%TD*%
D13*
%TO.C,C1*%
X131900000Y-87037500D03*
X131900000Y-83912500D03*
%TD*%
%TO.C,C2*%
X127650000Y-87037500D03*
X127650000Y-83912500D03*
%TD*%
D14*
%TO.C,R2*%
X135750000Y-87050000D03*
X135750000Y-83950000D03*
%TD*%
D15*
%TO.C,C4*%
X140612500Y-83975000D03*
X138887500Y-83975000D03*
%TD*%
D16*
%TO.C,R5*%
X136300000Y-77275000D03*
X134300000Y-77275000D03*
%TD*%
D17*
%TO.C,L1*%
X140481400Y-78250000D03*
X146018600Y-78250000D03*
%TD*%
D18*
%TO.C,R14*%
X130050000Y-75000000D03*
X132050000Y-75000000D03*
%TD*%
D19*
%TO.C,U1*%
X133749300Y-79749999D03*
X133749300Y-80250000D03*
X133749300Y-80750000D03*
X133749300Y-81250001D03*
X132250700Y-81250001D03*
X132250700Y-80750000D03*
X132250700Y-80250000D03*
X132250700Y-79749999D03*
%TD*%
D12*
%TO.C,C8*%
X129875000Y-79887500D03*
X129875000Y-81612500D03*
%TD*%
D20*
%TO.C,R4*%
X138812500Y-86000000D03*
X140637500Y-86000000D03*
%TD*%
D21*
%TO.C,U2*%
X133065000Y-91232500D03*
X134335000Y-91232500D03*
X135605000Y-91232500D03*
X136875000Y-91232500D03*
X138145000Y-91232500D03*
X139415000Y-91232500D03*
X140685000Y-91232500D03*
X141955000Y-91232500D03*
X141955000Y-96142500D03*
X140685000Y-96142500D03*
X139415000Y-96142500D03*
X138145000Y-96142500D03*
X136875000Y-96142500D03*
X135605000Y-96142500D03*
X134335000Y-96142500D03*
X133065000Y-96142500D03*
%TD*%
D22*
%TO.C,C5*%
X111937500Y-93200000D03*
X115062500Y-93200000D03*
%TD*%
D16*
%TO.C,R3*%
X136325000Y-75000000D03*
X134325000Y-75000000D03*
%TD*%
M02*
