%TF.GenerationSoftware,KiCad,Pcbnew,6.0.8-f2edbf62ab~116~ubuntu22.04.1*%
%TF.CreationDate,2022-11-20T23:03:40-05:00*%
%TF.ProjectId,Pi_HAT_V3,50695f48-4154-45f5-9633-2e6b69636164,rev?*%
%TF.SameCoordinates,Original*%
%TF.FileFunction,Copper,L1,Top*%
%TF.FilePolarity,Positive*%
%FSLAX46Y46*%
G04 Gerber Fmt 4.6, Leading zero omitted, Abs format (unit mm)*
G04 Created by KiCad (PCBNEW 6.0.8-f2edbf62ab~116~ubuntu22.04.1) date 2022-11-20 23:03:40*
%MOMM*%
%LPD*%
G01*
G04 APERTURE LIST*
%TA.AperFunction,ComponentPad*%
%ADD10C,3.000000*%
%TD*%
%TA.AperFunction,ComponentPad*%
%ADD11R,1.700000X1.700000*%
%TD*%
%TA.AperFunction,ComponentPad*%
%ADD12O,1.700000X1.700000*%
%TD*%
%TA.AperFunction,ComponentPad*%
%ADD13R,3.716000X3.716000*%
%TD*%
%TA.AperFunction,ComponentPad*%
%ADD14C,3.716000*%
%TD*%
%TA.AperFunction,ComponentPad*%
%ADD15O,1.200000X2.400000*%
%TD*%
%TA.AperFunction,ViaPad*%
%ADD16C,0.800000*%
%TD*%
%TA.AperFunction,Conductor*%
%ADD17C,1.000000*%
%TD*%
%TA.AperFunction,Conductor*%
%ADD18C,0.250000*%
%TD*%
%TA.AperFunction,Conductor*%
%ADD19C,0.200000*%
%TD*%
G04 APERTURE END LIST*
D10*
%TO.P,L2,2,2*%
%TO.N,/5V*%
X125600000Y-99850000D03*
%TO.P,L2,1,1*%
%TO.N,Net-(C5-Pad1)*%
X101800000Y-99850000D03*
%TD*%
D11*
%TO.P,J9,1,Pin_1*%
%TO.N,/A-D Converter/CELL1*%
X104900000Y-68200000D03*
D12*
%TO.P,J9,2,Pin_2*%
%TO.N,/A-D Converter/CELL2*%
X102360000Y-68200000D03*
%TO.P,J9,3,Pin_3*%
%TO.N,/A-D Converter/CELL3*%
X99820000Y-68200000D03*
%TO.P,J9,4,Pin_4*%
%TO.N,/A-D Converter/VT*%
X97280000Y-68200000D03*
%TD*%
D11*
%TO.P,J3,1,Pin_1*%
%TO.N,/3.3V*%
X137475000Y-70525000D03*
D12*
%TO.P,J3,2,Pin_2*%
%TO.N,/5V*%
X137475000Y-67985000D03*
%TO.P,J3,3,Pin_3*%
%TO.N,/SDA*%
X140015000Y-70525000D03*
%TO.P,J3,4,Pin_4*%
%TO.N,/5V*%
X140015000Y-67985000D03*
%TO.P,J3,5,Pin_5*%
%TO.N,/SCL*%
X142555000Y-70525000D03*
%TO.P,J3,6,Pin_6*%
%TO.N,GND*%
X142555000Y-67985000D03*
%TD*%
D11*
%TO.P,J1,1,Pin_1*%
%TO.N,/3.3V*%
X129900000Y-113950000D03*
D12*
%TO.P,J1,2,Pin_2*%
%TO.N,unconnected-(J1-Pad2)*%
X129900000Y-116490000D03*
%TO.P,J1,3,Pin_3*%
%TO.N,GND*%
X129900000Y-119030000D03*
%TO.P,J1,4,Pin_4*%
%TO.N,/SCL*%
X129900000Y-121570000D03*
%TO.P,J1,5,Pin_5*%
%TO.N,/SDA*%
X129900000Y-124110000D03*
%TO.P,J1,6,Pin_6*%
%TO.N,unconnected-(J1-Pad6)*%
X129900000Y-126650000D03*
%TD*%
D11*
%TO.P,J2,1,Pin_1*%
%TO.N,/3.3V*%
X151000000Y-79400000D03*
D12*
%TO.P,J2,2,Pin_2*%
%TO.N,/5V*%
X153540000Y-79400000D03*
%TO.P,J2,3,Pin_3*%
%TO.N,/SDA*%
X151000000Y-81940000D03*
%TO.P,J2,4,Pin_4*%
%TO.N,/5V*%
X153540000Y-81940000D03*
%TO.P,J2,5,Pin_5*%
%TO.N,/SCL*%
X151000000Y-84480000D03*
%TO.P,J2,6,Pin_6*%
%TO.N,GND*%
X153540000Y-84480000D03*
%TO.P,J2,7,Pin_7*%
%TO.N,unconnected-(J2-Pad7)*%
X151000000Y-87020000D03*
%TO.P,J2,8,Pin_8*%
%TO.N,unconnected-(J2-Pad8)*%
X153540000Y-87020000D03*
%TO.P,J2,9,Pin_9*%
%TO.N,unconnected-(J2-Pad9)*%
X151000000Y-89560000D03*
%TO.P,J2,10,Pin_10*%
%TO.N,unconnected-(J2-Pad10)*%
X153540000Y-89560000D03*
%TO.P,J2,11,Pin_11*%
%TO.N,unconnected-(J2-Pad11)*%
X151000000Y-92100000D03*
%TO.P,J2,12,Pin_12*%
%TO.N,unconnected-(J2-Pad12)*%
X153540000Y-92100000D03*
%TO.P,J2,13,Pin_13*%
%TO.N,unconnected-(J2-Pad13)*%
X151000000Y-94640000D03*
%TO.P,J2,14,Pin_14*%
%TO.N,unconnected-(J2-Pad14)*%
X153540000Y-94640000D03*
%TO.P,J2,15,Pin_15*%
%TO.N,unconnected-(J2-Pad15)*%
X151000000Y-97180000D03*
%TO.P,J2,16,Pin_16*%
%TO.N,unconnected-(J2-Pad16)*%
X153540000Y-97180000D03*
%TO.P,J2,17,Pin_17*%
%TO.N,unconnected-(J2-Pad17)*%
X151000000Y-99720000D03*
%TO.P,J2,18,Pin_18*%
%TO.N,unconnected-(J2-Pad18)*%
X153540000Y-99720000D03*
%TO.P,J2,19,Pin_19*%
%TO.N,/MOSI*%
X151000000Y-102260000D03*
%TO.P,J2,20,Pin_20*%
%TO.N,unconnected-(J2-Pad20)*%
X153540000Y-102260000D03*
%TO.P,J2,21,Pin_21*%
%TO.N,/MISO*%
X151000000Y-104800000D03*
%TO.P,J2,22,Pin_22*%
%TO.N,unconnected-(J2-Pad22)*%
X153540000Y-104800000D03*
%TO.P,J2,23,Pin_23*%
%TO.N,/SCLK*%
X151000000Y-107340000D03*
%TO.P,J2,24,Pin_24*%
%TO.N,/CS*%
X153540000Y-107340000D03*
%TO.P,J2,25,Pin_25*%
%TO.N,unconnected-(J2-Pad25)*%
X151000000Y-109880000D03*
%TO.P,J2,26,Pin_26*%
%TO.N,unconnected-(J2-Pad26)*%
X153540000Y-109880000D03*
%TO.P,J2,27,Pin_27*%
%TO.N,unconnected-(J2-Pad27)*%
X151000000Y-112420000D03*
%TO.P,J2,28,Pin_28*%
%TO.N,unconnected-(J2-Pad28)*%
X153540000Y-112420000D03*
%TO.P,J2,29,Pin_29*%
%TO.N,unconnected-(J2-Pad29)*%
X151000000Y-114960000D03*
%TO.P,J2,30,Pin_30*%
%TO.N,unconnected-(J2-Pad30)*%
X153540000Y-114960000D03*
%TO.P,J2,31,Pin_31*%
%TO.N,unconnected-(J2-Pad31)*%
X151000000Y-117500000D03*
%TO.P,J2,32,Pin_32*%
%TO.N,unconnected-(J2-Pad32)*%
X153540000Y-117500000D03*
%TO.P,J2,33,Pin_33*%
%TO.N,unconnected-(J2-Pad33)*%
X151000000Y-120040000D03*
%TO.P,J2,34,Pin_34*%
%TO.N,unconnected-(J2-Pad34)*%
X153540000Y-120040000D03*
%TO.P,J2,35,Pin_35*%
%TO.N,unconnected-(J2-Pad35)*%
X151000000Y-122580000D03*
%TO.P,J2,36,Pin_36*%
%TO.N,unconnected-(J2-Pad36)*%
X153540000Y-122580000D03*
%TO.P,J2,37,Pin_37*%
%TO.N,unconnected-(J2-Pad37)*%
X151000000Y-125120000D03*
%TO.P,J2,38,Pin_38*%
%TO.N,unconnected-(J2-Pad38)*%
X153540000Y-125120000D03*
%TO.P,J2,39,Pin_39*%
%TO.N,unconnected-(J2-Pad39)*%
X151000000Y-127660000D03*
%TO.P,J2,40,Pin_40*%
%TO.N,unconnected-(J2-Pad40)*%
X153540000Y-127660000D03*
%TD*%
D11*
%TO.P,J4,1,Pin_1*%
%TO.N,12V*%
X96550000Y-96000000D03*
D12*
%TO.P,J4,2,Pin_2*%
%TO.N,GND*%
X96550000Y-98540000D03*
%TO.P,J4,3,Pin_3*%
%TO.N,/SCL*%
X96550000Y-101080000D03*
%TO.P,J4,4,Pin_4*%
%TO.N,/SDA*%
X96550000Y-103620000D03*
%TD*%
D13*
%TO.P,J5,1,+*%
%TO.N,12V*%
X120100000Y-82000000D03*
D14*
%TO.P,J5,2,-*%
%TO.N,GND*%
X112900000Y-82000000D03*
D15*
%TO.P,J5,S1*%
%TO.N,N/C*%
X123250000Y-76000000D03*
%TO.P,J5,S2*%
X109750000Y-76000000D03*
%TD*%
D11*
%TO.P,J6,1,Pin_1*%
%TO.N,12V*%
X160350000Y-96000000D03*
D12*
%TO.P,J6,2,Pin_2*%
%TO.N,GND*%
X160350000Y-98540000D03*
%TO.P,J6,3,Pin_3*%
%TO.N,/SCL*%
X160350000Y-101080000D03*
%TO.P,J6,4,Pin_4*%
%TO.N,/SDA*%
X160350000Y-103620000D03*
%TD*%
D11*
%TO.P,J7,1,Pin_1*%
%TO.N,/5V*%
X96550000Y-83875000D03*
D12*
%TO.P,J7,2,Pin_2*%
%TO.N,GND*%
X96550000Y-86415000D03*
%TO.P,J7,3,Pin_3*%
%TO.N,/PS*%
X96550000Y-88955000D03*
%TD*%
D16*
%TO.N,GND*%
X135300000Y-76200000D03*
%TO.N,Net-(C5-Pad1)*%
X107400000Y-88230500D03*
%TO.N,GND*%
X138300000Y-82000000D03*
X131700000Y-82300000D03*
%TO.N,/3.3V*%
X133100000Y-102075500D03*
%TO.N,/MOSI*%
X140600000Y-100400000D03*
%TO.N,/MISO*%
X139000000Y-100900000D03*
%TO.N,/CS*%
X142000000Y-99700000D03*
%TO.N,Net-(C4-Pad1)*%
X139700000Y-75900000D03*
X137450000Y-79750000D03*
%TO.N,Net-(C5-Pad1)*%
X125400000Y-77900000D03*
%TO.N,Net-(R3-Pad1)*%
X131150000Y-79450000D03*
X138500000Y-75750000D03*
%TO.N,/PS*%
X131500000Y-91100000D03*
%TO.N,/SCLK*%
X137500000Y-101300000D03*
%TD*%
D17*
%TO.N,12V*%
X96550000Y-96000000D02*
X96100000Y-96000000D01*
X96100000Y-96000000D02*
X93900000Y-93800000D01*
X93900000Y-93800000D02*
X93900000Y-81400000D01*
X93900000Y-81400000D02*
X96400000Y-78900000D01*
X117000000Y-78900000D02*
X120100000Y-82000000D01*
X96400000Y-78900000D02*
X117000000Y-78900000D01*
D18*
%TO.N,GND*%
X135100000Y-76000000D02*
X135300000Y-76200000D01*
X135100000Y-67900000D02*
X135100000Y-76000000D01*
X141170000Y-66600000D02*
X140500000Y-66600000D01*
X142555000Y-67985000D02*
X141170000Y-66600000D01*
X140500000Y-66600000D02*
X136400000Y-66600000D01*
X136400000Y-66600000D02*
X135100000Y-67900000D01*
%TO.N,/5V*%
X96550000Y-83875000D02*
X94900000Y-85525000D01*
X94900000Y-85525000D02*
X94900000Y-89600000D01*
X94900000Y-89600000D02*
X101200000Y-95900000D01*
X101200000Y-95900000D02*
X120150000Y-95900000D01*
X120150000Y-95900000D02*
X124100000Y-99850000D01*
%TO.N,Net-(C5-Pad1)*%
X113800000Y-87800000D02*
X107830500Y-87800000D01*
X107830500Y-87800000D02*
X107400000Y-88230500D01*
X113800000Y-87800000D02*
X121900000Y-87800000D01*
%TO.N,GND*%
X131700000Y-82300000D02*
X138000000Y-82300000D01*
X138000000Y-82300000D02*
X138300000Y-82000000D01*
%TO.N,/3.3V*%
X131750000Y-113950000D02*
X129900000Y-113950000D01*
X133100000Y-102075500D02*
X133100000Y-112600000D01*
X133100000Y-112600000D02*
X131750000Y-113950000D01*
%TO.N,/MOSI*%
X148560000Y-104700000D02*
X144800000Y-104700000D01*
X140600000Y-100500000D02*
X140600000Y-100400000D01*
X151000000Y-102260000D02*
X148560000Y-104700000D01*
X144800000Y-104700000D02*
X140600000Y-100500000D01*
%TO.N,/MISO*%
X149800000Y-106000000D02*
X144100000Y-106000000D01*
X144100000Y-106000000D02*
X139000000Y-100900000D01*
X151000000Y-104800000D02*
X149800000Y-106000000D01*
%TO.N,/CS*%
X152300000Y-106100000D02*
X153540000Y-107340000D01*
X142000000Y-99700000D02*
X143300000Y-101000000D01*
X151900000Y-101000000D02*
X152300000Y-101400000D01*
X143300000Y-101000000D02*
X151900000Y-101000000D01*
X152300000Y-101400000D02*
X152300000Y-106100000D01*
%TO.N,GND*%
X160350000Y-98540000D02*
X161700000Y-97190000D01*
X161700000Y-85400000D02*
X160780000Y-84480000D01*
X160780000Y-84480000D02*
X153540000Y-84480000D01*
X161700000Y-97190000D02*
X161700000Y-85400000D01*
%TO.N,/SCL*%
X162600000Y-84100000D02*
X161614511Y-83114511D01*
X157400000Y-105500000D02*
X157400000Y-103400000D01*
X160350000Y-101080000D02*
X162600000Y-98830000D01*
X98300000Y-111200000D02*
X98300000Y-102830000D01*
D19*
X139538856Y-69375489D02*
X138865489Y-70048856D01*
X142555000Y-70525000D02*
X141405489Y-69375489D01*
D18*
X161614511Y-83114511D02*
X152365489Y-83114511D01*
X152365489Y-83114511D02*
X151000000Y-84480000D01*
X149800000Y-108600000D02*
X154300000Y-108600000D01*
X98300000Y-102830000D02*
X96550000Y-101080000D01*
X136830000Y-121570000D02*
X149800000Y-108600000D01*
D19*
X141405489Y-69375489D02*
X139538856Y-69375489D01*
D18*
X154300000Y-108600000D02*
X157400000Y-105500000D01*
X162600000Y-98830000D02*
X162600000Y-84100000D01*
D19*
X138865489Y-70048856D02*
X138865489Y-72345489D01*
X138865489Y-72345489D02*
X151000000Y-84480000D01*
D18*
X129900000Y-121570000D02*
X108670000Y-121570000D01*
X129900000Y-121570000D02*
X136830000Y-121570000D01*
X159720000Y-101080000D02*
X160350000Y-101080000D01*
X108670000Y-121570000D02*
X98300000Y-111200000D01*
X157400000Y-103400000D02*
X159720000Y-101080000D01*
D19*
%TO.N,/SDA*%
X140015000Y-70525000D02*
X140015000Y-72715000D01*
D18*
X155200000Y-108400000D02*
X159980000Y-103620000D01*
X108563604Y-122100000D02*
X96550000Y-110086396D01*
X152174511Y-80765489D02*
X151000000Y-81940000D01*
X163700000Y-83000000D02*
X161465489Y-80765489D01*
X129900000Y-124110000D02*
X134926396Y-124110000D01*
X159980000Y-103620000D02*
X160350000Y-103620000D01*
X161465489Y-80765489D02*
X152174511Y-80765489D01*
X154200000Y-111200000D02*
X155200000Y-110200000D01*
X129900000Y-124110000D02*
X127890000Y-122100000D01*
X127890000Y-122100000D02*
X108563604Y-122100000D01*
X160350000Y-103620000D02*
X162580000Y-103620000D01*
X163700000Y-102500000D02*
X163700000Y-83000000D01*
D19*
X140015000Y-72715000D02*
X149240000Y-81940000D01*
D18*
X147836396Y-111200000D02*
X154200000Y-111200000D01*
X155200000Y-110200000D02*
X155200000Y-108400000D01*
X162580000Y-103620000D02*
X163700000Y-102500000D01*
X134926396Y-124110000D02*
X147836396Y-111200000D01*
D19*
X149240000Y-81940000D02*
X151000000Y-81940000D01*
D18*
X96550000Y-110086396D02*
X96550000Y-103620000D01*
D19*
%TO.N,Net-(C4-Pad1)*%
X139250000Y-76100000D02*
X139450000Y-75900000D01*
X137450000Y-79750000D02*
X139000000Y-78200000D01*
X139000000Y-78200000D02*
X139000000Y-76350000D01*
X139450000Y-75900000D02*
X139700000Y-75900000D01*
X139000000Y-76350000D02*
X139250000Y-76100000D01*
D18*
%TO.N,Net-(C5-Pad1)*%
X125400000Y-84300000D02*
X125400000Y-77900000D01*
X121900000Y-87800000D02*
X125300000Y-84400000D01*
X125300000Y-84400000D02*
X125400000Y-84300000D01*
%TO.N,Net-(R3-Pad1)*%
X137150000Y-78550000D02*
X132050000Y-78550000D01*
X137150000Y-78550000D02*
X138500000Y-77200000D01*
X138500000Y-77200000D02*
X138500000Y-75750000D01*
X132050000Y-78550000D02*
X131150000Y-79450000D01*
%TO.N,/PS*%
X129355000Y-88955000D02*
X131500000Y-91100000D01*
X96550000Y-88955000D02*
X129355000Y-88955000D01*
%TO.N,/SCLK*%
X143540000Y-107340000D02*
X151000000Y-107340000D01*
X137500000Y-101300000D02*
X143540000Y-107340000D01*
%TD*%
M02*
