%TF.GenerationSoftware,KiCad,Pcbnew,6.0.8-f2edbf62ab~116~ubuntu22.04.1*%
%TF.CreationDate,2022-11-20T23:03:40-05:00*%
%TF.ProjectId,Pi_HAT_V3,50695f48-4154-45f5-9633-2e6b69636164,rev?*%
%TF.SameCoordinates,Original*%
%TF.FileFunction,Legend,Bot*%
%TF.FilePolarity,Positive*%
%FSLAX46Y46*%
G04 Gerber Fmt 4.6, Leading zero omitted, Abs format (unit mm)*
G04 Created by KiCad (PCBNEW 6.0.8-f2edbf62ab~116~ubuntu22.04.1) date 2022-11-20 23:03:40*
%MOMM*%
%LPD*%
G01*
G04 APERTURE LIST*
%ADD10C,0.150000*%
%ADD11C,0.120000*%
%ADD12C,0.127000*%
%ADD13C,0.200000*%
G04 APERTURE END LIST*
D10*
%TO.C,L2*%
X113666666Y-99302380D02*
X114142857Y-99302380D01*
X114142857Y-98302380D01*
X113380952Y-98397619D02*
X113333333Y-98350000D01*
X113238095Y-98302380D01*
X113000000Y-98302380D01*
X112904761Y-98350000D01*
X112857142Y-98397619D01*
X112809523Y-98492857D01*
X112809523Y-98588095D01*
X112857142Y-98730952D01*
X113428571Y-99302380D01*
X112809523Y-99302380D01*
%TO.C,C7*%
X109966666Y-103007142D02*
X110014285Y-103054761D01*
X110157142Y-103102380D01*
X110252380Y-103102380D01*
X110395238Y-103054761D01*
X110490476Y-102959523D01*
X110538095Y-102864285D01*
X110585714Y-102673809D01*
X110585714Y-102530952D01*
X110538095Y-102340476D01*
X110490476Y-102245238D01*
X110395238Y-102150000D01*
X110252380Y-102102380D01*
X110157142Y-102102380D01*
X110014285Y-102150000D01*
X109966666Y-102197619D01*
X109633333Y-102102380D02*
X108966666Y-102102380D01*
X109395238Y-103102380D01*
%TO.C,C9*%
X131241666Y-79062142D02*
X131289285Y-79109761D01*
X131432142Y-79157380D01*
X131527380Y-79157380D01*
X131670238Y-79109761D01*
X131765476Y-79014523D01*
X131813095Y-78919285D01*
X131860714Y-78728809D01*
X131860714Y-78585952D01*
X131813095Y-78395476D01*
X131765476Y-78300238D01*
X131670238Y-78205000D01*
X131527380Y-78157380D01*
X131432142Y-78157380D01*
X131289285Y-78205000D01*
X131241666Y-78252619D01*
X130765476Y-79157380D02*
X130575000Y-79157380D01*
X130479761Y-79109761D01*
X130432142Y-79062142D01*
X130336904Y-78919285D01*
X130289285Y-78728809D01*
X130289285Y-78347857D01*
X130336904Y-78252619D01*
X130384523Y-78205000D01*
X130479761Y-78157380D01*
X130670238Y-78157380D01*
X130765476Y-78205000D01*
X130813095Y-78252619D01*
X130860714Y-78347857D01*
X130860714Y-78585952D01*
X130813095Y-78681190D01*
X130765476Y-78728809D01*
X130670238Y-78776428D01*
X130479761Y-78776428D01*
X130384523Y-78728809D01*
X130336904Y-78681190D01*
X130289285Y-78585952D01*
%TO.C,C3*%
X135177142Y-80583333D02*
X135224761Y-80535714D01*
X135272380Y-80392857D01*
X135272380Y-80297619D01*
X135224761Y-80154761D01*
X135129523Y-80059523D01*
X135034285Y-80011904D01*
X134843809Y-79964285D01*
X134700952Y-79964285D01*
X134510476Y-80011904D01*
X134415238Y-80059523D01*
X134320000Y-80154761D01*
X134272380Y-80297619D01*
X134272380Y-80392857D01*
X134320000Y-80535714D01*
X134367619Y-80583333D01*
X134272380Y-80916666D02*
X134272380Y-81535714D01*
X134653333Y-81202380D01*
X134653333Y-81345238D01*
X134700952Y-81440476D01*
X134748571Y-81488095D01*
X134843809Y-81535714D01*
X135081904Y-81535714D01*
X135177142Y-81488095D01*
X135224761Y-81440476D01*
X135272380Y-81345238D01*
X135272380Y-81059523D01*
X135224761Y-80964285D01*
X135177142Y-80916666D01*
%TO.C,C6*%
X113666666Y-97057142D02*
X113714285Y-97104761D01*
X113857142Y-97152380D01*
X113952380Y-97152380D01*
X114095238Y-97104761D01*
X114190476Y-97009523D01*
X114238095Y-96914285D01*
X114285714Y-96723809D01*
X114285714Y-96580952D01*
X114238095Y-96390476D01*
X114190476Y-96295238D01*
X114095238Y-96200000D01*
X113952380Y-96152380D01*
X113857142Y-96152380D01*
X113714285Y-96200000D01*
X113666666Y-96247619D01*
X112809523Y-96152380D02*
X113000000Y-96152380D01*
X113095238Y-96200000D01*
X113142857Y-96247619D01*
X113238095Y-96390476D01*
X113285714Y-96580952D01*
X113285714Y-96961904D01*
X113238095Y-97057142D01*
X113190476Y-97104761D01*
X113095238Y-97152380D01*
X112904761Y-97152380D01*
X112809523Y-97104761D01*
X112761904Y-97057142D01*
X112714285Y-96961904D01*
X112714285Y-96723809D01*
X112761904Y-96628571D01*
X112809523Y-96580952D01*
X112904761Y-96533333D01*
X113095238Y-96533333D01*
X113190476Y-96580952D01*
X113238095Y-96628571D01*
X113285714Y-96723809D01*
%TO.C,C1*%
X134557142Y-85308333D02*
X134604761Y-85260714D01*
X134652380Y-85117857D01*
X134652380Y-85022619D01*
X134604761Y-84879761D01*
X134509523Y-84784523D01*
X134414285Y-84736904D01*
X134223809Y-84689285D01*
X134080952Y-84689285D01*
X133890476Y-84736904D01*
X133795238Y-84784523D01*
X133700000Y-84879761D01*
X133652380Y-85022619D01*
X133652380Y-85117857D01*
X133700000Y-85260714D01*
X133747619Y-85308333D01*
X134652380Y-86260714D02*
X134652380Y-85689285D01*
X134652380Y-85975000D02*
X133652380Y-85975000D01*
X133795238Y-85879761D01*
X133890476Y-85784523D01*
X133938095Y-85689285D01*
%TO.C,C2*%
X130307142Y-85308333D02*
X130354761Y-85260714D01*
X130402380Y-85117857D01*
X130402380Y-85022619D01*
X130354761Y-84879761D01*
X130259523Y-84784523D01*
X130164285Y-84736904D01*
X129973809Y-84689285D01*
X129830952Y-84689285D01*
X129640476Y-84736904D01*
X129545238Y-84784523D01*
X129450000Y-84879761D01*
X129402380Y-85022619D01*
X129402380Y-85117857D01*
X129450000Y-85260714D01*
X129497619Y-85308333D01*
X129497619Y-85689285D02*
X129450000Y-85736904D01*
X129402380Y-85832142D01*
X129402380Y-86070238D01*
X129450000Y-86165476D01*
X129497619Y-86213095D01*
X129592857Y-86260714D01*
X129688095Y-86260714D01*
X129830952Y-86213095D01*
X130402380Y-85641666D01*
X130402380Y-86260714D01*
%TO.C,R2*%
X138022380Y-85333333D02*
X137546190Y-85000000D01*
X138022380Y-84761904D02*
X137022380Y-84761904D01*
X137022380Y-85142857D01*
X137070000Y-85238095D01*
X137117619Y-85285714D01*
X137212857Y-85333333D01*
X137355714Y-85333333D01*
X137450952Y-85285714D01*
X137498571Y-85238095D01*
X137546190Y-85142857D01*
X137546190Y-84761904D01*
X137117619Y-85714285D02*
X137070000Y-85761904D01*
X137022380Y-85857142D01*
X137022380Y-86095238D01*
X137070000Y-86190476D01*
X137117619Y-86238095D01*
X137212857Y-86285714D01*
X137308095Y-86285714D01*
X137450952Y-86238095D01*
X138022380Y-85666666D01*
X138022380Y-86285714D01*
%TO.C,C4*%
X139916666Y-82902142D02*
X139964285Y-82949761D01*
X140107142Y-82997380D01*
X140202380Y-82997380D01*
X140345238Y-82949761D01*
X140440476Y-82854523D01*
X140488095Y-82759285D01*
X140535714Y-82568809D01*
X140535714Y-82425952D01*
X140488095Y-82235476D01*
X140440476Y-82140238D01*
X140345238Y-82045000D01*
X140202380Y-81997380D01*
X140107142Y-81997380D01*
X139964285Y-82045000D01*
X139916666Y-82092619D01*
X139059523Y-82330714D02*
X139059523Y-82997380D01*
X139297619Y-81949761D02*
X139535714Y-82664047D01*
X138916666Y-82664047D01*
%TO.C,R5*%
X138466666Y-74602380D02*
X138800000Y-74126190D01*
X139038095Y-74602380D02*
X139038095Y-73602380D01*
X138657142Y-73602380D01*
X138561904Y-73650000D01*
X138514285Y-73697619D01*
X138466666Y-73792857D01*
X138466666Y-73935714D01*
X138514285Y-74030952D01*
X138561904Y-74078571D01*
X138657142Y-74126190D01*
X139038095Y-74126190D01*
X137561904Y-73602380D02*
X138038095Y-73602380D01*
X138085714Y-74078571D01*
X138038095Y-74030952D01*
X137942857Y-73983333D01*
X137704761Y-73983333D01*
X137609523Y-74030952D01*
X137561904Y-74078571D01*
X137514285Y-74173809D01*
X137514285Y-74411904D01*
X137561904Y-74507142D01*
X137609523Y-74554761D01*
X137704761Y-74602380D01*
X137942857Y-74602380D01*
X138038095Y-74554761D01*
X138085714Y-74507142D01*
%TO.C,L1*%
X143216666Y-80302380D02*
X143692857Y-80302380D01*
X143692857Y-79302380D01*
X142359523Y-80302380D02*
X142930952Y-80302380D01*
X142645238Y-80302380D02*
X142645238Y-79302380D01*
X142740476Y-79445238D01*
X142835714Y-79540476D01*
X142930952Y-79588095D01*
X144176190Y-81285714D02*
X144176190Y-81952380D01*
X144414285Y-80904761D02*
X144652380Y-81619047D01*
X144033333Y-81619047D01*
X143652380Y-81857142D02*
X143604761Y-81904761D01*
X143652380Y-81952380D01*
X143700000Y-81904761D01*
X143652380Y-81857142D01*
X143652380Y-81952380D01*
X143128571Y-81952380D02*
X142938095Y-81952380D01*
X142842857Y-81904761D01*
X142795238Y-81857142D01*
X142700000Y-81714285D01*
X142652380Y-81523809D01*
X142652380Y-81142857D01*
X142700000Y-81047619D01*
X142747619Y-81000000D01*
X142842857Y-80952380D01*
X143033333Y-80952380D01*
X143128571Y-81000000D01*
X143176190Y-81047619D01*
X143223809Y-81142857D01*
X143223809Y-81380952D01*
X143176190Y-81476190D01*
X143128571Y-81523809D01*
X143033333Y-81571428D01*
X142842857Y-81571428D01*
X142747619Y-81523809D01*
X142700000Y-81476190D01*
X142652380Y-81380952D01*
X141795238Y-81285714D02*
X141795238Y-81952380D01*
X142223809Y-81285714D02*
X142223809Y-81809523D01*
X142176190Y-81904761D01*
X142080952Y-81952380D01*
X141938095Y-81952380D01*
X141842857Y-81904761D01*
X141795238Y-81857142D01*
X143250000Y-77702380D02*
X143250000Y-77940476D01*
X143488095Y-77845238D02*
X143250000Y-77940476D01*
X143011904Y-77845238D01*
X143392857Y-78130952D02*
X143250000Y-77940476D01*
X143107142Y-78130952D01*
%TO.C,R14*%
X128542857Y-78102380D02*
X128876190Y-77626190D01*
X129114285Y-78102380D02*
X129114285Y-77102380D01*
X128733333Y-77102380D01*
X128638095Y-77150000D01*
X128590476Y-77197619D01*
X128542857Y-77292857D01*
X128542857Y-77435714D01*
X128590476Y-77530952D01*
X128638095Y-77578571D01*
X128733333Y-77626190D01*
X129114285Y-77626190D01*
X127590476Y-78102380D02*
X128161904Y-78102380D01*
X127876190Y-78102380D02*
X127876190Y-77102380D01*
X127971428Y-77245238D01*
X128066666Y-77340476D01*
X128161904Y-77388095D01*
X126733333Y-77435714D02*
X126733333Y-78102380D01*
X126971428Y-77054761D02*
X127209523Y-77769047D01*
X126590476Y-77769047D01*
%TO.C,U1*%
X129811904Y-88827380D02*
X129811904Y-89636904D01*
X129764285Y-89732142D01*
X129716666Y-89779761D01*
X129621428Y-89827380D01*
X129430952Y-89827380D01*
X129335714Y-89779761D01*
X129288095Y-89732142D01*
X129240476Y-89636904D01*
X129240476Y-88827380D01*
X128240476Y-89827380D02*
X128811904Y-89827380D01*
X128526190Y-89827380D02*
X128526190Y-88827380D01*
X128621428Y-88970238D01*
X128716666Y-89065476D01*
X128811904Y-89113095D01*
%TO.C,C8*%
X128802142Y-80583333D02*
X128849761Y-80535714D01*
X128897380Y-80392857D01*
X128897380Y-80297619D01*
X128849761Y-80154761D01*
X128754523Y-80059523D01*
X128659285Y-80011904D01*
X128468809Y-79964285D01*
X128325952Y-79964285D01*
X128135476Y-80011904D01*
X128040238Y-80059523D01*
X127945000Y-80154761D01*
X127897380Y-80297619D01*
X127897380Y-80392857D01*
X127945000Y-80535714D01*
X127992619Y-80583333D01*
X128325952Y-81154761D02*
X128278333Y-81059523D01*
X128230714Y-81011904D01*
X128135476Y-80964285D01*
X128087857Y-80964285D01*
X127992619Y-81011904D01*
X127945000Y-81059523D01*
X127897380Y-81154761D01*
X127897380Y-81345238D01*
X127945000Y-81440476D01*
X127992619Y-81488095D01*
X128087857Y-81535714D01*
X128135476Y-81535714D01*
X128230714Y-81488095D01*
X128278333Y-81440476D01*
X128325952Y-81345238D01*
X128325952Y-81154761D01*
X128373571Y-81059523D01*
X128421190Y-81011904D01*
X128516428Y-80964285D01*
X128706904Y-80964285D01*
X128802142Y-81011904D01*
X128849761Y-81059523D01*
X128897380Y-81154761D01*
X128897380Y-81345238D01*
X128849761Y-81440476D01*
X128802142Y-81488095D01*
X128706904Y-81535714D01*
X128516428Y-81535714D01*
X128421190Y-81488095D01*
X128373571Y-81440476D01*
X128325952Y-81345238D01*
%TO.C,R4*%
X139891666Y-87882380D02*
X140225000Y-87406190D01*
X140463095Y-87882380D02*
X140463095Y-86882380D01*
X140082142Y-86882380D01*
X139986904Y-86930000D01*
X139939285Y-86977619D01*
X139891666Y-87072857D01*
X139891666Y-87215714D01*
X139939285Y-87310952D01*
X139986904Y-87358571D01*
X140082142Y-87406190D01*
X140463095Y-87406190D01*
X139034523Y-87215714D02*
X139034523Y-87882380D01*
X139272619Y-86834761D02*
X139510714Y-87549047D01*
X138891666Y-87549047D01*
%TO.C,U2*%
X131085380Y-92250595D02*
X131894904Y-92250595D01*
X131990142Y-92298214D01*
X132037761Y-92345833D01*
X132085380Y-92441071D01*
X132085380Y-92631547D01*
X132037761Y-92726785D01*
X131990142Y-92774404D01*
X131894904Y-92822023D01*
X131085380Y-92822023D01*
X131180619Y-93250595D02*
X131133000Y-93298214D01*
X131085380Y-93393452D01*
X131085380Y-93631547D01*
X131133000Y-93726785D01*
X131180619Y-93774404D01*
X131275857Y-93822023D01*
X131371095Y-93822023D01*
X131513952Y-93774404D01*
X132085380Y-93202976D01*
X132085380Y-93822023D01*
%TO.C,C5*%
X113666666Y-95857142D02*
X113714285Y-95904761D01*
X113857142Y-95952380D01*
X113952380Y-95952380D01*
X114095238Y-95904761D01*
X114190476Y-95809523D01*
X114238095Y-95714285D01*
X114285714Y-95523809D01*
X114285714Y-95380952D01*
X114238095Y-95190476D01*
X114190476Y-95095238D01*
X114095238Y-95000000D01*
X113952380Y-94952380D01*
X113857142Y-94952380D01*
X113714285Y-95000000D01*
X113666666Y-95047619D01*
X112761904Y-94952380D02*
X113238095Y-94952380D01*
X113285714Y-95428571D01*
X113238095Y-95380952D01*
X113142857Y-95333333D01*
X112904761Y-95333333D01*
X112809523Y-95380952D01*
X112761904Y-95428571D01*
X112714285Y-95523809D01*
X112714285Y-95761904D01*
X112761904Y-95857142D01*
X112809523Y-95904761D01*
X112904761Y-95952380D01*
X113142857Y-95952380D01*
X113238095Y-95904761D01*
X113285714Y-95857142D01*
%TO.C,R3*%
X135491666Y-73802380D02*
X135825000Y-73326190D01*
X136063095Y-73802380D02*
X136063095Y-72802380D01*
X135682142Y-72802380D01*
X135586904Y-72850000D01*
X135539285Y-72897619D01*
X135491666Y-72992857D01*
X135491666Y-73135714D01*
X135539285Y-73230952D01*
X135586904Y-73278571D01*
X135682142Y-73326190D01*
X136063095Y-73326190D01*
X135158333Y-72802380D02*
X134539285Y-72802380D01*
X134872619Y-73183333D01*
X134729761Y-73183333D01*
X134634523Y-73230952D01*
X134586904Y-73278571D01*
X134539285Y-73373809D01*
X134539285Y-73611904D01*
X134586904Y-73707142D01*
X134634523Y-73754761D01*
X134729761Y-73802380D01*
X135015476Y-73802380D01*
X135110714Y-73754761D01*
X135158333Y-73707142D01*
D11*
%TO.C,C7*%
X114211252Y-104110000D02*
X112788748Y-104110000D01*
X114211252Y-101390000D02*
X112788748Y-101390000D01*
%TO.C,C9*%
X130928733Y-77785000D02*
X131221267Y-77785000D01*
X130928733Y-76765000D02*
X131221267Y-76765000D01*
%TO.C,C3*%
X136760000Y-80603733D02*
X136760000Y-80896267D01*
X135740000Y-80603733D02*
X135740000Y-80896267D01*
%TO.C,C6*%
X114211252Y-100210000D02*
X112788748Y-100210000D01*
X114211252Y-97490000D02*
X112788748Y-97490000D01*
%TO.C,C1*%
X130540000Y-86186252D02*
X130540000Y-84763748D01*
X133260000Y-86186252D02*
X133260000Y-84763748D01*
%TO.C,C2*%
X126290000Y-86186252D02*
X126290000Y-84763748D01*
X129010000Y-86186252D02*
X129010000Y-84763748D01*
%TO.C,R2*%
X136660000Y-86227064D02*
X136660000Y-84772936D01*
X134840000Y-86227064D02*
X134840000Y-84772936D01*
%TO.C,C4*%
X139896267Y-84485000D02*
X139603733Y-84485000D01*
X139896267Y-83465000D02*
X139603733Y-83465000D01*
%TO.C,R5*%
X135527064Y-76540000D02*
X135072936Y-76540000D01*
X135527064Y-78010000D02*
X135072936Y-78010000D01*
%TO.C,R14*%
X130822936Y-74265000D02*
X131277064Y-74265000D01*
X130822936Y-75735000D02*
X131277064Y-75735000D01*
%TO.C,C8*%
X129365000Y-80603733D02*
X129365000Y-80896267D01*
X130385000Y-80603733D02*
X130385000Y-80896267D01*
%TO.C,R4*%
X139470276Y-85477500D02*
X139979724Y-85477500D01*
X139470276Y-86522500D02*
X139979724Y-86522500D01*
D12*
%TO.C,U2*%
X142575000Y-91737500D02*
X142575000Y-95637500D01*
X132445000Y-91737500D02*
X132445000Y-95637500D01*
D13*
X132565000Y-89332500D02*
G75*
G03*
X132565000Y-89332500I-100000J0D01*
G01*
D11*
%TO.C,C5*%
X112788748Y-91840000D02*
X114211252Y-91840000D01*
X112788748Y-94560000D02*
X114211252Y-94560000D01*
%TO.C,R3*%
X135552064Y-74265000D02*
X135097936Y-74265000D01*
X135552064Y-75735000D02*
X135097936Y-75735000D01*
%TD*%
M02*
