M48
; DRILL file {KiCad 6.0.8-f2edbf62ab~116~ubuntu22.04.1} date Sun 20 Nov 2022 11:03:38 PM EST
; FORMAT={-:-/ absolute / inch / decimal}
; #@! TF.CreationDate,2022-11-20T23:03:38-05:00
; #@! TF.GenerationSoftware,Kicad,Pcbnew,6.0.8-f2edbf62ab~116~ubuntu22.04.1
; #@! TF.FileFunction,Plated,1,2,PTH
FMAT,2
INCH
; #@! TA.AperFunction,Plated,PTH,ViaDrill
T1C0.0157
; #@! TA.AperFunction,Plated,PTH,ComponentDrill
T2C0.0236
; #@! TA.AperFunction,Plated,PTH,ComponentDrill
T3C0.0394
; #@! TA.AperFunction,Plated,PTH,ComponentDrill
T4C0.0787
; #@! TA.AperFunction,Plated,PTH,ComponentDrill
T5C0.1063
%
G90
G05
T1
X4.2283Y-3.4736
X4.937Y-3.0669
X5.1634Y-3.128
X5.1772Y-3.5866
X5.185Y-3.2402
X5.2402Y-4.0187
X5.3268Y-3.0
X5.4114Y-3.1398
X5.4134Y-3.9882
X5.4449Y-3.2283
X5.4528Y-2.9823
X5.4724Y-3.9724
X5.5Y-2.9882
X5.5354Y-3.9528
X5.5906Y-3.9252
T3
X3.8012Y-3.3022
X3.8012Y-3.4022
X3.8012Y-3.5022
X3.8012Y-3.7795
X3.8012Y-3.8795
X3.8012Y-3.9795
X3.8012Y-4.0795
X3.8299Y-2.685
X3.9299Y-2.685
X4.0299Y-2.685
X4.1299Y-2.685
X5.1142Y-4.4862
X5.1142Y-4.5862
X5.1142Y-4.6862
X5.1142Y-4.7862
X5.1142Y-4.8862
X5.1142Y-4.9862
X5.4124Y-2.6766
X5.4124Y-2.7766
X5.5124Y-2.6766
X5.5124Y-2.7766
X5.6124Y-2.6766
X5.6124Y-2.7766
X5.9449Y-3.126
X5.9449Y-3.226
X5.9449Y-3.326
X5.9449Y-3.426
X5.9449Y-3.526
X5.9449Y-3.626
X5.9449Y-3.726
X5.9449Y-3.826
X5.9449Y-3.926
X5.9449Y-4.026
X5.9449Y-4.126
X5.9449Y-4.226
X5.9449Y-4.326
X5.9449Y-4.426
X5.9449Y-4.526
X5.9449Y-4.626
X5.9449Y-4.726
X5.9449Y-4.826
X5.9449Y-4.926
X5.9449Y-5.026
X6.0449Y-3.126
X6.0449Y-3.226
X6.0449Y-3.326
X6.0449Y-3.426
X6.0449Y-3.526
X6.0449Y-3.626
X6.0449Y-3.726
X6.0449Y-3.826
X6.0449Y-3.926
X6.0449Y-4.026
X6.0449Y-4.126
X6.0449Y-4.226
X6.0449Y-4.326
X6.0449Y-4.426
X6.0449Y-4.526
X6.0449Y-4.626
X6.0449Y-4.726
X6.0449Y-4.826
X6.0449Y-4.926
X6.0449Y-5.026
X6.313Y-3.7795
X6.313Y-3.8795
X6.313Y-3.9795
X6.313Y-4.0795
T4
X4.0079Y-3.9311
X4.9449Y-3.9311
T5
X4.4449Y-3.2283
X4.7283Y-3.2283
T2
G00X4.3209Y-2.9705
M15
G01X4.3209Y-3.0138
M16
G05
G00X4.8524Y-2.9705
M15
G01X4.8524Y-3.0138
M16
G05
T0
M30
