%TF.GenerationSoftware,KiCad,Pcbnew,6.0.8-f2edbf62ab~116~ubuntu22.04.1*%
%TF.CreationDate,2022-11-20T23:03:40-05:00*%
%TF.ProjectId,Pi_HAT_V3,50695f48-4154-45f5-9633-2e6b69636164,rev?*%
%TF.SameCoordinates,Original*%
%TF.FileFunction,Soldermask,Top*%
%TF.FilePolarity,Negative*%
%FSLAX46Y46*%
G04 Gerber Fmt 4.6, Leading zero omitted, Abs format (unit mm)*
G04 Created by KiCad (PCBNEW 6.0.8-f2edbf62ab~116~ubuntu22.04.1) date 2022-11-20 23:03:40*
%MOMM*%
%LPD*%
G01*
G04 APERTURE LIST*
%ADD10C,3.000000*%
%ADD11R,1.700000X1.700000*%
%ADD12O,1.700000X1.700000*%
%ADD13C,2.500000*%
%ADD14R,3.716000X3.716000*%
%ADD15C,3.716000*%
%ADD16O,1.200000X2.400000*%
G04 APERTURE END LIST*
D10*
%TO.C,L2*%
X125600000Y-99850000D03*
X101800000Y-99850000D03*
%TD*%
D11*
%TO.C,J9*%
X104900000Y-68200000D03*
D12*
X102360000Y-68200000D03*
X99820000Y-68200000D03*
X97280000Y-68200000D03*
%TD*%
D11*
%TO.C,J3*%
X137475000Y-70525000D03*
D12*
X137475000Y-67985000D03*
X140015000Y-70525000D03*
X140015000Y-67985000D03*
X142555000Y-70525000D03*
X142555000Y-67985000D03*
%TD*%
D13*
%TO.C,H1*%
X152500000Y-74500000D03*
%TD*%
%TO.C,H2*%
X102500000Y-74500000D03*
%TD*%
%TO.C,H3*%
X102500000Y-132500000D03*
%TD*%
D11*
%TO.C,J1*%
X129900000Y-113950000D03*
D12*
X129900000Y-116490000D03*
X129900000Y-119030000D03*
X129900000Y-121570000D03*
X129900000Y-124110000D03*
X129900000Y-126650000D03*
%TD*%
D13*
%TO.C,H4*%
X152500000Y-132500000D03*
%TD*%
D11*
%TO.C,J2*%
X151000000Y-79400000D03*
D12*
X153540000Y-79400000D03*
X151000000Y-81940000D03*
X153540000Y-81940000D03*
X151000000Y-84480000D03*
X153540000Y-84480000D03*
X151000000Y-87020000D03*
X153540000Y-87020000D03*
X151000000Y-89560000D03*
X153540000Y-89560000D03*
X151000000Y-92100000D03*
X153540000Y-92100000D03*
X151000000Y-94640000D03*
X153540000Y-94640000D03*
X151000000Y-97180000D03*
X153540000Y-97180000D03*
X151000000Y-99720000D03*
X153540000Y-99720000D03*
X151000000Y-102260000D03*
X153540000Y-102260000D03*
X151000000Y-104800000D03*
X153540000Y-104800000D03*
X151000000Y-107340000D03*
X153540000Y-107340000D03*
X151000000Y-109880000D03*
X153540000Y-109880000D03*
X151000000Y-112420000D03*
X153540000Y-112420000D03*
X151000000Y-114960000D03*
X153540000Y-114960000D03*
X151000000Y-117500000D03*
X153540000Y-117500000D03*
X151000000Y-120040000D03*
X153540000Y-120040000D03*
X151000000Y-122580000D03*
X153540000Y-122580000D03*
X151000000Y-125120000D03*
X153540000Y-125120000D03*
X151000000Y-127660000D03*
X153540000Y-127660000D03*
%TD*%
D11*
%TO.C,J4*%
X96550000Y-96000000D03*
D12*
X96550000Y-98540000D03*
X96550000Y-101080000D03*
X96550000Y-103620000D03*
%TD*%
D14*
%TO.C,J5*%
X120100000Y-82000000D03*
D15*
X112900000Y-82000000D03*
D16*
X123250000Y-76000000D03*
X109750000Y-76000000D03*
%TD*%
D11*
%TO.C,J6*%
X160350000Y-96000000D03*
D12*
X160350000Y-98540000D03*
X160350000Y-101080000D03*
X160350000Y-103620000D03*
%TD*%
D11*
%TO.C,J7*%
X96550000Y-83875000D03*
D12*
X96550000Y-86415000D03*
X96550000Y-88955000D03*
%TD*%
M02*
