%TF.GenerationSoftware,KiCad,Pcbnew,6.0.8-f2edbf62ab~116~ubuntu22.04.1*%
%TF.CreationDate,2022-11-23T03:00:06-05:00*%
%TF.ProjectId,MJBOTS-CubeSat,4d4a424f-5453-42d4-9375-62655361742e,rev?*%
%TF.SameCoordinates,Original*%
%TF.FileFunction,Legend,Top*%
%TF.FilePolarity,Positive*%
%FSLAX46Y46*%
G04 Gerber Fmt 4.6, Leading zero omitted, Abs format (unit mm)*
G04 Created by KiCad (PCBNEW 6.0.8-f2edbf62ab~116~ubuntu22.04.1) date 2022-11-23 03:00:06*
%MOMM*%
%LPD*%
G01*
G04 APERTURE LIST*
%ADD10C,0.125000*%
%ADD11C,0.150000*%
%ADD12C,0.254000*%
%ADD13C,0.120000*%
%ADD14C,0.100000*%
%ADD15C,0.127000*%
G04 APERTURE END LIST*
D10*
X151726190Y-126678571D02*
X151702380Y-126702380D01*
X151630952Y-126726190D01*
X151583333Y-126726190D01*
X151511904Y-126702380D01*
X151464285Y-126654761D01*
X151440476Y-126607142D01*
X151416666Y-126511904D01*
X151416666Y-126440476D01*
X151440476Y-126345238D01*
X151464285Y-126297619D01*
X151511904Y-126250000D01*
X151583333Y-126226190D01*
X151630952Y-126226190D01*
X151702380Y-126250000D01*
X151726190Y-126273809D01*
X151916666Y-126583333D02*
X152154761Y-126583333D01*
X151869047Y-126726190D02*
X152035714Y-126226190D01*
X152202380Y-126726190D01*
X152369047Y-126726190D02*
X152369047Y-126226190D01*
X152654761Y-126726190D01*
X152654761Y-126226190D01*
X152773809Y-126773809D02*
X153154761Y-126773809D01*
X153273809Y-126726190D02*
X153273809Y-126226190D01*
X153273809Y-126464285D02*
X153559523Y-126464285D01*
X153559523Y-126726190D02*
X153559523Y-126226190D01*
X123526190Y-126678571D02*
X123502380Y-126702380D01*
X123430952Y-126726190D01*
X123383333Y-126726190D01*
X123311904Y-126702380D01*
X123264285Y-126654761D01*
X123240476Y-126607142D01*
X123216666Y-126511904D01*
X123216666Y-126440476D01*
X123240476Y-126345238D01*
X123264285Y-126297619D01*
X123311904Y-126250000D01*
X123383333Y-126226190D01*
X123430952Y-126226190D01*
X123502380Y-126250000D01*
X123526190Y-126273809D01*
X123716666Y-126583333D02*
X123954761Y-126583333D01*
X123669047Y-126726190D02*
X123835714Y-126226190D01*
X124002380Y-126726190D01*
X124169047Y-126726190D02*
X124169047Y-126226190D01*
X124454761Y-126726190D01*
X124454761Y-126226190D01*
X124573809Y-126773809D02*
X124954761Y-126773809D01*
X125073809Y-126726190D02*
X125073809Y-126226190D01*
X125073809Y-126464285D02*
X125359523Y-126464285D01*
X125359523Y-126726190D02*
X125359523Y-126226190D01*
X95921428Y-114626190D02*
X95897619Y-114602380D01*
X95873809Y-114530952D01*
X95873809Y-114483333D01*
X95897619Y-114411904D01*
X95945238Y-114364285D01*
X95992857Y-114340476D01*
X96088095Y-114316666D01*
X96159523Y-114316666D01*
X96254761Y-114340476D01*
X96302380Y-114364285D01*
X96350000Y-114411904D01*
X96373809Y-114483333D01*
X96373809Y-114530952D01*
X96350000Y-114602380D01*
X96326190Y-114626190D01*
X96016666Y-114816666D02*
X96016666Y-115054761D01*
X95873809Y-114769047D02*
X96373809Y-114935714D01*
X95873809Y-115102380D01*
X95873809Y-115269047D02*
X96373809Y-115269047D01*
X95873809Y-115554761D01*
X96373809Y-115554761D01*
X95826190Y-115673809D02*
X95826190Y-116054761D01*
X95873809Y-116173809D02*
X96373809Y-116173809D01*
X96135714Y-116173809D02*
X96135714Y-116459523D01*
X95873809Y-116459523D02*
X96373809Y-116459523D01*
D11*
%TO.C,H7*%
X129188095Y-101052380D02*
X129188095Y-100052380D01*
X129188095Y-100528571D02*
X129759523Y-100528571D01*
X129759523Y-101052380D02*
X129759523Y-100052380D01*
X130140476Y-100052380D02*
X130807142Y-100052380D01*
X130378571Y-101052380D01*
%TO.C,H5*%
X154238095Y-100952380D02*
X154238095Y-99952380D01*
X154238095Y-100428571D02*
X154809523Y-100428571D01*
X154809523Y-100952380D02*
X154809523Y-99952380D01*
X155761904Y-99952380D02*
X155285714Y-99952380D01*
X155238095Y-100428571D01*
X155285714Y-100380952D01*
X155380952Y-100333333D01*
X155619047Y-100333333D01*
X155714285Y-100380952D01*
X155761904Y-100428571D01*
X155809523Y-100523809D01*
X155809523Y-100761904D01*
X155761904Y-100857142D01*
X155714285Y-100904761D01*
X155619047Y-100952380D01*
X155380952Y-100952380D01*
X155285714Y-100904761D01*
X155238095Y-100857142D01*
%TO.C,J4*%
X141826666Y-81342380D02*
X141826666Y-82056666D01*
X141779047Y-82199523D01*
X141683809Y-82294761D01*
X141540952Y-82342380D01*
X141445714Y-82342380D01*
X142731428Y-81675714D02*
X142731428Y-82342380D01*
X142493333Y-81294761D02*
X142255238Y-82009047D01*
X142874285Y-82009047D01*
D12*
%TO.C,J9*%
X109976666Y-118604523D02*
X109976666Y-119511666D01*
X109916190Y-119693095D01*
X109795238Y-119814047D01*
X109613809Y-119874523D01*
X109492857Y-119874523D01*
X110641904Y-119874523D02*
X110883809Y-119874523D01*
X111004761Y-119814047D01*
X111065238Y-119753571D01*
X111186190Y-119572142D01*
X111246666Y-119330238D01*
X111246666Y-118846428D01*
X111186190Y-118725476D01*
X111125714Y-118665000D01*
X111004761Y-118604523D01*
X110762857Y-118604523D01*
X110641904Y-118665000D01*
X110581428Y-118725476D01*
X110520952Y-118846428D01*
X110520952Y-119148809D01*
X110581428Y-119269761D01*
X110641904Y-119330238D01*
X110762857Y-119390714D01*
X111004761Y-119390714D01*
X111125714Y-119330238D01*
X111186190Y-119269761D01*
X111246666Y-119148809D01*
D11*
%TO.C,J1*%
X153661666Y-43922380D02*
X153661666Y-44636666D01*
X153614047Y-44779523D01*
X153518809Y-44874761D01*
X153375952Y-44922380D01*
X153280714Y-44922380D01*
X154661666Y-44922380D02*
X154090238Y-44922380D01*
X154375952Y-44922380D02*
X154375952Y-43922380D01*
X154280714Y-44065238D01*
X154185476Y-44160476D01*
X154090238Y-44208095D01*
%TO.C,J2*%
X162372380Y-62633333D02*
X163086666Y-62633333D01*
X163229523Y-62680952D01*
X163324761Y-62776190D01*
X163372380Y-62919047D01*
X163372380Y-63014285D01*
X162467619Y-62204761D02*
X162420000Y-62157142D01*
X162372380Y-62061904D01*
X162372380Y-61823809D01*
X162420000Y-61728571D01*
X162467619Y-61680952D01*
X162562857Y-61633333D01*
X162658095Y-61633333D01*
X162800952Y-61680952D01*
X163372380Y-62252380D01*
X163372380Y-61633333D01*
%TO.C,J7*%
X126737519Y-49214809D02*
X126737519Y-49929410D01*
X126689879Y-50072330D01*
X126594599Y-50167610D01*
X126451679Y-50215250D01*
X126356399Y-50215250D01*
X127118640Y-49214809D02*
X127785600Y-49214809D01*
X127356840Y-50215250D01*
%TO.C,U1*%
X168802380Y-87111904D02*
X169611904Y-87111904D01*
X169707142Y-87064285D01*
X169754761Y-87016666D01*
X169802380Y-86921428D01*
X169802380Y-86730952D01*
X169754761Y-86635714D01*
X169707142Y-86588095D01*
X169611904Y-86540476D01*
X168802380Y-86540476D01*
X169802380Y-85540476D02*
X169802380Y-86111904D01*
X169802380Y-85826190D02*
X168802380Y-85826190D01*
X168945238Y-85921428D01*
X169040476Y-86016666D01*
X169088095Y-86111904D01*
%TO.C,J6*%
X98666666Y-109997380D02*
X98666666Y-110711666D01*
X98619047Y-110854523D01*
X98523809Y-110949761D01*
X98380952Y-110997380D01*
X98285714Y-110997380D01*
X99571428Y-109997380D02*
X99380952Y-109997380D01*
X99285714Y-110045000D01*
X99238095Y-110092619D01*
X99142857Y-110235476D01*
X99095238Y-110425952D01*
X99095238Y-110806904D01*
X99142857Y-110902142D01*
X99190476Y-110949761D01*
X99285714Y-110997380D01*
X99476190Y-110997380D01*
X99571428Y-110949761D01*
X99619047Y-110902142D01*
X99666666Y-110806904D01*
X99666666Y-110568809D01*
X99619047Y-110473571D01*
X99571428Y-110425952D01*
X99476190Y-110378333D01*
X99285714Y-110378333D01*
X99190476Y-110425952D01*
X99142857Y-110473571D01*
X99095238Y-110568809D01*
%TO.C,J3*%
X116066666Y-52352380D02*
X116066666Y-53066666D01*
X116019047Y-53209523D01*
X115923809Y-53304761D01*
X115780952Y-53352380D01*
X115685714Y-53352380D01*
X116447619Y-52352380D02*
X117066666Y-52352380D01*
X116733333Y-52733333D01*
X116876190Y-52733333D01*
X116971428Y-52780952D01*
X117019047Y-52828571D01*
X117066666Y-52923809D01*
X117066666Y-53161904D01*
X117019047Y-53257142D01*
X116971428Y-53304761D01*
X116876190Y-53352380D01*
X116590476Y-53352380D01*
X116495238Y-53304761D01*
X116447619Y-53257142D01*
%TO.C,H2*%
X178238095Y-53952380D02*
X178238095Y-52952380D01*
X178238095Y-53428571D02*
X178809523Y-53428571D01*
X178809523Y-53952380D02*
X178809523Y-52952380D01*
X179238095Y-53047619D02*
X179285714Y-53000000D01*
X179380952Y-52952380D01*
X179619047Y-52952380D01*
X179714285Y-53000000D01*
X179761904Y-53047619D01*
X179809523Y-53142857D01*
X179809523Y-53238095D01*
X179761904Y-53380952D01*
X179190476Y-53952380D01*
X179809523Y-53952380D01*
%TO.C,H3*%
X95138095Y-127152380D02*
X95138095Y-126152380D01*
X95138095Y-126628571D02*
X95709523Y-126628571D01*
X95709523Y-127152380D02*
X95709523Y-126152380D01*
X96090476Y-126152380D02*
X96709523Y-126152380D01*
X96376190Y-126533333D01*
X96519047Y-126533333D01*
X96614285Y-126580952D01*
X96661904Y-126628571D01*
X96709523Y-126723809D01*
X96709523Y-126961904D01*
X96661904Y-127057142D01*
X96614285Y-127104761D01*
X96519047Y-127152380D01*
X96233333Y-127152380D01*
X96138095Y-127104761D01*
X96090476Y-127057142D01*
%TO.C,J12*%
X123490476Y-120552380D02*
X123490476Y-121266666D01*
X123442857Y-121409523D01*
X123347619Y-121504761D01*
X123204761Y-121552380D01*
X123109523Y-121552380D01*
X124490476Y-121552380D02*
X123919047Y-121552380D01*
X124204761Y-121552380D02*
X124204761Y-120552380D01*
X124109523Y-120695238D01*
X124014285Y-120790476D01*
X123919047Y-120838095D01*
X124871428Y-120647619D02*
X124919047Y-120600000D01*
X125014285Y-120552380D01*
X125252380Y-120552380D01*
X125347619Y-120600000D01*
X125395238Y-120647619D01*
X125442857Y-120742857D01*
X125442857Y-120838095D01*
X125395238Y-120980952D01*
X124823809Y-121552380D01*
X125442857Y-121552380D01*
D12*
%TO.C,J8*%
X165776666Y-118704523D02*
X165776666Y-119611666D01*
X165716190Y-119793095D01*
X165595238Y-119914047D01*
X165413809Y-119974523D01*
X165292857Y-119974523D01*
X166562857Y-119248809D02*
X166441904Y-119188333D01*
X166381428Y-119127857D01*
X166320952Y-119006904D01*
X166320952Y-118946428D01*
X166381428Y-118825476D01*
X166441904Y-118765000D01*
X166562857Y-118704523D01*
X166804761Y-118704523D01*
X166925714Y-118765000D01*
X166986190Y-118825476D01*
X167046666Y-118946428D01*
X167046666Y-119006904D01*
X166986190Y-119127857D01*
X166925714Y-119188333D01*
X166804761Y-119248809D01*
X166562857Y-119248809D01*
X166441904Y-119309285D01*
X166381428Y-119369761D01*
X166320952Y-119490714D01*
X166320952Y-119732619D01*
X166381428Y-119853571D01*
X166441904Y-119914047D01*
X166562857Y-119974523D01*
X166804761Y-119974523D01*
X166925714Y-119914047D01*
X166986190Y-119853571D01*
X167046666Y-119732619D01*
X167046666Y-119490714D01*
X166986190Y-119369761D01*
X166925714Y-119309285D01*
X166804761Y-119248809D01*
D11*
%TO.C,J5*%
X151966666Y-120552380D02*
X151966666Y-121266666D01*
X151919047Y-121409523D01*
X151823809Y-121504761D01*
X151680952Y-121552380D01*
X151585714Y-121552380D01*
X152919047Y-120552380D02*
X152442857Y-120552380D01*
X152395238Y-121028571D01*
X152442857Y-120980952D01*
X152538095Y-120933333D01*
X152776190Y-120933333D01*
X152871428Y-120980952D01*
X152919047Y-121028571D01*
X152966666Y-121123809D01*
X152966666Y-121361904D01*
X152919047Y-121457142D01*
X152871428Y-121504761D01*
X152776190Y-121552380D01*
X152538095Y-121552380D01*
X152442857Y-121504761D01*
X152395238Y-121457142D01*
%TO.C,H1*%
X174138095Y-124952380D02*
X174138095Y-123952380D01*
X174138095Y-124428571D02*
X174709523Y-124428571D01*
X174709523Y-124952380D02*
X174709523Y-123952380D01*
X175709523Y-124952380D02*
X175138095Y-124952380D01*
X175423809Y-124952380D02*
X175423809Y-123952380D01*
X175328571Y-124095238D01*
X175233333Y-124190476D01*
X175138095Y-124238095D01*
%TO.C,H4*%
X98238095Y-53452380D02*
X98238095Y-52452380D01*
X98238095Y-52928571D02*
X98809523Y-52928571D01*
X98809523Y-53452380D02*
X98809523Y-52452380D01*
X99714285Y-52785714D02*
X99714285Y-53452380D01*
X99476190Y-52404761D02*
X99238095Y-53119047D01*
X99857142Y-53119047D01*
D12*
%TO.C,J10*%
X137171904Y-118604523D02*
X137171904Y-119511666D01*
X137111428Y-119693095D01*
X136990476Y-119814047D01*
X136809047Y-119874523D01*
X136688095Y-119874523D01*
X138441904Y-119874523D02*
X137716190Y-119874523D01*
X138079047Y-119874523D02*
X138079047Y-118604523D01*
X137958095Y-118785952D01*
X137837142Y-118906904D01*
X137716190Y-118967380D01*
X139228095Y-118604523D02*
X139349047Y-118604523D01*
X139470000Y-118665000D01*
X139530476Y-118725476D01*
X139590952Y-118846428D01*
X139651428Y-119088333D01*
X139651428Y-119390714D01*
X139590952Y-119632619D01*
X139530476Y-119753571D01*
X139470000Y-119814047D01*
X139349047Y-119874523D01*
X139228095Y-119874523D01*
X139107142Y-119814047D01*
X139046666Y-119753571D01*
X138986190Y-119632619D01*
X138925714Y-119390714D01*
X138925714Y-119088333D01*
X138986190Y-118846428D01*
X139046666Y-118725476D01*
X139107142Y-118665000D01*
X139228095Y-118604523D01*
D11*
%TO.C,H6*%
X119238095Y-49202380D02*
X119238095Y-48202380D01*
X119238095Y-48678571D02*
X119809523Y-48678571D01*
X119809523Y-49202380D02*
X119809523Y-48202380D01*
X120714285Y-48202380D02*
X120523809Y-48202380D01*
X120428571Y-48250000D01*
X120380952Y-48297619D01*
X120285714Y-48440476D01*
X120238095Y-48630952D01*
X120238095Y-49011904D01*
X120285714Y-49107142D01*
X120333333Y-49154761D01*
X120428571Y-49202380D01*
X120619047Y-49202380D01*
X120714285Y-49154761D01*
X120761904Y-49107142D01*
X120809523Y-49011904D01*
X120809523Y-48773809D01*
X120761904Y-48678571D01*
X120714285Y-48630952D01*
X120619047Y-48583333D01*
X120428571Y-48583333D01*
X120333333Y-48630952D01*
X120285714Y-48678571D01*
X120238095Y-48773809D01*
D13*
%TO.C,J4*%
X147700000Y-81351325D02*
X147950000Y-81784338D01*
X127735000Y-68270000D02*
X156585000Y-68270000D01*
X147950000Y-81784338D02*
X147450000Y-81784338D01*
X134293530Y-76841744D02*
X135192798Y-71741744D01*
X147450000Y-81784338D02*
X147700000Y-81351325D01*
X157645000Y-69330000D02*
X157645000Y-79830000D01*
X147492421Y-70370000D02*
X136827579Y-70370000D01*
X148391689Y-78790000D02*
X135928311Y-78790000D01*
X126675000Y-79830000D02*
X126675000Y-69330000D01*
X150026470Y-76841744D02*
X149127202Y-71741744D01*
X156585000Y-80890000D02*
X127735000Y-80890000D01*
X149127202Y-71741744D02*
G75*
G03*
X147492421Y-70370000I-1634783J-288259D01*
G01*
X126675000Y-79830000D02*
G75*
G03*
X127735000Y-80890000I1060000J0D01*
G01*
X148391689Y-78790000D02*
G75*
G03*
X150026470Y-76841744I1J1659999D01*
G01*
X127735000Y-68270000D02*
G75*
G03*
X126675000Y-69330000I0J-1060000D01*
G01*
X134293519Y-76841742D02*
G75*
G03*
X135928311Y-78790000I1634781J-288258D01*
G01*
X156585000Y-80890000D02*
G75*
G03*
X157645000Y-79830000I-1J1060001D01*
G01*
X157645000Y-69330000D02*
G75*
G03*
X156585000Y-68270000I-1060001J-1D01*
G01*
X136827579Y-70369999D02*
G75*
G03*
X135192798Y-71741744I1J-1660001D01*
G01*
D14*
%TO.C,J9*%
X115350000Y-126487000D02*
X105450000Y-126487000D01*
X105450000Y-126487000D02*
X105450000Y-124537000D01*
X115350000Y-112538000D02*
X114400000Y-112538000D01*
X115350000Y-122037000D02*
X115350000Y-112538000D01*
X115350000Y-124537000D02*
X115350000Y-126487000D01*
X105450000Y-112538000D02*
X105450000Y-122037000D01*
X106400000Y-112538000D02*
X105450000Y-112538000D01*
D13*
%TO.C,J1*%
X151395000Y-46800000D02*
X151395000Y-45470000D01*
X153995000Y-45470000D02*
X156595000Y-45470000D01*
X151395000Y-48070000D02*
X151395000Y-53210000D01*
X151395000Y-45470000D02*
X152725000Y-45470000D01*
X153995000Y-48070000D02*
X153995000Y-45470000D01*
X156595000Y-45470000D02*
X156595000Y-53210000D01*
X151395000Y-48070000D02*
X153995000Y-48070000D01*
X151395000Y-53210000D02*
X156595000Y-53210000D01*
%TO.C,J2*%
X166520000Y-60970000D02*
X179280000Y-60970000D01*
X165250000Y-63630000D02*
X163920000Y-63630000D01*
X166520000Y-63630000D02*
X179280000Y-63630000D01*
X179280000Y-63630000D02*
X179280000Y-60970000D01*
X163920000Y-63630000D02*
X163920000Y-62300000D01*
X166520000Y-63630000D02*
X166520000Y-60970000D01*
D15*
%TO.C,J7*%
X136110000Y-65960000D02*
X136110000Y-67230000D01*
X140050000Y-63650000D02*
X138078000Y-63650000D01*
X140050000Y-63650000D02*
X140050000Y-45450000D01*
X124550000Y-45450000D02*
X124550000Y-63650000D01*
X140050000Y-45450000D02*
X124550000Y-45450000D01*
X137380000Y-65960000D02*
X136110000Y-65960000D01*
X130878000Y-63650000D02*
X133722000Y-63650000D01*
X124550000Y-63650000D02*
X126522000Y-63650000D01*
X134840000Y-65960000D02*
X136110000Y-65960000D01*
X136110000Y-65960000D02*
X136110000Y-64690000D01*
D13*
%TO.C,U1*%
X161350000Y-108350000D02*
X181350000Y-108350000D01*
X181350000Y-108350000D02*
X181350000Y-65350000D01*
X181350000Y-65350000D02*
X161350000Y-65350000D01*
X161350000Y-65350000D02*
X161350000Y-108350000D01*
%TO.C,J6*%
X100330000Y-114145000D02*
X100330000Y-119285000D01*
X97670000Y-114145000D02*
X100330000Y-114145000D01*
X97670000Y-111545000D02*
X99000000Y-111545000D01*
X97670000Y-119285000D02*
X100330000Y-119285000D01*
X97670000Y-112875000D02*
X97670000Y-111545000D01*
X97670000Y-114145000D02*
X97670000Y-119285000D01*
%TO.C,J3*%
X117595000Y-106665000D02*
X122795000Y-106665000D01*
X117595000Y-58345000D02*
X120195000Y-58345000D01*
X122795000Y-55745000D02*
X122795000Y-106665000D01*
X117595000Y-55745000D02*
X118925000Y-55745000D01*
X117595000Y-57075000D02*
X117595000Y-55745000D01*
X117595000Y-58345000D02*
X117595000Y-106665000D01*
X120195000Y-55745000D02*
X122795000Y-55745000D01*
X120195000Y-58345000D02*
X120195000Y-55745000D01*
%TO.C,J12*%
X128230000Y-122270000D02*
X128230000Y-123600000D01*
X125630000Y-122270000D02*
X120490000Y-122270000D01*
X125630000Y-124930000D02*
X120490000Y-124930000D01*
X125630000Y-122270000D02*
X125630000Y-124930000D01*
X126900000Y-122270000D02*
X128230000Y-122270000D01*
X120490000Y-122270000D02*
X120490000Y-124930000D01*
D14*
%TO.C,J8*%
X171150000Y-126587000D02*
X161250000Y-126587000D01*
X171150000Y-124637000D02*
X171150000Y-126587000D01*
X162200000Y-112638000D02*
X161250000Y-112638000D01*
X171150000Y-112638000D02*
X170200000Y-112638000D01*
X161250000Y-126587000D02*
X161250000Y-124637000D01*
X161250000Y-112638000D02*
X161250000Y-122137000D01*
X171150000Y-122137000D02*
X171150000Y-112638000D01*
D13*
%TO.C,J5*%
X148515000Y-122270000D02*
X148515000Y-124930000D01*
X154925000Y-122270000D02*
X156255000Y-122270000D01*
X153655000Y-122270000D02*
X153655000Y-124930000D01*
X153655000Y-122270000D02*
X148515000Y-122270000D01*
X156255000Y-122270000D02*
X156255000Y-123600000D01*
X153655000Y-124930000D02*
X148515000Y-124930000D01*
D14*
%TO.C,J10*%
X143150000Y-126487000D02*
X133250000Y-126487000D01*
X133250000Y-112538000D02*
X133250000Y-122037000D01*
X143150000Y-124537000D02*
X143150000Y-126487000D01*
X143150000Y-112538000D02*
X142200000Y-112538000D01*
X134200000Y-112538000D02*
X133250000Y-112538000D01*
X133250000Y-126487000D02*
X133250000Y-124537000D01*
X143150000Y-122037000D02*
X143150000Y-112538000D01*
%TD*%
M02*
