M48
; DRILL file {KiCad 6.0.8-f2edbf62ab~116~ubuntu22.04.1} date Wed 23 Nov 2022 03:00:09 AM EST
; FORMAT={-:-/ absolute / inch / decimal}
; #@! TF.CreationDate,2022-11-23T03:00:09-05:00
; #@! TF.GenerationSoftware,Kicad,Pcbnew,6.0.8-f2edbf62ab~116~ubuntu22.04.1
; #@! TF.FileFunction,Plated,1,2,PTH
FMAT,2
INCH
; #@! TA.AperFunction,Plated,PTH,ViaDrill
T1C0.0157
; #@! TA.AperFunction,Plated,PTH,ComponentDrill
T2C0.0236
; #@! TA.AperFunction,Plated,PTH,ComponentDrill
T3C0.0394
; #@! TA.AperFunction,Plated,PTH,ComponentDrill
T4C0.0669
; #@! TA.AperFunction,Plated,PTH,ComponentDrill
T5C0.1063
%
G90
G05
T1
X4.8543Y-1.9606
T3
X3.8976Y-4.4439
X3.8976Y-4.5439
X3.8976Y-4.6439
X4.1299Y-4.8578
X4.563Y-4.8578
X4.6821Y-2.247
X4.6821Y-2.347
X4.6821Y-2.447
X4.6821Y-2.547
X4.6821Y-2.647
X4.6821Y-2.747
X4.6821Y-2.847
X4.6821Y-2.947
X4.6821Y-3.047
X4.6821Y-3.147
X4.6821Y-3.247
X4.6821Y-3.347
X4.6821Y-3.447
X4.6821Y-3.547
X4.6821Y-3.647
X4.6821Y-3.747
X4.6821Y-3.847
X4.6821Y-3.947
X4.6821Y-4.047
X4.6821Y-4.147
X4.7821Y-2.247
X4.7821Y-2.347
X4.7821Y-2.447
X4.7821Y-2.547
X4.7821Y-2.647
X4.7821Y-2.747
X4.7821Y-2.847
X4.7821Y-2.947
X4.7821Y-3.047
X4.7821Y-3.147
X4.7821Y-3.247
X4.7821Y-3.347
X4.7821Y-3.447
X4.7821Y-3.547
X4.7821Y-3.647
X4.7821Y-3.747
X4.7821Y-3.847
X4.7821Y-3.947
X4.7821Y-4.047
X4.7821Y-4.147
X4.7961Y-4.8661
X4.8961Y-4.8661
X4.9961Y-4.8661
X5.2244Y-4.8578
X5.3787Y-2.9921
X5.4333Y-2.8803
X5.4878Y-2.9921
X5.5423Y-2.8803
X5.5969Y-2.9921
X5.6514Y-2.8803
X5.6575Y-4.8578
X5.7059Y-2.9921
X5.7604Y-2.8803
X5.815Y-2.9921
X5.8994Y-4.8661
X5.9994Y-4.8661
X6.0128Y-1.8425
X6.0128Y-1.9425
X6.0128Y-2.0425
X6.0994Y-4.8661
X6.1128Y-1.8425
X6.1128Y-1.9425
X6.1128Y-2.0425
X6.3268Y-4.8617
X6.4017Y-2.6502
X6.4075Y-4.2028
X6.5059Y-2.4528
X6.6059Y-2.4528
X6.7059Y-2.4528
X6.7598Y-4.8617
X6.8059Y-2.4528
X6.9059Y-2.4528
X7.0059Y-2.4528
X7.0768Y-2.6398
X7.0807Y-4.1969
T4
X4.248Y-4.4641
X4.4449Y-4.4641
X5.3425Y-4.4641
X5.5394Y-4.4641
X6.4449Y-4.468
X6.6417Y-4.468
T5
X5.0669Y-2.4331
X5.3504Y-2.4331
T2
G00X4.9429Y-2.1752
M15
G01X4.9429Y-2.2185
M16
G05
G00X5.4744Y-2.1752
M15
G01X5.4744Y-2.2185
M16
G05
T0
M30
