%TF.GenerationSoftware,KiCad,Pcbnew,6.0.8-f2edbf62ab~116~ubuntu22.04.1*%
%TF.CreationDate,2022-11-23T03:00:06-05:00*%
%TF.ProjectId,MJBOTS-CubeSat,4d4a424f-5453-42d4-9375-62655361742e,rev?*%
%TF.SameCoordinates,Original*%
%TF.FileFunction,Soldermask,Top*%
%TF.FilePolarity,Negative*%
%FSLAX46Y46*%
G04 Gerber Fmt 4.6, Leading zero omitted, Abs format (unit mm)*
G04 Created by KiCad (PCBNEW 6.0.8-f2edbf62ab~116~ubuntu22.04.1) date 2022-11-23 03:00:06*
%MOMM*%
%LPD*%
G01*
G04 APERTURE LIST*
%ADD10C,2.500000*%
%ADD11R,1.600000X1.600000*%
%ADD12C,1.600000*%
%ADD13C,2.550000*%
%ADD14C,1.500000*%
%ADD15R,1.700000X1.700000*%
%ADD16O,1.700000X1.700000*%
%ADD17R,3.716000X3.716000*%
%ADD18C,3.716000*%
%ADD19O,1.200000X2.400000*%
%ADD20R,2.000000X2.000000*%
G04 APERTURE END LIST*
D10*
%TO.C,H7*%
X129950000Y-104100000D03*
%TD*%
%TO.C,H5*%
X155000000Y-104000000D03*
%TD*%
D11*
%TO.C,J4*%
X147700000Y-76000000D03*
D12*
X144930000Y-76000000D03*
X142160000Y-76000000D03*
X139390000Y-76000000D03*
X136620000Y-76000000D03*
X146315000Y-73160000D03*
X143545000Y-73160000D03*
X140775000Y-73160000D03*
X138005000Y-73160000D03*
%TD*%
D13*
%TO.C,J9*%
X112900000Y-113388000D03*
X107900000Y-113388000D03*
D14*
X104900000Y-123388000D03*
X115900000Y-123388000D03*
%TD*%
D15*
%TO.C,J1*%
X152725000Y-46800000D03*
D16*
X155265000Y-46800000D03*
X152725000Y-49340000D03*
X155265000Y-49340000D03*
X152725000Y-51880000D03*
X155265000Y-51880000D03*
%TD*%
D15*
%TO.C,J2*%
X165250000Y-62300000D03*
D16*
X167790000Y-62300000D03*
X170330000Y-62300000D03*
X172870000Y-62300000D03*
X175410000Y-62300000D03*
X177950000Y-62300000D03*
%TD*%
D17*
%TO.C,J7*%
X135900000Y-61800000D03*
D18*
X128700000Y-61800000D03*
D19*
X139050000Y-55800000D03*
X125550000Y-55800000D03*
%TD*%
D20*
%TO.C,U1*%
X162750000Y-106750000D03*
X179850000Y-106600000D03*
X162602000Y-67314000D03*
X179750000Y-67050000D03*
%TD*%
D15*
%TO.C,J6*%
X99000000Y-112875000D03*
D16*
X99000000Y-115415000D03*
X99000000Y-117955000D03*
%TD*%
D15*
%TO.C,J3*%
X118925000Y-57075000D03*
D16*
X121465000Y-57075000D03*
X118925000Y-59615000D03*
X121465000Y-59615000D03*
X118925000Y-62155000D03*
X121465000Y-62155000D03*
X118925000Y-64695000D03*
X121465000Y-64695000D03*
X118925000Y-67235000D03*
X121465000Y-67235000D03*
X118925000Y-69775000D03*
X121465000Y-69775000D03*
X118925000Y-72315000D03*
X121465000Y-72315000D03*
X118925000Y-74855000D03*
X121465000Y-74855000D03*
X118925000Y-77395000D03*
X121465000Y-77395000D03*
X118925000Y-79935000D03*
X121465000Y-79935000D03*
X118925000Y-82475000D03*
X121465000Y-82475000D03*
X118925000Y-85015000D03*
X121465000Y-85015000D03*
X118925000Y-87555000D03*
X121465000Y-87555000D03*
X118925000Y-90095000D03*
X121465000Y-90095000D03*
X118925000Y-92635000D03*
X121465000Y-92635000D03*
X118925000Y-95175000D03*
X121465000Y-95175000D03*
X118925000Y-97715000D03*
X121465000Y-97715000D03*
X118925000Y-100255000D03*
X121465000Y-100255000D03*
X118925000Y-102795000D03*
X121465000Y-102795000D03*
X118925000Y-105335000D03*
X121465000Y-105335000D03*
%TD*%
D10*
%TO.C,H2*%
X179000000Y-49000000D03*
%TD*%
%TO.C,H3*%
X98900000Y-124000000D03*
%TD*%
D15*
%TO.C,J12*%
X126900000Y-123600000D03*
D16*
X124360000Y-123600000D03*
X121820000Y-123600000D03*
%TD*%
D14*
%TO.C,J8*%
X171700000Y-123488000D03*
X160700000Y-123488000D03*
D13*
X163700000Y-113488000D03*
X168700000Y-113488000D03*
%TD*%
D16*
%TO.C,J5*%
X149845000Y-123600000D03*
X152385000Y-123600000D03*
D15*
X154925000Y-123600000D03*
%TD*%
D10*
%TO.C,H1*%
X178900000Y-124000000D03*
%TD*%
%TO.C,H4*%
X99000000Y-49000000D03*
%TD*%
D13*
%TO.C,J10*%
X140700000Y-113388000D03*
X135700000Y-113388000D03*
D14*
X132700000Y-123388000D03*
X143700000Y-123388000D03*
%TD*%
D10*
%TO.C,H6*%
X120000000Y-52250000D03*
%TD*%
M02*
