%TF.GenerationSoftware,KiCad,Pcbnew,6.0.8-f2edbf62ab~116~ubuntu22.04.1*%
%TF.CreationDate,2022-11-23T03:00:05-05:00*%
%TF.ProjectId,MJBOTS-CubeSat,4d4a424f-5453-42d4-9375-62655361742e,rev?*%
%TF.SameCoordinates,Original*%
%TF.FileFunction,Copper,L1,Top*%
%TF.FilePolarity,Positive*%
%FSLAX46Y46*%
G04 Gerber Fmt 4.6, Leading zero omitted, Abs format (unit mm)*
G04 Created by KiCad (PCBNEW 6.0.8-f2edbf62ab~116~ubuntu22.04.1) date 2022-11-23 03:00:05*
%MOMM*%
%LPD*%
G01*
G04 APERTURE LIST*
%TA.AperFunction,ComponentPad*%
%ADD10R,1.600000X1.600000*%
%TD*%
%TA.AperFunction,ComponentPad*%
%ADD11C,1.600000*%
%TD*%
%TA.AperFunction,ComponentPad*%
%ADD12C,2.550000*%
%TD*%
%TA.AperFunction,ComponentPad*%
%ADD13C,1.500000*%
%TD*%
%TA.AperFunction,ComponentPad*%
%ADD14R,1.700000X1.700000*%
%TD*%
%TA.AperFunction,ComponentPad*%
%ADD15O,1.700000X1.700000*%
%TD*%
%TA.AperFunction,ComponentPad*%
%ADD16R,3.716000X3.716000*%
%TD*%
%TA.AperFunction,ComponentPad*%
%ADD17C,3.716000*%
%TD*%
%TA.AperFunction,ComponentPad*%
%ADD18O,1.200000X2.400000*%
%TD*%
%TA.AperFunction,ComponentPad*%
%ADD19R,2.000000X2.000000*%
%TD*%
%TA.AperFunction,ViaPad*%
%ADD20C,1.000000*%
%TD*%
%TA.AperFunction,Conductor*%
%ADD21C,0.250000*%
%TD*%
%TA.AperFunction,Conductor*%
%ADD22C,0.300000*%
%TD*%
%TA.AperFunction,Conductor*%
%ADD23C,1.000000*%
%TD*%
G04 APERTURE END LIST*
D10*
%TO.P,J4,1,1*%
%TO.N,unconnected-(J4-Pad1)*%
X147700000Y-76000000D03*
D11*
%TO.P,J4,2,2*%
%TO.N,/CAN_L*%
X144930000Y-76000000D03*
%TO.P,J4,3,3*%
%TO.N,GND*%
X142160000Y-76000000D03*
%TO.P,J4,4,4*%
%TO.N,unconnected-(J4-Pad4)*%
X139390000Y-76000000D03*
%TO.P,J4,5,5*%
%TO.N,unconnected-(J4-Pad5)*%
X136620000Y-76000000D03*
%TO.P,J4,6,6*%
%TO.N,unconnected-(J4-Pad6)*%
X146315000Y-73160000D03*
%TO.P,J4,7,7*%
%TO.N,/CAN_H*%
X143545000Y-73160000D03*
%TO.P,J4,8,8*%
%TO.N,unconnected-(J4-Pad8)*%
X140775000Y-73160000D03*
%TO.P,J4,9,9*%
%TO.N,unconnected-(J4-Pad9)*%
X138005000Y-73160000D03*
%TD*%
D12*
%TO.P,J9,1,+*%
%TO.N,/VCC*%
X112900000Y-113388000D03*
%TO.P,J9,2,-*%
%TO.N,GND*%
X107900000Y-113388000D03*
D13*
%TO.P,J9,3*%
%TO.N,N/C*%
X104900000Y-123388000D03*
%TO.P,J9,4*%
X115900000Y-123388000D03*
%TD*%
D14*
%TO.P,J1,1,Pin_1*%
%TO.N,/3.3V*%
X152725000Y-46800000D03*
D15*
%TO.P,J1,2,Pin_2*%
%TO.N,/5V*%
X155265000Y-46800000D03*
%TO.P,J1,3,Pin_3*%
%TO.N,/SDA*%
X152725000Y-49340000D03*
%TO.P,J1,4,Pin_4*%
%TO.N,/5V*%
X155265000Y-49340000D03*
%TO.P,J1,5,Pin_5*%
%TO.N,/SCL*%
X152725000Y-51880000D03*
%TO.P,J1,6,Pin_6*%
%TO.N,GND*%
X155265000Y-51880000D03*
%TD*%
D14*
%TO.P,J2,1,Pin_1*%
%TO.N,/3.3V*%
X165250000Y-62300000D03*
D15*
%TO.P,J2,2,Pin_2*%
%TO.N,unconnected-(J2-Pad2)*%
X167790000Y-62300000D03*
%TO.P,J2,3,Pin_3*%
%TO.N,GND*%
X170330000Y-62300000D03*
%TO.P,J2,4,Pin_4*%
%TO.N,/SCL*%
X172870000Y-62300000D03*
%TO.P,J2,5,Pin_5*%
%TO.N,/SDA*%
X175410000Y-62300000D03*
%TO.P,J2,6,Pin_6*%
%TO.N,unconnected-(J2-Pad6)*%
X177950000Y-62300000D03*
%TD*%
D16*
%TO.P,J7,1,+*%
%TO.N,/VCC*%
X135900000Y-61800000D03*
D17*
%TO.P,J7,2,-*%
%TO.N,GND*%
X128700000Y-61800000D03*
D18*
%TO.P,J7,S1*%
%TO.N,N/C*%
X139050000Y-55800000D03*
%TO.P,J7,S2*%
X125550000Y-55800000D03*
%TD*%
D19*
%TO.P,U1,1,IN+*%
%TO.N,/VCC*%
X162750000Y-106750000D03*
%TO.P,U1,2,IN-*%
%TO.N,GND*%
X179850000Y-106600000D03*
%TO.P,U1,3,OUT+*%
%TO.N,/5V*%
X162602000Y-67314000D03*
%TO.P,U1,4,OUT-*%
%TO.N,GND*%
X179750000Y-67050000D03*
%TD*%
D14*
%TO.P,J6,1,Pin_1*%
%TO.N,GND*%
X99000000Y-112875000D03*
D15*
%TO.P,J6,2,Pin_2*%
%TO.N,/CAN_H*%
X99000000Y-115415000D03*
%TO.P,J6,3,Pin_3*%
%TO.N,/CAN_L*%
X99000000Y-117955000D03*
%TD*%
D14*
%TO.P,J3,1,Pin_1*%
%TO.N,/3.3V*%
X118925000Y-57075000D03*
D15*
%TO.P,J3,2,Pin_2*%
%TO.N,/5V*%
X121465000Y-57075000D03*
%TO.P,J3,3,Pin_3*%
%TO.N,/SDA*%
X118925000Y-59615000D03*
%TO.P,J3,4,Pin_4*%
%TO.N,/5V*%
X121465000Y-59615000D03*
%TO.P,J3,5,Pin_5*%
%TO.N,/SCL*%
X118925000Y-62155000D03*
%TO.P,J3,6,Pin_6*%
%TO.N,GND*%
X121465000Y-62155000D03*
%TO.P,J3,7,Pin_7*%
%TO.N,unconnected-(J3-Pad7)*%
X118925000Y-64695000D03*
%TO.P,J3,8,Pin_8*%
%TO.N,unconnected-(J3-Pad8)*%
X121465000Y-64695000D03*
%TO.P,J3,9,Pin_9*%
%TO.N,unconnected-(J3-Pad9)*%
X118925000Y-67235000D03*
%TO.P,J3,10,Pin_10*%
%TO.N,unconnected-(J3-Pad10)*%
X121465000Y-67235000D03*
%TO.P,J3,11,Pin_11*%
%TO.N,unconnected-(J3-Pad11)*%
X118925000Y-69775000D03*
%TO.P,J3,12,Pin_12*%
%TO.N,unconnected-(J3-Pad12)*%
X121465000Y-69775000D03*
%TO.P,J3,13,Pin_13*%
%TO.N,unconnected-(J3-Pad13)*%
X118925000Y-72315000D03*
%TO.P,J3,14,Pin_14*%
%TO.N,unconnected-(J3-Pad14)*%
X121465000Y-72315000D03*
%TO.P,J3,15,Pin_15*%
%TO.N,unconnected-(J3-Pad15)*%
X118925000Y-74855000D03*
%TO.P,J3,16,Pin_16*%
%TO.N,unconnected-(J3-Pad16)*%
X121465000Y-74855000D03*
%TO.P,J3,17,Pin_17*%
%TO.N,unconnected-(J3-Pad17)*%
X118925000Y-77395000D03*
%TO.P,J3,18,Pin_18*%
%TO.N,unconnected-(J3-Pad18)*%
X121465000Y-77395000D03*
%TO.P,J3,19,Pin_19*%
%TO.N,/MOSI*%
X118925000Y-79935000D03*
%TO.P,J3,20,Pin_20*%
%TO.N,unconnected-(J3-Pad20)*%
X121465000Y-79935000D03*
%TO.P,J3,21,Pin_21*%
%TO.N,/MISO*%
X118925000Y-82475000D03*
%TO.P,J3,22,Pin_22*%
%TO.N,unconnected-(J3-Pad22)*%
X121465000Y-82475000D03*
%TO.P,J3,23,Pin_23*%
%TO.N,/SCLK*%
X118925000Y-85015000D03*
%TO.P,J3,24,Pin_24*%
%TO.N,/CS*%
X121465000Y-85015000D03*
%TO.P,J3,25,Pin_25*%
%TO.N,unconnected-(J3-Pad25)*%
X118925000Y-87555000D03*
%TO.P,J3,26,Pin_26*%
%TO.N,unconnected-(J3-Pad26)*%
X121465000Y-87555000D03*
%TO.P,J3,27,Pin_27*%
%TO.N,unconnected-(J3-Pad27)*%
X118925000Y-90095000D03*
%TO.P,J3,28,Pin_28*%
%TO.N,unconnected-(J3-Pad28)*%
X121465000Y-90095000D03*
%TO.P,J3,29,Pin_29*%
%TO.N,unconnected-(J3-Pad29)*%
X118925000Y-92635000D03*
%TO.P,J3,30,Pin_30*%
%TO.N,unconnected-(J3-Pad30)*%
X121465000Y-92635000D03*
%TO.P,J3,31,Pin_31*%
%TO.N,unconnected-(J3-Pad31)*%
X118925000Y-95175000D03*
%TO.P,J3,32,Pin_32*%
%TO.N,unconnected-(J3-Pad32)*%
X121465000Y-95175000D03*
%TO.P,J3,33,Pin_33*%
%TO.N,unconnected-(J3-Pad33)*%
X118925000Y-97715000D03*
%TO.P,J3,34,Pin_34*%
%TO.N,unconnected-(J3-Pad34)*%
X121465000Y-97715000D03*
%TO.P,J3,35,Pin_35*%
%TO.N,unconnected-(J3-Pad35)*%
X118925000Y-100255000D03*
%TO.P,J3,36,Pin_36*%
%TO.N,unconnected-(J3-Pad36)*%
X121465000Y-100255000D03*
%TO.P,J3,37,Pin_37*%
%TO.N,unconnected-(J3-Pad37)*%
X118925000Y-102795000D03*
%TO.P,J3,38,Pin_38*%
%TO.N,unconnected-(J3-Pad38)*%
X121465000Y-102795000D03*
%TO.P,J3,39,Pin_39*%
%TO.N,unconnected-(J3-Pad39)*%
X118925000Y-105335000D03*
%TO.P,J3,40,Pin_40*%
%TO.N,unconnected-(J3-Pad40)*%
X121465000Y-105335000D03*
%TD*%
D14*
%TO.P,J12,1,Pin_1*%
%TO.N,GND*%
X126900000Y-123600000D03*
D15*
%TO.P,J12,2,Pin_2*%
%TO.N,/CAN_H*%
X124360000Y-123600000D03*
%TO.P,J12,3,Pin_3*%
%TO.N,/CAN_L*%
X121820000Y-123600000D03*
%TD*%
D13*
%TO.P,J8,4*%
%TO.N,N/C*%
X171700000Y-123488000D03*
%TO.P,J8,3*%
X160700000Y-123488000D03*
D12*
%TO.P,J8,2,-*%
%TO.N,GND*%
X163700000Y-113488000D03*
%TO.P,J8,1,+*%
%TO.N,/VCC*%
X168700000Y-113488000D03*
%TD*%
D15*
%TO.P,J5,3,Pin_3*%
%TO.N,/CAN_L*%
X149845000Y-123600000D03*
%TO.P,J5,2,Pin_2*%
%TO.N,/CAN_H*%
X152385000Y-123600000D03*
D14*
%TO.P,J5,1,Pin_1*%
%TO.N,GND*%
X154925000Y-123600000D03*
%TD*%
D12*
%TO.P,J10,1,+*%
%TO.N,/VCC*%
X140700000Y-113388000D03*
%TO.P,J10,2,-*%
%TO.N,GND*%
X135700000Y-113388000D03*
D13*
%TO.P,J10,3*%
%TO.N,N/C*%
X132700000Y-123388000D03*
%TO.P,J10,4*%
X143700000Y-123388000D03*
%TD*%
D20*
%TO.N,/VCC*%
X123300000Y-49800000D03*
%TD*%
D21*
%TO.N,/5V*%
X162602000Y-67314000D02*
X153886000Y-67314000D01*
X153886000Y-67314000D02*
X129614000Y-67314000D01*
D22*
X155265000Y-49340000D02*
X153925000Y-50680000D01*
X153925000Y-50680000D02*
X153925000Y-67275000D01*
D21*
X129614000Y-67314000D02*
X121915000Y-59615000D01*
X121915000Y-59615000D02*
X121465000Y-59615000D01*
D23*
%TO.N,/VCC*%
X123300000Y-49800000D02*
X135300000Y-61800000D01*
X135300000Y-61800000D02*
X135900000Y-61800000D01*
D21*
%TO.N,/3.3V*%
X165250000Y-62300000D02*
X164700000Y-62300000D01*
X164700000Y-62300000D02*
X157500000Y-55100000D01*
X154025000Y-45500000D02*
X152725000Y-46800000D01*
X157500000Y-55100000D02*
X157500000Y-46600000D01*
X157500000Y-46600000D02*
X156400000Y-45500000D01*
X156400000Y-45500000D02*
X154025000Y-45500000D01*
%TO.N,/5V*%
X155265000Y-46800000D02*
X155265000Y-49340000D01*
%TO.N,/CAN_L*%
X149845000Y-123600000D02*
X148045000Y-125400000D01*
X148045000Y-125400000D02*
X123620000Y-125400000D01*
X123620000Y-125400000D02*
X121820000Y-123600000D01*
%TO.N,/CAN_H*%
X124360000Y-123600000D02*
X124360000Y-122640000D01*
X125000000Y-122000000D02*
X150785000Y-122000000D01*
X124360000Y-122640000D02*
X125000000Y-122000000D01*
X150785000Y-122000000D02*
X152385000Y-123600000D01*
D23*
%TO.N,/VCC*%
X159100000Y-111200000D02*
X162700000Y-111200000D01*
X162750000Y-106750000D02*
X162750000Y-111150000D01*
X162750000Y-111150000D02*
X162700000Y-111200000D01*
X162700000Y-111200000D02*
X166412000Y-111200000D01*
X140700000Y-113388000D02*
X156912000Y-113388000D01*
X166412000Y-111200000D02*
X168700000Y-113488000D01*
X156912000Y-113388000D02*
X159100000Y-111200000D01*
D22*
%TO.N,/5V*%
X121465000Y-57075000D02*
X121465000Y-59615000D01*
%TD*%
M02*
