%TF.GenerationSoftware,KiCad,Pcbnew,(6.0.4)*%
%TF.CreationDate,2022-09-19T00:41:06-04:00*%
%TF.ProjectId,Pi_HAT_V2,50695f48-4154-45f5-9632-2e6b69636164,rev?*%
%TF.SameCoordinates,Original*%
%TF.FileFunction,Legend,Bot*%
%TF.FilePolarity,Positive*%
%FSLAX46Y46*%
G04 Gerber Fmt 4.6, Leading zero omitted, Abs format (unit mm)*
G04 Created by KiCad (PCBNEW (6.0.4)) date 2022-09-19 00:41:06*
%MOMM*%
%LPD*%
G01*
G04 APERTURE LIST*
%ADD10C,0.125000*%
%ADD11C,0.075000*%
%ADD12C,0.150000*%
%ADD13C,0.120000*%
%ADD14C,0.127000*%
%ADD15C,0.200000*%
G04 APERTURE END LIST*
D10*
%TO.C,U1*%
X137830952Y-67451190D02*
X137830952Y-67855952D01*
X137807142Y-67903571D01*
X137783333Y-67927380D01*
X137735714Y-67951190D01*
X137640476Y-67951190D01*
X137592857Y-67927380D01*
X137569047Y-67903571D01*
X137545238Y-67855952D01*
X137545238Y-67451190D01*
X137045238Y-67951190D02*
X137330952Y-67951190D01*
X137188095Y-67951190D02*
X137188095Y-67451190D01*
X137235714Y-67522619D01*
X137283333Y-67570238D01*
X137330952Y-67594047D01*
D11*
X135778571Y-70110714D02*
X135921428Y-70110714D01*
X135935714Y-70253571D01*
X135921428Y-70239285D01*
X135892857Y-70225000D01*
X135821428Y-70225000D01*
X135792857Y-70239285D01*
X135778571Y-70253571D01*
X135764285Y-70282142D01*
X135764285Y-70353571D01*
X135778571Y-70382142D01*
X135792857Y-70396428D01*
X135821428Y-70410714D01*
X135892857Y-70410714D01*
X135921428Y-70396428D01*
X135935714Y-70382142D01*
X138592857Y-70210714D02*
X138592857Y-70410714D01*
X138664285Y-70096428D02*
X138735714Y-70310714D01*
X138550000Y-70310714D01*
X135878571Y-68639285D02*
X135907142Y-68625000D01*
X135921428Y-68610714D01*
X135935714Y-68582142D01*
X135935714Y-68567857D01*
X135921428Y-68539285D01*
X135907142Y-68525000D01*
X135878571Y-68510714D01*
X135821428Y-68510714D01*
X135792857Y-68525000D01*
X135778571Y-68539285D01*
X135764285Y-68567857D01*
X135764285Y-68582142D01*
X135778571Y-68610714D01*
X135792857Y-68625000D01*
X135821428Y-68639285D01*
X135878571Y-68639285D01*
X135907142Y-68653571D01*
X135921428Y-68667857D01*
X135935714Y-68696428D01*
X135935714Y-68753571D01*
X135921428Y-68782142D01*
X135907142Y-68796428D01*
X135878571Y-68810714D01*
X135821428Y-68810714D01*
X135792857Y-68796428D01*
X135778571Y-68782142D01*
X135764285Y-68753571D01*
X135764285Y-68696428D01*
X135778571Y-68667857D01*
X135792857Y-68653571D01*
X135821428Y-68639285D01*
X138564285Y-68810714D02*
X138735714Y-68810714D01*
X138650000Y-68810714D02*
X138650000Y-68510714D01*
X138678571Y-68553571D01*
X138707142Y-68582142D01*
X138735714Y-68596428D01*
D10*
%TO.C,L1*%
X146708333Y-68176190D02*
X146946428Y-68176190D01*
X146946428Y-67676190D01*
X146279761Y-68176190D02*
X146565476Y-68176190D01*
X146422619Y-68176190D02*
X146422619Y-67676190D01*
X146470238Y-67747619D01*
X146517857Y-67795238D01*
X146565476Y-67819047D01*
X147188095Y-66667857D02*
X147188095Y-67001190D01*
X147307142Y-66477380D02*
X147426190Y-66834523D01*
X147116666Y-66834523D01*
X146926190Y-66953571D02*
X146902380Y-66977380D01*
X146926190Y-67001190D01*
X146950000Y-66977380D01*
X146926190Y-66953571D01*
X146926190Y-67001190D01*
X146664285Y-67001190D02*
X146569047Y-67001190D01*
X146521428Y-66977380D01*
X146497619Y-66953571D01*
X146450000Y-66882142D01*
X146426190Y-66786904D01*
X146426190Y-66596428D01*
X146450000Y-66548809D01*
X146473809Y-66525000D01*
X146521428Y-66501190D01*
X146616666Y-66501190D01*
X146664285Y-66525000D01*
X146688095Y-66548809D01*
X146711904Y-66596428D01*
X146711904Y-66715476D01*
X146688095Y-66763095D01*
X146664285Y-66786904D01*
X146616666Y-66810714D01*
X146521428Y-66810714D01*
X146473809Y-66786904D01*
X146450000Y-66763095D01*
X146426190Y-66715476D01*
X145997619Y-66667857D02*
X145997619Y-67001190D01*
X146211904Y-66667857D02*
X146211904Y-66929761D01*
X146188095Y-66977380D01*
X146140476Y-67001190D01*
X146069047Y-67001190D01*
X146021428Y-66977380D01*
X145997619Y-66953571D01*
D12*
%TO.C,L2*%
X130616666Y-92577380D02*
X131092857Y-92577380D01*
X131092857Y-91577380D01*
X130330952Y-91672619D02*
X130283333Y-91625000D01*
X130188095Y-91577380D01*
X129950000Y-91577380D01*
X129854761Y-91625000D01*
X129807142Y-91672619D01*
X129759523Y-91767857D01*
X129759523Y-91863095D01*
X129807142Y-92005952D01*
X130378571Y-92577380D01*
X129759523Y-92577380D01*
D10*
%TO.C,C7*%
X135708333Y-97278571D02*
X135732142Y-97302380D01*
X135803571Y-97326190D01*
X135851190Y-97326190D01*
X135922619Y-97302380D01*
X135970238Y-97254761D01*
X135994047Y-97207142D01*
X136017857Y-97111904D01*
X136017857Y-97040476D01*
X135994047Y-96945238D01*
X135970238Y-96897619D01*
X135922619Y-96850000D01*
X135851190Y-96826190D01*
X135803571Y-96826190D01*
X135732142Y-96850000D01*
X135708333Y-96873809D01*
X135541666Y-96826190D02*
X135208333Y-96826190D01*
X135422619Y-97326190D01*
%TO.C,C9*%
X136133333Y-67428571D02*
X136157142Y-67452380D01*
X136228571Y-67476190D01*
X136276190Y-67476190D01*
X136347619Y-67452380D01*
X136395238Y-67404761D01*
X136419047Y-67357142D01*
X136442857Y-67261904D01*
X136442857Y-67190476D01*
X136419047Y-67095238D01*
X136395238Y-67047619D01*
X136347619Y-67000000D01*
X136276190Y-66976190D01*
X136228571Y-66976190D01*
X136157142Y-67000000D01*
X136133333Y-67023809D01*
X135895238Y-67476190D02*
X135800000Y-67476190D01*
X135752380Y-67452380D01*
X135728571Y-67428571D01*
X135680952Y-67357142D01*
X135657142Y-67261904D01*
X135657142Y-67071428D01*
X135680952Y-67023809D01*
X135704761Y-67000000D01*
X135752380Y-66976190D01*
X135847619Y-66976190D01*
X135895238Y-67000000D01*
X135919047Y-67023809D01*
X135942857Y-67071428D01*
X135942857Y-67190476D01*
X135919047Y-67238095D01*
X135895238Y-67261904D01*
X135847619Y-67285714D01*
X135752380Y-67285714D01*
X135704761Y-67261904D01*
X135680952Y-67238095D01*
X135657142Y-67190476D01*
%TO.C,C3*%
X140178571Y-69291666D02*
X140202380Y-69267857D01*
X140226190Y-69196428D01*
X140226190Y-69148809D01*
X140202380Y-69077380D01*
X140154761Y-69029761D01*
X140107142Y-69005952D01*
X140011904Y-68982142D01*
X139940476Y-68982142D01*
X139845238Y-69005952D01*
X139797619Y-69029761D01*
X139750000Y-69077380D01*
X139726190Y-69148809D01*
X139726190Y-69196428D01*
X139750000Y-69267857D01*
X139773809Y-69291666D01*
X139726190Y-69458333D02*
X139726190Y-69767857D01*
X139916666Y-69601190D01*
X139916666Y-69672619D01*
X139940476Y-69720238D01*
X139964285Y-69744047D01*
X140011904Y-69767857D01*
X140130952Y-69767857D01*
X140178571Y-69744047D01*
X140202380Y-69720238D01*
X140226190Y-69672619D01*
X140226190Y-69529761D01*
X140202380Y-69482142D01*
X140178571Y-69458333D01*
%TO.C,C6*%
X135683333Y-88878571D02*
X135707142Y-88902380D01*
X135778571Y-88926190D01*
X135826190Y-88926190D01*
X135897619Y-88902380D01*
X135945238Y-88854761D01*
X135969047Y-88807142D01*
X135992857Y-88711904D01*
X135992857Y-88640476D01*
X135969047Y-88545238D01*
X135945238Y-88497619D01*
X135897619Y-88450000D01*
X135826190Y-88426190D01*
X135778571Y-88426190D01*
X135707142Y-88450000D01*
X135683333Y-88473809D01*
X135254761Y-88426190D02*
X135350000Y-88426190D01*
X135397619Y-88450000D01*
X135421428Y-88473809D01*
X135469047Y-88545238D01*
X135492857Y-88640476D01*
X135492857Y-88830952D01*
X135469047Y-88878571D01*
X135445238Y-88902380D01*
X135397619Y-88926190D01*
X135302380Y-88926190D01*
X135254761Y-88902380D01*
X135230952Y-88878571D01*
X135207142Y-88830952D01*
X135207142Y-88711904D01*
X135230952Y-88664285D01*
X135254761Y-88640476D01*
X135302380Y-88616666D01*
X135397619Y-88616666D01*
X135445238Y-88640476D01*
X135469047Y-88664285D01*
X135492857Y-88711904D01*
%TO.C,C1*%
X134853571Y-74516666D02*
X134877380Y-74492857D01*
X134901190Y-74421428D01*
X134901190Y-74373809D01*
X134877380Y-74302380D01*
X134829761Y-74254761D01*
X134782142Y-74230952D01*
X134686904Y-74207142D01*
X134615476Y-74207142D01*
X134520238Y-74230952D01*
X134472619Y-74254761D01*
X134425000Y-74302380D01*
X134401190Y-74373809D01*
X134401190Y-74421428D01*
X134425000Y-74492857D01*
X134448809Y-74516666D01*
X134901190Y-74992857D02*
X134901190Y-74707142D01*
X134901190Y-74850000D02*
X134401190Y-74850000D01*
X134472619Y-74802380D01*
X134520238Y-74754761D01*
X134544047Y-74707142D01*
%TO.C,C2*%
X130603571Y-74516666D02*
X130627380Y-74492857D01*
X130651190Y-74421428D01*
X130651190Y-74373809D01*
X130627380Y-74302380D01*
X130579761Y-74254761D01*
X130532142Y-74230952D01*
X130436904Y-74207142D01*
X130365476Y-74207142D01*
X130270238Y-74230952D01*
X130222619Y-74254761D01*
X130175000Y-74302380D01*
X130151190Y-74373809D01*
X130151190Y-74421428D01*
X130175000Y-74492857D01*
X130198809Y-74516666D01*
X130198809Y-74707142D02*
X130175000Y-74730952D01*
X130151190Y-74778571D01*
X130151190Y-74897619D01*
X130175000Y-74945238D01*
X130198809Y-74969047D01*
X130246428Y-74992857D01*
X130294047Y-74992857D01*
X130365476Y-74969047D01*
X130651190Y-74683333D01*
X130651190Y-74992857D01*
%TO.C,R2*%
X138001190Y-74791666D02*
X137763095Y-74625000D01*
X138001190Y-74505952D02*
X137501190Y-74505952D01*
X137501190Y-74696428D01*
X137525000Y-74744047D01*
X137548809Y-74767857D01*
X137596428Y-74791666D01*
X137667857Y-74791666D01*
X137715476Y-74767857D01*
X137739285Y-74744047D01*
X137763095Y-74696428D01*
X137763095Y-74505952D01*
X137548809Y-74982142D02*
X137525000Y-75005952D01*
X137501190Y-75053571D01*
X137501190Y-75172619D01*
X137525000Y-75220238D01*
X137548809Y-75244047D01*
X137596428Y-75267857D01*
X137644047Y-75267857D01*
X137715476Y-75244047D01*
X138001190Y-74958333D01*
X138001190Y-75267857D01*
%TO.C,C4*%
X142483333Y-73753571D02*
X142507142Y-73777380D01*
X142578571Y-73801190D01*
X142626190Y-73801190D01*
X142697619Y-73777380D01*
X142745238Y-73729761D01*
X142769047Y-73682142D01*
X142792857Y-73586904D01*
X142792857Y-73515476D01*
X142769047Y-73420238D01*
X142745238Y-73372619D01*
X142697619Y-73325000D01*
X142626190Y-73301190D01*
X142578571Y-73301190D01*
X142507142Y-73325000D01*
X142483333Y-73348809D01*
X142054761Y-73467857D02*
X142054761Y-73801190D01*
X142173809Y-73277380D02*
X142292857Y-73634523D01*
X141983333Y-73634523D01*
%TO.C,R7*%
X146776190Y-84241666D02*
X146538095Y-84075000D01*
X146776190Y-83955952D02*
X146276190Y-83955952D01*
X146276190Y-84146428D01*
X146300000Y-84194047D01*
X146323809Y-84217857D01*
X146371428Y-84241666D01*
X146442857Y-84241666D01*
X146490476Y-84217857D01*
X146514285Y-84194047D01*
X146538095Y-84146428D01*
X146538095Y-83955952D01*
X146276190Y-84408333D02*
X146276190Y-84741666D01*
X146776190Y-84527380D01*
D12*
%TO.C,R9*%
X108466666Y-98352380D02*
X108800000Y-97876190D01*
X109038095Y-98352380D02*
X109038095Y-97352380D01*
X108657142Y-97352380D01*
X108561904Y-97400000D01*
X108514285Y-97447619D01*
X108466666Y-97542857D01*
X108466666Y-97685714D01*
X108514285Y-97780952D01*
X108561904Y-97828571D01*
X108657142Y-97876190D01*
X109038095Y-97876190D01*
X107990476Y-98352380D02*
X107800000Y-98352380D01*
X107704761Y-98304761D01*
X107657142Y-98257142D01*
X107561904Y-98114285D01*
X107514285Y-97923809D01*
X107514285Y-97542857D01*
X107561904Y-97447619D01*
X107609523Y-97400000D01*
X107704761Y-97352380D01*
X107895238Y-97352380D01*
X107990476Y-97400000D01*
X108038095Y-97447619D01*
X108085714Y-97542857D01*
X108085714Y-97780952D01*
X108038095Y-97876190D01*
X107990476Y-97923809D01*
X107895238Y-97971428D01*
X107704761Y-97971428D01*
X107609523Y-97923809D01*
X107561904Y-97876190D01*
X107514285Y-97780952D01*
%TO.C,R10*%
X114567857Y-88527380D02*
X114901190Y-88051190D01*
X115139285Y-88527380D02*
X115139285Y-87527380D01*
X114758333Y-87527380D01*
X114663095Y-87575000D01*
X114615476Y-87622619D01*
X114567857Y-87717857D01*
X114567857Y-87860714D01*
X114615476Y-87955952D01*
X114663095Y-88003571D01*
X114758333Y-88051190D01*
X115139285Y-88051190D01*
X113615476Y-88527380D02*
X114186904Y-88527380D01*
X113901190Y-88527380D02*
X113901190Y-87527380D01*
X113996428Y-87670238D01*
X114091666Y-87765476D01*
X114186904Y-87813095D01*
X112996428Y-87527380D02*
X112901190Y-87527380D01*
X112805952Y-87575000D01*
X112758333Y-87622619D01*
X112710714Y-87717857D01*
X112663095Y-87908333D01*
X112663095Y-88146428D01*
X112710714Y-88336904D01*
X112758333Y-88432142D01*
X112805952Y-88479761D01*
X112901190Y-88527380D01*
X112996428Y-88527380D01*
X113091666Y-88479761D01*
X113139285Y-88432142D01*
X113186904Y-88336904D01*
X113234523Y-88146428D01*
X113234523Y-87908333D01*
X113186904Y-87717857D01*
X113139285Y-87622619D01*
X113091666Y-87575000D01*
X112996428Y-87527380D01*
D10*
%TO.C,R5*%
X141708333Y-64501190D02*
X141875000Y-64263095D01*
X141994047Y-64501190D02*
X141994047Y-64001190D01*
X141803571Y-64001190D01*
X141755952Y-64025000D01*
X141732142Y-64048809D01*
X141708333Y-64096428D01*
X141708333Y-64167857D01*
X141732142Y-64215476D01*
X141755952Y-64239285D01*
X141803571Y-64263095D01*
X141994047Y-64263095D01*
X141255952Y-64001190D02*
X141494047Y-64001190D01*
X141517857Y-64239285D01*
X141494047Y-64215476D01*
X141446428Y-64191666D01*
X141327380Y-64191666D01*
X141279761Y-64215476D01*
X141255952Y-64239285D01*
X141232142Y-64286904D01*
X141232142Y-64405952D01*
X141255952Y-64453571D01*
X141279761Y-64477380D01*
X141327380Y-64501190D01*
X141446428Y-64501190D01*
X141494047Y-64477380D01*
X141517857Y-64453571D01*
%TO.C,R14*%
X134396428Y-62576190D02*
X134563095Y-62338095D01*
X134682142Y-62576190D02*
X134682142Y-62076190D01*
X134491666Y-62076190D01*
X134444047Y-62100000D01*
X134420238Y-62123809D01*
X134396428Y-62171428D01*
X134396428Y-62242857D01*
X134420238Y-62290476D01*
X134444047Y-62314285D01*
X134491666Y-62338095D01*
X134682142Y-62338095D01*
X133920238Y-62576190D02*
X134205952Y-62576190D01*
X134063095Y-62576190D02*
X134063095Y-62076190D01*
X134110714Y-62147619D01*
X134158333Y-62195238D01*
X134205952Y-62219047D01*
X133491666Y-62242857D02*
X133491666Y-62576190D01*
X133610714Y-62052380D02*
X133729761Y-62409523D01*
X133420238Y-62409523D01*
D12*
%TO.C,R12*%
X108992857Y-84377380D02*
X109326190Y-83901190D01*
X109564285Y-84377380D02*
X109564285Y-83377380D01*
X109183333Y-83377380D01*
X109088095Y-83425000D01*
X109040476Y-83472619D01*
X108992857Y-83567857D01*
X108992857Y-83710714D01*
X109040476Y-83805952D01*
X109088095Y-83853571D01*
X109183333Y-83901190D01*
X109564285Y-83901190D01*
X108040476Y-84377380D02*
X108611904Y-84377380D01*
X108326190Y-84377380D02*
X108326190Y-83377380D01*
X108421428Y-83520238D01*
X108516666Y-83615476D01*
X108611904Y-83663095D01*
X107659523Y-83472619D02*
X107611904Y-83425000D01*
X107516666Y-83377380D01*
X107278571Y-83377380D01*
X107183333Y-83425000D01*
X107135714Y-83472619D01*
X107088095Y-83567857D01*
X107088095Y-83663095D01*
X107135714Y-83805952D01*
X107707142Y-84377380D01*
X107088095Y-84377380D01*
D10*
%TO.C,C8*%
X132903571Y-70016666D02*
X132927380Y-69992857D01*
X132951190Y-69921428D01*
X132951190Y-69873809D01*
X132927380Y-69802380D01*
X132879761Y-69754761D01*
X132832142Y-69730952D01*
X132736904Y-69707142D01*
X132665476Y-69707142D01*
X132570238Y-69730952D01*
X132522619Y-69754761D01*
X132475000Y-69802380D01*
X132451190Y-69873809D01*
X132451190Y-69921428D01*
X132475000Y-69992857D01*
X132498809Y-70016666D01*
X132665476Y-70302380D02*
X132641666Y-70254761D01*
X132617857Y-70230952D01*
X132570238Y-70207142D01*
X132546428Y-70207142D01*
X132498809Y-70230952D01*
X132475000Y-70254761D01*
X132451190Y-70302380D01*
X132451190Y-70397619D01*
X132475000Y-70445238D01*
X132498809Y-70469047D01*
X132546428Y-70492857D01*
X132570238Y-70492857D01*
X132617857Y-70469047D01*
X132641666Y-70445238D01*
X132665476Y-70397619D01*
X132665476Y-70302380D01*
X132689285Y-70254761D01*
X132713095Y-70230952D01*
X132760714Y-70207142D01*
X132855952Y-70207142D01*
X132903571Y-70230952D01*
X132927380Y-70254761D01*
X132951190Y-70302380D01*
X132951190Y-70397619D01*
X132927380Y-70445238D01*
X132903571Y-70469047D01*
X132855952Y-70492857D01*
X132760714Y-70492857D01*
X132713095Y-70469047D01*
X132689285Y-70445238D01*
X132665476Y-70397619D01*
D12*
%TO.C,Q3*%
X105662619Y-90379761D02*
X105615000Y-90284523D01*
X105519761Y-90189285D01*
X105376904Y-90046428D01*
X105329285Y-89951190D01*
X105329285Y-89855952D01*
X105567380Y-89903571D02*
X105519761Y-89808333D01*
X105424523Y-89713095D01*
X105234047Y-89665476D01*
X104900714Y-89665476D01*
X104710238Y-89713095D01*
X104615000Y-89808333D01*
X104567380Y-89903571D01*
X104567380Y-90094047D01*
X104615000Y-90189285D01*
X104710238Y-90284523D01*
X104900714Y-90332142D01*
X105234047Y-90332142D01*
X105424523Y-90284523D01*
X105519761Y-90189285D01*
X105567380Y-90094047D01*
X105567380Y-89903571D01*
X104567380Y-90665476D02*
X104567380Y-91284523D01*
X104948333Y-90951190D01*
X104948333Y-91094047D01*
X104995952Y-91189285D01*
X105043571Y-91236904D01*
X105138809Y-91284523D01*
X105376904Y-91284523D01*
X105472142Y-91236904D01*
X105519761Y-91189285D01*
X105567380Y-91094047D01*
X105567380Y-90808333D01*
X105519761Y-90713095D01*
X105472142Y-90665476D01*
%TO.C,R11*%
X114592857Y-98177380D02*
X114926190Y-97701190D01*
X115164285Y-98177380D02*
X115164285Y-97177380D01*
X114783333Y-97177380D01*
X114688095Y-97225000D01*
X114640476Y-97272619D01*
X114592857Y-97367857D01*
X114592857Y-97510714D01*
X114640476Y-97605952D01*
X114688095Y-97653571D01*
X114783333Y-97701190D01*
X115164285Y-97701190D01*
X113640476Y-98177380D02*
X114211904Y-98177380D01*
X113926190Y-98177380D02*
X113926190Y-97177380D01*
X114021428Y-97320238D01*
X114116666Y-97415476D01*
X114211904Y-97463095D01*
X112688095Y-98177380D02*
X113259523Y-98177380D01*
X112973809Y-98177380D02*
X112973809Y-97177380D01*
X113069047Y-97320238D01*
X113164285Y-97415476D01*
X113259523Y-97463095D01*
%TO.C,Q1*%
X111932619Y-101329761D02*
X111885000Y-101234523D01*
X111789761Y-101139285D01*
X111646904Y-100996428D01*
X111599285Y-100901190D01*
X111599285Y-100805952D01*
X111837380Y-100853571D02*
X111789761Y-100758333D01*
X111694523Y-100663095D01*
X111504047Y-100615476D01*
X111170714Y-100615476D01*
X110980238Y-100663095D01*
X110885000Y-100758333D01*
X110837380Y-100853571D01*
X110837380Y-101044047D01*
X110885000Y-101139285D01*
X110980238Y-101234523D01*
X111170714Y-101282142D01*
X111504047Y-101282142D01*
X111694523Y-101234523D01*
X111789761Y-101139285D01*
X111837380Y-101044047D01*
X111837380Y-100853571D01*
X111837380Y-102234523D02*
X111837380Y-101663095D01*
X111837380Y-101948809D02*
X110837380Y-101948809D01*
X110980238Y-101853571D01*
X111075476Y-101758333D01*
X111123095Y-101663095D01*
D10*
%TO.C,R6*%
X146651190Y-79816666D02*
X146413095Y-79650000D01*
X146651190Y-79530952D02*
X146151190Y-79530952D01*
X146151190Y-79721428D01*
X146175000Y-79769047D01*
X146198809Y-79792857D01*
X146246428Y-79816666D01*
X146317857Y-79816666D01*
X146365476Y-79792857D01*
X146389285Y-79769047D01*
X146413095Y-79721428D01*
X146413095Y-79530952D01*
X146151190Y-80245238D02*
X146151190Y-80150000D01*
X146175000Y-80102380D01*
X146198809Y-80078571D01*
X146270238Y-80030952D01*
X146365476Y-80007142D01*
X146555952Y-80007142D01*
X146603571Y-80030952D01*
X146627380Y-80054761D01*
X146651190Y-80102380D01*
X146651190Y-80197619D01*
X146627380Y-80245238D01*
X146603571Y-80269047D01*
X146555952Y-80292857D01*
X146436904Y-80292857D01*
X146389285Y-80269047D01*
X146365476Y-80245238D01*
X146341666Y-80197619D01*
X146341666Y-80102380D01*
X146365476Y-80054761D01*
X146389285Y-80030952D01*
X146436904Y-80007142D01*
%TO.C,R4*%
X140033333Y-76781190D02*
X140200000Y-76543095D01*
X140319047Y-76781190D02*
X140319047Y-76281190D01*
X140128571Y-76281190D01*
X140080952Y-76305000D01*
X140057142Y-76328809D01*
X140033333Y-76376428D01*
X140033333Y-76447857D01*
X140057142Y-76495476D01*
X140080952Y-76519285D01*
X140128571Y-76543095D01*
X140319047Y-76543095D01*
X139604761Y-76447857D02*
X139604761Y-76781190D01*
X139723809Y-76257380D02*
X139842857Y-76614523D01*
X139533333Y-76614523D01*
D12*
%TO.C,R8*%
X108416666Y-108177380D02*
X108750000Y-107701190D01*
X108988095Y-108177380D02*
X108988095Y-107177380D01*
X108607142Y-107177380D01*
X108511904Y-107225000D01*
X108464285Y-107272619D01*
X108416666Y-107367857D01*
X108416666Y-107510714D01*
X108464285Y-107605952D01*
X108511904Y-107653571D01*
X108607142Y-107701190D01*
X108988095Y-107701190D01*
X107845238Y-107605952D02*
X107940476Y-107558333D01*
X107988095Y-107510714D01*
X108035714Y-107415476D01*
X108035714Y-107367857D01*
X107988095Y-107272619D01*
X107940476Y-107225000D01*
X107845238Y-107177380D01*
X107654761Y-107177380D01*
X107559523Y-107225000D01*
X107511904Y-107272619D01*
X107464285Y-107367857D01*
X107464285Y-107415476D01*
X107511904Y-107510714D01*
X107559523Y-107558333D01*
X107654761Y-107605952D01*
X107845238Y-107605952D01*
X107940476Y-107653571D01*
X107988095Y-107701190D01*
X108035714Y-107796428D01*
X108035714Y-107986904D01*
X107988095Y-108082142D01*
X107940476Y-108129761D01*
X107845238Y-108177380D01*
X107654761Y-108177380D01*
X107559523Y-108129761D01*
X107511904Y-108082142D01*
X107464285Y-107986904D01*
X107464285Y-107796428D01*
X107511904Y-107701190D01*
X107559523Y-107653571D01*
X107654761Y-107605952D01*
%TO.C,R13*%
X108867857Y-94502380D02*
X109201190Y-94026190D01*
X109439285Y-94502380D02*
X109439285Y-93502380D01*
X109058333Y-93502380D01*
X108963095Y-93550000D01*
X108915476Y-93597619D01*
X108867857Y-93692857D01*
X108867857Y-93835714D01*
X108915476Y-93930952D01*
X108963095Y-93978571D01*
X109058333Y-94026190D01*
X109439285Y-94026190D01*
X107915476Y-94502380D02*
X108486904Y-94502380D01*
X108201190Y-94502380D02*
X108201190Y-93502380D01*
X108296428Y-93645238D01*
X108391666Y-93740476D01*
X108486904Y-93788095D01*
X107582142Y-93502380D02*
X106963095Y-93502380D01*
X107296428Y-93883333D01*
X107153571Y-93883333D01*
X107058333Y-93930952D01*
X107010714Y-93978571D01*
X106963095Y-94073809D01*
X106963095Y-94311904D01*
X107010714Y-94407142D01*
X107058333Y-94454761D01*
X107153571Y-94502380D01*
X107439285Y-94502380D01*
X107534523Y-94454761D01*
X107582142Y-94407142D01*
%TO.C,Q2*%
X111337619Y-94154761D02*
X111290000Y-94059523D01*
X111194761Y-93964285D01*
X111051904Y-93821428D01*
X111004285Y-93726190D01*
X111004285Y-93630952D01*
X111242380Y-93678571D02*
X111194761Y-93583333D01*
X111099523Y-93488095D01*
X110909047Y-93440476D01*
X110575714Y-93440476D01*
X110385238Y-93488095D01*
X110290000Y-93583333D01*
X110242380Y-93678571D01*
X110242380Y-93869047D01*
X110290000Y-93964285D01*
X110385238Y-94059523D01*
X110575714Y-94107142D01*
X110909047Y-94107142D01*
X111099523Y-94059523D01*
X111194761Y-93964285D01*
X111242380Y-93869047D01*
X111242380Y-93678571D01*
X110337619Y-94488095D02*
X110290000Y-94535714D01*
X110242380Y-94630952D01*
X110242380Y-94869047D01*
X110290000Y-94964285D01*
X110337619Y-95011904D01*
X110432857Y-95059523D01*
X110528095Y-95059523D01*
X110670952Y-95011904D01*
X111242380Y-94440476D01*
X111242380Y-95059523D01*
D10*
%TO.C,C5*%
X135683333Y-87828571D02*
X135707142Y-87852380D01*
X135778571Y-87876190D01*
X135826190Y-87876190D01*
X135897619Y-87852380D01*
X135945238Y-87804761D01*
X135969047Y-87757142D01*
X135992857Y-87661904D01*
X135992857Y-87590476D01*
X135969047Y-87495238D01*
X135945238Y-87447619D01*
X135897619Y-87400000D01*
X135826190Y-87376190D01*
X135778571Y-87376190D01*
X135707142Y-87400000D01*
X135683333Y-87423809D01*
X135230952Y-87376190D02*
X135469047Y-87376190D01*
X135492857Y-87614285D01*
X135469047Y-87590476D01*
X135421428Y-87566666D01*
X135302380Y-87566666D01*
X135254761Y-87590476D01*
X135230952Y-87614285D01*
X135207142Y-87661904D01*
X135207142Y-87780952D01*
X135230952Y-87828571D01*
X135254761Y-87852380D01*
X135302380Y-87876190D01*
X135421428Y-87876190D01*
X135469047Y-87852380D01*
X135492857Y-87828571D01*
%TO.C,R3*%
X138908333Y-67876190D02*
X139075000Y-67638095D01*
X139194047Y-67876190D02*
X139194047Y-67376190D01*
X139003571Y-67376190D01*
X138955952Y-67400000D01*
X138932142Y-67423809D01*
X138908333Y-67471428D01*
X138908333Y-67542857D01*
X138932142Y-67590476D01*
X138955952Y-67614285D01*
X139003571Y-67638095D01*
X139194047Y-67638095D01*
X138741666Y-67376190D02*
X138432142Y-67376190D01*
X138598809Y-67566666D01*
X138527380Y-67566666D01*
X138479761Y-67590476D01*
X138455952Y-67614285D01*
X138432142Y-67661904D01*
X138432142Y-67780952D01*
X138455952Y-67828571D01*
X138479761Y-67852380D01*
X138527380Y-67876190D01*
X138670238Y-67876190D01*
X138717857Y-67852380D01*
X138741666Y-67828571D01*
D13*
%TO.C,L1*%
X144010343Y-69582842D02*
G75*
G03*
X144010343Y-69582842I-282843J0D01*
G01*
%TO.C,C7*%
X136311252Y-96260000D02*
X134888748Y-96260000D01*
X136311252Y-93540000D02*
X134888748Y-93540000D01*
%TO.C,C9*%
X134878733Y-66585000D02*
X135171267Y-66585000D01*
X134878733Y-65565000D02*
X135171267Y-65565000D01*
%TO.C,C3*%
X140590000Y-69103733D02*
X140590000Y-69396267D01*
X141610000Y-69103733D02*
X141610000Y-69396267D01*
%TO.C,C6*%
X136311252Y-92360000D02*
X134888748Y-92360000D01*
X136311252Y-89640000D02*
X134888748Y-89640000D01*
%TO.C,C1*%
X131015000Y-75311252D02*
X131015000Y-73888748D01*
X133735000Y-75311252D02*
X133735000Y-73888748D01*
%TO.C,C2*%
X126765000Y-75311252D02*
X126765000Y-73888748D01*
X129485000Y-75311252D02*
X129485000Y-73888748D01*
%TO.C,R2*%
X137135000Y-75352064D02*
X137135000Y-73897936D01*
X135315000Y-75352064D02*
X135315000Y-73897936D01*
%TO.C,C4*%
X140236252Y-72365000D02*
X139713748Y-72365000D01*
X140236252Y-73835000D02*
X139713748Y-73835000D01*
%TO.C,R7*%
X147277500Y-84729724D02*
X147277500Y-84220276D01*
X148322500Y-84729724D02*
X148322500Y-84220276D01*
%TO.C,R9*%
X108022936Y-98740000D02*
X108477064Y-98740000D01*
X108022936Y-100210000D02*
X108477064Y-100210000D01*
%TO.C,R10*%
X113797936Y-90410000D02*
X114252064Y-90410000D01*
X113797936Y-88940000D02*
X114252064Y-88940000D01*
%TO.C,R5*%
X139022936Y-64560000D02*
X139477064Y-64560000D01*
X139022936Y-63090000D02*
X139477064Y-63090000D01*
%TO.C,R14*%
X134772936Y-63065000D02*
X135227064Y-63065000D01*
X134772936Y-64535000D02*
X135227064Y-64535000D01*
%TO.C,R12*%
X108047936Y-86635000D02*
X108502064Y-86635000D01*
X108047936Y-85165000D02*
X108502064Y-85165000D01*
%TO.C,C8*%
X134335000Y-69403733D02*
X134335000Y-69696267D01*
X133315000Y-69403733D02*
X133315000Y-69696267D01*
D14*
%TO.C,Q3*%
X106800000Y-89875000D02*
X106800000Y-89190000D01*
X107530000Y-89875000D02*
X106800000Y-89875000D01*
X109700000Y-89190000D02*
X109700000Y-89875000D01*
X109700000Y-89875000D02*
X108970000Y-89875000D01*
D15*
X107400000Y-87225000D02*
G75*
G03*
X107400000Y-87225000I-100000J0D01*
G01*
D13*
%TO.C,R11*%
X114152064Y-96835000D02*
X113697936Y-96835000D01*
X114152064Y-95365000D02*
X113697936Y-95365000D01*
D14*
%TO.C,Q1*%
X106800000Y-102710000D02*
X106800000Y-102025000D01*
X109700000Y-102025000D02*
X109700000Y-102710000D01*
X108970000Y-102025000D02*
X109700000Y-102025000D01*
X106800000Y-102025000D02*
X107530000Y-102025000D01*
D15*
X109300000Y-104675000D02*
G75*
G03*
X109300000Y-104675000I-100000J0D01*
G01*
D13*
%TO.C,R6*%
X147277500Y-80979724D02*
X147277500Y-80470276D01*
X148322500Y-80979724D02*
X148322500Y-80470276D01*
%TO.C,R4*%
X139695276Y-74602500D02*
X140204724Y-74602500D01*
X139695276Y-75647500D02*
X140204724Y-75647500D01*
%TO.C,R8*%
X108502064Y-106760000D02*
X108047936Y-106760000D01*
X108502064Y-105290000D02*
X108047936Y-105290000D01*
%TO.C,R13*%
X108452064Y-93135000D02*
X107997936Y-93135000D01*
X108452064Y-91665000D02*
X107997936Y-91665000D01*
D14*
%TO.C,Q2*%
X115375000Y-92965000D02*
X115375000Y-93650000D01*
X113205000Y-93650000D02*
X112475000Y-93650000D01*
X112475000Y-93650000D02*
X112475000Y-92965000D01*
X115375000Y-93650000D02*
X114645000Y-93650000D01*
D15*
X113075000Y-91000000D02*
G75*
G03*
X113075000Y-91000000I-100000J0D01*
G01*
D13*
%TO.C,C5*%
X134888748Y-83990000D02*
X136311252Y-83990000D01*
X134888748Y-86710000D02*
X136311252Y-86710000D01*
%TO.C,R3*%
X138997936Y-66835000D02*
X139452064Y-66835000D01*
X138997936Y-65365000D02*
X139452064Y-65365000D01*
%TD*%
M02*
