%TF.GenerationSoftware,KiCad,Pcbnew,(6.0.4)*%
%TF.CreationDate,2022-09-19T00:41:06-04:00*%
%TF.ProjectId,Pi_HAT_V2,50695f48-4154-45f5-9632-2e6b69636164,rev?*%
%TF.SameCoordinates,Original*%
%TF.FileFunction,Copper,L1,Top*%
%TF.FilePolarity,Positive*%
%FSLAX46Y46*%
G04 Gerber Fmt 4.6, Leading zero omitted, Abs format (unit mm)*
G04 Created by KiCad (PCBNEW (6.0.4)) date 2022-09-19 00:41:06*
%MOMM*%
%LPD*%
G01*
G04 APERTURE LIST*
%TA.AperFunction,ComponentPad*%
%ADD10R,1.800000X1.800000*%
%TD*%
%TA.AperFunction,ComponentPad*%
%ADD11C,1.800000*%
%TD*%
%TA.AperFunction,ComponentPad*%
%ADD12R,1.700000X1.700000*%
%TD*%
%TA.AperFunction,ComponentPad*%
%ADD13O,1.700000X1.700000*%
%TD*%
%TA.AperFunction,ComponentPad*%
%ADD14R,3.716000X3.716000*%
%TD*%
%TA.AperFunction,ComponentPad*%
%ADD15C,3.716000*%
%TD*%
%TA.AperFunction,ComponentPad*%
%ADD16O,1.200000X2.400000*%
%TD*%
%TA.AperFunction,ComponentPad*%
%ADD17C,3.000000*%
%TD*%
%TA.AperFunction,ViaPad*%
%ADD18C,0.800000*%
%TD*%
%TA.AperFunction,Conductor*%
%ADD19C,1.000000*%
%TD*%
%TA.AperFunction,Conductor*%
%ADD20C,0.250000*%
%TD*%
%TA.AperFunction,Conductor*%
%ADD21C,0.300000*%
%TD*%
%TA.AperFunction,Conductor*%
%ADD22C,0.200000*%
%TD*%
%TA.AperFunction,Conductor*%
%ADD23C,0.500000*%
%TD*%
G04 APERTURE END LIST*
D10*
%TO.P,TB1,1,D1/TX*%
%TO.N,/TXN*%
X103430000Y-87570000D03*
D11*
%TO.P,TB1,2,D0/RX*%
%TO.N,/RXN*%
X103430000Y-90110000D03*
%TO.P,TB1,3,RESET*%
%TO.N,unconnected-(TB1-Pad28)*%
X103430000Y-92650000D03*
%TO.P,TB1,4,COM/GND*%
%TO.N,GND*%
X103430000Y-95190000D03*
%TO.P,TB1,5,D2*%
%TO.N,unconnected-(TB1-Pad5)*%
X103430000Y-97730000D03*
%TO.P,TB1,6,D3*%
%TO.N,unconnected-(TB1-Pad6)*%
X103430000Y-100270000D03*
%TO.P,TB1,7,D4*%
%TO.N,unconnected-(TB1-Pad7)*%
X103430000Y-102810000D03*
%TO.P,TB1,8,D5*%
%TO.N,unconnected-(TB1-Pad8)*%
X103430000Y-105350000D03*
%TO.P,TB1,9,D6*%
%TO.N,unconnected-(TB1-Pad9)*%
X103430000Y-107890000D03*
%TO.P,TB1,10,D7*%
%TO.N,unconnected-(TB1-Pad10)*%
X103430000Y-110430000D03*
%TO.P,TB1,11,D8*%
%TO.N,unconnected-(TB1-Pad11)*%
X103430000Y-112970000D03*
%TO.P,TB1,12,D9*%
%TO.N,unconnected-(TB1-Pad12)*%
X103430000Y-115510000D03*
%TO.P,TB1,13,D10*%
%TO.N,unconnected-(TB1-Pad13)*%
X103430000Y-118050000D03*
%TO.P,TB1,14,D11/MOSI*%
%TO.N,unconnected-(TB1-Pad14)*%
X103430000Y-120590000D03*
%TO.P,TB1,15,D12/MISO*%
%TO.N,unconnected-(TB1-Pad15)*%
X103430000Y-123130000D03*
%TO.P,TB1,16,D13/SCK*%
%TO.N,unconnected-(TB1-Pad16)*%
X118670000Y-123130000D03*
%TO.P,TB1,17,3V3*%
%TO.N,3.3VN*%
X118670000Y-120590000D03*
%TO.P,TB1,18,AREF*%
%TO.N,unconnected-(TB1-Pad18)*%
X118670000Y-118050000D03*
%TO.P,TB1,19,A0*%
%TO.N,/PS*%
X118670000Y-115510000D03*
%TO.P,TB1,20,A1*%
%TO.N,unconnected-(TB1-Pad20)*%
X118670000Y-112970000D03*
%TO.P,TB1,21,A2*%
%TO.N,unconnected-(TB1-Pad21)*%
X118670000Y-110430000D03*
%TO.P,TB1,22,A3*%
%TO.N,unconnected-(TB1-Pad22)*%
X118670000Y-107890000D03*
%TO.P,TB1,23,A4*%
%TO.N,SDAN*%
X118670000Y-105350000D03*
%TO.P,TB1,24,A5*%
%TO.N,SCLN*%
X118670000Y-102810000D03*
%TO.P,TB1,25,A6*%
%TO.N,unconnected-(TB1-Pad25)*%
X118670000Y-100270000D03*
%TO.P,TB1,26,A7*%
%TO.N,unconnected-(TB1-Pad26)*%
X118670000Y-97730000D03*
%TO.P,TB1,27,+5V*%
%TO.N,/5VN*%
X118670000Y-95190000D03*
%TO.P,TB1,28,RESET*%
%TO.N,unconnected-(TB1-Pad28)*%
X118670000Y-92650000D03*
%TO.P,TB1,29,COM/GND*%
%TO.N,GND*%
X118670000Y-90110000D03*
%TO.P,TB1,30,VIN*%
%TO.N,/5V*%
X118670000Y-87570000D03*
%TD*%
D12*
%TO.P,J3,1,Pin_1*%
%TO.N,3.3VP*%
X130565000Y-68775000D03*
D13*
%TO.P,J3,2,Pin_2*%
%TO.N,/5V*%
X128025000Y-68775000D03*
%TO.P,J3,3,Pin_3*%
%TO.N,/SDA*%
X130565000Y-66235000D03*
%TO.P,J3,4,Pin_4*%
%TO.N,/5V*%
X128025000Y-66235000D03*
%TO.P,J3,5,Pin_5*%
%TO.N,/SCL*%
X130565000Y-63695000D03*
%TO.P,J3,6,Pin_6*%
%TO.N,GND*%
X128025000Y-63695000D03*
%TD*%
D12*
%TO.P,J1,1,Pin_1*%
%TO.N,3.3VN*%
X127550000Y-108800000D03*
D13*
%TO.P,J1,2,Pin_2*%
%TO.N,GND*%
X127550000Y-111340000D03*
%TO.P,J1,3,Pin_3*%
%TO.N,SCLN*%
X127550000Y-113880000D03*
%TO.P,J1,4,Pin_4*%
%TO.N,SDAN*%
X127550000Y-116420000D03*
%TO.P,J1,5,Pin_5*%
%TO.N,unconnected-(J1-Pad5)*%
X127550000Y-118960000D03*
%TO.P,J1,6,Pin_6*%
%TO.N,unconnected-(J1-Pad6)*%
X127550000Y-121500000D03*
%TO.P,J1,7,Pin_7*%
%TO.N,unconnected-(J1-Pad7)*%
X127550000Y-124040000D03*
%TO.P,J1,8,Pin_8*%
%TO.N,unconnected-(J1-Pad8)*%
X127550000Y-126580000D03*
%TO.P,J1,9,Pin_9*%
%TO.N,unconnected-(J1-Pad9)*%
X127550000Y-129120000D03*
%TO.P,J1,10,Pin_10*%
%TO.N,unconnected-(J1-Pad10)*%
X127550000Y-131660000D03*
%TD*%
D12*
%TO.P,J2,1,Pin_1*%
%TO.N,3.3VP*%
X151000000Y-79400000D03*
D13*
%TO.P,J2,2,Pin_2*%
%TO.N,/5V*%
X153540000Y-79400000D03*
%TO.P,J2,3,Pin_3*%
%TO.N,/SDA*%
X151000000Y-81940000D03*
%TO.P,J2,4,Pin_4*%
%TO.N,/5V*%
X153540000Y-81940000D03*
%TO.P,J2,5,Pin_5*%
%TO.N,/SCL*%
X151000000Y-84480000D03*
%TO.P,J2,6,Pin_6*%
%TO.N,GND*%
X153540000Y-84480000D03*
%TO.P,J2,7,Pin_7*%
%TO.N,unconnected-(J2-Pad7)*%
X151000000Y-87020000D03*
%TO.P,J2,8,Pin_8*%
%TO.N,/TXP*%
X153540000Y-87020000D03*
%TO.P,J2,9,Pin_9*%
%TO.N,unconnected-(J2-Pad9)*%
X151000000Y-89560000D03*
%TO.P,J2,10,Pin_10*%
%TO.N,/RXP*%
X153540000Y-89560000D03*
%TO.P,J2,11,Pin_11*%
%TO.N,unconnected-(J2-Pad11)*%
X151000000Y-92100000D03*
%TO.P,J2,12,Pin_12*%
%TO.N,unconnected-(J2-Pad12)*%
X153540000Y-92100000D03*
%TO.P,J2,13,Pin_13*%
%TO.N,unconnected-(J2-Pad13)*%
X151000000Y-94640000D03*
%TO.P,J2,14,Pin_14*%
%TO.N,unconnected-(J2-Pad14)*%
X153540000Y-94640000D03*
%TO.P,J2,15,Pin_15*%
%TO.N,unconnected-(J2-Pad15)*%
X151000000Y-97180000D03*
%TO.P,J2,16,Pin_16*%
%TO.N,unconnected-(J2-Pad16)*%
X153540000Y-97180000D03*
%TO.P,J2,17,Pin_17*%
%TO.N,unconnected-(J2-Pad17)*%
X151000000Y-99720000D03*
%TO.P,J2,18,Pin_18*%
%TO.N,unconnected-(J2-Pad18)*%
X153540000Y-99720000D03*
%TO.P,J2,19,Pin_19*%
%TO.N,unconnected-(J2-Pad19)*%
X151000000Y-102260000D03*
%TO.P,J2,20,Pin_20*%
%TO.N,unconnected-(J2-Pad20)*%
X153540000Y-102260000D03*
%TO.P,J2,21,Pin_21*%
%TO.N,unconnected-(J2-Pad21)*%
X151000000Y-104800000D03*
%TO.P,J2,22,Pin_22*%
%TO.N,unconnected-(J2-Pad22)*%
X153540000Y-104800000D03*
%TO.P,J2,23,Pin_23*%
%TO.N,unconnected-(J2-Pad23)*%
X151000000Y-107340000D03*
%TO.P,J2,24,Pin_24*%
%TO.N,unconnected-(J2-Pad24)*%
X153540000Y-107340000D03*
%TO.P,J2,25,Pin_25*%
%TO.N,unconnected-(J2-Pad25)*%
X151000000Y-109880000D03*
%TO.P,J2,26,Pin_26*%
%TO.N,unconnected-(J2-Pad26)*%
X153540000Y-109880000D03*
%TO.P,J2,27,Pin_27*%
%TO.N,unconnected-(J2-Pad27)*%
X151000000Y-112420000D03*
%TO.P,J2,28,Pin_28*%
%TO.N,unconnected-(J2-Pad28)*%
X153540000Y-112420000D03*
%TO.P,J2,29,Pin_29*%
%TO.N,unconnected-(J2-Pad29)*%
X151000000Y-114960000D03*
%TO.P,J2,30,Pin_30*%
%TO.N,unconnected-(J2-Pad30)*%
X153540000Y-114960000D03*
%TO.P,J2,31,Pin_31*%
%TO.N,unconnected-(J2-Pad31)*%
X151000000Y-117500000D03*
%TO.P,J2,32,Pin_32*%
%TO.N,unconnected-(J2-Pad32)*%
X153540000Y-117500000D03*
%TO.P,J2,33,Pin_33*%
%TO.N,unconnected-(J2-Pad33)*%
X151000000Y-120040000D03*
%TO.P,J2,34,Pin_34*%
%TO.N,unconnected-(J2-Pad34)*%
X153540000Y-120040000D03*
%TO.P,J2,35,Pin_35*%
%TO.N,unconnected-(J2-Pad35)*%
X151000000Y-122580000D03*
%TO.P,J2,36,Pin_36*%
%TO.N,unconnected-(J2-Pad36)*%
X153540000Y-122580000D03*
%TO.P,J2,37,Pin_37*%
%TO.N,unconnected-(J2-Pad37)*%
X151000000Y-125120000D03*
%TO.P,J2,38,Pin_38*%
%TO.N,unconnected-(J2-Pad38)*%
X153540000Y-125120000D03*
%TO.P,J2,39,Pin_39*%
%TO.N,unconnected-(J2-Pad39)*%
X151000000Y-127660000D03*
%TO.P,J2,40,Pin_40*%
%TO.N,unconnected-(J2-Pad40)*%
X153540000Y-127660000D03*
%TD*%
D12*
%TO.P,J4,1,Pin_1*%
%TO.N,12V*%
X96550000Y-96000000D03*
D13*
%TO.P,J4,2,Pin_2*%
%TO.N,GND*%
X96550000Y-98540000D03*
%TO.P,J4,3,Pin_3*%
%TO.N,/SCL*%
X96550000Y-101080000D03*
%TO.P,J4,4,Pin_4*%
%TO.N,/SDA*%
X96550000Y-103620000D03*
%TD*%
D14*
%TO.P,J5,1,+*%
%TO.N,12V*%
X120150000Y-77750000D03*
D15*
%TO.P,J5,2,-*%
%TO.N,GND*%
X112950000Y-77750000D03*
D16*
%TO.P,J5,S1*%
%TO.N,N/C*%
X123300000Y-71750000D03*
%TO.P,J5,S2*%
X109800000Y-71750000D03*
%TD*%
D17*
%TO.P,L2,1,1*%
%TO.N,Net-(C5-Pad1)*%
X125400000Y-92000000D03*
%TO.P,L2,2,2*%
%TO.N,/5V*%
X146200000Y-92000000D03*
%TD*%
D12*
%TO.P,J6,1,Pin_1*%
%TO.N,12V*%
X160350000Y-96000000D03*
D13*
%TO.P,J6,2,Pin_2*%
%TO.N,GND*%
X160350000Y-98540000D03*
%TO.P,J6,3,Pin_3*%
%TO.N,/SCL*%
X160350000Y-101080000D03*
%TO.P,J6,4,Pin_4*%
%TO.N,/SDA*%
X160350000Y-103620000D03*
%TD*%
D12*
%TO.P,J7,1,Pin_1*%
%TO.N,/5VN*%
X96550000Y-83875000D03*
D13*
%TO.P,J7,2,Pin_2*%
%TO.N,GND*%
X96550000Y-86415000D03*
%TO.P,J7,3,Pin_3*%
%TO.N,/PS*%
X96550000Y-88955000D03*
%TD*%
D18*
%TO.N,GND*%
X143350000Y-74025000D03*
%TO.N,3.3VP*%
X145775000Y-81525000D03*
%TO.N,Net-(C5-Pad1)*%
X135575000Y-77650000D03*
X135200000Y-67450000D03*
%TO.N,GND*%
X114325000Y-87650000D03*
%TO.N,/5VN*%
X105375000Y-84300000D03*
%TO.N,3.3VP*%
X154775000Y-80750000D03*
%TO.N,GND*%
X136700000Y-82700000D03*
%TO.N,12V*%
X138450000Y-76550000D03*
X141400000Y-71750000D03*
%TO.N,GND*%
X138700000Y-71500000D03*
X127850000Y-71400000D03*
%TD*%
D19*
%TO.N,12V*%
X120150000Y-75700000D02*
X120150000Y-77750000D01*
X112450000Y-68000000D02*
X120150000Y-75700000D01*
X94300000Y-79872249D02*
X106172249Y-68000000D01*
X106172249Y-68000000D02*
X112450000Y-68000000D01*
X96550000Y-96000000D02*
X94300000Y-93750000D01*
X94300000Y-93750000D02*
X94300000Y-79872249D01*
D20*
%TO.N,GND*%
X143350000Y-75775000D02*
X143350000Y-74025000D01*
X142025000Y-77100000D02*
X143350000Y-75775000D01*
X141850489Y-77274511D02*
X142025000Y-77100000D01*
X137600000Y-77125000D02*
X137749511Y-77274511D01*
X137600000Y-72600000D02*
X137600000Y-77125000D01*
X137749511Y-77274511D02*
X141850489Y-77274511D01*
X138700000Y-71500000D02*
X137600000Y-72600000D01*
%TO.N,3.3VP*%
X136400000Y-81525000D02*
X145775000Y-81525000D01*
X130565000Y-75690000D02*
X136400000Y-81525000D01*
X130565000Y-68775000D02*
X130565000Y-75690000D01*
%TO.N,Net-(C5-Pad1)*%
X135200000Y-77275000D02*
X135575000Y-77650000D01*
X135200000Y-67450000D02*
X135200000Y-77275000D01*
%TO.N,GND*%
X112950000Y-77750000D02*
X112950000Y-86275000D01*
X112950000Y-86275000D02*
X114325000Y-87650000D01*
%TO.N,/PS*%
X116675000Y-113515000D02*
X118670000Y-115510000D01*
X116675000Y-102575000D02*
X116675000Y-113515000D01*
X119925000Y-101550000D02*
X117700000Y-101550000D01*
X120849520Y-100625480D02*
X119925000Y-101550000D01*
X117700000Y-101550000D02*
X116675000Y-102575000D01*
X120849520Y-90274520D02*
X120849520Y-100625480D01*
X119400000Y-88825000D02*
X120849520Y-90274520D01*
X114000000Y-88825000D02*
X119400000Y-88825000D01*
X108750489Y-83575489D02*
X114000000Y-88825000D01*
X104224511Y-83575489D02*
X108750489Y-83575489D01*
X98845000Y-88955000D02*
X104224511Y-83575489D01*
X96550000Y-88955000D02*
X98845000Y-88955000D01*
D21*
%TO.N,/5VN*%
X120375000Y-93485000D02*
X120375000Y-92325000D01*
X118670000Y-95190000D02*
X120375000Y-93485000D01*
X119425000Y-91375000D02*
X120375000Y-92325000D01*
X112450000Y-91375000D02*
X118000000Y-91375000D01*
X118000000Y-91375000D02*
X119425000Y-91375000D01*
X105375000Y-84300000D02*
X112450000Y-91375000D01*
D20*
%TO.N,unconnected-(TB1-Pad28)*%
X118670000Y-92650000D02*
X103430000Y-92650000D01*
D22*
%TO.N,3.3VP*%
X152350000Y-80750000D02*
X151000000Y-79400000D01*
X154775000Y-80750000D02*
X152350000Y-80750000D01*
D20*
%TO.N,/5V*%
X138700000Y-92000000D02*
X125200000Y-78500000D01*
X146200000Y-92000000D02*
X138700000Y-92000000D01*
D21*
X127200000Y-69150000D02*
X127650000Y-69150000D01*
X125200000Y-71150000D02*
X127200000Y-69150000D01*
X127650000Y-69150000D02*
X128025000Y-68775000D01*
X118670000Y-85030000D02*
X125200000Y-78500000D01*
X125200000Y-78500000D02*
X125200000Y-71150000D01*
X118670000Y-87570000D02*
X118670000Y-85030000D01*
D20*
%TO.N,SDAN*%
X127145000Y-116420000D02*
X127550000Y-116420000D01*
X125850000Y-115125000D02*
X127145000Y-116420000D01*
X125850000Y-113825000D02*
X125850000Y-115125000D01*
X122100000Y-110075000D02*
X125850000Y-113825000D01*
X122100000Y-107175000D02*
X122100000Y-110075000D01*
X120275000Y-105350000D02*
X122100000Y-107175000D01*
X118670000Y-105350000D02*
X120275000Y-105350000D01*
%TO.N,SCLN*%
X127270000Y-113600000D02*
X127550000Y-113880000D01*
X126375000Y-113600000D02*
X127270000Y-113600000D01*
X122675000Y-109900000D02*
X126375000Y-113600000D01*
X122675000Y-106815000D02*
X122675000Y-109900000D01*
X118670000Y-102810000D02*
X122675000Y-106815000D01*
%TO.N,/SCL*%
X155050000Y-77500000D02*
X155699520Y-78149520D01*
X148810332Y-77500000D02*
X155050000Y-77500000D01*
X155699520Y-78149520D02*
X155699520Y-86999520D01*
X130565000Y-63695000D02*
X132655480Y-65785480D01*
X132655480Y-65785480D02*
X137095812Y-65785480D01*
X137095812Y-65785480D02*
X148810332Y-77500000D01*
%TO.N,/SDA*%
X150690000Y-81940000D02*
X151000000Y-81940000D01*
X142500000Y-71850000D02*
X149050000Y-78400000D01*
X142500000Y-71825386D02*
X142500000Y-71850000D01*
X149050000Y-80300000D02*
X150690000Y-81940000D01*
X136909614Y-66235000D02*
X142500000Y-71825386D01*
X130565000Y-66235000D02*
X136909614Y-66235000D01*
X149050000Y-78400000D02*
X149050000Y-80300000D01*
D19*
%TO.N,12V*%
X120150000Y-65050000D02*
X120150000Y-77750000D01*
X124350000Y-60850000D02*
X120150000Y-65050000D01*
X150750000Y-60850000D02*
X124350000Y-60850000D01*
X160350000Y-70450000D02*
X150750000Y-60850000D01*
X160350000Y-96000000D02*
X160350000Y-70450000D01*
D20*
%TO.N,/SCL*%
X152270000Y-85750000D02*
X151000000Y-84480000D01*
X154450000Y-85750000D02*
X152270000Y-85750000D01*
X155699520Y-86999520D02*
X154450000Y-85750000D01*
X155699520Y-99999520D02*
X155699520Y-86999520D01*
X156780000Y-101080000D02*
X155699520Y-99999520D01*
X160350000Y-101080000D02*
X156780000Y-101080000D01*
%TO.N,/SDA*%
X149500000Y-83440000D02*
X151000000Y-81940000D01*
X149500000Y-87900000D02*
X149500000Y-83440000D01*
X149900000Y-88300000D02*
X149500000Y-87900000D01*
X154600000Y-88300000D02*
X149900000Y-88300000D01*
X155250000Y-88950000D02*
X154600000Y-88300000D01*
X155250000Y-101850000D02*
X155250000Y-88950000D01*
X157020000Y-103620000D02*
X155250000Y-101850000D01*
X160350000Y-103620000D02*
X157020000Y-103620000D01*
%TO.N,GND*%
X136700000Y-82700000D02*
X127850000Y-73850000D01*
X127850000Y-73850000D02*
X127850000Y-71400000D01*
D21*
%TO.N,12V*%
X141300000Y-76550000D02*
X138450000Y-76550000D01*
X142600000Y-75250000D02*
X141300000Y-76550000D01*
X142600000Y-72950000D02*
X142600000Y-75250000D01*
X141400000Y-71750000D02*
X142600000Y-72950000D01*
D23*
%TO.N,/5V*%
X128025000Y-66235000D02*
X128025000Y-68775000D01*
%TD*%
%TA.AperFunction,Conductor*%
%TO.N,GND*%
G36*
X163120135Y-59834979D02*
G01*
X163134258Y-59837177D01*
X163143724Y-59838651D01*
X163152626Y-59837487D01*
X163152629Y-59837487D01*
X163156397Y-59836994D01*
X163183711Y-59836410D01*
X163311190Y-59847563D01*
X163332820Y-59851378D01*
X163478452Y-59890401D01*
X163499091Y-59897913D01*
X163635740Y-59961635D01*
X163654760Y-59972617D01*
X163774301Y-60056322D01*
X163778268Y-60059100D01*
X163795092Y-60073217D01*
X163821757Y-60099884D01*
X163901707Y-60179838D01*
X163915821Y-60196659D01*
X164002309Y-60320182D01*
X164013284Y-60339195D01*
X164076999Y-60475843D01*
X164084511Y-60496481D01*
X164123532Y-60642127D01*
X164127344Y-60663756D01*
X164128573Y-60677801D01*
X164137910Y-60784580D01*
X164137364Y-60800815D01*
X164137801Y-60800820D01*
X164137691Y-60809788D01*
X164136309Y-60818663D01*
X164140446Y-60850309D01*
X164141508Y-60866601D01*
X164152401Y-116822596D01*
X164155830Y-134440006D01*
X164154329Y-134459419D01*
X164154104Y-134460867D01*
X164150649Y-134483050D01*
X164151813Y-134491953D01*
X164151813Y-134491959D01*
X164152306Y-134495730D01*
X164152889Y-134523046D01*
X164141734Y-134650517D01*
X164137920Y-134672147D01*
X164098891Y-134817793D01*
X164091379Y-134838430D01*
X164027654Y-134975086D01*
X164016675Y-134994102D01*
X163946836Y-135093842D01*
X163930182Y-135117626D01*
X163916064Y-135134450D01*
X163809450Y-135241064D01*
X163792626Y-135255182D01*
X163771080Y-135270269D01*
X163669102Y-135341675D01*
X163650090Y-135352651D01*
X163576763Y-135386846D01*
X163513430Y-135416379D01*
X163492792Y-135423891D01*
X163347143Y-135462921D01*
X163325517Y-135466734D01*
X163204934Y-135477286D01*
X163188452Y-135476733D01*
X163188447Y-135477139D01*
X163179472Y-135477030D01*
X163170602Y-135475649D01*
X163161701Y-135476813D01*
X163161698Y-135476813D01*
X163138997Y-135479782D01*
X163122679Y-135480846D01*
X94649338Y-135491492D01*
X94629935Y-135489992D01*
X94615152Y-135487691D01*
X94606276Y-135486309D01*
X94593603Y-135487966D01*
X94566293Y-135488551D01*
X94438806Y-135477397D01*
X94417183Y-135473585D01*
X94271533Y-135434558D01*
X94250896Y-135427046D01*
X94114240Y-135363322D01*
X94095220Y-135352340D01*
X93971703Y-135265853D01*
X93954878Y-135251735D01*
X93848265Y-135145122D01*
X93834147Y-135128297D01*
X93747660Y-135004780D01*
X93736678Y-134985760D01*
X93672954Y-134849104D01*
X93665443Y-134828466D01*
X93626417Y-134682822D01*
X93622602Y-134661191D01*
X93612349Y-134543993D01*
X93612374Y-134521758D01*
X93612770Y-134517344D01*
X93613576Y-134512552D01*
X93613729Y-134500000D01*
X93609687Y-134471773D01*
X93608414Y-134454153D01*
X93608412Y-134452786D01*
X93604921Y-132607655D01*
X100739858Y-132607655D01*
X100775104Y-132866638D01*
X100776412Y-132871124D01*
X100776412Y-132871126D01*
X100792667Y-132926895D01*
X100848243Y-133117567D01*
X100957668Y-133354928D01*
X100960231Y-133358837D01*
X101098410Y-133569596D01*
X101098414Y-133569601D01*
X101100976Y-133573509D01*
X101275018Y-133768506D01*
X101475970Y-133935637D01*
X101479973Y-133938066D01*
X101695422Y-134068804D01*
X101695426Y-134068806D01*
X101699419Y-134071229D01*
X101940455Y-134172303D01*
X102193783Y-134236641D01*
X102198434Y-134237109D01*
X102198438Y-134237110D01*
X102391308Y-134256531D01*
X102410867Y-134258500D01*
X102566354Y-134258500D01*
X102568679Y-134258327D01*
X102568685Y-134258327D01*
X102756000Y-134244407D01*
X102756004Y-134244406D01*
X102760652Y-134244061D01*
X102765200Y-134243032D01*
X102765206Y-134243031D01*
X102951601Y-134200853D01*
X103015577Y-134186377D01*
X103051769Y-134172303D01*
X103254824Y-134093340D01*
X103254827Y-134093339D01*
X103259177Y-134091647D01*
X103486098Y-133961951D01*
X103691357Y-133800138D01*
X103870443Y-133609763D01*
X104019424Y-133395009D01*
X104135025Y-133160593D01*
X104214707Y-132911665D01*
X104256721Y-132653693D01*
X104259190Y-132465088D01*
X104260081Y-132397022D01*
X104260081Y-132397019D01*
X104260142Y-132392345D01*
X104224896Y-132133362D01*
X104210473Y-132083877D01*
X104169393Y-131942939D01*
X104151757Y-131882433D01*
X104042332Y-131645072D01*
X103992848Y-131569596D01*
X103901590Y-131430404D01*
X103901586Y-131430399D01*
X103899024Y-131426491D01*
X103724982Y-131231494D01*
X103524030Y-131064363D01*
X103451894Y-131020590D01*
X103304578Y-130931196D01*
X103304574Y-130931194D01*
X103300581Y-130928771D01*
X103059545Y-130827697D01*
X102806217Y-130763359D01*
X102801566Y-130762891D01*
X102801562Y-130762890D01*
X102592271Y-130741816D01*
X102589133Y-130741500D01*
X102433646Y-130741500D01*
X102431321Y-130741673D01*
X102431315Y-130741673D01*
X102244000Y-130755593D01*
X102243996Y-130755594D01*
X102239348Y-130755939D01*
X102234800Y-130756968D01*
X102234794Y-130756969D01*
X102051694Y-130798401D01*
X101984423Y-130813623D01*
X101980071Y-130815315D01*
X101980069Y-130815316D01*
X101745176Y-130906660D01*
X101745173Y-130906661D01*
X101740823Y-130908353D01*
X101513902Y-131038049D01*
X101308643Y-131199862D01*
X101129557Y-131390237D01*
X101023884Y-131542563D01*
X101005131Y-131569596D01*
X100980576Y-131604991D01*
X100978510Y-131609181D01*
X100978508Y-131609184D01*
X100882915Y-131803029D01*
X100864975Y-131839407D01*
X100785293Y-132088335D01*
X100743279Y-132346307D01*
X100739858Y-132607655D01*
X93604921Y-132607655D01*
X93586924Y-123095469D01*
X102017095Y-123095469D01*
X102017392Y-123100622D01*
X102017392Y-123100625D01*
X102023065Y-123199020D01*
X102030427Y-123326697D01*
X102031564Y-123331743D01*
X102031565Y-123331749D01*
X102060309Y-123459292D01*
X102081346Y-123552642D01*
X102083288Y-123557424D01*
X102083289Y-123557428D01*
X102166540Y-123762450D01*
X102168484Y-123767237D01*
X102289501Y-123964719D01*
X102441147Y-124139784D01*
X102619349Y-124287730D01*
X102819322Y-124404584D01*
X103035694Y-124487209D01*
X103040760Y-124488240D01*
X103040761Y-124488240D01*
X103093846Y-124499040D01*
X103262656Y-124533385D01*
X103393324Y-124538176D01*
X103488949Y-124541683D01*
X103488953Y-124541683D01*
X103494113Y-124541872D01*
X103499233Y-124541216D01*
X103499235Y-124541216D01*
X103572270Y-124531860D01*
X103723847Y-124512442D01*
X103728795Y-124510957D01*
X103728802Y-124510956D01*
X103940747Y-124447369D01*
X103945690Y-124445886D01*
X103952804Y-124442401D01*
X104149049Y-124346262D01*
X104149052Y-124346260D01*
X104153684Y-124343991D01*
X104342243Y-124209494D01*
X104506303Y-124046005D01*
X104641458Y-123857917D01*
X104663983Y-123812342D01*
X104741784Y-123654922D01*
X104741785Y-123654920D01*
X104744078Y-123650280D01*
X104811408Y-123428671D01*
X104841640Y-123199041D01*
X104843327Y-123130000D01*
X104824796Y-122904598D01*
X104824773Y-122904318D01*
X104824772Y-122904312D01*
X104824349Y-122899167D01*
X104781691Y-122729338D01*
X104769184Y-122679544D01*
X104769183Y-122679540D01*
X104767925Y-122674533D01*
X104757218Y-122649908D01*
X104677630Y-122466868D01*
X104677628Y-122466865D01*
X104675570Y-122462131D01*
X104549764Y-122267665D01*
X104393887Y-122096358D01*
X104389836Y-122093159D01*
X104389832Y-122093155D01*
X104217077Y-121956722D01*
X104176014Y-121898805D01*
X104172782Y-121827882D01*
X104208407Y-121766470D01*
X104222001Y-121755261D01*
X104225872Y-121752500D01*
X104342243Y-121669494D01*
X104506303Y-121506005D01*
X104641458Y-121317917D01*
X104663983Y-121272342D01*
X104741784Y-121114922D01*
X104741785Y-121114920D01*
X104744078Y-121110280D01*
X104811408Y-120888671D01*
X104841640Y-120659041D01*
X104843327Y-120590000D01*
X104824796Y-120364598D01*
X104824773Y-120364318D01*
X104824772Y-120364312D01*
X104824349Y-120359167D01*
X104781691Y-120189338D01*
X104769184Y-120139544D01*
X104769183Y-120139540D01*
X104767925Y-120134533D01*
X104757218Y-120109908D01*
X104677630Y-119926868D01*
X104677628Y-119926865D01*
X104675570Y-119922131D01*
X104549764Y-119727665D01*
X104393887Y-119556358D01*
X104389836Y-119553159D01*
X104389832Y-119553155D01*
X104217077Y-119416722D01*
X104176014Y-119358805D01*
X104172782Y-119287882D01*
X104208407Y-119226470D01*
X104222001Y-119215261D01*
X104225872Y-119212500D01*
X104342243Y-119129494D01*
X104506303Y-118966005D01*
X104641458Y-118777917D01*
X104663983Y-118732342D01*
X104741784Y-118574922D01*
X104741785Y-118574920D01*
X104744078Y-118570280D01*
X104811408Y-118348671D01*
X104841640Y-118119041D01*
X104843327Y-118050000D01*
X104824796Y-117824598D01*
X104824773Y-117824318D01*
X104824772Y-117824312D01*
X104824349Y-117819167D01*
X104781691Y-117649338D01*
X104769184Y-117599544D01*
X104769183Y-117599540D01*
X104767925Y-117594533D01*
X104757218Y-117569908D01*
X104677630Y-117386868D01*
X104677628Y-117386865D01*
X104675570Y-117382131D01*
X104549764Y-117187665D01*
X104393887Y-117016358D01*
X104389836Y-117013159D01*
X104389832Y-117013155D01*
X104217077Y-116876722D01*
X104176014Y-116818805D01*
X104172782Y-116747882D01*
X104208407Y-116686470D01*
X104222001Y-116675261D01*
X104225872Y-116672500D01*
X104342243Y-116589494D01*
X104506303Y-116426005D01*
X104641458Y-116237917D01*
X104663983Y-116192342D01*
X104741784Y-116034922D01*
X104741785Y-116034920D01*
X104744078Y-116030280D01*
X104811408Y-115808671D01*
X104841640Y-115579041D01*
X104841865Y-115569829D01*
X104843245Y-115513365D01*
X104843245Y-115513361D01*
X104843327Y-115510000D01*
X104835417Y-115413787D01*
X104824773Y-115284318D01*
X104824772Y-115284312D01*
X104824349Y-115279167D01*
X104789875Y-115141921D01*
X104769184Y-115059544D01*
X104769183Y-115059540D01*
X104767925Y-115054533D01*
X104757218Y-115029908D01*
X104677630Y-114846868D01*
X104677628Y-114846865D01*
X104675570Y-114842131D01*
X104549764Y-114647665D01*
X104393887Y-114476358D01*
X104389836Y-114473159D01*
X104389832Y-114473155D01*
X104217077Y-114336722D01*
X104176014Y-114278805D01*
X104172782Y-114207882D01*
X104208407Y-114146470D01*
X104222001Y-114135261D01*
X104225872Y-114132500D01*
X104342243Y-114049494D01*
X104506303Y-113886005D01*
X104641458Y-113697917D01*
X104663312Y-113653700D01*
X104741784Y-113494922D01*
X104741785Y-113494920D01*
X104744078Y-113490280D01*
X104811408Y-113268671D01*
X104841640Y-113039041D01*
X104843327Y-112970000D01*
X104834336Y-112860635D01*
X104824773Y-112744318D01*
X104824772Y-112744312D01*
X104824349Y-112739167D01*
X104777045Y-112550842D01*
X104769184Y-112519544D01*
X104769183Y-112519540D01*
X104767925Y-112514533D01*
X104765363Y-112508641D01*
X104677630Y-112306868D01*
X104677628Y-112306865D01*
X104675570Y-112302131D01*
X104549764Y-112107665D01*
X104393887Y-111936358D01*
X104389836Y-111933159D01*
X104389832Y-111933155D01*
X104217077Y-111796722D01*
X104176014Y-111738805D01*
X104172782Y-111667882D01*
X104208407Y-111606470D01*
X104222001Y-111595261D01*
X104223769Y-111594000D01*
X104342243Y-111509494D01*
X104506303Y-111346005D01*
X104641458Y-111157917D01*
X104667159Y-111105916D01*
X104741784Y-110954922D01*
X104741785Y-110954920D01*
X104744078Y-110950280D01*
X104811408Y-110728671D01*
X104841640Y-110499041D01*
X104842137Y-110478717D01*
X104843245Y-110433365D01*
X104843245Y-110433361D01*
X104843327Y-110430000D01*
X104831500Y-110286142D01*
X104824773Y-110204318D01*
X104824772Y-110204312D01*
X104824349Y-110199167D01*
X104780058Y-110022836D01*
X104769184Y-109979544D01*
X104769183Y-109979540D01*
X104767925Y-109974533D01*
X104757218Y-109949908D01*
X104677630Y-109766868D01*
X104677628Y-109766865D01*
X104675570Y-109762131D01*
X104549764Y-109567665D01*
X104393887Y-109396358D01*
X104389836Y-109393159D01*
X104389832Y-109393155D01*
X104217077Y-109256722D01*
X104176014Y-109198805D01*
X104172782Y-109127882D01*
X104208407Y-109066470D01*
X104222001Y-109055261D01*
X104225872Y-109052500D01*
X104342243Y-108969494D01*
X104506303Y-108806005D01*
X104641458Y-108617917D01*
X104669127Y-108561934D01*
X104741784Y-108414922D01*
X104741785Y-108414920D01*
X104744078Y-108410280D01*
X104811408Y-108188671D01*
X104841640Y-107959041D01*
X104843327Y-107890000D01*
X104831208Y-107742596D01*
X104824773Y-107664318D01*
X104824772Y-107664312D01*
X104824349Y-107659167D01*
X104775028Y-107462812D01*
X104769184Y-107439544D01*
X104769183Y-107439540D01*
X104767925Y-107434533D01*
X104757218Y-107409908D01*
X104677630Y-107226868D01*
X104677628Y-107226865D01*
X104675570Y-107222131D01*
X104549764Y-107027665D01*
X104393887Y-106856358D01*
X104389836Y-106853159D01*
X104389832Y-106853155D01*
X104217077Y-106716722D01*
X104176014Y-106658805D01*
X104172782Y-106587882D01*
X104208407Y-106526470D01*
X104222001Y-106515261D01*
X104225872Y-106512500D01*
X104342243Y-106429494D01*
X104506303Y-106266005D01*
X104641458Y-106077917D01*
X104666692Y-106026861D01*
X104741784Y-105874922D01*
X104741785Y-105874920D01*
X104744078Y-105870280D01*
X104811408Y-105648671D01*
X104841640Y-105419041D01*
X104843327Y-105350000D01*
X104831208Y-105202596D01*
X104824773Y-105124318D01*
X104824772Y-105124312D01*
X104824349Y-105119167D01*
X104787777Y-104973567D01*
X104769184Y-104899544D01*
X104769183Y-104899540D01*
X104767925Y-104894533D01*
X104757218Y-104869908D01*
X104677630Y-104686868D01*
X104677628Y-104686865D01*
X104675570Y-104682131D01*
X104549764Y-104487665D01*
X104393887Y-104316358D01*
X104389836Y-104313159D01*
X104389832Y-104313155D01*
X104217077Y-104176722D01*
X104176014Y-104118805D01*
X104172782Y-104047882D01*
X104208407Y-103986470D01*
X104222001Y-103975261D01*
X104225872Y-103972500D01*
X104342243Y-103889494D01*
X104506303Y-103726005D01*
X104641458Y-103537917D01*
X104688641Y-103442450D01*
X104741784Y-103334922D01*
X104741785Y-103334920D01*
X104744078Y-103330280D01*
X104811408Y-103108671D01*
X104841640Y-102879041D01*
X104843327Y-102810000D01*
X104827694Y-102619848D01*
X104824773Y-102584318D01*
X104824772Y-102584312D01*
X104824349Y-102579167D01*
X104776728Y-102389580D01*
X104769184Y-102359544D01*
X104769183Y-102359540D01*
X104767925Y-102354533D01*
X104765582Y-102349144D01*
X104677630Y-102146868D01*
X104677628Y-102146865D01*
X104675570Y-102142131D01*
X104549764Y-101947665D01*
X104393887Y-101776358D01*
X104389836Y-101773159D01*
X104389832Y-101773155D01*
X104217077Y-101636722D01*
X104176014Y-101578805D01*
X104172782Y-101507882D01*
X104208407Y-101446470D01*
X104222001Y-101435261D01*
X104225872Y-101432500D01*
X104342243Y-101349494D01*
X104506303Y-101186005D01*
X104641458Y-100997917D01*
X104645150Y-100990448D01*
X104741784Y-100794922D01*
X104741785Y-100794920D01*
X104744078Y-100790280D01*
X104811408Y-100568671D01*
X104841640Y-100339041D01*
X104843327Y-100270000D01*
X104827694Y-100079848D01*
X104824773Y-100044318D01*
X104824772Y-100044312D01*
X104824349Y-100039167D01*
X104782133Y-99871097D01*
X104769184Y-99819544D01*
X104769183Y-99819540D01*
X104767925Y-99814533D01*
X104762325Y-99801654D01*
X104677630Y-99606868D01*
X104677628Y-99606865D01*
X104675570Y-99602131D01*
X104549764Y-99407665D01*
X104393887Y-99236358D01*
X104389836Y-99233159D01*
X104389832Y-99233155D01*
X104217077Y-99096722D01*
X104176014Y-99038805D01*
X104172782Y-98967882D01*
X104208407Y-98906470D01*
X104222001Y-98895261D01*
X104225872Y-98892500D01*
X104342243Y-98809494D01*
X104506303Y-98646005D01*
X104641458Y-98457917D01*
X104688641Y-98362450D01*
X104741784Y-98254922D01*
X104741785Y-98254920D01*
X104744078Y-98250280D01*
X104811408Y-98028671D01*
X104841640Y-97799041D01*
X104843327Y-97730000D01*
X104831208Y-97582596D01*
X104824773Y-97504318D01*
X104824772Y-97504312D01*
X104824349Y-97499167D01*
X104785556Y-97344726D01*
X104769184Y-97279544D01*
X104769183Y-97279540D01*
X104767925Y-97274533D01*
X104762460Y-97261964D01*
X104677630Y-97066868D01*
X104677628Y-97066865D01*
X104675570Y-97062131D01*
X104549764Y-96867665D01*
X104393887Y-96696358D01*
X104389836Y-96693159D01*
X104389832Y-96693155D01*
X104216669Y-96556400D01*
X104175606Y-96498483D01*
X104172374Y-96427560D01*
X104207999Y-96366148D01*
X104213487Y-96361623D01*
X104223497Y-96348874D01*
X104216510Y-96335721D01*
X103442811Y-95562021D01*
X103428868Y-95554408D01*
X103427034Y-95554539D01*
X103420420Y-95558790D01*
X102640180Y-96339031D01*
X102633423Y-96351406D01*
X102652730Y-96377197D01*
X102652040Y-96377713D01*
X102676627Y-96403737D01*
X102689743Y-96473511D01*
X102663055Y-96539300D01*
X102640023Y-96561719D01*
X102491655Y-96673117D01*
X102331639Y-96840564D01*
X102328725Y-96844836D01*
X102328724Y-96844837D01*
X102313152Y-96867665D01*
X102201119Y-97031899D01*
X102103602Y-97241981D01*
X102041707Y-97465169D01*
X102017095Y-97695469D01*
X102017392Y-97700622D01*
X102017392Y-97700625D01*
X102027854Y-97882077D01*
X102030427Y-97926697D01*
X102031564Y-97931743D01*
X102031565Y-97931749D01*
X102060309Y-98059292D01*
X102081346Y-98152642D01*
X102083288Y-98157424D01*
X102083289Y-98157428D01*
X102166540Y-98362450D01*
X102168484Y-98367237D01*
X102289501Y-98564719D01*
X102441147Y-98739784D01*
X102619349Y-98887730D01*
X102623819Y-98890342D01*
X102627511Y-98892500D01*
X102676232Y-98944140D01*
X102689301Y-99013924D01*
X102662566Y-99079694D01*
X102639589Y-99102045D01*
X102576248Y-99149603D01*
X102491655Y-99213117D01*
X102331639Y-99380564D01*
X102328725Y-99384836D01*
X102328724Y-99384837D01*
X102300091Y-99426812D01*
X102201119Y-99571899D01*
X102103602Y-99781981D01*
X102041707Y-100005169D01*
X102017095Y-100235469D01*
X102017392Y-100240622D01*
X102017392Y-100240625D01*
X102027135Y-100409595D01*
X102030427Y-100466697D01*
X102031564Y-100471743D01*
X102031565Y-100471749D01*
X102061254Y-100603489D01*
X102081346Y-100692642D01*
X102083288Y-100697424D01*
X102083289Y-100697428D01*
X102165254Y-100899282D01*
X102168484Y-100907237D01*
X102241473Y-101026344D01*
X102280872Y-101090637D01*
X102289501Y-101104719D01*
X102441147Y-101279784D01*
X102619349Y-101427730D01*
X102623819Y-101430342D01*
X102627511Y-101432500D01*
X102676232Y-101484140D01*
X102689301Y-101553924D01*
X102662566Y-101619694D01*
X102639589Y-101642045D01*
X102517780Y-101733502D01*
X102491655Y-101753117D01*
X102331639Y-101920564D01*
X102328725Y-101924836D01*
X102328724Y-101924837D01*
X102299869Y-101967137D01*
X102201119Y-102111899D01*
X102103602Y-102321981D01*
X102041707Y-102545169D01*
X102017095Y-102775469D01*
X102017392Y-102780622D01*
X102017392Y-102780625D01*
X102027135Y-102949595D01*
X102030427Y-103006697D01*
X102031564Y-103011743D01*
X102031565Y-103011749D01*
X102054523Y-103113620D01*
X102081346Y-103232642D01*
X102083288Y-103237424D01*
X102083289Y-103237428D01*
X102166540Y-103442450D01*
X102168484Y-103447237D01*
X102289501Y-103644719D01*
X102441147Y-103819784D01*
X102619349Y-103967730D01*
X102623819Y-103970342D01*
X102627511Y-103972500D01*
X102676232Y-104024140D01*
X102689301Y-104093924D01*
X102662566Y-104159694D01*
X102639589Y-104182045D01*
X102517780Y-104273502D01*
X102491655Y-104293117D01*
X102331639Y-104460564D01*
X102328725Y-104464836D01*
X102328724Y-104464837D01*
X102299869Y-104507137D01*
X102201119Y-104651899D01*
X102103602Y-104861981D01*
X102041707Y-105085169D01*
X102017095Y-105315469D01*
X102017392Y-105320622D01*
X102017392Y-105320625D01*
X102023065Y-105419020D01*
X102030427Y-105546697D01*
X102031564Y-105551743D01*
X102031565Y-105551749D01*
X102060309Y-105679292D01*
X102081346Y-105772642D01*
X102083288Y-105777424D01*
X102083289Y-105777428D01*
X102166540Y-105982450D01*
X102168484Y-105987237D01*
X102289501Y-106184719D01*
X102441147Y-106359784D01*
X102619349Y-106507730D01*
X102623819Y-106510342D01*
X102627511Y-106512500D01*
X102676232Y-106564140D01*
X102689301Y-106633924D01*
X102662566Y-106699694D01*
X102639589Y-106722045D01*
X102526396Y-106807033D01*
X102491655Y-106833117D01*
X102331639Y-107000564D01*
X102328725Y-107004836D01*
X102328724Y-107004837D01*
X102313152Y-107027665D01*
X102201119Y-107191899D01*
X102103602Y-107401981D01*
X102041707Y-107625169D01*
X102017095Y-107855469D01*
X102017392Y-107860622D01*
X102017392Y-107860625D01*
X102023065Y-107959020D01*
X102030427Y-108086697D01*
X102031564Y-108091743D01*
X102031565Y-108091749D01*
X102060309Y-108219292D01*
X102081346Y-108312642D01*
X102083288Y-108317424D01*
X102083289Y-108317428D01*
X102166540Y-108522450D01*
X102168484Y-108527237D01*
X102289501Y-108724719D01*
X102441147Y-108899784D01*
X102619349Y-109047730D01*
X102623819Y-109050342D01*
X102627511Y-109052500D01*
X102676232Y-109104140D01*
X102689301Y-109173924D01*
X102662566Y-109239694D01*
X102639589Y-109262045D01*
X102491655Y-109373117D01*
X102331639Y-109540564D01*
X102328725Y-109544836D01*
X102328724Y-109544837D01*
X102283635Y-109610935D01*
X102201119Y-109731899D01*
X102103602Y-109941981D01*
X102041707Y-110165169D01*
X102017095Y-110395469D01*
X102017392Y-110400622D01*
X102017392Y-110400625D01*
X102022875Y-110495717D01*
X102030427Y-110626697D01*
X102031564Y-110631743D01*
X102031565Y-110631749D01*
X102060309Y-110759292D01*
X102081346Y-110852642D01*
X102083288Y-110857424D01*
X102083289Y-110857428D01*
X102166540Y-111062450D01*
X102168484Y-111067237D01*
X102289501Y-111264719D01*
X102441147Y-111439784D01*
X102619349Y-111587730D01*
X102623819Y-111590342D01*
X102627511Y-111592500D01*
X102676232Y-111644140D01*
X102689301Y-111713924D01*
X102662566Y-111779694D01*
X102639589Y-111802045D01*
X102491655Y-111913117D01*
X102331639Y-112080564D01*
X102328725Y-112084836D01*
X102328724Y-112084837D01*
X102313152Y-112107665D01*
X102201119Y-112271899D01*
X102103602Y-112481981D01*
X102041707Y-112705169D01*
X102017095Y-112935469D01*
X102017392Y-112940622D01*
X102017392Y-112940625D01*
X102023065Y-113039020D01*
X102030427Y-113166697D01*
X102031564Y-113171743D01*
X102031565Y-113171749D01*
X102060309Y-113299292D01*
X102081346Y-113392642D01*
X102083288Y-113397424D01*
X102083289Y-113397428D01*
X102166540Y-113602450D01*
X102168484Y-113607237D01*
X102289501Y-113804719D01*
X102441147Y-113979784D01*
X102619349Y-114127730D01*
X102623819Y-114130342D01*
X102627511Y-114132500D01*
X102676232Y-114184140D01*
X102689301Y-114253924D01*
X102662566Y-114319694D01*
X102639589Y-114342045D01*
X102586626Y-114381811D01*
X102491655Y-114453117D01*
X102331639Y-114620564D01*
X102328725Y-114624836D01*
X102328724Y-114624837D01*
X102313152Y-114647665D01*
X102201119Y-114811899D01*
X102103602Y-115021981D01*
X102041707Y-115245169D01*
X102017095Y-115475469D01*
X102017392Y-115480622D01*
X102017392Y-115480625D01*
X102024176Y-115598288D01*
X102030427Y-115706697D01*
X102031564Y-115711743D01*
X102031565Y-115711749D01*
X102060309Y-115839292D01*
X102081346Y-115932642D01*
X102083288Y-115937424D01*
X102083289Y-115937428D01*
X102166540Y-116142450D01*
X102168484Y-116147237D01*
X102289501Y-116344719D01*
X102441147Y-116519784D01*
X102619349Y-116667730D01*
X102623819Y-116670342D01*
X102627511Y-116672500D01*
X102676232Y-116724140D01*
X102689301Y-116793924D01*
X102662566Y-116859694D01*
X102639589Y-116882045D01*
X102586626Y-116921811D01*
X102491655Y-116993117D01*
X102331639Y-117160564D01*
X102328725Y-117164836D01*
X102328724Y-117164837D01*
X102313152Y-117187665D01*
X102201119Y-117351899D01*
X102103602Y-117561981D01*
X102041707Y-117785169D01*
X102017095Y-118015469D01*
X102017392Y-118020622D01*
X102017392Y-118020625D01*
X102023065Y-118119020D01*
X102030427Y-118246697D01*
X102031564Y-118251743D01*
X102031565Y-118251749D01*
X102060309Y-118379292D01*
X102081346Y-118472642D01*
X102083288Y-118477424D01*
X102083289Y-118477428D01*
X102166540Y-118682450D01*
X102168484Y-118687237D01*
X102289501Y-118884719D01*
X102441147Y-119059784D01*
X102619349Y-119207730D01*
X102623819Y-119210342D01*
X102627511Y-119212500D01*
X102676232Y-119264140D01*
X102689301Y-119333924D01*
X102662566Y-119399694D01*
X102639589Y-119422045D01*
X102586626Y-119461811D01*
X102491655Y-119533117D01*
X102331639Y-119700564D01*
X102328725Y-119704836D01*
X102328724Y-119704837D01*
X102313152Y-119727665D01*
X102201119Y-119891899D01*
X102103602Y-120101981D01*
X102041707Y-120325169D01*
X102017095Y-120555469D01*
X102017392Y-120560622D01*
X102017392Y-120560625D01*
X102023065Y-120659020D01*
X102030427Y-120786697D01*
X102031564Y-120791743D01*
X102031565Y-120791749D01*
X102060309Y-120919292D01*
X102081346Y-121012642D01*
X102083288Y-121017424D01*
X102083289Y-121017428D01*
X102166540Y-121222450D01*
X102168484Y-121227237D01*
X102289501Y-121424719D01*
X102441147Y-121599784D01*
X102619349Y-121747730D01*
X102623819Y-121750342D01*
X102627511Y-121752500D01*
X102676232Y-121804140D01*
X102689301Y-121873924D01*
X102662566Y-121939694D01*
X102639589Y-121962045D01*
X102586626Y-122001811D01*
X102491655Y-122073117D01*
X102331639Y-122240564D01*
X102328725Y-122244836D01*
X102328724Y-122244837D01*
X102313152Y-122267665D01*
X102201119Y-122431899D01*
X102103602Y-122641981D01*
X102041707Y-122865169D01*
X102017095Y-123095469D01*
X93586924Y-123095469D01*
X93565462Y-111751375D01*
X93550015Y-103586695D01*
X95187251Y-103586695D01*
X95187548Y-103591848D01*
X95187548Y-103591851D01*
X95193011Y-103686590D01*
X95200110Y-103809715D01*
X95201247Y-103814761D01*
X95201248Y-103814767D01*
X95202379Y-103819784D01*
X95249222Y-104027639D01*
X95302844Y-104159694D01*
X95326817Y-104218733D01*
X95333266Y-104234616D01*
X95347731Y-104258220D01*
X95447291Y-104420688D01*
X95449987Y-104425088D01*
X95596250Y-104593938D01*
X95768126Y-104736632D01*
X95961000Y-104849338D01*
X95965825Y-104851180D01*
X95965826Y-104851181D01*
X96014867Y-104869908D01*
X96169692Y-104929030D01*
X96174760Y-104930061D01*
X96174763Y-104930062D01*
X96282017Y-104951883D01*
X96388597Y-104973567D01*
X96393772Y-104973757D01*
X96393774Y-104973757D01*
X96606673Y-104981564D01*
X96606677Y-104981564D01*
X96611837Y-104981753D01*
X96616957Y-104981097D01*
X96616959Y-104981097D01*
X96828288Y-104954025D01*
X96828289Y-104954025D01*
X96833416Y-104953368D01*
X96838366Y-104951883D01*
X97042429Y-104890661D01*
X97042434Y-104890659D01*
X97047384Y-104889174D01*
X97247994Y-104790896D01*
X97429860Y-104661173D01*
X97439167Y-104651899D01*
X97519002Y-104572342D01*
X97588096Y-104503489D01*
X97635147Y-104438011D01*
X97715435Y-104326277D01*
X97718453Y-104322077D01*
X97721280Y-104316358D01*
X97815136Y-104126453D01*
X97815137Y-104126451D01*
X97817430Y-104121811D01*
X97872019Y-103942138D01*
X97880865Y-103913023D01*
X97880865Y-103913021D01*
X97882370Y-103908069D01*
X97911529Y-103686590D01*
X97911988Y-103667800D01*
X97913074Y-103623365D01*
X97913074Y-103623361D01*
X97913156Y-103620000D01*
X97894852Y-103397361D01*
X97840431Y-103180702D01*
X97751354Y-102975840D01*
X97646244Y-102813365D01*
X97632822Y-102792617D01*
X97632820Y-102792614D01*
X97630014Y-102788277D01*
X97479670Y-102623051D01*
X97475619Y-102619852D01*
X97475615Y-102619848D01*
X97308414Y-102487800D01*
X97308410Y-102487798D01*
X97304359Y-102484598D01*
X97263053Y-102461796D01*
X97213084Y-102411364D01*
X97198312Y-102341921D01*
X97223428Y-102275516D01*
X97250780Y-102248909D01*
X97319798Y-102199679D01*
X97429860Y-102121173D01*
X97438595Y-102112469D01*
X97584435Y-101967137D01*
X97588096Y-101963489D01*
X97647594Y-101880689D01*
X97715435Y-101786277D01*
X97718453Y-101782077D01*
X97721280Y-101776358D01*
X97815136Y-101586453D01*
X97815137Y-101586451D01*
X97817430Y-101581811D01*
X97872019Y-101402138D01*
X97880865Y-101373023D01*
X97880865Y-101373021D01*
X97882370Y-101368069D01*
X97911529Y-101146590D01*
X97911988Y-101127800D01*
X97913074Y-101083365D01*
X97913074Y-101083361D01*
X97913156Y-101080000D01*
X97894852Y-100857361D01*
X97840431Y-100640702D01*
X97751354Y-100435840D01*
X97646244Y-100273365D01*
X97632822Y-100252617D01*
X97632820Y-100252614D01*
X97630014Y-100248277D01*
X97479670Y-100083051D01*
X97475619Y-100079852D01*
X97475615Y-100079848D01*
X97308414Y-99947800D01*
X97308410Y-99947798D01*
X97304359Y-99944598D01*
X97262569Y-99921529D01*
X97212598Y-99871097D01*
X97197826Y-99801654D01*
X97222942Y-99735248D01*
X97250294Y-99708641D01*
X97425328Y-99583792D01*
X97433200Y-99577139D01*
X97584052Y-99426812D01*
X97590730Y-99418965D01*
X97715003Y-99246020D01*
X97720313Y-99237183D01*
X97814670Y-99046267D01*
X97818469Y-99036672D01*
X97880377Y-98832910D01*
X97882555Y-98822837D01*
X97883986Y-98811962D01*
X97881775Y-98797778D01*
X97868617Y-98794000D01*
X95233225Y-98794000D01*
X95219694Y-98797973D01*
X95218257Y-98807966D01*
X95248565Y-98942446D01*
X95251645Y-98952275D01*
X95331770Y-99149603D01*
X95336413Y-99158794D01*
X95447694Y-99340388D01*
X95453777Y-99348699D01*
X95593213Y-99509667D01*
X95600580Y-99516883D01*
X95764434Y-99652916D01*
X95772881Y-99658831D01*
X95841969Y-99699203D01*
X95890693Y-99750842D01*
X95903764Y-99820625D01*
X95877033Y-99886396D01*
X95836584Y-99919752D01*
X95823607Y-99926507D01*
X95819474Y-99929610D01*
X95819471Y-99929612D01*
X95666697Y-100044318D01*
X95644965Y-100060635D01*
X95490629Y-100222138D01*
X95364743Y-100406680D01*
X95350898Y-100436507D01*
X95273388Y-100603489D01*
X95270688Y-100609305D01*
X95210989Y-100824570D01*
X95187251Y-101046695D01*
X95187548Y-101051848D01*
X95187548Y-101051851D01*
X95193011Y-101146590D01*
X95200110Y-101269715D01*
X95201247Y-101274761D01*
X95201248Y-101274767D01*
X95202379Y-101279784D01*
X95249222Y-101487639D01*
X95308169Y-101632810D01*
X95314000Y-101647168D01*
X95333266Y-101694616D01*
X95335965Y-101699020D01*
X95447291Y-101880688D01*
X95449987Y-101885088D01*
X95596250Y-102053938D01*
X95768126Y-102196632D01*
X95803725Y-102217434D01*
X95841445Y-102239476D01*
X95890169Y-102291114D01*
X95903240Y-102360897D01*
X95876509Y-102426669D01*
X95836055Y-102460027D01*
X95823607Y-102466507D01*
X95819474Y-102469610D01*
X95819471Y-102469612D01*
X95666697Y-102584318D01*
X95644965Y-102600635D01*
X95490629Y-102762138D01*
X95487715Y-102766410D01*
X95487714Y-102766411D01*
X95485037Y-102770336D01*
X95364743Y-102946680D01*
X95350898Y-102976507D01*
X95273388Y-103143489D01*
X95270688Y-103149305D01*
X95210989Y-103364570D01*
X95187251Y-103586695D01*
X93550015Y-103586695D01*
X93533229Y-94713892D01*
X93553102Y-94645734D01*
X93606670Y-94599140D01*
X93676925Y-94588903D01*
X93741561Y-94618274D01*
X93748324Y-94624559D01*
X95154595Y-96030830D01*
X95188621Y-96093142D01*
X95191500Y-96119925D01*
X95191500Y-96898134D01*
X95198255Y-96960316D01*
X95249385Y-97096705D01*
X95336739Y-97213261D01*
X95453295Y-97300615D01*
X95461704Y-97303767D01*
X95461705Y-97303768D01*
X95570960Y-97344726D01*
X95627725Y-97387367D01*
X95652425Y-97453929D01*
X95637218Y-97523278D01*
X95617825Y-97549759D01*
X95494590Y-97678717D01*
X95488104Y-97686727D01*
X95368098Y-97862649D01*
X95363000Y-97871623D01*
X95273338Y-98064783D01*
X95269775Y-98074470D01*
X95214389Y-98274183D01*
X95215912Y-98282607D01*
X95228292Y-98286000D01*
X97868344Y-98286000D01*
X97881875Y-98282027D01*
X97883180Y-98272947D01*
X97841214Y-98105875D01*
X97837894Y-98096124D01*
X97752972Y-97900814D01*
X97748105Y-97891739D01*
X97632426Y-97712926D01*
X97626136Y-97704757D01*
X97482293Y-97546677D01*
X97451241Y-97482831D01*
X97459635Y-97412333D01*
X97504812Y-97357564D01*
X97531256Y-97343895D01*
X97638297Y-97303767D01*
X97646705Y-97300615D01*
X97763261Y-97213261D01*
X97850615Y-97096705D01*
X97901745Y-96960316D01*
X97908500Y-96898134D01*
X97908500Y-95160638D01*
X102017893Y-95160638D01*
X102030627Y-95381468D01*
X102032061Y-95391670D01*
X102080685Y-95607439D01*
X102083773Y-95617292D01*
X102166986Y-95822220D01*
X102171634Y-95831421D01*
X102260097Y-95975781D01*
X102270553Y-95985242D01*
X102279331Y-95981458D01*
X103057979Y-95202811D01*
X103064356Y-95191132D01*
X103794408Y-95191132D01*
X103794539Y-95192966D01*
X103798790Y-95199580D01*
X104576307Y-95977096D01*
X104588313Y-95983652D01*
X104600052Y-95974684D01*
X104638010Y-95921859D01*
X104643321Y-95913020D01*
X104741318Y-95714737D01*
X104745117Y-95705142D01*
X104809415Y-95493517D01*
X104811594Y-95483436D01*
X104840702Y-95262338D01*
X104841221Y-95255663D01*
X104842744Y-95193364D01*
X104842550Y-95186646D01*
X104824279Y-94964400D01*
X104822596Y-94954238D01*
X104768710Y-94739708D01*
X104765389Y-94729953D01*
X104677193Y-94527118D01*
X104672315Y-94518020D01*
X104599224Y-94405038D01*
X104588538Y-94395835D01*
X104578973Y-94400238D01*
X103802021Y-95177189D01*
X103794408Y-95191132D01*
X103064356Y-95191132D01*
X103065592Y-95188868D01*
X103065461Y-95187034D01*
X103061210Y-95180420D01*
X102283862Y-94403073D01*
X102272330Y-94396776D01*
X102260048Y-94406399D01*
X102204467Y-94487877D01*
X102199379Y-94496833D01*
X102106252Y-94697459D01*
X102102689Y-94707146D01*
X102043581Y-94920280D01*
X102041650Y-94930400D01*
X102018145Y-95150349D01*
X102017893Y-95160638D01*
X97908500Y-95160638D01*
X97908500Y-95101866D01*
X97901745Y-95039684D01*
X97850615Y-94903295D01*
X97763261Y-94786739D01*
X97646705Y-94699385D01*
X97510316Y-94648255D01*
X97448134Y-94641500D01*
X96669924Y-94641500D01*
X96601803Y-94621498D01*
X96580829Y-94604595D01*
X95345405Y-93369171D01*
X95311379Y-93306859D01*
X95308500Y-93280076D01*
X95308500Y-89934652D01*
X95328502Y-89866531D01*
X95382158Y-89820038D01*
X95452432Y-89809934D01*
X95517012Y-89839428D01*
X95529737Y-89852154D01*
X95592865Y-89925031D01*
X95592869Y-89925035D01*
X95596250Y-89928938D01*
X95713120Y-90025965D01*
X95756297Y-90061811D01*
X95768126Y-90071632D01*
X95961000Y-90184338D01*
X95965825Y-90186180D01*
X95965826Y-90186181D01*
X96021982Y-90207625D01*
X96169692Y-90264030D01*
X96174760Y-90265061D01*
X96174763Y-90265062D01*
X96282017Y-90286883D01*
X96388597Y-90308567D01*
X96393772Y-90308757D01*
X96393774Y-90308757D01*
X96606673Y-90316564D01*
X96606677Y-90316564D01*
X96611837Y-90316753D01*
X96616957Y-90316097D01*
X96616959Y-90316097D01*
X96828288Y-90289025D01*
X96828289Y-90289025D01*
X96833416Y-90288368D01*
X96904659Y-90266994D01*
X97042429Y-90225661D01*
X97042434Y-90225659D01*
X97047384Y-90224174D01*
X97247994Y-90125896D01*
X97429860Y-89996173D01*
X97459233Y-89966903D01*
X97536420Y-89889985D01*
X97588096Y-89838489D01*
X97718453Y-89657077D01*
X97720746Y-89652437D01*
X97722446Y-89649608D01*
X97774674Y-89601518D01*
X97830451Y-89588500D01*
X98766233Y-89588500D01*
X98777416Y-89589027D01*
X98784909Y-89590702D01*
X98792835Y-89590453D01*
X98792836Y-89590453D01*
X98852986Y-89588562D01*
X98856945Y-89588500D01*
X98884856Y-89588500D01*
X98888791Y-89588003D01*
X98888856Y-89587995D01*
X98900693Y-89587062D01*
X98932951Y-89586048D01*
X98936970Y-89585922D01*
X98944889Y-89585673D01*
X98964343Y-89580021D01*
X98983700Y-89576013D01*
X98995930Y-89574468D01*
X98995931Y-89574468D01*
X99003797Y-89573474D01*
X99011168Y-89570555D01*
X99011170Y-89570555D01*
X99044912Y-89557196D01*
X99056142Y-89553351D01*
X99090983Y-89543229D01*
X99090984Y-89543229D01*
X99098593Y-89541018D01*
X99105412Y-89536985D01*
X99105417Y-89536983D01*
X99116028Y-89530707D01*
X99133776Y-89522012D01*
X99152617Y-89514552D01*
X99160777Y-89508624D01*
X99188387Y-89488564D01*
X99198307Y-89482048D01*
X99229535Y-89463580D01*
X99229538Y-89463578D01*
X99236362Y-89459542D01*
X99250683Y-89445221D01*
X99265717Y-89432380D01*
X99268804Y-89430137D01*
X99282107Y-89420472D01*
X99310298Y-89386395D01*
X99318288Y-89377616D01*
X101806405Y-86889499D01*
X101868717Y-86855473D01*
X101939532Y-86860538D01*
X101996368Y-86903085D01*
X102021179Y-86969605D01*
X102021500Y-86978594D01*
X102021500Y-88518134D01*
X102028255Y-88580316D01*
X102079385Y-88716705D01*
X102166739Y-88833261D01*
X102283295Y-88920615D01*
X102291704Y-88923767D01*
X102291705Y-88923768D01*
X102351164Y-88946058D01*
X102407929Y-88988699D01*
X102432629Y-89055261D01*
X102417422Y-89124609D01*
X102398029Y-89151091D01*
X102331639Y-89220564D01*
X102328725Y-89224836D01*
X102328724Y-89224837D01*
X102313152Y-89247665D01*
X102201119Y-89411899D01*
X102103602Y-89621981D01*
X102041707Y-89845169D01*
X102017095Y-90075469D01*
X102017392Y-90080622D01*
X102017392Y-90080625D01*
X102030129Y-90301529D01*
X102030427Y-90306697D01*
X102031564Y-90311743D01*
X102031565Y-90311749D01*
X102060309Y-90439292D01*
X102081346Y-90532642D01*
X102083288Y-90537424D01*
X102083289Y-90537428D01*
X102162726Y-90733057D01*
X102168484Y-90747237D01*
X102289501Y-90944719D01*
X102441147Y-91119784D01*
X102619349Y-91267730D01*
X102623819Y-91270342D01*
X102627511Y-91272500D01*
X102676232Y-91324140D01*
X102689301Y-91393924D01*
X102662566Y-91459694D01*
X102639589Y-91482045D01*
X102491655Y-91593117D01*
X102331639Y-91760564D01*
X102328725Y-91764836D01*
X102328724Y-91764837D01*
X102313152Y-91787665D01*
X102201119Y-91951899D01*
X102103602Y-92161981D01*
X102041707Y-92385169D01*
X102017095Y-92615469D01*
X102017392Y-92620622D01*
X102017392Y-92620625D01*
X102023046Y-92718686D01*
X102030427Y-92846697D01*
X102031564Y-92851743D01*
X102031565Y-92851749D01*
X102043586Y-92905088D01*
X102081346Y-93072642D01*
X102083288Y-93077424D01*
X102083289Y-93077428D01*
X102165576Y-93280076D01*
X102168484Y-93287237D01*
X102289501Y-93484719D01*
X102441147Y-93659784D01*
X102619349Y-93807730D01*
X102623814Y-93810339D01*
X102627979Y-93812773D01*
X102676700Y-93864414D01*
X102689767Y-93934198D01*
X102663033Y-93999968D01*
X102646323Y-94016221D01*
X102635508Y-94030711D01*
X102642251Y-94043040D01*
X103417189Y-94817979D01*
X103431132Y-94825592D01*
X103432966Y-94825461D01*
X103439580Y-94821210D01*
X104218994Y-94041795D01*
X104226011Y-94028944D01*
X104218237Y-94018275D01*
X104216655Y-94017025D01*
X104175592Y-93959109D01*
X104172359Y-93888186D01*
X104207983Y-93826774D01*
X104221578Y-93815563D01*
X104273677Y-93778401D01*
X104342243Y-93729494D01*
X104506303Y-93566005D01*
X104641458Y-93377917D01*
X104653440Y-93353672D01*
X104701553Y-93301466D01*
X104766397Y-93283500D01*
X117335630Y-93283500D01*
X117403751Y-93303502D01*
X117443063Y-93343665D01*
X117529501Y-93484719D01*
X117681147Y-93659784D01*
X117859349Y-93807730D01*
X117863819Y-93810342D01*
X117867511Y-93812500D01*
X117916232Y-93864140D01*
X117929301Y-93933924D01*
X117902566Y-93999694D01*
X117879589Y-94022045D01*
X117731655Y-94133117D01*
X117571639Y-94300564D01*
X117441119Y-94491899D01*
X117343602Y-94701981D01*
X117281707Y-94925169D01*
X117257095Y-95155469D01*
X117257392Y-95160622D01*
X117257392Y-95160625D01*
X117270129Y-95381529D01*
X117270427Y-95386697D01*
X117271564Y-95391743D01*
X117271565Y-95391749D01*
X117283586Y-95445088D01*
X117321346Y-95612642D01*
X117323288Y-95617424D01*
X117323289Y-95617428D01*
X117406447Y-95822220D01*
X117408484Y-95827237D01*
X117529501Y-96024719D01*
X117681147Y-96199784D01*
X117859349Y-96347730D01*
X117863819Y-96350342D01*
X117867511Y-96352500D01*
X117916232Y-96404140D01*
X117929301Y-96473924D01*
X117902566Y-96539694D01*
X117879589Y-96562045D01*
X117731655Y-96673117D01*
X117571639Y-96840564D01*
X117568725Y-96844836D01*
X117568724Y-96844837D01*
X117553152Y-96867665D01*
X117441119Y-97031899D01*
X117343602Y-97241981D01*
X117281707Y-97465169D01*
X117257095Y-97695469D01*
X117257392Y-97700622D01*
X117257392Y-97700625D01*
X117267854Y-97882077D01*
X117270427Y-97926697D01*
X117271564Y-97931743D01*
X117271565Y-97931749D01*
X117300309Y-98059292D01*
X117321346Y-98152642D01*
X117323288Y-98157424D01*
X117323289Y-98157428D01*
X117406540Y-98362450D01*
X117408484Y-98367237D01*
X117529501Y-98564719D01*
X117681147Y-98739784D01*
X117859349Y-98887730D01*
X117863819Y-98890342D01*
X117867511Y-98892500D01*
X117916232Y-98944140D01*
X117929301Y-99013924D01*
X117902566Y-99079694D01*
X117879589Y-99102045D01*
X117816248Y-99149603D01*
X117731655Y-99213117D01*
X117571639Y-99380564D01*
X117568725Y-99384836D01*
X117568724Y-99384837D01*
X117540091Y-99426812D01*
X117441119Y-99571899D01*
X117343602Y-99781981D01*
X117281707Y-100005169D01*
X117257095Y-100235469D01*
X117257392Y-100240622D01*
X117257392Y-100240625D01*
X117267135Y-100409595D01*
X117270427Y-100466697D01*
X117271564Y-100471743D01*
X117271565Y-100471749D01*
X117301254Y-100603489D01*
X117321346Y-100692642D01*
X117323288Y-100697424D01*
X117323289Y-100697428D01*
X117393561Y-100870487D01*
X117400657Y-100941128D01*
X117368435Y-101004392D01*
X117340957Y-101026344D01*
X117315468Y-101041418D01*
X117315464Y-101041421D01*
X117308638Y-101045458D01*
X117294317Y-101059779D01*
X117279284Y-101072619D01*
X117262893Y-101084528D01*
X117257843Y-101090632D01*
X117257838Y-101090637D01*
X117234707Y-101118598D01*
X117226717Y-101127379D01*
X116282742Y-102071353D01*
X116274463Y-102078887D01*
X116267982Y-102083000D01*
X116229320Y-102124171D01*
X116221357Y-102132651D01*
X116218602Y-102135493D01*
X116198865Y-102155230D01*
X116196385Y-102158427D01*
X116188682Y-102167447D01*
X116158414Y-102199679D01*
X116154595Y-102206625D01*
X116154593Y-102206628D01*
X116148652Y-102217434D01*
X116137801Y-102233953D01*
X116125386Y-102249959D01*
X116122241Y-102257228D01*
X116122238Y-102257232D01*
X116107826Y-102290537D01*
X116102609Y-102301187D01*
X116081305Y-102339940D01*
X116079334Y-102347615D01*
X116079334Y-102347616D01*
X116076267Y-102359562D01*
X116069863Y-102378266D01*
X116061819Y-102396855D01*
X116060580Y-102404678D01*
X116060577Y-102404688D01*
X116054901Y-102440524D01*
X116052495Y-102452144D01*
X116044803Y-102482104D01*
X116041500Y-102494970D01*
X116041500Y-102515224D01*
X116039949Y-102534934D01*
X116036780Y-102554943D01*
X116037526Y-102562835D01*
X116040941Y-102598961D01*
X116041500Y-102610819D01*
X116041500Y-113436233D01*
X116040973Y-113447416D01*
X116039298Y-113454909D01*
X116039547Y-113462835D01*
X116039547Y-113462836D01*
X116041438Y-113522986D01*
X116041500Y-113526945D01*
X116041500Y-113554856D01*
X116041997Y-113558790D01*
X116041997Y-113558791D01*
X116042005Y-113558856D01*
X116042938Y-113570693D01*
X116044327Y-113614889D01*
X116049041Y-113631114D01*
X116049978Y-113634339D01*
X116053987Y-113653700D01*
X116055102Y-113662522D01*
X116056526Y-113673797D01*
X116059445Y-113681168D01*
X116059445Y-113681170D01*
X116072804Y-113714912D01*
X116076649Y-113726142D01*
X116086771Y-113760983D01*
X116088982Y-113768593D01*
X116093015Y-113775412D01*
X116093017Y-113775417D01*
X116099293Y-113786028D01*
X116107988Y-113803776D01*
X116115448Y-113822617D01*
X116120110Y-113829033D01*
X116120110Y-113829034D01*
X116141436Y-113858387D01*
X116147952Y-113868307D01*
X116158419Y-113886005D01*
X116170458Y-113906362D01*
X116184779Y-113920683D01*
X116197619Y-113935716D01*
X116209528Y-113952107D01*
X116238261Y-113975877D01*
X116243605Y-113980298D01*
X116252384Y-113988288D01*
X117279153Y-115015058D01*
X117313179Y-115077370D01*
X117311476Y-115137823D01*
X117281707Y-115245169D01*
X117281159Y-115250301D01*
X117281158Y-115250304D01*
X117278074Y-115279167D01*
X117257095Y-115475469D01*
X117257392Y-115480622D01*
X117257392Y-115480625D01*
X117264176Y-115598288D01*
X117270427Y-115706697D01*
X117271564Y-115711743D01*
X117271565Y-115711749D01*
X117300309Y-115839292D01*
X117321346Y-115932642D01*
X117323288Y-115937424D01*
X117323289Y-115937428D01*
X117406540Y-116142450D01*
X117408484Y-116147237D01*
X117529501Y-116344719D01*
X117681147Y-116519784D01*
X117859349Y-116667730D01*
X117863819Y-116670342D01*
X117867511Y-116672500D01*
X117916232Y-116724140D01*
X117929301Y-116793924D01*
X117902566Y-116859694D01*
X117879589Y-116882045D01*
X117826626Y-116921811D01*
X117731655Y-116993117D01*
X117571639Y-117160564D01*
X117568725Y-117164836D01*
X117568724Y-117164837D01*
X117553152Y-117187665D01*
X117441119Y-117351899D01*
X117343602Y-117561981D01*
X117281707Y-117785169D01*
X117257095Y-118015469D01*
X117257392Y-118020622D01*
X117257392Y-118020625D01*
X117263065Y-118119020D01*
X117270427Y-118246697D01*
X117271564Y-118251743D01*
X117271565Y-118251749D01*
X117300309Y-118379292D01*
X117321346Y-118472642D01*
X117323288Y-118477424D01*
X117323289Y-118477428D01*
X117406540Y-118682450D01*
X117408484Y-118687237D01*
X117529501Y-118884719D01*
X117681147Y-119059784D01*
X117859349Y-119207730D01*
X117863819Y-119210342D01*
X117867511Y-119212500D01*
X117916232Y-119264140D01*
X117929301Y-119333924D01*
X117902566Y-119399694D01*
X117879589Y-119422045D01*
X117826626Y-119461811D01*
X117731655Y-119533117D01*
X117571639Y-119700564D01*
X117568725Y-119704836D01*
X117568724Y-119704837D01*
X117553152Y-119727665D01*
X117441119Y-119891899D01*
X117343602Y-120101981D01*
X117281707Y-120325169D01*
X117257095Y-120555469D01*
X117257392Y-120560622D01*
X117257392Y-120560625D01*
X117263065Y-120659020D01*
X117270427Y-120786697D01*
X117271564Y-120791743D01*
X117271565Y-120791749D01*
X117300309Y-120919292D01*
X117321346Y-121012642D01*
X117323288Y-121017424D01*
X117323289Y-121017428D01*
X117406540Y-121222450D01*
X117408484Y-121227237D01*
X117529501Y-121424719D01*
X117681147Y-121599784D01*
X117859349Y-121747730D01*
X117863819Y-121750342D01*
X117867511Y-121752500D01*
X117916232Y-121804140D01*
X117929301Y-121873924D01*
X117902566Y-121939694D01*
X117879589Y-121962045D01*
X117826626Y-122001811D01*
X117731655Y-122073117D01*
X117571639Y-122240564D01*
X117568725Y-122244836D01*
X117568724Y-122244837D01*
X117553152Y-122267665D01*
X117441119Y-122431899D01*
X117343602Y-122641981D01*
X117281707Y-122865169D01*
X117257095Y-123095469D01*
X117257392Y-123100622D01*
X117257392Y-123100625D01*
X117263065Y-123199020D01*
X117270427Y-123326697D01*
X117271564Y-123331743D01*
X117271565Y-123331749D01*
X117300309Y-123459292D01*
X117321346Y-123552642D01*
X117323288Y-123557424D01*
X117323289Y-123557428D01*
X117406540Y-123762450D01*
X117408484Y-123767237D01*
X117529501Y-123964719D01*
X117681147Y-124139784D01*
X117859349Y-124287730D01*
X118059322Y-124404584D01*
X118275694Y-124487209D01*
X118280760Y-124488240D01*
X118280761Y-124488240D01*
X118333846Y-124499040D01*
X118502656Y-124533385D01*
X118633324Y-124538176D01*
X118728949Y-124541683D01*
X118728953Y-124541683D01*
X118734113Y-124541872D01*
X118739233Y-124541216D01*
X118739235Y-124541216D01*
X118812270Y-124531860D01*
X118963847Y-124512442D01*
X118968795Y-124510957D01*
X118968802Y-124510956D01*
X119180747Y-124447369D01*
X119185690Y-124445886D01*
X119192804Y-124442401D01*
X119389049Y-124346262D01*
X119389052Y-124346260D01*
X119393684Y-124343991D01*
X119582243Y-124209494D01*
X119746303Y-124046005D01*
X119881458Y-123857917D01*
X119903983Y-123812342D01*
X119981784Y-123654922D01*
X119981785Y-123654920D01*
X119984078Y-123650280D01*
X120051408Y-123428671D01*
X120081640Y-123199041D01*
X120083327Y-123130000D01*
X120064796Y-122904598D01*
X120064773Y-122904318D01*
X120064772Y-122904312D01*
X120064349Y-122899167D01*
X120021691Y-122729338D01*
X120009184Y-122679544D01*
X120009183Y-122679540D01*
X120007925Y-122674533D01*
X119997218Y-122649908D01*
X119917630Y-122466868D01*
X119917628Y-122466865D01*
X119915570Y-122462131D01*
X119789764Y-122267665D01*
X119633887Y-122096358D01*
X119629836Y-122093159D01*
X119629832Y-122093155D01*
X119457077Y-121956722D01*
X119416014Y-121898805D01*
X119412782Y-121827882D01*
X119448407Y-121766470D01*
X119462001Y-121755261D01*
X119465872Y-121752500D01*
X119582243Y-121669494D01*
X119746303Y-121506005D01*
X119881458Y-121317917D01*
X119903983Y-121272342D01*
X119981784Y-121114922D01*
X119981785Y-121114920D01*
X119984078Y-121110280D01*
X120051408Y-120888671D01*
X120081640Y-120659041D01*
X120083327Y-120590000D01*
X120064796Y-120364598D01*
X120064773Y-120364318D01*
X120064772Y-120364312D01*
X120064349Y-120359167D01*
X120021691Y-120189338D01*
X120009184Y-120139544D01*
X120009183Y-120139540D01*
X120007925Y-120134533D01*
X119997218Y-120109908D01*
X119917630Y-119926868D01*
X119917628Y-119926865D01*
X119915570Y-119922131D01*
X119789764Y-119727665D01*
X119633887Y-119556358D01*
X119629836Y-119553159D01*
X119629832Y-119553155D01*
X119457077Y-119416722D01*
X119416014Y-119358805D01*
X119412782Y-119287882D01*
X119448407Y-119226470D01*
X119462001Y-119215261D01*
X119465872Y-119212500D01*
X119582243Y-119129494D01*
X119746303Y-118966005D01*
X119881458Y-118777917D01*
X119903983Y-118732342D01*
X119981784Y-118574922D01*
X119981785Y-118574920D01*
X119984078Y-118570280D01*
X120051408Y-118348671D01*
X120081640Y-118119041D01*
X120083327Y-118050000D01*
X120064796Y-117824598D01*
X120064773Y-117824318D01*
X120064772Y-117824312D01*
X120064349Y-117819167D01*
X120021691Y-117649338D01*
X120009184Y-117599544D01*
X120009183Y-117599540D01*
X120007925Y-117594533D01*
X119997218Y-117569908D01*
X119917630Y-117386868D01*
X119917628Y-117386865D01*
X119915570Y-117382131D01*
X119789764Y-117187665D01*
X119633887Y-117016358D01*
X119629836Y-117013159D01*
X119629832Y-117013155D01*
X119457077Y-116876722D01*
X119416014Y-116818805D01*
X119412782Y-116747882D01*
X119448407Y-116686470D01*
X119462001Y-116675261D01*
X119465872Y-116672500D01*
X119582243Y-116589494D01*
X119746303Y-116426005D01*
X119881458Y-116237917D01*
X119903983Y-116192342D01*
X119981784Y-116034922D01*
X119981785Y-116034920D01*
X119984078Y-116030280D01*
X120051408Y-115808671D01*
X120081640Y-115579041D01*
X120081865Y-115569829D01*
X120083245Y-115513365D01*
X120083245Y-115513361D01*
X120083327Y-115510000D01*
X120075417Y-115413787D01*
X120064773Y-115284318D01*
X120064772Y-115284312D01*
X120064349Y-115279167D01*
X120029875Y-115141921D01*
X120009184Y-115059544D01*
X120009183Y-115059540D01*
X120007925Y-115054533D01*
X119997218Y-115029908D01*
X119917630Y-114846868D01*
X119917628Y-114846865D01*
X119915570Y-114842131D01*
X119789764Y-114647665D01*
X119633887Y-114476358D01*
X119629836Y-114473159D01*
X119629832Y-114473155D01*
X119457077Y-114336722D01*
X119416014Y-114278805D01*
X119412782Y-114207882D01*
X119448407Y-114146470D01*
X119462001Y-114135261D01*
X119465872Y-114132500D01*
X119582243Y-114049494D01*
X119746303Y-113886005D01*
X119881458Y-113697917D01*
X119903312Y-113653700D01*
X119981784Y-113494922D01*
X119981785Y-113494920D01*
X119984078Y-113490280D01*
X120051408Y-113268671D01*
X120081640Y-113039041D01*
X120083327Y-112970000D01*
X120074336Y-112860635D01*
X120064773Y-112744318D01*
X120064772Y-112744312D01*
X120064349Y-112739167D01*
X120017045Y-112550842D01*
X120009184Y-112519544D01*
X120009183Y-112519540D01*
X120007925Y-112514533D01*
X120005363Y-112508641D01*
X119917630Y-112306868D01*
X119917628Y-112306865D01*
X119915570Y-112302131D01*
X119789764Y-112107665D01*
X119633887Y-111936358D01*
X119629836Y-111933159D01*
X119629832Y-111933155D01*
X119457077Y-111796722D01*
X119416014Y-111738805D01*
X119412782Y-111667882D01*
X119448407Y-111606470D01*
X119462001Y-111595261D01*
X119463769Y-111594000D01*
X119582243Y-111509494D01*
X119746303Y-111346005D01*
X119881458Y-111157917D01*
X119907159Y-111105916D01*
X119981784Y-110954922D01*
X119981785Y-110954920D01*
X119984078Y-110950280D01*
X120051408Y-110728671D01*
X120081640Y-110499041D01*
X120082137Y-110478717D01*
X120083245Y-110433365D01*
X120083245Y-110433361D01*
X120083327Y-110430000D01*
X120071500Y-110286142D01*
X120064773Y-110204318D01*
X120064772Y-110204312D01*
X120064349Y-110199167D01*
X120020058Y-110022836D01*
X120009184Y-109979544D01*
X120009183Y-109979540D01*
X120007925Y-109974533D01*
X119997218Y-109949908D01*
X119917630Y-109766868D01*
X119917628Y-109766865D01*
X119915570Y-109762131D01*
X119789764Y-109567665D01*
X119633887Y-109396358D01*
X119629836Y-109393159D01*
X119629832Y-109393155D01*
X119457077Y-109256722D01*
X119416014Y-109198805D01*
X119412782Y-109127882D01*
X119448407Y-109066470D01*
X119462001Y-109055261D01*
X119465872Y-109052500D01*
X119582243Y-108969494D01*
X119746303Y-108806005D01*
X119881458Y-108617917D01*
X119909127Y-108561934D01*
X119981784Y-108414922D01*
X119981785Y-108414920D01*
X119984078Y-108410280D01*
X120051408Y-108188671D01*
X120081640Y-107959041D01*
X120083327Y-107890000D01*
X120071208Y-107742596D01*
X120064773Y-107664318D01*
X120064772Y-107664312D01*
X120064349Y-107659167D01*
X120015028Y-107462812D01*
X120009184Y-107439544D01*
X120009183Y-107439540D01*
X120007925Y-107434533D01*
X119997218Y-107409908D01*
X119917630Y-107226868D01*
X119917628Y-107226865D01*
X119915570Y-107222131D01*
X119789764Y-107027665D01*
X119633887Y-106856358D01*
X119629836Y-106853159D01*
X119629832Y-106853155D01*
X119457077Y-106716722D01*
X119416014Y-106658805D01*
X119412782Y-106587882D01*
X119448407Y-106526470D01*
X119462001Y-106515261D01*
X119465872Y-106512500D01*
X119582243Y-106429494D01*
X119746303Y-106266005D01*
X119881458Y-106077917D01*
X119883072Y-106074651D01*
X119934974Y-106026861D01*
X120004911Y-106014642D01*
X120070352Y-106042174D01*
X120079845Y-106050749D01*
X120788387Y-106759292D01*
X121429595Y-107400500D01*
X121463621Y-107462812D01*
X121466500Y-107489595D01*
X121466500Y-109996233D01*
X121465973Y-110007416D01*
X121464298Y-110014909D01*
X121464547Y-110022835D01*
X121464547Y-110022836D01*
X121466438Y-110082986D01*
X121466500Y-110086945D01*
X121466500Y-110114856D01*
X121466997Y-110118790D01*
X121466997Y-110118791D01*
X121467005Y-110118856D01*
X121467938Y-110130693D01*
X121469327Y-110174889D01*
X121474978Y-110194339D01*
X121478987Y-110213700D01*
X121481526Y-110233797D01*
X121484445Y-110241168D01*
X121484445Y-110241170D01*
X121497804Y-110274912D01*
X121501649Y-110286142D01*
X121513982Y-110328593D01*
X121518015Y-110335412D01*
X121518017Y-110335417D01*
X121524293Y-110346028D01*
X121532988Y-110363776D01*
X121540448Y-110382617D01*
X121545110Y-110389033D01*
X121545110Y-110389034D01*
X121566436Y-110418387D01*
X121572952Y-110428307D01*
X121595458Y-110466362D01*
X121609779Y-110480683D01*
X121622619Y-110495716D01*
X121634528Y-110512107D01*
X121640634Y-110517158D01*
X121668605Y-110540298D01*
X121677384Y-110548288D01*
X125179595Y-114050500D01*
X125213621Y-114112812D01*
X125216500Y-114139595D01*
X125216500Y-115046233D01*
X125215973Y-115057416D01*
X125214298Y-115064909D01*
X125214547Y-115072835D01*
X125214547Y-115072836D01*
X125216438Y-115132986D01*
X125216500Y-115136945D01*
X125216500Y-115164856D01*
X125216997Y-115168790D01*
X125216997Y-115168791D01*
X125217005Y-115168856D01*
X125217938Y-115180693D01*
X125219327Y-115224889D01*
X125224571Y-115242939D01*
X125224978Y-115244339D01*
X125228987Y-115263700D01*
X125231526Y-115283797D01*
X125234445Y-115291168D01*
X125234445Y-115291170D01*
X125247804Y-115324912D01*
X125251649Y-115336142D01*
X125260800Y-115367639D01*
X125263982Y-115378593D01*
X125268015Y-115385412D01*
X125268017Y-115385417D01*
X125274293Y-115396028D01*
X125282988Y-115413776D01*
X125290448Y-115432617D01*
X125295110Y-115439033D01*
X125295110Y-115439034D01*
X125316436Y-115468387D01*
X125322952Y-115478307D01*
X125339712Y-115506646D01*
X125345458Y-115516362D01*
X125359779Y-115530683D01*
X125372619Y-115545716D01*
X125384528Y-115562107D01*
X125416162Y-115588277D01*
X125418605Y-115590298D01*
X125427384Y-115598288D01*
X126151571Y-116322475D01*
X126185597Y-116384787D01*
X126188267Y-116404317D01*
X126200110Y-116609715D01*
X126201247Y-116614761D01*
X126201248Y-116614767D01*
X126217408Y-116686470D01*
X126249222Y-116827639D01*
X126287461Y-116921811D01*
X126327405Y-117020181D01*
X126333266Y-117034616D01*
X126449987Y-117225088D01*
X126596250Y-117393938D01*
X126768126Y-117536632D01*
X126819393Y-117566590D01*
X126841445Y-117579476D01*
X126890169Y-117631114D01*
X126903240Y-117700897D01*
X126876509Y-117766669D01*
X126836055Y-117800027D01*
X126823607Y-117806507D01*
X126819474Y-117809610D01*
X126819471Y-117809612D01*
X126682537Y-117912425D01*
X126644965Y-117940635D01*
X126490629Y-118102138D01*
X126487715Y-118106410D01*
X126487714Y-118106411D01*
X126419590Y-118206277D01*
X126364743Y-118286680D01*
X126349003Y-118320590D01*
X126278423Y-118472642D01*
X126270688Y-118489305D01*
X126210989Y-118704570D01*
X126187251Y-118926695D01*
X126187548Y-118931848D01*
X126187548Y-118931851D01*
X126192883Y-119024373D01*
X126200110Y-119149715D01*
X126201247Y-119154761D01*
X126201248Y-119154767D01*
X126217408Y-119226470D01*
X126249222Y-119367639D01*
X126287461Y-119461811D01*
X126327405Y-119560181D01*
X126333266Y-119574616D01*
X126449987Y-119765088D01*
X126596250Y-119933938D01*
X126768126Y-120076632D01*
X126819393Y-120106590D01*
X126841445Y-120119476D01*
X126890169Y-120171114D01*
X126903240Y-120240897D01*
X126876509Y-120306669D01*
X126836055Y-120340027D01*
X126823607Y-120346507D01*
X126819474Y-120349610D01*
X126819471Y-120349612D01*
X126682537Y-120452425D01*
X126644965Y-120480635D01*
X126490629Y-120642138D01*
X126487715Y-120646410D01*
X126487714Y-120646411D01*
X126419590Y-120746277D01*
X126364743Y-120826680D01*
X126349003Y-120860590D01*
X126278423Y-121012642D01*
X126270688Y-121029305D01*
X126210989Y-121244570D01*
X126187251Y-121466695D01*
X126187548Y-121471848D01*
X126187548Y-121471851D01*
X126192883Y-121564373D01*
X126200110Y-121689715D01*
X126201247Y-121694761D01*
X126201248Y-121694767D01*
X126217408Y-121766470D01*
X126249222Y-121907639D01*
X126287461Y-122001811D01*
X126327405Y-122100181D01*
X126333266Y-122114616D01*
X126449987Y-122305088D01*
X126596250Y-122473938D01*
X126768126Y-122616632D01*
X126819393Y-122646590D01*
X126841445Y-122659476D01*
X126890169Y-122711114D01*
X126903240Y-122780897D01*
X126876509Y-122846669D01*
X126836055Y-122880027D01*
X126823607Y-122886507D01*
X126819474Y-122889610D01*
X126819471Y-122889612D01*
X126682537Y-122992425D01*
X126644965Y-123020635D01*
X126490629Y-123182138D01*
X126487715Y-123186410D01*
X126487714Y-123186411D01*
X126419590Y-123286277D01*
X126364743Y-123366680D01*
X126349003Y-123400590D01*
X126278423Y-123552642D01*
X126270688Y-123569305D01*
X126210989Y-123784570D01*
X126187251Y-124006695D01*
X126187548Y-124011848D01*
X126187548Y-124011851D01*
X126192883Y-124104373D01*
X126200110Y-124229715D01*
X126201247Y-124234761D01*
X126201248Y-124234767D01*
X126214286Y-124292617D01*
X126249222Y-124447639D01*
X126333266Y-124654616D01*
X126449987Y-124845088D01*
X126596250Y-125013938D01*
X126768126Y-125156632D01*
X126819393Y-125186590D01*
X126841445Y-125199476D01*
X126890169Y-125251114D01*
X126903240Y-125320897D01*
X126876509Y-125386669D01*
X126836055Y-125420027D01*
X126823607Y-125426507D01*
X126819474Y-125429610D01*
X126819471Y-125429612D01*
X126682537Y-125532425D01*
X126644965Y-125560635D01*
X126490629Y-125722138D01*
X126487715Y-125726410D01*
X126487714Y-125726411D01*
X126419590Y-125826277D01*
X126364743Y-125906680D01*
X126349003Y-125940590D01*
X126279635Y-126090031D01*
X126270688Y-126109305D01*
X126210989Y-126324570D01*
X126187251Y-126546695D01*
X126187548Y-126551848D01*
X126187548Y-126551851D01*
X126192883Y-126644373D01*
X126200110Y-126769715D01*
X126201247Y-126774761D01*
X126201248Y-126774767D01*
X126214286Y-126832617D01*
X126249222Y-126987639D01*
X126333266Y-127194616D01*
X126449987Y-127385088D01*
X126596250Y-127553938D01*
X126768126Y-127696632D01*
X126819393Y-127726590D01*
X126841445Y-127739476D01*
X126890169Y-127791114D01*
X126903240Y-127860897D01*
X126876509Y-127926669D01*
X126836055Y-127960027D01*
X126823607Y-127966507D01*
X126819474Y-127969610D01*
X126819471Y-127969612D01*
X126682537Y-128072425D01*
X126644965Y-128100635D01*
X126490629Y-128262138D01*
X126487715Y-128266410D01*
X126487714Y-128266411D01*
X126419590Y-128366277D01*
X126364743Y-128446680D01*
X126349003Y-128480590D01*
X126279635Y-128630031D01*
X126270688Y-128649305D01*
X126210989Y-128864570D01*
X126187251Y-129086695D01*
X126187548Y-129091848D01*
X126187548Y-129091851D01*
X126195600Y-129231494D01*
X126200110Y-129309715D01*
X126201247Y-129314761D01*
X126201248Y-129314767D01*
X126218257Y-129390237D01*
X126249222Y-129527639D01*
X126333266Y-129734616D01*
X126449987Y-129925088D01*
X126596250Y-130093938D01*
X126768126Y-130236632D01*
X126838595Y-130277811D01*
X126841445Y-130279476D01*
X126890169Y-130331114D01*
X126903240Y-130400897D01*
X126876509Y-130466669D01*
X126836055Y-130500027D01*
X126823607Y-130506507D01*
X126819474Y-130509610D01*
X126819471Y-130509612D01*
X126795247Y-130527800D01*
X126644965Y-130640635D01*
X126628076Y-130658308D01*
X126533794Y-130756969D01*
X126490629Y-130802138D01*
X126487715Y-130806410D01*
X126487714Y-130806411D01*
X126473194Y-130827697D01*
X126364743Y-130986680D01*
X126339556Y-131040941D01*
X126282072Y-131164781D01*
X126270688Y-131189305D01*
X126210989Y-131404570D01*
X126187251Y-131626695D01*
X126187548Y-131631848D01*
X126187548Y-131631851D01*
X126195600Y-131771494D01*
X126200110Y-131849715D01*
X126201247Y-131854761D01*
X126201248Y-131854767D01*
X126207483Y-131882433D01*
X126249222Y-132067639D01*
X126292188Y-132173452D01*
X126318037Y-132237110D01*
X126333266Y-132274616D01*
X126449987Y-132465088D01*
X126596250Y-132633938D01*
X126768126Y-132776632D01*
X126961000Y-132889338D01*
X127169692Y-132969030D01*
X127174760Y-132970061D01*
X127174763Y-132970062D01*
X127282017Y-132991883D01*
X127388597Y-133013567D01*
X127393772Y-133013757D01*
X127393774Y-133013757D01*
X127606673Y-133021564D01*
X127606677Y-133021564D01*
X127611837Y-133021753D01*
X127616957Y-133021097D01*
X127616959Y-133021097D01*
X127828288Y-132994025D01*
X127828289Y-132994025D01*
X127833416Y-132993368D01*
X127838366Y-132991883D01*
X128042429Y-132930661D01*
X128042434Y-132930659D01*
X128047384Y-132929174D01*
X128247994Y-132830896D01*
X128429860Y-132701173D01*
X128523705Y-132607655D01*
X150739858Y-132607655D01*
X150775104Y-132866638D01*
X150776412Y-132871124D01*
X150776412Y-132871126D01*
X150792667Y-132926895D01*
X150848243Y-133117567D01*
X150957668Y-133354928D01*
X150960231Y-133358837D01*
X151098410Y-133569596D01*
X151098414Y-133569601D01*
X151100976Y-133573509D01*
X151275018Y-133768506D01*
X151475970Y-133935637D01*
X151479973Y-133938066D01*
X151695422Y-134068804D01*
X151695426Y-134068806D01*
X151699419Y-134071229D01*
X151940455Y-134172303D01*
X152193783Y-134236641D01*
X152198434Y-134237109D01*
X152198438Y-134237110D01*
X152391308Y-134256531D01*
X152410867Y-134258500D01*
X152566354Y-134258500D01*
X152568679Y-134258327D01*
X152568685Y-134258327D01*
X152756000Y-134244407D01*
X152756004Y-134244406D01*
X152760652Y-134244061D01*
X152765200Y-134243032D01*
X152765206Y-134243031D01*
X152951601Y-134200853D01*
X153015577Y-134186377D01*
X153051769Y-134172303D01*
X153254824Y-134093340D01*
X153254827Y-134093339D01*
X153259177Y-134091647D01*
X153486098Y-133961951D01*
X153691357Y-133800138D01*
X153870443Y-133609763D01*
X154019424Y-133395009D01*
X154135025Y-133160593D01*
X154214707Y-132911665D01*
X154256721Y-132653693D01*
X154259190Y-132465088D01*
X154260081Y-132397022D01*
X154260081Y-132397019D01*
X154260142Y-132392345D01*
X154224896Y-132133362D01*
X154210473Y-132083877D01*
X154169393Y-131942939D01*
X154151757Y-131882433D01*
X154042332Y-131645072D01*
X153992848Y-131569596D01*
X153901590Y-131430404D01*
X153901586Y-131430399D01*
X153899024Y-131426491D01*
X153724982Y-131231494D01*
X153524030Y-131064363D01*
X153451894Y-131020590D01*
X153304578Y-130931196D01*
X153304574Y-130931194D01*
X153300581Y-130928771D01*
X153059545Y-130827697D01*
X152806217Y-130763359D01*
X152801566Y-130762891D01*
X152801562Y-130762890D01*
X152592271Y-130741816D01*
X152589133Y-130741500D01*
X152433646Y-130741500D01*
X152431321Y-130741673D01*
X152431315Y-130741673D01*
X152244000Y-130755593D01*
X152243996Y-130755594D01*
X152239348Y-130755939D01*
X152234800Y-130756968D01*
X152234794Y-130756969D01*
X152051694Y-130798401D01*
X151984423Y-130813623D01*
X151980071Y-130815315D01*
X151980069Y-130815316D01*
X151745176Y-130906660D01*
X151745173Y-130906661D01*
X151740823Y-130908353D01*
X151513902Y-131038049D01*
X151308643Y-131199862D01*
X151129557Y-131390237D01*
X151023884Y-131542563D01*
X151005131Y-131569596D01*
X150980576Y-131604991D01*
X150978510Y-131609181D01*
X150978508Y-131609184D01*
X150882915Y-131803029D01*
X150864975Y-131839407D01*
X150785293Y-132088335D01*
X150743279Y-132346307D01*
X150739858Y-132607655D01*
X128523705Y-132607655D01*
X128588096Y-132543489D01*
X128647594Y-132460689D01*
X128715435Y-132366277D01*
X128718453Y-132362077D01*
X128723938Y-132350980D01*
X128815136Y-132166453D01*
X128815137Y-132166451D01*
X128817430Y-132161811D01*
X128882370Y-131948069D01*
X128911529Y-131726590D01*
X128913156Y-131660000D01*
X128894852Y-131437361D01*
X128840431Y-131220702D01*
X128751354Y-131015840D01*
X128630014Y-130828277D01*
X128479670Y-130663051D01*
X128475619Y-130659852D01*
X128475615Y-130659848D01*
X128409528Y-130607655D01*
X137539858Y-130607655D01*
X137575104Y-130866638D01*
X137576412Y-130871124D01*
X137576412Y-130871126D01*
X137592687Y-130926962D01*
X137648243Y-131117567D01*
X137757668Y-131354928D01*
X137760231Y-131358837D01*
X137898410Y-131569596D01*
X137898414Y-131569601D01*
X137900976Y-131573509D01*
X138075018Y-131768506D01*
X138275970Y-131935637D01*
X138279973Y-131938066D01*
X138495422Y-132068804D01*
X138495426Y-132068806D01*
X138499419Y-132071229D01*
X138740455Y-132172303D01*
X138993783Y-132236641D01*
X138998434Y-132237109D01*
X138998438Y-132237110D01*
X139191308Y-132256531D01*
X139210867Y-132258500D01*
X139366354Y-132258500D01*
X139368679Y-132258327D01*
X139368685Y-132258327D01*
X139556000Y-132244407D01*
X139556004Y-132244406D01*
X139560652Y-132244061D01*
X139565200Y-132243032D01*
X139565206Y-132243031D01*
X139751601Y-132200853D01*
X139815577Y-132186377D01*
X139851769Y-132172303D01*
X140054824Y-132093340D01*
X140054827Y-132093339D01*
X140059177Y-132091647D01*
X140286098Y-131961951D01*
X140491357Y-131800138D01*
X140670443Y-131609763D01*
X140793525Y-131432342D01*
X140816759Y-131398851D01*
X140816761Y-131398848D01*
X140819424Y-131395009D01*
X140821492Y-131390816D01*
X140932960Y-131164781D01*
X140932961Y-131164778D01*
X140935025Y-131160593D01*
X141014707Y-130911665D01*
X141056721Y-130653693D01*
X141058411Y-130524598D01*
X141060081Y-130397022D01*
X141060081Y-130397019D01*
X141060142Y-130392345D01*
X141024896Y-130133362D01*
X141010473Y-130083877D01*
X140988105Y-130007137D01*
X140951757Y-129882433D01*
X140842332Y-129645072D01*
X140809519Y-129595024D01*
X140701590Y-129430404D01*
X140701586Y-129430399D01*
X140699024Y-129426491D01*
X140524982Y-129231494D01*
X140324030Y-129064363D01*
X140240321Y-129013567D01*
X140104578Y-128931196D01*
X140104574Y-128931194D01*
X140100581Y-128928771D01*
X139859545Y-128827697D01*
X139606217Y-128763359D01*
X139601566Y-128762891D01*
X139601562Y-128762890D01*
X139392271Y-128741816D01*
X139389133Y-128741500D01*
X139233646Y-128741500D01*
X139231321Y-128741673D01*
X139231315Y-128741673D01*
X139044000Y-128755593D01*
X139043996Y-128755594D01*
X139039348Y-128755939D01*
X139034800Y-128756968D01*
X139034794Y-128756969D01*
X138848399Y-128799147D01*
X138784423Y-128813623D01*
X138780071Y-128815315D01*
X138780069Y-128815316D01*
X138545176Y-128906660D01*
X138545173Y-128906661D01*
X138540823Y-128908353D01*
X138313902Y-129038049D01*
X138108643Y-129199862D01*
X137929557Y-129390237D01*
X137780576Y-129604991D01*
X137664975Y-129839407D01*
X137663553Y-129843850D01*
X137663552Y-129843852D01*
X137586720Y-130083877D01*
X137585293Y-130088335D01*
X137543279Y-130346307D01*
X137539858Y-130607655D01*
X128409528Y-130607655D01*
X128308414Y-130527800D01*
X128308410Y-130527798D01*
X128304359Y-130524598D01*
X128263053Y-130501796D01*
X128213084Y-130451364D01*
X128198312Y-130381921D01*
X128223428Y-130315516D01*
X128250780Y-130288909D01*
X128294603Y-130257650D01*
X128429860Y-130161173D01*
X128457769Y-130133362D01*
X128584435Y-130007137D01*
X128588096Y-130003489D01*
X128647594Y-129920689D01*
X128715435Y-129826277D01*
X128718453Y-129822077D01*
X128817430Y-129621811D01*
X128882370Y-129408069D01*
X128911529Y-129186590D01*
X128913156Y-129120000D01*
X128894852Y-128897361D01*
X128840431Y-128680702D01*
X128751354Y-128475840D01*
X128680938Y-128366994D01*
X128632822Y-128292617D01*
X128632820Y-128292614D01*
X128630014Y-128288277D01*
X128479670Y-128123051D01*
X128475619Y-128119852D01*
X128475615Y-128119848D01*
X128308414Y-127987800D01*
X128308410Y-127987798D01*
X128304359Y-127984598D01*
X128263053Y-127961796D01*
X128213084Y-127911364D01*
X128198312Y-127841921D01*
X128223428Y-127775516D01*
X128250780Y-127748909D01*
X128294603Y-127717650D01*
X128429860Y-127621173D01*
X128588096Y-127463489D01*
X128647594Y-127380689D01*
X128715435Y-127286277D01*
X128718453Y-127282077D01*
X128761837Y-127194297D01*
X128815136Y-127086453D01*
X128815137Y-127086451D01*
X128817430Y-127081811D01*
X128882370Y-126868069D01*
X128911529Y-126646590D01*
X128911611Y-126643240D01*
X128913074Y-126583365D01*
X128913074Y-126583361D01*
X128913156Y-126580000D01*
X128894852Y-126357361D01*
X128840431Y-126140702D01*
X128751354Y-125935840D01*
X128680938Y-125826994D01*
X128632822Y-125752617D01*
X128632820Y-125752614D01*
X128630014Y-125748277D01*
X128479670Y-125583051D01*
X128475619Y-125579852D01*
X128475615Y-125579848D01*
X128308414Y-125447800D01*
X128308410Y-125447798D01*
X128304359Y-125444598D01*
X128263053Y-125421796D01*
X128213084Y-125371364D01*
X128198312Y-125301921D01*
X128223428Y-125235516D01*
X128250780Y-125208909D01*
X128294603Y-125177650D01*
X128429860Y-125081173D01*
X128588096Y-124923489D01*
X128647594Y-124840689D01*
X128715435Y-124746277D01*
X128718453Y-124742077D01*
X128761837Y-124654297D01*
X128815136Y-124546453D01*
X128815137Y-124546451D01*
X128817430Y-124541811D01*
X128877533Y-124343991D01*
X128880865Y-124333023D01*
X128880865Y-124333021D01*
X128882370Y-124328069D01*
X128911529Y-124106590D01*
X128911611Y-124103240D01*
X128913074Y-124043365D01*
X128913074Y-124043361D01*
X128913156Y-124040000D01*
X128894852Y-123817361D01*
X128840431Y-123600702D01*
X128751354Y-123395840D01*
X128680938Y-123286994D01*
X128632822Y-123212617D01*
X128632820Y-123212614D01*
X128630014Y-123208277D01*
X128479670Y-123043051D01*
X128475619Y-123039852D01*
X128475615Y-123039848D01*
X128308414Y-122907800D01*
X128308410Y-122907798D01*
X128304359Y-122904598D01*
X128263053Y-122881796D01*
X128213084Y-122831364D01*
X128198312Y-122761921D01*
X128223428Y-122695516D01*
X128250780Y-122668909D01*
X128295093Y-122637301D01*
X128429860Y-122541173D01*
X128588096Y-122383489D01*
X128647594Y-122300689D01*
X128715435Y-122206277D01*
X128718453Y-122202077D01*
X128761837Y-122114297D01*
X128815136Y-122006453D01*
X128815137Y-122006451D01*
X128817430Y-122001811D01*
X128882370Y-121788069D01*
X128911529Y-121566590D01*
X128911611Y-121563240D01*
X128913074Y-121503365D01*
X128913074Y-121503361D01*
X128913156Y-121500000D01*
X128894852Y-121277361D01*
X128840431Y-121060702D01*
X128751354Y-120855840D01*
X128680938Y-120746994D01*
X128632822Y-120672617D01*
X128632820Y-120672614D01*
X128630014Y-120668277D01*
X128479670Y-120503051D01*
X128475619Y-120499852D01*
X128475615Y-120499848D01*
X128308414Y-120367800D01*
X128308410Y-120367798D01*
X128304359Y-120364598D01*
X128263053Y-120341796D01*
X128213084Y-120291364D01*
X128198312Y-120221921D01*
X128223428Y-120155516D01*
X128250780Y-120128909D01*
X128295093Y-120097301D01*
X128429860Y-120001173D01*
X128588096Y-119843489D01*
X128647594Y-119760689D01*
X128715435Y-119666277D01*
X128718453Y-119662077D01*
X128761837Y-119574297D01*
X128815136Y-119466453D01*
X128815137Y-119466451D01*
X128817430Y-119461811D01*
X128882370Y-119248069D01*
X128911529Y-119026590D01*
X128911611Y-119023240D01*
X128913074Y-118963365D01*
X128913074Y-118963361D01*
X128913156Y-118960000D01*
X128894852Y-118737361D01*
X128840431Y-118520702D01*
X128751354Y-118315840D01*
X128680938Y-118206994D01*
X128632822Y-118132617D01*
X128632820Y-118132614D01*
X128630014Y-118128277D01*
X128479670Y-117963051D01*
X128475619Y-117959852D01*
X128475615Y-117959848D01*
X128308414Y-117827800D01*
X128308410Y-117827798D01*
X128304359Y-117824598D01*
X128263053Y-117801796D01*
X128213084Y-117751364D01*
X128198312Y-117681921D01*
X128223428Y-117615516D01*
X128250780Y-117588909D01*
X128295093Y-117557301D01*
X128429860Y-117461173D01*
X128588096Y-117303489D01*
X128647594Y-117220689D01*
X128715435Y-117126277D01*
X128718453Y-117122077D01*
X128761837Y-117034297D01*
X128815136Y-116926453D01*
X128815137Y-116926451D01*
X128817430Y-116921811D01*
X128882370Y-116708069D01*
X128911529Y-116486590D01*
X128911611Y-116483240D01*
X128913074Y-116423365D01*
X128913074Y-116423361D01*
X128913156Y-116420000D01*
X128894852Y-116197361D01*
X128840431Y-115980702D01*
X128751354Y-115775840D01*
X128680938Y-115666994D01*
X128632822Y-115592617D01*
X128632820Y-115592614D01*
X128630014Y-115588277D01*
X128479670Y-115423051D01*
X128475619Y-115419852D01*
X128475615Y-115419848D01*
X128308414Y-115287800D01*
X128308410Y-115287798D01*
X128304359Y-115284598D01*
X128263053Y-115261796D01*
X128213084Y-115211364D01*
X128198312Y-115141921D01*
X128223428Y-115075516D01*
X128250780Y-115048909D01*
X128324070Y-114996632D01*
X128429860Y-114921173D01*
X128588096Y-114763489D01*
X128674074Y-114643838D01*
X128715435Y-114586277D01*
X128718453Y-114582077D01*
X128761837Y-114494297D01*
X128815136Y-114386453D01*
X128815137Y-114386451D01*
X128817430Y-114381811D01*
X128882370Y-114168069D01*
X128911529Y-113946590D01*
X128911611Y-113943240D01*
X128913074Y-113883365D01*
X128913074Y-113883361D01*
X128913156Y-113880000D01*
X128894852Y-113657361D01*
X128840431Y-113440702D01*
X128751354Y-113235840D01*
X128680938Y-113126994D01*
X128632822Y-113052617D01*
X128632820Y-113052614D01*
X128630014Y-113048277D01*
X128479670Y-112883051D01*
X128475619Y-112879852D01*
X128475615Y-112879848D01*
X128308414Y-112747800D01*
X128308410Y-112747798D01*
X128304359Y-112744598D01*
X128262569Y-112721529D01*
X128212598Y-112671097D01*
X128197826Y-112601654D01*
X128222942Y-112535248D01*
X128250294Y-112508641D01*
X128425328Y-112383792D01*
X128433200Y-112377139D01*
X128584052Y-112226812D01*
X128590730Y-112218965D01*
X128715003Y-112046020D01*
X128720313Y-112037183D01*
X128814670Y-111846267D01*
X128818469Y-111836672D01*
X128880377Y-111632910D01*
X128882555Y-111622837D01*
X128883986Y-111611962D01*
X128881775Y-111597778D01*
X128868617Y-111594000D01*
X126233225Y-111594000D01*
X126219694Y-111597973D01*
X126218257Y-111607966D01*
X126248565Y-111742446D01*
X126251645Y-111752275D01*
X126331770Y-111949603D01*
X126336413Y-111958794D01*
X126447694Y-112140388D01*
X126453777Y-112148699D01*
X126593213Y-112309667D01*
X126600580Y-112316883D01*
X126764434Y-112452916D01*
X126772881Y-112458831D01*
X126841969Y-112499203D01*
X126890693Y-112550842D01*
X126903764Y-112620625D01*
X126877033Y-112686396D01*
X126836584Y-112719752D01*
X126823607Y-112726507D01*
X126819474Y-112729610D01*
X126819471Y-112729612D01*
X126667616Y-112843628D01*
X126601131Y-112868534D01*
X126531735Y-112853542D01*
X126502868Y-112831963D01*
X123369039Y-109698134D01*
X126191500Y-109698134D01*
X126198255Y-109760316D01*
X126249385Y-109896705D01*
X126336739Y-110013261D01*
X126453295Y-110100615D01*
X126461704Y-110103767D01*
X126461705Y-110103768D01*
X126570960Y-110144726D01*
X126627725Y-110187367D01*
X126652425Y-110253929D01*
X126637218Y-110323278D01*
X126617825Y-110349759D01*
X126494590Y-110478717D01*
X126488104Y-110486727D01*
X126368098Y-110662649D01*
X126363000Y-110671623D01*
X126273338Y-110864783D01*
X126269775Y-110874470D01*
X126214389Y-111074183D01*
X126215912Y-111082607D01*
X126228292Y-111086000D01*
X128868344Y-111086000D01*
X128881875Y-111082027D01*
X128883180Y-111072947D01*
X128841214Y-110905875D01*
X128837894Y-110896124D01*
X128752972Y-110700814D01*
X128748105Y-110691739D01*
X128632426Y-110512926D01*
X128626136Y-110504757D01*
X128482293Y-110346677D01*
X128451241Y-110282831D01*
X128459635Y-110212333D01*
X128504812Y-110157564D01*
X128531256Y-110143895D01*
X128627926Y-110107655D01*
X137539858Y-110107655D01*
X137575104Y-110366638D01*
X137576412Y-110371124D01*
X137576412Y-110371126D01*
X137590187Y-110418387D01*
X137648243Y-110617567D01*
X137757668Y-110854928D01*
X137760231Y-110858837D01*
X137898410Y-111069596D01*
X137898414Y-111069601D01*
X137900976Y-111073509D01*
X138024017Y-111211364D01*
X138071883Y-111264993D01*
X138075018Y-111268506D01*
X138275970Y-111435637D01*
X138279973Y-111438066D01*
X138495422Y-111568804D01*
X138495426Y-111568806D01*
X138499419Y-111571229D01*
X138740455Y-111672303D01*
X138993783Y-111736641D01*
X138998434Y-111737109D01*
X138998438Y-111737110D01*
X139191308Y-111756531D01*
X139210867Y-111758500D01*
X139366354Y-111758500D01*
X139368679Y-111758327D01*
X139368685Y-111758327D01*
X139556000Y-111744407D01*
X139556004Y-111744406D01*
X139560652Y-111744061D01*
X139565200Y-111743032D01*
X139565206Y-111743031D01*
X139760698Y-111698795D01*
X139815577Y-111686377D01*
X139851769Y-111672303D01*
X140054824Y-111593340D01*
X140054827Y-111593339D01*
X140059177Y-111591647D01*
X140065074Y-111588277D01*
X140143196Y-111543626D01*
X140286098Y-111461951D01*
X140491357Y-111300138D01*
X140670443Y-111109763D01*
X140784516Y-110945329D01*
X140816759Y-110898851D01*
X140816761Y-110898848D01*
X140819424Y-110895009D01*
X140841605Y-110850031D01*
X140932960Y-110664781D01*
X140932961Y-110664778D01*
X140935025Y-110660593D01*
X140947530Y-110621529D01*
X141013280Y-110416123D01*
X141014707Y-110411665D01*
X141056721Y-110153693D01*
X141060142Y-109892345D01*
X141024896Y-109633362D01*
X141010473Y-109583877D01*
X140956930Y-109400181D01*
X140951757Y-109382433D01*
X140842332Y-109145072D01*
X140780224Y-109050342D01*
X140701590Y-108930404D01*
X140701586Y-108930399D01*
X140699024Y-108926491D01*
X140524982Y-108731494D01*
X140324030Y-108564363D01*
X140262848Y-108527237D01*
X140104578Y-108431196D01*
X140104574Y-108431194D01*
X140100581Y-108428771D01*
X139859545Y-108327697D01*
X139606217Y-108263359D01*
X139601566Y-108262891D01*
X139601562Y-108262890D01*
X139392271Y-108241816D01*
X139389133Y-108241500D01*
X139233646Y-108241500D01*
X139231321Y-108241673D01*
X139231315Y-108241673D01*
X139044000Y-108255593D01*
X139043996Y-108255594D01*
X139039348Y-108255939D01*
X139034800Y-108256968D01*
X139034794Y-108256969D01*
X138848399Y-108299147D01*
X138784423Y-108313623D01*
X138780071Y-108315315D01*
X138780069Y-108315316D01*
X138545176Y-108406660D01*
X138545173Y-108406661D01*
X138540823Y-108408353D01*
X138536769Y-108410670D01*
X138536767Y-108410671D01*
X138508264Y-108426962D01*
X138313902Y-108538049D01*
X138108643Y-108699862D01*
X137929557Y-108890237D01*
X137835095Y-109026403D01*
X137816991Y-109052500D01*
X137780576Y-109104991D01*
X137778510Y-109109181D01*
X137778508Y-109109184D01*
X137703126Y-109262045D01*
X137664975Y-109339407D01*
X137663553Y-109343850D01*
X137663552Y-109343852D01*
X137591909Y-109567665D01*
X137585293Y-109588335D01*
X137543279Y-109846307D01*
X137542882Y-109876646D01*
X137540021Y-110095229D01*
X137539858Y-110107655D01*
X128627926Y-110107655D01*
X128638297Y-110103767D01*
X128646705Y-110100615D01*
X128763261Y-110013261D01*
X128850615Y-109896705D01*
X128901745Y-109760316D01*
X128908500Y-109698134D01*
X128908500Y-107901866D01*
X128901745Y-107839684D01*
X128850615Y-107703295D01*
X128763261Y-107586739D01*
X128646705Y-107499385D01*
X128510316Y-107448255D01*
X128448134Y-107441500D01*
X126651866Y-107441500D01*
X126589684Y-107448255D01*
X126453295Y-107499385D01*
X126336739Y-107586739D01*
X126249385Y-107703295D01*
X126198255Y-107839684D01*
X126191500Y-107901866D01*
X126191500Y-109698134D01*
X123369039Y-109698134D01*
X123345405Y-109674500D01*
X123311379Y-109612188D01*
X123308500Y-109585405D01*
X123308500Y-106893763D01*
X123309027Y-106882579D01*
X123310701Y-106875091D01*
X123308562Y-106807032D01*
X123308500Y-106803075D01*
X123308500Y-106775144D01*
X123307994Y-106771138D01*
X123307061Y-106759292D01*
X123305922Y-106723037D01*
X123305673Y-106715110D01*
X123300022Y-106695658D01*
X123296014Y-106676306D01*
X123294467Y-106664063D01*
X123293474Y-106656203D01*
X123285893Y-106637054D01*
X123277200Y-106615097D01*
X123273355Y-106603870D01*
X123268710Y-106587882D01*
X123261018Y-106561407D01*
X123256984Y-106554585D01*
X123256981Y-106554579D01*
X123250706Y-106543968D01*
X123242010Y-106526218D01*
X123237472Y-106514756D01*
X123237469Y-106514751D01*
X123234552Y-106507383D01*
X123208573Y-106471625D01*
X123202057Y-106461707D01*
X123183575Y-106430457D01*
X123179542Y-106423637D01*
X123165218Y-106409313D01*
X123152376Y-106394278D01*
X123140472Y-106377893D01*
X123106406Y-106349711D01*
X123097627Y-106341722D01*
X120061299Y-103305394D01*
X120027273Y-103243082D01*
X120029836Y-103179672D01*
X120051408Y-103108671D01*
X120081640Y-102879041D01*
X120083327Y-102810000D01*
X120067694Y-102619848D01*
X120064773Y-102584318D01*
X120064772Y-102584312D01*
X120064349Y-102579167D01*
X120016728Y-102389580D01*
X120009184Y-102359544D01*
X120009183Y-102359540D01*
X120007925Y-102354533D01*
X120004918Y-102347616D01*
X120001297Y-102339289D01*
X119992479Y-102268842D01*
X120023147Y-102204811D01*
X120082911Y-102168586D01*
X120083797Y-102168474D01*
X120091163Y-102165558D01*
X120091169Y-102165556D01*
X120124912Y-102152196D01*
X120136142Y-102148351D01*
X120170983Y-102138229D01*
X120170984Y-102138229D01*
X120178593Y-102136018D01*
X120185412Y-102131985D01*
X120185417Y-102131983D01*
X120196028Y-102125707D01*
X120213776Y-102117012D01*
X120232617Y-102109552D01*
X120268387Y-102083564D01*
X120278307Y-102077048D01*
X120309535Y-102058580D01*
X120309538Y-102058578D01*
X120316362Y-102054542D01*
X120330683Y-102040221D01*
X120345717Y-102027380D01*
X120355694Y-102020131D01*
X120362107Y-102015472D01*
X120367158Y-102009367D01*
X120367163Y-102009362D01*
X120390299Y-101981396D01*
X120398287Y-101972618D01*
X121241773Y-101129132D01*
X121250059Y-101121592D01*
X121256538Y-101117480D01*
X121263927Y-101109612D01*
X121303163Y-101067829D01*
X121305918Y-101064987D01*
X121325655Y-101045250D01*
X121328135Y-101042053D01*
X121335840Y-101033031D01*
X121366106Y-101000801D01*
X121369925Y-100993855D01*
X121369927Y-100993852D01*
X121375868Y-100983046D01*
X121386719Y-100966527D01*
X121394278Y-100956781D01*
X121399134Y-100950521D01*
X121402279Y-100943252D01*
X121402282Y-100943248D01*
X121416694Y-100909943D01*
X121421911Y-100899293D01*
X121443215Y-100860540D01*
X121448253Y-100840917D01*
X121454657Y-100822214D01*
X121459553Y-100810900D01*
X121459553Y-100810899D01*
X121462701Y-100803625D01*
X121463940Y-100795802D01*
X121463943Y-100795792D01*
X121469619Y-100759956D01*
X121472025Y-100748336D01*
X121481048Y-100713191D01*
X121481048Y-100713190D01*
X121483020Y-100705510D01*
X121483020Y-100685256D01*
X121484571Y-100665545D01*
X121486500Y-100653366D01*
X121487740Y-100645537D01*
X121483579Y-100601518D01*
X121483020Y-100589661D01*
X121483020Y-91978918D01*
X123386917Y-91978918D01*
X123402682Y-92252320D01*
X123403507Y-92256525D01*
X123403508Y-92256533D01*
X123414127Y-92310657D01*
X123455405Y-92521053D01*
X123456792Y-92525103D01*
X123456793Y-92525108D01*
X123532978Y-92747625D01*
X123544112Y-92780144D01*
X123667160Y-93024799D01*
X123669586Y-93028328D01*
X123669589Y-93028334D01*
X123779140Y-93187730D01*
X123822274Y-93250490D01*
X123825161Y-93253663D01*
X123825162Y-93253664D01*
X123942044Y-93382116D01*
X124006582Y-93453043D01*
X124009877Y-93455798D01*
X124009878Y-93455799D01*
X124043747Y-93484118D01*
X124216675Y-93628707D01*
X124220316Y-93630991D01*
X124445024Y-93771951D01*
X124445028Y-93771953D01*
X124448664Y-93774234D01*
X124533673Y-93812617D01*
X124694345Y-93885164D01*
X124694349Y-93885166D01*
X124698257Y-93886930D01*
X124761393Y-93905632D01*
X124956723Y-93963491D01*
X124956727Y-93963492D01*
X124960836Y-93964709D01*
X124965070Y-93965357D01*
X124965075Y-93965358D01*
X125227298Y-94005483D01*
X125227300Y-94005483D01*
X125231540Y-94006132D01*
X125370912Y-94008322D01*
X125501071Y-94010367D01*
X125501077Y-94010367D01*
X125505362Y-94010434D01*
X125777235Y-93977534D01*
X126042127Y-93908041D01*
X126046087Y-93906401D01*
X126046092Y-93906399D01*
X126238322Y-93826774D01*
X126295136Y-93803241D01*
X126531582Y-93665073D01*
X126747089Y-93496094D01*
X126756380Y-93486507D01*
X126934686Y-93302509D01*
X126937669Y-93299431D01*
X126940202Y-93295983D01*
X126940206Y-93295978D01*
X127097257Y-93082178D01*
X127099795Y-93078723D01*
X127103097Y-93072642D01*
X127228418Y-92841830D01*
X127228419Y-92841828D01*
X127230468Y-92838054D01*
X127306261Y-92637474D01*
X127325751Y-92585895D01*
X127325752Y-92585891D01*
X127327269Y-92581877D01*
X127369268Y-92398498D01*
X127387449Y-92319117D01*
X127387450Y-92319113D01*
X127388407Y-92314933D01*
X127402058Y-92161981D01*
X127412531Y-92044627D01*
X127412531Y-92044625D01*
X127412751Y-92042161D01*
X127413193Y-92000000D01*
X127412656Y-91992124D01*
X127394859Y-91731055D01*
X127394858Y-91731049D01*
X127394567Y-91726778D01*
X127339032Y-91458612D01*
X127247617Y-91200465D01*
X127157571Y-91026005D01*
X127123978Y-90960919D01*
X127123978Y-90960918D01*
X127122013Y-90957112D01*
X127112040Y-90942921D01*
X126967008Y-90736562D01*
X126964545Y-90733057D01*
X126844777Y-90604171D01*
X126781046Y-90535588D01*
X126781043Y-90535585D01*
X126778125Y-90532445D01*
X126774810Y-90529731D01*
X126774806Y-90529728D01*
X126604145Y-90390044D01*
X126566205Y-90358990D01*
X126363323Y-90234664D01*
X126336366Y-90218145D01*
X126336365Y-90218145D01*
X126332704Y-90215901D01*
X126328768Y-90214173D01*
X126085873Y-90107549D01*
X126085869Y-90107548D01*
X126081945Y-90105825D01*
X125818566Y-90030800D01*
X125814324Y-90030196D01*
X125814318Y-90030195D01*
X125575267Y-89996173D01*
X125547443Y-89992213D01*
X125403589Y-89991460D01*
X125277877Y-89990802D01*
X125277871Y-89990802D01*
X125273591Y-89990780D01*
X125269347Y-89991339D01*
X125269343Y-89991339D01*
X125150302Y-90007011D01*
X125002078Y-90026525D01*
X124997938Y-90027658D01*
X124997936Y-90027658D01*
X124925008Y-90047609D01*
X124737928Y-90098788D01*
X124733980Y-90100472D01*
X124489982Y-90204546D01*
X124489978Y-90204548D01*
X124486030Y-90206232D01*
X124387732Y-90265062D01*
X124254725Y-90344664D01*
X124254721Y-90344667D01*
X124251043Y-90346868D01*
X124037318Y-90518094D01*
X123848808Y-90716742D01*
X123689002Y-90939136D01*
X123560857Y-91181161D01*
X123559385Y-91185184D01*
X123559383Y-91185188D01*
X123472575Y-91422401D01*
X123466743Y-91438337D01*
X123408404Y-91705907D01*
X123408068Y-91710177D01*
X123388675Y-91956587D01*
X123386917Y-91978918D01*
X121483020Y-91978918D01*
X121483020Y-90353287D01*
X121483547Y-90342104D01*
X121485222Y-90334611D01*
X121484504Y-90311749D01*
X121483082Y-90266521D01*
X121483020Y-90262563D01*
X121483020Y-90234664D01*
X121482516Y-90230673D01*
X121481583Y-90218831D01*
X121481562Y-90218145D01*
X121480194Y-90174631D01*
X121477982Y-90167017D01*
X121477981Y-90167012D01*
X121474543Y-90155179D01*
X121470532Y-90135815D01*
X121468987Y-90123584D01*
X121467994Y-90115723D01*
X121465077Y-90108356D01*
X121465076Y-90108351D01*
X121451718Y-90074612D01*
X121447874Y-90063385D01*
X121438748Y-90031977D01*
X121435538Y-90020927D01*
X121425227Y-90003492D01*
X121416532Y-89985744D01*
X121409072Y-89966903D01*
X121383084Y-89931133D01*
X121376568Y-89921213D01*
X121358100Y-89889985D01*
X121358098Y-89889982D01*
X121354062Y-89883158D01*
X121339741Y-89868837D01*
X121326900Y-89853803D01*
X121325702Y-89852154D01*
X121314992Y-89837413D01*
X121280915Y-89809222D01*
X121272136Y-89801232D01*
X119908106Y-88437201D01*
X119874080Y-88374889D01*
X119879145Y-88304073D01*
X119884244Y-88292279D01*
X119884698Y-88291362D01*
X119969658Y-88119457D01*
X119981784Y-88094922D01*
X119981785Y-88094920D01*
X119984078Y-88090280D01*
X120051408Y-87868671D01*
X120081640Y-87639041D01*
X120081748Y-87634616D01*
X120083245Y-87573365D01*
X120083245Y-87573361D01*
X120083327Y-87570000D01*
X120071229Y-87422845D01*
X120064773Y-87344318D01*
X120064772Y-87344312D01*
X120064349Y-87339167D01*
X120036137Y-87226850D01*
X120009184Y-87119544D01*
X120009183Y-87119540D01*
X120007925Y-87114533D01*
X120005866Y-87109797D01*
X119917630Y-86906868D01*
X119917628Y-86906865D01*
X119915570Y-86902131D01*
X119789764Y-86707665D01*
X119633887Y-86536358D01*
X119629836Y-86533159D01*
X119629832Y-86533155D01*
X119456181Y-86396015D01*
X119452123Y-86392810D01*
X119393605Y-86360506D01*
X119343636Y-86310075D01*
X119328500Y-86250199D01*
X119328500Y-85354950D01*
X119348502Y-85286829D01*
X119365405Y-85265855D01*
X125128583Y-79502677D01*
X125190895Y-79468651D01*
X125261710Y-79473716D01*
X125306773Y-79502677D01*
X131757083Y-85952988D01*
X138196348Y-92392253D01*
X138203888Y-92400539D01*
X138208000Y-92407018D01*
X138213777Y-92412443D01*
X138257651Y-92453643D01*
X138260493Y-92456398D01*
X138280230Y-92476135D01*
X138283427Y-92478615D01*
X138292447Y-92486318D01*
X138324679Y-92516586D01*
X138331625Y-92520405D01*
X138331628Y-92520407D01*
X138342434Y-92526348D01*
X138358953Y-92537199D01*
X138374959Y-92549614D01*
X138382228Y-92552759D01*
X138382232Y-92552762D01*
X138415537Y-92567174D01*
X138426187Y-92572391D01*
X138464940Y-92593695D01*
X138472615Y-92595666D01*
X138472616Y-92595666D01*
X138484562Y-92598733D01*
X138503267Y-92605137D01*
X138521855Y-92613181D01*
X138529678Y-92614420D01*
X138529688Y-92614423D01*
X138565524Y-92620099D01*
X138577144Y-92622505D01*
X138612289Y-92631528D01*
X138619970Y-92633500D01*
X138640224Y-92633500D01*
X138659934Y-92635051D01*
X138679943Y-92638220D01*
X138687835Y-92637474D01*
X138723961Y-92634059D01*
X138735819Y-92633500D01*
X144203863Y-92633500D01*
X144271984Y-92653502D01*
X144318477Y-92707158D01*
X144323070Y-92718686D01*
X144344112Y-92780144D01*
X144467160Y-93024799D01*
X144469586Y-93028328D01*
X144469589Y-93028334D01*
X144579140Y-93187730D01*
X144622274Y-93250490D01*
X144625161Y-93253663D01*
X144625162Y-93253664D01*
X144742044Y-93382116D01*
X144806582Y-93453043D01*
X144809877Y-93455798D01*
X144809878Y-93455799D01*
X144843747Y-93484118D01*
X145016675Y-93628707D01*
X145020316Y-93630991D01*
X145245024Y-93771951D01*
X145245028Y-93771953D01*
X145248664Y-93774234D01*
X145333673Y-93812617D01*
X145494345Y-93885164D01*
X145494349Y-93885166D01*
X145498257Y-93886930D01*
X145561393Y-93905632D01*
X145756723Y-93963491D01*
X145756727Y-93963492D01*
X145760836Y-93964709D01*
X145765070Y-93965357D01*
X145765075Y-93965358D01*
X146027298Y-94005483D01*
X146027300Y-94005483D01*
X146031540Y-94006132D01*
X146170912Y-94008322D01*
X146301071Y-94010367D01*
X146301077Y-94010367D01*
X146305362Y-94010434D01*
X146577235Y-93977534D01*
X146842127Y-93908041D01*
X146846087Y-93906401D01*
X146846092Y-93906399D01*
X147038322Y-93826774D01*
X147095136Y-93803241D01*
X147331582Y-93665073D01*
X147547089Y-93496094D01*
X147556380Y-93486507D01*
X147734686Y-93302509D01*
X147737669Y-93299431D01*
X147740202Y-93295983D01*
X147740206Y-93295978D01*
X147897257Y-93082178D01*
X147899795Y-93078723D01*
X147903097Y-93072642D01*
X148028418Y-92841830D01*
X148028419Y-92841828D01*
X148030468Y-92838054D01*
X148106261Y-92637474D01*
X148125751Y-92585895D01*
X148125752Y-92585891D01*
X148127269Y-92581877D01*
X148169268Y-92398498D01*
X148187449Y-92319117D01*
X148187450Y-92319113D01*
X148188407Y-92314933D01*
X148202058Y-92161981D01*
X148212531Y-92044627D01*
X148212531Y-92044625D01*
X148212751Y-92042161D01*
X148213193Y-92000000D01*
X148212656Y-91992124D01*
X148194859Y-91731055D01*
X148194858Y-91731049D01*
X148194567Y-91726778D01*
X148139032Y-91458612D01*
X148047617Y-91200465D01*
X147957571Y-91026005D01*
X147923978Y-90960919D01*
X147923978Y-90960918D01*
X147922013Y-90957112D01*
X147912040Y-90942921D01*
X147767008Y-90736562D01*
X147764545Y-90733057D01*
X147644777Y-90604171D01*
X147581046Y-90535588D01*
X147581043Y-90535585D01*
X147578125Y-90532445D01*
X147574810Y-90529731D01*
X147574806Y-90529728D01*
X147404145Y-90390044D01*
X147366205Y-90358990D01*
X147163323Y-90234664D01*
X147136366Y-90218145D01*
X147136365Y-90218145D01*
X147132704Y-90215901D01*
X147128768Y-90214173D01*
X146885873Y-90107549D01*
X146885869Y-90107548D01*
X146881945Y-90105825D01*
X146618566Y-90030800D01*
X146614324Y-90030196D01*
X146614318Y-90030195D01*
X146375267Y-89996173D01*
X146347443Y-89992213D01*
X146203589Y-89991460D01*
X146077877Y-89990802D01*
X146077871Y-89990802D01*
X146073591Y-89990780D01*
X146069347Y-89991339D01*
X146069343Y-89991339D01*
X145950302Y-90007011D01*
X145802078Y-90026525D01*
X145797938Y-90027658D01*
X145797936Y-90027658D01*
X145725008Y-90047609D01*
X145537928Y-90098788D01*
X145533980Y-90100472D01*
X145289982Y-90204546D01*
X145289978Y-90204548D01*
X145286030Y-90206232D01*
X145187732Y-90265062D01*
X145054725Y-90344664D01*
X145054721Y-90344667D01*
X145051043Y-90346868D01*
X144837318Y-90518094D01*
X144648808Y-90716742D01*
X144489002Y-90939136D01*
X144486998Y-90942921D01*
X144414083Y-91080635D01*
X144360857Y-91181161D01*
X144359385Y-91185184D01*
X144359383Y-91185188D01*
X144352314Y-91204506D01*
X144327432Y-91272500D01*
X144323296Y-91283801D01*
X144281102Y-91340899D01*
X144214736Y-91366121D01*
X144204970Y-91366500D01*
X139014594Y-91366500D01*
X138946473Y-91346498D01*
X138925499Y-91329595D01*
X125895405Y-78299500D01*
X125861379Y-78237188D01*
X125858500Y-78210405D01*
X125858500Y-71474950D01*
X125878502Y-71406829D01*
X125895405Y-71385855D01*
X127266858Y-70014402D01*
X127329170Y-69980376D01*
X127399985Y-69985441D01*
X127419518Y-69994707D01*
X127436000Y-70004338D01*
X127644692Y-70084030D01*
X127649760Y-70085061D01*
X127649763Y-70085062D01*
X127757017Y-70106883D01*
X127863597Y-70128567D01*
X127868772Y-70128757D01*
X127868774Y-70128757D01*
X128081673Y-70136564D01*
X128081677Y-70136564D01*
X128086837Y-70136753D01*
X128091957Y-70136097D01*
X128091959Y-70136097D01*
X128303288Y-70109025D01*
X128303289Y-70109025D01*
X128308416Y-70108368D01*
X128313366Y-70106883D01*
X128517429Y-70045661D01*
X128517434Y-70045659D01*
X128522384Y-70044174D01*
X128722994Y-69945896D01*
X128904860Y-69816173D01*
X129013091Y-69708319D01*
X129075462Y-69674404D01*
X129146268Y-69679592D01*
X129203030Y-69722238D01*
X129220012Y-69753341D01*
X129243567Y-69816173D01*
X129264385Y-69871705D01*
X129351739Y-69988261D01*
X129468295Y-70075615D01*
X129604684Y-70126745D01*
X129666866Y-70133500D01*
X129805500Y-70133500D01*
X129873621Y-70153502D01*
X129920114Y-70207158D01*
X129931500Y-70259500D01*
X129931500Y-75611233D01*
X129930973Y-75622416D01*
X129929298Y-75629909D01*
X129929547Y-75637835D01*
X129929547Y-75637836D01*
X129931438Y-75697986D01*
X129931500Y-75701945D01*
X129931500Y-75729856D01*
X129931997Y-75733790D01*
X129931997Y-75733791D01*
X129932005Y-75733856D01*
X129932938Y-75745693D01*
X129934327Y-75789889D01*
X129939978Y-75809339D01*
X129943987Y-75828700D01*
X129946526Y-75848797D01*
X129949445Y-75856168D01*
X129949445Y-75856170D01*
X129962804Y-75889912D01*
X129966649Y-75901142D01*
X129976771Y-75935983D01*
X129978982Y-75943593D01*
X129983015Y-75950412D01*
X129983017Y-75950417D01*
X129989293Y-75961028D01*
X129997988Y-75978776D01*
X130005448Y-75997617D01*
X130010110Y-76004033D01*
X130010110Y-76004034D01*
X130031436Y-76033387D01*
X130037952Y-76043307D01*
X130060458Y-76081362D01*
X130074779Y-76095683D01*
X130087619Y-76110716D01*
X130099528Y-76127107D01*
X130105634Y-76132158D01*
X130133605Y-76155298D01*
X130142384Y-76163288D01*
X135896343Y-81917247D01*
X135903887Y-81925537D01*
X135908000Y-81932018D01*
X135913777Y-81937443D01*
X135957667Y-81978658D01*
X135960509Y-81981413D01*
X135980230Y-82001134D01*
X135983425Y-82003612D01*
X135992447Y-82011318D01*
X136024679Y-82041586D01*
X136031628Y-82045406D01*
X136042432Y-82051346D01*
X136058956Y-82062199D01*
X136074959Y-82074613D01*
X136115543Y-82092176D01*
X136126173Y-82097383D01*
X136164940Y-82118695D01*
X136172617Y-82120666D01*
X136172622Y-82120668D01*
X136184558Y-82123732D01*
X136203266Y-82130137D01*
X136221855Y-82138181D01*
X136229683Y-82139421D01*
X136229690Y-82139423D01*
X136265524Y-82145099D01*
X136277144Y-82147505D01*
X136312289Y-82156528D01*
X136319970Y-82158500D01*
X136340224Y-82158500D01*
X136359934Y-82160051D01*
X136379943Y-82163220D01*
X136387835Y-82162474D01*
X136423961Y-82159059D01*
X136435819Y-82158500D01*
X145066800Y-82158500D01*
X145134921Y-82178502D01*
X145154147Y-82194843D01*
X145154420Y-82194540D01*
X145159332Y-82198963D01*
X145163747Y-82203866D01*
X145318248Y-82316118D01*
X145324276Y-82318802D01*
X145324278Y-82318803D01*
X145486681Y-82391109D01*
X145492712Y-82393794D01*
X145586112Y-82413647D01*
X145673056Y-82432128D01*
X145673061Y-82432128D01*
X145679513Y-82433500D01*
X145870487Y-82433500D01*
X145876939Y-82432128D01*
X145876944Y-82432128D01*
X145963888Y-82413647D01*
X146057288Y-82393794D01*
X146063319Y-82391109D01*
X146225722Y-82318803D01*
X146225724Y-82318802D01*
X146231752Y-82316118D01*
X146386253Y-82203866D01*
X146422851Y-82163220D01*
X146509621Y-82066852D01*
X146509622Y-82066851D01*
X146514040Y-82061944D01*
X146589053Y-81932018D01*
X146606223Y-81902279D01*
X146606224Y-81902278D01*
X146609527Y-81896556D01*
X146668542Y-81714928D01*
X146688504Y-81525000D01*
X146680769Y-81451406D01*
X146669232Y-81341635D01*
X146669232Y-81341633D01*
X146668542Y-81335072D01*
X146609527Y-81153444D01*
X146514040Y-80988056D01*
X146386253Y-80846134D01*
X146231752Y-80733882D01*
X146225724Y-80731198D01*
X146225722Y-80731197D01*
X146063319Y-80658891D01*
X146063318Y-80658891D01*
X146057288Y-80656206D01*
X145963887Y-80636353D01*
X145876944Y-80617872D01*
X145876939Y-80617872D01*
X145870487Y-80616500D01*
X145679513Y-80616500D01*
X145673061Y-80617872D01*
X145673056Y-80617872D01*
X145586113Y-80636353D01*
X145492712Y-80656206D01*
X145486682Y-80658891D01*
X145486681Y-80658891D01*
X145324278Y-80731197D01*
X145324276Y-80731198D01*
X145318248Y-80733882D01*
X145312907Y-80737762D01*
X145312906Y-80737763D01*
X145185329Y-80830454D01*
X145163747Y-80846134D01*
X145159332Y-80851037D01*
X145154420Y-80855460D01*
X145153295Y-80854211D01*
X145099986Y-80887051D01*
X145066800Y-80891500D01*
X136714594Y-80891500D01*
X136646473Y-80871498D01*
X136625499Y-80854595D01*
X131235405Y-75464500D01*
X131201379Y-75402188D01*
X131198500Y-75375405D01*
X131198500Y-70259500D01*
X131218502Y-70191379D01*
X131272158Y-70144886D01*
X131324500Y-70133500D01*
X131463134Y-70133500D01*
X131525316Y-70126745D01*
X131661705Y-70075615D01*
X131778261Y-69988261D01*
X131865615Y-69871705D01*
X131916745Y-69735316D01*
X131923500Y-69673134D01*
X131923500Y-67876866D01*
X131916745Y-67814684D01*
X131865615Y-67678295D01*
X131778261Y-67561739D01*
X131661705Y-67474385D01*
X131649132Y-67469672D01*
X131543203Y-67429960D01*
X131486439Y-67387318D01*
X131461739Y-67320756D01*
X131476947Y-67251408D01*
X131498493Y-67222727D01*
X131557580Y-67163846D01*
X131603096Y-67118489D01*
X131635984Y-67072721D01*
X131730435Y-66941277D01*
X131733453Y-66937077D01*
X131735746Y-66932437D01*
X131737446Y-66929608D01*
X131789674Y-66881518D01*
X131845451Y-66868500D01*
X134268446Y-66868500D01*
X134336567Y-66888502D01*
X134383060Y-66942158D01*
X134393164Y-67012432D01*
X134377565Y-67057500D01*
X134371176Y-67068567D01*
X134365473Y-67078444D01*
X134306458Y-67260072D01*
X134305768Y-67266633D01*
X134305768Y-67266635D01*
X134303627Y-67287008D01*
X134286496Y-67450000D01*
X134287186Y-67456565D01*
X134297675Y-67556358D01*
X134306458Y-67639928D01*
X134365473Y-67821556D01*
X134460960Y-67986944D01*
X134534137Y-68068215D01*
X134564853Y-68132221D01*
X134566500Y-68152524D01*
X134566500Y-77196233D01*
X134565973Y-77207416D01*
X134564298Y-77214909D01*
X134564547Y-77222835D01*
X134564547Y-77222836D01*
X134566438Y-77282986D01*
X134566500Y-77286945D01*
X134566500Y-77314856D01*
X134566997Y-77318790D01*
X134566997Y-77318791D01*
X134567005Y-77318856D01*
X134567938Y-77330693D01*
X134569327Y-77374889D01*
X134574978Y-77394339D01*
X134578987Y-77413700D01*
X134581526Y-77433797D01*
X134584445Y-77441168D01*
X134584445Y-77441170D01*
X134597804Y-77474912D01*
X134601649Y-77486142D01*
X134613982Y-77528593D01*
X134618015Y-77535412D01*
X134618017Y-77535417D01*
X134624293Y-77546028D01*
X134632988Y-77563776D01*
X134640448Y-77582617D01*
X134645107Y-77589030D01*
X134646603Y-77591751D01*
X134661514Y-77649830D01*
X134661496Y-77650000D01*
X134662186Y-77656565D01*
X134671359Y-77743837D01*
X134681458Y-77839928D01*
X134740473Y-78021556D01*
X134743776Y-78027278D01*
X134743777Y-78027279D01*
X134752290Y-78042023D01*
X134835960Y-78186944D01*
X134840378Y-78191851D01*
X134840379Y-78191852D01*
X134881200Y-78237188D01*
X134963747Y-78328866D01*
X135118248Y-78441118D01*
X135124276Y-78443802D01*
X135124278Y-78443803D01*
X135286681Y-78516109D01*
X135292712Y-78518794D01*
X135386113Y-78538647D01*
X135473056Y-78557128D01*
X135473061Y-78557128D01*
X135479513Y-78558500D01*
X135670487Y-78558500D01*
X135676939Y-78557128D01*
X135676944Y-78557128D01*
X135763887Y-78538647D01*
X135857288Y-78518794D01*
X135863319Y-78516109D01*
X136025722Y-78443803D01*
X136025724Y-78443802D01*
X136031752Y-78441118D01*
X136186253Y-78328866D01*
X136268800Y-78237188D01*
X136309621Y-78191852D01*
X136309622Y-78191851D01*
X136314040Y-78186944D01*
X136397710Y-78042023D01*
X136406223Y-78027279D01*
X136406224Y-78027278D01*
X136409527Y-78021556D01*
X136468542Y-77839928D01*
X136478642Y-77743837D01*
X136487814Y-77656565D01*
X136488504Y-77650000D01*
X136468542Y-77460072D01*
X136409527Y-77278444D01*
X136314040Y-77113056D01*
X136282920Y-77078493D01*
X136190675Y-76976045D01*
X136190674Y-76976044D01*
X136186253Y-76971134D01*
X136059405Y-76878973D01*
X136037094Y-76862763D01*
X136037093Y-76862762D01*
X136031752Y-76858882D01*
X136025724Y-76856198D01*
X136025722Y-76856197D01*
X135908251Y-76803896D01*
X135854155Y-76757916D01*
X135833500Y-76688789D01*
X135833500Y-68152524D01*
X135853502Y-68084403D01*
X135865858Y-68068221D01*
X135939040Y-67986944D01*
X136034527Y-67821556D01*
X136093542Y-67639928D01*
X136102326Y-67556358D01*
X136112814Y-67456565D01*
X136113504Y-67450000D01*
X136096373Y-67287008D01*
X136094232Y-67266635D01*
X136094232Y-67266633D01*
X136093542Y-67260072D01*
X136034527Y-67078444D01*
X136028825Y-67068567D01*
X136022435Y-67057500D01*
X136005697Y-66988505D01*
X136028917Y-66921413D01*
X136084725Y-66877526D01*
X136131554Y-66868500D01*
X136595020Y-66868500D01*
X136663141Y-66888502D01*
X136684115Y-66905405D01*
X140733146Y-70954436D01*
X140767172Y-71016748D01*
X140762107Y-71087563D01*
X140737688Y-71127840D01*
X140660960Y-71213056D01*
X140565473Y-71378444D01*
X140506458Y-71560072D01*
X140486496Y-71750000D01*
X140506458Y-71939928D01*
X140565473Y-72121556D01*
X140660960Y-72286944D01*
X140665378Y-72291851D01*
X140665379Y-72291852D01*
X140768005Y-72405830D01*
X140788747Y-72428866D01*
X140943248Y-72541118D01*
X140949276Y-72543802D01*
X140949278Y-72543803D01*
X141111681Y-72616109D01*
X141117712Y-72618794D01*
X141211112Y-72638647D01*
X141298056Y-72657128D01*
X141298061Y-72657128D01*
X141304513Y-72658500D01*
X141325049Y-72658500D01*
X141393170Y-72678502D01*
X141414144Y-72695404D01*
X141904595Y-73185854D01*
X141938620Y-73248167D01*
X141941500Y-73274950D01*
X141941500Y-74925050D01*
X141921498Y-74993171D01*
X141904595Y-75014145D01*
X141064145Y-75854595D01*
X141001833Y-75888621D01*
X140975050Y-75891500D01*
X139130224Y-75891500D01*
X139062103Y-75871498D01*
X139056163Y-75867436D01*
X139055909Y-75867251D01*
X138938136Y-75781684D01*
X138912094Y-75762763D01*
X138912093Y-75762762D01*
X138906752Y-75758882D01*
X138900724Y-75756198D01*
X138900722Y-75756197D01*
X138738319Y-75683891D01*
X138738318Y-75683891D01*
X138732288Y-75681206D01*
X138638888Y-75661353D01*
X138551944Y-75642872D01*
X138551939Y-75642872D01*
X138545487Y-75641500D01*
X138354513Y-75641500D01*
X138348061Y-75642872D01*
X138348056Y-75642872D01*
X138261112Y-75661353D01*
X138167712Y-75681206D01*
X138161682Y-75683891D01*
X138161681Y-75683891D01*
X137999278Y-75756197D01*
X137999276Y-75756198D01*
X137993248Y-75758882D01*
X137987907Y-75762762D01*
X137987906Y-75762763D01*
X137961864Y-75781684D01*
X137838747Y-75871134D01*
X137834326Y-75876044D01*
X137834325Y-75876045D01*
X137806585Y-75906854D01*
X137710960Y-76013056D01*
X137668284Y-76086973D01*
X137619019Y-76172303D01*
X137615473Y-76178444D01*
X137556458Y-76360072D01*
X137536496Y-76550000D01*
X137556458Y-76739928D01*
X137615473Y-76921556D01*
X137618776Y-76927278D01*
X137618777Y-76927279D01*
X137632118Y-76950386D01*
X137710960Y-77086944D01*
X137715378Y-77091851D01*
X137715379Y-77091852D01*
X137834325Y-77223955D01*
X137838747Y-77228866D01*
X137915636Y-77284729D01*
X137978908Y-77330699D01*
X137993248Y-77341118D01*
X137999276Y-77343802D01*
X137999278Y-77343803D01*
X138161681Y-77416109D01*
X138167712Y-77418794D01*
X138250866Y-77436469D01*
X138348056Y-77457128D01*
X138348061Y-77457128D01*
X138354513Y-77458500D01*
X138545487Y-77458500D01*
X138551939Y-77457128D01*
X138551944Y-77457128D01*
X138649134Y-77436469D01*
X138732288Y-77418794D01*
X138738319Y-77416109D01*
X138900722Y-77343803D01*
X138900724Y-77343802D01*
X138906752Y-77341118D01*
X138921093Y-77330699D01*
X139004126Y-77270371D01*
X139056163Y-77232564D01*
X139123031Y-77208706D01*
X139130224Y-77208500D01*
X141217944Y-77208500D01*
X141229800Y-77209059D01*
X141229803Y-77209059D01*
X141237537Y-77210788D01*
X141308369Y-77208562D01*
X141312327Y-77208500D01*
X141341432Y-77208500D01*
X141345832Y-77207944D01*
X141357664Y-77207012D01*
X141403831Y-77205562D01*
X141424421Y-77199580D01*
X141443782Y-77195570D01*
X141450770Y-77194688D01*
X141457204Y-77193875D01*
X141457205Y-77193875D01*
X141465064Y-77192882D01*
X141472429Y-77189966D01*
X141472433Y-77189965D01*
X141508021Y-77175874D01*
X141519231Y-77172035D01*
X141563600Y-77159145D01*
X141582065Y-77148225D01*
X141599805Y-77139534D01*
X141619756Y-77131635D01*
X141657129Y-77104482D01*
X141667048Y-77097967D01*
X141699977Y-77078493D01*
X141699981Y-77078490D01*
X141706807Y-77074453D01*
X141721971Y-77059289D01*
X141737005Y-77046448D01*
X141747943Y-77038501D01*
X141754357Y-77033841D01*
X141783803Y-76998247D01*
X141791792Y-76989468D01*
X143007605Y-75773655D01*
X143016385Y-75765665D01*
X143016387Y-75765663D01*
X143023080Y-75761416D01*
X143048961Y-75733856D01*
X143071604Y-75709743D01*
X143074359Y-75706901D01*
X143094927Y-75686333D01*
X143097647Y-75682826D01*
X143105353Y-75673804D01*
X143131544Y-75645913D01*
X143136972Y-75640133D01*
X143146340Y-75623093D01*
X143147303Y-75621342D01*
X143158157Y-75604818D01*
X143166445Y-75594132D01*
X143171304Y-75587868D01*
X143174452Y-75580594D01*
X143189654Y-75545465D01*
X143194876Y-75534805D01*
X143213305Y-75501284D01*
X143213306Y-75501282D01*
X143217124Y-75494337D01*
X143222459Y-75473559D01*
X143228858Y-75454869D01*
X143237380Y-75435176D01*
X143244606Y-75389552D01*
X143247013Y-75377929D01*
X143256528Y-75340868D01*
X143258500Y-75333188D01*
X143258500Y-75311741D01*
X143260051Y-75292031D01*
X143262166Y-75278677D01*
X143263406Y-75270848D01*
X143259059Y-75224859D01*
X143258500Y-75213004D01*
X143258500Y-73808594D01*
X143278502Y-73740473D01*
X143332158Y-73693980D01*
X143402432Y-73683876D01*
X143467012Y-73713370D01*
X143473594Y-73719498D01*
X145926816Y-76172721D01*
X148379595Y-78625500D01*
X148413621Y-78687812D01*
X148416500Y-78714595D01*
X148416500Y-80221233D01*
X148415973Y-80232416D01*
X148414298Y-80239909D01*
X148414547Y-80247835D01*
X148414547Y-80247836D01*
X148416438Y-80307986D01*
X148416500Y-80311945D01*
X148416500Y-80339856D01*
X148416997Y-80343790D01*
X148416997Y-80343791D01*
X148417005Y-80343856D01*
X148417938Y-80355693D01*
X148419327Y-80399889D01*
X148424978Y-80419339D01*
X148428987Y-80438700D01*
X148431526Y-80458797D01*
X148434445Y-80466168D01*
X148434445Y-80466170D01*
X148447804Y-80499912D01*
X148451649Y-80511142D01*
X148463982Y-80553593D01*
X148468015Y-80560412D01*
X148468017Y-80560417D01*
X148474293Y-80571028D01*
X148482988Y-80588776D01*
X148490448Y-80607617D01*
X148495110Y-80614033D01*
X148495110Y-80614034D01*
X148516436Y-80643387D01*
X148522952Y-80653307D01*
X148524667Y-80656206D01*
X148545458Y-80691362D01*
X148559779Y-80705683D01*
X148572619Y-80720716D01*
X148584528Y-80737107D01*
X148590634Y-80742158D01*
X148618605Y-80765298D01*
X148627384Y-80773288D01*
X149606586Y-81752490D01*
X149640612Y-81814802D01*
X149642778Y-81854973D01*
X149639678Y-81883988D01*
X149637251Y-81906695D01*
X149637548Y-81911848D01*
X149637548Y-81911851D01*
X149645249Y-82045406D01*
X149650110Y-82129715D01*
X149651247Y-82134761D01*
X149651248Y-82134767D01*
X149683453Y-82277668D01*
X149678917Y-82348520D01*
X149649631Y-82394464D01*
X149107747Y-82936348D01*
X149099461Y-82943888D01*
X149092982Y-82948000D01*
X149087557Y-82953777D01*
X149046357Y-82997651D01*
X149043602Y-83000493D01*
X149023865Y-83020230D01*
X149021385Y-83023427D01*
X149013682Y-83032447D01*
X148983414Y-83064679D01*
X148979595Y-83071625D01*
X148979593Y-83071628D01*
X148973652Y-83082434D01*
X148962801Y-83098953D01*
X148950386Y-83114959D01*
X148947241Y-83122228D01*
X148947238Y-83122232D01*
X148932826Y-83155537D01*
X148927609Y-83166187D01*
X148906305Y-83204940D01*
X148904334Y-83212615D01*
X148904334Y-83212616D01*
X148901267Y-83224562D01*
X148894863Y-83243266D01*
X148886819Y-83261855D01*
X148885580Y-83269678D01*
X148885577Y-83269688D01*
X148879901Y-83305524D01*
X148877495Y-83317144D01*
X148869516Y-83348222D01*
X148866500Y-83359970D01*
X148866500Y-83380224D01*
X148864949Y-83399934D01*
X148861780Y-83419943D01*
X148865369Y-83457905D01*
X148865941Y-83463961D01*
X148866500Y-83475819D01*
X148866500Y-87821233D01*
X148865973Y-87832416D01*
X148864298Y-87839909D01*
X148864547Y-87847835D01*
X148864547Y-87847836D01*
X148866438Y-87907986D01*
X148866500Y-87911945D01*
X148866500Y-87939856D01*
X148866997Y-87943790D01*
X148866997Y-87943791D01*
X148867005Y-87943856D01*
X148867938Y-87955693D01*
X148869327Y-87999889D01*
X148874978Y-88019339D01*
X148878987Y-88038700D01*
X148881526Y-88058797D01*
X148884445Y-88066168D01*
X148884445Y-88066170D01*
X148897804Y-88099912D01*
X148901649Y-88111142D01*
X148906435Y-88127617D01*
X148913982Y-88153593D01*
X148918015Y-88160412D01*
X148918017Y-88160417D01*
X148924293Y-88171028D01*
X148932988Y-88188776D01*
X148940448Y-88207617D01*
X148945110Y-88214033D01*
X148945110Y-88214034D01*
X148966436Y-88243387D01*
X148972952Y-88253307D01*
X148995458Y-88291362D01*
X149009779Y-88305683D01*
X149022619Y-88320716D01*
X149034528Y-88337107D01*
X149040634Y-88342158D01*
X149068605Y-88365298D01*
X149077384Y-88373288D01*
X149396343Y-88692247D01*
X149403887Y-88700537D01*
X149408000Y-88707018D01*
X149413777Y-88712443D01*
X149457667Y-88753658D01*
X149460509Y-88756413D01*
X149480230Y-88776134D01*
X149483425Y-88778612D01*
X149492447Y-88786318D01*
X149524679Y-88816586D01*
X149531628Y-88820406D01*
X149542432Y-88826346D01*
X149558956Y-88837199D01*
X149574959Y-88849613D01*
X149615543Y-88867176D01*
X149626173Y-88872383D01*
X149664940Y-88893695D01*
X149667064Y-88894240D01*
X149721027Y-88936346D01*
X149744503Y-89003350D01*
X149732957Y-89062872D01*
X149722869Y-89084604D01*
X149722865Y-89084616D01*
X149720688Y-89089305D01*
X149660989Y-89304570D01*
X149637251Y-89526695D01*
X149637548Y-89531848D01*
X149637548Y-89531851D01*
X149641565Y-89601518D01*
X149650110Y-89749715D01*
X149651247Y-89754761D01*
X149651248Y-89754767D01*
X149669874Y-89837413D01*
X149699222Y-89967639D01*
X149756033Y-90107549D01*
X149775374Y-90155179D01*
X149783266Y-90174616D01*
X149822494Y-90238630D01*
X149897291Y-90360688D01*
X149899987Y-90365088D01*
X150046250Y-90533938D01*
X150218126Y-90676632D01*
X150223197Y-90679595D01*
X150291445Y-90719476D01*
X150340169Y-90771114D01*
X150353240Y-90840897D01*
X150326509Y-90906669D01*
X150286055Y-90940027D01*
X150280496Y-90942921D01*
X150273607Y-90946507D01*
X150269474Y-90949610D01*
X150269471Y-90949612D01*
X150142181Y-91045184D01*
X150094965Y-91080635D01*
X150091393Y-91084373D01*
X149947680Y-91234760D01*
X149940629Y-91242138D01*
X149937720Y-91246403D01*
X149937714Y-91246411D01*
X149919917Y-91272500D01*
X149814743Y-91426680D01*
X149789044Y-91482045D01*
X149726698Y-91616358D01*
X149720688Y-91629305D01*
X149660989Y-91844570D01*
X149637251Y-92066695D01*
X149650110Y-92289715D01*
X149651247Y-92294761D01*
X149651248Y-92294767D01*
X149655793Y-92314933D01*
X149699222Y-92507639D01*
X149750958Y-92635051D01*
X149780238Y-92707158D01*
X149783266Y-92714616D01*
X149825769Y-92783975D01*
X149897291Y-92900688D01*
X149899987Y-92905088D01*
X150046250Y-93073938D01*
X150218126Y-93216632D01*
X150276067Y-93250490D01*
X150291445Y-93259476D01*
X150340169Y-93311114D01*
X150353240Y-93380897D01*
X150326509Y-93446669D01*
X150286055Y-93480027D01*
X150273607Y-93486507D01*
X150269474Y-93489610D01*
X150269471Y-93489612D01*
X150125341Y-93597828D01*
X150094965Y-93620635D01*
X150054398Y-93663086D01*
X149946495Y-93776000D01*
X149940629Y-93782138D01*
X149937720Y-93786403D01*
X149937714Y-93786411D01*
X149868288Y-93888186D01*
X149814743Y-93966680D01*
X149779876Y-94041795D01*
X149735751Y-94136855D01*
X149720688Y-94169305D01*
X149660989Y-94384570D01*
X149637251Y-94606695D01*
X149637548Y-94611848D01*
X149637548Y-94611851D01*
X149642475Y-94697301D01*
X149650110Y-94829715D01*
X149651247Y-94834761D01*
X149651248Y-94834767D01*
X149665073Y-94896109D01*
X149699222Y-95047639D01*
X149783266Y-95254616D01*
X149834942Y-95338944D01*
X149897291Y-95440688D01*
X149899987Y-95445088D01*
X150046250Y-95613938D01*
X150218126Y-95756632D01*
X150258631Y-95780301D01*
X150291445Y-95799476D01*
X150340169Y-95851114D01*
X150353240Y-95920897D01*
X150326509Y-95986669D01*
X150286055Y-96020027D01*
X150273607Y-96026507D01*
X150269474Y-96029610D01*
X150269471Y-96029612D01*
X150125341Y-96137828D01*
X150094965Y-96160635D01*
X149940629Y-96322138D01*
X149937720Y-96326403D01*
X149937714Y-96326411D01*
X149920664Y-96351406D01*
X149814743Y-96506680D01*
X149789195Y-96561719D01*
X149726698Y-96696358D01*
X149720688Y-96709305D01*
X149660989Y-96924570D01*
X149637251Y-97146695D01*
X149637548Y-97151848D01*
X149637548Y-97151851D01*
X149648621Y-97343895D01*
X149650110Y-97369715D01*
X149651247Y-97374761D01*
X149651248Y-97374767D01*
X149669089Y-97453929D01*
X149699222Y-97587639D01*
X149783266Y-97794616D01*
X149824957Y-97862649D01*
X149897291Y-97980688D01*
X149899987Y-97985088D01*
X150046250Y-98153938D01*
X150218126Y-98296632D01*
X150258631Y-98320301D01*
X150291445Y-98339476D01*
X150340169Y-98391114D01*
X150353240Y-98460897D01*
X150326509Y-98526669D01*
X150286055Y-98560027D01*
X150273607Y-98566507D01*
X150269474Y-98569610D01*
X150269471Y-98569612D01*
X150125341Y-98677828D01*
X150094965Y-98700635D01*
X149940629Y-98862138D01*
X149937720Y-98866403D01*
X149937714Y-98866411D01*
X149919917Y-98892500D01*
X149814743Y-99046680D01*
X149789044Y-99102045D01*
X149726698Y-99236358D01*
X149720688Y-99249305D01*
X149660989Y-99464570D01*
X149637251Y-99686695D01*
X149637548Y-99691848D01*
X149637548Y-99691851D01*
X149641597Y-99762069D01*
X149650110Y-99909715D01*
X149651247Y-99914761D01*
X149651248Y-99914767D01*
X149657971Y-99944598D01*
X149699222Y-100127639D01*
X149783266Y-100334616D01*
X149824805Y-100402401D01*
X149897291Y-100520688D01*
X149899987Y-100525088D01*
X150046250Y-100693938D01*
X150218126Y-100836632D01*
X150225461Y-100840918D01*
X150291445Y-100879476D01*
X150340169Y-100931114D01*
X150353240Y-101000897D01*
X150326509Y-101066669D01*
X150286055Y-101100027D01*
X150273607Y-101106507D01*
X150269474Y-101109610D01*
X150269471Y-101109612D01*
X150125341Y-101217828D01*
X150094965Y-101240635D01*
X149940629Y-101402138D01*
X149937720Y-101406403D01*
X149937714Y-101406411D01*
X149919917Y-101432500D01*
X149814743Y-101586680D01*
X149789044Y-101642045D01*
X149726698Y-101776358D01*
X149720688Y-101789305D01*
X149660989Y-102004570D01*
X149637251Y-102226695D01*
X149637548Y-102231848D01*
X149637548Y-102231851D01*
X149643895Y-102341921D01*
X149650110Y-102449715D01*
X149651247Y-102454761D01*
X149651248Y-102454767D01*
X149673824Y-102554943D01*
X149699222Y-102667639D01*
X149783266Y-102874616D01*
X149824805Y-102942401D01*
X149897291Y-103060688D01*
X149899987Y-103065088D01*
X150046250Y-103233938D01*
X150218126Y-103376632D01*
X150245011Y-103392342D01*
X150291445Y-103419476D01*
X150340169Y-103471114D01*
X150353240Y-103540897D01*
X150326509Y-103606669D01*
X150286055Y-103640027D01*
X150273607Y-103646507D01*
X150269474Y-103649610D01*
X150269471Y-103649612D01*
X150099100Y-103777530D01*
X150094965Y-103780635D01*
X149940629Y-103942138D01*
X149937720Y-103946403D01*
X149937714Y-103946411D01*
X149919917Y-103972500D01*
X149814743Y-104126680D01*
X149774352Y-104213695D01*
X149726698Y-104316358D01*
X149720688Y-104329305D01*
X149660989Y-104544570D01*
X149637251Y-104766695D01*
X149637548Y-104771848D01*
X149637548Y-104771851D01*
X149644313Y-104889174D01*
X149650110Y-104989715D01*
X149651247Y-104994761D01*
X149651248Y-104994767D01*
X149670501Y-105080197D01*
X149699222Y-105207639D01*
X149783266Y-105414616D01*
X149834019Y-105497438D01*
X149897291Y-105600688D01*
X149899987Y-105605088D01*
X150046250Y-105773938D01*
X150218126Y-105916632D01*
X150288595Y-105957811D01*
X150291445Y-105959476D01*
X150340169Y-106011114D01*
X150353240Y-106080897D01*
X150326509Y-106146669D01*
X150286055Y-106180027D01*
X150273607Y-106186507D01*
X150269474Y-106189610D01*
X150269471Y-106189612D01*
X150099100Y-106317530D01*
X150094965Y-106320635D01*
X150069894Y-106346870D01*
X149990017Y-106430457D01*
X149940629Y-106482138D01*
X149937720Y-106486403D01*
X149937714Y-106486411D01*
X149898451Y-106543968D01*
X149814743Y-106666680D01*
X149789044Y-106722045D01*
X149726698Y-106856358D01*
X149720688Y-106869305D01*
X149660989Y-107084570D01*
X149637251Y-107306695D01*
X149637548Y-107311848D01*
X149637548Y-107311851D01*
X149644911Y-107439544D01*
X149650110Y-107529715D01*
X149651247Y-107534761D01*
X149651248Y-107534767D01*
X149661748Y-107581358D01*
X149699222Y-107747639D01*
X149783266Y-107954616D01*
X149834019Y-108037438D01*
X149897291Y-108140688D01*
X149899987Y-108145088D01*
X150046250Y-108313938D01*
X150218126Y-108456632D01*
X150288595Y-108497811D01*
X150291445Y-108499476D01*
X150340169Y-108551114D01*
X150353240Y-108620897D01*
X150326509Y-108686669D01*
X150286055Y-108720027D01*
X150273607Y-108726507D01*
X150269474Y-108729610D01*
X150269471Y-108729612D01*
X150099100Y-108857530D01*
X150094965Y-108860635D01*
X149940629Y-109022138D01*
X149937720Y-109026403D01*
X149937714Y-109026411D01*
X149881250Y-109109184D01*
X149814743Y-109206680D01*
X149789044Y-109262045D01*
X149726698Y-109396358D01*
X149720688Y-109409305D01*
X149660989Y-109624570D01*
X149637251Y-109846695D01*
X149637548Y-109851848D01*
X149637548Y-109851851D01*
X149643011Y-109946590D01*
X149650110Y-110069715D01*
X149651247Y-110074761D01*
X149651248Y-110074767D01*
X149670119Y-110158500D01*
X149699222Y-110287639D01*
X149756341Y-110428307D01*
X149780457Y-110487697D01*
X149783266Y-110494616D01*
X149834019Y-110577438D01*
X149897291Y-110680688D01*
X149899987Y-110685088D01*
X150046250Y-110853938D01*
X150218126Y-110996632D01*
X150288595Y-111037811D01*
X150291445Y-111039476D01*
X150340169Y-111091114D01*
X150353240Y-111160897D01*
X150326509Y-111226669D01*
X150286055Y-111260027D01*
X150273607Y-111266507D01*
X150269474Y-111269610D01*
X150269471Y-111269612D01*
X150099100Y-111397530D01*
X150094965Y-111400635D01*
X149940629Y-111562138D01*
X149937720Y-111566403D01*
X149937714Y-111566411D01*
X149920499Y-111591647D01*
X149814743Y-111746680D01*
X149789044Y-111802045D01*
X149726698Y-111936358D01*
X149720688Y-111949305D01*
X149660989Y-112164570D01*
X149637251Y-112386695D01*
X149637548Y-112391848D01*
X149637548Y-112391851D01*
X149643011Y-112486590D01*
X149650110Y-112609715D01*
X149651247Y-112614761D01*
X149651248Y-112614767D01*
X149653184Y-112623357D01*
X149699222Y-112827639D01*
X149783266Y-113034616D01*
X149834019Y-113117438D01*
X149897291Y-113220688D01*
X149899987Y-113225088D01*
X150046250Y-113393938D01*
X150218126Y-113536632D01*
X150249313Y-113554856D01*
X150291445Y-113579476D01*
X150340169Y-113631114D01*
X150353240Y-113700897D01*
X150326509Y-113766669D01*
X150286055Y-113800027D01*
X150273607Y-113806507D01*
X150269474Y-113809610D01*
X150269471Y-113809612D01*
X150101515Y-113935717D01*
X150094965Y-113940635D01*
X149940629Y-114102138D01*
X149937720Y-114106403D01*
X149937714Y-114106411D01*
X149884793Y-114183991D01*
X149814743Y-114286680D01*
X149789044Y-114342045D01*
X149726698Y-114476358D01*
X149720688Y-114489305D01*
X149660989Y-114704570D01*
X149637251Y-114926695D01*
X149637548Y-114931848D01*
X149637548Y-114931851D01*
X149643011Y-115026590D01*
X149650110Y-115149715D01*
X149651247Y-115154761D01*
X149651248Y-115154767D01*
X149664003Y-115211364D01*
X149699222Y-115367639D01*
X149756840Y-115509535D01*
X149780238Y-115567158D01*
X149783266Y-115574616D01*
X149834019Y-115657438D01*
X149897291Y-115760688D01*
X149899987Y-115765088D01*
X150046250Y-115933938D01*
X150218126Y-116076632D01*
X150288595Y-116117811D01*
X150291445Y-116119476D01*
X150340169Y-116171114D01*
X150353240Y-116240897D01*
X150326509Y-116306669D01*
X150286055Y-116340027D01*
X150273607Y-116346507D01*
X150269474Y-116349610D01*
X150269471Y-116349612D01*
X150099100Y-116477530D01*
X150094965Y-116480635D01*
X149940629Y-116642138D01*
X149937720Y-116646403D01*
X149937714Y-116646411D01*
X149884793Y-116723991D01*
X149814743Y-116826680D01*
X149789044Y-116882045D01*
X149726698Y-117016358D01*
X149720688Y-117029305D01*
X149660989Y-117244570D01*
X149637251Y-117466695D01*
X149637548Y-117471848D01*
X149637548Y-117471851D01*
X149643011Y-117566590D01*
X149650110Y-117689715D01*
X149651247Y-117694761D01*
X149651248Y-117694767D01*
X149670501Y-117780197D01*
X149699222Y-117907639D01*
X149783266Y-118114616D01*
X149834019Y-118197438D01*
X149897291Y-118300688D01*
X149899987Y-118305088D01*
X150046250Y-118473938D01*
X150218126Y-118616632D01*
X150288595Y-118657811D01*
X150291445Y-118659476D01*
X150340169Y-118711114D01*
X150353240Y-118780897D01*
X150326509Y-118846669D01*
X150286055Y-118880027D01*
X150273607Y-118886507D01*
X150269474Y-118889610D01*
X150269471Y-118889612D01*
X150099100Y-119017530D01*
X150094965Y-119020635D01*
X149940629Y-119182138D01*
X149937720Y-119186403D01*
X149937714Y-119186411D01*
X149884793Y-119263991D01*
X149814743Y-119366680D01*
X149789044Y-119422045D01*
X149726698Y-119556358D01*
X149720688Y-119569305D01*
X149660989Y-119784570D01*
X149637251Y-120006695D01*
X149637548Y-120011848D01*
X149637548Y-120011851D01*
X149643011Y-120106590D01*
X149650110Y-120229715D01*
X149651247Y-120234761D01*
X149651248Y-120234767D01*
X149670501Y-120320197D01*
X149699222Y-120447639D01*
X149783266Y-120654616D01*
X149834019Y-120737438D01*
X149897291Y-120840688D01*
X149899987Y-120845088D01*
X150046250Y-121013938D01*
X150218126Y-121156632D01*
X150288595Y-121197811D01*
X150291445Y-121199476D01*
X150340169Y-121251114D01*
X150353240Y-121320897D01*
X150326509Y-121386669D01*
X150286055Y-121420027D01*
X150273607Y-121426507D01*
X150269474Y-121429610D01*
X150269471Y-121429612D01*
X150099100Y-121557530D01*
X150094965Y-121560635D01*
X149940629Y-121722138D01*
X149937720Y-121726403D01*
X149937714Y-121726411D01*
X149884793Y-121803991D01*
X149814743Y-121906680D01*
X149789044Y-121962045D01*
X149726698Y-122096358D01*
X149720688Y-122109305D01*
X149660989Y-122324570D01*
X149637251Y-122546695D01*
X149637548Y-122551848D01*
X149637548Y-122551851D01*
X149643011Y-122646590D01*
X149650110Y-122769715D01*
X149651247Y-122774761D01*
X149651248Y-122774767D01*
X149670501Y-122860197D01*
X149699222Y-122987639D01*
X149783266Y-123194616D01*
X149834019Y-123277438D01*
X149897291Y-123380688D01*
X149899987Y-123385088D01*
X150046250Y-123553938D01*
X150218126Y-123696632D01*
X150288595Y-123737811D01*
X150291445Y-123739476D01*
X150340169Y-123791114D01*
X150353240Y-123860897D01*
X150326509Y-123926669D01*
X150286055Y-123960027D01*
X150273607Y-123966507D01*
X150269474Y-123969610D01*
X150269471Y-123969612D01*
X150099100Y-124097530D01*
X150094965Y-124100635D01*
X149940629Y-124262138D01*
X149937720Y-124266403D01*
X149937714Y-124266411D01*
X149852556Y-124391249D01*
X149814743Y-124446680D01*
X149720688Y-124649305D01*
X149660989Y-124864570D01*
X149637251Y-125086695D01*
X149637548Y-125091848D01*
X149637548Y-125091851D01*
X149643011Y-125186590D01*
X149650110Y-125309715D01*
X149651247Y-125314761D01*
X149651248Y-125314767D01*
X149671119Y-125402939D01*
X149699222Y-125527639D01*
X149783266Y-125734616D01*
X149834019Y-125817438D01*
X149897291Y-125920688D01*
X149899987Y-125925088D01*
X150046250Y-126093938D01*
X150218126Y-126236632D01*
X150288595Y-126277811D01*
X150291445Y-126279476D01*
X150340169Y-126331114D01*
X150353240Y-126400897D01*
X150326509Y-126466669D01*
X150286055Y-126500027D01*
X150273607Y-126506507D01*
X150269474Y-126509610D01*
X150269471Y-126509612D01*
X150099100Y-126637530D01*
X150094965Y-126640635D01*
X149940629Y-126802138D01*
X149937720Y-126806403D01*
X149937714Y-126806411D01*
X149852556Y-126931249D01*
X149814743Y-126986680D01*
X149720688Y-127189305D01*
X149660989Y-127404570D01*
X149637251Y-127626695D01*
X149637548Y-127631848D01*
X149637548Y-127631851D01*
X149643011Y-127726590D01*
X149650110Y-127849715D01*
X149651247Y-127854761D01*
X149651248Y-127854767D01*
X149671119Y-127942939D01*
X149699222Y-128067639D01*
X149783266Y-128274616D01*
X149834019Y-128357438D01*
X149897291Y-128460688D01*
X149899987Y-128465088D01*
X150046250Y-128633938D01*
X150218126Y-128776632D01*
X150411000Y-128889338D01*
X150415825Y-128891180D01*
X150415826Y-128891181D01*
X150432010Y-128897361D01*
X150619692Y-128969030D01*
X150624760Y-128970061D01*
X150624763Y-128970062D01*
X150732017Y-128991883D01*
X150838597Y-129013567D01*
X150843772Y-129013757D01*
X150843774Y-129013757D01*
X151056673Y-129021564D01*
X151056677Y-129021564D01*
X151061837Y-129021753D01*
X151066957Y-129021097D01*
X151066959Y-129021097D01*
X151278288Y-128994025D01*
X151278289Y-128994025D01*
X151283416Y-128993368D01*
X151288366Y-128991883D01*
X151492429Y-128930661D01*
X151492434Y-128930659D01*
X151497384Y-128929174D01*
X151697994Y-128830896D01*
X151879860Y-128701173D01*
X152038096Y-128543489D01*
X152086707Y-128475840D01*
X152168453Y-128362077D01*
X152169776Y-128363028D01*
X152216645Y-128319857D01*
X152286580Y-128307625D01*
X152352026Y-128335144D01*
X152379875Y-128366994D01*
X152439987Y-128465088D01*
X152586250Y-128633938D01*
X152758126Y-128776632D01*
X152951000Y-128889338D01*
X152955825Y-128891180D01*
X152955826Y-128891181D01*
X152972010Y-128897361D01*
X153159692Y-128969030D01*
X153164760Y-128970061D01*
X153164763Y-128970062D01*
X153272017Y-128991883D01*
X153378597Y-129013567D01*
X153383772Y-129013757D01*
X153383774Y-129013757D01*
X153596673Y-129021564D01*
X153596677Y-129021564D01*
X153601837Y-129021753D01*
X153606957Y-129021097D01*
X153606959Y-129021097D01*
X153818288Y-128994025D01*
X153818289Y-128994025D01*
X153823416Y-128993368D01*
X153828366Y-128991883D01*
X154032429Y-128930661D01*
X154032434Y-128930659D01*
X154037384Y-128929174D01*
X154237994Y-128830896D01*
X154419860Y-128701173D01*
X154578096Y-128543489D01*
X154626707Y-128475840D01*
X154705435Y-128366277D01*
X154708453Y-128362077D01*
X154729320Y-128319857D01*
X154805136Y-128166453D01*
X154805137Y-128166451D01*
X154807430Y-128161811D01*
X154872370Y-127948069D01*
X154901529Y-127726590D01*
X154903156Y-127660000D01*
X154884852Y-127437361D01*
X154830431Y-127220702D01*
X154741354Y-127015840D01*
X154701906Y-126954862D01*
X154622822Y-126832617D01*
X154622820Y-126832614D01*
X154620014Y-126828277D01*
X154469670Y-126663051D01*
X154465619Y-126659852D01*
X154465615Y-126659848D01*
X154298414Y-126527800D01*
X154298410Y-126527798D01*
X154294359Y-126524598D01*
X154253053Y-126501796D01*
X154203084Y-126451364D01*
X154188312Y-126381921D01*
X154213428Y-126315516D01*
X154240780Y-126288909D01*
X154284603Y-126257650D01*
X154419860Y-126161173D01*
X154578096Y-126003489D01*
X154626707Y-125935840D01*
X154705435Y-125826277D01*
X154708453Y-125822077D01*
X154729320Y-125779857D01*
X154805136Y-125626453D01*
X154805137Y-125626451D01*
X154807430Y-125621811D01*
X154872370Y-125408069D01*
X154901529Y-125186590D01*
X154903156Y-125120000D01*
X154884852Y-124897361D01*
X154830431Y-124680702D01*
X154741354Y-124475840D01*
X154654118Y-124340993D01*
X154622822Y-124292617D01*
X154622820Y-124292614D01*
X154620014Y-124288277D01*
X154469670Y-124123051D01*
X154465619Y-124119852D01*
X154465615Y-124119848D01*
X154298414Y-123987800D01*
X154298410Y-123987798D01*
X154294359Y-123984598D01*
X154253053Y-123961796D01*
X154203084Y-123911364D01*
X154188312Y-123841921D01*
X154213428Y-123775516D01*
X154240780Y-123748909D01*
X154284603Y-123717650D01*
X154419860Y-123621173D01*
X154578096Y-123463489D01*
X154626707Y-123395840D01*
X154705435Y-123286277D01*
X154708453Y-123282077D01*
X154729320Y-123239857D01*
X154805136Y-123086453D01*
X154805137Y-123086451D01*
X154807430Y-123081811D01*
X154872370Y-122868069D01*
X154901529Y-122646590D01*
X154903156Y-122580000D01*
X154884852Y-122357361D01*
X154830431Y-122140702D01*
X154741354Y-121935840D01*
X154671513Y-121827882D01*
X154622822Y-121752617D01*
X154622820Y-121752614D01*
X154620014Y-121748277D01*
X154469670Y-121583051D01*
X154465619Y-121579852D01*
X154465615Y-121579848D01*
X154298414Y-121447800D01*
X154298410Y-121447798D01*
X154294359Y-121444598D01*
X154253053Y-121421796D01*
X154203084Y-121371364D01*
X154188312Y-121301921D01*
X154213428Y-121235516D01*
X154240780Y-121208909D01*
X154284603Y-121177650D01*
X154419860Y-121081173D01*
X154578096Y-120923489D01*
X154626707Y-120855840D01*
X154705435Y-120746277D01*
X154708453Y-120742077D01*
X154729320Y-120699857D01*
X154805136Y-120546453D01*
X154805137Y-120546451D01*
X154807430Y-120541811D01*
X154872370Y-120328069D01*
X154901529Y-120106590D01*
X154903156Y-120040000D01*
X154884852Y-119817361D01*
X154830431Y-119600702D01*
X154741354Y-119395840D01*
X154671513Y-119287882D01*
X154622822Y-119212617D01*
X154622820Y-119212614D01*
X154620014Y-119208277D01*
X154469670Y-119043051D01*
X154465619Y-119039852D01*
X154465615Y-119039848D01*
X154298414Y-118907800D01*
X154298410Y-118907798D01*
X154294359Y-118904598D01*
X154253053Y-118881796D01*
X154203084Y-118831364D01*
X154188312Y-118761921D01*
X154213428Y-118695516D01*
X154240780Y-118668909D01*
X154284603Y-118637650D01*
X154419860Y-118541173D01*
X154578096Y-118383489D01*
X154626707Y-118315840D01*
X154705435Y-118206277D01*
X154708453Y-118202077D01*
X154729320Y-118159857D01*
X154805136Y-118006453D01*
X154805137Y-118006451D01*
X154807430Y-118001811D01*
X154872370Y-117788069D01*
X154901529Y-117566590D01*
X154903156Y-117500000D01*
X154884852Y-117277361D01*
X154830431Y-117060702D01*
X154741354Y-116855840D01*
X154671513Y-116747882D01*
X154622822Y-116672617D01*
X154622820Y-116672614D01*
X154620014Y-116668277D01*
X154469670Y-116503051D01*
X154465619Y-116499852D01*
X154465615Y-116499848D01*
X154298414Y-116367800D01*
X154298410Y-116367798D01*
X154294359Y-116364598D01*
X154253053Y-116341796D01*
X154203084Y-116291364D01*
X154188312Y-116221921D01*
X154213428Y-116155516D01*
X154240780Y-116128909D01*
X154284603Y-116097650D01*
X154419860Y-116001173D01*
X154578096Y-115843489D01*
X154626707Y-115775840D01*
X154705435Y-115666277D01*
X154708453Y-115662077D01*
X154729320Y-115619857D01*
X154805136Y-115466453D01*
X154805137Y-115466451D01*
X154807430Y-115461811D01*
X154872370Y-115248069D01*
X154901529Y-115026590D01*
X154903156Y-114960000D01*
X154884852Y-114737361D01*
X154830431Y-114520702D01*
X154741354Y-114315840D01*
X154671513Y-114207882D01*
X154622822Y-114132617D01*
X154622820Y-114132614D01*
X154620014Y-114128277D01*
X154469670Y-113963051D01*
X154465619Y-113959852D01*
X154465615Y-113959848D01*
X154298414Y-113827800D01*
X154298410Y-113827798D01*
X154294359Y-113824598D01*
X154253053Y-113801796D01*
X154203084Y-113751364D01*
X154188312Y-113681921D01*
X154213428Y-113615516D01*
X154240780Y-113588909D01*
X154284603Y-113557650D01*
X154419860Y-113461173D01*
X154436032Y-113445058D01*
X154574435Y-113307137D01*
X154578096Y-113303489D01*
X154626707Y-113235840D01*
X154705435Y-113126277D01*
X154708453Y-113122077D01*
X154729320Y-113079857D01*
X154805136Y-112926453D01*
X154805137Y-112926451D01*
X154807430Y-112921811D01*
X154872370Y-112708069D01*
X154901529Y-112486590D01*
X154903156Y-112420000D01*
X154884852Y-112197361D01*
X154830431Y-111980702D01*
X154741354Y-111775840D01*
X154671513Y-111667882D01*
X154622822Y-111592617D01*
X154622820Y-111592614D01*
X154620014Y-111588277D01*
X154469670Y-111423051D01*
X154465619Y-111419852D01*
X154465615Y-111419848D01*
X154298414Y-111287800D01*
X154298410Y-111287798D01*
X154294359Y-111284598D01*
X154253053Y-111261796D01*
X154203084Y-111211364D01*
X154188312Y-111141921D01*
X154213428Y-111075516D01*
X154240780Y-111048909D01*
X154284603Y-111017650D01*
X154419860Y-110921173D01*
X154466727Y-110874470D01*
X154574435Y-110767137D01*
X154578096Y-110763489D01*
X154637594Y-110680689D01*
X154705435Y-110586277D01*
X154708453Y-110582077D01*
X154725153Y-110548288D01*
X154805136Y-110386453D01*
X154805137Y-110386451D01*
X154807430Y-110381811D01*
X154866507Y-110187367D01*
X154870865Y-110173023D01*
X154870865Y-110173021D01*
X154872370Y-110168069D01*
X154901529Y-109946590D01*
X154902748Y-109896705D01*
X154903074Y-109883365D01*
X154903074Y-109883361D01*
X154903156Y-109880000D01*
X154884852Y-109657361D01*
X154830431Y-109440702D01*
X154741354Y-109235840D01*
X154656704Y-109104991D01*
X154622822Y-109052617D01*
X154622820Y-109052614D01*
X154620014Y-109048277D01*
X154469670Y-108883051D01*
X154465619Y-108879852D01*
X154465615Y-108879848D01*
X154298414Y-108747800D01*
X154298410Y-108747798D01*
X154294359Y-108744598D01*
X154253053Y-108721796D01*
X154203084Y-108671364D01*
X154188312Y-108601921D01*
X154213428Y-108535516D01*
X154240780Y-108508909D01*
X154284603Y-108477650D01*
X154419860Y-108381173D01*
X154487647Y-108313623D01*
X154545832Y-108255640D01*
X154578096Y-108223489D01*
X154637594Y-108140689D01*
X154705435Y-108046277D01*
X154708453Y-108042077D01*
X154729320Y-107999857D01*
X154805136Y-107846453D01*
X154805137Y-107846451D01*
X154807430Y-107841811D01*
X154872370Y-107628069D01*
X154901529Y-107406590D01*
X154903156Y-107340000D01*
X154884852Y-107117361D01*
X154830431Y-106900702D01*
X154741354Y-106695840D01*
X154659308Y-106569016D01*
X154622822Y-106512617D01*
X154622820Y-106512614D01*
X154620014Y-106508277D01*
X154469670Y-106343051D01*
X154465619Y-106339852D01*
X154465615Y-106339848D01*
X154298414Y-106207800D01*
X154298410Y-106207798D01*
X154294359Y-106204598D01*
X154253053Y-106181796D01*
X154203084Y-106131364D01*
X154188312Y-106061921D01*
X154213428Y-105995516D01*
X154240780Y-105968909D01*
X154284603Y-105937650D01*
X154419860Y-105841173D01*
X154578096Y-105683489D01*
X154637594Y-105600689D01*
X154705435Y-105506277D01*
X154708453Y-105502077D01*
X154729320Y-105459857D01*
X154805136Y-105306453D01*
X154805137Y-105306451D01*
X154807430Y-105301811D01*
X154872370Y-105088069D01*
X154901529Y-104866590D01*
X154901756Y-104857301D01*
X154903074Y-104803365D01*
X154903074Y-104803361D01*
X154903156Y-104800000D01*
X154884852Y-104577361D01*
X154830431Y-104360702D01*
X154741354Y-104155840D01*
X154658015Y-104027018D01*
X154622822Y-103972617D01*
X154622820Y-103972614D01*
X154620014Y-103968277D01*
X154469670Y-103803051D01*
X154465619Y-103799852D01*
X154465615Y-103799848D01*
X154298414Y-103667800D01*
X154298410Y-103667798D01*
X154294359Y-103664598D01*
X154253053Y-103641796D01*
X154203084Y-103591364D01*
X154188312Y-103521921D01*
X154213428Y-103455516D01*
X154240780Y-103428909D01*
X154292045Y-103392342D01*
X154419860Y-103301173D01*
X154578096Y-103143489D01*
X154606802Y-103103541D01*
X154705435Y-102966277D01*
X154708453Y-102962077D01*
X154713743Y-102951375D01*
X154805136Y-102766453D01*
X154805137Y-102766451D01*
X154807430Y-102761811D01*
X154853187Y-102611206D01*
X154892126Y-102551846D01*
X154956980Y-102522958D01*
X155027157Y-102533719D01*
X155062839Y-102558743D01*
X155801624Y-103297529D01*
X156516348Y-104012253D01*
X156523888Y-104020539D01*
X156528000Y-104027018D01*
X156533777Y-104032443D01*
X156577651Y-104073643D01*
X156580493Y-104076398D01*
X156600230Y-104096135D01*
X156603427Y-104098615D01*
X156612447Y-104106318D01*
X156644679Y-104136586D01*
X156651625Y-104140405D01*
X156651628Y-104140407D01*
X156662434Y-104146348D01*
X156678953Y-104157199D01*
X156694959Y-104169614D01*
X156702228Y-104172759D01*
X156702232Y-104172762D01*
X156735537Y-104187174D01*
X156746187Y-104192391D01*
X156784940Y-104213695D01*
X156792615Y-104215666D01*
X156792616Y-104215666D01*
X156804562Y-104218733D01*
X156823267Y-104225137D01*
X156841855Y-104233181D01*
X156849678Y-104234420D01*
X156849688Y-104234423D01*
X156885524Y-104240099D01*
X156897144Y-104242505D01*
X156932289Y-104251528D01*
X156939970Y-104253500D01*
X156960224Y-104253500D01*
X156979934Y-104255051D01*
X156999943Y-104258220D01*
X157007835Y-104257474D01*
X157043961Y-104254059D01*
X157055819Y-104253500D01*
X159074274Y-104253500D01*
X159142395Y-104273502D01*
X159181707Y-104313665D01*
X159249987Y-104425088D01*
X159396250Y-104593938D01*
X159568126Y-104736632D01*
X159761000Y-104849338D01*
X159765825Y-104851180D01*
X159765826Y-104851181D01*
X159814867Y-104869908D01*
X159969692Y-104929030D01*
X159974760Y-104930061D01*
X159974763Y-104930062D01*
X160082017Y-104951883D01*
X160188597Y-104973567D01*
X160193772Y-104973757D01*
X160193774Y-104973757D01*
X160406673Y-104981564D01*
X160406677Y-104981564D01*
X160411837Y-104981753D01*
X160416957Y-104981097D01*
X160416959Y-104981097D01*
X160628288Y-104954025D01*
X160628289Y-104954025D01*
X160633416Y-104953368D01*
X160638366Y-104951883D01*
X160842429Y-104890661D01*
X160842434Y-104890659D01*
X160847384Y-104889174D01*
X161047994Y-104790896D01*
X161229860Y-104661173D01*
X161239167Y-104651899D01*
X161319002Y-104572342D01*
X161388096Y-104503489D01*
X161435147Y-104438011D01*
X161515435Y-104326277D01*
X161518453Y-104322077D01*
X161521280Y-104316358D01*
X161615136Y-104126453D01*
X161615137Y-104126451D01*
X161617430Y-104121811D01*
X161672019Y-103942138D01*
X161680865Y-103913023D01*
X161680865Y-103913021D01*
X161682370Y-103908069D01*
X161711529Y-103686590D01*
X161711988Y-103667800D01*
X161713074Y-103623365D01*
X161713074Y-103623361D01*
X161713156Y-103620000D01*
X161694852Y-103397361D01*
X161640431Y-103180702D01*
X161551354Y-102975840D01*
X161446244Y-102813365D01*
X161432822Y-102792617D01*
X161432820Y-102792614D01*
X161430014Y-102788277D01*
X161279670Y-102623051D01*
X161275619Y-102619852D01*
X161275615Y-102619848D01*
X161108414Y-102487800D01*
X161108410Y-102487798D01*
X161104359Y-102484598D01*
X161063053Y-102461796D01*
X161013084Y-102411364D01*
X160998312Y-102341921D01*
X161023428Y-102275516D01*
X161050780Y-102248909D01*
X161119798Y-102199679D01*
X161229860Y-102121173D01*
X161238595Y-102112469D01*
X161384435Y-101967137D01*
X161388096Y-101963489D01*
X161447594Y-101880689D01*
X161515435Y-101786277D01*
X161518453Y-101782077D01*
X161521280Y-101776358D01*
X161615136Y-101586453D01*
X161615137Y-101586451D01*
X161617430Y-101581811D01*
X161672019Y-101402138D01*
X161680865Y-101373023D01*
X161680865Y-101373021D01*
X161682370Y-101368069D01*
X161711529Y-101146590D01*
X161711988Y-101127800D01*
X161713074Y-101083365D01*
X161713074Y-101083361D01*
X161713156Y-101080000D01*
X161694852Y-100857361D01*
X161640431Y-100640702D01*
X161551354Y-100435840D01*
X161446244Y-100273365D01*
X161432822Y-100252617D01*
X161432820Y-100252614D01*
X161430014Y-100248277D01*
X161279670Y-100083051D01*
X161275619Y-100079852D01*
X161275615Y-100079848D01*
X161108414Y-99947800D01*
X161108410Y-99947798D01*
X161104359Y-99944598D01*
X161062569Y-99921529D01*
X161012598Y-99871097D01*
X160997826Y-99801654D01*
X161022942Y-99735248D01*
X161050294Y-99708641D01*
X161225328Y-99583792D01*
X161233200Y-99577139D01*
X161384052Y-99426812D01*
X161390730Y-99418965D01*
X161515003Y-99246020D01*
X161520313Y-99237183D01*
X161614670Y-99046267D01*
X161618469Y-99036672D01*
X161680377Y-98832910D01*
X161682555Y-98822837D01*
X161683986Y-98811962D01*
X161681775Y-98797778D01*
X161668617Y-98794000D01*
X159033225Y-98794000D01*
X159019694Y-98797973D01*
X159018257Y-98807966D01*
X159048565Y-98942446D01*
X159051645Y-98952275D01*
X159131770Y-99149603D01*
X159136413Y-99158794D01*
X159247694Y-99340388D01*
X159253777Y-99348699D01*
X159393213Y-99509667D01*
X159400580Y-99516883D01*
X159564434Y-99652916D01*
X159572881Y-99658831D01*
X159641969Y-99699203D01*
X159690693Y-99750842D01*
X159703764Y-99820625D01*
X159677033Y-99886396D01*
X159636584Y-99919752D01*
X159623607Y-99926507D01*
X159619474Y-99929610D01*
X159619471Y-99929612D01*
X159466697Y-100044318D01*
X159444965Y-100060635D01*
X159290629Y-100222138D01*
X159287715Y-100226410D01*
X159287714Y-100226411D01*
X159175095Y-100391504D01*
X159120184Y-100436507D01*
X159071007Y-100446500D01*
X157094595Y-100446500D01*
X157026474Y-100426498D01*
X157005500Y-100409595D01*
X156369925Y-99774020D01*
X156335899Y-99711708D01*
X156333020Y-99684925D01*
X156333020Y-87078287D01*
X156333547Y-87067104D01*
X156335222Y-87059611D01*
X156333082Y-86991534D01*
X156333020Y-86987575D01*
X156333020Y-78228287D01*
X156333547Y-78217104D01*
X156335222Y-78209611D01*
X156334510Y-78186944D01*
X156333082Y-78141534D01*
X156333020Y-78137575D01*
X156333020Y-78109664D01*
X156332515Y-78105664D01*
X156331582Y-78093821D01*
X156330442Y-78057550D01*
X156330193Y-78049631D01*
X156324541Y-78030177D01*
X156320533Y-78010820D01*
X156318988Y-77998590D01*
X156318988Y-77998589D01*
X156317994Y-77990723D01*
X156315075Y-77983350D01*
X156301716Y-77949608D01*
X156297871Y-77938378D01*
X156287749Y-77903537D01*
X156287749Y-77903536D01*
X156285538Y-77895927D01*
X156281505Y-77889108D01*
X156281503Y-77889103D01*
X156275227Y-77878492D01*
X156266532Y-77860744D01*
X156259072Y-77841903D01*
X156233084Y-77806133D01*
X156226568Y-77796213D01*
X156208100Y-77764985D01*
X156208098Y-77764982D01*
X156204062Y-77758158D01*
X156189741Y-77743837D01*
X156176900Y-77728803D01*
X156169652Y-77718827D01*
X156164992Y-77712413D01*
X156130927Y-77684232D01*
X156122146Y-77676242D01*
X155553647Y-77107742D01*
X155546113Y-77099463D01*
X155542000Y-77092982D01*
X155492348Y-77046356D01*
X155489507Y-77043602D01*
X155469770Y-77023865D01*
X155466573Y-77021385D01*
X155457551Y-77013680D01*
X155425321Y-76983414D01*
X155418375Y-76979595D01*
X155418372Y-76979593D01*
X155407566Y-76973652D01*
X155391047Y-76962801D01*
X155390583Y-76962441D01*
X155375041Y-76950386D01*
X155367772Y-76947241D01*
X155367768Y-76947238D01*
X155334463Y-76932826D01*
X155323813Y-76927609D01*
X155285060Y-76906305D01*
X155265437Y-76901267D01*
X155246734Y-76894863D01*
X155235420Y-76889967D01*
X155235419Y-76889967D01*
X155228145Y-76886819D01*
X155220322Y-76885580D01*
X155220312Y-76885577D01*
X155184476Y-76879901D01*
X155172856Y-76877495D01*
X155137711Y-76868472D01*
X155137710Y-76868472D01*
X155130030Y-76866500D01*
X155109776Y-76866500D01*
X155090065Y-76864949D01*
X155077886Y-76863020D01*
X155070057Y-76861780D01*
X155062165Y-76862526D01*
X155026039Y-76865941D01*
X155014181Y-76866500D01*
X149124926Y-76866500D01*
X149056805Y-76846498D01*
X149035831Y-76829595D01*
X146813891Y-74607655D01*
X150739858Y-74607655D01*
X150775104Y-74866638D01*
X150776412Y-74871124D01*
X150776412Y-74871126D01*
X150796098Y-74938664D01*
X150848243Y-75117567D01*
X150957668Y-75354928D01*
X150980829Y-75390255D01*
X151098410Y-75569596D01*
X151098414Y-75569601D01*
X151100976Y-75573509D01*
X151275018Y-75768506D01*
X151475970Y-75935637D01*
X151479973Y-75938066D01*
X151695422Y-76068804D01*
X151695426Y-76068806D01*
X151699419Y-76071229D01*
X151940455Y-76172303D01*
X152193783Y-76236641D01*
X152198434Y-76237109D01*
X152198438Y-76237110D01*
X152391308Y-76256531D01*
X152410867Y-76258500D01*
X152566354Y-76258500D01*
X152568679Y-76258327D01*
X152568685Y-76258327D01*
X152756000Y-76244407D01*
X152756004Y-76244406D01*
X152760652Y-76244061D01*
X152765200Y-76243032D01*
X152765206Y-76243031D01*
X152951601Y-76200853D01*
X153015577Y-76186377D01*
X153051769Y-76172303D01*
X153254824Y-76093340D01*
X153254827Y-76093339D01*
X153259177Y-76091647D01*
X153486098Y-75961951D01*
X153691357Y-75800138D01*
X153870443Y-75609763D01*
X153983515Y-75446771D01*
X154016759Y-75398851D01*
X154016761Y-75398848D01*
X154019424Y-75395009D01*
X154021492Y-75390816D01*
X154132960Y-75164781D01*
X154132961Y-75164778D01*
X154135025Y-75160593D01*
X154214707Y-74911665D01*
X154256721Y-74653693D01*
X154260142Y-74392345D01*
X154224896Y-74133362D01*
X154210473Y-74083877D01*
X154153068Y-73886932D01*
X154151757Y-73882433D01*
X154042332Y-73645072D01*
X153950106Y-73504404D01*
X153901590Y-73430404D01*
X153901586Y-73430399D01*
X153899024Y-73426491D01*
X153724982Y-73231494D01*
X153524030Y-73064363D01*
X153466078Y-73029197D01*
X153304578Y-72931196D01*
X153304574Y-72931194D01*
X153300581Y-72928771D01*
X153059545Y-72827697D01*
X152806217Y-72763359D01*
X152801566Y-72762891D01*
X152801562Y-72762890D01*
X152592271Y-72741816D01*
X152589133Y-72741500D01*
X152433646Y-72741500D01*
X152431321Y-72741673D01*
X152431315Y-72741673D01*
X152244000Y-72755593D01*
X152243996Y-72755594D01*
X152239348Y-72755939D01*
X152234800Y-72756968D01*
X152234794Y-72756969D01*
X152124626Y-72781898D01*
X151984423Y-72813623D01*
X151980071Y-72815315D01*
X151980069Y-72815316D01*
X151745176Y-72906660D01*
X151745173Y-72906661D01*
X151740823Y-72908353D01*
X151513902Y-73038049D01*
X151308643Y-73199862D01*
X151129557Y-73390237D01*
X150980576Y-73604991D01*
X150978510Y-73609181D01*
X150978508Y-73609184D01*
X150936692Y-73693980D01*
X150864975Y-73839407D01*
X150785293Y-74088335D01*
X150743279Y-74346307D01*
X150739858Y-74607655D01*
X146813891Y-74607655D01*
X137599464Y-65393227D01*
X137591924Y-65384941D01*
X137587812Y-65378462D01*
X137538160Y-65331836D01*
X137535319Y-65329082D01*
X137515582Y-65309345D01*
X137512385Y-65306865D01*
X137503363Y-65299160D01*
X137476912Y-65274321D01*
X137471133Y-65268894D01*
X137464187Y-65265075D01*
X137464184Y-65265073D01*
X137453378Y-65259132D01*
X137436859Y-65248281D01*
X137436395Y-65247921D01*
X137420853Y-65235866D01*
X137413584Y-65232721D01*
X137413580Y-65232718D01*
X137380275Y-65218306D01*
X137369625Y-65213089D01*
X137330872Y-65191785D01*
X137311249Y-65186747D01*
X137292546Y-65180343D01*
X137281232Y-65175447D01*
X137281231Y-65175447D01*
X137273957Y-65172299D01*
X137266134Y-65171060D01*
X137266124Y-65171057D01*
X137230288Y-65165381D01*
X137218668Y-65162975D01*
X137183523Y-65153952D01*
X137183522Y-65153952D01*
X137175842Y-65151980D01*
X137155588Y-65151980D01*
X137135877Y-65150429D01*
X137123698Y-65148500D01*
X137115869Y-65147260D01*
X137107977Y-65148006D01*
X137071851Y-65151421D01*
X137059993Y-65151980D01*
X132970075Y-65151980D01*
X132901954Y-65131978D01*
X132880980Y-65115075D01*
X131916218Y-64150313D01*
X131882192Y-64088001D01*
X131884755Y-64024589D01*
X131895865Y-63988022D01*
X131897370Y-63983069D01*
X131926529Y-63761590D01*
X131928156Y-63695000D01*
X131909852Y-63472361D01*
X131855431Y-63255702D01*
X131766354Y-63050840D01*
X131645014Y-62863277D01*
X131494670Y-62698051D01*
X131490619Y-62694852D01*
X131490615Y-62694848D01*
X131323414Y-62562800D01*
X131323410Y-62562798D01*
X131319359Y-62559598D01*
X131283028Y-62539542D01*
X131267136Y-62530769D01*
X131123789Y-62451638D01*
X131118920Y-62449914D01*
X131118916Y-62449912D01*
X130918087Y-62378795D01*
X130918083Y-62378794D01*
X130913212Y-62377069D01*
X130908119Y-62376162D01*
X130908116Y-62376161D01*
X130698373Y-62338800D01*
X130698367Y-62338799D01*
X130693284Y-62337894D01*
X130619452Y-62336992D01*
X130475081Y-62335228D01*
X130475079Y-62335228D01*
X130469911Y-62335165D01*
X130249091Y-62368955D01*
X130036756Y-62438357D01*
X129838607Y-62541507D01*
X129834474Y-62544610D01*
X129834471Y-62544612D01*
X129810247Y-62562800D01*
X129659965Y-62675635D01*
X129505629Y-62837138D01*
X129502715Y-62841410D01*
X129502714Y-62841411D01*
X129397898Y-62995066D01*
X129342987Y-63040069D01*
X129272462Y-63048240D01*
X129208715Y-63016986D01*
X129188018Y-62992502D01*
X129107426Y-62867926D01*
X129101136Y-62859757D01*
X128957806Y-62702240D01*
X128950273Y-62695215D01*
X128783139Y-62563222D01*
X128774552Y-62557517D01*
X128588117Y-62454599D01*
X128578705Y-62450369D01*
X128377959Y-62379280D01*
X128367988Y-62376646D01*
X128296837Y-62363972D01*
X128283540Y-62365432D01*
X128279000Y-62379989D01*
X128279000Y-63823000D01*
X128258998Y-63891121D01*
X128205342Y-63937614D01*
X128153000Y-63949000D01*
X126708225Y-63949000D01*
X126694694Y-63952973D01*
X126693257Y-63962966D01*
X126723565Y-64097446D01*
X126726645Y-64107275D01*
X126806770Y-64304603D01*
X126811413Y-64313794D01*
X126922694Y-64495388D01*
X126928777Y-64503699D01*
X127068213Y-64664667D01*
X127075580Y-64671883D01*
X127239434Y-64807916D01*
X127247881Y-64813831D01*
X127316969Y-64854203D01*
X127365693Y-64905842D01*
X127378764Y-64975625D01*
X127352033Y-65041396D01*
X127311584Y-65074752D01*
X127298607Y-65081507D01*
X127294474Y-65084610D01*
X127294471Y-65084612D01*
X127124100Y-65212530D01*
X127119965Y-65215635D01*
X126965629Y-65377138D01*
X126839743Y-65561680D01*
X126745688Y-65764305D01*
X126685989Y-65979570D01*
X126662251Y-66201695D01*
X126675110Y-66424715D01*
X126676247Y-66429761D01*
X126676248Y-66429767D01*
X126700304Y-66536508D01*
X126724222Y-66642639D01*
X126808266Y-66849616D01*
X126847142Y-66913056D01*
X126922291Y-67035688D01*
X126924987Y-67040088D01*
X127071250Y-67208938D01*
X127211999Y-67325790D01*
X127220985Y-67333250D01*
X127260620Y-67392152D01*
X127266500Y-67430194D01*
X127266500Y-67582655D01*
X127246498Y-67650776D01*
X127216153Y-67683415D01*
X127211774Y-67686703D01*
X127119965Y-67755635D01*
X127116393Y-67759373D01*
X127026280Y-67853671D01*
X126965629Y-67917138D01*
X126839743Y-68101680D01*
X126745688Y-68304305D01*
X126685989Y-68519570D01*
X126685440Y-68524707D01*
X126665209Y-68714017D01*
X126638081Y-68779627D01*
X126629017Y-68789723D01*
X124792395Y-70626345D01*
X124783615Y-70634335D01*
X124783613Y-70634337D01*
X124776920Y-70638584D01*
X124771494Y-70644362D01*
X124771493Y-70644363D01*
X124728396Y-70690257D01*
X124725641Y-70693099D01*
X124705073Y-70713667D01*
X124702356Y-70717170D01*
X124694648Y-70726195D01*
X124663028Y-70759867D01*
X124659207Y-70766818D01*
X124659206Y-70766819D01*
X124652697Y-70778658D01*
X124641843Y-70795182D01*
X124634018Y-70805271D01*
X124628696Y-70812132D01*
X124625549Y-70819404D01*
X124625548Y-70819406D01*
X124610346Y-70854535D01*
X124605126Y-70865190D01*
X124598910Y-70876498D01*
X124548567Y-70926559D01*
X124479151Y-70941455D01*
X124412701Y-70916457D01*
X124370314Y-70859502D01*
X124367588Y-70851271D01*
X124346286Y-70778658D01*
X124333908Y-70736466D01*
X124285829Y-70643114D01*
X124239804Y-70553751D01*
X124239802Y-70553748D01*
X124237058Y-70548420D01*
X124106396Y-70382080D01*
X124101865Y-70378148D01*
X124101862Y-70378145D01*
X123951167Y-70247379D01*
X123946637Y-70243448D01*
X123941451Y-70240448D01*
X123941447Y-70240445D01*
X123768742Y-70140533D01*
X123763546Y-70137527D01*
X123563729Y-70068139D01*
X123557794Y-70067278D01*
X123557792Y-70067278D01*
X123360336Y-70038648D01*
X123360333Y-70038648D01*
X123354396Y-70037787D01*
X123143101Y-70047567D01*
X123029624Y-70074915D01*
X122943299Y-70095719D01*
X122943297Y-70095720D01*
X122937466Y-70097125D01*
X122932008Y-70099607D01*
X122932004Y-70099608D01*
X122832422Y-70144886D01*
X122744913Y-70184674D01*
X122572389Y-70307054D01*
X122426119Y-70459850D01*
X122311380Y-70637548D01*
X122290138Y-70690257D01*
X122238090Y-70819406D01*
X122232314Y-70833737D01*
X122191772Y-71041337D01*
X122191500Y-71046899D01*
X122191500Y-72402846D01*
X122206548Y-72560566D01*
X122266092Y-72763534D01*
X122268836Y-72768861D01*
X122268836Y-72768862D01*
X122352444Y-72931196D01*
X122362942Y-72951580D01*
X122493604Y-73117920D01*
X122498135Y-73121852D01*
X122498138Y-73121855D01*
X122591954Y-73203264D01*
X122653363Y-73256552D01*
X122658549Y-73259552D01*
X122658553Y-73259555D01*
X122754957Y-73315326D01*
X122836454Y-73362473D01*
X123036271Y-73431861D01*
X123042206Y-73432722D01*
X123042208Y-73432722D01*
X123239664Y-73461352D01*
X123239667Y-73461352D01*
X123245604Y-73462213D01*
X123456899Y-73452433D01*
X123588077Y-73420819D01*
X123656701Y-73404281D01*
X123656703Y-73404280D01*
X123662534Y-73402875D01*
X123667992Y-73400393D01*
X123667996Y-73400392D01*
X123783041Y-73348084D01*
X123855087Y-73315326D01*
X124027611Y-73192946D01*
X124173881Y-73040150D01*
X124288620Y-72862452D01*
X124298634Y-72837604D01*
X124342649Y-72781898D01*
X124409794Y-72758831D01*
X124478751Y-72775728D01*
X124527626Y-72827223D01*
X124541500Y-72884702D01*
X124541500Y-78175050D01*
X124521498Y-78243171D01*
X124504595Y-78264145D01*
X118262395Y-84506345D01*
X118253615Y-84514335D01*
X118253613Y-84514337D01*
X118246920Y-84518584D01*
X118241494Y-84524362D01*
X118241493Y-84524363D01*
X118198396Y-84570257D01*
X118195641Y-84573099D01*
X118175073Y-84593667D01*
X118172356Y-84597170D01*
X118164648Y-84606195D01*
X118133028Y-84639867D01*
X118129207Y-84646818D01*
X118129206Y-84646819D01*
X118122697Y-84658658D01*
X118111843Y-84675182D01*
X118110217Y-84677279D01*
X118098696Y-84692132D01*
X118095549Y-84699404D01*
X118095548Y-84699406D01*
X118080346Y-84734535D01*
X118075124Y-84745195D01*
X118061643Y-84769717D01*
X118052876Y-84785663D01*
X118047541Y-84806441D01*
X118041142Y-84825131D01*
X118032620Y-84844824D01*
X118026750Y-84881885D01*
X118025394Y-84890448D01*
X118022987Y-84902071D01*
X118011500Y-84946812D01*
X118011500Y-84968259D01*
X118009949Y-84987969D01*
X118006594Y-85009152D01*
X118007340Y-85017043D01*
X118010941Y-85055138D01*
X118011500Y-85066996D01*
X118011500Y-86248334D01*
X117991498Y-86316455D01*
X117943681Y-86360096D01*
X117916872Y-86374052D01*
X117912739Y-86377155D01*
X117912736Y-86377157D01*
X117840088Y-86431703D01*
X117731655Y-86513117D01*
X117728083Y-86516855D01*
X117577526Y-86674404D01*
X117571639Y-86680564D01*
X117568725Y-86684836D01*
X117568724Y-86684837D01*
X117553152Y-86707665D01*
X117441119Y-86871899D01*
X117343602Y-87081981D01*
X117281707Y-87305169D01*
X117257095Y-87535469D01*
X117257392Y-87540622D01*
X117257392Y-87540625D01*
X117262953Y-87637069D01*
X117270427Y-87766697D01*
X117271564Y-87771743D01*
X117271565Y-87771749D01*
X117302268Y-87907986D01*
X117321346Y-87992642D01*
X117323288Y-87997425D01*
X117323291Y-87997434D01*
X117331681Y-88018095D01*
X117338778Y-88088736D01*
X117306557Y-88152000D01*
X117245247Y-88187800D01*
X117214939Y-88191500D01*
X114314594Y-88191500D01*
X114246473Y-88171498D01*
X114225499Y-88154595D01*
X109254141Y-83183236D01*
X109246601Y-83174950D01*
X109242489Y-83168471D01*
X109192837Y-83121845D01*
X109189996Y-83119091D01*
X109170259Y-83099354D01*
X109167062Y-83096874D01*
X109158040Y-83089169D01*
X109139361Y-83071628D01*
X109125810Y-83058903D01*
X109118864Y-83055084D01*
X109118861Y-83055082D01*
X109108055Y-83049141D01*
X109091536Y-83038290D01*
X109084005Y-83032449D01*
X109075530Y-83025875D01*
X109068261Y-83022730D01*
X109068257Y-83022727D01*
X109034952Y-83008315D01*
X109024302Y-83003098D01*
X108985549Y-82981794D01*
X108965926Y-82976756D01*
X108947223Y-82970352D01*
X108935909Y-82965456D01*
X108935908Y-82965456D01*
X108928634Y-82962308D01*
X108920811Y-82961069D01*
X108920801Y-82961066D01*
X108884965Y-82955390D01*
X108873345Y-82952984D01*
X108838200Y-82943961D01*
X108838199Y-82943961D01*
X108830519Y-82941989D01*
X108810265Y-82941989D01*
X108790554Y-82940438D01*
X108788023Y-82940037D01*
X108770546Y-82937269D01*
X108762654Y-82938015D01*
X108726528Y-82941430D01*
X108714670Y-82941989D01*
X104303274Y-82941989D01*
X104292090Y-82941462D01*
X104284602Y-82939788D01*
X104276679Y-82940037D01*
X104216544Y-82941927D01*
X104212586Y-82941989D01*
X104184655Y-82941989D01*
X104180740Y-82942484D01*
X104180736Y-82942484D01*
X104180678Y-82942492D01*
X104180649Y-82942495D01*
X104168807Y-82943428D01*
X104124621Y-82944816D01*
X104113661Y-82948000D01*
X104105169Y-82950467D01*
X104085817Y-82954475D01*
X104073579Y-82956021D01*
X104073577Y-82956022D01*
X104065714Y-82957015D01*
X104024597Y-82973295D01*
X104013396Y-82977130D01*
X103970917Y-82989471D01*
X103964098Y-82993504D01*
X103964093Y-82993506D01*
X103953482Y-82999782D01*
X103935732Y-83008479D01*
X103916894Y-83015937D01*
X103910478Y-83020598D01*
X103910477Y-83020599D01*
X103881136Y-83041917D01*
X103871212Y-83048436D01*
X103839971Y-83066911D01*
X103839966Y-83066915D01*
X103833148Y-83070947D01*
X103818824Y-83085271D01*
X103803792Y-83098110D01*
X103787404Y-83110017D01*
X103766042Y-83135839D01*
X103759223Y-83144082D01*
X103751233Y-83152862D01*
X98619500Y-88284595D01*
X98557188Y-88318621D01*
X98530405Y-88321500D01*
X97826805Y-88321500D01*
X97758684Y-88301498D01*
X97721013Y-88263940D01*
X97632822Y-88127617D01*
X97632820Y-88127614D01*
X97630014Y-88123277D01*
X97479670Y-87958051D01*
X97475619Y-87954852D01*
X97475615Y-87954848D01*
X97308414Y-87822800D01*
X97308410Y-87822798D01*
X97304359Y-87819598D01*
X97262569Y-87796529D01*
X97212598Y-87746097D01*
X97197826Y-87676654D01*
X97222942Y-87610248D01*
X97250294Y-87583641D01*
X97425328Y-87458792D01*
X97433200Y-87452139D01*
X97584052Y-87301812D01*
X97590730Y-87293965D01*
X97715003Y-87121020D01*
X97720313Y-87112183D01*
X97814670Y-86921267D01*
X97818469Y-86911672D01*
X97880377Y-86707910D01*
X97882555Y-86697837D01*
X97883986Y-86686962D01*
X97881775Y-86672778D01*
X97868617Y-86669000D01*
X96422000Y-86669000D01*
X96353879Y-86648998D01*
X96307386Y-86595342D01*
X96296000Y-86543000D01*
X96296000Y-86287000D01*
X96316002Y-86218879D01*
X96369658Y-86172386D01*
X96422000Y-86161000D01*
X97868344Y-86161000D01*
X97881875Y-86157027D01*
X97883180Y-86147947D01*
X97841214Y-85980875D01*
X97837894Y-85971124D01*
X97752972Y-85775814D01*
X97748105Y-85766739D01*
X97632426Y-85587926D01*
X97626136Y-85579757D01*
X97482293Y-85421677D01*
X97451241Y-85357831D01*
X97459635Y-85287333D01*
X97504812Y-85232564D01*
X97531256Y-85218895D01*
X97638297Y-85178767D01*
X97646705Y-85175615D01*
X97763261Y-85088261D01*
X97850615Y-84971705D01*
X97901745Y-84835316D01*
X97908500Y-84773134D01*
X97908500Y-82976866D01*
X97901745Y-82914684D01*
X97850615Y-82778295D01*
X97763261Y-82661739D01*
X97646705Y-82574385D01*
X97510316Y-82523255D01*
X97448134Y-82516500D01*
X95651866Y-82516500D01*
X95589684Y-82523255D01*
X95506029Y-82554616D01*
X95478730Y-82564850D01*
X95407923Y-82570033D01*
X95345554Y-82536112D01*
X95311424Y-82473857D01*
X95308500Y-82446868D01*
X95308500Y-80342174D01*
X95328502Y-80274053D01*
X95345405Y-80253079D01*
X96003097Y-79595387D01*
X111470070Y-79595387D01*
X111476528Y-79604747D01*
X111503488Y-79628391D01*
X111510003Y-79633389D01*
X111761028Y-79801119D01*
X111768165Y-79805240D01*
X112038930Y-79938766D01*
X112046534Y-79941916D01*
X112332413Y-80038959D01*
X112340365Y-80041090D01*
X112636469Y-80099988D01*
X112644627Y-80101062D01*
X112945881Y-80120807D01*
X112954119Y-80120807D01*
X113255373Y-80101062D01*
X113263531Y-80099988D01*
X113559635Y-80041090D01*
X113567587Y-80038959D01*
X113853466Y-79941916D01*
X113861070Y-79938766D01*
X114131835Y-79805240D01*
X114138972Y-79801119D01*
X114389997Y-79633389D01*
X114396512Y-79628391D01*
X114421609Y-79606381D01*
X114430004Y-79593146D01*
X114424169Y-79583379D01*
X112962812Y-78122022D01*
X112948868Y-78114408D01*
X112947035Y-78114539D01*
X112940420Y-78118790D01*
X111477584Y-79581626D01*
X111470070Y-79595387D01*
X96003097Y-79595387D01*
X97844365Y-77754119D01*
X110579193Y-77754119D01*
X110598938Y-78055373D01*
X110600012Y-78063531D01*
X110658910Y-78359635D01*
X110661041Y-78367587D01*
X110758081Y-78653457D01*
X110761236Y-78661076D01*
X110894761Y-78931835D01*
X110898882Y-78938973D01*
X111066611Y-79189997D01*
X111071609Y-79196512D01*
X111093619Y-79221609D01*
X111106854Y-79230004D01*
X111116621Y-79224169D01*
X112577978Y-77762812D01*
X112584356Y-77751132D01*
X113314408Y-77751132D01*
X113314539Y-77752965D01*
X113318790Y-77759580D01*
X114781626Y-79222416D01*
X114795387Y-79229930D01*
X114804747Y-79223472D01*
X114828391Y-79196512D01*
X114833389Y-79189997D01*
X115001118Y-78938973D01*
X115005239Y-78931835D01*
X115138764Y-78661076D01*
X115141919Y-78653457D01*
X115238959Y-78367587D01*
X115241090Y-78359635D01*
X115299988Y-78063531D01*
X115301062Y-78055373D01*
X115320807Y-77754119D01*
X115320807Y-77745881D01*
X115301062Y-77444627D01*
X115299988Y-77436469D01*
X115241090Y-77140365D01*
X115238959Y-77132413D01*
X115141919Y-76846543D01*
X115138764Y-76838924D01*
X115005239Y-76568165D01*
X115001118Y-76561027D01*
X114833389Y-76310003D01*
X114828391Y-76303488D01*
X114806381Y-76278391D01*
X114793146Y-76269996D01*
X114783379Y-76275831D01*
X113322022Y-77737188D01*
X113314408Y-77751132D01*
X112584356Y-77751132D01*
X112585592Y-77748868D01*
X112585461Y-77747035D01*
X112581210Y-77740420D01*
X111118374Y-76277584D01*
X111104613Y-76270070D01*
X111095253Y-76276528D01*
X111071609Y-76303488D01*
X111066611Y-76310003D01*
X110898882Y-76561027D01*
X110894761Y-76568165D01*
X110761236Y-76838924D01*
X110758081Y-76846543D01*
X110661041Y-77132413D01*
X110658910Y-77140365D01*
X110600012Y-77436469D01*
X110598938Y-77444627D01*
X110579193Y-77745881D01*
X110579193Y-77754119D01*
X97844365Y-77754119D01*
X100614839Y-74983645D01*
X100677151Y-74949619D01*
X100747966Y-74954684D01*
X100804802Y-74997231D01*
X100824900Y-75037481D01*
X100848243Y-75117567D01*
X100957668Y-75354928D01*
X100980829Y-75390255D01*
X101098410Y-75569596D01*
X101098414Y-75569601D01*
X101100976Y-75573509D01*
X101275018Y-75768506D01*
X101475970Y-75935637D01*
X101479973Y-75938066D01*
X101695422Y-76068804D01*
X101695426Y-76068806D01*
X101699419Y-76071229D01*
X101940455Y-76172303D01*
X102193783Y-76236641D01*
X102198434Y-76237109D01*
X102198438Y-76237110D01*
X102391308Y-76256531D01*
X102410867Y-76258500D01*
X102566354Y-76258500D01*
X102568679Y-76258327D01*
X102568685Y-76258327D01*
X102756000Y-76244407D01*
X102756004Y-76244406D01*
X102760652Y-76244061D01*
X102765200Y-76243032D01*
X102765206Y-76243031D01*
X102951601Y-76200853D01*
X103015577Y-76186377D01*
X103051769Y-76172303D01*
X103254824Y-76093340D01*
X103254827Y-76093339D01*
X103259177Y-76091647D01*
X103486098Y-75961951D01*
X103555988Y-75906854D01*
X111469996Y-75906854D01*
X111475831Y-75916621D01*
X112937188Y-77377978D01*
X112951132Y-77385592D01*
X112952965Y-77385461D01*
X112959580Y-77381210D01*
X114422416Y-75918374D01*
X114429930Y-75904613D01*
X114423472Y-75895253D01*
X114396512Y-75871609D01*
X114389997Y-75866611D01*
X114138972Y-75698881D01*
X114131835Y-75694760D01*
X113861070Y-75561234D01*
X113853466Y-75558084D01*
X113567587Y-75461041D01*
X113559635Y-75458910D01*
X113263531Y-75400012D01*
X113255373Y-75398938D01*
X112954119Y-75379193D01*
X112945881Y-75379193D01*
X112644627Y-75398938D01*
X112636469Y-75400012D01*
X112340365Y-75458910D01*
X112332413Y-75461041D01*
X112046543Y-75558081D01*
X112038924Y-75561236D01*
X111768165Y-75694761D01*
X111761027Y-75698882D01*
X111510003Y-75866611D01*
X111503488Y-75871609D01*
X111478391Y-75893619D01*
X111469996Y-75906854D01*
X103555988Y-75906854D01*
X103691357Y-75800138D01*
X103870443Y-75609763D01*
X103983515Y-75446771D01*
X104016759Y-75398851D01*
X104016761Y-75398848D01*
X104019424Y-75395009D01*
X104021492Y-75390816D01*
X104132960Y-75164781D01*
X104132961Y-75164778D01*
X104135025Y-75160593D01*
X104214707Y-74911665D01*
X104256721Y-74653693D01*
X104260142Y-74392345D01*
X104224896Y-74133362D01*
X104210473Y-74083877D01*
X104153068Y-73886932D01*
X104151757Y-73882433D01*
X104042332Y-73645072D01*
X103950106Y-73504404D01*
X103901590Y-73430404D01*
X103901586Y-73430399D01*
X103899024Y-73426491D01*
X103724982Y-73231494D01*
X103524030Y-73064363D01*
X103466078Y-73029197D01*
X103304578Y-72931196D01*
X103304574Y-72931194D01*
X103300581Y-72928771D01*
X103059545Y-72827697D01*
X103055026Y-72826549D01*
X103055019Y-72826547D01*
X103048386Y-72824863D01*
X103044029Y-72823756D01*
X102982928Y-72787605D01*
X102951070Y-72724157D01*
X102958573Y-72653558D01*
X102985946Y-72612538D01*
X103195638Y-72402846D01*
X108691500Y-72402846D01*
X108706548Y-72560566D01*
X108766092Y-72763534D01*
X108768836Y-72768861D01*
X108768836Y-72768862D01*
X108852444Y-72931196D01*
X108862942Y-72951580D01*
X108993604Y-73117920D01*
X108998135Y-73121852D01*
X108998138Y-73121855D01*
X109091954Y-73203264D01*
X109153363Y-73256552D01*
X109158549Y-73259552D01*
X109158553Y-73259555D01*
X109254957Y-73315326D01*
X109336454Y-73362473D01*
X109536271Y-73431861D01*
X109542206Y-73432722D01*
X109542208Y-73432722D01*
X109739664Y-73461352D01*
X109739667Y-73461352D01*
X109745604Y-73462213D01*
X109956899Y-73452433D01*
X110088077Y-73420819D01*
X110156701Y-73404281D01*
X110156703Y-73404280D01*
X110162534Y-73402875D01*
X110167992Y-73400393D01*
X110167996Y-73400392D01*
X110283041Y-73348084D01*
X110355087Y-73315326D01*
X110527611Y-73192946D01*
X110673881Y-73040150D01*
X110788620Y-72862452D01*
X110828485Y-72763534D01*
X110865442Y-72671832D01*
X110865443Y-72671829D01*
X110867686Y-72666263D01*
X110908228Y-72458663D01*
X110908500Y-72453101D01*
X110908500Y-71097154D01*
X110893452Y-70939434D01*
X110833908Y-70736466D01*
X110785829Y-70643114D01*
X110739804Y-70553751D01*
X110739802Y-70553748D01*
X110737058Y-70548420D01*
X110606396Y-70382080D01*
X110601865Y-70378148D01*
X110601862Y-70378145D01*
X110451167Y-70247379D01*
X110446637Y-70243448D01*
X110441451Y-70240448D01*
X110441447Y-70240445D01*
X110268742Y-70140533D01*
X110263546Y-70137527D01*
X110063729Y-70068139D01*
X110057794Y-70067278D01*
X110057792Y-70067278D01*
X109860336Y-70038648D01*
X109860333Y-70038648D01*
X109854396Y-70037787D01*
X109643101Y-70047567D01*
X109529624Y-70074915D01*
X109443299Y-70095719D01*
X109443297Y-70095720D01*
X109437466Y-70097125D01*
X109432008Y-70099607D01*
X109432004Y-70099608D01*
X109332422Y-70144886D01*
X109244913Y-70184674D01*
X109072389Y-70307054D01*
X108926119Y-70459850D01*
X108811380Y-70637548D01*
X108790138Y-70690257D01*
X108738090Y-70819406D01*
X108732314Y-70833737D01*
X108691772Y-71041337D01*
X108691500Y-71046899D01*
X108691500Y-72402846D01*
X103195638Y-72402846D01*
X106553079Y-69045405D01*
X106615391Y-69011379D01*
X106642174Y-69008500D01*
X111980075Y-69008500D01*
X112048196Y-69028502D01*
X112069170Y-69045405D01*
X115151045Y-72127279D01*
X118212290Y-75188524D01*
X118246316Y-75250836D01*
X118241251Y-75321651D01*
X118198704Y-75378487D01*
X118167425Y-75395600D01*
X118149853Y-75402188D01*
X118053705Y-75438232D01*
X118053704Y-75438233D01*
X118045295Y-75441385D01*
X117928739Y-75528739D01*
X117841385Y-75645295D01*
X117790255Y-75781684D01*
X117783500Y-75843866D01*
X117783500Y-79656134D01*
X117790255Y-79718316D01*
X117841385Y-79854705D01*
X117928739Y-79971261D01*
X118045295Y-80058615D01*
X118181684Y-80109745D01*
X118243866Y-80116500D01*
X122056134Y-80116500D01*
X122118316Y-80109745D01*
X122254705Y-80058615D01*
X122371261Y-79971261D01*
X122458615Y-79854705D01*
X122509745Y-79718316D01*
X122516500Y-79656134D01*
X122516500Y-75843866D01*
X122509745Y-75781684D01*
X122458615Y-75645295D01*
X122371261Y-75528739D01*
X122254705Y-75441385D01*
X122118316Y-75390255D01*
X122056134Y-75383500D01*
X121284500Y-75383500D01*
X121216379Y-75363498D01*
X121169886Y-75309842D01*
X121158500Y-75257500D01*
X121158500Y-65519925D01*
X121178502Y-65451804D01*
X121195405Y-65430830D01*
X123197051Y-63429183D01*
X126689389Y-63429183D01*
X126690912Y-63437607D01*
X126703292Y-63441000D01*
X127752885Y-63441000D01*
X127768124Y-63436525D01*
X127769329Y-63435135D01*
X127771000Y-63427452D01*
X127771000Y-62378102D01*
X127767082Y-62364758D01*
X127752806Y-62362771D01*
X127714324Y-62368660D01*
X127704288Y-62371051D01*
X127501868Y-62437212D01*
X127492359Y-62441209D01*
X127303463Y-62539542D01*
X127294738Y-62545036D01*
X127124433Y-62672905D01*
X127116726Y-62679748D01*
X126969590Y-62833717D01*
X126963104Y-62841727D01*
X126843098Y-63017649D01*
X126838000Y-63026623D01*
X126748338Y-63219783D01*
X126744775Y-63229470D01*
X126689389Y-63429183D01*
X123197051Y-63429183D01*
X124730829Y-61895405D01*
X124793141Y-61861379D01*
X124819924Y-61858500D01*
X150280075Y-61858500D01*
X150348196Y-61878502D01*
X150369170Y-61895405D01*
X159304595Y-70830829D01*
X159338621Y-70893141D01*
X159341500Y-70919924D01*
X159341500Y-94578991D01*
X159321498Y-94647112D01*
X159267842Y-94693605D01*
X159262306Y-94695903D01*
X159261704Y-94696232D01*
X159253295Y-94699385D01*
X159136739Y-94786739D01*
X159049385Y-94903295D01*
X158998255Y-95039684D01*
X158991500Y-95101866D01*
X158991500Y-96898134D01*
X158998255Y-96960316D01*
X159049385Y-97096705D01*
X159136739Y-97213261D01*
X159253295Y-97300615D01*
X159261704Y-97303767D01*
X159261705Y-97303768D01*
X159370960Y-97344726D01*
X159427725Y-97387367D01*
X159452425Y-97453929D01*
X159437218Y-97523278D01*
X159417825Y-97549759D01*
X159294590Y-97678717D01*
X159288104Y-97686727D01*
X159168098Y-97862649D01*
X159163000Y-97871623D01*
X159073338Y-98064783D01*
X159069775Y-98074470D01*
X159014389Y-98274183D01*
X159015912Y-98282607D01*
X159028292Y-98286000D01*
X161668344Y-98286000D01*
X161681875Y-98282027D01*
X161683180Y-98272947D01*
X161641214Y-98105875D01*
X161637894Y-98096124D01*
X161552972Y-97900814D01*
X161548105Y-97891739D01*
X161432426Y-97712926D01*
X161426136Y-97704757D01*
X161282293Y-97546677D01*
X161251241Y-97482831D01*
X161259635Y-97412333D01*
X161304812Y-97357564D01*
X161331256Y-97343895D01*
X161438297Y-97303767D01*
X161446705Y-97300615D01*
X161563261Y-97213261D01*
X161650615Y-97096705D01*
X161701745Y-96960316D01*
X161708500Y-96898134D01*
X161708500Y-95101866D01*
X161701745Y-95039684D01*
X161650615Y-94903295D01*
X161563261Y-94786739D01*
X161446705Y-94699385D01*
X161438296Y-94696233D01*
X161430425Y-94691923D01*
X161431336Y-94690259D01*
X161383510Y-94654337D01*
X161358807Y-94587776D01*
X161358500Y-94578991D01*
X161358500Y-70511842D01*
X161359237Y-70498235D01*
X161362659Y-70466737D01*
X161362659Y-70466732D01*
X161363324Y-70460611D01*
X161358950Y-70410609D01*
X161358621Y-70405784D01*
X161358500Y-70403313D01*
X161358500Y-70400231D01*
X161354309Y-70357489D01*
X161354187Y-70356174D01*
X161350268Y-70311381D01*
X161346087Y-70263587D01*
X161344600Y-70258468D01*
X161344080Y-70253167D01*
X161317218Y-70164194D01*
X161316862Y-70162994D01*
X161290909Y-70073663D01*
X161288455Y-70068929D01*
X161286916Y-70063831D01*
X161276464Y-70044174D01*
X161243316Y-69981831D01*
X161242702Y-69980663D01*
X161202726Y-69903541D01*
X161202725Y-69903540D01*
X161199892Y-69898074D01*
X161196569Y-69893911D01*
X161194066Y-69889204D01*
X161135245Y-69817082D01*
X161134511Y-69816173D01*
X161103262Y-69777027D01*
X161100758Y-69774523D01*
X161100116Y-69773805D01*
X161096415Y-69769472D01*
X161069065Y-69735938D01*
X161033737Y-69706712D01*
X161024958Y-69698723D01*
X151506855Y-60180621D01*
X151497753Y-60170478D01*
X151477897Y-60145782D01*
X151474032Y-60140975D01*
X151435578Y-60108708D01*
X151431931Y-60105528D01*
X151430119Y-60103885D01*
X151427925Y-60101691D01*
X151394654Y-60074361D01*
X151393799Y-60073651D01*
X151393285Y-60073219D01*
X151377812Y-60060236D01*
X151338486Y-60001126D01*
X151337360Y-59930138D01*
X151374792Y-59869811D01*
X151438897Y-59839297D01*
X151458756Y-59837715D01*
X154670919Y-59836546D01*
X163100707Y-59833479D01*
X163120135Y-59834979D01*
G37*
%TD.AperFunction*%
%TD*%
M02*
