M48
; DRILL file {KiCad (6.0.4)} date Mon Sep 19 00:41:08 2022
; FORMAT={-:-/ absolute / inch / decimal}
; #@! TF.CreationDate,2022-09-19T00:41:08-04:00
; #@! TF.GenerationSoftware,Kicad,Pcbnew,(6.0.4)
; #@! TF.FileFunction,Plated,1,2,PTH
FMAT,2
INCH
; #@! TA.AperFunction,Plated,PTH,ViaDrill
T1C0.0157
; #@! TA.AperFunction,Plated,PTH,ComponentDrill
T2C0.0236
; #@! TA.AperFunction,Plated,PTH,ComponentDrill
T3C0.0354
; #@! TA.AperFunction,Plated,PTH,ComponentDrill
T4C0.0394
; #@! TA.AperFunction,Plated,PTH,ComponentDrill
T5C0.0787
; #@! TA.AperFunction,Plated,PTH,ComponentDrill
T6C0.1063
%
G90
G05
T1
X4.1486Y-3.3189
X4.501Y-3.4508
X5.0335Y-2.811
X5.3228Y-2.6555
X5.3376Y-3.0571
X5.3819Y-3.2559
X5.4508Y-3.0138
X5.4606Y-2.815
X5.5669Y-2.8248
X5.6437Y-2.9144
X5.7392Y-3.2096
X6.0935Y-3.1791
T3
X4.072Y-3.4476
X4.072Y-3.5476
X4.072Y-3.6476
X4.072Y-3.7476
X4.072Y-3.8476
X4.072Y-3.9476
X4.072Y-4.0476
X4.072Y-4.1476
X4.072Y-4.2476
X4.072Y-4.3476
X4.072Y-4.4476
X4.072Y-4.5476
X4.072Y-4.6476
X4.072Y-4.7476
X4.072Y-4.8476
X4.672Y-3.4476
X4.672Y-3.5476
X4.672Y-3.6476
X4.672Y-3.7476
X4.672Y-3.8476
X4.672Y-3.9476
X4.672Y-4.0476
X4.672Y-4.1476
X4.672Y-4.2476
X4.672Y-4.3476
X4.672Y-4.4476
X4.672Y-4.5476
X4.672Y-4.6476
X4.672Y-4.7476
X4.672Y-4.8476
T4
X3.8012Y-3.3022
X3.8012Y-3.4022
X3.8012Y-3.5022
X3.8012Y-3.7795
X3.8012Y-3.8795
X3.8012Y-3.9795
X3.8012Y-4.0795
X5.0217Y-4.2835
X5.0217Y-4.3835
X5.0217Y-4.4835
X5.0217Y-4.5835
X5.0217Y-4.6835
X5.0217Y-4.7835
X5.0217Y-4.8835
X5.0217Y-4.9835
X5.0217Y-5.0835
X5.0217Y-5.1835
X5.0404Y-2.5077
X5.0404Y-2.6077
X5.0404Y-2.7077
X5.1404Y-2.5077
X5.1404Y-2.6077
X5.1404Y-2.7077
X5.9449Y-3.126
X5.9449Y-3.226
X5.9449Y-3.326
X5.9449Y-3.426
X5.9449Y-3.526
X5.9449Y-3.626
X5.9449Y-3.726
X5.9449Y-3.826
X5.9449Y-3.926
X5.9449Y-4.026
X5.9449Y-4.126
X5.9449Y-4.226
X5.9449Y-4.326
X5.9449Y-4.426
X5.9449Y-4.526
X5.9449Y-4.626
X5.9449Y-4.726
X5.9449Y-4.826
X5.9449Y-4.926
X5.9449Y-5.026
X6.0449Y-3.126
X6.0449Y-3.226
X6.0449Y-3.326
X6.0449Y-3.426
X6.0449Y-3.526
X6.0449Y-3.626
X6.0449Y-3.726
X6.0449Y-3.826
X6.0449Y-3.926
X6.0449Y-4.026
X6.0449Y-4.126
X6.0449Y-4.226
X6.0449Y-4.326
X6.0449Y-4.426
X6.0449Y-4.526
X6.0449Y-4.626
X6.0449Y-4.726
X6.0449Y-4.826
X6.0449Y-4.926
X6.0449Y-5.026
X6.313Y-3.7795
X6.313Y-3.8795
X6.313Y-3.9795
X6.313Y-4.0795
T5
X4.937Y-3.622
X5.7559Y-3.622
T6
X4.4469Y-3.061
X4.7303Y-3.061
T2
G00X4.3228Y-2.8031
M15
G01X4.3228Y-2.8465
M16
G05
G00X4.8543Y-2.8031
M15
G01X4.8543Y-2.8465
M16
G05
T0
M30
