%TF.GenerationSoftware,KiCad,Pcbnew,6.0.8-f2edbf62ab~116~ubuntu22.04.1*%
%TF.CreationDate,2022-11-23T04:02:49-05:00*%
%TF.ProjectId,Pi_HAT_Simple_V3,50695f48-4154-45f5-9369-6d706c655f56,rev?*%
%TF.SameCoordinates,Original*%
%TF.FileFunction,Legend,Top*%
%TF.FilePolarity,Positive*%
%FSLAX46Y46*%
G04 Gerber Fmt 4.6, Leading zero omitted, Abs format (unit mm)*
G04 Created by KiCad (PCBNEW 6.0.8-f2edbf62ab~116~ubuntu22.04.1) date 2022-11-23 04:02:49*
%MOMM*%
%LPD*%
G01*
G04 APERTURE LIST*
%ADD10C,0.100000*%
%ADD11C,0.150000*%
%ADD12C,0.250000*%
%ADD13C,0.010000*%
%ADD14C,0.120000*%
%ADD15C,0.127000*%
G04 APERTURE END LIST*
D10*
X93373809Y-78330952D02*
X93873809Y-78330952D01*
X93873809Y-78521428D01*
X93850000Y-78569047D01*
X93826190Y-78592857D01*
X93778571Y-78616666D01*
X93707142Y-78616666D01*
X93659523Y-78592857D01*
X93635714Y-78569047D01*
X93611904Y-78521428D01*
X93611904Y-78330952D01*
X93397619Y-78807142D02*
X93373809Y-78878571D01*
X93373809Y-78997619D01*
X93397619Y-79045238D01*
X93421428Y-79069047D01*
X93469047Y-79092857D01*
X93516666Y-79092857D01*
X93564285Y-79069047D01*
X93588095Y-79045238D01*
X93611904Y-78997619D01*
X93635714Y-78902380D01*
X93659523Y-78854761D01*
X93683333Y-78830952D01*
X93730952Y-78807142D01*
X93778571Y-78807142D01*
X93826190Y-78830952D01*
X93850000Y-78854761D01*
X93873809Y-78902380D01*
X93873809Y-79021428D01*
X93850000Y-79092857D01*
X93850000Y-75719047D02*
X93873809Y-75671428D01*
X93873809Y-75600000D01*
X93850000Y-75528571D01*
X93802380Y-75480952D01*
X93754761Y-75457142D01*
X93659523Y-75433333D01*
X93588095Y-75433333D01*
X93492857Y-75457142D01*
X93445238Y-75480952D01*
X93397619Y-75528571D01*
X93373809Y-75600000D01*
X93373809Y-75647619D01*
X93397619Y-75719047D01*
X93421428Y-75742857D01*
X93588095Y-75742857D01*
X93588095Y-75647619D01*
X93373809Y-75957142D02*
X93873809Y-75957142D01*
X93373809Y-76242857D01*
X93873809Y-76242857D01*
X93373809Y-76480952D02*
X93873809Y-76480952D01*
X93873809Y-76600000D01*
X93850000Y-76671428D01*
X93802380Y-76719047D01*
X93754761Y-76742857D01*
X93659523Y-76766666D01*
X93588095Y-76766666D01*
X93492857Y-76742857D01*
X93445238Y-76719047D01*
X93397619Y-76671428D01*
X93373809Y-76600000D01*
X93373809Y-76480952D01*
X93873809Y-73404761D02*
X93873809Y-73166666D01*
X93635714Y-73142857D01*
X93659523Y-73166666D01*
X93683333Y-73214285D01*
X93683333Y-73333333D01*
X93659523Y-73380952D01*
X93635714Y-73404761D01*
X93588095Y-73428571D01*
X93469047Y-73428571D01*
X93421428Y-73404761D01*
X93397619Y-73380952D01*
X93373809Y-73333333D01*
X93373809Y-73214285D01*
X93397619Y-73166666D01*
X93421428Y-73142857D01*
X93873809Y-73571428D02*
X93373809Y-73738095D01*
X93873809Y-73904761D01*
D11*
X107754761Y-120323809D02*
X105754761Y-120323809D01*
X107183333Y-119657142D01*
X105754761Y-118990476D01*
X107754761Y-118990476D01*
X107754761Y-118038095D02*
X105754761Y-118038095D01*
X105754761Y-117276190D01*
X105850000Y-117085714D01*
X105945238Y-116990476D01*
X106135714Y-116895238D01*
X106421428Y-116895238D01*
X106611904Y-116990476D01*
X106707142Y-117085714D01*
X106802380Y-117276190D01*
X106802380Y-118038095D01*
X105754761Y-116038095D02*
X107373809Y-116038095D01*
X107564285Y-115942857D01*
X107659523Y-115847619D01*
X107754761Y-115657142D01*
X107754761Y-115276190D01*
X107659523Y-115085714D01*
X107564285Y-114990476D01*
X107373809Y-114895238D01*
X105754761Y-114895238D01*
X105754761Y-113085714D02*
X105754761Y-113466666D01*
X105850000Y-113657142D01*
X105945238Y-113752380D01*
X106230952Y-113942857D01*
X106611904Y-114038095D01*
X107373809Y-114038095D01*
X107564285Y-113942857D01*
X107659523Y-113847619D01*
X107754761Y-113657142D01*
X107754761Y-113276190D01*
X107659523Y-113085714D01*
X107564285Y-112990476D01*
X107373809Y-112895238D01*
X106897619Y-112895238D01*
X106707142Y-112990476D01*
X106611904Y-113085714D01*
X106516666Y-113276190D01*
X106516666Y-113657142D01*
X106611904Y-113847619D01*
X106707142Y-113942857D01*
X106897619Y-114038095D01*
X105754761Y-111657142D02*
X105754761Y-111466666D01*
X105850000Y-111276190D01*
X105945238Y-111180952D01*
X106135714Y-111085714D01*
X106516666Y-110990476D01*
X106992857Y-110990476D01*
X107373809Y-111085714D01*
X107564285Y-111180952D01*
X107659523Y-111276190D01*
X107754761Y-111466666D01*
X107754761Y-111657142D01*
X107659523Y-111847619D01*
X107564285Y-111942857D01*
X107373809Y-112038095D01*
X106992857Y-112133333D01*
X106516666Y-112133333D01*
X106135714Y-112038095D01*
X105945238Y-111942857D01*
X105850000Y-111847619D01*
X105754761Y-111657142D01*
X105754761Y-109180952D02*
X105754761Y-110133333D01*
X106707142Y-110228571D01*
X106611904Y-110133333D01*
X106516666Y-109942857D01*
X106516666Y-109466666D01*
X106611904Y-109276190D01*
X106707142Y-109180952D01*
X106897619Y-109085714D01*
X107373809Y-109085714D01*
X107564285Y-109180952D01*
X107659523Y-109276190D01*
X107754761Y-109466666D01*
X107754761Y-109942857D01*
X107659523Y-110133333D01*
X107564285Y-110228571D01*
X105754761Y-107847619D02*
X105754761Y-107657142D01*
X105850000Y-107466666D01*
X105945238Y-107371428D01*
X106135714Y-107276190D01*
X106516666Y-107180952D01*
X106992857Y-107180952D01*
X107373809Y-107276190D01*
X107564285Y-107371428D01*
X107659523Y-107466666D01*
X107754761Y-107657142D01*
X107754761Y-107847619D01*
X107659523Y-108038095D01*
X107564285Y-108133333D01*
X107373809Y-108228571D01*
X106992857Y-108323809D01*
X106516666Y-108323809D01*
X106135714Y-108228571D01*
X105945238Y-108133333D01*
X105850000Y-108038095D01*
X105754761Y-107847619D01*
D10*
X131761904Y-75826190D02*
X132071428Y-75826190D01*
X131904761Y-76016666D01*
X131976190Y-76016666D01*
X132023809Y-76040476D01*
X132047619Y-76064285D01*
X132071428Y-76111904D01*
X132071428Y-76230952D01*
X132047619Y-76278571D01*
X132023809Y-76302380D01*
X131976190Y-76326190D01*
X131833333Y-76326190D01*
X131785714Y-76302380D01*
X131761904Y-76278571D01*
X132285714Y-76278571D02*
X132309523Y-76302380D01*
X132285714Y-76326190D01*
X132261904Y-76302380D01*
X132285714Y-76278571D01*
X132285714Y-76326190D01*
X132476190Y-75826190D02*
X132785714Y-75826190D01*
X132619047Y-76016666D01*
X132690476Y-76016666D01*
X132738095Y-76040476D01*
X132761904Y-76064285D01*
X132785714Y-76111904D01*
X132785714Y-76230952D01*
X132761904Y-76278571D01*
X132738095Y-76302380D01*
X132690476Y-76326190D01*
X132547619Y-76326190D01*
X132500000Y-76302380D01*
X132476190Y-76278571D01*
X132928571Y-75826190D02*
X133095238Y-76326190D01*
X133261904Y-75826190D01*
X132304761Y-68126190D02*
X132066666Y-68126190D01*
X132042857Y-68364285D01*
X132066666Y-68340476D01*
X132114285Y-68316666D01*
X132233333Y-68316666D01*
X132280952Y-68340476D01*
X132304761Y-68364285D01*
X132328571Y-68411904D01*
X132328571Y-68530952D01*
X132304761Y-68578571D01*
X132280952Y-68602380D01*
X132233333Y-68626190D01*
X132114285Y-68626190D01*
X132066666Y-68602380D01*
X132042857Y-68578571D01*
X132471428Y-68126190D02*
X132638095Y-68626190D01*
X132804761Y-68126190D01*
X94050000Y-91119047D02*
X94073809Y-91071428D01*
X94073809Y-91000000D01*
X94050000Y-90928571D01*
X94002380Y-90880952D01*
X93954761Y-90857142D01*
X93859523Y-90833333D01*
X93788095Y-90833333D01*
X93692857Y-90857142D01*
X93645238Y-90880952D01*
X93597619Y-90928571D01*
X93573809Y-91000000D01*
X93573809Y-91047619D01*
X93597619Y-91119047D01*
X93621428Y-91142857D01*
X93788095Y-91142857D01*
X93788095Y-91047619D01*
X93573809Y-91357142D02*
X94073809Y-91357142D01*
X93573809Y-91642857D01*
X94073809Y-91642857D01*
X93573809Y-91880952D02*
X94073809Y-91880952D01*
X94073809Y-92000000D01*
X94050000Y-92071428D01*
X94002380Y-92119047D01*
X93954761Y-92142857D01*
X93859523Y-92166666D01*
X93788095Y-92166666D01*
X93692857Y-92142857D01*
X93645238Y-92119047D01*
X93597619Y-92071428D01*
X93573809Y-92000000D01*
X93573809Y-91880952D01*
X160600000Y-91980952D02*
X160576190Y-92028571D01*
X160576190Y-92100000D01*
X160600000Y-92171428D01*
X160647619Y-92219047D01*
X160695238Y-92242857D01*
X160790476Y-92266666D01*
X160861904Y-92266666D01*
X160957142Y-92242857D01*
X161004761Y-92219047D01*
X161052380Y-92171428D01*
X161076190Y-92100000D01*
X161076190Y-92052380D01*
X161052380Y-91980952D01*
X161028571Y-91957142D01*
X160861904Y-91957142D01*
X160861904Y-92052380D01*
X161076190Y-91742857D02*
X160576190Y-91742857D01*
X161076190Y-91457142D01*
X160576190Y-91457142D01*
X161076190Y-91219047D02*
X160576190Y-91219047D01*
X160576190Y-91100000D01*
X160600000Y-91028571D01*
X160647619Y-90980952D01*
X160695238Y-90957142D01*
X160790476Y-90933333D01*
X160861904Y-90933333D01*
X160957142Y-90957142D01*
X161004761Y-90980952D01*
X161052380Y-91028571D01*
X161076190Y-91100000D01*
X161076190Y-91219047D01*
X161152380Y-97507142D02*
X161176190Y-97435714D01*
X161176190Y-97316666D01*
X161152380Y-97269047D01*
X161128571Y-97245238D01*
X161080952Y-97221428D01*
X161033333Y-97221428D01*
X160985714Y-97245238D01*
X160961904Y-97269047D01*
X160938095Y-97316666D01*
X160914285Y-97411904D01*
X160890476Y-97459523D01*
X160866666Y-97483333D01*
X160819047Y-97507142D01*
X160771428Y-97507142D01*
X160723809Y-97483333D01*
X160700000Y-97459523D01*
X160676190Y-97411904D01*
X160676190Y-97292857D01*
X160700000Y-97221428D01*
X161176190Y-97007142D02*
X160676190Y-97007142D01*
X160676190Y-96888095D01*
X160700000Y-96816666D01*
X160747619Y-96769047D01*
X160795238Y-96745238D01*
X160890476Y-96721428D01*
X160961904Y-96721428D01*
X161057142Y-96745238D01*
X161104761Y-96769047D01*
X161152380Y-96816666D01*
X161176190Y-96888095D01*
X161176190Y-97007142D01*
X161033333Y-96530952D02*
X161033333Y-96292857D01*
X161176190Y-96578571D02*
X160676190Y-96411904D01*
X161176190Y-96245238D01*
X93573809Y-88740476D02*
X93573809Y-88454761D01*
X93573809Y-88597619D02*
X94073809Y-88597619D01*
X94002380Y-88550000D01*
X93954761Y-88502380D01*
X93930952Y-88454761D01*
X94026190Y-88930952D02*
X94050000Y-88954761D01*
X94073809Y-89002380D01*
X94073809Y-89121428D01*
X94050000Y-89169047D01*
X94026190Y-89192857D01*
X93978571Y-89216666D01*
X93930952Y-89216666D01*
X93859523Y-89192857D01*
X93573809Y-88907142D01*
X93573809Y-89216666D01*
X94073809Y-89359523D02*
X93573809Y-89526190D01*
X94073809Y-89692857D01*
X93597619Y-96092857D02*
X93573809Y-96164285D01*
X93573809Y-96283333D01*
X93597619Y-96330952D01*
X93621428Y-96354761D01*
X93669047Y-96378571D01*
X93716666Y-96378571D01*
X93764285Y-96354761D01*
X93788095Y-96330952D01*
X93811904Y-96283333D01*
X93835714Y-96188095D01*
X93859523Y-96140476D01*
X93883333Y-96116666D01*
X93930952Y-96092857D01*
X93978571Y-96092857D01*
X94026190Y-96116666D01*
X94050000Y-96140476D01*
X94073809Y-96188095D01*
X94073809Y-96307142D01*
X94050000Y-96378571D01*
X93573809Y-96592857D02*
X94073809Y-96592857D01*
X94073809Y-96711904D01*
X94050000Y-96783333D01*
X94002380Y-96830952D01*
X93954761Y-96854761D01*
X93859523Y-96878571D01*
X93788095Y-96878571D01*
X93692857Y-96854761D01*
X93645238Y-96830952D01*
X93597619Y-96783333D01*
X93573809Y-96711904D01*
X93573809Y-96592857D01*
X93716666Y-97069047D02*
X93716666Y-97307142D01*
X93573809Y-97021428D02*
X94073809Y-97188095D01*
X93573809Y-97354761D01*
X93597619Y-93504761D02*
X93573809Y-93576190D01*
X93573809Y-93695238D01*
X93597619Y-93742857D01*
X93621428Y-93766666D01*
X93669047Y-93790476D01*
X93716666Y-93790476D01*
X93764285Y-93766666D01*
X93788095Y-93742857D01*
X93811904Y-93695238D01*
X93835714Y-93600000D01*
X93859523Y-93552380D01*
X93883333Y-93528571D01*
X93930952Y-93504761D01*
X93978571Y-93504761D01*
X94026190Y-93528571D01*
X94050000Y-93552380D01*
X94073809Y-93600000D01*
X94073809Y-93719047D01*
X94050000Y-93790476D01*
X93621428Y-94290476D02*
X93597619Y-94266666D01*
X93573809Y-94195238D01*
X93573809Y-94147619D01*
X93597619Y-94076190D01*
X93645238Y-94028571D01*
X93692857Y-94004761D01*
X93788095Y-93980952D01*
X93859523Y-93980952D01*
X93954761Y-94004761D01*
X94002380Y-94028571D01*
X94050000Y-94076190D01*
X94073809Y-94147619D01*
X94073809Y-94195238D01*
X94050000Y-94266666D01*
X94026190Y-94290476D01*
X93573809Y-94742857D02*
X93573809Y-94504761D01*
X94073809Y-94504761D01*
X161076190Y-89309523D02*
X161076190Y-89595238D01*
X161076190Y-89452380D02*
X160576190Y-89452380D01*
X160647619Y-89500000D01*
X160695238Y-89547619D01*
X160719047Y-89595238D01*
X160623809Y-89119047D02*
X160600000Y-89095238D01*
X160576190Y-89047619D01*
X160576190Y-88928571D01*
X160600000Y-88880952D01*
X160623809Y-88857142D01*
X160671428Y-88833333D01*
X160719047Y-88833333D01*
X160790476Y-88857142D01*
X161076190Y-89142857D01*
X161076190Y-88833333D01*
X160576190Y-88690476D02*
X161076190Y-88523809D01*
X160576190Y-88357142D01*
X161152380Y-94795238D02*
X161176190Y-94723809D01*
X161176190Y-94604761D01*
X161152380Y-94557142D01*
X161128571Y-94533333D01*
X161080952Y-94509523D01*
X161033333Y-94509523D01*
X160985714Y-94533333D01*
X160961904Y-94557142D01*
X160938095Y-94604761D01*
X160914285Y-94700000D01*
X160890476Y-94747619D01*
X160866666Y-94771428D01*
X160819047Y-94795238D01*
X160771428Y-94795238D01*
X160723809Y-94771428D01*
X160700000Y-94747619D01*
X160676190Y-94700000D01*
X160676190Y-94580952D01*
X160700000Y-94509523D01*
X161128571Y-94009523D02*
X161152380Y-94033333D01*
X161176190Y-94104761D01*
X161176190Y-94152380D01*
X161152380Y-94223809D01*
X161104761Y-94271428D01*
X161057142Y-94295238D01*
X160961904Y-94319047D01*
X160890476Y-94319047D01*
X160795238Y-94295238D01*
X160747619Y-94271428D01*
X160700000Y-94223809D01*
X160676190Y-94152380D01*
X160676190Y-94104761D01*
X160700000Y-94033333D01*
X160723809Y-94009523D01*
X161176190Y-93557142D02*
X161176190Y-93795238D01*
X160676190Y-93795238D01*
D12*
X157152976Y-125632142D02*
X155902976Y-125632142D01*
X155902976Y-125155952D01*
X155962500Y-125036904D01*
X156022023Y-124977380D01*
X156141071Y-124917857D01*
X156319642Y-124917857D01*
X156438690Y-124977380D01*
X156498214Y-125036904D01*
X156557738Y-125155952D01*
X156557738Y-125632142D01*
X157152976Y-124382142D02*
X155902976Y-124382142D01*
X157152976Y-122834523D02*
X155902976Y-122834523D01*
X156498214Y-122834523D02*
X156498214Y-122120238D01*
X157152976Y-122120238D02*
X155902976Y-122120238D01*
X156795833Y-121584523D02*
X156795833Y-120989285D01*
X157152976Y-121703571D02*
X155902976Y-121286904D01*
X157152976Y-120870238D01*
X155902976Y-120632142D02*
X155902976Y-119917857D01*
X157152976Y-120275000D02*
X155902976Y-120275000D01*
X155902976Y-118727380D02*
X157152976Y-118310714D01*
X155902976Y-117894047D01*
X155902976Y-117596428D02*
X155902976Y-116822619D01*
X156379166Y-117239285D01*
X156379166Y-117060714D01*
X156438690Y-116941666D01*
X156498214Y-116882142D01*
X156617261Y-116822619D01*
X156914880Y-116822619D01*
X157033928Y-116882142D01*
X157093452Y-116941666D01*
X157152976Y-117060714D01*
X157152976Y-117417857D01*
X157093452Y-117536904D01*
X157033928Y-117596428D01*
X157152976Y-114679761D02*
X157152976Y-115394047D01*
X157152976Y-115036904D02*
X155902976Y-115036904D01*
X156081547Y-115155952D01*
X156200595Y-115275000D01*
X156260119Y-115394047D01*
X155902976Y-113905952D02*
X155902976Y-113786904D01*
X155962500Y-113667857D01*
X156022023Y-113608333D01*
X156141071Y-113548809D01*
X156379166Y-113489285D01*
X156676785Y-113489285D01*
X156914880Y-113548809D01*
X157033928Y-113608333D01*
X157093452Y-113667857D01*
X157152976Y-113786904D01*
X157152976Y-113905952D01*
X157093452Y-114025000D01*
X157033928Y-114084523D01*
X156914880Y-114144047D01*
X156676785Y-114203571D01*
X156379166Y-114203571D01*
X156141071Y-114144047D01*
X156022023Y-114084523D01*
X155962500Y-114025000D01*
X155902976Y-113905952D01*
X155843452Y-112060714D02*
X157450595Y-113132142D01*
X156022023Y-111703571D02*
X155962500Y-111644047D01*
X155902976Y-111525000D01*
X155902976Y-111227380D01*
X155962500Y-111108333D01*
X156022023Y-111048809D01*
X156141071Y-110989285D01*
X156260119Y-110989285D01*
X156438690Y-111048809D01*
X157152976Y-111763095D01*
X157152976Y-110989285D01*
X157152976Y-109798809D02*
X157152976Y-110513095D01*
X157152976Y-110155952D02*
X155902976Y-110155952D01*
X156081547Y-110275000D01*
X156200595Y-110394047D01*
X156260119Y-110513095D01*
X155843452Y-108370238D02*
X157450595Y-109441666D01*
X156022023Y-108013095D02*
X155962500Y-107953571D01*
X155902976Y-107834523D01*
X155902976Y-107536904D01*
X155962500Y-107417857D01*
X156022023Y-107358333D01*
X156141071Y-107298809D01*
X156260119Y-107298809D01*
X156438690Y-107358333D01*
X157152976Y-108072619D01*
X157152976Y-107298809D01*
X156022023Y-106822619D02*
X155962500Y-106763095D01*
X155902976Y-106644047D01*
X155902976Y-106346428D01*
X155962500Y-106227380D01*
X156022023Y-106167857D01*
X156141071Y-106108333D01*
X156260119Y-106108333D01*
X156438690Y-106167857D01*
X157152976Y-106882142D01*
X157152976Y-106108333D01*
X158510714Y-123102380D02*
X158510714Y-122685714D01*
X159165476Y-122507142D02*
X159165476Y-123102380D01*
X157915476Y-123102380D01*
X157915476Y-122507142D01*
X158808333Y-122030952D02*
X158808333Y-121435714D01*
X159165476Y-122150000D02*
X157915476Y-121733333D01*
X159165476Y-121316666D01*
X159105952Y-120959523D02*
X159165476Y-120780952D01*
X159165476Y-120483333D01*
X159105952Y-120364285D01*
X159046428Y-120304761D01*
X158927380Y-120245238D01*
X158808333Y-120245238D01*
X158689285Y-120304761D01*
X158629761Y-120364285D01*
X158570238Y-120483333D01*
X158510714Y-120721428D01*
X158451190Y-120840476D01*
X158391666Y-120900000D01*
X158272619Y-120959523D01*
X158153571Y-120959523D01*
X158034523Y-120900000D01*
X157975000Y-120840476D01*
X157915476Y-120721428D01*
X157915476Y-120423809D01*
X157975000Y-120245238D01*
X158570238Y-119471428D02*
X159165476Y-119471428D01*
X157915476Y-119888095D02*
X158570238Y-119471428D01*
X157915476Y-119054761D01*
X159046428Y-116971428D02*
X159105952Y-117030952D01*
X159165476Y-117209523D01*
X159165476Y-117328571D01*
X159105952Y-117507142D01*
X158986904Y-117626190D01*
X158867857Y-117685714D01*
X158629761Y-117745238D01*
X158451190Y-117745238D01*
X158213095Y-117685714D01*
X158094047Y-117626190D01*
X157975000Y-117507142D01*
X157915476Y-117328571D01*
X157915476Y-117209523D01*
X157975000Y-117030952D01*
X158034523Y-116971428D01*
X157915476Y-116197619D02*
X157915476Y-115959523D01*
X157975000Y-115840476D01*
X158094047Y-115721428D01*
X158332142Y-115661904D01*
X158748809Y-115661904D01*
X158986904Y-115721428D01*
X159105952Y-115840476D01*
X159165476Y-115959523D01*
X159165476Y-116197619D01*
X159105952Y-116316666D01*
X158986904Y-116435714D01*
X158748809Y-116495238D01*
X158332142Y-116495238D01*
X158094047Y-116435714D01*
X157975000Y-116316666D01*
X157915476Y-116197619D01*
X159165476Y-115126190D02*
X157915476Y-115126190D01*
X159165476Y-114411904D01*
X157915476Y-114411904D01*
X157915476Y-113995238D02*
X157915476Y-113280952D01*
X159165476Y-113638095D02*
X157915476Y-113638095D01*
X159165476Y-112150000D02*
X158570238Y-112566666D01*
X159165476Y-112864285D02*
X157915476Y-112864285D01*
X157915476Y-112388095D01*
X157975000Y-112269047D01*
X158034523Y-112209523D01*
X158153571Y-112150000D01*
X158332142Y-112150000D01*
X158451190Y-112209523D01*
X158510714Y-112269047D01*
X158570238Y-112388095D01*
X158570238Y-112864285D01*
X157915476Y-111376190D02*
X157915476Y-111138095D01*
X157975000Y-111019047D01*
X158094047Y-110900000D01*
X158332142Y-110840476D01*
X158748809Y-110840476D01*
X158986904Y-110900000D01*
X159105952Y-111019047D01*
X159165476Y-111138095D01*
X159165476Y-111376190D01*
X159105952Y-111495238D01*
X158986904Y-111614285D01*
X158748809Y-111673809D01*
X158332142Y-111673809D01*
X158094047Y-111614285D01*
X157975000Y-111495238D01*
X157915476Y-111376190D01*
X159165476Y-109709523D02*
X159165476Y-110304761D01*
X157915476Y-110304761D01*
X159105952Y-109352380D02*
X159165476Y-109173809D01*
X159165476Y-108876190D01*
X159105952Y-108757142D01*
X159046428Y-108697619D01*
X158927380Y-108638095D01*
X158808333Y-108638095D01*
X158689285Y-108697619D01*
X158629761Y-108757142D01*
X158570238Y-108876190D01*
X158510714Y-109114285D01*
X158451190Y-109233333D01*
X158391666Y-109292857D01*
X158272619Y-109352380D01*
X158153571Y-109352380D01*
X158034523Y-109292857D01*
X157975000Y-109233333D01*
X157915476Y-109114285D01*
X157915476Y-108816666D01*
X157975000Y-108638095D01*
X161177976Y-128400000D02*
X159927976Y-128400000D01*
X159927976Y-128102380D01*
X159987500Y-127923809D01*
X160106547Y-127804761D01*
X160225595Y-127745238D01*
X160463690Y-127685714D01*
X160642261Y-127685714D01*
X160880357Y-127745238D01*
X160999404Y-127804761D01*
X161118452Y-127923809D01*
X161177976Y-128102380D01*
X161177976Y-128400000D01*
X161118452Y-126673809D02*
X161177976Y-126792857D01*
X161177976Y-127030952D01*
X161118452Y-127150000D01*
X160999404Y-127209523D01*
X160523214Y-127209523D01*
X160404166Y-127150000D01*
X160344642Y-127030952D01*
X160344642Y-126792857D01*
X160404166Y-126673809D01*
X160523214Y-126614285D01*
X160642261Y-126614285D01*
X160761309Y-127209523D01*
X161118452Y-126138095D02*
X161177976Y-126019047D01*
X161177976Y-125780952D01*
X161118452Y-125661904D01*
X160999404Y-125602380D01*
X160939880Y-125602380D01*
X160820833Y-125661904D01*
X160761309Y-125780952D01*
X160761309Y-125959523D01*
X160701785Y-126078571D01*
X160582738Y-126138095D01*
X160523214Y-126138095D01*
X160404166Y-126078571D01*
X160344642Y-125959523D01*
X160344642Y-125780952D01*
X160404166Y-125661904D01*
X161177976Y-125066666D02*
X160344642Y-125066666D01*
X159927976Y-125066666D02*
X159987500Y-125126190D01*
X160047023Y-125066666D01*
X159987500Y-125007142D01*
X159927976Y-125066666D01*
X160047023Y-125066666D01*
X160344642Y-123935714D02*
X161356547Y-123935714D01*
X161475595Y-123995238D01*
X161535119Y-124054761D01*
X161594642Y-124173809D01*
X161594642Y-124352380D01*
X161535119Y-124471428D01*
X161118452Y-123935714D02*
X161177976Y-124054761D01*
X161177976Y-124292857D01*
X161118452Y-124411904D01*
X161058928Y-124471428D01*
X160939880Y-124530952D01*
X160582738Y-124530952D01*
X160463690Y-124471428D01*
X160404166Y-124411904D01*
X160344642Y-124292857D01*
X160344642Y-124054761D01*
X160404166Y-123935714D01*
X160344642Y-123340476D02*
X161177976Y-123340476D01*
X160463690Y-123340476D02*
X160404166Y-123280952D01*
X160344642Y-123161904D01*
X160344642Y-122983333D01*
X160404166Y-122864285D01*
X160523214Y-122804761D01*
X161177976Y-122804761D01*
X161118452Y-121733333D02*
X161177976Y-121852380D01*
X161177976Y-122090476D01*
X161118452Y-122209523D01*
X160999404Y-122269047D01*
X160523214Y-122269047D01*
X160404166Y-122209523D01*
X160344642Y-122090476D01*
X160344642Y-121852380D01*
X160404166Y-121733333D01*
X160523214Y-121673809D01*
X160642261Y-121673809D01*
X160761309Y-122269047D01*
X161177976Y-120602380D02*
X159927976Y-120602380D01*
X161118452Y-120602380D02*
X161177976Y-120721428D01*
X161177976Y-120959523D01*
X161118452Y-121078571D01*
X161058928Y-121138095D01*
X160939880Y-121197619D01*
X160582738Y-121197619D01*
X160463690Y-121138095D01*
X160404166Y-121078571D01*
X160344642Y-120959523D01*
X160344642Y-120721428D01*
X160404166Y-120602380D01*
X161177976Y-119054761D02*
X159927976Y-119054761D01*
X160404166Y-119054761D02*
X160344642Y-118935714D01*
X160344642Y-118697619D01*
X160404166Y-118578571D01*
X160463690Y-118519047D01*
X160582738Y-118459523D01*
X160939880Y-118459523D01*
X161058928Y-118519047D01*
X161118452Y-118578571D01*
X161177976Y-118697619D01*
X161177976Y-118935714D01*
X161118452Y-119054761D01*
X160344642Y-118042857D02*
X161177976Y-117745238D01*
X160344642Y-117447619D02*
X161177976Y-117745238D01*
X161475595Y-117864285D01*
X161535119Y-117923809D01*
X161594642Y-118042857D01*
X161058928Y-116971428D02*
X161118452Y-116911904D01*
X161177976Y-116971428D01*
X161118452Y-117030952D01*
X161058928Y-116971428D01*
X161177976Y-116971428D01*
X160404166Y-116971428D02*
X160463690Y-116911904D01*
X160523214Y-116971428D01*
X160463690Y-117030952D01*
X160404166Y-116971428D01*
X160523214Y-116971428D01*
X159927976Y-115066666D02*
X160820833Y-115066666D01*
X160999404Y-115126190D01*
X161118452Y-115245238D01*
X161177976Y-115423809D01*
X161177976Y-115542857D01*
X161177976Y-113935714D02*
X160523214Y-113935714D01*
X160404166Y-113995238D01*
X160344642Y-114114285D01*
X160344642Y-114352380D01*
X160404166Y-114471428D01*
X161118452Y-113935714D02*
X161177976Y-114054761D01*
X161177976Y-114352380D01*
X161118452Y-114471428D01*
X160999404Y-114530952D01*
X160880357Y-114530952D01*
X160761309Y-114471428D01*
X160701785Y-114352380D01*
X160701785Y-114054761D01*
X160642261Y-113935714D01*
X161118452Y-112804761D02*
X161177976Y-112923809D01*
X161177976Y-113161904D01*
X161118452Y-113280952D01*
X161058928Y-113340476D01*
X160939880Y-113400000D01*
X160582738Y-113400000D01*
X160463690Y-113340476D01*
X160404166Y-113280952D01*
X160344642Y-113161904D01*
X160344642Y-112923809D01*
X160404166Y-112804761D01*
X161177976Y-112090476D02*
X161118452Y-112209523D01*
X161058928Y-112269047D01*
X160939880Y-112328571D01*
X160582738Y-112328571D01*
X160463690Y-112269047D01*
X160404166Y-112209523D01*
X160344642Y-112090476D01*
X160344642Y-111911904D01*
X160404166Y-111792857D01*
X160463690Y-111733333D01*
X160582738Y-111673809D01*
X160939880Y-111673809D01*
X161058928Y-111733333D01*
X161118452Y-111792857D01*
X161177976Y-111911904D01*
X161177976Y-112090476D01*
X161177976Y-111138095D02*
X159927976Y-111138095D01*
X160404166Y-111138095D02*
X160344642Y-111019047D01*
X160344642Y-110780952D01*
X160404166Y-110661904D01*
X160463690Y-110602380D01*
X160582738Y-110542857D01*
X160939880Y-110542857D01*
X161058928Y-110602380D01*
X161118452Y-110661904D01*
X161177976Y-110780952D01*
X161177976Y-111019047D01*
X161118452Y-111138095D01*
X161177976Y-108340476D02*
X160582738Y-108757142D01*
X161177976Y-109054761D02*
X159927976Y-109054761D01*
X159927976Y-108578571D01*
X159987500Y-108459523D01*
X160047023Y-108400000D01*
X160166071Y-108340476D01*
X160344642Y-108340476D01*
X160463690Y-108400000D01*
X160523214Y-108459523D01*
X160582738Y-108578571D01*
X160582738Y-109054761D01*
X161177976Y-107626190D02*
X161118452Y-107745238D01*
X161058928Y-107804761D01*
X160939880Y-107864285D01*
X160582738Y-107864285D01*
X160463690Y-107804761D01*
X160404166Y-107745238D01*
X160344642Y-107626190D01*
X160344642Y-107447619D01*
X160404166Y-107328571D01*
X160463690Y-107269047D01*
X160582738Y-107209523D01*
X160939880Y-107209523D01*
X161058928Y-107269047D01*
X161118452Y-107328571D01*
X161177976Y-107447619D01*
X161177976Y-107626190D01*
X161177976Y-106673809D02*
X160344642Y-106673809D01*
X160463690Y-106673809D02*
X160404166Y-106614285D01*
X160344642Y-106495238D01*
X160344642Y-106316666D01*
X160404166Y-106197619D01*
X160523214Y-106138095D01*
X161177976Y-106138095D01*
X160523214Y-106138095D02*
X160404166Y-106078571D01*
X160344642Y-105959523D01*
X160344642Y-105780952D01*
X160404166Y-105661904D01*
X160523214Y-105602380D01*
X161177976Y-105602380D01*
X161118452Y-104530952D02*
X161177976Y-104650000D01*
X161177976Y-104888095D01*
X161118452Y-105007142D01*
X160999404Y-105066666D01*
X160523214Y-105066666D01*
X160404166Y-105007142D01*
X160344642Y-104888095D01*
X160344642Y-104650000D01*
X160404166Y-104530952D01*
X160523214Y-104471428D01*
X160642261Y-104471428D01*
X160761309Y-105066666D01*
X161177976Y-103757142D02*
X161118452Y-103876190D01*
X161058928Y-103935714D01*
X160939880Y-103995238D01*
X160582738Y-103995238D01*
X160463690Y-103935714D01*
X160404166Y-103876190D01*
X160344642Y-103757142D01*
X160344642Y-103578571D01*
X160404166Y-103459523D01*
X160463690Y-103400000D01*
X160582738Y-103340476D01*
X160939880Y-103340476D01*
X161058928Y-103400000D01*
X161118452Y-103459523D01*
X161177976Y-103578571D01*
X161177976Y-103757142D01*
D11*
%TO.C,J3*%
X129116666Y-71502380D02*
X129116666Y-72216666D01*
X129069047Y-72359523D01*
X128973809Y-72454761D01*
X128830952Y-72502380D01*
X128735714Y-72502380D01*
X129497619Y-71502380D02*
X130116666Y-71502380D01*
X129783333Y-71883333D01*
X129926190Y-71883333D01*
X130021428Y-71930952D01*
X130069047Y-71978571D01*
X130116666Y-72073809D01*
X130116666Y-72311904D01*
X130069047Y-72407142D01*
X130021428Y-72454761D01*
X129926190Y-72502380D01*
X129640476Y-72502380D01*
X129545238Y-72454761D01*
X129497619Y-72407142D01*
%TO.C,H1*%
X154738095Y-72452380D02*
X154738095Y-71452380D01*
X154738095Y-71928571D02*
X155309523Y-71928571D01*
X155309523Y-72452380D02*
X155309523Y-71452380D01*
X156309523Y-72452380D02*
X155738095Y-72452380D01*
X156023809Y-72452380D02*
X156023809Y-71452380D01*
X155928571Y-71595238D01*
X155833333Y-71690476D01*
X155738095Y-71738095D01*
%TO.C,H2*%
X103338095Y-71552380D02*
X103338095Y-70552380D01*
X103338095Y-71028571D02*
X103909523Y-71028571D01*
X103909523Y-71552380D02*
X103909523Y-70552380D01*
X104338095Y-70647619D02*
X104385714Y-70600000D01*
X104480952Y-70552380D01*
X104719047Y-70552380D01*
X104814285Y-70600000D01*
X104861904Y-70647619D01*
X104909523Y-70742857D01*
X104909523Y-70838095D01*
X104861904Y-70980952D01*
X104290476Y-71552380D01*
X104909523Y-71552380D01*
%TO.C,H3*%
X98738095Y-135452380D02*
X98738095Y-134452380D01*
X98738095Y-134928571D02*
X99309523Y-134928571D01*
X99309523Y-135452380D02*
X99309523Y-134452380D01*
X99690476Y-134452380D02*
X100309523Y-134452380D01*
X99976190Y-134833333D01*
X100119047Y-134833333D01*
X100214285Y-134880952D01*
X100261904Y-134928571D01*
X100309523Y-135023809D01*
X100309523Y-135261904D01*
X100261904Y-135357142D01*
X100214285Y-135404761D01*
X100119047Y-135452380D01*
X99833333Y-135452380D01*
X99738095Y-135404761D01*
X99690476Y-135357142D01*
%TO.C,J1*%
X97666666Y-104322380D02*
X97666666Y-105036666D01*
X97619047Y-105179523D01*
X97523809Y-105274761D01*
X97380952Y-105322380D01*
X97285714Y-105322380D01*
X98666666Y-105322380D02*
X98095238Y-105322380D01*
X98380952Y-105322380D02*
X98380952Y-104322380D01*
X98285714Y-104465238D01*
X98190476Y-104560476D01*
X98095238Y-104608095D01*
%TO.C,H4*%
X154738095Y-135452380D02*
X154738095Y-134452380D01*
X154738095Y-134928571D02*
X155309523Y-134928571D01*
X155309523Y-135452380D02*
X155309523Y-134452380D01*
X156214285Y-134785714D02*
X156214285Y-135452380D01*
X155976190Y-134404761D02*
X155738095Y-135119047D01*
X156357142Y-135119047D01*
%TO.C,J2*%
X155516666Y-76252380D02*
X155516666Y-76966666D01*
X155469047Y-77109523D01*
X155373809Y-77204761D01*
X155230952Y-77252380D01*
X155135714Y-77252380D01*
X155945238Y-76347619D02*
X155992857Y-76300000D01*
X156088095Y-76252380D01*
X156326190Y-76252380D01*
X156421428Y-76300000D01*
X156469047Y-76347619D01*
X156516666Y-76442857D01*
X156516666Y-76538095D01*
X156469047Y-76680952D01*
X155897619Y-77252380D01*
X156516666Y-77252380D01*
X148904761Y-123385714D02*
X146904761Y-123385714D01*
X146904761Y-122623809D01*
X147000000Y-122433333D01*
X147095238Y-122338095D01*
X147285714Y-122242857D01*
X147571428Y-122242857D01*
X147761904Y-122338095D01*
X147857142Y-122433333D01*
X147952380Y-122623809D01*
X147952380Y-123385714D01*
X148904761Y-121385714D02*
X147571428Y-121385714D01*
X146904761Y-121385714D02*
X147000000Y-121480952D01*
X147095238Y-121385714D01*
X147000000Y-121290476D01*
X146904761Y-121385714D01*
X147095238Y-121385714D01*
X149095238Y-120909523D02*
X149095238Y-119385714D01*
X147000000Y-117861904D02*
X146904761Y-118052380D01*
X146904761Y-118338095D01*
X147000000Y-118623809D01*
X147190476Y-118814285D01*
X147380952Y-118909523D01*
X147761904Y-119004761D01*
X148047619Y-119004761D01*
X148428571Y-118909523D01*
X148619047Y-118814285D01*
X148809523Y-118623809D01*
X148904761Y-118338095D01*
X148904761Y-118147619D01*
X148809523Y-117861904D01*
X148714285Y-117766666D01*
X148047619Y-117766666D01*
X148047619Y-118147619D01*
X148904761Y-116909523D02*
X146904761Y-116909523D01*
X146904761Y-116147619D01*
X147000000Y-115957142D01*
X147095238Y-115861904D01*
X147285714Y-115766666D01*
X147571428Y-115766666D01*
X147761904Y-115861904D01*
X147857142Y-115957142D01*
X147952380Y-116147619D01*
X147952380Y-116909523D01*
X148904761Y-114909523D02*
X146904761Y-114909523D01*
X146904761Y-113576190D02*
X146904761Y-113195238D01*
X147000000Y-113004761D01*
X147190476Y-112814285D01*
X147571428Y-112719047D01*
X148238095Y-112719047D01*
X148619047Y-112814285D01*
X148809523Y-113004761D01*
X148904761Y-113195238D01*
X148904761Y-113576190D01*
X148809523Y-113766666D01*
X148619047Y-113957142D01*
X148238095Y-114052380D01*
X147571428Y-114052380D01*
X147190476Y-113957142D01*
X147000000Y-113766666D01*
X146904761Y-113576190D01*
%TO.C,J4*%
X108216519Y-70502139D02*
X108216519Y-71216740D01*
X108168879Y-71359660D01*
X108073599Y-71454940D01*
X107930679Y-71502580D01*
X107835399Y-71502580D01*
X109121680Y-70835619D02*
X109121680Y-71502580D01*
X108883480Y-70454499D02*
X108645280Y-71169100D01*
X109264600Y-71169100D01*
%TO.C,J5*%
X96366666Y-70672380D02*
X96366666Y-71386666D01*
X96319047Y-71529523D01*
X96223809Y-71624761D01*
X96080952Y-71672380D01*
X95985714Y-71672380D01*
X97319047Y-70672380D02*
X96842857Y-70672380D01*
X96795238Y-71148571D01*
X96842857Y-71100952D01*
X96938095Y-71053333D01*
X97176190Y-71053333D01*
X97271428Y-71100952D01*
X97319047Y-71148571D01*
X97366666Y-71243809D01*
X97366666Y-71481904D01*
X97319047Y-71577142D01*
X97271428Y-71624761D01*
X97176190Y-71672380D01*
X96938095Y-71672380D01*
X96842857Y-71624761D01*
X96795238Y-71577142D01*
%TO.C,J8*%
X157816666Y-86122380D02*
X157816666Y-86836666D01*
X157769047Y-86979523D01*
X157673809Y-87074761D01*
X157530952Y-87122380D01*
X157435714Y-87122380D01*
X158435714Y-86550952D02*
X158340476Y-86503333D01*
X158292857Y-86455714D01*
X158245238Y-86360476D01*
X158245238Y-86312857D01*
X158292857Y-86217619D01*
X158340476Y-86170000D01*
X158435714Y-86122380D01*
X158626190Y-86122380D01*
X158721428Y-86170000D01*
X158769047Y-86217619D01*
X158816666Y-86312857D01*
X158816666Y-86360476D01*
X158769047Y-86455714D01*
X158721428Y-86503333D01*
X158626190Y-86550952D01*
X158435714Y-86550952D01*
X158340476Y-86598571D01*
X158292857Y-86646190D01*
X158245238Y-86741428D01*
X158245238Y-86931904D01*
X158292857Y-87027142D01*
X158340476Y-87074761D01*
X158435714Y-87122380D01*
X158626190Y-87122380D01*
X158721428Y-87074761D01*
X158769047Y-87027142D01*
X158816666Y-86931904D01*
X158816666Y-86741428D01*
X158769047Y-86646190D01*
X158721428Y-86598571D01*
X158626190Y-86550952D01*
%TO.C,J9*%
X98866666Y-92152380D02*
X98866666Y-92866666D01*
X98819047Y-93009523D01*
X98723809Y-93104761D01*
X98580952Y-93152380D01*
X98485714Y-93152380D01*
X99390476Y-93152380D02*
X99580952Y-93152380D01*
X99676190Y-93104761D01*
X99723809Y-93057142D01*
X99819047Y-92914285D01*
X99866666Y-92723809D01*
X99866666Y-92342857D01*
X99819047Y-92247619D01*
X99771428Y-92200000D01*
X99676190Y-92152380D01*
X99485714Y-92152380D01*
X99390476Y-92200000D01*
X99342857Y-92247619D01*
X99295238Y-92342857D01*
X99295238Y-92580952D01*
X99342857Y-92676190D01*
X99390476Y-92723809D01*
X99485714Y-92771428D01*
X99676190Y-92771428D01*
X99771428Y-92723809D01*
X99819047Y-92676190D01*
X99866666Y-92580952D01*
%TO.C,G\u002A\u002A\u002A*%
G36*
X96478678Y-82422307D02*
G01*
X96452618Y-82603122D01*
X96433913Y-82682230D01*
X96396438Y-82967956D01*
X96399719Y-83310742D01*
X96416350Y-83462991D01*
X96543250Y-84035107D01*
X96755630Y-84605095D01*
X97064772Y-85191671D01*
X97481964Y-85813551D01*
X98018487Y-86489453D01*
X98685628Y-87238092D01*
X98704960Y-87258848D01*
X99307724Y-87884316D01*
X99951292Y-88509359D01*
X100645340Y-89141235D01*
X101399546Y-89787204D01*
X102223586Y-90454525D01*
X103127137Y-91150457D01*
X104119876Y-91882257D01*
X105211480Y-92657187D01*
X106411625Y-93482502D01*
X107729989Y-94365465D01*
X109176249Y-95313332D01*
X110760080Y-96333364D01*
X111043200Y-96514143D01*
X111405934Y-96750092D01*
X111711083Y-96957346D01*
X111933000Y-97117806D01*
X112046044Y-97213371D01*
X112055150Y-97228398D01*
X112033135Y-97275418D01*
X112029734Y-97272761D01*
X111942096Y-97214767D01*
X111733798Y-97087005D01*
X111430617Y-96904739D01*
X111058329Y-96683229D01*
X110642713Y-96437740D01*
X110209545Y-96183534D01*
X109784601Y-95935872D01*
X109393659Y-95710018D01*
X109290948Y-95651134D01*
X108132421Y-94964432D01*
X106917719Y-94200507D01*
X105679278Y-93382033D01*
X104449532Y-92531682D01*
X103260916Y-91672125D01*
X102145865Y-90826036D01*
X101136814Y-90016087D01*
X100693063Y-89641136D01*
X99836590Y-88870340D01*
X99030909Y-88081225D01*
X98313902Y-87311863D01*
X97945947Y-86880361D01*
X97424652Y-86184872D01*
X96981698Y-85473906D01*
X96630394Y-84774881D01*
X96384053Y-84115217D01*
X96255986Y-83522334D01*
X96243178Y-83372861D01*
X96251001Y-83138535D01*
X96287880Y-82867285D01*
X96342784Y-82610930D01*
X96404685Y-82421291D01*
X96460871Y-82350099D01*
X96478678Y-82422307D01*
G37*
D13*
X96478678Y-82422307D02*
X96452618Y-82603122D01*
X96433913Y-82682230D01*
X96396438Y-82967956D01*
X96399719Y-83310742D01*
X96416350Y-83462991D01*
X96543250Y-84035107D01*
X96755630Y-84605095D01*
X97064772Y-85191671D01*
X97481964Y-85813551D01*
X98018487Y-86489453D01*
X98685628Y-87238092D01*
X98704960Y-87258848D01*
X99307724Y-87884316D01*
X99951292Y-88509359D01*
X100645340Y-89141235D01*
X101399546Y-89787204D01*
X102223586Y-90454525D01*
X103127137Y-91150457D01*
X104119876Y-91882257D01*
X105211480Y-92657187D01*
X106411625Y-93482502D01*
X107729989Y-94365465D01*
X109176249Y-95313332D01*
X110760080Y-96333364D01*
X111043200Y-96514143D01*
X111405934Y-96750092D01*
X111711083Y-96957346D01*
X111933000Y-97117806D01*
X112046044Y-97213371D01*
X112055150Y-97228398D01*
X112033135Y-97275418D01*
X112029734Y-97272761D01*
X111942096Y-97214767D01*
X111733798Y-97087005D01*
X111430617Y-96904739D01*
X111058329Y-96683229D01*
X110642713Y-96437740D01*
X110209545Y-96183534D01*
X109784601Y-95935872D01*
X109393659Y-95710018D01*
X109290948Y-95651134D01*
X108132421Y-94964432D01*
X106917719Y-94200507D01*
X105679278Y-93382033D01*
X104449532Y-92531682D01*
X103260916Y-91672125D01*
X102145865Y-90826036D01*
X101136814Y-90016087D01*
X100693063Y-89641136D01*
X99836590Y-88870340D01*
X99030909Y-88081225D01*
X98313902Y-87311863D01*
X97945947Y-86880361D01*
X97424652Y-86184872D01*
X96981698Y-85473906D01*
X96630394Y-84774881D01*
X96384053Y-84115217D01*
X96255986Y-83522334D01*
X96243178Y-83372861D01*
X96251001Y-83138535D01*
X96287880Y-82867285D01*
X96342784Y-82610930D01*
X96404685Y-82421291D01*
X96460871Y-82350099D01*
X96478678Y-82422307D01*
G36*
X101056698Y-80316703D02*
G01*
X101326859Y-80429978D01*
X101531142Y-80563573D01*
X101814850Y-80789392D01*
X102158374Y-81087940D01*
X102542106Y-81439716D01*
X102946441Y-81825225D01*
X103351772Y-82224965D01*
X103738491Y-82619443D01*
X104086992Y-82989160D01*
X104377668Y-83314616D01*
X104590911Y-83576316D01*
X104707114Y-83754761D01*
X104722699Y-83806896D01*
X104651285Y-84049884D01*
X104452924Y-84194560D01*
X104252305Y-84225975D01*
X104169421Y-84219663D01*
X104082613Y-84191137D01*
X103975010Y-84126006D01*
X103829735Y-84009878D01*
X103629918Y-83828363D01*
X103358683Y-83567072D01*
X102999159Y-83211613D01*
X102624826Y-82837970D01*
X102174583Y-82389270D01*
X101824558Y-82045553D01*
X101556369Y-81790942D01*
X101351632Y-81609560D01*
X101191960Y-81485534D01*
X101058970Y-81402985D01*
X100934277Y-81346038D01*
X100869725Y-81322353D01*
X100624849Y-81274233D01*
X100343806Y-81271335D01*
X100076524Y-81306680D01*
X99872932Y-81373293D01*
X99782959Y-81464198D01*
X99782133Y-81474304D01*
X99839697Y-81552677D01*
X100001850Y-81733529D01*
X100252783Y-82000266D01*
X100576687Y-82336298D01*
X100957752Y-82725031D01*
X101346693Y-83116414D01*
X101842541Y-83613509D01*
X102228826Y-84006522D01*
X102516219Y-84310610D01*
X102715393Y-84540925D01*
X102837018Y-84712622D01*
X102891767Y-84840856D01*
X102890311Y-84940782D01*
X102843323Y-85027555D01*
X102761473Y-85116329D01*
X102757672Y-85120090D01*
X102660064Y-85213705D01*
X102571479Y-85275718D01*
X102476453Y-85295858D01*
X102359522Y-85263860D01*
X102205221Y-85169455D01*
X101998085Y-85002375D01*
X101722649Y-84752353D01*
X101363450Y-84409121D01*
X100905023Y-83962410D01*
X100674672Y-83737060D01*
X100242275Y-83317052D01*
X99849575Y-82941393D01*
X99512566Y-82624915D01*
X99247243Y-82382453D01*
X99069600Y-82228840D01*
X98995632Y-82178912D01*
X98995037Y-82179301D01*
X98953928Y-82282263D01*
X98902038Y-82489516D01*
X98882949Y-82583418D01*
X98850692Y-82793019D01*
X98848598Y-82980284D01*
X98888775Y-83163705D01*
X98983330Y-83361772D01*
X99144372Y-83592973D01*
X99384008Y-83875799D01*
X99714346Y-84228739D01*
X100147494Y-84670285D01*
X100444743Y-84968410D01*
X100892935Y-85417654D01*
X101235004Y-85764492D01*
X101485212Y-86025606D01*
X101657823Y-86217673D01*
X101767098Y-86357375D01*
X101827300Y-86461391D01*
X101852693Y-86546401D01*
X101857570Y-86620710D01*
X101803264Y-86885676D01*
X101624000Y-87050363D01*
X101492317Y-87101486D01*
X101432613Y-87112350D01*
X101365145Y-87099286D01*
X101274775Y-87049098D01*
X101146368Y-86948589D01*
X100964786Y-86784564D01*
X100714894Y-86543824D01*
X100381553Y-86213176D01*
X99949629Y-85779422D01*
X99781165Y-85609680D01*
X99357228Y-85179059D01*
X98967475Y-84776923D01*
X98629734Y-84422163D01*
X98361831Y-84133672D01*
X98181594Y-83930340D01*
X98111909Y-83840717D01*
X97898981Y-83335927D01*
X97824081Y-82778555D01*
X97887955Y-82215160D01*
X98077797Y-81716870D01*
X98444582Y-81183989D01*
X98896393Y-80757788D01*
X99408369Y-80448113D01*
X99955650Y-80264809D01*
X100513379Y-80217724D01*
X101056698Y-80316703D01*
G37*
X101056698Y-80316703D02*
X101326859Y-80429978D01*
X101531142Y-80563573D01*
X101814850Y-80789392D01*
X102158374Y-81087940D01*
X102542106Y-81439716D01*
X102946441Y-81825225D01*
X103351772Y-82224965D01*
X103738491Y-82619443D01*
X104086992Y-82989160D01*
X104377668Y-83314616D01*
X104590911Y-83576316D01*
X104707114Y-83754761D01*
X104722699Y-83806896D01*
X104651285Y-84049884D01*
X104452924Y-84194560D01*
X104252305Y-84225975D01*
X104169421Y-84219663D01*
X104082613Y-84191137D01*
X103975010Y-84126006D01*
X103829735Y-84009878D01*
X103629918Y-83828363D01*
X103358683Y-83567072D01*
X102999159Y-83211613D01*
X102624826Y-82837970D01*
X102174583Y-82389270D01*
X101824558Y-82045553D01*
X101556369Y-81790942D01*
X101351632Y-81609560D01*
X101191960Y-81485534D01*
X101058970Y-81402985D01*
X100934277Y-81346038D01*
X100869725Y-81322353D01*
X100624849Y-81274233D01*
X100343806Y-81271335D01*
X100076524Y-81306680D01*
X99872932Y-81373293D01*
X99782959Y-81464198D01*
X99782133Y-81474304D01*
X99839697Y-81552677D01*
X100001850Y-81733529D01*
X100252783Y-82000266D01*
X100576687Y-82336298D01*
X100957752Y-82725031D01*
X101346693Y-83116414D01*
X101842541Y-83613509D01*
X102228826Y-84006522D01*
X102516219Y-84310610D01*
X102715393Y-84540925D01*
X102837018Y-84712622D01*
X102891767Y-84840856D01*
X102890311Y-84940782D01*
X102843323Y-85027555D01*
X102761473Y-85116329D01*
X102757672Y-85120090D01*
X102660064Y-85213705D01*
X102571479Y-85275718D01*
X102476453Y-85295858D01*
X102359522Y-85263860D01*
X102205221Y-85169455D01*
X101998085Y-85002375D01*
X101722649Y-84752353D01*
X101363450Y-84409121D01*
X100905023Y-83962410D01*
X100674672Y-83737060D01*
X100242275Y-83317052D01*
X99849575Y-82941393D01*
X99512566Y-82624915D01*
X99247243Y-82382453D01*
X99069600Y-82228840D01*
X98995632Y-82178912D01*
X98995037Y-82179301D01*
X98953928Y-82282263D01*
X98902038Y-82489516D01*
X98882949Y-82583418D01*
X98850692Y-82793019D01*
X98848598Y-82980284D01*
X98888775Y-83163705D01*
X98983330Y-83361772D01*
X99144372Y-83592973D01*
X99384008Y-83875799D01*
X99714346Y-84228739D01*
X100147494Y-84670285D01*
X100444743Y-84968410D01*
X100892935Y-85417654D01*
X101235004Y-85764492D01*
X101485212Y-86025606D01*
X101657823Y-86217673D01*
X101767098Y-86357375D01*
X101827300Y-86461391D01*
X101852693Y-86546401D01*
X101857570Y-86620710D01*
X101803264Y-86885676D01*
X101624000Y-87050363D01*
X101492317Y-87101486D01*
X101432613Y-87112350D01*
X101365145Y-87099286D01*
X101274775Y-87049098D01*
X101146368Y-86948589D01*
X100964786Y-86784564D01*
X100714894Y-86543824D01*
X100381553Y-86213176D01*
X99949629Y-85779422D01*
X99781165Y-85609680D01*
X99357228Y-85179059D01*
X98967475Y-84776923D01*
X98629734Y-84422163D01*
X98361831Y-84133672D01*
X98181594Y-83930340D01*
X98111909Y-83840717D01*
X97898981Y-83335927D01*
X97824081Y-82778555D01*
X97887955Y-82215160D01*
X98077797Y-81716870D01*
X98444582Y-81183989D01*
X98896393Y-80757788D01*
X99408369Y-80448113D01*
X99955650Y-80264809D01*
X100513379Y-80217724D01*
X101056698Y-80316703D01*
G36*
X105623235Y-84643223D02*
G01*
X105733218Y-84717994D01*
X105941439Y-84896843D01*
X106229335Y-85161240D01*
X106578347Y-85492661D01*
X106969915Y-85872576D01*
X107385477Y-86282456D01*
X107806474Y-86703774D01*
X108214346Y-87118002D01*
X108590532Y-87506613D01*
X108916472Y-87851076D01*
X109173605Y-88132865D01*
X109343370Y-88333452D01*
X109398052Y-88411470D01*
X109516214Y-88756698D01*
X109551311Y-89166373D01*
X109496670Y-89553816D01*
X109488131Y-89581537D01*
X109299570Y-89959428D01*
X109009725Y-90303196D01*
X108660175Y-90577481D01*
X108292499Y-90746922D01*
X108074449Y-90783788D01*
X107851152Y-90790307D01*
X107664270Y-90784284D01*
X107494917Y-90753292D01*
X107324208Y-90684901D01*
X107133259Y-90566685D01*
X106903184Y-90386214D01*
X106615099Y-90131059D01*
X106250119Y-89788793D01*
X105789360Y-89346987D01*
X105569409Y-89135181D01*
X103952963Y-87578604D01*
X103426772Y-88044925D01*
X103124017Y-88299086D01*
X102904022Y-88437878D01*
X102734027Y-88469742D01*
X102581273Y-88403121D01*
X102458991Y-88294286D01*
X102322814Y-88107956D01*
X102266477Y-87977920D01*
X102263403Y-87881118D01*
X102317999Y-87763708D01*
X102450180Y-87597871D01*
X102679861Y-87355783D01*
X102794229Y-87240627D01*
X103079246Y-86963227D01*
X103286469Y-86785853D01*
X103451829Y-86683067D01*
X103611257Y-86629435D01*
X103675020Y-86617110D01*
X103854650Y-86595670D01*
X104021142Y-86604011D01*
X104191742Y-86654276D01*
X104383698Y-86758611D01*
X104614256Y-86929162D01*
X104900662Y-87178072D01*
X105260163Y-87517489D01*
X105710005Y-87959554D01*
X106019220Y-88267888D01*
X107490640Y-89739307D01*
X107784539Y-89739307D01*
X108101479Y-89667834D01*
X108293421Y-89524325D01*
X108472974Y-89247060D01*
X108508402Y-89015444D01*
X108508402Y-88721545D01*
X104910857Y-85124000D01*
X105178158Y-84856699D01*
X105382138Y-84683027D01*
X105541948Y-84630222D01*
X105623235Y-84643223D01*
G37*
X105623235Y-84643223D02*
X105733218Y-84717994D01*
X105941439Y-84896843D01*
X106229335Y-85161240D01*
X106578347Y-85492661D01*
X106969915Y-85872576D01*
X107385477Y-86282456D01*
X107806474Y-86703774D01*
X108214346Y-87118002D01*
X108590532Y-87506613D01*
X108916472Y-87851076D01*
X109173605Y-88132865D01*
X109343370Y-88333452D01*
X109398052Y-88411470D01*
X109516214Y-88756698D01*
X109551311Y-89166373D01*
X109496670Y-89553816D01*
X109488131Y-89581537D01*
X109299570Y-89959428D01*
X109009725Y-90303196D01*
X108660175Y-90577481D01*
X108292499Y-90746922D01*
X108074449Y-90783788D01*
X107851152Y-90790307D01*
X107664270Y-90784284D01*
X107494917Y-90753292D01*
X107324208Y-90684901D01*
X107133259Y-90566685D01*
X106903184Y-90386214D01*
X106615099Y-90131059D01*
X106250119Y-89788793D01*
X105789360Y-89346987D01*
X105569409Y-89135181D01*
X103952963Y-87578604D01*
X103426772Y-88044925D01*
X103124017Y-88299086D01*
X102904022Y-88437878D01*
X102734027Y-88469742D01*
X102581273Y-88403121D01*
X102458991Y-88294286D01*
X102322814Y-88107956D01*
X102266477Y-87977920D01*
X102263403Y-87881118D01*
X102317999Y-87763708D01*
X102450180Y-87597871D01*
X102679861Y-87355783D01*
X102794229Y-87240627D01*
X103079246Y-86963227D01*
X103286469Y-86785853D01*
X103451829Y-86683067D01*
X103611257Y-86629435D01*
X103675020Y-86617110D01*
X103854650Y-86595670D01*
X104021142Y-86604011D01*
X104191742Y-86654276D01*
X104383698Y-86758611D01*
X104614256Y-86929162D01*
X104900662Y-87178072D01*
X105260163Y-87517489D01*
X105710005Y-87959554D01*
X106019220Y-88267888D01*
X107490640Y-89739307D01*
X107784539Y-89739307D01*
X108101479Y-89667834D01*
X108293421Y-89524325D01*
X108472974Y-89247060D01*
X108508402Y-89015444D01*
X108508402Y-88721545D01*
X104910857Y-85124000D01*
X105178158Y-84856699D01*
X105382138Y-84683027D01*
X105541948Y-84630222D01*
X105623235Y-84643223D01*
G36*
X110869568Y-89933472D02*
G01*
X111028418Y-90020975D01*
X111235129Y-90180108D01*
X111504240Y-90420592D01*
X111850287Y-90752151D01*
X112287809Y-91184506D01*
X112798859Y-91694899D01*
X113308387Y-92205413D01*
X113711539Y-92612716D01*
X114022367Y-92932632D01*
X114254922Y-93180992D01*
X114423257Y-93373624D01*
X114541423Y-93526357D01*
X114623471Y-93655018D01*
X114683453Y-93775437D01*
X114716641Y-93855215D01*
X114824326Y-94290793D01*
X114782733Y-94702611D01*
X114586283Y-95114298D01*
X114346799Y-95422798D01*
X113926962Y-95806626D01*
X113496667Y-96021994D01*
X113054192Y-96069554D01*
X112775236Y-96015737D01*
X112652524Y-95974185D01*
X112533560Y-95918925D01*
X112401046Y-95835515D01*
X112237679Y-95709515D01*
X112026159Y-95526485D01*
X111749185Y-95271984D01*
X111389455Y-94931571D01*
X110929672Y-94490807D01*
X110807892Y-94373664D01*
X109221380Y-92847020D01*
X108756021Y-93276655D01*
X108424834Y-93552446D01*
X108163797Y-93693581D01*
X107949645Y-93706642D01*
X107759107Y-93598204D01*
X107726834Y-93567604D01*
X107590712Y-93366963D01*
X107536828Y-93207418D01*
X107537310Y-93093936D01*
X107590082Y-92971460D01*
X107716727Y-92808538D01*
X107938828Y-92573712D01*
X108044910Y-92466913D01*
X108324722Y-92196153D01*
X108529084Y-92026272D01*
X108694838Y-91931403D01*
X108858830Y-91885684D01*
X108877067Y-91882739D01*
X109074032Y-91860003D01*
X109251833Y-91865165D01*
X109428311Y-91910428D01*
X109621306Y-92007994D01*
X109848659Y-92170065D01*
X110128208Y-92408842D01*
X110477794Y-92736528D01*
X110915257Y-93165324D01*
X111271779Y-93520633D01*
X111733171Y-93980964D01*
X112091593Y-94334853D01*
X112363186Y-94596216D01*
X112564087Y-94778972D01*
X112710438Y-94897036D01*
X112818379Y-94964326D01*
X112904048Y-94994761D01*
X112983586Y-95002256D01*
X112990042Y-95002282D01*
X113243479Y-94960161D01*
X113417064Y-94888165D01*
X113585485Y-94724750D01*
X113724788Y-94487905D01*
X113796655Y-94251994D01*
X113794799Y-94155045D01*
X113731996Y-94068578D01*
X113565441Y-93876866D01*
X113309773Y-93595732D01*
X112979630Y-93240999D01*
X112589652Y-92828487D01*
X112154478Y-92374022D01*
X111975325Y-92188468D01*
X110179274Y-90332549D01*
X110422041Y-90105302D01*
X110534817Y-90003513D01*
X110637305Y-89934464D01*
X110744043Y-89907875D01*
X110869568Y-89933472D01*
G37*
X110869568Y-89933472D02*
X111028418Y-90020975D01*
X111235129Y-90180108D01*
X111504240Y-90420592D01*
X111850287Y-90752151D01*
X112287809Y-91184506D01*
X112798859Y-91694899D01*
X113308387Y-92205413D01*
X113711539Y-92612716D01*
X114022367Y-92932632D01*
X114254922Y-93180992D01*
X114423257Y-93373624D01*
X114541423Y-93526357D01*
X114623471Y-93655018D01*
X114683453Y-93775437D01*
X114716641Y-93855215D01*
X114824326Y-94290793D01*
X114782733Y-94702611D01*
X114586283Y-95114298D01*
X114346799Y-95422798D01*
X113926962Y-95806626D01*
X113496667Y-96021994D01*
X113054192Y-96069554D01*
X112775236Y-96015737D01*
X112652524Y-95974185D01*
X112533560Y-95918925D01*
X112401046Y-95835515D01*
X112237679Y-95709515D01*
X112026159Y-95526485D01*
X111749185Y-95271984D01*
X111389455Y-94931571D01*
X110929672Y-94490807D01*
X110807892Y-94373664D01*
X109221380Y-92847020D01*
X108756021Y-93276655D01*
X108424834Y-93552446D01*
X108163797Y-93693581D01*
X107949645Y-93706642D01*
X107759107Y-93598204D01*
X107726834Y-93567604D01*
X107590712Y-93366963D01*
X107536828Y-93207418D01*
X107537310Y-93093936D01*
X107590082Y-92971460D01*
X107716727Y-92808538D01*
X107938828Y-92573712D01*
X108044910Y-92466913D01*
X108324722Y-92196153D01*
X108529084Y-92026272D01*
X108694838Y-91931403D01*
X108858830Y-91885684D01*
X108877067Y-91882739D01*
X109074032Y-91860003D01*
X109251833Y-91865165D01*
X109428311Y-91910428D01*
X109621306Y-92007994D01*
X109848659Y-92170065D01*
X110128208Y-92408842D01*
X110477794Y-92736528D01*
X110915257Y-93165324D01*
X111271779Y-93520633D01*
X111733171Y-93980964D01*
X112091593Y-94334853D01*
X112363186Y-94596216D01*
X112564087Y-94778972D01*
X112710438Y-94897036D01*
X112818379Y-94964326D01*
X112904048Y-94994761D01*
X112983586Y-95002256D01*
X112990042Y-95002282D01*
X113243479Y-94960161D01*
X113417064Y-94888165D01*
X113585485Y-94724750D01*
X113724788Y-94487905D01*
X113796655Y-94251994D01*
X113794799Y-94155045D01*
X113731996Y-94068578D01*
X113565441Y-93876866D01*
X113309773Y-93595732D01*
X112979630Y-93240999D01*
X112589652Y-92828487D01*
X112154478Y-92374022D01*
X111975325Y-92188468D01*
X110179274Y-90332549D01*
X110422041Y-90105302D01*
X110534817Y-90003513D01*
X110637305Y-89934464D01*
X110744043Y-89907875D01*
X110869568Y-89933472D01*
G36*
X115905576Y-100429242D02*
G01*
X116360227Y-100888365D01*
X116702247Y-101248204D01*
X116942067Y-101525795D01*
X117090115Y-101738173D01*
X117156823Y-101902373D01*
X117152618Y-102035431D01*
X117087932Y-102154380D01*
X117012848Y-102237776D01*
X116913589Y-102328945D01*
X116819042Y-102380797D01*
X116712619Y-102382277D01*
X116577735Y-102322329D01*
X116397800Y-102189898D01*
X116156229Y-101973932D01*
X115836434Y-101663373D01*
X115421829Y-101247167D01*
X115220181Y-101043011D01*
X114824021Y-100639467D01*
X114461587Y-100266348D01*
X114152168Y-99943830D01*
X113915058Y-99692085D01*
X113769550Y-99531294D01*
X113739422Y-99494430D01*
X113642736Y-99352640D01*
X113614103Y-99290474D01*
X113699096Y-99280324D01*
X113907009Y-99267918D01*
X114171136Y-99256775D01*
X114713789Y-99237455D01*
X115905576Y-100429242D01*
G37*
X115905576Y-100429242D02*
X116360227Y-100888365D01*
X116702247Y-101248204D01*
X116942067Y-101525795D01*
X117090115Y-101738173D01*
X117156823Y-101902373D01*
X117152618Y-102035431D01*
X117087932Y-102154380D01*
X117012848Y-102237776D01*
X116913589Y-102328945D01*
X116819042Y-102380797D01*
X116712619Y-102382277D01*
X116577735Y-102322329D01*
X116397800Y-102189898D01*
X116156229Y-101973932D01*
X115836434Y-101663373D01*
X115421829Y-101247167D01*
X115220181Y-101043011D01*
X114824021Y-100639467D01*
X114461587Y-100266348D01*
X114152168Y-99943830D01*
X113915058Y-99692085D01*
X113769550Y-99531294D01*
X113739422Y-99494430D01*
X113642736Y-99352640D01*
X113614103Y-99290474D01*
X113699096Y-99280324D01*
X113907009Y-99267918D01*
X114171136Y-99256775D01*
X114713789Y-99237455D01*
X115905576Y-100429242D01*
G36*
X114111317Y-97595184D02*
G01*
X114469272Y-97823786D01*
X114631434Y-98003043D01*
X114800821Y-98184882D01*
X115040786Y-98361455D01*
X115388579Y-98558527D01*
X115562444Y-98646981D01*
X115942355Y-98852538D01*
X116269742Y-99060083D01*
X116525304Y-99253253D01*
X116689738Y-99415682D01*
X116743742Y-99531004D01*
X116668015Y-99582855D01*
X116666446Y-99583007D01*
X116491574Y-99565972D01*
X116227887Y-99504985D01*
X116038640Y-99447797D01*
X115755673Y-99360734D01*
X115517399Y-99299555D01*
X115418294Y-99282333D01*
X115234658Y-99237153D01*
X114994791Y-99144068D01*
X114949794Y-99123216D01*
X114667915Y-99041943D01*
X114332560Y-99017015D01*
X114229522Y-99023710D01*
X113945904Y-99040086D01*
X113712838Y-99005386D01*
X113456726Y-98902777D01*
X113263604Y-98802815D01*
X113162880Y-98741252D01*
X113171122Y-98708508D01*
X113310727Y-98693542D01*
X113497002Y-98687770D01*
X113757924Y-98668865D01*
X113879533Y-98621553D01*
X113894332Y-98548154D01*
X113924472Y-98395634D01*
X114027862Y-98237892D01*
X114154630Y-98049036D01*
X114143867Y-97876676D01*
X113991766Y-97669831D01*
X113984883Y-97662458D01*
X113811078Y-97477052D01*
X114111317Y-97595184D01*
G37*
X114111317Y-97595184D02*
X114469272Y-97823786D01*
X114631434Y-98003043D01*
X114800821Y-98184882D01*
X115040786Y-98361455D01*
X115388579Y-98558527D01*
X115562444Y-98646981D01*
X115942355Y-98852538D01*
X116269742Y-99060083D01*
X116525304Y-99253253D01*
X116689738Y-99415682D01*
X116743742Y-99531004D01*
X116668015Y-99582855D01*
X116666446Y-99583007D01*
X116491574Y-99565972D01*
X116227887Y-99504985D01*
X116038640Y-99447797D01*
X115755673Y-99360734D01*
X115517399Y-99299555D01*
X115418294Y-99282333D01*
X115234658Y-99237153D01*
X114994791Y-99144068D01*
X114949794Y-99123216D01*
X114667915Y-99041943D01*
X114332560Y-99017015D01*
X114229522Y-99023710D01*
X113945904Y-99040086D01*
X113712838Y-99005386D01*
X113456726Y-98902777D01*
X113263604Y-98802815D01*
X113162880Y-98741252D01*
X113171122Y-98708508D01*
X113310727Y-98693542D01*
X113497002Y-98687770D01*
X113757924Y-98668865D01*
X113879533Y-98621553D01*
X113894332Y-98548154D01*
X113924472Y-98395634D01*
X114027862Y-98237892D01*
X114154630Y-98049036D01*
X114143867Y-97876676D01*
X113991766Y-97669831D01*
X113984883Y-97662458D01*
X113811078Y-97477052D01*
X114111317Y-97595184D01*
G36*
X112244470Y-97285026D02*
G01*
X112345174Y-97371456D01*
X112354492Y-97404500D01*
X112309426Y-97413856D01*
X112244470Y-97357367D01*
X112195209Y-97278864D01*
X112244470Y-97285026D01*
G37*
X112244470Y-97285026D02*
X112345174Y-97371456D01*
X112354492Y-97404500D01*
X112309426Y-97413856D01*
X112244470Y-97357367D01*
X112195209Y-97278864D01*
X112244470Y-97285026D01*
G36*
X112603943Y-97486819D02*
G01*
X112775767Y-97568852D01*
X112846925Y-97628673D01*
X112794834Y-97643700D01*
X112753614Y-97636491D01*
X112576171Y-97558326D01*
X112519266Y-97511629D01*
X112500558Y-97458734D01*
X112603943Y-97486819D01*
G37*
X112603943Y-97486819D02*
X112775767Y-97568852D01*
X112846925Y-97628673D01*
X112794834Y-97643700D01*
X112753614Y-97636491D01*
X112576171Y-97558326D01*
X112519266Y-97511629D01*
X112500558Y-97458734D01*
X112603943Y-97486819D01*
G36*
X116223343Y-95132944D02*
G01*
X116345716Y-95241755D01*
X116463488Y-95377016D01*
X116519655Y-95506713D01*
X116503528Y-95651756D01*
X116404414Y-95833048D01*
X116211624Y-96071499D01*
X115914468Y-96388013D01*
X115593889Y-96712003D01*
X114671008Y-97634883D01*
X114387746Y-97518573D01*
X114077457Y-97385033D01*
X113899858Y-97287376D01*
X113827987Y-97205026D01*
X113834888Y-97117412D01*
X113841447Y-97101652D01*
X113919608Y-96998105D01*
X114096423Y-96799657D01*
X114349748Y-96530075D01*
X114657442Y-96213126D01*
X114849627Y-96019424D01*
X115248569Y-95625778D01*
X115552066Y-95344760D01*
X115780704Y-95165669D01*
X115955071Y-95077804D01*
X116095756Y-95070462D01*
X116223343Y-95132944D01*
G37*
X116223343Y-95132944D02*
X116345716Y-95241755D01*
X116463488Y-95377016D01*
X116519655Y-95506713D01*
X116503528Y-95651756D01*
X116404414Y-95833048D01*
X116211624Y-96071499D01*
X115914468Y-96388013D01*
X115593889Y-96712003D01*
X114671008Y-97634883D01*
X114387746Y-97518573D01*
X114077457Y-97385033D01*
X113899858Y-97287376D01*
X113827987Y-97205026D01*
X113834888Y-97117412D01*
X113841447Y-97101652D01*
X113919608Y-96998105D01*
X114096423Y-96799657D01*
X114349748Y-96530075D01*
X114657442Y-96213126D01*
X114849627Y-96019424D01*
X115248569Y-95625778D01*
X115552066Y-95344760D01*
X115780704Y-95165669D01*
X115955071Y-95077804D01*
X116095756Y-95070462D01*
X116223343Y-95132944D01*
D14*
%TO.C,J3*%
X131095000Y-69555000D02*
X138835000Y-69555000D01*
X132425000Y-74755000D02*
X131095000Y-74755000D01*
X133695000Y-72155000D02*
X131095000Y-72155000D01*
X133695000Y-74755000D02*
X133695000Y-72155000D01*
X131095000Y-74755000D02*
X131095000Y-73425000D01*
X131095000Y-72155000D02*
X131095000Y-69555000D01*
X138835000Y-74755000D02*
X138835000Y-69555000D01*
X133695000Y-74755000D02*
X138835000Y-74755000D01*
%TO.C,J1*%
X96670000Y-108470000D02*
X96670000Y-121230000D01*
X99330000Y-108470000D02*
X99330000Y-121230000D01*
X96670000Y-121230000D02*
X99330000Y-121230000D01*
X96670000Y-105870000D02*
X98000000Y-105870000D01*
X96670000Y-107200000D02*
X96670000Y-105870000D01*
X96670000Y-108470000D02*
X99330000Y-108470000D01*
%TO.C,J2*%
X152270000Y-80670000D02*
X152270000Y-78070000D01*
X154870000Y-78070000D02*
X154870000Y-128990000D01*
X152270000Y-78070000D02*
X154870000Y-78070000D01*
X149670000Y-78070000D02*
X151000000Y-78070000D01*
X149670000Y-80670000D02*
X149670000Y-128990000D01*
X149670000Y-80670000D02*
X152270000Y-80670000D01*
X149670000Y-79400000D02*
X149670000Y-78070000D01*
X149670000Y-128990000D02*
X154870000Y-128990000D01*
D15*
%TO.C,J4*%
X121250000Y-83450000D02*
X121250000Y-65250000D01*
X118580000Y-85760000D02*
X117310000Y-85760000D01*
X121250000Y-83450000D02*
X119278000Y-83450000D01*
X105750000Y-65250000D02*
X105750000Y-83450000D01*
X116040000Y-85760000D02*
X117310000Y-85760000D01*
X117310000Y-85760000D02*
X117310000Y-87030000D01*
X112078000Y-83450000D02*
X114922000Y-83450000D01*
X117310000Y-85760000D02*
X117310000Y-84490000D01*
X105750000Y-83450000D02*
X107722000Y-83450000D01*
X121250000Y-65250000D02*
X105750000Y-65250000D01*
D14*
%TO.C,J5*%
X95370000Y-73550000D02*
X95370000Y-72220000D01*
X95370000Y-72220000D02*
X96700000Y-72220000D01*
X95370000Y-74820000D02*
X95370000Y-79960000D01*
X98030000Y-74820000D02*
X98030000Y-79960000D01*
X95370000Y-74820000D02*
X98030000Y-74820000D01*
X95370000Y-79960000D02*
X98030000Y-79960000D01*
%TO.C,J8*%
X156820000Y-90270000D02*
X156820000Y-97950000D01*
X159480000Y-90270000D02*
X159480000Y-97950000D01*
X156820000Y-87670000D02*
X158150000Y-87670000D01*
X156820000Y-90270000D02*
X159480000Y-90270000D01*
X156820000Y-97950000D02*
X159480000Y-97950000D01*
X156820000Y-89000000D02*
X156820000Y-87670000D01*
%TO.C,J9*%
X95270000Y-97950000D02*
X97930000Y-97950000D01*
X95270000Y-87670000D02*
X96600000Y-87670000D01*
X97930000Y-90270000D02*
X97930000Y-97950000D01*
X95270000Y-90270000D02*
X95270000Y-97950000D01*
X95270000Y-89000000D02*
X95270000Y-87670000D01*
X95270000Y-90270000D02*
X97930000Y-90270000D01*
%TD*%
M02*
