M48
; DRILL file {KiCad 6.0.8-f2edbf62ab~116~ubuntu22.04.1} date Wed 23 Nov 2022 04:02:52 AM EST
; FORMAT={-:-/ absolute / inch / decimal}
; #@! TF.CreationDate,2022-11-23T04:02:52-05:00
; #@! TF.GenerationSoftware,Kicad,Pcbnew,6.0.8-f2edbf62ab~116~ubuntu22.04.1
; #@! TF.FileFunction,Plated,1,2,PTH
FMAT,2
INCH
; #@! TA.AperFunction,Plated,PTH,ComponentDrill
T1C0.0236
; #@! TA.AperFunction,Plated,PTH,ComponentDrill
T2C0.0394
; #@! TA.AperFunction,Plated,PTH,ComponentDrill
T3C0.1000
; #@! TA.AperFunction,Plated,PTH,ComponentDrill
T4C0.1063
%
G90
G05
T2
X3.8031Y-3.5039
X3.8031Y-3.6039
X3.8031Y-3.7039
X3.8031Y-3.8039
X3.8071Y-2.8957
X3.8071Y-2.9957
X3.8071Y-3.0957
X3.8583Y-4.2205
X3.8583Y-4.3205
X3.8583Y-4.4205
X3.8583Y-4.5205
X3.8583Y-4.6205
X3.8583Y-4.7205
X5.2136Y-2.7907
X5.2136Y-2.8907
X5.3136Y-2.7907
X5.3136Y-2.8907
X5.4136Y-2.7907
X5.4136Y-2.8907
X5.9449Y-3.126
X5.9449Y-3.226
X5.9449Y-3.326
X5.9449Y-3.426
X5.9449Y-3.526
X5.9449Y-3.626
X5.9449Y-3.726
X5.9449Y-3.826
X5.9449Y-3.926
X5.9449Y-4.026
X5.9449Y-4.126
X5.9449Y-4.226
X5.9449Y-4.326
X5.9449Y-4.426
X5.9449Y-4.526
X5.9449Y-4.626
X5.9449Y-4.726
X5.9449Y-4.826
X5.9449Y-4.926
X5.9449Y-5.026
X6.0449Y-3.126
X6.0449Y-3.226
X6.0449Y-3.326
X6.0449Y-3.426
X6.0449Y-3.526
X6.0449Y-3.626
X6.0449Y-3.726
X6.0449Y-3.826
X6.0449Y-3.926
X6.0449Y-4.026
X6.0449Y-4.126
X6.0449Y-4.226
X6.0449Y-4.326
X6.0449Y-4.426
X6.0449Y-4.526
X6.0449Y-4.626
X6.0449Y-4.726
X6.0449Y-4.826
X6.0449Y-4.926
X6.0449Y-5.026
X6.2264Y-3.5039
X6.2264Y-3.6039
X6.2264Y-3.7039
X6.2264Y-3.8039
T3
X4.8189Y-3.4488
X4.8189Y-5.2106
X5.5847Y-5.2061
X5.5866Y-3.4488
T4
X4.3268Y-3.2126
X4.6102Y-3.2126
T1
G00X4.2028Y-2.9547
M15
G01X4.2028Y-2.998
M16
G05
G00X4.7343Y-2.9547
M15
G01X4.7343Y-2.998
M16
G05
T0
M30
