%TF.GenerationSoftware,KiCad,Pcbnew,6.0.8-f2edbf62ab~116~ubuntu22.04.1*%
%TF.CreationDate,2022-11-23T04:02:51-05:00*%
%TF.ProjectId,Pi_HAT_Simple_V3,50695f48-4154-45f5-9369-6d706c655f56,rev?*%
%TF.SameCoordinates,Original*%
%TF.FileFunction,Drillmap*%
%TF.FilePolarity,Positive*%
%FSLAX45Y45*%
G04 Gerber Fmt 4.5, Leading zero omitted, Abs format (unit mm)*
G04 Created by KiCad (PCBNEW 6.0.8-f2edbf62ab~116~ubuntu22.04.1) date 2022-11-23 04:02:51*
%MOMM*%
%LPD*%
G01*
G04 APERTURE LIST*
%ADD10C,0.100000*%
%ADD11C,0.200000*%
%ADD12C,0.060000*%
%ADD13C,0.254000*%
%ADD14C,0.270000*%
G04 APERTURE END LIST*
D10*
X9446066Y-6476250D02*
X16019283Y-6472408D01*
X9446066Y-6476246D02*
G75*
G03*
X9296066Y-6626250I4J-150004D01*
G01*
X9310000Y-13450000D02*
X9296066Y-6626250D01*
X16020717Y-13597597D02*
G75*
G03*
X16170717Y-13447592I-7J150007D01*
G01*
X16169283Y-6622408D02*
X16170717Y-13447592D01*
X9310000Y-13450000D02*
G75*
G03*
X9460000Y-13600000I150000J0D01*
G01*
X16169282Y-6622408D02*
G75*
G03*
X16019283Y-6472408I-150002J-2D01*
G01*
X16020717Y-13597592D02*
X9460000Y-13600000D01*
D11*
D12*
X10645000Y-7530000D02*
X10705000Y-7590000D01*
X10705000Y-7530000D02*
X10645000Y-7590000D01*
D11*
X10645000Y-7505000D02*
X10645000Y-7615000D01*
X10705000Y-7505000D02*
X10705000Y-7615000D01*
X10645000Y-7615000D02*
G75*
G03*
X10705000Y-7615000I30000J0D01*
G01*
X10705000Y-7505000D02*
G75*
G03*
X10645000Y-7505000I-30000J0D01*
G01*
D12*
X11995000Y-7530000D02*
X12055000Y-7590000D01*
X12055000Y-7530000D02*
X11995000Y-7590000D01*
D11*
X11995000Y-7505000D02*
X11995000Y-7615000D01*
X12055000Y-7505000D02*
X12055000Y-7615000D01*
X11995000Y-7615000D02*
G75*
G03*
X12055000Y-7615000I30000J0D01*
G01*
X12055000Y-7505000D02*
G75*
G03*
X11995000Y-7505000I-30000J0D01*
G01*
D10*
X9710000Y-8900000D02*
G75*
G03*
X9710000Y-8900000I-50000J0D01*
G01*
X9710000Y-9154000D02*
G75*
G03*
X9710000Y-9154000I-50000J0D01*
G01*
X9710000Y-9408000D02*
G75*
G03*
X9710000Y-9408000I-50000J0D01*
G01*
X9710000Y-9662000D02*
G75*
G03*
X9710000Y-9662000I-50000J0D01*
G01*
X9720000Y-7355000D02*
G75*
G03*
X9720000Y-7355000I-50000J0D01*
G01*
X9720000Y-7609000D02*
G75*
G03*
X9720000Y-7609000I-50000J0D01*
G01*
X9720000Y-7863000D02*
G75*
G03*
X9720000Y-7863000I-50000J0D01*
G01*
X9850000Y-10720000D02*
G75*
G03*
X9850000Y-10720000I-50000J0D01*
G01*
X9850000Y-10974000D02*
G75*
G03*
X9850000Y-10974000I-50000J0D01*
G01*
X9850000Y-11228000D02*
G75*
G03*
X9850000Y-11228000I-50000J0D01*
G01*
X9850000Y-11482000D02*
G75*
G03*
X9850000Y-11482000I-50000J0D01*
G01*
X9850000Y-11736000D02*
G75*
G03*
X9850000Y-11736000I-50000J0D01*
G01*
X9850000Y-11990000D02*
G75*
G03*
X9850000Y-11990000I-50000J0D01*
G01*
X13292500Y-7088500D02*
G75*
G03*
X13292500Y-7088500I-50000J0D01*
G01*
X13292500Y-7342500D02*
G75*
G03*
X13292500Y-7342500I-50000J0D01*
G01*
X13546500Y-7088500D02*
G75*
G03*
X13546500Y-7088500I-50000J0D01*
G01*
X13546500Y-7342500D02*
G75*
G03*
X13546500Y-7342500I-50000J0D01*
G01*
X13800500Y-7088500D02*
G75*
G03*
X13800500Y-7088500I-50000J0D01*
G01*
X13800500Y-7342500D02*
G75*
G03*
X13800500Y-7342500I-50000J0D01*
G01*
X15150000Y-7940000D02*
G75*
G03*
X15150000Y-7940000I-50000J0D01*
G01*
X15150000Y-8194000D02*
G75*
G03*
X15150000Y-8194000I-50000J0D01*
G01*
X15150000Y-8448000D02*
G75*
G03*
X15150000Y-8448000I-50000J0D01*
G01*
X15150000Y-8702000D02*
G75*
G03*
X15150000Y-8702000I-50000J0D01*
G01*
X15150000Y-8956000D02*
G75*
G03*
X15150000Y-8956000I-50000J0D01*
G01*
X15150000Y-9210000D02*
G75*
G03*
X15150000Y-9210000I-50000J0D01*
G01*
X15150000Y-9464000D02*
G75*
G03*
X15150000Y-9464000I-50000J0D01*
G01*
X15150000Y-9718000D02*
G75*
G03*
X15150000Y-9718000I-50000J0D01*
G01*
X15150000Y-9972000D02*
G75*
G03*
X15150000Y-9972000I-50000J0D01*
G01*
X15150000Y-10226000D02*
G75*
G03*
X15150000Y-10226000I-50000J0D01*
G01*
X15150000Y-10480000D02*
G75*
G03*
X15150000Y-10480000I-50000J0D01*
G01*
X15150000Y-10734000D02*
G75*
G03*
X15150000Y-10734000I-50000J0D01*
G01*
X15150000Y-10988000D02*
G75*
G03*
X15150000Y-10988000I-50000J0D01*
G01*
X15150000Y-11242000D02*
G75*
G03*
X15150000Y-11242000I-50000J0D01*
G01*
X15150000Y-11496000D02*
G75*
G03*
X15150000Y-11496000I-50000J0D01*
G01*
X15150000Y-11750000D02*
G75*
G03*
X15150000Y-11750000I-50000J0D01*
G01*
X15150000Y-12004000D02*
G75*
G03*
X15150000Y-12004000I-50000J0D01*
G01*
X15150000Y-12258000D02*
G75*
G03*
X15150000Y-12258000I-50000J0D01*
G01*
X15150000Y-12512000D02*
G75*
G03*
X15150000Y-12512000I-50000J0D01*
G01*
X15150000Y-12766000D02*
G75*
G03*
X15150000Y-12766000I-50000J0D01*
G01*
X15404000Y-7940000D02*
G75*
G03*
X15404000Y-7940000I-50000J0D01*
G01*
X15404000Y-8194000D02*
G75*
G03*
X15404000Y-8194000I-50000J0D01*
G01*
X15404000Y-8448000D02*
G75*
G03*
X15404000Y-8448000I-50000J0D01*
G01*
X15404000Y-8702000D02*
G75*
G03*
X15404000Y-8702000I-50000J0D01*
G01*
X15404000Y-8956000D02*
G75*
G03*
X15404000Y-8956000I-50000J0D01*
G01*
X15404000Y-9210000D02*
G75*
G03*
X15404000Y-9210000I-50000J0D01*
G01*
X15404000Y-9464000D02*
G75*
G03*
X15404000Y-9464000I-50000J0D01*
G01*
X15404000Y-9718000D02*
G75*
G03*
X15404000Y-9718000I-50000J0D01*
G01*
X15404000Y-9972000D02*
G75*
G03*
X15404000Y-9972000I-50000J0D01*
G01*
X15404000Y-10226000D02*
G75*
G03*
X15404000Y-10226000I-50000J0D01*
G01*
X15404000Y-10480000D02*
G75*
G03*
X15404000Y-10480000I-50000J0D01*
G01*
X15404000Y-10734000D02*
G75*
G03*
X15404000Y-10734000I-50000J0D01*
G01*
X15404000Y-10988000D02*
G75*
G03*
X15404000Y-10988000I-50000J0D01*
G01*
X15404000Y-11242000D02*
G75*
G03*
X15404000Y-11242000I-50000J0D01*
G01*
X15404000Y-11496000D02*
G75*
G03*
X15404000Y-11496000I-50000J0D01*
G01*
X15404000Y-11750000D02*
G75*
G03*
X15404000Y-11750000I-50000J0D01*
G01*
X15404000Y-12004000D02*
G75*
G03*
X15404000Y-12004000I-50000J0D01*
G01*
X15404000Y-12258000D02*
G75*
G03*
X15404000Y-12258000I-50000J0D01*
G01*
X15404000Y-12512000D02*
G75*
G03*
X15404000Y-12512000I-50000J0D01*
G01*
X15404000Y-12766000D02*
G75*
G03*
X15404000Y-12766000I-50000J0D01*
G01*
X15865000Y-8900000D02*
G75*
G03*
X15865000Y-8900000I-50000J0D01*
G01*
X15865000Y-9154000D02*
G75*
G03*
X15865000Y-9154000I-50000J0D01*
G01*
X15865000Y-9408000D02*
G75*
G03*
X15865000Y-9408000I-50000J0D01*
G01*
X15865000Y-9662000D02*
G75*
G03*
X15865000Y-9662000I-50000J0D01*
G01*
D13*
X12240000Y-8633000D02*
X12240000Y-8887000D01*
X12113000Y-8760000D02*
X12367000Y-8760000D01*
X12240000Y-13108000D02*
X12240000Y-13362000D01*
X12113000Y-13235000D02*
X12367000Y-13235000D01*
X14185200Y-13096600D02*
X14185200Y-13350600D01*
X14058200Y-13223600D02*
X14312200Y-13223600D01*
X14190000Y-8633000D02*
X14190000Y-8887000D01*
X14063000Y-8760000D02*
X14317000Y-8760000D01*
D14*
X11085460Y-8255460D02*
X11085460Y-8064540D01*
X10894540Y-8064540D01*
X10894540Y-8255460D01*
X11085460Y-8255460D01*
X11805460Y-8255460D02*
X11805460Y-8064540D01*
X11614540Y-8064540D01*
X11614540Y-8255460D01*
X11805460Y-8255460D01*
D11*
X9548685Y-13915476D02*
X9548685Y-13715476D01*
X9596304Y-13715476D01*
X9624876Y-13725000D01*
X9643923Y-13744048D01*
X9653447Y-13763095D01*
X9662971Y-13801190D01*
X9662971Y-13829762D01*
X9653447Y-13867857D01*
X9643923Y-13886905D01*
X9624876Y-13905952D01*
X9596304Y-13915476D01*
X9548685Y-13915476D01*
X9748685Y-13915476D02*
X9748685Y-13782143D01*
X9748685Y-13820238D02*
X9758209Y-13801190D01*
X9767733Y-13791667D01*
X9786780Y-13782143D01*
X9805828Y-13782143D01*
X9872495Y-13915476D02*
X9872495Y-13782143D01*
X9872495Y-13715476D02*
X9862971Y-13725000D01*
X9872495Y-13734524D01*
X9882018Y-13725000D01*
X9872495Y-13715476D01*
X9872495Y-13734524D01*
X9996304Y-13915476D02*
X9977256Y-13905952D01*
X9967733Y-13886905D01*
X9967733Y-13715476D01*
X10101066Y-13915476D02*
X10082018Y-13905952D01*
X10072495Y-13886905D01*
X10072495Y-13715476D01*
X10329637Y-13915476D02*
X10329637Y-13715476D01*
X10396304Y-13858333D01*
X10462971Y-13715476D01*
X10462971Y-13915476D01*
X10643923Y-13915476D02*
X10643923Y-13810714D01*
X10634399Y-13791667D01*
X10615352Y-13782143D01*
X10577256Y-13782143D01*
X10558209Y-13791667D01*
X10643923Y-13905952D02*
X10624876Y-13915476D01*
X10577256Y-13915476D01*
X10558209Y-13905952D01*
X10548685Y-13886905D01*
X10548685Y-13867857D01*
X10558209Y-13848809D01*
X10577256Y-13839286D01*
X10624876Y-13839286D01*
X10643923Y-13829762D01*
X10739161Y-13782143D02*
X10739161Y-13982143D01*
X10739161Y-13791667D02*
X10758209Y-13782143D01*
X10796304Y-13782143D01*
X10815352Y-13791667D01*
X10824876Y-13801190D01*
X10834399Y-13820238D01*
X10834399Y-13877381D01*
X10824876Y-13896428D01*
X10815352Y-13905952D01*
X10796304Y-13915476D01*
X10758209Y-13915476D01*
X10739161Y-13905952D01*
X10920114Y-13896428D02*
X10929637Y-13905952D01*
X10920114Y-13915476D01*
X10910590Y-13905952D01*
X10920114Y-13896428D01*
X10920114Y-13915476D01*
X10920114Y-13791667D02*
X10929637Y-13801190D01*
X10920114Y-13810714D01*
X10910590Y-13801190D01*
X10920114Y-13791667D01*
X10920114Y-13810714D01*
D12*
X9231066Y-14215000D02*
X9291066Y-14275000D01*
X9291066Y-14215000D02*
X9231066Y-14275000D01*
D11*
X9586780Y-14135476D02*
X9605828Y-14135476D01*
X9624876Y-14145000D01*
X9634399Y-14154524D01*
X9643923Y-14173571D01*
X9653447Y-14211667D01*
X9653447Y-14259286D01*
X9643923Y-14297381D01*
X9634399Y-14316428D01*
X9624876Y-14325952D01*
X9605828Y-14335476D01*
X9586780Y-14335476D01*
X9567733Y-14325952D01*
X9558209Y-14316428D01*
X9548685Y-14297381D01*
X9539161Y-14259286D01*
X9539161Y-14211667D01*
X9548685Y-14173571D01*
X9558209Y-14154524D01*
X9567733Y-14145000D01*
X9586780Y-14135476D01*
X9739161Y-14316428D02*
X9748685Y-14325952D01*
X9739161Y-14335476D01*
X9729637Y-14325952D01*
X9739161Y-14316428D01*
X9739161Y-14335476D01*
X9920114Y-14135476D02*
X9882018Y-14135476D01*
X9862971Y-14145000D01*
X9853447Y-14154524D01*
X9834399Y-14183095D01*
X9824876Y-14221190D01*
X9824876Y-14297381D01*
X9834399Y-14316428D01*
X9843923Y-14325952D01*
X9862971Y-14335476D01*
X9901066Y-14335476D01*
X9920114Y-14325952D01*
X9929637Y-14316428D01*
X9939161Y-14297381D01*
X9939161Y-14249762D01*
X9929637Y-14230714D01*
X9920114Y-14221190D01*
X9901066Y-14211667D01*
X9862971Y-14211667D01*
X9843923Y-14221190D01*
X9834399Y-14230714D01*
X9824876Y-14249762D01*
X10062971Y-14135476D02*
X10082018Y-14135476D01*
X10101066Y-14145000D01*
X10110590Y-14154524D01*
X10120114Y-14173571D01*
X10129637Y-14211667D01*
X10129637Y-14259286D01*
X10120114Y-14297381D01*
X10110590Y-14316428D01*
X10101066Y-14325952D01*
X10082018Y-14335476D01*
X10062971Y-14335476D01*
X10043923Y-14325952D01*
X10034399Y-14316428D01*
X10024876Y-14297381D01*
X10015352Y-14259286D01*
X10015352Y-14211667D01*
X10024876Y-14173571D01*
X10034399Y-14154524D01*
X10043923Y-14145000D01*
X10062971Y-14135476D01*
X10253447Y-14135476D02*
X10272495Y-14135476D01*
X10291542Y-14145000D01*
X10301066Y-14154524D01*
X10310590Y-14173571D01*
X10320114Y-14211667D01*
X10320114Y-14259286D01*
X10310590Y-14297381D01*
X10301066Y-14316428D01*
X10291542Y-14325952D01*
X10272495Y-14335476D01*
X10253447Y-14335476D01*
X10234399Y-14325952D01*
X10224876Y-14316428D01*
X10215352Y-14297381D01*
X10205828Y-14259286D01*
X10205828Y-14211667D01*
X10215352Y-14173571D01*
X10224876Y-14154524D01*
X10234399Y-14145000D01*
X10253447Y-14135476D01*
X10405828Y-14335476D02*
X10405828Y-14202143D01*
X10405828Y-14221190D02*
X10415352Y-14211667D01*
X10434399Y-14202143D01*
X10462971Y-14202143D01*
X10482018Y-14211667D01*
X10491542Y-14230714D01*
X10491542Y-14335476D01*
X10491542Y-14230714D02*
X10501066Y-14211667D01*
X10520114Y-14202143D01*
X10548685Y-14202143D01*
X10567733Y-14211667D01*
X10577256Y-14230714D01*
X10577256Y-14335476D01*
X10672495Y-14335476D02*
X10672495Y-14202143D01*
X10672495Y-14221190D02*
X10682018Y-14211667D01*
X10701066Y-14202143D01*
X10729637Y-14202143D01*
X10748685Y-14211667D01*
X10758209Y-14230714D01*
X10758209Y-14335476D01*
X10758209Y-14230714D02*
X10767733Y-14211667D01*
X10786780Y-14202143D01*
X10815352Y-14202143D01*
X10834399Y-14211667D01*
X10843923Y-14230714D01*
X10843923Y-14335476D01*
X11234399Y-14125952D02*
X11062971Y-14383095D01*
X11491542Y-14135476D02*
X11510590Y-14135476D01*
X11529637Y-14145000D01*
X11539161Y-14154524D01*
X11548685Y-14173571D01*
X11558209Y-14211667D01*
X11558209Y-14259286D01*
X11548685Y-14297381D01*
X11539161Y-14316428D01*
X11529637Y-14325952D01*
X11510590Y-14335476D01*
X11491542Y-14335476D01*
X11472494Y-14325952D01*
X11462971Y-14316428D01*
X11453447Y-14297381D01*
X11443923Y-14259286D01*
X11443923Y-14211667D01*
X11453447Y-14173571D01*
X11462971Y-14154524D01*
X11472494Y-14145000D01*
X11491542Y-14135476D01*
X11643923Y-14316428D02*
X11653447Y-14325952D01*
X11643923Y-14335476D01*
X11634399Y-14325952D01*
X11643923Y-14316428D01*
X11643923Y-14335476D01*
X11777256Y-14135476D02*
X11796304Y-14135476D01*
X11815352Y-14145000D01*
X11824875Y-14154524D01*
X11834399Y-14173571D01*
X11843923Y-14211667D01*
X11843923Y-14259286D01*
X11834399Y-14297381D01*
X11824875Y-14316428D01*
X11815352Y-14325952D01*
X11796304Y-14335476D01*
X11777256Y-14335476D01*
X11758209Y-14325952D01*
X11748685Y-14316428D01*
X11739161Y-14297381D01*
X11729637Y-14259286D01*
X11729637Y-14211667D01*
X11739161Y-14173571D01*
X11748685Y-14154524D01*
X11758209Y-14145000D01*
X11777256Y-14135476D01*
X11920114Y-14154524D02*
X11929637Y-14145000D01*
X11948685Y-14135476D01*
X11996304Y-14135476D01*
X12015352Y-14145000D01*
X12024875Y-14154524D01*
X12034399Y-14173571D01*
X12034399Y-14192619D01*
X12024875Y-14221190D01*
X11910590Y-14335476D01*
X12034399Y-14335476D01*
X12101066Y-14135476D02*
X12224875Y-14135476D01*
X12158209Y-14211667D01*
X12186780Y-14211667D01*
X12205828Y-14221190D01*
X12215352Y-14230714D01*
X12224875Y-14249762D01*
X12224875Y-14297381D01*
X12215352Y-14316428D01*
X12205828Y-14325952D01*
X12186780Y-14335476D01*
X12129637Y-14335476D01*
X12110590Y-14325952D01*
X12101066Y-14316428D01*
X12396304Y-14135476D02*
X12358209Y-14135476D01*
X12339161Y-14145000D01*
X12329637Y-14154524D01*
X12310590Y-14183095D01*
X12301066Y-14221190D01*
X12301066Y-14297381D01*
X12310590Y-14316428D01*
X12320114Y-14325952D01*
X12339161Y-14335476D01*
X12377256Y-14335476D01*
X12396304Y-14325952D01*
X12405828Y-14316428D01*
X12415352Y-14297381D01*
X12415352Y-14249762D01*
X12405828Y-14230714D01*
X12396304Y-14221190D01*
X12377256Y-14211667D01*
X12339161Y-14211667D01*
X12320114Y-14221190D01*
X12310590Y-14230714D01*
X12301066Y-14249762D01*
X12491542Y-14135476D02*
X12491542Y-14173571D01*
X12567733Y-14135476D02*
X12567733Y-14173571D01*
X12862971Y-14411667D02*
X12853447Y-14402143D01*
X12834399Y-14373571D01*
X12824875Y-14354524D01*
X12815352Y-14325952D01*
X12805828Y-14278333D01*
X12805828Y-14240238D01*
X12815352Y-14192619D01*
X12824875Y-14164048D01*
X12834399Y-14145000D01*
X12853447Y-14116428D01*
X12862971Y-14106905D01*
X12977256Y-14135476D02*
X12996304Y-14135476D01*
X13015352Y-14145000D01*
X13024875Y-14154524D01*
X13034399Y-14173571D01*
X13043923Y-14211667D01*
X13043923Y-14259286D01*
X13034399Y-14297381D01*
X13024875Y-14316428D01*
X13015352Y-14325952D01*
X12996304Y-14335476D01*
X12977256Y-14335476D01*
X12958209Y-14325952D01*
X12948685Y-14316428D01*
X12939161Y-14297381D01*
X12929637Y-14259286D01*
X12929637Y-14211667D01*
X12939161Y-14173571D01*
X12948685Y-14154524D01*
X12958209Y-14145000D01*
X12977256Y-14135476D01*
X13282018Y-14335476D02*
X13282018Y-14135476D01*
X13367733Y-14335476D02*
X13367733Y-14230714D01*
X13358209Y-14211667D01*
X13339161Y-14202143D01*
X13310590Y-14202143D01*
X13291542Y-14211667D01*
X13282018Y-14221190D01*
X13491542Y-14335476D02*
X13472494Y-14325952D01*
X13462971Y-14316428D01*
X13453447Y-14297381D01*
X13453447Y-14240238D01*
X13462971Y-14221190D01*
X13472494Y-14211667D01*
X13491542Y-14202143D01*
X13520114Y-14202143D01*
X13539161Y-14211667D01*
X13548685Y-14221190D01*
X13558209Y-14240238D01*
X13558209Y-14297381D01*
X13548685Y-14316428D01*
X13539161Y-14325952D01*
X13520114Y-14335476D01*
X13491542Y-14335476D01*
X13672494Y-14335476D02*
X13653447Y-14325952D01*
X13643923Y-14306905D01*
X13643923Y-14135476D01*
X13824875Y-14325952D02*
X13805828Y-14335476D01*
X13767733Y-14335476D01*
X13748685Y-14325952D01*
X13739161Y-14306905D01*
X13739161Y-14230714D01*
X13748685Y-14211667D01*
X13767733Y-14202143D01*
X13805828Y-14202143D01*
X13824875Y-14211667D01*
X13834399Y-14230714D01*
X13834399Y-14249762D01*
X13739161Y-14268809D01*
X13910590Y-14325952D02*
X13929637Y-14335476D01*
X13967733Y-14335476D01*
X13986780Y-14325952D01*
X13996304Y-14306905D01*
X13996304Y-14297381D01*
X13986780Y-14278333D01*
X13967733Y-14268809D01*
X13939161Y-14268809D01*
X13920114Y-14259286D01*
X13910590Y-14240238D01*
X13910590Y-14230714D01*
X13920114Y-14211667D01*
X13939161Y-14202143D01*
X13967733Y-14202143D01*
X13986780Y-14211667D01*
X14234399Y-14259286D02*
X14386780Y-14259286D01*
X14310590Y-14335476D02*
X14310590Y-14183095D01*
X14624875Y-14154524D02*
X14634399Y-14145000D01*
X14653447Y-14135476D01*
X14701066Y-14135476D01*
X14720114Y-14145000D01*
X14729637Y-14154524D01*
X14739161Y-14173571D01*
X14739161Y-14192619D01*
X14729637Y-14221190D01*
X14615352Y-14335476D01*
X14739161Y-14335476D01*
X14967733Y-14325952D02*
X14986780Y-14335476D01*
X15024875Y-14335476D01*
X15043923Y-14325952D01*
X15053447Y-14306905D01*
X15053447Y-14297381D01*
X15043923Y-14278333D01*
X15024875Y-14268809D01*
X14996304Y-14268809D01*
X14977256Y-14259286D01*
X14967733Y-14240238D01*
X14967733Y-14230714D01*
X14977256Y-14211667D01*
X14996304Y-14202143D01*
X15024875Y-14202143D01*
X15043923Y-14211667D01*
X15167733Y-14335476D02*
X15148685Y-14325952D01*
X15139161Y-14306905D01*
X15139161Y-14135476D01*
X15272494Y-14335476D02*
X15253447Y-14325952D01*
X15243923Y-14316428D01*
X15234399Y-14297381D01*
X15234399Y-14240238D01*
X15243923Y-14221190D01*
X15253447Y-14211667D01*
X15272494Y-14202143D01*
X15301066Y-14202143D01*
X15320114Y-14211667D01*
X15329637Y-14221190D01*
X15339161Y-14240238D01*
X15339161Y-14297381D01*
X15329637Y-14316428D01*
X15320114Y-14325952D01*
X15301066Y-14335476D01*
X15272494Y-14335476D01*
X15396304Y-14202143D02*
X15472494Y-14202143D01*
X15424875Y-14135476D02*
X15424875Y-14306905D01*
X15434399Y-14325952D01*
X15453447Y-14335476D01*
X15472494Y-14335476D01*
X15529637Y-14325952D02*
X15548685Y-14335476D01*
X15586780Y-14335476D01*
X15605828Y-14325952D01*
X15615352Y-14306905D01*
X15615352Y-14297381D01*
X15605828Y-14278333D01*
X15586780Y-14268809D01*
X15558209Y-14268809D01*
X15539161Y-14259286D01*
X15529637Y-14240238D01*
X15529637Y-14230714D01*
X15539161Y-14211667D01*
X15558209Y-14202143D01*
X15586780Y-14202143D01*
X15605828Y-14211667D01*
X15682018Y-14411667D02*
X15691542Y-14402143D01*
X15710590Y-14373571D01*
X15720114Y-14354524D01*
X15729637Y-14325952D01*
X15739161Y-14278333D01*
X15739161Y-14240238D01*
X15729637Y-14192619D01*
X15720114Y-14164048D01*
X15710590Y-14145000D01*
X15691542Y-14116428D01*
X15682018Y-14106905D01*
D10*
X9291066Y-14509000D02*
G75*
G03*
X9291066Y-14509000I-50000J0D01*
G01*
D11*
X9653447Y-14599476D02*
X9539161Y-14599476D01*
X9596304Y-14599476D02*
X9596304Y-14399476D01*
X9577256Y-14428048D01*
X9558209Y-14447095D01*
X9539161Y-14456619D01*
X9739161Y-14580428D02*
X9748685Y-14589952D01*
X9739161Y-14599476D01*
X9729637Y-14589952D01*
X9739161Y-14580428D01*
X9739161Y-14599476D01*
X9872495Y-14399476D02*
X9891542Y-14399476D01*
X9910590Y-14409000D01*
X9920114Y-14418524D01*
X9929637Y-14437571D01*
X9939161Y-14475667D01*
X9939161Y-14523286D01*
X9929637Y-14561381D01*
X9920114Y-14580428D01*
X9910590Y-14589952D01*
X9891542Y-14599476D01*
X9872495Y-14599476D01*
X9853447Y-14589952D01*
X9843923Y-14580428D01*
X9834399Y-14561381D01*
X9824876Y-14523286D01*
X9824876Y-14475667D01*
X9834399Y-14437571D01*
X9843923Y-14418524D01*
X9853447Y-14409000D01*
X9872495Y-14399476D01*
X10062971Y-14399476D02*
X10082018Y-14399476D01*
X10101066Y-14409000D01*
X10110590Y-14418524D01*
X10120114Y-14437571D01*
X10129637Y-14475667D01*
X10129637Y-14523286D01*
X10120114Y-14561381D01*
X10110590Y-14580428D01*
X10101066Y-14589952D01*
X10082018Y-14599476D01*
X10062971Y-14599476D01*
X10043923Y-14589952D01*
X10034399Y-14580428D01*
X10024876Y-14561381D01*
X10015352Y-14523286D01*
X10015352Y-14475667D01*
X10024876Y-14437571D01*
X10034399Y-14418524D01*
X10043923Y-14409000D01*
X10062971Y-14399476D01*
X10253447Y-14399476D02*
X10272495Y-14399476D01*
X10291542Y-14409000D01*
X10301066Y-14418524D01*
X10310590Y-14437571D01*
X10320114Y-14475667D01*
X10320114Y-14523286D01*
X10310590Y-14561381D01*
X10301066Y-14580428D01*
X10291542Y-14589952D01*
X10272495Y-14599476D01*
X10253447Y-14599476D01*
X10234399Y-14589952D01*
X10224876Y-14580428D01*
X10215352Y-14561381D01*
X10205828Y-14523286D01*
X10205828Y-14475667D01*
X10215352Y-14437571D01*
X10224876Y-14418524D01*
X10234399Y-14409000D01*
X10253447Y-14399476D01*
X10405828Y-14599476D02*
X10405828Y-14466143D01*
X10405828Y-14485190D02*
X10415352Y-14475667D01*
X10434399Y-14466143D01*
X10462971Y-14466143D01*
X10482018Y-14475667D01*
X10491542Y-14494714D01*
X10491542Y-14599476D01*
X10491542Y-14494714D02*
X10501066Y-14475667D01*
X10520114Y-14466143D01*
X10548685Y-14466143D01*
X10567733Y-14475667D01*
X10577256Y-14494714D01*
X10577256Y-14599476D01*
X10672495Y-14599476D02*
X10672495Y-14466143D01*
X10672495Y-14485190D02*
X10682018Y-14475667D01*
X10701066Y-14466143D01*
X10729637Y-14466143D01*
X10748685Y-14475667D01*
X10758209Y-14494714D01*
X10758209Y-14599476D01*
X10758209Y-14494714D02*
X10767733Y-14475667D01*
X10786780Y-14466143D01*
X10815352Y-14466143D01*
X10834399Y-14475667D01*
X10843923Y-14494714D01*
X10843923Y-14599476D01*
X11234399Y-14389952D02*
X11062971Y-14647095D01*
X11491542Y-14399476D02*
X11510590Y-14399476D01*
X11529637Y-14409000D01*
X11539161Y-14418524D01*
X11548685Y-14437571D01*
X11558209Y-14475667D01*
X11558209Y-14523286D01*
X11548685Y-14561381D01*
X11539161Y-14580428D01*
X11529637Y-14589952D01*
X11510590Y-14599476D01*
X11491542Y-14599476D01*
X11472494Y-14589952D01*
X11462971Y-14580428D01*
X11453447Y-14561381D01*
X11443923Y-14523286D01*
X11443923Y-14475667D01*
X11453447Y-14437571D01*
X11462971Y-14418524D01*
X11472494Y-14409000D01*
X11491542Y-14399476D01*
X11643923Y-14580428D02*
X11653447Y-14589952D01*
X11643923Y-14599476D01*
X11634399Y-14589952D01*
X11643923Y-14580428D01*
X11643923Y-14599476D01*
X11777256Y-14399476D02*
X11796304Y-14399476D01*
X11815352Y-14409000D01*
X11824875Y-14418524D01*
X11834399Y-14437571D01*
X11843923Y-14475667D01*
X11843923Y-14523286D01*
X11834399Y-14561381D01*
X11824875Y-14580428D01*
X11815352Y-14589952D01*
X11796304Y-14599476D01*
X11777256Y-14599476D01*
X11758209Y-14589952D01*
X11748685Y-14580428D01*
X11739161Y-14561381D01*
X11729637Y-14523286D01*
X11729637Y-14475667D01*
X11739161Y-14437571D01*
X11748685Y-14418524D01*
X11758209Y-14409000D01*
X11777256Y-14399476D01*
X11910590Y-14399476D02*
X12034399Y-14399476D01*
X11967733Y-14475667D01*
X11996304Y-14475667D01*
X12015352Y-14485190D01*
X12024875Y-14494714D01*
X12034399Y-14513762D01*
X12034399Y-14561381D01*
X12024875Y-14580428D01*
X12015352Y-14589952D01*
X11996304Y-14599476D01*
X11939161Y-14599476D01*
X11920114Y-14589952D01*
X11910590Y-14580428D01*
X12129637Y-14599476D02*
X12167733Y-14599476D01*
X12186780Y-14589952D01*
X12196304Y-14580428D01*
X12215352Y-14551857D01*
X12224875Y-14513762D01*
X12224875Y-14437571D01*
X12215352Y-14418524D01*
X12205828Y-14409000D01*
X12186780Y-14399476D01*
X12148685Y-14399476D01*
X12129637Y-14409000D01*
X12120114Y-14418524D01*
X12110590Y-14437571D01*
X12110590Y-14485190D01*
X12120114Y-14504238D01*
X12129637Y-14513762D01*
X12148685Y-14523286D01*
X12186780Y-14523286D01*
X12205828Y-14513762D01*
X12215352Y-14504238D01*
X12224875Y-14485190D01*
X12396304Y-14466143D02*
X12396304Y-14599476D01*
X12348685Y-14389952D02*
X12301066Y-14532809D01*
X12424875Y-14532809D01*
X12491542Y-14399476D02*
X12491542Y-14437571D01*
X12567733Y-14399476D02*
X12567733Y-14437571D01*
X12862971Y-14675667D02*
X12853447Y-14666143D01*
X12834399Y-14637571D01*
X12824875Y-14618524D01*
X12815352Y-14589952D01*
X12805828Y-14542333D01*
X12805828Y-14504238D01*
X12815352Y-14456619D01*
X12824875Y-14428048D01*
X12834399Y-14409000D01*
X12853447Y-14380428D01*
X12862971Y-14370905D01*
X13024875Y-14399476D02*
X12986780Y-14399476D01*
X12967733Y-14409000D01*
X12958209Y-14418524D01*
X12939161Y-14447095D01*
X12929637Y-14485190D01*
X12929637Y-14561381D01*
X12939161Y-14580428D01*
X12948685Y-14589952D01*
X12967733Y-14599476D01*
X13005828Y-14599476D01*
X13024875Y-14589952D01*
X13034399Y-14580428D01*
X13043923Y-14561381D01*
X13043923Y-14513762D01*
X13034399Y-14494714D01*
X13024875Y-14485190D01*
X13005828Y-14475667D01*
X12967733Y-14475667D01*
X12948685Y-14485190D01*
X12939161Y-14494714D01*
X12929637Y-14513762D01*
X13110590Y-14399476D02*
X13234399Y-14399476D01*
X13167733Y-14475667D01*
X13196304Y-14475667D01*
X13215352Y-14485190D01*
X13224875Y-14494714D01*
X13234399Y-14513762D01*
X13234399Y-14561381D01*
X13224875Y-14580428D01*
X13215352Y-14589952D01*
X13196304Y-14599476D01*
X13139161Y-14599476D01*
X13120114Y-14589952D01*
X13110590Y-14580428D01*
X13472494Y-14599476D02*
X13472494Y-14399476D01*
X13558209Y-14599476D02*
X13558209Y-14494714D01*
X13548685Y-14475667D01*
X13529637Y-14466143D01*
X13501066Y-14466143D01*
X13482018Y-14475667D01*
X13472494Y-14485190D01*
X13682018Y-14599476D02*
X13662971Y-14589952D01*
X13653447Y-14580428D01*
X13643923Y-14561381D01*
X13643923Y-14504238D01*
X13653447Y-14485190D01*
X13662971Y-14475667D01*
X13682018Y-14466143D01*
X13710590Y-14466143D01*
X13729637Y-14475667D01*
X13739161Y-14485190D01*
X13748685Y-14504238D01*
X13748685Y-14561381D01*
X13739161Y-14580428D01*
X13729637Y-14589952D01*
X13710590Y-14599476D01*
X13682018Y-14599476D01*
X13862971Y-14599476D02*
X13843923Y-14589952D01*
X13834399Y-14570905D01*
X13834399Y-14399476D01*
X14015352Y-14589952D02*
X13996304Y-14599476D01*
X13958209Y-14599476D01*
X13939161Y-14589952D01*
X13929637Y-14570905D01*
X13929637Y-14494714D01*
X13939161Y-14475667D01*
X13958209Y-14466143D01*
X13996304Y-14466143D01*
X14015352Y-14475667D01*
X14024875Y-14494714D01*
X14024875Y-14513762D01*
X13929637Y-14532809D01*
X14101066Y-14589952D02*
X14120114Y-14599476D01*
X14158209Y-14599476D01*
X14177256Y-14589952D01*
X14186780Y-14570905D01*
X14186780Y-14561381D01*
X14177256Y-14542333D01*
X14158209Y-14532809D01*
X14129637Y-14532809D01*
X14110590Y-14523286D01*
X14101066Y-14504238D01*
X14101066Y-14494714D01*
X14110590Y-14475667D01*
X14129637Y-14466143D01*
X14158209Y-14466143D01*
X14177256Y-14475667D01*
X14253447Y-14675667D02*
X14262971Y-14666143D01*
X14282018Y-14637571D01*
X14291542Y-14618524D01*
X14301066Y-14589952D01*
X14310590Y-14542333D01*
X14310590Y-14504238D01*
X14301066Y-14456619D01*
X14291542Y-14428048D01*
X14282018Y-14409000D01*
X14262971Y-14380428D01*
X14253447Y-14370905D01*
X9191066Y-14673000D02*
X9191066Y-14873000D01*
X9091066Y-14773000D02*
X9291066Y-14773000D01*
X9539161Y-14682524D02*
X9548685Y-14673000D01*
X9567733Y-14663476D01*
X9615352Y-14663476D01*
X9634399Y-14673000D01*
X9643923Y-14682524D01*
X9653447Y-14701571D01*
X9653447Y-14720619D01*
X9643923Y-14749190D01*
X9529637Y-14863476D01*
X9653447Y-14863476D01*
X9739161Y-14844428D02*
X9748685Y-14853952D01*
X9739161Y-14863476D01*
X9729637Y-14853952D01*
X9739161Y-14844428D01*
X9739161Y-14863476D01*
X9929637Y-14663476D02*
X9834399Y-14663476D01*
X9824876Y-14758714D01*
X9834399Y-14749190D01*
X9853447Y-14739667D01*
X9901066Y-14739667D01*
X9920114Y-14749190D01*
X9929637Y-14758714D01*
X9939161Y-14777762D01*
X9939161Y-14825381D01*
X9929637Y-14844428D01*
X9920114Y-14853952D01*
X9901066Y-14863476D01*
X9853447Y-14863476D01*
X9834399Y-14853952D01*
X9824876Y-14844428D01*
X10110590Y-14730143D02*
X10110590Y-14863476D01*
X10062971Y-14653952D02*
X10015352Y-14796809D01*
X10139161Y-14796809D01*
X10253447Y-14663476D02*
X10272495Y-14663476D01*
X10291542Y-14673000D01*
X10301066Y-14682524D01*
X10310590Y-14701571D01*
X10320114Y-14739667D01*
X10320114Y-14787286D01*
X10310590Y-14825381D01*
X10301066Y-14844428D01*
X10291542Y-14853952D01*
X10272495Y-14863476D01*
X10253447Y-14863476D01*
X10234399Y-14853952D01*
X10224876Y-14844428D01*
X10215352Y-14825381D01*
X10205828Y-14787286D01*
X10205828Y-14739667D01*
X10215352Y-14701571D01*
X10224876Y-14682524D01*
X10234399Y-14673000D01*
X10253447Y-14663476D01*
X10405828Y-14863476D02*
X10405828Y-14730143D01*
X10405828Y-14749190D02*
X10415352Y-14739667D01*
X10434399Y-14730143D01*
X10462971Y-14730143D01*
X10482018Y-14739667D01*
X10491542Y-14758714D01*
X10491542Y-14863476D01*
X10491542Y-14758714D02*
X10501066Y-14739667D01*
X10520114Y-14730143D01*
X10548685Y-14730143D01*
X10567733Y-14739667D01*
X10577256Y-14758714D01*
X10577256Y-14863476D01*
X10672495Y-14863476D02*
X10672495Y-14730143D01*
X10672495Y-14749190D02*
X10682018Y-14739667D01*
X10701066Y-14730143D01*
X10729637Y-14730143D01*
X10748685Y-14739667D01*
X10758209Y-14758714D01*
X10758209Y-14863476D01*
X10758209Y-14758714D02*
X10767733Y-14739667D01*
X10786780Y-14730143D01*
X10815352Y-14730143D01*
X10834399Y-14739667D01*
X10843923Y-14758714D01*
X10843923Y-14863476D01*
X11234399Y-14653952D02*
X11062971Y-14911095D01*
X11491542Y-14663476D02*
X11510590Y-14663476D01*
X11529637Y-14673000D01*
X11539161Y-14682524D01*
X11548685Y-14701571D01*
X11558209Y-14739667D01*
X11558209Y-14787286D01*
X11548685Y-14825381D01*
X11539161Y-14844428D01*
X11529637Y-14853952D01*
X11510590Y-14863476D01*
X11491542Y-14863476D01*
X11472494Y-14853952D01*
X11462971Y-14844428D01*
X11453447Y-14825381D01*
X11443923Y-14787286D01*
X11443923Y-14739667D01*
X11453447Y-14701571D01*
X11462971Y-14682524D01*
X11472494Y-14673000D01*
X11491542Y-14663476D01*
X11643923Y-14844428D02*
X11653447Y-14853952D01*
X11643923Y-14863476D01*
X11634399Y-14853952D01*
X11643923Y-14844428D01*
X11643923Y-14863476D01*
X11843923Y-14863476D02*
X11729637Y-14863476D01*
X11786780Y-14863476D02*
X11786780Y-14663476D01*
X11767733Y-14692048D01*
X11748685Y-14711095D01*
X11729637Y-14720619D01*
X11967733Y-14663476D02*
X11986780Y-14663476D01*
X12005828Y-14673000D01*
X12015352Y-14682524D01*
X12024875Y-14701571D01*
X12034399Y-14739667D01*
X12034399Y-14787286D01*
X12024875Y-14825381D01*
X12015352Y-14844428D01*
X12005828Y-14853952D01*
X11986780Y-14863476D01*
X11967733Y-14863476D01*
X11948685Y-14853952D01*
X11939161Y-14844428D01*
X11929637Y-14825381D01*
X11920114Y-14787286D01*
X11920114Y-14739667D01*
X11929637Y-14701571D01*
X11939161Y-14682524D01*
X11948685Y-14673000D01*
X11967733Y-14663476D01*
X12158209Y-14663476D02*
X12177256Y-14663476D01*
X12196304Y-14673000D01*
X12205828Y-14682524D01*
X12215352Y-14701571D01*
X12224875Y-14739667D01*
X12224875Y-14787286D01*
X12215352Y-14825381D01*
X12205828Y-14844428D01*
X12196304Y-14853952D01*
X12177256Y-14863476D01*
X12158209Y-14863476D01*
X12139161Y-14853952D01*
X12129637Y-14844428D01*
X12120114Y-14825381D01*
X12110590Y-14787286D01*
X12110590Y-14739667D01*
X12120114Y-14701571D01*
X12129637Y-14682524D01*
X12139161Y-14673000D01*
X12158209Y-14663476D01*
X12348685Y-14663476D02*
X12367733Y-14663476D01*
X12386780Y-14673000D01*
X12396304Y-14682524D01*
X12405828Y-14701571D01*
X12415352Y-14739667D01*
X12415352Y-14787286D01*
X12405828Y-14825381D01*
X12396304Y-14844428D01*
X12386780Y-14853952D01*
X12367733Y-14863476D01*
X12348685Y-14863476D01*
X12329637Y-14853952D01*
X12320114Y-14844428D01*
X12310590Y-14825381D01*
X12301066Y-14787286D01*
X12301066Y-14739667D01*
X12310590Y-14701571D01*
X12320114Y-14682524D01*
X12329637Y-14673000D01*
X12348685Y-14663476D01*
X12491542Y-14663476D02*
X12491542Y-14701571D01*
X12567733Y-14663476D02*
X12567733Y-14701571D01*
X12862971Y-14939667D02*
X12853447Y-14930143D01*
X12834399Y-14901571D01*
X12824875Y-14882524D01*
X12815352Y-14853952D01*
X12805828Y-14806333D01*
X12805828Y-14768238D01*
X12815352Y-14720619D01*
X12824875Y-14692048D01*
X12834399Y-14673000D01*
X12853447Y-14644428D01*
X12862971Y-14634905D01*
X13024875Y-14730143D02*
X13024875Y-14863476D01*
X12977256Y-14653952D02*
X12929637Y-14796809D01*
X13053447Y-14796809D01*
X13282018Y-14863476D02*
X13282018Y-14663476D01*
X13367733Y-14863476D02*
X13367733Y-14758714D01*
X13358209Y-14739667D01*
X13339161Y-14730143D01*
X13310590Y-14730143D01*
X13291542Y-14739667D01*
X13282018Y-14749190D01*
X13491542Y-14863476D02*
X13472494Y-14853952D01*
X13462971Y-14844428D01*
X13453447Y-14825381D01*
X13453447Y-14768238D01*
X13462971Y-14749190D01*
X13472494Y-14739667D01*
X13491542Y-14730143D01*
X13520114Y-14730143D01*
X13539161Y-14739667D01*
X13548685Y-14749190D01*
X13558209Y-14768238D01*
X13558209Y-14825381D01*
X13548685Y-14844428D01*
X13539161Y-14853952D01*
X13520114Y-14863476D01*
X13491542Y-14863476D01*
X13672494Y-14863476D02*
X13653447Y-14853952D01*
X13643923Y-14834905D01*
X13643923Y-14663476D01*
X13824875Y-14853952D02*
X13805828Y-14863476D01*
X13767733Y-14863476D01*
X13748685Y-14853952D01*
X13739161Y-14834905D01*
X13739161Y-14758714D01*
X13748685Y-14739667D01*
X13767733Y-14730143D01*
X13805828Y-14730143D01*
X13824875Y-14739667D01*
X13834399Y-14758714D01*
X13834399Y-14777762D01*
X13739161Y-14796809D01*
X13910590Y-14853952D02*
X13929637Y-14863476D01*
X13967733Y-14863476D01*
X13986780Y-14853952D01*
X13996304Y-14834905D01*
X13996304Y-14825381D01*
X13986780Y-14806333D01*
X13967733Y-14796809D01*
X13939161Y-14796809D01*
X13920114Y-14787286D01*
X13910590Y-14768238D01*
X13910590Y-14758714D01*
X13920114Y-14739667D01*
X13939161Y-14730143D01*
X13967733Y-14730143D01*
X13986780Y-14739667D01*
X14062971Y-14939667D02*
X14072494Y-14930143D01*
X14091542Y-14901571D01*
X14101066Y-14882524D01*
X14110590Y-14853952D01*
X14120114Y-14806333D01*
X14120114Y-14768238D01*
X14110590Y-14720619D01*
X14101066Y-14692048D01*
X14091542Y-14673000D01*
X14072494Y-14644428D01*
X14062971Y-14634905D01*
X9261777Y-15163711D02*
X9261777Y-15022289D01*
X9120355Y-15022289D01*
X9120355Y-15163711D01*
X9261777Y-15163711D01*
X9539161Y-15002524D02*
X9548685Y-14993000D01*
X9567733Y-14983476D01*
X9615352Y-14983476D01*
X9634399Y-14993000D01*
X9643923Y-15002524D01*
X9653447Y-15021571D01*
X9653447Y-15040619D01*
X9643923Y-15069190D01*
X9529637Y-15183476D01*
X9653447Y-15183476D01*
X9739161Y-15164428D02*
X9748685Y-15173952D01*
X9739161Y-15183476D01*
X9729637Y-15173952D01*
X9739161Y-15164428D01*
X9739161Y-15183476D01*
X9815352Y-14983476D02*
X9948685Y-14983476D01*
X9862971Y-15183476D01*
X10062971Y-14983476D02*
X10082018Y-14983476D01*
X10101066Y-14993000D01*
X10110590Y-15002524D01*
X10120114Y-15021571D01*
X10129637Y-15059667D01*
X10129637Y-15107286D01*
X10120114Y-15145381D01*
X10110590Y-15164428D01*
X10101066Y-15173952D01*
X10082018Y-15183476D01*
X10062971Y-15183476D01*
X10043923Y-15173952D01*
X10034399Y-15164428D01*
X10024876Y-15145381D01*
X10015352Y-15107286D01*
X10015352Y-15059667D01*
X10024876Y-15021571D01*
X10034399Y-15002524D01*
X10043923Y-14993000D01*
X10062971Y-14983476D01*
X10253447Y-14983476D02*
X10272495Y-14983476D01*
X10291542Y-14993000D01*
X10301066Y-15002524D01*
X10310590Y-15021571D01*
X10320114Y-15059667D01*
X10320114Y-15107286D01*
X10310590Y-15145381D01*
X10301066Y-15164428D01*
X10291542Y-15173952D01*
X10272495Y-15183476D01*
X10253447Y-15183476D01*
X10234399Y-15173952D01*
X10224876Y-15164428D01*
X10215352Y-15145381D01*
X10205828Y-15107286D01*
X10205828Y-15059667D01*
X10215352Y-15021571D01*
X10224876Y-15002524D01*
X10234399Y-14993000D01*
X10253447Y-14983476D01*
X10405828Y-15183476D02*
X10405828Y-15050143D01*
X10405828Y-15069190D02*
X10415352Y-15059667D01*
X10434399Y-15050143D01*
X10462971Y-15050143D01*
X10482018Y-15059667D01*
X10491542Y-15078714D01*
X10491542Y-15183476D01*
X10491542Y-15078714D02*
X10501066Y-15059667D01*
X10520114Y-15050143D01*
X10548685Y-15050143D01*
X10567733Y-15059667D01*
X10577256Y-15078714D01*
X10577256Y-15183476D01*
X10672495Y-15183476D02*
X10672495Y-15050143D01*
X10672495Y-15069190D02*
X10682018Y-15059667D01*
X10701066Y-15050143D01*
X10729637Y-15050143D01*
X10748685Y-15059667D01*
X10758209Y-15078714D01*
X10758209Y-15183476D01*
X10758209Y-15078714D02*
X10767733Y-15059667D01*
X10786780Y-15050143D01*
X10815352Y-15050143D01*
X10834399Y-15059667D01*
X10843923Y-15078714D01*
X10843923Y-15183476D01*
X11234399Y-14973952D02*
X11062971Y-15231095D01*
X11491542Y-14983476D02*
X11510590Y-14983476D01*
X11529637Y-14993000D01*
X11539161Y-15002524D01*
X11548685Y-15021571D01*
X11558209Y-15059667D01*
X11558209Y-15107286D01*
X11548685Y-15145381D01*
X11539161Y-15164428D01*
X11529637Y-15173952D01*
X11510590Y-15183476D01*
X11491542Y-15183476D01*
X11472494Y-15173952D01*
X11462971Y-15164428D01*
X11453447Y-15145381D01*
X11443923Y-15107286D01*
X11443923Y-15059667D01*
X11453447Y-15021571D01*
X11462971Y-15002524D01*
X11472494Y-14993000D01*
X11491542Y-14983476D01*
X11643923Y-15164428D02*
X11653447Y-15173952D01*
X11643923Y-15183476D01*
X11634399Y-15173952D01*
X11643923Y-15164428D01*
X11643923Y-15183476D01*
X11843923Y-15183476D02*
X11729637Y-15183476D01*
X11786780Y-15183476D02*
X11786780Y-14983476D01*
X11767733Y-15012048D01*
X11748685Y-15031095D01*
X11729637Y-15040619D01*
X11967733Y-14983476D02*
X11986780Y-14983476D01*
X12005828Y-14993000D01*
X12015352Y-15002524D01*
X12024875Y-15021571D01*
X12034399Y-15059667D01*
X12034399Y-15107286D01*
X12024875Y-15145381D01*
X12015352Y-15164428D01*
X12005828Y-15173952D01*
X11986780Y-15183476D01*
X11967733Y-15183476D01*
X11948685Y-15173952D01*
X11939161Y-15164428D01*
X11929637Y-15145381D01*
X11920114Y-15107286D01*
X11920114Y-15059667D01*
X11929637Y-15021571D01*
X11939161Y-15002524D01*
X11948685Y-14993000D01*
X11967733Y-14983476D01*
X12205828Y-14983476D02*
X12167733Y-14983476D01*
X12148685Y-14993000D01*
X12139161Y-15002524D01*
X12120114Y-15031095D01*
X12110590Y-15069190D01*
X12110590Y-15145381D01*
X12120114Y-15164428D01*
X12129637Y-15173952D01*
X12148685Y-15183476D01*
X12186780Y-15183476D01*
X12205828Y-15173952D01*
X12215352Y-15164428D01*
X12224875Y-15145381D01*
X12224875Y-15097762D01*
X12215352Y-15078714D01*
X12205828Y-15069190D01*
X12186780Y-15059667D01*
X12148685Y-15059667D01*
X12129637Y-15069190D01*
X12120114Y-15078714D01*
X12110590Y-15097762D01*
X12291542Y-14983476D02*
X12415352Y-14983476D01*
X12348685Y-15059667D01*
X12377256Y-15059667D01*
X12396304Y-15069190D01*
X12405828Y-15078714D01*
X12415352Y-15097762D01*
X12415352Y-15145381D01*
X12405828Y-15164428D01*
X12396304Y-15173952D01*
X12377256Y-15183476D01*
X12320114Y-15183476D01*
X12301066Y-15173952D01*
X12291542Y-15164428D01*
X12491542Y-14983476D02*
X12491542Y-15021571D01*
X12567733Y-14983476D02*
X12567733Y-15021571D01*
X12862971Y-15259667D02*
X12853447Y-15250143D01*
X12834399Y-15221571D01*
X12824875Y-15202524D01*
X12815352Y-15173952D01*
X12805828Y-15126333D01*
X12805828Y-15088238D01*
X12815352Y-15040619D01*
X12824875Y-15012048D01*
X12834399Y-14993000D01*
X12853447Y-14964428D01*
X12862971Y-14954905D01*
X12929637Y-15002524D02*
X12939161Y-14993000D01*
X12958209Y-14983476D01*
X13005828Y-14983476D01*
X13024875Y-14993000D01*
X13034399Y-15002524D01*
X13043923Y-15021571D01*
X13043923Y-15040619D01*
X13034399Y-15069190D01*
X12920114Y-15183476D01*
X13043923Y-15183476D01*
X13282018Y-15183476D02*
X13282018Y-14983476D01*
X13367733Y-15183476D02*
X13367733Y-15078714D01*
X13358209Y-15059667D01*
X13339161Y-15050143D01*
X13310590Y-15050143D01*
X13291542Y-15059667D01*
X13282018Y-15069190D01*
X13491542Y-15183476D02*
X13472494Y-15173952D01*
X13462971Y-15164428D01*
X13453447Y-15145381D01*
X13453447Y-15088238D01*
X13462971Y-15069190D01*
X13472494Y-15059667D01*
X13491542Y-15050143D01*
X13520114Y-15050143D01*
X13539161Y-15059667D01*
X13548685Y-15069190D01*
X13558209Y-15088238D01*
X13558209Y-15145381D01*
X13548685Y-15164428D01*
X13539161Y-15173952D01*
X13520114Y-15183476D01*
X13491542Y-15183476D01*
X13672494Y-15183476D02*
X13653447Y-15173952D01*
X13643923Y-15154905D01*
X13643923Y-14983476D01*
X13824875Y-15173952D02*
X13805828Y-15183476D01*
X13767733Y-15183476D01*
X13748685Y-15173952D01*
X13739161Y-15154905D01*
X13739161Y-15078714D01*
X13748685Y-15059667D01*
X13767733Y-15050143D01*
X13805828Y-15050143D01*
X13824875Y-15059667D01*
X13834399Y-15078714D01*
X13834399Y-15097762D01*
X13739161Y-15116809D01*
X13910590Y-15173952D02*
X13929637Y-15183476D01*
X13967733Y-15183476D01*
X13986780Y-15173952D01*
X13996304Y-15154905D01*
X13996304Y-15145381D01*
X13986780Y-15126333D01*
X13967733Y-15116809D01*
X13939161Y-15116809D01*
X13920114Y-15107286D01*
X13910590Y-15088238D01*
X13910590Y-15078714D01*
X13920114Y-15059667D01*
X13939161Y-15050143D01*
X13967733Y-15050143D01*
X13986780Y-15059667D01*
X14062971Y-15259667D02*
X14072494Y-15250143D01*
X14091542Y-15221571D01*
X14101066Y-15202524D01*
X14110590Y-15173952D01*
X14120114Y-15126333D01*
X14120114Y-15088238D01*
X14110590Y-15040619D01*
X14101066Y-15012048D01*
X14091542Y-14993000D01*
X14072494Y-14964428D01*
X14062971Y-14954905D01*
M02*
