%TF.GenerationSoftware,KiCad,Pcbnew,7.0.2-0*%
%TF.CreationDate,2024-02-06T22:41:15-05:00*%
%TF.ProjectId,Pi_HAT_V4,50695f48-4154-45f5-9634-2e6b69636164,rev?*%
%TF.SameCoordinates,Original*%
%TF.FileFunction,Soldermask,Bot*%
%TF.FilePolarity,Negative*%
%FSLAX46Y46*%
G04 Gerber Fmt 4.6, Leading zero omitted, Abs format (unit mm)*
G04 Created by KiCad (PCBNEW 7.0.2-0) date 2024-02-06 22:41:15*
%MOMM*%
%LPD*%
G01*
G04 APERTURE LIST*
G04 Aperture macros list*
%AMRoundRect*
0 Rectangle with rounded corners*
0 $1 Rounding radius*
0 $2 $3 $4 $5 $6 $7 $8 $9 X,Y pos of 4 corners*
0 Add a 4 corners polygon primitive as box body*
4,1,4,$2,$3,$4,$5,$6,$7,$8,$9,$2,$3,0*
0 Add four circle primitives for the rounded corners*
1,1,$1+$1,$2,$3*
1,1,$1+$1,$4,$5*
1,1,$1+$1,$6,$7*
1,1,$1+$1,$8,$9*
0 Add four rect primitives between the rounded corners*
20,1,$1+$1,$2,$3,$4,$5,0*
20,1,$1+$1,$4,$5,$6,$7,0*
20,1,$1+$1,$6,$7,$8,$9,0*
20,1,$1+$1,$8,$9,$2,$3,0*%
G04 Aperture macros list end*
%ADD10R,1.700000X1.700000*%
%ADD11O,1.700000X1.700000*%
%ADD12C,2.500000*%
%ADD13R,3.716000X3.716000*%
%ADD14C,3.716000*%
%ADD15O,1.200000X2.400000*%
%ADD16C,1.635000*%
%ADD17RoundRect,0.250000X-1.100000X0.412500X-1.100000X-0.412500X1.100000X-0.412500X1.100000X0.412500X0*%
%ADD18RoundRect,0.237500X-0.300000X-0.237500X0.300000X-0.237500X0.300000X0.237500X-0.300000X0.237500X0*%
%ADD19RoundRect,0.237500X-0.237500X0.300000X-0.237500X-0.300000X0.237500X-0.300000X0.237500X0.300000X0*%
%ADD20RoundRect,0.250000X1.100000X-0.412500X1.100000X0.412500X-1.100000X0.412500X-1.100000X-0.412500X0*%
%ADD21RoundRect,0.250000X0.625000X-0.400000X0.625000X0.400000X-0.625000X0.400000X-0.625000X-0.400000X0*%
%ADD22RoundRect,0.237500X0.300000X0.237500X-0.300000X0.237500X-0.300000X-0.237500X0.300000X-0.237500X0*%
%ADD23RoundRect,0.250000X0.350000X0.450000X-0.350000X0.450000X-0.350000X-0.450000X0.350000X-0.450000X0*%
%ADD24R,2.260600X2.108200*%
%ADD25RoundRect,0.250000X-0.350000X-0.450000X0.350000X-0.450000X0.350000X0.450000X-0.350000X0.450000X0*%
%ADD26R,0.609600X0.279400*%
%ADD27RoundRect,0.237500X-0.250000X-0.237500X0.250000X-0.237500X0.250000X0.237500X-0.250000X0.237500X0*%
G04 APERTURE END LIST*
D10*
%TO.C,J3*%
X137475000Y-70525000D03*
D11*
X137475000Y-67985000D03*
X140015000Y-70525000D03*
X140015000Y-67985000D03*
X142555000Y-70525000D03*
X142555000Y-67985000D03*
%TD*%
D12*
%TO.C,H1*%
X152500000Y-74500000D03*
%TD*%
%TO.C,H2*%
X102500000Y-74500000D03*
%TD*%
%TO.C,H3*%
X102500000Y-132500000D03*
%TD*%
D10*
%TO.C,J1*%
X128815000Y-91354200D03*
D11*
X128815000Y-93894200D03*
X128815000Y-96434200D03*
X128815000Y-98974200D03*
X128815000Y-101514200D03*
X128815000Y-104054200D03*
X128815000Y-106594200D03*
X128815000Y-109134200D03*
X128815000Y-111674200D03*
X128815000Y-114214200D03*
%TD*%
D12*
%TO.C,H4*%
X152500000Y-132500000D03*
%TD*%
D10*
%TO.C,J2*%
X151000000Y-79400000D03*
D11*
X153540000Y-79400000D03*
X151000000Y-81940000D03*
X153540000Y-81940000D03*
X151000000Y-84480000D03*
X153540000Y-84480000D03*
X151000000Y-87020000D03*
X153540000Y-87020000D03*
X151000000Y-89560000D03*
X153540000Y-89560000D03*
X151000000Y-92100000D03*
X153540000Y-92100000D03*
X151000000Y-94640000D03*
X153540000Y-94640000D03*
X151000000Y-97180000D03*
X153540000Y-97180000D03*
X151000000Y-99720000D03*
X153540000Y-99720000D03*
X151000000Y-102260000D03*
X153540000Y-102260000D03*
X151000000Y-104800000D03*
X153540000Y-104800000D03*
X151000000Y-107340000D03*
X153540000Y-107340000D03*
X151000000Y-109880000D03*
X153540000Y-109880000D03*
X151000000Y-112420000D03*
X153540000Y-112420000D03*
X151000000Y-114960000D03*
X153540000Y-114960000D03*
X151000000Y-117500000D03*
X153540000Y-117500000D03*
X151000000Y-120040000D03*
X153540000Y-120040000D03*
X151000000Y-122580000D03*
X153540000Y-122580000D03*
X151000000Y-125120000D03*
X153540000Y-125120000D03*
X151000000Y-127660000D03*
X153540000Y-127660000D03*
%TD*%
D10*
%TO.C,J4*%
X96550000Y-96000000D03*
D11*
X96550000Y-98540000D03*
X96550000Y-101080000D03*
X96550000Y-103620000D03*
%TD*%
D13*
%TO.C,J5*%
X120100000Y-82000000D03*
D14*
X112900000Y-82000000D03*
D15*
X123250000Y-76000000D03*
X109750000Y-76000000D03*
%TD*%
D13*
%TO.C,J8*%
X113800000Y-119100000D03*
D14*
X121000000Y-119100000D03*
D15*
X110650000Y-125100000D03*
X124150000Y-125100000D03*
%TD*%
D10*
%TO.C,J6*%
X160350000Y-96000000D03*
D11*
X160350000Y-98540000D03*
X160350000Y-101080000D03*
X160350000Y-103620000D03*
%TD*%
D16*
%TO.C,S1*%
X112318800Y-103378000D03*
X112318800Y-98298000D03*
%TD*%
D10*
%TO.C,J7*%
X128800000Y-119300000D03*
D11*
X128800000Y-121840000D03*
X128800000Y-124380000D03*
X128800000Y-126920000D03*
X128800000Y-129460000D03*
X128800000Y-132000000D03*
%TD*%
D17*
%TO.C,C7*%
X123139200Y-99822000D03*
X123139200Y-102947000D03*
%TD*%
D18*
%TO.C,C9*%
X130212500Y-77275000D03*
X131937500Y-77275000D03*
%TD*%
D19*
%TO.C,C3*%
X136250000Y-79887500D03*
X136250000Y-81612500D03*
%TD*%
D17*
%TO.C,C6*%
X119239200Y-99822000D03*
X119239200Y-102947000D03*
%TD*%
D20*
%TO.C,C1*%
X131900000Y-87037500D03*
X131900000Y-83912500D03*
%TD*%
%TO.C,C2*%
X127650000Y-87037500D03*
X127650000Y-83912500D03*
%TD*%
D21*
%TO.C,R2*%
X135750000Y-87050000D03*
X135750000Y-83950000D03*
%TD*%
D22*
%TO.C,C4*%
X140612500Y-83975000D03*
X138887500Y-83975000D03*
%TD*%
D23*
%TO.C,R5*%
X136300000Y-77275000D03*
X134300000Y-77275000D03*
%TD*%
D24*
%TO.C,L1*%
X140481400Y-78250000D03*
X146018600Y-78250000D03*
%TD*%
D25*
%TO.C,R14*%
X130050000Y-75000000D03*
X132050000Y-75000000D03*
%TD*%
D26*
%TO.C,U1*%
X133749300Y-79749999D03*
X133749300Y-80250000D03*
X133749300Y-80750000D03*
X133749300Y-81250001D03*
X132250700Y-81250001D03*
X132250700Y-80750000D03*
X132250700Y-80250000D03*
X132250700Y-79749999D03*
%TD*%
D19*
%TO.C,C8*%
X129875000Y-79887500D03*
X129875000Y-81612500D03*
%TD*%
D27*
%TO.C,R4*%
X138812500Y-86000000D03*
X140637500Y-86000000D03*
%TD*%
D23*
%TO.C,R3*%
X136325000Y-75000000D03*
X134325000Y-75000000D03*
%TD*%
M02*
