%TF.GenerationSoftware,KiCad,Pcbnew,6.0.8-f2edbf62ab~116~ubuntu22.04.1*%
%TF.CreationDate,2022-11-23T04:07:14-05:00*%
%TF.ProjectId,Pi_HAT_V3,50695f48-4154-45f5-9633-2e6b69636164,rev?*%
%TF.SameCoordinates,Original*%
%TF.FileFunction,Legend,Top*%
%TF.FilePolarity,Positive*%
%FSLAX46Y46*%
G04 Gerber Fmt 4.6, Leading zero omitted, Abs format (unit mm)*
G04 Created by KiCad (PCBNEW 6.0.8-f2edbf62ab~116~ubuntu22.04.1) date 2022-11-23 04:07:14*
%MOMM*%
%LPD*%
G01*
G04 APERTURE LIST*
%ADD10C,0.100000*%
%ADD11C,0.150000*%
%ADD12C,0.250000*%
%ADD13C,0.120000*%
%ADD14C,0.127000*%
%ADD15C,0.010000*%
G04 APERTURE END LIST*
D10*
X93973809Y-83804761D02*
X93973809Y-83566666D01*
X93735714Y-83542857D01*
X93759523Y-83566666D01*
X93783333Y-83614285D01*
X93783333Y-83733333D01*
X93759523Y-83780952D01*
X93735714Y-83804761D01*
X93688095Y-83828571D01*
X93569047Y-83828571D01*
X93521428Y-83804761D01*
X93497619Y-83780952D01*
X93473809Y-83733333D01*
X93473809Y-83614285D01*
X93497619Y-83566666D01*
X93521428Y-83542857D01*
X93973809Y-83971428D02*
X93473809Y-84138095D01*
X93973809Y-84304761D01*
X93473809Y-88530952D02*
X93973809Y-88530952D01*
X93973809Y-88721428D01*
X93950000Y-88769047D01*
X93926190Y-88792857D01*
X93878571Y-88816666D01*
X93807142Y-88816666D01*
X93759523Y-88792857D01*
X93735714Y-88769047D01*
X93711904Y-88721428D01*
X93711904Y-88530952D01*
X93497619Y-89007142D02*
X93473809Y-89078571D01*
X93473809Y-89197619D01*
X93497619Y-89245238D01*
X93521428Y-89269047D01*
X93569047Y-89292857D01*
X93616666Y-89292857D01*
X93664285Y-89269047D01*
X93688095Y-89245238D01*
X93711904Y-89197619D01*
X93735714Y-89102380D01*
X93759523Y-89054761D01*
X93783333Y-89030952D01*
X93830952Y-89007142D01*
X93878571Y-89007142D01*
X93926190Y-89030952D01*
X93950000Y-89054761D01*
X93973809Y-89102380D01*
X93973809Y-89221428D01*
X93950000Y-89292857D01*
X93950000Y-85919047D02*
X93973809Y-85871428D01*
X93973809Y-85800000D01*
X93950000Y-85728571D01*
X93902380Y-85680952D01*
X93854761Y-85657142D01*
X93759523Y-85633333D01*
X93688095Y-85633333D01*
X93592857Y-85657142D01*
X93545238Y-85680952D01*
X93497619Y-85728571D01*
X93473809Y-85800000D01*
X93473809Y-85847619D01*
X93497619Y-85919047D01*
X93521428Y-85942857D01*
X93688095Y-85942857D01*
X93688095Y-85847619D01*
X93473809Y-86157142D02*
X93973809Y-86157142D01*
X93473809Y-86442857D01*
X93973809Y-86442857D01*
X93473809Y-86680952D02*
X93973809Y-86680952D01*
X93973809Y-86800000D01*
X93950000Y-86871428D01*
X93902380Y-86919047D01*
X93854761Y-86942857D01*
X93759523Y-86966666D01*
X93688095Y-86966666D01*
X93592857Y-86942857D01*
X93545238Y-86919047D01*
X93497619Y-86871428D01*
X93473809Y-86800000D01*
X93473809Y-86680952D01*
D11*
X139654761Y-120023809D02*
X137654761Y-120023809D01*
X139083333Y-119357142D01*
X137654761Y-118690476D01*
X139654761Y-118690476D01*
X139654761Y-117738095D02*
X137654761Y-117738095D01*
X137654761Y-116976190D01*
X137750000Y-116785714D01*
X137845238Y-116690476D01*
X138035714Y-116595238D01*
X138321428Y-116595238D01*
X138511904Y-116690476D01*
X138607142Y-116785714D01*
X138702380Y-116976190D01*
X138702380Y-117738095D01*
X137654761Y-115738095D02*
X139273809Y-115738095D01*
X139464285Y-115642857D01*
X139559523Y-115547619D01*
X139654761Y-115357142D01*
X139654761Y-114976190D01*
X139559523Y-114785714D01*
X139464285Y-114690476D01*
X139273809Y-114595238D01*
X137654761Y-114595238D01*
X137654761Y-112785714D02*
X137654761Y-113166666D01*
X137750000Y-113357142D01*
X137845238Y-113452380D01*
X138130952Y-113642857D01*
X138511904Y-113738095D01*
X139273809Y-113738095D01*
X139464285Y-113642857D01*
X139559523Y-113547619D01*
X139654761Y-113357142D01*
X139654761Y-112976190D01*
X139559523Y-112785714D01*
X139464285Y-112690476D01*
X139273809Y-112595238D01*
X138797619Y-112595238D01*
X138607142Y-112690476D01*
X138511904Y-112785714D01*
X138416666Y-112976190D01*
X138416666Y-113357142D01*
X138511904Y-113547619D01*
X138607142Y-113642857D01*
X138797619Y-113738095D01*
X137654761Y-111357142D02*
X137654761Y-111166666D01*
X137750000Y-110976190D01*
X137845238Y-110880952D01*
X138035714Y-110785714D01*
X138416666Y-110690476D01*
X138892857Y-110690476D01*
X139273809Y-110785714D01*
X139464285Y-110880952D01*
X139559523Y-110976190D01*
X139654761Y-111166666D01*
X139654761Y-111357142D01*
X139559523Y-111547619D01*
X139464285Y-111642857D01*
X139273809Y-111738095D01*
X138892857Y-111833333D01*
X138416666Y-111833333D01*
X138035714Y-111738095D01*
X137845238Y-111642857D01*
X137750000Y-111547619D01*
X137654761Y-111357142D01*
X137654761Y-108880952D02*
X137654761Y-109833333D01*
X138607142Y-109928571D01*
X138511904Y-109833333D01*
X138416666Y-109642857D01*
X138416666Y-109166666D01*
X138511904Y-108976190D01*
X138607142Y-108880952D01*
X138797619Y-108785714D01*
X139273809Y-108785714D01*
X139464285Y-108880952D01*
X139559523Y-108976190D01*
X139654761Y-109166666D01*
X139654761Y-109642857D01*
X139559523Y-109833333D01*
X139464285Y-109928571D01*
X137654761Y-107547619D02*
X137654761Y-107357142D01*
X137750000Y-107166666D01*
X137845238Y-107071428D01*
X138035714Y-106976190D01*
X138416666Y-106880952D01*
X138892857Y-106880952D01*
X139273809Y-106976190D01*
X139464285Y-107071428D01*
X139559523Y-107166666D01*
X139654761Y-107357142D01*
X139654761Y-107547619D01*
X139559523Y-107738095D01*
X139464285Y-107833333D01*
X139273809Y-107928571D01*
X138892857Y-108023809D01*
X138416666Y-108023809D01*
X138035714Y-107928571D01*
X137845238Y-107833333D01*
X137750000Y-107738095D01*
X137654761Y-107547619D01*
D10*
X136561904Y-72676190D02*
X136871428Y-72676190D01*
X136704761Y-72866666D01*
X136776190Y-72866666D01*
X136823809Y-72890476D01*
X136847619Y-72914285D01*
X136871428Y-72961904D01*
X136871428Y-73080952D01*
X136847619Y-73128571D01*
X136823809Y-73152380D01*
X136776190Y-73176190D01*
X136633333Y-73176190D01*
X136585714Y-73152380D01*
X136561904Y-73128571D01*
X137085714Y-73128571D02*
X137109523Y-73152380D01*
X137085714Y-73176190D01*
X137061904Y-73152380D01*
X137085714Y-73128571D01*
X137085714Y-73176190D01*
X137276190Y-72676190D02*
X137585714Y-72676190D01*
X137419047Y-72866666D01*
X137490476Y-72866666D01*
X137538095Y-72890476D01*
X137561904Y-72914285D01*
X137585714Y-72961904D01*
X137585714Y-73080952D01*
X137561904Y-73128571D01*
X137538095Y-73152380D01*
X137490476Y-73176190D01*
X137347619Y-73176190D01*
X137300000Y-73152380D01*
X137276190Y-73128571D01*
X137728571Y-72676190D02*
X137895238Y-73176190D01*
X138061904Y-72676190D01*
X137404761Y-65226190D02*
X137166666Y-65226190D01*
X137142857Y-65464285D01*
X137166666Y-65440476D01*
X137214285Y-65416666D01*
X137333333Y-65416666D01*
X137380952Y-65440476D01*
X137404761Y-65464285D01*
X137428571Y-65511904D01*
X137428571Y-65630952D01*
X137404761Y-65678571D01*
X137380952Y-65702380D01*
X137333333Y-65726190D01*
X137214285Y-65726190D01*
X137166666Y-65702380D01*
X137142857Y-65678571D01*
X137571428Y-65226190D02*
X137738095Y-65726190D01*
X137904761Y-65226190D01*
X163752380Y-104195238D02*
X163776190Y-104123809D01*
X163776190Y-104004761D01*
X163752380Y-103957142D01*
X163728571Y-103933333D01*
X163680952Y-103909523D01*
X163633333Y-103909523D01*
X163585714Y-103933333D01*
X163561904Y-103957142D01*
X163538095Y-104004761D01*
X163514285Y-104100000D01*
X163490476Y-104147619D01*
X163466666Y-104171428D01*
X163419047Y-104195238D01*
X163371428Y-104195238D01*
X163323809Y-104171428D01*
X163300000Y-104147619D01*
X163276190Y-104100000D01*
X163276190Y-103980952D01*
X163300000Y-103909523D01*
X163728571Y-103409523D02*
X163752380Y-103433333D01*
X163776190Y-103504761D01*
X163776190Y-103552380D01*
X163752380Y-103623809D01*
X163704761Y-103671428D01*
X163657142Y-103695238D01*
X163561904Y-103719047D01*
X163490476Y-103719047D01*
X163395238Y-103695238D01*
X163347619Y-103671428D01*
X163300000Y-103623809D01*
X163276190Y-103552380D01*
X163276190Y-103504761D01*
X163300000Y-103433333D01*
X163323809Y-103409523D01*
X163776190Y-102957142D02*
X163776190Y-103195238D01*
X163276190Y-103195238D01*
X93900000Y-97769047D02*
X93923809Y-97721428D01*
X93923809Y-97650000D01*
X93900000Y-97578571D01*
X93852380Y-97530952D01*
X93804761Y-97507142D01*
X93709523Y-97483333D01*
X93638095Y-97483333D01*
X93542857Y-97507142D01*
X93495238Y-97530952D01*
X93447619Y-97578571D01*
X93423809Y-97650000D01*
X93423809Y-97697619D01*
X93447619Y-97769047D01*
X93471428Y-97792857D01*
X93638095Y-97792857D01*
X93638095Y-97697619D01*
X93423809Y-98007142D02*
X93923809Y-98007142D01*
X93423809Y-98292857D01*
X93923809Y-98292857D01*
X93423809Y-98530952D02*
X93923809Y-98530952D01*
X93923809Y-98650000D01*
X93900000Y-98721428D01*
X93852380Y-98769047D01*
X93804761Y-98792857D01*
X93709523Y-98816666D01*
X93638095Y-98816666D01*
X93542857Y-98792857D01*
X93495238Y-98769047D01*
X93447619Y-98721428D01*
X93423809Y-98650000D01*
X93423809Y-98530952D01*
X163652380Y-101707142D02*
X163676190Y-101635714D01*
X163676190Y-101516666D01*
X163652380Y-101469047D01*
X163628571Y-101445238D01*
X163580952Y-101421428D01*
X163533333Y-101421428D01*
X163485714Y-101445238D01*
X163461904Y-101469047D01*
X163438095Y-101516666D01*
X163414285Y-101611904D01*
X163390476Y-101659523D01*
X163366666Y-101683333D01*
X163319047Y-101707142D01*
X163271428Y-101707142D01*
X163223809Y-101683333D01*
X163200000Y-101659523D01*
X163176190Y-101611904D01*
X163176190Y-101492857D01*
X163200000Y-101421428D01*
X163676190Y-101207142D02*
X163176190Y-101207142D01*
X163176190Y-101088095D01*
X163200000Y-101016666D01*
X163247619Y-100969047D01*
X163295238Y-100945238D01*
X163390476Y-100921428D01*
X163461904Y-100921428D01*
X163557142Y-100945238D01*
X163604761Y-100969047D01*
X163652380Y-101016666D01*
X163676190Y-101088095D01*
X163676190Y-101207142D01*
X163533333Y-100730952D02*
X163533333Y-100492857D01*
X163676190Y-100778571D02*
X163176190Y-100611904D01*
X163676190Y-100445238D01*
X93423809Y-95440476D02*
X93423809Y-95154761D01*
X93423809Y-95297619D02*
X93923809Y-95297619D01*
X93852380Y-95250000D01*
X93804761Y-95202380D01*
X93780952Y-95154761D01*
X93876190Y-95630952D02*
X93900000Y-95654761D01*
X93923809Y-95702380D01*
X93923809Y-95821428D01*
X93900000Y-95869047D01*
X93876190Y-95892857D01*
X93828571Y-95916666D01*
X93780952Y-95916666D01*
X93709523Y-95892857D01*
X93423809Y-95607142D01*
X93423809Y-95916666D01*
X93923809Y-96059523D02*
X93423809Y-96226190D01*
X93923809Y-96392857D01*
X93447619Y-100142857D02*
X93423809Y-100214285D01*
X93423809Y-100333333D01*
X93447619Y-100380952D01*
X93471428Y-100404761D01*
X93519047Y-100428571D01*
X93566666Y-100428571D01*
X93614285Y-100404761D01*
X93638095Y-100380952D01*
X93661904Y-100333333D01*
X93685714Y-100238095D01*
X93709523Y-100190476D01*
X93733333Y-100166666D01*
X93780952Y-100142857D01*
X93828571Y-100142857D01*
X93876190Y-100166666D01*
X93900000Y-100190476D01*
X93923809Y-100238095D01*
X93923809Y-100357142D01*
X93900000Y-100428571D01*
X93423809Y-100642857D02*
X93923809Y-100642857D01*
X93923809Y-100761904D01*
X93900000Y-100833333D01*
X93852380Y-100880952D01*
X93804761Y-100904761D01*
X93709523Y-100928571D01*
X93638095Y-100928571D01*
X93542857Y-100904761D01*
X93495238Y-100880952D01*
X93447619Y-100833333D01*
X93423809Y-100761904D01*
X93423809Y-100642857D01*
X93566666Y-101119047D02*
X93566666Y-101357142D01*
X93423809Y-101071428D02*
X93923809Y-101238095D01*
X93423809Y-101404761D01*
X93547619Y-102654761D02*
X93523809Y-102726190D01*
X93523809Y-102845238D01*
X93547619Y-102892857D01*
X93571428Y-102916666D01*
X93619047Y-102940476D01*
X93666666Y-102940476D01*
X93714285Y-102916666D01*
X93738095Y-102892857D01*
X93761904Y-102845238D01*
X93785714Y-102750000D01*
X93809523Y-102702380D01*
X93833333Y-102678571D01*
X93880952Y-102654761D01*
X93928571Y-102654761D01*
X93976190Y-102678571D01*
X94000000Y-102702380D01*
X94023809Y-102750000D01*
X94023809Y-102869047D01*
X94000000Y-102940476D01*
X93571428Y-103440476D02*
X93547619Y-103416666D01*
X93523809Y-103345238D01*
X93523809Y-103297619D01*
X93547619Y-103226190D01*
X93595238Y-103178571D01*
X93642857Y-103154761D01*
X93738095Y-103130952D01*
X93809523Y-103130952D01*
X93904761Y-103154761D01*
X93952380Y-103178571D01*
X94000000Y-103226190D01*
X94023809Y-103297619D01*
X94023809Y-103345238D01*
X94000000Y-103416666D01*
X93976190Y-103440476D01*
X93523809Y-103892857D02*
X93523809Y-103654761D01*
X94023809Y-103654761D01*
X163200000Y-98880952D02*
X163176190Y-98928571D01*
X163176190Y-99000000D01*
X163200000Y-99071428D01*
X163247619Y-99119047D01*
X163295238Y-99142857D01*
X163390476Y-99166666D01*
X163461904Y-99166666D01*
X163557142Y-99142857D01*
X163604761Y-99119047D01*
X163652380Y-99071428D01*
X163676190Y-99000000D01*
X163676190Y-98952380D01*
X163652380Y-98880952D01*
X163628571Y-98857142D01*
X163461904Y-98857142D01*
X163461904Y-98952380D01*
X163676190Y-98642857D02*
X163176190Y-98642857D01*
X163676190Y-98357142D01*
X163176190Y-98357142D01*
X163676190Y-98119047D02*
X163176190Y-98119047D01*
X163176190Y-98000000D01*
X163200000Y-97928571D01*
X163247619Y-97880952D01*
X163295238Y-97857142D01*
X163390476Y-97833333D01*
X163461904Y-97833333D01*
X163557142Y-97857142D01*
X163604761Y-97880952D01*
X163652380Y-97928571D01*
X163676190Y-98000000D01*
X163676190Y-98119047D01*
X163676190Y-96409523D02*
X163676190Y-96695238D01*
X163676190Y-96552380D02*
X163176190Y-96552380D01*
X163247619Y-96600000D01*
X163295238Y-96647619D01*
X163319047Y-96695238D01*
X163223809Y-96219047D02*
X163200000Y-96195238D01*
X163176190Y-96147619D01*
X163176190Y-96028571D01*
X163200000Y-95980952D01*
X163223809Y-95957142D01*
X163271428Y-95933333D01*
X163319047Y-95933333D01*
X163390476Y-95957142D01*
X163676190Y-96242857D01*
X163676190Y-95933333D01*
X163176190Y-95790476D02*
X163676190Y-95623809D01*
X163176190Y-95457142D01*
D12*
X100647023Y-110067857D02*
X101897023Y-110067857D01*
X101897023Y-110544047D01*
X101837500Y-110663095D01*
X101777976Y-110722619D01*
X101658928Y-110782142D01*
X101480357Y-110782142D01*
X101361309Y-110722619D01*
X101301785Y-110663095D01*
X101242261Y-110544047D01*
X101242261Y-110067857D01*
X100647023Y-111317857D02*
X101897023Y-111317857D01*
X100647023Y-112865476D02*
X101897023Y-112865476D01*
X101301785Y-112865476D02*
X101301785Y-113579761D01*
X100647023Y-113579761D02*
X101897023Y-113579761D01*
X101004166Y-114115476D02*
X101004166Y-114710714D01*
X100647023Y-113996428D02*
X101897023Y-114413095D01*
X100647023Y-114829761D01*
X101897023Y-115067857D02*
X101897023Y-115782142D01*
X100647023Y-115425000D02*
X101897023Y-115425000D01*
X101897023Y-116972619D02*
X100647023Y-117389285D01*
X101897023Y-117805952D01*
X101897023Y-118103571D02*
X101897023Y-118877380D01*
X101420833Y-118460714D01*
X101420833Y-118639285D01*
X101361309Y-118758333D01*
X101301785Y-118817857D01*
X101182738Y-118877380D01*
X100885119Y-118877380D01*
X100766071Y-118817857D01*
X100706547Y-118758333D01*
X100647023Y-118639285D01*
X100647023Y-118282142D01*
X100706547Y-118163095D01*
X100766071Y-118103571D01*
X100647023Y-121020238D02*
X100647023Y-120305952D01*
X100647023Y-120663095D02*
X101897023Y-120663095D01*
X101718452Y-120544047D01*
X101599404Y-120424999D01*
X101539880Y-120305952D01*
X101897023Y-121794047D02*
X101897023Y-121913095D01*
X101837500Y-122032142D01*
X101777976Y-122091666D01*
X101658928Y-122151190D01*
X101420833Y-122210714D01*
X101123214Y-122210714D01*
X100885119Y-122151190D01*
X100766071Y-122091666D01*
X100706547Y-122032142D01*
X100647023Y-121913095D01*
X100647023Y-121794047D01*
X100706547Y-121674999D01*
X100766071Y-121615476D01*
X100885119Y-121555952D01*
X101123214Y-121496428D01*
X101420833Y-121496428D01*
X101658928Y-121555952D01*
X101777976Y-121615476D01*
X101837500Y-121674999D01*
X101897023Y-121794047D01*
X101956547Y-123639285D02*
X100349404Y-122567857D01*
X101777976Y-123996428D02*
X101837500Y-124055952D01*
X101897023Y-124174999D01*
X101897023Y-124472619D01*
X101837500Y-124591666D01*
X101777976Y-124651190D01*
X101658928Y-124710714D01*
X101539880Y-124710714D01*
X101361309Y-124651190D01*
X100647023Y-123936904D01*
X100647023Y-124710714D01*
X100647023Y-125901190D02*
X100647023Y-125186904D01*
X100647023Y-125544047D02*
X101897023Y-125544047D01*
X101718452Y-125424999D01*
X101599404Y-125305952D01*
X101539880Y-125186904D01*
X101956547Y-127329761D02*
X100349404Y-126258333D01*
X101777976Y-127686904D02*
X101837500Y-127746428D01*
X101897023Y-127865476D01*
X101897023Y-128163095D01*
X101837500Y-128282142D01*
X101777976Y-128341666D01*
X101658928Y-128401190D01*
X101539880Y-128401190D01*
X101361309Y-128341666D01*
X100647023Y-127627380D01*
X100647023Y-128401190D01*
X101777976Y-128877380D02*
X101837500Y-128936904D01*
X101897023Y-129055952D01*
X101897023Y-129353571D01*
X101837500Y-129472619D01*
X101777976Y-129532142D01*
X101658928Y-129591666D01*
X101539880Y-129591666D01*
X101361309Y-129532142D01*
X100647023Y-128817857D01*
X100647023Y-129591666D01*
X99289285Y-112597619D02*
X99289285Y-113014285D01*
X98634523Y-113192857D02*
X98634523Y-112597619D01*
X99884523Y-112597619D01*
X99884523Y-113192857D01*
X98991666Y-113669047D02*
X98991666Y-114264285D01*
X98634523Y-113550000D02*
X99884523Y-113966666D01*
X98634523Y-114383333D01*
X98694047Y-114740476D02*
X98634523Y-114919047D01*
X98634523Y-115216666D01*
X98694047Y-115335714D01*
X98753571Y-115395238D01*
X98872619Y-115454761D01*
X98991666Y-115454761D01*
X99110714Y-115395238D01*
X99170238Y-115335714D01*
X99229761Y-115216666D01*
X99289285Y-114978571D01*
X99348809Y-114859523D01*
X99408333Y-114800000D01*
X99527380Y-114740476D01*
X99646428Y-114740476D01*
X99765476Y-114800000D01*
X99825000Y-114859523D01*
X99884523Y-114978571D01*
X99884523Y-115276190D01*
X99825000Y-115454761D01*
X99229761Y-116228571D02*
X98634523Y-116228571D01*
X99884523Y-115811904D02*
X99229761Y-116228571D01*
X99884523Y-116645238D01*
X98753571Y-118728571D02*
X98694047Y-118669047D01*
X98634523Y-118490476D01*
X98634523Y-118371428D01*
X98694047Y-118192857D01*
X98813095Y-118073809D01*
X98932142Y-118014285D01*
X99170238Y-117954761D01*
X99348809Y-117954761D01*
X99586904Y-118014285D01*
X99705952Y-118073809D01*
X99825000Y-118192857D01*
X99884523Y-118371428D01*
X99884523Y-118490476D01*
X99825000Y-118669047D01*
X99765476Y-118728571D01*
X99884523Y-119502380D02*
X99884523Y-119740476D01*
X99825000Y-119859523D01*
X99705952Y-119978571D01*
X99467857Y-120038095D01*
X99051190Y-120038095D01*
X98813095Y-119978571D01*
X98694047Y-119859523D01*
X98634523Y-119740476D01*
X98634523Y-119502380D01*
X98694047Y-119383333D01*
X98813095Y-119264285D01*
X99051190Y-119204761D01*
X99467857Y-119204761D01*
X99705952Y-119264285D01*
X99825000Y-119383333D01*
X99884523Y-119502380D01*
X98634523Y-120573809D02*
X99884523Y-120573809D01*
X98634523Y-121288095D01*
X99884523Y-121288095D01*
X99884523Y-121704761D02*
X99884523Y-122419047D01*
X98634523Y-122061904D02*
X99884523Y-122061904D01*
X98634523Y-123550000D02*
X99229761Y-123133333D01*
X98634523Y-122835714D02*
X99884523Y-122835714D01*
X99884523Y-123311904D01*
X99825000Y-123430952D01*
X99765476Y-123490476D01*
X99646428Y-123550000D01*
X99467857Y-123550000D01*
X99348809Y-123490476D01*
X99289285Y-123430952D01*
X99229761Y-123311904D01*
X99229761Y-122835714D01*
X99884523Y-124323809D02*
X99884523Y-124561904D01*
X99825000Y-124680952D01*
X99705952Y-124800000D01*
X99467857Y-124859523D01*
X99051190Y-124859523D01*
X98813095Y-124800000D01*
X98694047Y-124680952D01*
X98634523Y-124561904D01*
X98634523Y-124323809D01*
X98694047Y-124204761D01*
X98813095Y-124085714D01*
X99051190Y-124026190D01*
X99467857Y-124026190D01*
X99705952Y-124085714D01*
X99825000Y-124204761D01*
X99884523Y-124323809D01*
X98634523Y-125990476D02*
X98634523Y-125395238D01*
X99884523Y-125395238D01*
X98694047Y-126347619D02*
X98634523Y-126526190D01*
X98634523Y-126823809D01*
X98694047Y-126942857D01*
X98753571Y-127002380D01*
X98872619Y-127061904D01*
X98991666Y-127061904D01*
X99110714Y-127002380D01*
X99170238Y-126942857D01*
X99229761Y-126823809D01*
X99289285Y-126585714D01*
X99348809Y-126466666D01*
X99408333Y-126407142D01*
X99527380Y-126347619D01*
X99646428Y-126347619D01*
X99765476Y-126407142D01*
X99825000Y-126466666D01*
X99884523Y-126585714D01*
X99884523Y-126883333D01*
X99825000Y-127061904D01*
X96622023Y-107300000D02*
X97872023Y-107300000D01*
X97872023Y-107597619D01*
X97812500Y-107776190D01*
X97693452Y-107895238D01*
X97574404Y-107954761D01*
X97336309Y-108014285D01*
X97157738Y-108014285D01*
X96919642Y-107954761D01*
X96800595Y-107895238D01*
X96681547Y-107776190D01*
X96622023Y-107597619D01*
X96622023Y-107300000D01*
X96681547Y-109026190D02*
X96622023Y-108907142D01*
X96622023Y-108669047D01*
X96681547Y-108550000D01*
X96800595Y-108490476D01*
X97276785Y-108490476D01*
X97395833Y-108550000D01*
X97455357Y-108669047D01*
X97455357Y-108907142D01*
X97395833Y-109026190D01*
X97276785Y-109085714D01*
X97157738Y-109085714D01*
X97038690Y-108490476D01*
X96681547Y-109561904D02*
X96622023Y-109680952D01*
X96622023Y-109919047D01*
X96681547Y-110038095D01*
X96800595Y-110097619D01*
X96860119Y-110097619D01*
X96979166Y-110038095D01*
X97038690Y-109919047D01*
X97038690Y-109740476D01*
X97098214Y-109621428D01*
X97217261Y-109561904D01*
X97276785Y-109561904D01*
X97395833Y-109621428D01*
X97455357Y-109740476D01*
X97455357Y-109919047D01*
X97395833Y-110038095D01*
X96622023Y-110633333D02*
X97455357Y-110633333D01*
X97872023Y-110633333D02*
X97812500Y-110573809D01*
X97752976Y-110633333D01*
X97812500Y-110692857D01*
X97872023Y-110633333D01*
X97752976Y-110633333D01*
X97455357Y-111764285D02*
X96443452Y-111764285D01*
X96324404Y-111704761D01*
X96264880Y-111645238D01*
X96205357Y-111526190D01*
X96205357Y-111347619D01*
X96264880Y-111228571D01*
X96681547Y-111764285D02*
X96622023Y-111645238D01*
X96622023Y-111407142D01*
X96681547Y-111288095D01*
X96741071Y-111228571D01*
X96860119Y-111169047D01*
X97217261Y-111169047D01*
X97336309Y-111228571D01*
X97395833Y-111288095D01*
X97455357Y-111407142D01*
X97455357Y-111645238D01*
X97395833Y-111764285D01*
X97455357Y-112359523D02*
X96622023Y-112359523D01*
X97336309Y-112359523D02*
X97395833Y-112419047D01*
X97455357Y-112538095D01*
X97455357Y-112716666D01*
X97395833Y-112835714D01*
X97276785Y-112895238D01*
X96622023Y-112895238D01*
X96681547Y-113966666D02*
X96622023Y-113847619D01*
X96622023Y-113609523D01*
X96681547Y-113490476D01*
X96800595Y-113430952D01*
X97276785Y-113430952D01*
X97395833Y-113490476D01*
X97455357Y-113609523D01*
X97455357Y-113847619D01*
X97395833Y-113966666D01*
X97276785Y-114026190D01*
X97157738Y-114026190D01*
X97038690Y-113430952D01*
X96622023Y-115097619D02*
X97872023Y-115097619D01*
X96681547Y-115097619D02*
X96622023Y-114978571D01*
X96622023Y-114740476D01*
X96681547Y-114621428D01*
X96741071Y-114561904D01*
X96860119Y-114502380D01*
X97217261Y-114502380D01*
X97336309Y-114561904D01*
X97395833Y-114621428D01*
X97455357Y-114740476D01*
X97455357Y-114978571D01*
X97395833Y-115097619D01*
X96622023Y-116645238D02*
X97872023Y-116645238D01*
X97395833Y-116645238D02*
X97455357Y-116764285D01*
X97455357Y-117002380D01*
X97395833Y-117121428D01*
X97336309Y-117180952D01*
X97217261Y-117240476D01*
X96860119Y-117240476D01*
X96741071Y-117180952D01*
X96681547Y-117121428D01*
X96622023Y-117002380D01*
X96622023Y-116764285D01*
X96681547Y-116645238D01*
X97455357Y-117657142D02*
X96622023Y-117954761D01*
X97455357Y-118252380D02*
X96622023Y-117954761D01*
X96324404Y-117835714D01*
X96264880Y-117776190D01*
X96205357Y-117657142D01*
X96741071Y-118728571D02*
X96681547Y-118788095D01*
X96622023Y-118728571D01*
X96681547Y-118669047D01*
X96741071Y-118728571D01*
X96622023Y-118728571D01*
X97395833Y-118728571D02*
X97336309Y-118788095D01*
X97276785Y-118728571D01*
X97336309Y-118669047D01*
X97395833Y-118728571D01*
X97276785Y-118728571D01*
X97872023Y-120633333D02*
X96979166Y-120633333D01*
X96800595Y-120573809D01*
X96681547Y-120454761D01*
X96622023Y-120276190D01*
X96622023Y-120157142D01*
X96622023Y-121764285D02*
X97276785Y-121764285D01*
X97395833Y-121704761D01*
X97455357Y-121585714D01*
X97455357Y-121347619D01*
X97395833Y-121228571D01*
X96681547Y-121764285D02*
X96622023Y-121645238D01*
X96622023Y-121347619D01*
X96681547Y-121228571D01*
X96800595Y-121169047D01*
X96919642Y-121169047D01*
X97038690Y-121228571D01*
X97098214Y-121347619D01*
X97098214Y-121645238D01*
X97157738Y-121764285D01*
X96681547Y-122895238D02*
X96622023Y-122776190D01*
X96622023Y-122538095D01*
X96681547Y-122419047D01*
X96741071Y-122359523D01*
X96860119Y-122300000D01*
X97217261Y-122300000D01*
X97336309Y-122359523D01*
X97395833Y-122419047D01*
X97455357Y-122538095D01*
X97455357Y-122776190D01*
X97395833Y-122895238D01*
X96622023Y-123609523D02*
X96681547Y-123490476D01*
X96741071Y-123430952D01*
X96860119Y-123371428D01*
X97217261Y-123371428D01*
X97336309Y-123430952D01*
X97395833Y-123490476D01*
X97455357Y-123609523D01*
X97455357Y-123788095D01*
X97395833Y-123907142D01*
X97336309Y-123966666D01*
X97217261Y-124026190D01*
X96860119Y-124026190D01*
X96741071Y-123966666D01*
X96681547Y-123907142D01*
X96622023Y-123788095D01*
X96622023Y-123609523D01*
X96622023Y-124561904D02*
X97872023Y-124561904D01*
X97395833Y-124561904D02*
X97455357Y-124680952D01*
X97455357Y-124919047D01*
X97395833Y-125038095D01*
X97336309Y-125097619D01*
X97217261Y-125157142D01*
X96860119Y-125157142D01*
X96741071Y-125097619D01*
X96681547Y-125038095D01*
X96622023Y-124919047D01*
X96622023Y-124680952D01*
X96681547Y-124561904D01*
X96622023Y-127359523D02*
X97217261Y-126942857D01*
X96622023Y-126645238D02*
X97872023Y-126645238D01*
X97872023Y-127121428D01*
X97812500Y-127240476D01*
X97752976Y-127300000D01*
X97633928Y-127359523D01*
X97455357Y-127359523D01*
X97336309Y-127300000D01*
X97276785Y-127240476D01*
X97217261Y-127121428D01*
X97217261Y-126645238D01*
X96622023Y-128073809D02*
X96681547Y-127954761D01*
X96741071Y-127895238D01*
X96860119Y-127835714D01*
X97217261Y-127835714D01*
X97336309Y-127895238D01*
X97395833Y-127954761D01*
X97455357Y-128073809D01*
X97455357Y-128252380D01*
X97395833Y-128371428D01*
X97336309Y-128430952D01*
X97217261Y-128490476D01*
X96860119Y-128490476D01*
X96741071Y-128430952D01*
X96681547Y-128371428D01*
X96622023Y-128252380D01*
X96622023Y-128073809D01*
X96622023Y-129026190D02*
X97455357Y-129026190D01*
X97336309Y-129026190D02*
X97395833Y-129085714D01*
X97455357Y-129204761D01*
X97455357Y-129383333D01*
X97395833Y-129502380D01*
X97276785Y-129561904D01*
X96622023Y-129561904D01*
X97276785Y-129561904D02*
X97395833Y-129621428D01*
X97455357Y-129740476D01*
X97455357Y-129919047D01*
X97395833Y-130038095D01*
X97276785Y-130097619D01*
X96622023Y-130097619D01*
X96681547Y-131169047D02*
X96622023Y-131050000D01*
X96622023Y-130811904D01*
X96681547Y-130692857D01*
X96800595Y-130633333D01*
X97276785Y-130633333D01*
X97395833Y-130692857D01*
X97455357Y-130811904D01*
X97455357Y-131050000D01*
X97395833Y-131169047D01*
X97276785Y-131228571D01*
X97157738Y-131228571D01*
X97038690Y-130633333D01*
X96622023Y-131942857D02*
X96681547Y-131823809D01*
X96741071Y-131764285D01*
X96860119Y-131704761D01*
X97217261Y-131704761D01*
X97336309Y-131764285D01*
X97395833Y-131823809D01*
X97455357Y-131942857D01*
X97455357Y-132121428D01*
X97395833Y-132240476D01*
X97336309Y-132300000D01*
X97217261Y-132359523D01*
X96860119Y-132359523D01*
X96741071Y-132300000D01*
X96681547Y-132240476D01*
X96622023Y-132121428D01*
X96622023Y-131942857D01*
D11*
%TO.C,J3*%
X134541666Y-70177380D02*
X134541666Y-70891666D01*
X134494047Y-71034523D01*
X134398809Y-71129761D01*
X134255952Y-71177380D01*
X134160714Y-71177380D01*
X134922619Y-70177380D02*
X135541666Y-70177380D01*
X135208333Y-70558333D01*
X135351190Y-70558333D01*
X135446428Y-70605952D01*
X135494047Y-70653571D01*
X135541666Y-70748809D01*
X135541666Y-70986904D01*
X135494047Y-71082142D01*
X135446428Y-71129761D01*
X135351190Y-71177380D01*
X135065476Y-71177380D01*
X134970238Y-71129761D01*
X134922619Y-71082142D01*
%TO.C,H1*%
X154738095Y-72452380D02*
X154738095Y-71452380D01*
X154738095Y-71928571D02*
X155309523Y-71928571D01*
X155309523Y-72452380D02*
X155309523Y-71452380D01*
X156309523Y-72452380D02*
X155738095Y-72452380D01*
X156023809Y-72452380D02*
X156023809Y-71452380D01*
X155928571Y-71595238D01*
X155833333Y-71690476D01*
X155738095Y-71738095D01*
%TO.C,H2*%
X98738095Y-72452380D02*
X98738095Y-71452380D01*
X98738095Y-71928571D02*
X99309523Y-71928571D01*
X99309523Y-72452380D02*
X99309523Y-71452380D01*
X99738095Y-71547619D02*
X99785714Y-71500000D01*
X99880952Y-71452380D01*
X100119047Y-71452380D01*
X100214285Y-71500000D01*
X100261904Y-71547619D01*
X100309523Y-71642857D01*
X100309523Y-71738095D01*
X100261904Y-71880952D01*
X99690476Y-72452380D01*
X100309523Y-72452380D01*
%TO.C,H3*%
X98738095Y-135452380D02*
X98738095Y-134452380D01*
X98738095Y-134928571D02*
X99309523Y-134928571D01*
X99309523Y-135452380D02*
X99309523Y-134452380D01*
X99690476Y-134452380D02*
X100309523Y-134452380D01*
X99976190Y-134833333D01*
X100119047Y-134833333D01*
X100214285Y-134880952D01*
X100261904Y-134928571D01*
X100309523Y-135023809D01*
X100309523Y-135261904D01*
X100261904Y-135357142D01*
X100214285Y-135404761D01*
X100119047Y-135452380D01*
X99833333Y-135452380D01*
X99738095Y-135404761D01*
X99690476Y-135357142D01*
%TO.C,J1*%
X129566666Y-111072380D02*
X129566666Y-111786666D01*
X129519047Y-111929523D01*
X129423809Y-112024761D01*
X129280952Y-112072380D01*
X129185714Y-112072380D01*
X130566666Y-112072380D02*
X129995238Y-112072380D01*
X130280952Y-112072380D02*
X130280952Y-111072380D01*
X130185714Y-111215238D01*
X130090476Y-111310476D01*
X129995238Y-111358095D01*
%TO.C,H4*%
X154738095Y-135452380D02*
X154738095Y-134452380D01*
X154738095Y-134928571D02*
X155309523Y-134928571D01*
X155309523Y-135452380D02*
X155309523Y-134452380D01*
X156214285Y-134785714D02*
X156214285Y-135452380D01*
X155976190Y-134404761D02*
X155738095Y-135119047D01*
X156357142Y-135119047D01*
%TO.C,J2*%
X155516666Y-76252380D02*
X155516666Y-76966666D01*
X155469047Y-77109523D01*
X155373809Y-77204761D01*
X155230952Y-77252380D01*
X155135714Y-77252380D01*
X155945238Y-76347619D02*
X155992857Y-76300000D01*
X156088095Y-76252380D01*
X156326190Y-76252380D01*
X156421428Y-76300000D01*
X156469047Y-76347619D01*
X156516666Y-76442857D01*
X156516666Y-76538095D01*
X156469047Y-76680952D01*
X155897619Y-77252380D01*
X156516666Y-77252380D01*
X148904761Y-123385714D02*
X146904761Y-123385714D01*
X146904761Y-122623809D01*
X147000000Y-122433333D01*
X147095238Y-122338095D01*
X147285714Y-122242857D01*
X147571428Y-122242857D01*
X147761904Y-122338095D01*
X147857142Y-122433333D01*
X147952380Y-122623809D01*
X147952380Y-123385714D01*
X148904761Y-121385714D02*
X147571428Y-121385714D01*
X146904761Y-121385714D02*
X147000000Y-121480952D01*
X147095238Y-121385714D01*
X147000000Y-121290476D01*
X146904761Y-121385714D01*
X147095238Y-121385714D01*
X149095238Y-120909523D02*
X149095238Y-119385714D01*
X147000000Y-117861904D02*
X146904761Y-118052380D01*
X146904761Y-118338095D01*
X147000000Y-118623809D01*
X147190476Y-118814285D01*
X147380952Y-118909523D01*
X147761904Y-119004761D01*
X148047619Y-119004761D01*
X148428571Y-118909523D01*
X148619047Y-118814285D01*
X148809523Y-118623809D01*
X148904761Y-118338095D01*
X148904761Y-118147619D01*
X148809523Y-117861904D01*
X148714285Y-117766666D01*
X148047619Y-117766666D01*
X148047619Y-118147619D01*
X148904761Y-116909523D02*
X146904761Y-116909523D01*
X146904761Y-116147619D01*
X147000000Y-115957142D01*
X147095238Y-115861904D01*
X147285714Y-115766666D01*
X147571428Y-115766666D01*
X147761904Y-115861904D01*
X147857142Y-115957142D01*
X147952380Y-116147619D01*
X147952380Y-116909523D01*
X148904761Y-114909523D02*
X146904761Y-114909523D01*
X146904761Y-113576190D02*
X146904761Y-113195238D01*
X147000000Y-113004761D01*
X147190476Y-112814285D01*
X147571428Y-112719047D01*
X148238095Y-112719047D01*
X148619047Y-112814285D01*
X148809523Y-113004761D01*
X148904761Y-113195238D01*
X148904761Y-113576190D01*
X148809523Y-113766666D01*
X148619047Y-113957142D01*
X148238095Y-114052380D01*
X147571428Y-114052380D01*
X147190476Y-113957142D01*
X147000000Y-113766666D01*
X146904761Y-113576190D01*
%TO.C,J4*%
X96216666Y-93122380D02*
X96216666Y-93836666D01*
X96169047Y-93979523D01*
X96073809Y-94074761D01*
X95930952Y-94122380D01*
X95835714Y-94122380D01*
X97121428Y-93455714D02*
X97121428Y-94122380D01*
X96883333Y-93074761D02*
X96645238Y-93789047D01*
X97264285Y-93789047D01*
%TO.C,J5*%
X115916519Y-81386389D02*
X115916519Y-82100990D01*
X115868879Y-82243910D01*
X115773599Y-82339190D01*
X115630679Y-82386830D01*
X115535399Y-82386830D01*
X116869320Y-81386389D02*
X116392920Y-81386389D01*
X116345280Y-81862789D01*
X116392920Y-81815149D01*
X116488200Y-81767509D01*
X116726400Y-81767509D01*
X116821680Y-81815149D01*
X116869320Y-81862789D01*
X116916960Y-81958070D01*
X116916960Y-82196270D01*
X116869320Y-82291550D01*
X116821680Y-82339190D01*
X116726400Y-82386830D01*
X116488200Y-82386830D01*
X116392920Y-82339190D01*
X116345280Y-82291550D01*
%TO.C,J8*%
X120866519Y-130452139D02*
X120866519Y-131166740D01*
X120818879Y-131309660D01*
X120723599Y-131404940D01*
X120580679Y-131452580D01*
X120485399Y-131452580D01*
X121485840Y-130880899D02*
X121390560Y-130833259D01*
X121342920Y-130785619D01*
X121295280Y-130690339D01*
X121295280Y-130642699D01*
X121342920Y-130547419D01*
X121390560Y-130499779D01*
X121485840Y-130452139D01*
X121676400Y-130452139D01*
X121771680Y-130499779D01*
X121819320Y-130547419D01*
X121866960Y-130642699D01*
X121866960Y-130690339D01*
X121819320Y-130785619D01*
X121771680Y-130833259D01*
X121676400Y-130880899D01*
X121485840Y-130880899D01*
X121390560Y-130928539D01*
X121342920Y-130976179D01*
X121295280Y-131071460D01*
X121295280Y-131262020D01*
X121342920Y-131357300D01*
X121390560Y-131404940D01*
X121485840Y-131452580D01*
X121676400Y-131452580D01*
X121771680Y-131404940D01*
X121819320Y-131357300D01*
X121866960Y-131262020D01*
X121866960Y-131071460D01*
X121819320Y-130976179D01*
X121771680Y-130928539D01*
X121676400Y-130880899D01*
%TO.C,J6*%
X160016666Y-93122380D02*
X160016666Y-93836666D01*
X159969047Y-93979523D01*
X159873809Y-94074761D01*
X159730952Y-94122380D01*
X159635714Y-94122380D01*
X160921428Y-93122380D02*
X160730952Y-93122380D01*
X160635714Y-93170000D01*
X160588095Y-93217619D01*
X160492857Y-93360476D01*
X160445238Y-93550952D01*
X160445238Y-93931904D01*
X160492857Y-94027142D01*
X160540476Y-94074761D01*
X160635714Y-94122380D01*
X160826190Y-94122380D01*
X160921428Y-94074761D01*
X160969047Y-94027142D01*
X161016666Y-93931904D01*
X161016666Y-93693809D01*
X160969047Y-93598571D01*
X160921428Y-93550952D01*
X160826190Y-93503333D01*
X160635714Y-93503333D01*
X160540476Y-93550952D01*
X160492857Y-93598571D01*
X160445238Y-93693809D01*
%TO.C,J7*%
X96216666Y-80997380D02*
X96216666Y-81711666D01*
X96169047Y-81854523D01*
X96073809Y-81949761D01*
X95930952Y-81997380D01*
X95835714Y-81997380D01*
X96597619Y-80997380D02*
X97264285Y-80997380D01*
X96835714Y-81997380D01*
D13*
%TO.C,J3*%
X136145000Y-66655000D02*
X143885000Y-66655000D01*
X137475000Y-71855000D02*
X136145000Y-71855000D01*
X138745000Y-69255000D02*
X136145000Y-69255000D01*
X138745000Y-71855000D02*
X138745000Y-69255000D01*
X136145000Y-71855000D02*
X136145000Y-70525000D01*
X136145000Y-69255000D02*
X136145000Y-66655000D01*
X143885000Y-71855000D02*
X143885000Y-66655000D01*
X138745000Y-71855000D02*
X143885000Y-71855000D01*
%TO.C,J1*%
X128570000Y-115220000D02*
X128570000Y-127980000D01*
X131230000Y-115220000D02*
X131230000Y-127980000D01*
X128570000Y-127980000D02*
X131230000Y-127980000D01*
X128570000Y-112620000D02*
X129900000Y-112620000D01*
X128570000Y-113950000D02*
X128570000Y-112620000D01*
X128570000Y-115220000D02*
X131230000Y-115220000D01*
%TO.C,J2*%
X152270000Y-80670000D02*
X152270000Y-78070000D01*
X154870000Y-78070000D02*
X154870000Y-128990000D01*
X152270000Y-78070000D02*
X154870000Y-78070000D01*
X149670000Y-78070000D02*
X151000000Y-78070000D01*
X149670000Y-80670000D02*
X149670000Y-128990000D01*
X149670000Y-80670000D02*
X152270000Y-80670000D01*
X149670000Y-79400000D02*
X149670000Y-78070000D01*
X149670000Y-128990000D02*
X154870000Y-128990000D01*
%TO.C,J4*%
X95220000Y-96000000D02*
X95220000Y-94670000D01*
X95220000Y-97270000D02*
X95220000Y-104950000D01*
X95220000Y-94670000D02*
X96550000Y-94670000D01*
X95220000Y-97270000D02*
X97880000Y-97270000D01*
X97880000Y-97270000D02*
X97880000Y-104950000D01*
X95220000Y-104950000D02*
X97880000Y-104950000D01*
D14*
%TO.C,J5*%
X120310000Y-86160000D02*
X120310000Y-87430000D01*
X108750000Y-65650000D02*
X108750000Y-83850000D01*
X115078000Y-83850000D02*
X117922000Y-83850000D01*
X124250000Y-83850000D02*
X124250000Y-65650000D01*
X108750000Y-83850000D02*
X110722000Y-83850000D01*
X124250000Y-83850000D02*
X122278000Y-83850000D01*
X120310000Y-86160000D02*
X120310000Y-84890000D01*
X124250000Y-65650000D02*
X108750000Y-65650000D01*
X119040000Y-86160000D02*
X120310000Y-86160000D01*
X121580000Y-86160000D02*
X120310000Y-86160000D01*
%TO.C,J8*%
X109650000Y-117250000D02*
X109650000Y-135450000D01*
X109650000Y-117250000D02*
X111622000Y-117250000D01*
X113590000Y-114940000D02*
X113590000Y-113670000D01*
X112320000Y-114940000D02*
X113590000Y-114940000D01*
X109650000Y-135450000D02*
X125150000Y-135450000D01*
X114860000Y-114940000D02*
X113590000Y-114940000D01*
X125150000Y-135450000D02*
X125150000Y-117250000D01*
X125150000Y-117250000D02*
X123178000Y-117250000D01*
X113590000Y-114940000D02*
X113590000Y-116210000D01*
X118822000Y-117250000D02*
X115978000Y-117250000D01*
%TO.C,G\u002A\u002A\u002A*%
G36*
X142619800Y-98135373D02*
G01*
X142720504Y-98221803D01*
X142729822Y-98254847D01*
X142684756Y-98264203D01*
X142619800Y-98207714D01*
X142570539Y-98129211D01*
X142619800Y-98135373D01*
G37*
D15*
X142619800Y-98135373D02*
X142720504Y-98221803D01*
X142729822Y-98254847D01*
X142684756Y-98264203D01*
X142619800Y-98207714D01*
X142570539Y-98129211D01*
X142619800Y-98135373D01*
G36*
X126854008Y-83272654D02*
G01*
X126827948Y-83453469D01*
X126809243Y-83532577D01*
X126771768Y-83818303D01*
X126775049Y-84161089D01*
X126791680Y-84313338D01*
X126918580Y-84885454D01*
X127130960Y-85455442D01*
X127440102Y-86042018D01*
X127857294Y-86663898D01*
X128393817Y-87339800D01*
X129060958Y-88088439D01*
X129080290Y-88109195D01*
X129683054Y-88734663D01*
X130326622Y-89359706D01*
X131020670Y-89991582D01*
X131774876Y-90637551D01*
X132598916Y-91304872D01*
X133502467Y-92000804D01*
X134495206Y-92732604D01*
X135586810Y-93507534D01*
X136786955Y-94332849D01*
X138105319Y-95215812D01*
X139551579Y-96163679D01*
X141135410Y-97183711D01*
X141418530Y-97364490D01*
X141781264Y-97600439D01*
X142086413Y-97807693D01*
X142308330Y-97968153D01*
X142421374Y-98063718D01*
X142430480Y-98078745D01*
X142408465Y-98125765D01*
X142405064Y-98123108D01*
X142317426Y-98065114D01*
X142109128Y-97937352D01*
X141805947Y-97755086D01*
X141433659Y-97533576D01*
X141018043Y-97288087D01*
X140584875Y-97033881D01*
X140159931Y-96786219D01*
X139768989Y-96560365D01*
X139666278Y-96501481D01*
X138507751Y-95814779D01*
X137293049Y-95050854D01*
X136054608Y-94232380D01*
X134824862Y-93382029D01*
X133636246Y-92522472D01*
X132521195Y-91676383D01*
X131512144Y-90866434D01*
X131068393Y-90491483D01*
X130211920Y-89720687D01*
X129406239Y-88931572D01*
X128689232Y-88162210D01*
X128321277Y-87730708D01*
X127799982Y-87035219D01*
X127357028Y-86324253D01*
X127005724Y-85625228D01*
X126759383Y-84965564D01*
X126631316Y-84372681D01*
X126618508Y-84223208D01*
X126626331Y-83988882D01*
X126663210Y-83717632D01*
X126718114Y-83461277D01*
X126780015Y-83271638D01*
X126836201Y-83200446D01*
X126854008Y-83272654D01*
G37*
X126854008Y-83272654D02*
X126827948Y-83453469D01*
X126809243Y-83532577D01*
X126771768Y-83818303D01*
X126775049Y-84161089D01*
X126791680Y-84313338D01*
X126918580Y-84885454D01*
X127130960Y-85455442D01*
X127440102Y-86042018D01*
X127857294Y-86663898D01*
X128393817Y-87339800D01*
X129060958Y-88088439D01*
X129080290Y-88109195D01*
X129683054Y-88734663D01*
X130326622Y-89359706D01*
X131020670Y-89991582D01*
X131774876Y-90637551D01*
X132598916Y-91304872D01*
X133502467Y-92000804D01*
X134495206Y-92732604D01*
X135586810Y-93507534D01*
X136786955Y-94332849D01*
X138105319Y-95215812D01*
X139551579Y-96163679D01*
X141135410Y-97183711D01*
X141418530Y-97364490D01*
X141781264Y-97600439D01*
X142086413Y-97807693D01*
X142308330Y-97968153D01*
X142421374Y-98063718D01*
X142430480Y-98078745D01*
X142408465Y-98125765D01*
X142405064Y-98123108D01*
X142317426Y-98065114D01*
X142109128Y-97937352D01*
X141805947Y-97755086D01*
X141433659Y-97533576D01*
X141018043Y-97288087D01*
X140584875Y-97033881D01*
X140159931Y-96786219D01*
X139768989Y-96560365D01*
X139666278Y-96501481D01*
X138507751Y-95814779D01*
X137293049Y-95050854D01*
X136054608Y-94232380D01*
X134824862Y-93382029D01*
X133636246Y-92522472D01*
X132521195Y-91676383D01*
X131512144Y-90866434D01*
X131068393Y-90491483D01*
X130211920Y-89720687D01*
X129406239Y-88931572D01*
X128689232Y-88162210D01*
X128321277Y-87730708D01*
X127799982Y-87035219D01*
X127357028Y-86324253D01*
X127005724Y-85625228D01*
X126759383Y-84965564D01*
X126631316Y-84372681D01*
X126618508Y-84223208D01*
X126626331Y-83988882D01*
X126663210Y-83717632D01*
X126718114Y-83461277D01*
X126780015Y-83271638D01*
X126836201Y-83200446D01*
X126854008Y-83272654D01*
G36*
X146280906Y-101279589D02*
G01*
X146735557Y-101738712D01*
X147077577Y-102098551D01*
X147317397Y-102376142D01*
X147465445Y-102588520D01*
X147532153Y-102752720D01*
X147527948Y-102885778D01*
X147463262Y-103004727D01*
X147388178Y-103088123D01*
X147288919Y-103179292D01*
X147194372Y-103231144D01*
X147087949Y-103232624D01*
X146953065Y-103172676D01*
X146773130Y-103040245D01*
X146531559Y-102824279D01*
X146211764Y-102513720D01*
X145797159Y-102097514D01*
X145595511Y-101893358D01*
X145199351Y-101489814D01*
X144836917Y-101116695D01*
X144527498Y-100794177D01*
X144290388Y-100542432D01*
X144144880Y-100381641D01*
X144114752Y-100344777D01*
X144018066Y-100202987D01*
X143989433Y-100140821D01*
X144074426Y-100130671D01*
X144282339Y-100118265D01*
X144546466Y-100107122D01*
X145089119Y-100087802D01*
X146280906Y-101279589D01*
G37*
X146280906Y-101279589D02*
X146735557Y-101738712D01*
X147077577Y-102098551D01*
X147317397Y-102376142D01*
X147465445Y-102588520D01*
X147532153Y-102752720D01*
X147527948Y-102885778D01*
X147463262Y-103004727D01*
X147388178Y-103088123D01*
X147288919Y-103179292D01*
X147194372Y-103231144D01*
X147087949Y-103232624D01*
X146953065Y-103172676D01*
X146773130Y-103040245D01*
X146531559Y-102824279D01*
X146211764Y-102513720D01*
X145797159Y-102097514D01*
X145595511Y-101893358D01*
X145199351Y-101489814D01*
X144836917Y-101116695D01*
X144527498Y-100794177D01*
X144290388Y-100542432D01*
X144144880Y-100381641D01*
X144114752Y-100344777D01*
X144018066Y-100202987D01*
X143989433Y-100140821D01*
X144074426Y-100130671D01*
X144282339Y-100118265D01*
X144546466Y-100107122D01*
X145089119Y-100087802D01*
X146280906Y-101279589D01*
G36*
X135998565Y-85493570D02*
G01*
X136108548Y-85568341D01*
X136316769Y-85747190D01*
X136604665Y-86011587D01*
X136953677Y-86343008D01*
X137345245Y-86722923D01*
X137760807Y-87132803D01*
X138181804Y-87554121D01*
X138589676Y-87968349D01*
X138965862Y-88356960D01*
X139291802Y-88701423D01*
X139548935Y-88983212D01*
X139718700Y-89183799D01*
X139773382Y-89261817D01*
X139891544Y-89607045D01*
X139926641Y-90016720D01*
X139872000Y-90404163D01*
X139863461Y-90431884D01*
X139674900Y-90809775D01*
X139385055Y-91153543D01*
X139035505Y-91427828D01*
X138667829Y-91597269D01*
X138449779Y-91634135D01*
X138226482Y-91640654D01*
X138039600Y-91634631D01*
X137870247Y-91603639D01*
X137699538Y-91535248D01*
X137508589Y-91417032D01*
X137278514Y-91236561D01*
X136990429Y-90981406D01*
X136625449Y-90639140D01*
X136164690Y-90197334D01*
X135944739Y-89985528D01*
X134328293Y-88428951D01*
X133802102Y-88895272D01*
X133499347Y-89149433D01*
X133279352Y-89288225D01*
X133109357Y-89320089D01*
X132956603Y-89253468D01*
X132834321Y-89144633D01*
X132698144Y-88958303D01*
X132641807Y-88828267D01*
X132638733Y-88731465D01*
X132693329Y-88614055D01*
X132825510Y-88448218D01*
X133055191Y-88206130D01*
X133169559Y-88090974D01*
X133454576Y-87813574D01*
X133661799Y-87636200D01*
X133827159Y-87533414D01*
X133986587Y-87479782D01*
X134050350Y-87467457D01*
X134229980Y-87446017D01*
X134396472Y-87454358D01*
X134567072Y-87504623D01*
X134759028Y-87608958D01*
X134989586Y-87779509D01*
X135275992Y-88028419D01*
X135635493Y-88367836D01*
X136085335Y-88809901D01*
X136394550Y-89118235D01*
X137865970Y-90589654D01*
X138159869Y-90589654D01*
X138476809Y-90518181D01*
X138668751Y-90374672D01*
X138848304Y-90097407D01*
X138883732Y-89865791D01*
X138883732Y-89571892D01*
X135286187Y-85974347D01*
X135553488Y-85707046D01*
X135757468Y-85533374D01*
X135917278Y-85480569D01*
X135998565Y-85493570D01*
G37*
X135998565Y-85493570D02*
X136108548Y-85568341D01*
X136316769Y-85747190D01*
X136604665Y-86011587D01*
X136953677Y-86343008D01*
X137345245Y-86722923D01*
X137760807Y-87132803D01*
X138181804Y-87554121D01*
X138589676Y-87968349D01*
X138965862Y-88356960D01*
X139291802Y-88701423D01*
X139548935Y-88983212D01*
X139718700Y-89183799D01*
X139773382Y-89261817D01*
X139891544Y-89607045D01*
X139926641Y-90016720D01*
X139872000Y-90404163D01*
X139863461Y-90431884D01*
X139674900Y-90809775D01*
X139385055Y-91153543D01*
X139035505Y-91427828D01*
X138667829Y-91597269D01*
X138449779Y-91634135D01*
X138226482Y-91640654D01*
X138039600Y-91634631D01*
X137870247Y-91603639D01*
X137699538Y-91535248D01*
X137508589Y-91417032D01*
X137278514Y-91236561D01*
X136990429Y-90981406D01*
X136625449Y-90639140D01*
X136164690Y-90197334D01*
X135944739Y-89985528D01*
X134328293Y-88428951D01*
X133802102Y-88895272D01*
X133499347Y-89149433D01*
X133279352Y-89288225D01*
X133109357Y-89320089D01*
X132956603Y-89253468D01*
X132834321Y-89144633D01*
X132698144Y-88958303D01*
X132641807Y-88828267D01*
X132638733Y-88731465D01*
X132693329Y-88614055D01*
X132825510Y-88448218D01*
X133055191Y-88206130D01*
X133169559Y-88090974D01*
X133454576Y-87813574D01*
X133661799Y-87636200D01*
X133827159Y-87533414D01*
X133986587Y-87479782D01*
X134050350Y-87467457D01*
X134229980Y-87446017D01*
X134396472Y-87454358D01*
X134567072Y-87504623D01*
X134759028Y-87608958D01*
X134989586Y-87779509D01*
X135275992Y-88028419D01*
X135635493Y-88367836D01*
X136085335Y-88809901D01*
X136394550Y-89118235D01*
X137865970Y-90589654D01*
X138159869Y-90589654D01*
X138476809Y-90518181D01*
X138668751Y-90374672D01*
X138848304Y-90097407D01*
X138883732Y-89865791D01*
X138883732Y-89571892D01*
X135286187Y-85974347D01*
X135553488Y-85707046D01*
X135757468Y-85533374D01*
X135917278Y-85480569D01*
X135998565Y-85493570D01*
G36*
X146598673Y-95983291D02*
G01*
X146721046Y-96092102D01*
X146838818Y-96227363D01*
X146894985Y-96357060D01*
X146878858Y-96502103D01*
X146779744Y-96683395D01*
X146586954Y-96921846D01*
X146289798Y-97238360D01*
X145969219Y-97562350D01*
X145046338Y-98485230D01*
X144763076Y-98368920D01*
X144452787Y-98235380D01*
X144275188Y-98137723D01*
X144203317Y-98055373D01*
X144210218Y-97967759D01*
X144216777Y-97951999D01*
X144294938Y-97848452D01*
X144471753Y-97650004D01*
X144725078Y-97380422D01*
X145032772Y-97063473D01*
X145224957Y-96869771D01*
X145623899Y-96476125D01*
X145927396Y-96195107D01*
X146156034Y-96016016D01*
X146330401Y-95928151D01*
X146471086Y-95920809D01*
X146598673Y-95983291D01*
G37*
X146598673Y-95983291D02*
X146721046Y-96092102D01*
X146838818Y-96227363D01*
X146894985Y-96357060D01*
X146878858Y-96502103D01*
X146779744Y-96683395D01*
X146586954Y-96921846D01*
X146289798Y-97238360D01*
X145969219Y-97562350D01*
X145046338Y-98485230D01*
X144763076Y-98368920D01*
X144452787Y-98235380D01*
X144275188Y-98137723D01*
X144203317Y-98055373D01*
X144210218Y-97967759D01*
X144216777Y-97951999D01*
X144294938Y-97848452D01*
X144471753Y-97650004D01*
X144725078Y-97380422D01*
X145032772Y-97063473D01*
X145224957Y-96869771D01*
X145623899Y-96476125D01*
X145927396Y-96195107D01*
X146156034Y-96016016D01*
X146330401Y-95928151D01*
X146471086Y-95920809D01*
X146598673Y-95983291D01*
G36*
X142979273Y-98337166D02*
G01*
X143151097Y-98419199D01*
X143222255Y-98479020D01*
X143170164Y-98494047D01*
X143128944Y-98486838D01*
X142951501Y-98408673D01*
X142894596Y-98361976D01*
X142875888Y-98309081D01*
X142979273Y-98337166D01*
G37*
X142979273Y-98337166D02*
X143151097Y-98419199D01*
X143222255Y-98479020D01*
X143170164Y-98494047D01*
X143128944Y-98486838D01*
X142951501Y-98408673D01*
X142894596Y-98361976D01*
X142875888Y-98309081D01*
X142979273Y-98337166D01*
G36*
X144486647Y-98445531D02*
G01*
X144844602Y-98674133D01*
X145006764Y-98853390D01*
X145176151Y-99035229D01*
X145416116Y-99211802D01*
X145763909Y-99408874D01*
X145937774Y-99497328D01*
X146317685Y-99702885D01*
X146645072Y-99910430D01*
X146900634Y-100103600D01*
X147065068Y-100266029D01*
X147119072Y-100381351D01*
X147043345Y-100433202D01*
X147041776Y-100433354D01*
X146866904Y-100416319D01*
X146603217Y-100355332D01*
X146413970Y-100298144D01*
X146131003Y-100211081D01*
X145892729Y-100149902D01*
X145793624Y-100132680D01*
X145609988Y-100087500D01*
X145370121Y-99994415D01*
X145325124Y-99973563D01*
X145043245Y-99892290D01*
X144707890Y-99867362D01*
X144604852Y-99874057D01*
X144321234Y-99890433D01*
X144088168Y-99855733D01*
X143832056Y-99753124D01*
X143638934Y-99653162D01*
X143538210Y-99591599D01*
X143546452Y-99558855D01*
X143686057Y-99543889D01*
X143872332Y-99538117D01*
X144133254Y-99519212D01*
X144254863Y-99471900D01*
X144269662Y-99398501D01*
X144299802Y-99245981D01*
X144403192Y-99088239D01*
X144529960Y-98899383D01*
X144519197Y-98727023D01*
X144367096Y-98520178D01*
X144360213Y-98512805D01*
X144186408Y-98327399D01*
X144486647Y-98445531D01*
G37*
X144486647Y-98445531D02*
X144844602Y-98674133D01*
X145006764Y-98853390D01*
X145176151Y-99035229D01*
X145416116Y-99211802D01*
X145763909Y-99408874D01*
X145937774Y-99497328D01*
X146317685Y-99702885D01*
X146645072Y-99910430D01*
X146900634Y-100103600D01*
X147065068Y-100266029D01*
X147119072Y-100381351D01*
X147043345Y-100433202D01*
X147041776Y-100433354D01*
X146866904Y-100416319D01*
X146603217Y-100355332D01*
X146413970Y-100298144D01*
X146131003Y-100211081D01*
X145892729Y-100149902D01*
X145793624Y-100132680D01*
X145609988Y-100087500D01*
X145370121Y-99994415D01*
X145325124Y-99973563D01*
X145043245Y-99892290D01*
X144707890Y-99867362D01*
X144604852Y-99874057D01*
X144321234Y-99890433D01*
X144088168Y-99855733D01*
X143832056Y-99753124D01*
X143638934Y-99653162D01*
X143538210Y-99591599D01*
X143546452Y-99558855D01*
X143686057Y-99543889D01*
X143872332Y-99538117D01*
X144133254Y-99519212D01*
X144254863Y-99471900D01*
X144269662Y-99398501D01*
X144299802Y-99245981D01*
X144403192Y-99088239D01*
X144529960Y-98899383D01*
X144519197Y-98727023D01*
X144367096Y-98520178D01*
X144360213Y-98512805D01*
X144186408Y-98327399D01*
X144486647Y-98445531D01*
G36*
X131432028Y-81167050D02*
G01*
X131702189Y-81280325D01*
X131906472Y-81413920D01*
X132190180Y-81639739D01*
X132533704Y-81938287D01*
X132917436Y-82290063D01*
X133321771Y-82675572D01*
X133727102Y-83075312D01*
X134113821Y-83469790D01*
X134462322Y-83839507D01*
X134752998Y-84164963D01*
X134966241Y-84426663D01*
X135082444Y-84605108D01*
X135098029Y-84657243D01*
X135026615Y-84900231D01*
X134828254Y-85044907D01*
X134627635Y-85076322D01*
X134544751Y-85070010D01*
X134457943Y-85041484D01*
X134350340Y-84976353D01*
X134205065Y-84860225D01*
X134005248Y-84678710D01*
X133734013Y-84417419D01*
X133374489Y-84061960D01*
X133000156Y-83688317D01*
X132549913Y-83239617D01*
X132199888Y-82895900D01*
X131931699Y-82641289D01*
X131726962Y-82459907D01*
X131567290Y-82335881D01*
X131434300Y-82253332D01*
X131309607Y-82196385D01*
X131245055Y-82172700D01*
X131000179Y-82124580D01*
X130719136Y-82121682D01*
X130451854Y-82157027D01*
X130248262Y-82223640D01*
X130158289Y-82314545D01*
X130157463Y-82324651D01*
X130215027Y-82403024D01*
X130377180Y-82583876D01*
X130628113Y-82850613D01*
X130952017Y-83186645D01*
X131333082Y-83575378D01*
X131722023Y-83966761D01*
X132217871Y-84463856D01*
X132604156Y-84856869D01*
X132891549Y-85160957D01*
X133090723Y-85391272D01*
X133212348Y-85562969D01*
X133267097Y-85691203D01*
X133265641Y-85791129D01*
X133218653Y-85877902D01*
X133136803Y-85966676D01*
X133133002Y-85970437D01*
X133035394Y-86064052D01*
X132946809Y-86126065D01*
X132851783Y-86146205D01*
X132734852Y-86114207D01*
X132580551Y-86019802D01*
X132373415Y-85852722D01*
X132097979Y-85602700D01*
X131738780Y-85259468D01*
X131280353Y-84812757D01*
X131050002Y-84587407D01*
X130617605Y-84167399D01*
X130224905Y-83791740D01*
X129887896Y-83475262D01*
X129622573Y-83232800D01*
X129444930Y-83079187D01*
X129370962Y-83029259D01*
X129370367Y-83029648D01*
X129329258Y-83132610D01*
X129277368Y-83339863D01*
X129258279Y-83433765D01*
X129226022Y-83643366D01*
X129223928Y-83830631D01*
X129264105Y-84014052D01*
X129358660Y-84212119D01*
X129519702Y-84443320D01*
X129759338Y-84726146D01*
X130089676Y-85079086D01*
X130522824Y-85520632D01*
X130820073Y-85818757D01*
X131268265Y-86268001D01*
X131610334Y-86614839D01*
X131860542Y-86875953D01*
X132033153Y-87068020D01*
X132142428Y-87207722D01*
X132202630Y-87311738D01*
X132228023Y-87396748D01*
X132232900Y-87471057D01*
X132178594Y-87736023D01*
X131999330Y-87900710D01*
X131867647Y-87951833D01*
X131807943Y-87962697D01*
X131740475Y-87949633D01*
X131650105Y-87899445D01*
X131521698Y-87798936D01*
X131340116Y-87634911D01*
X131090224Y-87394171D01*
X130756883Y-87063523D01*
X130324959Y-86629769D01*
X130156495Y-86460027D01*
X129732558Y-86029406D01*
X129342805Y-85627270D01*
X129005064Y-85272510D01*
X128737161Y-84984019D01*
X128556924Y-84780687D01*
X128487239Y-84691064D01*
X128274311Y-84186274D01*
X128199411Y-83628902D01*
X128263285Y-83065507D01*
X128453127Y-82567217D01*
X128819912Y-82034336D01*
X129271723Y-81608135D01*
X129783699Y-81298460D01*
X130330980Y-81115156D01*
X130888709Y-81068071D01*
X131432028Y-81167050D01*
G37*
X131432028Y-81167050D02*
X131702189Y-81280325D01*
X131906472Y-81413920D01*
X132190180Y-81639739D01*
X132533704Y-81938287D01*
X132917436Y-82290063D01*
X133321771Y-82675572D01*
X133727102Y-83075312D01*
X134113821Y-83469790D01*
X134462322Y-83839507D01*
X134752998Y-84164963D01*
X134966241Y-84426663D01*
X135082444Y-84605108D01*
X135098029Y-84657243D01*
X135026615Y-84900231D01*
X134828254Y-85044907D01*
X134627635Y-85076322D01*
X134544751Y-85070010D01*
X134457943Y-85041484D01*
X134350340Y-84976353D01*
X134205065Y-84860225D01*
X134005248Y-84678710D01*
X133734013Y-84417419D01*
X133374489Y-84061960D01*
X133000156Y-83688317D01*
X132549913Y-83239617D01*
X132199888Y-82895900D01*
X131931699Y-82641289D01*
X131726962Y-82459907D01*
X131567290Y-82335881D01*
X131434300Y-82253332D01*
X131309607Y-82196385D01*
X131245055Y-82172700D01*
X131000179Y-82124580D01*
X130719136Y-82121682D01*
X130451854Y-82157027D01*
X130248262Y-82223640D01*
X130158289Y-82314545D01*
X130157463Y-82324651D01*
X130215027Y-82403024D01*
X130377180Y-82583876D01*
X130628113Y-82850613D01*
X130952017Y-83186645D01*
X131333082Y-83575378D01*
X131722023Y-83966761D01*
X132217871Y-84463856D01*
X132604156Y-84856869D01*
X132891549Y-85160957D01*
X133090723Y-85391272D01*
X133212348Y-85562969D01*
X133267097Y-85691203D01*
X133265641Y-85791129D01*
X133218653Y-85877902D01*
X133136803Y-85966676D01*
X133133002Y-85970437D01*
X133035394Y-86064052D01*
X132946809Y-86126065D01*
X132851783Y-86146205D01*
X132734852Y-86114207D01*
X132580551Y-86019802D01*
X132373415Y-85852722D01*
X132097979Y-85602700D01*
X131738780Y-85259468D01*
X131280353Y-84812757D01*
X131050002Y-84587407D01*
X130617605Y-84167399D01*
X130224905Y-83791740D01*
X129887896Y-83475262D01*
X129622573Y-83232800D01*
X129444930Y-83079187D01*
X129370962Y-83029259D01*
X129370367Y-83029648D01*
X129329258Y-83132610D01*
X129277368Y-83339863D01*
X129258279Y-83433765D01*
X129226022Y-83643366D01*
X129223928Y-83830631D01*
X129264105Y-84014052D01*
X129358660Y-84212119D01*
X129519702Y-84443320D01*
X129759338Y-84726146D01*
X130089676Y-85079086D01*
X130522824Y-85520632D01*
X130820073Y-85818757D01*
X131268265Y-86268001D01*
X131610334Y-86614839D01*
X131860542Y-86875953D01*
X132033153Y-87068020D01*
X132142428Y-87207722D01*
X132202630Y-87311738D01*
X132228023Y-87396748D01*
X132232900Y-87471057D01*
X132178594Y-87736023D01*
X131999330Y-87900710D01*
X131867647Y-87951833D01*
X131807943Y-87962697D01*
X131740475Y-87949633D01*
X131650105Y-87899445D01*
X131521698Y-87798936D01*
X131340116Y-87634911D01*
X131090224Y-87394171D01*
X130756883Y-87063523D01*
X130324959Y-86629769D01*
X130156495Y-86460027D01*
X129732558Y-86029406D01*
X129342805Y-85627270D01*
X129005064Y-85272510D01*
X128737161Y-84984019D01*
X128556924Y-84780687D01*
X128487239Y-84691064D01*
X128274311Y-84186274D01*
X128199411Y-83628902D01*
X128263285Y-83065507D01*
X128453127Y-82567217D01*
X128819912Y-82034336D01*
X129271723Y-81608135D01*
X129783699Y-81298460D01*
X130330980Y-81115156D01*
X130888709Y-81068071D01*
X131432028Y-81167050D01*
G36*
X141244898Y-90783819D02*
G01*
X141403748Y-90871322D01*
X141610459Y-91030455D01*
X141879570Y-91270939D01*
X142225617Y-91602498D01*
X142663139Y-92034853D01*
X143174189Y-92545246D01*
X143683717Y-93055760D01*
X144086869Y-93463063D01*
X144397697Y-93782979D01*
X144630252Y-94031339D01*
X144798587Y-94223971D01*
X144916753Y-94376704D01*
X144998801Y-94505365D01*
X145058783Y-94625784D01*
X145091971Y-94705562D01*
X145199656Y-95141140D01*
X145158063Y-95552958D01*
X144961613Y-95964645D01*
X144722129Y-96273145D01*
X144302292Y-96656973D01*
X143871997Y-96872341D01*
X143429522Y-96919901D01*
X143150566Y-96866084D01*
X143027854Y-96824532D01*
X142908890Y-96769272D01*
X142776376Y-96685862D01*
X142613009Y-96559862D01*
X142401489Y-96376832D01*
X142124515Y-96122331D01*
X141764785Y-95781918D01*
X141305002Y-95341154D01*
X141183222Y-95224011D01*
X139596710Y-93697367D01*
X139131351Y-94127002D01*
X138800164Y-94402793D01*
X138539127Y-94543928D01*
X138324975Y-94556989D01*
X138134437Y-94448551D01*
X138102164Y-94417951D01*
X137966042Y-94217310D01*
X137912158Y-94057765D01*
X137912640Y-93944283D01*
X137965412Y-93821807D01*
X138092057Y-93658885D01*
X138314158Y-93424059D01*
X138420240Y-93317260D01*
X138700052Y-93046500D01*
X138904414Y-92876619D01*
X139070168Y-92781750D01*
X139234160Y-92736031D01*
X139252397Y-92733086D01*
X139449362Y-92710350D01*
X139627163Y-92715512D01*
X139803641Y-92760775D01*
X139996636Y-92858341D01*
X140223989Y-93020412D01*
X140503538Y-93259189D01*
X140853124Y-93586875D01*
X141290587Y-94015671D01*
X141647109Y-94370980D01*
X142108501Y-94831311D01*
X142466923Y-95185200D01*
X142738516Y-95446563D01*
X142939417Y-95629319D01*
X143085768Y-95747383D01*
X143193709Y-95814673D01*
X143279378Y-95845108D01*
X143358916Y-95852603D01*
X143365372Y-95852629D01*
X143618809Y-95810508D01*
X143792394Y-95738512D01*
X143960815Y-95575097D01*
X144100118Y-95338252D01*
X144171985Y-95102341D01*
X144170129Y-95005392D01*
X144107326Y-94918925D01*
X143940771Y-94727213D01*
X143685103Y-94446079D01*
X143354960Y-94091346D01*
X142964982Y-93678834D01*
X142529808Y-93224369D01*
X142350655Y-93038815D01*
X140554604Y-91182896D01*
X140797371Y-90955649D01*
X140910147Y-90853860D01*
X141012635Y-90784811D01*
X141119373Y-90758222D01*
X141244898Y-90783819D01*
G37*
X141244898Y-90783819D02*
X141403748Y-90871322D01*
X141610459Y-91030455D01*
X141879570Y-91270939D01*
X142225617Y-91602498D01*
X142663139Y-92034853D01*
X143174189Y-92545246D01*
X143683717Y-93055760D01*
X144086869Y-93463063D01*
X144397697Y-93782979D01*
X144630252Y-94031339D01*
X144798587Y-94223971D01*
X144916753Y-94376704D01*
X144998801Y-94505365D01*
X145058783Y-94625784D01*
X145091971Y-94705562D01*
X145199656Y-95141140D01*
X145158063Y-95552958D01*
X144961613Y-95964645D01*
X144722129Y-96273145D01*
X144302292Y-96656973D01*
X143871997Y-96872341D01*
X143429522Y-96919901D01*
X143150566Y-96866084D01*
X143027854Y-96824532D01*
X142908890Y-96769272D01*
X142776376Y-96685862D01*
X142613009Y-96559862D01*
X142401489Y-96376832D01*
X142124515Y-96122331D01*
X141764785Y-95781918D01*
X141305002Y-95341154D01*
X141183222Y-95224011D01*
X139596710Y-93697367D01*
X139131351Y-94127002D01*
X138800164Y-94402793D01*
X138539127Y-94543928D01*
X138324975Y-94556989D01*
X138134437Y-94448551D01*
X138102164Y-94417951D01*
X137966042Y-94217310D01*
X137912158Y-94057765D01*
X137912640Y-93944283D01*
X137965412Y-93821807D01*
X138092057Y-93658885D01*
X138314158Y-93424059D01*
X138420240Y-93317260D01*
X138700052Y-93046500D01*
X138904414Y-92876619D01*
X139070168Y-92781750D01*
X139234160Y-92736031D01*
X139252397Y-92733086D01*
X139449362Y-92710350D01*
X139627163Y-92715512D01*
X139803641Y-92760775D01*
X139996636Y-92858341D01*
X140223989Y-93020412D01*
X140503538Y-93259189D01*
X140853124Y-93586875D01*
X141290587Y-94015671D01*
X141647109Y-94370980D01*
X142108501Y-94831311D01*
X142466923Y-95185200D01*
X142738516Y-95446563D01*
X142939417Y-95629319D01*
X143085768Y-95747383D01*
X143193709Y-95814673D01*
X143279378Y-95845108D01*
X143358916Y-95852603D01*
X143365372Y-95852629D01*
X143618809Y-95810508D01*
X143792394Y-95738512D01*
X143960815Y-95575097D01*
X144100118Y-95338252D01*
X144171985Y-95102341D01*
X144170129Y-95005392D01*
X144107326Y-94918925D01*
X143940771Y-94727213D01*
X143685103Y-94446079D01*
X143354960Y-94091346D01*
X142964982Y-93678834D01*
X142529808Y-93224369D01*
X142350655Y-93038815D01*
X140554604Y-91182896D01*
X140797371Y-90955649D01*
X140910147Y-90853860D01*
X141012635Y-90784811D01*
X141119373Y-90758222D01*
X141244898Y-90783819D01*
D14*
%TO.C,L2*%
X125600000Y-98250000D02*
G75*
G03*
X113700000Y-87850000I-11926784J-1638820D01*
G01*
X113700000Y-87850000D02*
G75*
G03*
X101800000Y-98250000I-58323J-11941439D01*
G01*
X101800000Y-101450000D02*
G75*
G03*
X113700001Y-111850000I11866181J1569476D01*
G01*
X113700001Y-111850000D02*
G75*
G03*
X125600000Y-101450000I7062J12000092D01*
G01*
D13*
%TO.C,J6*%
X161680000Y-97270000D02*
X161680000Y-104950000D01*
X159020000Y-104950000D02*
X161680000Y-104950000D01*
X159020000Y-96000000D02*
X159020000Y-94670000D01*
X159020000Y-97270000D02*
X161680000Y-97270000D01*
X159020000Y-94670000D02*
X160350000Y-94670000D01*
X159020000Y-97270000D02*
X159020000Y-104950000D01*
%TO.C,J7*%
X95220000Y-82545000D02*
X96550000Y-82545000D01*
X95220000Y-83875000D02*
X95220000Y-82545000D01*
X95220000Y-85145000D02*
X95220000Y-90285000D01*
X95220000Y-85145000D02*
X97880000Y-85145000D01*
X95220000Y-90285000D02*
X97880000Y-90285000D01*
X97880000Y-85145000D02*
X97880000Y-90285000D01*
%TD*%
M02*
