%TF.GenerationSoftware,KiCad,Pcbnew,7.0.2-0*%
%TF.CreationDate,2024-02-06T22:41:15-05:00*%
%TF.ProjectId,Pi_HAT_V4,50695f48-4154-45f5-9634-2e6b69636164,rev?*%
%TF.SameCoordinates,Original*%
%TF.FileFunction,Soldermask,Top*%
%TF.FilePolarity,Negative*%
%FSLAX46Y46*%
G04 Gerber Fmt 4.6, Leading zero omitted, Abs format (unit mm)*
G04 Created by KiCad (PCBNEW 7.0.2-0) date 2024-02-06 22:41:15*
%MOMM*%
%LPD*%
G01*
G04 APERTURE LIST*
%ADD10R,1.700000X1.700000*%
%ADD11O,1.700000X1.700000*%
%ADD12C,2.500000*%
%ADD13R,3.716000X3.716000*%
%ADD14C,3.716000*%
%ADD15O,1.200000X2.400000*%
%ADD16C,1.635000*%
G04 APERTURE END LIST*
D10*
%TO.C,J3*%
X137475000Y-70525000D03*
D11*
X137475000Y-67985000D03*
X140015000Y-70525000D03*
X140015000Y-67985000D03*
X142555000Y-70525000D03*
X142555000Y-67985000D03*
%TD*%
D12*
%TO.C,H1*%
X152500000Y-74500000D03*
%TD*%
%TO.C,H2*%
X102500000Y-74500000D03*
%TD*%
%TO.C,H3*%
X102500000Y-132500000D03*
%TD*%
D10*
%TO.C,J1*%
X128815000Y-91354200D03*
D11*
X128815000Y-93894200D03*
X128815000Y-96434200D03*
X128815000Y-98974200D03*
X128815000Y-101514200D03*
X128815000Y-104054200D03*
X128815000Y-106594200D03*
X128815000Y-109134200D03*
X128815000Y-111674200D03*
X128815000Y-114214200D03*
%TD*%
D12*
%TO.C,H4*%
X152500000Y-132500000D03*
%TD*%
D10*
%TO.C,J2*%
X151000000Y-79400000D03*
D11*
X153540000Y-79400000D03*
X151000000Y-81940000D03*
X153540000Y-81940000D03*
X151000000Y-84480000D03*
X153540000Y-84480000D03*
X151000000Y-87020000D03*
X153540000Y-87020000D03*
X151000000Y-89560000D03*
X153540000Y-89560000D03*
X151000000Y-92100000D03*
X153540000Y-92100000D03*
X151000000Y-94640000D03*
X153540000Y-94640000D03*
X151000000Y-97180000D03*
X153540000Y-97180000D03*
X151000000Y-99720000D03*
X153540000Y-99720000D03*
X151000000Y-102260000D03*
X153540000Y-102260000D03*
X151000000Y-104800000D03*
X153540000Y-104800000D03*
X151000000Y-107340000D03*
X153540000Y-107340000D03*
X151000000Y-109880000D03*
X153540000Y-109880000D03*
X151000000Y-112420000D03*
X153540000Y-112420000D03*
X151000000Y-114960000D03*
X153540000Y-114960000D03*
X151000000Y-117500000D03*
X153540000Y-117500000D03*
X151000000Y-120040000D03*
X153540000Y-120040000D03*
X151000000Y-122580000D03*
X153540000Y-122580000D03*
X151000000Y-125120000D03*
X153540000Y-125120000D03*
X151000000Y-127660000D03*
X153540000Y-127660000D03*
%TD*%
D10*
%TO.C,J4*%
X96550000Y-96000000D03*
D11*
X96550000Y-98540000D03*
X96550000Y-101080000D03*
X96550000Y-103620000D03*
%TD*%
D13*
%TO.C,J5*%
X120100000Y-82000000D03*
D14*
X112900000Y-82000000D03*
D15*
X123250000Y-76000000D03*
X109750000Y-76000000D03*
%TD*%
D13*
%TO.C,J8*%
X113800000Y-119100000D03*
D14*
X121000000Y-119100000D03*
D15*
X110650000Y-125100000D03*
X124150000Y-125100000D03*
%TD*%
D10*
%TO.C,J6*%
X160350000Y-96000000D03*
D11*
X160350000Y-98540000D03*
X160350000Y-101080000D03*
X160350000Y-103620000D03*
%TD*%
D16*
%TO.C,S1*%
X112318800Y-103378000D03*
X112318800Y-98298000D03*
%TD*%
D10*
%TO.C,J7*%
X128800000Y-119300000D03*
D11*
X128800000Y-121840000D03*
X128800000Y-124380000D03*
X128800000Y-126920000D03*
X128800000Y-129460000D03*
X128800000Y-132000000D03*
%TD*%
M02*
