%TF.GenerationSoftware,KiCad,Pcbnew,7.0.2-0*%
%TF.CreationDate,2024-02-05T19:35:51-05:00*%
%TF.ProjectId,Pi_HAT_V4,50695f48-4154-45f5-9634-2e6b69636164,rev?*%
%TF.SameCoordinates,Original*%
%TF.FileFunction,Copper,L2,Bot*%
%TF.FilePolarity,Positive*%
%FSLAX46Y46*%
G04 Gerber Fmt 4.6, Leading zero omitted, Abs format (unit mm)*
G04 Created by KiCad (PCBNEW 7.0.2-0) date 2024-02-05 19:35:51*
%MOMM*%
%LPD*%
G01*
G04 APERTURE LIST*
G04 Aperture macros list*
%AMRoundRect*
0 Rectangle with rounded corners*
0 $1 Rounding radius*
0 $2 $3 $4 $5 $6 $7 $8 $9 X,Y pos of 4 corners*
0 Add a 4 corners polygon primitive as box body*
4,1,4,$2,$3,$4,$5,$6,$7,$8,$9,$2,$3,0*
0 Add four circle primitives for the rounded corners*
1,1,$1+$1,$2,$3*
1,1,$1+$1,$4,$5*
1,1,$1+$1,$6,$7*
1,1,$1+$1,$8,$9*
0 Add four rect primitives between the rounded corners*
20,1,$1+$1,$2,$3,$4,$5,0*
20,1,$1+$1,$4,$5,$6,$7,0*
20,1,$1+$1,$6,$7,$8,$9,0*
20,1,$1+$1,$8,$9,$2,$3,0*%
G04 Aperture macros list end*
%TA.AperFunction,ComponentPad*%
%ADD10R,1.700000X1.700000*%
%TD*%
%TA.AperFunction,ComponentPad*%
%ADD11O,1.700000X1.700000*%
%TD*%
%TA.AperFunction,ComponentPad*%
%ADD12R,3.716000X3.716000*%
%TD*%
%TA.AperFunction,ComponentPad*%
%ADD13C,3.716000*%
%TD*%
%TA.AperFunction,ComponentPad*%
%ADD14O,1.200000X2.400000*%
%TD*%
%TA.AperFunction,ComponentPad*%
%ADD15C,1.635000*%
%TD*%
%TA.AperFunction,SMDPad,CuDef*%
%ADD16RoundRect,0.250000X-1.100000X0.412500X-1.100000X-0.412500X1.100000X-0.412500X1.100000X0.412500X0*%
%TD*%
%TA.AperFunction,SMDPad,CuDef*%
%ADD17RoundRect,0.237500X-0.300000X-0.237500X0.300000X-0.237500X0.300000X0.237500X-0.300000X0.237500X0*%
%TD*%
%TA.AperFunction,SMDPad,CuDef*%
%ADD18RoundRect,0.237500X-0.237500X0.300000X-0.237500X-0.300000X0.237500X-0.300000X0.237500X0.300000X0*%
%TD*%
%TA.AperFunction,SMDPad,CuDef*%
%ADD19RoundRect,0.250000X1.100000X-0.412500X1.100000X0.412500X-1.100000X0.412500X-1.100000X-0.412500X0*%
%TD*%
%TA.AperFunction,SMDPad,CuDef*%
%ADD20RoundRect,0.250000X0.625000X-0.400000X0.625000X0.400000X-0.625000X0.400000X-0.625000X-0.400000X0*%
%TD*%
%TA.AperFunction,SMDPad,CuDef*%
%ADD21RoundRect,0.237500X0.300000X0.237500X-0.300000X0.237500X-0.300000X-0.237500X0.300000X-0.237500X0*%
%TD*%
%TA.AperFunction,SMDPad,CuDef*%
%ADD22RoundRect,0.250000X0.350000X0.450000X-0.350000X0.450000X-0.350000X-0.450000X0.350000X-0.450000X0*%
%TD*%
%TA.AperFunction,SMDPad,CuDef*%
%ADD23R,2.260600X2.108200*%
%TD*%
%TA.AperFunction,SMDPad,CuDef*%
%ADD24RoundRect,0.250000X-0.350000X-0.450000X0.350000X-0.450000X0.350000X0.450000X-0.350000X0.450000X0*%
%TD*%
%TA.AperFunction,SMDPad,CuDef*%
%ADD25R,0.609600X0.279400*%
%TD*%
%TA.AperFunction,SMDPad,CuDef*%
%ADD26RoundRect,0.237500X-0.250000X-0.237500X0.250000X-0.237500X0.250000X0.237500X-0.250000X0.237500X0*%
%TD*%
%TA.AperFunction,ViaPad*%
%ADD27C,0.800000*%
%TD*%
%TA.AperFunction,Conductor*%
%ADD28C,0.250000*%
%TD*%
%TA.AperFunction,Conductor*%
%ADD29C,0.300000*%
%TD*%
%TA.AperFunction,Conductor*%
%ADD30C,1.000000*%
%TD*%
%TA.AperFunction,Conductor*%
%ADD31C,0.200000*%
%TD*%
G04 APERTURE END LIST*
D10*
%TO.P,J7,1,Pin_1*%
%TO.N,/3.3V*%
X128800000Y-119300000D03*
D11*
%TO.P,J7,2,Pin_2*%
%TO.N,unconnected-(J7-Pin_2-Pad2)*%
X128800000Y-121840000D03*
%TO.P,J7,3,Pin_3*%
%TO.N,GND*%
X128800000Y-124380000D03*
%TO.P,J7,4,Pin_4*%
%TO.N,/SCL*%
X128800000Y-126920000D03*
%TO.P,J7,5,Pin_5*%
%TO.N,/SDA*%
X128800000Y-129460000D03*
%TO.P,J7,6,Pin_6*%
%TO.N,unconnected-(J7-Pin_6-Pad6)*%
X128800000Y-132000000D03*
%TD*%
D10*
%TO.P,J3,1,Pin_1*%
%TO.N,/3.3V*%
X137475000Y-70525000D03*
D11*
%TO.P,J3,2,Pin_2*%
%TO.N,/5V*%
X137475000Y-67985000D03*
%TO.P,J3,3,Pin_3*%
%TO.N,/SDA*%
X140015000Y-70525000D03*
%TO.P,J3,4,Pin_4*%
%TO.N,/5V*%
X140015000Y-67985000D03*
%TO.P,J3,5,Pin_5*%
%TO.N,/SCL*%
X142555000Y-70525000D03*
%TO.P,J3,6,Pin_6*%
%TO.N,GND*%
X142555000Y-67985000D03*
%TD*%
D10*
%TO.P,J1,1,Pin_1*%
%TO.N,/3.3V*%
X128815000Y-91354200D03*
D11*
%TO.P,J1,2,Pin_2*%
%TO.N,GND*%
X128815000Y-93894200D03*
%TO.P,J1,3,Pin_3*%
%TO.N,/SCL*%
X128815000Y-96434200D03*
%TO.P,J1,4,Pin_4*%
%TO.N,/SDA*%
X128815000Y-98974200D03*
%TO.P,J1,5,Pin_5*%
%TO.N,unconnected-(J1-Pin_5-Pad5)*%
X128815000Y-101514200D03*
%TO.P,J1,6,Pin_6*%
%TO.N,unconnected-(J1-Pin_6-Pad6)*%
X128815000Y-104054200D03*
%TO.P,J1,7,Pin_7*%
%TO.N,unconnected-(J1-Pin_7-Pad7)*%
X128815000Y-106594200D03*
%TO.P,J1,8,Pin_8*%
%TO.N,unconnected-(J1-Pin_8-Pad8)*%
X128815000Y-109134200D03*
%TO.P,J1,9,Pin_9*%
%TO.N,unconnected-(J1-Pin_9-Pad9)*%
X128815000Y-111674200D03*
%TO.P,J1,10,Pin_10*%
%TO.N,unconnected-(J1-Pin_10-Pad10)*%
X128815000Y-114214200D03*
%TD*%
D10*
%TO.P,J2,1,Pin_1*%
%TO.N,/3.3V*%
X151000000Y-79400000D03*
D11*
%TO.P,J2,2,Pin_2*%
%TO.N,/5V*%
X153540000Y-79400000D03*
%TO.P,J2,3,Pin_3*%
%TO.N,/SDA*%
X151000000Y-81940000D03*
%TO.P,J2,4,Pin_4*%
%TO.N,/5V*%
X153540000Y-81940000D03*
%TO.P,J2,5,Pin_5*%
%TO.N,/SCL*%
X151000000Y-84480000D03*
%TO.P,J2,6,Pin_6*%
%TO.N,GND*%
X153540000Y-84480000D03*
%TO.P,J2,7,Pin_7*%
%TO.N,unconnected-(J2-Pin_7-Pad7)*%
X151000000Y-87020000D03*
%TO.P,J2,8,Pin_8*%
%TO.N,unconnected-(J2-Pin_8-Pad8)*%
X153540000Y-87020000D03*
%TO.P,J2,9,Pin_9*%
%TO.N,unconnected-(J2-Pin_9-Pad9)*%
X151000000Y-89560000D03*
%TO.P,J2,10,Pin_10*%
%TO.N,unconnected-(J2-Pin_10-Pad10)*%
X153540000Y-89560000D03*
%TO.P,J2,11,Pin_11*%
%TO.N,unconnected-(J2-Pin_11-Pad11)*%
X151000000Y-92100000D03*
%TO.P,J2,12,Pin_12*%
%TO.N,unconnected-(J2-Pin_12-Pad12)*%
X153540000Y-92100000D03*
%TO.P,J2,13,Pin_13*%
%TO.N,unconnected-(J2-Pin_13-Pad13)*%
X151000000Y-94640000D03*
%TO.P,J2,14,Pin_14*%
%TO.N,unconnected-(J2-Pin_14-Pad14)*%
X153540000Y-94640000D03*
%TO.P,J2,15,Pin_15*%
%TO.N,unconnected-(J2-Pin_15-Pad15)*%
X151000000Y-97180000D03*
%TO.P,J2,16,Pin_16*%
%TO.N,unconnected-(J2-Pin_16-Pad16)*%
X153540000Y-97180000D03*
%TO.P,J2,17,Pin_17*%
%TO.N,unconnected-(J2-Pin_17-Pad17)*%
X151000000Y-99720000D03*
%TO.P,J2,18,Pin_18*%
%TO.N,unconnected-(J2-Pin_18-Pad18)*%
X153540000Y-99720000D03*
%TO.P,J2,19,Pin_19*%
%TO.N,/MOSI*%
X151000000Y-102260000D03*
%TO.P,J2,20,Pin_20*%
%TO.N,unconnected-(J2-Pin_20-Pad20)*%
X153540000Y-102260000D03*
%TO.P,J2,21,Pin_21*%
%TO.N,/MISO*%
X151000000Y-104800000D03*
%TO.P,J2,22,Pin_22*%
%TO.N,unconnected-(J2-Pin_22-Pad22)*%
X153540000Y-104800000D03*
%TO.P,J2,23,Pin_23*%
%TO.N,/SCLK*%
X151000000Y-107340000D03*
%TO.P,J2,24,Pin_24*%
%TO.N,/CS*%
X153540000Y-107340000D03*
%TO.P,J2,25,Pin_25*%
%TO.N,unconnected-(J2-Pin_25-Pad25)*%
X151000000Y-109880000D03*
%TO.P,J2,26,Pin_26*%
%TO.N,unconnected-(J2-Pin_26-Pad26)*%
X153540000Y-109880000D03*
%TO.P,J2,27,Pin_27*%
%TO.N,unconnected-(J2-Pin_27-Pad27)*%
X151000000Y-112420000D03*
%TO.P,J2,28,Pin_28*%
%TO.N,unconnected-(J2-Pin_28-Pad28)*%
X153540000Y-112420000D03*
%TO.P,J2,29,Pin_29*%
%TO.N,unconnected-(J2-Pin_29-Pad29)*%
X151000000Y-114960000D03*
%TO.P,J2,30,Pin_30*%
%TO.N,unconnected-(J2-Pin_30-Pad30)*%
X153540000Y-114960000D03*
%TO.P,J2,31,Pin_31*%
%TO.N,unconnected-(J2-Pin_31-Pad31)*%
X151000000Y-117500000D03*
%TO.P,J2,32,Pin_32*%
%TO.N,unconnected-(J2-Pin_32-Pad32)*%
X153540000Y-117500000D03*
%TO.P,J2,33,Pin_33*%
%TO.N,unconnected-(J2-Pin_33-Pad33)*%
X151000000Y-120040000D03*
%TO.P,J2,34,Pin_34*%
%TO.N,unconnected-(J2-Pin_34-Pad34)*%
X153540000Y-120040000D03*
%TO.P,J2,35,Pin_35*%
%TO.N,unconnected-(J2-Pin_35-Pad35)*%
X151000000Y-122580000D03*
%TO.P,J2,36,Pin_36*%
%TO.N,unconnected-(J2-Pin_36-Pad36)*%
X153540000Y-122580000D03*
%TO.P,J2,37,Pin_37*%
%TO.N,unconnected-(J2-Pin_37-Pad37)*%
X151000000Y-125120000D03*
%TO.P,J2,38,Pin_38*%
%TO.N,unconnected-(J2-Pin_38-Pad38)*%
X153540000Y-125120000D03*
%TO.P,J2,39,Pin_39*%
%TO.N,unconnected-(J2-Pin_39-Pad39)*%
X151000000Y-127660000D03*
%TO.P,J2,40,Pin_40*%
%TO.N,unconnected-(J2-Pin_40-Pad40)*%
X153540000Y-127660000D03*
%TD*%
D10*
%TO.P,J4,1,Pin_1*%
%TO.N,/12V*%
X96550000Y-96000000D03*
D11*
%TO.P,J4,2,Pin_2*%
%TO.N,GND*%
X96550000Y-98540000D03*
%TO.P,J4,3,Pin_3*%
%TO.N,/SCL*%
X96550000Y-101080000D03*
%TO.P,J4,4,Pin_4*%
%TO.N,/SDA*%
X96550000Y-103620000D03*
%TD*%
D12*
%TO.P,J5,1,+*%
%TO.N,/Buck Converter/12Vin*%
X120100000Y-82000000D03*
D13*
%TO.P,J5,2,-*%
%TO.N,GND*%
X112900000Y-82000000D03*
D14*
%TO.P,J5,S1*%
%TO.N,N/C*%
X123250000Y-76000000D03*
%TO.P,J5,S2*%
X109750000Y-76000000D03*
%TD*%
D12*
%TO.P,J8,1,+*%
%TO.N,/Buck Converter/12Vin*%
X113800000Y-119100000D03*
D13*
%TO.P,J8,2,-*%
%TO.N,GND*%
X121000000Y-119100000D03*
D14*
%TO.P,J8,S1*%
%TO.N,N/C*%
X110650000Y-125100000D03*
%TO.P,J8,S2*%
X124150000Y-125100000D03*
%TD*%
D10*
%TO.P,J6,1,Pin_1*%
%TO.N,/12V*%
X160350000Y-96000000D03*
D11*
%TO.P,J6,2,Pin_2*%
%TO.N,GND*%
X160350000Y-98540000D03*
%TO.P,J6,3,Pin_3*%
%TO.N,/SCL*%
X160350000Y-101080000D03*
%TO.P,J6,4,Pin_4*%
%TO.N,/SDA*%
X160350000Y-103620000D03*
%TD*%
D15*
%TO.P,S1,1,1*%
%TO.N,/Buck Converter/12Vin*%
X112318800Y-103378000D03*
%TO.P,S1,3,3*%
%TO.N,/12V*%
X112318800Y-98298000D03*
%TD*%
D16*
%TO.P,C7,1*%
%TO.N,/5V*%
X123139200Y-99822000D03*
%TO.P,C7,2*%
%TO.N,GND*%
X123139200Y-102947000D03*
%TD*%
D17*
%TO.P,C9,1*%
%TO.N,/5V*%
X130212500Y-77275000D03*
%TO.P,C9,2*%
%TO.N,Net-(C9-Pad2)*%
X131937500Y-77275000D03*
%TD*%
D18*
%TO.P,C3,1*%
%TO.N,Net-(U1-PG)*%
X136250000Y-79887500D03*
%TO.P,C3,2*%
%TO.N,GND*%
X136250000Y-81612500D03*
%TD*%
D16*
%TO.P,C6,1*%
%TO.N,/5V*%
X119239200Y-99822000D03*
%TO.P,C6,2*%
%TO.N,GND*%
X119239200Y-102947000D03*
%TD*%
D19*
%TO.P,C1,1*%
%TO.N,/12V*%
X131900000Y-87037500D03*
%TO.P,C1,2*%
%TO.N,GND*%
X131900000Y-83912500D03*
%TD*%
%TO.P,C2,1*%
%TO.N,/12V*%
X127650000Y-87037500D03*
%TO.P,C2,2*%
%TO.N,GND*%
X127650000Y-83912500D03*
%TD*%
D20*
%TO.P,R2,1*%
%TO.N,/12V*%
X135750000Y-87050000D03*
%TO.P,R2,2*%
%TO.N,Net-(U1-EN{slash}SYNC)*%
X135750000Y-83950000D03*
%TD*%
D21*
%TO.P,C4,1*%
%TO.N,Net-(U1-SW)*%
X140612500Y-83975000D03*
%TO.P,C4,2*%
%TO.N,Net-(C4-Pad2)*%
X138887500Y-83975000D03*
%TD*%
D22*
%TO.P,R5,1*%
%TO.N,GND*%
X136300000Y-77275000D03*
%TO.P,R5,2*%
%TO.N,Net-(C9-Pad2)*%
X134300000Y-77275000D03*
%TD*%
D23*
%TO.P,L1,1,1*%
%TO.N,Net-(U1-SW)*%
X140481400Y-78250000D03*
%TO.P,L1,2,2*%
%TO.N,/5V*%
X146018600Y-78250000D03*
%TD*%
D24*
%TO.P,R14,1*%
%TO.N,/5V*%
X130050000Y-75000000D03*
%TO.P,R14,2*%
%TO.N,Net-(C9-Pad2)*%
X132050000Y-75000000D03*
%TD*%
D25*
%TO.P,U1,1,PG*%
%TO.N,Net-(U1-PG)*%
X133749300Y-79749999D03*
%TO.P,U1,2,IN*%
%TO.N,/12V*%
X133749300Y-80250000D03*
%TO.P,U1,3,SW*%
%TO.N,Net-(U1-SW)*%
X133749300Y-80750000D03*
%TO.P,U1,4,GND*%
%TO.N,GND*%
X133749300Y-81250001D03*
%TO.P,U1,5,BST*%
%TO.N,Net-(U1-BST)*%
X132250700Y-81250001D03*
%TO.P,U1,6,EN/SYNC*%
%TO.N,Net-(U1-EN{slash}SYNC)*%
X132250700Y-80750000D03*
%TO.P,U1,7,SS*%
%TO.N,Net-(U1-SS)*%
X132250700Y-80250000D03*
%TO.P,U1,8,FB*%
%TO.N,Net-(U1-FB)*%
X132250700Y-79749999D03*
%TD*%
D18*
%TO.P,C8,1*%
%TO.N,Net-(U1-SS)*%
X129875000Y-79887500D03*
%TO.P,C8,2*%
%TO.N,GND*%
X129875000Y-81612500D03*
%TD*%
D26*
%TO.P,R4,1*%
%TO.N,Net-(U1-BST)*%
X138812500Y-86000000D03*
%TO.P,R4,2*%
%TO.N,Net-(C4-Pad2)*%
X140637500Y-86000000D03*
%TD*%
D22*
%TO.P,R3,1*%
%TO.N,Net-(U1-FB)*%
X136325000Y-75000000D03*
%TO.P,R3,2*%
%TO.N,Net-(C9-Pad2)*%
X134325000Y-75000000D03*
%TD*%
D27*
%TO.N,GND*%
X129800000Y-84400000D03*
X137545995Y-76048127D03*
%TO.N,Net-(U1-SW)*%
X139700000Y-75900000D03*
X137450000Y-79750000D03*
%TO.N,GND*%
X138300000Y-82000000D03*
X131700000Y-82300000D03*
X152196800Y-85801200D03*
X145186400Y-67868800D03*
%TO.N,Net-(U1-FB)*%
X131150000Y-79450000D03*
X138500000Y-75750000D03*
%TD*%
D28*
%TO.N,GND*%
X129800000Y-84400000D02*
X129800000Y-81687500D01*
X129800000Y-81687500D02*
X129875000Y-81612500D01*
X137545995Y-76048127D02*
X137526873Y-76048127D01*
X137526873Y-76048127D02*
X136300000Y-77275000D01*
%TO.N,/3.3V*%
X128800000Y-119300000D02*
X130800000Y-117300000D01*
X127450000Y-96972804D02*
X127450000Y-92719200D01*
X130800000Y-117300000D02*
X130800000Y-98600000D01*
X128177196Y-97700000D02*
X127450000Y-96972804D01*
X130800000Y-98600000D02*
X129900000Y-97700000D01*
X129900000Y-97700000D02*
X128177196Y-97700000D01*
X127450000Y-92719200D02*
X128815000Y-91354200D01*
X128815000Y-91354200D02*
X140245800Y-91354200D01*
X140245800Y-91354200D02*
X147950000Y-83650000D01*
X147950000Y-83650000D02*
X149950000Y-83650000D01*
X149950000Y-83650000D02*
X150400000Y-83200000D01*
X150400000Y-83200000D02*
X151800000Y-83200000D01*
X151800000Y-83200000D02*
X152200000Y-82800000D01*
X152200000Y-82800000D02*
X152200000Y-80600000D01*
X152200000Y-80600000D02*
X151000000Y-79400000D01*
%TO.N,/SCL*%
X128815000Y-96434200D02*
X135965800Y-96434200D01*
X135965800Y-96434200D02*
X147920000Y-84480000D01*
X147920000Y-84480000D02*
X151000000Y-84480000D01*
%TO.N,/SDA*%
X128815000Y-98974200D02*
X127000000Y-97159200D01*
X141400000Y-89400000D02*
X147600000Y-83200000D01*
X127000000Y-97159200D02*
X127000000Y-90000000D01*
X127000000Y-90000000D02*
X127600000Y-89400000D01*
X127600000Y-89400000D02*
X141400000Y-89400000D01*
X147600000Y-83200000D02*
X149740000Y-83200000D01*
X149740000Y-83200000D02*
X151000000Y-81940000D01*
D29*
%TO.N,/12V*%
X133000000Y-80000000D02*
X133000000Y-79300000D01*
D30*
X127650000Y-87037500D02*
X127616300Y-87071200D01*
X116433600Y-79166400D02*
X119745600Y-75854400D01*
D29*
X129250000Y-78500000D02*
X125700000Y-82050000D01*
X133749300Y-80250000D02*
X133250000Y-80250000D01*
D30*
X126187200Y-87071200D02*
X124866400Y-85750400D01*
X157391726Y-65900000D02*
X160400000Y-68908274D01*
D28*
X135737500Y-87037500D02*
X135750000Y-87050000D01*
D30*
X116433600Y-88747600D02*
X116433600Y-79166400D01*
X119745600Y-75854400D02*
X129700000Y-65900000D01*
X160350000Y-71300000D02*
X160350000Y-96000000D01*
D29*
X133250000Y-80250000D02*
X133000000Y-80000000D01*
X133000000Y-79300000D02*
X132200000Y-78500000D01*
D30*
X114725600Y-95891200D02*
X114725600Y-90455600D01*
X112318800Y-98298000D02*
X114725600Y-95891200D01*
X127616300Y-87071200D02*
X126187200Y-87071200D01*
D29*
X132200000Y-78500000D02*
X129250000Y-78500000D01*
D30*
X124866400Y-85750400D02*
X124815600Y-85750400D01*
X160400000Y-71250000D02*
X160350000Y-71300000D01*
X131900000Y-87037500D02*
X135737500Y-87037500D01*
X160400000Y-68908274D02*
X160400000Y-71250000D01*
X124815600Y-80924400D02*
X119745600Y-75854400D01*
X114725600Y-90455600D02*
X116433600Y-88747600D01*
X124815600Y-85750400D02*
X124815600Y-80924400D01*
D29*
X125700000Y-85087500D02*
X127650000Y-87037500D01*
X125700000Y-82050000D02*
X125700000Y-85087500D01*
D30*
X129700000Y-65900000D02*
X157391726Y-65900000D01*
X127650000Y-87037500D02*
X131900000Y-87037500D01*
D28*
%TO.N,Net-(U1-PG)*%
X136250000Y-79887500D02*
X136112499Y-79749999D01*
X136112499Y-79749999D02*
X133749300Y-79749999D01*
D31*
%TO.N,Net-(U1-SW)*%
X139700000Y-75900000D02*
X140481400Y-76681400D01*
X137400000Y-80300000D02*
X137450000Y-80250000D01*
X133749300Y-80750000D02*
X136950000Y-80750000D01*
D28*
X140481400Y-78250000D02*
X140481400Y-83843900D01*
D31*
X140481400Y-76681400D02*
X140481400Y-78250000D01*
X137450000Y-80250000D02*
X137450000Y-79750000D01*
D28*
X140481400Y-83843900D02*
X140612500Y-83975000D01*
D31*
X136950000Y-80750000D02*
X137400000Y-80300000D01*
D28*
%TO.N,Net-(U1-SS)*%
X130237500Y-80250000D02*
X129875000Y-79887500D01*
X132250700Y-80250000D02*
X130237500Y-80250000D01*
D31*
%TO.N,/3.3V*%
X142702022Y-72150000D02*
X149952022Y-79400000D01*
X139100000Y-72150000D02*
X142702022Y-72150000D01*
X137475000Y-70525000D02*
X139100000Y-72150000D01*
X149952022Y-79400000D02*
X151000000Y-79400000D01*
D28*
%TO.N,GND*%
X138300000Y-82000000D02*
X137912500Y-81612500D01*
X138300000Y-78000000D02*
X137575000Y-77275000D01*
X134750001Y-81250001D02*
X133749300Y-81250001D01*
X135112500Y-81612500D02*
X134750001Y-81250001D01*
X137912500Y-81612500D02*
X137387500Y-81612500D01*
X129875000Y-81612500D02*
X129875000Y-81887500D01*
X136250000Y-81612500D02*
X135112500Y-81612500D01*
X131900000Y-83912500D02*
X131900000Y-82500000D01*
X119239200Y-102947000D02*
X123139200Y-102947000D01*
X137575000Y-77275000D02*
X136300000Y-77275000D01*
X129875000Y-81887500D02*
X131900000Y-83912500D01*
X129875000Y-81687500D02*
X127650000Y-83912500D01*
X138300000Y-80700000D02*
X138300000Y-78000000D01*
X129875000Y-81612500D02*
X129875000Y-81687500D01*
X131900000Y-82500000D02*
X131700000Y-82300000D01*
X136250000Y-81612500D02*
X137387500Y-81612500D01*
X137387500Y-81612500D02*
X138300000Y-80700000D01*
%TO.N,/5V*%
X141452600Y-87198200D02*
X146018600Y-82632200D01*
X140700000Y-72900000D02*
X132689600Y-72900000D01*
X148150000Y-73350000D02*
X148150000Y-75750000D01*
X153540000Y-78540000D02*
X153540000Y-79400000D01*
X123139200Y-92887800D02*
X123088400Y-92837000D01*
X140015000Y-67985000D02*
X141330000Y-69300000D01*
X141330000Y-69300000D02*
X144100000Y-69300000D01*
X131300000Y-72900000D02*
X130050000Y-74150000D01*
X130050000Y-75000000D02*
X130050000Y-77112500D01*
X132689600Y-72900000D02*
X131300000Y-72900000D01*
X137236200Y-88468200D02*
X138506200Y-87198200D01*
X150200000Y-77800000D02*
X152800000Y-77800000D01*
X144100000Y-69300000D02*
X148150000Y-73350000D01*
X119239200Y-99822000D02*
X123139200Y-99822000D01*
X123139200Y-99822000D02*
X123139200Y-92887800D01*
X153540000Y-79400000D02*
X153540000Y-81940000D01*
X130050000Y-77112500D02*
X130212500Y-77275000D01*
X132689600Y-72770400D02*
X137475000Y-67985000D01*
X123088400Y-92837000D02*
X127457200Y-88468200D01*
X130050000Y-74150000D02*
X130050000Y-75000000D01*
X127457200Y-88468200D02*
X137236200Y-88468200D01*
X148150000Y-75750000D02*
X150200000Y-77800000D01*
X132689600Y-72900000D02*
X132689600Y-72770400D01*
X146018600Y-82632200D02*
X146018600Y-78250000D01*
X137475000Y-67985000D02*
X140015000Y-67985000D01*
X152800000Y-77800000D02*
X153540000Y-78540000D01*
X146018600Y-78218600D02*
X140700000Y-72900000D01*
X146018600Y-78250000D02*
X146018600Y-78218600D01*
X138506200Y-87198200D02*
X141452600Y-87198200D01*
%TO.N,Net-(C4-Pad2)*%
X138887500Y-83975000D02*
X138887500Y-84250000D01*
X138887500Y-84250000D02*
X140637500Y-86000000D01*
%TO.N,Net-(C9-Pad2)*%
X132050000Y-75000000D02*
X134325000Y-75000000D01*
X134325000Y-77250000D02*
X134300000Y-77275000D01*
X134325000Y-75000000D02*
X134325000Y-77250000D01*
X131937500Y-77275000D02*
X131937500Y-75112500D01*
X134300000Y-77275000D02*
X131937500Y-77275000D01*
X131937500Y-75112500D02*
X132050000Y-75000000D01*
D31*
%TO.N,Net-(U1-EN{slash}SYNC)*%
X133050000Y-81650000D02*
X133800000Y-82400000D01*
X132794221Y-80750000D02*
X133050000Y-81005779D01*
X132250700Y-80750000D02*
X132794221Y-80750000D01*
X133050000Y-81005779D02*
X133050000Y-81650000D01*
X135750000Y-82800000D02*
X135750000Y-83950000D01*
X133800000Y-82400000D02*
X135350000Y-82400000D01*
X135350000Y-82400000D02*
X135750000Y-82800000D01*
D28*
%TO.N,Net-(U1-FB)*%
X131950701Y-79450000D02*
X132250700Y-79749999D01*
X136525000Y-74800000D02*
X136325000Y-75000000D01*
X137550000Y-74800000D02*
X136525000Y-74800000D01*
X131150000Y-79450000D02*
X131950701Y-79450000D01*
X138500000Y-75750000D02*
X137550000Y-74800000D01*
D31*
%TO.N,Net-(U1-BST)*%
X134300000Y-85400000D02*
X134000000Y-85100000D01*
X134000000Y-83300000D02*
X132250700Y-81550700D01*
X138812500Y-86000000D02*
X137250000Y-86000000D01*
X137250000Y-86000000D02*
X136650000Y-85400000D01*
X134000000Y-85100000D02*
X134000000Y-83300000D01*
X132250700Y-81550700D02*
X132250700Y-81250001D01*
X136650000Y-85400000D02*
X134300000Y-85400000D01*
D30*
%TO.N,/Buck Converter/12Vin*%
X115925600Y-99771200D02*
X115925600Y-91135200D01*
X120100000Y-86960800D02*
X120100000Y-82000000D01*
X115925600Y-91135200D02*
X120100000Y-86960800D01*
X112318800Y-103378000D02*
X115925600Y-99771200D01*
%TD*%
%TA.AperFunction,Conductor*%
%TO.N,GND*%
G36*
X163154937Y-64788388D02*
G01*
X163366877Y-64805068D01*
X163386393Y-64808160D01*
X163406550Y-64813000D01*
X163588279Y-64856630D01*
X163607081Y-64862738D01*
X163716405Y-64908022D01*
X163798895Y-64942190D01*
X163816512Y-64951166D01*
X163993540Y-65059649D01*
X164009536Y-65071271D01*
X164167410Y-65206109D01*
X164181390Y-65220089D01*
X164316228Y-65377963D01*
X164327850Y-65393959D01*
X164436333Y-65570987D01*
X164445309Y-65588604D01*
X164524760Y-65780417D01*
X164530869Y-65799220D01*
X164579338Y-66001104D01*
X164582432Y-66020633D01*
X164599112Y-66232570D01*
X164599500Y-66242456D01*
X164599500Y-66274306D01*
X164599507Y-66274350D01*
X164613838Y-134484378D01*
X164613449Y-134494293D01*
X164596767Y-134706200D01*
X164593674Y-134725727D01*
X164545201Y-134927615D01*
X164539091Y-134946418D01*
X164459639Y-135138226D01*
X164450663Y-135155843D01*
X164342177Y-135332872D01*
X164330556Y-135348866D01*
X164195720Y-135506739D01*
X164181739Y-135520720D01*
X164023866Y-135655556D01*
X164007872Y-135667177D01*
X163830843Y-135775663D01*
X163813226Y-135784639D01*
X163621418Y-135864091D01*
X163602615Y-135870201D01*
X163400727Y-135918674D01*
X163381200Y-135921767D01*
X163206212Y-135935542D01*
X163169271Y-135938451D01*
X163159385Y-135938840D01*
X163129310Y-135938840D01*
X163129276Y-135938844D01*
X94604971Y-135949499D01*
X94595065Y-135949111D01*
X94383133Y-135932432D01*
X94363604Y-135929338D01*
X94161720Y-135880869D01*
X94142917Y-135874760D01*
X93951104Y-135795309D01*
X93933487Y-135786333D01*
X93756459Y-135677850D01*
X93740463Y-135666228D01*
X93582589Y-135531390D01*
X93568609Y-135517410D01*
X93433771Y-135359536D01*
X93422149Y-135343540D01*
X93313666Y-135166512D01*
X93304690Y-135148895D01*
X93256504Y-135032564D01*
X93225238Y-134957081D01*
X93219130Y-134938279D01*
X93170661Y-134736395D01*
X93167568Y-134716875D01*
X93150888Y-134504928D01*
X93150500Y-134495043D01*
X93150500Y-134464197D01*
X93150425Y-134463732D01*
X93146669Y-132624335D01*
X100999500Y-132624335D01*
X101040429Y-132869614D01*
X101040430Y-132869616D01*
X101121170Y-133104806D01*
X101121171Y-133104809D01*
X101121172Y-133104810D01*
X101238408Y-133321444D01*
X101239527Y-133323510D01*
X101392262Y-133519744D01*
X101575217Y-133688166D01*
X101783389Y-133824171D01*
X101783391Y-133824172D01*
X101783393Y-133824173D01*
X102011119Y-133924063D01*
X102252179Y-133985108D01*
X102437933Y-134000500D01*
X102440547Y-134000500D01*
X102559453Y-134000500D01*
X102562067Y-134000500D01*
X102747821Y-133985108D01*
X102988881Y-133924063D01*
X103216607Y-133824173D01*
X103424785Y-133688164D01*
X103607738Y-133519744D01*
X103760474Y-133323509D01*
X103878828Y-133104810D01*
X103959571Y-132869614D01*
X104000500Y-132624335D01*
X104000500Y-132375665D01*
X103959571Y-132130386D01*
X103878828Y-131895190D01*
X103760474Y-131676491D01*
X103607738Y-131480256D01*
X103424785Y-131311836D01*
X103424782Y-131311833D01*
X103216610Y-131175828D01*
X102988876Y-131075935D01*
X102747826Y-131014893D01*
X102747824Y-131014892D01*
X102747821Y-131014892D01*
X102623361Y-131004578D01*
X102564665Y-130999715D01*
X102564658Y-130999714D01*
X102562067Y-130999500D01*
X102437933Y-130999500D01*
X102435342Y-130999714D01*
X102435334Y-130999715D01*
X102359028Y-131006038D01*
X102252179Y-131014892D01*
X102252176Y-131014892D01*
X102252173Y-131014893D01*
X102011123Y-131075935D01*
X101783389Y-131175828D01*
X101575217Y-131311833D01*
X101392262Y-131480255D01*
X101239527Y-131676489D01*
X101121170Y-131895193D01*
X101040430Y-132130383D01*
X101040429Y-132130386D01*
X100999500Y-132375665D01*
X100999500Y-132624335D01*
X93146669Y-132624335D01*
X93132638Y-125752803D01*
X109541500Y-125752803D01*
X109543984Y-125778813D01*
X109556581Y-125910742D01*
X109616222Y-126113861D01*
X109713230Y-126302028D01*
X109765380Y-126368342D01*
X109844092Y-126468432D01*
X110004082Y-126607065D01*
X110187418Y-126712913D01*
X110387473Y-126782153D01*
X110492244Y-126797217D01*
X110597014Y-126812281D01*
X110597015Y-126812280D01*
X110597016Y-126812281D01*
X110808474Y-126802208D01*
X111014204Y-126752298D01*
X111206771Y-126664356D01*
X111206771Y-126664355D01*
X111206775Y-126664354D01*
X111379211Y-126541563D01*
X111418065Y-126500814D01*
X111525303Y-126388346D01*
X111639756Y-126210254D01*
X111718436Y-126013721D01*
X111758500Y-125805849D01*
X111758500Y-125752803D01*
X123041500Y-125752803D01*
X123043984Y-125778813D01*
X123056581Y-125910742D01*
X123116222Y-126113861D01*
X123213230Y-126302028D01*
X123265380Y-126368342D01*
X123344092Y-126468432D01*
X123504082Y-126607065D01*
X123687418Y-126712913D01*
X123887473Y-126782153D01*
X123992244Y-126797217D01*
X124097014Y-126812281D01*
X124097015Y-126812280D01*
X124097016Y-126812281D01*
X124308474Y-126802208D01*
X124514204Y-126752298D01*
X124706771Y-126664356D01*
X124706771Y-126664355D01*
X124706775Y-126664354D01*
X124879211Y-126541563D01*
X124918065Y-126500814D01*
X125025303Y-126388346D01*
X125139756Y-126210254D01*
X125218436Y-126013721D01*
X125258500Y-125805849D01*
X125258500Y-124447197D01*
X125243419Y-124289261D01*
X125195481Y-124126000D01*
X125183777Y-124086138D01*
X125164735Y-124049202D01*
X125086771Y-123897974D01*
X124955908Y-123731568D01*
X124795918Y-123592935D01*
X124778547Y-123582906D01*
X124612581Y-123487086D01*
X124412524Y-123417846D01*
X124202985Y-123387718D01*
X123991527Y-123397791D01*
X123785797Y-123447701D01*
X123593224Y-123535645D01*
X123420788Y-123658436D01*
X123274696Y-123811655D01*
X123160241Y-123989749D01*
X123081564Y-124186275D01*
X123041500Y-124394150D01*
X123041500Y-124394151D01*
X123041500Y-125752803D01*
X111758500Y-125752803D01*
X111758500Y-124447197D01*
X111743419Y-124289261D01*
X111695481Y-124126000D01*
X111683777Y-124086138D01*
X111664735Y-124049202D01*
X111586771Y-123897974D01*
X111455908Y-123731568D01*
X111295918Y-123592935D01*
X111278547Y-123582906D01*
X111112581Y-123487086D01*
X110912524Y-123417846D01*
X110702985Y-123387718D01*
X110491527Y-123397791D01*
X110285797Y-123447701D01*
X110093224Y-123535645D01*
X109920788Y-123658436D01*
X109774696Y-123811655D01*
X109660241Y-123989749D01*
X109581564Y-124186275D01*
X109541500Y-124394150D01*
X109541500Y-124394151D01*
X109541500Y-125752803D01*
X93132638Y-125752803D01*
X93122940Y-121003287D01*
X111433499Y-121003287D01*
X111433500Y-121006638D01*
X111433860Y-121009986D01*
X111440011Y-121067200D01*
X111491111Y-121204205D01*
X111578738Y-121321261D01*
X111695794Y-121408888D01*
X111695795Y-121408888D01*
X111695796Y-121408889D01*
X111832799Y-121459989D01*
X111893362Y-121466500D01*
X111896731Y-121466500D01*
X115703269Y-121466500D01*
X115706638Y-121466500D01*
X115767201Y-121459989D01*
X115904204Y-121408889D01*
X116021261Y-121321261D01*
X116108889Y-121204204D01*
X116159989Y-121067201D01*
X116166500Y-121006638D01*
X116166500Y-119104119D01*
X118629193Y-119104119D01*
X118648938Y-119405373D01*
X118650012Y-119413531D01*
X118708910Y-119709635D01*
X118711041Y-119717586D01*
X118808084Y-120003465D01*
X118811233Y-120011070D01*
X118944760Y-120281835D01*
X118948881Y-120288972D01*
X119116605Y-120539988D01*
X119121616Y-120546520D01*
X119155561Y-120585226D01*
X119155563Y-120585226D01*
X119882743Y-119858045D01*
X119961890Y-119971078D01*
X120128922Y-120138110D01*
X120241952Y-120217255D01*
X119514772Y-120944435D01*
X119514772Y-120944437D01*
X119553474Y-120978378D01*
X119560011Y-120983395D01*
X119811027Y-121151118D01*
X119818164Y-121155239D01*
X120088929Y-121288766D01*
X120096534Y-121291915D01*
X120382413Y-121388958D01*
X120390364Y-121391089D01*
X120686468Y-121449987D01*
X120694626Y-121451061D01*
X120995881Y-121470807D01*
X121004119Y-121470807D01*
X121305373Y-121451061D01*
X121313531Y-121449987D01*
X121609635Y-121391089D01*
X121617586Y-121388958D01*
X121903465Y-121291915D01*
X121911070Y-121288766D01*
X122181835Y-121155239D01*
X122188972Y-121151118D01*
X122439989Y-120983393D01*
X122446515Y-120978386D01*
X122485226Y-120944436D01*
X122485226Y-120944435D01*
X121758046Y-120217255D01*
X121871078Y-120138110D01*
X122038110Y-119971078D01*
X122117255Y-119858046D01*
X122844435Y-120585226D01*
X122844436Y-120585226D01*
X122878386Y-120546515D01*
X122883393Y-120539989D01*
X123051118Y-120288972D01*
X123055239Y-120281835D01*
X123188766Y-120011070D01*
X123191915Y-120003465D01*
X123288958Y-119717586D01*
X123291089Y-119709635D01*
X123349987Y-119413531D01*
X123351061Y-119405373D01*
X123370807Y-119104119D01*
X123370807Y-119095880D01*
X123351061Y-118794626D01*
X123349987Y-118786468D01*
X123291089Y-118490364D01*
X123288958Y-118482413D01*
X123191918Y-118196542D01*
X123188763Y-118188924D01*
X123055238Y-117918164D01*
X123051117Y-117911026D01*
X122883395Y-117660011D01*
X122878378Y-117653474D01*
X122844437Y-117614772D01*
X122844435Y-117614772D01*
X122117254Y-118341952D01*
X122038110Y-118228922D01*
X121871078Y-118061890D01*
X121758045Y-117982744D01*
X122485226Y-117255563D01*
X122485226Y-117255561D01*
X122446520Y-117221616D01*
X122439988Y-117216605D01*
X122188972Y-117048881D01*
X122181835Y-117044760D01*
X121911070Y-116911233D01*
X121903465Y-116908084D01*
X121617586Y-116811041D01*
X121609635Y-116808910D01*
X121313531Y-116750012D01*
X121305373Y-116748938D01*
X121004119Y-116729193D01*
X120995881Y-116729193D01*
X120694626Y-116748938D01*
X120686468Y-116750012D01*
X120390364Y-116808910D01*
X120382413Y-116811041D01*
X120096542Y-116908081D01*
X120088924Y-116911236D01*
X119818164Y-117044761D01*
X119811026Y-117048882D01*
X119560002Y-117216611D01*
X119553479Y-117221616D01*
X119514772Y-117255561D01*
X119514772Y-117255563D01*
X120241953Y-117982744D01*
X120128922Y-118061890D01*
X119961890Y-118228922D01*
X119882744Y-118341953D01*
X119155563Y-117614772D01*
X119155561Y-117614772D01*
X119121616Y-117653479D01*
X119116611Y-117660002D01*
X118948882Y-117911026D01*
X118944761Y-117918164D01*
X118811236Y-118188924D01*
X118808081Y-118196542D01*
X118711041Y-118482413D01*
X118708910Y-118490364D01*
X118650012Y-118786468D01*
X118648938Y-118794626D01*
X118629193Y-119095880D01*
X118629193Y-119104119D01*
X116166500Y-119104119D01*
X116166500Y-117193362D01*
X116159989Y-117132799D01*
X116108889Y-116995796D01*
X116108888Y-116995794D01*
X116021261Y-116878738D01*
X115904205Y-116791111D01*
X115794014Y-116750012D01*
X115767201Y-116740011D01*
X115706638Y-116733500D01*
X111893362Y-116733500D01*
X111890013Y-116733859D01*
X111890013Y-116733860D01*
X111832799Y-116740011D01*
X111695794Y-116791111D01*
X111578738Y-116878738D01*
X111491111Y-116995794D01*
X111440011Y-117132798D01*
X111440011Y-117132799D01*
X111433500Y-117193362D01*
X111433499Y-117196711D01*
X111433499Y-117196730D01*
X111433499Y-121003269D01*
X111433499Y-121003287D01*
X93122940Y-121003287D01*
X93087443Y-103620000D01*
X95186844Y-103620000D01*
X95205436Y-103844368D01*
X95205436Y-103844371D01*
X95205437Y-103844372D01*
X95260702Y-104062611D01*
X95351139Y-104268790D01*
X95474278Y-104457268D01*
X95626762Y-104622908D01*
X95804421Y-104761187D01*
X95804424Y-104761189D01*
X96002426Y-104868342D01*
X96215365Y-104941444D01*
X96437431Y-104978500D01*
X96437434Y-104978500D01*
X96662566Y-104978500D01*
X96662569Y-104978500D01*
X96884635Y-104941444D01*
X97097574Y-104868342D01*
X97295576Y-104761189D01*
X97473240Y-104622906D01*
X97625722Y-104457268D01*
X97748860Y-104268791D01*
X97839296Y-104062616D01*
X97894564Y-103844368D01*
X97913156Y-103620000D01*
X97894564Y-103395632D01*
X97839296Y-103177384D01*
X97748860Y-102971209D01*
X97625722Y-102782732D01*
X97473240Y-102617094D01*
X97473239Y-102617093D01*
X97473237Y-102617091D01*
X97295579Y-102478813D01*
X97295577Y-102478812D01*
X97295576Y-102478811D01*
X97262317Y-102460812D01*
X97211929Y-102410801D01*
X97196576Y-102341484D01*
X97221136Y-102274871D01*
X97262316Y-102239187D01*
X97295576Y-102221189D01*
X97473240Y-102082906D01*
X97625722Y-101917268D01*
X97748860Y-101728791D01*
X97839296Y-101522616D01*
X97894564Y-101304368D01*
X97913156Y-101080000D01*
X97894564Y-100855632D01*
X97839296Y-100637384D01*
X97748860Y-100431209D01*
X97625722Y-100242732D01*
X97473240Y-100077094D01*
X97473239Y-100077093D01*
X97473237Y-100077091D01*
X97334235Y-99968901D01*
X97295576Y-99938811D01*
X97261792Y-99920528D01*
X97211402Y-99870516D01*
X97196050Y-99801199D01*
X97220611Y-99734586D01*
X97261793Y-99698901D01*
X97295300Y-99680768D01*
X97472903Y-99542533D01*
X97625321Y-99376962D01*
X97748419Y-99188548D01*
X97838822Y-98982451D01*
X97886544Y-98794000D01*
X96981116Y-98794000D01*
X97009493Y-98749844D01*
X97050000Y-98611889D01*
X97050000Y-98468111D01*
X97009493Y-98330156D01*
X96981116Y-98286000D01*
X97886544Y-98286000D01*
X97886544Y-98285999D01*
X97838822Y-98097548D01*
X97748419Y-97891451D01*
X97625321Y-97703037D01*
X97482018Y-97547367D01*
X97450597Y-97483702D01*
X97458584Y-97413156D01*
X97503443Y-97358127D01*
X97530679Y-97343977D01*
X97646204Y-97300889D01*
X97763261Y-97213261D01*
X97850889Y-97096204D01*
X97901989Y-96959201D01*
X97908500Y-96898638D01*
X97908500Y-95101362D01*
X97901989Y-95040799D01*
X97850889Y-94903796D01*
X97845602Y-94896733D01*
X97763261Y-94786738D01*
X97646205Y-94699111D01*
X97526381Y-94654419D01*
X97509201Y-94648011D01*
X97448638Y-94641500D01*
X95651362Y-94641500D01*
X95648013Y-94641859D01*
X95648013Y-94641860D01*
X95590799Y-94648011D01*
X95453794Y-94699111D01*
X95336738Y-94786738D01*
X95249111Y-94903794D01*
X95200186Y-95034968D01*
X95198011Y-95040799D01*
X95191500Y-95101362D01*
X95191500Y-96898638D01*
X95198011Y-96959201D01*
X95208438Y-96987157D01*
X95249111Y-97096205D01*
X95336738Y-97213261D01*
X95453794Y-97300888D01*
X95453795Y-97300888D01*
X95453796Y-97300889D01*
X95569313Y-97343975D01*
X95626148Y-97386521D01*
X95650959Y-97453041D01*
X95635868Y-97522415D01*
X95617982Y-97547367D01*
X95474676Y-97703040D01*
X95351580Y-97891451D01*
X95261177Y-98097548D01*
X95213455Y-98285999D01*
X95213456Y-98286000D01*
X96118884Y-98286000D01*
X96090507Y-98330156D01*
X96050000Y-98468111D01*
X96050000Y-98611889D01*
X96090507Y-98749844D01*
X96118884Y-98794000D01*
X95213455Y-98794000D01*
X95261177Y-98982451D01*
X95351580Y-99188548D01*
X95474678Y-99376962D01*
X95627096Y-99542533D01*
X95804702Y-99680769D01*
X95838207Y-99698902D01*
X95888597Y-99748915D01*
X95903949Y-99818232D01*
X95879388Y-99884845D01*
X95838207Y-99920528D01*
X95804423Y-99938811D01*
X95626762Y-100077091D01*
X95474278Y-100242731D01*
X95351139Y-100431209D01*
X95260702Y-100637388D01*
X95211033Y-100833530D01*
X95205436Y-100855632D01*
X95186844Y-101080000D01*
X95205436Y-101304368D01*
X95205436Y-101304371D01*
X95205437Y-101304372D01*
X95260702Y-101522611D01*
X95351139Y-101728790D01*
X95409023Y-101817388D01*
X95474278Y-101917268D01*
X95606738Y-102061157D01*
X95626762Y-102082908D01*
X95804418Y-102221185D01*
X95804420Y-102221186D01*
X95804424Y-102221189D01*
X95837682Y-102239187D01*
X95888071Y-102289200D01*
X95903423Y-102358517D01*
X95878862Y-102425130D01*
X95837683Y-102460812D01*
X95812794Y-102474281D01*
X95804418Y-102478814D01*
X95626762Y-102617091D01*
X95474278Y-102782731D01*
X95351139Y-102971209D01*
X95260702Y-103177388D01*
X95219389Y-103340533D01*
X95205436Y-103395632D01*
X95186844Y-103620000D01*
X93087443Y-103620000D01*
X93032376Y-76652803D01*
X108641500Y-76652803D01*
X108644231Y-76681400D01*
X108656581Y-76810742D01*
X108716222Y-77013861D01*
X108813230Y-77202028D01*
X108861020Y-77262797D01*
X108944092Y-77368432D01*
X109104082Y-77507065D01*
X109287418Y-77612913D01*
X109487473Y-77682153D01*
X109561406Y-77692783D01*
X109697014Y-77712281D01*
X109697015Y-77712280D01*
X109697016Y-77712281D01*
X109908474Y-77702208D01*
X110114204Y-77652298D01*
X110306771Y-77564356D01*
X110306771Y-77564355D01*
X110306775Y-77564354D01*
X110479211Y-77441563D01*
X110479215Y-77441559D01*
X110625303Y-77288346D01*
X110739756Y-77110254D01*
X110787502Y-76990992D01*
X110818435Y-76913724D01*
X110823852Y-76885621D01*
X110858500Y-76705849D01*
X110858500Y-75347197D01*
X110843419Y-75189261D01*
X110819043Y-75106245D01*
X110783777Y-74986138D01*
X110769725Y-74958882D01*
X110686771Y-74797974D01*
X110555908Y-74631568D01*
X110395918Y-74492935D01*
X110237550Y-74401502D01*
X110212581Y-74387086D01*
X110012524Y-74317846D01*
X109802985Y-74287718D01*
X109591527Y-74297791D01*
X109385797Y-74347701D01*
X109193224Y-74435645D01*
X109020788Y-74558436D01*
X108874696Y-74711655D01*
X108760241Y-74889749D01*
X108681564Y-75086275D01*
X108641500Y-75294149D01*
X108641500Y-75294151D01*
X108641500Y-76652803D01*
X93032376Y-76652803D01*
X93028234Y-74624335D01*
X100999500Y-74624335D01*
X101040429Y-74869614D01*
X101067343Y-74948012D01*
X101121170Y-75104806D01*
X101121171Y-75104809D01*
X101121172Y-75104810D01*
X101239526Y-75323509D01*
X101326618Y-75435405D01*
X101392262Y-75519744D01*
X101575217Y-75688166D01*
X101783389Y-75824171D01*
X101783391Y-75824172D01*
X101783393Y-75824173D01*
X102011119Y-75924063D01*
X102252179Y-75985108D01*
X102437933Y-76000500D01*
X102440547Y-76000500D01*
X102559453Y-76000500D01*
X102562067Y-76000500D01*
X102747821Y-75985108D01*
X102988881Y-75924063D01*
X103216607Y-75824173D01*
X103424785Y-75688164D01*
X103607738Y-75519744D01*
X103760474Y-75323509D01*
X103878828Y-75104810D01*
X103959571Y-74869614D01*
X104000500Y-74624335D01*
X104000500Y-74375665D01*
X103959571Y-74130386D01*
X103878828Y-73895190D01*
X103760474Y-73676491D01*
X103607738Y-73480256D01*
X103557330Y-73433852D01*
X103424782Y-73311833D01*
X103216610Y-73175828D01*
X103035543Y-73096405D01*
X102988881Y-73075937D01*
X102988879Y-73075936D01*
X102988876Y-73075935D01*
X102747826Y-73014893D01*
X102747824Y-73014892D01*
X102747821Y-73014892D01*
X102623361Y-73004578D01*
X102564665Y-72999715D01*
X102564658Y-72999714D01*
X102562067Y-72999500D01*
X102437933Y-72999500D01*
X102435342Y-72999714D01*
X102435334Y-72999715D01*
X102359028Y-73006038D01*
X102252179Y-73014892D01*
X102252176Y-73014892D01*
X102252173Y-73014893D01*
X102011123Y-73075935D01*
X101783389Y-73175828D01*
X101575217Y-73311833D01*
X101392262Y-73480255D01*
X101239527Y-73676489D01*
X101121170Y-73895193D01*
X101041216Y-74128093D01*
X101040429Y-74130386D01*
X100999500Y-74375665D01*
X100999500Y-74624335D01*
X93028234Y-74624335D01*
X93011170Y-66267571D01*
X93011558Y-66257438D01*
X93012738Y-66242456D01*
X93028228Y-66045626D01*
X93031321Y-66026102D01*
X93035007Y-66010748D01*
X93079790Y-65824206D01*
X93085895Y-65805419D01*
X93165354Y-65613584D01*
X93174319Y-65595988D01*
X93282809Y-65418945D01*
X93294426Y-65402956D01*
X93429268Y-65245073D01*
X93443239Y-65231100D01*
X93601128Y-65096246D01*
X93617106Y-65084636D01*
X93794157Y-64976135D01*
X93811747Y-64967173D01*
X94003586Y-64887705D01*
X94022372Y-64881601D01*
X94224276Y-64833124D01*
X94243787Y-64830034D01*
X94433267Y-64815116D01*
X94455206Y-64813389D01*
X94465095Y-64813000D01*
X94499541Y-64813000D01*
X94499615Y-64812985D01*
X129114776Y-64800387D01*
X129182904Y-64820364D01*
X129229417Y-64874003D01*
X129239546Y-64944273D01*
X129210076Y-65008865D01*
X129174218Y-65037509D01*
X129136996Y-65057404D01*
X128983430Y-65183433D01*
X128955769Y-65217137D01*
X128947467Y-65226296D01*
X119071899Y-75101865D01*
X119062741Y-75110167D01*
X119029032Y-75137832D01*
X119001367Y-75171541D01*
X118993065Y-75180699D01*
X115759901Y-78413863D01*
X115750742Y-78422165D01*
X115717031Y-78449832D01*
X115591006Y-78603394D01*
X115502909Y-78768213D01*
X115497357Y-78778598D01*
X115439690Y-78968698D01*
X115420219Y-79166398D01*
X115424493Y-79209785D01*
X115425100Y-79222136D01*
X115425100Y-81314892D01*
X115405098Y-81383013D01*
X115351442Y-81429506D01*
X115281168Y-81439610D01*
X115216588Y-81410116D01*
X115179787Y-81355393D01*
X115091918Y-81096542D01*
X115088763Y-81088924D01*
X114955238Y-80818164D01*
X114951117Y-80811026D01*
X114783395Y-80560011D01*
X114778378Y-80553474D01*
X114744437Y-80514772D01*
X114744435Y-80514772D01*
X114017254Y-81241952D01*
X113938110Y-81128922D01*
X113771078Y-80961890D01*
X113658045Y-80882744D01*
X114385226Y-80155563D01*
X114385226Y-80155561D01*
X114346520Y-80121616D01*
X114339988Y-80116605D01*
X114088972Y-79948881D01*
X114081835Y-79944760D01*
X113811070Y-79811233D01*
X113803465Y-79808084D01*
X113517586Y-79711041D01*
X113509635Y-79708910D01*
X113213531Y-79650012D01*
X113205373Y-79648938D01*
X112904119Y-79629193D01*
X112895881Y-79629193D01*
X112594626Y-79648938D01*
X112586468Y-79650012D01*
X112290364Y-79708910D01*
X112282413Y-79711041D01*
X111996542Y-79808081D01*
X111988924Y-79811236D01*
X111718164Y-79944761D01*
X111711026Y-79948882D01*
X111460002Y-80116611D01*
X111453479Y-80121616D01*
X111414772Y-80155561D01*
X111414772Y-80155563D01*
X112141953Y-80882744D01*
X112028922Y-80961890D01*
X111861890Y-81128922D01*
X111782744Y-81241953D01*
X111055563Y-80514772D01*
X111055561Y-80514772D01*
X111021616Y-80553479D01*
X111016611Y-80560002D01*
X110848882Y-80811026D01*
X110844761Y-80818164D01*
X110711236Y-81088924D01*
X110708081Y-81096542D01*
X110611041Y-81382413D01*
X110608910Y-81390364D01*
X110550012Y-81686468D01*
X110548938Y-81694626D01*
X110529193Y-81995880D01*
X110529193Y-82004119D01*
X110548938Y-82305373D01*
X110550012Y-82313531D01*
X110608910Y-82609635D01*
X110611041Y-82617586D01*
X110708084Y-82903465D01*
X110711233Y-82911070D01*
X110844760Y-83181835D01*
X110848881Y-83188972D01*
X111016605Y-83439988D01*
X111021616Y-83446520D01*
X111055561Y-83485226D01*
X111055563Y-83485226D01*
X111782743Y-82758045D01*
X111861890Y-82871078D01*
X112028922Y-83038110D01*
X112141952Y-83117255D01*
X111414772Y-83844435D01*
X111414772Y-83844437D01*
X111453474Y-83878378D01*
X111460011Y-83883395D01*
X111711027Y-84051118D01*
X111718164Y-84055239D01*
X111988929Y-84188766D01*
X111996534Y-84191915D01*
X112282413Y-84288958D01*
X112290364Y-84291089D01*
X112586468Y-84349987D01*
X112594626Y-84351061D01*
X112895881Y-84370807D01*
X112904119Y-84370807D01*
X113205373Y-84351061D01*
X113213531Y-84349987D01*
X113509635Y-84291089D01*
X113517586Y-84288958D01*
X113803465Y-84191915D01*
X113811070Y-84188766D01*
X114081835Y-84055239D01*
X114088972Y-84051118D01*
X114339989Y-83883393D01*
X114346515Y-83878386D01*
X114385226Y-83844436D01*
X114385226Y-83844435D01*
X113658046Y-83117255D01*
X113771078Y-83038110D01*
X113938110Y-82871078D01*
X114017255Y-82758046D01*
X114744435Y-83485226D01*
X114744436Y-83485226D01*
X114778386Y-83446515D01*
X114783393Y-83439989D01*
X114951118Y-83188972D01*
X114955239Y-83181835D01*
X115088766Y-82911070D01*
X115091915Y-82903465D01*
X115179787Y-82644606D01*
X115220624Y-82586530D01*
X115286377Y-82559751D01*
X115356169Y-82572772D01*
X115407842Y-82621459D01*
X115425100Y-82685107D01*
X115425100Y-88277674D01*
X115405098Y-88345795D01*
X115388195Y-88366769D01*
X114051901Y-89703063D01*
X114042742Y-89711365D01*
X114009033Y-89739030D01*
X113883004Y-89892595D01*
X113815722Y-90018474D01*
X113789358Y-90067797D01*
X113731690Y-90257898D01*
X113712219Y-90455598D01*
X113716493Y-90498985D01*
X113717100Y-90511336D01*
X113717100Y-95421275D01*
X113697098Y-95489396D01*
X113680195Y-95510370D01*
X112246934Y-96943630D01*
X112184622Y-96977656D01*
X112168822Y-96980055D01*
X112087666Y-96987155D01*
X111863549Y-97047207D01*
X111653267Y-97145264D01*
X111463204Y-97278347D01*
X111299147Y-97442404D01*
X111166064Y-97632467D01*
X111068007Y-97842749D01*
X111015155Y-98040000D01*
X111007957Y-98066863D01*
X110987735Y-98298000D01*
X110989764Y-98321186D01*
X111007957Y-98529137D01*
X111068007Y-98753251D01*
X111166064Y-98963533D01*
X111299147Y-99153595D01*
X111463204Y-99317652D01*
X111463207Y-99317654D01*
X111463208Y-99317655D01*
X111653267Y-99450736D01*
X111749536Y-99495627D01*
X111863548Y-99548792D01*
X111923598Y-99564882D01*
X112087663Y-99608843D01*
X112318800Y-99629065D01*
X112549937Y-99608843D01*
X112774051Y-99548792D01*
X112984333Y-99450736D01*
X113174392Y-99317655D01*
X113338455Y-99153592D01*
X113471536Y-98963533D01*
X113569592Y-98753251D01*
X113629643Y-98529137D01*
X113636743Y-98447975D01*
X113662606Y-98381859D01*
X113673161Y-98369871D01*
X114702006Y-97341026D01*
X114764317Y-97307002D01*
X114835133Y-97312067D01*
X114891968Y-97354614D01*
X114916779Y-97421134D01*
X114917100Y-97430123D01*
X114917100Y-99301274D01*
X114897098Y-99369395D01*
X114880195Y-99390369D01*
X112246934Y-102023630D01*
X112184622Y-102057656D01*
X112168822Y-102060055D01*
X112087666Y-102067155D01*
X111863549Y-102127207D01*
X111653267Y-102225264D01*
X111463204Y-102358347D01*
X111299147Y-102522404D01*
X111166064Y-102712467D01*
X111068007Y-102922749D01*
X111007957Y-103146862D01*
X111007957Y-103146863D01*
X110987735Y-103378000D01*
X110989764Y-103401186D01*
X111007957Y-103609137D01*
X111068007Y-103833251D01*
X111166064Y-104043533D01*
X111299147Y-104233595D01*
X111463204Y-104397652D01*
X111463207Y-104397654D01*
X111463208Y-104397655D01*
X111653267Y-104530736D01*
X111749536Y-104575627D01*
X111863548Y-104628792D01*
X111923598Y-104644882D01*
X112087663Y-104688843D01*
X112318800Y-104709065D01*
X112549937Y-104688843D01*
X112774051Y-104628792D01*
X112984333Y-104530736D01*
X113174392Y-104397655D01*
X113338455Y-104233592D01*
X113471536Y-104043533D01*
X113569592Y-103833251D01*
X113629643Y-103609137D01*
X113636743Y-103527975D01*
X113662606Y-103461859D01*
X113673161Y-103449871D01*
X113922032Y-103201000D01*
X117381200Y-103201000D01*
X117381200Y-103406802D01*
X117381525Y-103413192D01*
X117391806Y-103513827D01*
X117447540Y-103682022D01*
X117540567Y-103832842D01*
X117665857Y-103958132D01*
X117816677Y-104051159D01*
X117984872Y-104106893D01*
X118085507Y-104117174D01*
X118091897Y-104117500D01*
X118985200Y-104117500D01*
X118985200Y-103201000D01*
X117381200Y-103201000D01*
X113922032Y-103201000D01*
X114430032Y-102693000D01*
X117381200Y-102693000D01*
X118985200Y-102693000D01*
X118985200Y-101776500D01*
X119493200Y-101776500D01*
X119493200Y-104117500D01*
X120386503Y-104117500D01*
X120392892Y-104117174D01*
X120493527Y-104106893D01*
X120661722Y-104051159D01*
X120812542Y-103958132D01*
X120937832Y-103832842D01*
X121030857Y-103682024D01*
X121069594Y-103565122D01*
X121110008Y-103506750D01*
X121175564Y-103479494D01*
X121245449Y-103492007D01*
X121297475Y-103540316D01*
X121308803Y-103565120D01*
X121347541Y-103682023D01*
X121440567Y-103832842D01*
X121565857Y-103958132D01*
X121716677Y-104051159D01*
X121884872Y-104106893D01*
X121985507Y-104117174D01*
X121991897Y-104117500D01*
X122885200Y-104117500D01*
X122885200Y-103201000D01*
X123393200Y-103201000D01*
X123393200Y-104117500D01*
X124286503Y-104117500D01*
X124292892Y-104117174D01*
X124393527Y-104106893D01*
X124561722Y-104051159D01*
X124712542Y-103958132D01*
X124837832Y-103832842D01*
X124930859Y-103682022D01*
X124986593Y-103513827D01*
X124996874Y-103413192D01*
X124997200Y-103406802D01*
X124997200Y-103201000D01*
X123393200Y-103201000D01*
X122885200Y-103201000D01*
X122885200Y-101776500D01*
X123393200Y-101776500D01*
X123393200Y-102693000D01*
X124997200Y-102693000D01*
X124997200Y-102487197D01*
X124996874Y-102480807D01*
X124986593Y-102380172D01*
X124930859Y-102211977D01*
X124837832Y-102061157D01*
X124712542Y-101935867D01*
X124561722Y-101842840D01*
X124393527Y-101787106D01*
X124292892Y-101776825D01*
X124286503Y-101776500D01*
X123393200Y-101776500D01*
X122885200Y-101776500D01*
X121991897Y-101776500D01*
X121985507Y-101776825D01*
X121884872Y-101787106D01*
X121716677Y-101842840D01*
X121565857Y-101935867D01*
X121440567Y-102061157D01*
X121347541Y-102211977D01*
X121308803Y-102328879D01*
X121268389Y-102387250D01*
X121202832Y-102414505D01*
X121132947Y-102401991D01*
X121080922Y-102353681D01*
X121069594Y-102328877D01*
X121030857Y-102211975D01*
X120937832Y-102061157D01*
X120812542Y-101935867D01*
X120661722Y-101842840D01*
X120493527Y-101787106D01*
X120392892Y-101776825D01*
X120386503Y-101776500D01*
X119493200Y-101776500D01*
X118985200Y-101776500D01*
X118091897Y-101776500D01*
X118085507Y-101776825D01*
X117984872Y-101787106D01*
X117816677Y-101842840D01*
X117665857Y-101935867D01*
X117540567Y-102061157D01*
X117447540Y-102211977D01*
X117391806Y-102380172D01*
X117381525Y-102480807D01*
X117381200Y-102487197D01*
X117381200Y-102693000D01*
X114430032Y-102693000D01*
X116599313Y-100523720D01*
X116608453Y-100515436D01*
X116642168Y-100487768D01*
X116673800Y-100449225D01*
X116688585Y-100431209D01*
X116768195Y-100334204D01*
X116861841Y-100159004D01*
X116919508Y-99968901D01*
X116934100Y-99820747D01*
X116938980Y-99771200D01*
X116934706Y-99727815D01*
X116934100Y-99715465D01*
X116934100Y-91605123D01*
X116954102Y-91537002D01*
X116971000Y-91516033D01*
X120773708Y-87713324D01*
X120782838Y-87705047D01*
X120816568Y-87677368D01*
X120942595Y-87523804D01*
X121036241Y-87348604D01*
X121067861Y-87244368D01*
X121093909Y-87158501D01*
X121113380Y-86960800D01*
X121109106Y-86917412D01*
X121108499Y-86905059D01*
X121108500Y-84492500D01*
X121128502Y-84424379D01*
X121182158Y-84377886D01*
X121234500Y-84366500D01*
X122003269Y-84366500D01*
X122006638Y-84366500D01*
X122067201Y-84359989D01*
X122204204Y-84308889D01*
X122321261Y-84221261D01*
X122408889Y-84104204D01*
X122459989Y-83967201D01*
X122466500Y-83906638D01*
X122466500Y-80305720D01*
X122486501Y-80237603D01*
X122540157Y-80191110D01*
X122610431Y-80181006D01*
X122675011Y-80210500D01*
X122681594Y-80216629D01*
X123770195Y-81305229D01*
X123804220Y-81367541D01*
X123807100Y-81394324D01*
X123807099Y-85694664D01*
X123806492Y-85707013D01*
X123802219Y-85750397D01*
X123806033Y-85789118D01*
X123807100Y-85799947D01*
X123807954Y-85808619D01*
X123821691Y-85948101D01*
X123879358Y-86138202D01*
X123973006Y-86313407D01*
X124099028Y-86466965D01*
X124099032Y-86466968D01*
X124252596Y-86592995D01*
X124300919Y-86618824D01*
X124330614Y-86640848D01*
X125434661Y-87744895D01*
X125442966Y-87754057D01*
X125470631Y-87787768D01*
X125522410Y-87830261D01*
X125546128Y-87849726D01*
X125624196Y-87913795D01*
X125799396Y-88007441D01*
X125850384Y-88022908D01*
X125989498Y-88065108D01*
X126058760Y-88071929D01*
X126094873Y-88075486D01*
X126148669Y-88093638D01*
X126227262Y-88142115D01*
X126395574Y-88197887D01*
X126471637Y-88205658D01*
X126496253Y-88208173D01*
X126496255Y-88208173D01*
X126499455Y-88208500D01*
X126516800Y-88208499D01*
X126584919Y-88228497D01*
X126631415Y-88282150D01*
X126641523Y-88352423D01*
X126612033Y-88417006D01*
X126605899Y-88423594D01*
X122691212Y-92338281D01*
X122672948Y-92353393D01*
X122666128Y-92358028D01*
X122628994Y-92400147D01*
X122623585Y-92405908D01*
X122615067Y-92414426D01*
X122615053Y-92414441D01*
X122612265Y-92417230D01*
X122609845Y-92420349D01*
X122609835Y-92420361D01*
X122602451Y-92429880D01*
X122597412Y-92435970D01*
X122560280Y-92478088D01*
X122556541Y-92485428D01*
X122543839Y-92505443D01*
X122538786Y-92511957D01*
X122516477Y-92563509D01*
X122513109Y-92570667D01*
X122487614Y-92620704D01*
X122485816Y-92628749D01*
X122478493Y-92651289D01*
X122475217Y-92658858D01*
X122466432Y-92714326D01*
X122464949Y-92722101D01*
X122452697Y-92776909D01*
X122452956Y-92785147D01*
X122451467Y-92808807D01*
X122450179Y-92816938D01*
X122455465Y-92872857D01*
X122455962Y-92880754D01*
X122457726Y-92936891D01*
X122460025Y-92944803D01*
X122464466Y-92968083D01*
X122465242Y-92976290D01*
X122484269Y-93029143D01*
X122486713Y-93036665D01*
X122500696Y-93084790D01*
X122505700Y-93119946D01*
X122505700Y-98525000D01*
X122485698Y-98593121D01*
X122432042Y-98639614D01*
X122379700Y-98651000D01*
X121991861Y-98651000D01*
X121991841Y-98651000D01*
X121988656Y-98651001D01*
X121985479Y-98651325D01*
X121985470Y-98651326D01*
X121884773Y-98661613D01*
X121716462Y-98717385D01*
X121565544Y-98810472D01*
X121440172Y-98935844D01*
X121347084Y-99086764D01*
X121341991Y-99102134D01*
X121301576Y-99160505D01*
X121236020Y-99187760D01*
X121222387Y-99188500D01*
X121156013Y-99188500D01*
X121087892Y-99168498D01*
X121041399Y-99114842D01*
X121036409Y-99102134D01*
X121034751Y-99097134D01*
X121031315Y-99086762D01*
X120938230Y-98935848D01*
X120938228Y-98935846D01*
X120938227Y-98935844D01*
X120812855Y-98810472D01*
X120786150Y-98794000D01*
X120661938Y-98717385D01*
X120493626Y-98661613D01*
X120493623Y-98661612D01*
X120493621Y-98661612D01*
X120392946Y-98651326D01*
X120392925Y-98651324D01*
X120389745Y-98651000D01*
X120386539Y-98651000D01*
X118091861Y-98651000D01*
X118091841Y-98651000D01*
X118088656Y-98651001D01*
X118085479Y-98651325D01*
X118085470Y-98651326D01*
X117984773Y-98661613D01*
X117816462Y-98717385D01*
X117665544Y-98810472D01*
X117540172Y-98935844D01*
X117522218Y-98964952D01*
X117447085Y-99086762D01*
X117391313Y-99255074D01*
X117391312Y-99255078D01*
X117381026Y-99355753D01*
X117381025Y-99355770D01*
X117380700Y-99358955D01*
X117380700Y-99362159D01*
X117380700Y-99362160D01*
X117380700Y-100281838D01*
X117380700Y-100281857D01*
X117380701Y-100285044D01*
X117381025Y-100288221D01*
X117381026Y-100288229D01*
X117389918Y-100375268D01*
X117391313Y-100388926D01*
X117447085Y-100557238D01*
X117520913Y-100676931D01*
X117540172Y-100708155D01*
X117665544Y-100833527D01*
X117665546Y-100833528D01*
X117665548Y-100833530D01*
X117816462Y-100926615D01*
X117984774Y-100982387D01*
X118059291Y-100990000D01*
X118085453Y-100992673D01*
X118085455Y-100992673D01*
X118088655Y-100993000D01*
X120389744Y-100992999D01*
X120493626Y-100982387D01*
X120661938Y-100926615D01*
X120812852Y-100833530D01*
X120938230Y-100708152D01*
X121031315Y-100557238D01*
X121036408Y-100541866D01*
X121076824Y-100483495D01*
X121142380Y-100456240D01*
X121156013Y-100455500D01*
X121222387Y-100455500D01*
X121290508Y-100475502D01*
X121337001Y-100529158D01*
X121341991Y-100541866D01*
X121347085Y-100557238D01*
X121440170Y-100708152D01*
X121440172Y-100708155D01*
X121565544Y-100833527D01*
X121565546Y-100833528D01*
X121565548Y-100833530D01*
X121716462Y-100926615D01*
X121884774Y-100982387D01*
X121959291Y-100990000D01*
X121985453Y-100992673D01*
X121985455Y-100992673D01*
X121988655Y-100993000D01*
X124289744Y-100992999D01*
X124393626Y-100982387D01*
X124561938Y-100926615D01*
X124712852Y-100833530D01*
X124838230Y-100708152D01*
X124931315Y-100557238D01*
X124987087Y-100388926D01*
X124997700Y-100285045D01*
X124997699Y-99358956D01*
X124987087Y-99255074D01*
X124931315Y-99086762D01*
X124838230Y-98935848D01*
X124838228Y-98935846D01*
X124838227Y-98935844D01*
X124712855Y-98810472D01*
X124686150Y-98794000D01*
X124561938Y-98717385D01*
X124393626Y-98661613D01*
X124393623Y-98661612D01*
X124393621Y-98661612D01*
X124292946Y-98651326D01*
X124292925Y-98651324D01*
X124289745Y-98651000D01*
X124286540Y-98651000D01*
X123898700Y-98651000D01*
X123830579Y-98630998D01*
X123784086Y-98577342D01*
X123772700Y-98525000D01*
X123772700Y-93100793D01*
X123792702Y-93032672D01*
X123809600Y-93011703D01*
X126151405Y-90669897D01*
X126213717Y-90635872D01*
X126284532Y-90640937D01*
X126341368Y-90683484D01*
X126366179Y-90750004D01*
X126366500Y-90758993D01*
X126366499Y-97075347D01*
X126364204Y-97096133D01*
X126366438Y-97167184D01*
X126366500Y-97171143D01*
X126366500Y-97199056D01*
X126366995Y-97202974D01*
X126366997Y-97203006D01*
X126367008Y-97203088D01*
X126367937Y-97214897D01*
X126369326Y-97259092D01*
X126374977Y-97278541D01*
X126378986Y-97297896D01*
X126381525Y-97317994D01*
X126381525Y-97317996D01*
X126381526Y-97317997D01*
X126397414Y-97358127D01*
X126397801Y-97359103D01*
X126401644Y-97370330D01*
X126413980Y-97412790D01*
X126424294Y-97430230D01*
X126432987Y-97447974D01*
X126440448Y-97466817D01*
X126440449Y-97466819D01*
X126466431Y-97502580D01*
X126472948Y-97512501D01*
X126495458Y-97550563D01*
X126509778Y-97564883D01*
X126522618Y-97579916D01*
X126534526Y-97596305D01*
X126568598Y-97624492D01*
X126577378Y-97632482D01*
X127465132Y-98520236D01*
X127499158Y-98582548D01*
X127498182Y-98640260D01*
X127470436Y-98749829D01*
X127466776Y-98794000D01*
X127451844Y-98974200D01*
X127470436Y-99198568D01*
X127470436Y-99198571D01*
X127470437Y-99198572D01*
X127525702Y-99416811D01*
X127616139Y-99622990D01*
X127694983Y-99743669D01*
X127739278Y-99811468D01*
X127856508Y-99938813D01*
X127891762Y-99977108D01*
X128069418Y-100115385D01*
X128069420Y-100115386D01*
X128069424Y-100115389D01*
X128102682Y-100133387D01*
X128153071Y-100183400D01*
X128168423Y-100252717D01*
X128143862Y-100319330D01*
X128102683Y-100355012D01*
X128082947Y-100365693D01*
X128069418Y-100373014D01*
X127891762Y-100511291D01*
X127739278Y-100676931D01*
X127616139Y-100865409D01*
X127525702Y-101071588D01*
X127478727Y-101257091D01*
X127470436Y-101289832D01*
X127451844Y-101514200D01*
X127470436Y-101738568D01*
X127470436Y-101738571D01*
X127470437Y-101738572D01*
X127525702Y-101956811D01*
X127616139Y-102162990D01*
X127679518Y-102259999D01*
X127739278Y-102351468D01*
X127856509Y-102478814D01*
X127891762Y-102517108D01*
X128069418Y-102655385D01*
X128069420Y-102655386D01*
X128069424Y-102655389D01*
X128102682Y-102673387D01*
X128153071Y-102723400D01*
X128168423Y-102792717D01*
X128143862Y-102859330D01*
X128102683Y-102895012D01*
X128082947Y-102905693D01*
X128069418Y-102913014D01*
X127891762Y-103051291D01*
X127739278Y-103216931D01*
X127616139Y-103405409D01*
X127525702Y-103611588D01*
X127478727Y-103797091D01*
X127470436Y-103829832D01*
X127451844Y-104054200D01*
X127470436Y-104278568D01*
X127470436Y-104278571D01*
X127470437Y-104278572D01*
X127525702Y-104496811D01*
X127616139Y-104702990D01*
X127739278Y-104891468D01*
X127891762Y-105057108D01*
X128069418Y-105195385D01*
X128069420Y-105195386D01*
X128069424Y-105195389D01*
X128102682Y-105213387D01*
X128153071Y-105263400D01*
X128168423Y-105332717D01*
X128143862Y-105399330D01*
X128102683Y-105435012D01*
X128082947Y-105445693D01*
X128069418Y-105453014D01*
X127891762Y-105591291D01*
X127739278Y-105756931D01*
X127616139Y-105945409D01*
X127525702Y-106151588D01*
X127478727Y-106337091D01*
X127470436Y-106369832D01*
X127451844Y-106594200D01*
X127470436Y-106818568D01*
X127470436Y-106818571D01*
X127470437Y-106818572D01*
X127525702Y-107036811D01*
X127616139Y-107242990D01*
X127739278Y-107431468D01*
X127891762Y-107597108D01*
X127993611Y-107676381D01*
X128069424Y-107735389D01*
X128102682Y-107753387D01*
X128153070Y-107803397D01*
X128168423Y-107872713D01*
X128143863Y-107939327D01*
X128102683Y-107975011D01*
X128069423Y-107993010D01*
X127891762Y-108131291D01*
X127739278Y-108296931D01*
X127616139Y-108485409D01*
X127525702Y-108691588D01*
X127478727Y-108877091D01*
X127470436Y-108909832D01*
X127451844Y-109134200D01*
X127470436Y-109358568D01*
X127470436Y-109358571D01*
X127470437Y-109358572D01*
X127525702Y-109576811D01*
X127616139Y-109782990D01*
X127739278Y-109971468D01*
X127891762Y-110137108D01*
X128069418Y-110275385D01*
X128069420Y-110275386D01*
X128069424Y-110275389D01*
X128102682Y-110293387D01*
X128153071Y-110343400D01*
X128168423Y-110412717D01*
X128143862Y-110479330D01*
X128102683Y-110515012D01*
X128082947Y-110525693D01*
X128069418Y-110533014D01*
X127891762Y-110671291D01*
X127739278Y-110836931D01*
X127616139Y-111025409D01*
X127525702Y-111231588D01*
X127478727Y-111417091D01*
X127470436Y-111449832D01*
X127451844Y-111674200D01*
X127470436Y-111898568D01*
X127470436Y-111898571D01*
X127470437Y-111898572D01*
X127525702Y-112116811D01*
X127616139Y-112322990D01*
X127739278Y-112511468D01*
X127891762Y-112677108D01*
X128069418Y-112815385D01*
X128069420Y-112815386D01*
X128069424Y-112815389D01*
X128102682Y-112833387D01*
X128153071Y-112883400D01*
X128168423Y-112952717D01*
X128143862Y-113019330D01*
X128102683Y-113055012D01*
X128082947Y-113065693D01*
X128069418Y-113073014D01*
X127891762Y-113211291D01*
X127739278Y-113376931D01*
X127616139Y-113565409D01*
X127525702Y-113771588D01*
X127478727Y-113957091D01*
X127470436Y-113989832D01*
X127451844Y-114214200D01*
X127470436Y-114438568D01*
X127470436Y-114438571D01*
X127470437Y-114438572D01*
X127525702Y-114656811D01*
X127616139Y-114862990D01*
X127739278Y-115051468D01*
X127891762Y-115217108D01*
X128069421Y-115355387D01*
X128069424Y-115355389D01*
X128267426Y-115462542D01*
X128480365Y-115535644D01*
X128702431Y-115572700D01*
X128702434Y-115572700D01*
X128927566Y-115572700D01*
X128927569Y-115572700D01*
X129149635Y-115535644D01*
X129362574Y-115462542D01*
X129560576Y-115355389D01*
X129738240Y-115217106D01*
X129890722Y-115051468D01*
X129935017Y-114983668D01*
X129989021Y-114937580D01*
X130059368Y-114928005D01*
X130123726Y-114957982D01*
X130161659Y-115017995D01*
X130166500Y-115052584D01*
X130166500Y-116985405D01*
X130146498Y-117053526D01*
X130129595Y-117074500D01*
X129299500Y-117904595D01*
X129237188Y-117938621D01*
X129210405Y-117941500D01*
X127901362Y-117941500D01*
X127898013Y-117941859D01*
X127898013Y-117941860D01*
X127840799Y-117948011D01*
X127703794Y-117999111D01*
X127586738Y-118086738D01*
X127499111Y-118203794D01*
X127489739Y-118228922D01*
X127448011Y-118340799D01*
X127441500Y-118401362D01*
X127441500Y-120198638D01*
X127448011Y-120259201D01*
X127449940Y-120264372D01*
X127499111Y-120396205D01*
X127586738Y-120513261D01*
X127703794Y-120600888D01*
X127703795Y-120600888D01*
X127703796Y-120600889D01*
X127818808Y-120643786D01*
X127875642Y-120686331D01*
X127900453Y-120752852D01*
X127885362Y-120822226D01*
X127867475Y-120847178D01*
X127724281Y-121002728D01*
X127724279Y-121002730D01*
X127724278Y-121002732D01*
X127721726Y-121006638D01*
X127601139Y-121191209D01*
X127510702Y-121397388D01*
X127465196Y-121577091D01*
X127455436Y-121615632D01*
X127436844Y-121840000D01*
X127455436Y-122064368D01*
X127455436Y-122064371D01*
X127455437Y-122064372D01*
X127510702Y-122282611D01*
X127601139Y-122488790D01*
X127724278Y-122677268D01*
X127876762Y-122842908D01*
X128054422Y-122981188D01*
X128054424Y-122981189D01*
X128088205Y-122999470D01*
X128138596Y-123049482D01*
X128153949Y-123118799D01*
X128129389Y-123185413D01*
X128088209Y-123221096D01*
X128054702Y-123239229D01*
X127877096Y-123377466D01*
X127724678Y-123543037D01*
X127601580Y-123731451D01*
X127511177Y-123937548D01*
X127463455Y-124125999D01*
X127463456Y-124126000D01*
X128368884Y-124126000D01*
X128340507Y-124170156D01*
X128300000Y-124308111D01*
X128300000Y-124451889D01*
X128340507Y-124589844D01*
X128368884Y-124634000D01*
X127463455Y-124634000D01*
X127511177Y-124822451D01*
X127601580Y-125028548D01*
X127724678Y-125216962D01*
X127877096Y-125382533D01*
X128054702Y-125520769D01*
X128088207Y-125538902D01*
X128138597Y-125588915D01*
X128153949Y-125658232D01*
X128129388Y-125724845D01*
X128088207Y-125760528D01*
X128054423Y-125778811D01*
X127876762Y-125917091D01*
X127724278Y-126082731D01*
X127601139Y-126271209D01*
X127510702Y-126477388D01*
X127463356Y-126664356D01*
X127455436Y-126695632D01*
X127436844Y-126920000D01*
X127455436Y-127144368D01*
X127455436Y-127144371D01*
X127455437Y-127144372D01*
X127510702Y-127362611D01*
X127601139Y-127568790D01*
X127724278Y-127757268D01*
X127876762Y-127922908D01*
X127978611Y-128002181D01*
X128054424Y-128061189D01*
X128087682Y-128079187D01*
X128138070Y-128129197D01*
X128153423Y-128198513D01*
X128128863Y-128265127D01*
X128087683Y-128300811D01*
X128054423Y-128318810D01*
X127876762Y-128457091D01*
X127724278Y-128622731D01*
X127601139Y-128811209D01*
X127510702Y-129017388D01*
X127455437Y-129235627D01*
X127455436Y-129235632D01*
X127436844Y-129460000D01*
X127455436Y-129684368D01*
X127455436Y-129684371D01*
X127455437Y-129684372D01*
X127510702Y-129902611D01*
X127601139Y-130108790D01*
X127724278Y-130297268D01*
X127876762Y-130462908D01*
X128054418Y-130601185D01*
X128054420Y-130601186D01*
X128054424Y-130601189D01*
X128087682Y-130619187D01*
X128138071Y-130669200D01*
X128153423Y-130738517D01*
X128128862Y-130805130D01*
X128087683Y-130840812D01*
X128062794Y-130854281D01*
X128054418Y-130858814D01*
X127876762Y-130997091D01*
X127724278Y-131162731D01*
X127601139Y-131351209D01*
X127510702Y-131557388D01*
X127455437Y-131775627D01*
X127455436Y-131775632D01*
X127436844Y-132000000D01*
X127455436Y-132224368D01*
X127455436Y-132224371D01*
X127455437Y-132224372D01*
X127510702Y-132442611D01*
X127601139Y-132648790D01*
X127724278Y-132837268D01*
X127876762Y-133002908D01*
X128054421Y-133141187D01*
X128054424Y-133141189D01*
X128252426Y-133248342D01*
X128465365Y-133321444D01*
X128687431Y-133358500D01*
X128687434Y-133358500D01*
X128912566Y-133358500D01*
X128912569Y-133358500D01*
X129134635Y-133321444D01*
X129347574Y-133248342D01*
X129545576Y-133141189D01*
X129723240Y-133002906D01*
X129875722Y-132837268D01*
X129998860Y-132648791D01*
X130009587Y-132624335D01*
X150999500Y-132624335D01*
X151040429Y-132869614D01*
X151040430Y-132869616D01*
X151121170Y-133104806D01*
X151121171Y-133104809D01*
X151121172Y-133104810D01*
X151238408Y-133321444D01*
X151239527Y-133323510D01*
X151392262Y-133519744D01*
X151575217Y-133688166D01*
X151783389Y-133824171D01*
X151783391Y-133824172D01*
X151783393Y-133824173D01*
X152011119Y-133924063D01*
X152252179Y-133985108D01*
X152437933Y-134000500D01*
X152440547Y-134000500D01*
X152559453Y-134000500D01*
X152562067Y-134000500D01*
X152747821Y-133985108D01*
X152988881Y-133924063D01*
X153216607Y-133824173D01*
X153424785Y-133688164D01*
X153607738Y-133519744D01*
X153760474Y-133323509D01*
X153878828Y-133104810D01*
X153959571Y-132869614D01*
X154000500Y-132624335D01*
X154000500Y-132375665D01*
X153959571Y-132130386D01*
X153878828Y-131895190D01*
X153760474Y-131676491D01*
X153607738Y-131480256D01*
X153424785Y-131311836D01*
X153424782Y-131311833D01*
X153216610Y-131175828D01*
X152988876Y-131075935D01*
X152747826Y-131014893D01*
X152747824Y-131014892D01*
X152747821Y-131014892D01*
X152623361Y-131004578D01*
X152564665Y-130999715D01*
X152564658Y-130999714D01*
X152562067Y-130999500D01*
X152437933Y-130999500D01*
X152435342Y-130999714D01*
X152435334Y-130999715D01*
X152359028Y-131006038D01*
X152252179Y-131014892D01*
X152252176Y-131014892D01*
X152252173Y-131014893D01*
X152011123Y-131075935D01*
X151783389Y-131175828D01*
X151575217Y-131311833D01*
X151392262Y-131480255D01*
X151239527Y-131676489D01*
X151121170Y-131895193D01*
X151040430Y-132130383D01*
X151040429Y-132130386D01*
X150999500Y-132375665D01*
X150999500Y-132624335D01*
X130009587Y-132624335D01*
X130089296Y-132442616D01*
X130144564Y-132224368D01*
X130163156Y-132000000D01*
X130144564Y-131775632D01*
X130089296Y-131557384D01*
X129998860Y-131351209D01*
X129875722Y-131162732D01*
X129723240Y-130997094D01*
X129723239Y-130997093D01*
X129723237Y-130997091D01*
X129545578Y-130858812D01*
X129512317Y-130840812D01*
X129461927Y-130790798D01*
X129446576Y-130721481D01*
X129471138Y-130654868D01*
X129512315Y-130619188D01*
X129545576Y-130601189D01*
X129723240Y-130462906D01*
X129875722Y-130297268D01*
X129998860Y-130108791D01*
X130089296Y-129902616D01*
X130144564Y-129684368D01*
X130163156Y-129460000D01*
X130144564Y-129235632D01*
X130089296Y-129017384D01*
X129998860Y-128811209D01*
X129875722Y-128622732D01*
X129723240Y-128457094D01*
X129723239Y-128457093D01*
X129723237Y-128457091D01*
X129545578Y-128318812D01*
X129512317Y-128300812D01*
X129461927Y-128250798D01*
X129446576Y-128181481D01*
X129471138Y-128114868D01*
X129512315Y-128079188D01*
X129545576Y-128061189D01*
X129723240Y-127922906D01*
X129875722Y-127757268D01*
X129998860Y-127568791D01*
X130089296Y-127362616D01*
X130144564Y-127144368D01*
X130163156Y-126920000D01*
X130144564Y-126695632D01*
X130089296Y-126477384D01*
X129998860Y-126271209D01*
X129875722Y-126082732D01*
X129723240Y-125917094D01*
X129723239Y-125917093D01*
X129723237Y-125917091D01*
X129567236Y-125795670D01*
X129545576Y-125778811D01*
X129511792Y-125760528D01*
X129461402Y-125710516D01*
X129446050Y-125641199D01*
X129470611Y-125574586D01*
X129511793Y-125538901D01*
X129545300Y-125520768D01*
X129722903Y-125382533D01*
X129875321Y-125216962D01*
X129998419Y-125028548D01*
X130088822Y-124822451D01*
X130136544Y-124634000D01*
X129231116Y-124634000D01*
X129259493Y-124589844D01*
X129300000Y-124451889D01*
X129300000Y-124308111D01*
X129259493Y-124170156D01*
X129231116Y-124126000D01*
X130136544Y-124126000D01*
X130136544Y-124125999D01*
X130088822Y-123937548D01*
X129998419Y-123731451D01*
X129875321Y-123543037D01*
X129722903Y-123377466D01*
X129545299Y-123239231D01*
X129511791Y-123221097D01*
X129461401Y-123171083D01*
X129446050Y-123101766D01*
X129470612Y-123035153D01*
X129511790Y-122999472D01*
X129545576Y-122981189D01*
X129723240Y-122842906D01*
X129875722Y-122677268D01*
X129998860Y-122488791D01*
X130089296Y-122282616D01*
X130144564Y-122064368D01*
X130163156Y-121840000D01*
X130144564Y-121615632D01*
X130089296Y-121397384D01*
X129998860Y-121191209D01*
X129875722Y-121002732D01*
X129732524Y-120847179D01*
X129701103Y-120783514D01*
X129709090Y-120712968D01*
X129753949Y-120657939D01*
X129781183Y-120643789D01*
X129896204Y-120600889D01*
X130013261Y-120513261D01*
X130100889Y-120396204D01*
X130151989Y-120259201D01*
X130158500Y-120198638D01*
X130158500Y-118889593D01*
X130178502Y-118821472D01*
X130195400Y-118800503D01*
X131188659Y-117807244D01*
X131204980Y-117794169D01*
X131207014Y-117792001D01*
X131207018Y-117792000D01*
X131253661Y-117742328D01*
X131256353Y-117739550D01*
X131276135Y-117719770D01*
X131278613Y-117716574D01*
X131286308Y-117707563D01*
X131316586Y-117675321D01*
X131326342Y-117657571D01*
X131337195Y-117641050D01*
X131349614Y-117625041D01*
X131367175Y-117584454D01*
X131372388Y-117573813D01*
X131393695Y-117535060D01*
X131398733Y-117515434D01*
X131405137Y-117496732D01*
X131413181Y-117478144D01*
X131420096Y-117434482D01*
X131422504Y-117422853D01*
X131433500Y-117380029D01*
X131433500Y-117359775D01*
X131435051Y-117340063D01*
X131438220Y-117320057D01*
X131434056Y-117276016D01*
X131433499Y-117264200D01*
X131433499Y-98683857D01*
X131435795Y-98663069D01*
X131435701Y-98660093D01*
X131435702Y-98660091D01*
X131433562Y-98592012D01*
X131433500Y-98588054D01*
X131433500Y-98564107D01*
X131433500Y-98564106D01*
X131433500Y-98560144D01*
X131432994Y-98556147D01*
X131432061Y-98544297D01*
X131430673Y-98500110D01*
X131425020Y-98480656D01*
X131421012Y-98461298D01*
X131419585Y-98450000D01*
X131418474Y-98441203D01*
X131402190Y-98400077D01*
X131398359Y-98388888D01*
X131386018Y-98346407D01*
X131375704Y-98328968D01*
X131367008Y-98311216D01*
X131359552Y-98292383D01*
X131354914Y-98286000D01*
X131333571Y-98256624D01*
X131327050Y-98246698D01*
X131304542Y-98208637D01*
X131304541Y-98208636D01*
X131290213Y-98194308D01*
X131277376Y-98179277D01*
X131265473Y-98162893D01*
X131231406Y-98134711D01*
X131222626Y-98126721D01*
X130407244Y-97311339D01*
X130394170Y-97295020D01*
X130384085Y-97285549D01*
X130348120Y-97224336D01*
X130350959Y-97153396D01*
X130391700Y-97095253D01*
X130457408Y-97068365D01*
X130470339Y-97067700D01*
X135881947Y-97067700D01*
X135902735Y-97069995D01*
X135905707Y-97069901D01*
X135905709Y-97069902D01*
X135973785Y-97067762D01*
X135977745Y-97067700D01*
X136001694Y-97067700D01*
X136005656Y-97067700D01*
X136009656Y-97067194D01*
X136021499Y-97066261D01*
X136065689Y-97064873D01*
X136085138Y-97059221D01*
X136104498Y-97055212D01*
X136124597Y-97052674D01*
X136165715Y-97036393D01*
X136176917Y-97032557D01*
X136219393Y-97020218D01*
X136236839Y-97009899D01*
X136254580Y-97001209D01*
X136273417Y-96993752D01*
X136309192Y-96967758D01*
X136319103Y-96961248D01*
X136357162Y-96938742D01*
X136371491Y-96924412D01*
X136386519Y-96911577D01*
X136402907Y-96899672D01*
X136431103Y-96865586D01*
X136439072Y-96856830D01*
X148145499Y-85150405D01*
X148207812Y-85116379D01*
X148234595Y-85113500D01*
X149722962Y-85113500D01*
X149791083Y-85133502D01*
X149828444Y-85170583D01*
X149830248Y-85173344D01*
X149924278Y-85317268D01*
X150076762Y-85482908D01*
X150254418Y-85621185D01*
X150254420Y-85621186D01*
X150254424Y-85621189D01*
X150287682Y-85639187D01*
X150338071Y-85689200D01*
X150353423Y-85758517D01*
X150328862Y-85825130D01*
X150287683Y-85860812D01*
X150262794Y-85874281D01*
X150254418Y-85878814D01*
X150076762Y-86017091D01*
X149924278Y-86182731D01*
X149801139Y-86371209D01*
X149710702Y-86577388D01*
X149655437Y-86795627D01*
X149655436Y-86795632D01*
X149636844Y-87020000D01*
X149655436Y-87244368D01*
X149655436Y-87244371D01*
X149655437Y-87244372D01*
X149710702Y-87462611D01*
X149801139Y-87668790D01*
X149887122Y-87800397D01*
X149924278Y-87857268D01*
X150061502Y-88006332D01*
X150076762Y-88022908D01*
X150254418Y-88161185D01*
X150254420Y-88161186D01*
X150254424Y-88161189D01*
X150287682Y-88179187D01*
X150338071Y-88229200D01*
X150353423Y-88298517D01*
X150328862Y-88365130D01*
X150287683Y-88400812D01*
X150262794Y-88414281D01*
X150254418Y-88418814D01*
X150076762Y-88557091D01*
X149924278Y-88722731D01*
X149801139Y-88911209D01*
X149710702Y-89117388D01*
X149655437Y-89335627D01*
X149655436Y-89335632D01*
X149636844Y-89560000D01*
X149655436Y-89784368D01*
X149655436Y-89784371D01*
X149655437Y-89784372D01*
X149710702Y-90002611D01*
X149801139Y-90208790D01*
X149818269Y-90235009D01*
X149924278Y-90397268D01*
X150023590Y-90505149D01*
X150076762Y-90562908D01*
X150254418Y-90701185D01*
X150254420Y-90701186D01*
X150254424Y-90701189D01*
X150287682Y-90719187D01*
X150338071Y-90769200D01*
X150353423Y-90838517D01*
X150328862Y-90905130D01*
X150287683Y-90940812D01*
X150262794Y-90954281D01*
X150254418Y-90958814D01*
X150076762Y-91097091D01*
X149924278Y-91262731D01*
X149801139Y-91451209D01*
X149710702Y-91657388D01*
X149655437Y-91875627D01*
X149655436Y-91875632D01*
X149636844Y-92100000D01*
X149655436Y-92324368D01*
X149655436Y-92324371D01*
X149655437Y-92324372D01*
X149710702Y-92542611D01*
X149710703Y-92542614D01*
X149710704Y-92542616D01*
X149721460Y-92567137D01*
X149801139Y-92748790D01*
X149845666Y-92816943D01*
X149924278Y-92937268D01*
X150070589Y-93096203D01*
X150076762Y-93102908D01*
X150254418Y-93241185D01*
X150254420Y-93241186D01*
X150254424Y-93241189D01*
X150287682Y-93259187D01*
X150338071Y-93309200D01*
X150353423Y-93378517D01*
X150328862Y-93445130D01*
X150287683Y-93480812D01*
X150262794Y-93494281D01*
X150254418Y-93498814D01*
X150076762Y-93637091D01*
X149924278Y-93802731D01*
X149801139Y-93991209D01*
X149710702Y-94197388D01*
X149660863Y-94394200D01*
X149655436Y-94415632D01*
X149636844Y-94640000D01*
X149655436Y-94864368D01*
X149655436Y-94864371D01*
X149655437Y-94864372D01*
X149710702Y-95082611D01*
X149710703Y-95082614D01*
X149710704Y-95082616D01*
X149717458Y-95098013D01*
X149801139Y-95288790D01*
X149924278Y-95477268D01*
X150076762Y-95642908D01*
X150254418Y-95781185D01*
X150254420Y-95781186D01*
X150254424Y-95781189D01*
X150287682Y-95799187D01*
X150338071Y-95849200D01*
X150353423Y-95918517D01*
X150328862Y-95985130D01*
X150287683Y-96020812D01*
X150262794Y-96034281D01*
X150254418Y-96038814D01*
X150076762Y-96177091D01*
X149924278Y-96342731D01*
X149801139Y-96531209D01*
X149710702Y-96737388D01*
X149665116Y-96917406D01*
X149655436Y-96955632D01*
X149639722Y-97145264D01*
X149637766Y-97168879D01*
X149636844Y-97180000D01*
X149655436Y-97404368D01*
X149655436Y-97404371D01*
X149655437Y-97404372D01*
X149710702Y-97622611D01*
X149710703Y-97622614D01*
X149710704Y-97622616D01*
X149715032Y-97632482D01*
X149801139Y-97828790D01*
X149810259Y-97842749D01*
X149924278Y-98017268D01*
X150028909Y-98130927D01*
X150076762Y-98182908D01*
X150254418Y-98321185D01*
X150254420Y-98321186D01*
X150254424Y-98321189D01*
X150287682Y-98339187D01*
X150338071Y-98389200D01*
X150353423Y-98458517D01*
X150328862Y-98525130D01*
X150287683Y-98560812D01*
X150262794Y-98574281D01*
X150254418Y-98578814D01*
X150076762Y-98717091D01*
X149924278Y-98882731D01*
X149801139Y-99071209D01*
X149710702Y-99277388D01*
X149666805Y-99450735D01*
X149655436Y-99495632D01*
X149636844Y-99720000D01*
X149655436Y-99944368D01*
X149655436Y-99944371D01*
X149655437Y-99944372D01*
X149710702Y-100162611D01*
X149710703Y-100162614D01*
X149710704Y-100162616D01*
X149719821Y-100183400D01*
X149801139Y-100368790D01*
X149924278Y-100557268D01*
X150076762Y-100722908D01*
X150176494Y-100800533D01*
X150254424Y-100861189D01*
X150287682Y-100879187D01*
X150338070Y-100929197D01*
X150353423Y-100998513D01*
X150328863Y-101065127D01*
X150287683Y-101100811D01*
X150254423Y-101118810D01*
X150076762Y-101257091D01*
X149924278Y-101422731D01*
X149801139Y-101611209D01*
X149710702Y-101817388D01*
X149658475Y-102023630D01*
X149655436Y-102035632D01*
X149636844Y-102260000D01*
X149655436Y-102484368D01*
X149655436Y-102484371D01*
X149655437Y-102484372D01*
X149710702Y-102702611D01*
X149710703Y-102702614D01*
X149710704Y-102702616D01*
X149719821Y-102723400D01*
X149801139Y-102908790D01*
X149924278Y-103097268D01*
X150076762Y-103262908D01*
X150176494Y-103340533D01*
X150254424Y-103401189D01*
X150287682Y-103419187D01*
X150338070Y-103469197D01*
X150353423Y-103538513D01*
X150328863Y-103605127D01*
X150287683Y-103640811D01*
X150254423Y-103658810D01*
X150076762Y-103797091D01*
X149924278Y-103962731D01*
X149801139Y-104151209D01*
X149710702Y-104357388D01*
X149666805Y-104530735D01*
X149655436Y-104575632D01*
X149636844Y-104800000D01*
X149655436Y-105024368D01*
X149655436Y-105024371D01*
X149655437Y-105024372D01*
X149710702Y-105242611D01*
X149710703Y-105242614D01*
X149710704Y-105242616D01*
X149719821Y-105263400D01*
X149801139Y-105448790D01*
X149924278Y-105637268D01*
X150076762Y-105802908D01*
X150254418Y-105941185D01*
X150254420Y-105941186D01*
X150254424Y-105941189D01*
X150287682Y-105959187D01*
X150338071Y-106009200D01*
X150353423Y-106078517D01*
X150328862Y-106145130D01*
X150287683Y-106180812D01*
X150262794Y-106194281D01*
X150254418Y-106198814D01*
X150076762Y-106337091D01*
X149924278Y-106502731D01*
X149801139Y-106691209D01*
X149710702Y-106897388D01*
X149655437Y-107115627D01*
X149655436Y-107115632D01*
X149636844Y-107340000D01*
X149655436Y-107564368D01*
X149655436Y-107564371D01*
X149655437Y-107564372D01*
X149710702Y-107782611D01*
X149801139Y-107988790D01*
X149924278Y-108177268D01*
X150076762Y-108342908D01*
X150254418Y-108481185D01*
X150254420Y-108481186D01*
X150254424Y-108481189D01*
X150287682Y-108499187D01*
X150338071Y-108549200D01*
X150353423Y-108618517D01*
X150328862Y-108685130D01*
X150287683Y-108720812D01*
X150262794Y-108734281D01*
X150254418Y-108738814D01*
X150076762Y-108877091D01*
X149924278Y-109042731D01*
X149801139Y-109231209D01*
X149710702Y-109437388D01*
X149655437Y-109655627D01*
X149655436Y-109655632D01*
X149636844Y-109880000D01*
X149655436Y-110104368D01*
X149655436Y-110104371D01*
X149655437Y-110104372D01*
X149710702Y-110322611D01*
X149801139Y-110528790D01*
X149924278Y-110717268D01*
X150076762Y-110882908D01*
X150254418Y-111021185D01*
X150254420Y-111021186D01*
X150254424Y-111021189D01*
X150287682Y-111039187D01*
X150338071Y-111089200D01*
X150353423Y-111158517D01*
X150328862Y-111225130D01*
X150287683Y-111260812D01*
X150262794Y-111274281D01*
X150254418Y-111278814D01*
X150076762Y-111417091D01*
X149924278Y-111582731D01*
X149801139Y-111771209D01*
X149710702Y-111977388D01*
X149655437Y-112195627D01*
X149655436Y-112195632D01*
X149636844Y-112420000D01*
X149655436Y-112644368D01*
X149655436Y-112644371D01*
X149655437Y-112644372D01*
X149710702Y-112862611D01*
X149710703Y-112862614D01*
X149710704Y-112862616D01*
X149719821Y-112883400D01*
X149801139Y-113068790D01*
X149924278Y-113257268D01*
X150076762Y-113422908D01*
X150254418Y-113561185D01*
X150254420Y-113561186D01*
X150254424Y-113561189D01*
X150287682Y-113579187D01*
X150338071Y-113629200D01*
X150353423Y-113698517D01*
X150328862Y-113765130D01*
X150287683Y-113800812D01*
X150262794Y-113814281D01*
X150254418Y-113818814D01*
X150076762Y-113957091D01*
X149924278Y-114122731D01*
X149801139Y-114311209D01*
X149710702Y-114517388D01*
X149655437Y-114735627D01*
X149655436Y-114735632D01*
X149636844Y-114960000D01*
X149655436Y-115184368D01*
X149655436Y-115184371D01*
X149655437Y-115184372D01*
X149710702Y-115402611D01*
X149801139Y-115608790D01*
X149924278Y-115797268D01*
X150076762Y-115962908D01*
X150254418Y-116101185D01*
X150254420Y-116101186D01*
X150254424Y-116101189D01*
X150287682Y-116119187D01*
X150338071Y-116169200D01*
X150353423Y-116238517D01*
X150328862Y-116305130D01*
X150287683Y-116340812D01*
X150262794Y-116354281D01*
X150254418Y-116358814D01*
X150076762Y-116497091D01*
X149924278Y-116662731D01*
X149801139Y-116851209D01*
X149710702Y-117057388D01*
X149660518Y-117255563D01*
X149655436Y-117275632D01*
X149636844Y-117500000D01*
X149655436Y-117724368D01*
X149655436Y-117724371D01*
X149655437Y-117724372D01*
X149710702Y-117942611D01*
X149710703Y-117942614D01*
X149710704Y-117942616D01*
X149730000Y-117986606D01*
X149801139Y-118148790D01*
X149924278Y-118337268D01*
X150076762Y-118502908D01*
X150178611Y-118582181D01*
X150254424Y-118641189D01*
X150287682Y-118659187D01*
X150338070Y-118709197D01*
X150353423Y-118778513D01*
X150328863Y-118845127D01*
X150287683Y-118880811D01*
X150254423Y-118898810D01*
X150076762Y-119037091D01*
X149924278Y-119202731D01*
X149801139Y-119391209D01*
X149710702Y-119597388D01*
X149665072Y-119777579D01*
X149655436Y-119815632D01*
X149636844Y-120040000D01*
X149655436Y-120264368D01*
X149655436Y-120264371D01*
X149655437Y-120264372D01*
X149710702Y-120482611D01*
X149801139Y-120688790D01*
X149924278Y-120877268D01*
X150076762Y-121042908D01*
X150178611Y-121122181D01*
X150254424Y-121181189D01*
X150287682Y-121199187D01*
X150338070Y-121249197D01*
X150353423Y-121318513D01*
X150328863Y-121385127D01*
X150287683Y-121420811D01*
X150254423Y-121438810D01*
X150076762Y-121577091D01*
X149924278Y-121742731D01*
X149801139Y-121931209D01*
X149710702Y-122137388D01*
X149673927Y-122282611D01*
X149655436Y-122355632D01*
X149636844Y-122580000D01*
X149655436Y-122804368D01*
X149655436Y-122804371D01*
X149655437Y-122804372D01*
X149710702Y-123022611D01*
X149710703Y-123022614D01*
X149710704Y-123022616D01*
X149730000Y-123066606D01*
X149801139Y-123228790D01*
X149924278Y-123417268D01*
X150076762Y-123582908D01*
X150089645Y-123592935D01*
X150254424Y-123721189D01*
X150287682Y-123739187D01*
X150338070Y-123789197D01*
X150353423Y-123858513D01*
X150328863Y-123925127D01*
X150287683Y-123960811D01*
X150254423Y-123978810D01*
X150076762Y-124117091D01*
X149924278Y-124282731D01*
X149801139Y-124471209D01*
X149710702Y-124677388D01*
X149655437Y-124895627D01*
X149655436Y-124895632D01*
X149636844Y-125120000D01*
X149655436Y-125344368D01*
X149655436Y-125344371D01*
X149655437Y-125344372D01*
X149710702Y-125562611D01*
X149710703Y-125562614D01*
X149710704Y-125562616D01*
X149722240Y-125588915D01*
X149801139Y-125768790D01*
X149818701Y-125795670D01*
X149924278Y-125957268D01*
X150068433Y-126113861D01*
X150076762Y-126122908D01*
X150254418Y-126261185D01*
X150254420Y-126261186D01*
X150254424Y-126261189D01*
X150287682Y-126279187D01*
X150338071Y-126329200D01*
X150353423Y-126398517D01*
X150328862Y-126465130D01*
X150287683Y-126500812D01*
X150262794Y-126514281D01*
X150254418Y-126518814D01*
X150076762Y-126657091D01*
X149924278Y-126822731D01*
X149801139Y-127011209D01*
X149710702Y-127217388D01*
X149673927Y-127362611D01*
X149655436Y-127435632D01*
X149636844Y-127660000D01*
X149655436Y-127884368D01*
X149655436Y-127884371D01*
X149655437Y-127884372D01*
X149710702Y-128102611D01*
X149710703Y-128102614D01*
X149710704Y-128102616D01*
X149730000Y-128146606D01*
X149801139Y-128308790D01*
X149924278Y-128497268D01*
X150076762Y-128662908D01*
X150254421Y-128801187D01*
X150254424Y-128801189D01*
X150452426Y-128908342D01*
X150665365Y-128981444D01*
X150887431Y-129018500D01*
X150887434Y-129018500D01*
X151112566Y-129018500D01*
X151112569Y-129018500D01*
X151334635Y-128981444D01*
X151547574Y-128908342D01*
X151745576Y-128801189D01*
X151923240Y-128662906D01*
X152075722Y-128497268D01*
X152164518Y-128361354D01*
X152218521Y-128315268D01*
X152288869Y-128305693D01*
X152353226Y-128335670D01*
X152375480Y-128361353D01*
X152438029Y-128457091D01*
X152464278Y-128497268D01*
X152616762Y-128662908D01*
X152794421Y-128801187D01*
X152794424Y-128801189D01*
X152992426Y-128908342D01*
X153205365Y-128981444D01*
X153427431Y-129018500D01*
X153427434Y-129018500D01*
X153652566Y-129018500D01*
X153652569Y-129018500D01*
X153874635Y-128981444D01*
X154087574Y-128908342D01*
X154285576Y-128801189D01*
X154463240Y-128662906D01*
X154615722Y-128497268D01*
X154738860Y-128308791D01*
X154829296Y-128102616D01*
X154884564Y-127884368D01*
X154903156Y-127660000D01*
X154884564Y-127435632D01*
X154829296Y-127217384D01*
X154738860Y-127011209D01*
X154615722Y-126822732D01*
X154463240Y-126657094D01*
X154463239Y-126657093D01*
X154463237Y-126657091D01*
X154285579Y-126518813D01*
X154285577Y-126518812D01*
X154285576Y-126518811D01*
X154252317Y-126500812D01*
X154201929Y-126450801D01*
X154186576Y-126381484D01*
X154211136Y-126314871D01*
X154252316Y-126279187D01*
X154285576Y-126261189D01*
X154463240Y-126122906D01*
X154615722Y-125957268D01*
X154738860Y-125768791D01*
X154829296Y-125562616D01*
X154884564Y-125344368D01*
X154903156Y-125120000D01*
X154884564Y-124895632D01*
X154829296Y-124677384D01*
X154738860Y-124471209D01*
X154615722Y-124282732D01*
X154463240Y-124117094D01*
X154463239Y-124117093D01*
X154463237Y-124117091D01*
X154285579Y-123978813D01*
X154285577Y-123978812D01*
X154285576Y-123978811D01*
X154252317Y-123960812D01*
X154201929Y-123910801D01*
X154186576Y-123841484D01*
X154211136Y-123774871D01*
X154252316Y-123739187D01*
X154285576Y-123721189D01*
X154463240Y-123582906D01*
X154615722Y-123417268D01*
X154738860Y-123228791D01*
X154829296Y-123022616D01*
X154884564Y-122804368D01*
X154903156Y-122580000D01*
X154884564Y-122355632D01*
X154829296Y-122137384D01*
X154738860Y-121931209D01*
X154615722Y-121742732D01*
X154463240Y-121577094D01*
X154463239Y-121577093D01*
X154463237Y-121577091D01*
X154285579Y-121438813D01*
X154285577Y-121438812D01*
X154285576Y-121438811D01*
X154252317Y-121420812D01*
X154201929Y-121370801D01*
X154186576Y-121301484D01*
X154211136Y-121234871D01*
X154252316Y-121199187D01*
X154285576Y-121181189D01*
X154463240Y-121042906D01*
X154615722Y-120877268D01*
X154738860Y-120688791D01*
X154829296Y-120482616D01*
X154884564Y-120264368D01*
X154903156Y-120040000D01*
X154884564Y-119815632D01*
X154829296Y-119597384D01*
X154738860Y-119391209D01*
X154615722Y-119202732D01*
X154463240Y-119037094D01*
X154463239Y-119037093D01*
X154463237Y-119037091D01*
X154285579Y-118898813D01*
X154285577Y-118898812D01*
X154285576Y-118898811D01*
X154252317Y-118880812D01*
X154201929Y-118830801D01*
X154186576Y-118761484D01*
X154211136Y-118694871D01*
X154252316Y-118659187D01*
X154285576Y-118641189D01*
X154463240Y-118502906D01*
X154615722Y-118337268D01*
X154738860Y-118148791D01*
X154829296Y-117942616D01*
X154884564Y-117724368D01*
X154903156Y-117500000D01*
X154884564Y-117275632D01*
X154829296Y-117057384D01*
X154738860Y-116851209D01*
X154615722Y-116662732D01*
X154463240Y-116497094D01*
X154463239Y-116497093D01*
X154463237Y-116497091D01*
X154285579Y-116358813D01*
X154285577Y-116358812D01*
X154285576Y-116358811D01*
X154252317Y-116340812D01*
X154201929Y-116290801D01*
X154186576Y-116221484D01*
X154211136Y-116154871D01*
X154252316Y-116119187D01*
X154285576Y-116101189D01*
X154463240Y-115962906D01*
X154615722Y-115797268D01*
X154738860Y-115608791D01*
X154829296Y-115402616D01*
X154884564Y-115184368D01*
X154903156Y-114960000D01*
X154884564Y-114735632D01*
X154829296Y-114517384D01*
X154738860Y-114311209D01*
X154615722Y-114122732D01*
X154463240Y-113957094D01*
X154463239Y-113957093D01*
X154463237Y-113957091D01*
X154285578Y-113818812D01*
X154252317Y-113800812D01*
X154201927Y-113750798D01*
X154186576Y-113681481D01*
X154211138Y-113614868D01*
X154252315Y-113579188D01*
X154285576Y-113561189D01*
X154463240Y-113422906D01*
X154615722Y-113257268D01*
X154738860Y-113068791D01*
X154829296Y-112862616D01*
X154884564Y-112644368D01*
X154903156Y-112420000D01*
X154884564Y-112195632D01*
X154829296Y-111977384D01*
X154738860Y-111771209D01*
X154615722Y-111582732D01*
X154463240Y-111417094D01*
X154463239Y-111417093D01*
X154463237Y-111417091D01*
X154285578Y-111278812D01*
X154252317Y-111260812D01*
X154201927Y-111210798D01*
X154186576Y-111141481D01*
X154211138Y-111074868D01*
X154252315Y-111039188D01*
X154285576Y-111021189D01*
X154463240Y-110882906D01*
X154615722Y-110717268D01*
X154738860Y-110528791D01*
X154829296Y-110322616D01*
X154884564Y-110104368D01*
X154903156Y-109880000D01*
X154884564Y-109655632D01*
X154829296Y-109437384D01*
X154738860Y-109231209D01*
X154615722Y-109042732D01*
X154463240Y-108877094D01*
X154463239Y-108877093D01*
X154463237Y-108877091D01*
X154285578Y-108738812D01*
X154252317Y-108720812D01*
X154201927Y-108670798D01*
X154186576Y-108601481D01*
X154211138Y-108534868D01*
X154252315Y-108499188D01*
X154285576Y-108481189D01*
X154463240Y-108342906D01*
X154615722Y-108177268D01*
X154738860Y-107988791D01*
X154829296Y-107782616D01*
X154884564Y-107564368D01*
X154903156Y-107340000D01*
X154884564Y-107115632D01*
X154829296Y-106897384D01*
X154738860Y-106691209D01*
X154615722Y-106502732D01*
X154463240Y-106337094D01*
X154463239Y-106337093D01*
X154463237Y-106337091D01*
X154285579Y-106198813D01*
X154285577Y-106198812D01*
X154285576Y-106198811D01*
X154252317Y-106180812D01*
X154201929Y-106130801D01*
X154186576Y-106061484D01*
X154211136Y-105994871D01*
X154252316Y-105959187D01*
X154285576Y-105941189D01*
X154463240Y-105802906D01*
X154615722Y-105637268D01*
X154738860Y-105448791D01*
X154829296Y-105242616D01*
X154884564Y-105024368D01*
X154903156Y-104800000D01*
X154884564Y-104575632D01*
X154829296Y-104357384D01*
X154738860Y-104151209D01*
X154615722Y-103962732D01*
X154463240Y-103797094D01*
X154463239Y-103797093D01*
X154463237Y-103797091D01*
X154285579Y-103658813D01*
X154285577Y-103658812D01*
X154285576Y-103658811D01*
X154252317Y-103640812D01*
X154201929Y-103590801D01*
X154186576Y-103521484D01*
X154211136Y-103454871D01*
X154252316Y-103419187D01*
X154285576Y-103401189D01*
X154463240Y-103262906D01*
X154615722Y-103097268D01*
X154738860Y-102908791D01*
X154829296Y-102702616D01*
X154884564Y-102484368D01*
X154903156Y-102260000D01*
X154884564Y-102035632D01*
X154829296Y-101817384D01*
X154738860Y-101611209D01*
X154615722Y-101422732D01*
X154463240Y-101257094D01*
X154463239Y-101257093D01*
X154463237Y-101257091D01*
X154285579Y-101118813D01*
X154285577Y-101118812D01*
X154285576Y-101118811D01*
X154252317Y-101100812D01*
X154201929Y-101050801D01*
X154186576Y-100981484D01*
X154211136Y-100914871D01*
X154252316Y-100879187D01*
X154285576Y-100861189D01*
X154463240Y-100722906D01*
X154615722Y-100557268D01*
X154738860Y-100368791D01*
X154829296Y-100162616D01*
X154884564Y-99944368D01*
X154903156Y-99720000D01*
X154884564Y-99495632D01*
X154829296Y-99277384D01*
X154738860Y-99071209D01*
X154615722Y-98882732D01*
X154463240Y-98717094D01*
X154463239Y-98717093D01*
X154463237Y-98717091D01*
X154285578Y-98578812D01*
X154252317Y-98560812D01*
X154201927Y-98510798D01*
X154186576Y-98441481D01*
X154211138Y-98374868D01*
X154252315Y-98339188D01*
X154285576Y-98321189D01*
X154463240Y-98182906D01*
X154615722Y-98017268D01*
X154738860Y-97828791D01*
X154829296Y-97622616D01*
X154884564Y-97404368D01*
X154903156Y-97180000D01*
X154884564Y-96955632D01*
X154829296Y-96737384D01*
X154738860Y-96531209D01*
X154615722Y-96342732D01*
X154463240Y-96177094D01*
X154463239Y-96177093D01*
X154463237Y-96177091D01*
X154285579Y-96038813D01*
X154285577Y-96038812D01*
X154285576Y-96038811D01*
X154252317Y-96020812D01*
X154201929Y-95970801D01*
X154186576Y-95901484D01*
X154211136Y-95834871D01*
X154252316Y-95799187D01*
X154285576Y-95781189D01*
X154463240Y-95642906D01*
X154615722Y-95477268D01*
X154738860Y-95288791D01*
X154829296Y-95082616D01*
X154884564Y-94864368D01*
X154903156Y-94640000D01*
X154884564Y-94415632D01*
X154829296Y-94197384D01*
X154738860Y-93991209D01*
X154615722Y-93802732D01*
X154463240Y-93637094D01*
X154463239Y-93637093D01*
X154463237Y-93637091D01*
X154285579Y-93498813D01*
X154285577Y-93498812D01*
X154285576Y-93498811D01*
X154252317Y-93480812D01*
X154201929Y-93430801D01*
X154186576Y-93361484D01*
X154211136Y-93294871D01*
X154252316Y-93259187D01*
X154285576Y-93241189D01*
X154463240Y-93102906D01*
X154615722Y-92937268D01*
X154738860Y-92748791D01*
X154829296Y-92542616D01*
X154884564Y-92324368D01*
X154903156Y-92100000D01*
X154884564Y-91875632D01*
X154829296Y-91657384D01*
X154738860Y-91451209D01*
X154615722Y-91262732D01*
X154463240Y-91097094D01*
X154463239Y-91097093D01*
X154463237Y-91097091D01*
X154285579Y-90958813D01*
X154285577Y-90958812D01*
X154285576Y-90958811D01*
X154252317Y-90940812D01*
X154201929Y-90890801D01*
X154186576Y-90821484D01*
X154211136Y-90754871D01*
X154252316Y-90719187D01*
X154285576Y-90701189D01*
X154463240Y-90562906D01*
X154615722Y-90397268D01*
X154738860Y-90208791D01*
X154829296Y-90002616D01*
X154884564Y-89784368D01*
X154903156Y-89560000D01*
X154884564Y-89335632D01*
X154829296Y-89117384D01*
X154738860Y-88911209D01*
X154615722Y-88722732D01*
X154463240Y-88557094D01*
X154463239Y-88557093D01*
X154463237Y-88557091D01*
X154285578Y-88418812D01*
X154252317Y-88400812D01*
X154201927Y-88350798D01*
X154186576Y-88281481D01*
X154211138Y-88214868D01*
X154252315Y-88179188D01*
X154285576Y-88161189D01*
X154463240Y-88022906D01*
X154615722Y-87857268D01*
X154738860Y-87668791D01*
X154829296Y-87462616D01*
X154884564Y-87244368D01*
X154903156Y-87020000D01*
X154884564Y-86795632D01*
X154829296Y-86577384D01*
X154738860Y-86371209D01*
X154615722Y-86182732D01*
X154463240Y-86017094D01*
X154463239Y-86017093D01*
X154463237Y-86017091D01*
X154303181Y-85892514D01*
X154285576Y-85878811D01*
X154251792Y-85860528D01*
X154201402Y-85810516D01*
X154186050Y-85741199D01*
X154210611Y-85674586D01*
X154251793Y-85638901D01*
X154285300Y-85620768D01*
X154462903Y-85482533D01*
X154615321Y-85316962D01*
X154738419Y-85128548D01*
X154828822Y-84922451D01*
X154876544Y-84734000D01*
X153971116Y-84734000D01*
X153999493Y-84689844D01*
X154040000Y-84551889D01*
X154040000Y-84408111D01*
X153999493Y-84270156D01*
X153971116Y-84226000D01*
X154876544Y-84226000D01*
X154876544Y-84225999D01*
X154828822Y-84037548D01*
X154738419Y-83831451D01*
X154615321Y-83643037D01*
X154462903Y-83477466D01*
X154285299Y-83339231D01*
X154251791Y-83321097D01*
X154201401Y-83271083D01*
X154186050Y-83201766D01*
X154210612Y-83135153D01*
X154251790Y-83099472D01*
X154285576Y-83081189D01*
X154463240Y-82942906D01*
X154615722Y-82777268D01*
X154738860Y-82588791D01*
X154829296Y-82382616D01*
X154884564Y-82164368D01*
X154903156Y-81940000D01*
X154884564Y-81715632D01*
X154829296Y-81497384D01*
X154738860Y-81291209D01*
X154615722Y-81102732D01*
X154463240Y-80937094D01*
X154463239Y-80937093D01*
X154463237Y-80937091D01*
X154285578Y-80798812D01*
X154252317Y-80780812D01*
X154201927Y-80730798D01*
X154186576Y-80661481D01*
X154211138Y-80594868D01*
X154252316Y-80559188D01*
X154285576Y-80541189D01*
X154463240Y-80402906D01*
X154615722Y-80237268D01*
X154738860Y-80048791D01*
X154829296Y-79842616D01*
X154884564Y-79624368D01*
X154903156Y-79400000D01*
X154884564Y-79175632D01*
X154829296Y-78957384D01*
X154738860Y-78751209D01*
X154615722Y-78562732D01*
X154463240Y-78397094D01*
X154463239Y-78397093D01*
X154463237Y-78397091D01*
X154285578Y-78258812D01*
X154174417Y-78198655D01*
X154087574Y-78151658D01*
X154087573Y-78151657D01*
X154087570Y-78151656D01*
X154063024Y-78143229D01*
X154018720Y-78111846D01*
X154017735Y-78113038D01*
X153971394Y-78074700D01*
X153962616Y-78066712D01*
X153307248Y-77411344D01*
X153294171Y-77395021D01*
X153265853Y-77368429D01*
X153242347Y-77346355D01*
X153239505Y-77343600D01*
X153222574Y-77326669D01*
X153219770Y-77323865D01*
X153216575Y-77321386D01*
X153207554Y-77313682D01*
X153175320Y-77283413D01*
X153157567Y-77273653D01*
X153141041Y-77262797D01*
X153125041Y-77250386D01*
X153084466Y-77232828D01*
X153073804Y-77227604D01*
X153035063Y-77206305D01*
X153018394Y-77202026D01*
X153015437Y-77201266D01*
X152996731Y-77194862D01*
X152978145Y-77186819D01*
X152934475Y-77179902D01*
X152922853Y-77177495D01*
X152880030Y-77166500D01*
X152880029Y-77166500D01*
X152859776Y-77166500D01*
X152840066Y-77164949D01*
X152820057Y-77161779D01*
X152776039Y-77165941D01*
X152764181Y-77166500D01*
X150514594Y-77166500D01*
X150446473Y-77146498D01*
X150425499Y-77129595D01*
X148820405Y-75524500D01*
X148786379Y-75462188D01*
X148783500Y-75435405D01*
X148783500Y-74624335D01*
X150999500Y-74624335D01*
X151040429Y-74869614D01*
X151067343Y-74948012D01*
X151121170Y-75104806D01*
X151121171Y-75104809D01*
X151121172Y-75104810D01*
X151239526Y-75323509D01*
X151326618Y-75435405D01*
X151392262Y-75519744D01*
X151575217Y-75688166D01*
X151783389Y-75824171D01*
X151783391Y-75824172D01*
X151783393Y-75824173D01*
X152011119Y-75924063D01*
X152252179Y-75985108D01*
X152437933Y-76000500D01*
X152440547Y-76000500D01*
X152559453Y-76000500D01*
X152562067Y-76000500D01*
X152747821Y-75985108D01*
X152988881Y-75924063D01*
X153216607Y-75824173D01*
X153424785Y-75688164D01*
X153607738Y-75519744D01*
X153760474Y-75323509D01*
X153878828Y-75104810D01*
X153959571Y-74869614D01*
X154000500Y-74624335D01*
X154000500Y-74375665D01*
X153959571Y-74130386D01*
X153878828Y-73895190D01*
X153760474Y-73676491D01*
X153607738Y-73480256D01*
X153557330Y-73433852D01*
X153424782Y-73311833D01*
X153216610Y-73175828D01*
X153035543Y-73096405D01*
X152988881Y-73075937D01*
X152988879Y-73075936D01*
X152988876Y-73075935D01*
X152747826Y-73014893D01*
X152747824Y-73014892D01*
X152747821Y-73014892D01*
X152623361Y-73004578D01*
X152564665Y-72999715D01*
X152564658Y-72999714D01*
X152562067Y-72999500D01*
X152437933Y-72999500D01*
X152435342Y-72999714D01*
X152435334Y-72999715D01*
X152359028Y-73006038D01*
X152252179Y-73014892D01*
X152252176Y-73014892D01*
X152252173Y-73014893D01*
X152011123Y-73075935D01*
X151783389Y-73175828D01*
X151575217Y-73311833D01*
X151392262Y-73480255D01*
X151239527Y-73676489D01*
X151121170Y-73895193D01*
X151041216Y-74128093D01*
X151040429Y-74130386D01*
X150999500Y-74375665D01*
X150999500Y-74624335D01*
X148783500Y-74624335D01*
X148783500Y-73433852D01*
X148785795Y-73413061D01*
X148783562Y-73342000D01*
X148783500Y-73338042D01*
X148783500Y-73314108D01*
X148783500Y-73310144D01*
X148782995Y-73306152D01*
X148782062Y-73294306D01*
X148780674Y-73250111D01*
X148775020Y-73230652D01*
X148771013Y-73211306D01*
X148768474Y-73191203D01*
X148752194Y-73150086D01*
X148748353Y-73138866D01*
X148736017Y-73096405D01*
X148725706Y-73078970D01*
X148717008Y-73061215D01*
X148709552Y-73042383D01*
X148683565Y-73006616D01*
X148677047Y-72996693D01*
X148663387Y-72973595D01*
X148654542Y-72958638D01*
X148640212Y-72944308D01*
X148627378Y-72929281D01*
X148615472Y-72912893D01*
X148613526Y-72911283D01*
X148581394Y-72884700D01*
X148572616Y-72876712D01*
X144607244Y-68911339D01*
X144594171Y-68895021D01*
X144542348Y-68846356D01*
X144539506Y-68843601D01*
X144522574Y-68826669D01*
X144522573Y-68826669D01*
X144519770Y-68823865D01*
X144516575Y-68821386D01*
X144507554Y-68813682D01*
X144475320Y-68783413D01*
X144457567Y-68773653D01*
X144441041Y-68762797D01*
X144425041Y-68750386D01*
X144384466Y-68732828D01*
X144373804Y-68727604D01*
X144335063Y-68706305D01*
X144321313Y-68702775D01*
X144315437Y-68701266D01*
X144296731Y-68694862D01*
X144278145Y-68686819D01*
X144234475Y-68679902D01*
X144222853Y-68677495D01*
X144180030Y-68666500D01*
X144180029Y-68666500D01*
X144159776Y-68666500D01*
X144140066Y-68664949D01*
X144120057Y-68661779D01*
X144076039Y-68665941D01*
X144064181Y-68666500D01*
X143931823Y-68666500D01*
X143863702Y-68646498D01*
X143817209Y-68592842D01*
X143807105Y-68522568D01*
X143816436Y-68489886D01*
X143843822Y-68427451D01*
X143891544Y-68239000D01*
X142986116Y-68239000D01*
X143014493Y-68194844D01*
X143055000Y-68056889D01*
X143055000Y-67913111D01*
X143014493Y-67775156D01*
X142986116Y-67731000D01*
X143891544Y-67731000D01*
X143891544Y-67730999D01*
X143843822Y-67542548D01*
X143753419Y-67336451D01*
X143630323Y-67148040D01*
X143604361Y-67119837D01*
X143572941Y-67056172D01*
X143580928Y-66985626D01*
X143625788Y-66930597D01*
X143693277Y-66908557D01*
X143697063Y-66908500D01*
X156921802Y-66908500D01*
X156989923Y-66928502D01*
X157010897Y-66945405D01*
X159354595Y-69289103D01*
X159388621Y-69351415D01*
X159391500Y-69378198D01*
X159391500Y-70966882D01*
X159386074Y-71003458D01*
X159356090Y-71102298D01*
X159336619Y-71299998D01*
X159340893Y-71343385D01*
X159341500Y-71355736D01*
X159341500Y-94578915D01*
X159321498Y-94647036D01*
X159267842Y-94693529D01*
X159259538Y-94696969D01*
X159253796Y-94699110D01*
X159136738Y-94786738D01*
X159049111Y-94903794D01*
X159000186Y-95034968D01*
X158998011Y-95040799D01*
X158991500Y-95101362D01*
X158991500Y-96898638D01*
X158998011Y-96959201D01*
X159008438Y-96987157D01*
X159049111Y-97096205D01*
X159136738Y-97213261D01*
X159253794Y-97300888D01*
X159253795Y-97300888D01*
X159253796Y-97300889D01*
X159369313Y-97343975D01*
X159426148Y-97386521D01*
X159450959Y-97453041D01*
X159435868Y-97522415D01*
X159417982Y-97547367D01*
X159274676Y-97703040D01*
X159151580Y-97891451D01*
X159061177Y-98097548D01*
X159013455Y-98285999D01*
X159013456Y-98286000D01*
X159918884Y-98286000D01*
X159890507Y-98330156D01*
X159850000Y-98468111D01*
X159850000Y-98611889D01*
X159890507Y-98749844D01*
X159918884Y-98794000D01*
X159013455Y-98794000D01*
X159061177Y-98982451D01*
X159151580Y-99188548D01*
X159274678Y-99376962D01*
X159427096Y-99542533D01*
X159604702Y-99680769D01*
X159638207Y-99698902D01*
X159688597Y-99748915D01*
X159703949Y-99818232D01*
X159679388Y-99884845D01*
X159638207Y-99920528D01*
X159604423Y-99938811D01*
X159426762Y-100077091D01*
X159274278Y-100242731D01*
X159151139Y-100431209D01*
X159060702Y-100637388D01*
X159011033Y-100833530D01*
X159005436Y-100855632D01*
X158986844Y-101080000D01*
X159005436Y-101304368D01*
X159005436Y-101304371D01*
X159005437Y-101304372D01*
X159060702Y-101522611D01*
X159151139Y-101728790D01*
X159209023Y-101817388D01*
X159274278Y-101917268D01*
X159406738Y-102061157D01*
X159426762Y-102082908D01*
X159604418Y-102221185D01*
X159604420Y-102221186D01*
X159604424Y-102221189D01*
X159637682Y-102239187D01*
X159688071Y-102289200D01*
X159703423Y-102358517D01*
X159678862Y-102425130D01*
X159637683Y-102460812D01*
X159612794Y-102474281D01*
X159604418Y-102478814D01*
X159426762Y-102617091D01*
X159274278Y-102782731D01*
X159151139Y-102971209D01*
X159060702Y-103177388D01*
X159019389Y-103340533D01*
X159005436Y-103395632D01*
X158986844Y-103620000D01*
X159005436Y-103844368D01*
X159005436Y-103844371D01*
X159005437Y-103844372D01*
X159060702Y-104062611D01*
X159151139Y-104268790D01*
X159274278Y-104457268D01*
X159426762Y-104622908D01*
X159604421Y-104761187D01*
X159604424Y-104761189D01*
X159802426Y-104868342D01*
X160015365Y-104941444D01*
X160237431Y-104978500D01*
X160237434Y-104978500D01*
X160462566Y-104978500D01*
X160462569Y-104978500D01*
X160684635Y-104941444D01*
X160897574Y-104868342D01*
X161095576Y-104761189D01*
X161273240Y-104622906D01*
X161425722Y-104457268D01*
X161548860Y-104268791D01*
X161639296Y-104062616D01*
X161694564Y-103844368D01*
X161713156Y-103620000D01*
X161694564Y-103395632D01*
X161639296Y-103177384D01*
X161548860Y-102971209D01*
X161425722Y-102782732D01*
X161273240Y-102617094D01*
X161273239Y-102617093D01*
X161273237Y-102617091D01*
X161095578Y-102478812D01*
X161062317Y-102460812D01*
X161011927Y-102410798D01*
X160996576Y-102341481D01*
X161021138Y-102274868D01*
X161062315Y-102239188D01*
X161095576Y-102221189D01*
X161273240Y-102082906D01*
X161425722Y-101917268D01*
X161548860Y-101728791D01*
X161639296Y-101522616D01*
X161694564Y-101304368D01*
X161713156Y-101080000D01*
X161694564Y-100855632D01*
X161639296Y-100637384D01*
X161548860Y-100431209D01*
X161425722Y-100242732D01*
X161273240Y-100077094D01*
X161273239Y-100077093D01*
X161273237Y-100077091D01*
X161134235Y-99968901D01*
X161095576Y-99938811D01*
X161061792Y-99920528D01*
X161011402Y-99870516D01*
X160996050Y-99801199D01*
X161020611Y-99734586D01*
X161061793Y-99698901D01*
X161095300Y-99680768D01*
X161272903Y-99542533D01*
X161425321Y-99376962D01*
X161548419Y-99188548D01*
X161638822Y-98982451D01*
X161686544Y-98794000D01*
X160781116Y-98794000D01*
X160809493Y-98749844D01*
X160850000Y-98611889D01*
X160850000Y-98468111D01*
X160809493Y-98330156D01*
X160781116Y-98286000D01*
X161686544Y-98286000D01*
X161686544Y-98285999D01*
X161638822Y-98097548D01*
X161548419Y-97891451D01*
X161425321Y-97703037D01*
X161282018Y-97547367D01*
X161250597Y-97483702D01*
X161258584Y-97413156D01*
X161303443Y-97358127D01*
X161330679Y-97343977D01*
X161446204Y-97300889D01*
X161563261Y-97213261D01*
X161650889Y-97096204D01*
X161701989Y-96959201D01*
X161708500Y-96898638D01*
X161708500Y-95101362D01*
X161701989Y-95040799D01*
X161650889Y-94903796D01*
X161645602Y-94896733D01*
X161563261Y-94786738D01*
X161446203Y-94699110D01*
X161440462Y-94696969D01*
X161383628Y-94654419D01*
X161358821Y-94587898D01*
X161358500Y-94578915D01*
X161358500Y-71583115D01*
X161363926Y-71546538D01*
X161393909Y-71447700D01*
X161413380Y-71250000D01*
X161409107Y-71206613D01*
X161408500Y-71194262D01*
X161408500Y-68964010D01*
X161409107Y-68951659D01*
X161413380Y-68908272D01*
X161393909Y-68710574D01*
X161386703Y-68686819D01*
X161337134Y-68523415D01*
X161336403Y-68520773D01*
X161242593Y-68345266D01*
X161116571Y-68191708D01*
X161082857Y-68164040D01*
X161073695Y-68155735D01*
X158144258Y-65226298D01*
X158135953Y-65217135D01*
X158132189Y-65212549D01*
X158108294Y-65183432D01*
X157954730Y-65057405D01*
X157897867Y-65027011D01*
X157847219Y-64977258D01*
X157831510Y-64908022D01*
X157855726Y-64841283D01*
X157912180Y-64798231D01*
X157957214Y-64789889D01*
X163145028Y-64788001D01*
X163154937Y-64788388D01*
G37*
%TD.AperFunction*%
%TA.AperFunction,Conductor*%
G36*
X139280326Y-92007702D02*
G01*
X139326819Y-92061358D01*
X139336923Y-92131632D01*
X139307429Y-92196212D01*
X139301300Y-92202795D01*
X135740300Y-95763795D01*
X135677988Y-95797821D01*
X135651205Y-95800700D01*
X130092038Y-95800700D01*
X130023917Y-95780698D01*
X129986555Y-95743616D01*
X129890722Y-95596932D01*
X129738240Y-95431294D01*
X129738239Y-95431293D01*
X129738237Y-95431291D01*
X129589688Y-95315670D01*
X129560576Y-95293011D01*
X129526792Y-95274728D01*
X129476402Y-95224716D01*
X129461050Y-95155399D01*
X129485611Y-95088786D01*
X129526793Y-95053101D01*
X129560300Y-95034968D01*
X129737903Y-94896733D01*
X129890321Y-94731162D01*
X130013419Y-94542748D01*
X130103822Y-94336651D01*
X130151544Y-94148200D01*
X129246116Y-94148200D01*
X129274493Y-94104044D01*
X129315000Y-93966089D01*
X129315000Y-93822311D01*
X129274493Y-93684356D01*
X129246116Y-93640200D01*
X130151544Y-93640200D01*
X130151544Y-93640199D01*
X130103822Y-93451748D01*
X130013419Y-93245651D01*
X129890321Y-93057237D01*
X129747018Y-92901567D01*
X129715597Y-92837902D01*
X129723584Y-92767356D01*
X129768443Y-92712327D01*
X129795679Y-92698177D01*
X129911204Y-92655089D01*
X130028261Y-92567461D01*
X130115889Y-92450404D01*
X130166989Y-92313401D01*
X130173500Y-92252838D01*
X130173500Y-92113700D01*
X130193502Y-92045579D01*
X130247158Y-91999086D01*
X130299500Y-91987700D01*
X139212205Y-91987700D01*
X139280326Y-92007702D01*
G37*
%TD.AperFunction*%
%TA.AperFunction,Conductor*%
G36*
X152353524Y-85155211D02*
G01*
X152375782Y-85180897D01*
X152464678Y-85316962D01*
X152617096Y-85482533D01*
X152794702Y-85620769D01*
X152828207Y-85638902D01*
X152878597Y-85688915D01*
X152893949Y-85758232D01*
X152869388Y-85824845D01*
X152828207Y-85860528D01*
X152794423Y-85878811D01*
X152616762Y-86017091D01*
X152464278Y-86182731D01*
X152375483Y-86318643D01*
X152321479Y-86364731D01*
X152251131Y-86374306D01*
X152186774Y-86344328D01*
X152164517Y-86318643D01*
X152075721Y-86182731D01*
X151923237Y-86017091D01*
X151745579Y-85878813D01*
X151745577Y-85878812D01*
X151745576Y-85878811D01*
X151712317Y-85860812D01*
X151661929Y-85810801D01*
X151646576Y-85741484D01*
X151671136Y-85674871D01*
X151712316Y-85639187D01*
X151745576Y-85621189D01*
X151923240Y-85482906D01*
X152075722Y-85317268D01*
X152164817Y-85180896D01*
X152218819Y-85134809D01*
X152289167Y-85125234D01*
X152353524Y-85155211D01*
G37*
%TD.AperFunction*%
%TA.AperFunction,Conductor*%
G36*
X128809532Y-79975892D02*
G01*
X128866368Y-80018439D01*
X128891179Y-80084959D01*
X128891500Y-80093947D01*
X128891500Y-80234005D01*
X128891500Y-80234024D01*
X128891501Y-80237212D01*
X128901938Y-80339381D01*
X128956791Y-80504920D01*
X129009295Y-80590041D01*
X129047555Y-80652071D01*
X129048342Y-80653346D01*
X129056253Y-80661257D01*
X129090279Y-80723566D01*
X129085216Y-80794382D01*
X129056257Y-80839446D01*
X129048738Y-80846964D01*
X128957246Y-80995295D01*
X128902431Y-81160717D01*
X128892325Y-81259639D01*
X128892000Y-81266029D01*
X128892000Y-81358500D01*
X130858000Y-81358500D01*
X130858000Y-81266029D01*
X130857674Y-81259639D01*
X130847568Y-81160721D01*
X130810592Y-81049133D01*
X130808152Y-80978178D01*
X130844460Y-80917168D01*
X130907989Y-80885473D01*
X130930197Y-80883500D01*
X131316282Y-80883500D01*
X131384403Y-80903502D01*
X131430896Y-80957158D01*
X131441560Y-81022968D01*
X131437400Y-81061663D01*
X131437400Y-81438339D01*
X131437760Y-81441687D01*
X131443911Y-81498901D01*
X131495011Y-81635906D01*
X131582638Y-81752962D01*
X131700953Y-81841531D01*
X131725405Y-81865694D01*
X131792223Y-81952772D01*
X131792225Y-81952774D01*
X131795785Y-81957414D01*
X131795787Y-81957417D01*
X131816710Y-81984684D01*
X131816711Y-81984685D01*
X131816713Y-81984687D01*
X131842037Y-82004119D01*
X131842079Y-82004151D01*
X131854469Y-82015018D01*
X132366356Y-82526905D01*
X132400382Y-82589217D01*
X132395317Y-82660032D01*
X132352770Y-82716868D01*
X132286250Y-82741679D01*
X132277261Y-82742000D01*
X132154000Y-82742000D01*
X132154000Y-85083000D01*
X133047303Y-85083000D01*
X133053692Y-85082674D01*
X133154326Y-85072393D01*
X133228407Y-85047845D01*
X133299362Y-85045404D01*
X133360373Y-85081712D01*
X133392068Y-85145240D01*
X133392963Y-85151003D01*
X133396899Y-85180897D01*
X133404124Y-85235783D01*
X133404608Y-85239455D01*
X133407162Y-85258851D01*
X133468475Y-85406875D01*
X133468476Y-85406876D01*
X133541511Y-85502057D01*
X133541336Y-85501844D01*
X133541384Y-85501946D01*
X133541524Y-85502074D01*
X133566010Y-85533984D01*
X133566011Y-85533985D01*
X133566013Y-85533987D01*
X133591379Y-85553451D01*
X133603769Y-85564318D01*
X133835681Y-85796230D01*
X133846547Y-85808619D01*
X133860110Y-85826294D01*
X133885712Y-85892514D01*
X133871448Y-85962063D01*
X133821848Y-86012860D01*
X133760149Y-86029000D01*
X133514298Y-86029000D01*
X133448151Y-86010241D01*
X133322738Y-85932885D01*
X133154426Y-85877113D01*
X133154423Y-85877112D01*
X133154421Y-85877112D01*
X133053746Y-85866826D01*
X133053725Y-85866824D01*
X133050545Y-85866500D01*
X133047339Y-85866500D01*
X130752661Y-85866500D01*
X130752641Y-85866500D01*
X130749456Y-85866501D01*
X130746279Y-85866825D01*
X130746270Y-85866826D01*
X130645573Y-85877113D01*
X130481369Y-85931524D01*
X130477262Y-85932885D01*
X130354672Y-86008500D01*
X130351849Y-86010241D01*
X130285702Y-86029000D01*
X129264298Y-86029000D01*
X129198151Y-86010241D01*
X129072738Y-85932885D01*
X128904426Y-85877113D01*
X128904423Y-85877112D01*
X128904421Y-85877112D01*
X128803746Y-85866826D01*
X128803725Y-85866824D01*
X128800545Y-85866500D01*
X128797340Y-85866500D01*
X127462450Y-85866500D01*
X127394329Y-85846498D01*
X127373354Y-85829595D01*
X126841855Y-85298095D01*
X126807830Y-85235783D01*
X126812895Y-85164967D01*
X126855442Y-85108132D01*
X126921962Y-85083321D01*
X126930951Y-85083000D01*
X127396000Y-85083000D01*
X127396000Y-84166500D01*
X127904000Y-84166500D01*
X127904000Y-85083000D01*
X128797303Y-85083000D01*
X128803692Y-85082674D01*
X128904327Y-85072393D01*
X129072522Y-85016659D01*
X129223342Y-84923632D01*
X129348632Y-84798342D01*
X129441659Y-84647522D01*
X129497393Y-84479327D01*
X129507674Y-84378692D01*
X129508000Y-84372302D01*
X129508000Y-84166500D01*
X130042000Y-84166500D01*
X130042000Y-84372302D01*
X130042325Y-84378692D01*
X130052606Y-84479327D01*
X130108340Y-84647522D01*
X130201367Y-84798342D01*
X130326657Y-84923632D01*
X130477477Y-85016659D01*
X130645672Y-85072393D01*
X130746307Y-85082674D01*
X130752697Y-85083000D01*
X131646000Y-85083000D01*
X131646000Y-84166500D01*
X130042000Y-84166500D01*
X129508000Y-84166500D01*
X127904000Y-84166500D01*
X127396000Y-84166500D01*
X127396000Y-82742000D01*
X127904000Y-82742000D01*
X127904000Y-83658500D01*
X129508000Y-83658500D01*
X130042000Y-83658500D01*
X131646000Y-83658500D01*
X131646000Y-82742000D01*
X130752697Y-82742000D01*
X130746307Y-82742325D01*
X130645674Y-82752606D01*
X130642260Y-82753738D01*
X130571305Y-82756178D01*
X130510295Y-82719869D01*
X130478600Y-82656340D01*
X130486283Y-82585760D01*
X130530905Y-82530538D01*
X130536481Y-82526892D01*
X130578036Y-82501260D01*
X130701260Y-82378036D01*
X130792753Y-82229704D01*
X130847568Y-82064282D01*
X130857674Y-81965360D01*
X130858000Y-81958970D01*
X130858000Y-81866500D01*
X130129000Y-81866500D01*
X130129000Y-82658000D01*
X130158971Y-82658000D01*
X130165360Y-82657674D01*
X130264277Y-82647568D01*
X130264916Y-82647357D01*
X130267077Y-82647282D01*
X130278007Y-82646166D01*
X130278082Y-82646903D01*
X130335871Y-82644915D01*
X130396882Y-82681222D01*
X130428579Y-82744750D01*
X130420898Y-82815330D01*
X130376278Y-82870553D01*
X130370699Y-82874201D01*
X130326660Y-82901364D01*
X130201367Y-83026657D01*
X130108340Y-83177477D01*
X130052606Y-83345672D01*
X130042325Y-83446307D01*
X130042000Y-83452697D01*
X130042000Y-83658500D01*
X129508000Y-83658500D01*
X129508000Y-83452697D01*
X129507674Y-83446307D01*
X129497393Y-83345672D01*
X129441659Y-83177477D01*
X129348632Y-83026657D01*
X129223342Y-82901367D01*
X129072522Y-82808340D01*
X128904327Y-82752606D01*
X128803692Y-82742325D01*
X128797303Y-82742000D01*
X127904000Y-82742000D01*
X127396000Y-82742000D01*
X126502697Y-82742000D01*
X126493093Y-82742489D01*
X126497067Y-82742185D01*
X126427482Y-82729236D01*
X126375786Y-82680574D01*
X126358499Y-82616878D01*
X126358500Y-82374946D01*
X126378501Y-82306829D01*
X126395399Y-82285860D01*
X126814759Y-81866500D01*
X128892000Y-81866500D01*
X128892000Y-81958970D01*
X128892325Y-81965360D01*
X128902431Y-82064282D01*
X128957246Y-82229704D01*
X129048739Y-82378036D01*
X129171963Y-82501260D01*
X129320295Y-82592753D01*
X129485717Y-82647568D01*
X129584639Y-82657674D01*
X129591029Y-82658000D01*
X129621000Y-82658000D01*
X129621000Y-81866500D01*
X128892000Y-81866500D01*
X126814759Y-81866500D01*
X128676407Y-80004851D01*
X128738717Y-79970828D01*
X128809532Y-79975892D01*
G37*
%TD.AperFunction*%
%TA.AperFunction,Conductor*%
G36*
X137550637Y-75749367D02*
G01*
X137590120Y-75808372D01*
X137595212Y-75832931D01*
X137606458Y-75939929D01*
X137665472Y-76121556D01*
X137760958Y-76286942D01*
X137823850Y-76356791D01*
X137888747Y-76428866D01*
X138043248Y-76541118D01*
X138217712Y-76618794D01*
X138404513Y-76658500D01*
X138404515Y-76658500D01*
X138595485Y-76658500D01*
X138595487Y-76658500D01*
X138782288Y-76618794D01*
X138943086Y-76547202D01*
X139013449Y-76537769D01*
X139077746Y-76567875D01*
X139087961Y-76577993D01*
X139088747Y-76578866D01*
X139088750Y-76578868D01*
X139092316Y-76582829D01*
X139123028Y-76646839D01*
X139114259Y-76717292D01*
X139074183Y-76768000D01*
X138987839Y-76832637D01*
X138900211Y-76949694D01*
X138869369Y-77032386D01*
X138849111Y-77086699D01*
X138842600Y-77147262D01*
X138842600Y-79352738D01*
X138845363Y-79378443D01*
X138849111Y-79413300D01*
X138900211Y-79550305D01*
X138987838Y-79667361D01*
X139104894Y-79754988D01*
X139104895Y-79754988D01*
X139104896Y-79754989D01*
X139241899Y-79806089D01*
X139302462Y-79812600D01*
X139721900Y-79812600D01*
X139790021Y-79832602D01*
X139836514Y-79886258D01*
X139847900Y-79938600D01*
X139847900Y-83042585D01*
X139827898Y-83110706D01*
X139774242Y-83157199D01*
X139703968Y-83167303D01*
X139655753Y-83149826D01*
X139574111Y-83099469D01*
X139504920Y-83056791D01*
X139339381Y-83001938D01*
X139339378Y-83001937D01*
X139240414Y-82991826D01*
X139240393Y-82991824D01*
X139237213Y-82991500D01*
X139234007Y-82991500D01*
X138540993Y-82991500D01*
X138540973Y-82991500D01*
X138537788Y-82991501D01*
X138534611Y-82991825D01*
X138534602Y-82991826D01*
X138435618Y-83001938D01*
X138270080Y-83056791D01*
X138121650Y-83148344D01*
X137998344Y-83271650D01*
X137906791Y-83420080D01*
X137851937Y-83585621D01*
X137841826Y-83684585D01*
X137841825Y-83684602D01*
X137841500Y-83687787D01*
X137841500Y-83690991D01*
X137841500Y-83690992D01*
X137841500Y-84259006D01*
X137841500Y-84259025D01*
X137841501Y-84262212D01*
X137841825Y-84265389D01*
X137841826Y-84265397D01*
X137843714Y-84283879D01*
X137851938Y-84364381D01*
X137906791Y-84529920D01*
X137987237Y-84660342D01*
X137998344Y-84678349D01*
X138121650Y-84801655D01*
X138121652Y-84801656D01*
X138121654Y-84801658D01*
X138236588Y-84872551D01*
X138284064Y-84925334D01*
X138295467Y-84995408D01*
X138267175Y-85060524D01*
X138236587Y-85087029D01*
X138096651Y-85173343D01*
X137973343Y-85296651D01*
X137951757Y-85331648D01*
X137898971Y-85379125D01*
X137844517Y-85391500D01*
X137554239Y-85391500D01*
X137486118Y-85371498D01*
X137465144Y-85354595D01*
X137114315Y-85003766D01*
X137103448Y-84991375D01*
X137083986Y-84966011D01*
X137060117Y-84947695D01*
X137060102Y-84947685D01*
X137052074Y-84941525D01*
X137052072Y-84941523D01*
X137040022Y-84932277D01*
X136998155Y-84874941D01*
X136993932Y-84804070D01*
X137009483Y-84766172D01*
X137067115Y-84672738D01*
X137122887Y-84504426D01*
X137133500Y-84400545D01*
X137133499Y-83499456D01*
X137122887Y-83395574D01*
X137067115Y-83227262D01*
X136974030Y-83076348D01*
X136974028Y-83076346D01*
X136974027Y-83076344D01*
X136848655Y-82950972D01*
X136835578Y-82942906D01*
X136697738Y-82857885D01*
X136697734Y-82857883D01*
X136685473Y-82850321D01*
X136637995Y-82797535D01*
X136626592Y-82727460D01*
X136654884Y-82662345D01*
X136711988Y-82623475D01*
X136804706Y-82592751D01*
X136953036Y-82501260D01*
X137076260Y-82378036D01*
X137167753Y-82229704D01*
X137222568Y-82064282D01*
X137232674Y-81965360D01*
X137233000Y-81958970D01*
X137233000Y-81866500D01*
X135677169Y-81866500D01*
X135628951Y-81856909D01*
X135589553Y-81840590D01*
X135508851Y-81807162D01*
X135508850Y-81807161D01*
X135508848Y-81807161D01*
X135489454Y-81804607D01*
X135389895Y-81791501D01*
X135389875Y-81791499D01*
X135350000Y-81786249D01*
X135322961Y-81789809D01*
X135318307Y-81790422D01*
X135301864Y-81791500D01*
X134627896Y-81791500D01*
X134559775Y-81771498D01*
X134513282Y-81717842D01*
X134503178Y-81647568D01*
X134509840Y-81621468D01*
X134555594Y-81498794D01*
X134558580Y-81471030D01*
X134585750Y-81405438D01*
X134644068Y-81364948D01*
X134683858Y-81358500D01*
X136901864Y-81358500D01*
X136918307Y-81359577D01*
X136950000Y-81363750D01*
X136981692Y-81359577D01*
X136998136Y-81358500D01*
X137233001Y-81358500D01*
X137234446Y-81357054D01*
X137253002Y-81293859D01*
X137282291Y-81262021D01*
X137352072Y-81208477D01*
X137352072Y-81208475D01*
X137368630Y-81195771D01*
X137368632Y-81195769D01*
X137369546Y-81195067D01*
X137383987Y-81183987D01*
X137403455Y-81158615D01*
X137414304Y-81146244D01*
X137846239Y-80714308D01*
X137858624Y-80703448D01*
X137861959Y-80700889D01*
X137883987Y-80683987D01*
X137901256Y-80661481D01*
X137908475Y-80652072D01*
X137908478Y-80652071D01*
X137981524Y-80556876D01*
X138009450Y-80489454D01*
X138051801Y-80435733D01*
X138061253Y-80428866D01*
X138189040Y-80286944D01*
X138284527Y-80121556D01*
X138343542Y-79939928D01*
X138363504Y-79750000D01*
X138343542Y-79560072D01*
X138295853Y-79413301D01*
X138284527Y-79378443D01*
X138189041Y-79213057D01*
X138061252Y-79071133D01*
X137920264Y-78968699D01*
X137906752Y-78958882D01*
X137732288Y-78881206D01*
X137545487Y-78841500D01*
X137354513Y-78841500D01*
X137167712Y-78881206D01*
X137167711Y-78881206D01*
X137167708Y-78881207D01*
X136993692Y-78958683D01*
X136923325Y-78968117D01*
X136876298Y-78950817D01*
X136804922Y-78906792D01*
X136804921Y-78906791D01*
X136804920Y-78906791D01*
X136639381Y-78851938D01*
X136639378Y-78851937D01*
X136540414Y-78841826D01*
X136540393Y-78841824D01*
X136537213Y-78841500D01*
X136534007Y-78841500D01*
X135965993Y-78841500D01*
X135965973Y-78841500D01*
X135962788Y-78841501D01*
X135959611Y-78841825D01*
X135959602Y-78841826D01*
X135860618Y-78851938D01*
X135695080Y-78906791D01*
X135546653Y-78998342D01*
X135508596Y-79036400D01*
X135465400Y-79079595D01*
X135403091Y-79113619D01*
X135376307Y-79116499D01*
X134207989Y-79116499D01*
X134163956Y-79108554D01*
X134163303Y-79108310D01*
X134119147Y-79103563D01*
X134102738Y-79101799D01*
X134099369Y-79101799D01*
X133719691Y-79101799D01*
X133651570Y-79081797D01*
X133611238Y-79039940D01*
X133609145Y-79036402D01*
X133609145Y-79036400D01*
X133598224Y-79017935D01*
X133589531Y-79000189D01*
X133581635Y-78980244D01*
X133554473Y-78942860D01*
X133547964Y-78932950D01*
X133524453Y-78893193D01*
X133509288Y-78878028D01*
X133496447Y-78862994D01*
X133483841Y-78845643D01*
X133448246Y-78816196D01*
X133439467Y-78808207D01*
X132807227Y-78175967D01*
X132773201Y-78113655D01*
X132778266Y-78042840D01*
X132807226Y-77997777D01*
X132826658Y-77978346D01*
X132832821Y-77968353D01*
X132885605Y-77920876D01*
X132940062Y-77908500D01*
X133120761Y-77908500D01*
X133188882Y-77928502D01*
X133235375Y-77982158D01*
X133240365Y-77994867D01*
X133257883Y-78047734D01*
X133257884Y-78047736D01*
X133257885Y-78047738D01*
X133336315Y-78174893D01*
X133350972Y-78198655D01*
X133476344Y-78324027D01*
X133476346Y-78324028D01*
X133476348Y-78324030D01*
X133627262Y-78417115D01*
X133795574Y-78472887D01*
X133871637Y-78480658D01*
X133896253Y-78483173D01*
X133896255Y-78483173D01*
X133899455Y-78483500D01*
X134700544Y-78483499D01*
X134804426Y-78472887D01*
X134972738Y-78417115D01*
X135123652Y-78324030D01*
X135153755Y-78293927D01*
X135211259Y-78236424D01*
X135273571Y-78202398D01*
X135344386Y-78207463D01*
X135389449Y-78236424D01*
X135476657Y-78323632D01*
X135627477Y-78416659D01*
X135795672Y-78472393D01*
X135896307Y-78482674D01*
X135902697Y-78483000D01*
X136046000Y-78483000D01*
X136046000Y-77529000D01*
X136554000Y-77529000D01*
X136554000Y-78483000D01*
X136697303Y-78483000D01*
X136703692Y-78482674D01*
X136804327Y-78472393D01*
X136972522Y-78416659D01*
X137123342Y-78323632D01*
X137248632Y-78198342D01*
X137341659Y-78047522D01*
X137397393Y-77879327D01*
X137407674Y-77778692D01*
X137408000Y-77772302D01*
X137408000Y-77529000D01*
X136554000Y-77529000D01*
X136046000Y-77529000D01*
X136046000Y-77147000D01*
X136066002Y-77078879D01*
X136119658Y-77032386D01*
X136172000Y-77021000D01*
X137408000Y-77021000D01*
X137408000Y-76777697D01*
X137407674Y-76771307D01*
X137397393Y-76670672D01*
X137341659Y-76502477D01*
X137248632Y-76351657D01*
X137135993Y-76239018D01*
X137101967Y-76176706D01*
X137107032Y-76105891D01*
X137140276Y-76061481D01*
X137138239Y-76059444D01*
X137274028Y-75923654D01*
X137274030Y-75923652D01*
X137362663Y-75779954D01*
X137415446Y-75732478D01*
X137485521Y-75721075D01*
X137550637Y-75749367D01*
G37*
%TD.AperFunction*%
%TD*%
M02*
