%TF.GenerationSoftware,KiCad,Pcbnew,7.0.2-0*%
%TF.CreationDate,2023-05-05T21:51:11-04:00*%
%TF.ProjectId,Pi_HAT_V4,50695f48-4154-45f5-9634-2e6b69636164,rev?*%
%TF.SameCoordinates,Original*%
%TF.FileFunction,Copper,L2,Bot*%
%TF.FilePolarity,Positive*%
%FSLAX46Y46*%
G04 Gerber Fmt 4.6, Leading zero omitted, Abs format (unit mm)*
G04 Created by KiCad (PCBNEW 7.0.2-0) date 2023-05-05 21:51:11*
%MOMM*%
%LPD*%
G01*
G04 APERTURE LIST*
G04 Aperture macros list*
%AMRoundRect*
0 Rectangle with rounded corners*
0 $1 Rounding radius*
0 $2 $3 $4 $5 $6 $7 $8 $9 X,Y pos of 4 corners*
0 Add a 4 corners polygon primitive as box body*
4,1,4,$2,$3,$4,$5,$6,$7,$8,$9,$2,$3,0*
0 Add four circle primitives for the rounded corners*
1,1,$1+$1,$2,$3*
1,1,$1+$1,$4,$5*
1,1,$1+$1,$6,$7*
1,1,$1+$1,$8,$9*
0 Add four rect primitives between the rounded corners*
20,1,$1+$1,$2,$3,$4,$5,0*
20,1,$1+$1,$4,$5,$6,$7,0*
20,1,$1+$1,$6,$7,$8,$9,0*
20,1,$1+$1,$8,$9,$2,$3,0*%
G04 Aperture macros list end*
%TA.AperFunction,ComponentPad*%
%ADD10R,1.700000X1.700000*%
%TD*%
%TA.AperFunction,ComponentPad*%
%ADD11O,1.700000X1.700000*%
%TD*%
%TA.AperFunction,ComponentPad*%
%ADD12R,3.716000X3.716000*%
%TD*%
%TA.AperFunction,ComponentPad*%
%ADD13C,3.716000*%
%TD*%
%TA.AperFunction,ComponentPad*%
%ADD14O,1.200000X2.400000*%
%TD*%
%TA.AperFunction,ComponentPad*%
%ADD15C,3.000000*%
%TD*%
%TA.AperFunction,SMDPad,CuDef*%
%ADD16RoundRect,0.250000X0.412500X1.100000X-0.412500X1.100000X-0.412500X-1.100000X0.412500X-1.100000X0*%
%TD*%
%TA.AperFunction,SMDPad,CuDef*%
%ADD17RoundRect,0.237500X-0.300000X-0.237500X0.300000X-0.237500X0.300000X0.237500X-0.300000X0.237500X0*%
%TD*%
%TA.AperFunction,SMDPad,CuDef*%
%ADD18RoundRect,0.237500X-0.237500X0.300000X-0.237500X-0.300000X0.237500X-0.300000X0.237500X0.300000X0*%
%TD*%
%TA.AperFunction,SMDPad,CuDef*%
%ADD19RoundRect,0.250000X1.100000X-0.412500X1.100000X0.412500X-1.100000X0.412500X-1.100000X-0.412500X0*%
%TD*%
%TA.AperFunction,SMDPad,CuDef*%
%ADD20RoundRect,0.250000X0.625000X-0.400000X0.625000X0.400000X-0.625000X0.400000X-0.625000X-0.400000X0*%
%TD*%
%TA.AperFunction,SMDPad,CuDef*%
%ADD21RoundRect,0.237500X0.300000X0.237500X-0.300000X0.237500X-0.300000X-0.237500X0.300000X-0.237500X0*%
%TD*%
%TA.AperFunction,SMDPad,CuDef*%
%ADD22RoundRect,0.250000X0.350000X0.450000X-0.350000X0.450000X-0.350000X-0.450000X0.350000X-0.450000X0*%
%TD*%
%TA.AperFunction,SMDPad,CuDef*%
%ADD23R,2.260600X2.108200*%
%TD*%
%TA.AperFunction,SMDPad,CuDef*%
%ADD24RoundRect,0.250000X-0.350000X-0.450000X0.350000X-0.450000X0.350000X0.450000X-0.350000X0.450000X0*%
%TD*%
%TA.AperFunction,SMDPad,CuDef*%
%ADD25R,0.609600X0.279400*%
%TD*%
%TA.AperFunction,SMDPad,CuDef*%
%ADD26RoundRect,0.237500X-0.250000X-0.237500X0.250000X-0.237500X0.250000X0.237500X-0.250000X0.237500X0*%
%TD*%
%TA.AperFunction,SMDPad,CuDef*%
%ADD27RoundRect,0.250000X-0.412500X-1.100000X0.412500X-1.100000X0.412500X1.100000X-0.412500X1.100000X0*%
%TD*%
%TA.AperFunction,ViaPad*%
%ADD28C,0.800000*%
%TD*%
%TA.AperFunction,Conductor*%
%ADD29C,1.000000*%
%TD*%
%TA.AperFunction,Conductor*%
%ADD30C,0.250000*%
%TD*%
%TA.AperFunction,Conductor*%
%ADD31C,0.200000*%
%TD*%
%TA.AperFunction,Conductor*%
%ADD32C,0.300000*%
%TD*%
G04 APERTURE END LIST*
D10*
%TO.P,J3,1,Pin_1*%
%TO.N,/3.3V*%
X137475000Y-70525000D03*
D11*
%TO.P,J3,2,Pin_2*%
%TO.N,/5V*%
X137475000Y-67985000D03*
%TO.P,J3,3,Pin_3*%
%TO.N,/SDA*%
X140015000Y-70525000D03*
%TO.P,J3,4,Pin_4*%
%TO.N,/5V*%
X140015000Y-67985000D03*
%TO.P,J3,5,Pin_5*%
%TO.N,/SCL*%
X142555000Y-70525000D03*
%TO.P,J3,6,Pin_6*%
%TO.N,GND*%
X142555000Y-67985000D03*
%TD*%
D10*
%TO.P,J1,1,Pin_1*%
%TO.N,/3.3V*%
X129900000Y-113950000D03*
D11*
%TO.P,J1,2,Pin_2*%
%TO.N,unconnected-(J1-Pin_2-Pad2)*%
X129900000Y-116490000D03*
%TO.P,J1,3,Pin_3*%
%TO.N,GND*%
X129900000Y-119030000D03*
%TO.P,J1,4,Pin_4*%
%TO.N,/SCL*%
X129900000Y-121570000D03*
%TO.P,J1,5,Pin_5*%
%TO.N,/SDA*%
X129900000Y-124110000D03*
%TO.P,J1,6,Pin_6*%
%TO.N,unconnected-(J1-Pin_6-Pad6)*%
X129900000Y-126650000D03*
%TD*%
D10*
%TO.P,J2,1,Pin_1*%
%TO.N,/3.3V*%
X151000000Y-79400000D03*
D11*
%TO.P,J2,2,Pin_2*%
%TO.N,/5V*%
X153540000Y-79400000D03*
%TO.P,J2,3,Pin_3*%
%TO.N,/SDA*%
X151000000Y-81940000D03*
%TO.P,J2,4,Pin_4*%
%TO.N,/5V*%
X153540000Y-81940000D03*
%TO.P,J2,5,Pin_5*%
%TO.N,/SCL*%
X151000000Y-84480000D03*
%TO.P,J2,6,Pin_6*%
%TO.N,GND*%
X153540000Y-84480000D03*
%TO.P,J2,7,Pin_7*%
%TO.N,unconnected-(J2-Pin_7-Pad7)*%
X151000000Y-87020000D03*
%TO.P,J2,8,Pin_8*%
%TO.N,unconnected-(J2-Pin_8-Pad8)*%
X153540000Y-87020000D03*
%TO.P,J2,9,Pin_9*%
%TO.N,unconnected-(J2-Pin_9-Pad9)*%
X151000000Y-89560000D03*
%TO.P,J2,10,Pin_10*%
%TO.N,unconnected-(J2-Pin_10-Pad10)*%
X153540000Y-89560000D03*
%TO.P,J2,11,Pin_11*%
%TO.N,unconnected-(J2-Pin_11-Pad11)*%
X151000000Y-92100000D03*
%TO.P,J2,12,Pin_12*%
%TO.N,unconnected-(J2-Pin_12-Pad12)*%
X153540000Y-92100000D03*
%TO.P,J2,13,Pin_13*%
%TO.N,unconnected-(J2-Pin_13-Pad13)*%
X151000000Y-94640000D03*
%TO.P,J2,14,Pin_14*%
%TO.N,unconnected-(J2-Pin_14-Pad14)*%
X153540000Y-94640000D03*
%TO.P,J2,15,Pin_15*%
%TO.N,unconnected-(J2-Pin_15-Pad15)*%
X151000000Y-97180000D03*
%TO.P,J2,16,Pin_16*%
%TO.N,unconnected-(J2-Pin_16-Pad16)*%
X153540000Y-97180000D03*
%TO.P,J2,17,Pin_17*%
%TO.N,unconnected-(J2-Pin_17-Pad17)*%
X151000000Y-99720000D03*
%TO.P,J2,18,Pin_18*%
%TO.N,unconnected-(J2-Pin_18-Pad18)*%
X153540000Y-99720000D03*
%TO.P,J2,19,Pin_19*%
%TO.N,unconnected-(J2-Pin_19-Pad19)*%
X151000000Y-102260000D03*
%TO.P,J2,20,Pin_20*%
%TO.N,unconnected-(J2-Pin_20-Pad20)*%
X153540000Y-102260000D03*
%TO.P,J2,21,Pin_21*%
%TO.N,unconnected-(J2-Pin_21-Pad21)*%
X151000000Y-104800000D03*
%TO.P,J2,22,Pin_22*%
%TO.N,unconnected-(J2-Pin_22-Pad22)*%
X153540000Y-104800000D03*
%TO.P,J2,23,Pin_23*%
%TO.N,unconnected-(J2-Pin_23-Pad23)*%
X151000000Y-107340000D03*
%TO.P,J2,24,Pin_24*%
%TO.N,unconnected-(J2-Pin_24-Pad24)*%
X153540000Y-107340000D03*
%TO.P,J2,25,Pin_25*%
%TO.N,unconnected-(J2-Pin_25-Pad25)*%
X151000000Y-109880000D03*
%TO.P,J2,26,Pin_26*%
%TO.N,unconnected-(J2-Pin_26-Pad26)*%
X153540000Y-109880000D03*
%TO.P,J2,27,Pin_27*%
%TO.N,unconnected-(J2-Pin_27-Pad27)*%
X151000000Y-112420000D03*
%TO.P,J2,28,Pin_28*%
%TO.N,unconnected-(J2-Pin_28-Pad28)*%
X153540000Y-112420000D03*
%TO.P,J2,29,Pin_29*%
%TO.N,unconnected-(J2-Pin_29-Pad29)*%
X151000000Y-114960000D03*
%TO.P,J2,30,Pin_30*%
%TO.N,unconnected-(J2-Pin_30-Pad30)*%
X153540000Y-114960000D03*
%TO.P,J2,31,Pin_31*%
%TO.N,unconnected-(J2-Pin_31-Pad31)*%
X151000000Y-117500000D03*
%TO.P,J2,32,Pin_32*%
%TO.N,unconnected-(J2-Pin_32-Pad32)*%
X153540000Y-117500000D03*
%TO.P,J2,33,Pin_33*%
%TO.N,unconnected-(J2-Pin_33-Pad33)*%
X151000000Y-120040000D03*
%TO.P,J2,34,Pin_34*%
%TO.N,unconnected-(J2-Pin_34-Pad34)*%
X153540000Y-120040000D03*
%TO.P,J2,35,Pin_35*%
%TO.N,unconnected-(J2-Pin_35-Pad35)*%
X151000000Y-122580000D03*
%TO.P,J2,36,Pin_36*%
%TO.N,unconnected-(J2-Pin_36-Pad36)*%
X153540000Y-122580000D03*
%TO.P,J2,37,Pin_37*%
%TO.N,unconnected-(J2-Pin_37-Pad37)*%
X151000000Y-125120000D03*
%TO.P,J2,38,Pin_38*%
%TO.N,unconnected-(J2-Pin_38-Pad38)*%
X153540000Y-125120000D03*
%TO.P,J2,39,Pin_39*%
%TO.N,unconnected-(J2-Pin_39-Pad39)*%
X151000000Y-127660000D03*
%TO.P,J2,40,Pin_40*%
%TO.N,unconnected-(J2-Pin_40-Pad40)*%
X153540000Y-127660000D03*
%TD*%
D10*
%TO.P,J4,1,Pin_1*%
%TO.N,/Buck Converter/12V*%
X96550000Y-96000000D03*
D11*
%TO.P,J4,2,Pin_2*%
%TO.N,GND*%
X96550000Y-98540000D03*
%TO.P,J4,3,Pin_3*%
%TO.N,/SCL*%
X96550000Y-101080000D03*
%TO.P,J4,4,Pin_4*%
%TO.N,/SDA*%
X96550000Y-103620000D03*
%TD*%
D12*
%TO.P,J5,1,+*%
%TO.N,/Buck Converter/12V*%
X120100000Y-82000000D03*
D13*
%TO.P,J5,2,-*%
%TO.N,GND*%
X112900000Y-82000000D03*
D14*
%TO.P,J5,S1*%
%TO.N,N/C*%
X123250000Y-76000000D03*
%TO.P,J5,S2*%
X109750000Y-76000000D03*
%TD*%
D12*
%TO.P,J8,1,+*%
%TO.N,/Buck Converter/12V*%
X113800000Y-119100000D03*
D13*
%TO.P,J8,2,-*%
%TO.N,GND*%
X121000000Y-119100000D03*
D14*
%TO.P,J8,S1*%
%TO.N,N/C*%
X110650000Y-125100000D03*
%TO.P,J8,S2*%
X124150000Y-125100000D03*
%TD*%
D15*
%TO.P,L2,1,1*%
%TO.N,Net-(C5-Pad1)*%
X101800000Y-99850000D03*
%TO.P,L2,2,2*%
%TO.N,/5V*%
X125600000Y-99850000D03*
%TD*%
D10*
%TO.P,J6,1,Pin_1*%
%TO.N,/Buck Converter/12V*%
X160350000Y-96000000D03*
D11*
%TO.P,J6,2,Pin_2*%
%TO.N,GND*%
X160350000Y-98540000D03*
%TO.P,J6,3,Pin_3*%
%TO.N,/SCL*%
X160350000Y-101080000D03*
%TO.P,J6,4,Pin_4*%
%TO.N,/SDA*%
X160350000Y-103620000D03*
%TD*%
D16*
%TO.P,C7,1*%
%TO.N,/5V*%
X115062500Y-102750000D03*
%TO.P,C7,2*%
%TO.N,GND*%
X111937500Y-102750000D03*
%TD*%
D17*
%TO.P,C9,1*%
%TO.N,Net-(C5-Pad1)*%
X130212500Y-77275000D03*
%TO.P,C9,2*%
%TO.N,Net-(C9-Pad2)*%
X131937500Y-77275000D03*
%TD*%
D18*
%TO.P,C3,1*%
%TO.N,Net-(U1-PG)*%
X136250000Y-79887500D03*
%TO.P,C3,2*%
%TO.N,GND*%
X136250000Y-81612500D03*
%TD*%
D16*
%TO.P,C6,1*%
%TO.N,/5V*%
X115062500Y-98850000D03*
%TO.P,C6,2*%
%TO.N,GND*%
X111937500Y-98850000D03*
%TD*%
D19*
%TO.P,C1,1*%
%TO.N,/Buck Converter/12V*%
X131900000Y-87037500D03*
%TO.P,C1,2*%
%TO.N,GND*%
X131900000Y-83912500D03*
%TD*%
%TO.P,C2,1*%
%TO.N,/Buck Converter/12V*%
X127650000Y-87037500D03*
%TO.P,C2,2*%
%TO.N,GND*%
X127650000Y-83912500D03*
%TD*%
D20*
%TO.P,R2,1*%
%TO.N,/Buck Converter/12V*%
X135750000Y-87050000D03*
%TO.P,R2,2*%
%TO.N,Net-(U1-EN{slash}SYNC)*%
X135750000Y-83950000D03*
%TD*%
D21*
%TO.P,C4,1*%
%TO.N,Net-(U1-SW)*%
X140612500Y-83975000D03*
%TO.P,C4,2*%
%TO.N,Net-(C4-Pad2)*%
X138887500Y-83975000D03*
%TD*%
D22*
%TO.P,R5,1*%
%TO.N,GND*%
X136300000Y-77275000D03*
%TO.P,R5,2*%
%TO.N,Net-(C9-Pad2)*%
X134300000Y-77275000D03*
%TD*%
D23*
%TO.P,L1,2,2*%
%TO.N,Net-(C5-Pad1)*%
X146018600Y-78250000D03*
%TO.P,L1,1,1*%
%TO.N,Net-(U1-SW)*%
X140481400Y-78250000D03*
%TD*%
D24*
%TO.P,R14,1*%
%TO.N,Net-(C5-Pad1)*%
X130050000Y-75000000D03*
%TO.P,R14,2*%
%TO.N,Net-(C9-Pad2)*%
X132050000Y-75000000D03*
%TD*%
D25*
%TO.P,U1,1,PG*%
%TO.N,Net-(U1-PG)*%
X133749300Y-79749999D03*
%TO.P,U1,2,IN*%
%TO.N,/Buck Converter/12V*%
X133749300Y-80250000D03*
%TO.P,U1,3,SW*%
%TO.N,Net-(U1-SW)*%
X133749300Y-80750000D03*
%TO.P,U1,4,GND*%
%TO.N,GND*%
X133749300Y-81250001D03*
%TO.P,U1,5,BST*%
%TO.N,Net-(U1-BST)*%
X132250700Y-81250001D03*
%TO.P,U1,6,EN/SYNC*%
%TO.N,Net-(U1-EN{slash}SYNC)*%
X132250700Y-80750000D03*
%TO.P,U1,7,SS*%
%TO.N,Net-(U1-SS)*%
X132250700Y-80250000D03*
%TO.P,U1,8,FB*%
%TO.N,Net-(U1-FB)*%
X132250700Y-79749999D03*
%TD*%
D18*
%TO.P,C8,1*%
%TO.N,Net-(U1-SS)*%
X129875000Y-79887500D03*
%TO.P,C8,2*%
%TO.N,GND*%
X129875000Y-81612500D03*
%TD*%
D26*
%TO.P,R4,1*%
%TO.N,Net-(U1-BST)*%
X138812500Y-86000000D03*
%TO.P,R4,2*%
%TO.N,Net-(C4-Pad2)*%
X140637500Y-86000000D03*
%TD*%
D27*
%TO.P,C5,1*%
%TO.N,Net-(C5-Pad1)*%
X111937500Y-93200000D03*
%TO.P,C5,2*%
%TO.N,GND*%
X115062500Y-93200000D03*
%TD*%
D22*
%TO.P,R3,1*%
%TO.N,Net-(U1-FB)*%
X136325000Y-75000000D03*
%TO.P,R3,2*%
%TO.N,Net-(C9-Pad2)*%
X134325000Y-75000000D03*
%TD*%
D28*
%TO.N,/3.3V*%
X131900000Y-101600000D03*
%TO.N,GND*%
X135300000Y-76200000D03*
X138300000Y-82000000D03*
X131700000Y-82300000D03*
%TO.N,Net-(U1-SW)*%
X139700000Y-75900000D03*
X137450000Y-79750000D03*
%TO.N,Net-(C5-Pad1)*%
X125400000Y-77900000D03*
X112800000Y-88230500D03*
%TO.N,Net-(U1-FB)*%
X131150000Y-79450000D03*
X138500000Y-75750000D03*
%TD*%
D29*
%TO.N,/Buck Converter/12V*%
X97270000Y-96000000D02*
X98958400Y-97688400D01*
X98958400Y-97688400D02*
X98958400Y-104258400D01*
X98958400Y-104258400D02*
X113800000Y-119100000D01*
X96550000Y-96000000D02*
X97270000Y-96000000D01*
D30*
%TO.N,GND*%
X112900000Y-82000000D02*
X115062500Y-84162500D01*
X115062500Y-84162500D02*
X115062500Y-93200000D01*
X157050000Y-66725000D02*
X143815000Y-66725000D01*
X143815000Y-66725000D02*
X142555000Y-67985000D01*
X158720000Y-84480000D02*
X159525000Y-83675000D01*
X159525000Y-69200000D02*
X157050000Y-66725000D01*
X153540000Y-84480000D02*
X158720000Y-84480000D01*
X159525000Y-83675000D02*
X159525000Y-69200000D01*
D29*
%TO.N,/Buck Converter/12V*%
X120100000Y-82000000D02*
X120100000Y-84082800D01*
X120100000Y-84082800D02*
X123054700Y-87037500D01*
X123054700Y-87037500D02*
X127650000Y-87037500D01*
D30*
%TO.N,/3.3V*%
X149600000Y-82463604D02*
X149600000Y-80800000D01*
X131950000Y-102350000D02*
X141313604Y-102350000D01*
X146850000Y-85213604D02*
X149600000Y-82463604D01*
D31*
X142702022Y-72150000D02*
X149952022Y-79400000D01*
D30*
X131900000Y-101600000D02*
X131900000Y-102300000D01*
X131900000Y-102300000D02*
X131950000Y-102350000D01*
X149600000Y-80800000D02*
X151000000Y-79400000D01*
D31*
X139100000Y-72150000D02*
X142702022Y-72150000D01*
D30*
X141313604Y-102350000D02*
X146850000Y-96813604D01*
X146850000Y-96813604D02*
X146850000Y-85213604D01*
D31*
X137475000Y-70525000D02*
X139100000Y-72150000D01*
X149952022Y-79400000D02*
X151000000Y-79400000D01*
D30*
%TO.N,Net-(U1-SS)*%
X130237500Y-80250000D02*
X129875000Y-79887500D01*
X132250700Y-80250000D02*
X130237500Y-80250000D01*
%TO.N,GND*%
X138300000Y-82000000D02*
X137912500Y-81612500D01*
X138300000Y-78000000D02*
X137575000Y-77275000D01*
X134750001Y-81250001D02*
X133749300Y-81250001D01*
X135112500Y-81612500D02*
X134750001Y-81250001D01*
X137912500Y-81612500D02*
X137387500Y-81612500D01*
X129875000Y-81612500D02*
X129875000Y-81887500D01*
X136250000Y-81612500D02*
X135112500Y-81612500D01*
X135300000Y-76200000D02*
X135300000Y-76275000D01*
X131900000Y-83912500D02*
X131900000Y-82500000D01*
X111937500Y-98850000D02*
X111937500Y-102750000D01*
X137575000Y-77275000D02*
X136300000Y-77275000D01*
X129875000Y-81887500D02*
X131900000Y-83912500D01*
X115062500Y-95725000D02*
X111937500Y-98850000D01*
X129875000Y-81687500D02*
X127650000Y-83912500D01*
X138300000Y-80700000D02*
X138300000Y-78000000D01*
X115062500Y-93200000D02*
X115062500Y-95725000D01*
X129875000Y-81612500D02*
X129875000Y-81687500D01*
X135300000Y-76275000D02*
X136300000Y-77275000D01*
X131900000Y-82500000D02*
X131700000Y-82300000D01*
X136250000Y-81612500D02*
X137387500Y-81612500D01*
X137387500Y-81612500D02*
X138300000Y-80700000D01*
D32*
%TO.N,/Buck Converter/12V*%
X133000000Y-80000000D02*
X133000000Y-79300000D01*
X129250000Y-78500000D02*
X125700000Y-82050000D01*
X133749300Y-80250000D02*
X133250000Y-80250000D01*
D30*
X135737500Y-87037500D02*
X135750000Y-87050000D01*
D32*
X133250000Y-80250000D02*
X133000000Y-80000000D01*
X133000000Y-79300000D02*
X132200000Y-78500000D01*
X132200000Y-78500000D02*
X129250000Y-78500000D01*
D29*
X131900000Y-87037500D02*
X135737500Y-87037500D01*
D32*
X125700000Y-85087500D02*
X127650000Y-87037500D01*
X125700000Y-82050000D02*
X125700000Y-85087500D01*
D29*
X127650000Y-87037500D02*
X131900000Y-87037500D01*
D30*
%TO.N,/5V*%
X127050000Y-102800000D02*
X141500000Y-102800000D01*
X147300000Y-85400000D02*
X149400000Y-83300000D01*
X148150000Y-73350000D02*
X148150000Y-75750000D01*
X153540000Y-78540000D02*
X153540000Y-79400000D01*
X140015000Y-67985000D02*
X141330000Y-69300000D01*
X141330000Y-69300000D02*
X144100000Y-69300000D01*
X125550000Y-99850000D02*
X124550000Y-98850000D01*
X141500000Y-102800000D02*
X147300000Y-97000000D01*
X125600000Y-99850000D02*
X125550000Y-99850000D01*
X125600000Y-101350000D02*
X125600000Y-99850000D01*
X150200000Y-77800000D02*
X152800000Y-77800000D01*
X144100000Y-69300000D02*
X148150000Y-73350000D01*
X147300000Y-97000000D02*
X147300000Y-85400000D01*
X152700000Y-83300000D02*
X153540000Y-82460000D01*
X115062500Y-98850000D02*
X115062500Y-102750000D01*
X124550000Y-98850000D02*
X115062500Y-98850000D01*
X153540000Y-79400000D02*
X153540000Y-81940000D01*
X127050000Y-102800000D02*
X125600000Y-101350000D01*
X149400000Y-83300000D02*
X152700000Y-83300000D01*
X148150000Y-75750000D02*
X150200000Y-77800000D01*
X153540000Y-82460000D02*
X153540000Y-81940000D01*
X137475000Y-67985000D02*
X140015000Y-67985000D01*
X152800000Y-77800000D02*
X153540000Y-78540000D01*
%TO.N,Net-(U1-PG)*%
X136250000Y-79887500D02*
X136112499Y-79749999D01*
X136112499Y-79749999D02*
X133749300Y-79749999D01*
D31*
%TO.N,Net-(U1-SW)*%
X139700000Y-75900000D02*
X140481400Y-76681400D01*
X137400000Y-80300000D02*
X137450000Y-80250000D01*
X133749300Y-80750000D02*
X136950000Y-80750000D01*
D30*
X140481400Y-78250000D02*
X140481400Y-83843900D01*
D31*
X140481400Y-76681400D02*
X140481400Y-78250000D01*
X137450000Y-80250000D02*
X137450000Y-79750000D01*
D30*
X140481400Y-83843900D02*
X140612500Y-83975000D01*
D31*
X136950000Y-80750000D02*
X137400000Y-80300000D01*
D30*
%TO.N,Net-(C4-Pad2)*%
X138887500Y-83975000D02*
X138887500Y-84250000D01*
X138887500Y-84250000D02*
X140637500Y-86000000D01*
%TO.N,Net-(C5-Pad1)*%
X111937500Y-89093000D02*
X111937500Y-93200000D01*
X140700000Y-72900000D02*
X131300000Y-72900000D01*
X131300000Y-72900000D02*
X130050000Y-74150000D01*
X128300000Y-75000000D02*
X130050000Y-75000000D01*
X130050000Y-75000000D02*
X130050000Y-77112500D01*
X101800000Y-99850000D02*
X105287500Y-99850000D01*
X130050000Y-77112500D02*
X130212500Y-77275000D01*
X130050000Y-74150000D02*
X130050000Y-75000000D01*
X112800000Y-88230500D02*
X111937500Y-89093000D01*
X105287500Y-99850000D02*
X111937500Y-93200000D01*
X146018600Y-78218600D02*
X140700000Y-72900000D01*
X125400000Y-77900000D02*
X128300000Y-75000000D01*
X146018600Y-78250000D02*
X146018600Y-78218600D01*
D31*
%TO.N,Net-(U1-EN{slash}SYNC)*%
X133050000Y-81650000D02*
X133800000Y-82400000D01*
X132794221Y-80750000D02*
X133050000Y-81005779D01*
X132250700Y-80750000D02*
X132794221Y-80750000D01*
X133050000Y-81005779D02*
X133050000Y-81650000D01*
X135750000Y-82800000D02*
X135750000Y-83950000D01*
X133800000Y-82400000D02*
X135350000Y-82400000D01*
X135350000Y-82400000D02*
X135750000Y-82800000D01*
D30*
%TO.N,Net-(U1-FB)*%
X131950701Y-79450000D02*
X132250700Y-79749999D01*
X136525000Y-74800000D02*
X136325000Y-75000000D01*
X137550000Y-74800000D02*
X136525000Y-74800000D01*
X131150000Y-79450000D02*
X131950701Y-79450000D01*
X138500000Y-75750000D02*
X137550000Y-74800000D01*
%TO.N,Net-(C9-Pad2)*%
X132050000Y-75000000D02*
X134325000Y-75000000D01*
X134325000Y-77250000D02*
X134300000Y-77275000D01*
X134325000Y-75000000D02*
X134325000Y-77250000D01*
X131937500Y-77275000D02*
X131937500Y-75112500D01*
X134300000Y-77275000D02*
X131937500Y-77275000D01*
X131937500Y-75112500D02*
X132050000Y-75000000D01*
D31*
%TO.N,Net-(U1-BST)*%
X134300000Y-85400000D02*
X134000000Y-85100000D01*
X134000000Y-83300000D02*
X132250700Y-81550700D01*
X138812500Y-86000000D02*
X137250000Y-86000000D01*
X137250000Y-86000000D02*
X136650000Y-85400000D01*
X134000000Y-85100000D02*
X134000000Y-83300000D01*
X132250700Y-81550700D02*
X132250700Y-81250001D01*
X136650000Y-85400000D02*
X134300000Y-85400000D01*
D29*
%TO.N,/Buck Converter/12V*%
X160400000Y-68908274D02*
X160400000Y-71250000D01*
X120100000Y-75500000D02*
X129700000Y-65900000D01*
X157391726Y-65900000D02*
X160400000Y-68908274D01*
X129700000Y-65900000D02*
X157391726Y-65900000D01*
X160350000Y-71300000D02*
X160350000Y-96000000D01*
X160400000Y-71250000D02*
X160350000Y-71300000D01*
X120100000Y-82000000D02*
X120100000Y-75500000D01*
%TD*%
M02*
