%TF.GenerationSoftware,KiCad,Pcbnew,7.0.2-0*%
%TF.CreationDate,2023-05-05T21:51:03-04:00*%
%TF.ProjectId,Pi_HAT_V4,50695f48-4154-45f5-9634-2e6b69636164,rev?*%
%TF.SameCoordinates,Original*%
%TF.FileFunction,Drillmap*%
%TF.FilePolarity,Positive*%
%FSLAX45Y45*%
G04 Gerber Fmt 4.5, Leading zero omitted, Abs format (unit mm)*
G04 Created by KiCad (PCBNEW 7.0.2-0) date 2023-05-05 21:51:03*
%MOMM*%
%LPD*%
G01*
G04 APERTURE LIST*
%ADD10C,0.100000*%
%ADD11C,0.200000*%
%ADD12C,0.250000*%
G04 APERTURE END LIST*
D10*
X9446066Y-6476250D02*
X16315000Y-6473750D01*
X9446066Y-6476246D02*
G75*
G03*
X9296066Y-6626250I4J-150004D01*
G01*
X9310000Y-13450000D02*
X9296066Y-6626250D01*
X16316434Y-13598934D02*
G75*
G03*
X16466434Y-13448934I-4J150004D01*
G01*
X16465000Y-6623750D02*
X16466434Y-13448934D01*
X9310000Y-13450000D02*
G75*
G03*
X9460000Y-13600000I150000J0D01*
G01*
X16465000Y-6623750D02*
G75*
G03*
X16315000Y-6473750I-150000J0D01*
G01*
X16316434Y-13598934D02*
X9460000Y-13600000D01*
D11*
D12*
X10125000Y-7325000D02*
X10375000Y-7575000D01*
X10375000Y-7325000D02*
X10125000Y-7575000D01*
X10125000Y-13125000D02*
X10375000Y-13375000D01*
X10375000Y-13125000D02*
X10125000Y-13375000D01*
X15125000Y-7325000D02*
X15375000Y-7575000D01*
X15375000Y-7325000D02*
X15125000Y-7575000D01*
X15125000Y-13125000D02*
X15375000Y-13375000D01*
X15375000Y-13125000D02*
X15125000Y-13375000D01*
D11*
X9538685Y-13917524D02*
X9538685Y-13717524D01*
X9538685Y-13717524D02*
X9586304Y-13717524D01*
X9586304Y-13717524D02*
X9614876Y-13727048D01*
X9614876Y-13727048D02*
X9633923Y-13746095D01*
X9633923Y-13746095D02*
X9643447Y-13765143D01*
X9643447Y-13765143D02*
X9652971Y-13803238D01*
X9652971Y-13803238D02*
X9652971Y-13831809D01*
X9652971Y-13831809D02*
X9643447Y-13869905D01*
X9643447Y-13869905D02*
X9633923Y-13888952D01*
X9633923Y-13888952D02*
X9614876Y-13908000D01*
X9614876Y-13908000D02*
X9586304Y-13917524D01*
X9586304Y-13917524D02*
X9538685Y-13917524D01*
X9738685Y-13917524D02*
X9738685Y-13784190D01*
X9738685Y-13822286D02*
X9748209Y-13803238D01*
X9748209Y-13803238D02*
X9757733Y-13793714D01*
X9757733Y-13793714D02*
X9776780Y-13784190D01*
X9776780Y-13784190D02*
X9795828Y-13784190D01*
X9862495Y-13917524D02*
X9862495Y-13784190D01*
X9862495Y-13717524D02*
X9852971Y-13727048D01*
X9852971Y-13727048D02*
X9862495Y-13736571D01*
X9862495Y-13736571D02*
X9872018Y-13727048D01*
X9872018Y-13727048D02*
X9862495Y-13717524D01*
X9862495Y-13717524D02*
X9862495Y-13736571D01*
X9986304Y-13917524D02*
X9967256Y-13908000D01*
X9967256Y-13908000D02*
X9957733Y-13888952D01*
X9957733Y-13888952D02*
X9957733Y-13717524D01*
X10091066Y-13917524D02*
X10072018Y-13908000D01*
X10072018Y-13908000D02*
X10062495Y-13888952D01*
X10062495Y-13888952D02*
X10062495Y-13717524D01*
X10319637Y-13917524D02*
X10319637Y-13717524D01*
X10319637Y-13717524D02*
X10386304Y-13860381D01*
X10386304Y-13860381D02*
X10452971Y-13717524D01*
X10452971Y-13717524D02*
X10452971Y-13917524D01*
X10633923Y-13917524D02*
X10633923Y-13812762D01*
X10633923Y-13812762D02*
X10624399Y-13793714D01*
X10624399Y-13793714D02*
X10605352Y-13784190D01*
X10605352Y-13784190D02*
X10567256Y-13784190D01*
X10567256Y-13784190D02*
X10548209Y-13793714D01*
X10633923Y-13908000D02*
X10614876Y-13917524D01*
X10614876Y-13917524D02*
X10567256Y-13917524D01*
X10567256Y-13917524D02*
X10548209Y-13908000D01*
X10548209Y-13908000D02*
X10538685Y-13888952D01*
X10538685Y-13888952D02*
X10538685Y-13869905D01*
X10538685Y-13869905D02*
X10548209Y-13850857D01*
X10548209Y-13850857D02*
X10567256Y-13841333D01*
X10567256Y-13841333D02*
X10614876Y-13841333D01*
X10614876Y-13841333D02*
X10633923Y-13831809D01*
X10729161Y-13784190D02*
X10729161Y-13984190D01*
X10729161Y-13793714D02*
X10748209Y-13784190D01*
X10748209Y-13784190D02*
X10786304Y-13784190D01*
X10786304Y-13784190D02*
X10805352Y-13793714D01*
X10805352Y-13793714D02*
X10814876Y-13803238D01*
X10814876Y-13803238D02*
X10824399Y-13822286D01*
X10824399Y-13822286D02*
X10824399Y-13879428D01*
X10824399Y-13879428D02*
X10814876Y-13898476D01*
X10814876Y-13898476D02*
X10805352Y-13908000D01*
X10805352Y-13908000D02*
X10786304Y-13917524D01*
X10786304Y-13917524D02*
X10748209Y-13917524D01*
X10748209Y-13917524D02*
X10729161Y-13908000D01*
X10910114Y-13898476D02*
X10919637Y-13908000D01*
X10919637Y-13908000D02*
X10910114Y-13917524D01*
X10910114Y-13917524D02*
X10900590Y-13908000D01*
X10900590Y-13908000D02*
X10910114Y-13898476D01*
X10910114Y-13898476D02*
X10910114Y-13917524D01*
X10910114Y-13793714D02*
X10919637Y-13803238D01*
X10919637Y-13803238D02*
X10910114Y-13812762D01*
X10910114Y-13812762D02*
X10900590Y-13803238D01*
X10900590Y-13803238D02*
X10910114Y-13793714D01*
X10910114Y-13793714D02*
X10910114Y-13812762D01*
X9091066Y-14145000D02*
X9291066Y-14345000D01*
X9291066Y-14145000D02*
X9091066Y-14345000D01*
X9529161Y-14156571D02*
X9538685Y-14147048D01*
X9538685Y-14147048D02*
X9557733Y-14137524D01*
X9557733Y-14137524D02*
X9605352Y-14137524D01*
X9605352Y-14137524D02*
X9624399Y-14147048D01*
X9624399Y-14147048D02*
X9633923Y-14156571D01*
X9633923Y-14156571D02*
X9643447Y-14175619D01*
X9643447Y-14175619D02*
X9643447Y-14194667D01*
X9643447Y-14194667D02*
X9633923Y-14223238D01*
X9633923Y-14223238D02*
X9519637Y-14337524D01*
X9519637Y-14337524D02*
X9643447Y-14337524D01*
X9729161Y-14318476D02*
X9738685Y-14328000D01*
X9738685Y-14328000D02*
X9729161Y-14337524D01*
X9729161Y-14337524D02*
X9719637Y-14328000D01*
X9719637Y-14328000D02*
X9729161Y-14318476D01*
X9729161Y-14318476D02*
X9729161Y-14337524D01*
X9919637Y-14137524D02*
X9824399Y-14137524D01*
X9824399Y-14137524D02*
X9814876Y-14232762D01*
X9814876Y-14232762D02*
X9824399Y-14223238D01*
X9824399Y-14223238D02*
X9843447Y-14213714D01*
X9843447Y-14213714D02*
X9891066Y-14213714D01*
X9891066Y-14213714D02*
X9910114Y-14223238D01*
X9910114Y-14223238D02*
X9919637Y-14232762D01*
X9919637Y-14232762D02*
X9929161Y-14251809D01*
X9929161Y-14251809D02*
X9929161Y-14299428D01*
X9929161Y-14299428D02*
X9919637Y-14318476D01*
X9919637Y-14318476D02*
X9910114Y-14328000D01*
X9910114Y-14328000D02*
X9891066Y-14337524D01*
X9891066Y-14337524D02*
X9843447Y-14337524D01*
X9843447Y-14337524D02*
X9824399Y-14328000D01*
X9824399Y-14328000D02*
X9814876Y-14318476D01*
X10052971Y-14137524D02*
X10072018Y-14137524D01*
X10072018Y-14137524D02*
X10091066Y-14147048D01*
X10091066Y-14147048D02*
X10100590Y-14156571D01*
X10100590Y-14156571D02*
X10110114Y-14175619D01*
X10110114Y-14175619D02*
X10119637Y-14213714D01*
X10119637Y-14213714D02*
X10119637Y-14261333D01*
X10119637Y-14261333D02*
X10110114Y-14299428D01*
X10110114Y-14299428D02*
X10100590Y-14318476D01*
X10100590Y-14318476D02*
X10091066Y-14328000D01*
X10091066Y-14328000D02*
X10072018Y-14337524D01*
X10072018Y-14337524D02*
X10052971Y-14337524D01*
X10052971Y-14337524D02*
X10033923Y-14328000D01*
X10033923Y-14328000D02*
X10024399Y-14318476D01*
X10024399Y-14318476D02*
X10014876Y-14299428D01*
X10014876Y-14299428D02*
X10005352Y-14261333D01*
X10005352Y-14261333D02*
X10005352Y-14213714D01*
X10005352Y-14213714D02*
X10014876Y-14175619D01*
X10014876Y-14175619D02*
X10024399Y-14156571D01*
X10024399Y-14156571D02*
X10033923Y-14147048D01*
X10033923Y-14147048D02*
X10052971Y-14137524D01*
X10243447Y-14137524D02*
X10262495Y-14137524D01*
X10262495Y-14137524D02*
X10281542Y-14147048D01*
X10281542Y-14147048D02*
X10291066Y-14156571D01*
X10291066Y-14156571D02*
X10300590Y-14175619D01*
X10300590Y-14175619D02*
X10310114Y-14213714D01*
X10310114Y-14213714D02*
X10310114Y-14261333D01*
X10310114Y-14261333D02*
X10300590Y-14299428D01*
X10300590Y-14299428D02*
X10291066Y-14318476D01*
X10291066Y-14318476D02*
X10281542Y-14328000D01*
X10281542Y-14328000D02*
X10262495Y-14337524D01*
X10262495Y-14337524D02*
X10243447Y-14337524D01*
X10243447Y-14337524D02*
X10224399Y-14328000D01*
X10224399Y-14328000D02*
X10214876Y-14318476D01*
X10214876Y-14318476D02*
X10205352Y-14299428D01*
X10205352Y-14299428D02*
X10195828Y-14261333D01*
X10195828Y-14261333D02*
X10195828Y-14213714D01*
X10195828Y-14213714D02*
X10205352Y-14175619D01*
X10205352Y-14175619D02*
X10214876Y-14156571D01*
X10214876Y-14156571D02*
X10224399Y-14147048D01*
X10224399Y-14147048D02*
X10243447Y-14137524D01*
X10395828Y-14337524D02*
X10395828Y-14204190D01*
X10395828Y-14223238D02*
X10405352Y-14213714D01*
X10405352Y-14213714D02*
X10424399Y-14204190D01*
X10424399Y-14204190D02*
X10452971Y-14204190D01*
X10452971Y-14204190D02*
X10472018Y-14213714D01*
X10472018Y-14213714D02*
X10481542Y-14232762D01*
X10481542Y-14232762D02*
X10481542Y-14337524D01*
X10481542Y-14232762D02*
X10491066Y-14213714D01*
X10491066Y-14213714D02*
X10510114Y-14204190D01*
X10510114Y-14204190D02*
X10538685Y-14204190D01*
X10538685Y-14204190D02*
X10557733Y-14213714D01*
X10557733Y-14213714D02*
X10567257Y-14232762D01*
X10567257Y-14232762D02*
X10567257Y-14337524D01*
X10662495Y-14337524D02*
X10662495Y-14204190D01*
X10662495Y-14223238D02*
X10672018Y-14213714D01*
X10672018Y-14213714D02*
X10691066Y-14204190D01*
X10691066Y-14204190D02*
X10719638Y-14204190D01*
X10719638Y-14204190D02*
X10738685Y-14213714D01*
X10738685Y-14213714D02*
X10748209Y-14232762D01*
X10748209Y-14232762D02*
X10748209Y-14337524D01*
X10748209Y-14232762D02*
X10757733Y-14213714D01*
X10757733Y-14213714D02*
X10776780Y-14204190D01*
X10776780Y-14204190D02*
X10805352Y-14204190D01*
X10805352Y-14204190D02*
X10824399Y-14213714D01*
X10824399Y-14213714D02*
X10833923Y-14232762D01*
X10833923Y-14232762D02*
X10833923Y-14337524D01*
X11224399Y-14128000D02*
X11052971Y-14385143D01*
X11481542Y-14137524D02*
X11500590Y-14137524D01*
X11500590Y-14137524D02*
X11519638Y-14147048D01*
X11519638Y-14147048D02*
X11529161Y-14156571D01*
X11529161Y-14156571D02*
X11538685Y-14175619D01*
X11538685Y-14175619D02*
X11548209Y-14213714D01*
X11548209Y-14213714D02*
X11548209Y-14261333D01*
X11548209Y-14261333D02*
X11538685Y-14299428D01*
X11538685Y-14299428D02*
X11529161Y-14318476D01*
X11529161Y-14318476D02*
X11519638Y-14328000D01*
X11519638Y-14328000D02*
X11500590Y-14337524D01*
X11500590Y-14337524D02*
X11481542Y-14337524D01*
X11481542Y-14337524D02*
X11462495Y-14328000D01*
X11462495Y-14328000D02*
X11452971Y-14318476D01*
X11452971Y-14318476D02*
X11443447Y-14299428D01*
X11443447Y-14299428D02*
X11433923Y-14261333D01*
X11433923Y-14261333D02*
X11433923Y-14213714D01*
X11433923Y-14213714D02*
X11443447Y-14175619D01*
X11443447Y-14175619D02*
X11452971Y-14156571D01*
X11452971Y-14156571D02*
X11462495Y-14147048D01*
X11462495Y-14147048D02*
X11481542Y-14137524D01*
X11633923Y-14318476D02*
X11643447Y-14328000D01*
X11643447Y-14328000D02*
X11633923Y-14337524D01*
X11633923Y-14337524D02*
X11624399Y-14328000D01*
X11624399Y-14328000D02*
X11633923Y-14318476D01*
X11633923Y-14318476D02*
X11633923Y-14337524D01*
X11767257Y-14137524D02*
X11786304Y-14137524D01*
X11786304Y-14137524D02*
X11805352Y-14147048D01*
X11805352Y-14147048D02*
X11814876Y-14156571D01*
X11814876Y-14156571D02*
X11824399Y-14175619D01*
X11824399Y-14175619D02*
X11833923Y-14213714D01*
X11833923Y-14213714D02*
X11833923Y-14261333D01*
X11833923Y-14261333D02*
X11824399Y-14299428D01*
X11824399Y-14299428D02*
X11814876Y-14318476D01*
X11814876Y-14318476D02*
X11805352Y-14328000D01*
X11805352Y-14328000D02*
X11786304Y-14337524D01*
X11786304Y-14337524D02*
X11767257Y-14337524D01*
X11767257Y-14337524D02*
X11748209Y-14328000D01*
X11748209Y-14328000D02*
X11738685Y-14318476D01*
X11738685Y-14318476D02*
X11729161Y-14299428D01*
X11729161Y-14299428D02*
X11719638Y-14261333D01*
X11719638Y-14261333D02*
X11719638Y-14213714D01*
X11719638Y-14213714D02*
X11729161Y-14175619D01*
X11729161Y-14175619D02*
X11738685Y-14156571D01*
X11738685Y-14156571D02*
X11748209Y-14147048D01*
X11748209Y-14147048D02*
X11767257Y-14137524D01*
X11929161Y-14337524D02*
X11967257Y-14337524D01*
X11967257Y-14337524D02*
X11986304Y-14328000D01*
X11986304Y-14328000D02*
X11995828Y-14318476D01*
X11995828Y-14318476D02*
X12014876Y-14289905D01*
X12014876Y-14289905D02*
X12024399Y-14251809D01*
X12024399Y-14251809D02*
X12024399Y-14175619D01*
X12024399Y-14175619D02*
X12014876Y-14156571D01*
X12014876Y-14156571D02*
X12005352Y-14147048D01*
X12005352Y-14147048D02*
X11986304Y-14137524D01*
X11986304Y-14137524D02*
X11948209Y-14137524D01*
X11948209Y-14137524D02*
X11929161Y-14147048D01*
X11929161Y-14147048D02*
X11919638Y-14156571D01*
X11919638Y-14156571D02*
X11910114Y-14175619D01*
X11910114Y-14175619D02*
X11910114Y-14223238D01*
X11910114Y-14223238D02*
X11919638Y-14242286D01*
X11919638Y-14242286D02*
X11929161Y-14251809D01*
X11929161Y-14251809D02*
X11948209Y-14261333D01*
X11948209Y-14261333D02*
X11986304Y-14261333D01*
X11986304Y-14261333D02*
X12005352Y-14251809D01*
X12005352Y-14251809D02*
X12014876Y-14242286D01*
X12014876Y-14242286D02*
X12024399Y-14223238D01*
X12138685Y-14223238D02*
X12119638Y-14213714D01*
X12119638Y-14213714D02*
X12110114Y-14204190D01*
X12110114Y-14204190D02*
X12100590Y-14185143D01*
X12100590Y-14185143D02*
X12100590Y-14175619D01*
X12100590Y-14175619D02*
X12110114Y-14156571D01*
X12110114Y-14156571D02*
X12119638Y-14147048D01*
X12119638Y-14147048D02*
X12138685Y-14137524D01*
X12138685Y-14137524D02*
X12176780Y-14137524D01*
X12176780Y-14137524D02*
X12195828Y-14147048D01*
X12195828Y-14147048D02*
X12205352Y-14156571D01*
X12205352Y-14156571D02*
X12214876Y-14175619D01*
X12214876Y-14175619D02*
X12214876Y-14185143D01*
X12214876Y-14185143D02*
X12205352Y-14204190D01*
X12205352Y-14204190D02*
X12195828Y-14213714D01*
X12195828Y-14213714D02*
X12176780Y-14223238D01*
X12176780Y-14223238D02*
X12138685Y-14223238D01*
X12138685Y-14223238D02*
X12119638Y-14232762D01*
X12119638Y-14232762D02*
X12110114Y-14242286D01*
X12110114Y-14242286D02*
X12100590Y-14261333D01*
X12100590Y-14261333D02*
X12100590Y-14299428D01*
X12100590Y-14299428D02*
X12110114Y-14318476D01*
X12110114Y-14318476D02*
X12119638Y-14328000D01*
X12119638Y-14328000D02*
X12138685Y-14337524D01*
X12138685Y-14337524D02*
X12176780Y-14337524D01*
X12176780Y-14337524D02*
X12195828Y-14328000D01*
X12195828Y-14328000D02*
X12205352Y-14318476D01*
X12205352Y-14318476D02*
X12214876Y-14299428D01*
X12214876Y-14299428D02*
X12214876Y-14261333D01*
X12214876Y-14261333D02*
X12205352Y-14242286D01*
X12205352Y-14242286D02*
X12195828Y-14232762D01*
X12195828Y-14232762D02*
X12176780Y-14223238D01*
X12386304Y-14204190D02*
X12386304Y-14337524D01*
X12338685Y-14128000D02*
X12291066Y-14270857D01*
X12291066Y-14270857D02*
X12414876Y-14270857D01*
X12481542Y-14137524D02*
X12481542Y-14175619D01*
X12557733Y-14137524D02*
X12557733Y-14175619D01*
X12852971Y-14413714D02*
X12843447Y-14404190D01*
X12843447Y-14404190D02*
X12824400Y-14375619D01*
X12824400Y-14375619D02*
X12814876Y-14356571D01*
X12814876Y-14356571D02*
X12805352Y-14328000D01*
X12805352Y-14328000D02*
X12795828Y-14280381D01*
X12795828Y-14280381D02*
X12795828Y-14242286D01*
X12795828Y-14242286D02*
X12805352Y-14194667D01*
X12805352Y-14194667D02*
X12814876Y-14166095D01*
X12814876Y-14166095D02*
X12824400Y-14147048D01*
X12824400Y-14147048D02*
X12843447Y-14118476D01*
X12843447Y-14118476D02*
X12852971Y-14108952D01*
X13014876Y-14204190D02*
X13014876Y-14337524D01*
X12967257Y-14128000D02*
X12919638Y-14270857D01*
X12919638Y-14270857D02*
X13043447Y-14270857D01*
X13272019Y-14337524D02*
X13272019Y-14137524D01*
X13357733Y-14337524D02*
X13357733Y-14232762D01*
X13357733Y-14232762D02*
X13348209Y-14213714D01*
X13348209Y-14213714D02*
X13329162Y-14204190D01*
X13329162Y-14204190D02*
X13300590Y-14204190D01*
X13300590Y-14204190D02*
X13281542Y-14213714D01*
X13281542Y-14213714D02*
X13272019Y-14223238D01*
X13481542Y-14337524D02*
X13462495Y-14328000D01*
X13462495Y-14328000D02*
X13452971Y-14318476D01*
X13452971Y-14318476D02*
X13443447Y-14299428D01*
X13443447Y-14299428D02*
X13443447Y-14242286D01*
X13443447Y-14242286D02*
X13452971Y-14223238D01*
X13452971Y-14223238D02*
X13462495Y-14213714D01*
X13462495Y-14213714D02*
X13481542Y-14204190D01*
X13481542Y-14204190D02*
X13510114Y-14204190D01*
X13510114Y-14204190D02*
X13529162Y-14213714D01*
X13529162Y-14213714D02*
X13538685Y-14223238D01*
X13538685Y-14223238D02*
X13548209Y-14242286D01*
X13548209Y-14242286D02*
X13548209Y-14299428D01*
X13548209Y-14299428D02*
X13538685Y-14318476D01*
X13538685Y-14318476D02*
X13529162Y-14328000D01*
X13529162Y-14328000D02*
X13510114Y-14337524D01*
X13510114Y-14337524D02*
X13481542Y-14337524D01*
X13662495Y-14337524D02*
X13643447Y-14328000D01*
X13643447Y-14328000D02*
X13633923Y-14308952D01*
X13633923Y-14308952D02*
X13633923Y-14137524D01*
X13814876Y-14328000D02*
X13795828Y-14337524D01*
X13795828Y-14337524D02*
X13757733Y-14337524D01*
X13757733Y-14337524D02*
X13738685Y-14328000D01*
X13738685Y-14328000D02*
X13729162Y-14308952D01*
X13729162Y-14308952D02*
X13729162Y-14232762D01*
X13729162Y-14232762D02*
X13738685Y-14213714D01*
X13738685Y-14213714D02*
X13757733Y-14204190D01*
X13757733Y-14204190D02*
X13795828Y-14204190D01*
X13795828Y-14204190D02*
X13814876Y-14213714D01*
X13814876Y-14213714D02*
X13824400Y-14232762D01*
X13824400Y-14232762D02*
X13824400Y-14251809D01*
X13824400Y-14251809D02*
X13729162Y-14270857D01*
X13900590Y-14328000D02*
X13919638Y-14337524D01*
X13919638Y-14337524D02*
X13957733Y-14337524D01*
X13957733Y-14337524D02*
X13976781Y-14328000D01*
X13976781Y-14328000D02*
X13986304Y-14308952D01*
X13986304Y-14308952D02*
X13986304Y-14299428D01*
X13986304Y-14299428D02*
X13976781Y-14280381D01*
X13976781Y-14280381D02*
X13957733Y-14270857D01*
X13957733Y-14270857D02*
X13929162Y-14270857D01*
X13929162Y-14270857D02*
X13910114Y-14261333D01*
X13910114Y-14261333D02*
X13900590Y-14242286D01*
X13900590Y-14242286D02*
X13900590Y-14232762D01*
X13900590Y-14232762D02*
X13910114Y-14213714D01*
X13910114Y-14213714D02*
X13929162Y-14204190D01*
X13929162Y-14204190D02*
X13957733Y-14204190D01*
X13957733Y-14204190D02*
X13976781Y-14213714D01*
X14052971Y-14413714D02*
X14062495Y-14404190D01*
X14062495Y-14404190D02*
X14081543Y-14375619D01*
X14081543Y-14375619D02*
X14091066Y-14356571D01*
X14091066Y-14356571D02*
X14100590Y-14328000D01*
X14100590Y-14328000D02*
X14110114Y-14280381D01*
X14110114Y-14280381D02*
X14110114Y-14242286D01*
X14110114Y-14242286D02*
X14100590Y-14194667D01*
X14100590Y-14194667D02*
X14091066Y-14166095D01*
X14091066Y-14166095D02*
X14081543Y-14147048D01*
X14081543Y-14147048D02*
X14062495Y-14118476D01*
X14062495Y-14118476D02*
X14052971Y-14108952D01*
X14414876Y-14413714D02*
X14405352Y-14404190D01*
X14405352Y-14404190D02*
X14386304Y-14375619D01*
X14386304Y-14375619D02*
X14376781Y-14356571D01*
X14376781Y-14356571D02*
X14367257Y-14328000D01*
X14367257Y-14328000D02*
X14357733Y-14280381D01*
X14357733Y-14280381D02*
X14357733Y-14242286D01*
X14357733Y-14242286D02*
X14367257Y-14194667D01*
X14367257Y-14194667D02*
X14376781Y-14166095D01*
X14376781Y-14166095D02*
X14386304Y-14147048D01*
X14386304Y-14147048D02*
X14405352Y-14118476D01*
X14405352Y-14118476D02*
X14414876Y-14108952D01*
X14491066Y-14204190D02*
X14491066Y-14337524D01*
X14491066Y-14223238D02*
X14500590Y-14213714D01*
X14500590Y-14213714D02*
X14519638Y-14204190D01*
X14519638Y-14204190D02*
X14548209Y-14204190D01*
X14548209Y-14204190D02*
X14567257Y-14213714D01*
X14567257Y-14213714D02*
X14576781Y-14232762D01*
X14576781Y-14232762D02*
X14576781Y-14337524D01*
X14700590Y-14337524D02*
X14681543Y-14328000D01*
X14681543Y-14328000D02*
X14672019Y-14318476D01*
X14672019Y-14318476D02*
X14662495Y-14299428D01*
X14662495Y-14299428D02*
X14662495Y-14242286D01*
X14662495Y-14242286D02*
X14672019Y-14223238D01*
X14672019Y-14223238D02*
X14681543Y-14213714D01*
X14681543Y-14213714D02*
X14700590Y-14204190D01*
X14700590Y-14204190D02*
X14729162Y-14204190D01*
X14729162Y-14204190D02*
X14748209Y-14213714D01*
X14748209Y-14213714D02*
X14757733Y-14223238D01*
X14757733Y-14223238D02*
X14767257Y-14242286D01*
X14767257Y-14242286D02*
X14767257Y-14299428D01*
X14767257Y-14299428D02*
X14757733Y-14318476D01*
X14757733Y-14318476D02*
X14748209Y-14328000D01*
X14748209Y-14328000D02*
X14729162Y-14337524D01*
X14729162Y-14337524D02*
X14700590Y-14337524D01*
X14824400Y-14204190D02*
X14900590Y-14204190D01*
X14852971Y-14137524D02*
X14852971Y-14308952D01*
X14852971Y-14308952D02*
X14862495Y-14328000D01*
X14862495Y-14328000D02*
X14881543Y-14337524D01*
X14881543Y-14337524D02*
X14900590Y-14337524D01*
X15119638Y-14204190D02*
X15119638Y-14404190D01*
X15119638Y-14213714D02*
X15138685Y-14204190D01*
X15138685Y-14204190D02*
X15176781Y-14204190D01*
X15176781Y-14204190D02*
X15195828Y-14213714D01*
X15195828Y-14213714D02*
X15205352Y-14223238D01*
X15205352Y-14223238D02*
X15214876Y-14242286D01*
X15214876Y-14242286D02*
X15214876Y-14299428D01*
X15214876Y-14299428D02*
X15205352Y-14318476D01*
X15205352Y-14318476D02*
X15195828Y-14328000D01*
X15195828Y-14328000D02*
X15176781Y-14337524D01*
X15176781Y-14337524D02*
X15138685Y-14337524D01*
X15138685Y-14337524D02*
X15119638Y-14328000D01*
X15329162Y-14337524D02*
X15310114Y-14328000D01*
X15310114Y-14328000D02*
X15300590Y-14308952D01*
X15300590Y-14308952D02*
X15300590Y-14137524D01*
X15491066Y-14337524D02*
X15491066Y-14232762D01*
X15491066Y-14232762D02*
X15481543Y-14213714D01*
X15481543Y-14213714D02*
X15462495Y-14204190D01*
X15462495Y-14204190D02*
X15424400Y-14204190D01*
X15424400Y-14204190D02*
X15405352Y-14213714D01*
X15491066Y-14328000D02*
X15472019Y-14337524D01*
X15472019Y-14337524D02*
X15424400Y-14337524D01*
X15424400Y-14337524D02*
X15405352Y-14328000D01*
X15405352Y-14328000D02*
X15395828Y-14308952D01*
X15395828Y-14308952D02*
X15395828Y-14289905D01*
X15395828Y-14289905D02*
X15405352Y-14270857D01*
X15405352Y-14270857D02*
X15424400Y-14261333D01*
X15424400Y-14261333D02*
X15472019Y-14261333D01*
X15472019Y-14261333D02*
X15491066Y-14251809D01*
X15557733Y-14204190D02*
X15633924Y-14204190D01*
X15586305Y-14137524D02*
X15586305Y-14308952D01*
X15586305Y-14308952D02*
X15595828Y-14328000D01*
X15595828Y-14328000D02*
X15614876Y-14337524D01*
X15614876Y-14337524D02*
X15633924Y-14337524D01*
X15776781Y-14328000D02*
X15757733Y-14337524D01*
X15757733Y-14337524D02*
X15719638Y-14337524D01*
X15719638Y-14337524D02*
X15700590Y-14328000D01*
X15700590Y-14328000D02*
X15691066Y-14308952D01*
X15691066Y-14308952D02*
X15691066Y-14232762D01*
X15691066Y-14232762D02*
X15700590Y-14213714D01*
X15700590Y-14213714D02*
X15719638Y-14204190D01*
X15719638Y-14204190D02*
X15757733Y-14204190D01*
X15757733Y-14204190D02*
X15776781Y-14213714D01*
X15776781Y-14213714D02*
X15786305Y-14232762D01*
X15786305Y-14232762D02*
X15786305Y-14251809D01*
X15786305Y-14251809D02*
X15691066Y-14270857D01*
X15957733Y-14337524D02*
X15957733Y-14137524D01*
X15957733Y-14328000D02*
X15938686Y-14337524D01*
X15938686Y-14337524D02*
X15900590Y-14337524D01*
X15900590Y-14337524D02*
X15881543Y-14328000D01*
X15881543Y-14328000D02*
X15872019Y-14318476D01*
X15872019Y-14318476D02*
X15862495Y-14299428D01*
X15862495Y-14299428D02*
X15862495Y-14242286D01*
X15862495Y-14242286D02*
X15872019Y-14223238D01*
X15872019Y-14223238D02*
X15881543Y-14213714D01*
X15881543Y-14213714D02*
X15900590Y-14204190D01*
X15900590Y-14204190D02*
X15938686Y-14204190D01*
X15938686Y-14204190D02*
X15957733Y-14213714D01*
X16033924Y-14413714D02*
X16043447Y-14404190D01*
X16043447Y-14404190D02*
X16062495Y-14375619D01*
X16062495Y-14375619D02*
X16072019Y-14356571D01*
X16072019Y-14356571D02*
X16081543Y-14328000D01*
X16081543Y-14328000D02*
X16091066Y-14280381D01*
X16091066Y-14280381D02*
X16091066Y-14242286D01*
X16091066Y-14242286D02*
X16081543Y-14194667D01*
X16081543Y-14194667D02*
X16072019Y-14166095D01*
X16072019Y-14166095D02*
X16062495Y-14147048D01*
X16062495Y-14147048D02*
X16043447Y-14118476D01*
X16043447Y-14118476D02*
X16033924Y-14108952D01*
M02*
