%TF.GenerationSoftware,KiCad,Pcbnew,7.0.2-0*%
%TF.CreationDate,2023-05-05T21:51:11-04:00*%
%TF.ProjectId,Pi_HAT_V4,50695f48-4154-45f5-9634-2e6b69636164,rev?*%
%TF.SameCoordinates,Original*%
%TF.FileFunction,Legend,Bot*%
%TF.FilePolarity,Positive*%
%FSLAX46Y46*%
G04 Gerber Fmt 4.6, Leading zero omitted, Abs format (unit mm)*
G04 Created by KiCad (PCBNEW 7.0.2-0) date 2023-05-05 21:51:11*
%MOMM*%
%LPD*%
G01*
G04 APERTURE LIST*
%ADD10C,0.150000*%
%ADD11C,0.120000*%
G04 APERTURE END LIST*
D10*
%TO.C,L2*%
X113666666Y-99312619D02*
X114142856Y-99312619D01*
X114142856Y-99312619D02*
X114142856Y-98312619D01*
X113380951Y-98407857D02*
X113333332Y-98360238D01*
X113333332Y-98360238D02*
X113238094Y-98312619D01*
X113238094Y-98312619D02*
X112999999Y-98312619D01*
X112999999Y-98312619D02*
X112904761Y-98360238D01*
X112904761Y-98360238D02*
X112857142Y-98407857D01*
X112857142Y-98407857D02*
X112809523Y-98503095D01*
X112809523Y-98503095D02*
X112809523Y-98598333D01*
X112809523Y-98598333D02*
X112857142Y-98741190D01*
X112857142Y-98741190D02*
X113428570Y-99312619D01*
X113428570Y-99312619D02*
X112809523Y-99312619D01*
%TO.C,C7*%
X109966666Y-103017380D02*
X110014285Y-103065000D01*
X110014285Y-103065000D02*
X110157142Y-103112619D01*
X110157142Y-103112619D02*
X110252380Y-103112619D01*
X110252380Y-103112619D02*
X110395237Y-103065000D01*
X110395237Y-103065000D02*
X110490475Y-102969761D01*
X110490475Y-102969761D02*
X110538094Y-102874523D01*
X110538094Y-102874523D02*
X110585713Y-102684047D01*
X110585713Y-102684047D02*
X110585713Y-102541190D01*
X110585713Y-102541190D02*
X110538094Y-102350714D01*
X110538094Y-102350714D02*
X110490475Y-102255476D01*
X110490475Y-102255476D02*
X110395237Y-102160238D01*
X110395237Y-102160238D02*
X110252380Y-102112619D01*
X110252380Y-102112619D02*
X110157142Y-102112619D01*
X110157142Y-102112619D02*
X110014285Y-102160238D01*
X110014285Y-102160238D02*
X109966666Y-102207857D01*
X109633332Y-102112619D02*
X108966666Y-102112619D01*
X108966666Y-102112619D02*
X109395237Y-103112619D01*
%TO.C,C9*%
X131241666Y-79072380D02*
X131289285Y-79120000D01*
X131289285Y-79120000D02*
X131432142Y-79167619D01*
X131432142Y-79167619D02*
X131527380Y-79167619D01*
X131527380Y-79167619D02*
X131670237Y-79120000D01*
X131670237Y-79120000D02*
X131765475Y-79024761D01*
X131765475Y-79024761D02*
X131813094Y-78929523D01*
X131813094Y-78929523D02*
X131860713Y-78739047D01*
X131860713Y-78739047D02*
X131860713Y-78596190D01*
X131860713Y-78596190D02*
X131813094Y-78405714D01*
X131813094Y-78405714D02*
X131765475Y-78310476D01*
X131765475Y-78310476D02*
X131670237Y-78215238D01*
X131670237Y-78215238D02*
X131527380Y-78167619D01*
X131527380Y-78167619D02*
X131432142Y-78167619D01*
X131432142Y-78167619D02*
X131289285Y-78215238D01*
X131289285Y-78215238D02*
X131241666Y-78262857D01*
X130765475Y-79167619D02*
X130574999Y-79167619D01*
X130574999Y-79167619D02*
X130479761Y-79120000D01*
X130479761Y-79120000D02*
X130432142Y-79072380D01*
X130432142Y-79072380D02*
X130336904Y-78929523D01*
X130336904Y-78929523D02*
X130289285Y-78739047D01*
X130289285Y-78739047D02*
X130289285Y-78358095D01*
X130289285Y-78358095D02*
X130336904Y-78262857D01*
X130336904Y-78262857D02*
X130384523Y-78215238D01*
X130384523Y-78215238D02*
X130479761Y-78167619D01*
X130479761Y-78167619D02*
X130670237Y-78167619D01*
X130670237Y-78167619D02*
X130765475Y-78215238D01*
X130765475Y-78215238D02*
X130813094Y-78262857D01*
X130813094Y-78262857D02*
X130860713Y-78358095D01*
X130860713Y-78358095D02*
X130860713Y-78596190D01*
X130860713Y-78596190D02*
X130813094Y-78691428D01*
X130813094Y-78691428D02*
X130765475Y-78739047D01*
X130765475Y-78739047D02*
X130670237Y-78786666D01*
X130670237Y-78786666D02*
X130479761Y-78786666D01*
X130479761Y-78786666D02*
X130384523Y-78739047D01*
X130384523Y-78739047D02*
X130336904Y-78691428D01*
X130336904Y-78691428D02*
X130289285Y-78596190D01*
%TO.C,C3*%
X135187380Y-80583333D02*
X135235000Y-80535714D01*
X135235000Y-80535714D02*
X135282619Y-80392857D01*
X135282619Y-80392857D02*
X135282619Y-80297619D01*
X135282619Y-80297619D02*
X135235000Y-80154762D01*
X135235000Y-80154762D02*
X135139761Y-80059524D01*
X135139761Y-80059524D02*
X135044523Y-80011905D01*
X135044523Y-80011905D02*
X134854047Y-79964286D01*
X134854047Y-79964286D02*
X134711190Y-79964286D01*
X134711190Y-79964286D02*
X134520714Y-80011905D01*
X134520714Y-80011905D02*
X134425476Y-80059524D01*
X134425476Y-80059524D02*
X134330238Y-80154762D01*
X134330238Y-80154762D02*
X134282619Y-80297619D01*
X134282619Y-80297619D02*
X134282619Y-80392857D01*
X134282619Y-80392857D02*
X134330238Y-80535714D01*
X134330238Y-80535714D02*
X134377857Y-80583333D01*
X134282619Y-80916667D02*
X134282619Y-81535714D01*
X134282619Y-81535714D02*
X134663571Y-81202381D01*
X134663571Y-81202381D02*
X134663571Y-81345238D01*
X134663571Y-81345238D02*
X134711190Y-81440476D01*
X134711190Y-81440476D02*
X134758809Y-81488095D01*
X134758809Y-81488095D02*
X134854047Y-81535714D01*
X134854047Y-81535714D02*
X135092142Y-81535714D01*
X135092142Y-81535714D02*
X135187380Y-81488095D01*
X135187380Y-81488095D02*
X135235000Y-81440476D01*
X135235000Y-81440476D02*
X135282619Y-81345238D01*
X135282619Y-81345238D02*
X135282619Y-81059524D01*
X135282619Y-81059524D02*
X135235000Y-80964286D01*
X135235000Y-80964286D02*
X135187380Y-80916667D01*
%TO.C,C6*%
X113666666Y-97067380D02*
X113714285Y-97115000D01*
X113714285Y-97115000D02*
X113857142Y-97162619D01*
X113857142Y-97162619D02*
X113952380Y-97162619D01*
X113952380Y-97162619D02*
X114095237Y-97115000D01*
X114095237Y-97115000D02*
X114190475Y-97019761D01*
X114190475Y-97019761D02*
X114238094Y-96924523D01*
X114238094Y-96924523D02*
X114285713Y-96734047D01*
X114285713Y-96734047D02*
X114285713Y-96591190D01*
X114285713Y-96591190D02*
X114238094Y-96400714D01*
X114238094Y-96400714D02*
X114190475Y-96305476D01*
X114190475Y-96305476D02*
X114095237Y-96210238D01*
X114095237Y-96210238D02*
X113952380Y-96162619D01*
X113952380Y-96162619D02*
X113857142Y-96162619D01*
X113857142Y-96162619D02*
X113714285Y-96210238D01*
X113714285Y-96210238D02*
X113666666Y-96257857D01*
X112809523Y-96162619D02*
X112999999Y-96162619D01*
X112999999Y-96162619D02*
X113095237Y-96210238D01*
X113095237Y-96210238D02*
X113142856Y-96257857D01*
X113142856Y-96257857D02*
X113238094Y-96400714D01*
X113238094Y-96400714D02*
X113285713Y-96591190D01*
X113285713Y-96591190D02*
X113285713Y-96972142D01*
X113285713Y-96972142D02*
X113238094Y-97067380D01*
X113238094Y-97067380D02*
X113190475Y-97115000D01*
X113190475Y-97115000D02*
X113095237Y-97162619D01*
X113095237Y-97162619D02*
X112904761Y-97162619D01*
X112904761Y-97162619D02*
X112809523Y-97115000D01*
X112809523Y-97115000D02*
X112761904Y-97067380D01*
X112761904Y-97067380D02*
X112714285Y-96972142D01*
X112714285Y-96972142D02*
X112714285Y-96734047D01*
X112714285Y-96734047D02*
X112761904Y-96638809D01*
X112761904Y-96638809D02*
X112809523Y-96591190D01*
X112809523Y-96591190D02*
X112904761Y-96543571D01*
X112904761Y-96543571D02*
X113095237Y-96543571D01*
X113095237Y-96543571D02*
X113190475Y-96591190D01*
X113190475Y-96591190D02*
X113238094Y-96638809D01*
X113238094Y-96638809D02*
X113285713Y-96734047D01*
%TO.C,C1*%
X134567380Y-85308333D02*
X134615000Y-85260714D01*
X134615000Y-85260714D02*
X134662619Y-85117857D01*
X134662619Y-85117857D02*
X134662619Y-85022619D01*
X134662619Y-85022619D02*
X134615000Y-84879762D01*
X134615000Y-84879762D02*
X134519761Y-84784524D01*
X134519761Y-84784524D02*
X134424523Y-84736905D01*
X134424523Y-84736905D02*
X134234047Y-84689286D01*
X134234047Y-84689286D02*
X134091190Y-84689286D01*
X134091190Y-84689286D02*
X133900714Y-84736905D01*
X133900714Y-84736905D02*
X133805476Y-84784524D01*
X133805476Y-84784524D02*
X133710238Y-84879762D01*
X133710238Y-84879762D02*
X133662619Y-85022619D01*
X133662619Y-85022619D02*
X133662619Y-85117857D01*
X133662619Y-85117857D02*
X133710238Y-85260714D01*
X133710238Y-85260714D02*
X133757857Y-85308333D01*
X134662619Y-86260714D02*
X134662619Y-85689286D01*
X134662619Y-85975000D02*
X133662619Y-85975000D01*
X133662619Y-85975000D02*
X133805476Y-85879762D01*
X133805476Y-85879762D02*
X133900714Y-85784524D01*
X133900714Y-85784524D02*
X133948333Y-85689286D01*
%TO.C,C2*%
X130317380Y-85308333D02*
X130365000Y-85260714D01*
X130365000Y-85260714D02*
X130412619Y-85117857D01*
X130412619Y-85117857D02*
X130412619Y-85022619D01*
X130412619Y-85022619D02*
X130365000Y-84879762D01*
X130365000Y-84879762D02*
X130269761Y-84784524D01*
X130269761Y-84784524D02*
X130174523Y-84736905D01*
X130174523Y-84736905D02*
X129984047Y-84689286D01*
X129984047Y-84689286D02*
X129841190Y-84689286D01*
X129841190Y-84689286D02*
X129650714Y-84736905D01*
X129650714Y-84736905D02*
X129555476Y-84784524D01*
X129555476Y-84784524D02*
X129460238Y-84879762D01*
X129460238Y-84879762D02*
X129412619Y-85022619D01*
X129412619Y-85022619D02*
X129412619Y-85117857D01*
X129412619Y-85117857D02*
X129460238Y-85260714D01*
X129460238Y-85260714D02*
X129507857Y-85308333D01*
X129507857Y-85689286D02*
X129460238Y-85736905D01*
X129460238Y-85736905D02*
X129412619Y-85832143D01*
X129412619Y-85832143D02*
X129412619Y-86070238D01*
X129412619Y-86070238D02*
X129460238Y-86165476D01*
X129460238Y-86165476D02*
X129507857Y-86213095D01*
X129507857Y-86213095D02*
X129603095Y-86260714D01*
X129603095Y-86260714D02*
X129698333Y-86260714D01*
X129698333Y-86260714D02*
X129841190Y-86213095D01*
X129841190Y-86213095D02*
X130412619Y-85641667D01*
X130412619Y-85641667D02*
X130412619Y-86260714D01*
%TO.C,R2*%
X138032619Y-85333333D02*
X137556428Y-85000000D01*
X138032619Y-84761905D02*
X137032619Y-84761905D01*
X137032619Y-84761905D02*
X137032619Y-85142857D01*
X137032619Y-85142857D02*
X137080238Y-85238095D01*
X137080238Y-85238095D02*
X137127857Y-85285714D01*
X137127857Y-85285714D02*
X137223095Y-85333333D01*
X137223095Y-85333333D02*
X137365952Y-85333333D01*
X137365952Y-85333333D02*
X137461190Y-85285714D01*
X137461190Y-85285714D02*
X137508809Y-85238095D01*
X137508809Y-85238095D02*
X137556428Y-85142857D01*
X137556428Y-85142857D02*
X137556428Y-84761905D01*
X137127857Y-85714286D02*
X137080238Y-85761905D01*
X137080238Y-85761905D02*
X137032619Y-85857143D01*
X137032619Y-85857143D02*
X137032619Y-86095238D01*
X137032619Y-86095238D02*
X137080238Y-86190476D01*
X137080238Y-86190476D02*
X137127857Y-86238095D01*
X137127857Y-86238095D02*
X137223095Y-86285714D01*
X137223095Y-86285714D02*
X137318333Y-86285714D01*
X137318333Y-86285714D02*
X137461190Y-86238095D01*
X137461190Y-86238095D02*
X138032619Y-85666667D01*
X138032619Y-85666667D02*
X138032619Y-86285714D01*
%TO.C,C4*%
X139916666Y-82912380D02*
X139964285Y-82960000D01*
X139964285Y-82960000D02*
X140107142Y-83007619D01*
X140107142Y-83007619D02*
X140202380Y-83007619D01*
X140202380Y-83007619D02*
X140345237Y-82960000D01*
X140345237Y-82960000D02*
X140440475Y-82864761D01*
X140440475Y-82864761D02*
X140488094Y-82769523D01*
X140488094Y-82769523D02*
X140535713Y-82579047D01*
X140535713Y-82579047D02*
X140535713Y-82436190D01*
X140535713Y-82436190D02*
X140488094Y-82245714D01*
X140488094Y-82245714D02*
X140440475Y-82150476D01*
X140440475Y-82150476D02*
X140345237Y-82055238D01*
X140345237Y-82055238D02*
X140202380Y-82007619D01*
X140202380Y-82007619D02*
X140107142Y-82007619D01*
X140107142Y-82007619D02*
X139964285Y-82055238D01*
X139964285Y-82055238D02*
X139916666Y-82102857D01*
X139059523Y-82340952D02*
X139059523Y-83007619D01*
X139297618Y-81960000D02*
X139535713Y-82674285D01*
X139535713Y-82674285D02*
X138916666Y-82674285D01*
%TO.C,R5*%
X138466666Y-74612619D02*
X138799999Y-74136428D01*
X139038094Y-74612619D02*
X139038094Y-73612619D01*
X139038094Y-73612619D02*
X138657142Y-73612619D01*
X138657142Y-73612619D02*
X138561904Y-73660238D01*
X138561904Y-73660238D02*
X138514285Y-73707857D01*
X138514285Y-73707857D02*
X138466666Y-73803095D01*
X138466666Y-73803095D02*
X138466666Y-73945952D01*
X138466666Y-73945952D02*
X138514285Y-74041190D01*
X138514285Y-74041190D02*
X138561904Y-74088809D01*
X138561904Y-74088809D02*
X138657142Y-74136428D01*
X138657142Y-74136428D02*
X139038094Y-74136428D01*
X137561904Y-73612619D02*
X138038094Y-73612619D01*
X138038094Y-73612619D02*
X138085713Y-74088809D01*
X138085713Y-74088809D02*
X138038094Y-74041190D01*
X138038094Y-74041190D02*
X137942856Y-73993571D01*
X137942856Y-73993571D02*
X137704761Y-73993571D01*
X137704761Y-73993571D02*
X137609523Y-74041190D01*
X137609523Y-74041190D02*
X137561904Y-74088809D01*
X137561904Y-74088809D02*
X137514285Y-74184047D01*
X137514285Y-74184047D02*
X137514285Y-74422142D01*
X137514285Y-74422142D02*
X137561904Y-74517380D01*
X137561904Y-74517380D02*
X137609523Y-74565000D01*
X137609523Y-74565000D02*
X137704761Y-74612619D01*
X137704761Y-74612619D02*
X137942856Y-74612619D01*
X137942856Y-74612619D02*
X138038094Y-74565000D01*
X138038094Y-74565000D02*
X138085713Y-74517380D01*
%TO.C,L1*%
X143216666Y-80312619D02*
X143692856Y-80312619D01*
X143692856Y-80312619D02*
X143692856Y-79312619D01*
X142359523Y-80312619D02*
X142930951Y-80312619D01*
X142645237Y-80312619D02*
X142645237Y-79312619D01*
X142645237Y-79312619D02*
X142740475Y-79455476D01*
X142740475Y-79455476D02*
X142835713Y-79550714D01*
X142835713Y-79550714D02*
X142930951Y-79598333D01*
X144176190Y-81295952D02*
X144176190Y-81962619D01*
X144414285Y-80915000D02*
X144652380Y-81629285D01*
X144652380Y-81629285D02*
X144033333Y-81629285D01*
X143652380Y-81867380D02*
X143604761Y-81915000D01*
X143604761Y-81915000D02*
X143652380Y-81962619D01*
X143652380Y-81962619D02*
X143699999Y-81915000D01*
X143699999Y-81915000D02*
X143652380Y-81867380D01*
X143652380Y-81867380D02*
X143652380Y-81962619D01*
X143128571Y-81962619D02*
X142938095Y-81962619D01*
X142938095Y-81962619D02*
X142842857Y-81915000D01*
X142842857Y-81915000D02*
X142795238Y-81867380D01*
X142795238Y-81867380D02*
X142700000Y-81724523D01*
X142700000Y-81724523D02*
X142652381Y-81534047D01*
X142652381Y-81534047D02*
X142652381Y-81153095D01*
X142652381Y-81153095D02*
X142700000Y-81057857D01*
X142700000Y-81057857D02*
X142747619Y-81010238D01*
X142747619Y-81010238D02*
X142842857Y-80962619D01*
X142842857Y-80962619D02*
X143033333Y-80962619D01*
X143033333Y-80962619D02*
X143128571Y-81010238D01*
X143128571Y-81010238D02*
X143176190Y-81057857D01*
X143176190Y-81057857D02*
X143223809Y-81153095D01*
X143223809Y-81153095D02*
X143223809Y-81391190D01*
X143223809Y-81391190D02*
X143176190Y-81486428D01*
X143176190Y-81486428D02*
X143128571Y-81534047D01*
X143128571Y-81534047D02*
X143033333Y-81581666D01*
X143033333Y-81581666D02*
X142842857Y-81581666D01*
X142842857Y-81581666D02*
X142747619Y-81534047D01*
X142747619Y-81534047D02*
X142700000Y-81486428D01*
X142700000Y-81486428D02*
X142652381Y-81391190D01*
X141795238Y-81295952D02*
X141795238Y-81962619D01*
X142223809Y-81295952D02*
X142223809Y-81819761D01*
X142223809Y-81819761D02*
X142176190Y-81915000D01*
X142176190Y-81915000D02*
X142080952Y-81962619D01*
X142080952Y-81962619D02*
X141938095Y-81962619D01*
X141938095Y-81962619D02*
X141842857Y-81915000D01*
X141842857Y-81915000D02*
X141795238Y-81867380D01*
X143249999Y-77712619D02*
X143249999Y-77950714D01*
X143488094Y-77855476D02*
X143249999Y-77950714D01*
X143249999Y-77950714D02*
X143011904Y-77855476D01*
X143392856Y-78141190D02*
X143249999Y-77950714D01*
X143249999Y-77950714D02*
X143107142Y-78141190D01*
%TO.C,R14*%
X128542857Y-78112619D02*
X128876190Y-77636428D01*
X129114285Y-78112619D02*
X129114285Y-77112619D01*
X129114285Y-77112619D02*
X128733333Y-77112619D01*
X128733333Y-77112619D02*
X128638095Y-77160238D01*
X128638095Y-77160238D02*
X128590476Y-77207857D01*
X128590476Y-77207857D02*
X128542857Y-77303095D01*
X128542857Y-77303095D02*
X128542857Y-77445952D01*
X128542857Y-77445952D02*
X128590476Y-77541190D01*
X128590476Y-77541190D02*
X128638095Y-77588809D01*
X128638095Y-77588809D02*
X128733333Y-77636428D01*
X128733333Y-77636428D02*
X129114285Y-77636428D01*
X127590476Y-78112619D02*
X128161904Y-78112619D01*
X127876190Y-78112619D02*
X127876190Y-77112619D01*
X127876190Y-77112619D02*
X127971428Y-77255476D01*
X127971428Y-77255476D02*
X128066666Y-77350714D01*
X128066666Y-77350714D02*
X128161904Y-77398333D01*
X126733333Y-77445952D02*
X126733333Y-78112619D01*
X126971428Y-77065000D02*
X127209523Y-77779285D01*
X127209523Y-77779285D02*
X126590476Y-77779285D01*
%TO.C,U1*%
X127661904Y-81462619D02*
X127661904Y-82272142D01*
X127661904Y-82272142D02*
X127614285Y-82367380D01*
X127614285Y-82367380D02*
X127566666Y-82415000D01*
X127566666Y-82415000D02*
X127471428Y-82462619D01*
X127471428Y-82462619D02*
X127280952Y-82462619D01*
X127280952Y-82462619D02*
X127185714Y-82415000D01*
X127185714Y-82415000D02*
X127138095Y-82367380D01*
X127138095Y-82367380D02*
X127090476Y-82272142D01*
X127090476Y-82272142D02*
X127090476Y-81462619D01*
X126090476Y-82462619D02*
X126661904Y-82462619D01*
X126376190Y-82462619D02*
X126376190Y-81462619D01*
X126376190Y-81462619D02*
X126471428Y-81605476D01*
X126471428Y-81605476D02*
X126566666Y-81700714D01*
X126566666Y-81700714D02*
X126661904Y-81748333D01*
%TO.C,C8*%
X128812380Y-80583333D02*
X128860000Y-80535714D01*
X128860000Y-80535714D02*
X128907619Y-80392857D01*
X128907619Y-80392857D02*
X128907619Y-80297619D01*
X128907619Y-80297619D02*
X128860000Y-80154762D01*
X128860000Y-80154762D02*
X128764761Y-80059524D01*
X128764761Y-80059524D02*
X128669523Y-80011905D01*
X128669523Y-80011905D02*
X128479047Y-79964286D01*
X128479047Y-79964286D02*
X128336190Y-79964286D01*
X128336190Y-79964286D02*
X128145714Y-80011905D01*
X128145714Y-80011905D02*
X128050476Y-80059524D01*
X128050476Y-80059524D02*
X127955238Y-80154762D01*
X127955238Y-80154762D02*
X127907619Y-80297619D01*
X127907619Y-80297619D02*
X127907619Y-80392857D01*
X127907619Y-80392857D02*
X127955238Y-80535714D01*
X127955238Y-80535714D02*
X128002857Y-80583333D01*
X128336190Y-81154762D02*
X128288571Y-81059524D01*
X128288571Y-81059524D02*
X128240952Y-81011905D01*
X128240952Y-81011905D02*
X128145714Y-80964286D01*
X128145714Y-80964286D02*
X128098095Y-80964286D01*
X128098095Y-80964286D02*
X128002857Y-81011905D01*
X128002857Y-81011905D02*
X127955238Y-81059524D01*
X127955238Y-81059524D02*
X127907619Y-81154762D01*
X127907619Y-81154762D02*
X127907619Y-81345238D01*
X127907619Y-81345238D02*
X127955238Y-81440476D01*
X127955238Y-81440476D02*
X128002857Y-81488095D01*
X128002857Y-81488095D02*
X128098095Y-81535714D01*
X128098095Y-81535714D02*
X128145714Y-81535714D01*
X128145714Y-81535714D02*
X128240952Y-81488095D01*
X128240952Y-81488095D02*
X128288571Y-81440476D01*
X128288571Y-81440476D02*
X128336190Y-81345238D01*
X128336190Y-81345238D02*
X128336190Y-81154762D01*
X128336190Y-81154762D02*
X128383809Y-81059524D01*
X128383809Y-81059524D02*
X128431428Y-81011905D01*
X128431428Y-81011905D02*
X128526666Y-80964286D01*
X128526666Y-80964286D02*
X128717142Y-80964286D01*
X128717142Y-80964286D02*
X128812380Y-81011905D01*
X128812380Y-81011905D02*
X128860000Y-81059524D01*
X128860000Y-81059524D02*
X128907619Y-81154762D01*
X128907619Y-81154762D02*
X128907619Y-81345238D01*
X128907619Y-81345238D02*
X128860000Y-81440476D01*
X128860000Y-81440476D02*
X128812380Y-81488095D01*
X128812380Y-81488095D02*
X128717142Y-81535714D01*
X128717142Y-81535714D02*
X128526666Y-81535714D01*
X128526666Y-81535714D02*
X128431428Y-81488095D01*
X128431428Y-81488095D02*
X128383809Y-81440476D01*
X128383809Y-81440476D02*
X128336190Y-81345238D01*
%TO.C,R4*%
X139891666Y-87892619D02*
X140224999Y-87416428D01*
X140463094Y-87892619D02*
X140463094Y-86892619D01*
X140463094Y-86892619D02*
X140082142Y-86892619D01*
X140082142Y-86892619D02*
X139986904Y-86940238D01*
X139986904Y-86940238D02*
X139939285Y-86987857D01*
X139939285Y-86987857D02*
X139891666Y-87083095D01*
X139891666Y-87083095D02*
X139891666Y-87225952D01*
X139891666Y-87225952D02*
X139939285Y-87321190D01*
X139939285Y-87321190D02*
X139986904Y-87368809D01*
X139986904Y-87368809D02*
X140082142Y-87416428D01*
X140082142Y-87416428D02*
X140463094Y-87416428D01*
X139034523Y-87225952D02*
X139034523Y-87892619D01*
X139272618Y-86845000D02*
X139510713Y-87559285D01*
X139510713Y-87559285D02*
X138891666Y-87559285D01*
%TO.C,C5*%
X113666666Y-95867380D02*
X113714285Y-95915000D01*
X113714285Y-95915000D02*
X113857142Y-95962619D01*
X113857142Y-95962619D02*
X113952380Y-95962619D01*
X113952380Y-95962619D02*
X114095237Y-95915000D01*
X114095237Y-95915000D02*
X114190475Y-95819761D01*
X114190475Y-95819761D02*
X114238094Y-95724523D01*
X114238094Y-95724523D02*
X114285713Y-95534047D01*
X114285713Y-95534047D02*
X114285713Y-95391190D01*
X114285713Y-95391190D02*
X114238094Y-95200714D01*
X114238094Y-95200714D02*
X114190475Y-95105476D01*
X114190475Y-95105476D02*
X114095237Y-95010238D01*
X114095237Y-95010238D02*
X113952380Y-94962619D01*
X113952380Y-94962619D02*
X113857142Y-94962619D01*
X113857142Y-94962619D02*
X113714285Y-95010238D01*
X113714285Y-95010238D02*
X113666666Y-95057857D01*
X112761904Y-94962619D02*
X113238094Y-94962619D01*
X113238094Y-94962619D02*
X113285713Y-95438809D01*
X113285713Y-95438809D02*
X113238094Y-95391190D01*
X113238094Y-95391190D02*
X113142856Y-95343571D01*
X113142856Y-95343571D02*
X112904761Y-95343571D01*
X112904761Y-95343571D02*
X112809523Y-95391190D01*
X112809523Y-95391190D02*
X112761904Y-95438809D01*
X112761904Y-95438809D02*
X112714285Y-95534047D01*
X112714285Y-95534047D02*
X112714285Y-95772142D01*
X112714285Y-95772142D02*
X112761904Y-95867380D01*
X112761904Y-95867380D02*
X112809523Y-95915000D01*
X112809523Y-95915000D02*
X112904761Y-95962619D01*
X112904761Y-95962619D02*
X113142856Y-95962619D01*
X113142856Y-95962619D02*
X113238094Y-95915000D01*
X113238094Y-95915000D02*
X113285713Y-95867380D01*
%TO.C,R3*%
X135491666Y-73812619D02*
X135824999Y-73336428D01*
X136063094Y-73812619D02*
X136063094Y-72812619D01*
X136063094Y-72812619D02*
X135682142Y-72812619D01*
X135682142Y-72812619D02*
X135586904Y-72860238D01*
X135586904Y-72860238D02*
X135539285Y-72907857D01*
X135539285Y-72907857D02*
X135491666Y-73003095D01*
X135491666Y-73003095D02*
X135491666Y-73145952D01*
X135491666Y-73145952D02*
X135539285Y-73241190D01*
X135539285Y-73241190D02*
X135586904Y-73288809D01*
X135586904Y-73288809D02*
X135682142Y-73336428D01*
X135682142Y-73336428D02*
X136063094Y-73336428D01*
X135158332Y-72812619D02*
X134539285Y-72812619D01*
X134539285Y-72812619D02*
X134872618Y-73193571D01*
X134872618Y-73193571D02*
X134729761Y-73193571D01*
X134729761Y-73193571D02*
X134634523Y-73241190D01*
X134634523Y-73241190D02*
X134586904Y-73288809D01*
X134586904Y-73288809D02*
X134539285Y-73384047D01*
X134539285Y-73384047D02*
X134539285Y-73622142D01*
X134539285Y-73622142D02*
X134586904Y-73717380D01*
X134586904Y-73717380D02*
X134634523Y-73765000D01*
X134634523Y-73765000D02*
X134729761Y-73812619D01*
X134729761Y-73812619D02*
X135015475Y-73812619D01*
X135015475Y-73812619D02*
X135110713Y-73765000D01*
X135110713Y-73765000D02*
X135158332Y-73717380D01*
D11*
%TO.C,C7*%
X114211252Y-104110000D02*
X112788748Y-104110000D01*
X114211252Y-101390000D02*
X112788748Y-101390000D01*
%TO.C,C9*%
X130928733Y-76765000D02*
X131221267Y-76765000D01*
X130928733Y-77785000D02*
X131221267Y-77785000D01*
%TO.C,C3*%
X136760000Y-80603733D02*
X136760000Y-80896267D01*
X135740000Y-80603733D02*
X135740000Y-80896267D01*
%TO.C,C6*%
X114211252Y-100210000D02*
X112788748Y-100210000D01*
X114211252Y-97490000D02*
X112788748Y-97490000D01*
%TO.C,C1*%
X130540000Y-86186252D02*
X130540000Y-84763748D01*
X133260000Y-86186252D02*
X133260000Y-84763748D01*
%TO.C,C2*%
X126290000Y-86186252D02*
X126290000Y-84763748D01*
X129010000Y-86186252D02*
X129010000Y-84763748D01*
%TO.C,R2*%
X134840000Y-86227064D02*
X134840000Y-84772936D01*
X136660000Y-86227064D02*
X136660000Y-84772936D01*
%TO.C,C4*%
X139896267Y-84485000D02*
X139603733Y-84485000D01*
X139896267Y-83465000D02*
X139603733Y-83465000D01*
%TO.C,R5*%
X135527064Y-78010000D02*
X135072936Y-78010000D01*
X135527064Y-76540000D02*
X135072936Y-76540000D01*
%TO.C,R14*%
X130822936Y-74265000D02*
X131277064Y-74265000D01*
X130822936Y-75735000D02*
X131277064Y-75735000D01*
%TO.C,C8*%
X130385000Y-80603733D02*
X130385000Y-80896267D01*
X129365000Y-80603733D02*
X129365000Y-80896267D01*
%TO.C,R4*%
X139470276Y-85477500D02*
X139979724Y-85477500D01*
X139470276Y-86522500D02*
X139979724Y-86522500D01*
%TO.C,C5*%
X112788748Y-91840000D02*
X114211252Y-91840000D01*
X112788748Y-94560000D02*
X114211252Y-94560000D01*
%TO.C,R3*%
X135552064Y-75735000D02*
X135097936Y-75735000D01*
X135552064Y-74265000D02*
X135097936Y-74265000D01*
%TD*%
M02*
