%TF.GenerationSoftware,KiCad,Pcbnew,(6.0.4)*%
%TF.CreationDate,2022-09-15T01:44:32-04:00*%
%TF.ProjectId,NANO_HAT,4e414e4f-5f48-4415-942e-6b696361645f,rev?*%
%TF.SameCoordinates,Original*%
%TF.FileFunction,Copper,L2,Bot*%
%TF.FilePolarity,Positive*%
%FSLAX46Y46*%
G04 Gerber Fmt 4.6, Leading zero omitted, Abs format (unit mm)*
G04 Created by KiCad (PCBNEW (6.0.4)) date 2022-09-15 01:44:32*
%MOMM*%
%LPD*%
G01*
G04 APERTURE LIST*
G04 Aperture macros list*
%AMRoundRect*
0 Rectangle with rounded corners*
0 $1 Rounding radius*
0 $2 $3 $4 $5 $6 $7 $8 $9 X,Y pos of 4 corners*
0 Add a 4 corners polygon primitive as box body*
4,1,4,$2,$3,$4,$5,$6,$7,$8,$9,$2,$3,0*
0 Add four circle primitives for the rounded corners*
1,1,$1+$1,$2,$3*
1,1,$1+$1,$4,$5*
1,1,$1+$1,$6,$7*
1,1,$1+$1,$8,$9*
0 Add four rect primitives between the rounded corners*
20,1,$1+$1,$2,$3,$4,$5,0*
20,1,$1+$1,$4,$5,$6,$7,0*
20,1,$1+$1,$6,$7,$8,$9,0*
20,1,$1+$1,$8,$9,$2,$3,0*%
G04 Aperture macros list end*
%TA.AperFunction,SMDPad,CuDef*%
%ADD10R,0.960000X1.730000*%
%TD*%
%TA.AperFunction,SMDPad,CuDef*%
%ADD11R,5.630000X6.490000*%
%TD*%
%TA.AperFunction,ComponentPad*%
%ADD12R,1.700000X1.700000*%
%TD*%
%TA.AperFunction,ComponentPad*%
%ADD13O,1.700000X1.700000*%
%TD*%
%TA.AperFunction,ComponentPad*%
%ADD14R,1.800000X1.800000*%
%TD*%
%TA.AperFunction,ComponentPad*%
%ADD15C,1.800000*%
%TD*%
%TA.AperFunction,SMDPad,CuDef*%
%ADD16RoundRect,0.250000X-0.450000X0.350000X-0.450000X-0.350000X0.450000X-0.350000X0.450000X0.350000X0*%
%TD*%
%TA.AperFunction,SMDPad,CuDef*%
%ADD17RoundRect,0.250000X1.450000X-0.400000X1.450000X0.400000X-1.450000X0.400000X-1.450000X-0.400000X0*%
%TD*%
%TA.AperFunction,SMDPad,CuDef*%
%ADD18RoundRect,0.041300X-0.253700X0.748700X-0.253700X-0.748700X0.253700X-0.748700X0.253700X0.748700X0*%
%TD*%
%TA.AperFunction,ViaPad*%
%ADD19C,0.800000*%
%TD*%
%TA.AperFunction,Conductor*%
%ADD20C,0.250000*%
%TD*%
%TA.AperFunction,Conductor*%
%ADD21C,1.000000*%
%TD*%
%TA.AperFunction,Conductor*%
%ADD22C,0.254000*%
%TD*%
G04 APERTURE END LIST*
D10*
%TO.P,VR1,1,INPUT*%
%TO.N,VCC*%
X164350000Y-79002500D03*
%TO.P,VR1,3,OUTPUT*%
%TO.N,/5V*%
X159780000Y-79002500D03*
D11*
%TO.P,VR1,4,GND*%
%TO.N,GND*%
X162065000Y-71982500D03*
%TD*%
D12*
%TO.P,J5,1,Pin_1*%
%TO.N,VCC*%
X147600000Y-93725000D03*
D13*
%TO.P,J5,2,Pin_2*%
%TO.N,/SOL1*%
X147600000Y-96265000D03*
%TD*%
D12*
%TO.P,J7,1,Pin_1*%
%TO.N,/SDA*%
X177200000Y-79800000D03*
D13*
%TO.P,J7,2,Pin_2*%
%TO.N,/SCL*%
X177200000Y-82340000D03*
%TO.P,J7,3,Pin_3*%
%TO.N,GND*%
X177200000Y-84880000D03*
%TO.P,J7,4,Pin_4*%
%TO.N,VCC*%
X177200000Y-87420000D03*
%TD*%
D12*
%TO.P,J2,1,Pin_1*%
%TO.N,VCC*%
X147600000Y-102125000D03*
D13*
%TO.P,J2,2,Pin_2*%
%TO.N,/SOL1*%
X147600000Y-104665000D03*
%TD*%
D14*
%TO.P,TB1,1,D1/TX*%
%TO.N,unconnected-(TB1-Pad1)*%
X169840000Y-103580000D03*
D15*
%TO.P,TB1,2,D0/RX*%
%TO.N,unconnected-(TB1-Pad2)*%
X169840000Y-101040000D03*
%TO.P,TB1,3,RESET*%
%TO.N,unconnected-(TB1-Pad28)*%
X169840000Y-98500000D03*
%TO.P,TB1,4,COM/GND*%
%TO.N,GND*%
X169840000Y-95960000D03*
%TO.P,TB1,5,D2*%
%TO.N,unconnected-(TB1-Pad5)*%
X169840000Y-93420000D03*
%TO.P,TB1,6,D3*%
%TO.N,unconnected-(TB1-Pad6)*%
X169840000Y-90880000D03*
%TO.P,TB1,7,D4*%
%TO.N,unconnected-(TB1-Pad7)*%
X169840000Y-88340000D03*
%TO.P,TB1,8,D5*%
%TO.N,/LED*%
X169840000Y-85800000D03*
%TO.P,TB1,9,D6*%
%TO.N,/SOL1*%
X169840000Y-83260000D03*
%TO.P,TB1,10,D7*%
%TO.N,/SOL2*%
X169840000Y-80720000D03*
%TO.P,TB1,11,D8*%
%TO.N,unconnected-(TB1-Pad11)*%
X169840000Y-78180000D03*
%TO.P,TB1,12,D9*%
%TO.N,unconnected-(TB1-Pad12)*%
X169840000Y-75640000D03*
%TO.P,TB1,13,D10*%
%TO.N,unconnected-(TB1-Pad13)*%
X169840000Y-73100000D03*
%TO.P,TB1,14,D11/MOSI*%
%TO.N,unconnected-(TB1-Pad14)*%
X169840000Y-70560000D03*
%TO.P,TB1,15,D12/MISO*%
%TO.N,unconnected-(TB1-Pad15)*%
X169840000Y-68020000D03*
%TO.P,TB1,16,D13/SCK*%
%TO.N,unconnected-(TB1-Pad16)*%
X154600000Y-68020000D03*
%TO.P,TB1,17,3V3*%
%TO.N,unconnected-(TB1-Pad17)*%
X154600000Y-70560000D03*
%TO.P,TB1,18,AREF*%
%TO.N,unconnected-(TB1-Pad18)*%
X154600000Y-73100000D03*
%TO.P,TB1,19,A0*%
%TO.N,unconnected-(TB1-Pad19)*%
X154600000Y-75640000D03*
%TO.P,TB1,20,A1*%
%TO.N,unconnected-(TB1-Pad20)*%
X154600000Y-78180000D03*
%TO.P,TB1,21,A2*%
%TO.N,unconnected-(TB1-Pad21)*%
X154600000Y-80720000D03*
%TO.P,TB1,22,A3*%
%TO.N,unconnected-(TB1-Pad22)*%
X154600000Y-83260000D03*
%TO.P,TB1,23,A4*%
%TO.N,/SDA*%
X154600000Y-85800000D03*
%TO.P,TB1,24,A5*%
%TO.N,/SCL*%
X154600000Y-88340000D03*
%TO.P,TB1,25,A6*%
%TO.N,unconnected-(TB1-Pad25)*%
X154600000Y-90880000D03*
%TO.P,TB1,26,A7*%
%TO.N,unconnected-(TB1-Pad26)*%
X154600000Y-93420000D03*
%TO.P,TB1,27,+5V*%
%TO.N,unconnected-(TB1-Pad27)*%
X154600000Y-95960000D03*
%TO.P,TB1,28,RESET*%
%TO.N,unconnected-(TB1-Pad28)*%
X154600000Y-98500000D03*
%TO.P,TB1,29,COM/GND*%
%TO.N,GND*%
X154600000Y-101040000D03*
%TO.P,TB1,30,VIN*%
%TO.N,/5V*%
X154600000Y-103580000D03*
%TD*%
D12*
%TO.P,J3,1,Pin_1*%
%TO.N,VCC*%
X177200000Y-96275000D03*
D13*
%TO.P,J3,2,Pin_2*%
%TO.N,/SOL2*%
X177200000Y-93735000D03*
%TD*%
D12*
%TO.P,J4,1,Pin_1*%
%TO.N,/SDA*%
X147800000Y-80400000D03*
D13*
%TO.P,J4,2,Pin_2*%
%TO.N,/SCL*%
X147800000Y-82940000D03*
%TO.P,J4,3,Pin_3*%
%TO.N,GND*%
X147800000Y-85480000D03*
%TO.P,J4,4,Pin_4*%
%TO.N,VCC*%
X147800000Y-88020000D03*
%TD*%
D12*
%TO.P,J6,1,Pin_1*%
%TO.N,VCC*%
X177200000Y-104600000D03*
D13*
%TO.P,J6,2,Pin_2*%
%TO.N,/SOL2*%
X177200000Y-102060000D03*
%TD*%
D12*
%TO.P,J1,1,Pin_1*%
%TO.N,/5V*%
X159475000Y-110600000D03*
D13*
%TO.P,J1,2,Pin_2*%
%TO.N,/LED*%
X162015000Y-110600000D03*
%TO.P,J1,3,Pin_3*%
%TO.N,GND*%
X164555000Y-110600000D03*
%TD*%
D16*
%TO.P,R1,1*%
%TO.N,GND*%
X161065000Y-85085000D03*
%TO.P,R1,2*%
%TO.N,/Gate 1*%
X161065000Y-87085000D03*
%TD*%
D17*
%TO.P,D2,1,K*%
%TO.N,VCC*%
X158665000Y-103135000D03*
%TO.P,D2,2,A*%
%TO.N,/SOL2*%
X158665000Y-98685000D03*
%TD*%
D16*
%TO.P,R2,1*%
%TO.N,GND*%
X163665000Y-85085000D03*
%TO.P,R2,2*%
%TO.N,/Gate 2*%
X163665000Y-87085000D03*
%TD*%
D17*
%TO.P,D1,1,K*%
%TO.N,VCC*%
X165665000Y-103110000D03*
%TO.P,D1,2,A*%
%TO.N,/SOL1*%
X165665000Y-98660000D03*
%TD*%
D18*
%TO.P,U1,1,S1*%
%TO.N,GND*%
X160360000Y-89860000D03*
%TO.P,U1,2,G1*%
%TO.N,/Gate 1*%
X161630000Y-89860000D03*
%TO.P,U1,3,S2*%
%TO.N,GND*%
X162900000Y-89860000D03*
%TO.P,U1,4,G2*%
%TO.N,/Gate 2*%
X164170000Y-89860000D03*
%TO.P,U1,5,D1*%
%TO.N,/SOL1*%
X164170000Y-95110000D03*
%TO.P,U1,6,D1*%
X162900000Y-95110000D03*
%TO.P,U1,7,D2*%
%TO.N,/SOL2*%
X161630000Y-95110000D03*
%TO.P,U1,8,D2*%
X160360000Y-95110000D03*
%TD*%
D19*
%TO.N,GND*%
X168400000Y-84550000D03*
%TO.N,/SOL1*%
X162100000Y-97100000D03*
%TO.N,GND*%
X162000000Y-67000000D03*
%TD*%
D20*
%TO.N,GND*%
X167865000Y-85085000D02*
X168400000Y-84550000D01*
X163665000Y-85085000D02*
X167865000Y-85085000D01*
%TO.N,/5V*%
X159780000Y-79002500D02*
X156100000Y-82682500D01*
D21*
%TO.N,VCC*%
X174180000Y-87420000D02*
X177200000Y-87420000D01*
X166650000Y-112650000D02*
X157850000Y-112650000D01*
X165665000Y-103110000D02*
X165910000Y-103110000D01*
X150475000Y-103125000D02*
X149475000Y-102125000D01*
X151850000Y-106650000D02*
X151850000Y-104500000D01*
X164350000Y-79002500D02*
X166197500Y-79002500D01*
X151050000Y-100850000D02*
X151050000Y-95000000D01*
X158690000Y-103110000D02*
X158665000Y-103135000D01*
X179800000Y-96200000D02*
X179725000Y-96275000D01*
X149775000Y-102125000D02*
X151050000Y-100850000D01*
X179800000Y-96200000D02*
X179800000Y-104600000D01*
X173400000Y-65800000D02*
X174000000Y-66400000D01*
X179800000Y-90020000D02*
X179800000Y-96200000D01*
X151850000Y-104500000D02*
X150475000Y-103125000D01*
X147600000Y-102125000D02*
X149775000Y-102125000D01*
X165910000Y-103110000D02*
X169050000Y-106250000D01*
X179725000Y-96275000D02*
X177200000Y-96275000D01*
X175550000Y-106250000D02*
X177200000Y-104600000D01*
X151050000Y-95000000D02*
X149775000Y-93725000D01*
X167200000Y-66600000D02*
X168000000Y-65800000D01*
X166197500Y-79002500D02*
X167200000Y-78000000D01*
X177200000Y-87420000D02*
X179800000Y-90020000D01*
X174000000Y-87240000D02*
X174180000Y-87420000D01*
X169050000Y-106250000D02*
X169050000Y-110250000D01*
X169050000Y-106250000D02*
X175550000Y-106250000D01*
X149475000Y-102125000D02*
X147600000Y-102125000D01*
X157850000Y-112650000D02*
X151850000Y-106650000D01*
X167200000Y-78000000D02*
X167200000Y-66600000D01*
X169050000Y-110250000D02*
X166650000Y-112650000D01*
X149775000Y-93725000D02*
X147600000Y-93725000D01*
X165665000Y-103110000D02*
X158690000Y-103110000D01*
X168000000Y-65800000D02*
X173400000Y-65800000D01*
X174000000Y-66400000D02*
X174000000Y-87240000D01*
X179800000Y-104600000D02*
X177200000Y-104600000D01*
D20*
%TO.N,/SOL1*%
X164170000Y-95110000D02*
X165665000Y-96605000D01*
D22*
X162100000Y-97100000D02*
X162900000Y-96300000D01*
D20*
X165665000Y-96605000D02*
X165665000Y-98660000D01*
X162900000Y-95110000D02*
X164170000Y-95110000D01*
D22*
X162900000Y-96300000D02*
X162900000Y-95110000D01*
%TO.N,/SOL2*%
X161630000Y-94120000D02*
X163600000Y-92150000D01*
X163600000Y-92150000D02*
X175615000Y-92150000D01*
X175615000Y-92150000D02*
X177200000Y-93735000D01*
D20*
X161630000Y-95110000D02*
X160360000Y-95110000D01*
X160360000Y-95110000D02*
X158665000Y-96805000D01*
X158665000Y-96805000D02*
X158665000Y-98685000D01*
D22*
X161630000Y-95110000D02*
X161630000Y-94120000D01*
D20*
%TO.N,GND*%
X162900000Y-90800000D02*
X162900000Y-89860000D01*
X162065000Y-71982500D02*
X162065000Y-84085000D01*
D22*
X161065000Y-85085000D02*
X161000000Y-85150000D01*
X159500000Y-85650000D02*
X159500000Y-89000000D01*
D20*
X160360000Y-90760000D02*
X160850000Y-91250000D01*
D22*
X163665000Y-85085000D02*
X161065000Y-85085000D01*
X161000000Y-85150000D02*
X160000000Y-85150000D01*
X162065000Y-71982500D02*
X162065000Y-67065000D01*
X159500000Y-89000000D02*
X160360000Y-89860000D01*
D20*
X162065000Y-84085000D02*
X161065000Y-85085000D01*
D22*
X162065000Y-67065000D02*
X162000000Y-67000000D01*
X160000000Y-85150000D02*
X159500000Y-85650000D01*
D20*
X160360000Y-89860000D02*
X160360000Y-90760000D01*
X162450000Y-91250000D02*
X162900000Y-90800000D01*
X160850000Y-91250000D02*
X162450000Y-91250000D01*
%TO.N,/Gate 1*%
X161065000Y-87085000D02*
X161630000Y-87650000D01*
X161630000Y-87650000D02*
X161630000Y-89860000D01*
%TO.N,/Gate 2*%
X163665000Y-87085000D02*
X164170000Y-87590000D01*
X164170000Y-87590000D02*
X164170000Y-89860000D01*
%TO.N,/5V*%
X154600000Y-105725000D02*
X159475000Y-110600000D01*
D22*
X154600000Y-103580000D02*
X156100000Y-102080000D01*
X156100000Y-102080000D02*
X156100000Y-82682500D01*
D20*
X154600000Y-103580000D02*
X154600000Y-105725000D01*
%TD*%
M02*
