%TF.GenerationSoftware,KiCad,Pcbnew,(6.0.4)*%
%TF.CreationDate,2022-09-15T01:44:32-04:00*%
%TF.ProjectId,NANO_HAT,4e414e4f-5f48-4415-942e-6b696361645f,rev?*%
%TF.SameCoordinates,Original*%
%TF.FileFunction,Legend,Top*%
%TF.FilePolarity,Positive*%
%FSLAX46Y46*%
G04 Gerber Fmt 4.6, Leading zero omitted, Abs format (unit mm)*
G04 Created by KiCad (PCBNEW (6.0.4)) date 2022-09-15 01:44:32*
%MOMM*%
%LPD*%
G01*
G04 APERTURE LIST*
%ADD10C,0.125000*%
%ADD11C,0.150000*%
%ADD12C,0.010000*%
%ADD13C,0.120000*%
%ADD14C,0.127000*%
%ADD15C,0.200000*%
G04 APERTURE END LIST*
D10*
X144597619Y-79792857D02*
X144573809Y-79864285D01*
X144573809Y-79983333D01*
X144597619Y-80030952D01*
X144621428Y-80054761D01*
X144669047Y-80078571D01*
X144716666Y-80078571D01*
X144764285Y-80054761D01*
X144788095Y-80030952D01*
X144811904Y-79983333D01*
X144835714Y-79888095D01*
X144859523Y-79840476D01*
X144883333Y-79816666D01*
X144930952Y-79792857D01*
X144978571Y-79792857D01*
X145026190Y-79816666D01*
X145050000Y-79840476D01*
X145073809Y-79888095D01*
X145073809Y-80007142D01*
X145050000Y-80078571D01*
X144573809Y-80292857D02*
X145073809Y-80292857D01*
X145073809Y-80411904D01*
X145050000Y-80483333D01*
X145002380Y-80530952D01*
X144954761Y-80554761D01*
X144859523Y-80578571D01*
X144788095Y-80578571D01*
X144692857Y-80554761D01*
X144645238Y-80530952D01*
X144597619Y-80483333D01*
X144573809Y-80411904D01*
X144573809Y-80292857D01*
X144716666Y-80769047D02*
X144716666Y-81007142D01*
X144573809Y-80721428D02*
X145073809Y-80888095D01*
X144573809Y-81054761D01*
X180202380Y-82995238D02*
X180226190Y-82923809D01*
X180226190Y-82804761D01*
X180202380Y-82757142D01*
X180178571Y-82733333D01*
X180130952Y-82709523D01*
X180083333Y-82709523D01*
X180035714Y-82733333D01*
X180011904Y-82757142D01*
X179988095Y-82804761D01*
X179964285Y-82900000D01*
X179940476Y-82947619D01*
X179916666Y-82971428D01*
X179869047Y-82995238D01*
X179821428Y-82995238D01*
X179773809Y-82971428D01*
X179750000Y-82947619D01*
X179726190Y-82900000D01*
X179726190Y-82780952D01*
X179750000Y-82709523D01*
X180178571Y-82209523D02*
X180202380Y-82233333D01*
X180226190Y-82304761D01*
X180226190Y-82352380D01*
X180202380Y-82423809D01*
X180154761Y-82471428D01*
X180107142Y-82495238D01*
X180011904Y-82519047D01*
X179940476Y-82519047D01*
X179845238Y-82495238D01*
X179797619Y-82471428D01*
X179750000Y-82423809D01*
X179726190Y-82352380D01*
X179726190Y-82304761D01*
X179750000Y-82233333D01*
X179773809Y-82209523D01*
X180226190Y-81757142D02*
X180226190Y-81995238D01*
X179726190Y-81995238D01*
X144597619Y-82404761D02*
X144573809Y-82476190D01*
X144573809Y-82595238D01*
X144597619Y-82642857D01*
X144621428Y-82666666D01*
X144669047Y-82690476D01*
X144716666Y-82690476D01*
X144764285Y-82666666D01*
X144788095Y-82642857D01*
X144811904Y-82595238D01*
X144835714Y-82500000D01*
X144859523Y-82452380D01*
X144883333Y-82428571D01*
X144930952Y-82404761D01*
X144978571Y-82404761D01*
X145026190Y-82428571D01*
X145050000Y-82452380D01*
X145073809Y-82500000D01*
X145073809Y-82619047D01*
X145050000Y-82690476D01*
X144621428Y-83190476D02*
X144597619Y-83166666D01*
X144573809Y-83095238D01*
X144573809Y-83047619D01*
X144597619Y-82976190D01*
X144645238Y-82928571D01*
X144692857Y-82904761D01*
X144788095Y-82880952D01*
X144859523Y-82880952D01*
X144954761Y-82904761D01*
X145002380Y-82928571D01*
X145050000Y-82976190D01*
X145073809Y-83047619D01*
X145073809Y-83095238D01*
X145050000Y-83166666D01*
X145026190Y-83190476D01*
X144573809Y-83642857D02*
X144573809Y-83404761D01*
X145073809Y-83404761D01*
X161878571Y-113826190D02*
X161640476Y-113826190D01*
X161640476Y-113326190D01*
X162045238Y-113564285D02*
X162211904Y-113564285D01*
X162283333Y-113826190D02*
X162045238Y-113826190D01*
X162045238Y-113326190D01*
X162283333Y-113326190D01*
X162497619Y-113826190D02*
X162497619Y-113326190D01*
X162616666Y-113326190D01*
X162688095Y-113350000D01*
X162735714Y-113397619D01*
X162759523Y-113445238D01*
X162783333Y-113540476D01*
X162783333Y-113611904D01*
X162759523Y-113707142D01*
X162735714Y-113754761D01*
X162688095Y-113802380D01*
X162616666Y-113826190D01*
X162497619Y-113826190D01*
X144573809Y-87890476D02*
X144573809Y-87604761D01*
X144573809Y-87747619D02*
X145073809Y-87747619D01*
X145002380Y-87700000D01*
X144954761Y-87652380D01*
X144930952Y-87604761D01*
X145026190Y-88080952D02*
X145050000Y-88104761D01*
X145073809Y-88152380D01*
X145073809Y-88271428D01*
X145050000Y-88319047D01*
X145026190Y-88342857D01*
X144978571Y-88366666D01*
X144930952Y-88366666D01*
X144859523Y-88342857D01*
X144573809Y-88057142D01*
X144573809Y-88366666D01*
X145073809Y-88509523D02*
X144573809Y-88676190D01*
X145073809Y-88842857D01*
X159304761Y-113326190D02*
X159066666Y-113326190D01*
X159042857Y-113564285D01*
X159066666Y-113540476D01*
X159114285Y-113516666D01*
X159233333Y-113516666D01*
X159280952Y-113540476D01*
X159304761Y-113564285D01*
X159328571Y-113611904D01*
X159328571Y-113730952D01*
X159304761Y-113778571D01*
X159280952Y-113802380D01*
X159233333Y-113826190D01*
X159114285Y-113826190D01*
X159066666Y-113802380D01*
X159042857Y-113778571D01*
X159471428Y-113326190D02*
X159638095Y-113826190D01*
X159804761Y-113326190D01*
X180202380Y-80407142D02*
X180226190Y-80335714D01*
X180226190Y-80216666D01*
X180202380Y-80169047D01*
X180178571Y-80145238D01*
X180130952Y-80121428D01*
X180083333Y-80121428D01*
X180035714Y-80145238D01*
X180011904Y-80169047D01*
X179988095Y-80216666D01*
X179964285Y-80311904D01*
X179940476Y-80359523D01*
X179916666Y-80383333D01*
X179869047Y-80407142D01*
X179821428Y-80407142D01*
X179773809Y-80383333D01*
X179750000Y-80359523D01*
X179726190Y-80311904D01*
X179726190Y-80192857D01*
X179750000Y-80121428D01*
X180226190Y-79907142D02*
X179726190Y-79907142D01*
X179726190Y-79788095D01*
X179750000Y-79716666D01*
X179797619Y-79669047D01*
X179845238Y-79645238D01*
X179940476Y-79621428D01*
X180011904Y-79621428D01*
X180107142Y-79645238D01*
X180154761Y-79669047D01*
X180202380Y-79716666D01*
X180226190Y-79788095D01*
X180226190Y-79907142D01*
X180083333Y-79430952D02*
X180083333Y-79192857D01*
X180226190Y-79478571D02*
X179726190Y-79311904D01*
X180226190Y-79145238D01*
X145050000Y-85019047D02*
X145073809Y-84971428D01*
X145073809Y-84900000D01*
X145050000Y-84828571D01*
X145002380Y-84780952D01*
X144954761Y-84757142D01*
X144859523Y-84733333D01*
X144788095Y-84733333D01*
X144692857Y-84757142D01*
X144645238Y-84780952D01*
X144597619Y-84828571D01*
X144573809Y-84900000D01*
X144573809Y-84947619D01*
X144597619Y-85019047D01*
X144621428Y-85042857D01*
X144788095Y-85042857D01*
X144788095Y-84947619D01*
X144573809Y-85257142D02*
X145073809Y-85257142D01*
X144573809Y-85542857D01*
X145073809Y-85542857D01*
X144573809Y-85780952D02*
X145073809Y-85780952D01*
X145073809Y-85900000D01*
X145050000Y-85971428D01*
X145002380Y-86019047D01*
X144954761Y-86042857D01*
X144859523Y-86066666D01*
X144788095Y-86066666D01*
X144692857Y-86042857D01*
X144645238Y-86019047D01*
X144597619Y-85971428D01*
X144573809Y-85900000D01*
X144573809Y-85780952D01*
X164419047Y-113350000D02*
X164371428Y-113326190D01*
X164300000Y-113326190D01*
X164228571Y-113350000D01*
X164180952Y-113397619D01*
X164157142Y-113445238D01*
X164133333Y-113540476D01*
X164133333Y-113611904D01*
X164157142Y-113707142D01*
X164180952Y-113754761D01*
X164228571Y-113802380D01*
X164300000Y-113826190D01*
X164347619Y-113826190D01*
X164419047Y-113802380D01*
X164442857Y-113778571D01*
X164442857Y-113611904D01*
X164347619Y-113611904D01*
X164657142Y-113826190D02*
X164657142Y-113326190D01*
X164942857Y-113826190D01*
X164942857Y-113326190D01*
X165180952Y-113826190D02*
X165180952Y-113326190D01*
X165300000Y-113326190D01*
X165371428Y-113350000D01*
X165419047Y-113397619D01*
X165442857Y-113445238D01*
X165466666Y-113540476D01*
X165466666Y-113611904D01*
X165442857Y-113707142D01*
X165419047Y-113754761D01*
X165371428Y-113802380D01*
X165300000Y-113826190D01*
X165180952Y-113826190D01*
X179750000Y-85380952D02*
X179726190Y-85428571D01*
X179726190Y-85500000D01*
X179750000Y-85571428D01*
X179797619Y-85619047D01*
X179845238Y-85642857D01*
X179940476Y-85666666D01*
X180011904Y-85666666D01*
X180107142Y-85642857D01*
X180154761Y-85619047D01*
X180202380Y-85571428D01*
X180226190Y-85500000D01*
X180226190Y-85452380D01*
X180202380Y-85380952D01*
X180178571Y-85357142D01*
X180011904Y-85357142D01*
X180011904Y-85452380D01*
X180226190Y-85142857D02*
X179726190Y-85142857D01*
X180226190Y-84857142D01*
X179726190Y-84857142D01*
X180226190Y-84619047D02*
X179726190Y-84619047D01*
X179726190Y-84500000D01*
X179750000Y-84428571D01*
X179797619Y-84380952D01*
X179845238Y-84357142D01*
X179940476Y-84333333D01*
X180011904Y-84333333D01*
X180107142Y-84357142D01*
X180154761Y-84380952D01*
X180202380Y-84428571D01*
X180226190Y-84500000D01*
X180226190Y-84619047D01*
X180226190Y-87909523D02*
X180226190Y-88195238D01*
X180226190Y-88052380D02*
X179726190Y-88052380D01*
X179797619Y-88100000D01*
X179845238Y-88147619D01*
X179869047Y-88195238D01*
X179773809Y-87719047D02*
X179750000Y-87695238D01*
X179726190Y-87647619D01*
X179726190Y-87528571D01*
X179750000Y-87480952D01*
X179773809Y-87457142D01*
X179821428Y-87433333D01*
X179869047Y-87433333D01*
X179940476Y-87457142D01*
X180226190Y-87742857D01*
X180226190Y-87433333D01*
X179726190Y-87290476D02*
X180226190Y-87123809D01*
X179726190Y-86957142D01*
D11*
%TO.C,J5*%
X147266666Y-90847380D02*
X147266666Y-91561666D01*
X147219047Y-91704523D01*
X147123809Y-91799761D01*
X146980952Y-91847380D01*
X146885714Y-91847380D01*
X148219047Y-90847380D02*
X147742857Y-90847380D01*
X147695238Y-91323571D01*
X147742857Y-91275952D01*
X147838095Y-91228333D01*
X148076190Y-91228333D01*
X148171428Y-91275952D01*
X148219047Y-91323571D01*
X148266666Y-91418809D01*
X148266666Y-91656904D01*
X148219047Y-91752142D01*
X148171428Y-91799761D01*
X148076190Y-91847380D01*
X147838095Y-91847380D01*
X147742857Y-91799761D01*
X147695238Y-91752142D01*
%TO.C,H1*%
X182438095Y-60452380D02*
X182438095Y-59452380D01*
X182438095Y-59928571D02*
X183009523Y-59928571D01*
X183009523Y-60452380D02*
X183009523Y-59452380D01*
X184009523Y-60452380D02*
X183438095Y-60452380D01*
X183723809Y-60452380D02*
X183723809Y-59452380D01*
X183628571Y-59595238D01*
X183533333Y-59690476D01*
X183438095Y-59738095D01*
%TO.C,J7*%
X176866666Y-76922380D02*
X176866666Y-77636666D01*
X176819047Y-77779523D01*
X176723809Y-77874761D01*
X176580952Y-77922380D01*
X176485714Y-77922380D01*
X177247619Y-76922380D02*
X177914285Y-76922380D01*
X177485714Y-77922380D01*
%TO.C,J2*%
X147266666Y-99247380D02*
X147266666Y-99961666D01*
X147219047Y-100104523D01*
X147123809Y-100199761D01*
X146980952Y-100247380D01*
X146885714Y-100247380D01*
X147695238Y-99342619D02*
X147742857Y-99295000D01*
X147838095Y-99247380D01*
X148076190Y-99247380D01*
X148171428Y-99295000D01*
X148219047Y-99342619D01*
X148266666Y-99437857D01*
X148266666Y-99533095D01*
X148219047Y-99675952D01*
X147647619Y-100247380D01*
X148266666Y-100247380D01*
%TO.C,TB1*%
X160433333Y-105233333D02*
X161233333Y-105233333D01*
X160833333Y-106633333D02*
X160833333Y-105233333D01*
X162166666Y-105900000D02*
X162366666Y-105966666D01*
X162433333Y-106033333D01*
X162500000Y-106166666D01*
X162500000Y-106366666D01*
X162433333Y-106500000D01*
X162366666Y-106566666D01*
X162233333Y-106633333D01*
X161700000Y-106633333D01*
X161700000Y-105233333D01*
X162166666Y-105233333D01*
X162300000Y-105300000D01*
X162366666Y-105366666D01*
X162433333Y-105500000D01*
X162433333Y-105633333D01*
X162366666Y-105766666D01*
X162300000Y-105833333D01*
X162166666Y-105900000D01*
X161700000Y-105900000D01*
X163833333Y-106633333D02*
X163033333Y-106633333D01*
X163433333Y-106633333D02*
X163433333Y-105233333D01*
X163300000Y-105433333D01*
X163166666Y-105566666D01*
X163033333Y-105633333D01*
%TO.C,J3*%
X176966666Y-90752380D02*
X176966666Y-91466666D01*
X176919047Y-91609523D01*
X176823809Y-91704761D01*
X176680952Y-91752380D01*
X176585714Y-91752380D01*
X177347619Y-90752380D02*
X177966666Y-90752380D01*
X177633333Y-91133333D01*
X177776190Y-91133333D01*
X177871428Y-91180952D01*
X177919047Y-91228571D01*
X177966666Y-91323809D01*
X177966666Y-91561904D01*
X177919047Y-91657142D01*
X177871428Y-91704761D01*
X177776190Y-91752380D01*
X177490476Y-91752380D01*
X177395238Y-91704761D01*
X177347619Y-91657142D01*
%TO.C,J4*%
X147466666Y-77522380D02*
X147466666Y-78236666D01*
X147419047Y-78379523D01*
X147323809Y-78474761D01*
X147180952Y-78522380D01*
X147085714Y-78522380D01*
X148371428Y-77855714D02*
X148371428Y-78522380D01*
X148133333Y-77474761D02*
X147895238Y-78189047D01*
X148514285Y-78189047D01*
%TO.C,H3*%
X140838095Y-108052380D02*
X140838095Y-107052380D01*
X140838095Y-107528571D02*
X141409523Y-107528571D01*
X141409523Y-108052380D02*
X141409523Y-107052380D01*
X141790476Y-107052380D02*
X142409523Y-107052380D01*
X142076190Y-107433333D01*
X142219047Y-107433333D01*
X142314285Y-107480952D01*
X142361904Y-107528571D01*
X142409523Y-107623809D01*
X142409523Y-107861904D01*
X142361904Y-107957142D01*
X142314285Y-108004761D01*
X142219047Y-108052380D01*
X141933333Y-108052380D01*
X141838095Y-108004761D01*
X141790476Y-107957142D01*
%TO.C,J6*%
X176866666Y-99152380D02*
X176866666Y-99866666D01*
X176819047Y-100009523D01*
X176723809Y-100104761D01*
X176580952Y-100152380D01*
X176485714Y-100152380D01*
X177771428Y-99152380D02*
X177580952Y-99152380D01*
X177485714Y-99200000D01*
X177438095Y-99247619D01*
X177342857Y-99390476D01*
X177295238Y-99580952D01*
X177295238Y-99961904D01*
X177342857Y-100057142D01*
X177390476Y-100104761D01*
X177485714Y-100152380D01*
X177676190Y-100152380D01*
X177771428Y-100104761D01*
X177819047Y-100057142D01*
X177866666Y-99961904D01*
X177866666Y-99723809D01*
X177819047Y-99628571D01*
X177771428Y-99580952D01*
X177676190Y-99533333D01*
X177485714Y-99533333D01*
X177390476Y-99580952D01*
X177342857Y-99628571D01*
X177295238Y-99723809D01*
%TO.C,H4*%
X182438095Y-108052380D02*
X182438095Y-107052380D01*
X182438095Y-107528571D02*
X183009523Y-107528571D01*
X183009523Y-108052380D02*
X183009523Y-107052380D01*
X183914285Y-107385714D02*
X183914285Y-108052380D01*
X183676190Y-107004761D02*
X183438095Y-107719047D01*
X184057142Y-107719047D01*
%TO.C,J1*%
X156597380Y-110933333D02*
X157311666Y-110933333D01*
X157454523Y-110980952D01*
X157549761Y-111076190D01*
X157597380Y-111219047D01*
X157597380Y-111314285D01*
X157597380Y-109933333D02*
X157597380Y-110504761D01*
X157597380Y-110219047D02*
X156597380Y-110219047D01*
X156740238Y-110314285D01*
X156835476Y-110409523D01*
X156883095Y-110504761D01*
%TO.C,H2*%
X140838095Y-60252380D02*
X140838095Y-59252380D01*
X140838095Y-59728571D02*
X141409523Y-59728571D01*
X141409523Y-60252380D02*
X141409523Y-59252380D01*
X141838095Y-59347619D02*
X141885714Y-59300000D01*
X141980952Y-59252380D01*
X142219047Y-59252380D01*
X142314285Y-59300000D01*
X142361904Y-59347619D01*
X142409523Y-59442857D01*
X142409523Y-59538095D01*
X142361904Y-59680952D01*
X141790476Y-60252380D01*
X142409523Y-60252380D01*
%TO.C,G\u002A\u002A\u002A*%
G36*
X139937172Y-94673702D02*
G01*
X139947265Y-94806026D01*
X139930488Y-94835980D01*
X139892006Y-94810729D01*
X139886019Y-94724855D01*
X139906696Y-94634512D01*
X139937172Y-94673702D01*
G37*
D12*
X139937172Y-94673702D02*
X139947265Y-94806026D01*
X139930488Y-94835980D01*
X139892006Y-94810729D01*
X139886019Y-94724855D01*
X139906696Y-94634512D01*
X139937172Y-94673702D01*
G36*
X139298603Y-73016074D02*
G01*
X139152320Y-73125502D01*
X139083156Y-73168214D01*
X138854618Y-73343753D01*
X138614552Y-73588460D01*
X138518655Y-73707876D01*
X138203840Y-74202155D01*
X137950973Y-74755373D01*
X137754798Y-75388741D01*
X137610061Y-76123476D01*
X137511506Y-76980790D01*
X137453878Y-77981897D01*
X137452871Y-78010244D01*
X137436817Y-78878735D01*
X137449916Y-79775778D01*
X137493878Y-80713348D01*
X137570413Y-81703422D01*
X137681230Y-82757973D01*
X137828039Y-83888978D01*
X138012551Y-85108412D01*
X138236473Y-86428250D01*
X138501518Y-87860467D01*
X138809393Y-89417040D01*
X139161810Y-91109944D01*
X139560476Y-92951153D01*
X139632842Y-93279179D01*
X139722493Y-93702512D01*
X139791715Y-94064836D01*
X139835172Y-94335217D01*
X139847531Y-94482726D01*
X139843344Y-94499790D01*
X139794529Y-94517471D01*
X139794003Y-94513188D01*
X139773042Y-94410210D01*
X139716094Y-94172580D01*
X139630594Y-93829317D01*
X139523978Y-93409439D01*
X139403680Y-92941967D01*
X139277135Y-92455920D01*
X139151778Y-91980316D01*
X139035043Y-91544175D01*
X139004052Y-91429910D01*
X138670422Y-90125136D01*
X138351674Y-88726036D01*
X138054713Y-87271577D01*
X137786440Y-85800726D01*
X137553760Y-84352449D01*
X137363575Y-82965714D01*
X137222789Y-81679487D01*
X137174140Y-81100577D01*
X137113557Y-79949924D01*
X137101843Y-78822233D01*
X137138864Y-77771211D01*
X137183799Y-77205910D01*
X137306972Y-76345514D01*
X137496485Y-75529569D01*
X137742361Y-74786874D01*
X138034624Y-74146232D01*
X138363299Y-73636443D01*
X138459936Y-73521693D01*
X138631161Y-73361532D01*
X138849041Y-73195806D01*
X139069135Y-73053359D01*
X139247000Y-72963034D01*
X139337070Y-72952423D01*
X139298603Y-73016074D01*
G37*
X139298603Y-73016074D02*
X139152320Y-73125502D01*
X139083156Y-73168214D01*
X138854618Y-73343753D01*
X138614552Y-73588460D01*
X138518655Y-73707876D01*
X138203840Y-74202155D01*
X137950973Y-74755373D01*
X137754798Y-75388741D01*
X137610061Y-76123476D01*
X137511506Y-76980790D01*
X137453878Y-77981897D01*
X137452871Y-78010244D01*
X137436817Y-78878735D01*
X137449916Y-79775778D01*
X137493878Y-80713348D01*
X137570413Y-81703422D01*
X137681230Y-82757973D01*
X137828039Y-83888978D01*
X138012551Y-85108412D01*
X138236473Y-86428250D01*
X138501518Y-87860467D01*
X138809393Y-89417040D01*
X139161810Y-91109944D01*
X139560476Y-92951153D01*
X139632842Y-93279179D01*
X139722493Y-93702512D01*
X139791715Y-94064836D01*
X139835172Y-94335217D01*
X139847531Y-94482726D01*
X139843344Y-94499790D01*
X139794529Y-94517471D01*
X139794003Y-94513188D01*
X139773042Y-94410210D01*
X139716094Y-94172580D01*
X139630594Y-93829317D01*
X139523978Y-93409439D01*
X139403680Y-92941967D01*
X139277135Y-92455920D01*
X139151778Y-91980316D01*
X139035043Y-91544175D01*
X139004052Y-91429910D01*
X138670422Y-90125136D01*
X138351674Y-88726036D01*
X138054713Y-87271577D01*
X137786440Y-85800726D01*
X137553760Y-84352449D01*
X137363575Y-82965714D01*
X137222789Y-81679487D01*
X137174140Y-81100577D01*
X137113557Y-79949924D01*
X137101843Y-78822233D01*
X137138864Y-77771211D01*
X137183799Y-77205910D01*
X137306972Y-76345514D01*
X137496485Y-75529569D01*
X137742361Y-74786874D01*
X138034624Y-74146232D01*
X138363299Y-73636443D01*
X138459936Y-73521693D01*
X138631161Y-73361532D01*
X138849041Y-73195806D01*
X139069135Y-73053359D01*
X139247000Y-72963034D01*
X139337070Y-72952423D01*
X139298603Y-73016074D01*
G36*
X140048668Y-95070577D02*
G01*
X140112160Y-95250081D01*
X140120177Y-95342697D01*
X140072717Y-95316489D01*
X140048668Y-95282244D01*
X139978468Y-95101502D01*
X139971249Y-95028244D01*
X139995423Y-94977613D01*
X140048668Y-95070577D01*
G37*
X140048668Y-95070577D02*
X140112160Y-95250081D01*
X140120177Y-95342697D01*
X140072717Y-95316489D01*
X140048668Y-95282244D01*
X139978468Y-95101502D01*
X139971249Y-95028244D01*
X139995423Y-94977613D01*
X140048668Y-95070577D01*
G36*
X141037917Y-96213077D02*
G01*
X141129384Y-96627835D01*
X141117295Y-96869255D01*
X141108491Y-97117609D01*
X141153316Y-97412146D01*
X141259891Y-97797424D01*
X141320286Y-97982911D01*
X141443573Y-98396899D01*
X141528314Y-98775154D01*
X141572432Y-99092455D01*
X141573850Y-99323582D01*
X141530491Y-99443314D01*
X141440280Y-99426431D01*
X141439063Y-99425429D01*
X141327456Y-99289730D01*
X141184125Y-99060151D01*
X141090745Y-98885895D01*
X140952220Y-98624244D01*
X140826995Y-98412499D01*
X140769095Y-98330244D01*
X140671192Y-98168446D01*
X140567401Y-97933014D01*
X140550328Y-97886451D01*
X140408478Y-97629664D01*
X140188973Y-97374905D01*
X140111380Y-97306781D01*
X139899253Y-97117812D01*
X139758987Y-96928473D01*
X139650443Y-96674819D01*
X139584569Y-96467577D01*
X139556879Y-96352823D01*
X139585860Y-96335497D01*
X139695158Y-96423630D01*
X139830956Y-96551265D01*
X140028823Y-96722397D01*
X140148269Y-96774933D01*
X140210634Y-96733497D01*
X140339794Y-96646961D01*
X140524442Y-96608528D01*
X140747622Y-96564625D01*
X140861888Y-96435138D01*
X140900598Y-96181325D01*
X140900945Y-96171244D01*
X140909148Y-95917244D01*
X141037917Y-96213077D01*
G37*
X141037917Y-96213077D02*
X141129384Y-96627835D01*
X141117295Y-96869255D01*
X141108491Y-97117609D01*
X141153316Y-97412146D01*
X141259891Y-97797424D01*
X141320286Y-97982911D01*
X141443573Y-98396899D01*
X141528314Y-98775154D01*
X141572432Y-99092455D01*
X141573850Y-99323582D01*
X141530491Y-99443314D01*
X141440280Y-99426431D01*
X141439063Y-99425429D01*
X141327456Y-99289730D01*
X141184125Y-99060151D01*
X141090745Y-98885895D01*
X140952220Y-98624244D01*
X140826995Y-98412499D01*
X140769095Y-98330244D01*
X140671192Y-98168446D01*
X140567401Y-97933014D01*
X140550328Y-97886451D01*
X140408478Y-97629664D01*
X140188973Y-97374905D01*
X140111380Y-97306781D01*
X139899253Y-97117812D01*
X139758987Y-96928473D01*
X139650443Y-96674819D01*
X139584569Y-96467577D01*
X139556879Y-96352823D01*
X139585860Y-96335497D01*
X139695158Y-96423630D01*
X139830956Y-96551265D01*
X140028823Y-96722397D01*
X140148269Y-96774933D01*
X140210634Y-96733497D01*
X140339794Y-96646961D01*
X140524442Y-96608528D01*
X140747622Y-96564625D01*
X140861888Y-96435138D01*
X140900598Y-96181325D01*
X140900945Y-96171244D01*
X140909148Y-95917244D01*
X141037917Y-96213077D01*
G36*
X139554859Y-97113166D02*
G01*
X139710648Y-97251410D01*
X139905293Y-97430297D01*
X140302668Y-97800350D01*
X140302668Y-99485791D01*
X140299506Y-100131927D01*
X140286906Y-100628216D01*
X140260198Y-100994081D01*
X140214710Y-101248941D01*
X140145772Y-101412217D01*
X140048713Y-101503330D01*
X139918863Y-101541700D01*
X139806801Y-101547577D01*
X139672148Y-101541857D01*
X139568628Y-101511667D01*
X139492330Y-101437461D01*
X139439342Y-101299694D01*
X139405751Y-101078818D01*
X139387646Y-100755290D01*
X139381115Y-100309562D01*
X139382247Y-99722090D01*
X139384021Y-99435144D01*
X139389242Y-98869668D01*
X139396797Y-98349553D01*
X139406060Y-97902706D01*
X139416408Y-97557034D01*
X139427215Y-97340447D01*
X139431978Y-97293077D01*
X139463871Y-97124449D01*
X139487583Y-97060244D01*
X139554859Y-97113166D01*
G37*
X139554859Y-97113166D02*
X139710648Y-97251410D01*
X139905293Y-97430297D01*
X140302668Y-97800350D01*
X140302668Y-99485791D01*
X140299506Y-100131927D01*
X140286906Y-100628216D01*
X140260198Y-100994081D01*
X140214710Y-101248941D01*
X140145772Y-101412217D01*
X140048713Y-101503330D01*
X139918863Y-101541700D01*
X139806801Y-101547577D01*
X139672148Y-101541857D01*
X139568628Y-101511667D01*
X139492330Y-101437461D01*
X139439342Y-101299694D01*
X139405751Y-101078818D01*
X139387646Y-100755290D01*
X139381115Y-100309562D01*
X139382247Y-99722090D01*
X139384021Y-99435144D01*
X139389242Y-98869668D01*
X139396797Y-98349553D01*
X139406060Y-97902706D01*
X139416408Y-97557034D01*
X139427215Y-97340447D01*
X139431978Y-97293077D01*
X139463871Y-97124449D01*
X139487583Y-97060244D01*
X139554859Y-97113166D01*
G36*
X143725351Y-88308218D02*
G01*
X143877072Y-88315987D01*
X143998367Y-88339632D01*
X144092643Y-88396306D01*
X144163303Y-88503165D01*
X144213753Y-88677363D01*
X144247396Y-88936054D01*
X144267638Y-89296392D01*
X144277883Y-89775532D01*
X144281536Y-90390628D01*
X144282001Y-91112897D01*
X144281303Y-91834176D01*
X144278368Y-92407254D01*
X144271942Y-92853258D01*
X144260766Y-93193316D01*
X144243586Y-93448558D01*
X144219143Y-93640112D01*
X144186183Y-93789106D01*
X144143447Y-93916669D01*
X144110503Y-93996548D01*
X143878648Y-94380693D01*
X143558038Y-94642481D01*
X143128020Y-94794677D01*
X142740537Y-94843479D01*
X142172260Y-94818016D01*
X141715707Y-94666040D01*
X141369200Y-94386793D01*
X141210003Y-94151487D01*
X141152614Y-94035335D01*
X141107569Y-93912140D01*
X141072847Y-93759459D01*
X141046424Y-93554845D01*
X141026279Y-93275856D01*
X141010388Y-92900046D01*
X140996729Y-92404971D01*
X140983280Y-91768188D01*
X140980001Y-91599244D01*
X140937668Y-89397910D01*
X140304812Y-89372650D01*
X139875614Y-89333478D01*
X139591235Y-89248695D01*
X139430571Y-89106502D01*
X139372518Y-88895094D01*
X139371335Y-88850637D01*
X139416957Y-88612509D01*
X139491671Y-88461592D01*
X139572255Y-88381689D01*
X139696174Y-88332401D01*
X139900929Y-88306749D01*
X140224025Y-88297751D01*
X140374555Y-88297244D01*
X140763868Y-88303645D01*
X141028498Y-88328026D01*
X141212786Y-88378150D01*
X141361074Y-88461781D01*
X141376052Y-88472595D01*
X141531404Y-88595793D01*
X141653478Y-88725167D01*
X141746261Y-88881962D01*
X141813740Y-89087420D01*
X141859901Y-89362784D01*
X141888731Y-89729296D01*
X141904217Y-90208199D01*
X141910346Y-90820737D01*
X141911203Y-91324077D01*
X141911953Y-91975834D01*
X141915159Y-92479514D01*
X141922392Y-92856371D01*
X141935223Y-93127657D01*
X141955225Y-93314627D01*
X141983969Y-93438534D01*
X142023026Y-93520632D01*
X142073968Y-93582174D01*
X142078515Y-93586757D01*
X142287505Y-93736180D01*
X142461158Y-93808014D01*
X142695801Y-93811554D01*
X142961778Y-93742581D01*
X143179410Y-93626585D01*
X143246651Y-93556719D01*
X143263384Y-93451169D01*
X143281172Y-93197836D01*
X143299179Y-92818260D01*
X143316567Y-92333979D01*
X143332501Y-91766533D01*
X143346142Y-91137463D01*
X143350668Y-90879577D01*
X143393001Y-88297244D01*
X143725351Y-88308218D01*
G37*
X143725351Y-88308218D02*
X143877072Y-88315987D01*
X143998367Y-88339632D01*
X144092643Y-88396306D01*
X144163303Y-88503165D01*
X144213753Y-88677363D01*
X144247396Y-88936054D01*
X144267638Y-89296392D01*
X144277883Y-89775532D01*
X144281536Y-90390628D01*
X144282001Y-91112897D01*
X144281303Y-91834176D01*
X144278368Y-92407254D01*
X144271942Y-92853258D01*
X144260766Y-93193316D01*
X144243586Y-93448558D01*
X144219143Y-93640112D01*
X144186183Y-93789106D01*
X144143447Y-93916669D01*
X144110503Y-93996548D01*
X143878648Y-94380693D01*
X143558038Y-94642481D01*
X143128020Y-94794677D01*
X142740537Y-94843479D01*
X142172260Y-94818016D01*
X141715707Y-94666040D01*
X141369200Y-94386793D01*
X141210003Y-94151487D01*
X141152614Y-94035335D01*
X141107569Y-93912140D01*
X141072847Y-93759459D01*
X141046424Y-93554845D01*
X141026279Y-93275856D01*
X141010388Y-92900046D01*
X140996729Y-92404971D01*
X140983280Y-91768188D01*
X140980001Y-91599244D01*
X140937668Y-89397910D01*
X140304812Y-89372650D01*
X139875614Y-89333478D01*
X139591235Y-89248695D01*
X139430571Y-89106502D01*
X139372518Y-88895094D01*
X139371335Y-88850637D01*
X139416957Y-88612509D01*
X139491671Y-88461592D01*
X139572255Y-88381689D01*
X139696174Y-88332401D01*
X139900929Y-88306749D01*
X140224025Y-88297751D01*
X140374555Y-88297244D01*
X140763868Y-88303645D01*
X141028498Y-88328026D01*
X141212786Y-88378150D01*
X141361074Y-88461781D01*
X141376052Y-88472595D01*
X141531404Y-88595793D01*
X141653478Y-88725167D01*
X141746261Y-88881962D01*
X141813740Y-89087420D01*
X141859901Y-89362784D01*
X141888731Y-89729296D01*
X141904217Y-90208199D01*
X141910346Y-90820737D01*
X141911203Y-91324077D01*
X141911953Y-91975834D01*
X141915159Y-92479514D01*
X141922392Y-92856371D01*
X141935223Y-93127657D01*
X141955225Y-93314627D01*
X141983969Y-93438534D01*
X142023026Y-93520632D01*
X142073968Y-93582174D01*
X142078515Y-93586757D01*
X142287505Y-93736180D01*
X142461158Y-93808014D01*
X142695801Y-93811554D01*
X142961778Y-93742581D01*
X143179410Y-93626585D01*
X143246651Y-93556719D01*
X143263384Y-93451169D01*
X143281172Y-93197836D01*
X143299179Y-92818260D01*
X143316567Y-92333979D01*
X143332501Y-91766533D01*
X143346142Y-91137463D01*
X143350668Y-90879577D01*
X143393001Y-88297244D01*
X143725351Y-88308218D01*
G36*
X143234656Y-95624655D02*
G01*
X143647970Y-95640550D01*
X143936279Y-95675585D01*
X144121705Y-95736751D01*
X144226375Y-95831039D01*
X144272412Y-95965438D01*
X144282001Y-96128910D01*
X144269635Y-96307831D01*
X144217641Y-96439257D01*
X144103677Y-96530414D01*
X143905400Y-96588523D01*
X143600467Y-96620810D01*
X143166536Y-96634498D01*
X142710757Y-96636910D01*
X141405607Y-96636910D01*
X141287554Y-96354369D01*
X141162574Y-96040535D01*
X141106046Y-95845899D01*
X141113456Y-95736849D01*
X141180288Y-95679776D01*
X141196070Y-95673270D01*
X141324557Y-95655320D01*
X141589908Y-95640022D01*
X141959659Y-95628527D01*
X142401348Y-95621983D01*
X142674212Y-95620910D01*
X143234656Y-95624655D01*
G37*
X143234656Y-95624655D02*
X143647970Y-95640550D01*
X143936279Y-95675585D01*
X144121705Y-95736751D01*
X144226375Y-95831039D01*
X144272412Y-95965438D01*
X144282001Y-96128910D01*
X144269635Y-96307831D01*
X144217641Y-96439257D01*
X144103677Y-96530414D01*
X143905400Y-96588523D01*
X143600467Y-96620810D01*
X143166536Y-96634498D01*
X142710757Y-96636910D01*
X141405607Y-96636910D01*
X141287554Y-96354369D01*
X141162574Y-96040535D01*
X141106046Y-95845899D01*
X141113456Y-95736849D01*
X141180288Y-95679776D01*
X141196070Y-95673270D01*
X141324557Y-95655320D01*
X141589908Y-95640022D01*
X141959659Y-95628527D01*
X142401348Y-95621983D01*
X142674212Y-95620910D01*
X143234656Y-95624655D01*
G36*
X142185178Y-73548664D02*
G01*
X142766173Y-73691712D01*
X143282775Y-73949083D01*
X143710443Y-74310163D01*
X144024638Y-74764336D01*
X144135574Y-75035466D01*
X144185558Y-75274382D01*
X144226491Y-75634672D01*
X144258294Y-76088685D01*
X144280890Y-76608768D01*
X144294203Y-77167272D01*
X144298156Y-77736544D01*
X144292670Y-78288933D01*
X144277668Y-78796790D01*
X144253074Y-79232461D01*
X144218810Y-79568296D01*
X144174798Y-79776644D01*
X144148954Y-79824529D01*
X143926638Y-79945850D01*
X143684074Y-79907889D01*
X143520001Y-79788244D01*
X143465856Y-79725173D01*
X143424645Y-79643620D01*
X143394613Y-79521478D01*
X143374003Y-79336638D01*
X143361061Y-79066996D01*
X143354030Y-78690443D01*
X143351155Y-78184874D01*
X143350668Y-77655975D01*
X143349576Y-77020326D01*
X143345116Y-76529777D01*
X143335515Y-76160101D01*
X143319000Y-75887074D01*
X143293795Y-75686469D01*
X143258128Y-75534060D01*
X143210224Y-75405621D01*
X143181327Y-75343228D01*
X143042199Y-75136049D01*
X142845521Y-74935272D01*
X142631531Y-74771268D01*
X142440468Y-74674409D01*
X142312568Y-74675068D01*
X142304837Y-74681630D01*
X142290123Y-74777752D01*
X142276901Y-75020293D01*
X142265726Y-75386341D01*
X142257150Y-75852986D01*
X142251728Y-76397316D01*
X142250001Y-76949088D01*
X142249120Y-77651205D01*
X142244362Y-78202252D01*
X142232557Y-78620492D01*
X142210537Y-78924186D01*
X142175131Y-79131596D01*
X142123169Y-79260985D01*
X142051481Y-79330614D01*
X141956898Y-79358746D01*
X141836249Y-79363642D01*
X141830901Y-79363614D01*
X141695686Y-79360790D01*
X141589198Y-79342001D01*
X141507763Y-79289049D01*
X141447706Y-79183740D01*
X141405353Y-79007878D01*
X141377029Y-78743268D01*
X141359059Y-78371713D01*
X141347769Y-77875019D01*
X141339484Y-77234990D01*
X141335948Y-76912760D01*
X141327187Y-76310019D01*
X141315138Y-75766707D01*
X141300620Y-75304622D01*
X141284455Y-74945564D01*
X141267463Y-74711331D01*
X141250464Y-74623723D01*
X141249768Y-74623577D01*
X141147895Y-74667314D01*
X140964653Y-74777172D01*
X140884756Y-74830073D01*
X140713737Y-74955474D01*
X140579840Y-75086410D01*
X140478551Y-75244517D01*
X140405357Y-75451432D01*
X140355747Y-75728790D01*
X140325207Y-76098226D01*
X140309225Y-76581377D01*
X140303287Y-77199879D01*
X140302668Y-77620872D01*
X140301924Y-78255455D01*
X140298551Y-78742586D01*
X140290840Y-79104145D01*
X140277082Y-79362011D01*
X140255567Y-79538065D01*
X140224586Y-79654185D01*
X140182430Y-79732251D01*
X140133335Y-79788244D01*
X139907575Y-79937203D01*
X139664365Y-79926896D01*
X139535102Y-79869931D01*
X139485203Y-79835396D01*
X139446733Y-79778451D01*
X139418320Y-79679062D01*
X139398593Y-79517194D01*
X139386179Y-79272813D01*
X139379707Y-78925884D01*
X139377803Y-78456373D01*
X139379097Y-77844246D01*
X139380001Y-77605098D01*
X139384727Y-77000834D01*
X139393483Y-76440884D01*
X139405517Y-75951212D01*
X139420075Y-75557782D01*
X139436406Y-75286558D01*
X139450504Y-75173910D01*
X139656882Y-74666407D01*
X139998041Y-74219323D01*
X140441587Y-73866108D01*
X140928170Y-73648003D01*
X141564330Y-73530555D01*
X142185178Y-73548664D01*
G37*
X142185178Y-73548664D02*
X142766173Y-73691712D01*
X143282775Y-73949083D01*
X143710443Y-74310163D01*
X144024638Y-74764336D01*
X144135574Y-75035466D01*
X144185558Y-75274382D01*
X144226491Y-75634672D01*
X144258294Y-76088685D01*
X144280890Y-76608768D01*
X144294203Y-77167272D01*
X144298156Y-77736544D01*
X144292670Y-78288933D01*
X144277668Y-78796790D01*
X144253074Y-79232461D01*
X144218810Y-79568296D01*
X144174798Y-79776644D01*
X144148954Y-79824529D01*
X143926638Y-79945850D01*
X143684074Y-79907889D01*
X143520001Y-79788244D01*
X143465856Y-79725173D01*
X143424645Y-79643620D01*
X143394613Y-79521478D01*
X143374003Y-79336638D01*
X143361061Y-79066996D01*
X143354030Y-78690443D01*
X143351155Y-78184874D01*
X143350668Y-77655975D01*
X143349576Y-77020326D01*
X143345116Y-76529777D01*
X143335515Y-76160101D01*
X143319000Y-75887074D01*
X143293795Y-75686469D01*
X143258128Y-75534060D01*
X143210224Y-75405621D01*
X143181327Y-75343228D01*
X143042199Y-75136049D01*
X142845521Y-74935272D01*
X142631531Y-74771268D01*
X142440468Y-74674409D01*
X142312568Y-74675068D01*
X142304837Y-74681630D01*
X142290123Y-74777752D01*
X142276901Y-75020293D01*
X142265726Y-75386341D01*
X142257150Y-75852986D01*
X142251728Y-76397316D01*
X142250001Y-76949088D01*
X142249120Y-77651205D01*
X142244362Y-78202252D01*
X142232557Y-78620492D01*
X142210537Y-78924186D01*
X142175131Y-79131596D01*
X142123169Y-79260985D01*
X142051481Y-79330614D01*
X141956898Y-79358746D01*
X141836249Y-79363642D01*
X141830901Y-79363614D01*
X141695686Y-79360790D01*
X141589198Y-79342001D01*
X141507763Y-79289049D01*
X141447706Y-79183740D01*
X141405353Y-79007878D01*
X141377029Y-78743268D01*
X141359059Y-78371713D01*
X141347769Y-77875019D01*
X141339484Y-77234990D01*
X141335948Y-76912760D01*
X141327187Y-76310019D01*
X141315138Y-75766707D01*
X141300620Y-75304622D01*
X141284455Y-74945564D01*
X141267463Y-74711331D01*
X141250464Y-74623723D01*
X141249768Y-74623577D01*
X141147895Y-74667314D01*
X140964653Y-74777172D01*
X140884756Y-74830073D01*
X140713737Y-74955474D01*
X140579840Y-75086410D01*
X140478551Y-75244517D01*
X140405357Y-75451432D01*
X140355747Y-75728790D01*
X140325207Y-76098226D01*
X140309225Y-76581377D01*
X140303287Y-77199879D01*
X140302668Y-77620872D01*
X140301924Y-78255455D01*
X140298551Y-78742586D01*
X140290840Y-79104145D01*
X140277082Y-79362011D01*
X140255567Y-79538065D01*
X140224586Y-79654185D01*
X140182430Y-79732251D01*
X140133335Y-79788244D01*
X139907575Y-79937203D01*
X139664365Y-79926896D01*
X139535102Y-79869931D01*
X139485203Y-79835396D01*
X139446733Y-79778451D01*
X139418320Y-79679062D01*
X139398593Y-79517194D01*
X139386179Y-79272813D01*
X139379707Y-78925884D01*
X139377803Y-78456373D01*
X139379097Y-77844246D01*
X139380001Y-77605098D01*
X139384727Y-77000834D01*
X139393483Y-76440884D01*
X139405517Y-75951212D01*
X139420075Y-75557782D01*
X139436406Y-75286558D01*
X139450504Y-75173910D01*
X139656882Y-74666407D01*
X139998041Y-74219323D01*
X140441587Y-73866108D01*
X140928170Y-73648003D01*
X141564330Y-73530555D01*
X142185178Y-73548664D01*
G36*
X143995729Y-80910341D02*
G01*
X144146071Y-80986005D01*
X144194356Y-81052677D01*
X144219255Y-81183318D01*
X144240024Y-81457017D01*
X144256640Y-81847548D01*
X144269079Y-82328686D01*
X144277319Y-82874207D01*
X144281337Y-83457883D01*
X144281110Y-84053490D01*
X144276615Y-84634802D01*
X144267830Y-85175595D01*
X144254732Y-85649642D01*
X144237297Y-86030717D01*
X144215503Y-86292596D01*
X144199002Y-86386429D01*
X144038442Y-86714095D01*
X143773575Y-87028596D01*
X143460975Y-87263923D01*
X143435335Y-87277487D01*
X143034793Y-87411363D01*
X142586761Y-87449492D01*
X142145643Y-87396272D01*
X141765844Y-87256099D01*
X141585591Y-87127982D01*
X141423087Y-86974697D01*
X141295200Y-86838292D01*
X141197364Y-86696627D01*
X141125014Y-86527558D01*
X141073584Y-86308945D01*
X141038509Y-86018645D01*
X141015224Y-85634517D01*
X140999163Y-85134418D01*
X140985761Y-84496208D01*
X140980001Y-84190910D01*
X140937668Y-81947244D01*
X140235856Y-81904910D01*
X139842057Y-81870548D01*
X139588356Y-81813129D01*
X139445620Y-81715456D01*
X139384715Y-81560334D01*
X139375206Y-81396910D01*
X139410670Y-81168863D01*
X139462783Y-81037077D01*
X139529059Y-80966454D01*
X139650685Y-80922038D01*
X139861416Y-80898240D01*
X140195007Y-80889467D01*
X140357305Y-80888910D01*
X140754994Y-80894296D01*
X141026945Y-80915402D01*
X141216553Y-80959649D01*
X141367209Y-81034458D01*
X141421011Y-81070830D01*
X141563189Y-81182687D01*
X141675019Y-81306312D01*
X141760109Y-81462488D01*
X141822066Y-81671997D01*
X141864497Y-81955624D01*
X141891011Y-82334150D01*
X141905213Y-82828359D01*
X141910712Y-83459033D01*
X141911335Y-83895706D01*
X141911335Y-85976607D01*
X142119153Y-86184425D01*
X142393803Y-86357996D01*
X142631002Y-86392244D01*
X142954022Y-86323151D01*
X143142850Y-86184425D01*
X143350668Y-85976607D01*
X143350668Y-80888910D01*
X143728689Y-80888910D01*
X143995729Y-80910341D01*
G37*
X143995729Y-80910341D02*
X144146071Y-80986005D01*
X144194356Y-81052677D01*
X144219255Y-81183318D01*
X144240024Y-81457017D01*
X144256640Y-81847548D01*
X144269079Y-82328686D01*
X144277319Y-82874207D01*
X144281337Y-83457883D01*
X144281110Y-84053490D01*
X144276615Y-84634802D01*
X144267830Y-85175595D01*
X144254732Y-85649642D01*
X144237297Y-86030717D01*
X144215503Y-86292596D01*
X144199002Y-86386429D01*
X144038442Y-86714095D01*
X143773575Y-87028596D01*
X143460975Y-87263923D01*
X143435335Y-87277487D01*
X143034793Y-87411363D01*
X142586761Y-87449492D01*
X142145643Y-87396272D01*
X141765844Y-87256099D01*
X141585591Y-87127982D01*
X141423087Y-86974697D01*
X141295200Y-86838292D01*
X141197364Y-86696627D01*
X141125014Y-86527558D01*
X141073584Y-86308945D01*
X141038509Y-86018645D01*
X141015224Y-85634517D01*
X140999163Y-85134418D01*
X140985761Y-84496208D01*
X140980001Y-84190910D01*
X140937668Y-81947244D01*
X140235856Y-81904910D01*
X139842057Y-81870548D01*
X139588356Y-81813129D01*
X139445620Y-81715456D01*
X139384715Y-81560334D01*
X139375206Y-81396910D01*
X139410670Y-81168863D01*
X139462783Y-81037077D01*
X139529059Y-80966454D01*
X139650685Y-80922038D01*
X139861416Y-80898240D01*
X140195007Y-80889467D01*
X140357305Y-80888910D01*
X140754994Y-80894296D01*
X141026945Y-80915402D01*
X141216553Y-80959649D01*
X141367209Y-81034458D01*
X141421011Y-81070830D01*
X141563189Y-81182687D01*
X141675019Y-81306312D01*
X141760109Y-81462488D01*
X141822066Y-81671997D01*
X141864497Y-81955624D01*
X141891011Y-82334150D01*
X141905213Y-82828359D01*
X141910712Y-83459033D01*
X141911335Y-83895706D01*
X141911335Y-85976607D01*
X142119153Y-86184425D01*
X142393803Y-86357996D01*
X142631002Y-86392244D01*
X142954022Y-86323151D01*
X143142850Y-86184425D01*
X143350668Y-85976607D01*
X143350668Y-80888910D01*
X143728689Y-80888910D01*
X143995729Y-80910341D01*
D13*
%TO.C,J5*%
X146270000Y-94995000D02*
X146270000Y-97595000D01*
X146270000Y-93725000D02*
X146270000Y-92395000D01*
X146270000Y-92395000D02*
X147600000Y-92395000D01*
X146270000Y-94995000D02*
X148930000Y-94995000D01*
X148930000Y-94995000D02*
X148930000Y-97595000D01*
X146270000Y-97595000D02*
X148930000Y-97595000D01*
%TO.C,J7*%
X175870000Y-78470000D02*
X177200000Y-78470000D01*
X178530000Y-81070000D02*
X178530000Y-88750000D01*
X175870000Y-81070000D02*
X175870000Y-88750000D01*
X175870000Y-88750000D02*
X178530000Y-88750000D01*
X175870000Y-81070000D02*
X178530000Y-81070000D01*
X175870000Y-79800000D02*
X175870000Y-78470000D01*
%TO.C,J2*%
X146270000Y-103395000D02*
X148930000Y-103395000D01*
X148930000Y-103395000D02*
X148930000Y-105995000D01*
X146270000Y-102125000D02*
X146270000Y-100795000D01*
X146270000Y-100795000D02*
X147600000Y-100795000D01*
X146270000Y-105995000D02*
X148930000Y-105995000D01*
X146270000Y-103395000D02*
X146270000Y-105995000D01*
D14*
%TO.C,TB1*%
X171110000Y-107390000D02*
X153330000Y-107390000D01*
X171110000Y-64210000D02*
X171110000Y-107390000D01*
X153330000Y-64210000D02*
X171110000Y-64210000D01*
X153330000Y-107390000D02*
X153330000Y-64210000D01*
D15*
X172520000Y-103600000D02*
G75*
G03*
X172520000Y-103600000I-100000J0D01*
G01*
D13*
%TO.C,J3*%
X175870000Y-95005000D02*
X175870000Y-92405000D01*
X178530000Y-97605000D02*
X177200000Y-97605000D01*
X178530000Y-96275000D02*
X178530000Y-97605000D01*
X178530000Y-95005000D02*
X178530000Y-92405000D01*
X178530000Y-95005000D02*
X175870000Y-95005000D01*
X178530000Y-92405000D02*
X175870000Y-92405000D01*
%TO.C,J4*%
X146470000Y-80400000D02*
X146470000Y-79070000D01*
X146470000Y-81670000D02*
X146470000Y-89350000D01*
X146470000Y-81670000D02*
X149130000Y-81670000D01*
X146470000Y-79070000D02*
X147800000Y-79070000D01*
X149130000Y-81670000D02*
X149130000Y-89350000D01*
X146470000Y-89350000D02*
X149130000Y-89350000D01*
%TO.C,J6*%
X178530000Y-100730000D02*
X175870000Y-100730000D01*
X178530000Y-103330000D02*
X175870000Y-103330000D01*
X175870000Y-103330000D02*
X175870000Y-100730000D01*
X178530000Y-103330000D02*
X178530000Y-100730000D01*
X178530000Y-105930000D02*
X177200000Y-105930000D01*
X178530000Y-104600000D02*
X178530000Y-105930000D01*
%TO.C,J1*%
X159475000Y-111930000D02*
X158145000Y-111930000D01*
X165885000Y-111930000D02*
X165885000Y-109270000D01*
X160745000Y-109270000D02*
X165885000Y-109270000D01*
X158145000Y-111930000D02*
X158145000Y-110600000D01*
X160745000Y-111930000D02*
X160745000Y-109270000D01*
X160745000Y-111930000D02*
X165885000Y-111930000D01*
%TD*%
M02*
