%TF.GenerationSoftware,KiCad,Pcbnew,(6.0.4)*%
%TF.CreationDate,2022-09-15T01:44:32-04:00*%
%TF.ProjectId,NANO_HAT,4e414e4f-5f48-4415-942e-6b696361645f,rev?*%
%TF.SameCoordinates,Original*%
%TF.FileFunction,Copper,L1,Top*%
%TF.FilePolarity,Positive*%
%FSLAX46Y46*%
G04 Gerber Fmt 4.6, Leading zero omitted, Abs format (unit mm)*
G04 Created by KiCad (PCBNEW (6.0.4)) date 2022-09-15 01:44:32*
%MOMM*%
%LPD*%
G01*
G04 APERTURE LIST*
%TA.AperFunction,ComponentPad*%
%ADD10R,1.700000X1.700000*%
%TD*%
%TA.AperFunction,ComponentPad*%
%ADD11O,1.700000X1.700000*%
%TD*%
%TA.AperFunction,ComponentPad*%
%ADD12R,1.800000X1.800000*%
%TD*%
%TA.AperFunction,ComponentPad*%
%ADD13C,1.800000*%
%TD*%
%TA.AperFunction,ViaPad*%
%ADD14C,0.800000*%
%TD*%
%TA.AperFunction,Conductor*%
%ADD15C,1.000000*%
%TD*%
%TA.AperFunction,Conductor*%
%ADD16C,0.254000*%
%TD*%
%TA.AperFunction,Conductor*%
%ADD17C,0.250000*%
%TD*%
G04 APERTURE END LIST*
D10*
%TO.P,J5,1,Pin_1*%
%TO.N,VCC*%
X147600000Y-93725000D03*
D11*
%TO.P,J5,2,Pin_2*%
%TO.N,/SOL1*%
X147600000Y-96265000D03*
%TD*%
D10*
%TO.P,J7,1,Pin_1*%
%TO.N,/SDA*%
X177200000Y-79800000D03*
D11*
%TO.P,J7,2,Pin_2*%
%TO.N,/SCL*%
X177200000Y-82340000D03*
%TO.P,J7,3,Pin_3*%
%TO.N,GND*%
X177200000Y-84880000D03*
%TO.P,J7,4,Pin_4*%
%TO.N,VCC*%
X177200000Y-87420000D03*
%TD*%
D10*
%TO.P,J2,1,Pin_1*%
%TO.N,VCC*%
X147600000Y-102125000D03*
D11*
%TO.P,J2,2,Pin_2*%
%TO.N,/SOL1*%
X147600000Y-104665000D03*
%TD*%
D12*
%TO.P,TB1,1,D1/TX*%
%TO.N,unconnected-(TB1-Pad1)*%
X169840000Y-103580000D03*
D13*
%TO.P,TB1,2,D0/RX*%
%TO.N,unconnected-(TB1-Pad2)*%
X169840000Y-101040000D03*
%TO.P,TB1,3,RESET*%
%TO.N,unconnected-(TB1-Pad28)*%
X169840000Y-98500000D03*
%TO.P,TB1,4,COM/GND*%
%TO.N,GND*%
X169840000Y-95960000D03*
%TO.P,TB1,5,D2*%
%TO.N,unconnected-(TB1-Pad5)*%
X169840000Y-93420000D03*
%TO.P,TB1,6,D3*%
%TO.N,unconnected-(TB1-Pad6)*%
X169840000Y-90880000D03*
%TO.P,TB1,7,D4*%
%TO.N,unconnected-(TB1-Pad7)*%
X169840000Y-88340000D03*
%TO.P,TB1,8,D5*%
%TO.N,/LED*%
X169840000Y-85800000D03*
%TO.P,TB1,9,D6*%
%TO.N,/SOL1*%
X169840000Y-83260000D03*
%TO.P,TB1,10,D7*%
%TO.N,/SOL2*%
X169840000Y-80720000D03*
%TO.P,TB1,11,D8*%
%TO.N,unconnected-(TB1-Pad11)*%
X169840000Y-78180000D03*
%TO.P,TB1,12,D9*%
%TO.N,unconnected-(TB1-Pad12)*%
X169840000Y-75640000D03*
%TO.P,TB1,13,D10*%
%TO.N,unconnected-(TB1-Pad13)*%
X169840000Y-73100000D03*
%TO.P,TB1,14,D11/MOSI*%
%TO.N,unconnected-(TB1-Pad14)*%
X169840000Y-70560000D03*
%TO.P,TB1,15,D12/MISO*%
%TO.N,unconnected-(TB1-Pad15)*%
X169840000Y-68020000D03*
%TO.P,TB1,16,D13/SCK*%
%TO.N,unconnected-(TB1-Pad16)*%
X154600000Y-68020000D03*
%TO.P,TB1,17,3V3*%
%TO.N,unconnected-(TB1-Pad17)*%
X154600000Y-70560000D03*
%TO.P,TB1,18,AREF*%
%TO.N,unconnected-(TB1-Pad18)*%
X154600000Y-73100000D03*
%TO.P,TB1,19,A0*%
%TO.N,unconnected-(TB1-Pad19)*%
X154600000Y-75640000D03*
%TO.P,TB1,20,A1*%
%TO.N,unconnected-(TB1-Pad20)*%
X154600000Y-78180000D03*
%TO.P,TB1,21,A2*%
%TO.N,unconnected-(TB1-Pad21)*%
X154600000Y-80720000D03*
%TO.P,TB1,22,A3*%
%TO.N,unconnected-(TB1-Pad22)*%
X154600000Y-83260000D03*
%TO.P,TB1,23,A4*%
%TO.N,/SDA*%
X154600000Y-85800000D03*
%TO.P,TB1,24,A5*%
%TO.N,/SCL*%
X154600000Y-88340000D03*
%TO.P,TB1,25,A6*%
%TO.N,unconnected-(TB1-Pad25)*%
X154600000Y-90880000D03*
%TO.P,TB1,26,A7*%
%TO.N,unconnected-(TB1-Pad26)*%
X154600000Y-93420000D03*
%TO.P,TB1,27,+5V*%
%TO.N,unconnected-(TB1-Pad27)*%
X154600000Y-95960000D03*
%TO.P,TB1,28,RESET*%
%TO.N,unconnected-(TB1-Pad28)*%
X154600000Y-98500000D03*
%TO.P,TB1,29,COM/GND*%
%TO.N,GND*%
X154600000Y-101040000D03*
%TO.P,TB1,30,VIN*%
%TO.N,/5V*%
X154600000Y-103580000D03*
%TD*%
D10*
%TO.P,J3,1,Pin_1*%
%TO.N,VCC*%
X177200000Y-96275000D03*
D11*
%TO.P,J3,2,Pin_2*%
%TO.N,/SOL2*%
X177200000Y-93735000D03*
%TD*%
D10*
%TO.P,J4,1,Pin_1*%
%TO.N,/SDA*%
X147800000Y-80400000D03*
D11*
%TO.P,J4,2,Pin_2*%
%TO.N,/SCL*%
X147800000Y-82940000D03*
%TO.P,J4,3,Pin_3*%
%TO.N,GND*%
X147800000Y-85480000D03*
%TO.P,J4,4,Pin_4*%
%TO.N,VCC*%
X147800000Y-88020000D03*
%TD*%
D10*
%TO.P,J6,1,Pin_1*%
%TO.N,VCC*%
X177200000Y-104600000D03*
D11*
%TO.P,J6,2,Pin_2*%
%TO.N,/SOL2*%
X177200000Y-102060000D03*
%TD*%
D10*
%TO.P,J1,1,Pin_1*%
%TO.N,/5V*%
X159475000Y-110600000D03*
D11*
%TO.P,J1,2,Pin_2*%
%TO.N,/LED*%
X162015000Y-110600000D03*
%TO.P,J1,3,Pin_3*%
%TO.N,GND*%
X164555000Y-110600000D03*
%TD*%
D14*
%TO.N,GND*%
X168400000Y-84550000D03*
%TO.N,/SOL1*%
X162100000Y-97100000D03*
%TO.N,GND*%
X162000000Y-67000000D03*
%TD*%
D15*
%TO.N,VCC*%
X147600000Y-88220000D02*
X147800000Y-88020000D01*
X147600000Y-93725000D02*
X147600000Y-88220000D01*
D16*
%TO.N,/SOL1*%
X155200000Y-97250000D02*
X161950000Y-97250000D01*
X150050000Y-102215000D02*
X150050000Y-98715000D01*
X167000000Y-84750000D02*
X168490000Y-83260000D01*
X168490000Y-83260000D02*
X169840000Y-83260000D01*
X162100000Y-97100000D02*
X162650000Y-97100000D01*
X147600000Y-104665000D02*
X150050000Y-102215000D01*
X162650000Y-97100000D02*
X167000000Y-92750000D01*
X151985000Y-98715000D02*
X153350000Y-97350000D01*
X153450000Y-97250000D02*
X155200000Y-97250000D01*
X150050000Y-98715000D02*
X147600000Y-96265000D01*
X161950000Y-97250000D02*
X162100000Y-97100000D01*
X167000000Y-92750000D02*
X167000000Y-84750000D01*
X150050000Y-98715000D02*
X151985000Y-98715000D01*
X153350000Y-97350000D02*
X153450000Y-97250000D01*
%TO.N,/SOL2*%
X177200000Y-93735000D02*
X174350000Y-96585000D01*
X169840000Y-80720000D02*
X174550000Y-85430000D01*
X174550000Y-91085000D02*
X177200000Y-93735000D01*
X176060000Y-102060000D02*
X177200000Y-102060000D01*
X174550000Y-85430000D02*
X174550000Y-91085000D01*
X174350000Y-96585000D02*
X174350000Y-100350000D01*
X174350000Y-100350000D02*
X176060000Y-102060000D01*
%TO.N,/LED*%
X171400000Y-87360000D02*
X169840000Y-85800000D01*
X171400000Y-105950000D02*
X171400000Y-87360000D01*
X165350000Y-112000000D02*
X171400000Y-105950000D01*
X163415000Y-112000000D02*
X165350000Y-112000000D01*
X162015000Y-110600000D02*
X163415000Y-112000000D01*
D17*
%TO.N,GND*%
X164555000Y-110600000D02*
X163380489Y-109425489D01*
X158713768Y-109425489D02*
X153200000Y-103911721D01*
X153200000Y-102440000D02*
X154600000Y-101040000D01*
X163380489Y-109425489D02*
X158713768Y-109425489D01*
X153200000Y-103911721D02*
X153200000Y-102440000D01*
%TO.N,/SDA*%
X163541609Y-79458391D02*
X176858391Y-79458391D01*
X154600000Y-85800000D02*
X155824511Y-87024511D01*
X155824511Y-88847210D02*
X155107210Y-89564511D01*
X158424511Y-84575489D02*
X163541609Y-79458391D01*
X146625489Y-83426499D02*
X146625489Y-81574511D01*
X176858391Y-79458391D02*
X177200000Y-79800000D01*
X154600000Y-85800000D02*
X155824511Y-84575489D01*
X155107210Y-89564511D02*
X153650000Y-89564511D01*
X146625489Y-81574511D02*
X147800000Y-80400000D01*
X153650000Y-89564511D02*
X148200000Y-84114511D01*
X155824511Y-84575489D02*
X158424511Y-84575489D01*
X155824511Y-87024511D02*
X155824511Y-88847210D01*
X148200000Y-84114511D02*
X147313501Y-84114511D01*
X147313501Y-84114511D02*
X146625489Y-83426499D01*
%TO.N,/SCL*%
X180000000Y-78800000D02*
X180000000Y-79540000D01*
X153375489Y-85224511D02*
X150084511Y-85224511D01*
X153281574Y-87021574D02*
X153281574Y-85318426D01*
X150084511Y-85224511D02*
X147800000Y-82940000D01*
X153375489Y-85224511D02*
X154068569Y-84531431D01*
X154068569Y-84531431D02*
X155232851Y-84531431D01*
X180000000Y-79540000D02*
X177200000Y-82340000D01*
X178094596Y-76894596D02*
X180000000Y-78800000D01*
X154600000Y-88340000D02*
X153281574Y-87021574D01*
X153281574Y-85318426D02*
X153375489Y-85224511D01*
X155232851Y-84531431D02*
X162869686Y-76894596D01*
X162869686Y-76894596D02*
X178094596Y-76894596D01*
D16*
%TO.N,unconnected-(TB1-Pad28)*%
X169840000Y-98500000D02*
X154600000Y-98500000D01*
%TD*%
%TA.AperFunction,Conductor*%
%TO.N,GND*%
G36*
X185502480Y-58977804D02*
G01*
X185517073Y-58980076D01*
X185517075Y-58980076D01*
X185525950Y-58981458D01*
X185542240Y-58979328D01*
X185566815Y-58978534D01*
X185649988Y-58983987D01*
X185783927Y-58992768D01*
X185800266Y-58994919D01*
X186039565Y-59042520D01*
X186055482Y-59046785D01*
X186171001Y-59085999D01*
X186286517Y-59125213D01*
X186301743Y-59131520D01*
X186520570Y-59239435D01*
X186534843Y-59247676D01*
X186737707Y-59383226D01*
X186750774Y-59393252D01*
X186934232Y-59554142D01*
X186945858Y-59565768D01*
X187106748Y-59749226D01*
X187116774Y-59762293D01*
X187252324Y-59965157D01*
X187260565Y-59979430D01*
X187368480Y-60198257D01*
X187374787Y-60213483D01*
X187453214Y-60444514D01*
X187457480Y-60460435D01*
X187505081Y-60699734D01*
X187507232Y-60716074D01*
X187520995Y-60926017D01*
X187519966Y-60949140D01*
X187519924Y-60952623D01*
X187518542Y-60961498D01*
X187522669Y-60993055D01*
X187523733Y-61009394D01*
X187523733Y-114982861D01*
X187522232Y-115002249D01*
X187519924Y-115017073D01*
X187518542Y-115025950D01*
X187520672Y-115042240D01*
X187521466Y-115066817D01*
X187507232Y-115283927D01*
X187505081Y-115300266D01*
X187457480Y-115539565D01*
X187453214Y-115555486D01*
X187374787Y-115786517D01*
X187368480Y-115801743D01*
X187260565Y-116020570D01*
X187252324Y-116034843D01*
X187116774Y-116237707D01*
X187106748Y-116250774D01*
X186945858Y-116434232D01*
X186934232Y-116445858D01*
X186750774Y-116606748D01*
X186737707Y-116616774D01*
X186534843Y-116752324D01*
X186520570Y-116760565D01*
X186301743Y-116868480D01*
X186286517Y-116874787D01*
X186171002Y-116914000D01*
X186055482Y-116953215D01*
X186039565Y-116957480D01*
X185800266Y-117005081D01*
X185783926Y-117007232D01*
X185573983Y-117020995D01*
X185550860Y-117019966D01*
X185547377Y-117019924D01*
X185538502Y-117018542D01*
X185506945Y-117022669D01*
X185490606Y-117023733D01*
X139017139Y-117023733D01*
X138997751Y-117022232D01*
X138982927Y-117019924D01*
X138982925Y-117019924D01*
X138974050Y-117018542D01*
X138957760Y-117020672D01*
X138933185Y-117021466D01*
X138850012Y-117016013D01*
X138716073Y-117007232D01*
X138699734Y-117005081D01*
X138460435Y-116957480D01*
X138444518Y-116953215D01*
X138328998Y-116914000D01*
X138213483Y-116874787D01*
X138198257Y-116868480D01*
X137979430Y-116760565D01*
X137965157Y-116752324D01*
X137762293Y-116616774D01*
X137749226Y-116606748D01*
X137565768Y-116445858D01*
X137554142Y-116434232D01*
X137393252Y-116250774D01*
X137383226Y-116237707D01*
X137247676Y-116034843D01*
X137239435Y-116020570D01*
X137131520Y-115801743D01*
X137125213Y-115786517D01*
X137046786Y-115555486D01*
X137042520Y-115539565D01*
X136994919Y-115300266D01*
X136992768Y-115283926D01*
X136979005Y-115073983D01*
X136980034Y-115050860D01*
X136980076Y-115047377D01*
X136981458Y-115038502D01*
X136977331Y-115006945D01*
X136976267Y-114990606D01*
X136976267Y-111932703D01*
X139490743Y-111932703D01*
X139491302Y-111936947D01*
X139491302Y-111936951D01*
X139507810Y-112062340D01*
X139528268Y-112217734D01*
X139604129Y-112495036D01*
X139605813Y-112498984D01*
X139661890Y-112630453D01*
X139716923Y-112759476D01*
X139864561Y-113006161D01*
X140044313Y-113230528D01*
X140252851Y-113428423D01*
X140486317Y-113596186D01*
X140490112Y-113598195D01*
X140490113Y-113598196D01*
X140511869Y-113609715D01*
X140740392Y-113730712D01*
X141010373Y-113829511D01*
X141291264Y-113890755D01*
X141319841Y-113893004D01*
X141514282Y-113908307D01*
X141514291Y-113908307D01*
X141516739Y-113908500D01*
X141672271Y-113908500D01*
X141674407Y-113908354D01*
X141674418Y-113908354D01*
X141882548Y-113894165D01*
X141882554Y-113894164D01*
X141886825Y-113893873D01*
X141891020Y-113893004D01*
X141891022Y-113893004D01*
X142027583Y-113864724D01*
X142168342Y-113835574D01*
X142439343Y-113739607D01*
X142694812Y-113607750D01*
X142698313Y-113605289D01*
X142698317Y-113605287D01*
X142812418Y-113525095D01*
X142930023Y-113442441D01*
X143140622Y-113246740D01*
X143322713Y-113024268D01*
X143472927Y-112779142D01*
X143535122Y-112637459D01*
X143586757Y-112519830D01*
X143588483Y-112515898D01*
X143667244Y-112239406D01*
X143707751Y-111954784D01*
X143707782Y-111948971D01*
X143709235Y-111671583D01*
X143709235Y-111671576D01*
X143709257Y-111667297D01*
X143671732Y-111382266D01*
X143595871Y-111104964D01*
X143483077Y-110840524D01*
X143378980Y-110666590D01*
X143337643Y-110597521D01*
X143337640Y-110597517D01*
X143335439Y-110593839D01*
X143155687Y-110369472D01*
X142947149Y-110171577D01*
X142713683Y-110003814D01*
X142691843Y-109992250D01*
X142623076Y-109955840D01*
X142459608Y-109869288D01*
X142324617Y-109819888D01*
X142193658Y-109771964D01*
X142193656Y-109771963D01*
X142189627Y-109770489D01*
X141908736Y-109709245D01*
X141877685Y-109706801D01*
X141685718Y-109691693D01*
X141685709Y-109691693D01*
X141683261Y-109691500D01*
X141527729Y-109691500D01*
X141525593Y-109691646D01*
X141525582Y-109691646D01*
X141317452Y-109705835D01*
X141317446Y-109705836D01*
X141313175Y-109706127D01*
X141308980Y-109706996D01*
X141308978Y-109706996D01*
X141172417Y-109735276D01*
X141031658Y-109764426D01*
X140760657Y-109860393D01*
X140756848Y-109862359D01*
X140642900Y-109921172D01*
X140505188Y-109992250D01*
X140501687Y-109994711D01*
X140501683Y-109994713D01*
X140491594Y-110001804D01*
X140269977Y-110157559D01*
X140254892Y-110171577D01*
X140067037Y-110346143D01*
X140059378Y-110353260D01*
X139877287Y-110575732D01*
X139727073Y-110820858D01*
X139611517Y-111084102D01*
X139532756Y-111360594D01*
X139492249Y-111645216D01*
X139492227Y-111649505D01*
X139492226Y-111649512D01*
X139490811Y-111919679D01*
X139490743Y-111932703D01*
X136976267Y-111932703D01*
X136976267Y-81554454D01*
X145987269Y-81554454D01*
X145988015Y-81562346D01*
X145991430Y-81598472D01*
X145991989Y-81610330D01*
X145991989Y-83347732D01*
X145991462Y-83358915D01*
X145989787Y-83366408D01*
X145990036Y-83374334D01*
X145990036Y-83374335D01*
X145991927Y-83434485D01*
X145991989Y-83438444D01*
X145991989Y-83466355D01*
X145992486Y-83470289D01*
X145992486Y-83470290D01*
X145992494Y-83470355D01*
X145993427Y-83482192D01*
X145994816Y-83526388D01*
X145997562Y-83535839D01*
X146000467Y-83545838D01*
X146004476Y-83565199D01*
X146007015Y-83585296D01*
X146009934Y-83592667D01*
X146009934Y-83592669D01*
X146023293Y-83626411D01*
X146027138Y-83637641D01*
X146039471Y-83680092D01*
X146043504Y-83686911D01*
X146043506Y-83686916D01*
X146049782Y-83697527D01*
X146058477Y-83715275D01*
X146065937Y-83734116D01*
X146070599Y-83740532D01*
X146070599Y-83740533D01*
X146091925Y-83769886D01*
X146098441Y-83779806D01*
X146120947Y-83817861D01*
X146135268Y-83832182D01*
X146148108Y-83847215D01*
X146160017Y-83863606D01*
X146180094Y-83880215D01*
X146194082Y-83891787D01*
X146202863Y-83899777D01*
X146744089Y-84441004D01*
X146778114Y-84503316D01*
X146773049Y-84574132D01*
X146747701Y-84614577D01*
X146747847Y-84614695D01*
X146746876Y-84615894D01*
X146746092Y-84617145D01*
X146744592Y-84618715D01*
X146738108Y-84626722D01*
X146618098Y-84802649D01*
X146613000Y-84811623D01*
X146523338Y-85004783D01*
X146519775Y-85014470D01*
X146464389Y-85214183D01*
X146465912Y-85222607D01*
X146478292Y-85226000D01*
X147928000Y-85226000D01*
X147996121Y-85246002D01*
X148042614Y-85299658D01*
X148054000Y-85352000D01*
X148054000Y-85608000D01*
X148033998Y-85676121D01*
X147980342Y-85722614D01*
X147928000Y-85734000D01*
X146483225Y-85734000D01*
X146469694Y-85737973D01*
X146468257Y-85747966D01*
X146498565Y-85882446D01*
X146501645Y-85892275D01*
X146581770Y-86089603D01*
X146586413Y-86098794D01*
X146697694Y-86280388D01*
X146703777Y-86288699D01*
X146843213Y-86449667D01*
X146850580Y-86456883D01*
X147014434Y-86592916D01*
X147022881Y-86598831D01*
X147091969Y-86639203D01*
X147140693Y-86690842D01*
X147153764Y-86760625D01*
X147127033Y-86826396D01*
X147086584Y-86859752D01*
X147073607Y-86866507D01*
X147069474Y-86869610D01*
X147069471Y-86869612D01*
X146899100Y-86997530D01*
X146894965Y-87000635D01*
X146882059Y-87014140D01*
X146772229Y-87129071D01*
X146740629Y-87162138D01*
X146737715Y-87166410D01*
X146737714Y-87166411D01*
X146696380Y-87227005D01*
X146614743Y-87346680D01*
X146520688Y-87549305D01*
X146460989Y-87764570D01*
X146437251Y-87986695D01*
X146437548Y-87991848D01*
X146437548Y-87991851D01*
X146443011Y-88086590D01*
X146450110Y-88209715D01*
X146451247Y-88214761D01*
X146451248Y-88214767D01*
X146470297Y-88299292D01*
X146499222Y-88427639D01*
X146565513Y-88590896D01*
X146582243Y-88632097D01*
X146591500Y-88679501D01*
X146591500Y-92303991D01*
X146571498Y-92372112D01*
X146517842Y-92418605D01*
X146512306Y-92420903D01*
X146511704Y-92421232D01*
X146503295Y-92424385D01*
X146386739Y-92511739D01*
X146299385Y-92628295D01*
X146248255Y-92764684D01*
X146241500Y-92826866D01*
X146241500Y-94623134D01*
X146248255Y-94685316D01*
X146299385Y-94821705D01*
X146386739Y-94938261D01*
X146503295Y-95025615D01*
X146511704Y-95028767D01*
X146511705Y-95028768D01*
X146620451Y-95069535D01*
X146677216Y-95112176D01*
X146701916Y-95178738D01*
X146686709Y-95248087D01*
X146667316Y-95274568D01*
X146540629Y-95407138D01*
X146414743Y-95591680D01*
X146320688Y-95794305D01*
X146260989Y-96009570D01*
X146237251Y-96231695D01*
X146237548Y-96236848D01*
X146237548Y-96236851D01*
X146246899Y-96399022D01*
X146250110Y-96454715D01*
X146251247Y-96459761D01*
X146251248Y-96459767D01*
X146273392Y-96558022D01*
X146299222Y-96672639D01*
X146339200Y-96771094D01*
X146364054Y-96832301D01*
X146383266Y-96879616D01*
X146499987Y-97070088D01*
X146646250Y-97238938D01*
X146818126Y-97381632D01*
X147011000Y-97494338D01*
X147219692Y-97574030D01*
X147224760Y-97575061D01*
X147224763Y-97575062D01*
X147306788Y-97591750D01*
X147438597Y-97618567D01*
X147443772Y-97618757D01*
X147443774Y-97618757D01*
X147656673Y-97626564D01*
X147656677Y-97626564D01*
X147661837Y-97626753D01*
X147666957Y-97626097D01*
X147666959Y-97626097D01*
X147740414Y-97616687D01*
X147883416Y-97598368D01*
X147888370Y-97596882D01*
X147888378Y-97596880D01*
X147927652Y-97585097D01*
X147998647Y-97584679D01*
X148052955Y-97616687D01*
X149377595Y-98941327D01*
X149411621Y-99003639D01*
X149414500Y-99030422D01*
X149414500Y-101899577D01*
X149394498Y-101967698D01*
X149377595Y-101988672D01*
X149173595Y-102192672D01*
X149111283Y-102226698D01*
X149040468Y-102221633D01*
X148983632Y-102179086D01*
X148958821Y-102112566D01*
X148958500Y-102103577D01*
X148958500Y-101226866D01*
X148951745Y-101164684D01*
X148900615Y-101028295D01*
X148813261Y-100911739D01*
X148696705Y-100824385D01*
X148560316Y-100773255D01*
X148498134Y-100766500D01*
X146701866Y-100766500D01*
X146639684Y-100773255D01*
X146503295Y-100824385D01*
X146386739Y-100911739D01*
X146299385Y-101028295D01*
X146248255Y-101164684D01*
X146241500Y-101226866D01*
X146241500Y-103023134D01*
X146248255Y-103085316D01*
X146299385Y-103221705D01*
X146386739Y-103338261D01*
X146503295Y-103425615D01*
X146511704Y-103428767D01*
X146511705Y-103428768D01*
X146620451Y-103469535D01*
X146677216Y-103512176D01*
X146701916Y-103578738D01*
X146686709Y-103648087D01*
X146667316Y-103674568D01*
X146540629Y-103807138D01*
X146537715Y-103811410D01*
X146537714Y-103811411D01*
X146488459Y-103883617D01*
X146414743Y-103991680D01*
X146320688Y-104194305D01*
X146260989Y-104409570D01*
X146237251Y-104631695D01*
X146237548Y-104636848D01*
X146237548Y-104636851D01*
X146243011Y-104731590D01*
X146250110Y-104854715D01*
X146251247Y-104859761D01*
X146251248Y-104859767D01*
X146266001Y-104925229D01*
X146299222Y-105072639D01*
X146383266Y-105279616D01*
X146499987Y-105470088D01*
X146646250Y-105638938D01*
X146818126Y-105781632D01*
X147011000Y-105894338D01*
X147219692Y-105974030D01*
X147224760Y-105975061D01*
X147224763Y-105975062D01*
X147332017Y-105996883D01*
X147438597Y-106018567D01*
X147443772Y-106018757D01*
X147443774Y-106018757D01*
X147656673Y-106026564D01*
X147656677Y-106026564D01*
X147661837Y-106026753D01*
X147666957Y-106026097D01*
X147666959Y-106026097D01*
X147878288Y-105999025D01*
X147878289Y-105999025D01*
X147883416Y-105998368D01*
X147888366Y-105996883D01*
X148092429Y-105935661D01*
X148092434Y-105935659D01*
X148097384Y-105934174D01*
X148297994Y-105835896D01*
X148479860Y-105706173D01*
X148638096Y-105548489D01*
X148697594Y-105465689D01*
X148765435Y-105371277D01*
X148768453Y-105367077D01*
X148867430Y-105166811D01*
X148932370Y-104953069D01*
X148961529Y-104731590D01*
X148961611Y-104728240D01*
X148963074Y-104668365D01*
X148963074Y-104668361D01*
X148963156Y-104665000D01*
X148944852Y-104442361D01*
X148917389Y-104333024D01*
X148920194Y-104262083D01*
X148950498Y-104213234D01*
X149618263Y-103545469D01*
X153187095Y-103545469D01*
X153187392Y-103550622D01*
X153187392Y-103550625D01*
X153196112Y-103701866D01*
X153200427Y-103776697D01*
X153201564Y-103781743D01*
X153201565Y-103781749D01*
X153233741Y-103924523D01*
X153251346Y-104002642D01*
X153253288Y-104007424D01*
X153253289Y-104007428D01*
X153327266Y-104189610D01*
X153338484Y-104217237D01*
X153459501Y-104414719D01*
X153611147Y-104589784D01*
X153789349Y-104737730D01*
X153989322Y-104854584D01*
X154205694Y-104937209D01*
X154210760Y-104938240D01*
X154210761Y-104938240D01*
X154258434Y-104947939D01*
X154432656Y-104983385D01*
X154562089Y-104988131D01*
X154658949Y-104991683D01*
X154658953Y-104991683D01*
X154664113Y-104991872D01*
X154669233Y-104991216D01*
X154669235Y-104991216D01*
X154743166Y-104981745D01*
X154893847Y-104962442D01*
X154898795Y-104960957D01*
X154898802Y-104960956D01*
X155110747Y-104897369D01*
X155115690Y-104895886D01*
X155120324Y-104893616D01*
X155319049Y-104796262D01*
X155319052Y-104796260D01*
X155323684Y-104793991D01*
X155512243Y-104659494D01*
X155676303Y-104496005D01*
X155811458Y-104307917D01*
X155834111Y-104262083D01*
X155911784Y-104104922D01*
X155911785Y-104104920D01*
X155914078Y-104100280D01*
X155981408Y-103878671D01*
X156011640Y-103649041D01*
X156011869Y-103639684D01*
X156013245Y-103583365D01*
X156013245Y-103583361D01*
X156013327Y-103580000D01*
X156004245Y-103469535D01*
X155994773Y-103354318D01*
X155994772Y-103354312D01*
X155994349Y-103349167D01*
X155959975Y-103212318D01*
X155939184Y-103129544D01*
X155939183Y-103129540D01*
X155937925Y-103124533D01*
X155927297Y-103100090D01*
X155847630Y-102916868D01*
X155847628Y-102916865D01*
X155845570Y-102912131D01*
X155719764Y-102717665D01*
X155714851Y-102712265D01*
X155644802Y-102635283D01*
X155563887Y-102546358D01*
X155559836Y-102543159D01*
X155559832Y-102543155D01*
X155386669Y-102406400D01*
X155345606Y-102348483D01*
X155342374Y-102277560D01*
X155377999Y-102216148D01*
X155383487Y-102211623D01*
X155393497Y-102198874D01*
X155386510Y-102185721D01*
X154612811Y-101412021D01*
X154598868Y-101404408D01*
X154597034Y-101404539D01*
X154590420Y-101408790D01*
X153810180Y-102189031D01*
X153803423Y-102201406D01*
X153822730Y-102227197D01*
X153822040Y-102227713D01*
X153846627Y-102253737D01*
X153859743Y-102323511D01*
X153833055Y-102389300D01*
X153810023Y-102411719D01*
X153670547Y-102516441D01*
X153661655Y-102523117D01*
X153609647Y-102577540D01*
X153509766Y-102682060D01*
X153501639Y-102690564D01*
X153498725Y-102694836D01*
X153498724Y-102694837D01*
X153485666Y-102713979D01*
X153371119Y-102881899D01*
X153273602Y-103091981D01*
X153211707Y-103315169D01*
X153187095Y-103545469D01*
X149618263Y-103545469D01*
X150443477Y-102720255D01*
X150451803Y-102712678D01*
X150458303Y-102708553D01*
X150477805Y-102687786D01*
X150505100Y-102658719D01*
X150507855Y-102655877D01*
X150527638Y-102636094D01*
X150530129Y-102632883D01*
X150537838Y-102623856D01*
X150562789Y-102597286D01*
X150568217Y-102591506D01*
X150578022Y-102573671D01*
X150588876Y-102557147D01*
X150596491Y-102547330D01*
X150596492Y-102547329D01*
X150601349Y-102541067D01*
X150618969Y-102500350D01*
X150624192Y-102489689D01*
X150641749Y-102457753D01*
X150641751Y-102457748D01*
X150645569Y-102450803D01*
X150647539Y-102443129D01*
X150647542Y-102443122D01*
X150650632Y-102431087D01*
X150657036Y-102412382D01*
X150661967Y-102400987D01*
X150665117Y-102393708D01*
X150672060Y-102349873D01*
X150674467Y-102338251D01*
X150678147Y-102323919D01*
X150685500Y-102295282D01*
X150685500Y-102274935D01*
X150687051Y-102255224D01*
X150688995Y-102242950D01*
X150690235Y-102235121D01*
X150688960Y-102221633D01*
X150686059Y-102190944D01*
X150685500Y-102179086D01*
X150685500Y-101010638D01*
X153187893Y-101010638D01*
X153200627Y-101231468D01*
X153202061Y-101241670D01*
X153250685Y-101457439D01*
X153253773Y-101467292D01*
X153336986Y-101672220D01*
X153341634Y-101681421D01*
X153430097Y-101825781D01*
X153440553Y-101835242D01*
X153449331Y-101831458D01*
X154227979Y-101052811D01*
X154234356Y-101041132D01*
X154964408Y-101041132D01*
X154964539Y-101042966D01*
X154968790Y-101049580D01*
X155746307Y-101827096D01*
X155758313Y-101833652D01*
X155770052Y-101824684D01*
X155808010Y-101771859D01*
X155813321Y-101763020D01*
X155911318Y-101564737D01*
X155915117Y-101555142D01*
X155979415Y-101343517D01*
X155981594Y-101333436D01*
X156010702Y-101112338D01*
X156011221Y-101105663D01*
X156012744Y-101043364D01*
X156012550Y-101036646D01*
X155994279Y-100814400D01*
X155992596Y-100804238D01*
X155938710Y-100589708D01*
X155935389Y-100579953D01*
X155847193Y-100377118D01*
X155842315Y-100368020D01*
X155769224Y-100255038D01*
X155758538Y-100245835D01*
X155748973Y-100250238D01*
X154972021Y-101027189D01*
X154964408Y-101041132D01*
X154234356Y-101041132D01*
X154235592Y-101038868D01*
X154235461Y-101037034D01*
X154231210Y-101030420D01*
X153453862Y-100253073D01*
X153442330Y-100246776D01*
X153430048Y-100256399D01*
X153374467Y-100337877D01*
X153369379Y-100346833D01*
X153276252Y-100547459D01*
X153272689Y-100557146D01*
X153213581Y-100770280D01*
X153211650Y-100780400D01*
X153188145Y-101000349D01*
X153187893Y-101010638D01*
X150685500Y-101010638D01*
X150685500Y-99476500D01*
X150705502Y-99408379D01*
X150759158Y-99361886D01*
X150811500Y-99350500D01*
X151905980Y-99350500D01*
X151917214Y-99351030D01*
X151924719Y-99352708D01*
X151993012Y-99350562D01*
X151996969Y-99350500D01*
X152024983Y-99350500D01*
X152028908Y-99350004D01*
X152028909Y-99350004D01*
X152029004Y-99349992D01*
X152040849Y-99349059D01*
X152070670Y-99348122D01*
X152077282Y-99347914D01*
X152077283Y-99347914D01*
X152085205Y-99347665D01*
X152104749Y-99341987D01*
X152124112Y-99337977D01*
X152136440Y-99336420D01*
X152136442Y-99336420D01*
X152144299Y-99335427D01*
X152151663Y-99332511D01*
X152151668Y-99332510D01*
X152185556Y-99319093D01*
X152196785Y-99315248D01*
X152213465Y-99310402D01*
X152239393Y-99302869D01*
X152246220Y-99298831D01*
X152246223Y-99298830D01*
X152256906Y-99292512D01*
X152274664Y-99283812D01*
X152286215Y-99279239D01*
X152286221Y-99279235D01*
X152293588Y-99276319D01*
X152329491Y-99250234D01*
X152339410Y-99243719D01*
X152370768Y-99225174D01*
X152370772Y-99225171D01*
X152377598Y-99221134D01*
X152391982Y-99206750D01*
X152407016Y-99193909D01*
X152417073Y-99186602D01*
X152423487Y-99181942D01*
X152451778Y-99147744D01*
X152459767Y-99138965D01*
X152985450Y-98613282D01*
X153047762Y-98579256D01*
X153118577Y-98584321D01*
X153175413Y-98626868D01*
X153197272Y-98686714D01*
X153199410Y-98686413D01*
X153200129Y-98691531D01*
X153200427Y-98696697D01*
X153201564Y-98701743D01*
X153201565Y-98701749D01*
X153233741Y-98844523D01*
X153251346Y-98922642D01*
X153253288Y-98927424D01*
X153253289Y-98927428D01*
X153284235Y-99003639D01*
X153338484Y-99137237D01*
X153459501Y-99334719D01*
X153611147Y-99509784D01*
X153789349Y-99657730D01*
X153793814Y-99660339D01*
X153797979Y-99662773D01*
X153846700Y-99714414D01*
X153859767Y-99784198D01*
X153833033Y-99849968D01*
X153816323Y-99866221D01*
X153805508Y-99880711D01*
X153812251Y-99893040D01*
X154587189Y-100667979D01*
X154601132Y-100675592D01*
X154602966Y-100675461D01*
X154609580Y-100671210D01*
X155388994Y-99891795D01*
X155396011Y-99878944D01*
X155388237Y-99868275D01*
X155386655Y-99867025D01*
X155345592Y-99809109D01*
X155342359Y-99738186D01*
X155377983Y-99676774D01*
X155391578Y-99665563D01*
X155407193Y-99654425D01*
X155512243Y-99579494D01*
X155676303Y-99416005D01*
X155811458Y-99227917D01*
X155822452Y-99205672D01*
X155870567Y-99153465D01*
X155935409Y-99135500D01*
X168506856Y-99135500D01*
X168574977Y-99155502D01*
X168614288Y-99195664D01*
X168699501Y-99334719D01*
X168851147Y-99509784D01*
X169029349Y-99657730D01*
X169033819Y-99660342D01*
X169037511Y-99662500D01*
X169086232Y-99714140D01*
X169099301Y-99783924D01*
X169072566Y-99849694D01*
X169049589Y-99872045D01*
X168901655Y-99983117D01*
X168898083Y-99986855D01*
X168767338Y-100123672D01*
X168741639Y-100150564D01*
X168611119Y-100341899D01*
X168513602Y-100551981D01*
X168451707Y-100775169D01*
X168427095Y-101005469D01*
X168427392Y-101010622D01*
X168427392Y-101010625D01*
X168440129Y-101231529D01*
X168440427Y-101236697D01*
X168441564Y-101241743D01*
X168441565Y-101241749D01*
X168462228Y-101333436D01*
X168491346Y-101462642D01*
X168493288Y-101467424D01*
X168493289Y-101467428D01*
X168557565Y-101625720D01*
X168578484Y-101677237D01*
X168699501Y-101874719D01*
X168702882Y-101878622D01*
X168811304Y-102003788D01*
X168840786Y-102068373D01*
X168830671Y-102138646D01*
X168784170Y-102192294D01*
X168760296Y-102204267D01*
X168713973Y-102221633D01*
X168693295Y-102229385D01*
X168576739Y-102316739D01*
X168489385Y-102433295D01*
X168438255Y-102569684D01*
X168431500Y-102631866D01*
X168431500Y-104528134D01*
X168438255Y-104590316D01*
X168489385Y-104726705D01*
X168576739Y-104843261D01*
X168693295Y-104930615D01*
X168829684Y-104981745D01*
X168891866Y-104988500D01*
X170638500Y-104988500D01*
X170706621Y-105008502D01*
X170753114Y-105062158D01*
X170764500Y-105114500D01*
X170764500Y-105634578D01*
X170744498Y-105702699D01*
X170727595Y-105723673D01*
X166091538Y-110359729D01*
X166029226Y-110393755D01*
X165958411Y-110388690D01*
X165901575Y-110346143D01*
X165880239Y-110301330D01*
X165846214Y-110165875D01*
X165842894Y-110156124D01*
X165757972Y-109960814D01*
X165753105Y-109951739D01*
X165637426Y-109772926D01*
X165631136Y-109764757D01*
X165487806Y-109607240D01*
X165480273Y-109600215D01*
X165313139Y-109468222D01*
X165304552Y-109462517D01*
X165118117Y-109359599D01*
X165108705Y-109355369D01*
X164907959Y-109284280D01*
X164897988Y-109281646D01*
X164826837Y-109268972D01*
X164813540Y-109270432D01*
X164809000Y-109284989D01*
X164809000Y-110728000D01*
X164788998Y-110796121D01*
X164735342Y-110842614D01*
X164683000Y-110854000D01*
X164427000Y-110854000D01*
X164358879Y-110833998D01*
X164312386Y-110780342D01*
X164301000Y-110728000D01*
X164301000Y-109283102D01*
X164297082Y-109269758D01*
X164282806Y-109267771D01*
X164244324Y-109273660D01*
X164234288Y-109276051D01*
X164031868Y-109342212D01*
X164022359Y-109346209D01*
X163833463Y-109444542D01*
X163824738Y-109450036D01*
X163654433Y-109577905D01*
X163646726Y-109584748D01*
X163499590Y-109738717D01*
X163493109Y-109746722D01*
X163388498Y-109900074D01*
X163333587Y-109945076D01*
X163263062Y-109953247D01*
X163199315Y-109921993D01*
X163178618Y-109897509D01*
X163097822Y-109772617D01*
X163097820Y-109772614D01*
X163095014Y-109768277D01*
X162944670Y-109603051D01*
X162940619Y-109599852D01*
X162940615Y-109599848D01*
X162773414Y-109467800D01*
X162773410Y-109467798D01*
X162769359Y-109464598D01*
X162733028Y-109444542D01*
X162717136Y-109435769D01*
X162573789Y-109356638D01*
X162568920Y-109354914D01*
X162568916Y-109354912D01*
X162368087Y-109283795D01*
X162368083Y-109283794D01*
X162363212Y-109282069D01*
X162358119Y-109281162D01*
X162358116Y-109281161D01*
X162148373Y-109243800D01*
X162148367Y-109243799D01*
X162143284Y-109242894D01*
X162069452Y-109241992D01*
X161925081Y-109240228D01*
X161925079Y-109240228D01*
X161919911Y-109240165D01*
X161699091Y-109273955D01*
X161486756Y-109343357D01*
X161288607Y-109446507D01*
X161284474Y-109449610D01*
X161284471Y-109449612D01*
X161114100Y-109577530D01*
X161109965Y-109580635D01*
X161053537Y-109639684D01*
X161029283Y-109665064D01*
X160967759Y-109700494D01*
X160896846Y-109697037D01*
X160839060Y-109655791D01*
X160820207Y-109622243D01*
X160778767Y-109511703D01*
X160775615Y-109503295D01*
X160688261Y-109386739D01*
X160571705Y-109299385D01*
X160435316Y-109248255D01*
X160373134Y-109241500D01*
X158576866Y-109241500D01*
X158514684Y-109248255D01*
X158378295Y-109299385D01*
X158261739Y-109386739D01*
X158174385Y-109503295D01*
X158123255Y-109639684D01*
X158116500Y-109701866D01*
X158116500Y-111498134D01*
X158123255Y-111560316D01*
X158174385Y-111696705D01*
X158261739Y-111813261D01*
X158378295Y-111900615D01*
X158514684Y-111951745D01*
X158576866Y-111958500D01*
X160373134Y-111958500D01*
X160435316Y-111951745D01*
X160571705Y-111900615D01*
X160688261Y-111813261D01*
X160775615Y-111696705D01*
X160793307Y-111649512D01*
X160819598Y-111579382D01*
X160862240Y-111522618D01*
X160928802Y-111497918D01*
X160998150Y-111513126D01*
X161032817Y-111541114D01*
X161061250Y-111573938D01*
X161233126Y-111716632D01*
X161426000Y-111829338D01*
X161634692Y-111909030D01*
X161639760Y-111910061D01*
X161639763Y-111910062D01*
X161747008Y-111931881D01*
X161853597Y-111953567D01*
X161858772Y-111953757D01*
X161858774Y-111953757D01*
X162071673Y-111961564D01*
X162071677Y-111961564D01*
X162076837Y-111961753D01*
X162081957Y-111961097D01*
X162081959Y-111961097D01*
X162164774Y-111950488D01*
X162298416Y-111933368D01*
X162303369Y-111931882D01*
X162303374Y-111931881D01*
X162333017Y-111922987D01*
X162342651Y-111920097D01*
X162413646Y-111919679D01*
X162467954Y-111951687D01*
X162909750Y-112393483D01*
X162917326Y-112401809D01*
X162921447Y-112408303D01*
X162927222Y-112413726D01*
X162971265Y-112455085D01*
X162974107Y-112457840D01*
X162993906Y-112477639D01*
X162997031Y-112480063D01*
X162997040Y-112480071D01*
X162997126Y-112480137D01*
X163006151Y-112487845D01*
X163038494Y-112518217D01*
X163045438Y-112522035D01*
X163045440Y-112522036D01*
X163056329Y-112528022D01*
X163072847Y-112538873D01*
X163088933Y-112551350D01*
X163129666Y-112568976D01*
X163140314Y-112574193D01*
X163151942Y-112580585D01*
X163179197Y-112595569D01*
X163186872Y-112597540D01*
X163186878Y-112597542D01*
X163198911Y-112600631D01*
X163217613Y-112607034D01*
X163236292Y-112615117D01*
X163269818Y-112620427D01*
X163280127Y-112622060D01*
X163291740Y-112624465D01*
X163334718Y-112635500D01*
X163355065Y-112635500D01*
X163374777Y-112637051D01*
X163394879Y-112640235D01*
X163402771Y-112639489D01*
X163439056Y-112636059D01*
X163450914Y-112635500D01*
X165270980Y-112635500D01*
X165282214Y-112636030D01*
X165289719Y-112637708D01*
X165358012Y-112635562D01*
X165361969Y-112635500D01*
X165389983Y-112635500D01*
X165393908Y-112635004D01*
X165393909Y-112635004D01*
X165394004Y-112634992D01*
X165405849Y-112634059D01*
X165435670Y-112633122D01*
X165442282Y-112632914D01*
X165442283Y-112632914D01*
X165450205Y-112632665D01*
X165469749Y-112626987D01*
X165489112Y-112622977D01*
X165501440Y-112621420D01*
X165501442Y-112621420D01*
X165509299Y-112620427D01*
X165516663Y-112617511D01*
X165516668Y-112617510D01*
X165550556Y-112604093D01*
X165561785Y-112600248D01*
X165578465Y-112595402D01*
X165604393Y-112587869D01*
X165611220Y-112583831D01*
X165611223Y-112583830D01*
X165621906Y-112577512D01*
X165639664Y-112568812D01*
X165651215Y-112564239D01*
X165651221Y-112564235D01*
X165658588Y-112561319D01*
X165667977Y-112554498D01*
X165694488Y-112535236D01*
X165704410Y-112528719D01*
X165735768Y-112510174D01*
X165735772Y-112510171D01*
X165742598Y-112506134D01*
X165756982Y-112491750D01*
X165772016Y-112478909D01*
X165782073Y-112471602D01*
X165788487Y-112466942D01*
X165816778Y-112432744D01*
X165824767Y-112423965D01*
X166316029Y-111932703D01*
X181090743Y-111932703D01*
X181091302Y-111936947D01*
X181091302Y-111936951D01*
X181107810Y-112062340D01*
X181128268Y-112217734D01*
X181204129Y-112495036D01*
X181205813Y-112498984D01*
X181261890Y-112630453D01*
X181316923Y-112759476D01*
X181464561Y-113006161D01*
X181644313Y-113230528D01*
X181852851Y-113428423D01*
X182086317Y-113596186D01*
X182090112Y-113598195D01*
X182090113Y-113598196D01*
X182111869Y-113609715D01*
X182340392Y-113730712D01*
X182610373Y-113829511D01*
X182891264Y-113890755D01*
X182919841Y-113893004D01*
X183114282Y-113908307D01*
X183114291Y-113908307D01*
X183116739Y-113908500D01*
X183272271Y-113908500D01*
X183274407Y-113908354D01*
X183274418Y-113908354D01*
X183482548Y-113894165D01*
X183482554Y-113894164D01*
X183486825Y-113893873D01*
X183491020Y-113893004D01*
X183491022Y-113893004D01*
X183627583Y-113864724D01*
X183768342Y-113835574D01*
X184039343Y-113739607D01*
X184294812Y-113607750D01*
X184298313Y-113605289D01*
X184298317Y-113605287D01*
X184412418Y-113525095D01*
X184530023Y-113442441D01*
X184740622Y-113246740D01*
X184922713Y-113024268D01*
X185072927Y-112779142D01*
X185135122Y-112637459D01*
X185186757Y-112519830D01*
X185188483Y-112515898D01*
X185267244Y-112239406D01*
X185307751Y-111954784D01*
X185307782Y-111948971D01*
X185309235Y-111671583D01*
X185309235Y-111671576D01*
X185309257Y-111667297D01*
X185271732Y-111382266D01*
X185195871Y-111104964D01*
X185083077Y-110840524D01*
X184978980Y-110666590D01*
X184937643Y-110597521D01*
X184937640Y-110597517D01*
X184935439Y-110593839D01*
X184755687Y-110369472D01*
X184547149Y-110171577D01*
X184313683Y-110003814D01*
X184291843Y-109992250D01*
X184223076Y-109955840D01*
X184059608Y-109869288D01*
X183924617Y-109819888D01*
X183793658Y-109771964D01*
X183793656Y-109771963D01*
X183789627Y-109770489D01*
X183508736Y-109709245D01*
X183477685Y-109706801D01*
X183285718Y-109691693D01*
X183285709Y-109691693D01*
X183283261Y-109691500D01*
X183127729Y-109691500D01*
X183125593Y-109691646D01*
X183125582Y-109691646D01*
X182917452Y-109705835D01*
X182917446Y-109705836D01*
X182913175Y-109706127D01*
X182908980Y-109706996D01*
X182908978Y-109706996D01*
X182772417Y-109735276D01*
X182631658Y-109764426D01*
X182360657Y-109860393D01*
X182356848Y-109862359D01*
X182242900Y-109921172D01*
X182105188Y-109992250D01*
X182101687Y-109994711D01*
X182101683Y-109994713D01*
X182091594Y-110001804D01*
X181869977Y-110157559D01*
X181854892Y-110171577D01*
X181667037Y-110346143D01*
X181659378Y-110353260D01*
X181477287Y-110575732D01*
X181327073Y-110820858D01*
X181211517Y-111084102D01*
X181132756Y-111360594D01*
X181092249Y-111645216D01*
X181092227Y-111649505D01*
X181092226Y-111649512D01*
X181090811Y-111919679D01*
X181090743Y-111932703D01*
X166316029Y-111932703D01*
X171793483Y-106455250D01*
X171801809Y-106447674D01*
X171808303Y-106443553D01*
X171855086Y-106393734D01*
X171857840Y-106390893D01*
X171877639Y-106371094D01*
X171880063Y-106367969D01*
X171880071Y-106367960D01*
X171880137Y-106367874D01*
X171887845Y-106358849D01*
X171912790Y-106332285D01*
X171918217Y-106326506D01*
X171928023Y-106308669D01*
X171938873Y-106292153D01*
X171951350Y-106276067D01*
X171968976Y-106235334D01*
X171974193Y-106224686D01*
X171991749Y-106192751D01*
X171995569Y-106185803D01*
X171997540Y-106178128D01*
X171997542Y-106178122D01*
X172000631Y-106166089D01*
X172007034Y-106147387D01*
X172015117Y-106128708D01*
X172022060Y-106084873D01*
X172024467Y-106073251D01*
X172035500Y-106030282D01*
X172035500Y-106009935D01*
X172037051Y-105990224D01*
X172038995Y-105977950D01*
X172040235Y-105970121D01*
X172036059Y-105925944D01*
X172035500Y-105914086D01*
X172035500Y-87439020D01*
X172036030Y-87427786D01*
X172037708Y-87420281D01*
X172035562Y-87351988D01*
X172035500Y-87348031D01*
X172035500Y-87320017D01*
X172034992Y-87315996D01*
X172034058Y-87304144D01*
X172032914Y-87267718D01*
X172032914Y-87267717D01*
X172032665Y-87259795D01*
X172026987Y-87240251D01*
X172022977Y-87220888D01*
X172021420Y-87208560D01*
X172021420Y-87208558D01*
X172020427Y-87200701D01*
X172017511Y-87193337D01*
X172017510Y-87193332D01*
X172004093Y-87159444D01*
X172000248Y-87148215D01*
X171994686Y-87129071D01*
X171987869Y-87105607D01*
X171981272Y-87094453D01*
X171977510Y-87088091D01*
X171968813Y-87070341D01*
X171961319Y-87051412D01*
X171935240Y-87015517D01*
X171928722Y-87005595D01*
X171910170Y-86974224D01*
X171910166Y-86974219D01*
X171906134Y-86967401D01*
X171891747Y-86953014D01*
X171878906Y-86937980D01*
X171871602Y-86927927D01*
X171866942Y-86921513D01*
X171832750Y-86893227D01*
X171823971Y-86885238D01*
X171231958Y-86293225D01*
X171197932Y-86230913D01*
X171200495Y-86167503D01*
X171221408Y-86098671D01*
X171251640Y-85869041D01*
X171251937Y-85856883D01*
X171253245Y-85803365D01*
X171253245Y-85803361D01*
X171253327Y-85800000D01*
X171235735Y-85586020D01*
X171234773Y-85574318D01*
X171234772Y-85574312D01*
X171234349Y-85569167D01*
X171185365Y-85374152D01*
X171179184Y-85349544D01*
X171179183Y-85349540D01*
X171177925Y-85344533D01*
X171168206Y-85322181D01*
X171087630Y-85136868D01*
X171087628Y-85136865D01*
X171085570Y-85132131D01*
X170959764Y-84937665D01*
X170803887Y-84766358D01*
X170799836Y-84763159D01*
X170799832Y-84763155D01*
X170627077Y-84626722D01*
X170586014Y-84568805D01*
X170582782Y-84497882D01*
X170618407Y-84436470D01*
X170632001Y-84425261D01*
X170635872Y-84422500D01*
X170752243Y-84339494D01*
X170916303Y-84176005D01*
X171051458Y-83987917D01*
X171084043Y-83921987D01*
X171151784Y-83784922D01*
X171151785Y-83784920D01*
X171154078Y-83780280D01*
X171221408Y-83558671D01*
X171251640Y-83329041D01*
X171251722Y-83325672D01*
X171251807Y-83324583D01*
X171277030Y-83258218D01*
X171334129Y-83216024D01*
X171404974Y-83211399D01*
X171466523Y-83245256D01*
X173877595Y-85656328D01*
X173911621Y-85718640D01*
X173914500Y-85745423D01*
X173914500Y-91005980D01*
X173913970Y-91017214D01*
X173912292Y-91024719D01*
X173912541Y-91032638D01*
X173914438Y-91093012D01*
X173914500Y-91096969D01*
X173914500Y-91124983D01*
X173914996Y-91128908D01*
X173914996Y-91128909D01*
X173915008Y-91129004D01*
X173915941Y-91140849D01*
X173917335Y-91185205D01*
X173919547Y-91192817D01*
X173923013Y-91204748D01*
X173927023Y-91224112D01*
X173929573Y-91244299D01*
X173932489Y-91251663D01*
X173932490Y-91251668D01*
X173945907Y-91285556D01*
X173949752Y-91296785D01*
X173962131Y-91339393D01*
X173966169Y-91346220D01*
X173966170Y-91346223D01*
X173972488Y-91356906D01*
X173981188Y-91374664D01*
X173985761Y-91386215D01*
X173985765Y-91386221D01*
X173988681Y-91393588D01*
X173993339Y-91399999D01*
X173993340Y-91400001D01*
X174014764Y-91429488D01*
X174021281Y-91439410D01*
X174039826Y-91470768D01*
X174039829Y-91470772D01*
X174043866Y-91477598D01*
X174058250Y-91491982D01*
X174071091Y-91507016D01*
X174083058Y-91523487D01*
X174089166Y-91528540D01*
X174117255Y-91551777D01*
X174126035Y-91559767D01*
X175849163Y-93282896D01*
X175883189Y-93345208D01*
X175881486Y-93405660D01*
X175860989Y-93479570D01*
X175837251Y-93701695D01*
X175837548Y-93706848D01*
X175837548Y-93706851D01*
X175843011Y-93801590D01*
X175850110Y-93924715D01*
X175851247Y-93929761D01*
X175851248Y-93929767D01*
X175871119Y-94017939D01*
X175879976Y-94057237D01*
X175882933Y-94070360D01*
X175878397Y-94141212D01*
X175849111Y-94187156D01*
X173956517Y-96079750D01*
X173948191Y-96087326D01*
X173941697Y-96091447D01*
X173936274Y-96097222D01*
X173894915Y-96141265D01*
X173892160Y-96144107D01*
X173872361Y-96163906D01*
X173869937Y-96167031D01*
X173869929Y-96167040D01*
X173869863Y-96167126D01*
X173862155Y-96176151D01*
X173831783Y-96208494D01*
X173827965Y-96215438D01*
X173827964Y-96215440D01*
X173821978Y-96226329D01*
X173811127Y-96242847D01*
X173798650Y-96258933D01*
X173781024Y-96299666D01*
X173775807Y-96310314D01*
X173769415Y-96321942D01*
X173754431Y-96349197D01*
X173752460Y-96356872D01*
X173752458Y-96356878D01*
X173749369Y-96368911D01*
X173742966Y-96387613D01*
X173734883Y-96406292D01*
X173729524Y-96440128D01*
X173727940Y-96450127D01*
X173725535Y-96461740D01*
X173714500Y-96504718D01*
X173714500Y-96525065D01*
X173712949Y-96544776D01*
X173709765Y-96564879D01*
X173710511Y-96572771D01*
X173713941Y-96609056D01*
X173714500Y-96620914D01*
X173714500Y-100270980D01*
X173713970Y-100282214D01*
X173712292Y-100289719D01*
X173712541Y-100297638D01*
X173714438Y-100358012D01*
X173714500Y-100361969D01*
X173714500Y-100389983D01*
X173714996Y-100393908D01*
X173714996Y-100393909D01*
X173715008Y-100394004D01*
X173715941Y-100405849D01*
X173717335Y-100450205D01*
X173719547Y-100457817D01*
X173723013Y-100469748D01*
X173727023Y-100489112D01*
X173729573Y-100509299D01*
X173732489Y-100516663D01*
X173732490Y-100516668D01*
X173745907Y-100550556D01*
X173749752Y-100561785D01*
X173762131Y-100604393D01*
X173766169Y-100611220D01*
X173766170Y-100611223D01*
X173772488Y-100621906D01*
X173781188Y-100639664D01*
X173785761Y-100651215D01*
X173785765Y-100651221D01*
X173788681Y-100658588D01*
X173793339Y-100664999D01*
X173793340Y-100665001D01*
X173814764Y-100694488D01*
X173821281Y-100704410D01*
X173839826Y-100735768D01*
X173839829Y-100735772D01*
X173843866Y-100742598D01*
X173858250Y-100756982D01*
X173871091Y-100772016D01*
X173871991Y-100773255D01*
X173883058Y-100788487D01*
X173915001Y-100814912D01*
X173917255Y-100816777D01*
X173926035Y-100824767D01*
X175554745Y-102453477D01*
X175562322Y-102461803D01*
X175566447Y-102468303D01*
X175572225Y-102473729D01*
X175572226Y-102473730D01*
X175616281Y-102515100D01*
X175619123Y-102517855D01*
X175638906Y-102537638D01*
X175642114Y-102540126D01*
X175651143Y-102547837D01*
X175683494Y-102578217D01*
X175690443Y-102582037D01*
X175701329Y-102588022D01*
X175717853Y-102598876D01*
X175733933Y-102611349D01*
X175741210Y-102614498D01*
X175774650Y-102628969D01*
X175785311Y-102634192D01*
X175817247Y-102651749D01*
X175817252Y-102651751D01*
X175824197Y-102655569D01*
X175831871Y-102657539D01*
X175831878Y-102657542D01*
X175843913Y-102660632D01*
X175862618Y-102667036D01*
X175874013Y-102671967D01*
X175881292Y-102675117D01*
X175908342Y-102679401D01*
X175925127Y-102682060D01*
X175936741Y-102684465D01*
X175949679Y-102687787D01*
X176010685Y-102724098D01*
X176025781Y-102743995D01*
X176097287Y-102860683D01*
X176097291Y-102860688D01*
X176099987Y-102865088D01*
X176246250Y-103033938D01*
X176250230Y-103037242D01*
X176254981Y-103041187D01*
X176294616Y-103100090D01*
X176296113Y-103171071D01*
X176258997Y-103231593D01*
X176218724Y-103256112D01*
X176103295Y-103299385D01*
X175986739Y-103386739D01*
X175899385Y-103503295D01*
X175848255Y-103639684D01*
X175841500Y-103701866D01*
X175841500Y-105498134D01*
X175848255Y-105560316D01*
X175899385Y-105696705D01*
X175986739Y-105813261D01*
X176103295Y-105900615D01*
X176239684Y-105951745D01*
X176301866Y-105958500D01*
X178098134Y-105958500D01*
X178160316Y-105951745D01*
X178296705Y-105900615D01*
X178413261Y-105813261D01*
X178500615Y-105696705D01*
X178551745Y-105560316D01*
X178558500Y-105498134D01*
X178558500Y-103701866D01*
X178551745Y-103639684D01*
X178500615Y-103503295D01*
X178413261Y-103386739D01*
X178296705Y-103299385D01*
X178284132Y-103294672D01*
X178178203Y-103254960D01*
X178121439Y-103212318D01*
X178096739Y-103145756D01*
X178111947Y-103076408D01*
X178133493Y-103047727D01*
X178234435Y-102947137D01*
X178238096Y-102943489D01*
X178368453Y-102762077D01*
X178387224Y-102724098D01*
X178465136Y-102566453D01*
X178465137Y-102566451D01*
X178467430Y-102561811D01*
X178520883Y-102385878D01*
X178530865Y-102353023D01*
X178530865Y-102353021D01*
X178532370Y-102348069D01*
X178561529Y-102126590D01*
X178561611Y-102123240D01*
X178563074Y-102063365D01*
X178563074Y-102063361D01*
X178563156Y-102060000D01*
X178544852Y-101837361D01*
X178490431Y-101620702D01*
X178401354Y-101415840D01*
X178348044Y-101333436D01*
X178282822Y-101232617D01*
X178282820Y-101232614D01*
X178280014Y-101228277D01*
X178129670Y-101063051D01*
X178125619Y-101059852D01*
X178125615Y-101059848D01*
X177958414Y-100927800D01*
X177958410Y-100927798D01*
X177954359Y-100924598D01*
X177944072Y-100918919D01*
X177782579Y-100829771D01*
X177758789Y-100816638D01*
X177753920Y-100814914D01*
X177753916Y-100814912D01*
X177553087Y-100743795D01*
X177553083Y-100743794D01*
X177548212Y-100742069D01*
X177543119Y-100741162D01*
X177543116Y-100741161D01*
X177333373Y-100703800D01*
X177333367Y-100703799D01*
X177328284Y-100702894D01*
X177254452Y-100701992D01*
X177110081Y-100700228D01*
X177110079Y-100700228D01*
X177104911Y-100700165D01*
X176884091Y-100733955D01*
X176671756Y-100803357D01*
X176473607Y-100906507D01*
X176469474Y-100909610D01*
X176469471Y-100909612D01*
X176299761Y-101037034D01*
X176294965Y-101040635D01*
X176291393Y-101044373D01*
X176210250Y-101129284D01*
X176148725Y-101164714D01*
X176077813Y-101161257D01*
X176030061Y-101131328D01*
X175022405Y-100123672D01*
X174988379Y-100061360D01*
X174985500Y-100034577D01*
X174985500Y-96900422D01*
X175005502Y-96832301D01*
X175022405Y-96811327D01*
X175626405Y-96207327D01*
X175688717Y-96173301D01*
X175759532Y-96178366D01*
X175816368Y-96220913D01*
X175841179Y-96287433D01*
X175841500Y-96296422D01*
X175841500Y-97173134D01*
X175848255Y-97235316D01*
X175899385Y-97371705D01*
X175986739Y-97488261D01*
X176103295Y-97575615D01*
X176239684Y-97626745D01*
X176301866Y-97633500D01*
X178098134Y-97633500D01*
X178160316Y-97626745D01*
X178296705Y-97575615D01*
X178413261Y-97488261D01*
X178500615Y-97371705D01*
X178551745Y-97235316D01*
X178558500Y-97173134D01*
X178558500Y-95376866D01*
X178551745Y-95314684D01*
X178500615Y-95178295D01*
X178413261Y-95061739D01*
X178296705Y-94974385D01*
X178284132Y-94969672D01*
X178178203Y-94929960D01*
X178121439Y-94887318D01*
X178096739Y-94820756D01*
X178111947Y-94751408D01*
X178133493Y-94722727D01*
X178152362Y-94703924D01*
X178238096Y-94618489D01*
X178263761Y-94582773D01*
X178365435Y-94441277D01*
X178368453Y-94437077D01*
X178372058Y-94429784D01*
X178465136Y-94241453D01*
X178465137Y-94241451D01*
X178467430Y-94236811D01*
X178532370Y-94023069D01*
X178561529Y-93801590D01*
X178563156Y-93735000D01*
X178544852Y-93512361D01*
X178490431Y-93295702D01*
X178401354Y-93090840D01*
X178337897Y-92992751D01*
X178282822Y-92907617D01*
X178282820Y-92907614D01*
X178280014Y-92903277D01*
X178129670Y-92738051D01*
X178125619Y-92734852D01*
X178125615Y-92734848D01*
X177958414Y-92602800D01*
X177958410Y-92602798D01*
X177954359Y-92599598D01*
X177758789Y-92491638D01*
X177753920Y-92489914D01*
X177753916Y-92489912D01*
X177553087Y-92418795D01*
X177553083Y-92418794D01*
X177548212Y-92417069D01*
X177543119Y-92416162D01*
X177543116Y-92416161D01*
X177333373Y-92378800D01*
X177333367Y-92378799D01*
X177328284Y-92377894D01*
X177254452Y-92376992D01*
X177110081Y-92375228D01*
X177110079Y-92375228D01*
X177104911Y-92375165D01*
X176957627Y-92397703D01*
X176889200Y-92408173D01*
X176889197Y-92408174D01*
X176884091Y-92408955D01*
X176879185Y-92410559D01*
X176879179Y-92410560D01*
X176875113Y-92411890D01*
X176873670Y-92412361D01*
X176802707Y-92414516D01*
X176745425Y-92381693D01*
X175222405Y-90858672D01*
X175188379Y-90796360D01*
X175185500Y-90769577D01*
X175185500Y-87386695D01*
X175837251Y-87386695D01*
X175837548Y-87391848D01*
X175837548Y-87391851D01*
X175843011Y-87486590D01*
X175850110Y-87609715D01*
X175851247Y-87614761D01*
X175851248Y-87614767D01*
X175871119Y-87702939D01*
X175899222Y-87827639D01*
X175983266Y-88034616D01*
X175985965Y-88039020D01*
X176094010Y-88215334D01*
X176099987Y-88225088D01*
X176246250Y-88393938D01*
X176418126Y-88536632D01*
X176611000Y-88649338D01*
X176819692Y-88729030D01*
X176824760Y-88730061D01*
X176824763Y-88730062D01*
X176932017Y-88751883D01*
X177038597Y-88773567D01*
X177043772Y-88773757D01*
X177043774Y-88773757D01*
X177256673Y-88781564D01*
X177256677Y-88781564D01*
X177261837Y-88781753D01*
X177266957Y-88781097D01*
X177266959Y-88781097D01*
X177478288Y-88754025D01*
X177478289Y-88754025D01*
X177483416Y-88753368D01*
X177488366Y-88751883D01*
X177692429Y-88690661D01*
X177692434Y-88690659D01*
X177697384Y-88689174D01*
X177897994Y-88590896D01*
X178079860Y-88461173D01*
X178113512Y-88427639D01*
X178161209Y-88380107D01*
X178238096Y-88303489D01*
X178297594Y-88220689D01*
X178365435Y-88126277D01*
X178368453Y-88122077D01*
X178387648Y-88083240D01*
X178465136Y-87926453D01*
X178465137Y-87926451D01*
X178467430Y-87921811D01*
X178532370Y-87708069D01*
X178561529Y-87486590D01*
X178561611Y-87483240D01*
X178563074Y-87423365D01*
X178563074Y-87423361D01*
X178563156Y-87420000D01*
X178544852Y-87197361D01*
X178490431Y-86980702D01*
X178401354Y-86775840D01*
X178346366Y-86690842D01*
X178282822Y-86592617D01*
X178282820Y-86592614D01*
X178280014Y-86588277D01*
X178129670Y-86423051D01*
X178125619Y-86419852D01*
X178125615Y-86419848D01*
X177958414Y-86287800D01*
X177958410Y-86287798D01*
X177954359Y-86284598D01*
X177912569Y-86261529D01*
X177862598Y-86211097D01*
X177847826Y-86141654D01*
X177872942Y-86075248D01*
X177900294Y-86048641D01*
X178075328Y-85923792D01*
X178083200Y-85917139D01*
X178234052Y-85766812D01*
X178240730Y-85758965D01*
X178365003Y-85586020D01*
X178370313Y-85577183D01*
X178464670Y-85386267D01*
X178468469Y-85376672D01*
X178530377Y-85172910D01*
X178532555Y-85162837D01*
X178533986Y-85151962D01*
X178531775Y-85137778D01*
X178518617Y-85134000D01*
X175883225Y-85134000D01*
X175869694Y-85137973D01*
X175868257Y-85147966D01*
X175898565Y-85282446D01*
X175901645Y-85292275D01*
X175981770Y-85489603D01*
X175986413Y-85498794D01*
X176097694Y-85680388D01*
X176103777Y-85688699D01*
X176243213Y-85849667D01*
X176250580Y-85856883D01*
X176414434Y-85992916D01*
X176422881Y-85998831D01*
X176491969Y-86039203D01*
X176540693Y-86090842D01*
X176553764Y-86160625D01*
X176527033Y-86226396D01*
X176486584Y-86259752D01*
X176473607Y-86266507D01*
X176469474Y-86269610D01*
X176469471Y-86269612D01*
X176350464Y-86358965D01*
X176294965Y-86400635D01*
X176291393Y-86404373D01*
X176151060Y-86551223D01*
X176140629Y-86562138D01*
X176137715Y-86566410D01*
X176137714Y-86566411D01*
X176071898Y-86662894D01*
X176014743Y-86746680D01*
X175983787Y-86813369D01*
X175928470Y-86932541D01*
X175920688Y-86949305D01*
X175860989Y-87164570D01*
X175837251Y-87386695D01*
X175185500Y-87386695D01*
X175185500Y-85509032D01*
X175186030Y-85497793D01*
X175187709Y-85490281D01*
X175185562Y-85421969D01*
X175185500Y-85418012D01*
X175185500Y-85390017D01*
X175184992Y-85385994D01*
X175184059Y-85374152D01*
X175182914Y-85337720D01*
X175182665Y-85329795D01*
X175176987Y-85310251D01*
X175172977Y-85290888D01*
X175171420Y-85278560D01*
X175171420Y-85278558D01*
X175170427Y-85270701D01*
X175167511Y-85263337D01*
X175167510Y-85263332D01*
X175154093Y-85229444D01*
X175150248Y-85218215D01*
X175144301Y-85197745D01*
X175137869Y-85175607D01*
X175133830Y-85168777D01*
X175127512Y-85158094D01*
X175118812Y-85140336D01*
X175114239Y-85128785D01*
X175114235Y-85128779D01*
X175111319Y-85121412D01*
X175085234Y-85085509D01*
X175078719Y-85075590D01*
X175060174Y-85044232D01*
X175060171Y-85044228D01*
X175056134Y-85037402D01*
X175041750Y-85023018D01*
X175028909Y-85007984D01*
X175021602Y-84997927D01*
X175016942Y-84991513D01*
X174982744Y-84963222D01*
X174973965Y-84955233D01*
X171231958Y-81213226D01*
X171197932Y-81150914D01*
X171200495Y-81087502D01*
X171202012Y-81082511D01*
X171221408Y-81018671D01*
X171251640Y-80789041D01*
X171253327Y-80720000D01*
X171247032Y-80643434D01*
X171234773Y-80494318D01*
X171234772Y-80494312D01*
X171234349Y-80489167D01*
X171177925Y-80264533D01*
X171175863Y-80259792D01*
X171175423Y-80258498D01*
X171172404Y-80187565D01*
X171208213Y-80126261D01*
X171271481Y-80094049D01*
X171294700Y-80091891D01*
X175715500Y-80091891D01*
X175783621Y-80111893D01*
X175830114Y-80165549D01*
X175841500Y-80217891D01*
X175841500Y-80698134D01*
X175848255Y-80760316D01*
X175899385Y-80896705D01*
X175986739Y-81013261D01*
X176103295Y-81100615D01*
X176111704Y-81103767D01*
X176111705Y-81103768D01*
X176220451Y-81144535D01*
X176277216Y-81187176D01*
X176301916Y-81253738D01*
X176286709Y-81323087D01*
X176267316Y-81349568D01*
X176177765Y-81443278D01*
X176140629Y-81482138D01*
X176137715Y-81486410D01*
X176137714Y-81486411D01*
X176132209Y-81494481D01*
X176014743Y-81666680D01*
X175978989Y-81743706D01*
X175947222Y-81812143D01*
X175920688Y-81869305D01*
X175860989Y-82084570D01*
X175837251Y-82306695D01*
X175837548Y-82311848D01*
X175837548Y-82311851D01*
X175843011Y-82406590D01*
X175850110Y-82529715D01*
X175851247Y-82534761D01*
X175851248Y-82534767D01*
X175871754Y-82625755D01*
X175899222Y-82747639D01*
X175983266Y-82954616D01*
X176099987Y-83145088D01*
X176246250Y-83313938D01*
X176418126Y-83456632D01*
X176451714Y-83476259D01*
X176491955Y-83499774D01*
X176540679Y-83551412D01*
X176553750Y-83621195D01*
X176527019Y-83686967D01*
X176486562Y-83720327D01*
X176478457Y-83724546D01*
X176469738Y-83730036D01*
X176299433Y-83857905D01*
X176291726Y-83864748D01*
X176144590Y-84018717D01*
X176138104Y-84026727D01*
X176018098Y-84202649D01*
X176013000Y-84211623D01*
X175923338Y-84404783D01*
X175919775Y-84414470D01*
X175864389Y-84614183D01*
X175865912Y-84622607D01*
X175878292Y-84626000D01*
X178518344Y-84626000D01*
X178531875Y-84622027D01*
X178533180Y-84612947D01*
X178491214Y-84445875D01*
X178487894Y-84436124D01*
X178402972Y-84240814D01*
X178398105Y-84231739D01*
X178282426Y-84052926D01*
X178276136Y-84044757D01*
X178132806Y-83887240D01*
X178125273Y-83880215D01*
X177958139Y-83748222D01*
X177949556Y-83742520D01*
X177912602Y-83722120D01*
X177862631Y-83671687D01*
X177847859Y-83602245D01*
X177872975Y-83535839D01*
X177900327Y-83509232D01*
X177938227Y-83482198D01*
X178079860Y-83381173D01*
X178132175Y-83329041D01*
X178216253Y-83245256D01*
X178238096Y-83223489D01*
X178246784Y-83211399D01*
X178365435Y-83046277D01*
X178368453Y-83042077D01*
X178374834Y-83029167D01*
X178465136Y-82846453D01*
X178465137Y-82846451D01*
X178467430Y-82841811D01*
X178532370Y-82628069D01*
X178561529Y-82406590D01*
X178563156Y-82340000D01*
X178544852Y-82117361D01*
X178516821Y-82005765D01*
X178519625Y-81934823D01*
X178549930Y-81885974D01*
X180392253Y-80043652D01*
X180400539Y-80036112D01*
X180407018Y-80032000D01*
X180453644Y-79982348D01*
X180456398Y-79979507D01*
X180476135Y-79959770D01*
X180478615Y-79956573D01*
X180486320Y-79947551D01*
X180511159Y-79921100D01*
X180516586Y-79915321D01*
X180520405Y-79908375D01*
X180520407Y-79908372D01*
X180526348Y-79897566D01*
X180537199Y-79881047D01*
X180544758Y-79871301D01*
X180549614Y-79865041D01*
X180552759Y-79857772D01*
X180552762Y-79857768D01*
X180567174Y-79824463D01*
X180572391Y-79813813D01*
X180593695Y-79775060D01*
X180598733Y-79755437D01*
X180605137Y-79736734D01*
X180610033Y-79725420D01*
X180610033Y-79725419D01*
X180613181Y-79718145D01*
X180614420Y-79710322D01*
X180614423Y-79710312D01*
X180620099Y-79674476D01*
X180622505Y-79662856D01*
X180631528Y-79627711D01*
X180631528Y-79627710D01*
X180633500Y-79620030D01*
X180633500Y-79599776D01*
X180635051Y-79580065D01*
X180636980Y-79567886D01*
X180638220Y-79560057D01*
X180634059Y-79516038D01*
X180633500Y-79504181D01*
X180633500Y-78878767D01*
X180634027Y-78867584D01*
X180635702Y-78860091D01*
X180635308Y-78847540D01*
X180633562Y-78792014D01*
X180633500Y-78788055D01*
X180633500Y-78760144D01*
X180632995Y-78756144D01*
X180632062Y-78744301D01*
X180630922Y-78708029D01*
X180630673Y-78700110D01*
X180625022Y-78680658D01*
X180621014Y-78661306D01*
X180619467Y-78649063D01*
X180618474Y-78641203D01*
X180605102Y-78607428D01*
X180602200Y-78600097D01*
X180598355Y-78588870D01*
X180596172Y-78581358D01*
X180586018Y-78546407D01*
X180581984Y-78539585D01*
X180581981Y-78539579D01*
X180575706Y-78528968D01*
X180567010Y-78511218D01*
X180562472Y-78499756D01*
X180562469Y-78499751D01*
X180559552Y-78492383D01*
X180533573Y-78456625D01*
X180527057Y-78446707D01*
X180508575Y-78415457D01*
X180504542Y-78408637D01*
X180490218Y-78394313D01*
X180477376Y-78379278D01*
X180471746Y-78371529D01*
X180465472Y-78362893D01*
X180431406Y-78334711D01*
X180422627Y-78326722D01*
X178598248Y-76502343D01*
X178590708Y-76494057D01*
X178586596Y-76487578D01*
X178572903Y-76474719D01*
X178536945Y-76440953D01*
X178534103Y-76438198D01*
X178514366Y-76418461D01*
X178511169Y-76415981D01*
X178502147Y-76408276D01*
X178497993Y-76404375D01*
X178469917Y-76378010D01*
X178462971Y-76374191D01*
X178462968Y-76374189D01*
X178452162Y-76368248D01*
X178435643Y-76357397D01*
X178435179Y-76357037D01*
X178419637Y-76344982D01*
X178412368Y-76341837D01*
X178412364Y-76341834D01*
X178379059Y-76327422D01*
X178368409Y-76322205D01*
X178329656Y-76300901D01*
X178310033Y-76295863D01*
X178291330Y-76289459D01*
X178280016Y-76284563D01*
X178280015Y-76284563D01*
X178272741Y-76281415D01*
X178264918Y-76280176D01*
X178264908Y-76280173D01*
X178229072Y-76274497D01*
X178217452Y-76272091D01*
X178182307Y-76263068D01*
X178182306Y-76263068D01*
X178174626Y-76261096D01*
X178154372Y-76261096D01*
X178134661Y-76259545D01*
X178122482Y-76257616D01*
X178114653Y-76256376D01*
X178106761Y-76257122D01*
X178101535Y-76257616D01*
X178085382Y-76259143D01*
X178070635Y-76260537D01*
X178058777Y-76261096D01*
X171293417Y-76261096D01*
X171225296Y-76241094D01*
X171178803Y-76187438D01*
X171168699Y-76117164D01*
X171172858Y-76098468D01*
X171219905Y-75943617D01*
X171221408Y-75938671D01*
X171251640Y-75709041D01*
X171253327Y-75640000D01*
X171247032Y-75563434D01*
X171234773Y-75414318D01*
X171234772Y-75414312D01*
X171234349Y-75409167D01*
X171177925Y-75184533D01*
X171175866Y-75179797D01*
X171087630Y-74976868D01*
X171087628Y-74976865D01*
X171085570Y-74972131D01*
X170959764Y-74777665D01*
X170803887Y-74606358D01*
X170799836Y-74603159D01*
X170799832Y-74603155D01*
X170627077Y-74466722D01*
X170586014Y-74408805D01*
X170582782Y-74337882D01*
X170618407Y-74276470D01*
X170632001Y-74265261D01*
X170635872Y-74262500D01*
X170752243Y-74179494D01*
X170916303Y-74016005D01*
X171051458Y-73827917D01*
X171098641Y-73732450D01*
X171151784Y-73624922D01*
X171151785Y-73624920D01*
X171154078Y-73620280D01*
X171221408Y-73398671D01*
X171251640Y-73169041D01*
X171253327Y-73100000D01*
X171247032Y-73023434D01*
X171234773Y-72874318D01*
X171234772Y-72874312D01*
X171234349Y-72869167D01*
X171177925Y-72644533D01*
X171175866Y-72639797D01*
X171087630Y-72436868D01*
X171087628Y-72436865D01*
X171085570Y-72432131D01*
X170959764Y-72237665D01*
X170803887Y-72066358D01*
X170799836Y-72063159D01*
X170799832Y-72063155D01*
X170627077Y-71926722D01*
X170586014Y-71868805D01*
X170582782Y-71797882D01*
X170618407Y-71736470D01*
X170632001Y-71725261D01*
X170635872Y-71722500D01*
X170752243Y-71639494D01*
X170916303Y-71476005D01*
X171051458Y-71287917D01*
X171098641Y-71192450D01*
X171151784Y-71084922D01*
X171151785Y-71084920D01*
X171154078Y-71080280D01*
X171221408Y-70858671D01*
X171251640Y-70629041D01*
X171253327Y-70560000D01*
X171247032Y-70483434D01*
X171234773Y-70334318D01*
X171234772Y-70334312D01*
X171234349Y-70329167D01*
X171177925Y-70104533D01*
X171175866Y-70099797D01*
X171087630Y-69896868D01*
X171087628Y-69896865D01*
X171085570Y-69892131D01*
X170959764Y-69697665D01*
X170803887Y-69526358D01*
X170799836Y-69523159D01*
X170799832Y-69523155D01*
X170627077Y-69386722D01*
X170586014Y-69328805D01*
X170582782Y-69257882D01*
X170618407Y-69196470D01*
X170632001Y-69185261D01*
X170635872Y-69182500D01*
X170752243Y-69099494D01*
X170916303Y-68936005D01*
X171051458Y-68747917D01*
X171098641Y-68652450D01*
X171151784Y-68544922D01*
X171151785Y-68544920D01*
X171154078Y-68540280D01*
X171221408Y-68318671D01*
X171251640Y-68089041D01*
X171253327Y-68020000D01*
X171247032Y-67943434D01*
X171234773Y-67794318D01*
X171234772Y-67794312D01*
X171234349Y-67789167D01*
X171177925Y-67564533D01*
X171175866Y-67559797D01*
X171087630Y-67356868D01*
X171087628Y-67356865D01*
X171085570Y-67352131D01*
X170959764Y-67157665D01*
X170803887Y-66986358D01*
X170799836Y-66983159D01*
X170799832Y-66983155D01*
X170626177Y-66846011D01*
X170626172Y-66846008D01*
X170622123Y-66842810D01*
X170617607Y-66840317D01*
X170617604Y-66840315D01*
X170423879Y-66733373D01*
X170423875Y-66733371D01*
X170419355Y-66730876D01*
X170414486Y-66729152D01*
X170414482Y-66729150D01*
X170205903Y-66655288D01*
X170205899Y-66655287D01*
X170201028Y-66653562D01*
X170195935Y-66652655D01*
X170195932Y-66652654D01*
X169978095Y-66613851D01*
X169978089Y-66613850D01*
X169973006Y-66612945D01*
X169900096Y-66612054D01*
X169746581Y-66610179D01*
X169746579Y-66610179D01*
X169741411Y-66610116D01*
X169512464Y-66645150D01*
X169292314Y-66717106D01*
X169287726Y-66719494D01*
X169287722Y-66719496D01*
X169261065Y-66733373D01*
X169086872Y-66824052D01*
X169082739Y-66827155D01*
X169082736Y-66827157D01*
X169057625Y-66846011D01*
X168901655Y-66963117D01*
X168741639Y-67130564D01*
X168738725Y-67134836D01*
X168738724Y-67134837D01*
X168723152Y-67157665D01*
X168611119Y-67321899D01*
X168513602Y-67531981D01*
X168451707Y-67755169D01*
X168427095Y-67985469D01*
X168427392Y-67990622D01*
X168427392Y-67990625D01*
X168433067Y-68089041D01*
X168440427Y-68216697D01*
X168441564Y-68221743D01*
X168441565Y-68221749D01*
X168473741Y-68364523D01*
X168491346Y-68442642D01*
X168493288Y-68447424D01*
X168493289Y-68447428D01*
X168576540Y-68652450D01*
X168578484Y-68657237D01*
X168699501Y-68854719D01*
X168851147Y-69029784D01*
X169029349Y-69177730D01*
X169033819Y-69180342D01*
X169037511Y-69182500D01*
X169086232Y-69234140D01*
X169099301Y-69303924D01*
X169072566Y-69369694D01*
X169049589Y-69392045D01*
X168901655Y-69503117D01*
X168741639Y-69670564D01*
X168738725Y-69674836D01*
X168738724Y-69674837D01*
X168723152Y-69697665D01*
X168611119Y-69861899D01*
X168513602Y-70071981D01*
X168451707Y-70295169D01*
X168427095Y-70525469D01*
X168427392Y-70530622D01*
X168427392Y-70530625D01*
X168433067Y-70629041D01*
X168440427Y-70756697D01*
X168441564Y-70761743D01*
X168441565Y-70761749D01*
X168473741Y-70904523D01*
X168491346Y-70982642D01*
X168493288Y-70987424D01*
X168493289Y-70987428D01*
X168576540Y-71192450D01*
X168578484Y-71197237D01*
X168699501Y-71394719D01*
X168851147Y-71569784D01*
X169029349Y-71717730D01*
X169033819Y-71720342D01*
X169037511Y-71722500D01*
X169086232Y-71774140D01*
X169099301Y-71843924D01*
X169072566Y-71909694D01*
X169049589Y-71932045D01*
X168901655Y-72043117D01*
X168741639Y-72210564D01*
X168738725Y-72214836D01*
X168738724Y-72214837D01*
X168723152Y-72237665D01*
X168611119Y-72401899D01*
X168513602Y-72611981D01*
X168451707Y-72835169D01*
X168427095Y-73065469D01*
X168427392Y-73070622D01*
X168427392Y-73070625D01*
X168433067Y-73169041D01*
X168440427Y-73296697D01*
X168441564Y-73301743D01*
X168441565Y-73301749D01*
X168473741Y-73444523D01*
X168491346Y-73522642D01*
X168493288Y-73527424D01*
X168493289Y-73527428D01*
X168576540Y-73732450D01*
X168578484Y-73737237D01*
X168699501Y-73934719D01*
X168851147Y-74109784D01*
X169029349Y-74257730D01*
X169033819Y-74260342D01*
X169037511Y-74262500D01*
X169086232Y-74314140D01*
X169099301Y-74383924D01*
X169072566Y-74449694D01*
X169049589Y-74472045D01*
X168901655Y-74583117D01*
X168741639Y-74750564D01*
X168738725Y-74754836D01*
X168738724Y-74754837D01*
X168723152Y-74777665D01*
X168611119Y-74941899D01*
X168513602Y-75151981D01*
X168451707Y-75375169D01*
X168427095Y-75605469D01*
X168427392Y-75610622D01*
X168427392Y-75610625D01*
X168433067Y-75709041D01*
X168440427Y-75836697D01*
X168441564Y-75841743D01*
X168441565Y-75841749D01*
X168473741Y-75984523D01*
X168491346Y-76062642D01*
X168493288Y-76067425D01*
X168493291Y-76067434D01*
X168501517Y-76087691D01*
X168508614Y-76158332D01*
X168476393Y-76221596D01*
X168415084Y-76257396D01*
X168384775Y-76261096D01*
X162948454Y-76261096D01*
X162937271Y-76260569D01*
X162929778Y-76258894D01*
X162921852Y-76259143D01*
X162921851Y-76259143D01*
X162861688Y-76261034D01*
X162857730Y-76261096D01*
X162829830Y-76261096D01*
X162825840Y-76261600D01*
X162814006Y-76262532D01*
X162769797Y-76263922D01*
X162762181Y-76266135D01*
X162762179Y-76266135D01*
X162750338Y-76269575D01*
X162730979Y-76273584D01*
X162729669Y-76273750D01*
X162710889Y-76276122D01*
X162703523Y-76279038D01*
X162703517Y-76279040D01*
X162669784Y-76292396D01*
X162658554Y-76296241D01*
X162642514Y-76300901D01*
X162616093Y-76308577D01*
X162609270Y-76312612D01*
X162598652Y-76318891D01*
X162580899Y-76327588D01*
X162573254Y-76330615D01*
X162562069Y-76335044D01*
X162548391Y-76344982D01*
X162526298Y-76361033D01*
X162516381Y-76367547D01*
X162478324Y-76390054D01*
X162464003Y-76404375D01*
X162448970Y-76417215D01*
X162432579Y-76429124D01*
X162423903Y-76439612D01*
X162404388Y-76463201D01*
X162396398Y-76471980D01*
X156106938Y-82761439D01*
X156044626Y-82795465D01*
X155973811Y-82790400D01*
X155916975Y-82747853D01*
X155902293Y-82722586D01*
X155902266Y-82722522D01*
X155860769Y-82627086D01*
X155847630Y-82596868D01*
X155847628Y-82596865D01*
X155845570Y-82592131D01*
X155719764Y-82397665D01*
X155563887Y-82226358D01*
X155559836Y-82223159D01*
X155559832Y-82223155D01*
X155387077Y-82086722D01*
X155346014Y-82028805D01*
X155342782Y-81957882D01*
X155378407Y-81896470D01*
X155392001Y-81885261D01*
X155395872Y-81882500D01*
X155512243Y-81799494D01*
X155676303Y-81636005D01*
X155811458Y-81447917D01*
X155840532Y-81389091D01*
X155911784Y-81244922D01*
X155911785Y-81244920D01*
X155914078Y-81240280D01*
X155981408Y-81018671D01*
X156011640Y-80789041D01*
X156013327Y-80720000D01*
X156007032Y-80643434D01*
X155994773Y-80494318D01*
X155994772Y-80494312D01*
X155994349Y-80489167D01*
X155966137Y-80376850D01*
X155939184Y-80269544D01*
X155939183Y-80269540D01*
X155937925Y-80264533D01*
X155935301Y-80258498D01*
X155847630Y-80056868D01*
X155847628Y-80056865D01*
X155845570Y-80052131D01*
X155719764Y-79857665D01*
X155563887Y-79686358D01*
X155559836Y-79683159D01*
X155559832Y-79683155D01*
X155387077Y-79546722D01*
X155346014Y-79488805D01*
X155342782Y-79417882D01*
X155378407Y-79356470D01*
X155392001Y-79345261D01*
X155395872Y-79342500D01*
X155512243Y-79259494D01*
X155676303Y-79096005D01*
X155811458Y-78907917D01*
X155816128Y-78898469D01*
X155911784Y-78704922D01*
X155911785Y-78704920D01*
X155914078Y-78700280D01*
X155981408Y-78478671D01*
X156011640Y-78249041D01*
X156013327Y-78180000D01*
X156007032Y-78103434D01*
X155994773Y-77954318D01*
X155994772Y-77954312D01*
X155994349Y-77949167D01*
X155937925Y-77724533D01*
X155929144Y-77704338D01*
X155847630Y-77516868D01*
X155847628Y-77516865D01*
X155845570Y-77512131D01*
X155719764Y-77317665D01*
X155563887Y-77146358D01*
X155559836Y-77143159D01*
X155559832Y-77143155D01*
X155387077Y-77006722D01*
X155346014Y-76948805D01*
X155342782Y-76877882D01*
X155378407Y-76816470D01*
X155392001Y-76805261D01*
X155395872Y-76802500D01*
X155512243Y-76719494D01*
X155676303Y-76556005D01*
X155811458Y-76367917D01*
X155814861Y-76361033D01*
X155911784Y-76164922D01*
X155911785Y-76164920D01*
X155914078Y-76160280D01*
X155981408Y-75938671D01*
X156011640Y-75709041D01*
X156013327Y-75640000D01*
X156007032Y-75563434D01*
X155994773Y-75414318D01*
X155994772Y-75414312D01*
X155994349Y-75409167D01*
X155937925Y-75184533D01*
X155935866Y-75179797D01*
X155847630Y-74976868D01*
X155847628Y-74976865D01*
X155845570Y-74972131D01*
X155719764Y-74777665D01*
X155563887Y-74606358D01*
X155559836Y-74603159D01*
X155559832Y-74603155D01*
X155387077Y-74466722D01*
X155346014Y-74408805D01*
X155342782Y-74337882D01*
X155378407Y-74276470D01*
X155392001Y-74265261D01*
X155395872Y-74262500D01*
X155512243Y-74179494D01*
X155676303Y-74016005D01*
X155811458Y-73827917D01*
X155858641Y-73732450D01*
X155911784Y-73624922D01*
X155911785Y-73624920D01*
X155914078Y-73620280D01*
X155981408Y-73398671D01*
X156011640Y-73169041D01*
X156013327Y-73100000D01*
X156007032Y-73023434D01*
X155994773Y-72874318D01*
X155994772Y-72874312D01*
X155994349Y-72869167D01*
X155937925Y-72644533D01*
X155935866Y-72639797D01*
X155847630Y-72436868D01*
X155847628Y-72436865D01*
X155845570Y-72432131D01*
X155719764Y-72237665D01*
X155563887Y-72066358D01*
X155559836Y-72063159D01*
X155559832Y-72063155D01*
X155387077Y-71926722D01*
X155346014Y-71868805D01*
X155342782Y-71797882D01*
X155378407Y-71736470D01*
X155392001Y-71725261D01*
X155395872Y-71722500D01*
X155512243Y-71639494D01*
X155676303Y-71476005D01*
X155811458Y-71287917D01*
X155858641Y-71192450D01*
X155911784Y-71084922D01*
X155911785Y-71084920D01*
X155914078Y-71080280D01*
X155981408Y-70858671D01*
X156011640Y-70629041D01*
X156013327Y-70560000D01*
X156007032Y-70483434D01*
X155994773Y-70334318D01*
X155994772Y-70334312D01*
X155994349Y-70329167D01*
X155937925Y-70104533D01*
X155935866Y-70099797D01*
X155847630Y-69896868D01*
X155847628Y-69896865D01*
X155845570Y-69892131D01*
X155719764Y-69697665D01*
X155563887Y-69526358D01*
X155559836Y-69523159D01*
X155559832Y-69523155D01*
X155387077Y-69386722D01*
X155346014Y-69328805D01*
X155342782Y-69257882D01*
X155378407Y-69196470D01*
X155392001Y-69185261D01*
X155395872Y-69182500D01*
X155512243Y-69099494D01*
X155676303Y-68936005D01*
X155811458Y-68747917D01*
X155858641Y-68652450D01*
X155911784Y-68544922D01*
X155911785Y-68544920D01*
X155914078Y-68540280D01*
X155981408Y-68318671D01*
X156011640Y-68089041D01*
X156013327Y-68020000D01*
X156007032Y-67943434D01*
X155994773Y-67794318D01*
X155994772Y-67794312D01*
X155994349Y-67789167D01*
X155937925Y-67564533D01*
X155935866Y-67559797D01*
X155847630Y-67356868D01*
X155847628Y-67356865D01*
X155845570Y-67352131D01*
X155719764Y-67157665D01*
X155563887Y-66986358D01*
X155559836Y-66983159D01*
X155559832Y-66983155D01*
X155386177Y-66846011D01*
X155386172Y-66846008D01*
X155382123Y-66842810D01*
X155377607Y-66840317D01*
X155377604Y-66840315D01*
X155183879Y-66733373D01*
X155183875Y-66733371D01*
X155179355Y-66730876D01*
X155174486Y-66729152D01*
X155174482Y-66729150D01*
X154965903Y-66655288D01*
X154965899Y-66655287D01*
X154961028Y-66653562D01*
X154955935Y-66652655D01*
X154955932Y-66652654D01*
X154738095Y-66613851D01*
X154738089Y-66613850D01*
X154733006Y-66612945D01*
X154660096Y-66612054D01*
X154506581Y-66610179D01*
X154506579Y-66610179D01*
X154501411Y-66610116D01*
X154272464Y-66645150D01*
X154052314Y-66717106D01*
X154047726Y-66719494D01*
X154047722Y-66719496D01*
X154021065Y-66733373D01*
X153846872Y-66824052D01*
X153842739Y-66827155D01*
X153842736Y-66827157D01*
X153817625Y-66846011D01*
X153661655Y-66963117D01*
X153501639Y-67130564D01*
X153498725Y-67134836D01*
X153498724Y-67134837D01*
X153483152Y-67157665D01*
X153371119Y-67321899D01*
X153273602Y-67531981D01*
X153211707Y-67755169D01*
X153187095Y-67985469D01*
X153187392Y-67990622D01*
X153187392Y-67990625D01*
X153193067Y-68089041D01*
X153200427Y-68216697D01*
X153201564Y-68221743D01*
X153201565Y-68221749D01*
X153233741Y-68364523D01*
X153251346Y-68442642D01*
X153253288Y-68447424D01*
X153253289Y-68447428D01*
X153336540Y-68652450D01*
X153338484Y-68657237D01*
X153459501Y-68854719D01*
X153611147Y-69029784D01*
X153789349Y-69177730D01*
X153793819Y-69180342D01*
X153797511Y-69182500D01*
X153846232Y-69234140D01*
X153859301Y-69303924D01*
X153832566Y-69369694D01*
X153809589Y-69392045D01*
X153661655Y-69503117D01*
X153501639Y-69670564D01*
X153498725Y-69674836D01*
X153498724Y-69674837D01*
X153483152Y-69697665D01*
X153371119Y-69861899D01*
X153273602Y-70071981D01*
X153211707Y-70295169D01*
X153187095Y-70525469D01*
X153187392Y-70530622D01*
X153187392Y-70530625D01*
X153193067Y-70629041D01*
X153200427Y-70756697D01*
X153201564Y-70761743D01*
X153201565Y-70761749D01*
X153233741Y-70904523D01*
X153251346Y-70982642D01*
X153253288Y-70987424D01*
X153253289Y-70987428D01*
X153336540Y-71192450D01*
X153338484Y-71197237D01*
X153459501Y-71394719D01*
X153611147Y-71569784D01*
X153789349Y-71717730D01*
X153793819Y-71720342D01*
X153797511Y-71722500D01*
X153846232Y-71774140D01*
X153859301Y-71843924D01*
X153832566Y-71909694D01*
X153809589Y-71932045D01*
X153661655Y-72043117D01*
X153501639Y-72210564D01*
X153498725Y-72214836D01*
X153498724Y-72214837D01*
X153483152Y-72237665D01*
X153371119Y-72401899D01*
X153273602Y-72611981D01*
X153211707Y-72835169D01*
X153187095Y-73065469D01*
X153187392Y-73070622D01*
X153187392Y-73070625D01*
X153193067Y-73169041D01*
X153200427Y-73296697D01*
X153201564Y-73301743D01*
X153201565Y-73301749D01*
X153233741Y-73444523D01*
X153251346Y-73522642D01*
X153253288Y-73527424D01*
X153253289Y-73527428D01*
X153336540Y-73732450D01*
X153338484Y-73737237D01*
X153459501Y-73934719D01*
X153611147Y-74109784D01*
X153789349Y-74257730D01*
X153793819Y-74260342D01*
X153797511Y-74262500D01*
X153846232Y-74314140D01*
X153859301Y-74383924D01*
X153832566Y-74449694D01*
X153809589Y-74472045D01*
X153661655Y-74583117D01*
X153501639Y-74750564D01*
X153498725Y-74754836D01*
X153498724Y-74754837D01*
X153483152Y-74777665D01*
X153371119Y-74941899D01*
X153273602Y-75151981D01*
X153211707Y-75375169D01*
X153187095Y-75605469D01*
X153187392Y-75610622D01*
X153187392Y-75610625D01*
X153193067Y-75709041D01*
X153200427Y-75836697D01*
X153201564Y-75841743D01*
X153201565Y-75841749D01*
X153233741Y-75984523D01*
X153251346Y-76062642D01*
X153253288Y-76067424D01*
X153253289Y-76067428D01*
X153332976Y-76263673D01*
X153338484Y-76277237D01*
X153459501Y-76474719D01*
X153611147Y-76649784D01*
X153789349Y-76797730D01*
X153793819Y-76800342D01*
X153797511Y-76802500D01*
X153846232Y-76854140D01*
X153859301Y-76923924D01*
X153832566Y-76989694D01*
X153809589Y-77012045D01*
X153661655Y-77123117D01*
X153501639Y-77290564D01*
X153498725Y-77294836D01*
X153498724Y-77294837D01*
X153483152Y-77317665D01*
X153371119Y-77481899D01*
X153273602Y-77691981D01*
X153211707Y-77915169D01*
X153187095Y-78145469D01*
X153187392Y-78150622D01*
X153187392Y-78150625D01*
X153197788Y-78330928D01*
X153200427Y-78376697D01*
X153201564Y-78381743D01*
X153201565Y-78381749D01*
X153224524Y-78483625D01*
X153251346Y-78602642D01*
X153253288Y-78607424D01*
X153253289Y-78607428D01*
X153326634Y-78788055D01*
X153338484Y-78817237D01*
X153459501Y-79014719D01*
X153611147Y-79189784D01*
X153789349Y-79337730D01*
X153793819Y-79340342D01*
X153797511Y-79342500D01*
X153846232Y-79394140D01*
X153859301Y-79463924D01*
X153832566Y-79529694D01*
X153809589Y-79552045D01*
X153661655Y-79663117D01*
X153501639Y-79830564D01*
X153498725Y-79834836D01*
X153498724Y-79834837D01*
X153483152Y-79857665D01*
X153371119Y-80021899D01*
X153273602Y-80231981D01*
X153211707Y-80455169D01*
X153187095Y-80685469D01*
X153187392Y-80690622D01*
X153187392Y-80690625D01*
X153199274Y-80896705D01*
X153200427Y-80916697D01*
X153201564Y-80921743D01*
X153201565Y-80921749D01*
X153224524Y-81023624D01*
X153251346Y-81142642D01*
X153253288Y-81147424D01*
X153253289Y-81147428D01*
X153311201Y-81290048D01*
X153338484Y-81357237D01*
X153459501Y-81554719D01*
X153611147Y-81729784D01*
X153789349Y-81877730D01*
X153793819Y-81880342D01*
X153797511Y-81882500D01*
X153846232Y-81934140D01*
X153859301Y-82003924D01*
X153832566Y-82069694D01*
X153809589Y-82092045D01*
X153661655Y-82203117D01*
X153501639Y-82370564D01*
X153498725Y-82374836D01*
X153498724Y-82374837D01*
X153483152Y-82397665D01*
X153371119Y-82561899D01*
X153273602Y-82771981D01*
X153211707Y-82995169D01*
X153187095Y-83225469D01*
X153187392Y-83230622D01*
X153187392Y-83230625D01*
X153193067Y-83329041D01*
X153200427Y-83456697D01*
X153201564Y-83461743D01*
X153201565Y-83461749D01*
X153224879Y-83565199D01*
X153251346Y-83682642D01*
X153253288Y-83687424D01*
X153253289Y-83687428D01*
X153336271Y-83891787D01*
X153338484Y-83897237D01*
X153341183Y-83901641D01*
X153404222Y-84004511D01*
X153459501Y-84094719D01*
X153459819Y-84095086D01*
X153483450Y-84160589D01*
X153467611Y-84229797D01*
X153446776Y-84257318D01*
X153149988Y-84554106D01*
X153087676Y-84588132D01*
X153060893Y-84591011D01*
X150399106Y-84591011D01*
X150330985Y-84571009D01*
X150310011Y-84554106D01*
X149151218Y-83395313D01*
X149117192Y-83333001D01*
X149119755Y-83269589D01*
X149122669Y-83260000D01*
X149132370Y-83228069D01*
X149161529Y-83006590D01*
X149163156Y-82940000D01*
X149144852Y-82717361D01*
X149090431Y-82500702D01*
X149001354Y-82295840D01*
X148880014Y-82108277D01*
X148863117Y-82089707D01*
X148732798Y-81946488D01*
X148701746Y-81882642D01*
X148710141Y-81812143D01*
X148755317Y-81757375D01*
X148781761Y-81743706D01*
X148888297Y-81703767D01*
X148896705Y-81700615D01*
X149013261Y-81613261D01*
X149100615Y-81496705D01*
X149151745Y-81360316D01*
X149158500Y-81298134D01*
X149158500Y-79501866D01*
X149151745Y-79439684D01*
X149100615Y-79303295D01*
X149013261Y-79186739D01*
X148896705Y-79099385D01*
X148760316Y-79048255D01*
X148698134Y-79041500D01*
X146901866Y-79041500D01*
X146839684Y-79048255D01*
X146703295Y-79099385D01*
X146586739Y-79186739D01*
X146499385Y-79303295D01*
X146448255Y-79439684D01*
X146441500Y-79501866D01*
X146441500Y-80810405D01*
X146421498Y-80878526D01*
X146404595Y-80899500D01*
X146233236Y-81070859D01*
X146224950Y-81078399D01*
X146218471Y-81082511D01*
X146213046Y-81088288D01*
X146171846Y-81132162D01*
X146169091Y-81135004D01*
X146149354Y-81154741D01*
X146146874Y-81157938D01*
X146139171Y-81166958D01*
X146108903Y-81199190D01*
X146105084Y-81206136D01*
X146105082Y-81206139D01*
X146099141Y-81216945D01*
X146088290Y-81233464D01*
X146075875Y-81249470D01*
X146072730Y-81256739D01*
X146072727Y-81256743D01*
X146058315Y-81290048D01*
X146053098Y-81300698D01*
X146031794Y-81339451D01*
X146029823Y-81347126D01*
X146029823Y-81347127D01*
X146026756Y-81359073D01*
X146020352Y-81377777D01*
X146012308Y-81396366D01*
X146011069Y-81404189D01*
X146011066Y-81404199D01*
X146005390Y-81440035D01*
X146002984Y-81451655D01*
X145991989Y-81494481D01*
X145991989Y-81514735D01*
X145990438Y-81534445D01*
X145987269Y-81554454D01*
X136976267Y-81554454D01*
X136976267Y-64132703D01*
X139490743Y-64132703D01*
X139528268Y-64417734D01*
X139604129Y-64695036D01*
X139605813Y-64698984D01*
X139696575Y-64911770D01*
X139716923Y-64959476D01*
X139728693Y-64979142D01*
X139836621Y-65159476D01*
X139864561Y-65206161D01*
X140044313Y-65430528D01*
X140252851Y-65628423D01*
X140486317Y-65796186D01*
X140490112Y-65798195D01*
X140490113Y-65798196D01*
X140511869Y-65809715D01*
X140740392Y-65930712D01*
X141010373Y-66029511D01*
X141291264Y-66090755D01*
X141319841Y-66093004D01*
X141514282Y-66108307D01*
X141514291Y-66108307D01*
X141516739Y-66108500D01*
X141672271Y-66108500D01*
X141674407Y-66108354D01*
X141674418Y-66108354D01*
X141882548Y-66094165D01*
X141882554Y-66094164D01*
X141886825Y-66093873D01*
X141891020Y-66093004D01*
X141891022Y-66093004D01*
X142027583Y-66064724D01*
X142168342Y-66035574D01*
X142439343Y-65939607D01*
X142694812Y-65807750D01*
X142698313Y-65805289D01*
X142698317Y-65805287D01*
X142923906Y-65646740D01*
X142930023Y-65642441D01*
X143140622Y-65446740D01*
X143322713Y-65224268D01*
X143472927Y-64979142D01*
X143588483Y-64715898D01*
X143609097Y-64643534D01*
X143666068Y-64443534D01*
X143667244Y-64439406D01*
X143682430Y-64332703D01*
X181090743Y-64332703D01*
X181091302Y-64336947D01*
X181091302Y-64336951D01*
X181102483Y-64421876D01*
X181128268Y-64617734D01*
X181204129Y-64895036D01*
X181316923Y-65159476D01*
X181464561Y-65406161D01*
X181644313Y-65630528D01*
X181661397Y-65646740D01*
X181828471Y-65805287D01*
X181852851Y-65828423D01*
X182086317Y-65996186D01*
X182090112Y-65998195D01*
X182090113Y-65998196D01*
X182111869Y-66009715D01*
X182340392Y-66130712D01*
X182610373Y-66229511D01*
X182891264Y-66290755D01*
X182919841Y-66293004D01*
X183114282Y-66308307D01*
X183114291Y-66308307D01*
X183116739Y-66308500D01*
X183272271Y-66308500D01*
X183274407Y-66308354D01*
X183274418Y-66308354D01*
X183482548Y-66294165D01*
X183482554Y-66294164D01*
X183486825Y-66293873D01*
X183491020Y-66293004D01*
X183491022Y-66293004D01*
X183627583Y-66264724D01*
X183768342Y-66235574D01*
X184039343Y-66139607D01*
X184240904Y-66035574D01*
X184291005Y-66009715D01*
X184291006Y-66009715D01*
X184294812Y-66007750D01*
X184298313Y-66005289D01*
X184298317Y-66005287D01*
X184412418Y-65925095D01*
X184530023Y-65842441D01*
X184740622Y-65646740D01*
X184922713Y-65424268D01*
X185072927Y-65179142D01*
X185188483Y-64915898D01*
X185267244Y-64639406D01*
X185307751Y-64354784D01*
X185307845Y-64336951D01*
X185309235Y-64071583D01*
X185309235Y-64071576D01*
X185309257Y-64067297D01*
X185271732Y-63782266D01*
X185195871Y-63504964D01*
X185108879Y-63301016D01*
X185084763Y-63244476D01*
X185084761Y-63244472D01*
X185083077Y-63240524D01*
X184965745Y-63044476D01*
X184937643Y-62997521D01*
X184937640Y-62997517D01*
X184935439Y-62993839D01*
X184755687Y-62769472D01*
X184547149Y-62571577D01*
X184313683Y-62403814D01*
X184291843Y-62392250D01*
X184248071Y-62369074D01*
X184059608Y-62269288D01*
X183789627Y-62170489D01*
X183508736Y-62109245D01*
X183477685Y-62106801D01*
X183285718Y-62091693D01*
X183285709Y-62091693D01*
X183283261Y-62091500D01*
X183127729Y-62091500D01*
X183125593Y-62091646D01*
X183125582Y-62091646D01*
X182917452Y-62105835D01*
X182917446Y-62105836D01*
X182913175Y-62106127D01*
X182908980Y-62106996D01*
X182908978Y-62106996D01*
X182772417Y-62135276D01*
X182631658Y-62164426D01*
X182360657Y-62260393D01*
X182105188Y-62392250D01*
X182101687Y-62394711D01*
X182101683Y-62394713D01*
X182091594Y-62401804D01*
X181869977Y-62557559D01*
X181659378Y-62753260D01*
X181477287Y-62975732D01*
X181327073Y-63220858D01*
X181211517Y-63484102D01*
X181210342Y-63488229D01*
X181210341Y-63488230D01*
X181189728Y-63560594D01*
X181132756Y-63760594D01*
X181092249Y-64045216D01*
X181092227Y-64049505D01*
X181092226Y-64049512D01*
X181090765Y-64328417D01*
X181090743Y-64332703D01*
X143682430Y-64332703D01*
X143707751Y-64154784D01*
X143707845Y-64136951D01*
X143709235Y-63871583D01*
X143709235Y-63871576D01*
X143709257Y-63867297D01*
X143698063Y-63782266D01*
X143672292Y-63586522D01*
X143671732Y-63582266D01*
X143595871Y-63304964D01*
X143483077Y-63040524D01*
X143335439Y-62793839D01*
X143155687Y-62569472D01*
X142979002Y-62401804D01*
X142950258Y-62374527D01*
X142950255Y-62374525D01*
X142947149Y-62371577D01*
X142713683Y-62203814D01*
X142691843Y-62192250D01*
X142637651Y-62163557D01*
X142459608Y-62069288D01*
X142189627Y-61970489D01*
X141908736Y-61909245D01*
X141877685Y-61906801D01*
X141685718Y-61891693D01*
X141685709Y-61891693D01*
X141683261Y-61891500D01*
X141527729Y-61891500D01*
X141525593Y-61891646D01*
X141525582Y-61891646D01*
X141317452Y-61905835D01*
X141317446Y-61905836D01*
X141313175Y-61906127D01*
X141308980Y-61906996D01*
X141308978Y-61906996D01*
X141172417Y-61935276D01*
X141031658Y-61964426D01*
X140760657Y-62060393D01*
X140756848Y-62062359D01*
X140544492Y-62171964D01*
X140505188Y-62192250D01*
X140501687Y-62194711D01*
X140501683Y-62194713D01*
X140491594Y-62201804D01*
X140269977Y-62357559D01*
X140059378Y-62553260D01*
X139877287Y-62775732D01*
X139727073Y-63020858D01*
X139611517Y-63284102D01*
X139532756Y-63560594D01*
X139492249Y-63845216D01*
X139492227Y-63849505D01*
X139492226Y-63849512D01*
X139491063Y-64071583D01*
X139490743Y-64132703D01*
X136976267Y-64132703D01*
X136976267Y-61017139D01*
X136977768Y-60997751D01*
X136980076Y-60982927D01*
X136980076Y-60982925D01*
X136981458Y-60974050D01*
X136979328Y-60957760D01*
X136978534Y-60933183D01*
X136992768Y-60716073D01*
X136994919Y-60699734D01*
X137042520Y-60460435D01*
X137046786Y-60444514D01*
X137125213Y-60213483D01*
X137131520Y-60198257D01*
X137239435Y-59979430D01*
X137247676Y-59965157D01*
X137383226Y-59762293D01*
X137393252Y-59749226D01*
X137554142Y-59565768D01*
X137565768Y-59554142D01*
X137749226Y-59393252D01*
X137762293Y-59383226D01*
X137965157Y-59247676D01*
X137979430Y-59239435D01*
X138198257Y-59131520D01*
X138213483Y-59125213D01*
X138328998Y-59086000D01*
X138444518Y-59046785D01*
X138460435Y-59042520D01*
X138699734Y-58994919D01*
X138716074Y-58992768D01*
X138926017Y-58979005D01*
X138949141Y-58980034D01*
X138952623Y-58980076D01*
X138961498Y-58981458D01*
X138989008Y-58977861D01*
X139006941Y-58976808D01*
X141455020Y-59007970D01*
X141458011Y-59008104D01*
X141460758Y-59008529D01*
X141465608Y-59008526D01*
X141465614Y-59008526D01*
X141496071Y-59008504D01*
X141497760Y-59008514D01*
X141525552Y-59008867D01*
X141525553Y-59008867D01*
X141530038Y-59008924D01*
X141532798Y-59008565D01*
X141535854Y-59008474D01*
X185483002Y-58976303D01*
X185502480Y-58977804D01*
G37*
%TD.AperFunction*%
%TA.AperFunction,Conductor*%
G36*
X168669388Y-84083510D02*
G01*
X168720593Y-84119068D01*
X168851147Y-84269784D01*
X169029349Y-84417730D01*
X169033819Y-84420342D01*
X169037511Y-84422500D01*
X169086232Y-84474140D01*
X169099301Y-84543924D01*
X169072566Y-84609694D01*
X169049589Y-84632045D01*
X168929714Y-84722050D01*
X168901655Y-84743117D01*
X168741639Y-84910564D01*
X168738725Y-84914836D01*
X168738724Y-84914837D01*
X168679050Y-85002316D01*
X168611119Y-85101899D01*
X168513602Y-85311981D01*
X168451707Y-85535169D01*
X168427095Y-85765469D01*
X168427392Y-85770622D01*
X168427392Y-85770625D01*
X168433880Y-85883143D01*
X168440427Y-85996697D01*
X168441564Y-86001743D01*
X168441565Y-86001749D01*
X168464523Y-86103620D01*
X168491346Y-86222642D01*
X168493288Y-86227424D01*
X168493289Y-86227428D01*
X168574274Y-86426870D01*
X168578484Y-86437237D01*
X168699501Y-86634719D01*
X168851147Y-86809784D01*
X168941261Y-86884598D01*
X169023669Y-86953014D01*
X169029349Y-86957730D01*
X169033819Y-86960342D01*
X169037511Y-86962500D01*
X169086232Y-87014140D01*
X169099301Y-87083924D01*
X169072566Y-87149694D01*
X169049589Y-87172045D01*
X168922165Y-87267718D01*
X168901655Y-87283117D01*
X168741639Y-87450564D01*
X168611119Y-87641899D01*
X168513602Y-87851981D01*
X168451707Y-88075169D01*
X168427095Y-88305469D01*
X168427392Y-88310622D01*
X168427392Y-88310625D01*
X168432196Y-88393938D01*
X168440427Y-88536697D01*
X168441564Y-88541743D01*
X168441565Y-88541749D01*
X168451964Y-88587892D01*
X168491346Y-88762642D01*
X168493288Y-88767424D01*
X168493289Y-88767428D01*
X168558182Y-88927240D01*
X168578484Y-88977237D01*
X168699501Y-89174719D01*
X168851147Y-89349784D01*
X169029349Y-89497730D01*
X169033819Y-89500342D01*
X169037511Y-89502500D01*
X169086232Y-89554140D01*
X169099301Y-89623924D01*
X169072566Y-89689694D01*
X169049589Y-89712045D01*
X168901655Y-89823117D01*
X168898083Y-89826855D01*
X168765550Y-89965543D01*
X168741639Y-89990564D01*
X168738725Y-89994836D01*
X168738724Y-89994837D01*
X168677277Y-90084915D01*
X168611119Y-90181899D01*
X168513602Y-90391981D01*
X168451707Y-90615169D01*
X168427095Y-90845469D01*
X168427392Y-90850622D01*
X168427392Y-90850625D01*
X168437430Y-91024719D01*
X168440427Y-91076697D01*
X168441564Y-91081743D01*
X168441565Y-91081749D01*
X168464880Y-91185205D01*
X168491346Y-91302642D01*
X168493288Y-91307424D01*
X168493289Y-91307428D01*
X168576540Y-91512450D01*
X168578484Y-91517237D01*
X168699501Y-91714719D01*
X168851147Y-91889784D01*
X169029349Y-92037730D01*
X169033819Y-92040342D01*
X169037511Y-92042500D01*
X169086232Y-92094140D01*
X169099301Y-92163924D01*
X169072566Y-92229694D01*
X169049589Y-92252045D01*
X168901655Y-92363117D01*
X168887594Y-92377831D01*
X168759629Y-92511739D01*
X168741639Y-92530564D01*
X168738725Y-92534836D01*
X168738724Y-92534837D01*
X168723152Y-92557665D01*
X168611119Y-92721899D01*
X168513602Y-92931981D01*
X168451707Y-93155169D01*
X168427095Y-93385469D01*
X168427392Y-93390622D01*
X168427392Y-93390625D01*
X168433067Y-93489041D01*
X168440427Y-93616697D01*
X168441564Y-93621743D01*
X168441565Y-93621749D01*
X168466332Y-93731646D01*
X168491346Y-93842642D01*
X168493288Y-93847424D01*
X168493289Y-93847428D01*
X168562527Y-94017939D01*
X168578484Y-94057237D01*
X168699501Y-94254719D01*
X168851147Y-94429784D01*
X169029349Y-94577730D01*
X169033814Y-94580339D01*
X169037979Y-94582773D01*
X169086700Y-94634414D01*
X169099767Y-94704198D01*
X169073033Y-94769968D01*
X169056323Y-94786221D01*
X169045508Y-94800711D01*
X169052252Y-94813041D01*
X170110115Y-95870905D01*
X170144141Y-95933217D01*
X170139076Y-96004033D01*
X170110115Y-96049095D01*
X169840000Y-96319210D01*
X169050184Y-97109027D01*
X169043424Y-97121407D01*
X169062731Y-97147198D01*
X169062041Y-97147714D01*
X169086627Y-97173737D01*
X169099743Y-97243511D01*
X169073055Y-97309300D01*
X169050023Y-97331719D01*
X168901655Y-97443117D01*
X168898083Y-97446855D01*
X168816005Y-97532745D01*
X168741639Y-97610564D01*
X168738725Y-97614836D01*
X168738724Y-97614837D01*
X168730019Y-97627598D01*
X168611119Y-97801899D01*
X168611089Y-97801879D01*
X168561219Y-97850092D01*
X168502710Y-97864500D01*
X163066721Y-97864500D01*
X162998600Y-97844498D01*
X162952107Y-97790842D01*
X162942003Y-97720568D01*
X162971497Y-97655988D01*
X162992662Y-97636563D01*
X162994496Y-97635230D01*
X163004410Y-97628719D01*
X163035768Y-97610174D01*
X163035772Y-97610171D01*
X163042598Y-97606134D01*
X163056982Y-97591750D01*
X163072016Y-97578909D01*
X163082073Y-97571602D01*
X163088487Y-97566942D01*
X163116778Y-97532744D01*
X163124767Y-97523965D01*
X164718094Y-95930638D01*
X168427893Y-95930638D01*
X168440627Y-96151468D01*
X168442061Y-96161670D01*
X168490685Y-96377439D01*
X168493773Y-96387292D01*
X168576986Y-96592220D01*
X168581634Y-96601421D01*
X168670097Y-96745781D01*
X168680553Y-96755242D01*
X168689331Y-96751458D01*
X169467979Y-95972811D01*
X169475592Y-95958868D01*
X169475461Y-95957034D01*
X169471210Y-95950420D01*
X168693862Y-95173073D01*
X168682330Y-95166776D01*
X168670048Y-95176399D01*
X168614467Y-95257877D01*
X168609379Y-95266833D01*
X168516252Y-95467459D01*
X168512689Y-95477146D01*
X168453581Y-95690280D01*
X168451650Y-95700400D01*
X168428145Y-95920349D01*
X168427893Y-95930638D01*
X164718094Y-95930638D01*
X167393483Y-93255250D01*
X167401809Y-93247674D01*
X167408303Y-93243553D01*
X167455086Y-93193734D01*
X167457840Y-93190893D01*
X167477639Y-93171094D01*
X167480063Y-93167969D01*
X167480071Y-93167960D01*
X167480137Y-93167874D01*
X167487845Y-93158849D01*
X167512790Y-93132285D01*
X167518217Y-93126506D01*
X167528023Y-93108669D01*
X167538873Y-93092153D01*
X167551350Y-93076067D01*
X167568976Y-93035334D01*
X167574193Y-93024686D01*
X167591749Y-92992751D01*
X167595569Y-92985803D01*
X167597540Y-92978128D01*
X167597542Y-92978122D01*
X167600631Y-92966089D01*
X167607034Y-92947387D01*
X167615117Y-92928708D01*
X167622060Y-92884873D01*
X167624467Y-92873251D01*
X167635500Y-92830282D01*
X167635500Y-92809935D01*
X167637051Y-92790224D01*
X167638995Y-92777950D01*
X167640235Y-92770121D01*
X167636059Y-92725944D01*
X167635500Y-92714086D01*
X167635500Y-85065422D01*
X167655502Y-84997301D01*
X167672405Y-84976327D01*
X168536261Y-84112471D01*
X168598573Y-84078445D01*
X168669388Y-84083510D01*
G37*
%TD.AperFunction*%
%TD*%
M02*
