%TF.GenerationSoftware,KiCad,Pcbnew,(5.1.10)-1*%
%TF.CreationDate,2022-04-09T19:23:49-04:00*%
%TF.ProjectId,Pi_HAT,50695f48-4154-42e6-9b69-6361645f7063,rev?*%
%TF.SameCoordinates,Original*%
%TF.FileFunction,Copper,L2,Bot*%
%TF.FilePolarity,Positive*%
%FSLAX46Y46*%
G04 Gerber Fmt 4.6, Leading zero omitted, Abs format (unit mm)*
G04 Created by KiCad (PCBNEW (5.1.10)-1) date 2022-04-09 19:23:49*
%MOMM*%
%LPD*%
G01*
G04 APERTURE LIST*
%TA.AperFunction,ComponentPad*%
%ADD10C,2.500000*%
%TD*%
%TA.AperFunction,ComponentPad*%
%ADD11R,2.500000X2.500000*%
%TD*%
%TA.AperFunction,ComponentPad*%
%ADD12O,1.700000X1.700000*%
%TD*%
%TA.AperFunction,ComponentPad*%
%ADD13R,1.700000X1.700000*%
%TD*%
%TA.AperFunction,ComponentPad*%
%ADD14C,1.200000*%
%TD*%
%TA.AperFunction,ComponentPad*%
%ADD15R,1.200000X1.200000*%
%TD*%
%TA.AperFunction,ComponentPad*%
%ADD16C,1.600000*%
%TD*%
%TA.AperFunction,ComponentPad*%
%ADD17C,1.800000*%
%TD*%
%TA.AperFunction,ComponentPad*%
%ADD18R,1.800000X1.800000*%
%TD*%
%TA.AperFunction,ViaPad*%
%ADD19C,0.800000*%
%TD*%
%TA.AperFunction,ViaPad*%
%ADD20C,1.000000*%
%TD*%
%TA.AperFunction,Conductor*%
%ADD21C,0.500000*%
%TD*%
%TA.AperFunction,Conductor*%
%ADD22C,0.250000*%
%TD*%
G04 APERTURE END LIST*
D10*
%TO.P,J5,2*%
%TO.N,12V*%
X115000000Y-74500000D03*
D11*
%TO.P,J5,1*%
%TO.N,GND*%
X110000000Y-74500000D03*
%TD*%
D12*
%TO.P,J4,4*%
%TO.N,/SCL*%
X103200000Y-98620000D03*
%TO.P,J4,3*%
%TO.N,/SDA*%
X103200000Y-96080000D03*
%TO.P,J4,2*%
%TO.N,GND*%
X103200000Y-93540000D03*
D13*
%TO.P,J4,1*%
%TO.N,12V*%
X103200000Y-91000000D03*
%TD*%
D14*
%TO.P,C2,2*%
%TO.N,GND*%
X146200000Y-100900000D03*
D15*
%TO.P,C2,1*%
%TO.N,/5V*%
X146200000Y-99400000D03*
%TD*%
D16*
%TO.P,C1,2*%
%TO.N,GND*%
X127000000Y-82400000D03*
%TO.P,C1,1*%
%TO.N,12V*%
X122000000Y-82400000D03*
%TD*%
D17*
%TO.P,TB1,30*%
%TO.N,Net-(TB1-Pad30)*%
X125120000Y-93220000D03*
%TO.P,TB1,29*%
%TO.N,GND*%
X125120000Y-95760000D03*
%TO.P,TB1,28*%
%TO.N,Net-(TB1-Pad28)*%
X125120000Y-98300000D03*
%TO.P,TB1,27*%
%TO.N,Net-(TB1-Pad27)*%
X125120000Y-100840000D03*
%TO.P,TB1,26*%
%TO.N,Net-(TB1-Pad26)*%
X125120000Y-103380000D03*
%TO.P,TB1,25*%
%TO.N,Net-(TB1-Pad25)*%
X125120000Y-105920000D03*
%TO.P,TB1,24*%
%TO.N,SCLN*%
X125120000Y-108460000D03*
%TO.P,TB1,23*%
%TO.N,SDAN*%
X125120000Y-111000000D03*
%TO.P,TB1,22*%
%TO.N,Net-(TB1-Pad22)*%
X125120000Y-113540000D03*
%TO.P,TB1,21*%
%TO.N,Net-(TB1-Pad21)*%
X125120000Y-116080000D03*
%TO.P,TB1,20*%
%TO.N,Net-(TB1-Pad20)*%
X125120000Y-118620000D03*
%TO.P,TB1,19*%
%TO.N,Net-(TB1-Pad19)*%
X125120000Y-121160000D03*
%TO.P,TB1,18*%
%TO.N,Net-(TB1-Pad18)*%
X125120000Y-123700000D03*
%TO.P,TB1,17*%
%TO.N,3.3VN*%
X125120000Y-126240000D03*
%TO.P,TB1,16*%
%TO.N,Net-(TB1-Pad16)*%
X125120000Y-128780000D03*
%TO.P,TB1,15*%
%TO.N,Net-(TB1-Pad15)*%
X109880000Y-128780000D03*
%TO.P,TB1,14*%
%TO.N,Net-(TB1-Pad14)*%
X109880000Y-126240000D03*
%TO.P,TB1,13*%
%TO.N,Net-(TB1-Pad13)*%
X109880000Y-123700000D03*
%TO.P,TB1,12*%
%TO.N,Net-(TB1-Pad12)*%
X109880000Y-121160000D03*
%TO.P,TB1,11*%
%TO.N,Net-(TB1-Pad11)*%
X109880000Y-118620000D03*
%TO.P,TB1,10*%
%TO.N,Net-(TB1-Pad10)*%
X109880000Y-116080000D03*
%TO.P,TB1,9*%
%TO.N,Net-(TB1-Pad9)*%
X109880000Y-113540000D03*
%TO.P,TB1,8*%
%TO.N,Net-(TB1-Pad8)*%
X109880000Y-111000000D03*
%TO.P,TB1,7*%
%TO.N,Net-(TB1-Pad7)*%
X109880000Y-108460000D03*
%TO.P,TB1,6*%
%TO.N,Net-(TB1-Pad6)*%
X109880000Y-105920000D03*
%TO.P,TB1,5*%
%TO.N,Net-(TB1-Pad5)*%
X109880000Y-103380000D03*
%TO.P,TB1,4*%
%TO.N,GND*%
X109880000Y-100840000D03*
%TO.P,TB1,3*%
%TO.N,Net-(TB1-Pad28)*%
X109880000Y-98300000D03*
%TO.P,TB1,2*%
%TO.N,Net-(TB1-Pad2)*%
X109880000Y-95760000D03*
D18*
%TO.P,TB1,1*%
%TO.N,Net-(TB1-Pad1)*%
X109880000Y-93220000D03*
%TD*%
D12*
%TO.P,J3,6*%
%TO.N,GND*%
X140920000Y-77040000D03*
%TO.P,J3,5*%
%TO.N,/SCL*%
X140920000Y-74500000D03*
%TO.P,J3,4*%
%TO.N,/5V*%
X143460000Y-77040000D03*
%TO.P,J3,3*%
%TO.N,/SDA*%
X143460000Y-74500000D03*
%TO.P,J3,2*%
%TO.N,/5V*%
X146000000Y-77040000D03*
D13*
%TO.P,J3,1*%
%TO.N,3.3VP*%
X146000000Y-74500000D03*
%TD*%
D12*
%TO.P,J2,40*%
%TO.N,Net-(J2-Pad40)*%
X153540000Y-127660000D03*
%TO.P,J2,39*%
%TO.N,Net-(J2-Pad39)*%
X151000000Y-127660000D03*
%TO.P,J2,38*%
%TO.N,Net-(J2-Pad38)*%
X153540000Y-125120000D03*
%TO.P,J2,37*%
%TO.N,Net-(J2-Pad37)*%
X151000000Y-125120000D03*
%TO.P,J2,36*%
%TO.N,Net-(J2-Pad36)*%
X153540000Y-122580000D03*
%TO.P,J2,35*%
%TO.N,Net-(J2-Pad35)*%
X151000000Y-122580000D03*
%TO.P,J2,34*%
%TO.N,Net-(J2-Pad34)*%
X153540000Y-120040000D03*
%TO.P,J2,33*%
%TO.N,Net-(J2-Pad33)*%
X151000000Y-120040000D03*
%TO.P,J2,32*%
%TO.N,Net-(J2-Pad32)*%
X153540000Y-117500000D03*
%TO.P,J2,31*%
%TO.N,Net-(J2-Pad31)*%
X151000000Y-117500000D03*
%TO.P,J2,30*%
%TO.N,Net-(J2-Pad30)*%
X153540000Y-114960000D03*
%TO.P,J2,29*%
%TO.N,Net-(J2-Pad29)*%
X151000000Y-114960000D03*
%TO.P,J2,28*%
%TO.N,Net-(J2-Pad28)*%
X153540000Y-112420000D03*
%TO.P,J2,27*%
%TO.N,Net-(J2-Pad27)*%
X151000000Y-112420000D03*
%TO.P,J2,26*%
%TO.N,Net-(J2-Pad26)*%
X153540000Y-109880000D03*
%TO.P,J2,25*%
%TO.N,Net-(J2-Pad25)*%
X151000000Y-109880000D03*
%TO.P,J2,24*%
%TO.N,Net-(J2-Pad24)*%
X153540000Y-107340000D03*
%TO.P,J2,23*%
%TO.N,Net-(J2-Pad23)*%
X151000000Y-107340000D03*
%TO.P,J2,22*%
%TO.N,Net-(J2-Pad22)*%
X153540000Y-104800000D03*
%TO.P,J2,21*%
%TO.N,Net-(J2-Pad21)*%
X151000000Y-104800000D03*
%TO.P,J2,20*%
%TO.N,Net-(J2-Pad20)*%
X153540000Y-102260000D03*
%TO.P,J2,19*%
%TO.N,Net-(J2-Pad19)*%
X151000000Y-102260000D03*
%TO.P,J2,18*%
%TO.N,Net-(J2-Pad18)*%
X153540000Y-99720000D03*
%TO.P,J2,17*%
%TO.N,Net-(J2-Pad17)*%
X151000000Y-99720000D03*
%TO.P,J2,16*%
%TO.N,Net-(J2-Pad16)*%
X153540000Y-97180000D03*
%TO.P,J2,15*%
%TO.N,Net-(J2-Pad15)*%
X151000000Y-97180000D03*
%TO.P,J2,14*%
%TO.N,Net-(J2-Pad14)*%
X153540000Y-94640000D03*
%TO.P,J2,13*%
%TO.N,Net-(J2-Pad13)*%
X151000000Y-94640000D03*
%TO.P,J2,12*%
%TO.N,Net-(J2-Pad12)*%
X153540000Y-92100000D03*
%TO.P,J2,11*%
%TO.N,Net-(J2-Pad11)*%
X151000000Y-92100000D03*
%TO.P,J2,10*%
%TO.N,Net-(J2-Pad10)*%
X153540000Y-89560000D03*
%TO.P,J2,9*%
%TO.N,Net-(J2-Pad9)*%
X151000000Y-89560000D03*
%TO.P,J2,8*%
%TO.N,Net-(J2-Pad8)*%
X153540000Y-87020000D03*
%TO.P,J2,7*%
%TO.N,Net-(J2-Pad7)*%
X151000000Y-87020000D03*
%TO.P,J2,6*%
%TO.N,GND*%
X153540000Y-84480000D03*
%TO.P,J2,5*%
%TO.N,/SCL*%
X151000000Y-84480000D03*
%TO.P,J2,4*%
%TO.N,/5V*%
X153540000Y-81940000D03*
%TO.P,J2,3*%
%TO.N,/SDA*%
X151000000Y-81940000D03*
%TO.P,J2,2*%
%TO.N,/5V*%
X153540000Y-79400000D03*
D13*
%TO.P,J2,1*%
%TO.N,3.3VP*%
X151000000Y-79400000D03*
%TD*%
D12*
%TO.P,J1,10*%
%TO.N,Net-(J1-Pad10)*%
X131250000Y-131160000D03*
%TO.P,J1,9*%
%TO.N,Net-(J1-Pad9)*%
X131250000Y-128620000D03*
%TO.P,J1,8*%
%TO.N,Net-(J1-Pad8)*%
X131250000Y-126080000D03*
%TO.P,J1,7*%
%TO.N,Net-(J1-Pad7)*%
X131250000Y-123540000D03*
%TO.P,J1,6*%
%TO.N,Net-(J1-Pad6)*%
X131250000Y-121000000D03*
%TO.P,J1,5*%
%TO.N,Net-(J1-Pad5)*%
X131250000Y-118460000D03*
%TO.P,J1,4*%
%TO.N,SDAN*%
X131250000Y-115920000D03*
%TO.P,J1,3*%
%TO.N,SCLN*%
X131250000Y-113380000D03*
%TO.P,J1,2*%
%TO.N,GND*%
X131250000Y-110840000D03*
D13*
%TO.P,J1,1*%
%TO.N,3.3VN*%
X131250000Y-108300000D03*
%TD*%
D19*
%TO.N,GND*%
X128600000Y-109800000D03*
X127800000Y-95600000D03*
X129600000Y-81800000D03*
D20*
X105200000Y-78800000D03*
D19*
X105800000Y-93800000D03*
X156000000Y-84400000D03*
X140400000Y-79400000D03*
%TD*%
D21*
%TO.N,3.3VP*%
X146000000Y-74500000D02*
X146700000Y-74500000D01*
X151000000Y-78800000D02*
X151000000Y-79400000D01*
X146700000Y-74500000D02*
X151000000Y-78800000D01*
D22*
%TO.N,Net-(TB1-Pad28)*%
X109880000Y-98300000D02*
X125120000Y-98300000D01*
%TO.N,/SCL*%
X148200000Y-78600000D02*
X148749990Y-79149990D01*
X142800000Y-78600000D02*
X148200000Y-78600000D01*
X142200000Y-78000000D02*
X142800000Y-78600000D01*
X142200000Y-75780000D02*
X142200000Y-78000000D01*
X140920000Y-74500000D02*
X142200000Y-75780000D01*
X151000000Y-84480000D02*
X151000000Y-83800000D01*
X151000000Y-83800000D02*
X149600000Y-82400000D01*
X149600000Y-82400000D02*
X149600000Y-81200000D01*
X148749990Y-80349990D02*
X148749990Y-79149990D01*
X149600000Y-81200000D02*
X148749990Y-80349990D01*
X137336410Y-74500000D02*
X140920000Y-74500000D01*
X130775011Y-81061399D02*
X137336410Y-74500000D01*
X123313399Y-90923011D02*
X130775010Y-83461400D01*
X115676988Y-90923012D02*
X123313399Y-90923011D01*
X130775010Y-83461400D02*
X130775011Y-81061399D01*
X112100000Y-94500000D02*
X115676988Y-90923012D01*
X107300000Y-94500000D02*
X112100000Y-94500000D01*
X107220000Y-94580000D02*
X107300000Y-94500000D01*
X107220000Y-94600000D02*
X107220000Y-94580000D01*
X103200000Y-98620000D02*
X107220000Y-94600000D01*
%TO.N,/SDA*%
X143460000Y-74500000D02*
X144760000Y-75800000D01*
X144760000Y-75800000D02*
X146800000Y-75800000D01*
X146800000Y-75800000D02*
X149200000Y-78200000D01*
X149200000Y-80140000D02*
X151000000Y-81940000D01*
X149200000Y-78200000D02*
X149200000Y-80140000D01*
X103200000Y-96080000D02*
X104593002Y-96080000D01*
X104593002Y-96080000D02*
X110200000Y-90473002D01*
X110200000Y-90473002D02*
X123126998Y-90473002D01*
X130325001Y-83274999D02*
X130325001Y-80874999D01*
X123126998Y-90473002D02*
X130325001Y-83274999D01*
X130325001Y-80874999D02*
X138400000Y-72800000D01*
X141760000Y-72800000D02*
X143460000Y-74500000D01*
X138400000Y-72800000D02*
X141760000Y-72800000D01*
%TD*%
M02*
