%TF.GenerationSoftware,KiCad,Pcbnew,(5.1.10)-1*%
%TF.CreationDate,2022-04-09T19:23:49-04:00*%
%TF.ProjectId,Pi_HAT,50695f48-4154-42e6-9b69-6361645f7063,rev?*%
%TF.SameCoordinates,Original*%
%TF.FileFunction,Paste,Top*%
%TF.FilePolarity,Positive*%
%FSLAX46Y46*%
G04 Gerber Fmt 4.6, Leading zero omitted, Abs format (unit mm)*
G04 Created by KiCad (PCBNEW (5.1.10)-1) date 2022-04-09 19:23:49*
%MOMM*%
%LPD*%
G01*
G04 APERTURE LIST*
%ADD10C,0.010000*%
%ADD11R,1.730000X0.960000*%
G04 APERTURE END LIST*
D10*
%TO.C,VR3*%
G36*
X135795000Y-103065000D02*
G01*
X134365000Y-103065000D01*
X134365000Y-101355000D01*
X135795000Y-101355000D01*
X135795000Y-103065000D01*
G37*
X135795000Y-103065000D02*
X134365000Y-103065000D01*
X134365000Y-101355000D01*
X135795000Y-101355000D01*
X135795000Y-103065000D01*
G36*
X133625000Y-103065000D02*
G01*
X132195000Y-103065000D01*
X132195000Y-101355000D01*
X133625000Y-101355000D01*
X133625000Y-103065000D01*
G37*
X133625000Y-103065000D02*
X132195000Y-103065000D01*
X132195000Y-101355000D01*
X133625000Y-101355000D01*
X133625000Y-103065000D01*
G36*
X137965000Y-103065000D02*
G01*
X136535000Y-103065000D01*
X136535000Y-101355000D01*
X137965000Y-101355000D01*
X137965000Y-103065000D01*
G37*
X137965000Y-103065000D02*
X136535000Y-103065000D01*
X136535000Y-101355000D01*
X137965000Y-101355000D01*
X137965000Y-103065000D01*
G36*
X137965000Y-100245000D02*
G01*
X136535000Y-100245000D01*
X136535000Y-98535000D01*
X137965000Y-98535000D01*
X137965000Y-100245000D01*
G37*
X137965000Y-100245000D02*
X136535000Y-100245000D01*
X136535000Y-98535000D01*
X137965000Y-98535000D01*
X137965000Y-100245000D01*
G36*
X135795000Y-100245000D02*
G01*
X134365000Y-100245000D01*
X134365000Y-98535000D01*
X135795000Y-98535000D01*
X135795000Y-100245000D01*
G37*
X135795000Y-100245000D02*
X134365000Y-100245000D01*
X134365000Y-98535000D01*
X135795000Y-98535000D01*
X135795000Y-100245000D01*
G36*
X133625000Y-100245000D02*
G01*
X132195000Y-100245000D01*
X132195000Y-98535000D01*
X133625000Y-98535000D01*
X133625000Y-100245000D01*
G37*
X133625000Y-100245000D02*
X132195000Y-100245000D01*
X132195000Y-98535000D01*
X133625000Y-98535000D01*
X133625000Y-100245000D01*
%TO.C,VR2*%
G36*
X135795000Y-95265000D02*
G01*
X134365000Y-95265000D01*
X134365000Y-93555000D01*
X135795000Y-93555000D01*
X135795000Y-95265000D01*
G37*
X135795000Y-95265000D02*
X134365000Y-95265000D01*
X134365000Y-93555000D01*
X135795000Y-93555000D01*
X135795000Y-95265000D01*
G36*
X133625000Y-95265000D02*
G01*
X132195000Y-95265000D01*
X132195000Y-93555000D01*
X133625000Y-93555000D01*
X133625000Y-95265000D01*
G37*
X133625000Y-95265000D02*
X132195000Y-95265000D01*
X132195000Y-93555000D01*
X133625000Y-93555000D01*
X133625000Y-95265000D01*
G36*
X137965000Y-95265000D02*
G01*
X136535000Y-95265000D01*
X136535000Y-93555000D01*
X137965000Y-93555000D01*
X137965000Y-95265000D01*
G37*
X137965000Y-95265000D02*
X136535000Y-95265000D01*
X136535000Y-93555000D01*
X137965000Y-93555000D01*
X137965000Y-95265000D01*
G36*
X137965000Y-92445000D02*
G01*
X136535000Y-92445000D01*
X136535000Y-90735000D01*
X137965000Y-90735000D01*
X137965000Y-92445000D01*
G37*
X137965000Y-92445000D02*
X136535000Y-92445000D01*
X136535000Y-90735000D01*
X137965000Y-90735000D01*
X137965000Y-92445000D01*
G36*
X135795000Y-92445000D02*
G01*
X134365000Y-92445000D01*
X134365000Y-90735000D01*
X135795000Y-90735000D01*
X135795000Y-92445000D01*
G37*
X135795000Y-92445000D02*
X134365000Y-92445000D01*
X134365000Y-90735000D01*
X135795000Y-90735000D01*
X135795000Y-92445000D01*
G36*
X133625000Y-92445000D02*
G01*
X132195000Y-92445000D01*
X132195000Y-90735000D01*
X133625000Y-90735000D01*
X133625000Y-92445000D01*
G37*
X133625000Y-92445000D02*
X132195000Y-92445000D01*
X132195000Y-90735000D01*
X133625000Y-90735000D01*
X133625000Y-92445000D01*
%TO.C,VR1*%
G36*
X135795000Y-87465000D02*
G01*
X134365000Y-87465000D01*
X134365000Y-85755000D01*
X135795000Y-85755000D01*
X135795000Y-87465000D01*
G37*
X135795000Y-87465000D02*
X134365000Y-87465000D01*
X134365000Y-85755000D01*
X135795000Y-85755000D01*
X135795000Y-87465000D01*
G36*
X133625000Y-87465000D02*
G01*
X132195000Y-87465000D01*
X132195000Y-85755000D01*
X133625000Y-85755000D01*
X133625000Y-87465000D01*
G37*
X133625000Y-87465000D02*
X132195000Y-87465000D01*
X132195000Y-85755000D01*
X133625000Y-85755000D01*
X133625000Y-87465000D01*
G36*
X137965000Y-87465000D02*
G01*
X136535000Y-87465000D01*
X136535000Y-85755000D01*
X137965000Y-85755000D01*
X137965000Y-87465000D01*
G37*
X137965000Y-87465000D02*
X136535000Y-87465000D01*
X136535000Y-85755000D01*
X137965000Y-85755000D01*
X137965000Y-87465000D01*
G36*
X137965000Y-84645000D02*
G01*
X136535000Y-84645000D01*
X136535000Y-82935000D01*
X137965000Y-82935000D01*
X137965000Y-84645000D01*
G37*
X137965000Y-84645000D02*
X136535000Y-84645000D01*
X136535000Y-82935000D01*
X137965000Y-82935000D01*
X137965000Y-84645000D01*
G36*
X135795000Y-84645000D02*
G01*
X134365000Y-84645000D01*
X134365000Y-82935000D01*
X135795000Y-82935000D01*
X135795000Y-84645000D01*
G37*
X135795000Y-84645000D02*
X134365000Y-84645000D01*
X134365000Y-82935000D01*
X135795000Y-82935000D01*
X135795000Y-84645000D01*
G36*
X133625000Y-84645000D02*
G01*
X132195000Y-84645000D01*
X132195000Y-82935000D01*
X133625000Y-82935000D01*
X133625000Y-84645000D01*
G37*
X133625000Y-84645000D02*
X132195000Y-84645000D01*
X132195000Y-82935000D01*
X133625000Y-82935000D01*
X133625000Y-84645000D01*
%TD*%
D11*
%TO.C,VR3*%
X142100000Y-98515000D03*
X142100000Y-103085000D03*
%TD*%
%TO.C,VR2*%
X142100000Y-90715000D03*
X142100000Y-95285000D03*
%TD*%
%TO.C,VR1*%
X142100000Y-82915000D03*
X142100000Y-87485000D03*
%TD*%
M02*
