%TF.GenerationSoftware,KiCad,Pcbnew,(5.1.10)-1*%
%TF.CreationDate,2022-04-09T21:30:43-04:00*%
%TF.ProjectId,Pi_HAT,50695f48-4154-42e6-9b69-6361645f7063,rev?*%
%TF.SameCoordinates,Original*%
%TF.FileFunction,Legend,Bot*%
%TF.FilePolarity,Positive*%
%FSLAX46Y46*%
G04 Gerber Fmt 4.6, Leading zero omitted, Abs format (unit mm)*
G04 Created by KiCad (PCBNEW (5.1.10)-1) date 2022-04-09 21:30:43*
%MOMM*%
%LPD*%
G01*
G04 APERTURE LIST*
%ADD10C,0.010000*%
G04 APERTURE END LIST*
D10*
%TO.C,G\u002A\u002A\u002A*%
G36*
X136717343Y-83893120D02*
G01*
X136668528Y-83875439D01*
X136668002Y-83879722D01*
X136647041Y-83982700D01*
X136590093Y-84220330D01*
X136504593Y-84563593D01*
X136397977Y-84983471D01*
X136277679Y-85450943D01*
X136151134Y-85936990D01*
X136025777Y-86412594D01*
X135909042Y-86848735D01*
X135878051Y-86963000D01*
X135544421Y-88267774D01*
X135225673Y-89666874D01*
X134928712Y-91121333D01*
X134660439Y-92592184D01*
X134427759Y-94040461D01*
X134237574Y-95427196D01*
X134096788Y-96713423D01*
X134048139Y-97292333D01*
X133987556Y-98442986D01*
X133975842Y-99570677D01*
X134012863Y-100621699D01*
X134057798Y-101187000D01*
X134180971Y-102047396D01*
X134370484Y-102863341D01*
X134616360Y-103606036D01*
X134908623Y-104246678D01*
X135237298Y-104756467D01*
X135333935Y-104871217D01*
X135505160Y-105031378D01*
X135723040Y-105197104D01*
X135943134Y-105339551D01*
X136120999Y-105429876D01*
X136211069Y-105440487D01*
X136172602Y-105376836D01*
X136026319Y-105267408D01*
X135957155Y-105224696D01*
X135728617Y-105049157D01*
X135488551Y-104804450D01*
X135392654Y-104685034D01*
X135077839Y-104190755D01*
X134824972Y-103637537D01*
X134628797Y-103004169D01*
X134484060Y-102269434D01*
X134385505Y-101412120D01*
X134327877Y-100411013D01*
X134326870Y-100382666D01*
X134310816Y-99514175D01*
X134323915Y-98617132D01*
X134367877Y-97679562D01*
X134444412Y-96689488D01*
X134555229Y-95634937D01*
X134702038Y-94503932D01*
X134886550Y-93284498D01*
X135110472Y-91964660D01*
X135375517Y-90532443D01*
X135683392Y-88975870D01*
X136035809Y-87282966D01*
X136434475Y-85441757D01*
X136506841Y-85113731D01*
X136596492Y-84690398D01*
X136665714Y-84328074D01*
X136709171Y-84057693D01*
X136721530Y-83910184D01*
X136717343Y-83893120D01*
G37*
X136717343Y-83893120D02*
X136668528Y-83875439D01*
X136668002Y-83879722D01*
X136647041Y-83982700D01*
X136590093Y-84220330D01*
X136504593Y-84563593D01*
X136397977Y-84983471D01*
X136277679Y-85450943D01*
X136151134Y-85936990D01*
X136025777Y-86412594D01*
X135909042Y-86848735D01*
X135878051Y-86963000D01*
X135544421Y-88267774D01*
X135225673Y-89666874D01*
X134928712Y-91121333D01*
X134660439Y-92592184D01*
X134427759Y-94040461D01*
X134237574Y-95427196D01*
X134096788Y-96713423D01*
X134048139Y-97292333D01*
X133987556Y-98442986D01*
X133975842Y-99570677D01*
X134012863Y-100621699D01*
X134057798Y-101187000D01*
X134180971Y-102047396D01*
X134370484Y-102863341D01*
X134616360Y-103606036D01*
X134908623Y-104246678D01*
X135237298Y-104756467D01*
X135333935Y-104871217D01*
X135505160Y-105031378D01*
X135723040Y-105197104D01*
X135943134Y-105339551D01*
X136120999Y-105429876D01*
X136211069Y-105440487D01*
X136172602Y-105376836D01*
X136026319Y-105267408D01*
X135957155Y-105224696D01*
X135728617Y-105049157D01*
X135488551Y-104804450D01*
X135392654Y-104685034D01*
X135077839Y-104190755D01*
X134824972Y-103637537D01*
X134628797Y-103004169D01*
X134484060Y-102269434D01*
X134385505Y-101412120D01*
X134327877Y-100411013D01*
X134326870Y-100382666D01*
X134310816Y-99514175D01*
X134323915Y-98617132D01*
X134367877Y-97679562D01*
X134444412Y-96689488D01*
X134555229Y-95634937D01*
X134702038Y-94503932D01*
X134886550Y-93284498D01*
X135110472Y-91964660D01*
X135375517Y-90532443D01*
X135683392Y-88975870D01*
X136035809Y-87282966D01*
X136434475Y-85441757D01*
X136506841Y-85113731D01*
X136596492Y-84690398D01*
X136665714Y-84328074D01*
X136709171Y-84057693D01*
X136721530Y-83910184D01*
X136717343Y-83893120D01*
G36*
X141166669Y-100103977D02*
G01*
X141151667Y-99596120D01*
X141127073Y-99160449D01*
X141092809Y-98824614D01*
X141048797Y-98616266D01*
X141022953Y-98568381D01*
X140800637Y-98447060D01*
X140558073Y-98485021D01*
X140394000Y-98604666D01*
X140339855Y-98667737D01*
X140298644Y-98749290D01*
X140268612Y-98871432D01*
X140248002Y-99056272D01*
X140235060Y-99325914D01*
X140228029Y-99702467D01*
X140225154Y-100208036D01*
X140224667Y-100736935D01*
X140223575Y-101372584D01*
X140219115Y-101863133D01*
X140209514Y-102232809D01*
X140192999Y-102505836D01*
X140167794Y-102706441D01*
X140132127Y-102858850D01*
X140084223Y-102987289D01*
X140055326Y-103049682D01*
X139916198Y-103256861D01*
X139719520Y-103457638D01*
X139505530Y-103621642D01*
X139314467Y-103718501D01*
X139186567Y-103717842D01*
X139178836Y-103711280D01*
X139164122Y-103615158D01*
X139150900Y-103372617D01*
X139139725Y-103006569D01*
X139131149Y-102539924D01*
X139125727Y-101995594D01*
X139124000Y-101443822D01*
X139123119Y-100741705D01*
X139118361Y-100190658D01*
X139106556Y-99772418D01*
X139084536Y-99468724D01*
X139049130Y-99261314D01*
X138997168Y-99131925D01*
X138925480Y-99062296D01*
X138830897Y-99034164D01*
X138710248Y-99029268D01*
X138704900Y-99029296D01*
X138569685Y-99032120D01*
X138463197Y-99050909D01*
X138381762Y-99103861D01*
X138321705Y-99209170D01*
X138279352Y-99385032D01*
X138251028Y-99649642D01*
X138233058Y-100021197D01*
X138221768Y-100517891D01*
X138213483Y-101157920D01*
X138209947Y-101480150D01*
X138201186Y-102082891D01*
X138189137Y-102626203D01*
X138174619Y-103088288D01*
X138158454Y-103447346D01*
X138141462Y-103681579D01*
X138124463Y-103769187D01*
X138123767Y-103769333D01*
X138021894Y-103725596D01*
X137838652Y-103615738D01*
X137758755Y-103562837D01*
X137587736Y-103437436D01*
X137453839Y-103306500D01*
X137352550Y-103148393D01*
X137279356Y-102941478D01*
X137229746Y-102664120D01*
X137199206Y-102294684D01*
X137183224Y-101811533D01*
X137177286Y-101193031D01*
X137176667Y-100772038D01*
X137175923Y-100137455D01*
X137172550Y-99650324D01*
X137164839Y-99288765D01*
X137151081Y-99030899D01*
X137129566Y-98854845D01*
X137098585Y-98738725D01*
X137056429Y-98660659D01*
X137007334Y-98604666D01*
X136781574Y-98455707D01*
X136538364Y-98466014D01*
X136409101Y-98522979D01*
X136359202Y-98557514D01*
X136320732Y-98614459D01*
X136292319Y-98713848D01*
X136272592Y-98875716D01*
X136260178Y-99120097D01*
X136253706Y-99467026D01*
X136251802Y-99936537D01*
X136253096Y-100548664D01*
X136254000Y-100787812D01*
X136258726Y-101392076D01*
X136267482Y-101952026D01*
X136279516Y-102441698D01*
X136294074Y-102835128D01*
X136310405Y-103106352D01*
X136324503Y-103219000D01*
X136530881Y-103726503D01*
X136872040Y-104173587D01*
X137315586Y-104526802D01*
X137802169Y-104744907D01*
X138438329Y-104862355D01*
X139059177Y-104844246D01*
X139640172Y-104701198D01*
X140156774Y-104443827D01*
X140584442Y-104082747D01*
X140898637Y-103628574D01*
X141009573Y-103357444D01*
X141059557Y-103118528D01*
X141100490Y-102758238D01*
X141132293Y-102304225D01*
X141154889Y-101784142D01*
X141168202Y-101225638D01*
X141172155Y-100656366D01*
X141166669Y-100103977D01*
G37*
X141166669Y-100103977D02*
X141151667Y-99596120D01*
X141127073Y-99160449D01*
X141092809Y-98824614D01*
X141048797Y-98616266D01*
X141022953Y-98568381D01*
X140800637Y-98447060D01*
X140558073Y-98485021D01*
X140394000Y-98604666D01*
X140339855Y-98667737D01*
X140298644Y-98749290D01*
X140268612Y-98871432D01*
X140248002Y-99056272D01*
X140235060Y-99325914D01*
X140228029Y-99702467D01*
X140225154Y-100208036D01*
X140224667Y-100736935D01*
X140223575Y-101372584D01*
X140219115Y-101863133D01*
X140209514Y-102232809D01*
X140192999Y-102505836D01*
X140167794Y-102706441D01*
X140132127Y-102858850D01*
X140084223Y-102987289D01*
X140055326Y-103049682D01*
X139916198Y-103256861D01*
X139719520Y-103457638D01*
X139505530Y-103621642D01*
X139314467Y-103718501D01*
X139186567Y-103717842D01*
X139178836Y-103711280D01*
X139164122Y-103615158D01*
X139150900Y-103372617D01*
X139139725Y-103006569D01*
X139131149Y-102539924D01*
X139125727Y-101995594D01*
X139124000Y-101443822D01*
X139123119Y-100741705D01*
X139118361Y-100190658D01*
X139106556Y-99772418D01*
X139084536Y-99468724D01*
X139049130Y-99261314D01*
X138997168Y-99131925D01*
X138925480Y-99062296D01*
X138830897Y-99034164D01*
X138710248Y-99029268D01*
X138704900Y-99029296D01*
X138569685Y-99032120D01*
X138463197Y-99050909D01*
X138381762Y-99103861D01*
X138321705Y-99209170D01*
X138279352Y-99385032D01*
X138251028Y-99649642D01*
X138233058Y-100021197D01*
X138221768Y-100517891D01*
X138213483Y-101157920D01*
X138209947Y-101480150D01*
X138201186Y-102082891D01*
X138189137Y-102626203D01*
X138174619Y-103088288D01*
X138158454Y-103447346D01*
X138141462Y-103681579D01*
X138124463Y-103769187D01*
X138123767Y-103769333D01*
X138021894Y-103725596D01*
X137838652Y-103615738D01*
X137758755Y-103562837D01*
X137587736Y-103437436D01*
X137453839Y-103306500D01*
X137352550Y-103148393D01*
X137279356Y-102941478D01*
X137229746Y-102664120D01*
X137199206Y-102294684D01*
X137183224Y-101811533D01*
X137177286Y-101193031D01*
X137176667Y-100772038D01*
X137175923Y-100137455D01*
X137172550Y-99650324D01*
X137164839Y-99288765D01*
X137151081Y-99030899D01*
X137129566Y-98854845D01*
X137098585Y-98738725D01*
X137056429Y-98660659D01*
X137007334Y-98604666D01*
X136781574Y-98455707D01*
X136538364Y-98466014D01*
X136409101Y-98522979D01*
X136359202Y-98557514D01*
X136320732Y-98614459D01*
X136292319Y-98713848D01*
X136272592Y-98875716D01*
X136260178Y-99120097D01*
X136253706Y-99467026D01*
X136251802Y-99936537D01*
X136253096Y-100548664D01*
X136254000Y-100787812D01*
X136258726Y-101392076D01*
X136267482Y-101952026D01*
X136279516Y-102441698D01*
X136294074Y-102835128D01*
X136310405Y-103106352D01*
X136324503Y-103219000D01*
X136530881Y-103726503D01*
X136872040Y-104173587D01*
X137315586Y-104526802D01*
X137802169Y-104744907D01*
X138438329Y-104862355D01*
X139059177Y-104844246D01*
X139640172Y-104701198D01*
X140156774Y-104443827D01*
X140584442Y-104082747D01*
X140898637Y-103628574D01*
X141009573Y-103357444D01*
X141059557Y-103118528D01*
X141100490Y-102758238D01*
X141132293Y-102304225D01*
X141154889Y-101784142D01*
X141168202Y-101225638D01*
X141172155Y-100656366D01*
X141166669Y-100103977D01*
G36*
X141155109Y-94339420D02*
G01*
X141150614Y-93758108D01*
X141141829Y-93217315D01*
X141128731Y-92743268D01*
X141111296Y-92362193D01*
X141089502Y-92100314D01*
X141073001Y-92006481D01*
X140912441Y-91678815D01*
X140647574Y-91364314D01*
X140334974Y-91128987D01*
X140309334Y-91115423D01*
X139908792Y-90981547D01*
X139460760Y-90943418D01*
X139019642Y-90996638D01*
X138639843Y-91136811D01*
X138459590Y-91264928D01*
X138297086Y-91418213D01*
X138169199Y-91554618D01*
X138071363Y-91696283D01*
X137999013Y-91865352D01*
X137947583Y-92083965D01*
X137912508Y-92374265D01*
X137889223Y-92758393D01*
X137873162Y-93258492D01*
X137859760Y-93896702D01*
X137854000Y-94202000D01*
X137811667Y-96445666D01*
X137109855Y-96488000D01*
X136716056Y-96522362D01*
X136462355Y-96579781D01*
X136319619Y-96677454D01*
X136258714Y-96832576D01*
X136249205Y-96996000D01*
X136284669Y-97224047D01*
X136336782Y-97355833D01*
X136403058Y-97426456D01*
X136524684Y-97470872D01*
X136735415Y-97494670D01*
X137069006Y-97503443D01*
X137231304Y-97504000D01*
X137628993Y-97498614D01*
X137900944Y-97477508D01*
X138090552Y-97433261D01*
X138241208Y-97358452D01*
X138295010Y-97322080D01*
X138437188Y-97210223D01*
X138549018Y-97086598D01*
X138634108Y-96930422D01*
X138696065Y-96720913D01*
X138738496Y-96437286D01*
X138765010Y-96058760D01*
X138779212Y-95564551D01*
X138784711Y-94933877D01*
X138785334Y-94497204D01*
X138785334Y-92416303D01*
X138993152Y-92208485D01*
X139267802Y-92034914D01*
X139505001Y-92000666D01*
X139828021Y-92069759D01*
X140016849Y-92208485D01*
X140224667Y-92416303D01*
X140224667Y-97504000D01*
X140602688Y-97504000D01*
X140869728Y-97482569D01*
X141020070Y-97406905D01*
X141068355Y-97340233D01*
X141093254Y-97209592D01*
X141114023Y-96935893D01*
X141130639Y-96545362D01*
X141143078Y-96064224D01*
X141151318Y-95518703D01*
X141155336Y-94935027D01*
X141155109Y-94339420D01*
G37*
X141155109Y-94339420D02*
X141150614Y-93758108D01*
X141141829Y-93217315D01*
X141128731Y-92743268D01*
X141111296Y-92362193D01*
X141089502Y-92100314D01*
X141073001Y-92006481D01*
X140912441Y-91678815D01*
X140647574Y-91364314D01*
X140334974Y-91128987D01*
X140309334Y-91115423D01*
X139908792Y-90981547D01*
X139460760Y-90943418D01*
X139019642Y-90996638D01*
X138639843Y-91136811D01*
X138459590Y-91264928D01*
X138297086Y-91418213D01*
X138169199Y-91554618D01*
X138071363Y-91696283D01*
X137999013Y-91865352D01*
X137947583Y-92083965D01*
X137912508Y-92374265D01*
X137889223Y-92758393D01*
X137873162Y-93258492D01*
X137859760Y-93896702D01*
X137854000Y-94202000D01*
X137811667Y-96445666D01*
X137109855Y-96488000D01*
X136716056Y-96522362D01*
X136462355Y-96579781D01*
X136319619Y-96677454D01*
X136258714Y-96832576D01*
X136249205Y-96996000D01*
X136284669Y-97224047D01*
X136336782Y-97355833D01*
X136403058Y-97426456D01*
X136524684Y-97470872D01*
X136735415Y-97494670D01*
X137069006Y-97503443D01*
X137231304Y-97504000D01*
X137628993Y-97498614D01*
X137900944Y-97477508D01*
X138090552Y-97433261D01*
X138241208Y-97358452D01*
X138295010Y-97322080D01*
X138437188Y-97210223D01*
X138549018Y-97086598D01*
X138634108Y-96930422D01*
X138696065Y-96720913D01*
X138738496Y-96437286D01*
X138765010Y-96058760D01*
X138779212Y-95564551D01*
X138784711Y-94933877D01*
X138785334Y-94497204D01*
X138785334Y-92416303D01*
X138993152Y-92208485D01*
X139267802Y-92034914D01*
X139505001Y-92000666D01*
X139828021Y-92069759D01*
X140016849Y-92208485D01*
X140224667Y-92416303D01*
X140224667Y-97504000D01*
X140602688Y-97504000D01*
X140869728Y-97482569D01*
X141020070Y-97406905D01*
X141068355Y-97340233D01*
X141093254Y-97209592D01*
X141114023Y-96935893D01*
X141130639Y-96545362D01*
X141143078Y-96064224D01*
X141151318Y-95518703D01*
X141155336Y-94935027D01*
X141155109Y-94339420D01*
G36*
X141155302Y-86558734D02*
G01*
X141152367Y-85985656D01*
X141145941Y-85539652D01*
X141134765Y-85199594D01*
X141117585Y-84944352D01*
X141093142Y-84752798D01*
X141060182Y-84603804D01*
X141017446Y-84476241D01*
X140984502Y-84396362D01*
X140752647Y-84012217D01*
X140432037Y-83750429D01*
X140002019Y-83598233D01*
X139614536Y-83549431D01*
X139046259Y-83574894D01*
X138589706Y-83726870D01*
X138243199Y-84006117D01*
X138084002Y-84241423D01*
X138026613Y-84357575D01*
X137981568Y-84480770D01*
X137946846Y-84633451D01*
X137920423Y-84838065D01*
X137900278Y-85117054D01*
X137884387Y-85492864D01*
X137870728Y-85987939D01*
X137857279Y-86624722D01*
X137854000Y-86793666D01*
X137811667Y-88995000D01*
X137178811Y-89020260D01*
X136749613Y-89059432D01*
X136465234Y-89144215D01*
X136304570Y-89286408D01*
X136246517Y-89497816D01*
X136245334Y-89542273D01*
X136290956Y-89780401D01*
X136365670Y-89931318D01*
X136446254Y-90011221D01*
X136570173Y-90060509D01*
X136774928Y-90086161D01*
X137098024Y-90095159D01*
X137248554Y-90095666D01*
X137637867Y-90089265D01*
X137902497Y-90064884D01*
X138086785Y-90014760D01*
X138235073Y-89931129D01*
X138250051Y-89920315D01*
X138405403Y-89797117D01*
X138527477Y-89667743D01*
X138620260Y-89510948D01*
X138687739Y-89305490D01*
X138733900Y-89030126D01*
X138762730Y-88663614D01*
X138778216Y-88184711D01*
X138784345Y-87572173D01*
X138785202Y-87068833D01*
X138785952Y-86417076D01*
X138789158Y-85913396D01*
X138796391Y-85536539D01*
X138809222Y-85265253D01*
X138829224Y-85078283D01*
X138857968Y-84954376D01*
X138897025Y-84872278D01*
X138947967Y-84810736D01*
X138952514Y-84806153D01*
X139161504Y-84656730D01*
X139335157Y-84584896D01*
X139569800Y-84581356D01*
X139835777Y-84650329D01*
X140053409Y-84766325D01*
X140120650Y-84836191D01*
X140137383Y-84941741D01*
X140155171Y-85195074D01*
X140173178Y-85574650D01*
X140190566Y-86058931D01*
X140206500Y-86626377D01*
X140220141Y-87255447D01*
X140224667Y-87513333D01*
X140267000Y-90095666D01*
X140599350Y-90084692D01*
X140751071Y-90076923D01*
X140872366Y-90053278D01*
X140966642Y-89996604D01*
X141037302Y-89889745D01*
X141087752Y-89715547D01*
X141121395Y-89456856D01*
X141141637Y-89096518D01*
X141151882Y-88617378D01*
X141155535Y-88002282D01*
X141156000Y-87280013D01*
X141155302Y-86558734D01*
G37*
X141155302Y-86558734D02*
X141152367Y-85985656D01*
X141145941Y-85539652D01*
X141134765Y-85199594D01*
X141117585Y-84944352D01*
X141093142Y-84752798D01*
X141060182Y-84603804D01*
X141017446Y-84476241D01*
X140984502Y-84396362D01*
X140752647Y-84012217D01*
X140432037Y-83750429D01*
X140002019Y-83598233D01*
X139614536Y-83549431D01*
X139046259Y-83574894D01*
X138589706Y-83726870D01*
X138243199Y-84006117D01*
X138084002Y-84241423D01*
X138026613Y-84357575D01*
X137981568Y-84480770D01*
X137946846Y-84633451D01*
X137920423Y-84838065D01*
X137900278Y-85117054D01*
X137884387Y-85492864D01*
X137870728Y-85987939D01*
X137857279Y-86624722D01*
X137854000Y-86793666D01*
X137811667Y-88995000D01*
X137178811Y-89020260D01*
X136749613Y-89059432D01*
X136465234Y-89144215D01*
X136304570Y-89286408D01*
X136246517Y-89497816D01*
X136245334Y-89542273D01*
X136290956Y-89780401D01*
X136365670Y-89931318D01*
X136446254Y-90011221D01*
X136570173Y-90060509D01*
X136774928Y-90086161D01*
X137098024Y-90095159D01*
X137248554Y-90095666D01*
X137637867Y-90089265D01*
X137902497Y-90064884D01*
X138086785Y-90014760D01*
X138235073Y-89931129D01*
X138250051Y-89920315D01*
X138405403Y-89797117D01*
X138527477Y-89667743D01*
X138620260Y-89510948D01*
X138687739Y-89305490D01*
X138733900Y-89030126D01*
X138762730Y-88663614D01*
X138778216Y-88184711D01*
X138784345Y-87572173D01*
X138785202Y-87068833D01*
X138785952Y-86417076D01*
X138789158Y-85913396D01*
X138796391Y-85536539D01*
X138809222Y-85265253D01*
X138829224Y-85078283D01*
X138857968Y-84954376D01*
X138897025Y-84872278D01*
X138947967Y-84810736D01*
X138952514Y-84806153D01*
X139161504Y-84656730D01*
X139335157Y-84584896D01*
X139569800Y-84581356D01*
X139835777Y-84650329D01*
X140053409Y-84766325D01*
X140120650Y-84836191D01*
X140137383Y-84941741D01*
X140155171Y-85195074D01*
X140173178Y-85574650D01*
X140190566Y-86058931D01*
X140206500Y-86626377D01*
X140220141Y-87255447D01*
X140224667Y-87513333D01*
X140267000Y-90095666D01*
X140599350Y-90084692D01*
X140751071Y-90076923D01*
X140872366Y-90053278D01*
X140966642Y-89996604D01*
X141037302Y-89889745D01*
X141087752Y-89715547D01*
X141121395Y-89456856D01*
X141141637Y-89096518D01*
X141151882Y-88617378D01*
X141155535Y-88002282D01*
X141156000Y-87280013D01*
X141155302Y-86558734D01*
G36*
X137173505Y-78260983D02*
G01*
X137160905Y-77764694D01*
X137134197Y-77398829D01*
X137088709Y-77143969D01*
X137019771Y-76980693D01*
X136922712Y-76889580D01*
X136792862Y-76851210D01*
X136680800Y-76845333D01*
X136546147Y-76851053D01*
X136442627Y-76881243D01*
X136366329Y-76955449D01*
X136313341Y-77093216D01*
X136279750Y-77314092D01*
X136261645Y-77637620D01*
X136255114Y-78083348D01*
X136256246Y-78670820D01*
X136258020Y-78957766D01*
X136263241Y-79523242D01*
X136270796Y-80043357D01*
X136280059Y-80490204D01*
X136290407Y-80835876D01*
X136301214Y-81052463D01*
X136305977Y-81099833D01*
X136337870Y-81268461D01*
X136361582Y-81332666D01*
X136428858Y-81279744D01*
X136584647Y-81141500D01*
X136779292Y-80962613D01*
X137176667Y-80592560D01*
X137176667Y-78907119D01*
X137173505Y-78260983D01*
G37*
X137173505Y-78260983D02*
X137160905Y-77764694D01*
X137134197Y-77398829D01*
X137088709Y-77143969D01*
X137019771Y-76980693D01*
X136922712Y-76889580D01*
X136792862Y-76851210D01*
X136680800Y-76845333D01*
X136546147Y-76851053D01*
X136442627Y-76881243D01*
X136366329Y-76955449D01*
X136313341Y-77093216D01*
X136279750Y-77314092D01*
X136261645Y-77637620D01*
X136255114Y-78083348D01*
X136256246Y-78670820D01*
X136258020Y-78957766D01*
X136263241Y-79523242D01*
X136270796Y-80043357D01*
X136280059Y-80490204D01*
X136290407Y-80835876D01*
X136301214Y-81052463D01*
X136305977Y-81099833D01*
X136337870Y-81268461D01*
X136361582Y-81332666D01*
X136428858Y-81279744D01*
X136584647Y-81141500D01*
X136779292Y-80962613D01*
X137176667Y-80592560D01*
X137176667Y-78907119D01*
X137173505Y-78260983D01*
G36*
X138404490Y-78949596D02*
G01*
X138314279Y-78966479D01*
X138313062Y-78967481D01*
X138201455Y-79103180D01*
X138058124Y-79332759D01*
X137964744Y-79507015D01*
X137826219Y-79768666D01*
X137700994Y-79980411D01*
X137643094Y-80062666D01*
X137545191Y-80224464D01*
X137441400Y-80459896D01*
X137424327Y-80506459D01*
X137282477Y-80763246D01*
X137062972Y-81018005D01*
X136985379Y-81086129D01*
X136773252Y-81275098D01*
X136632986Y-81464437D01*
X136524442Y-81718091D01*
X136458568Y-81925333D01*
X136430878Y-82040087D01*
X136459859Y-82057413D01*
X136569157Y-81969280D01*
X136704955Y-81841645D01*
X136902822Y-81670513D01*
X137022268Y-81617977D01*
X137084633Y-81659413D01*
X137213793Y-81745949D01*
X137398441Y-81784382D01*
X137621621Y-81828285D01*
X137735887Y-81957772D01*
X137774597Y-82211585D01*
X137774944Y-82221666D01*
X137783147Y-82475666D01*
X137911916Y-82179833D01*
X138003383Y-81765075D01*
X137991294Y-81523655D01*
X137982490Y-81275301D01*
X138027315Y-80980764D01*
X138133890Y-80595486D01*
X138194285Y-80409999D01*
X138317572Y-79996011D01*
X138402313Y-79617756D01*
X138446431Y-79300455D01*
X138447849Y-79069328D01*
X138404490Y-78949596D01*
G37*
X138404490Y-78949596D02*
X138314279Y-78966479D01*
X138313062Y-78967481D01*
X138201455Y-79103180D01*
X138058124Y-79332759D01*
X137964744Y-79507015D01*
X137826219Y-79768666D01*
X137700994Y-79980411D01*
X137643094Y-80062666D01*
X137545191Y-80224464D01*
X137441400Y-80459896D01*
X137424327Y-80506459D01*
X137282477Y-80763246D01*
X137062972Y-81018005D01*
X136985379Y-81086129D01*
X136773252Y-81275098D01*
X136632986Y-81464437D01*
X136524442Y-81718091D01*
X136458568Y-81925333D01*
X136430878Y-82040087D01*
X136459859Y-82057413D01*
X136569157Y-81969280D01*
X136704955Y-81841645D01*
X136902822Y-81670513D01*
X137022268Y-81617977D01*
X137084633Y-81659413D01*
X137213793Y-81745949D01*
X137398441Y-81784382D01*
X137621621Y-81828285D01*
X137735887Y-81957772D01*
X137774597Y-82211585D01*
X137774944Y-82221666D01*
X137783147Y-82475666D01*
X137911916Y-82179833D01*
X138003383Y-81765075D01*
X137991294Y-81523655D01*
X137982490Y-81275301D01*
X138027315Y-80980764D01*
X138133890Y-80595486D01*
X138194285Y-80409999D01*
X138317572Y-79996011D01*
X138402313Y-79617756D01*
X138446431Y-79300455D01*
X138447849Y-79069328D01*
X138404490Y-78949596D01*
G36*
X136804487Y-83556930D02*
G01*
X136766005Y-83582181D01*
X136760018Y-83668055D01*
X136780695Y-83758398D01*
X136811171Y-83719208D01*
X136821264Y-83586884D01*
X136804487Y-83556930D01*
G37*
X136804487Y-83556930D02*
X136766005Y-83582181D01*
X136760018Y-83668055D01*
X136780695Y-83758398D01*
X136811171Y-83719208D01*
X136821264Y-83586884D01*
X136804487Y-83556930D01*
G36*
X136946716Y-83076421D02*
G01*
X136922667Y-83110666D01*
X136852467Y-83291408D01*
X136845248Y-83364666D01*
X136869422Y-83415297D01*
X136922667Y-83322333D01*
X136986159Y-83142829D01*
X136994176Y-83050213D01*
X136946716Y-83076421D01*
G37*
X136946716Y-83076421D02*
X136922667Y-83110666D01*
X136852467Y-83291408D01*
X136845248Y-83364666D01*
X136869422Y-83415297D01*
X136922667Y-83322333D01*
X136986159Y-83142829D01*
X136994176Y-83050213D01*
X136946716Y-83076421D01*
G36*
X141143634Y-82085079D02*
G01*
X141091640Y-81953653D01*
X140977676Y-81862496D01*
X140779399Y-81804387D01*
X140474466Y-81772100D01*
X140040535Y-81758412D01*
X139584756Y-81756000D01*
X138279606Y-81756000D01*
X138161553Y-82038541D01*
X138036573Y-82352375D01*
X137980045Y-82547011D01*
X137987455Y-82656061D01*
X138054287Y-82713134D01*
X138070069Y-82719640D01*
X138198556Y-82737590D01*
X138463907Y-82752888D01*
X138833658Y-82764383D01*
X139275347Y-82770927D01*
X139548211Y-82772000D01*
X140108655Y-82768255D01*
X140521969Y-82752360D01*
X140810278Y-82717325D01*
X140995704Y-82656159D01*
X141100374Y-82561871D01*
X141146411Y-82427472D01*
X141156000Y-82264000D01*
X141143634Y-82085079D01*
G37*
X141143634Y-82085079D02*
X141091640Y-81953653D01*
X140977676Y-81862496D01*
X140779399Y-81804387D01*
X140474466Y-81772100D01*
X140040535Y-81758412D01*
X139584756Y-81756000D01*
X138279606Y-81756000D01*
X138161553Y-82038541D01*
X138036573Y-82352375D01*
X137980045Y-82547011D01*
X137987455Y-82656061D01*
X138054287Y-82713134D01*
X138070069Y-82719640D01*
X138198556Y-82737590D01*
X138463907Y-82752888D01*
X138833658Y-82764383D01*
X139275347Y-82770927D01*
X139548211Y-82772000D01*
X140108655Y-82768255D01*
X140521969Y-82752360D01*
X140810278Y-82717325D01*
X140995704Y-82656159D01*
X141100374Y-82561871D01*
X141146411Y-82427472D01*
X141156000Y-82264000D01*
X141143634Y-82085079D01*
%TD*%
M02*
