%TF.GenerationSoftware,KiCad,Pcbnew,(6.0.2)*%
%TF.CreationDate,2022-04-23T23:31:31-04:00*%
%TF.ProjectId,Pi_HAT,50695f48-4154-42e6-9b69-6361645f7063,rev?*%
%TF.SameCoordinates,Original*%
%TF.FileFunction,Copper,L2,Bot*%
%TF.FilePolarity,Positive*%
%FSLAX46Y46*%
G04 Gerber Fmt 4.6, Leading zero omitted, Abs format (unit mm)*
G04 Created by KiCad (PCBNEW (6.0.2)) date 2022-04-23 23:31:31*
%MOMM*%
%LPD*%
G01*
G04 APERTURE LIST*
%TA.AperFunction,ComponentPad*%
%ADD10R,1.800000X1.800000*%
%TD*%
%TA.AperFunction,ComponentPad*%
%ADD11C,1.800000*%
%TD*%
%TA.AperFunction,ComponentPad*%
%ADD12R,1.700000X1.700000*%
%TD*%
%TA.AperFunction,ComponentPad*%
%ADD13O,1.700000X1.700000*%
%TD*%
%TA.AperFunction,ComponentPad*%
%ADD14C,1.600000*%
%TD*%
%TA.AperFunction,ComponentPad*%
%ADD15R,3.716000X3.716000*%
%TD*%
%TA.AperFunction,ComponentPad*%
%ADD16C,3.716000*%
%TD*%
%TA.AperFunction,ComponentPad*%
%ADD17O,1.200000X2.400000*%
%TD*%
%TA.AperFunction,ComponentPad*%
%ADD18R,1.200000X1.200000*%
%TD*%
%TA.AperFunction,ComponentPad*%
%ADD19C,1.200000*%
%TD*%
%TA.AperFunction,SMDPad,CuDef*%
%ADD20R,3.500000X1.600000*%
%TD*%
%TA.AperFunction,SMDPad,CuDef*%
%ADD21R,9.750000X12.200000*%
%TD*%
%TA.AperFunction,SMDPad,CuDef*%
%ADD22R,1.600000X3.500000*%
%TD*%
%TA.AperFunction,SMDPad,CuDef*%
%ADD23R,12.200000X9.750000*%
%TD*%
%TA.AperFunction,ViaPad*%
%ADD24C,0.800000*%
%TD*%
%TA.AperFunction,Conductor*%
%ADD25C,0.500000*%
%TD*%
%TA.AperFunction,Conductor*%
%ADD26C,0.250000*%
%TD*%
%TA.AperFunction,Conductor*%
%ADD27C,1.000000*%
%TD*%
G04 APERTURE END LIST*
D10*
%TO.P,TB1,1,D1/TX*%
%TO.N,unconnected-(TB1-Pad1)*%
X109880000Y-93220000D03*
D11*
%TO.P,TB1,2,D0/RX*%
%TO.N,unconnected-(TB1-Pad2)*%
X109880000Y-95760000D03*
%TO.P,TB1,3,RESET*%
%TO.N,unconnected-(TB1-Pad28)*%
X109880000Y-98300000D03*
%TO.P,TB1,4,COM/GND*%
%TO.N,GND*%
X109880000Y-100840000D03*
%TO.P,TB1,5,D2*%
%TO.N,unconnected-(TB1-Pad5)*%
X109880000Y-103380000D03*
%TO.P,TB1,6,D3*%
%TO.N,unconnected-(TB1-Pad6)*%
X109880000Y-105920000D03*
%TO.P,TB1,7,D4*%
%TO.N,unconnected-(TB1-Pad7)*%
X109880000Y-108460000D03*
%TO.P,TB1,8,D5*%
%TO.N,unconnected-(TB1-Pad8)*%
X109880000Y-111000000D03*
%TO.P,TB1,9,D6*%
%TO.N,unconnected-(TB1-Pad9)*%
X109880000Y-113540000D03*
%TO.P,TB1,10,D7*%
%TO.N,unconnected-(TB1-Pad10)*%
X109880000Y-116080000D03*
%TO.P,TB1,11,D8*%
%TO.N,unconnected-(TB1-Pad11)*%
X109880000Y-118620000D03*
%TO.P,TB1,12,D9*%
%TO.N,unconnected-(TB1-Pad12)*%
X109880000Y-121160000D03*
%TO.P,TB1,13,D10*%
%TO.N,unconnected-(TB1-Pad13)*%
X109880000Y-123700000D03*
%TO.P,TB1,14,D11/MOSI*%
%TO.N,unconnected-(TB1-Pad14)*%
X109880000Y-126240000D03*
%TO.P,TB1,15,D12/MISO*%
%TO.N,unconnected-(TB1-Pad15)*%
X109880000Y-128780000D03*
%TO.P,TB1,16,D13/SCK*%
%TO.N,unconnected-(TB1-Pad16)*%
X125120000Y-128780000D03*
%TO.P,TB1,17,3V3*%
%TO.N,3.3VN*%
X125120000Y-126240000D03*
%TO.P,TB1,18,AREF*%
%TO.N,unconnected-(TB1-Pad18)*%
X125120000Y-123700000D03*
%TO.P,TB1,19,A0*%
%TO.N,unconnected-(TB1-Pad19)*%
X125120000Y-121160000D03*
%TO.P,TB1,20,A1*%
%TO.N,unconnected-(TB1-Pad20)*%
X125120000Y-118620000D03*
%TO.P,TB1,21,A2*%
%TO.N,unconnected-(TB1-Pad21)*%
X125120000Y-116080000D03*
%TO.P,TB1,22,A3*%
%TO.N,unconnected-(TB1-Pad22)*%
X125120000Y-113540000D03*
%TO.P,TB1,23,A4*%
%TO.N,SDAN*%
X125120000Y-111000000D03*
%TO.P,TB1,24,A5*%
%TO.N,SCLN*%
X125120000Y-108460000D03*
%TO.P,TB1,25,A6*%
%TO.N,unconnected-(TB1-Pad25)*%
X125120000Y-105920000D03*
%TO.P,TB1,26,A7*%
%TO.N,unconnected-(TB1-Pad26)*%
X125120000Y-103380000D03*
%TO.P,TB1,27,+5V*%
%TO.N,unconnected-(TB1-Pad27)*%
X125120000Y-100840000D03*
%TO.P,TB1,28,RESET*%
%TO.N,unconnected-(TB1-Pad28)*%
X125120000Y-98300000D03*
%TO.P,TB1,29,COM/GND*%
%TO.N,GND*%
X125120000Y-95760000D03*
%TO.P,TB1,30,VIN*%
%TO.N,unconnected-(TB1-Pad30)*%
X125120000Y-93220000D03*
%TD*%
D12*
%TO.P,J3,1,Pin_1*%
%TO.N,3.3VP*%
X146000000Y-74500000D03*
D13*
%TO.P,J3,2,Pin_2*%
%TO.N,/5V*%
X146000000Y-77040000D03*
%TO.P,J3,3,Pin_3*%
%TO.N,/SDA*%
X143460000Y-74500000D03*
%TO.P,J3,4,Pin_4*%
%TO.N,/5V*%
X143460000Y-77040000D03*
%TO.P,J3,5,Pin_5*%
%TO.N,/SCL*%
X140920000Y-74500000D03*
%TO.P,J3,6,Pin_6*%
%TO.N,GND*%
X140920000Y-77040000D03*
%TD*%
D12*
%TO.P,J1,1,Pin_1*%
%TO.N,3.3VN*%
X131250000Y-108300000D03*
D13*
%TO.P,J1,2,Pin_2*%
%TO.N,GND*%
X131250000Y-110840000D03*
%TO.P,J1,3,Pin_3*%
%TO.N,SCLN*%
X131250000Y-113380000D03*
%TO.P,J1,4,Pin_4*%
%TO.N,SDAN*%
X131250000Y-115920000D03*
%TO.P,J1,5,Pin_5*%
%TO.N,unconnected-(J1-Pad5)*%
X131250000Y-118460000D03*
%TO.P,J1,6,Pin_6*%
%TO.N,unconnected-(J1-Pad6)*%
X131250000Y-121000000D03*
%TO.P,J1,7,Pin_7*%
%TO.N,unconnected-(J1-Pad7)*%
X131250000Y-123540000D03*
%TO.P,J1,8,Pin_8*%
%TO.N,unconnected-(J1-Pad8)*%
X131250000Y-126080000D03*
%TO.P,J1,9,Pin_9*%
%TO.N,unconnected-(J1-Pad9)*%
X131250000Y-128620000D03*
%TO.P,J1,10,Pin_10*%
%TO.N,unconnected-(J1-Pad10)*%
X131250000Y-131160000D03*
%TD*%
D12*
%TO.P,J2,1,Pin_1*%
%TO.N,3.3VP*%
X151000000Y-79400000D03*
D13*
%TO.P,J2,2,Pin_2*%
%TO.N,/5V*%
X153540000Y-79400000D03*
%TO.P,J2,3,Pin_3*%
%TO.N,/SDA*%
X151000000Y-81940000D03*
%TO.P,J2,4,Pin_4*%
%TO.N,/5V*%
X153540000Y-81940000D03*
%TO.P,J2,5,Pin_5*%
%TO.N,/SCL*%
X151000000Y-84480000D03*
%TO.P,J2,6,Pin_6*%
%TO.N,GND*%
X153540000Y-84480000D03*
%TO.P,J2,7,Pin_7*%
%TO.N,unconnected-(J2-Pad7)*%
X151000000Y-87020000D03*
%TO.P,J2,8,Pin_8*%
%TO.N,unconnected-(J2-Pad8)*%
X153540000Y-87020000D03*
%TO.P,J2,9,Pin_9*%
%TO.N,unconnected-(J2-Pad9)*%
X151000000Y-89560000D03*
%TO.P,J2,10,Pin_10*%
%TO.N,unconnected-(J2-Pad10)*%
X153540000Y-89560000D03*
%TO.P,J2,11,Pin_11*%
%TO.N,unconnected-(J2-Pad11)*%
X151000000Y-92100000D03*
%TO.P,J2,12,Pin_12*%
%TO.N,unconnected-(J2-Pad12)*%
X153540000Y-92100000D03*
%TO.P,J2,13,Pin_13*%
%TO.N,unconnected-(J2-Pad13)*%
X151000000Y-94640000D03*
%TO.P,J2,14,Pin_14*%
%TO.N,unconnected-(J2-Pad14)*%
X153540000Y-94640000D03*
%TO.P,J2,15,Pin_15*%
%TO.N,unconnected-(J2-Pad15)*%
X151000000Y-97180000D03*
%TO.P,J2,16,Pin_16*%
%TO.N,unconnected-(J2-Pad16)*%
X153540000Y-97180000D03*
%TO.P,J2,17,Pin_17*%
%TO.N,unconnected-(J2-Pad17)*%
X151000000Y-99720000D03*
%TO.P,J2,18,Pin_18*%
%TO.N,unconnected-(J2-Pad18)*%
X153540000Y-99720000D03*
%TO.P,J2,19,Pin_19*%
%TO.N,unconnected-(J2-Pad19)*%
X151000000Y-102260000D03*
%TO.P,J2,20,Pin_20*%
%TO.N,unconnected-(J2-Pad20)*%
X153540000Y-102260000D03*
%TO.P,J2,21,Pin_21*%
%TO.N,unconnected-(J2-Pad21)*%
X151000000Y-104800000D03*
%TO.P,J2,22,Pin_22*%
%TO.N,unconnected-(J2-Pad22)*%
X153540000Y-104800000D03*
%TO.P,J2,23,Pin_23*%
%TO.N,unconnected-(J2-Pad23)*%
X151000000Y-107340000D03*
%TO.P,J2,24,Pin_24*%
%TO.N,unconnected-(J2-Pad24)*%
X153540000Y-107340000D03*
%TO.P,J2,25,Pin_25*%
%TO.N,unconnected-(J2-Pad25)*%
X151000000Y-109880000D03*
%TO.P,J2,26,Pin_26*%
%TO.N,unconnected-(J2-Pad26)*%
X153540000Y-109880000D03*
%TO.P,J2,27,Pin_27*%
%TO.N,unconnected-(J2-Pad27)*%
X151000000Y-112420000D03*
%TO.P,J2,28,Pin_28*%
%TO.N,unconnected-(J2-Pad28)*%
X153540000Y-112420000D03*
%TO.P,J2,29,Pin_29*%
%TO.N,unconnected-(J2-Pad29)*%
X151000000Y-114960000D03*
%TO.P,J2,30,Pin_30*%
%TO.N,unconnected-(J2-Pad30)*%
X153540000Y-114960000D03*
%TO.P,J2,31,Pin_31*%
%TO.N,unconnected-(J2-Pad31)*%
X151000000Y-117500000D03*
%TO.P,J2,32,Pin_32*%
%TO.N,unconnected-(J2-Pad32)*%
X153540000Y-117500000D03*
%TO.P,J2,33,Pin_33*%
%TO.N,unconnected-(J2-Pad33)*%
X151000000Y-120040000D03*
%TO.P,J2,34,Pin_34*%
%TO.N,unconnected-(J2-Pad34)*%
X153540000Y-120040000D03*
%TO.P,J2,35,Pin_35*%
%TO.N,unconnected-(J2-Pad35)*%
X151000000Y-122580000D03*
%TO.P,J2,36,Pin_36*%
%TO.N,unconnected-(J2-Pad36)*%
X153540000Y-122580000D03*
%TO.P,J2,37,Pin_37*%
%TO.N,unconnected-(J2-Pad37)*%
X151000000Y-125120000D03*
%TO.P,J2,38,Pin_38*%
%TO.N,unconnected-(J2-Pad38)*%
X153540000Y-125120000D03*
%TO.P,J2,39,Pin_39*%
%TO.N,unconnected-(J2-Pad39)*%
X151000000Y-127660000D03*
%TO.P,J2,40,Pin_40*%
%TO.N,unconnected-(J2-Pad40)*%
X153540000Y-127660000D03*
%TD*%
D14*
%TO.P,C1,1*%
%TO.N,12V*%
X129200000Y-79400000D03*
%TO.P,C1,2*%
%TO.N,GND*%
X134200000Y-79400000D03*
%TD*%
D12*
%TO.P,J4,1,Pin_1*%
%TO.N,12V*%
X103200000Y-91000000D03*
D13*
%TO.P,J4,2,Pin_2*%
%TO.N,GND*%
X103200000Y-93540000D03*
%TO.P,J4,3,Pin_3*%
%TO.N,/SDA*%
X103200000Y-96080000D03*
%TO.P,J4,4,Pin_4*%
%TO.N,/SCL*%
X103200000Y-98620000D03*
%TD*%
D15*
%TO.P,J5,1,+*%
%TO.N,12V*%
X121200000Y-83465750D03*
D16*
%TO.P,J5,2,-*%
%TO.N,GND*%
X114000000Y-83465750D03*
D17*
%TO.P,J5,S1*%
%TO.N,N/C*%
X124350000Y-77465750D03*
%TO.P,J5,S2*%
X110850000Y-77465750D03*
%TD*%
D18*
%TO.P,C2,1*%
%TO.N,/5V*%
X103200000Y-124800000D03*
D19*
%TO.P,C2,2*%
%TO.N,GND*%
X103200000Y-123300000D03*
%TD*%
D20*
%TO.P,VR1,1,INPUT*%
%TO.N,12V*%
X131050000Y-89290000D03*
%TO.P,VR1,3,OUTPUT*%
%TO.N,/5V*%
X131050000Y-84210000D03*
D21*
%TO.P,VR1,4,GND*%
%TO.N,GND*%
X141325000Y-86750000D03*
%TD*%
D20*
%TO.P,VR2,1,INPUT*%
%TO.N,12V*%
X131050000Y-102540000D03*
%TO.P,VR2,3,OUTPUT*%
%TO.N,/5V*%
X131050000Y-97460000D03*
D21*
%TO.P,VR2,4,GND*%
%TO.N,GND*%
X141325000Y-100000000D03*
%TD*%
D22*
%TO.P,VR3,1,INPUT*%
%TO.N,12V*%
X120040000Y-128950000D03*
%TO.P,VR3,3,OUTPUT*%
%TO.N,/5V*%
X114960000Y-128950000D03*
D23*
%TO.P,VR3,4,GND*%
%TO.N,GND*%
X117500000Y-118675000D03*
%TD*%
D24*
%TO.N,GND*%
X135250000Y-83500000D03*
X133950000Y-110950000D03*
X117500000Y-112900000D03*
X147350000Y-86750000D03*
X147250000Y-100000000D03*
X152300000Y-83250000D03*
%TD*%
D25*
%TO.N,3.3VP*%
X146700000Y-74500000D02*
X151000000Y-78800000D01*
X146000000Y-74500000D02*
X146700000Y-74500000D01*
X151000000Y-78800000D02*
X151000000Y-79400000D01*
D26*
%TO.N,unconnected-(TB1-Pad28)*%
X109880000Y-98300000D02*
X125120000Y-98300000D01*
D25*
%TO.N,GND*%
X138075000Y-83500000D02*
X141325000Y-86750000D01*
X134200000Y-79400000D02*
X141325000Y-86525000D01*
D26*
X116275000Y-119900000D02*
X117500000Y-118675000D01*
D25*
X141325000Y-86750000D02*
X147350000Y-86750000D01*
D26*
X106600000Y-119900000D02*
X116275000Y-119900000D01*
D25*
X131250000Y-110840000D02*
X133840000Y-110840000D01*
X141325000Y-86525000D02*
X141325000Y-86750000D01*
X133840000Y-110840000D02*
X133950000Y-110950000D01*
D26*
X103200000Y-123300000D02*
X106600000Y-119900000D01*
D25*
X117500000Y-118675000D02*
X117500000Y-112900000D01*
X135250000Y-83500000D02*
X138075000Y-83500000D01*
X141325000Y-100000000D02*
X147250000Y-100000000D01*
D27*
%TO.N,12V*%
X121200000Y-83465750D02*
X121200000Y-84000000D01*
X128000000Y-104950000D02*
X128000000Y-128400000D01*
X125900000Y-130500000D02*
X122550000Y-130500000D01*
X121200000Y-83465750D02*
X125134250Y-83465750D01*
X131050000Y-102540000D02*
X130410000Y-102540000D01*
X121000000Y-128950000D02*
X120040000Y-128950000D01*
X125134250Y-83465750D02*
X129200000Y-79400000D01*
X127850000Y-93700000D02*
X127850000Y-99340000D01*
X131050000Y-90500000D02*
X127850000Y-93700000D01*
X121200000Y-84000000D02*
X126490000Y-89290000D01*
X122550000Y-130500000D02*
X121000000Y-128950000D01*
X127850000Y-99340000D02*
X131050000Y-102540000D01*
X126490000Y-89290000D02*
X131050000Y-89290000D01*
X130410000Y-102540000D02*
X128000000Y-104950000D01*
X128000000Y-128400000D02*
X125900000Y-130500000D01*
X131050000Y-89290000D02*
X131050000Y-90500000D01*
D25*
%TO.N,/5V*%
X135000000Y-101350000D02*
X135000000Y-129500000D01*
X140400000Y-79000000D02*
X141500000Y-79000000D01*
X141500000Y-79000000D02*
X143460000Y-77040000D01*
X114960000Y-128950000D02*
X114960000Y-129640000D01*
X135200000Y-96000000D02*
X133740000Y-97460000D01*
X131050000Y-80150000D02*
X133300000Y-77900000D01*
X134210000Y-84210000D02*
X135200000Y-85200000D01*
X113800000Y-130800000D02*
X108600000Y-130800000D01*
X131110000Y-97460000D02*
X135000000Y-101350000D01*
X135000000Y-129500000D02*
X131950000Y-132550000D01*
X131050000Y-97460000D02*
X131110000Y-97460000D01*
X131950000Y-132550000D02*
X118560000Y-132550000D01*
X118560000Y-132550000D02*
X114960000Y-128950000D01*
X108600000Y-130800000D02*
X103200000Y-125400000D01*
X114960000Y-129640000D02*
X113800000Y-130800000D01*
X135200000Y-85200000D02*
X135200000Y-96000000D01*
X133300000Y-77900000D02*
X139300000Y-77900000D01*
X131050000Y-84210000D02*
X134210000Y-84210000D01*
X131050000Y-84210000D02*
X131050000Y-80150000D01*
X139300000Y-77900000D02*
X140400000Y-79000000D01*
X133740000Y-97460000D02*
X131050000Y-97460000D01*
X103200000Y-125400000D02*
X103200000Y-124800000D01*
D26*
%TO.N,/SDA*%
X143460000Y-74500000D02*
X144700000Y-75740000D01*
X148490000Y-81940000D02*
X151000000Y-81940000D01*
X144700000Y-78150000D02*
X148490000Y-81940000D01*
X144700000Y-75740000D02*
X144700000Y-78150000D01*
%TD*%
%TA.AperFunction,Conductor*%
%TO.N,GND*%
G36*
X155470057Y-66909500D02*
G01*
X155484858Y-66911805D01*
X155484861Y-66911805D01*
X155493730Y-66913186D01*
X155506378Y-66911532D01*
X155533692Y-66910948D01*
X155612682Y-66917859D01*
X155661281Y-66922111D01*
X155682904Y-66925923D01*
X155795888Y-66956197D01*
X155828636Y-66964972D01*
X155849275Y-66972484D01*
X155986010Y-67036245D01*
X156005030Y-67047227D01*
X156128618Y-67133764D01*
X156145443Y-67147882D01*
X156252118Y-67254557D01*
X156266236Y-67271382D01*
X156352773Y-67394970D01*
X156363755Y-67413990D01*
X156427516Y-67550725D01*
X156435028Y-67571364D01*
X156474076Y-67717092D01*
X156477890Y-67738722D01*
X156488449Y-67859419D01*
X156487896Y-67875879D01*
X156488305Y-67875884D01*
X156488195Y-67884858D01*
X156486814Y-67893730D01*
X156487978Y-67902632D01*
X156487978Y-67902635D01*
X156490936Y-67925251D01*
X156492000Y-67941589D01*
X156492000Y-134450672D01*
X156490500Y-134470056D01*
X156486814Y-134493730D01*
X156488454Y-134506270D01*
X156488468Y-134506375D01*
X156489052Y-134533692D01*
X156477890Y-134661278D01*
X156474076Y-134682908D01*
X156435028Y-134828636D01*
X156427516Y-134849275D01*
X156363755Y-134986010D01*
X156352773Y-135005030D01*
X156266236Y-135128618D01*
X156252118Y-135145443D01*
X156145443Y-135252118D01*
X156128618Y-135266236D01*
X156005030Y-135352773D01*
X155986010Y-135363755D01*
X155849275Y-135427516D01*
X155828635Y-135435028D01*
X155682904Y-135474077D01*
X155661281Y-135477889D01*
X155617391Y-135481729D01*
X155540581Y-135488449D01*
X155524121Y-135487896D01*
X155524116Y-135488305D01*
X155515142Y-135488195D01*
X155506270Y-135486814D01*
X155497368Y-135487978D01*
X155497365Y-135487978D01*
X155474749Y-135490936D01*
X155458411Y-135492000D01*
X99549328Y-135492000D01*
X99529943Y-135490500D01*
X99515142Y-135488195D01*
X99515139Y-135488195D01*
X99506270Y-135486814D01*
X99493622Y-135488468D01*
X99466308Y-135489052D01*
X99387318Y-135482141D01*
X99338719Y-135477889D01*
X99317096Y-135474077D01*
X99171365Y-135435028D01*
X99150725Y-135427516D01*
X99013990Y-135363755D01*
X98994970Y-135352773D01*
X98871382Y-135266236D01*
X98854557Y-135252118D01*
X98747882Y-135145443D01*
X98733764Y-135128618D01*
X98647227Y-135005030D01*
X98636245Y-134986010D01*
X98572484Y-134849275D01*
X98564972Y-134828636D01*
X98525924Y-134682908D01*
X98522110Y-134661278D01*
X98511551Y-134540581D01*
X98512104Y-134524121D01*
X98511695Y-134524116D01*
X98511805Y-134515142D01*
X98513186Y-134506270D01*
X98511547Y-134493730D01*
X98509064Y-134474749D01*
X98508000Y-134458411D01*
X98508000Y-132607655D01*
X100739858Y-132607655D01*
X100775104Y-132866638D01*
X100776412Y-132871124D01*
X100776412Y-132871126D01*
X100796098Y-132938664D01*
X100848243Y-133117567D01*
X100957668Y-133354928D01*
X100960231Y-133358837D01*
X101098410Y-133569596D01*
X101098414Y-133569601D01*
X101100976Y-133573509D01*
X101275018Y-133768506D01*
X101475970Y-133935637D01*
X101479973Y-133938066D01*
X101695422Y-134068804D01*
X101695426Y-134068806D01*
X101699419Y-134071229D01*
X101940455Y-134172303D01*
X102193783Y-134236641D01*
X102198434Y-134237109D01*
X102198438Y-134237110D01*
X102391308Y-134256531D01*
X102410867Y-134258500D01*
X102566354Y-134258500D01*
X102568679Y-134258327D01*
X102568685Y-134258327D01*
X102756000Y-134244407D01*
X102756004Y-134244406D01*
X102760652Y-134244061D01*
X102765200Y-134243032D01*
X102765206Y-134243031D01*
X102951601Y-134200853D01*
X103015577Y-134186377D01*
X103051769Y-134172303D01*
X103254824Y-134093340D01*
X103254827Y-134093339D01*
X103259177Y-134091647D01*
X103486098Y-133961951D01*
X103691357Y-133800138D01*
X103870443Y-133609763D01*
X104019424Y-133395009D01*
X104061030Y-133310641D01*
X104132960Y-133164781D01*
X104132961Y-133164778D01*
X104135025Y-133160593D01*
X104160946Y-133079617D01*
X104213280Y-132916123D01*
X104214707Y-132911665D01*
X104256721Y-132653693D01*
X104260142Y-132392345D01*
X104224896Y-132133362D01*
X104210473Y-132083877D01*
X104153068Y-131886932D01*
X104151757Y-131882433D01*
X104042332Y-131645072D01*
X104005785Y-131589329D01*
X103901590Y-131430404D01*
X103901586Y-131430399D01*
X103899024Y-131426491D01*
X103724982Y-131231494D01*
X103524030Y-131064363D01*
X103341978Y-130953891D01*
X103304578Y-130931196D01*
X103304574Y-130931194D01*
X103300581Y-130928771D01*
X103059545Y-130827697D01*
X102806217Y-130763359D01*
X102801566Y-130762891D01*
X102801562Y-130762890D01*
X102592271Y-130741816D01*
X102589133Y-130741500D01*
X102433646Y-130741500D01*
X102431321Y-130741673D01*
X102431315Y-130741673D01*
X102244000Y-130755593D01*
X102243996Y-130755594D01*
X102239348Y-130755939D01*
X102234800Y-130756968D01*
X102234794Y-130756969D01*
X102048399Y-130799147D01*
X101984423Y-130813623D01*
X101980071Y-130815315D01*
X101980069Y-130815316D01*
X101745176Y-130906660D01*
X101745173Y-130906661D01*
X101740823Y-130908353D01*
X101513902Y-131038049D01*
X101308643Y-131199862D01*
X101129557Y-131390237D01*
X101044565Y-131512752D01*
X100988659Y-131593340D01*
X100980576Y-131604991D01*
X100978510Y-131609181D01*
X100978508Y-131609184D01*
X100905030Y-131758184D01*
X100864975Y-131839407D01*
X100785293Y-132088335D01*
X100743279Y-132346307D01*
X100739858Y-132607655D01*
X98508000Y-132607655D01*
X98508000Y-123276638D01*
X102088012Y-123276638D01*
X102100575Y-123468304D01*
X102102376Y-123479674D01*
X102149657Y-123665843D01*
X102153498Y-123676690D01*
X102199437Y-123776341D01*
X102209792Y-123846579D01*
X102185837Y-123904657D01*
X102154771Y-123946108D01*
X102154770Y-123946110D01*
X102149385Y-123953295D01*
X102098255Y-124089684D01*
X102091500Y-124151866D01*
X102091500Y-125448134D01*
X102098255Y-125510316D01*
X102149385Y-125646705D01*
X102236739Y-125763261D01*
X102353295Y-125850615D01*
X102489684Y-125901745D01*
X102551866Y-125908500D01*
X102583623Y-125908500D01*
X102651744Y-125928502D01*
X102670112Y-125942873D01*
X102670219Y-125942974D01*
X102672825Y-125945506D01*
X108016230Y-131288911D01*
X108028616Y-131303323D01*
X108037149Y-131314918D01*
X108037154Y-131314923D01*
X108041492Y-131320818D01*
X108047070Y-131325557D01*
X108047073Y-131325560D01*
X108081768Y-131355035D01*
X108089284Y-131361965D01*
X108094979Y-131367660D01*
X108097861Y-131369940D01*
X108117251Y-131385281D01*
X108120655Y-131388072D01*
X108170703Y-131430591D01*
X108176285Y-131435333D01*
X108182801Y-131438661D01*
X108187850Y-131442028D01*
X108192979Y-131445195D01*
X108198716Y-131449734D01*
X108264875Y-131480655D01*
X108268769Y-131482558D01*
X108333808Y-131515769D01*
X108340916Y-131517508D01*
X108346559Y-131519607D01*
X108352322Y-131521524D01*
X108358950Y-131524622D01*
X108366112Y-131526112D01*
X108366113Y-131526112D01*
X108430412Y-131539486D01*
X108434696Y-131540456D01*
X108505610Y-131557808D01*
X108511212Y-131558156D01*
X108511215Y-131558156D01*
X108516764Y-131558500D01*
X108516762Y-131558536D01*
X108520755Y-131558775D01*
X108524947Y-131559149D01*
X108532115Y-131560640D01*
X108609520Y-131558546D01*
X108612928Y-131558500D01*
X113732930Y-131558500D01*
X113751880Y-131559933D01*
X113766115Y-131562099D01*
X113766119Y-131562099D01*
X113773349Y-131563199D01*
X113780641Y-131562606D01*
X113780644Y-131562606D01*
X113826018Y-131558915D01*
X113836233Y-131558500D01*
X113844293Y-131558500D01*
X113861680Y-131556473D01*
X113872507Y-131555211D01*
X113876882Y-131554778D01*
X113942339Y-131549454D01*
X113942342Y-131549453D01*
X113949637Y-131548860D01*
X113956601Y-131546604D01*
X113962560Y-131545413D01*
X113968415Y-131544029D01*
X113975681Y-131543182D01*
X114044327Y-131518265D01*
X114048455Y-131516848D01*
X114110936Y-131496607D01*
X114110938Y-131496606D01*
X114117899Y-131494351D01*
X114124154Y-131490555D01*
X114129628Y-131488049D01*
X114135058Y-131485330D01*
X114141937Y-131482833D01*
X114166033Y-131467035D01*
X114202976Y-131442814D01*
X114206680Y-131440477D01*
X114269107Y-131402595D01*
X114277484Y-131395197D01*
X114277508Y-131395224D01*
X114280500Y-131392571D01*
X114283733Y-131389868D01*
X114289852Y-131385856D01*
X114343128Y-131329617D01*
X114345506Y-131327175D01*
X114427276Y-131245405D01*
X114489588Y-131211379D01*
X114516371Y-131208500D01*
X115808134Y-131208500D01*
X115870316Y-131201745D01*
X115989825Y-131156943D01*
X116060631Y-131151760D01*
X116123149Y-131185830D01*
X117976227Y-133038907D01*
X117988613Y-133053319D01*
X117997149Y-133064917D01*
X118001492Y-133070818D01*
X118007070Y-133075557D01*
X118007073Y-133075560D01*
X118041775Y-133105041D01*
X118049291Y-133111971D01*
X118054980Y-133117660D01*
X118057834Y-133119918D01*
X118057844Y-133119927D01*
X118077242Y-133135274D01*
X118080642Y-133138062D01*
X118130707Y-133180595D01*
X118130711Y-133180598D01*
X118136285Y-133185333D01*
X118142800Y-133188660D01*
X118147837Y-133192019D01*
X118152975Y-133195192D01*
X118158716Y-133199734D01*
X118224875Y-133230655D01*
X118228769Y-133232558D01*
X118293808Y-133265769D01*
X118300917Y-133267508D01*
X118306551Y-133269604D01*
X118312321Y-133271523D01*
X118318950Y-133274622D01*
X118326113Y-133276112D01*
X118326116Y-133276113D01*
X118376830Y-133286661D01*
X118390435Y-133289491D01*
X118394701Y-133290457D01*
X118465610Y-133307808D01*
X118471212Y-133308156D01*
X118471215Y-133308156D01*
X118476764Y-133308500D01*
X118476762Y-133308535D01*
X118480734Y-133308775D01*
X118484955Y-133309152D01*
X118492115Y-133310641D01*
X118569542Y-133308546D01*
X118572950Y-133308500D01*
X131882930Y-133308500D01*
X131901880Y-133309933D01*
X131916115Y-133312099D01*
X131916119Y-133312099D01*
X131923349Y-133313199D01*
X131930641Y-133312606D01*
X131930644Y-133312606D01*
X131976018Y-133308915D01*
X131986233Y-133308500D01*
X131994293Y-133308500D01*
X132011680Y-133306473D01*
X132022507Y-133305211D01*
X132026882Y-133304778D01*
X132092339Y-133299454D01*
X132092342Y-133299453D01*
X132099637Y-133298860D01*
X132106601Y-133296604D01*
X132112560Y-133295413D01*
X132118415Y-133294029D01*
X132125681Y-133293182D01*
X132194327Y-133268265D01*
X132198455Y-133266848D01*
X132260936Y-133246607D01*
X132260938Y-133246606D01*
X132267899Y-133244351D01*
X132274154Y-133240555D01*
X132279628Y-133238049D01*
X132285058Y-133235330D01*
X132291937Y-133232833D01*
X132298058Y-133228820D01*
X132352976Y-133192814D01*
X132356680Y-133190477D01*
X132419107Y-133152595D01*
X132427484Y-133145197D01*
X132427508Y-133145224D01*
X132430500Y-133142571D01*
X132433733Y-133139868D01*
X132439852Y-133135856D01*
X132493128Y-133079617D01*
X132495506Y-133077175D01*
X132965026Y-132607655D01*
X150739858Y-132607655D01*
X150775104Y-132866638D01*
X150776412Y-132871124D01*
X150776412Y-132871126D01*
X150796098Y-132938664D01*
X150848243Y-133117567D01*
X150957668Y-133354928D01*
X150960231Y-133358837D01*
X151098410Y-133569596D01*
X151098414Y-133569601D01*
X151100976Y-133573509D01*
X151275018Y-133768506D01*
X151475970Y-133935637D01*
X151479973Y-133938066D01*
X151695422Y-134068804D01*
X151695426Y-134068806D01*
X151699419Y-134071229D01*
X151940455Y-134172303D01*
X152193783Y-134236641D01*
X152198434Y-134237109D01*
X152198438Y-134237110D01*
X152391308Y-134256531D01*
X152410867Y-134258500D01*
X152566354Y-134258500D01*
X152568679Y-134258327D01*
X152568685Y-134258327D01*
X152756000Y-134244407D01*
X152756004Y-134244406D01*
X152760652Y-134244061D01*
X152765200Y-134243032D01*
X152765206Y-134243031D01*
X152951601Y-134200853D01*
X153015577Y-134186377D01*
X153051769Y-134172303D01*
X153254824Y-134093340D01*
X153254827Y-134093339D01*
X153259177Y-134091647D01*
X153486098Y-133961951D01*
X153691357Y-133800138D01*
X153870443Y-133609763D01*
X154019424Y-133395009D01*
X154061030Y-133310641D01*
X154132960Y-133164781D01*
X154132961Y-133164778D01*
X154135025Y-133160593D01*
X154160946Y-133079617D01*
X154213280Y-132916123D01*
X154214707Y-132911665D01*
X154256721Y-132653693D01*
X154260142Y-132392345D01*
X154224896Y-132133362D01*
X154210473Y-132083877D01*
X154153068Y-131886932D01*
X154151757Y-131882433D01*
X154042332Y-131645072D01*
X154005785Y-131589329D01*
X153901590Y-131430404D01*
X153901586Y-131430399D01*
X153899024Y-131426491D01*
X153724982Y-131231494D01*
X153524030Y-131064363D01*
X153341978Y-130953891D01*
X153304578Y-130931196D01*
X153304574Y-130931194D01*
X153300581Y-130928771D01*
X153059545Y-130827697D01*
X152806217Y-130763359D01*
X152801566Y-130762891D01*
X152801562Y-130762890D01*
X152592271Y-130741816D01*
X152589133Y-130741500D01*
X152433646Y-130741500D01*
X152431321Y-130741673D01*
X152431315Y-130741673D01*
X152244000Y-130755593D01*
X152243996Y-130755594D01*
X152239348Y-130755939D01*
X152234800Y-130756968D01*
X152234794Y-130756969D01*
X152048399Y-130799147D01*
X151984423Y-130813623D01*
X151980071Y-130815315D01*
X151980069Y-130815316D01*
X151745176Y-130906660D01*
X151745173Y-130906661D01*
X151740823Y-130908353D01*
X151513902Y-131038049D01*
X151308643Y-131199862D01*
X151129557Y-131390237D01*
X151044565Y-131512752D01*
X150988659Y-131593340D01*
X150980576Y-131604991D01*
X150978510Y-131609181D01*
X150978508Y-131609184D01*
X150905030Y-131758184D01*
X150864975Y-131839407D01*
X150785293Y-132088335D01*
X150743279Y-132346307D01*
X150739858Y-132607655D01*
X132965026Y-132607655D01*
X135465026Y-130107655D01*
X141239858Y-130107655D01*
X141275104Y-130366638D01*
X141276412Y-130371124D01*
X141276412Y-130371126D01*
X141296098Y-130438664D01*
X141348243Y-130617567D01*
X141457668Y-130854928D01*
X141467313Y-130869639D01*
X141598410Y-131069596D01*
X141598414Y-131069601D01*
X141600976Y-131073509D01*
X141713751Y-131199862D01*
X141754400Y-131245405D01*
X141775018Y-131268506D01*
X141975970Y-131435637D01*
X141979973Y-131438066D01*
X142195422Y-131568804D01*
X142195426Y-131568806D01*
X142199419Y-131571229D01*
X142440455Y-131672303D01*
X142693783Y-131736641D01*
X142698434Y-131737109D01*
X142698438Y-131737110D01*
X142872086Y-131754595D01*
X142910867Y-131758500D01*
X143066354Y-131758500D01*
X143068679Y-131758327D01*
X143068685Y-131758327D01*
X143256000Y-131744407D01*
X143256004Y-131744406D01*
X143260652Y-131744061D01*
X143265200Y-131743032D01*
X143265206Y-131743031D01*
X143451601Y-131700853D01*
X143515577Y-131686377D01*
X143551769Y-131672303D01*
X143754824Y-131593340D01*
X143754827Y-131593339D01*
X143759177Y-131591647D01*
X143813775Y-131560442D01*
X143850440Y-131539486D01*
X143986098Y-131461951D01*
X144191357Y-131300138D01*
X144370443Y-131109763D01*
X144497257Y-130926962D01*
X144516759Y-130898851D01*
X144516761Y-130898848D01*
X144519424Y-130895009D01*
X144541284Y-130850682D01*
X144632960Y-130664781D01*
X144632961Y-130664778D01*
X144635025Y-130660593D01*
X144714707Y-130411665D01*
X144756721Y-130153693D01*
X144758411Y-130024598D01*
X144760081Y-129897022D01*
X144760081Y-129897019D01*
X144760142Y-129892345D01*
X144724896Y-129633362D01*
X144710473Y-129583877D01*
X144688105Y-129507137D01*
X144651757Y-129382433D01*
X144542332Y-129145072D01*
X144475881Y-129043717D01*
X144401590Y-128930404D01*
X144401586Y-128930399D01*
X144399024Y-128926491D01*
X144224982Y-128731494D01*
X144024030Y-128564363D01*
X143860430Y-128465088D01*
X143804578Y-128431196D01*
X143804574Y-128431194D01*
X143800581Y-128428771D01*
X143559545Y-128327697D01*
X143306217Y-128263359D01*
X143301566Y-128262891D01*
X143301562Y-128262890D01*
X143092271Y-128241816D01*
X143089133Y-128241500D01*
X142933646Y-128241500D01*
X142931321Y-128241673D01*
X142931315Y-128241673D01*
X142744000Y-128255593D01*
X142743996Y-128255594D01*
X142739348Y-128255939D01*
X142734800Y-128256968D01*
X142734794Y-128256969D01*
X142580066Y-128291981D01*
X142484423Y-128313623D01*
X142480071Y-128315315D01*
X142480069Y-128315316D01*
X142245176Y-128406660D01*
X142245173Y-128406661D01*
X142240823Y-128408353D01*
X142013902Y-128538049D01*
X141808643Y-128699862D01*
X141629557Y-128890237D01*
X141543868Y-129013757D01*
X141496569Y-129081938D01*
X141480576Y-129104991D01*
X141478510Y-129109181D01*
X141478508Y-129109184D01*
X141422517Y-129222724D01*
X141364975Y-129339407D01*
X141363553Y-129343850D01*
X141363552Y-129343852D01*
X141311035Y-129507917D01*
X141285293Y-129588335D01*
X141243279Y-129846307D01*
X141242559Y-129901284D01*
X141240171Y-130083770D01*
X141239858Y-130107655D01*
X135465026Y-130107655D01*
X135488911Y-130083770D01*
X135503323Y-130071384D01*
X135514918Y-130062851D01*
X135514923Y-130062846D01*
X135520818Y-130058508D01*
X135525557Y-130052930D01*
X135525560Y-130052927D01*
X135555035Y-130018232D01*
X135561965Y-130010716D01*
X135567660Y-130005021D01*
X135572518Y-129998880D01*
X135585281Y-129982749D01*
X135588072Y-129979345D01*
X135630591Y-129929297D01*
X135630592Y-129929295D01*
X135635333Y-129923715D01*
X135638661Y-129917199D01*
X135642028Y-129912150D01*
X135645195Y-129907021D01*
X135649734Y-129901284D01*
X135680655Y-129835125D01*
X135682561Y-129831225D01*
X135686440Y-129823629D01*
X135715769Y-129766192D01*
X135717508Y-129759084D01*
X135719607Y-129753441D01*
X135721524Y-129747678D01*
X135724622Y-129741050D01*
X135739487Y-129669583D01*
X135740457Y-129665299D01*
X135749370Y-129628874D01*
X135757808Y-129594390D01*
X135758500Y-129583236D01*
X135758536Y-129583238D01*
X135758775Y-129579245D01*
X135759149Y-129575053D01*
X135760640Y-129567885D01*
X135758546Y-129490479D01*
X135758500Y-129487072D01*
X135758500Y-109607655D01*
X141239858Y-109607655D01*
X141275104Y-109866638D01*
X141276412Y-109871124D01*
X141276412Y-109871126D01*
X141296098Y-109938664D01*
X141348243Y-110117567D01*
X141457668Y-110354928D01*
X141460231Y-110358837D01*
X141598410Y-110569596D01*
X141598414Y-110569601D01*
X141600976Y-110573509D01*
X141775018Y-110768506D01*
X141975970Y-110935637D01*
X141979973Y-110938066D01*
X142195422Y-111068804D01*
X142195426Y-111068806D01*
X142199419Y-111071229D01*
X142440455Y-111172303D01*
X142693783Y-111236641D01*
X142698434Y-111237109D01*
X142698438Y-111237110D01*
X142891308Y-111256531D01*
X142910867Y-111258500D01*
X143066354Y-111258500D01*
X143068679Y-111258327D01*
X143068685Y-111258327D01*
X143256000Y-111244407D01*
X143256004Y-111244406D01*
X143260652Y-111244061D01*
X143265200Y-111243032D01*
X143265206Y-111243031D01*
X143469969Y-111196697D01*
X143515577Y-111186377D01*
X143551769Y-111172303D01*
X143754824Y-111093340D01*
X143754827Y-111093339D01*
X143759177Y-111091647D01*
X143787401Y-111075516D01*
X143850457Y-111039476D01*
X143986098Y-110961951D01*
X144191357Y-110800138D01*
X144370443Y-110609763D01*
X144519424Y-110395009D01*
X144521492Y-110390816D01*
X144632960Y-110164781D01*
X144632961Y-110164778D01*
X144635025Y-110160593D01*
X144703528Y-109946590D01*
X144713280Y-109916123D01*
X144714707Y-109911665D01*
X144756721Y-109653693D01*
X144759128Y-109469784D01*
X144760081Y-109397022D01*
X144760081Y-109397019D01*
X144760142Y-109392345D01*
X144724896Y-109133362D01*
X144710473Y-109083877D01*
X144680277Y-108980280D01*
X144651757Y-108882433D01*
X144542332Y-108645072D01*
X144492679Y-108569338D01*
X144401590Y-108430404D01*
X144401586Y-108430399D01*
X144399024Y-108426491D01*
X144224982Y-108231494D01*
X144024030Y-108064363D01*
X143976844Y-108035730D01*
X143804578Y-107931196D01*
X143804574Y-107931194D01*
X143800581Y-107928771D01*
X143559545Y-107827697D01*
X143306217Y-107763359D01*
X143301566Y-107762891D01*
X143301562Y-107762890D01*
X143092271Y-107741816D01*
X143089133Y-107741500D01*
X142933646Y-107741500D01*
X142931321Y-107741673D01*
X142931315Y-107741673D01*
X142744000Y-107755593D01*
X142743996Y-107755594D01*
X142739348Y-107755939D01*
X142734800Y-107756968D01*
X142734794Y-107756969D01*
X142598574Y-107787793D01*
X142484423Y-107813623D01*
X142480071Y-107815315D01*
X142480069Y-107815316D01*
X142245176Y-107906660D01*
X142245173Y-107906661D01*
X142240823Y-107908353D01*
X142013902Y-108038049D01*
X141808643Y-108199862D01*
X141629557Y-108390237D01*
X141535589Y-108525691D01*
X141505310Y-108569338D01*
X141480576Y-108604991D01*
X141478510Y-108609181D01*
X141478508Y-108609184D01*
X141404790Y-108758671D01*
X141364975Y-108839407D01*
X141363553Y-108843850D01*
X141363552Y-108843852D01*
X141307679Y-109018401D01*
X141285293Y-109088335D01*
X141243279Y-109346307D01*
X141243218Y-109350980D01*
X141240021Y-109595229D01*
X141239858Y-109607655D01*
X135758500Y-109607655D01*
X135758500Y-106395539D01*
X135778502Y-106327418D01*
X135832158Y-106280925D01*
X135902432Y-106270821D01*
X135967012Y-106300315D01*
X135995020Y-106335030D01*
X136005212Y-106353646D01*
X136081715Y-106455724D01*
X136094276Y-106468285D01*
X136196351Y-106544786D01*
X136211946Y-106553324D01*
X136332394Y-106598478D01*
X136347649Y-106602105D01*
X136398514Y-106607631D01*
X136405328Y-106608000D01*
X141052885Y-106608000D01*
X141068124Y-106603525D01*
X141069329Y-106602135D01*
X141071000Y-106594452D01*
X141071000Y-106589884D01*
X141579000Y-106589884D01*
X141583475Y-106605123D01*
X141584865Y-106606328D01*
X141592548Y-106607999D01*
X146244669Y-106607999D01*
X146251490Y-106607629D01*
X146302352Y-106602105D01*
X146317604Y-106598479D01*
X146438054Y-106553324D01*
X146453649Y-106544786D01*
X146555724Y-106468285D01*
X146568285Y-106455724D01*
X146644786Y-106353649D01*
X146653324Y-106338054D01*
X146698478Y-106217606D01*
X146702105Y-106202351D01*
X146707631Y-106151486D01*
X146708000Y-106144672D01*
X146708000Y-100272115D01*
X146703525Y-100256876D01*
X146702135Y-100255671D01*
X146694452Y-100254000D01*
X141597115Y-100254000D01*
X141581876Y-100258475D01*
X141580671Y-100259865D01*
X141579000Y-100267548D01*
X141579000Y-106589884D01*
X141071000Y-106589884D01*
X141071000Y-100272115D01*
X141066525Y-100256876D01*
X141065135Y-100255671D01*
X141057452Y-100254000D01*
X135960116Y-100254000D01*
X135944877Y-100258475D01*
X135943672Y-100259865D01*
X135942001Y-100267548D01*
X135942001Y-100998773D01*
X135921999Y-101066894D01*
X135868343Y-101113387D01*
X135798069Y-101123491D01*
X135733489Y-101093997D01*
X135701080Y-101045071D01*
X135699656Y-101045723D01*
X135696606Y-101039061D01*
X135694351Y-101032101D01*
X135690555Y-101025846D01*
X135688049Y-101020372D01*
X135685330Y-101014942D01*
X135682833Y-101008063D01*
X135676742Y-100998773D01*
X135642814Y-100947024D01*
X135640467Y-100943305D01*
X135602595Y-100880893D01*
X135595197Y-100872516D01*
X135595224Y-100872492D01*
X135592571Y-100869500D01*
X135589868Y-100866267D01*
X135585856Y-100860148D01*
X135529617Y-100806872D01*
X135527175Y-100804494D01*
X133302190Y-98579509D01*
X133268164Y-98517197D01*
X133273303Y-98446184D01*
X133298971Y-98377715D01*
X133301745Y-98370316D01*
X133306028Y-98330892D01*
X133333270Y-98265330D01*
X133391634Y-98224904D01*
X133431291Y-98218500D01*
X133672930Y-98218500D01*
X133691880Y-98219933D01*
X133706115Y-98222099D01*
X133706119Y-98222099D01*
X133713349Y-98223199D01*
X133720641Y-98222606D01*
X133720644Y-98222606D01*
X133766018Y-98218915D01*
X133776233Y-98218500D01*
X133784293Y-98218500D01*
X133797583Y-98216951D01*
X133812507Y-98215211D01*
X133816882Y-98214778D01*
X133882339Y-98209454D01*
X133882342Y-98209453D01*
X133889637Y-98208860D01*
X133896601Y-98206604D01*
X133902560Y-98205413D01*
X133908415Y-98204029D01*
X133915681Y-98203182D01*
X133984327Y-98178265D01*
X133988455Y-98176848D01*
X134050936Y-98156607D01*
X134050938Y-98156606D01*
X134057899Y-98154351D01*
X134064154Y-98150555D01*
X134069628Y-98148049D01*
X134075058Y-98145330D01*
X134081937Y-98142833D01*
X134142976Y-98102814D01*
X134146680Y-98100477D01*
X134209107Y-98062595D01*
X134217484Y-98055197D01*
X134217508Y-98055224D01*
X134220500Y-98052571D01*
X134223733Y-98049868D01*
X134229852Y-98045856D01*
X134283128Y-97989617D01*
X134285506Y-97987175D01*
X135688911Y-96583770D01*
X135703323Y-96571384D01*
X135714922Y-96562848D01*
X135714927Y-96562843D01*
X135720818Y-96558508D01*
X135725556Y-96552931D01*
X135730065Y-96548726D01*
X135793525Y-96516894D01*
X135864122Y-96524424D01*
X135919439Y-96568927D01*
X135942000Y-96640873D01*
X135942000Y-99727885D01*
X135946475Y-99743124D01*
X135947865Y-99744329D01*
X135955548Y-99746000D01*
X141052885Y-99746000D01*
X141068124Y-99741525D01*
X141069329Y-99740135D01*
X141071000Y-99732452D01*
X141071000Y-93392001D01*
X141071104Y-93392001D01*
X141069890Y-93357999D01*
X141578896Y-93357999D01*
X141580369Y-93399254D01*
X141579000Y-93405547D01*
X141579000Y-99727885D01*
X141583475Y-99743124D01*
X141584865Y-99744329D01*
X141592548Y-99746000D01*
X146689884Y-99746000D01*
X146705123Y-99741525D01*
X146706328Y-99740135D01*
X146707999Y-99732452D01*
X146707999Y-93855331D01*
X146707629Y-93848510D01*
X146702105Y-93797648D01*
X146698479Y-93782396D01*
X146653324Y-93661946D01*
X146644786Y-93646351D01*
X146568285Y-93544276D01*
X146555724Y-93531715D01*
X146481151Y-93475826D01*
X146438636Y-93418967D01*
X146433610Y-93348149D01*
X146467670Y-93285855D01*
X146481151Y-93274174D01*
X146555724Y-93218285D01*
X146568285Y-93205724D01*
X146644786Y-93103649D01*
X146653324Y-93088054D01*
X146698478Y-92967606D01*
X146702105Y-92952351D01*
X146707631Y-92901486D01*
X146708000Y-92894672D01*
X146708000Y-87022115D01*
X146703525Y-87006876D01*
X146702135Y-87005671D01*
X146694452Y-87004000D01*
X141597115Y-87004000D01*
X141581876Y-87008475D01*
X141580671Y-87009865D01*
X141579000Y-87017548D01*
X141579000Y-93357999D01*
X141578896Y-93357999D01*
X141069890Y-93357999D01*
X141069631Y-93350746D01*
X141071000Y-93344453D01*
X141071000Y-80160116D01*
X141066525Y-80144877D01*
X141065135Y-80143672D01*
X141057452Y-80142001D01*
X136405331Y-80142001D01*
X136398510Y-80142371D01*
X136347648Y-80147895D01*
X136332396Y-80151521D01*
X136211946Y-80196676D01*
X136196351Y-80205214D01*
X136094276Y-80281715D01*
X136081715Y-80294276D01*
X136005214Y-80396351D01*
X135996676Y-80411946D01*
X135951522Y-80532394D01*
X135947895Y-80547649D01*
X135942369Y-80598514D01*
X135942000Y-80605328D01*
X135942000Y-84565129D01*
X135921998Y-84633250D01*
X135868342Y-84679743D01*
X135798068Y-84689847D01*
X135733488Y-84660353D01*
X135726905Y-84654224D01*
X134793770Y-83721089D01*
X134781384Y-83706677D01*
X134772851Y-83695082D01*
X134772846Y-83695077D01*
X134768508Y-83689182D01*
X134762930Y-83684443D01*
X134762927Y-83684440D01*
X134728232Y-83654965D01*
X134720716Y-83648035D01*
X134715021Y-83642340D01*
X134708880Y-83637482D01*
X134692749Y-83624719D01*
X134689345Y-83621928D01*
X134639297Y-83579409D01*
X134639295Y-83579408D01*
X134633715Y-83574667D01*
X134627199Y-83571339D01*
X134622150Y-83567972D01*
X134617021Y-83564805D01*
X134611284Y-83560266D01*
X134545125Y-83529345D01*
X134541225Y-83527439D01*
X134476192Y-83494231D01*
X134469084Y-83492492D01*
X134463441Y-83490393D01*
X134457678Y-83488476D01*
X134451050Y-83485378D01*
X134439863Y-83483051D01*
X134379588Y-83470514D01*
X134375299Y-83469543D01*
X134304390Y-83452192D01*
X134298788Y-83451844D01*
X134298785Y-83451844D01*
X134293236Y-83451500D01*
X134293238Y-83451464D01*
X134289245Y-83451225D01*
X134285053Y-83450851D01*
X134277885Y-83449360D01*
X134211675Y-83451151D01*
X134200479Y-83451454D01*
X134197072Y-83451500D01*
X133431291Y-83451500D01*
X133363170Y-83431498D01*
X133316677Y-83377842D01*
X133306028Y-83339108D01*
X133304147Y-83321797D01*
X133301745Y-83299684D01*
X133250615Y-83163295D01*
X133163261Y-83046739D01*
X133046705Y-82959385D01*
X132910316Y-82908255D01*
X132848134Y-82901500D01*
X131934500Y-82901500D01*
X131866379Y-82881498D01*
X131819886Y-82827842D01*
X131808500Y-82775500D01*
X131808500Y-80516371D01*
X131817399Y-80486062D01*
X133478493Y-80486062D01*
X133487789Y-80498077D01*
X133538994Y-80533931D01*
X133548489Y-80539414D01*
X133745947Y-80631490D01*
X133756239Y-80635236D01*
X133966688Y-80691625D01*
X133977481Y-80693528D01*
X134194525Y-80712517D01*
X134205475Y-80712517D01*
X134422519Y-80693528D01*
X134433312Y-80691625D01*
X134643761Y-80635236D01*
X134654053Y-80631490D01*
X134851511Y-80539414D01*
X134861006Y-80533931D01*
X134913048Y-80497491D01*
X134921424Y-80487012D01*
X134914356Y-80473566D01*
X134212812Y-79772022D01*
X134198868Y-79764408D01*
X134197035Y-79764539D01*
X134190420Y-79768790D01*
X133484923Y-80474287D01*
X133478493Y-80486062D01*
X131817399Y-80486062D01*
X131828502Y-80448250D01*
X131845405Y-80427276D01*
X132697209Y-79575472D01*
X132759521Y-79541446D01*
X132830336Y-79546511D01*
X132887172Y-79589058D01*
X132908011Y-79631956D01*
X132964764Y-79843761D01*
X132968510Y-79854053D01*
X133060586Y-80051511D01*
X133066069Y-80061006D01*
X133102509Y-80113048D01*
X133112988Y-80121424D01*
X133126434Y-80114356D01*
X134110905Y-79129885D01*
X134173217Y-79095859D01*
X134244032Y-79100924D01*
X134289095Y-79129885D01*
X135274287Y-80115077D01*
X135286062Y-80121507D01*
X135298077Y-80112211D01*
X135333931Y-80061006D01*
X135339414Y-80051511D01*
X135431490Y-79854053D01*
X135435236Y-79843761D01*
X135491625Y-79633312D01*
X135493528Y-79622519D01*
X135512517Y-79405475D01*
X135512517Y-79394525D01*
X135493528Y-79177481D01*
X135491625Y-79166688D01*
X135435236Y-78956239D01*
X135431490Y-78945947D01*
X135381037Y-78837750D01*
X135370376Y-78767558D01*
X135399356Y-78702745D01*
X135458776Y-78663889D01*
X135495232Y-78658500D01*
X138933629Y-78658500D01*
X139001750Y-78678502D01*
X139022724Y-78695405D01*
X139816230Y-79488911D01*
X139828616Y-79503323D01*
X139837149Y-79514918D01*
X139837154Y-79514923D01*
X139841492Y-79520818D01*
X139847070Y-79525557D01*
X139847073Y-79525560D01*
X139881768Y-79555035D01*
X139889284Y-79561965D01*
X139894979Y-79567660D01*
X139897861Y-79569940D01*
X139917251Y-79585281D01*
X139920655Y-79588072D01*
X139961202Y-79622519D01*
X139976285Y-79635333D01*
X139982801Y-79638661D01*
X139987850Y-79642028D01*
X139992979Y-79645195D01*
X139998716Y-79649734D01*
X140064875Y-79680655D01*
X140068769Y-79682558D01*
X140133808Y-79715769D01*
X140140916Y-79717508D01*
X140146559Y-79719607D01*
X140152322Y-79721524D01*
X140158950Y-79724622D01*
X140166112Y-79726112D01*
X140166113Y-79726112D01*
X140230412Y-79739486D01*
X140234696Y-79740456D01*
X140305610Y-79757808D01*
X140311212Y-79758156D01*
X140311215Y-79758156D01*
X140316764Y-79758500D01*
X140316762Y-79758536D01*
X140320755Y-79758775D01*
X140324947Y-79759149D01*
X140332115Y-79760640D01*
X140409520Y-79758546D01*
X140412928Y-79758500D01*
X141432930Y-79758500D01*
X141451880Y-79759933D01*
X141466115Y-79762099D01*
X141466119Y-79762099D01*
X141473349Y-79763199D01*
X141480641Y-79762606D01*
X141480644Y-79762606D01*
X141526018Y-79758915D01*
X141536233Y-79758500D01*
X141544293Y-79758500D01*
X141561680Y-79756473D01*
X141572507Y-79755211D01*
X141576882Y-79754778D01*
X141642339Y-79749454D01*
X141642342Y-79749453D01*
X141649637Y-79748860D01*
X141656601Y-79746604D01*
X141662560Y-79745413D01*
X141668415Y-79744029D01*
X141675681Y-79743182D01*
X141744327Y-79718265D01*
X141748455Y-79716848D01*
X141810936Y-79696607D01*
X141810938Y-79696606D01*
X141817899Y-79694351D01*
X141824154Y-79690555D01*
X141829628Y-79688049D01*
X141835058Y-79685330D01*
X141841937Y-79682833D01*
X141848058Y-79678820D01*
X141902976Y-79642814D01*
X141906680Y-79640477D01*
X141969107Y-79602595D01*
X141977484Y-79595197D01*
X141977508Y-79595224D01*
X141980500Y-79592571D01*
X141983733Y-79589868D01*
X141989852Y-79585856D01*
X142043128Y-79529617D01*
X142045506Y-79527175D01*
X143151441Y-78421240D01*
X143213753Y-78387214D01*
X143265657Y-78386865D01*
X143298597Y-78393567D01*
X143303772Y-78393757D01*
X143303774Y-78393757D01*
X143516673Y-78401564D01*
X143516677Y-78401564D01*
X143521837Y-78401753D01*
X143526957Y-78401097D01*
X143526959Y-78401097D01*
X143738288Y-78374025D01*
X143738289Y-78374025D01*
X143743416Y-78373368D01*
X143948955Y-78311703D01*
X143954451Y-78310054D01*
X144025447Y-78309638D01*
X144085397Y-78347670D01*
X144108027Y-78388962D01*
X144108622Y-78388705D01*
X144111384Y-78395087D01*
X144111654Y-78395581D01*
X144113982Y-78403593D01*
X144118015Y-78410412D01*
X144118017Y-78410417D01*
X144124293Y-78421028D01*
X144132988Y-78438776D01*
X144140448Y-78457617D01*
X144145110Y-78464033D01*
X144145110Y-78464034D01*
X144166436Y-78493387D01*
X144172952Y-78503307D01*
X144195458Y-78541362D01*
X144209779Y-78555683D01*
X144222619Y-78570716D01*
X144234528Y-78587107D01*
X144240634Y-78592158D01*
X144268605Y-78615298D01*
X144277384Y-78623288D01*
X145581001Y-79926905D01*
X145615027Y-79989217D01*
X145609962Y-80060032D01*
X145567415Y-80116868D01*
X145500895Y-80141679D01*
X145491906Y-80142000D01*
X141597115Y-80142000D01*
X141581876Y-80146475D01*
X141580671Y-80147865D01*
X141579000Y-80155548D01*
X141579000Y-86477885D01*
X141583475Y-86493124D01*
X141584865Y-86494329D01*
X141592548Y-86496000D01*
X146689884Y-86496000D01*
X146705123Y-86491525D01*
X146706328Y-86490135D01*
X146707999Y-86482452D01*
X146707999Y-81358093D01*
X146728001Y-81289972D01*
X146781657Y-81243479D01*
X146851931Y-81233375D01*
X146916511Y-81262869D01*
X146923094Y-81268998D01*
X147986343Y-82332247D01*
X147993887Y-82340537D01*
X147998000Y-82347018D01*
X148003777Y-82352443D01*
X148047667Y-82393658D01*
X148050509Y-82396413D01*
X148070230Y-82416134D01*
X148073425Y-82418612D01*
X148082447Y-82426318D01*
X148114679Y-82456586D01*
X148121628Y-82460406D01*
X148132432Y-82466346D01*
X148148956Y-82477199D01*
X148164959Y-82489613D01*
X148205543Y-82507176D01*
X148216173Y-82512383D01*
X148254940Y-82533695D01*
X148262617Y-82535666D01*
X148262622Y-82535668D01*
X148274558Y-82538732D01*
X148293266Y-82545137D01*
X148311855Y-82553181D01*
X148319680Y-82554420D01*
X148319682Y-82554421D01*
X148355519Y-82560097D01*
X148367140Y-82562504D01*
X148402289Y-82571528D01*
X148409970Y-82573500D01*
X148430231Y-82573500D01*
X148449940Y-82575051D01*
X148469943Y-82578219D01*
X148477835Y-82577473D01*
X148483062Y-82576979D01*
X148513954Y-82574059D01*
X148525811Y-82573500D01*
X149724274Y-82573500D01*
X149792395Y-82593502D01*
X149831707Y-82633665D01*
X149899987Y-82745088D01*
X150046250Y-82913938D01*
X150218126Y-83056632D01*
X150287139Y-83096960D01*
X150291445Y-83099476D01*
X150340169Y-83151114D01*
X150353240Y-83220897D01*
X150326509Y-83286669D01*
X150286055Y-83320027D01*
X150273607Y-83326507D01*
X150269474Y-83329610D01*
X150269471Y-83329612D01*
X150099100Y-83457530D01*
X150094965Y-83460635D01*
X149940629Y-83622138D01*
X149814743Y-83806680D01*
X149720688Y-84009305D01*
X149660989Y-84224570D01*
X149637251Y-84446695D01*
X149637548Y-84451848D01*
X149637548Y-84451851D01*
X149639087Y-84478537D01*
X149650110Y-84669715D01*
X149651247Y-84674761D01*
X149651248Y-84674767D01*
X149661203Y-84718938D01*
X149699222Y-84887639D01*
X149783266Y-85094616D01*
X149828780Y-85168888D01*
X149886998Y-85263891D01*
X149899987Y-85285088D01*
X150046250Y-85453938D01*
X150218126Y-85596632D01*
X150288595Y-85637811D01*
X150291445Y-85639476D01*
X150340169Y-85691114D01*
X150353240Y-85760897D01*
X150326509Y-85826669D01*
X150286055Y-85860027D01*
X150273607Y-85866507D01*
X150269474Y-85869610D01*
X150269471Y-85869612D01*
X150245247Y-85887800D01*
X150094965Y-86000635D01*
X149940629Y-86162138D01*
X149814743Y-86346680D01*
X149720688Y-86549305D01*
X149660989Y-86764570D01*
X149637251Y-86986695D01*
X149637548Y-86991848D01*
X149637548Y-86991851D01*
X149643011Y-87086590D01*
X149650110Y-87209715D01*
X149651247Y-87214761D01*
X149651248Y-87214767D01*
X149671119Y-87302939D01*
X149699222Y-87427639D01*
X149783266Y-87634616D01*
X149834019Y-87717438D01*
X149897291Y-87820688D01*
X149899987Y-87825088D01*
X150046250Y-87993938D01*
X150218126Y-88136632D01*
X150288595Y-88177811D01*
X150291445Y-88179476D01*
X150340169Y-88231114D01*
X150353240Y-88300897D01*
X150326509Y-88366669D01*
X150286055Y-88400027D01*
X150273607Y-88406507D01*
X150269474Y-88409610D01*
X150269471Y-88409612D01*
X150226513Y-88441866D01*
X150094965Y-88540635D01*
X149940629Y-88702138D01*
X149814743Y-88886680D01*
X149720688Y-89089305D01*
X149660989Y-89304570D01*
X149637251Y-89526695D01*
X149637548Y-89531848D01*
X149637548Y-89531851D01*
X149643011Y-89626590D01*
X149650110Y-89749715D01*
X149651247Y-89754761D01*
X149651248Y-89754767D01*
X149660072Y-89793919D01*
X149699222Y-89967639D01*
X149739148Y-90065965D01*
X149764631Y-90128722D01*
X149783266Y-90174616D01*
X149831143Y-90252744D01*
X149897291Y-90360688D01*
X149899987Y-90365088D01*
X150046250Y-90533938D01*
X150218126Y-90676632D01*
X150255624Y-90698544D01*
X150291445Y-90719476D01*
X150340169Y-90771114D01*
X150353240Y-90840897D01*
X150326509Y-90906669D01*
X150286055Y-90940027D01*
X150273607Y-90946507D01*
X150269474Y-90949610D01*
X150269471Y-90949612D01*
X150099480Y-91077245D01*
X150094965Y-91080635D01*
X150091393Y-91084373D01*
X149957932Y-91224032D01*
X149940629Y-91242138D01*
X149814743Y-91426680D01*
X149720688Y-91629305D01*
X149660989Y-91844570D01*
X149637251Y-92066695D01*
X149637548Y-92071848D01*
X149637548Y-92071851D01*
X149645702Y-92213261D01*
X149650110Y-92289715D01*
X149651247Y-92294761D01*
X149651248Y-92294767D01*
X149666402Y-92362009D01*
X149699222Y-92507639D01*
X149737461Y-92601811D01*
X149771942Y-92686727D01*
X149783266Y-92714616D01*
X149834019Y-92797438D01*
X149897291Y-92900688D01*
X149899987Y-92905088D01*
X150046250Y-93073938D01*
X150218126Y-93216632D01*
X150264446Y-93243699D01*
X150291445Y-93259476D01*
X150340169Y-93311114D01*
X150353240Y-93380897D01*
X150326509Y-93446669D01*
X150286055Y-93480027D01*
X150273607Y-93486507D01*
X150269474Y-93489610D01*
X150269471Y-93489612D01*
X150099100Y-93617530D01*
X150094965Y-93620635D01*
X149940629Y-93782138D01*
X149814743Y-93966680D01*
X149720688Y-94169305D01*
X149660989Y-94384570D01*
X149637251Y-94606695D01*
X149637548Y-94611848D01*
X149637548Y-94611851D01*
X149644649Y-94735002D01*
X149650110Y-94829715D01*
X149651247Y-94834761D01*
X149651248Y-94834767D01*
X149662884Y-94886396D01*
X149699222Y-95047639D01*
X149783266Y-95254616D01*
X149834019Y-95337438D01*
X149897291Y-95440688D01*
X149899987Y-95445088D01*
X150046250Y-95613938D01*
X150218126Y-95756632D01*
X150240284Y-95769580D01*
X150291445Y-95799476D01*
X150340169Y-95851114D01*
X150353240Y-95920897D01*
X150326509Y-95986669D01*
X150286055Y-96020027D01*
X150273607Y-96026507D01*
X150269474Y-96029610D01*
X150269471Y-96029612D01*
X150099100Y-96157530D01*
X150094965Y-96160635D01*
X149940629Y-96322138D01*
X149814743Y-96506680D01*
X149778959Y-96583770D01*
X149751532Y-96642858D01*
X149720688Y-96709305D01*
X149660989Y-96924570D01*
X149637251Y-97146695D01*
X149637548Y-97151848D01*
X149637548Y-97151851D01*
X149645578Y-97291114D01*
X149650110Y-97369715D01*
X149651247Y-97374761D01*
X149651248Y-97374767D01*
X149662945Y-97426669D01*
X149699222Y-97587639D01*
X149783266Y-97794616D01*
X149834019Y-97877438D01*
X149897291Y-97980688D01*
X149899987Y-97985088D01*
X150046250Y-98153938D01*
X150218126Y-98296632D01*
X150276755Y-98330892D01*
X150291445Y-98339476D01*
X150340169Y-98391114D01*
X150353240Y-98460897D01*
X150326509Y-98526669D01*
X150286055Y-98560027D01*
X150273607Y-98566507D01*
X150269474Y-98569610D01*
X150269471Y-98569612D01*
X150099100Y-98697530D01*
X150094965Y-98700635D01*
X149940629Y-98862138D01*
X149814743Y-99046680D01*
X149720688Y-99249305D01*
X149660989Y-99464570D01*
X149637251Y-99686695D01*
X149637548Y-99691848D01*
X149637548Y-99691851D01*
X149644260Y-99808260D01*
X149650110Y-99909715D01*
X149651247Y-99914761D01*
X149651248Y-99914767D01*
X149673392Y-100013023D01*
X149699222Y-100127639D01*
X149783266Y-100334616D01*
X149834019Y-100417438D01*
X149897291Y-100520688D01*
X149899987Y-100525088D01*
X150046250Y-100693938D01*
X150218126Y-100836632D01*
X150240284Y-100849580D01*
X150291445Y-100879476D01*
X150340169Y-100931114D01*
X150353240Y-101000897D01*
X150326509Y-101066669D01*
X150286055Y-101100027D01*
X150273607Y-101106507D01*
X150269474Y-101109610D01*
X150269471Y-101109612D01*
X150099100Y-101237530D01*
X150094965Y-101240635D01*
X149940629Y-101402138D01*
X149814743Y-101586680D01*
X149720688Y-101789305D01*
X149660989Y-102004570D01*
X149637251Y-102226695D01*
X149637548Y-102231848D01*
X149637548Y-102231851D01*
X149644371Y-102350181D01*
X149650110Y-102449715D01*
X149651247Y-102454761D01*
X149651248Y-102454767D01*
X149664561Y-102513838D01*
X149699222Y-102667639D01*
X149783266Y-102874616D01*
X149834019Y-102957438D01*
X149897291Y-103060688D01*
X149899987Y-103065088D01*
X150046250Y-103233938D01*
X150218126Y-103376632D01*
X150243623Y-103391531D01*
X150291445Y-103419476D01*
X150340169Y-103471114D01*
X150353240Y-103540897D01*
X150326509Y-103606669D01*
X150286055Y-103640027D01*
X150273607Y-103646507D01*
X150269474Y-103649610D01*
X150269471Y-103649612D01*
X150099100Y-103777530D01*
X150094965Y-103780635D01*
X149940629Y-103942138D01*
X149814743Y-104126680D01*
X149799003Y-104160590D01*
X149731884Y-104305186D01*
X149720688Y-104329305D01*
X149660989Y-104544570D01*
X149660440Y-104549707D01*
X149659723Y-104556417D01*
X149637251Y-104766695D01*
X149637548Y-104771848D01*
X149637548Y-104771851D01*
X149644345Y-104889730D01*
X149650110Y-104989715D01*
X149651247Y-104994761D01*
X149651248Y-104994767D01*
X149664561Y-105053838D01*
X149699222Y-105207639D01*
X149783266Y-105414616D01*
X149834019Y-105497438D01*
X149897291Y-105600688D01*
X149899987Y-105605088D01*
X150046250Y-105773938D01*
X150218126Y-105916632D01*
X150288595Y-105957811D01*
X150291445Y-105959476D01*
X150340169Y-106011114D01*
X150353240Y-106080897D01*
X150326509Y-106146669D01*
X150286055Y-106180027D01*
X150273607Y-106186507D01*
X150269474Y-106189610D01*
X150269471Y-106189612D01*
X150099100Y-106317530D01*
X150094965Y-106320635D01*
X149940629Y-106482138D01*
X149814743Y-106666680D01*
X149720688Y-106869305D01*
X149660989Y-107084570D01*
X149637251Y-107306695D01*
X149637548Y-107311848D01*
X149637548Y-107311851D01*
X149644371Y-107430181D01*
X149650110Y-107529715D01*
X149651247Y-107534761D01*
X149651248Y-107534767D01*
X149664561Y-107593838D01*
X149699222Y-107747639D01*
X149737461Y-107841811D01*
X149772772Y-107928771D01*
X149783266Y-107954616D01*
X149832973Y-108035730D01*
X149897291Y-108140688D01*
X149899987Y-108145088D01*
X150046250Y-108313938D01*
X150218126Y-108456632D01*
X150288595Y-108497811D01*
X150291445Y-108499476D01*
X150340169Y-108551114D01*
X150353240Y-108620897D01*
X150326509Y-108686669D01*
X150286055Y-108720027D01*
X150273607Y-108726507D01*
X150269474Y-108729610D01*
X150269471Y-108729612D01*
X150099100Y-108857530D01*
X150094965Y-108860635D01*
X149940629Y-109022138D01*
X149937720Y-109026403D01*
X149937714Y-109026411D01*
X149895472Y-109088335D01*
X149814743Y-109206680D01*
X149799003Y-109240590D01*
X149726390Y-109397022D01*
X149720688Y-109409305D01*
X149660989Y-109624570D01*
X149637251Y-109846695D01*
X149637548Y-109851848D01*
X149637548Y-109851851D01*
X149644371Y-109970181D01*
X149650110Y-110069715D01*
X149651247Y-110074761D01*
X149651248Y-110074767D01*
X149671054Y-110162649D01*
X149699222Y-110287639D01*
X149783266Y-110494616D01*
X149829214Y-110569596D01*
X149897291Y-110680688D01*
X149899987Y-110685088D01*
X150046250Y-110853938D01*
X150218126Y-110996632D01*
X150288595Y-111037811D01*
X150291445Y-111039476D01*
X150340169Y-111091114D01*
X150353240Y-111160897D01*
X150326509Y-111226669D01*
X150286055Y-111260027D01*
X150273607Y-111266507D01*
X150269474Y-111269610D01*
X150269471Y-111269612D01*
X150167376Y-111346267D01*
X150094965Y-111400635D01*
X150091393Y-111404373D01*
X149964477Y-111537183D01*
X149940629Y-111562138D01*
X149814743Y-111746680D01*
X149720688Y-111949305D01*
X149660989Y-112164570D01*
X149637251Y-112386695D01*
X149637548Y-112391848D01*
X149637548Y-112391851D01*
X149646818Y-112552617D01*
X149650110Y-112609715D01*
X149651247Y-112614761D01*
X149651248Y-112614767D01*
X149664561Y-112673838D01*
X149699222Y-112827639D01*
X149783266Y-113034616D01*
X149834019Y-113117438D01*
X149897291Y-113220688D01*
X149899987Y-113225088D01*
X150046250Y-113393938D01*
X150218126Y-113536632D01*
X150265897Y-113564547D01*
X150291445Y-113579476D01*
X150340169Y-113631114D01*
X150353240Y-113700897D01*
X150326509Y-113766669D01*
X150286055Y-113800027D01*
X150273607Y-113806507D01*
X150269474Y-113809610D01*
X150269471Y-113809612D01*
X150099100Y-113937530D01*
X150094965Y-113940635D01*
X149940629Y-114102138D01*
X149814743Y-114286680D01*
X149720688Y-114489305D01*
X149660989Y-114704570D01*
X149637251Y-114926695D01*
X149637548Y-114931848D01*
X149637548Y-114931851D01*
X149646818Y-115092617D01*
X149650110Y-115149715D01*
X149651247Y-115154761D01*
X149651248Y-115154767D01*
X149664561Y-115213838D01*
X149699222Y-115367639D01*
X149783266Y-115574616D01*
X149834019Y-115657438D01*
X149897291Y-115760688D01*
X149899987Y-115765088D01*
X150046250Y-115933938D01*
X150218126Y-116076632D01*
X150265897Y-116104547D01*
X150291445Y-116119476D01*
X150340169Y-116171114D01*
X150353240Y-116240897D01*
X150326509Y-116306669D01*
X150286055Y-116340027D01*
X150273607Y-116346507D01*
X150269474Y-116349610D01*
X150269471Y-116349612D01*
X150099100Y-116477530D01*
X150094965Y-116480635D01*
X149940629Y-116642138D01*
X149814743Y-116826680D01*
X149720688Y-117029305D01*
X149660989Y-117244570D01*
X149637251Y-117466695D01*
X149637548Y-117471848D01*
X149637548Y-117471851D01*
X149646818Y-117632617D01*
X149650110Y-117689715D01*
X149651247Y-117694761D01*
X149651248Y-117694767D01*
X149664561Y-117753838D01*
X149699222Y-117907639D01*
X149783266Y-118114616D01*
X149834019Y-118197438D01*
X149897291Y-118300688D01*
X149899987Y-118305088D01*
X150046250Y-118473938D01*
X150218126Y-118616632D01*
X150265897Y-118644547D01*
X150291445Y-118659476D01*
X150340169Y-118711114D01*
X150353240Y-118780897D01*
X150326509Y-118846669D01*
X150286055Y-118880027D01*
X150273607Y-118886507D01*
X150269474Y-118889610D01*
X150269471Y-118889612D01*
X150099100Y-119017530D01*
X150094965Y-119020635D01*
X149940629Y-119182138D01*
X149814743Y-119366680D01*
X149720688Y-119569305D01*
X149660989Y-119784570D01*
X149637251Y-120006695D01*
X149637548Y-120011848D01*
X149637548Y-120011851D01*
X149646818Y-120172617D01*
X149650110Y-120229715D01*
X149651247Y-120234761D01*
X149651248Y-120234767D01*
X149664561Y-120293838D01*
X149699222Y-120447639D01*
X149783266Y-120654616D01*
X149834019Y-120737438D01*
X149897291Y-120840688D01*
X149899987Y-120845088D01*
X150046250Y-121013938D01*
X150218126Y-121156632D01*
X150265897Y-121184547D01*
X150291445Y-121199476D01*
X150340169Y-121251114D01*
X150353240Y-121320897D01*
X150326509Y-121386669D01*
X150286055Y-121420027D01*
X150273607Y-121426507D01*
X150269474Y-121429610D01*
X150269471Y-121429612D01*
X150099100Y-121557530D01*
X150094965Y-121560635D01*
X149940629Y-121722138D01*
X149814743Y-121906680D01*
X149720688Y-122109305D01*
X149660989Y-122324570D01*
X149637251Y-122546695D01*
X149637548Y-122551848D01*
X149637548Y-122551851D01*
X149646818Y-122712617D01*
X149650110Y-122769715D01*
X149651247Y-122774761D01*
X149651248Y-122774767D01*
X149664561Y-122833838D01*
X149699222Y-122987639D01*
X149783266Y-123194616D01*
X149826481Y-123265137D01*
X149897291Y-123380688D01*
X149899987Y-123385088D01*
X150046250Y-123553938D01*
X150218126Y-123696632D01*
X150265897Y-123724547D01*
X150291445Y-123739476D01*
X150340169Y-123791114D01*
X150353240Y-123860897D01*
X150326509Y-123926669D01*
X150286055Y-123960027D01*
X150273607Y-123966507D01*
X150269474Y-123969610D01*
X150269471Y-123969612D01*
X150109550Y-124089684D01*
X150094965Y-124100635D01*
X149940629Y-124262138D01*
X149814743Y-124446680D01*
X149720688Y-124649305D01*
X149660989Y-124864570D01*
X149637251Y-125086695D01*
X149637548Y-125091848D01*
X149637548Y-125091851D01*
X149646818Y-125252617D01*
X149650110Y-125309715D01*
X149651247Y-125314761D01*
X149651248Y-125314767D01*
X149664561Y-125373838D01*
X149699222Y-125527639D01*
X149783266Y-125734616D01*
X149834019Y-125817438D01*
X149897291Y-125920688D01*
X149899987Y-125925088D01*
X150046250Y-126093938D01*
X150218126Y-126236632D01*
X150265897Y-126264547D01*
X150291445Y-126279476D01*
X150340169Y-126331114D01*
X150353240Y-126400897D01*
X150326509Y-126466669D01*
X150286055Y-126500027D01*
X150273607Y-126506507D01*
X150269474Y-126509610D01*
X150269471Y-126509612D01*
X150099100Y-126637530D01*
X150094965Y-126640635D01*
X149940629Y-126802138D01*
X149814743Y-126986680D01*
X149799003Y-127020590D01*
X149738067Y-127151866D01*
X149720688Y-127189305D01*
X149660989Y-127404570D01*
X149637251Y-127626695D01*
X149637548Y-127631848D01*
X149637548Y-127631851D01*
X149646818Y-127792617D01*
X149650110Y-127849715D01*
X149651247Y-127854761D01*
X149651248Y-127854767D01*
X149665423Y-127917665D01*
X149699222Y-128067639D01*
X149756504Y-128208709D01*
X149778505Y-128262890D01*
X149783266Y-128274616D01*
X149827036Y-128346043D01*
X149897291Y-128460688D01*
X149899987Y-128465088D01*
X150046250Y-128633938D01*
X150218126Y-128776632D01*
X150411000Y-128889338D01*
X150415825Y-128891180D01*
X150415826Y-128891181D01*
X150446617Y-128902939D01*
X150619692Y-128969030D01*
X150624760Y-128970061D01*
X150624763Y-128970062D01*
X150682207Y-128981749D01*
X150838597Y-129013567D01*
X150843772Y-129013757D01*
X150843774Y-129013757D01*
X151056673Y-129021564D01*
X151056677Y-129021564D01*
X151061837Y-129021753D01*
X151066957Y-129021097D01*
X151066959Y-129021097D01*
X151278288Y-128994025D01*
X151278289Y-128994025D01*
X151283416Y-128993368D01*
X151322144Y-128981749D01*
X151492429Y-128930661D01*
X151492434Y-128930659D01*
X151497384Y-128929174D01*
X151697994Y-128830896D01*
X151879860Y-128701173D01*
X151891165Y-128689908D01*
X152034435Y-128547137D01*
X152038096Y-128543489D01*
X152043672Y-128535730D01*
X152168453Y-128362077D01*
X152169776Y-128363028D01*
X152216645Y-128319857D01*
X152286580Y-128307625D01*
X152352026Y-128335144D01*
X152379875Y-128366994D01*
X152439987Y-128465088D01*
X152586250Y-128633938D01*
X152758126Y-128776632D01*
X152951000Y-128889338D01*
X152955825Y-128891180D01*
X152955826Y-128891181D01*
X152986617Y-128902939D01*
X153159692Y-128969030D01*
X153164760Y-128970061D01*
X153164763Y-128970062D01*
X153222207Y-128981749D01*
X153378597Y-129013567D01*
X153383772Y-129013757D01*
X153383774Y-129013757D01*
X153596673Y-129021564D01*
X153596677Y-129021564D01*
X153601837Y-129021753D01*
X153606957Y-129021097D01*
X153606959Y-129021097D01*
X153818288Y-128994025D01*
X153818289Y-128994025D01*
X153823416Y-128993368D01*
X153862144Y-128981749D01*
X154032429Y-128930661D01*
X154032434Y-128930659D01*
X154037384Y-128929174D01*
X154237994Y-128830896D01*
X154419860Y-128701173D01*
X154431165Y-128689908D01*
X154574435Y-128547137D01*
X154578096Y-128543489D01*
X154583672Y-128535730D01*
X154705435Y-128366277D01*
X154708453Y-128362077D01*
X154713441Y-128351986D01*
X154805136Y-128166453D01*
X154805137Y-128166451D01*
X154807430Y-128161811D01*
X154848515Y-128026586D01*
X154870865Y-127953023D01*
X154870865Y-127953021D01*
X154872370Y-127948069D01*
X154901529Y-127726590D01*
X154903156Y-127660000D01*
X154884852Y-127437361D01*
X154830431Y-127220702D01*
X154741354Y-127015840D01*
X154648591Y-126872450D01*
X154622822Y-126832617D01*
X154622820Y-126832614D01*
X154620014Y-126828277D01*
X154469670Y-126663051D01*
X154465619Y-126659852D01*
X154465615Y-126659848D01*
X154298414Y-126527800D01*
X154298410Y-126527798D01*
X154294359Y-126524598D01*
X154253053Y-126501796D01*
X154203084Y-126451364D01*
X154188312Y-126381921D01*
X154213428Y-126315516D01*
X154240780Y-126288909D01*
X154309348Y-126240000D01*
X154419860Y-126161173D01*
X154431165Y-126149908D01*
X154574435Y-126007137D01*
X154578096Y-126003489D01*
X154620643Y-125944279D01*
X154705435Y-125826277D01*
X154708453Y-125822077D01*
X154727009Y-125784533D01*
X154805136Y-125626453D01*
X154805137Y-125626451D01*
X154807430Y-125621811D01*
X154860197Y-125448134D01*
X154870865Y-125413023D01*
X154870865Y-125413021D01*
X154872370Y-125408069D01*
X154901529Y-125186590D01*
X154903156Y-125120000D01*
X154884852Y-124897361D01*
X154830431Y-124680702D01*
X154741354Y-124475840D01*
X154620014Y-124288277D01*
X154469670Y-124123051D01*
X154465619Y-124119852D01*
X154465615Y-124119848D01*
X154298414Y-123987800D01*
X154298410Y-123987798D01*
X154294359Y-123984598D01*
X154253053Y-123961796D01*
X154203084Y-123911364D01*
X154188312Y-123841921D01*
X154213428Y-123775516D01*
X154240780Y-123748909D01*
X154309348Y-123700000D01*
X154419860Y-123621173D01*
X154431165Y-123609908D01*
X154574435Y-123467137D01*
X154578096Y-123463489D01*
X154637594Y-123380689D01*
X154705435Y-123286277D01*
X154708453Y-123282077D01*
X154727009Y-123244533D01*
X154805136Y-123086453D01*
X154805137Y-123086451D01*
X154807430Y-123081811D01*
X154863871Y-122896044D01*
X154870865Y-122873023D01*
X154870865Y-122873021D01*
X154872370Y-122868069D01*
X154901529Y-122646590D01*
X154903156Y-122580000D01*
X154884852Y-122357361D01*
X154830431Y-122140702D01*
X154741354Y-121935840D01*
X154620014Y-121748277D01*
X154469670Y-121583051D01*
X154465619Y-121579852D01*
X154465615Y-121579848D01*
X154298414Y-121447800D01*
X154298410Y-121447798D01*
X154294359Y-121444598D01*
X154253053Y-121421796D01*
X154203084Y-121371364D01*
X154188312Y-121301921D01*
X154213428Y-121235516D01*
X154240780Y-121208909D01*
X154309348Y-121160000D01*
X154419860Y-121081173D01*
X154431165Y-121069908D01*
X154574435Y-120927137D01*
X154578096Y-120923489D01*
X154637594Y-120840689D01*
X154705435Y-120746277D01*
X154708453Y-120742077D01*
X154727009Y-120704533D01*
X154805136Y-120546453D01*
X154805137Y-120546451D01*
X154807430Y-120541811D01*
X154862489Y-120360590D01*
X154870865Y-120333023D01*
X154870865Y-120333021D01*
X154872370Y-120328069D01*
X154901529Y-120106590D01*
X154903156Y-120040000D01*
X154884852Y-119817361D01*
X154830431Y-119600702D01*
X154741354Y-119395840D01*
X154620014Y-119208277D01*
X154469670Y-119043051D01*
X154465619Y-119039852D01*
X154465615Y-119039848D01*
X154298414Y-118907800D01*
X154298410Y-118907798D01*
X154294359Y-118904598D01*
X154253053Y-118881796D01*
X154203084Y-118831364D01*
X154188312Y-118761921D01*
X154213428Y-118695516D01*
X154240780Y-118668909D01*
X154309348Y-118620000D01*
X154419860Y-118541173D01*
X154431165Y-118529908D01*
X154574435Y-118387137D01*
X154578096Y-118383489D01*
X154637594Y-118300689D01*
X154705435Y-118206277D01*
X154708453Y-118202077D01*
X154727009Y-118164533D01*
X154805136Y-118006453D01*
X154805137Y-118006451D01*
X154807430Y-118001811D01*
X154862489Y-117820590D01*
X154870865Y-117793023D01*
X154870865Y-117793021D01*
X154872370Y-117788069D01*
X154901529Y-117566590D01*
X154903156Y-117500000D01*
X154884852Y-117277361D01*
X154830431Y-117060702D01*
X154741354Y-116855840D01*
X154620014Y-116668277D01*
X154469670Y-116503051D01*
X154465619Y-116499852D01*
X154465615Y-116499848D01*
X154298414Y-116367800D01*
X154298410Y-116367798D01*
X154294359Y-116364598D01*
X154253053Y-116341796D01*
X154203084Y-116291364D01*
X154188312Y-116221921D01*
X154213428Y-116155516D01*
X154240780Y-116128909D01*
X154309348Y-116080000D01*
X154419860Y-116001173D01*
X154431165Y-115989908D01*
X154574435Y-115847137D01*
X154578096Y-115843489D01*
X154637594Y-115760689D01*
X154705435Y-115666277D01*
X154708453Y-115662077D01*
X154727009Y-115624533D01*
X154805136Y-115466453D01*
X154805137Y-115466451D01*
X154807430Y-115461811D01*
X154862489Y-115280590D01*
X154870865Y-115253023D01*
X154870865Y-115253021D01*
X154872370Y-115248069D01*
X154901529Y-115026590D01*
X154903156Y-114960000D01*
X154884852Y-114737361D01*
X154830431Y-114520702D01*
X154741354Y-114315840D01*
X154620014Y-114128277D01*
X154469670Y-113963051D01*
X154465619Y-113959852D01*
X154465615Y-113959848D01*
X154298414Y-113827800D01*
X154298410Y-113827798D01*
X154294359Y-113824598D01*
X154253053Y-113801796D01*
X154203084Y-113751364D01*
X154188312Y-113681921D01*
X154213428Y-113615516D01*
X154240780Y-113588909D01*
X154309348Y-113540000D01*
X154419860Y-113461173D01*
X154431165Y-113449908D01*
X154574435Y-113307137D01*
X154578096Y-113303489D01*
X154609368Y-113259970D01*
X154705435Y-113126277D01*
X154708453Y-113122077D01*
X154727009Y-113084533D01*
X154805136Y-112926453D01*
X154805137Y-112926451D01*
X154807430Y-112921811D01*
X154862489Y-112740590D01*
X154870865Y-112713023D01*
X154870865Y-112713021D01*
X154872370Y-112708069D01*
X154901529Y-112486590D01*
X154903156Y-112420000D01*
X154884852Y-112197361D01*
X154830431Y-111980702D01*
X154741354Y-111775840D01*
X154620014Y-111588277D01*
X154469670Y-111423051D01*
X154465619Y-111419852D01*
X154465615Y-111419848D01*
X154298414Y-111287800D01*
X154298410Y-111287798D01*
X154294359Y-111284598D01*
X154253053Y-111261796D01*
X154203084Y-111211364D01*
X154188312Y-111141921D01*
X154213428Y-111075516D01*
X154240780Y-111048909D01*
X154309348Y-111000000D01*
X154419860Y-110921173D01*
X154578096Y-110763489D01*
X154637594Y-110680689D01*
X154705435Y-110586277D01*
X154708453Y-110582077D01*
X154712355Y-110574183D01*
X154805136Y-110386453D01*
X154805137Y-110386451D01*
X154807430Y-110381811D01*
X154862421Y-110200814D01*
X154870865Y-110173023D01*
X154870865Y-110173021D01*
X154872370Y-110168069D01*
X154901529Y-109946590D01*
X154901690Y-109940012D01*
X154903074Y-109883365D01*
X154903074Y-109883361D01*
X154903156Y-109880000D01*
X154884852Y-109657361D01*
X154830431Y-109440702D01*
X154741354Y-109235840D01*
X154620014Y-109048277D01*
X154469670Y-108883051D01*
X154465619Y-108879852D01*
X154465615Y-108879848D01*
X154298414Y-108747800D01*
X154298410Y-108747798D01*
X154294359Y-108744598D01*
X154253053Y-108721796D01*
X154203084Y-108671364D01*
X154188312Y-108601921D01*
X154213428Y-108535516D01*
X154240780Y-108508909D01*
X154309348Y-108460000D01*
X154419860Y-108381173D01*
X154578096Y-108223489D01*
X154637594Y-108140689D01*
X154705435Y-108046277D01*
X154708453Y-108042077D01*
X154727009Y-108004533D01*
X154805136Y-107846453D01*
X154805137Y-107846451D01*
X154807430Y-107841811D01*
X154872370Y-107628069D01*
X154901529Y-107406590D01*
X154901614Y-107403117D01*
X154903074Y-107343365D01*
X154903074Y-107343361D01*
X154903156Y-107340000D01*
X154884852Y-107117361D01*
X154830431Y-106900702D01*
X154741354Y-106695840D01*
X154681633Y-106603525D01*
X154622822Y-106512617D01*
X154622820Y-106512614D01*
X154620014Y-106508277D01*
X154469670Y-106343051D01*
X154465619Y-106339852D01*
X154465615Y-106339848D01*
X154298414Y-106207800D01*
X154298410Y-106207798D01*
X154294359Y-106204598D01*
X154253053Y-106181796D01*
X154203084Y-106131364D01*
X154188312Y-106061921D01*
X154213428Y-105995516D01*
X154240780Y-105968909D01*
X154309348Y-105920000D01*
X154419860Y-105841173D01*
X154578096Y-105683489D01*
X154637594Y-105600689D01*
X154705435Y-105506277D01*
X154708453Y-105502077D01*
X154727009Y-105464533D01*
X154805136Y-105306453D01*
X154805137Y-105306451D01*
X154807430Y-105301811D01*
X154872370Y-105088069D01*
X154901529Y-104866590D01*
X154903156Y-104800000D01*
X154884852Y-104577361D01*
X154830431Y-104360702D01*
X154741354Y-104155840D01*
X154620014Y-103968277D01*
X154469670Y-103803051D01*
X154465619Y-103799852D01*
X154465615Y-103799848D01*
X154298414Y-103667800D01*
X154298410Y-103667798D01*
X154294359Y-103664598D01*
X154253053Y-103641796D01*
X154203084Y-103591364D01*
X154188312Y-103521921D01*
X154213428Y-103455516D01*
X154240780Y-103428909D01*
X154309348Y-103380000D01*
X154419860Y-103301173D01*
X154578096Y-103143489D01*
X154637594Y-103060689D01*
X154705435Y-102966277D01*
X154708453Y-102962077D01*
X154727009Y-102924533D01*
X154805136Y-102766453D01*
X154805137Y-102766451D01*
X154807430Y-102761811D01*
X154872370Y-102548069D01*
X154901529Y-102326590D01*
X154903156Y-102260000D01*
X154884852Y-102037361D01*
X154830431Y-101820702D01*
X154741354Y-101615840D01*
X154701906Y-101554862D01*
X154622822Y-101432617D01*
X154622820Y-101432614D01*
X154620014Y-101428277D01*
X154469670Y-101263051D01*
X154465619Y-101259852D01*
X154465615Y-101259848D01*
X154298414Y-101127800D01*
X154298410Y-101127798D01*
X154294359Y-101124598D01*
X154253053Y-101101796D01*
X154203084Y-101051364D01*
X154188312Y-100981921D01*
X154213428Y-100915516D01*
X154240780Y-100888909D01*
X154288156Y-100855116D01*
X154419860Y-100761173D01*
X154578096Y-100603489D01*
X154637594Y-100520689D01*
X154705435Y-100426277D01*
X154708453Y-100422077D01*
X154727009Y-100384533D01*
X154805136Y-100226453D01*
X154805137Y-100226451D01*
X154807430Y-100221811D01*
X154849517Y-100083287D01*
X154870865Y-100013023D01*
X154870865Y-100013021D01*
X154872370Y-100008069D01*
X154901529Y-99786590D01*
X154902750Y-99736632D01*
X154903074Y-99723365D01*
X154903074Y-99723361D01*
X154903156Y-99720000D01*
X154884852Y-99497361D01*
X154830431Y-99280702D01*
X154741354Y-99075840D01*
X154688193Y-98993665D01*
X154622822Y-98892617D01*
X154622820Y-98892614D01*
X154620014Y-98888277D01*
X154469670Y-98723051D01*
X154465619Y-98719852D01*
X154465615Y-98719848D01*
X154298414Y-98587800D01*
X154298410Y-98587798D01*
X154294359Y-98584598D01*
X154253053Y-98561796D01*
X154203084Y-98511364D01*
X154188312Y-98441921D01*
X154213428Y-98375516D01*
X154240780Y-98348909D01*
X154309348Y-98300000D01*
X154419860Y-98221173D01*
X154426278Y-98214778D01*
X154538633Y-98102814D01*
X154578096Y-98063489D01*
X154584055Y-98055197D01*
X154705435Y-97886277D01*
X154708453Y-97882077D01*
X154727009Y-97844533D01*
X154805136Y-97686453D01*
X154805137Y-97686451D01*
X154807430Y-97681811D01*
X154872370Y-97468069D01*
X154901529Y-97246590D01*
X154902750Y-97196632D01*
X154903074Y-97183365D01*
X154903074Y-97183361D01*
X154903156Y-97180000D01*
X154884852Y-96957361D01*
X154830431Y-96740702D01*
X154741354Y-96535840D01*
X154668817Y-96423715D01*
X154622822Y-96352617D01*
X154622820Y-96352614D01*
X154620014Y-96348277D01*
X154469670Y-96183051D01*
X154465619Y-96179852D01*
X154465615Y-96179848D01*
X154298414Y-96047800D01*
X154298410Y-96047798D01*
X154294359Y-96044598D01*
X154253053Y-96021796D01*
X154203084Y-95971364D01*
X154188312Y-95901921D01*
X154213428Y-95835516D01*
X154240780Y-95808909D01*
X154284603Y-95777650D01*
X154419860Y-95681173D01*
X154467571Y-95633629D01*
X154574435Y-95527137D01*
X154578096Y-95523489D01*
X154637594Y-95440689D01*
X154705435Y-95346277D01*
X154708453Y-95342077D01*
X154727009Y-95304533D01*
X154805136Y-95146453D01*
X154805137Y-95146451D01*
X154807430Y-95141811D01*
X154872370Y-94928069D01*
X154901529Y-94706590D01*
X154901614Y-94703117D01*
X154903074Y-94643365D01*
X154903074Y-94643361D01*
X154903156Y-94640000D01*
X154884852Y-94417361D01*
X154830431Y-94200702D01*
X154741354Y-93995840D01*
X154635950Y-93832910D01*
X154622822Y-93812617D01*
X154622820Y-93812614D01*
X154620014Y-93808277D01*
X154469670Y-93643051D01*
X154465619Y-93639852D01*
X154465615Y-93639848D01*
X154298414Y-93507800D01*
X154298410Y-93507798D01*
X154294359Y-93504598D01*
X154253053Y-93481796D01*
X154203084Y-93431364D01*
X154188312Y-93361921D01*
X154213428Y-93295516D01*
X154240780Y-93268909D01*
X154310406Y-93219245D01*
X154419860Y-93141173D01*
X154429445Y-93131622D01*
X154506148Y-93055186D01*
X154578096Y-92983489D01*
X154583501Y-92975968D01*
X154705435Y-92806277D01*
X154708453Y-92802077D01*
X154727009Y-92764533D01*
X154805136Y-92606453D01*
X154805137Y-92606451D01*
X154807430Y-92601811D01*
X154872370Y-92388069D01*
X154901529Y-92166590D01*
X154903156Y-92100000D01*
X154884852Y-91877361D01*
X154830431Y-91660702D01*
X154741354Y-91455840D01*
X154620014Y-91268277D01*
X154469670Y-91103051D01*
X154465619Y-91099852D01*
X154465615Y-91099848D01*
X154298414Y-90967800D01*
X154298410Y-90967798D01*
X154294359Y-90964598D01*
X154253053Y-90941796D01*
X154203084Y-90891364D01*
X154188312Y-90821921D01*
X154213428Y-90755516D01*
X154240780Y-90728909D01*
X154305850Y-90682495D01*
X154419860Y-90601173D01*
X154578096Y-90443489D01*
X154637594Y-90360689D01*
X154705435Y-90266277D01*
X154708453Y-90262077D01*
X154712965Y-90252949D01*
X154805136Y-90066453D01*
X154805137Y-90066451D01*
X154807430Y-90061811D01*
X154839900Y-89954940D01*
X154870865Y-89853023D01*
X154870865Y-89853021D01*
X154872370Y-89848069D01*
X154901529Y-89626590D01*
X154903156Y-89560000D01*
X154884852Y-89337361D01*
X154830431Y-89120702D01*
X154741354Y-88915840D01*
X154620014Y-88728277D01*
X154469670Y-88563051D01*
X154465619Y-88559852D01*
X154465615Y-88559848D01*
X154298414Y-88427800D01*
X154298410Y-88427798D01*
X154294359Y-88424598D01*
X154253053Y-88401796D01*
X154203084Y-88351364D01*
X154188312Y-88281921D01*
X154213428Y-88215516D01*
X154240780Y-88188909D01*
X154284603Y-88157650D01*
X154419860Y-88061173D01*
X154436320Y-88044771D01*
X154574435Y-87907137D01*
X154578096Y-87903489D01*
X154637594Y-87820689D01*
X154705435Y-87726277D01*
X154708453Y-87722077D01*
X154729320Y-87679857D01*
X154805136Y-87526453D01*
X154805137Y-87526451D01*
X154807430Y-87521811D01*
X154872370Y-87308069D01*
X154901529Y-87086590D01*
X154903156Y-87020000D01*
X154884852Y-86797361D01*
X154830431Y-86580702D01*
X154741354Y-86375840D01*
X154620014Y-86188277D01*
X154469670Y-86023051D01*
X154465619Y-86019852D01*
X154465615Y-86019848D01*
X154298414Y-85887800D01*
X154298410Y-85887798D01*
X154294359Y-85884598D01*
X154252569Y-85861529D01*
X154202598Y-85811097D01*
X154187826Y-85741654D01*
X154212942Y-85675248D01*
X154240294Y-85648641D01*
X154415328Y-85523792D01*
X154423200Y-85517139D01*
X154574052Y-85366812D01*
X154580730Y-85358965D01*
X154705003Y-85186020D01*
X154710313Y-85177183D01*
X154804670Y-84986267D01*
X154808469Y-84976672D01*
X154870377Y-84772910D01*
X154872555Y-84762837D01*
X154873986Y-84751962D01*
X154871775Y-84737778D01*
X154858617Y-84734000D01*
X153412000Y-84734000D01*
X153343879Y-84713998D01*
X153297386Y-84660342D01*
X153286000Y-84608000D01*
X153286000Y-84352000D01*
X153306002Y-84283879D01*
X153359658Y-84237386D01*
X153412000Y-84226000D01*
X154858344Y-84226000D01*
X154871875Y-84222027D01*
X154873180Y-84212947D01*
X154831214Y-84045875D01*
X154827894Y-84036124D01*
X154742972Y-83840814D01*
X154738105Y-83831739D01*
X154622426Y-83652926D01*
X154616136Y-83644757D01*
X154472806Y-83487240D01*
X154465273Y-83480215D01*
X154298139Y-83348222D01*
X154289556Y-83342520D01*
X154252602Y-83322120D01*
X154202631Y-83271687D01*
X154187859Y-83202245D01*
X154212975Y-83135839D01*
X154240327Y-83109232D01*
X154263797Y-83092491D01*
X154419860Y-82981173D01*
X154436320Y-82964771D01*
X154545356Y-82856115D01*
X154578096Y-82823489D01*
X154612580Y-82775500D01*
X154705435Y-82646277D01*
X154708453Y-82642077D01*
X154712611Y-82633665D01*
X154805136Y-82446453D01*
X154805137Y-82446451D01*
X154807430Y-82441811D01*
X154872370Y-82228069D01*
X154901529Y-82006590D01*
X154901896Y-81991581D01*
X154903074Y-81943365D01*
X154903074Y-81943361D01*
X154903156Y-81940000D01*
X154884852Y-81717361D01*
X154830431Y-81500702D01*
X154741354Y-81295840D01*
X154649583Y-81153983D01*
X154622822Y-81112617D01*
X154622820Y-81112614D01*
X154620014Y-81108277D01*
X154469670Y-80943051D01*
X154465619Y-80939852D01*
X154465615Y-80939848D01*
X154298414Y-80807800D01*
X154298410Y-80807798D01*
X154294359Y-80804598D01*
X154253053Y-80781796D01*
X154203084Y-80731364D01*
X154188312Y-80661921D01*
X154213428Y-80595516D01*
X154240780Y-80568909D01*
X154291972Y-80532394D01*
X154419860Y-80441173D01*
X154451788Y-80409357D01*
X154563616Y-80297918D01*
X154578096Y-80283489D01*
X154708453Y-80102077D01*
X154728752Y-80061006D01*
X154805136Y-79906453D01*
X154805137Y-79906451D01*
X154807430Y-79901811D01*
X154851076Y-79758156D01*
X154870865Y-79693023D01*
X154870865Y-79693021D01*
X154872370Y-79688069D01*
X154901529Y-79466590D01*
X154902313Y-79434514D01*
X154903074Y-79403365D01*
X154903074Y-79403361D01*
X154903156Y-79400000D01*
X154884852Y-79177361D01*
X154830431Y-78960702D01*
X154741354Y-78755840D01*
X154650433Y-78615298D01*
X154622822Y-78572617D01*
X154622820Y-78572614D01*
X154620014Y-78568277D01*
X154469670Y-78403051D01*
X154465619Y-78399852D01*
X154465615Y-78399848D01*
X154298414Y-78267800D01*
X154298410Y-78267798D01*
X154294359Y-78264598D01*
X154286304Y-78260151D01*
X154201202Y-78213173D01*
X154098789Y-78156638D01*
X154093920Y-78154914D01*
X154093916Y-78154912D01*
X153893087Y-78083795D01*
X153893083Y-78083794D01*
X153888212Y-78082069D01*
X153883119Y-78081162D01*
X153883116Y-78081161D01*
X153673373Y-78043800D01*
X153673367Y-78043799D01*
X153668284Y-78042894D01*
X153594452Y-78041992D01*
X153450081Y-78040228D01*
X153450079Y-78040228D01*
X153444911Y-78040165D01*
X153224091Y-78073955D01*
X153011756Y-78143357D01*
X152813607Y-78246507D01*
X152809474Y-78249610D01*
X152809471Y-78249612D01*
X152640974Y-78376123D01*
X152634965Y-78380635D01*
X152561400Y-78457617D01*
X152554283Y-78465064D01*
X152492759Y-78500494D01*
X152421846Y-78497037D01*
X152364060Y-78455791D01*
X152345207Y-78422243D01*
X152303767Y-78311703D01*
X152300615Y-78303295D01*
X152213261Y-78186739D01*
X152096705Y-78099385D01*
X151960316Y-78048255D01*
X151898134Y-78041500D01*
X151366371Y-78041500D01*
X151298250Y-78021498D01*
X151277276Y-78004595D01*
X147880336Y-74607655D01*
X150739858Y-74607655D01*
X150775104Y-74866638D01*
X150776412Y-74871124D01*
X150776412Y-74871126D01*
X150796098Y-74938664D01*
X150848243Y-75117567D01*
X150957668Y-75354928D01*
X150960231Y-75358837D01*
X151098410Y-75569596D01*
X151098414Y-75569601D01*
X151100976Y-75573509D01*
X151275018Y-75768506D01*
X151475970Y-75935637D01*
X151479973Y-75938066D01*
X151695422Y-76068804D01*
X151695426Y-76068806D01*
X151699419Y-76071229D01*
X151940455Y-76172303D01*
X152193783Y-76236641D01*
X152198434Y-76237109D01*
X152198438Y-76237110D01*
X152391308Y-76256531D01*
X152410867Y-76258500D01*
X152566354Y-76258500D01*
X152568679Y-76258327D01*
X152568685Y-76258327D01*
X152756000Y-76244407D01*
X152756004Y-76244406D01*
X152760652Y-76244061D01*
X152765200Y-76243032D01*
X152765206Y-76243031D01*
X152951601Y-76200853D01*
X153015577Y-76186377D01*
X153035275Y-76178717D01*
X153254824Y-76093340D01*
X153254827Y-76093339D01*
X153259177Y-76091647D01*
X153486098Y-75961951D01*
X153691357Y-75800138D01*
X153870443Y-75609763D01*
X154019424Y-75395009D01*
X154063768Y-75305088D01*
X154132960Y-75164781D01*
X154132961Y-75164778D01*
X154135025Y-75160593D01*
X154214707Y-74911665D01*
X154256721Y-74653693D01*
X154260142Y-74392345D01*
X154224896Y-74133362D01*
X154210473Y-74083877D01*
X154196021Y-74034297D01*
X154151757Y-73882433D01*
X154139498Y-73855840D01*
X154055030Y-73672617D01*
X154042332Y-73645072D01*
X153968386Y-73532285D01*
X153901590Y-73430404D01*
X153901586Y-73430399D01*
X153899024Y-73426491D01*
X153724982Y-73231494D01*
X153524030Y-73064363D01*
X153476844Y-73035730D01*
X153304578Y-72931196D01*
X153304574Y-72931194D01*
X153300581Y-72928771D01*
X153059545Y-72827697D01*
X152806217Y-72763359D01*
X152801566Y-72762891D01*
X152801562Y-72762890D01*
X152592271Y-72741816D01*
X152589133Y-72741500D01*
X152433646Y-72741500D01*
X152431321Y-72741673D01*
X152431315Y-72741673D01*
X152244000Y-72755593D01*
X152243996Y-72755594D01*
X152239348Y-72755939D01*
X152234800Y-72756968D01*
X152234794Y-72756969D01*
X152048399Y-72799147D01*
X151984423Y-72813623D01*
X151980071Y-72815315D01*
X151980069Y-72815316D01*
X151745176Y-72906660D01*
X151745173Y-72906661D01*
X151740823Y-72908353D01*
X151513902Y-73038049D01*
X151308643Y-73199862D01*
X151129557Y-73390237D01*
X150980576Y-73604991D01*
X150978510Y-73609181D01*
X150978508Y-73609184D01*
X150872006Y-73825150D01*
X150864975Y-73839407D01*
X150863553Y-73843850D01*
X150863552Y-73843852D01*
X150802804Y-74033629D01*
X150785293Y-74088335D01*
X150743279Y-74346307D01*
X150739858Y-74607655D01*
X147880336Y-74607655D01*
X147395405Y-74122724D01*
X147361379Y-74060412D01*
X147358500Y-74033629D01*
X147358500Y-73601866D01*
X147351745Y-73539684D01*
X147300615Y-73403295D01*
X147213261Y-73286739D01*
X147096705Y-73199385D01*
X146960316Y-73148255D01*
X146898134Y-73141500D01*
X145101866Y-73141500D01*
X145039684Y-73148255D01*
X144903295Y-73199385D01*
X144786739Y-73286739D01*
X144699385Y-73403295D01*
X144696233Y-73411703D01*
X144654919Y-73521907D01*
X144612277Y-73578671D01*
X144545716Y-73603371D01*
X144476367Y-73588163D01*
X144443743Y-73562476D01*
X144393151Y-73506875D01*
X144393142Y-73506866D01*
X144389670Y-73503051D01*
X144385619Y-73499852D01*
X144385615Y-73499848D01*
X144218414Y-73367800D01*
X144218410Y-73367798D01*
X144214359Y-73364598D01*
X144018789Y-73256638D01*
X144013920Y-73254914D01*
X144013916Y-73254912D01*
X143813087Y-73183795D01*
X143813083Y-73183794D01*
X143808212Y-73182069D01*
X143803119Y-73181162D01*
X143803116Y-73181161D01*
X143593373Y-73143800D01*
X143593367Y-73143799D01*
X143588284Y-73142894D01*
X143514452Y-73141992D01*
X143370081Y-73140228D01*
X143370079Y-73140228D01*
X143364911Y-73140165D01*
X143144091Y-73173955D01*
X142931756Y-73243357D01*
X142733607Y-73346507D01*
X142729474Y-73349610D01*
X142729471Y-73349612D01*
X142559100Y-73477530D01*
X142554965Y-73480635D01*
X142515525Y-73521907D01*
X142432121Y-73609184D01*
X142400629Y-73642138D01*
X142293201Y-73799621D01*
X142238293Y-73844621D01*
X142167768Y-73852792D01*
X142104021Y-73821538D01*
X142083324Y-73797054D01*
X142002822Y-73672617D01*
X142002820Y-73672614D01*
X142000014Y-73668277D01*
X141849670Y-73503051D01*
X141845619Y-73499852D01*
X141845615Y-73499848D01*
X141678414Y-73367800D01*
X141678410Y-73367798D01*
X141674359Y-73364598D01*
X141478789Y-73256638D01*
X141473920Y-73254914D01*
X141473916Y-73254912D01*
X141273087Y-73183795D01*
X141273083Y-73183794D01*
X141268212Y-73182069D01*
X141263119Y-73181162D01*
X141263116Y-73181161D01*
X141053373Y-73143800D01*
X141053367Y-73143799D01*
X141048284Y-73142894D01*
X140974452Y-73141992D01*
X140830081Y-73140228D01*
X140830079Y-73140228D01*
X140824911Y-73140165D01*
X140604091Y-73173955D01*
X140391756Y-73243357D01*
X140193607Y-73346507D01*
X140189474Y-73349610D01*
X140189471Y-73349612D01*
X140019100Y-73477530D01*
X140014965Y-73480635D01*
X139975525Y-73521907D01*
X139892121Y-73609184D01*
X139860629Y-73642138D01*
X139734743Y-73826680D01*
X139640688Y-74029305D01*
X139580989Y-74244570D01*
X139557251Y-74466695D01*
X139557548Y-74471848D01*
X139557548Y-74471851D01*
X139565646Y-74612289D01*
X139570110Y-74689715D01*
X139571247Y-74694761D01*
X139571248Y-74694767D01*
X139595304Y-74801508D01*
X139619222Y-74907639D01*
X139703266Y-75114616D01*
X139754942Y-75198944D01*
X139817291Y-75300688D01*
X139819987Y-75305088D01*
X139966250Y-75473938D01*
X140138126Y-75616632D01*
X140211445Y-75659476D01*
X140211955Y-75659774D01*
X140260679Y-75711412D01*
X140273750Y-75781195D01*
X140247019Y-75846967D01*
X140206562Y-75880327D01*
X140198457Y-75884546D01*
X140189738Y-75890036D01*
X140019433Y-76017905D01*
X140011726Y-76024748D01*
X139864590Y-76178717D01*
X139858104Y-76186727D01*
X139738098Y-76362649D01*
X139733000Y-76371623D01*
X139643338Y-76564783D01*
X139639775Y-76574470D01*
X139584389Y-76774183D01*
X139585912Y-76782607D01*
X139598292Y-76786000D01*
X141048000Y-76786000D01*
X141116121Y-76806002D01*
X141162614Y-76859658D01*
X141174000Y-76912000D01*
X141174000Y-77168000D01*
X141153998Y-77236121D01*
X141100342Y-77282614D01*
X141048000Y-77294000D01*
X139804332Y-77294000D01*
X139734420Y-77272825D01*
X139729291Y-77269404D01*
X139723715Y-77264667D01*
X139717200Y-77261340D01*
X139712156Y-77257976D01*
X139707022Y-77254805D01*
X139701284Y-77250266D01*
X139635125Y-77219345D01*
X139631225Y-77217439D01*
X139566192Y-77184231D01*
X139559084Y-77182492D01*
X139553441Y-77180393D01*
X139547678Y-77178476D01*
X139541050Y-77175378D01*
X139469583Y-77160513D01*
X139465299Y-77159543D01*
X139394390Y-77142192D01*
X139388788Y-77141844D01*
X139388785Y-77141844D01*
X139383236Y-77141500D01*
X139383238Y-77141464D01*
X139379245Y-77141225D01*
X139375053Y-77140851D01*
X139367885Y-77139360D01*
X139304120Y-77141085D01*
X139290479Y-77141454D01*
X139287072Y-77141500D01*
X133367070Y-77141500D01*
X133348120Y-77140067D01*
X133333885Y-77137901D01*
X133333881Y-77137901D01*
X133326651Y-77136801D01*
X133319359Y-77137394D01*
X133319356Y-77137394D01*
X133273982Y-77141085D01*
X133263767Y-77141500D01*
X133255707Y-77141500D01*
X133252073Y-77141924D01*
X133252067Y-77141924D01*
X133239042Y-77143443D01*
X133227480Y-77144791D01*
X133223132Y-77145221D01*
X133201059Y-77147016D01*
X133157662Y-77150546D01*
X133157659Y-77150547D01*
X133150364Y-77151140D01*
X133143400Y-77153396D01*
X133137461Y-77154583D01*
X133131590Y-77155970D01*
X133124319Y-77156818D01*
X133117443Y-77159314D01*
X133117434Y-77159316D01*
X133055702Y-77181725D01*
X133051598Y-77183135D01*
X132982101Y-77205648D01*
X132975846Y-77209444D01*
X132970387Y-77211943D01*
X132964939Y-77214671D01*
X132958063Y-77217167D01*
X132897010Y-77257195D01*
X132893337Y-77259513D01*
X132830893Y-77297405D01*
X132826697Y-77301110D01*
X132826695Y-77301112D01*
X132822548Y-77304775D01*
X132822517Y-77304802D01*
X132822493Y-77304775D01*
X132819499Y-77307430D01*
X132816268Y-77310132D01*
X132810148Y-77314144D01*
X132756872Y-77370383D01*
X132754494Y-77372825D01*
X130721766Y-79405553D01*
X130659454Y-79439579D01*
X130588639Y-79434514D01*
X130531803Y-79391967D01*
X130507150Y-79327440D01*
X130494022Y-79177393D01*
X130494022Y-79177392D01*
X130493543Y-79171913D01*
X130479641Y-79120031D01*
X130435707Y-78956067D01*
X130435706Y-78956065D01*
X130434284Y-78950757D01*
X130412653Y-78904369D01*
X130339849Y-78748238D01*
X130339846Y-78748233D01*
X130337523Y-78743251D01*
X130231726Y-78592158D01*
X130209357Y-78560211D01*
X130209355Y-78560208D01*
X130206198Y-78555700D01*
X130044300Y-78393802D01*
X130039792Y-78390645D01*
X130039789Y-78390643D01*
X129927051Y-78311703D01*
X129856749Y-78262477D01*
X129851767Y-78260154D01*
X129851762Y-78260151D01*
X129654225Y-78168039D01*
X129654224Y-78168039D01*
X129649243Y-78165716D01*
X129643935Y-78164294D01*
X129643933Y-78164293D01*
X129433402Y-78107881D01*
X129433400Y-78107881D01*
X129428087Y-78106457D01*
X129200000Y-78086502D01*
X128971913Y-78106457D01*
X128966600Y-78107881D01*
X128966598Y-78107881D01*
X128756067Y-78164293D01*
X128756065Y-78164294D01*
X128750757Y-78165716D01*
X128745776Y-78168039D01*
X128745775Y-78168039D01*
X128548238Y-78260151D01*
X128548233Y-78260154D01*
X128543251Y-78262477D01*
X128472949Y-78311703D01*
X128360211Y-78390643D01*
X128360208Y-78390645D01*
X128355700Y-78393802D01*
X128193802Y-78555700D01*
X128190645Y-78560208D01*
X128190643Y-78560211D01*
X128168274Y-78592158D01*
X128062477Y-78743251D01*
X128060154Y-78748233D01*
X128060151Y-78748238D01*
X127987347Y-78904369D01*
X127965716Y-78950757D01*
X127964294Y-78956065D01*
X127964293Y-78956067D01*
X127960996Y-78968371D01*
X127906457Y-79171913D01*
X127905978Y-79177392D01*
X127901308Y-79230770D01*
X127875445Y-79296888D01*
X127864882Y-79308884D01*
X124753421Y-82420345D01*
X124691109Y-82454371D01*
X124664326Y-82457250D01*
X123692500Y-82457250D01*
X123624379Y-82437248D01*
X123577886Y-82383592D01*
X123566500Y-82331250D01*
X123566500Y-81559616D01*
X123559745Y-81497434D01*
X123508615Y-81361045D01*
X123421261Y-81244489D01*
X123304705Y-81157135D01*
X123168316Y-81106005D01*
X123106134Y-81099250D01*
X119293866Y-81099250D01*
X119231684Y-81106005D01*
X119095295Y-81157135D01*
X118978739Y-81244489D01*
X118891385Y-81361045D01*
X118840255Y-81497434D01*
X118833500Y-81559616D01*
X118833500Y-85371884D01*
X118840255Y-85434066D01*
X118891385Y-85570455D01*
X118978739Y-85687011D01*
X119095295Y-85774365D01*
X119231684Y-85825495D01*
X119293866Y-85832250D01*
X121553825Y-85832250D01*
X121621946Y-85852252D01*
X121642920Y-85869155D01*
X125733145Y-89959379D01*
X125742247Y-89969522D01*
X125765968Y-89999025D01*
X125770696Y-90002992D01*
X125804421Y-90031291D01*
X125808069Y-90034472D01*
X125809881Y-90036115D01*
X125812075Y-90038309D01*
X125845349Y-90065642D01*
X125846147Y-90066304D01*
X125917474Y-90126154D01*
X125922144Y-90128722D01*
X125926261Y-90132103D01*
X125996620Y-90169829D01*
X126008120Y-90175995D01*
X126009280Y-90176624D01*
X126085389Y-90218466D01*
X126085394Y-90218468D01*
X126090787Y-90221433D01*
X126095865Y-90223044D01*
X126100563Y-90225563D01*
X126189498Y-90252753D01*
X126190702Y-90253128D01*
X126279306Y-90281235D01*
X126284597Y-90281828D01*
X126289698Y-90283388D01*
X126382311Y-90292795D01*
X126383431Y-90292915D01*
X126433227Y-90298500D01*
X126436756Y-90298500D01*
X126437739Y-90298555D01*
X126443426Y-90299003D01*
X126463683Y-90301060D01*
X126480336Y-90302752D01*
X126480339Y-90302752D01*
X126486463Y-90303374D01*
X126532112Y-90299059D01*
X126543969Y-90298500D01*
X128757725Y-90298500D01*
X128825846Y-90318502D01*
X128858551Y-90348935D01*
X128936739Y-90453261D01*
X129053295Y-90540615D01*
X129189684Y-90591745D01*
X129219074Y-90594938D01*
X129237033Y-90596889D01*
X129302595Y-90624132D01*
X129343020Y-90682495D01*
X129345475Y-90753449D01*
X129312519Y-90811247D01*
X127180621Y-92943145D01*
X127170478Y-92952247D01*
X127140975Y-92975968D01*
X127108709Y-93014421D01*
X127105528Y-93018069D01*
X127103885Y-93019881D01*
X127101691Y-93022075D01*
X127074358Y-93055349D01*
X127073696Y-93056147D01*
X127013846Y-93127474D01*
X127011278Y-93132144D01*
X127007897Y-93136261D01*
X126981512Y-93185469D01*
X126964023Y-93218086D01*
X126963394Y-93219245D01*
X126921538Y-93295381D01*
X126921535Y-93295389D01*
X126918567Y-93300787D01*
X126916955Y-93305869D01*
X126914438Y-93310563D01*
X126887238Y-93399531D01*
X126886918Y-93400559D01*
X126858765Y-93489306D01*
X126858171Y-93494602D01*
X126856613Y-93499698D01*
X126854184Y-93523617D01*
X126847218Y-93592187D01*
X126847089Y-93593393D01*
X126841500Y-93643227D01*
X126841500Y-93646754D01*
X126841445Y-93647739D01*
X126840998Y-93653419D01*
X126836626Y-93696462D01*
X126837206Y-93702593D01*
X126840941Y-93742109D01*
X126841500Y-93753967D01*
X126841500Y-99278157D01*
X126840763Y-99291764D01*
X126838806Y-99309784D01*
X126836676Y-99329388D01*
X126837213Y-99335523D01*
X126841050Y-99379388D01*
X126841379Y-99384214D01*
X126841500Y-99386686D01*
X126841500Y-99389769D01*
X126841801Y-99392837D01*
X126845690Y-99432506D01*
X126845812Y-99433819D01*
X126848952Y-99469707D01*
X126853913Y-99526413D01*
X126855400Y-99531532D01*
X126855920Y-99536833D01*
X126882791Y-99625834D01*
X126883126Y-99626967D01*
X126902323Y-99693040D01*
X126909091Y-99716336D01*
X126911544Y-99721068D01*
X126913084Y-99726169D01*
X126915978Y-99731612D01*
X126956731Y-99808260D01*
X126957343Y-99809426D01*
X126997271Y-99886453D01*
X127000108Y-99891926D01*
X127003431Y-99896089D01*
X127005934Y-99900796D01*
X127064755Y-99972918D01*
X127065433Y-99973757D01*
X127096738Y-100012973D01*
X127099242Y-100015477D01*
X127099884Y-100016195D01*
X127103585Y-100020528D01*
X127130935Y-100054062D01*
X127135682Y-100057989D01*
X127135684Y-100057991D01*
X127166262Y-100083287D01*
X127175042Y-100091277D01*
X127974662Y-100890896D01*
X128754595Y-101670829D01*
X128788620Y-101733141D01*
X128791500Y-101759924D01*
X128791500Y-102680076D01*
X128771498Y-102748197D01*
X128754595Y-102769171D01*
X127330621Y-104193145D01*
X127320478Y-104202247D01*
X127290975Y-104225968D01*
X127287008Y-104230696D01*
X127258709Y-104264421D01*
X127255528Y-104268069D01*
X127253885Y-104269881D01*
X127251691Y-104272075D01*
X127224358Y-104305349D01*
X127223696Y-104306147D01*
X127163846Y-104377474D01*
X127161278Y-104382144D01*
X127157897Y-104386261D01*
X127154238Y-104393086D01*
X127114023Y-104468086D01*
X127113394Y-104469245D01*
X127071538Y-104545381D01*
X127071535Y-104545389D01*
X127068567Y-104550787D01*
X127066955Y-104555869D01*
X127064438Y-104560563D01*
X127037238Y-104649531D01*
X127036918Y-104650559D01*
X127008765Y-104739306D01*
X127008171Y-104744602D01*
X127006613Y-104749698D01*
X127001162Y-104803365D01*
X126997218Y-104842187D01*
X126997089Y-104843393D01*
X126991500Y-104893227D01*
X126991500Y-104896754D01*
X126991445Y-104897739D01*
X126990998Y-104903419D01*
X126986626Y-104946462D01*
X126987206Y-104952593D01*
X126990941Y-104992109D01*
X126991500Y-105003967D01*
X126991500Y-127930076D01*
X126971498Y-127998197D01*
X126954595Y-128019171D01*
X126646754Y-128327012D01*
X126584442Y-128361038D01*
X126513627Y-128355973D01*
X126456791Y-128313426D01*
X126442109Y-128288159D01*
X126438832Y-128280621D01*
X126403661Y-128199735D01*
X126367630Y-128116868D01*
X126367628Y-128116865D01*
X126365570Y-128112131D01*
X126239764Y-127917665D01*
X126083887Y-127746358D01*
X126079836Y-127743159D01*
X126079832Y-127743155D01*
X125907077Y-127606722D01*
X125866014Y-127548805D01*
X125862782Y-127477882D01*
X125898407Y-127416470D01*
X125912001Y-127405261D01*
X125915872Y-127402500D01*
X126032243Y-127319494D01*
X126196303Y-127156005D01*
X126331458Y-126967917D01*
X126372395Y-126885088D01*
X126431784Y-126764922D01*
X126431785Y-126764920D01*
X126434078Y-126760280D01*
X126501408Y-126538671D01*
X126531640Y-126309041D01*
X126531722Y-126305691D01*
X126533245Y-126243365D01*
X126533245Y-126243361D01*
X126533327Y-126240000D01*
X126521590Y-126097240D01*
X126514773Y-126014318D01*
X126514772Y-126014312D01*
X126514349Y-126009167D01*
X126486137Y-125896850D01*
X126459184Y-125789544D01*
X126459183Y-125789540D01*
X126457925Y-125784533D01*
X126455866Y-125779797D01*
X126367630Y-125576868D01*
X126367628Y-125576865D01*
X126365570Y-125572131D01*
X126239764Y-125377665D01*
X126083887Y-125206358D01*
X126079836Y-125203159D01*
X126079832Y-125203155D01*
X125907077Y-125066722D01*
X125866014Y-125008805D01*
X125862782Y-124937882D01*
X125898407Y-124876470D01*
X125912001Y-124865261D01*
X125915872Y-124862500D01*
X126032243Y-124779494D01*
X126196303Y-124616005D01*
X126331458Y-124427917D01*
X126372395Y-124345088D01*
X126431784Y-124224922D01*
X126431785Y-124224920D01*
X126434078Y-124220280D01*
X126501408Y-123998671D01*
X126531640Y-123769041D01*
X126531919Y-123757626D01*
X126533245Y-123703365D01*
X126533245Y-123703361D01*
X126533327Y-123700000D01*
X126525372Y-123603240D01*
X126514773Y-123474318D01*
X126514772Y-123474312D01*
X126514349Y-123469167D01*
X126485554Y-123354528D01*
X126459184Y-123249544D01*
X126459183Y-123249540D01*
X126457925Y-123244533D01*
X126450573Y-123227625D01*
X126367630Y-123036868D01*
X126367628Y-123036865D01*
X126365570Y-123032131D01*
X126239764Y-122837665D01*
X126083887Y-122666358D01*
X126079836Y-122663159D01*
X126079832Y-122663155D01*
X125907077Y-122526722D01*
X125866014Y-122468805D01*
X125862782Y-122397882D01*
X125898407Y-122336470D01*
X125912001Y-122325261D01*
X125915872Y-122322500D01*
X126032243Y-122239494D01*
X126196303Y-122076005D01*
X126331458Y-121887917D01*
X126372395Y-121805088D01*
X126431784Y-121684922D01*
X126431785Y-121684920D01*
X126434078Y-121680280D01*
X126501408Y-121458671D01*
X126531640Y-121229041D01*
X126531722Y-121225691D01*
X126533245Y-121163365D01*
X126533245Y-121163361D01*
X126533327Y-121160000D01*
X126521590Y-121017240D01*
X126514773Y-120934318D01*
X126514772Y-120934312D01*
X126514349Y-120929167D01*
X126486137Y-120816850D01*
X126459184Y-120709544D01*
X126459183Y-120709540D01*
X126457925Y-120704533D01*
X126450573Y-120687625D01*
X126367630Y-120496868D01*
X126367628Y-120496865D01*
X126365570Y-120492131D01*
X126239764Y-120297665D01*
X126083887Y-120126358D01*
X126079836Y-120123159D01*
X126079832Y-120123155D01*
X125907077Y-119986722D01*
X125866014Y-119928805D01*
X125862782Y-119857882D01*
X125898407Y-119796470D01*
X125912001Y-119785261D01*
X125915872Y-119782500D01*
X126032243Y-119699494D01*
X126196303Y-119536005D01*
X126331458Y-119347917D01*
X126372395Y-119265088D01*
X126431784Y-119144922D01*
X126431785Y-119144920D01*
X126434078Y-119140280D01*
X126501408Y-118918671D01*
X126531640Y-118689041D01*
X126531722Y-118685691D01*
X126533245Y-118623365D01*
X126533245Y-118623361D01*
X126533327Y-118620000D01*
X126521590Y-118477240D01*
X126514773Y-118394318D01*
X126514772Y-118394312D01*
X126514349Y-118389167D01*
X126486137Y-118276850D01*
X126459184Y-118169544D01*
X126459183Y-118169540D01*
X126457925Y-118164533D01*
X126450573Y-118147625D01*
X126367630Y-117956868D01*
X126367628Y-117956865D01*
X126365570Y-117952131D01*
X126239764Y-117757665D01*
X126083887Y-117586358D01*
X126079836Y-117583159D01*
X126079832Y-117583155D01*
X125907077Y-117446722D01*
X125866014Y-117388805D01*
X125862782Y-117317882D01*
X125898407Y-117256470D01*
X125912001Y-117245261D01*
X126032243Y-117159494D01*
X126196303Y-116996005D01*
X126331458Y-116807917D01*
X126372395Y-116725088D01*
X126431784Y-116604922D01*
X126431785Y-116604920D01*
X126434078Y-116600280D01*
X126501408Y-116378671D01*
X126531640Y-116149041D01*
X126531722Y-116145691D01*
X126533245Y-116083365D01*
X126533245Y-116083361D01*
X126533327Y-116080000D01*
X126521590Y-115937240D01*
X126514773Y-115854318D01*
X126514772Y-115854312D01*
X126514349Y-115849167D01*
X126486137Y-115736850D01*
X126459184Y-115629544D01*
X126459183Y-115629540D01*
X126457925Y-115624533D01*
X126450573Y-115607625D01*
X126367630Y-115416868D01*
X126367628Y-115416865D01*
X126365570Y-115412131D01*
X126239764Y-115217665D01*
X126083887Y-115046358D01*
X126079836Y-115043159D01*
X126079832Y-115043155D01*
X125907077Y-114906722D01*
X125866014Y-114848805D01*
X125862782Y-114777882D01*
X125898407Y-114716470D01*
X125912001Y-114705261D01*
X126032243Y-114619494D01*
X126196303Y-114456005D01*
X126331458Y-114267917D01*
X126372395Y-114185088D01*
X126431784Y-114064922D01*
X126431785Y-114064920D01*
X126434078Y-114060280D01*
X126501408Y-113838671D01*
X126531640Y-113609041D01*
X126531722Y-113605691D01*
X126533245Y-113543365D01*
X126533245Y-113543361D01*
X126533327Y-113540000D01*
X126521590Y-113397240D01*
X126514773Y-113314318D01*
X126514772Y-113314312D01*
X126514349Y-113309167D01*
X126486098Y-113196696D01*
X126459184Y-113089544D01*
X126459183Y-113089540D01*
X126457925Y-113084533D01*
X126450573Y-113067625D01*
X126367630Y-112876868D01*
X126367628Y-112876865D01*
X126365570Y-112872131D01*
X126239764Y-112677665D01*
X126083887Y-112506358D01*
X126079836Y-112503159D01*
X126079832Y-112503155D01*
X125907077Y-112366722D01*
X125866014Y-112308805D01*
X125862782Y-112237882D01*
X125898407Y-112176470D01*
X125912001Y-112165261D01*
X125915872Y-112162500D01*
X126032243Y-112079494D01*
X126196303Y-111916005D01*
X126331458Y-111727917D01*
X126335883Y-111718965D01*
X126431784Y-111524922D01*
X126431785Y-111524920D01*
X126434078Y-111520280D01*
X126501408Y-111298671D01*
X126531640Y-111069041D01*
X126531722Y-111065691D01*
X126533245Y-111003365D01*
X126533245Y-111003361D01*
X126533327Y-111000000D01*
X126521590Y-110857240D01*
X126514773Y-110774318D01*
X126514772Y-110774312D01*
X126514349Y-110769167D01*
X126473343Y-110605916D01*
X126459184Y-110549544D01*
X126459183Y-110549540D01*
X126457925Y-110544533D01*
X126450573Y-110527625D01*
X126367630Y-110336868D01*
X126367628Y-110336865D01*
X126365570Y-110332131D01*
X126239764Y-110137665D01*
X126083887Y-109966358D01*
X126079836Y-109963159D01*
X126079832Y-109963155D01*
X125907077Y-109826722D01*
X125866014Y-109768805D01*
X125862782Y-109697882D01*
X125898407Y-109636470D01*
X125912001Y-109625261D01*
X125915872Y-109622500D01*
X126032243Y-109539494D01*
X126196303Y-109376005D01*
X126331458Y-109187917D01*
X126378641Y-109092450D01*
X126431784Y-108984922D01*
X126431785Y-108984920D01*
X126434078Y-108980280D01*
X126501408Y-108758671D01*
X126531640Y-108529041D01*
X126531722Y-108525691D01*
X126533245Y-108463365D01*
X126533245Y-108463361D01*
X126533327Y-108460000D01*
X126521590Y-108317240D01*
X126514773Y-108234318D01*
X126514772Y-108234312D01*
X126514349Y-108229167D01*
X126472343Y-108061934D01*
X126459184Y-108009544D01*
X126459183Y-108009540D01*
X126457925Y-108004533D01*
X126450573Y-107987625D01*
X126367630Y-107796868D01*
X126367628Y-107796865D01*
X126365570Y-107792131D01*
X126239764Y-107597665D01*
X126083887Y-107426358D01*
X126079836Y-107423159D01*
X126079832Y-107423155D01*
X125907077Y-107286722D01*
X125866014Y-107228805D01*
X125862782Y-107157882D01*
X125898407Y-107096470D01*
X125912001Y-107085261D01*
X125917473Y-107081358D01*
X126032243Y-106999494D01*
X126196303Y-106836005D01*
X126331458Y-106647917D01*
X126351369Y-106607631D01*
X126431784Y-106444922D01*
X126431785Y-106444920D01*
X126434078Y-106440280D01*
X126501408Y-106218671D01*
X126531640Y-105989041D01*
X126531722Y-105985691D01*
X126533245Y-105923365D01*
X126533245Y-105923361D01*
X126533327Y-105920000D01*
X126521590Y-105777240D01*
X126514773Y-105694318D01*
X126514772Y-105694312D01*
X126514349Y-105689167D01*
X126486137Y-105576850D01*
X126459184Y-105469544D01*
X126459183Y-105469540D01*
X126457925Y-105464533D01*
X126450573Y-105447625D01*
X126367630Y-105256868D01*
X126367628Y-105256865D01*
X126365570Y-105252131D01*
X126239764Y-105057665D01*
X126083887Y-104886358D01*
X126079836Y-104883159D01*
X126079832Y-104883155D01*
X125907077Y-104746722D01*
X125866014Y-104688805D01*
X125862782Y-104617882D01*
X125898407Y-104556470D01*
X125912001Y-104545261D01*
X125915872Y-104542500D01*
X126032243Y-104459494D01*
X126196303Y-104296005D01*
X126213499Y-104272075D01*
X126270215Y-104193145D01*
X126331458Y-104107917D01*
X126378641Y-104012450D01*
X126431784Y-103904922D01*
X126431785Y-103904920D01*
X126434078Y-103900280D01*
X126501408Y-103678671D01*
X126531640Y-103449041D01*
X126531801Y-103442460D01*
X126533245Y-103383365D01*
X126533245Y-103383361D01*
X126533327Y-103380000D01*
X126521590Y-103237240D01*
X126514773Y-103154318D01*
X126514772Y-103154312D01*
X126514349Y-103149167D01*
X126486137Y-103036850D01*
X126459184Y-102929544D01*
X126459183Y-102929540D01*
X126457925Y-102924533D01*
X126450573Y-102907625D01*
X126367630Y-102716868D01*
X126367628Y-102716865D01*
X126365570Y-102712131D01*
X126239764Y-102517665D01*
X126083887Y-102346358D01*
X126079836Y-102343159D01*
X126079832Y-102343155D01*
X125907077Y-102206722D01*
X125866014Y-102148805D01*
X125862782Y-102077882D01*
X125898407Y-102016470D01*
X125912001Y-102005261D01*
X125917406Y-102001406D01*
X126032243Y-101919494D01*
X126196303Y-101756005D01*
X126212733Y-101733141D01*
X126239936Y-101695283D01*
X126331458Y-101567917D01*
X126333879Y-101563020D01*
X126431784Y-101364922D01*
X126431785Y-101364920D01*
X126434078Y-101360280D01*
X126501408Y-101138671D01*
X126531640Y-100909041D01*
X126531723Y-100905663D01*
X126533245Y-100843365D01*
X126533245Y-100843361D01*
X126533327Y-100840000D01*
X126521590Y-100697240D01*
X126514773Y-100614318D01*
X126514772Y-100614312D01*
X126514349Y-100609167D01*
X126480797Y-100475592D01*
X126459184Y-100389544D01*
X126459183Y-100389540D01*
X126457925Y-100384533D01*
X126446017Y-100357146D01*
X126367630Y-100176868D01*
X126367628Y-100176865D01*
X126365570Y-100172131D01*
X126239764Y-99977665D01*
X126235387Y-99972854D01*
X126173232Y-99904547D01*
X126083887Y-99806358D01*
X126079836Y-99803159D01*
X126079832Y-99803155D01*
X125907077Y-99666722D01*
X125866014Y-99608805D01*
X125862782Y-99537882D01*
X125898407Y-99476470D01*
X125912001Y-99465261D01*
X125915872Y-99462500D01*
X126032243Y-99379494D01*
X126196303Y-99216005D01*
X126331458Y-99027917D01*
X126348387Y-98993665D01*
X126431784Y-98824922D01*
X126431785Y-98824920D01*
X126434078Y-98820280D01*
X126501408Y-98598671D01*
X126531640Y-98369041D01*
X126531871Y-98359588D01*
X126533245Y-98303365D01*
X126533245Y-98303361D01*
X126533327Y-98300000D01*
X126525162Y-98200687D01*
X126514773Y-98074318D01*
X126514772Y-98074312D01*
X126514349Y-98069167D01*
X126484762Y-97951375D01*
X126459184Y-97849544D01*
X126459183Y-97849540D01*
X126457925Y-97844533D01*
X126450573Y-97827625D01*
X126367630Y-97636868D01*
X126367628Y-97636865D01*
X126365570Y-97632131D01*
X126239764Y-97437665D01*
X126229759Y-97426669D01*
X126161630Y-97351797D01*
X126083887Y-97266358D01*
X126079836Y-97263159D01*
X126079832Y-97263155D01*
X125906669Y-97126400D01*
X125865606Y-97068483D01*
X125862374Y-96997560D01*
X125897999Y-96936148D01*
X125903487Y-96931623D01*
X125913497Y-96918874D01*
X125906510Y-96905721D01*
X125132811Y-96132021D01*
X125118868Y-96124408D01*
X125117034Y-96124539D01*
X125110420Y-96128790D01*
X124330180Y-96909031D01*
X124323423Y-96921406D01*
X124342730Y-96947197D01*
X124342040Y-96947713D01*
X124366627Y-96973737D01*
X124379743Y-97043511D01*
X124353055Y-97109300D01*
X124330023Y-97131719D01*
X124181655Y-97243117D01*
X124021639Y-97410564D01*
X124018725Y-97414836D01*
X124018724Y-97414837D01*
X123894036Y-97597623D01*
X123891119Y-97601899D01*
X123890403Y-97603442D01*
X123840086Y-97652090D01*
X123781574Y-97666500D01*
X111216359Y-97666500D01*
X111148238Y-97646498D01*
X111110567Y-97608940D01*
X111109045Y-97606587D01*
X110999764Y-97437665D01*
X110989759Y-97426669D01*
X110921630Y-97351797D01*
X110843887Y-97266358D01*
X110839836Y-97263159D01*
X110839832Y-97263155D01*
X110667077Y-97126722D01*
X110626014Y-97068805D01*
X110622782Y-96997882D01*
X110658407Y-96936470D01*
X110672001Y-96925261D01*
X110677406Y-96921406D01*
X110792243Y-96839494D01*
X110956303Y-96676005D01*
X111091458Y-96487917D01*
X111093879Y-96483020D01*
X111191784Y-96284922D01*
X111191785Y-96284920D01*
X111194078Y-96280280D01*
X111261408Y-96058671D01*
X111291640Y-95829041D01*
X111291871Y-95819588D01*
X111293245Y-95763365D01*
X111293245Y-95763361D01*
X111293327Y-95760000D01*
X111290913Y-95730638D01*
X123707893Y-95730638D01*
X123720627Y-95951468D01*
X123722061Y-95961670D01*
X123770685Y-96177439D01*
X123773773Y-96187292D01*
X123856986Y-96392220D01*
X123861634Y-96401421D01*
X123950097Y-96545781D01*
X123960553Y-96555242D01*
X123969331Y-96551458D01*
X124747979Y-95772811D01*
X124754356Y-95761132D01*
X125484408Y-95761132D01*
X125484539Y-95762966D01*
X125488790Y-95769580D01*
X126266307Y-96547096D01*
X126278313Y-96553652D01*
X126290052Y-96544684D01*
X126328010Y-96491859D01*
X126333321Y-96483020D01*
X126431318Y-96284737D01*
X126435117Y-96275142D01*
X126499415Y-96063517D01*
X126501594Y-96053436D01*
X126530702Y-95832338D01*
X126531221Y-95825663D01*
X126532744Y-95763364D01*
X126532550Y-95756646D01*
X126514279Y-95534400D01*
X126512596Y-95524238D01*
X126458710Y-95309708D01*
X126455389Y-95299953D01*
X126367193Y-95097118D01*
X126362315Y-95088020D01*
X126289224Y-94975038D01*
X126278538Y-94965835D01*
X126268973Y-94970238D01*
X125492021Y-95747189D01*
X125484408Y-95761132D01*
X124754356Y-95761132D01*
X124755592Y-95758868D01*
X124755461Y-95757034D01*
X124751210Y-95750420D01*
X123973862Y-94973073D01*
X123962330Y-94966776D01*
X123950048Y-94976399D01*
X123894467Y-95057877D01*
X123889379Y-95066833D01*
X123796252Y-95267459D01*
X123792689Y-95277146D01*
X123733581Y-95490280D01*
X123731650Y-95500400D01*
X123708145Y-95720349D01*
X123707893Y-95730638D01*
X111290913Y-95730638D01*
X111286547Y-95677529D01*
X111274773Y-95534318D01*
X111274772Y-95534312D01*
X111274349Y-95529167D01*
X111244762Y-95411375D01*
X111219184Y-95309544D01*
X111219183Y-95309540D01*
X111217925Y-95304533D01*
X111206017Y-95277146D01*
X111127630Y-95096868D01*
X111127628Y-95096865D01*
X111125570Y-95092131D01*
X110999764Y-94897665D01*
X110944234Y-94836638D01*
X110909848Y-94798848D01*
X110878796Y-94735002D01*
X110887192Y-94664504D01*
X110932369Y-94609736D01*
X110958812Y-94596067D01*
X111018297Y-94573767D01*
X111026705Y-94570615D01*
X111143261Y-94483261D01*
X111230615Y-94366705D01*
X111281745Y-94230316D01*
X111288500Y-94168134D01*
X111288500Y-93185469D01*
X123707095Y-93185469D01*
X123707392Y-93190622D01*
X123707392Y-93190625D01*
X123716475Y-93348149D01*
X123720427Y-93416697D01*
X123721564Y-93421743D01*
X123721565Y-93421749D01*
X123746347Y-93531715D01*
X123771346Y-93642642D01*
X123773288Y-93647424D01*
X123773289Y-93647428D01*
X123848606Y-93832910D01*
X123858484Y-93857237D01*
X123979501Y-94054719D01*
X124131147Y-94229784D01*
X124309349Y-94377730D01*
X124313814Y-94380339D01*
X124317979Y-94382773D01*
X124366700Y-94434414D01*
X124379767Y-94504198D01*
X124353033Y-94569968D01*
X124336323Y-94586221D01*
X124325508Y-94600711D01*
X124332251Y-94613040D01*
X125107189Y-95387979D01*
X125121132Y-95395592D01*
X125122966Y-95395461D01*
X125129580Y-95391210D01*
X125908994Y-94611795D01*
X125916011Y-94598944D01*
X125908237Y-94588275D01*
X125906655Y-94587025D01*
X125865592Y-94529109D01*
X125862359Y-94458186D01*
X125897983Y-94396774D01*
X125911578Y-94385563D01*
X125938016Y-94366705D01*
X126032243Y-94299494D01*
X126196303Y-94136005D01*
X126331458Y-93947917D01*
X126378641Y-93852450D01*
X126431784Y-93744922D01*
X126431785Y-93744920D01*
X126434078Y-93740280D01*
X126501408Y-93518671D01*
X126531640Y-93289041D01*
X126531797Y-93282607D01*
X126533245Y-93223365D01*
X126533245Y-93223361D01*
X126533327Y-93220000D01*
X126523761Y-93103649D01*
X126514773Y-92994318D01*
X126514772Y-92994312D01*
X126514349Y-92989167D01*
X126482570Y-92862649D01*
X126459184Y-92769544D01*
X126459183Y-92769540D01*
X126457925Y-92764533D01*
X126450573Y-92747625D01*
X126367630Y-92556868D01*
X126367628Y-92556865D01*
X126365570Y-92552131D01*
X126239764Y-92357665D01*
X126234378Y-92351745D01*
X126112260Y-92217540D01*
X126083887Y-92186358D01*
X126079836Y-92183159D01*
X126079832Y-92183155D01*
X125906177Y-92046011D01*
X125906172Y-92046008D01*
X125902123Y-92042810D01*
X125897607Y-92040317D01*
X125897604Y-92040315D01*
X125703879Y-91933373D01*
X125703875Y-91933371D01*
X125699355Y-91930876D01*
X125694486Y-91929152D01*
X125694482Y-91929150D01*
X125485903Y-91855288D01*
X125485899Y-91855287D01*
X125481028Y-91853562D01*
X125475935Y-91852655D01*
X125475932Y-91852654D01*
X125258095Y-91813851D01*
X125258089Y-91813850D01*
X125253006Y-91812945D01*
X125180096Y-91812054D01*
X125026581Y-91810179D01*
X125026579Y-91810179D01*
X125021411Y-91810116D01*
X124792464Y-91845150D01*
X124572314Y-91917106D01*
X124567726Y-91919494D01*
X124567722Y-91919496D01*
X124371461Y-92021663D01*
X124366872Y-92024052D01*
X124362739Y-92027155D01*
X124362736Y-92027157D01*
X124185790Y-92160012D01*
X124181655Y-92163117D01*
X124021639Y-92330564D01*
X124018725Y-92334836D01*
X124018724Y-92334837D01*
X124003221Y-92357564D01*
X123891119Y-92521899D01*
X123793602Y-92731981D01*
X123731707Y-92955169D01*
X123707095Y-93185469D01*
X111288500Y-93185469D01*
X111288500Y-92271866D01*
X111281745Y-92209684D01*
X111230615Y-92073295D01*
X111143261Y-91956739D01*
X111026705Y-91869385D01*
X110890316Y-91818255D01*
X110828134Y-91811500D01*
X108931866Y-91811500D01*
X108869684Y-91818255D01*
X108733295Y-91869385D01*
X108616739Y-91956739D01*
X108529385Y-92073295D01*
X108478255Y-92209684D01*
X108471500Y-92271866D01*
X108471500Y-94168134D01*
X108478255Y-94230316D01*
X108529385Y-94366705D01*
X108616739Y-94483261D01*
X108733295Y-94570615D01*
X108741704Y-94573767D01*
X108741705Y-94573768D01*
X108801164Y-94596058D01*
X108857929Y-94638699D01*
X108882629Y-94705261D01*
X108867422Y-94774609D01*
X108848029Y-94801091D01*
X108781639Y-94870564D01*
X108778725Y-94874836D01*
X108778724Y-94874837D01*
X108763152Y-94897665D01*
X108651119Y-95061899D01*
X108553602Y-95271981D01*
X108491707Y-95495169D01*
X108467095Y-95725469D01*
X108467392Y-95730622D01*
X108467392Y-95730625D01*
X108480129Y-95951529D01*
X108480427Y-95956697D01*
X108481564Y-95961743D01*
X108481565Y-95961749D01*
X108513741Y-96104523D01*
X108531346Y-96182642D01*
X108533288Y-96187424D01*
X108533289Y-96187428D01*
X108616447Y-96392220D01*
X108618484Y-96397237D01*
X108739501Y-96594719D01*
X108891147Y-96769784D01*
X109069349Y-96917730D01*
X109073819Y-96920342D01*
X109077511Y-96922500D01*
X109126232Y-96974140D01*
X109139301Y-97043924D01*
X109112566Y-97109694D01*
X109089589Y-97132045D01*
X108941655Y-97243117D01*
X108781639Y-97410564D01*
X108778725Y-97414836D01*
X108778724Y-97414837D01*
X108763152Y-97437665D01*
X108651119Y-97601899D01*
X108553602Y-97811981D01*
X108491707Y-98035169D01*
X108467095Y-98265469D01*
X108467392Y-98270622D01*
X108467392Y-98270625D01*
X108477685Y-98449144D01*
X108480427Y-98496697D01*
X108481564Y-98501743D01*
X108481565Y-98501749D01*
X108508949Y-98623261D01*
X108531346Y-98722642D01*
X108533288Y-98727424D01*
X108533289Y-98727428D01*
X108612405Y-98922266D01*
X108618484Y-98937237D01*
X108739501Y-99134719D01*
X108891147Y-99309784D01*
X109069349Y-99457730D01*
X109073814Y-99460339D01*
X109077979Y-99462773D01*
X109126700Y-99514414D01*
X109139767Y-99584198D01*
X109113033Y-99649968D01*
X109096323Y-99666221D01*
X109085508Y-99680711D01*
X109092251Y-99693040D01*
X109867189Y-100467979D01*
X109881132Y-100475592D01*
X109882966Y-100475461D01*
X109889580Y-100471210D01*
X110668994Y-99691795D01*
X110676011Y-99678944D01*
X110668237Y-99668275D01*
X110666655Y-99667025D01*
X110625592Y-99609109D01*
X110622359Y-99538186D01*
X110657983Y-99476774D01*
X110671578Y-99465563D01*
X110687193Y-99454425D01*
X110792243Y-99379494D01*
X110956303Y-99216005D01*
X111091458Y-99027917D01*
X111103440Y-99003672D01*
X111151553Y-98951466D01*
X111216397Y-98933500D01*
X123785630Y-98933500D01*
X123853751Y-98953502D01*
X123893063Y-98993665D01*
X123925551Y-99046680D01*
X123979501Y-99134719D01*
X124131147Y-99309784D01*
X124309349Y-99457730D01*
X124313819Y-99460342D01*
X124317511Y-99462500D01*
X124366232Y-99514140D01*
X124379301Y-99583924D01*
X124352566Y-99649694D01*
X124329589Y-99672045D01*
X124315741Y-99682442D01*
X124233316Y-99744329D01*
X124181655Y-99783117D01*
X124021639Y-99950564D01*
X124018725Y-99954836D01*
X124018724Y-99954837D01*
X123976531Y-100016690D01*
X123891119Y-100141899D01*
X123793602Y-100351981D01*
X123731707Y-100575169D01*
X123707095Y-100805469D01*
X123707392Y-100810622D01*
X123707392Y-100810625D01*
X123720129Y-101031529D01*
X123720427Y-101036697D01*
X123721564Y-101041743D01*
X123721565Y-101041749D01*
X123753741Y-101184523D01*
X123771346Y-101262642D01*
X123773288Y-101267424D01*
X123773289Y-101267428D01*
X123856447Y-101472220D01*
X123858484Y-101477237D01*
X123979501Y-101674719D01*
X124131147Y-101849784D01*
X124309349Y-101997730D01*
X124313819Y-102000342D01*
X124317511Y-102002500D01*
X124366232Y-102054140D01*
X124379301Y-102123924D01*
X124352566Y-102189694D01*
X124329589Y-102212045D01*
X124181655Y-102323117D01*
X124021639Y-102490564D01*
X124018725Y-102494836D01*
X124018724Y-102494837D01*
X124003152Y-102517665D01*
X123891119Y-102681899D01*
X123793602Y-102891981D01*
X123731707Y-103115169D01*
X123707095Y-103345469D01*
X123707392Y-103350622D01*
X123707392Y-103350625D01*
X123713067Y-103449041D01*
X123720427Y-103576697D01*
X123721564Y-103581743D01*
X123721565Y-103581749D01*
X123747331Y-103696081D01*
X123771346Y-103802642D01*
X123773288Y-103807424D01*
X123773289Y-103807428D01*
X123856540Y-104012450D01*
X123858484Y-104017237D01*
X123979501Y-104214719D01*
X124131147Y-104389784D01*
X124309349Y-104537730D01*
X124313819Y-104540342D01*
X124317511Y-104542500D01*
X124366232Y-104594140D01*
X124379301Y-104663924D01*
X124352566Y-104729694D01*
X124329589Y-104752045D01*
X124310077Y-104766695D01*
X124207784Y-104843499D01*
X124181655Y-104863117D01*
X124021639Y-105030564D01*
X124018725Y-105034836D01*
X124018724Y-105034837D01*
X124003152Y-105057665D01*
X123891119Y-105221899D01*
X123793602Y-105431981D01*
X123731707Y-105655169D01*
X123707095Y-105885469D01*
X123707392Y-105890622D01*
X123707392Y-105890625D01*
X123713067Y-105989041D01*
X123720427Y-106116697D01*
X123721564Y-106121743D01*
X123721565Y-106121749D01*
X123753741Y-106264523D01*
X123771346Y-106342642D01*
X123773288Y-106347424D01*
X123773289Y-106347428D01*
X123853428Y-106544786D01*
X123858484Y-106557237D01*
X123979501Y-106754719D01*
X124131147Y-106929784D01*
X124309349Y-107077730D01*
X124313819Y-107080342D01*
X124317511Y-107082500D01*
X124366232Y-107134140D01*
X124379301Y-107203924D01*
X124352566Y-107269694D01*
X124329589Y-107292045D01*
X124310077Y-107306695D01*
X124187846Y-107398469D01*
X124181655Y-107403117D01*
X124021639Y-107570564D01*
X124018725Y-107574836D01*
X124018724Y-107574837D01*
X124003152Y-107597665D01*
X123891119Y-107761899D01*
X123793602Y-107971981D01*
X123731707Y-108195169D01*
X123707095Y-108425469D01*
X123707392Y-108430622D01*
X123707392Y-108430625D01*
X123717838Y-108611797D01*
X123720427Y-108656697D01*
X123721564Y-108661743D01*
X123721565Y-108661749D01*
X123753741Y-108804523D01*
X123771346Y-108882642D01*
X123773288Y-108887424D01*
X123773289Y-108887428D01*
X123853059Y-109083877D01*
X123858484Y-109097237D01*
X123979501Y-109294719D01*
X124131147Y-109469784D01*
X124309349Y-109617730D01*
X124313819Y-109620342D01*
X124317511Y-109622500D01*
X124366232Y-109674140D01*
X124379301Y-109743924D01*
X124352566Y-109809694D01*
X124329589Y-109832045D01*
X124310101Y-109846677D01*
X124217608Y-109916123D01*
X124181655Y-109943117D01*
X124021639Y-110110564D01*
X124018725Y-110114836D01*
X124018724Y-110114837D01*
X123986109Y-110162649D01*
X123891119Y-110301899D01*
X123793602Y-110511981D01*
X123731707Y-110735169D01*
X123707095Y-110965469D01*
X123707392Y-110970622D01*
X123707392Y-110970625D01*
X123719087Y-111173452D01*
X123720427Y-111196697D01*
X123721564Y-111201743D01*
X123721565Y-111201749D01*
X123751972Y-111336672D01*
X123771346Y-111422642D01*
X123773288Y-111427424D01*
X123773289Y-111427428D01*
X123856540Y-111632450D01*
X123858484Y-111637237D01*
X123979501Y-111834719D01*
X124131147Y-112009784D01*
X124309349Y-112157730D01*
X124313819Y-112160342D01*
X124317511Y-112162500D01*
X124366232Y-112214140D01*
X124379301Y-112283924D01*
X124352566Y-112349694D01*
X124329589Y-112372045D01*
X124181655Y-112483117D01*
X124021639Y-112650564D01*
X124018725Y-112654836D01*
X124018724Y-112654837D01*
X123979032Y-112713023D01*
X123891119Y-112841899D01*
X123793602Y-113051981D01*
X123772998Y-113126277D01*
X123752644Y-113199672D01*
X123715165Y-113259970D01*
X123651036Y-113290433D01*
X123631226Y-113292000D01*
X117772115Y-113292000D01*
X117756876Y-113296475D01*
X117755671Y-113297865D01*
X117754000Y-113305548D01*
X117754000Y-124039884D01*
X117758475Y-124055123D01*
X117759865Y-124056328D01*
X117767548Y-124057999D01*
X123644682Y-124057999D01*
X123653188Y-124057538D01*
X123722291Y-124073824D01*
X123771620Y-124124885D01*
X123776745Y-124135939D01*
X123858484Y-124337237D01*
X123979501Y-124534719D01*
X124131147Y-124709784D01*
X124309349Y-124857730D01*
X124313819Y-124860342D01*
X124317511Y-124862500D01*
X124366232Y-124914140D01*
X124379301Y-124983924D01*
X124352566Y-125049694D01*
X124329589Y-125072045D01*
X124181655Y-125183117D01*
X124021639Y-125350564D01*
X124018725Y-125354836D01*
X124018724Y-125354837D01*
X123979032Y-125413023D01*
X123891119Y-125541899D01*
X123793602Y-125751981D01*
X123731707Y-125975169D01*
X123707095Y-126205469D01*
X123707392Y-126210622D01*
X123707392Y-126210625D01*
X123713067Y-126309041D01*
X123720427Y-126436697D01*
X123721564Y-126441743D01*
X123721565Y-126441749D01*
X123752013Y-126576857D01*
X123771346Y-126662642D01*
X123773288Y-126667424D01*
X123773289Y-126667428D01*
X123842039Y-126836739D01*
X123858484Y-126877237D01*
X123979501Y-127074719D01*
X124131147Y-127249784D01*
X124309349Y-127397730D01*
X124313819Y-127400342D01*
X124317511Y-127402500D01*
X124366232Y-127454140D01*
X124379301Y-127523924D01*
X124352566Y-127589694D01*
X124329589Y-127612045D01*
X124181655Y-127723117D01*
X124021639Y-127890564D01*
X124018725Y-127894836D01*
X124018724Y-127894837D01*
X123979032Y-127953023D01*
X123891119Y-128081899D01*
X123793602Y-128291981D01*
X123731707Y-128515169D01*
X123707095Y-128745469D01*
X123707392Y-128750622D01*
X123707392Y-128750625D01*
X123717687Y-128929174D01*
X123720427Y-128976697D01*
X123721564Y-128981743D01*
X123721565Y-128981749D01*
X123749339Y-129104991D01*
X123771346Y-129202642D01*
X123773288Y-129207424D01*
X123773289Y-129207428D01*
X123818227Y-129318096D01*
X123825323Y-129388737D01*
X123793101Y-129452000D01*
X123731792Y-129487801D01*
X123701484Y-129491500D01*
X123019925Y-129491500D01*
X122951804Y-129471498D01*
X122930830Y-129454595D01*
X121756855Y-128280621D01*
X121747753Y-128270478D01*
X121727897Y-128245782D01*
X121724032Y-128240975D01*
X121685578Y-128208708D01*
X121681931Y-128205528D01*
X121680119Y-128203885D01*
X121677925Y-128201691D01*
X121644651Y-128174358D01*
X121643853Y-128173696D01*
X121572526Y-128113846D01*
X121567856Y-128111278D01*
X121563739Y-128107897D01*
X121505855Y-128076860D01*
X121481914Y-128064023D01*
X121480755Y-128063394D01*
X121413800Y-128026586D01*
X121363741Y-127976241D01*
X121348500Y-127916171D01*
X121348500Y-127151866D01*
X121341745Y-127089684D01*
X121290615Y-126953295D01*
X121203261Y-126836739D01*
X121086705Y-126749385D01*
X120950316Y-126698255D01*
X120888134Y-126691500D01*
X119191866Y-126691500D01*
X119129684Y-126698255D01*
X118993295Y-126749385D01*
X118876739Y-126836739D01*
X118789385Y-126953295D01*
X118738255Y-127089684D01*
X118731500Y-127151866D01*
X118731500Y-130748134D01*
X118738255Y-130810316D01*
X118789385Y-130946705D01*
X118876739Y-131063261D01*
X118993295Y-131150615D01*
X119129684Y-131201745D01*
X119191866Y-131208500D01*
X120888134Y-131208500D01*
X120950316Y-131201745D01*
X121086705Y-131150615D01*
X121203261Y-131063261D01*
X121290615Y-130946705D01*
X121293769Y-130938293D01*
X121298226Y-130926404D01*
X121340866Y-130869639D01*
X121407428Y-130844938D01*
X121476777Y-130860145D01*
X121505303Y-130881537D01*
X121793145Y-131169379D01*
X121802247Y-131179522D01*
X121820801Y-131202598D01*
X121825968Y-131209025D01*
X121856905Y-131234984D01*
X121864421Y-131241291D01*
X121868069Y-131244472D01*
X121869881Y-131246115D01*
X121872075Y-131248309D01*
X121905349Y-131275642D01*
X121906147Y-131276304D01*
X121977474Y-131336154D01*
X121982144Y-131338722D01*
X121986261Y-131342103D01*
X122033925Y-131367660D01*
X122068086Y-131385977D01*
X122069245Y-131386606D01*
X122145381Y-131428462D01*
X122145389Y-131428465D01*
X122150787Y-131431433D01*
X122155869Y-131433045D01*
X122160563Y-131435562D01*
X122249531Y-131462762D01*
X122250559Y-131463082D01*
X122339306Y-131491235D01*
X122344602Y-131491829D01*
X122349698Y-131493387D01*
X122442257Y-131502790D01*
X122443393Y-131502911D01*
X122477008Y-131506681D01*
X122489730Y-131508108D01*
X122489734Y-131508108D01*
X122493227Y-131508500D01*
X122496754Y-131508500D01*
X122497739Y-131508555D01*
X122503419Y-131509002D01*
X122532825Y-131511989D01*
X122540337Y-131512752D01*
X122540339Y-131512752D01*
X122546462Y-131513374D01*
X122592108Y-131509059D01*
X122603967Y-131508500D01*
X125838157Y-131508500D01*
X125851764Y-131509237D01*
X125883262Y-131512659D01*
X125883267Y-131512659D01*
X125889388Y-131513324D01*
X125915638Y-131511027D01*
X125939388Y-131508950D01*
X125944214Y-131508621D01*
X125946686Y-131508500D01*
X125949769Y-131508500D01*
X125961738Y-131507326D01*
X125992506Y-131504310D01*
X125993819Y-131504188D01*
X126038084Y-131500315D01*
X126086413Y-131496087D01*
X126091532Y-131494600D01*
X126096833Y-131494080D01*
X126185834Y-131467209D01*
X126186967Y-131466874D01*
X126270414Y-131442630D01*
X126270418Y-131442628D01*
X126276336Y-131440909D01*
X126281068Y-131438456D01*
X126286169Y-131436916D01*
X126293173Y-131433192D01*
X126368260Y-131393269D01*
X126369426Y-131392657D01*
X126446453Y-131352729D01*
X126451926Y-131349892D01*
X126456089Y-131346569D01*
X126460796Y-131344066D01*
X126532918Y-131285245D01*
X126533774Y-131284554D01*
X126572973Y-131253262D01*
X126575477Y-131250758D01*
X126576195Y-131250116D01*
X126580528Y-131246415D01*
X126614062Y-131219065D01*
X126620421Y-131211379D01*
X126643287Y-131183738D01*
X126651277Y-131174958D01*
X128669384Y-129156851D01*
X128679527Y-129147749D01*
X128704218Y-129127897D01*
X128709025Y-129124032D01*
X128741312Y-129085554D01*
X128744467Y-129081938D01*
X128746123Y-129080112D01*
X128748309Y-129077926D01*
X128750264Y-129075546D01*
X128750273Y-129075536D01*
X128775576Y-129044732D01*
X128776418Y-129043717D01*
X128818665Y-128993368D01*
X128836154Y-128972526D01*
X128838723Y-128967852D01*
X128842102Y-128963739D01*
X128885975Y-128881915D01*
X128886584Y-128880793D01*
X128928464Y-128804614D01*
X128928465Y-128804612D01*
X128931433Y-128799213D01*
X128933045Y-128794131D01*
X128935562Y-128789437D01*
X128962762Y-128700469D01*
X128963108Y-128699358D01*
X128963689Y-128697529D01*
X128991235Y-128610694D01*
X128991829Y-128605398D01*
X128993387Y-128600302D01*
X129002785Y-128507778D01*
X129002905Y-128506658D01*
X129007130Y-128468990D01*
X129008108Y-128460270D01*
X129008108Y-128460266D01*
X129008500Y-128456773D01*
X129008500Y-128453246D01*
X129008556Y-128452243D01*
X129009003Y-128446559D01*
X129011585Y-128421143D01*
X129012751Y-128409664D01*
X129012751Y-128409662D01*
X129013373Y-128403538D01*
X129009059Y-128357899D01*
X129008500Y-128346043D01*
X129008500Y-109198134D01*
X129891500Y-109198134D01*
X129898255Y-109260316D01*
X129949385Y-109396705D01*
X130036739Y-109513261D01*
X130153295Y-109600615D01*
X130161704Y-109603767D01*
X130161705Y-109603768D01*
X130270960Y-109644726D01*
X130327725Y-109687367D01*
X130352425Y-109753929D01*
X130337218Y-109823278D01*
X130317825Y-109849759D01*
X130194590Y-109978717D01*
X130188104Y-109986727D01*
X130068098Y-110162649D01*
X130063000Y-110171623D01*
X129973338Y-110364783D01*
X129969775Y-110374470D01*
X129914389Y-110574183D01*
X129915912Y-110582607D01*
X129928292Y-110586000D01*
X132568344Y-110586000D01*
X132581875Y-110582027D01*
X132583180Y-110572947D01*
X132541214Y-110405875D01*
X132537894Y-110396124D01*
X132452972Y-110200814D01*
X132448105Y-110191739D01*
X132332426Y-110012926D01*
X132326136Y-110004757D01*
X132182293Y-109846677D01*
X132151241Y-109782831D01*
X132159635Y-109712333D01*
X132204812Y-109657564D01*
X132231256Y-109643895D01*
X132338297Y-109603767D01*
X132346705Y-109600615D01*
X132463261Y-109513261D01*
X132550615Y-109396705D01*
X132601745Y-109260316D01*
X132608500Y-109198134D01*
X132608500Y-107401866D01*
X132601745Y-107339684D01*
X132550615Y-107203295D01*
X132463261Y-107086739D01*
X132346705Y-106999385D01*
X132210316Y-106948255D01*
X132148134Y-106941500D01*
X130351866Y-106941500D01*
X130289684Y-106948255D01*
X130153295Y-106999385D01*
X130036739Y-107086739D01*
X129949385Y-107203295D01*
X129898255Y-107339684D01*
X129891500Y-107401866D01*
X129891500Y-109198134D01*
X129008500Y-109198134D01*
X129008500Y-105419925D01*
X129028502Y-105351804D01*
X129045405Y-105330830D01*
X130490829Y-103885405D01*
X130553141Y-103851380D01*
X130579924Y-103848500D01*
X132848134Y-103848500D01*
X132910316Y-103841745D01*
X133046705Y-103790615D01*
X133163261Y-103703261D01*
X133250615Y-103586705D01*
X133301745Y-103450316D01*
X133308500Y-103388134D01*
X133308500Y-101691866D01*
X133301745Y-101629684D01*
X133250615Y-101493295D01*
X133163261Y-101376739D01*
X133046705Y-101289385D01*
X132910316Y-101238255D01*
X132848134Y-101231500D01*
X131219924Y-101231500D01*
X131151803Y-101211498D01*
X131130829Y-101194595D01*
X128895405Y-98959171D01*
X128861379Y-98896859D01*
X128858500Y-98870076D01*
X128858500Y-98815148D01*
X128878502Y-98747027D01*
X128932158Y-98700534D01*
X129002432Y-98690430D01*
X129045008Y-98704628D01*
X129046116Y-98705234D01*
X129053295Y-98710615D01*
X129189684Y-98761745D01*
X129251866Y-98768500D01*
X131293629Y-98768500D01*
X131361750Y-98788502D01*
X131382724Y-98805405D01*
X134204595Y-101627276D01*
X134238621Y-101689588D01*
X134241500Y-101716371D01*
X134241500Y-129133629D01*
X134221498Y-129201750D01*
X134204595Y-129222724D01*
X132721647Y-130705672D01*
X132659335Y-130739698D01*
X132588520Y-130734633D01*
X132531684Y-130692086D01*
X132517003Y-130666820D01*
X132453419Y-130520590D01*
X132451354Y-130515840D01*
X132330014Y-130328277D01*
X132179670Y-130163051D01*
X132175619Y-130159852D01*
X132175615Y-130159848D01*
X132008414Y-130027800D01*
X132008410Y-130027798D01*
X132004359Y-130024598D01*
X131963053Y-130001796D01*
X131913084Y-129951364D01*
X131898312Y-129881921D01*
X131923428Y-129815516D01*
X131950780Y-129788909D01*
X132017876Y-129741050D01*
X132129860Y-129661173D01*
X132157769Y-129633362D01*
X132284435Y-129507137D01*
X132288096Y-129503489D01*
X132325095Y-129452000D01*
X132415435Y-129326277D01*
X132418453Y-129322077D01*
X132426932Y-129304922D01*
X132515136Y-129126453D01*
X132515137Y-129126451D01*
X132517430Y-129121811D01*
X132550631Y-129012534D01*
X132580865Y-128913023D01*
X132580865Y-128913021D01*
X132582370Y-128908069D01*
X132611529Y-128686590D01*
X132612735Y-128637240D01*
X132613074Y-128623365D01*
X132613074Y-128623361D01*
X132613156Y-128620000D01*
X132594852Y-128397361D01*
X132540431Y-128180702D01*
X132451354Y-127975840D01*
X132398951Y-127894837D01*
X132332822Y-127792617D01*
X132332820Y-127792614D01*
X132330014Y-127788277D01*
X132179670Y-127623051D01*
X132175619Y-127619852D01*
X132175615Y-127619848D01*
X132008414Y-127487800D01*
X132008410Y-127487798D01*
X132004359Y-127484598D01*
X131963053Y-127461796D01*
X131913084Y-127411364D01*
X131898312Y-127341921D01*
X131923428Y-127275516D01*
X131950780Y-127248909D01*
X131996981Y-127215954D01*
X132129860Y-127121173D01*
X132288096Y-126963489D01*
X132346910Y-126881641D01*
X132415435Y-126786277D01*
X132418453Y-126782077D01*
X132426932Y-126764922D01*
X132515136Y-126586453D01*
X132515137Y-126586451D01*
X132517430Y-126581811D01*
X132575967Y-126389144D01*
X132580865Y-126373023D01*
X132580865Y-126373021D01*
X132582370Y-126368069D01*
X132611529Y-126146590D01*
X132612735Y-126097240D01*
X132613074Y-126083365D01*
X132613074Y-126083361D01*
X132613156Y-126080000D01*
X132594852Y-125857361D01*
X132540431Y-125640702D01*
X132451354Y-125435840D01*
X132398951Y-125354837D01*
X132332822Y-125252617D01*
X132332820Y-125252614D01*
X132330014Y-125248277D01*
X132179670Y-125083051D01*
X132175619Y-125079852D01*
X132175615Y-125079848D01*
X132008414Y-124947800D01*
X132008410Y-124947798D01*
X132004359Y-124944598D01*
X131963053Y-124921796D01*
X131913084Y-124871364D01*
X131898312Y-124801921D01*
X131923428Y-124735516D01*
X131950780Y-124708909D01*
X131996981Y-124675954D01*
X132129860Y-124581173D01*
X132288096Y-124423489D01*
X132346910Y-124341641D01*
X132415435Y-124246277D01*
X132418453Y-124242077D01*
X132426932Y-124224922D01*
X132515136Y-124046453D01*
X132515137Y-124046451D01*
X132517430Y-124041811D01*
X132576746Y-123846579D01*
X132580865Y-123833023D01*
X132580865Y-123833021D01*
X132582370Y-123828069D01*
X132611529Y-123606590D01*
X132612420Y-123570115D01*
X132613074Y-123543365D01*
X132613074Y-123543361D01*
X132613156Y-123540000D01*
X132594852Y-123317361D01*
X132540431Y-123100702D01*
X132451354Y-122895840D01*
X132398951Y-122814837D01*
X132332822Y-122712617D01*
X132332820Y-122712614D01*
X132330014Y-122708277D01*
X132179670Y-122543051D01*
X132175619Y-122539852D01*
X132175615Y-122539848D01*
X132008414Y-122407800D01*
X132008410Y-122407798D01*
X132004359Y-122404598D01*
X131963053Y-122381796D01*
X131913084Y-122331364D01*
X131898312Y-122261921D01*
X131923428Y-122195516D01*
X131950780Y-122168909D01*
X131996981Y-122135954D01*
X132129860Y-122041173D01*
X132288096Y-121883489D01*
X132346910Y-121801641D01*
X132415435Y-121706277D01*
X132418453Y-121702077D01*
X132426932Y-121684922D01*
X132515136Y-121506453D01*
X132515137Y-121506451D01*
X132517430Y-121501811D01*
X132575967Y-121309144D01*
X132580865Y-121293023D01*
X132580865Y-121293021D01*
X132582370Y-121288069D01*
X132611529Y-121066590D01*
X132612735Y-121017240D01*
X132613074Y-121003365D01*
X132613074Y-121003361D01*
X132613156Y-121000000D01*
X132594852Y-120777361D01*
X132540431Y-120560702D01*
X132451354Y-120355840D01*
X132398951Y-120274837D01*
X132332822Y-120172617D01*
X132332820Y-120172614D01*
X132330014Y-120168277D01*
X132179670Y-120003051D01*
X132175619Y-119999852D01*
X132175615Y-119999848D01*
X132008414Y-119867800D01*
X132008410Y-119867798D01*
X132004359Y-119864598D01*
X131963053Y-119841796D01*
X131913084Y-119791364D01*
X131898312Y-119721921D01*
X131923428Y-119655516D01*
X131950780Y-119628909D01*
X131996981Y-119595954D01*
X132129860Y-119501173D01*
X132288096Y-119343489D01*
X132346910Y-119261641D01*
X132415435Y-119166277D01*
X132418453Y-119162077D01*
X132426932Y-119144922D01*
X132515136Y-118966453D01*
X132515137Y-118966451D01*
X132517430Y-118961811D01*
X132575967Y-118769144D01*
X132580865Y-118753023D01*
X132580865Y-118753021D01*
X132582370Y-118748069D01*
X132611529Y-118526590D01*
X132612735Y-118477240D01*
X132613074Y-118463365D01*
X132613074Y-118463361D01*
X132613156Y-118460000D01*
X132594852Y-118237361D01*
X132540431Y-118020702D01*
X132451354Y-117815840D01*
X132398951Y-117734837D01*
X132332822Y-117632617D01*
X132332820Y-117632614D01*
X132330014Y-117628277D01*
X132179670Y-117463051D01*
X132175619Y-117459852D01*
X132175615Y-117459848D01*
X132008414Y-117327800D01*
X132008410Y-117327798D01*
X132004359Y-117324598D01*
X131963053Y-117301796D01*
X131913084Y-117251364D01*
X131898312Y-117181921D01*
X131923428Y-117115516D01*
X131950780Y-117088909D01*
X131996981Y-117055954D01*
X132129860Y-116961173D01*
X132288096Y-116803489D01*
X132346910Y-116721641D01*
X132415435Y-116626277D01*
X132418453Y-116622077D01*
X132426932Y-116604922D01*
X132515136Y-116426453D01*
X132515137Y-116426451D01*
X132517430Y-116421811D01*
X132575967Y-116229144D01*
X132580865Y-116213023D01*
X132580865Y-116213021D01*
X132582370Y-116208069D01*
X132611529Y-115986590D01*
X132612735Y-115937240D01*
X132613074Y-115923365D01*
X132613074Y-115923361D01*
X132613156Y-115920000D01*
X132594852Y-115697361D01*
X132540431Y-115480702D01*
X132451354Y-115275840D01*
X132398951Y-115194837D01*
X132332822Y-115092617D01*
X132332820Y-115092614D01*
X132330014Y-115088277D01*
X132179670Y-114923051D01*
X132175619Y-114919852D01*
X132175615Y-114919848D01*
X132008414Y-114787800D01*
X132008410Y-114787798D01*
X132004359Y-114784598D01*
X131963053Y-114761796D01*
X131913084Y-114711364D01*
X131898312Y-114641921D01*
X131923428Y-114575516D01*
X131950780Y-114548909D01*
X131996981Y-114515954D01*
X132129860Y-114421173D01*
X132288096Y-114263489D01*
X132346910Y-114181641D01*
X132415435Y-114086277D01*
X132418453Y-114082077D01*
X132426932Y-114064922D01*
X132515136Y-113886453D01*
X132515137Y-113886451D01*
X132517430Y-113881811D01*
X132575967Y-113689144D01*
X132580865Y-113673023D01*
X132580865Y-113673021D01*
X132582370Y-113668069D01*
X132611529Y-113446590D01*
X132612735Y-113397240D01*
X132613074Y-113383365D01*
X132613074Y-113383361D01*
X132613156Y-113380000D01*
X132594852Y-113157361D01*
X132540431Y-112940702D01*
X132451354Y-112735840D01*
X132398951Y-112654837D01*
X132332822Y-112552617D01*
X132332820Y-112552614D01*
X132330014Y-112548277D01*
X132179670Y-112383051D01*
X132175619Y-112379852D01*
X132175615Y-112379848D01*
X132008414Y-112247800D01*
X132008410Y-112247798D01*
X132004359Y-112244598D01*
X131962569Y-112221529D01*
X131912598Y-112171097D01*
X131897826Y-112101654D01*
X131922942Y-112035248D01*
X131950294Y-112008641D01*
X132125328Y-111883792D01*
X132133200Y-111877139D01*
X132284052Y-111726812D01*
X132290730Y-111718965D01*
X132415003Y-111546020D01*
X132420313Y-111537183D01*
X132514670Y-111346267D01*
X132518469Y-111336672D01*
X132580377Y-111132910D01*
X132582555Y-111122837D01*
X132583986Y-111111962D01*
X132581775Y-111097778D01*
X132568617Y-111094000D01*
X129933225Y-111094000D01*
X129919694Y-111097973D01*
X129918257Y-111107966D01*
X129948565Y-111242446D01*
X129951645Y-111252275D01*
X130031770Y-111449603D01*
X130036413Y-111458794D01*
X130147694Y-111640388D01*
X130153777Y-111648699D01*
X130293213Y-111809667D01*
X130300580Y-111816883D01*
X130464434Y-111952916D01*
X130472881Y-111958831D01*
X130541969Y-111999203D01*
X130590693Y-112050842D01*
X130603764Y-112120625D01*
X130577033Y-112186396D01*
X130536584Y-112219752D01*
X130523607Y-112226507D01*
X130519474Y-112229610D01*
X130519471Y-112229612D01*
X130359537Y-112349694D01*
X130344965Y-112360635D01*
X130319894Y-112386870D01*
X130208770Y-112503155D01*
X130190629Y-112522138D01*
X130064743Y-112706680D01*
X130049003Y-112740590D01*
X129985745Y-112876868D01*
X129970688Y-112909305D01*
X129910989Y-113124570D01*
X129887251Y-113346695D01*
X129887548Y-113351848D01*
X129887548Y-113351851D01*
X129894024Y-113464171D01*
X129900110Y-113569715D01*
X129901247Y-113574761D01*
X129901248Y-113574767D01*
X129909720Y-113612359D01*
X129949222Y-113787639D01*
X129987461Y-113881811D01*
X130022000Y-113966870D01*
X130033266Y-113994616D01*
X130149987Y-114185088D01*
X130296250Y-114353938D01*
X130423585Y-114459653D01*
X130459301Y-114489305D01*
X130468126Y-114496632D01*
X130538595Y-114537811D01*
X130541445Y-114539476D01*
X130590169Y-114591114D01*
X130603240Y-114660897D01*
X130576509Y-114726669D01*
X130536055Y-114760027D01*
X130523607Y-114766507D01*
X130519474Y-114769610D01*
X130519471Y-114769612D01*
X130349100Y-114897530D01*
X130344965Y-114900635D01*
X130319894Y-114926870D01*
X130208770Y-115043155D01*
X130190629Y-115062138D01*
X130064743Y-115246680D01*
X130049003Y-115280590D01*
X129985745Y-115416868D01*
X129970688Y-115449305D01*
X129910989Y-115664570D01*
X129887251Y-115886695D01*
X129887548Y-115891848D01*
X129887548Y-115891851D01*
X129894024Y-116004171D01*
X129900110Y-116109715D01*
X129901247Y-116114761D01*
X129901248Y-116114767D01*
X129909720Y-116152359D01*
X129949222Y-116327639D01*
X129987461Y-116421811D01*
X130022000Y-116506870D01*
X130033266Y-116534616D01*
X130149987Y-116725088D01*
X130296250Y-116893938D01*
X130423585Y-116999653D01*
X130459301Y-117029305D01*
X130468126Y-117036632D01*
X130538595Y-117077811D01*
X130541445Y-117079476D01*
X130590169Y-117131114D01*
X130603240Y-117200897D01*
X130576509Y-117266669D01*
X130536055Y-117300027D01*
X130523607Y-117306507D01*
X130519474Y-117309610D01*
X130519471Y-117309612D01*
X130349100Y-117437530D01*
X130344965Y-117440635D01*
X130319894Y-117466870D01*
X130208770Y-117583155D01*
X130190629Y-117602138D01*
X130064743Y-117786680D01*
X130049003Y-117820590D01*
X129985745Y-117956868D01*
X129970688Y-117989305D01*
X129910989Y-118204570D01*
X129887251Y-118426695D01*
X129887548Y-118431848D01*
X129887548Y-118431851D01*
X129894024Y-118544171D01*
X129900110Y-118649715D01*
X129901247Y-118654761D01*
X129901248Y-118654767D01*
X129909720Y-118692359D01*
X129949222Y-118867639D01*
X129987461Y-118961811D01*
X130022000Y-119046870D01*
X130033266Y-119074616D01*
X130149987Y-119265088D01*
X130296250Y-119433938D01*
X130423585Y-119539653D01*
X130459301Y-119569305D01*
X130468126Y-119576632D01*
X130538595Y-119617811D01*
X130541445Y-119619476D01*
X130590169Y-119671114D01*
X130603240Y-119740897D01*
X130576509Y-119806669D01*
X130536055Y-119840027D01*
X130523607Y-119846507D01*
X130519474Y-119849610D01*
X130519471Y-119849612D01*
X130349100Y-119977530D01*
X130344965Y-119980635D01*
X130308392Y-120018906D01*
X130208770Y-120123155D01*
X130190629Y-120142138D01*
X130064743Y-120326680D01*
X130049003Y-120360590D01*
X129985745Y-120496868D01*
X129970688Y-120529305D01*
X129910989Y-120744570D01*
X129887251Y-120966695D01*
X129887548Y-120971848D01*
X129887548Y-120971851D01*
X129894024Y-121084171D01*
X129900110Y-121189715D01*
X129901247Y-121194761D01*
X129901248Y-121194767D01*
X129909720Y-121232359D01*
X129949222Y-121407639D01*
X129987461Y-121501811D01*
X130022000Y-121586870D01*
X130033266Y-121614616D01*
X130149987Y-121805088D01*
X130296250Y-121973938D01*
X130423585Y-122079653D01*
X130459301Y-122109305D01*
X130468126Y-122116632D01*
X130538595Y-122157811D01*
X130541445Y-122159476D01*
X130590169Y-122211114D01*
X130603240Y-122280897D01*
X130576509Y-122346669D01*
X130536055Y-122380027D01*
X130523607Y-122386507D01*
X130519474Y-122389610D01*
X130519471Y-122389612D01*
X130349100Y-122517530D01*
X130344965Y-122520635D01*
X130308392Y-122558906D01*
X130208770Y-122663155D01*
X130190629Y-122682138D01*
X130187715Y-122686410D01*
X130187714Y-122686411D01*
X130159515Y-122727749D01*
X130064743Y-122866680D01*
X130051113Y-122896044D01*
X129985745Y-123036868D01*
X129970688Y-123069305D01*
X129910989Y-123284570D01*
X129887251Y-123506695D01*
X129887548Y-123511848D01*
X129887548Y-123511851D01*
X129894024Y-123624171D01*
X129900110Y-123729715D01*
X129901247Y-123734761D01*
X129901248Y-123734767D01*
X129913947Y-123791114D01*
X129949222Y-123947639D01*
X129993356Y-124056328D01*
X130029970Y-124146498D01*
X130033266Y-124154616D01*
X130149987Y-124345088D01*
X130296250Y-124513938D01*
X130423585Y-124619653D01*
X130459301Y-124649305D01*
X130468126Y-124656632D01*
X130538595Y-124697811D01*
X130541445Y-124699476D01*
X130590169Y-124751114D01*
X130603240Y-124820897D01*
X130576509Y-124886669D01*
X130536055Y-124920027D01*
X130523607Y-124926507D01*
X130519474Y-124929610D01*
X130519471Y-124929612D01*
X130359537Y-125049694D01*
X130344965Y-125060635D01*
X130319894Y-125086870D01*
X130208770Y-125203155D01*
X130190629Y-125222138D01*
X130064743Y-125406680D01*
X130049003Y-125440590D01*
X129985745Y-125576868D01*
X129970688Y-125609305D01*
X129910989Y-125824570D01*
X129887251Y-126046695D01*
X129887548Y-126051848D01*
X129887548Y-126051851D01*
X129894024Y-126164171D01*
X129900110Y-126269715D01*
X129901247Y-126274761D01*
X129901248Y-126274767D01*
X129909720Y-126312359D01*
X129949222Y-126487639D01*
X129987461Y-126581811D01*
X130022000Y-126666870D01*
X130033266Y-126694616D01*
X130035965Y-126699020D01*
X130124759Y-126843919D01*
X130149987Y-126885088D01*
X130296250Y-127053938D01*
X130423585Y-127159653D01*
X130459301Y-127189305D01*
X130468126Y-127196632D01*
X130538595Y-127237811D01*
X130541445Y-127239476D01*
X130590169Y-127291114D01*
X130603240Y-127360897D01*
X130576509Y-127426669D01*
X130536055Y-127460027D01*
X130523607Y-127466507D01*
X130519474Y-127469610D01*
X130519471Y-127469612D01*
X130359537Y-127589694D01*
X130344965Y-127600635D01*
X130319894Y-127626870D01*
X130208770Y-127743155D01*
X130190629Y-127762138D01*
X130064743Y-127946680D01*
X130049003Y-127980590D01*
X129985745Y-128116868D01*
X129970688Y-128149305D01*
X129910989Y-128364570D01*
X129887251Y-128586695D01*
X129887548Y-128591848D01*
X129887548Y-128591851D01*
X129895600Y-128731494D01*
X129900110Y-128809715D01*
X129901247Y-128814761D01*
X129901248Y-128814767D01*
X129918054Y-128889338D01*
X129949222Y-129027639D01*
X130033266Y-129234616D01*
X130035965Y-129239020D01*
X130130968Y-129394051D01*
X130149987Y-129425088D01*
X130296250Y-129593938D01*
X130468126Y-129736632D01*
X130518712Y-129766192D01*
X130541445Y-129779476D01*
X130590169Y-129831114D01*
X130603240Y-129900897D01*
X130576509Y-129966669D01*
X130536055Y-130000027D01*
X130523607Y-130006507D01*
X130519474Y-130009610D01*
X130519471Y-130009612D01*
X130429684Y-130077026D01*
X130344965Y-130140635D01*
X130190629Y-130302138D01*
X130064743Y-130486680D01*
X130049003Y-130520590D01*
X129982072Y-130664781D01*
X129970688Y-130689305D01*
X129910989Y-130904570D01*
X129887251Y-131126695D01*
X129887548Y-131131848D01*
X129887548Y-131131851D01*
X129895600Y-131271494D01*
X129900110Y-131349715D01*
X129901247Y-131354761D01*
X129901248Y-131354767D01*
X129920820Y-131441610D01*
X129949222Y-131567639D01*
X129951166Y-131572426D01*
X129951167Y-131572430D01*
X129969710Y-131618097D01*
X129976806Y-131688738D01*
X129944583Y-131752001D01*
X129883274Y-131787801D01*
X129852967Y-131791500D01*
X118926371Y-131791500D01*
X118858250Y-131771498D01*
X118837276Y-131754595D01*
X116305405Y-129222724D01*
X116271379Y-129160412D01*
X116268500Y-129133629D01*
X116268500Y-127151866D01*
X116261745Y-127089684D01*
X116210615Y-126953295D01*
X116123261Y-126836739D01*
X116006705Y-126749385D01*
X115870316Y-126698255D01*
X115808134Y-126691500D01*
X114111866Y-126691500D01*
X114049684Y-126698255D01*
X113913295Y-126749385D01*
X113796739Y-126836739D01*
X113709385Y-126953295D01*
X113658255Y-127089684D01*
X113651500Y-127151866D01*
X113651500Y-129823629D01*
X113631498Y-129891750D01*
X113614595Y-129912724D01*
X113522724Y-130004595D01*
X113460412Y-130038621D01*
X113433629Y-130041500D01*
X110914544Y-130041500D01*
X110846423Y-130021498D01*
X110799930Y-129967842D01*
X110789826Y-129897568D01*
X110819320Y-129832988D01*
X110825604Y-129826249D01*
X110828233Y-129823629D01*
X110956303Y-129696005D01*
X111091458Y-129507917D01*
X111100077Y-129490479D01*
X111191784Y-129304922D01*
X111191785Y-129304920D01*
X111194078Y-129300280D01*
X111261408Y-129078671D01*
X111291640Y-128849041D01*
X111292028Y-128833173D01*
X111293245Y-128783365D01*
X111293245Y-128783361D01*
X111293327Y-128780000D01*
X111281590Y-128637240D01*
X111274773Y-128554318D01*
X111274772Y-128554312D01*
X111274349Y-128549167D01*
X111237770Y-128403538D01*
X111219184Y-128329544D01*
X111219183Y-128329540D01*
X111217925Y-128324533D01*
X111215866Y-128319797D01*
X111127630Y-128116868D01*
X111127628Y-128116865D01*
X111125570Y-128112131D01*
X110999764Y-127917665D01*
X110843887Y-127746358D01*
X110839836Y-127743159D01*
X110839832Y-127743155D01*
X110667077Y-127606722D01*
X110626014Y-127548805D01*
X110622782Y-127477882D01*
X110658407Y-127416470D01*
X110672001Y-127405261D01*
X110675872Y-127402500D01*
X110792243Y-127319494D01*
X110956303Y-127156005D01*
X111091458Y-126967917D01*
X111132395Y-126885088D01*
X111191784Y-126764922D01*
X111191785Y-126764920D01*
X111194078Y-126760280D01*
X111261408Y-126538671D01*
X111291640Y-126309041D01*
X111291722Y-126305691D01*
X111293245Y-126243365D01*
X111293245Y-126243361D01*
X111293327Y-126240000D01*
X111281590Y-126097240D01*
X111274773Y-126014318D01*
X111274772Y-126014312D01*
X111274349Y-126009167D01*
X111246137Y-125896850D01*
X111219184Y-125789544D01*
X111219183Y-125789540D01*
X111217925Y-125784533D01*
X111215866Y-125779797D01*
X111127630Y-125576868D01*
X111127628Y-125576865D01*
X111125570Y-125572131D01*
X110999764Y-125377665D01*
X110843887Y-125206358D01*
X110839836Y-125203159D01*
X110839832Y-125203155D01*
X110667077Y-125066722D01*
X110626014Y-125008805D01*
X110622782Y-124937882D01*
X110658407Y-124876470D01*
X110672001Y-124865261D01*
X110675872Y-124862500D01*
X110792243Y-124779494D01*
X110956303Y-124616005D01*
X111091458Y-124427917D01*
X111194078Y-124220280D01*
X111213826Y-124155283D01*
X111216495Y-124146498D01*
X111255436Y-124087134D01*
X111320290Y-124058247D01*
X111345091Y-124057936D01*
X111345117Y-124057447D01*
X111355328Y-124058000D01*
X117227885Y-124058000D01*
X117243124Y-124053525D01*
X117244329Y-124052135D01*
X117246000Y-124044452D01*
X117246000Y-113310116D01*
X117241525Y-113294877D01*
X117240135Y-113293672D01*
X117232452Y-113292001D01*
X111368302Y-113292001D01*
X111300181Y-113271999D01*
X111253688Y-113218343D01*
X111246098Y-113196696D01*
X111219184Y-113089544D01*
X111219183Y-113089540D01*
X111217925Y-113084533D01*
X111210573Y-113067625D01*
X111127630Y-112876868D01*
X111127628Y-112876865D01*
X111125570Y-112872131D01*
X110999764Y-112677665D01*
X110843887Y-112506358D01*
X110839836Y-112503159D01*
X110839832Y-112503155D01*
X110667077Y-112366722D01*
X110626014Y-112308805D01*
X110622782Y-112237882D01*
X110658407Y-112176470D01*
X110672001Y-112165261D01*
X110675872Y-112162500D01*
X110792243Y-112079494D01*
X110956303Y-111916005D01*
X111091458Y-111727917D01*
X111095883Y-111718965D01*
X111191784Y-111524922D01*
X111191785Y-111524920D01*
X111194078Y-111520280D01*
X111261408Y-111298671D01*
X111291640Y-111069041D01*
X111291722Y-111065691D01*
X111293245Y-111003365D01*
X111293245Y-111003361D01*
X111293327Y-111000000D01*
X111281590Y-110857240D01*
X111274773Y-110774318D01*
X111274772Y-110774312D01*
X111274349Y-110769167D01*
X111233343Y-110605916D01*
X111219184Y-110549544D01*
X111219183Y-110549540D01*
X111217925Y-110544533D01*
X111210573Y-110527625D01*
X111127630Y-110336868D01*
X111127628Y-110336865D01*
X111125570Y-110332131D01*
X110999764Y-110137665D01*
X110843887Y-109966358D01*
X110839836Y-109963159D01*
X110839832Y-109963155D01*
X110667077Y-109826722D01*
X110626014Y-109768805D01*
X110622782Y-109697882D01*
X110658407Y-109636470D01*
X110672001Y-109625261D01*
X110675872Y-109622500D01*
X110792243Y-109539494D01*
X110956303Y-109376005D01*
X111091458Y-109187917D01*
X111138641Y-109092450D01*
X111191784Y-108984922D01*
X111191785Y-108984920D01*
X111194078Y-108980280D01*
X111261408Y-108758671D01*
X111291640Y-108529041D01*
X111291722Y-108525691D01*
X111293245Y-108463365D01*
X111293245Y-108463361D01*
X111293327Y-108460000D01*
X111281590Y-108317240D01*
X111274773Y-108234318D01*
X111274772Y-108234312D01*
X111274349Y-108229167D01*
X111232343Y-108061934D01*
X111219184Y-108009544D01*
X111219183Y-108009540D01*
X111217925Y-108004533D01*
X111210573Y-107987625D01*
X111127630Y-107796868D01*
X111127628Y-107796865D01*
X111125570Y-107792131D01*
X110999764Y-107597665D01*
X110843887Y-107426358D01*
X110839836Y-107423159D01*
X110839832Y-107423155D01*
X110667077Y-107286722D01*
X110626014Y-107228805D01*
X110622782Y-107157882D01*
X110658407Y-107096470D01*
X110672001Y-107085261D01*
X110677473Y-107081358D01*
X110792243Y-106999494D01*
X110956303Y-106836005D01*
X111091458Y-106647917D01*
X111111369Y-106607631D01*
X111191784Y-106444922D01*
X111191785Y-106444920D01*
X111194078Y-106440280D01*
X111261408Y-106218671D01*
X111291640Y-105989041D01*
X111291722Y-105985691D01*
X111293245Y-105923365D01*
X111293245Y-105923361D01*
X111293327Y-105920000D01*
X111281590Y-105777240D01*
X111274773Y-105694318D01*
X111274772Y-105694312D01*
X111274349Y-105689167D01*
X111246137Y-105576850D01*
X111219184Y-105469544D01*
X111219183Y-105469540D01*
X111217925Y-105464533D01*
X111210573Y-105447625D01*
X111127630Y-105256868D01*
X111127628Y-105256865D01*
X111125570Y-105252131D01*
X110999764Y-105057665D01*
X110843887Y-104886358D01*
X110839836Y-104883159D01*
X110839832Y-104883155D01*
X110667077Y-104746722D01*
X110626014Y-104688805D01*
X110622782Y-104617882D01*
X110658407Y-104556470D01*
X110672001Y-104545261D01*
X110675872Y-104542500D01*
X110792243Y-104459494D01*
X110956303Y-104296005D01*
X110973499Y-104272075D01*
X111030215Y-104193145D01*
X111091458Y-104107917D01*
X111138641Y-104012450D01*
X111191784Y-103904922D01*
X111191785Y-103904920D01*
X111194078Y-103900280D01*
X111261408Y-103678671D01*
X111291640Y-103449041D01*
X111291801Y-103442460D01*
X111293245Y-103383365D01*
X111293245Y-103383361D01*
X111293327Y-103380000D01*
X111281590Y-103237240D01*
X111274773Y-103154318D01*
X111274772Y-103154312D01*
X111274349Y-103149167D01*
X111246137Y-103036850D01*
X111219184Y-102929544D01*
X111219183Y-102929540D01*
X111217925Y-102924533D01*
X111210573Y-102907625D01*
X111127630Y-102716868D01*
X111127628Y-102716865D01*
X111125570Y-102712131D01*
X110999764Y-102517665D01*
X110843887Y-102346358D01*
X110839836Y-102343159D01*
X110839832Y-102343155D01*
X110666669Y-102206400D01*
X110625606Y-102148483D01*
X110622374Y-102077560D01*
X110657999Y-102016148D01*
X110663487Y-102011623D01*
X110673497Y-101998874D01*
X110666510Y-101985721D01*
X109892811Y-101212021D01*
X109878868Y-101204408D01*
X109877034Y-101204539D01*
X109870420Y-101208790D01*
X109090180Y-101989031D01*
X109083423Y-102001406D01*
X109102730Y-102027197D01*
X109102040Y-102027713D01*
X109126627Y-102053737D01*
X109139743Y-102123511D01*
X109113055Y-102189300D01*
X109090023Y-102211719D01*
X108941655Y-102323117D01*
X108781639Y-102490564D01*
X108778725Y-102494836D01*
X108778724Y-102494837D01*
X108763152Y-102517665D01*
X108651119Y-102681899D01*
X108553602Y-102891981D01*
X108491707Y-103115169D01*
X108467095Y-103345469D01*
X108467392Y-103350622D01*
X108467392Y-103350625D01*
X108473067Y-103449041D01*
X108480427Y-103576697D01*
X108481564Y-103581743D01*
X108481565Y-103581749D01*
X108507331Y-103696081D01*
X108531346Y-103802642D01*
X108533288Y-103807424D01*
X108533289Y-103807428D01*
X108616540Y-104012450D01*
X108618484Y-104017237D01*
X108739501Y-104214719D01*
X108891147Y-104389784D01*
X109069349Y-104537730D01*
X109073819Y-104540342D01*
X109077511Y-104542500D01*
X109126232Y-104594140D01*
X109139301Y-104663924D01*
X109112566Y-104729694D01*
X109089589Y-104752045D01*
X109070077Y-104766695D01*
X108967784Y-104843499D01*
X108941655Y-104863117D01*
X108781639Y-105030564D01*
X108778725Y-105034836D01*
X108778724Y-105034837D01*
X108763152Y-105057665D01*
X108651119Y-105221899D01*
X108553602Y-105431981D01*
X108491707Y-105655169D01*
X108467095Y-105885469D01*
X108467392Y-105890622D01*
X108467392Y-105890625D01*
X108473067Y-105989041D01*
X108480427Y-106116697D01*
X108481564Y-106121743D01*
X108481565Y-106121749D01*
X108513741Y-106264523D01*
X108531346Y-106342642D01*
X108533288Y-106347424D01*
X108533289Y-106347428D01*
X108613428Y-106544786D01*
X108618484Y-106557237D01*
X108739501Y-106754719D01*
X108891147Y-106929784D01*
X109069349Y-107077730D01*
X109073819Y-107080342D01*
X109077511Y-107082500D01*
X109126232Y-107134140D01*
X109139301Y-107203924D01*
X109112566Y-107269694D01*
X109089589Y-107292045D01*
X109070077Y-107306695D01*
X108947846Y-107398469D01*
X108941655Y-107403117D01*
X108781639Y-107570564D01*
X108778725Y-107574836D01*
X108778724Y-107574837D01*
X108763152Y-107597665D01*
X108651119Y-107761899D01*
X108553602Y-107971981D01*
X108491707Y-108195169D01*
X108467095Y-108425469D01*
X108467392Y-108430622D01*
X108467392Y-108430625D01*
X108477838Y-108611797D01*
X108480427Y-108656697D01*
X108481564Y-108661743D01*
X108481565Y-108661749D01*
X108513741Y-108804523D01*
X108531346Y-108882642D01*
X108533288Y-108887424D01*
X108533289Y-108887428D01*
X108613059Y-109083877D01*
X108618484Y-109097237D01*
X108739501Y-109294719D01*
X108891147Y-109469784D01*
X109069349Y-109617730D01*
X109073819Y-109620342D01*
X109077511Y-109622500D01*
X109126232Y-109674140D01*
X109139301Y-109743924D01*
X109112566Y-109809694D01*
X109089589Y-109832045D01*
X109070101Y-109846677D01*
X108977608Y-109916123D01*
X108941655Y-109943117D01*
X108781639Y-110110564D01*
X108778725Y-110114836D01*
X108778724Y-110114837D01*
X108746109Y-110162649D01*
X108651119Y-110301899D01*
X108553602Y-110511981D01*
X108491707Y-110735169D01*
X108467095Y-110965469D01*
X108467392Y-110970622D01*
X108467392Y-110970625D01*
X108479087Y-111173452D01*
X108480427Y-111196697D01*
X108481564Y-111201743D01*
X108481565Y-111201749D01*
X108511972Y-111336672D01*
X108531346Y-111422642D01*
X108533288Y-111427424D01*
X108533289Y-111427428D01*
X108616540Y-111632450D01*
X108618484Y-111637237D01*
X108739501Y-111834719D01*
X108891147Y-112009784D01*
X109069349Y-112157730D01*
X109073819Y-112160342D01*
X109077511Y-112162500D01*
X109126232Y-112214140D01*
X109139301Y-112283924D01*
X109112566Y-112349694D01*
X109089589Y-112372045D01*
X108941655Y-112483117D01*
X108781639Y-112650564D01*
X108778725Y-112654836D01*
X108778724Y-112654837D01*
X108739032Y-112713023D01*
X108651119Y-112841899D01*
X108553602Y-113051981D01*
X108491707Y-113275169D01*
X108467095Y-113505469D01*
X108467392Y-113510622D01*
X108467392Y-113510625D01*
X108473067Y-113609041D01*
X108480427Y-113736697D01*
X108481564Y-113741743D01*
X108481565Y-113741749D01*
X108512013Y-113876857D01*
X108531346Y-113962642D01*
X108533288Y-113967424D01*
X108533289Y-113967428D01*
X108616540Y-114172450D01*
X108618484Y-114177237D01*
X108739501Y-114374719D01*
X108891147Y-114549784D01*
X109069349Y-114697730D01*
X109073819Y-114700342D01*
X109077511Y-114702500D01*
X109126232Y-114754140D01*
X109139301Y-114823924D01*
X109112566Y-114889694D01*
X109089589Y-114912045D01*
X108941655Y-115023117D01*
X108781639Y-115190564D01*
X108778725Y-115194836D01*
X108778724Y-115194837D01*
X108739032Y-115253023D01*
X108651119Y-115381899D01*
X108553602Y-115591981D01*
X108491707Y-115815169D01*
X108467095Y-116045469D01*
X108467392Y-116050622D01*
X108467392Y-116050625D01*
X108473067Y-116149041D01*
X108480427Y-116276697D01*
X108481564Y-116281743D01*
X108481565Y-116281749D01*
X108512013Y-116416857D01*
X108531346Y-116502642D01*
X108533288Y-116507424D01*
X108533289Y-116507428D01*
X108616540Y-116712450D01*
X108618484Y-116717237D01*
X108739501Y-116914719D01*
X108891147Y-117089784D01*
X109069349Y-117237730D01*
X109073819Y-117240342D01*
X109077511Y-117242500D01*
X109126232Y-117294140D01*
X109139301Y-117363924D01*
X109112566Y-117429694D01*
X109089589Y-117452045D01*
X108941655Y-117563117D01*
X108781639Y-117730564D01*
X108778725Y-117734836D01*
X108778724Y-117734837D01*
X108739032Y-117793023D01*
X108651119Y-117921899D01*
X108553602Y-118131981D01*
X108491707Y-118355169D01*
X108467095Y-118585469D01*
X108467392Y-118590622D01*
X108467392Y-118590625D01*
X108473067Y-118689041D01*
X108480427Y-118816697D01*
X108481564Y-118821743D01*
X108481565Y-118821749D01*
X108512013Y-118956857D01*
X108531346Y-119042642D01*
X108533288Y-119047424D01*
X108533289Y-119047428D01*
X108616540Y-119252450D01*
X108618484Y-119257237D01*
X108739501Y-119454719D01*
X108891147Y-119629784D01*
X109069349Y-119777730D01*
X109073819Y-119780342D01*
X109077511Y-119782500D01*
X109126232Y-119834140D01*
X109139301Y-119903924D01*
X109112566Y-119969694D01*
X109089589Y-119992045D01*
X108941655Y-120103117D01*
X108781639Y-120270564D01*
X108778725Y-120274836D01*
X108778724Y-120274837D01*
X108739032Y-120333023D01*
X108651119Y-120461899D01*
X108553602Y-120671981D01*
X108491707Y-120895169D01*
X108467095Y-121125469D01*
X108467392Y-121130622D01*
X108467392Y-121130625D01*
X108473067Y-121229041D01*
X108480427Y-121356697D01*
X108481564Y-121361743D01*
X108481565Y-121361749D01*
X108512013Y-121496857D01*
X108531346Y-121582642D01*
X108533288Y-121587424D01*
X108533289Y-121587428D01*
X108616540Y-121792450D01*
X108618484Y-121797237D01*
X108739501Y-121994719D01*
X108891147Y-122169784D01*
X109069349Y-122317730D01*
X109073819Y-122320342D01*
X109077511Y-122322500D01*
X109126232Y-122374140D01*
X109139301Y-122443924D01*
X109112566Y-122509694D01*
X109089589Y-122532045D01*
X108941655Y-122643117D01*
X108781639Y-122810564D01*
X108778725Y-122814836D01*
X108778724Y-122814837D01*
X108739032Y-122873023D01*
X108651119Y-123001899D01*
X108553602Y-123211981D01*
X108491707Y-123435169D01*
X108467095Y-123665469D01*
X108467392Y-123670622D01*
X108467392Y-123670625D01*
X108474339Y-123791114D01*
X108480427Y-123896697D01*
X108481564Y-123901743D01*
X108481565Y-123901749D01*
X108512013Y-124036857D01*
X108531346Y-124122642D01*
X108533288Y-124127424D01*
X108533289Y-124127428D01*
X108616540Y-124332450D01*
X108618484Y-124337237D01*
X108739501Y-124534719D01*
X108891147Y-124709784D01*
X109069349Y-124857730D01*
X109073819Y-124860342D01*
X109077511Y-124862500D01*
X109126232Y-124914140D01*
X109139301Y-124983924D01*
X109112566Y-125049694D01*
X109089589Y-125072045D01*
X108941655Y-125183117D01*
X108781639Y-125350564D01*
X108778725Y-125354836D01*
X108778724Y-125354837D01*
X108739032Y-125413023D01*
X108651119Y-125541899D01*
X108553602Y-125751981D01*
X108491707Y-125975169D01*
X108467095Y-126205469D01*
X108467392Y-126210622D01*
X108467392Y-126210625D01*
X108473067Y-126309041D01*
X108480427Y-126436697D01*
X108481564Y-126441743D01*
X108481565Y-126441749D01*
X108512013Y-126576857D01*
X108531346Y-126662642D01*
X108533288Y-126667424D01*
X108533289Y-126667428D01*
X108602039Y-126836739D01*
X108618484Y-126877237D01*
X108739501Y-127074719D01*
X108891147Y-127249784D01*
X109069349Y-127397730D01*
X109073819Y-127400342D01*
X109077511Y-127402500D01*
X109126232Y-127454140D01*
X109139301Y-127523924D01*
X109112566Y-127589694D01*
X109089589Y-127612045D01*
X108941655Y-127723117D01*
X108781639Y-127890564D01*
X108778725Y-127894836D01*
X108778724Y-127894837D01*
X108739032Y-127953023D01*
X108651119Y-128081899D01*
X108553602Y-128291981D01*
X108491707Y-128515169D01*
X108467095Y-128745469D01*
X108467392Y-128750622D01*
X108467392Y-128750625D01*
X108477687Y-128929174D01*
X108480427Y-128976697D01*
X108481564Y-128981743D01*
X108481565Y-128981749D01*
X108509339Y-129104991D01*
X108531346Y-129202642D01*
X108533288Y-129207424D01*
X108533289Y-129207428D01*
X108609069Y-129394051D01*
X108616165Y-129464692D01*
X108583943Y-129527955D01*
X108522633Y-129563756D01*
X108451702Y-129560726D01*
X108403231Y-129530550D01*
X104345405Y-125472724D01*
X104311379Y-125410412D01*
X104308500Y-125383629D01*
X104308500Y-124151866D01*
X104301745Y-124089684D01*
X104250615Y-123953295D01*
X104215953Y-123907045D01*
X104191105Y-123840540D01*
X104206845Y-123769913D01*
X104213726Y-123757626D01*
X104218401Y-123747127D01*
X104280144Y-123565240D01*
X104282832Y-123554045D01*
X104310689Y-123361911D01*
X104311319Y-123354528D01*
X104312650Y-123303704D01*
X104312407Y-123296305D01*
X104294643Y-123102975D01*
X104292545Y-123091654D01*
X104240408Y-122906791D01*
X104236283Y-122896044D01*
X104152163Y-122725465D01*
X104144869Y-122719990D01*
X104132449Y-122726762D01*
X103289095Y-123570115D01*
X103226783Y-123604140D01*
X103155967Y-123599075D01*
X103110905Y-123570115D01*
X102268538Y-122727749D01*
X102256163Y-122720992D01*
X102250197Y-122725458D01*
X102174645Y-122869058D01*
X102170242Y-122879691D01*
X102113281Y-123063132D01*
X102110891Y-123074376D01*
X102088313Y-123265137D01*
X102088012Y-123276638D01*
X98508000Y-123276638D01*
X98508000Y-122358675D01*
X102622788Y-122358675D01*
X102626275Y-122367064D01*
X103187189Y-122927979D01*
X103201132Y-122935592D01*
X103202966Y-122935461D01*
X103209580Y-122931210D01*
X103770285Y-122370504D01*
X103777042Y-122358129D01*
X103771012Y-122350073D01*
X103710061Y-122311616D01*
X103699813Y-122306395D01*
X103521401Y-122235216D01*
X103510373Y-122231949D01*
X103321982Y-122194476D01*
X103310535Y-122193273D01*
X103118477Y-122190759D01*
X103106997Y-122191662D01*
X102917697Y-122224190D01*
X102906577Y-122227170D01*
X102726365Y-122293653D01*
X102715991Y-122298601D01*
X102632385Y-122348342D01*
X102622788Y-122358675D01*
X98508000Y-122358675D01*
X98508000Y-100810638D01*
X108467893Y-100810638D01*
X108480627Y-101031468D01*
X108482061Y-101041670D01*
X108530685Y-101257439D01*
X108533773Y-101267292D01*
X108616986Y-101472220D01*
X108621634Y-101481421D01*
X108710097Y-101625781D01*
X108720553Y-101635242D01*
X108729331Y-101631458D01*
X109507979Y-100852811D01*
X109514356Y-100841132D01*
X110244408Y-100841132D01*
X110244539Y-100842966D01*
X110248790Y-100849580D01*
X111026307Y-101627096D01*
X111038313Y-101633652D01*
X111050052Y-101624684D01*
X111088010Y-101571859D01*
X111093321Y-101563020D01*
X111191318Y-101364737D01*
X111195117Y-101355142D01*
X111259415Y-101143517D01*
X111261594Y-101133436D01*
X111290702Y-100912338D01*
X111291221Y-100905663D01*
X111292744Y-100843364D01*
X111292550Y-100836646D01*
X111274279Y-100614400D01*
X111272596Y-100604238D01*
X111218710Y-100389708D01*
X111215389Y-100379953D01*
X111127193Y-100177118D01*
X111122315Y-100168020D01*
X111049224Y-100055038D01*
X111038538Y-100045835D01*
X111028973Y-100050238D01*
X110252021Y-100827189D01*
X110244408Y-100841132D01*
X109514356Y-100841132D01*
X109515592Y-100838868D01*
X109515461Y-100837034D01*
X109511210Y-100830420D01*
X108733862Y-100053073D01*
X108722330Y-100046776D01*
X108710048Y-100056399D01*
X108654467Y-100137877D01*
X108649379Y-100146833D01*
X108556252Y-100347459D01*
X108552689Y-100357146D01*
X108493581Y-100570280D01*
X108491650Y-100580400D01*
X108468145Y-100800349D01*
X108467893Y-100810638D01*
X98508000Y-100810638D01*
X98508000Y-98586695D01*
X101837251Y-98586695D01*
X101837548Y-98591848D01*
X101837548Y-98591851D01*
X101847184Y-98758971D01*
X101850110Y-98809715D01*
X101851247Y-98814761D01*
X101851248Y-98814767D01*
X101853537Y-98824922D01*
X101899222Y-99027639D01*
X101983266Y-99234616D01*
X102018286Y-99291764D01*
X102080224Y-99392837D01*
X102099987Y-99425088D01*
X102246250Y-99593938D01*
X102364187Y-99691851D01*
X102406509Y-99726987D01*
X102418126Y-99736632D01*
X102611000Y-99849338D01*
X102819692Y-99929030D01*
X102824760Y-99930061D01*
X102824763Y-99930062D01*
X102925534Y-99950564D01*
X103038597Y-99973567D01*
X103043772Y-99973757D01*
X103043774Y-99973757D01*
X103256673Y-99981564D01*
X103256677Y-99981564D01*
X103261837Y-99981753D01*
X103266957Y-99981097D01*
X103266959Y-99981097D01*
X103478288Y-99954025D01*
X103478289Y-99954025D01*
X103483416Y-99953368D01*
X103505218Y-99946827D01*
X103692429Y-99890661D01*
X103692434Y-99890659D01*
X103697384Y-99889174D01*
X103897994Y-99790896D01*
X104079860Y-99661173D01*
X104238096Y-99503489D01*
X104242500Y-99497361D01*
X104365435Y-99326277D01*
X104368453Y-99322077D01*
X104376460Y-99305877D01*
X104465136Y-99126453D01*
X104465137Y-99126451D01*
X104467430Y-99121811D01*
X104523508Y-98937237D01*
X104530865Y-98913023D01*
X104530865Y-98913021D01*
X104532370Y-98908069D01*
X104561529Y-98686590D01*
X104563156Y-98620000D01*
X104544852Y-98397361D01*
X104490431Y-98180702D01*
X104401354Y-97975840D01*
X104323272Y-97855144D01*
X104282822Y-97792617D01*
X104282820Y-97792614D01*
X104280014Y-97788277D01*
X104129670Y-97623051D01*
X104125619Y-97619852D01*
X104125615Y-97619848D01*
X103958414Y-97487800D01*
X103958410Y-97487798D01*
X103954359Y-97484598D01*
X103913053Y-97461796D01*
X103863084Y-97411364D01*
X103848312Y-97341921D01*
X103873428Y-97275516D01*
X103900780Y-97248909D01*
X103944603Y-97217650D01*
X104079860Y-97121173D01*
X104132735Y-97068483D01*
X104190543Y-97010876D01*
X104238096Y-96963489D01*
X104242500Y-96957361D01*
X104365435Y-96786277D01*
X104368453Y-96782077D01*
X104376460Y-96765877D01*
X104465136Y-96586453D01*
X104465137Y-96586451D01*
X104467430Y-96581811D01*
X104522237Y-96401421D01*
X104530865Y-96373023D01*
X104530865Y-96373021D01*
X104532370Y-96368069D01*
X104561529Y-96146590D01*
X104562549Y-96104852D01*
X104563074Y-96083365D01*
X104563074Y-96083361D01*
X104563156Y-96080000D01*
X104544852Y-95857361D01*
X104490431Y-95640702D01*
X104401354Y-95435840D01*
X104319756Y-95309708D01*
X104282822Y-95252617D01*
X104282820Y-95252614D01*
X104280014Y-95248277D01*
X104129670Y-95083051D01*
X104125619Y-95079852D01*
X104125615Y-95079848D01*
X103958414Y-94947800D01*
X103958410Y-94947798D01*
X103954359Y-94944598D01*
X103912569Y-94921529D01*
X103862598Y-94871097D01*
X103847826Y-94801654D01*
X103872942Y-94735248D01*
X103900294Y-94708641D01*
X104075328Y-94583792D01*
X104083200Y-94577139D01*
X104234052Y-94426812D01*
X104240730Y-94418965D01*
X104365003Y-94246020D01*
X104370313Y-94237183D01*
X104464670Y-94046267D01*
X104468469Y-94036672D01*
X104530377Y-93832910D01*
X104532555Y-93822837D01*
X104533986Y-93811962D01*
X104531775Y-93797778D01*
X104518617Y-93794000D01*
X101883225Y-93794000D01*
X101869694Y-93797973D01*
X101868257Y-93807966D01*
X101898565Y-93942446D01*
X101901645Y-93952275D01*
X101981770Y-94149603D01*
X101986413Y-94158794D01*
X102097694Y-94340388D01*
X102103777Y-94348699D01*
X102243213Y-94509667D01*
X102250580Y-94516883D01*
X102414434Y-94652916D01*
X102422881Y-94658831D01*
X102491969Y-94699203D01*
X102540693Y-94750842D01*
X102553764Y-94820625D01*
X102527033Y-94886396D01*
X102486584Y-94919752D01*
X102473607Y-94926507D01*
X102469474Y-94929610D01*
X102469471Y-94929612D01*
X102299100Y-95057530D01*
X102294965Y-95060635D01*
X102140629Y-95222138D01*
X102014743Y-95406680D01*
X101920688Y-95609305D01*
X101860989Y-95824570D01*
X101837251Y-96046695D01*
X101837548Y-96051848D01*
X101837548Y-96051851D01*
X101845365Y-96187428D01*
X101850110Y-96269715D01*
X101851247Y-96274761D01*
X101851248Y-96274767D01*
X101866954Y-96344457D01*
X101899222Y-96487639D01*
X101983266Y-96694616D01*
X102099987Y-96885088D01*
X102246250Y-97053938D01*
X102418126Y-97196632D01*
X102488595Y-97237811D01*
X102491445Y-97239476D01*
X102540169Y-97291114D01*
X102553240Y-97360897D01*
X102526509Y-97426669D01*
X102486055Y-97460027D01*
X102473607Y-97466507D01*
X102469474Y-97469610D01*
X102469471Y-97469612D01*
X102299100Y-97597530D01*
X102294965Y-97600635D01*
X102140629Y-97762138D01*
X102014743Y-97946680D01*
X101975976Y-98030197D01*
X101959587Y-98065505D01*
X101920688Y-98149305D01*
X101860989Y-98364570D01*
X101837251Y-98586695D01*
X98508000Y-98586695D01*
X98508000Y-91898134D01*
X101841500Y-91898134D01*
X101848255Y-91960316D01*
X101899385Y-92096705D01*
X101986739Y-92213261D01*
X102103295Y-92300615D01*
X102111704Y-92303767D01*
X102111705Y-92303768D01*
X102220960Y-92344726D01*
X102277725Y-92387367D01*
X102302425Y-92453929D01*
X102287218Y-92523278D01*
X102267825Y-92549759D01*
X102144590Y-92678717D01*
X102138104Y-92686727D01*
X102018098Y-92862649D01*
X102013000Y-92871623D01*
X101923338Y-93064783D01*
X101919775Y-93074470D01*
X101864389Y-93274183D01*
X101865912Y-93282607D01*
X101878292Y-93286000D01*
X104518344Y-93286000D01*
X104531875Y-93282027D01*
X104533180Y-93272947D01*
X104491214Y-93105875D01*
X104487894Y-93096124D01*
X104402972Y-92900814D01*
X104398105Y-92891739D01*
X104282426Y-92712926D01*
X104276136Y-92704757D01*
X104132293Y-92546677D01*
X104101241Y-92482831D01*
X104109635Y-92412333D01*
X104154812Y-92357564D01*
X104181256Y-92343895D01*
X104288297Y-92303767D01*
X104296705Y-92300615D01*
X104413261Y-92213261D01*
X104500615Y-92096705D01*
X104551745Y-91960316D01*
X104558500Y-91898134D01*
X104558500Y-90101866D01*
X104551745Y-90039684D01*
X104500615Y-89903295D01*
X104413261Y-89786739D01*
X104296705Y-89699385D01*
X104160316Y-89648255D01*
X104098134Y-89641500D01*
X102301866Y-89641500D01*
X102239684Y-89648255D01*
X102103295Y-89699385D01*
X101986739Y-89786739D01*
X101899385Y-89903295D01*
X101848255Y-90039684D01*
X101841500Y-90101866D01*
X101841500Y-91898134D01*
X98508000Y-91898134D01*
X98508000Y-85311137D01*
X112520070Y-85311137D01*
X112526528Y-85320497D01*
X112553488Y-85344141D01*
X112560003Y-85349139D01*
X112811028Y-85516869D01*
X112818165Y-85520990D01*
X113088930Y-85654516D01*
X113096534Y-85657666D01*
X113382413Y-85754709D01*
X113390365Y-85756840D01*
X113686469Y-85815738D01*
X113694627Y-85816812D01*
X113995881Y-85836557D01*
X114004119Y-85836557D01*
X114305373Y-85816812D01*
X114313531Y-85815738D01*
X114609635Y-85756840D01*
X114617587Y-85754709D01*
X114903466Y-85657666D01*
X114911070Y-85654516D01*
X115181835Y-85520990D01*
X115188972Y-85516869D01*
X115439997Y-85349139D01*
X115446512Y-85344141D01*
X115471609Y-85322131D01*
X115480004Y-85308896D01*
X115474169Y-85299129D01*
X114012812Y-83837772D01*
X113998868Y-83830158D01*
X113997035Y-83830289D01*
X113990420Y-83834540D01*
X112527584Y-85297376D01*
X112520070Y-85311137D01*
X98508000Y-85311137D01*
X98508000Y-83469869D01*
X111629193Y-83469869D01*
X111648938Y-83771123D01*
X111650012Y-83779281D01*
X111708910Y-84075385D01*
X111711041Y-84083337D01*
X111808081Y-84369207D01*
X111811236Y-84376826D01*
X111944761Y-84647585D01*
X111948882Y-84654723D01*
X112116611Y-84905747D01*
X112121609Y-84912262D01*
X112143619Y-84937359D01*
X112156854Y-84945754D01*
X112166621Y-84939919D01*
X113627978Y-83478562D01*
X113634356Y-83466882D01*
X114364408Y-83466882D01*
X114364539Y-83468715D01*
X114368790Y-83475330D01*
X115831626Y-84938166D01*
X115845387Y-84945680D01*
X115854747Y-84939222D01*
X115878391Y-84912262D01*
X115883389Y-84905747D01*
X116051118Y-84654723D01*
X116055239Y-84647585D01*
X116188764Y-84376826D01*
X116191919Y-84369207D01*
X116288959Y-84083337D01*
X116291090Y-84075385D01*
X116349988Y-83779281D01*
X116351062Y-83771123D01*
X116370807Y-83469869D01*
X116370807Y-83461631D01*
X116351062Y-83160377D01*
X116349988Y-83152219D01*
X116291090Y-82856115D01*
X116288959Y-82848163D01*
X116191919Y-82562293D01*
X116188764Y-82554674D01*
X116055239Y-82283915D01*
X116051118Y-82276777D01*
X115883389Y-82025753D01*
X115878391Y-82019238D01*
X115856381Y-81994141D01*
X115843146Y-81985746D01*
X115833379Y-81991581D01*
X114372022Y-83452938D01*
X114364408Y-83466882D01*
X113634356Y-83466882D01*
X113635592Y-83464618D01*
X113635461Y-83462785D01*
X113631210Y-83456170D01*
X112168374Y-81993334D01*
X112154613Y-81985820D01*
X112145253Y-81992278D01*
X112121609Y-82019238D01*
X112116611Y-82025753D01*
X111948882Y-82276777D01*
X111944761Y-82283915D01*
X111811236Y-82554674D01*
X111808081Y-82562293D01*
X111711041Y-82848163D01*
X111708910Y-82856115D01*
X111650012Y-83152219D01*
X111648938Y-83160377D01*
X111629193Y-83461631D01*
X111629193Y-83469869D01*
X98508000Y-83469869D01*
X98508000Y-81622604D01*
X112519996Y-81622604D01*
X112525831Y-81632371D01*
X113987188Y-83093728D01*
X114001132Y-83101342D01*
X114002965Y-83101211D01*
X114009580Y-83096960D01*
X115472416Y-81634124D01*
X115479930Y-81620363D01*
X115473472Y-81611003D01*
X115446512Y-81587359D01*
X115439997Y-81582361D01*
X115188972Y-81414631D01*
X115181835Y-81410510D01*
X114911070Y-81276984D01*
X114903466Y-81273834D01*
X114617587Y-81176791D01*
X114609635Y-81174660D01*
X114313531Y-81115762D01*
X114305373Y-81114688D01*
X114004119Y-81094943D01*
X113995881Y-81094943D01*
X113694627Y-81114688D01*
X113686469Y-81115762D01*
X113390365Y-81174660D01*
X113382413Y-81176791D01*
X113096543Y-81273831D01*
X113088924Y-81276986D01*
X112818165Y-81410511D01*
X112811027Y-81414632D01*
X112560003Y-81582361D01*
X112553488Y-81587359D01*
X112528391Y-81609369D01*
X112519996Y-81622604D01*
X98508000Y-81622604D01*
X98508000Y-78118596D01*
X109741500Y-78118596D01*
X109756548Y-78276316D01*
X109816092Y-78479284D01*
X109818836Y-78484611D01*
X109818836Y-78484612D01*
X109886144Y-78615298D01*
X109912942Y-78667330D01*
X110043604Y-78833670D01*
X110048135Y-78837602D01*
X110048138Y-78837605D01*
X110134058Y-78912162D01*
X110203363Y-78972302D01*
X110208549Y-78975302D01*
X110208553Y-78975305D01*
X110304957Y-79031076D01*
X110386454Y-79078223D01*
X110586271Y-79147611D01*
X110592206Y-79148472D01*
X110592208Y-79148472D01*
X110789664Y-79177102D01*
X110789667Y-79177102D01*
X110795604Y-79177963D01*
X111006899Y-79168183D01*
X111165812Y-79129885D01*
X111206701Y-79120031D01*
X111206703Y-79120030D01*
X111212534Y-79118625D01*
X111217992Y-79116143D01*
X111217996Y-79116142D01*
X111333041Y-79063834D01*
X111405087Y-79031076D01*
X111577611Y-78908696D01*
X111723881Y-78755900D01*
X111838620Y-78578202D01*
X111887953Y-78455791D01*
X111915442Y-78387582D01*
X111915443Y-78387579D01*
X111917686Y-78382013D01*
X111958228Y-78174413D01*
X111958500Y-78168851D01*
X111958500Y-78118596D01*
X123241500Y-78118596D01*
X123256548Y-78276316D01*
X123316092Y-78479284D01*
X123318836Y-78484611D01*
X123318836Y-78484612D01*
X123386144Y-78615298D01*
X123412942Y-78667330D01*
X123543604Y-78833670D01*
X123548135Y-78837602D01*
X123548138Y-78837605D01*
X123634058Y-78912162D01*
X123703363Y-78972302D01*
X123708549Y-78975302D01*
X123708553Y-78975305D01*
X123804957Y-79031076D01*
X123886454Y-79078223D01*
X124086271Y-79147611D01*
X124092206Y-79148472D01*
X124092208Y-79148472D01*
X124289664Y-79177102D01*
X124289667Y-79177102D01*
X124295604Y-79177963D01*
X124506899Y-79168183D01*
X124665812Y-79129885D01*
X124706701Y-79120031D01*
X124706703Y-79120030D01*
X124712534Y-79118625D01*
X124717992Y-79116143D01*
X124717996Y-79116142D01*
X124833041Y-79063834D01*
X124905087Y-79031076D01*
X125077611Y-78908696D01*
X125223881Y-78755900D01*
X125338620Y-78578202D01*
X125387953Y-78455791D01*
X125415442Y-78387582D01*
X125415443Y-78387579D01*
X125417686Y-78382013D01*
X125458228Y-78174413D01*
X125458500Y-78168851D01*
X125458500Y-76812904D01*
X125443452Y-76655184D01*
X125383908Y-76452216D01*
X125375081Y-76435078D01*
X125289804Y-76269501D01*
X125289802Y-76269498D01*
X125287058Y-76264170D01*
X125156396Y-76097830D01*
X125151865Y-76093898D01*
X125151862Y-76093895D01*
X125001167Y-75963129D01*
X124996637Y-75959198D01*
X124991451Y-75956198D01*
X124991447Y-75956195D01*
X124818742Y-75856283D01*
X124813546Y-75853277D01*
X124613729Y-75783889D01*
X124607794Y-75783028D01*
X124607792Y-75783028D01*
X124410336Y-75754398D01*
X124410333Y-75754398D01*
X124404396Y-75753537D01*
X124193101Y-75763317D01*
X124061923Y-75794931D01*
X123993299Y-75811469D01*
X123993297Y-75811470D01*
X123987466Y-75812875D01*
X123982008Y-75815357D01*
X123982004Y-75815358D01*
X123879965Y-75861753D01*
X123794913Y-75900424D01*
X123622389Y-76022804D01*
X123476119Y-76175600D01*
X123361380Y-76353298D01*
X123282314Y-76549487D01*
X123241772Y-76757087D01*
X123241500Y-76762649D01*
X123241500Y-78118596D01*
X111958500Y-78118596D01*
X111958500Y-76812904D01*
X111943452Y-76655184D01*
X111883908Y-76452216D01*
X111875081Y-76435078D01*
X111789804Y-76269501D01*
X111789802Y-76269498D01*
X111787058Y-76264170D01*
X111656396Y-76097830D01*
X111651865Y-76093898D01*
X111651862Y-76093895D01*
X111501167Y-75963129D01*
X111496637Y-75959198D01*
X111491451Y-75956198D01*
X111491447Y-75956195D01*
X111318742Y-75856283D01*
X111313546Y-75853277D01*
X111113729Y-75783889D01*
X111107794Y-75783028D01*
X111107792Y-75783028D01*
X110910336Y-75754398D01*
X110910333Y-75754398D01*
X110904396Y-75753537D01*
X110693101Y-75763317D01*
X110561923Y-75794931D01*
X110493299Y-75811469D01*
X110493297Y-75811470D01*
X110487466Y-75812875D01*
X110482008Y-75815357D01*
X110482004Y-75815358D01*
X110379965Y-75861753D01*
X110294913Y-75900424D01*
X110122389Y-76022804D01*
X109976119Y-76175600D01*
X109861380Y-76353298D01*
X109782314Y-76549487D01*
X109741772Y-76757087D01*
X109741500Y-76762649D01*
X109741500Y-78118596D01*
X98508000Y-78118596D01*
X98508000Y-74607655D01*
X100739858Y-74607655D01*
X100775104Y-74866638D01*
X100776412Y-74871124D01*
X100776412Y-74871126D01*
X100796098Y-74938664D01*
X100848243Y-75117567D01*
X100957668Y-75354928D01*
X100960231Y-75358837D01*
X101098410Y-75569596D01*
X101098414Y-75569601D01*
X101100976Y-75573509D01*
X101275018Y-75768506D01*
X101475970Y-75935637D01*
X101479973Y-75938066D01*
X101695422Y-76068804D01*
X101695426Y-76068806D01*
X101699419Y-76071229D01*
X101940455Y-76172303D01*
X102193783Y-76236641D01*
X102198434Y-76237109D01*
X102198438Y-76237110D01*
X102391308Y-76256531D01*
X102410867Y-76258500D01*
X102566354Y-76258500D01*
X102568679Y-76258327D01*
X102568685Y-76258327D01*
X102756000Y-76244407D01*
X102756004Y-76244406D01*
X102760652Y-76244061D01*
X102765200Y-76243032D01*
X102765206Y-76243031D01*
X102951601Y-76200853D01*
X103015577Y-76186377D01*
X103035275Y-76178717D01*
X103254824Y-76093340D01*
X103254827Y-76093339D01*
X103259177Y-76091647D01*
X103486098Y-75961951D01*
X103691357Y-75800138D01*
X103870443Y-75609763D01*
X104019424Y-75395009D01*
X104063768Y-75305088D01*
X104132960Y-75164781D01*
X104132961Y-75164778D01*
X104135025Y-75160593D01*
X104214707Y-74911665D01*
X104256721Y-74653693D01*
X104260142Y-74392345D01*
X104224896Y-74133362D01*
X104210473Y-74083877D01*
X104196021Y-74034297D01*
X104151757Y-73882433D01*
X104139498Y-73855840D01*
X104055030Y-73672617D01*
X104042332Y-73645072D01*
X103968386Y-73532285D01*
X103901590Y-73430404D01*
X103901586Y-73430399D01*
X103899024Y-73426491D01*
X103724982Y-73231494D01*
X103524030Y-73064363D01*
X103476844Y-73035730D01*
X103304578Y-72931196D01*
X103304574Y-72931194D01*
X103300581Y-72928771D01*
X103059545Y-72827697D01*
X102806217Y-72763359D01*
X102801566Y-72762891D01*
X102801562Y-72762890D01*
X102592271Y-72741816D01*
X102589133Y-72741500D01*
X102433646Y-72741500D01*
X102431321Y-72741673D01*
X102431315Y-72741673D01*
X102244000Y-72755593D01*
X102243996Y-72755594D01*
X102239348Y-72755939D01*
X102234800Y-72756968D01*
X102234794Y-72756969D01*
X102048399Y-72799147D01*
X101984423Y-72813623D01*
X101980071Y-72815315D01*
X101980069Y-72815316D01*
X101745176Y-72906660D01*
X101745173Y-72906661D01*
X101740823Y-72908353D01*
X101513902Y-73038049D01*
X101308643Y-73199862D01*
X101129557Y-73390237D01*
X100980576Y-73604991D01*
X100978510Y-73609181D01*
X100978508Y-73609184D01*
X100872006Y-73825150D01*
X100864975Y-73839407D01*
X100863553Y-73843850D01*
X100863552Y-73843852D01*
X100802804Y-74033629D01*
X100785293Y-74088335D01*
X100743279Y-74346307D01*
X100739858Y-74607655D01*
X98508000Y-74607655D01*
X98508000Y-67949328D01*
X98509500Y-67929943D01*
X98511805Y-67915142D01*
X98511805Y-67915139D01*
X98513186Y-67906270D01*
X98511532Y-67893622D01*
X98510948Y-67866308D01*
X98522110Y-67738722D01*
X98525924Y-67717092D01*
X98564972Y-67571364D01*
X98572484Y-67550725D01*
X98636245Y-67413990D01*
X98647227Y-67394970D01*
X98733764Y-67271382D01*
X98747882Y-67254557D01*
X98854557Y-67147882D01*
X98871382Y-67133764D01*
X98994970Y-67047227D01*
X99013990Y-67036245D01*
X99150725Y-66972484D01*
X99171364Y-66964972D01*
X99204112Y-66956197D01*
X99317096Y-66925923D01*
X99338719Y-66922111D01*
X99382609Y-66918271D01*
X99459419Y-66911551D01*
X99475879Y-66912104D01*
X99475884Y-66911695D01*
X99484858Y-66911805D01*
X99493730Y-66913186D01*
X99502632Y-66912022D01*
X99502635Y-66912022D01*
X99525251Y-66909064D01*
X99541589Y-66908000D01*
X155450672Y-66908000D01*
X155470057Y-66909500D01*
G37*
%TD.AperFunction*%
%TA.AperFunction,Conductor*%
G36*
X152352026Y-82615144D02*
G01*
X152379875Y-82646994D01*
X152439987Y-82745088D01*
X152586250Y-82913938D01*
X152758126Y-83056632D01*
X152827139Y-83096960D01*
X152831955Y-83099774D01*
X152880679Y-83151412D01*
X152893750Y-83221195D01*
X152867019Y-83286967D01*
X152826562Y-83320327D01*
X152818457Y-83324546D01*
X152809738Y-83330036D01*
X152639433Y-83457905D01*
X152631726Y-83464748D01*
X152484590Y-83618717D01*
X152478109Y-83626722D01*
X152373498Y-83780074D01*
X152318587Y-83825076D01*
X152248062Y-83833247D01*
X152184315Y-83801993D01*
X152163618Y-83777509D01*
X152082822Y-83652617D01*
X152082820Y-83652614D01*
X152080014Y-83648277D01*
X151929670Y-83483051D01*
X151925619Y-83479852D01*
X151925615Y-83479848D01*
X151758414Y-83347800D01*
X151758410Y-83347798D01*
X151754359Y-83344598D01*
X151713053Y-83321796D01*
X151663084Y-83271364D01*
X151648312Y-83201921D01*
X151673428Y-83135516D01*
X151700780Y-83108909D01*
X151744603Y-83077650D01*
X151879860Y-82981173D01*
X151896320Y-82964771D01*
X152005356Y-82856115D01*
X152038096Y-82823489D01*
X152072580Y-82775500D01*
X152168453Y-82642077D01*
X152169776Y-82643028D01*
X152216645Y-82599857D01*
X152286580Y-82587625D01*
X152352026Y-82615144D01*
G37*
%TD.AperFunction*%
%TD*%
M02*
