M48
; DRILL file {KiCad (6.0.2)} date Sat Apr 23 23:31:33 2022
; FORMAT={-:-/ absolute / inch / decimal}
; #@! TF.CreationDate,2022-04-23T23:31:33-04:00
; #@! TF.GenerationSoftware,Kicad,Pcbnew,(6.0.2)
; #@! TF.FileFunction,Plated,1,2,PTH
FMAT,2
INCH
; #@! TA.AperFunction,Plated,PTH,ViaDrill
T1C0.0157
; #@! TA.AperFunction,Plated,PTH,ComponentDrill
T2C0.0236
; #@! TA.AperFunction,Plated,PTH,ComponentDrill
T3C0.0315
; #@! TA.AperFunction,Plated,PTH,ComponentDrill
T4C0.0354
; #@! TA.AperFunction,Plated,PTH,ComponentDrill
T5C0.0394
; #@! TA.AperFunction,Plated,PTH,ComponentDrill
T6C0.1063
%
G90
G05
T1
X4.626Y-4.4449
X5.2736Y-4.3681
X5.3248Y-3.2874
X5.7972Y-3.937
X5.8012Y-3.4154
X5.9961Y-3.2776
T2
X4.063Y-4.8543
X4.063Y-4.9134
T3
X5.0866Y-3.126
X5.2835Y-3.126
T4
X4.326Y-3.6701
X4.326Y-3.7701
X4.326Y-3.8701
X4.326Y-3.9701
X4.326Y-4.0701
X4.326Y-4.1701
X4.326Y-4.2701
X4.326Y-4.3701
X4.326Y-4.4701
X4.326Y-4.5701
X4.326Y-4.6701
X4.326Y-4.7701
X4.326Y-4.8701
X4.326Y-4.9701
X4.326Y-5.0701
X4.926Y-3.6701
X4.926Y-3.7701
X4.926Y-3.8701
X4.926Y-3.9701
X4.926Y-4.0701
X4.926Y-4.1701
X4.926Y-4.2701
X4.926Y-4.3701
X4.926Y-4.4701
X4.926Y-4.5701
X4.926Y-4.6701
X4.926Y-4.7701
X4.926Y-4.8701
X4.926Y-4.9701
X4.926Y-5.0701
T5
X4.063Y-3.5827
X4.063Y-3.6827
X4.063Y-3.7827
X4.063Y-3.8827
X5.1673Y-4.2638
X5.1673Y-4.3638
X5.1673Y-4.4638
X5.1673Y-4.5638
X5.1673Y-4.6638
X5.1673Y-4.7638
X5.1673Y-4.8638
X5.1673Y-4.9638
X5.1673Y-5.0638
X5.1673Y-5.1638
X5.548Y-2.9331
X5.548Y-3.0331
X5.648Y-2.9331
X5.648Y-3.0331
X5.748Y-2.9331
X5.748Y-3.0331
X5.9449Y-3.126
X5.9449Y-3.226
X5.9449Y-3.326
X5.9449Y-3.426
X5.9449Y-3.526
X5.9449Y-3.626
X5.9449Y-3.726
X5.9449Y-3.826
X5.9449Y-3.926
X5.9449Y-4.026
X5.9449Y-4.126
X5.9449Y-4.226
X5.9449Y-4.326
X5.9449Y-4.426
X5.9449Y-4.526
X5.9449Y-4.626
X5.9449Y-4.726
X5.9449Y-4.826
X5.9449Y-4.926
X5.9449Y-5.026
X6.0449Y-3.126
X6.0449Y-3.226
X6.0449Y-3.326
X6.0449Y-3.426
X6.0449Y-3.526
X6.0449Y-3.626
X6.0449Y-3.726
X6.0449Y-3.826
X6.0449Y-3.926
X6.0449Y-4.026
X6.0449Y-4.126
X6.0449Y-4.226
X6.0449Y-4.326
X6.0449Y-4.426
X6.0449Y-4.526
X6.0449Y-4.626
X6.0449Y-4.726
X6.0449Y-4.826
X6.0449Y-4.926
X6.0449Y-5.026
T6
X4.4882Y-3.2861
X4.7717Y-3.2861
T2
G00X4.3642Y-3.0282
M15
G01X4.3642Y-3.0715
M16
G05
G00X4.8957Y-3.0282
M15
G01X4.8957Y-3.0715
M16
G05
T0
M30
