%FSLAX45Y45*%
G04 Gerber Fmt 4.5, Leading zero omitted, Abs format (unit mm)*
G04 Created by KiCad (PCBNEW (5.1.10)-1) date 2022-04-09 19:23:53*
%MOMM*%
%LPD*%
G01*
G04 APERTURE LIST*
%TA.AperFunction,Profile*%
%ADD10C,0.100000*%
%TD*%
%ADD11C,0.200000*%
%ADD12C,0.300000*%
G04 APERTURE END LIST*
D10*
X9800000Y-7250000D02*
G75*
G02*
X9950000Y-7100000I150000J0D01*
G01*
X9950000Y-13600000D02*
G75*
G02*
X9800000Y-13450000I0J150000D01*
G01*
X15700000Y-13450000D02*
G75*
G02*
X15550000Y-13600000I-150000J0D01*
G01*
X9950000Y-7100000D02*
X15550000Y-7100000D01*
X9800000Y-13450000D02*
X9800000Y-7250000D01*
X15550000Y-13600000D02*
X9950000Y-13600000D01*
X15700000Y-7250000D02*
X15700000Y-13450000D01*
X15550000Y-7100000D02*
G75*
G02*
X15700000Y-7250000I0J-150000D01*
G01*
D11*
X10500000Y-7860000D02*
X10540000Y-7900000D01*
X10540000Y-7860000D02*
X10500000Y-7900000D01*
X10560000Y-9360000D02*
X10600000Y-9400000D01*
X10600000Y-9360000D02*
X10560000Y-9400000D01*
X12760000Y-9540000D02*
X12800000Y-9580000D01*
X12800000Y-9540000D02*
X12760000Y-9580000D01*
X12840000Y-10960000D02*
X12880000Y-11000000D01*
X12880000Y-10960000D02*
X12840000Y-11000000D01*
X12940000Y-8160000D02*
X12980000Y-8200000D01*
X12980000Y-8160000D02*
X12940000Y-8200000D01*
X14020000Y-7920000D02*
X14060000Y-7960000D01*
X14060000Y-7920000D02*
X14020000Y-7960000D01*
X15580000Y-8420000D02*
X15620000Y-8460000D01*
X15620000Y-8420000D02*
X15580000Y-8460000D01*
X14650000Y-9940000D02*
G75*
G03*
X14650000Y-9940000I-30000J0D01*
G01*
X14650000Y-10090000D02*
G75*
G03*
X14650000Y-10090000I-30000J0D01*
G01*
X12200000Y-8200000D02*
X12200000Y-8280000D01*
X12160000Y-8240000D02*
X12240000Y-8240000D01*
X12700000Y-8200000D02*
X12700000Y-8280000D01*
X12660000Y-8240000D02*
X12740000Y-8240000D01*
X11019820Y-9353820D02*
X11019820Y-9290180D01*
X10956180Y-9290180D01*
X10956180Y-9353820D01*
X11019820Y-9353820D01*
X11019820Y-9607820D02*
X11019820Y-9544180D01*
X10956180Y-9544180D01*
X10956180Y-9607820D01*
X11019820Y-9607820D01*
X11019820Y-9861820D02*
X11019820Y-9798180D01*
X10956180Y-9798180D01*
X10956180Y-9861820D01*
X11019820Y-9861820D01*
X11019820Y-10115820D02*
X11019820Y-10052180D01*
X10956180Y-10052180D01*
X10956180Y-10115820D01*
X11019820Y-10115820D01*
X11019820Y-10369820D02*
X11019820Y-10306180D01*
X10956180Y-10306180D01*
X10956180Y-10369820D01*
X11019820Y-10369820D01*
X11019820Y-10623820D02*
X11019820Y-10560180D01*
X10956180Y-10560180D01*
X10956180Y-10623820D01*
X11019820Y-10623820D01*
X11019820Y-10877820D02*
X11019820Y-10814180D01*
X10956180Y-10814180D01*
X10956180Y-10877820D01*
X11019820Y-10877820D01*
X11019820Y-11131820D02*
X11019820Y-11068180D01*
X10956180Y-11068180D01*
X10956180Y-11131820D01*
X11019820Y-11131820D01*
X11019820Y-11385820D02*
X11019820Y-11322180D01*
X10956180Y-11322180D01*
X10956180Y-11385820D01*
X11019820Y-11385820D01*
X11019820Y-11639820D02*
X11019820Y-11576180D01*
X10956180Y-11576180D01*
X10956180Y-11639820D01*
X11019820Y-11639820D01*
X11019820Y-11893820D02*
X11019820Y-11830180D01*
X10956180Y-11830180D01*
X10956180Y-11893820D01*
X11019820Y-11893820D01*
X11019820Y-12147820D02*
X11019820Y-12084180D01*
X10956180Y-12084180D01*
X10956180Y-12147820D01*
X11019820Y-12147820D01*
X11019820Y-12401820D02*
X11019820Y-12338180D01*
X10956180Y-12338180D01*
X10956180Y-12401820D01*
X11019820Y-12401820D01*
X11019820Y-12655820D02*
X11019820Y-12592180D01*
X10956180Y-12592180D01*
X10956180Y-12655820D01*
X11019820Y-12655820D01*
X11019820Y-12909820D02*
X11019820Y-12846180D01*
X10956180Y-12846180D01*
X10956180Y-12909820D01*
X11019820Y-12909820D01*
X12543820Y-9353820D02*
X12543820Y-9290180D01*
X12480180Y-9290180D01*
X12480180Y-9353820D01*
X12543820Y-9353820D01*
X12543820Y-9607820D02*
X12543820Y-9544180D01*
X12480180Y-9544180D01*
X12480180Y-9607820D01*
X12543820Y-9607820D01*
X12543820Y-9861820D02*
X12543820Y-9798180D01*
X12480180Y-9798180D01*
X12480180Y-9861820D01*
X12543820Y-9861820D01*
X12543820Y-10115820D02*
X12543820Y-10052180D01*
X12480180Y-10052180D01*
X12480180Y-10115820D01*
X12543820Y-10115820D01*
X12543820Y-10369820D02*
X12543820Y-10306180D01*
X12480180Y-10306180D01*
X12480180Y-10369820D01*
X12543820Y-10369820D01*
X12543820Y-10623820D02*
X12543820Y-10560180D01*
X12480180Y-10560180D01*
X12480180Y-10623820D01*
X12543820Y-10623820D01*
X12543820Y-10877820D02*
X12543820Y-10814180D01*
X12480180Y-10814180D01*
X12480180Y-10877820D01*
X12543820Y-10877820D01*
X12543820Y-11131820D02*
X12543820Y-11068180D01*
X12480180Y-11068180D01*
X12480180Y-11131820D01*
X12543820Y-11131820D01*
X12543820Y-11385820D02*
X12543820Y-11322180D01*
X12480180Y-11322180D01*
X12480180Y-11385820D01*
X12543820Y-11385820D01*
X12543820Y-11639820D02*
X12543820Y-11576180D01*
X12480180Y-11576180D01*
X12480180Y-11639820D01*
X12543820Y-11639820D01*
X12543820Y-11893820D02*
X12543820Y-11830180D01*
X12480180Y-11830180D01*
X12480180Y-11893820D01*
X12543820Y-11893820D01*
X12543820Y-12147820D02*
X12543820Y-12084180D01*
X12480180Y-12084180D01*
X12480180Y-12147820D01*
X12543820Y-12147820D01*
X12543820Y-12401820D02*
X12543820Y-12338180D01*
X12480180Y-12338180D01*
X12480180Y-12401820D01*
X12543820Y-12401820D01*
X12543820Y-12655820D02*
X12543820Y-12592180D01*
X12480180Y-12592180D01*
X12480180Y-12655820D01*
X12543820Y-12655820D01*
X12543820Y-12909820D02*
X12543820Y-12846180D01*
X12480180Y-12846180D01*
X12480180Y-12909820D01*
X12543820Y-12909820D01*
X10320000Y-9150000D02*
X10370000Y-9100000D01*
X10320000Y-9050000D01*
X10270000Y-9100000D01*
X10320000Y-9150000D01*
X10320000Y-9404000D02*
X10370000Y-9354000D01*
X10320000Y-9304000D01*
X10270000Y-9354000D01*
X10320000Y-9404000D01*
X10320000Y-9658000D02*
X10370000Y-9608000D01*
X10320000Y-9558000D01*
X10270000Y-9608000D01*
X10320000Y-9658000D01*
X10320000Y-9912000D02*
X10370000Y-9862000D01*
X10320000Y-9812000D01*
X10270000Y-9862000D01*
X10320000Y-9912000D01*
X13125000Y-10880000D02*
X13175000Y-10830000D01*
X13125000Y-10780000D01*
X13075000Y-10830000D01*
X13125000Y-10880000D01*
X13125000Y-11134000D02*
X13175000Y-11084000D01*
X13125000Y-11034000D01*
X13075000Y-11084000D01*
X13125000Y-11134000D01*
X13125000Y-11388000D02*
X13175000Y-11338000D01*
X13125000Y-11288000D01*
X13075000Y-11338000D01*
X13125000Y-11388000D01*
X13125000Y-11642000D02*
X13175000Y-11592000D01*
X13125000Y-11542000D01*
X13075000Y-11592000D01*
X13125000Y-11642000D01*
X13125000Y-11896000D02*
X13175000Y-11846000D01*
X13125000Y-11796000D01*
X13075000Y-11846000D01*
X13125000Y-11896000D01*
X13125000Y-12150000D02*
X13175000Y-12100000D01*
X13125000Y-12050000D01*
X13075000Y-12100000D01*
X13125000Y-12150000D01*
X13125000Y-12404000D02*
X13175000Y-12354000D01*
X13125000Y-12304000D01*
X13075000Y-12354000D01*
X13125000Y-12404000D01*
X13125000Y-12658000D02*
X13175000Y-12608000D01*
X13125000Y-12558000D01*
X13075000Y-12608000D01*
X13125000Y-12658000D01*
X13125000Y-12912000D02*
X13175000Y-12862000D01*
X13125000Y-12812000D01*
X13075000Y-12862000D01*
X13125000Y-12912000D01*
X13125000Y-13166000D02*
X13175000Y-13116000D01*
X13125000Y-13066000D01*
X13075000Y-13116000D01*
X13125000Y-13166000D01*
X14092000Y-7500000D02*
X14142000Y-7450000D01*
X14092000Y-7400000D01*
X14042000Y-7450000D01*
X14092000Y-7500000D01*
X14092000Y-7754000D02*
X14142000Y-7704000D01*
X14092000Y-7654000D01*
X14042000Y-7704000D01*
X14092000Y-7754000D01*
X14346000Y-7500000D02*
X14396000Y-7450000D01*
X14346000Y-7400000D01*
X14296000Y-7450000D01*
X14346000Y-7500000D01*
X14346000Y-7754000D02*
X14396000Y-7704000D01*
X14346000Y-7654000D01*
X14296000Y-7704000D01*
X14346000Y-7754000D01*
X14600000Y-7500000D02*
X14650000Y-7450000D01*
X14600000Y-7400000D01*
X14550000Y-7450000D01*
X14600000Y-7500000D01*
X14600000Y-7754000D02*
X14650000Y-7704000D01*
X14600000Y-7654000D01*
X14550000Y-7704000D01*
X14600000Y-7754000D01*
X15100000Y-7990000D02*
X15150000Y-7940000D01*
X15100000Y-7890000D01*
X15050000Y-7940000D01*
X15100000Y-7990000D01*
X15100000Y-8244000D02*
X15150000Y-8194000D01*
X15100000Y-8144000D01*
X15050000Y-8194000D01*
X15100000Y-8244000D01*
X15100000Y-8498000D02*
X15150000Y-8448000D01*
X15100000Y-8398000D01*
X15050000Y-8448000D01*
X15100000Y-8498000D01*
X15100000Y-8752000D02*
X15150000Y-8702000D01*
X15100000Y-8652000D01*
X15050000Y-8702000D01*
X15100000Y-8752000D01*
X15100000Y-9006000D02*
X15150000Y-8956000D01*
X15100000Y-8906000D01*
X15050000Y-8956000D01*
X15100000Y-9006000D01*
X15100000Y-9260000D02*
X15150000Y-9210000D01*
X15100000Y-9160000D01*
X15050000Y-9210000D01*
X15100000Y-9260000D01*
X15100000Y-9514000D02*
X15150000Y-9464000D01*
X15100000Y-9414000D01*
X15050000Y-9464000D01*
X15100000Y-9514000D01*
X15100000Y-9768000D02*
X15150000Y-9718000D01*
X15100000Y-9668000D01*
X15050000Y-9718000D01*
X15100000Y-9768000D01*
X15100000Y-10022000D02*
X15150000Y-9972000D01*
X15100000Y-9922000D01*
X15050000Y-9972000D01*
X15100000Y-10022000D01*
X15100000Y-10276000D02*
X15150000Y-10226000D01*
X15100000Y-10176000D01*
X15050000Y-10226000D01*
X15100000Y-10276000D01*
X15100000Y-10530000D02*
X15150000Y-10480000D01*
X15100000Y-10430000D01*
X15050000Y-10480000D01*
X15100000Y-10530000D01*
X15100000Y-10784000D02*
X15150000Y-10734000D01*
X15100000Y-10684000D01*
X15050000Y-10734000D01*
X15100000Y-10784000D01*
X15100000Y-11038000D02*
X15150000Y-10988000D01*
X15100000Y-10938000D01*
X15050000Y-10988000D01*
X15100000Y-11038000D01*
X15100000Y-11292000D02*
X15150000Y-11242000D01*
X15100000Y-11192000D01*
X15050000Y-11242000D01*
X15100000Y-11292000D01*
X15100000Y-11546000D02*
X15150000Y-11496000D01*
X15100000Y-11446000D01*
X15050000Y-11496000D01*
X15100000Y-11546000D01*
X15100000Y-11800000D02*
X15150000Y-11750000D01*
X15100000Y-11700000D01*
X15050000Y-11750000D01*
X15100000Y-11800000D01*
X15100000Y-12054000D02*
X15150000Y-12004000D01*
X15100000Y-11954000D01*
X15050000Y-12004000D01*
X15100000Y-12054000D01*
X15100000Y-12308000D02*
X15150000Y-12258000D01*
X15100000Y-12208000D01*
X15050000Y-12258000D01*
X15100000Y-12308000D01*
X15100000Y-12562000D02*
X15150000Y-12512000D01*
X15100000Y-12462000D01*
X15050000Y-12512000D01*
X15100000Y-12562000D01*
X15100000Y-12816000D02*
X15150000Y-12766000D01*
X15100000Y-12716000D01*
X15050000Y-12766000D01*
X15100000Y-12816000D01*
X15354000Y-7990000D02*
X15404000Y-7940000D01*
X15354000Y-7890000D01*
X15304000Y-7940000D01*
X15354000Y-7990000D01*
X15354000Y-8244000D02*
X15404000Y-8194000D01*
X15354000Y-8144000D01*
X15304000Y-8194000D01*
X15354000Y-8244000D01*
X15354000Y-8498000D02*
X15404000Y-8448000D01*
X15354000Y-8398000D01*
X15304000Y-8448000D01*
X15354000Y-8498000D01*
X15354000Y-8752000D02*
X15404000Y-8702000D01*
X15354000Y-8652000D01*
X15304000Y-8702000D01*
X15354000Y-8752000D01*
X15354000Y-9006000D02*
X15404000Y-8956000D01*
X15354000Y-8906000D01*
X15304000Y-8956000D01*
X15354000Y-9006000D01*
X15354000Y-9260000D02*
X15404000Y-9210000D01*
X15354000Y-9160000D01*
X15304000Y-9210000D01*
X15354000Y-9260000D01*
X15354000Y-9514000D02*
X15404000Y-9464000D01*
X15354000Y-9414000D01*
X15304000Y-9464000D01*
X15354000Y-9514000D01*
X15354000Y-9768000D02*
X15404000Y-9718000D01*
X15354000Y-9668000D01*
X15304000Y-9718000D01*
X15354000Y-9768000D01*
X15354000Y-10022000D02*
X15404000Y-9972000D01*
X15354000Y-9922000D01*
X15304000Y-9972000D01*
X15354000Y-10022000D01*
X15354000Y-10276000D02*
X15404000Y-10226000D01*
X15354000Y-10176000D01*
X15304000Y-10226000D01*
X15354000Y-10276000D01*
X15354000Y-10530000D02*
X15404000Y-10480000D01*
X15354000Y-10430000D01*
X15304000Y-10480000D01*
X15354000Y-10530000D01*
X15354000Y-10784000D02*
X15404000Y-10734000D01*
X15354000Y-10684000D01*
X15304000Y-10734000D01*
X15354000Y-10784000D01*
X15354000Y-11038000D02*
X15404000Y-10988000D01*
X15354000Y-10938000D01*
X15304000Y-10988000D01*
X15354000Y-11038000D01*
X15354000Y-11292000D02*
X15404000Y-11242000D01*
X15354000Y-11192000D01*
X15304000Y-11242000D01*
X15354000Y-11292000D01*
X15354000Y-11546000D02*
X15404000Y-11496000D01*
X15354000Y-11446000D01*
X15304000Y-11496000D01*
X15354000Y-11546000D01*
X15354000Y-11800000D02*
X15404000Y-11750000D01*
X15354000Y-11700000D01*
X15304000Y-11750000D01*
X15354000Y-11800000D01*
X15354000Y-12054000D02*
X15404000Y-12004000D01*
X15354000Y-11954000D01*
X15304000Y-12004000D01*
X15354000Y-12054000D01*
X15354000Y-12308000D02*
X15404000Y-12258000D01*
X15354000Y-12208000D01*
X15304000Y-12258000D01*
X15354000Y-12308000D01*
X15354000Y-12562000D02*
X15404000Y-12512000D01*
X15354000Y-12462000D01*
X15304000Y-12512000D01*
X15354000Y-12562000D01*
X15354000Y-12816000D02*
X15404000Y-12766000D01*
X15354000Y-12716000D01*
X15304000Y-12766000D01*
X15354000Y-12816000D01*
X10935000Y-7385000D02*
X11065000Y-7515000D01*
X11065000Y-7385000D02*
X10935000Y-7515000D01*
X11065000Y-7450000D02*
G75*
G03*
X11065000Y-7450000I-65000J0D01*
G01*
X11435000Y-7385000D02*
X11565000Y-7515000D01*
X11565000Y-7385000D02*
X11435000Y-7515000D01*
X11565000Y-7450000D02*
G75*
G03*
X11565000Y-7450000I-65000J0D01*
G01*
D12*
X10081428Y-14070714D02*
X10081428Y-13770714D01*
X10152857Y-13770714D01*
X10195714Y-13785000D01*
X10224286Y-13813571D01*
X10238571Y-13842143D01*
X10252857Y-13899286D01*
X10252857Y-13942143D01*
X10238571Y-13999286D01*
X10224286Y-14027857D01*
X10195714Y-14056429D01*
X10152857Y-14070714D01*
X10081428Y-14070714D01*
X10381428Y-14070714D02*
X10381428Y-13870714D01*
X10381428Y-13927857D02*
X10395714Y-13899286D01*
X10410000Y-13885000D01*
X10438571Y-13870714D01*
X10467143Y-13870714D01*
X10567143Y-14070714D02*
X10567143Y-13870714D01*
X10567143Y-13770714D02*
X10552857Y-13785000D01*
X10567143Y-13799286D01*
X10581428Y-13785000D01*
X10567143Y-13770714D01*
X10567143Y-13799286D01*
X10752857Y-14070714D02*
X10724286Y-14056429D01*
X10710000Y-14027857D01*
X10710000Y-13770714D01*
X10910000Y-14070714D02*
X10881428Y-14056429D01*
X10867143Y-14027857D01*
X10867143Y-13770714D01*
X11252857Y-14070714D02*
X11252857Y-13770714D01*
X11352857Y-13985000D01*
X11452857Y-13770714D01*
X11452857Y-14070714D01*
X11724286Y-14070714D02*
X11724286Y-13913571D01*
X11710000Y-13885000D01*
X11681428Y-13870714D01*
X11624286Y-13870714D01*
X11595714Y-13885000D01*
X11724286Y-14056429D02*
X11695714Y-14070714D01*
X11624286Y-14070714D01*
X11595714Y-14056429D01*
X11581428Y-14027857D01*
X11581428Y-13999286D01*
X11595714Y-13970714D01*
X11624286Y-13956429D01*
X11695714Y-13956429D01*
X11724286Y-13942143D01*
X11867143Y-13870714D02*
X11867143Y-14170714D01*
X11867143Y-13885000D02*
X11895714Y-13870714D01*
X11952857Y-13870714D01*
X11981428Y-13885000D01*
X11995714Y-13899286D01*
X12010000Y-13927857D01*
X12010000Y-14013571D01*
X11995714Y-14042143D01*
X11981428Y-14056429D01*
X11952857Y-14070714D01*
X11895714Y-14070714D01*
X11867143Y-14056429D01*
X12138571Y-14042143D02*
X12152857Y-14056429D01*
X12138571Y-14070714D01*
X12124286Y-14056429D01*
X12138571Y-14042143D01*
X12138571Y-14070714D01*
X12138571Y-13885000D02*
X12152857Y-13899286D01*
X12138571Y-13913571D01*
X12124286Y-13899286D01*
X12138571Y-13885000D01*
X12138571Y-13913571D01*
X9755000Y-14545000D02*
X9795000Y-14585000D01*
X9795000Y-14545000D02*
X9755000Y-14585000D01*
X10138571Y-14400714D02*
X10167143Y-14400714D01*
X10195714Y-14415000D01*
X10210000Y-14429286D01*
X10224286Y-14457857D01*
X10238571Y-14515000D01*
X10238571Y-14586429D01*
X10224286Y-14643571D01*
X10210000Y-14672143D01*
X10195714Y-14686429D01*
X10167143Y-14700714D01*
X10138571Y-14700714D01*
X10110000Y-14686429D01*
X10095714Y-14672143D01*
X10081428Y-14643571D01*
X10067143Y-14586429D01*
X10067143Y-14515000D01*
X10081428Y-14457857D01*
X10095714Y-14429286D01*
X10110000Y-14415000D01*
X10138571Y-14400714D01*
X10367143Y-14672143D02*
X10381428Y-14686429D01*
X10367143Y-14700714D01*
X10352857Y-14686429D01*
X10367143Y-14672143D01*
X10367143Y-14700714D01*
X10638571Y-14500714D02*
X10638571Y-14700714D01*
X10567143Y-14386429D02*
X10495714Y-14600714D01*
X10681428Y-14600714D01*
X10852857Y-14400714D02*
X10881428Y-14400714D01*
X10910000Y-14415000D01*
X10924286Y-14429286D01*
X10938571Y-14457857D01*
X10952857Y-14515000D01*
X10952857Y-14586429D01*
X10938571Y-14643571D01*
X10924286Y-14672143D01*
X10910000Y-14686429D01*
X10881428Y-14700714D01*
X10852857Y-14700714D01*
X10824286Y-14686429D01*
X10810000Y-14672143D01*
X10795714Y-14643571D01*
X10781428Y-14586429D01*
X10781428Y-14515000D01*
X10795714Y-14457857D01*
X10810000Y-14429286D01*
X10824286Y-14415000D01*
X10852857Y-14400714D01*
X11138571Y-14400714D02*
X11167143Y-14400714D01*
X11195714Y-14415000D01*
X11210000Y-14429286D01*
X11224286Y-14457857D01*
X11238571Y-14515000D01*
X11238571Y-14586429D01*
X11224286Y-14643571D01*
X11210000Y-14672143D01*
X11195714Y-14686429D01*
X11167143Y-14700714D01*
X11138571Y-14700714D01*
X11110000Y-14686429D01*
X11095714Y-14672143D01*
X11081428Y-14643571D01*
X11067143Y-14586429D01*
X11067143Y-14515000D01*
X11081428Y-14457857D01*
X11095714Y-14429286D01*
X11110000Y-14415000D01*
X11138571Y-14400714D01*
X11367143Y-14700714D02*
X11367143Y-14500714D01*
X11367143Y-14529286D02*
X11381428Y-14515000D01*
X11410000Y-14500714D01*
X11452857Y-14500714D01*
X11481428Y-14515000D01*
X11495714Y-14543571D01*
X11495714Y-14700714D01*
X11495714Y-14543571D02*
X11510000Y-14515000D01*
X11538571Y-14500714D01*
X11581428Y-14500714D01*
X11610000Y-14515000D01*
X11624286Y-14543571D01*
X11624286Y-14700714D01*
X11767143Y-14700714D02*
X11767143Y-14500714D01*
X11767143Y-14529286D02*
X11781428Y-14515000D01*
X11810000Y-14500714D01*
X11852857Y-14500714D01*
X11881428Y-14515000D01*
X11895714Y-14543571D01*
X11895714Y-14700714D01*
X11895714Y-14543571D02*
X11910000Y-14515000D01*
X11938571Y-14500714D01*
X11981428Y-14500714D01*
X12010000Y-14515000D01*
X12024286Y-14543571D01*
X12024286Y-14700714D01*
X12610000Y-14386429D02*
X12352857Y-14772143D01*
X12995714Y-14400714D02*
X13024286Y-14400714D01*
X13052857Y-14415000D01*
X13067143Y-14429286D01*
X13081428Y-14457857D01*
X13095714Y-14515000D01*
X13095714Y-14586429D01*
X13081428Y-14643571D01*
X13067143Y-14672143D01*
X13052857Y-14686429D01*
X13024286Y-14700714D01*
X12995714Y-14700714D01*
X12967143Y-14686429D01*
X12952857Y-14672143D01*
X12938571Y-14643571D01*
X12924286Y-14586429D01*
X12924286Y-14515000D01*
X12938571Y-14457857D01*
X12952857Y-14429286D01*
X12967143Y-14415000D01*
X12995714Y-14400714D01*
X13224286Y-14672143D02*
X13238571Y-14686429D01*
X13224286Y-14700714D01*
X13210000Y-14686429D01*
X13224286Y-14672143D01*
X13224286Y-14700714D01*
X13424286Y-14400714D02*
X13452857Y-14400714D01*
X13481428Y-14415000D01*
X13495714Y-14429286D01*
X13510000Y-14457857D01*
X13524286Y-14515000D01*
X13524286Y-14586429D01*
X13510000Y-14643571D01*
X13495714Y-14672143D01*
X13481428Y-14686429D01*
X13452857Y-14700714D01*
X13424286Y-14700714D01*
X13395714Y-14686429D01*
X13381428Y-14672143D01*
X13367143Y-14643571D01*
X13352857Y-14586429D01*
X13352857Y-14515000D01*
X13367143Y-14457857D01*
X13381428Y-14429286D01*
X13395714Y-14415000D01*
X13424286Y-14400714D01*
X13810000Y-14700714D02*
X13638571Y-14700714D01*
X13724286Y-14700714D02*
X13724286Y-14400714D01*
X13695714Y-14443571D01*
X13667143Y-14472143D01*
X13638571Y-14486429D01*
X14081428Y-14400714D02*
X13938571Y-14400714D01*
X13924286Y-14543571D01*
X13938571Y-14529286D01*
X13967143Y-14515000D01*
X14038571Y-14515000D01*
X14067143Y-14529286D01*
X14081428Y-14543571D01*
X14095714Y-14572143D01*
X14095714Y-14643571D01*
X14081428Y-14672143D01*
X14067143Y-14686429D01*
X14038571Y-14700714D01*
X13967143Y-14700714D01*
X13938571Y-14686429D01*
X13924286Y-14672143D01*
X14195714Y-14400714D02*
X14395714Y-14400714D01*
X14267143Y-14700714D01*
X14495714Y-14400714D02*
X14495714Y-14457857D01*
X14610000Y-14400714D02*
X14610000Y-14457857D01*
X15052857Y-14815000D02*
X15038571Y-14800714D01*
X15010000Y-14757857D01*
X14995714Y-14729286D01*
X14981428Y-14686429D01*
X14967143Y-14615000D01*
X14967143Y-14557857D01*
X14981428Y-14486429D01*
X14995714Y-14443571D01*
X15010000Y-14415000D01*
X15038571Y-14372143D01*
X15052857Y-14357857D01*
X15138571Y-14400714D02*
X15338571Y-14400714D01*
X15210000Y-14700714D01*
X15681428Y-14700714D02*
X15681428Y-14400714D01*
X15810000Y-14700714D02*
X15810000Y-14543571D01*
X15795714Y-14515000D01*
X15767143Y-14500714D01*
X15724286Y-14500714D01*
X15695714Y-14515000D01*
X15681428Y-14529286D01*
X15995714Y-14700714D02*
X15967143Y-14686429D01*
X15952857Y-14672143D01*
X15938571Y-14643571D01*
X15938571Y-14557857D01*
X15952857Y-14529286D01*
X15967143Y-14515000D01*
X15995714Y-14500714D01*
X16038571Y-14500714D01*
X16067143Y-14515000D01*
X16081428Y-14529286D01*
X16095714Y-14557857D01*
X16095714Y-14643571D01*
X16081428Y-14672143D01*
X16067143Y-14686429D01*
X16038571Y-14700714D01*
X15995714Y-14700714D01*
X16267143Y-14700714D02*
X16238571Y-14686429D01*
X16224286Y-14657857D01*
X16224286Y-14400714D01*
X16495714Y-14686429D02*
X16467143Y-14700714D01*
X16410000Y-14700714D01*
X16381428Y-14686429D01*
X16367143Y-14657857D01*
X16367143Y-14543571D01*
X16381428Y-14515000D01*
X16410000Y-14500714D01*
X16467143Y-14500714D01*
X16495714Y-14515000D01*
X16510000Y-14543571D01*
X16510000Y-14572143D01*
X16367143Y-14600714D01*
X16624286Y-14686429D02*
X16652857Y-14700714D01*
X16710000Y-14700714D01*
X16738571Y-14686429D01*
X16752857Y-14657857D01*
X16752857Y-14643571D01*
X16738571Y-14615000D01*
X16710000Y-14600714D01*
X16667143Y-14600714D01*
X16638571Y-14586429D01*
X16624286Y-14557857D01*
X16624286Y-14543571D01*
X16638571Y-14515000D01*
X16667143Y-14500714D01*
X16710000Y-14500714D01*
X16738571Y-14515000D01*
X16852857Y-14815000D02*
X16867143Y-14800714D01*
X16895714Y-14757857D01*
X16910000Y-14729286D01*
X16924286Y-14686429D01*
X16938571Y-14615000D01*
X16938571Y-14557857D01*
X16924286Y-14486429D01*
X16910000Y-14443571D01*
X16895714Y-14415000D01*
X16867143Y-14372143D01*
X16852857Y-14357857D01*
X9795000Y-14961000D02*
G75*
G03*
X9795000Y-14961000I-30000J0D01*
G01*
X10138571Y-14796714D02*
X10167143Y-14796714D01*
X10195714Y-14811000D01*
X10210000Y-14825286D01*
X10224286Y-14853857D01*
X10238571Y-14911000D01*
X10238571Y-14982429D01*
X10224286Y-15039571D01*
X10210000Y-15068143D01*
X10195714Y-15082429D01*
X10167143Y-15096714D01*
X10138571Y-15096714D01*
X10110000Y-15082429D01*
X10095714Y-15068143D01*
X10081428Y-15039571D01*
X10067143Y-14982429D01*
X10067143Y-14911000D01*
X10081428Y-14853857D01*
X10095714Y-14825286D01*
X10110000Y-14811000D01*
X10138571Y-14796714D01*
X10367143Y-15068143D02*
X10381428Y-15082429D01*
X10367143Y-15096714D01*
X10352857Y-15082429D01*
X10367143Y-15068143D01*
X10367143Y-15096714D01*
X10638571Y-14796714D02*
X10581428Y-14796714D01*
X10552857Y-14811000D01*
X10538571Y-14825286D01*
X10510000Y-14868143D01*
X10495714Y-14925286D01*
X10495714Y-15039571D01*
X10510000Y-15068143D01*
X10524286Y-15082429D01*
X10552857Y-15096714D01*
X10610000Y-15096714D01*
X10638571Y-15082429D01*
X10652857Y-15068143D01*
X10667143Y-15039571D01*
X10667143Y-14968143D01*
X10652857Y-14939571D01*
X10638571Y-14925286D01*
X10610000Y-14911000D01*
X10552857Y-14911000D01*
X10524286Y-14925286D01*
X10510000Y-14939571D01*
X10495714Y-14968143D01*
X10852857Y-14796714D02*
X10881428Y-14796714D01*
X10910000Y-14811000D01*
X10924286Y-14825286D01*
X10938571Y-14853857D01*
X10952857Y-14911000D01*
X10952857Y-14982429D01*
X10938571Y-15039571D01*
X10924286Y-15068143D01*
X10910000Y-15082429D01*
X10881428Y-15096714D01*
X10852857Y-15096714D01*
X10824286Y-15082429D01*
X10810000Y-15068143D01*
X10795714Y-15039571D01*
X10781428Y-14982429D01*
X10781428Y-14911000D01*
X10795714Y-14853857D01*
X10810000Y-14825286D01*
X10824286Y-14811000D01*
X10852857Y-14796714D01*
X11138571Y-14796714D02*
X11167143Y-14796714D01*
X11195714Y-14811000D01*
X11210000Y-14825286D01*
X11224286Y-14853857D01*
X11238571Y-14911000D01*
X11238571Y-14982429D01*
X11224286Y-15039571D01*
X11210000Y-15068143D01*
X11195714Y-15082429D01*
X11167143Y-15096714D01*
X11138571Y-15096714D01*
X11110000Y-15082429D01*
X11095714Y-15068143D01*
X11081428Y-15039571D01*
X11067143Y-14982429D01*
X11067143Y-14911000D01*
X11081428Y-14853857D01*
X11095714Y-14825286D01*
X11110000Y-14811000D01*
X11138571Y-14796714D01*
X11367143Y-15096714D02*
X11367143Y-14896714D01*
X11367143Y-14925286D02*
X11381428Y-14911000D01*
X11410000Y-14896714D01*
X11452857Y-14896714D01*
X11481428Y-14911000D01*
X11495714Y-14939571D01*
X11495714Y-15096714D01*
X11495714Y-14939571D02*
X11510000Y-14911000D01*
X11538571Y-14896714D01*
X11581428Y-14896714D01*
X11610000Y-14911000D01*
X11624286Y-14939571D01*
X11624286Y-15096714D01*
X11767143Y-15096714D02*
X11767143Y-14896714D01*
X11767143Y-14925286D02*
X11781428Y-14911000D01*
X11810000Y-14896714D01*
X11852857Y-14896714D01*
X11881428Y-14911000D01*
X11895714Y-14939571D01*
X11895714Y-15096714D01*
X11895714Y-14939571D02*
X11910000Y-14911000D01*
X11938571Y-14896714D01*
X11981428Y-14896714D01*
X12010000Y-14911000D01*
X12024286Y-14939571D01*
X12024286Y-15096714D01*
X12610000Y-14782429D02*
X12352857Y-15168143D01*
X12995714Y-14796714D02*
X13024286Y-14796714D01*
X13052857Y-14811000D01*
X13067143Y-14825286D01*
X13081428Y-14853857D01*
X13095714Y-14911000D01*
X13095714Y-14982429D01*
X13081428Y-15039571D01*
X13067143Y-15068143D01*
X13052857Y-15082429D01*
X13024286Y-15096714D01*
X12995714Y-15096714D01*
X12967143Y-15082429D01*
X12952857Y-15068143D01*
X12938571Y-15039571D01*
X12924286Y-14982429D01*
X12924286Y-14911000D01*
X12938571Y-14853857D01*
X12952857Y-14825286D01*
X12967143Y-14811000D01*
X12995714Y-14796714D01*
X13224286Y-15068143D02*
X13238571Y-15082429D01*
X13224286Y-15096714D01*
X13210000Y-15082429D01*
X13224286Y-15068143D01*
X13224286Y-15096714D01*
X13424286Y-14796714D02*
X13452857Y-14796714D01*
X13481428Y-14811000D01*
X13495714Y-14825286D01*
X13510000Y-14853857D01*
X13524286Y-14911000D01*
X13524286Y-14982429D01*
X13510000Y-15039571D01*
X13495714Y-15068143D01*
X13481428Y-15082429D01*
X13452857Y-15096714D01*
X13424286Y-15096714D01*
X13395714Y-15082429D01*
X13381428Y-15068143D01*
X13367143Y-15039571D01*
X13352857Y-14982429D01*
X13352857Y-14911000D01*
X13367143Y-14853857D01*
X13381428Y-14825286D01*
X13395714Y-14811000D01*
X13424286Y-14796714D01*
X13638571Y-14825286D02*
X13652857Y-14811000D01*
X13681428Y-14796714D01*
X13752857Y-14796714D01*
X13781428Y-14811000D01*
X13795714Y-14825286D01*
X13810000Y-14853857D01*
X13810000Y-14882429D01*
X13795714Y-14925286D01*
X13624286Y-15096714D01*
X13810000Y-15096714D01*
X13910000Y-14796714D02*
X14095714Y-14796714D01*
X13995714Y-14911000D01*
X14038571Y-14911000D01*
X14067143Y-14925286D01*
X14081428Y-14939571D01*
X14095714Y-14968143D01*
X14095714Y-15039571D01*
X14081428Y-15068143D01*
X14067143Y-15082429D01*
X14038571Y-15096714D01*
X13952857Y-15096714D01*
X13924286Y-15082429D01*
X13910000Y-15068143D01*
X14352857Y-14796714D02*
X14295714Y-14796714D01*
X14267143Y-14811000D01*
X14252857Y-14825286D01*
X14224286Y-14868143D01*
X14210000Y-14925286D01*
X14210000Y-15039571D01*
X14224286Y-15068143D01*
X14238571Y-15082429D01*
X14267143Y-15096714D01*
X14324286Y-15096714D01*
X14352857Y-15082429D01*
X14367143Y-15068143D01*
X14381428Y-15039571D01*
X14381428Y-14968143D01*
X14367143Y-14939571D01*
X14352857Y-14925286D01*
X14324286Y-14911000D01*
X14267143Y-14911000D01*
X14238571Y-14925286D01*
X14224286Y-14939571D01*
X14210000Y-14968143D01*
X14495714Y-14796714D02*
X14495714Y-14853857D01*
X14610000Y-14796714D02*
X14610000Y-14853857D01*
X15052857Y-15211000D02*
X15038571Y-15196714D01*
X15010000Y-15153857D01*
X14995714Y-15125286D01*
X14981428Y-15082429D01*
X14967143Y-15011000D01*
X14967143Y-14953857D01*
X14981428Y-14882429D01*
X14995714Y-14839571D01*
X15010000Y-14811000D01*
X15038571Y-14768143D01*
X15052857Y-14753857D01*
X15152857Y-14825286D02*
X15167143Y-14811000D01*
X15195714Y-14796714D01*
X15267143Y-14796714D01*
X15295714Y-14811000D01*
X15310000Y-14825286D01*
X15324286Y-14853857D01*
X15324286Y-14882429D01*
X15310000Y-14925286D01*
X15138571Y-15096714D01*
X15324286Y-15096714D01*
X15681428Y-15096714D02*
X15681428Y-14796714D01*
X15810000Y-15096714D02*
X15810000Y-14939571D01*
X15795714Y-14911000D01*
X15767143Y-14896714D01*
X15724286Y-14896714D01*
X15695714Y-14911000D01*
X15681428Y-14925286D01*
X15995714Y-15096714D02*
X15967143Y-15082429D01*
X15952857Y-15068143D01*
X15938571Y-15039571D01*
X15938571Y-14953857D01*
X15952857Y-14925286D01*
X15967143Y-14911000D01*
X15995714Y-14896714D01*
X16038571Y-14896714D01*
X16067143Y-14911000D01*
X16081428Y-14925286D01*
X16095714Y-14953857D01*
X16095714Y-15039571D01*
X16081428Y-15068143D01*
X16067143Y-15082429D01*
X16038571Y-15096714D01*
X15995714Y-15096714D01*
X16267143Y-15096714D02*
X16238571Y-15082429D01*
X16224286Y-15053857D01*
X16224286Y-14796714D01*
X16495714Y-15082429D02*
X16467143Y-15096714D01*
X16410000Y-15096714D01*
X16381428Y-15082429D01*
X16367143Y-15053857D01*
X16367143Y-14939571D01*
X16381428Y-14911000D01*
X16410000Y-14896714D01*
X16467143Y-14896714D01*
X16495714Y-14911000D01*
X16510000Y-14939571D01*
X16510000Y-14968143D01*
X16367143Y-14996714D01*
X16624286Y-15082429D02*
X16652857Y-15096714D01*
X16710000Y-15096714D01*
X16738571Y-15082429D01*
X16752857Y-15053857D01*
X16752857Y-15039571D01*
X16738571Y-15011000D01*
X16710000Y-14996714D01*
X16667143Y-14996714D01*
X16638571Y-14982429D01*
X16624286Y-14953857D01*
X16624286Y-14939571D01*
X16638571Y-14911000D01*
X16667143Y-14896714D01*
X16710000Y-14896714D01*
X16738571Y-14911000D01*
X16852857Y-15211000D02*
X16867143Y-15196714D01*
X16895714Y-15153857D01*
X16910000Y-15125286D01*
X16924286Y-15082429D01*
X16938571Y-15011000D01*
X16938571Y-14953857D01*
X16924286Y-14882429D01*
X16910000Y-14839571D01*
X16895714Y-14811000D01*
X16867143Y-14768143D01*
X16852857Y-14753857D01*
X9755000Y-15317000D02*
X9755000Y-15397000D01*
X9715000Y-15357000D02*
X9795000Y-15357000D01*
X10138571Y-15192714D02*
X10167143Y-15192714D01*
X10195714Y-15207000D01*
X10210000Y-15221286D01*
X10224286Y-15249857D01*
X10238571Y-15307000D01*
X10238571Y-15378429D01*
X10224286Y-15435571D01*
X10210000Y-15464143D01*
X10195714Y-15478429D01*
X10167143Y-15492714D01*
X10138571Y-15492714D01*
X10110000Y-15478429D01*
X10095714Y-15464143D01*
X10081428Y-15435571D01*
X10067143Y-15378429D01*
X10067143Y-15307000D01*
X10081428Y-15249857D01*
X10095714Y-15221286D01*
X10110000Y-15207000D01*
X10138571Y-15192714D01*
X10367143Y-15464143D02*
X10381428Y-15478429D01*
X10367143Y-15492714D01*
X10352857Y-15478429D01*
X10367143Y-15464143D01*
X10367143Y-15492714D01*
X10552857Y-15321286D02*
X10524286Y-15307000D01*
X10510000Y-15292714D01*
X10495714Y-15264143D01*
X10495714Y-15249857D01*
X10510000Y-15221286D01*
X10524286Y-15207000D01*
X10552857Y-15192714D01*
X10610000Y-15192714D01*
X10638571Y-15207000D01*
X10652857Y-15221286D01*
X10667143Y-15249857D01*
X10667143Y-15264143D01*
X10652857Y-15292714D01*
X10638571Y-15307000D01*
X10610000Y-15321286D01*
X10552857Y-15321286D01*
X10524286Y-15335571D01*
X10510000Y-15349857D01*
X10495714Y-15378429D01*
X10495714Y-15435571D01*
X10510000Y-15464143D01*
X10524286Y-15478429D01*
X10552857Y-15492714D01*
X10610000Y-15492714D01*
X10638571Y-15478429D01*
X10652857Y-15464143D01*
X10667143Y-15435571D01*
X10667143Y-15378429D01*
X10652857Y-15349857D01*
X10638571Y-15335571D01*
X10610000Y-15321286D01*
X10852857Y-15192714D02*
X10881428Y-15192714D01*
X10910000Y-15207000D01*
X10924286Y-15221286D01*
X10938571Y-15249857D01*
X10952857Y-15307000D01*
X10952857Y-15378429D01*
X10938571Y-15435571D01*
X10924286Y-15464143D01*
X10910000Y-15478429D01*
X10881428Y-15492714D01*
X10852857Y-15492714D01*
X10824286Y-15478429D01*
X10810000Y-15464143D01*
X10795714Y-15435571D01*
X10781428Y-15378429D01*
X10781428Y-15307000D01*
X10795714Y-15249857D01*
X10810000Y-15221286D01*
X10824286Y-15207000D01*
X10852857Y-15192714D01*
X11138571Y-15192714D02*
X11167143Y-15192714D01*
X11195714Y-15207000D01*
X11210000Y-15221286D01*
X11224286Y-15249857D01*
X11238571Y-15307000D01*
X11238571Y-15378429D01*
X11224286Y-15435571D01*
X11210000Y-15464143D01*
X11195714Y-15478429D01*
X11167143Y-15492714D01*
X11138571Y-15492714D01*
X11110000Y-15478429D01*
X11095714Y-15464143D01*
X11081428Y-15435571D01*
X11067143Y-15378429D01*
X11067143Y-15307000D01*
X11081428Y-15249857D01*
X11095714Y-15221286D01*
X11110000Y-15207000D01*
X11138571Y-15192714D01*
X11367143Y-15492714D02*
X11367143Y-15292714D01*
X11367143Y-15321286D02*
X11381428Y-15307000D01*
X11410000Y-15292714D01*
X11452857Y-15292714D01*
X11481428Y-15307000D01*
X11495714Y-15335571D01*
X11495714Y-15492714D01*
X11495714Y-15335571D02*
X11510000Y-15307000D01*
X11538571Y-15292714D01*
X11581428Y-15292714D01*
X11610000Y-15307000D01*
X11624286Y-15335571D01*
X11624286Y-15492714D01*
X11767143Y-15492714D02*
X11767143Y-15292714D01*
X11767143Y-15321286D02*
X11781428Y-15307000D01*
X11810000Y-15292714D01*
X11852857Y-15292714D01*
X11881428Y-15307000D01*
X11895714Y-15335571D01*
X11895714Y-15492714D01*
X11895714Y-15335571D02*
X11910000Y-15307000D01*
X11938571Y-15292714D01*
X11981428Y-15292714D01*
X12010000Y-15307000D01*
X12024286Y-15335571D01*
X12024286Y-15492714D01*
X12610000Y-15178429D02*
X12352857Y-15564143D01*
X12995714Y-15192714D02*
X13024286Y-15192714D01*
X13052857Y-15207000D01*
X13067143Y-15221286D01*
X13081428Y-15249857D01*
X13095714Y-15307000D01*
X13095714Y-15378429D01*
X13081428Y-15435571D01*
X13067143Y-15464143D01*
X13052857Y-15478429D01*
X13024286Y-15492714D01*
X12995714Y-15492714D01*
X12967143Y-15478429D01*
X12952857Y-15464143D01*
X12938571Y-15435571D01*
X12924286Y-15378429D01*
X12924286Y-15307000D01*
X12938571Y-15249857D01*
X12952857Y-15221286D01*
X12967143Y-15207000D01*
X12995714Y-15192714D01*
X13224286Y-15464143D02*
X13238571Y-15478429D01*
X13224286Y-15492714D01*
X13210000Y-15478429D01*
X13224286Y-15464143D01*
X13224286Y-15492714D01*
X13424286Y-15192714D02*
X13452857Y-15192714D01*
X13481428Y-15207000D01*
X13495714Y-15221286D01*
X13510000Y-15249857D01*
X13524286Y-15307000D01*
X13524286Y-15378429D01*
X13510000Y-15435571D01*
X13495714Y-15464143D01*
X13481428Y-15478429D01*
X13452857Y-15492714D01*
X13424286Y-15492714D01*
X13395714Y-15478429D01*
X13381428Y-15464143D01*
X13367143Y-15435571D01*
X13352857Y-15378429D01*
X13352857Y-15307000D01*
X13367143Y-15249857D01*
X13381428Y-15221286D01*
X13395714Y-15207000D01*
X13424286Y-15192714D01*
X13624286Y-15192714D02*
X13810000Y-15192714D01*
X13710000Y-15307000D01*
X13752857Y-15307000D01*
X13781428Y-15321286D01*
X13795714Y-15335571D01*
X13810000Y-15364143D01*
X13810000Y-15435571D01*
X13795714Y-15464143D01*
X13781428Y-15478429D01*
X13752857Y-15492714D01*
X13667143Y-15492714D01*
X13638571Y-15478429D01*
X13624286Y-15464143D01*
X14095714Y-15492714D02*
X13924286Y-15492714D01*
X14010000Y-15492714D02*
X14010000Y-15192714D01*
X13981428Y-15235571D01*
X13952857Y-15264143D01*
X13924286Y-15278429D01*
X14367143Y-15192714D02*
X14224286Y-15192714D01*
X14210000Y-15335571D01*
X14224286Y-15321286D01*
X14252857Y-15307000D01*
X14324286Y-15307000D01*
X14352857Y-15321286D01*
X14367143Y-15335571D01*
X14381428Y-15364143D01*
X14381428Y-15435571D01*
X14367143Y-15464143D01*
X14352857Y-15478429D01*
X14324286Y-15492714D01*
X14252857Y-15492714D01*
X14224286Y-15478429D01*
X14210000Y-15464143D01*
X14495714Y-15192714D02*
X14495714Y-15249857D01*
X14610000Y-15192714D02*
X14610000Y-15249857D01*
X15052857Y-15607000D02*
X15038571Y-15592714D01*
X15010000Y-15549857D01*
X14995714Y-15521286D01*
X14981428Y-15478429D01*
X14967143Y-15407000D01*
X14967143Y-15349857D01*
X14981428Y-15278429D01*
X14995714Y-15235571D01*
X15010000Y-15207000D01*
X15038571Y-15164143D01*
X15052857Y-15149857D01*
X15152857Y-15221286D02*
X15167143Y-15207000D01*
X15195714Y-15192714D01*
X15267143Y-15192714D01*
X15295714Y-15207000D01*
X15310000Y-15221286D01*
X15324286Y-15249857D01*
X15324286Y-15278429D01*
X15310000Y-15321286D01*
X15138571Y-15492714D01*
X15324286Y-15492714D01*
X15681428Y-15492714D02*
X15681428Y-15192714D01*
X15810000Y-15492714D02*
X15810000Y-15335571D01*
X15795714Y-15307000D01*
X15767143Y-15292714D01*
X15724286Y-15292714D01*
X15695714Y-15307000D01*
X15681428Y-15321286D01*
X15995714Y-15492714D02*
X15967143Y-15478429D01*
X15952857Y-15464143D01*
X15938571Y-15435571D01*
X15938571Y-15349857D01*
X15952857Y-15321286D01*
X15967143Y-15307000D01*
X15995714Y-15292714D01*
X16038571Y-15292714D01*
X16067143Y-15307000D01*
X16081428Y-15321286D01*
X16095714Y-15349857D01*
X16095714Y-15435571D01*
X16081428Y-15464143D01*
X16067143Y-15478429D01*
X16038571Y-15492714D01*
X15995714Y-15492714D01*
X16267143Y-15492714D02*
X16238571Y-15478429D01*
X16224286Y-15449857D01*
X16224286Y-15192714D01*
X16495714Y-15478429D02*
X16467143Y-15492714D01*
X16410000Y-15492714D01*
X16381428Y-15478429D01*
X16367143Y-15449857D01*
X16367143Y-15335571D01*
X16381428Y-15307000D01*
X16410000Y-15292714D01*
X16467143Y-15292714D01*
X16495714Y-15307000D01*
X16510000Y-15335571D01*
X16510000Y-15364143D01*
X16367143Y-15392714D01*
X16624286Y-15478429D02*
X16652857Y-15492714D01*
X16710000Y-15492714D01*
X16738571Y-15478429D01*
X16752857Y-15449857D01*
X16752857Y-15435571D01*
X16738571Y-15407000D01*
X16710000Y-15392714D01*
X16667143Y-15392714D01*
X16638571Y-15378429D01*
X16624286Y-15349857D01*
X16624286Y-15335571D01*
X16638571Y-15307000D01*
X16667143Y-15292714D01*
X16710000Y-15292714D01*
X16738571Y-15307000D01*
X16852857Y-15607000D02*
X16867143Y-15592714D01*
X16895714Y-15549857D01*
X16910000Y-15521286D01*
X16924286Y-15478429D01*
X16938571Y-15407000D01*
X16938571Y-15349857D01*
X16924286Y-15278429D01*
X16910000Y-15235571D01*
X16895714Y-15207000D01*
X16867143Y-15164143D01*
X16852857Y-15149857D01*
X9781820Y-15784820D02*
X9781820Y-15721180D01*
X9718180Y-15721180D01*
X9718180Y-15784820D01*
X9781820Y-15784820D01*
X10138571Y-15588714D02*
X10167143Y-15588714D01*
X10195714Y-15603000D01*
X10210000Y-15617286D01*
X10224286Y-15645857D01*
X10238571Y-15703000D01*
X10238571Y-15774429D01*
X10224286Y-15831571D01*
X10210000Y-15860143D01*
X10195714Y-15874429D01*
X10167143Y-15888714D01*
X10138571Y-15888714D01*
X10110000Y-15874429D01*
X10095714Y-15860143D01*
X10081428Y-15831571D01*
X10067143Y-15774429D01*
X10067143Y-15703000D01*
X10081428Y-15645857D01*
X10095714Y-15617286D01*
X10110000Y-15603000D01*
X10138571Y-15588714D01*
X10367143Y-15860143D02*
X10381428Y-15874429D01*
X10367143Y-15888714D01*
X10352857Y-15874429D01*
X10367143Y-15860143D01*
X10367143Y-15888714D01*
X10524286Y-15888714D02*
X10581428Y-15888714D01*
X10610000Y-15874429D01*
X10624286Y-15860143D01*
X10652857Y-15817286D01*
X10667143Y-15760143D01*
X10667143Y-15645857D01*
X10652857Y-15617286D01*
X10638571Y-15603000D01*
X10610000Y-15588714D01*
X10552857Y-15588714D01*
X10524286Y-15603000D01*
X10510000Y-15617286D01*
X10495714Y-15645857D01*
X10495714Y-15717286D01*
X10510000Y-15745857D01*
X10524286Y-15760143D01*
X10552857Y-15774429D01*
X10610000Y-15774429D01*
X10638571Y-15760143D01*
X10652857Y-15745857D01*
X10667143Y-15717286D01*
X10852857Y-15588714D02*
X10881428Y-15588714D01*
X10910000Y-15603000D01*
X10924286Y-15617286D01*
X10938571Y-15645857D01*
X10952857Y-15703000D01*
X10952857Y-15774429D01*
X10938571Y-15831571D01*
X10924286Y-15860143D01*
X10910000Y-15874429D01*
X10881428Y-15888714D01*
X10852857Y-15888714D01*
X10824286Y-15874429D01*
X10810000Y-15860143D01*
X10795714Y-15831571D01*
X10781428Y-15774429D01*
X10781428Y-15703000D01*
X10795714Y-15645857D01*
X10810000Y-15617286D01*
X10824286Y-15603000D01*
X10852857Y-15588714D01*
X11138571Y-15588714D02*
X11167143Y-15588714D01*
X11195714Y-15603000D01*
X11210000Y-15617286D01*
X11224286Y-15645857D01*
X11238571Y-15703000D01*
X11238571Y-15774429D01*
X11224286Y-15831571D01*
X11210000Y-15860143D01*
X11195714Y-15874429D01*
X11167143Y-15888714D01*
X11138571Y-15888714D01*
X11110000Y-15874429D01*
X11095714Y-15860143D01*
X11081428Y-15831571D01*
X11067143Y-15774429D01*
X11067143Y-15703000D01*
X11081428Y-15645857D01*
X11095714Y-15617286D01*
X11110000Y-15603000D01*
X11138571Y-15588714D01*
X11367143Y-15888714D02*
X11367143Y-15688714D01*
X11367143Y-15717286D02*
X11381428Y-15703000D01*
X11410000Y-15688714D01*
X11452857Y-15688714D01*
X11481428Y-15703000D01*
X11495714Y-15731571D01*
X11495714Y-15888714D01*
X11495714Y-15731571D02*
X11510000Y-15703000D01*
X11538571Y-15688714D01*
X11581428Y-15688714D01*
X11610000Y-15703000D01*
X11624286Y-15731571D01*
X11624286Y-15888714D01*
X11767143Y-15888714D02*
X11767143Y-15688714D01*
X11767143Y-15717286D02*
X11781428Y-15703000D01*
X11810000Y-15688714D01*
X11852857Y-15688714D01*
X11881428Y-15703000D01*
X11895714Y-15731571D01*
X11895714Y-15888714D01*
X11895714Y-15731571D02*
X11910000Y-15703000D01*
X11938571Y-15688714D01*
X11981428Y-15688714D01*
X12010000Y-15703000D01*
X12024286Y-15731571D01*
X12024286Y-15888714D01*
X12610000Y-15574429D02*
X12352857Y-15960143D01*
X12995714Y-15588714D02*
X13024286Y-15588714D01*
X13052857Y-15603000D01*
X13067143Y-15617286D01*
X13081428Y-15645857D01*
X13095714Y-15703000D01*
X13095714Y-15774429D01*
X13081428Y-15831571D01*
X13067143Y-15860143D01*
X13052857Y-15874429D01*
X13024286Y-15888714D01*
X12995714Y-15888714D01*
X12967143Y-15874429D01*
X12952857Y-15860143D01*
X12938571Y-15831571D01*
X12924286Y-15774429D01*
X12924286Y-15703000D01*
X12938571Y-15645857D01*
X12952857Y-15617286D01*
X12967143Y-15603000D01*
X12995714Y-15588714D01*
X13224286Y-15860143D02*
X13238571Y-15874429D01*
X13224286Y-15888714D01*
X13210000Y-15874429D01*
X13224286Y-15860143D01*
X13224286Y-15888714D01*
X13424286Y-15588714D02*
X13452857Y-15588714D01*
X13481428Y-15603000D01*
X13495714Y-15617286D01*
X13510000Y-15645857D01*
X13524286Y-15703000D01*
X13524286Y-15774429D01*
X13510000Y-15831571D01*
X13495714Y-15860143D01*
X13481428Y-15874429D01*
X13452857Y-15888714D01*
X13424286Y-15888714D01*
X13395714Y-15874429D01*
X13381428Y-15860143D01*
X13367143Y-15831571D01*
X13352857Y-15774429D01*
X13352857Y-15703000D01*
X13367143Y-15645857D01*
X13381428Y-15617286D01*
X13395714Y-15603000D01*
X13424286Y-15588714D01*
X13624286Y-15588714D02*
X13810000Y-15588714D01*
X13710000Y-15703000D01*
X13752857Y-15703000D01*
X13781428Y-15717286D01*
X13795714Y-15731571D01*
X13810000Y-15760143D01*
X13810000Y-15831571D01*
X13795714Y-15860143D01*
X13781428Y-15874429D01*
X13752857Y-15888714D01*
X13667143Y-15888714D01*
X13638571Y-15874429D01*
X13624286Y-15860143D01*
X14081428Y-15588714D02*
X13938571Y-15588714D01*
X13924286Y-15731571D01*
X13938571Y-15717286D01*
X13967143Y-15703000D01*
X14038571Y-15703000D01*
X14067143Y-15717286D01*
X14081428Y-15731571D01*
X14095714Y-15760143D01*
X14095714Y-15831571D01*
X14081428Y-15860143D01*
X14067143Y-15874429D01*
X14038571Y-15888714D01*
X13967143Y-15888714D01*
X13938571Y-15874429D01*
X13924286Y-15860143D01*
X14352857Y-15688714D02*
X14352857Y-15888714D01*
X14281428Y-15574429D02*
X14210000Y-15788714D01*
X14395714Y-15788714D01*
X14495714Y-15588714D02*
X14495714Y-15645857D01*
X14610000Y-15588714D02*
X14610000Y-15645857D01*
X15052857Y-16003000D02*
X15038571Y-15988714D01*
X15010000Y-15945857D01*
X14995714Y-15917286D01*
X14981428Y-15874429D01*
X14967143Y-15803000D01*
X14967143Y-15745857D01*
X14981428Y-15674429D01*
X14995714Y-15631571D01*
X15010000Y-15603000D01*
X15038571Y-15560143D01*
X15052857Y-15545857D01*
X15138571Y-15588714D02*
X15324286Y-15588714D01*
X15224286Y-15703000D01*
X15267143Y-15703000D01*
X15295714Y-15717286D01*
X15310000Y-15731571D01*
X15324286Y-15760143D01*
X15324286Y-15831571D01*
X15310000Y-15860143D01*
X15295714Y-15874429D01*
X15267143Y-15888714D01*
X15181428Y-15888714D01*
X15152857Y-15874429D01*
X15138571Y-15860143D01*
X15510000Y-15588714D02*
X15538571Y-15588714D01*
X15567143Y-15603000D01*
X15581428Y-15617286D01*
X15595714Y-15645857D01*
X15610000Y-15703000D01*
X15610000Y-15774429D01*
X15595714Y-15831571D01*
X15581428Y-15860143D01*
X15567143Y-15874429D01*
X15538571Y-15888714D01*
X15510000Y-15888714D01*
X15481428Y-15874429D01*
X15467143Y-15860143D01*
X15452857Y-15831571D01*
X15438571Y-15774429D01*
X15438571Y-15703000D01*
X15452857Y-15645857D01*
X15467143Y-15617286D01*
X15481428Y-15603000D01*
X15510000Y-15588714D01*
X15967143Y-15888714D02*
X15967143Y-15588714D01*
X16095714Y-15888714D02*
X16095714Y-15731571D01*
X16081428Y-15703000D01*
X16052857Y-15688714D01*
X16010000Y-15688714D01*
X15981428Y-15703000D01*
X15967143Y-15717286D01*
X16281428Y-15888714D02*
X16252857Y-15874429D01*
X16238571Y-15860143D01*
X16224286Y-15831571D01*
X16224286Y-15745857D01*
X16238571Y-15717286D01*
X16252857Y-15703000D01*
X16281428Y-15688714D01*
X16324286Y-15688714D01*
X16352857Y-15703000D01*
X16367143Y-15717286D01*
X16381428Y-15745857D01*
X16381428Y-15831571D01*
X16367143Y-15860143D01*
X16352857Y-15874429D01*
X16324286Y-15888714D01*
X16281428Y-15888714D01*
X16552857Y-15888714D02*
X16524286Y-15874429D01*
X16510000Y-15845857D01*
X16510000Y-15588714D01*
X16781428Y-15874429D02*
X16752857Y-15888714D01*
X16695714Y-15888714D01*
X16667143Y-15874429D01*
X16652857Y-15845857D01*
X16652857Y-15731571D01*
X16667143Y-15703000D01*
X16695714Y-15688714D01*
X16752857Y-15688714D01*
X16781428Y-15703000D01*
X16795714Y-15731571D01*
X16795714Y-15760143D01*
X16652857Y-15788714D01*
X16910000Y-15874429D02*
X16938571Y-15888714D01*
X16995714Y-15888714D01*
X17024286Y-15874429D01*
X17038571Y-15845857D01*
X17038571Y-15831571D01*
X17024286Y-15803000D01*
X16995714Y-15788714D01*
X16952857Y-15788714D01*
X16924286Y-15774429D01*
X16910000Y-15745857D01*
X16910000Y-15731571D01*
X16924286Y-15703000D01*
X16952857Y-15688714D01*
X16995714Y-15688714D01*
X17024286Y-15703000D01*
X17138571Y-16003000D02*
X17152857Y-15988714D01*
X17181428Y-15945857D01*
X17195714Y-15917286D01*
X17210000Y-15874429D01*
X17224286Y-15803000D01*
X17224286Y-15745857D01*
X17210000Y-15674429D01*
X17195714Y-15631571D01*
X17181428Y-15603000D01*
X17152857Y-15560143D01*
X17138571Y-15545857D01*
X9745000Y-16199000D02*
X9795000Y-16149000D01*
X9745000Y-16099000D01*
X9695000Y-16149000D01*
X9745000Y-16199000D01*
X10238571Y-16284714D02*
X10067143Y-16284714D01*
X10152857Y-16284714D02*
X10152857Y-15984714D01*
X10124286Y-16027571D01*
X10095714Y-16056143D01*
X10067143Y-16070429D01*
X10367143Y-16256143D02*
X10381428Y-16270429D01*
X10367143Y-16284714D01*
X10352857Y-16270429D01*
X10367143Y-16256143D01*
X10367143Y-16284714D01*
X10567143Y-15984714D02*
X10595714Y-15984714D01*
X10624286Y-15999000D01*
X10638571Y-16013286D01*
X10652857Y-16041857D01*
X10667143Y-16099000D01*
X10667143Y-16170429D01*
X10652857Y-16227571D01*
X10638571Y-16256143D01*
X10624286Y-16270429D01*
X10595714Y-16284714D01*
X10567143Y-16284714D01*
X10538571Y-16270429D01*
X10524286Y-16256143D01*
X10510000Y-16227571D01*
X10495714Y-16170429D01*
X10495714Y-16099000D01*
X10510000Y-16041857D01*
X10524286Y-16013286D01*
X10538571Y-15999000D01*
X10567143Y-15984714D01*
X10852857Y-15984714D02*
X10881428Y-15984714D01*
X10910000Y-15999000D01*
X10924286Y-16013286D01*
X10938571Y-16041857D01*
X10952857Y-16099000D01*
X10952857Y-16170429D01*
X10938571Y-16227571D01*
X10924286Y-16256143D01*
X10910000Y-16270429D01*
X10881428Y-16284714D01*
X10852857Y-16284714D01*
X10824286Y-16270429D01*
X10810000Y-16256143D01*
X10795714Y-16227571D01*
X10781428Y-16170429D01*
X10781428Y-16099000D01*
X10795714Y-16041857D01*
X10810000Y-16013286D01*
X10824286Y-15999000D01*
X10852857Y-15984714D01*
X11138571Y-15984714D02*
X11167143Y-15984714D01*
X11195714Y-15999000D01*
X11210000Y-16013286D01*
X11224286Y-16041857D01*
X11238571Y-16099000D01*
X11238571Y-16170429D01*
X11224286Y-16227571D01*
X11210000Y-16256143D01*
X11195714Y-16270429D01*
X11167143Y-16284714D01*
X11138571Y-16284714D01*
X11110000Y-16270429D01*
X11095714Y-16256143D01*
X11081428Y-16227571D01*
X11067143Y-16170429D01*
X11067143Y-16099000D01*
X11081428Y-16041857D01*
X11095714Y-16013286D01*
X11110000Y-15999000D01*
X11138571Y-15984714D01*
X11367143Y-16284714D02*
X11367143Y-16084714D01*
X11367143Y-16113286D02*
X11381428Y-16099000D01*
X11410000Y-16084714D01*
X11452857Y-16084714D01*
X11481428Y-16099000D01*
X11495714Y-16127571D01*
X11495714Y-16284714D01*
X11495714Y-16127571D02*
X11510000Y-16099000D01*
X11538571Y-16084714D01*
X11581428Y-16084714D01*
X11610000Y-16099000D01*
X11624286Y-16127571D01*
X11624286Y-16284714D01*
X11767143Y-16284714D02*
X11767143Y-16084714D01*
X11767143Y-16113286D02*
X11781428Y-16099000D01*
X11810000Y-16084714D01*
X11852857Y-16084714D01*
X11881428Y-16099000D01*
X11895714Y-16127571D01*
X11895714Y-16284714D01*
X11895714Y-16127571D02*
X11910000Y-16099000D01*
X11938571Y-16084714D01*
X11981428Y-16084714D01*
X12010000Y-16099000D01*
X12024286Y-16127571D01*
X12024286Y-16284714D01*
X12610000Y-15970429D02*
X12352857Y-16356143D01*
X12995714Y-15984714D02*
X13024286Y-15984714D01*
X13052857Y-15999000D01*
X13067143Y-16013286D01*
X13081428Y-16041857D01*
X13095714Y-16099000D01*
X13095714Y-16170429D01*
X13081428Y-16227571D01*
X13067143Y-16256143D01*
X13052857Y-16270429D01*
X13024286Y-16284714D01*
X12995714Y-16284714D01*
X12967143Y-16270429D01*
X12952857Y-16256143D01*
X12938571Y-16227571D01*
X12924286Y-16170429D01*
X12924286Y-16099000D01*
X12938571Y-16041857D01*
X12952857Y-16013286D01*
X12967143Y-15999000D01*
X12995714Y-15984714D01*
X13224286Y-16256143D02*
X13238571Y-16270429D01*
X13224286Y-16284714D01*
X13210000Y-16270429D01*
X13224286Y-16256143D01*
X13224286Y-16284714D01*
X13424286Y-15984714D02*
X13452857Y-15984714D01*
X13481428Y-15999000D01*
X13495714Y-16013286D01*
X13510000Y-16041857D01*
X13524286Y-16099000D01*
X13524286Y-16170429D01*
X13510000Y-16227571D01*
X13495714Y-16256143D01*
X13481428Y-16270429D01*
X13452857Y-16284714D01*
X13424286Y-16284714D01*
X13395714Y-16270429D01*
X13381428Y-16256143D01*
X13367143Y-16227571D01*
X13352857Y-16170429D01*
X13352857Y-16099000D01*
X13367143Y-16041857D01*
X13381428Y-16013286D01*
X13395714Y-15999000D01*
X13424286Y-15984714D01*
X13624286Y-15984714D02*
X13810000Y-15984714D01*
X13710000Y-16099000D01*
X13752857Y-16099000D01*
X13781428Y-16113286D01*
X13795714Y-16127571D01*
X13810000Y-16156143D01*
X13810000Y-16227571D01*
X13795714Y-16256143D01*
X13781428Y-16270429D01*
X13752857Y-16284714D01*
X13667143Y-16284714D01*
X13638571Y-16270429D01*
X13624286Y-16256143D01*
X13952857Y-16284714D02*
X14010000Y-16284714D01*
X14038571Y-16270429D01*
X14052857Y-16256143D01*
X14081428Y-16213286D01*
X14095714Y-16156143D01*
X14095714Y-16041857D01*
X14081428Y-16013286D01*
X14067143Y-15999000D01*
X14038571Y-15984714D01*
X13981428Y-15984714D01*
X13952857Y-15999000D01*
X13938571Y-16013286D01*
X13924286Y-16041857D01*
X13924286Y-16113286D01*
X13938571Y-16141857D01*
X13952857Y-16156143D01*
X13981428Y-16170429D01*
X14038571Y-16170429D01*
X14067143Y-16156143D01*
X14081428Y-16141857D01*
X14095714Y-16113286D01*
X14352857Y-16084714D02*
X14352857Y-16284714D01*
X14281428Y-15970429D02*
X14210000Y-16184714D01*
X14395714Y-16184714D01*
X14495714Y-15984714D02*
X14495714Y-16041857D01*
X14610000Y-15984714D02*
X14610000Y-16041857D01*
X15052857Y-16399000D02*
X15038571Y-16384714D01*
X15010000Y-16341857D01*
X14995714Y-16313286D01*
X14981428Y-16270429D01*
X14967143Y-16199000D01*
X14967143Y-16141857D01*
X14981428Y-16070429D01*
X14995714Y-16027571D01*
X15010000Y-15999000D01*
X15038571Y-15956143D01*
X15052857Y-15941857D01*
X15295714Y-15984714D02*
X15238571Y-15984714D01*
X15210000Y-15999000D01*
X15195714Y-16013286D01*
X15167143Y-16056143D01*
X15152857Y-16113286D01*
X15152857Y-16227571D01*
X15167143Y-16256143D01*
X15181428Y-16270429D01*
X15210000Y-16284714D01*
X15267143Y-16284714D01*
X15295714Y-16270429D01*
X15310000Y-16256143D01*
X15324286Y-16227571D01*
X15324286Y-16156143D01*
X15310000Y-16127571D01*
X15295714Y-16113286D01*
X15267143Y-16099000D01*
X15210000Y-16099000D01*
X15181428Y-16113286D01*
X15167143Y-16127571D01*
X15152857Y-16156143D01*
X15510000Y-15984714D02*
X15538571Y-15984714D01*
X15567143Y-15999000D01*
X15581428Y-16013286D01*
X15595714Y-16041857D01*
X15610000Y-16099000D01*
X15610000Y-16170429D01*
X15595714Y-16227571D01*
X15581428Y-16256143D01*
X15567143Y-16270429D01*
X15538571Y-16284714D01*
X15510000Y-16284714D01*
X15481428Y-16270429D01*
X15467143Y-16256143D01*
X15452857Y-16227571D01*
X15438571Y-16170429D01*
X15438571Y-16099000D01*
X15452857Y-16041857D01*
X15467143Y-16013286D01*
X15481428Y-15999000D01*
X15510000Y-15984714D01*
X15967143Y-16284714D02*
X15967143Y-15984714D01*
X16095714Y-16284714D02*
X16095714Y-16127571D01*
X16081428Y-16099000D01*
X16052857Y-16084714D01*
X16010000Y-16084714D01*
X15981428Y-16099000D01*
X15967143Y-16113286D01*
X16281428Y-16284714D02*
X16252857Y-16270429D01*
X16238571Y-16256143D01*
X16224286Y-16227571D01*
X16224286Y-16141857D01*
X16238571Y-16113286D01*
X16252857Y-16099000D01*
X16281428Y-16084714D01*
X16324286Y-16084714D01*
X16352857Y-16099000D01*
X16367143Y-16113286D01*
X16381428Y-16141857D01*
X16381428Y-16227571D01*
X16367143Y-16256143D01*
X16352857Y-16270429D01*
X16324286Y-16284714D01*
X16281428Y-16284714D01*
X16552857Y-16284714D02*
X16524286Y-16270429D01*
X16510000Y-16241857D01*
X16510000Y-15984714D01*
X16781428Y-16270429D02*
X16752857Y-16284714D01*
X16695714Y-16284714D01*
X16667143Y-16270429D01*
X16652857Y-16241857D01*
X16652857Y-16127571D01*
X16667143Y-16099000D01*
X16695714Y-16084714D01*
X16752857Y-16084714D01*
X16781428Y-16099000D01*
X16795714Y-16127571D01*
X16795714Y-16156143D01*
X16652857Y-16184714D01*
X16910000Y-16270429D02*
X16938571Y-16284714D01*
X16995714Y-16284714D01*
X17024286Y-16270429D01*
X17038571Y-16241857D01*
X17038571Y-16227571D01*
X17024286Y-16199000D01*
X16995714Y-16184714D01*
X16952857Y-16184714D01*
X16924286Y-16170429D01*
X16910000Y-16141857D01*
X16910000Y-16127571D01*
X16924286Y-16099000D01*
X16952857Y-16084714D01*
X16995714Y-16084714D01*
X17024286Y-16099000D01*
X17138571Y-16399000D02*
X17152857Y-16384714D01*
X17181428Y-16341857D01*
X17195714Y-16313286D01*
X17210000Y-16270429D01*
X17224286Y-16199000D01*
X17224286Y-16141857D01*
X17210000Y-16070429D01*
X17195714Y-16027571D01*
X17181428Y-15999000D01*
X17152857Y-15956143D01*
X17138571Y-15941857D01*
X9665000Y-16480000D02*
X9795000Y-16610000D01*
X9795000Y-16480000D02*
X9665000Y-16610000D01*
X9795000Y-16545000D02*
G75*
G03*
X9795000Y-16545000I-65000J0D01*
G01*
X10238571Y-16680714D02*
X10067143Y-16680714D01*
X10152857Y-16680714D02*
X10152857Y-16380714D01*
X10124286Y-16423571D01*
X10095714Y-16452143D01*
X10067143Y-16466429D01*
X10367143Y-16652143D02*
X10381428Y-16666429D01*
X10367143Y-16680714D01*
X10352857Y-16666429D01*
X10367143Y-16652143D01*
X10367143Y-16680714D01*
X10481428Y-16380714D02*
X10667143Y-16380714D01*
X10567143Y-16495000D01*
X10610000Y-16495000D01*
X10638571Y-16509286D01*
X10652857Y-16523571D01*
X10667143Y-16552143D01*
X10667143Y-16623571D01*
X10652857Y-16652143D01*
X10638571Y-16666429D01*
X10610000Y-16680714D01*
X10524286Y-16680714D01*
X10495714Y-16666429D01*
X10481428Y-16652143D01*
X10852857Y-16380714D02*
X10881428Y-16380714D01*
X10910000Y-16395000D01*
X10924286Y-16409286D01*
X10938571Y-16437857D01*
X10952857Y-16495000D01*
X10952857Y-16566429D01*
X10938571Y-16623571D01*
X10924286Y-16652143D01*
X10910000Y-16666429D01*
X10881428Y-16680714D01*
X10852857Y-16680714D01*
X10824286Y-16666429D01*
X10810000Y-16652143D01*
X10795714Y-16623571D01*
X10781428Y-16566429D01*
X10781428Y-16495000D01*
X10795714Y-16437857D01*
X10810000Y-16409286D01*
X10824286Y-16395000D01*
X10852857Y-16380714D01*
X11138571Y-16380714D02*
X11167143Y-16380714D01*
X11195714Y-16395000D01*
X11210000Y-16409286D01*
X11224286Y-16437857D01*
X11238571Y-16495000D01*
X11238571Y-16566429D01*
X11224286Y-16623571D01*
X11210000Y-16652143D01*
X11195714Y-16666429D01*
X11167143Y-16680714D01*
X11138571Y-16680714D01*
X11110000Y-16666429D01*
X11095714Y-16652143D01*
X11081428Y-16623571D01*
X11067143Y-16566429D01*
X11067143Y-16495000D01*
X11081428Y-16437857D01*
X11095714Y-16409286D01*
X11110000Y-16395000D01*
X11138571Y-16380714D01*
X11367143Y-16680714D02*
X11367143Y-16480714D01*
X11367143Y-16509286D02*
X11381428Y-16495000D01*
X11410000Y-16480714D01*
X11452857Y-16480714D01*
X11481428Y-16495000D01*
X11495714Y-16523571D01*
X11495714Y-16680714D01*
X11495714Y-16523571D02*
X11510000Y-16495000D01*
X11538571Y-16480714D01*
X11581428Y-16480714D01*
X11610000Y-16495000D01*
X11624286Y-16523571D01*
X11624286Y-16680714D01*
X11767143Y-16680714D02*
X11767143Y-16480714D01*
X11767143Y-16509286D02*
X11781428Y-16495000D01*
X11810000Y-16480714D01*
X11852857Y-16480714D01*
X11881428Y-16495000D01*
X11895714Y-16523571D01*
X11895714Y-16680714D01*
X11895714Y-16523571D02*
X11910000Y-16495000D01*
X11938571Y-16480714D01*
X11981428Y-16480714D01*
X12010000Y-16495000D01*
X12024286Y-16523571D01*
X12024286Y-16680714D01*
X12610000Y-16366429D02*
X12352857Y-16752143D01*
X12995714Y-16380714D02*
X13024286Y-16380714D01*
X13052857Y-16395000D01*
X13067143Y-16409286D01*
X13081428Y-16437857D01*
X13095714Y-16495000D01*
X13095714Y-16566429D01*
X13081428Y-16623571D01*
X13067143Y-16652143D01*
X13052857Y-16666429D01*
X13024286Y-16680714D01*
X12995714Y-16680714D01*
X12967143Y-16666429D01*
X12952857Y-16652143D01*
X12938571Y-16623571D01*
X12924286Y-16566429D01*
X12924286Y-16495000D01*
X12938571Y-16437857D01*
X12952857Y-16409286D01*
X12967143Y-16395000D01*
X12995714Y-16380714D01*
X13224286Y-16652143D02*
X13238571Y-16666429D01*
X13224286Y-16680714D01*
X13210000Y-16666429D01*
X13224286Y-16652143D01*
X13224286Y-16680714D01*
X13424286Y-16380714D02*
X13452857Y-16380714D01*
X13481428Y-16395000D01*
X13495714Y-16409286D01*
X13510000Y-16437857D01*
X13524286Y-16495000D01*
X13524286Y-16566429D01*
X13510000Y-16623571D01*
X13495714Y-16652143D01*
X13481428Y-16666429D01*
X13452857Y-16680714D01*
X13424286Y-16680714D01*
X13395714Y-16666429D01*
X13381428Y-16652143D01*
X13367143Y-16623571D01*
X13352857Y-16566429D01*
X13352857Y-16495000D01*
X13367143Y-16437857D01*
X13381428Y-16409286D01*
X13395714Y-16395000D01*
X13424286Y-16380714D01*
X13795714Y-16380714D02*
X13652857Y-16380714D01*
X13638571Y-16523571D01*
X13652857Y-16509286D01*
X13681428Y-16495000D01*
X13752857Y-16495000D01*
X13781428Y-16509286D01*
X13795714Y-16523571D01*
X13810000Y-16552143D01*
X13810000Y-16623571D01*
X13795714Y-16652143D01*
X13781428Y-16666429D01*
X13752857Y-16680714D01*
X13681428Y-16680714D01*
X13652857Y-16666429D01*
X13638571Y-16652143D01*
X14095714Y-16680714D02*
X13924286Y-16680714D01*
X14010000Y-16680714D02*
X14010000Y-16380714D01*
X13981428Y-16423571D01*
X13952857Y-16452143D01*
X13924286Y-16466429D01*
X14210000Y-16409286D02*
X14224286Y-16395000D01*
X14252857Y-16380714D01*
X14324286Y-16380714D01*
X14352857Y-16395000D01*
X14367143Y-16409286D01*
X14381428Y-16437857D01*
X14381428Y-16466429D01*
X14367143Y-16509286D01*
X14195714Y-16680714D01*
X14381428Y-16680714D01*
X14495714Y-16380714D02*
X14495714Y-16437857D01*
X14610000Y-16380714D02*
X14610000Y-16437857D01*
X15052857Y-16795000D02*
X15038571Y-16780714D01*
X15010000Y-16737857D01*
X14995714Y-16709286D01*
X14981428Y-16666429D01*
X14967143Y-16595000D01*
X14967143Y-16537857D01*
X14981428Y-16466429D01*
X14995714Y-16423571D01*
X15010000Y-16395000D01*
X15038571Y-16352143D01*
X15052857Y-16337857D01*
X15152857Y-16409286D02*
X15167143Y-16395000D01*
X15195714Y-16380714D01*
X15267143Y-16380714D01*
X15295714Y-16395000D01*
X15310000Y-16409286D01*
X15324286Y-16437857D01*
X15324286Y-16466429D01*
X15310000Y-16509286D01*
X15138571Y-16680714D01*
X15324286Y-16680714D01*
X15681428Y-16680714D02*
X15681428Y-16380714D01*
X15810000Y-16680714D02*
X15810000Y-16523571D01*
X15795714Y-16495000D01*
X15767143Y-16480714D01*
X15724286Y-16480714D01*
X15695714Y-16495000D01*
X15681428Y-16509286D01*
X15995714Y-16680714D02*
X15967143Y-16666429D01*
X15952857Y-16652143D01*
X15938571Y-16623571D01*
X15938571Y-16537857D01*
X15952857Y-16509286D01*
X15967143Y-16495000D01*
X15995714Y-16480714D01*
X16038571Y-16480714D01*
X16067143Y-16495000D01*
X16081428Y-16509286D01*
X16095714Y-16537857D01*
X16095714Y-16623571D01*
X16081428Y-16652143D01*
X16067143Y-16666429D01*
X16038571Y-16680714D01*
X15995714Y-16680714D01*
X16267143Y-16680714D02*
X16238571Y-16666429D01*
X16224286Y-16637857D01*
X16224286Y-16380714D01*
X16495714Y-16666429D02*
X16467143Y-16680714D01*
X16410000Y-16680714D01*
X16381428Y-16666429D01*
X16367143Y-16637857D01*
X16367143Y-16523571D01*
X16381428Y-16495000D01*
X16410000Y-16480714D01*
X16467143Y-16480714D01*
X16495714Y-16495000D01*
X16510000Y-16523571D01*
X16510000Y-16552143D01*
X16367143Y-16580714D01*
X16624286Y-16666429D02*
X16652857Y-16680714D01*
X16710000Y-16680714D01*
X16738571Y-16666429D01*
X16752857Y-16637857D01*
X16752857Y-16623571D01*
X16738571Y-16595000D01*
X16710000Y-16580714D01*
X16667143Y-16580714D01*
X16638571Y-16566429D01*
X16624286Y-16537857D01*
X16624286Y-16523571D01*
X16638571Y-16495000D01*
X16667143Y-16480714D01*
X16710000Y-16480714D01*
X16738571Y-16495000D01*
X16852857Y-16795000D02*
X16867143Y-16780714D01*
X16895714Y-16737857D01*
X16910000Y-16709286D01*
X16924286Y-16666429D01*
X16938571Y-16595000D01*
X16938571Y-16537857D01*
X16924286Y-16466429D01*
X16910000Y-16423571D01*
X16895714Y-16395000D01*
X16867143Y-16352143D01*
X16852857Y-16337857D01*
M02*
