%TF.GenerationSoftware,KiCad,Pcbnew,(5.1.10)-1*%
%TF.CreationDate,2022-04-09T21:30:43-04:00*%
%TF.ProjectId,Pi_HAT,50695f48-4154-42e6-9b69-6361645f7063,rev?*%
%TF.SameCoordinates,Original*%
%TF.FileFunction,Legend,Top*%
%TF.FilePolarity,Positive*%
%FSLAX46Y46*%
G04 Gerber Fmt 4.6, Leading zero omitted, Abs format (unit mm)*
G04 Created by KiCad (PCBNEW (5.1.10)-1) date 2022-04-09 21:30:43*
%MOMM*%
%LPD*%
G01*
G04 APERTURE LIST*
%ADD10C,0.100000*%
%ADD11C,0.250000*%
%ADD12C,0.150000*%
%ADD13C,0.010000*%
%ADD14C,0.127000*%
%ADD15C,0.200000*%
%ADD16C,0.120000*%
G04 APERTURE END LIST*
D10*
X145361904Y-72026190D02*
X145671428Y-72026190D01*
X145504761Y-72216666D01*
X145576190Y-72216666D01*
X145623809Y-72240476D01*
X145647619Y-72264285D01*
X145671428Y-72311904D01*
X145671428Y-72430952D01*
X145647619Y-72478571D01*
X145623809Y-72502380D01*
X145576190Y-72526190D01*
X145433333Y-72526190D01*
X145385714Y-72502380D01*
X145361904Y-72478571D01*
X145885714Y-72478571D02*
X145909523Y-72502380D01*
X145885714Y-72526190D01*
X145861904Y-72502380D01*
X145885714Y-72478571D01*
X145885714Y-72526190D01*
X146076190Y-72026190D02*
X146385714Y-72026190D01*
X146219047Y-72216666D01*
X146290476Y-72216666D01*
X146338095Y-72240476D01*
X146361904Y-72264285D01*
X146385714Y-72311904D01*
X146385714Y-72430952D01*
X146361904Y-72478571D01*
X146338095Y-72502380D01*
X146290476Y-72526190D01*
X146147619Y-72526190D01*
X146100000Y-72502380D01*
X146076190Y-72478571D01*
X146528571Y-72026190D02*
X146695238Y-72526190D01*
X146861904Y-72026190D01*
X106800000Y-73838095D02*
X106847619Y-73742857D01*
X106847619Y-73600000D01*
X106800000Y-73457142D01*
X106704761Y-73361904D01*
X106609523Y-73314285D01*
X106419047Y-73266666D01*
X106276190Y-73266666D01*
X106085714Y-73314285D01*
X105990476Y-73361904D01*
X105895238Y-73457142D01*
X105847619Y-73600000D01*
X105847619Y-73695238D01*
X105895238Y-73838095D01*
X105942857Y-73885714D01*
X106276190Y-73885714D01*
X106276190Y-73695238D01*
X105847619Y-74314285D02*
X106847619Y-74314285D01*
X105847619Y-74885714D01*
X106847619Y-74885714D01*
X105847619Y-75361904D02*
X106847619Y-75361904D01*
X106847619Y-75600000D01*
X106800000Y-75742857D01*
X106704761Y-75838095D01*
X106609523Y-75885714D01*
X106419047Y-75933333D01*
X106276190Y-75933333D01*
X106085714Y-75885714D01*
X105990476Y-75838095D01*
X105895238Y-75742857D01*
X105847619Y-75600000D01*
X105847619Y-75361904D01*
X119152380Y-75119047D02*
X119152380Y-75690476D01*
X119152380Y-75404761D02*
X118152380Y-75404761D01*
X118295238Y-75500000D01*
X118390476Y-75595238D01*
X118438095Y-75690476D01*
X118247619Y-74738095D02*
X118200000Y-74690476D01*
X118152380Y-74595238D01*
X118152380Y-74357142D01*
X118200000Y-74261904D01*
X118247619Y-74214285D01*
X118342857Y-74166666D01*
X118438095Y-74166666D01*
X118580952Y-74214285D01*
X119152380Y-74785714D01*
X119152380Y-74166666D01*
X118152380Y-73880952D02*
X119152380Y-73547619D01*
X118152380Y-73214285D01*
X100673809Y-90790476D02*
X100673809Y-90504761D01*
X100673809Y-90647619D02*
X101173809Y-90647619D01*
X101102380Y-90600000D01*
X101054761Y-90552380D01*
X101030952Y-90504761D01*
X101126190Y-90980952D02*
X101150000Y-91004761D01*
X101173809Y-91052380D01*
X101173809Y-91171428D01*
X101150000Y-91219047D01*
X101126190Y-91242857D01*
X101078571Y-91266666D01*
X101030952Y-91266666D01*
X100959523Y-91242857D01*
X100673809Y-90957142D01*
X100673809Y-91266666D01*
X101173809Y-91409523D02*
X100673809Y-91576190D01*
X101173809Y-91742857D01*
X101150000Y-93119047D02*
X101173809Y-93071428D01*
X101173809Y-93000000D01*
X101150000Y-92928571D01*
X101102380Y-92880952D01*
X101054761Y-92857142D01*
X100959523Y-92833333D01*
X100888095Y-92833333D01*
X100792857Y-92857142D01*
X100745238Y-92880952D01*
X100697619Y-92928571D01*
X100673809Y-93000000D01*
X100673809Y-93047619D01*
X100697619Y-93119047D01*
X100721428Y-93142857D01*
X100888095Y-93142857D01*
X100888095Y-93047619D01*
X100673809Y-93357142D02*
X101173809Y-93357142D01*
X100673809Y-93642857D01*
X101173809Y-93642857D01*
X100673809Y-93880952D02*
X101173809Y-93880952D01*
X101173809Y-94000000D01*
X101150000Y-94071428D01*
X101102380Y-94119047D01*
X101054761Y-94142857D01*
X100959523Y-94166666D01*
X100888095Y-94166666D01*
X100792857Y-94142857D01*
X100745238Y-94119047D01*
X100697619Y-94071428D01*
X100673809Y-94000000D01*
X100673809Y-93880952D01*
X100797619Y-98004761D02*
X100773809Y-98076190D01*
X100773809Y-98195238D01*
X100797619Y-98242857D01*
X100821428Y-98266666D01*
X100869047Y-98290476D01*
X100916666Y-98290476D01*
X100964285Y-98266666D01*
X100988095Y-98242857D01*
X101011904Y-98195238D01*
X101035714Y-98100000D01*
X101059523Y-98052380D01*
X101083333Y-98028571D01*
X101130952Y-98004761D01*
X101178571Y-98004761D01*
X101226190Y-98028571D01*
X101250000Y-98052380D01*
X101273809Y-98100000D01*
X101273809Y-98219047D01*
X101250000Y-98290476D01*
X100821428Y-98790476D02*
X100797619Y-98766666D01*
X100773809Y-98695238D01*
X100773809Y-98647619D01*
X100797619Y-98576190D01*
X100845238Y-98528571D01*
X100892857Y-98504761D01*
X100988095Y-98480952D01*
X101059523Y-98480952D01*
X101154761Y-98504761D01*
X101202380Y-98528571D01*
X101250000Y-98576190D01*
X101273809Y-98647619D01*
X101273809Y-98695238D01*
X101250000Y-98766666D01*
X101226190Y-98790476D01*
X100773809Y-99242857D02*
X100773809Y-99004761D01*
X101273809Y-99004761D01*
X100697619Y-95492857D02*
X100673809Y-95564285D01*
X100673809Y-95683333D01*
X100697619Y-95730952D01*
X100721428Y-95754761D01*
X100769047Y-95778571D01*
X100816666Y-95778571D01*
X100864285Y-95754761D01*
X100888095Y-95730952D01*
X100911904Y-95683333D01*
X100935714Y-95588095D01*
X100959523Y-95540476D01*
X100983333Y-95516666D01*
X101030952Y-95492857D01*
X101078571Y-95492857D01*
X101126190Y-95516666D01*
X101150000Y-95540476D01*
X101173809Y-95588095D01*
X101173809Y-95707142D01*
X101150000Y-95778571D01*
X100673809Y-95992857D02*
X101173809Y-95992857D01*
X101173809Y-96111904D01*
X101150000Y-96183333D01*
X101102380Y-96230952D01*
X101054761Y-96254761D01*
X100959523Y-96278571D01*
X100888095Y-96278571D01*
X100792857Y-96254761D01*
X100745238Y-96230952D01*
X100697619Y-96183333D01*
X100673809Y-96111904D01*
X100673809Y-95992857D01*
X100816666Y-96469047D02*
X100816666Y-96707142D01*
X100673809Y-96421428D02*
X101173809Y-96588095D01*
X100673809Y-96754761D01*
D11*
X126432142Y-73702976D02*
X126432142Y-72452976D01*
X126908333Y-72452976D01*
X127027380Y-72512500D01*
X127086904Y-72572023D01*
X127146428Y-72691071D01*
X127146428Y-72869642D01*
X127086904Y-72988690D01*
X127027380Y-73048214D01*
X126908333Y-73107738D01*
X126432142Y-73107738D01*
X127682142Y-73702976D02*
X127682142Y-72452976D01*
X129229761Y-73702976D02*
X129229761Y-72452976D01*
X129229761Y-73048214D02*
X129944047Y-73048214D01*
X129944047Y-73702976D02*
X129944047Y-72452976D01*
X130479761Y-73345833D02*
X131075000Y-73345833D01*
X130360714Y-73702976D02*
X130777380Y-72452976D01*
X131194047Y-73702976D01*
X131432142Y-72452976D02*
X132146428Y-72452976D01*
X131789285Y-73702976D02*
X131789285Y-72452976D01*
X121997619Y-75173214D02*
X122414285Y-75173214D01*
X122592857Y-75827976D02*
X121997619Y-75827976D01*
X121997619Y-74577976D01*
X122592857Y-74577976D01*
X123069047Y-75470833D02*
X123664285Y-75470833D01*
X122950000Y-75827976D02*
X123366666Y-74577976D01*
X123783333Y-75827976D01*
X124140476Y-75768452D02*
X124319047Y-75827976D01*
X124616666Y-75827976D01*
X124735714Y-75768452D01*
X124795238Y-75708928D01*
X124854761Y-75589880D01*
X124854761Y-75470833D01*
X124795238Y-75351785D01*
X124735714Y-75292261D01*
X124616666Y-75232738D01*
X124378571Y-75173214D01*
X124259523Y-75113690D01*
X124200000Y-75054166D01*
X124140476Y-74935119D01*
X124140476Y-74816071D01*
X124200000Y-74697023D01*
X124259523Y-74637500D01*
X124378571Y-74577976D01*
X124676190Y-74577976D01*
X124854761Y-74637500D01*
X125628571Y-75232738D02*
X125628571Y-75827976D01*
X125211904Y-74577976D02*
X125628571Y-75232738D01*
X126045238Y-74577976D01*
X128128571Y-75708928D02*
X128069047Y-75768452D01*
X127890476Y-75827976D01*
X127771428Y-75827976D01*
X127592857Y-75768452D01*
X127473809Y-75649404D01*
X127414285Y-75530357D01*
X127354761Y-75292261D01*
X127354761Y-75113690D01*
X127414285Y-74875595D01*
X127473809Y-74756547D01*
X127592857Y-74637500D01*
X127771428Y-74577976D01*
X127890476Y-74577976D01*
X128069047Y-74637500D01*
X128128571Y-74697023D01*
X128902380Y-74577976D02*
X129140476Y-74577976D01*
X129259523Y-74637500D01*
X129378571Y-74756547D01*
X129438095Y-74994642D01*
X129438095Y-75411309D01*
X129378571Y-75649404D01*
X129259523Y-75768452D01*
X129140476Y-75827976D01*
X128902380Y-75827976D01*
X128783333Y-75768452D01*
X128664285Y-75649404D01*
X128604761Y-75411309D01*
X128604761Y-74994642D01*
X128664285Y-74756547D01*
X128783333Y-74637500D01*
X128902380Y-74577976D01*
X129973809Y-75827976D02*
X129973809Y-74577976D01*
X130688095Y-75827976D01*
X130688095Y-74577976D01*
X131104761Y-74577976D02*
X131819047Y-74577976D01*
X131461904Y-75827976D02*
X131461904Y-74577976D01*
X132950000Y-75827976D02*
X132533333Y-75232738D01*
X132235714Y-75827976D02*
X132235714Y-74577976D01*
X132711904Y-74577976D01*
X132830952Y-74637500D01*
X132890476Y-74697023D01*
X132950000Y-74816071D01*
X132950000Y-74994642D01*
X132890476Y-75113690D01*
X132830952Y-75173214D01*
X132711904Y-75232738D01*
X132235714Y-75232738D01*
X133723809Y-74577976D02*
X133961904Y-74577976D01*
X134080952Y-74637500D01*
X134200000Y-74756547D01*
X134259523Y-74994642D01*
X134259523Y-75411309D01*
X134200000Y-75649404D01*
X134080952Y-75768452D01*
X133961904Y-75827976D01*
X133723809Y-75827976D01*
X133604761Y-75768452D01*
X133485714Y-75649404D01*
X133426190Y-75411309D01*
X133426190Y-74994642D01*
X133485714Y-74756547D01*
X133604761Y-74637500D01*
X133723809Y-74577976D01*
X135390476Y-75827976D02*
X134795238Y-75827976D01*
X134795238Y-74577976D01*
X135747619Y-75768452D02*
X135926190Y-75827976D01*
X136223809Y-75827976D01*
X136342857Y-75768452D01*
X136402380Y-75708928D01*
X136461904Y-75589880D01*
X136461904Y-75470833D01*
X136402380Y-75351785D01*
X136342857Y-75292261D01*
X136223809Y-75232738D01*
X135985714Y-75173214D01*
X135866666Y-75113690D01*
X135807142Y-75054166D01*
X135747619Y-74935119D01*
X135747619Y-74816071D01*
X135807142Y-74697023D01*
X135866666Y-74637500D01*
X135985714Y-74577976D01*
X136283333Y-74577976D01*
X136461904Y-74637500D01*
D12*
X141004761Y-126223809D02*
X139004761Y-126223809D01*
X140433333Y-125557142D01*
X139004761Y-124890476D01*
X141004761Y-124890476D01*
X141004761Y-123938095D02*
X139004761Y-123938095D01*
X139004761Y-123176190D01*
X139100000Y-122985714D01*
X139195238Y-122890476D01*
X139385714Y-122795238D01*
X139671428Y-122795238D01*
X139861904Y-122890476D01*
X139957142Y-122985714D01*
X140052380Y-123176190D01*
X140052380Y-123938095D01*
X139004761Y-121938095D02*
X140623809Y-121938095D01*
X140814285Y-121842857D01*
X140909523Y-121747619D01*
X141004761Y-121557142D01*
X141004761Y-121176190D01*
X140909523Y-120985714D01*
X140814285Y-120890476D01*
X140623809Y-120795238D01*
X139004761Y-120795238D01*
X141004761Y-119747619D02*
X141004761Y-119366666D01*
X140909523Y-119176190D01*
X140814285Y-119080952D01*
X140528571Y-118890476D01*
X140147619Y-118795238D01*
X139385714Y-118795238D01*
X139195238Y-118890476D01*
X139100000Y-118985714D01*
X139004761Y-119176190D01*
X139004761Y-119557142D01*
X139100000Y-119747619D01*
X139195238Y-119842857D01*
X139385714Y-119938095D01*
X139861904Y-119938095D01*
X140052380Y-119842857D01*
X140147619Y-119747619D01*
X140242857Y-119557142D01*
X140242857Y-119176190D01*
X140147619Y-118985714D01*
X140052380Y-118890476D01*
X139861904Y-118795238D01*
X139195238Y-118033333D02*
X139100000Y-117938095D01*
X139004761Y-117747619D01*
X139004761Y-117271428D01*
X139100000Y-117080952D01*
X139195238Y-116985714D01*
X139385714Y-116890476D01*
X139576190Y-116890476D01*
X139861904Y-116985714D01*
X141004761Y-118128571D01*
X141004761Y-116890476D01*
X139004761Y-115080952D02*
X139004761Y-116033333D01*
X139957142Y-116128571D01*
X139861904Y-116033333D01*
X139766666Y-115842857D01*
X139766666Y-115366666D01*
X139861904Y-115176190D01*
X139957142Y-115080952D01*
X140147619Y-114985714D01*
X140623809Y-114985714D01*
X140814285Y-115080952D01*
X140909523Y-115176190D01*
X141004761Y-115366666D01*
X141004761Y-115842857D01*
X140909523Y-116033333D01*
X140814285Y-116128571D01*
X139004761Y-113747619D02*
X139004761Y-113557142D01*
X139100000Y-113366666D01*
X139195238Y-113271428D01*
X139385714Y-113176190D01*
X139766666Y-113080952D01*
X140242857Y-113080952D01*
X140623809Y-113176190D01*
X140814285Y-113271428D01*
X140909523Y-113366666D01*
X141004761Y-113557142D01*
X141004761Y-113747619D01*
X140909523Y-113938095D01*
X140814285Y-114033333D01*
X140623809Y-114128571D01*
X140242857Y-114223809D01*
X139766666Y-114223809D01*
X139385714Y-114128571D01*
X139195238Y-114033333D01*
X139100000Y-113938095D01*
X139004761Y-113747619D01*
D13*
%TO.C,G\u002A\u002A\u002A*%
G36*
X102117343Y-122606880D02*
G01*
X102068528Y-122624561D01*
X102068002Y-122620278D01*
X102047041Y-122517300D01*
X101990093Y-122279670D01*
X101904593Y-121936407D01*
X101797977Y-121516529D01*
X101677679Y-121049057D01*
X101551134Y-120563010D01*
X101425777Y-120087406D01*
X101309042Y-119651265D01*
X101278051Y-119537000D01*
X100944421Y-118232226D01*
X100625673Y-116833126D01*
X100328712Y-115378667D01*
X100060439Y-113907816D01*
X99827759Y-112459539D01*
X99637574Y-111072804D01*
X99496788Y-109786577D01*
X99448139Y-109207667D01*
X99387556Y-108057014D01*
X99375842Y-106929323D01*
X99412863Y-105878301D01*
X99457798Y-105313000D01*
X99580971Y-104452604D01*
X99770484Y-103636659D01*
X100016360Y-102893964D01*
X100308623Y-102253322D01*
X100637298Y-101743533D01*
X100733935Y-101628783D01*
X100905160Y-101468622D01*
X101123040Y-101302896D01*
X101343134Y-101160449D01*
X101520999Y-101070124D01*
X101611069Y-101059513D01*
X101572602Y-101123164D01*
X101426319Y-101232592D01*
X101357155Y-101275304D01*
X101128617Y-101450843D01*
X100888551Y-101695550D01*
X100792654Y-101814966D01*
X100477839Y-102309245D01*
X100224972Y-102862463D01*
X100028797Y-103495831D01*
X99884060Y-104230566D01*
X99785505Y-105087880D01*
X99727877Y-106088987D01*
X99726870Y-106117334D01*
X99710816Y-106985825D01*
X99723915Y-107882868D01*
X99767877Y-108820438D01*
X99844412Y-109810512D01*
X99955229Y-110865063D01*
X100102038Y-111996068D01*
X100286550Y-113215502D01*
X100510472Y-114535340D01*
X100775517Y-115967557D01*
X101083392Y-117524130D01*
X101435809Y-119217034D01*
X101834475Y-121058243D01*
X101906841Y-121386269D01*
X101996492Y-121809602D01*
X102065714Y-122171926D01*
X102109171Y-122442307D01*
X102121530Y-122589816D01*
X102117343Y-122606880D01*
G37*
X102117343Y-122606880D02*
X102068528Y-122624561D01*
X102068002Y-122620278D01*
X102047041Y-122517300D01*
X101990093Y-122279670D01*
X101904593Y-121936407D01*
X101797977Y-121516529D01*
X101677679Y-121049057D01*
X101551134Y-120563010D01*
X101425777Y-120087406D01*
X101309042Y-119651265D01*
X101278051Y-119537000D01*
X100944421Y-118232226D01*
X100625673Y-116833126D01*
X100328712Y-115378667D01*
X100060439Y-113907816D01*
X99827759Y-112459539D01*
X99637574Y-111072804D01*
X99496788Y-109786577D01*
X99448139Y-109207667D01*
X99387556Y-108057014D01*
X99375842Y-106929323D01*
X99412863Y-105878301D01*
X99457798Y-105313000D01*
X99580971Y-104452604D01*
X99770484Y-103636659D01*
X100016360Y-102893964D01*
X100308623Y-102253322D01*
X100637298Y-101743533D01*
X100733935Y-101628783D01*
X100905160Y-101468622D01*
X101123040Y-101302896D01*
X101343134Y-101160449D01*
X101520999Y-101070124D01*
X101611069Y-101059513D01*
X101572602Y-101123164D01*
X101426319Y-101232592D01*
X101357155Y-101275304D01*
X101128617Y-101450843D01*
X100888551Y-101695550D01*
X100792654Y-101814966D01*
X100477839Y-102309245D01*
X100224972Y-102862463D01*
X100028797Y-103495831D01*
X99884060Y-104230566D01*
X99785505Y-105087880D01*
X99727877Y-106088987D01*
X99726870Y-106117334D01*
X99710816Y-106985825D01*
X99723915Y-107882868D01*
X99767877Y-108820438D01*
X99844412Y-109810512D01*
X99955229Y-110865063D01*
X100102038Y-111996068D01*
X100286550Y-113215502D01*
X100510472Y-114535340D01*
X100775517Y-115967557D01*
X101083392Y-117524130D01*
X101435809Y-119217034D01*
X101834475Y-121058243D01*
X101906841Y-121386269D01*
X101996492Y-121809602D01*
X102065714Y-122171926D01*
X102109171Y-122442307D01*
X102121530Y-122589816D01*
X102117343Y-122606880D01*
G36*
X106566669Y-106396023D02*
G01*
X106551667Y-106903880D01*
X106527073Y-107339551D01*
X106492809Y-107675386D01*
X106448797Y-107883734D01*
X106422953Y-107931619D01*
X106200637Y-108052940D01*
X105958073Y-108014979D01*
X105794000Y-107895334D01*
X105739855Y-107832263D01*
X105698644Y-107750710D01*
X105668612Y-107628568D01*
X105648002Y-107443728D01*
X105635060Y-107174086D01*
X105628029Y-106797533D01*
X105625154Y-106291964D01*
X105624667Y-105763065D01*
X105623575Y-105127416D01*
X105619115Y-104636867D01*
X105609514Y-104267191D01*
X105592999Y-103994164D01*
X105567794Y-103793559D01*
X105532127Y-103641150D01*
X105484223Y-103512711D01*
X105455326Y-103450318D01*
X105316198Y-103243139D01*
X105119520Y-103042362D01*
X104905530Y-102878358D01*
X104714467Y-102781499D01*
X104586567Y-102782158D01*
X104578836Y-102788720D01*
X104564122Y-102884842D01*
X104550900Y-103127383D01*
X104539725Y-103493431D01*
X104531149Y-103960076D01*
X104525727Y-104504406D01*
X104524000Y-105056178D01*
X104523119Y-105758295D01*
X104518361Y-106309342D01*
X104506556Y-106727582D01*
X104484536Y-107031276D01*
X104449130Y-107238686D01*
X104397168Y-107368075D01*
X104325480Y-107437704D01*
X104230897Y-107465836D01*
X104110248Y-107470732D01*
X104104900Y-107470704D01*
X103969685Y-107467880D01*
X103863197Y-107449091D01*
X103781762Y-107396139D01*
X103721705Y-107290830D01*
X103679352Y-107114968D01*
X103651028Y-106850358D01*
X103633058Y-106478803D01*
X103621768Y-105982109D01*
X103613483Y-105342080D01*
X103609947Y-105019850D01*
X103601186Y-104417109D01*
X103589137Y-103873797D01*
X103574619Y-103411712D01*
X103558454Y-103052654D01*
X103541462Y-102818421D01*
X103524463Y-102730813D01*
X103523767Y-102730667D01*
X103421894Y-102774404D01*
X103238652Y-102884262D01*
X103158755Y-102937163D01*
X102987736Y-103062564D01*
X102853839Y-103193500D01*
X102752550Y-103351607D01*
X102679356Y-103558522D01*
X102629746Y-103835880D01*
X102599206Y-104205316D01*
X102583224Y-104688467D01*
X102577286Y-105306969D01*
X102576667Y-105727962D01*
X102575923Y-106362545D01*
X102572550Y-106849676D01*
X102564839Y-107211235D01*
X102551081Y-107469101D01*
X102529566Y-107645155D01*
X102498585Y-107761275D01*
X102456429Y-107839341D01*
X102407334Y-107895334D01*
X102181574Y-108044293D01*
X101938364Y-108033986D01*
X101809101Y-107977021D01*
X101759202Y-107942486D01*
X101720732Y-107885541D01*
X101692319Y-107786152D01*
X101672592Y-107624284D01*
X101660178Y-107379903D01*
X101653706Y-107032974D01*
X101651802Y-106563463D01*
X101653096Y-105951336D01*
X101654000Y-105712188D01*
X101658726Y-105107924D01*
X101667482Y-104547974D01*
X101679516Y-104058302D01*
X101694074Y-103664872D01*
X101710405Y-103393648D01*
X101724503Y-103281000D01*
X101930881Y-102773497D01*
X102272040Y-102326413D01*
X102715586Y-101973198D01*
X103202169Y-101755093D01*
X103838329Y-101637645D01*
X104459177Y-101655754D01*
X105040172Y-101798802D01*
X105556774Y-102056173D01*
X105984442Y-102417253D01*
X106298637Y-102871426D01*
X106409573Y-103142556D01*
X106459557Y-103381472D01*
X106500490Y-103741762D01*
X106532293Y-104195775D01*
X106554889Y-104715858D01*
X106568202Y-105274362D01*
X106572155Y-105843634D01*
X106566669Y-106396023D01*
G37*
X106566669Y-106396023D02*
X106551667Y-106903880D01*
X106527073Y-107339551D01*
X106492809Y-107675386D01*
X106448797Y-107883734D01*
X106422953Y-107931619D01*
X106200637Y-108052940D01*
X105958073Y-108014979D01*
X105794000Y-107895334D01*
X105739855Y-107832263D01*
X105698644Y-107750710D01*
X105668612Y-107628568D01*
X105648002Y-107443728D01*
X105635060Y-107174086D01*
X105628029Y-106797533D01*
X105625154Y-106291964D01*
X105624667Y-105763065D01*
X105623575Y-105127416D01*
X105619115Y-104636867D01*
X105609514Y-104267191D01*
X105592999Y-103994164D01*
X105567794Y-103793559D01*
X105532127Y-103641150D01*
X105484223Y-103512711D01*
X105455326Y-103450318D01*
X105316198Y-103243139D01*
X105119520Y-103042362D01*
X104905530Y-102878358D01*
X104714467Y-102781499D01*
X104586567Y-102782158D01*
X104578836Y-102788720D01*
X104564122Y-102884842D01*
X104550900Y-103127383D01*
X104539725Y-103493431D01*
X104531149Y-103960076D01*
X104525727Y-104504406D01*
X104524000Y-105056178D01*
X104523119Y-105758295D01*
X104518361Y-106309342D01*
X104506556Y-106727582D01*
X104484536Y-107031276D01*
X104449130Y-107238686D01*
X104397168Y-107368075D01*
X104325480Y-107437704D01*
X104230897Y-107465836D01*
X104110248Y-107470732D01*
X104104900Y-107470704D01*
X103969685Y-107467880D01*
X103863197Y-107449091D01*
X103781762Y-107396139D01*
X103721705Y-107290830D01*
X103679352Y-107114968D01*
X103651028Y-106850358D01*
X103633058Y-106478803D01*
X103621768Y-105982109D01*
X103613483Y-105342080D01*
X103609947Y-105019850D01*
X103601186Y-104417109D01*
X103589137Y-103873797D01*
X103574619Y-103411712D01*
X103558454Y-103052654D01*
X103541462Y-102818421D01*
X103524463Y-102730813D01*
X103523767Y-102730667D01*
X103421894Y-102774404D01*
X103238652Y-102884262D01*
X103158755Y-102937163D01*
X102987736Y-103062564D01*
X102853839Y-103193500D01*
X102752550Y-103351607D01*
X102679356Y-103558522D01*
X102629746Y-103835880D01*
X102599206Y-104205316D01*
X102583224Y-104688467D01*
X102577286Y-105306969D01*
X102576667Y-105727962D01*
X102575923Y-106362545D01*
X102572550Y-106849676D01*
X102564839Y-107211235D01*
X102551081Y-107469101D01*
X102529566Y-107645155D01*
X102498585Y-107761275D01*
X102456429Y-107839341D01*
X102407334Y-107895334D01*
X102181574Y-108044293D01*
X101938364Y-108033986D01*
X101809101Y-107977021D01*
X101759202Y-107942486D01*
X101720732Y-107885541D01*
X101692319Y-107786152D01*
X101672592Y-107624284D01*
X101660178Y-107379903D01*
X101653706Y-107032974D01*
X101651802Y-106563463D01*
X101653096Y-105951336D01*
X101654000Y-105712188D01*
X101658726Y-105107924D01*
X101667482Y-104547974D01*
X101679516Y-104058302D01*
X101694074Y-103664872D01*
X101710405Y-103393648D01*
X101724503Y-103281000D01*
X101930881Y-102773497D01*
X102272040Y-102326413D01*
X102715586Y-101973198D01*
X103202169Y-101755093D01*
X103838329Y-101637645D01*
X104459177Y-101655754D01*
X105040172Y-101798802D01*
X105556774Y-102056173D01*
X105984442Y-102417253D01*
X106298637Y-102871426D01*
X106409573Y-103142556D01*
X106459557Y-103381472D01*
X106500490Y-103741762D01*
X106532293Y-104195775D01*
X106554889Y-104715858D01*
X106568202Y-105274362D01*
X106572155Y-105843634D01*
X106566669Y-106396023D01*
G36*
X106555109Y-112160580D02*
G01*
X106550614Y-112741892D01*
X106541829Y-113282685D01*
X106528731Y-113756732D01*
X106511296Y-114137807D01*
X106489502Y-114399686D01*
X106473001Y-114493519D01*
X106312441Y-114821185D01*
X106047574Y-115135686D01*
X105734974Y-115371013D01*
X105709334Y-115384577D01*
X105308792Y-115518453D01*
X104860760Y-115556582D01*
X104419642Y-115503362D01*
X104039843Y-115363189D01*
X103859590Y-115235072D01*
X103697086Y-115081787D01*
X103569199Y-114945382D01*
X103471363Y-114803717D01*
X103399013Y-114634648D01*
X103347583Y-114416035D01*
X103312508Y-114125735D01*
X103289223Y-113741607D01*
X103273162Y-113241508D01*
X103259760Y-112603298D01*
X103254000Y-112298000D01*
X103211667Y-110054334D01*
X102509855Y-110012000D01*
X102116056Y-109977638D01*
X101862355Y-109920219D01*
X101719619Y-109822546D01*
X101658714Y-109667424D01*
X101649205Y-109504000D01*
X101684669Y-109275953D01*
X101736782Y-109144167D01*
X101803058Y-109073544D01*
X101924684Y-109029128D01*
X102135415Y-109005330D01*
X102469006Y-108996557D01*
X102631304Y-108996000D01*
X103028993Y-109001386D01*
X103300944Y-109022492D01*
X103490552Y-109066739D01*
X103641208Y-109141548D01*
X103695010Y-109177920D01*
X103837188Y-109289777D01*
X103949018Y-109413402D01*
X104034108Y-109569578D01*
X104096065Y-109779087D01*
X104138496Y-110062714D01*
X104165010Y-110441240D01*
X104179212Y-110935449D01*
X104184711Y-111566123D01*
X104185334Y-112002796D01*
X104185334Y-114083697D01*
X104393152Y-114291515D01*
X104667802Y-114465086D01*
X104905001Y-114499334D01*
X105228021Y-114430241D01*
X105416849Y-114291515D01*
X105624667Y-114083697D01*
X105624667Y-108996000D01*
X106002688Y-108996000D01*
X106269728Y-109017431D01*
X106420070Y-109093095D01*
X106468355Y-109159767D01*
X106493254Y-109290408D01*
X106514023Y-109564107D01*
X106530639Y-109954638D01*
X106543078Y-110435776D01*
X106551318Y-110981297D01*
X106555336Y-111564973D01*
X106555109Y-112160580D01*
G37*
X106555109Y-112160580D02*
X106550614Y-112741892D01*
X106541829Y-113282685D01*
X106528731Y-113756732D01*
X106511296Y-114137807D01*
X106489502Y-114399686D01*
X106473001Y-114493519D01*
X106312441Y-114821185D01*
X106047574Y-115135686D01*
X105734974Y-115371013D01*
X105709334Y-115384577D01*
X105308792Y-115518453D01*
X104860760Y-115556582D01*
X104419642Y-115503362D01*
X104039843Y-115363189D01*
X103859590Y-115235072D01*
X103697086Y-115081787D01*
X103569199Y-114945382D01*
X103471363Y-114803717D01*
X103399013Y-114634648D01*
X103347583Y-114416035D01*
X103312508Y-114125735D01*
X103289223Y-113741607D01*
X103273162Y-113241508D01*
X103259760Y-112603298D01*
X103254000Y-112298000D01*
X103211667Y-110054334D01*
X102509855Y-110012000D01*
X102116056Y-109977638D01*
X101862355Y-109920219D01*
X101719619Y-109822546D01*
X101658714Y-109667424D01*
X101649205Y-109504000D01*
X101684669Y-109275953D01*
X101736782Y-109144167D01*
X101803058Y-109073544D01*
X101924684Y-109029128D01*
X102135415Y-109005330D01*
X102469006Y-108996557D01*
X102631304Y-108996000D01*
X103028993Y-109001386D01*
X103300944Y-109022492D01*
X103490552Y-109066739D01*
X103641208Y-109141548D01*
X103695010Y-109177920D01*
X103837188Y-109289777D01*
X103949018Y-109413402D01*
X104034108Y-109569578D01*
X104096065Y-109779087D01*
X104138496Y-110062714D01*
X104165010Y-110441240D01*
X104179212Y-110935449D01*
X104184711Y-111566123D01*
X104185334Y-112002796D01*
X104185334Y-114083697D01*
X104393152Y-114291515D01*
X104667802Y-114465086D01*
X104905001Y-114499334D01*
X105228021Y-114430241D01*
X105416849Y-114291515D01*
X105624667Y-114083697D01*
X105624667Y-108996000D01*
X106002688Y-108996000D01*
X106269728Y-109017431D01*
X106420070Y-109093095D01*
X106468355Y-109159767D01*
X106493254Y-109290408D01*
X106514023Y-109564107D01*
X106530639Y-109954638D01*
X106543078Y-110435776D01*
X106551318Y-110981297D01*
X106555336Y-111564973D01*
X106555109Y-112160580D01*
G36*
X106555302Y-119941266D02*
G01*
X106552367Y-120514344D01*
X106545941Y-120960348D01*
X106534765Y-121300406D01*
X106517585Y-121555648D01*
X106493142Y-121747202D01*
X106460182Y-121896196D01*
X106417446Y-122023759D01*
X106384502Y-122103638D01*
X106152647Y-122487783D01*
X105832037Y-122749571D01*
X105402019Y-122901767D01*
X105014536Y-122950569D01*
X104446259Y-122925106D01*
X103989706Y-122773130D01*
X103643199Y-122493883D01*
X103484002Y-122258577D01*
X103426613Y-122142425D01*
X103381568Y-122019230D01*
X103346846Y-121866549D01*
X103320423Y-121661935D01*
X103300278Y-121382946D01*
X103284387Y-121007136D01*
X103270728Y-120512061D01*
X103257279Y-119875278D01*
X103254000Y-119706334D01*
X103211667Y-117505000D01*
X102578811Y-117479740D01*
X102149613Y-117440568D01*
X101865234Y-117355785D01*
X101704570Y-117213592D01*
X101646517Y-117002184D01*
X101645334Y-116957727D01*
X101690956Y-116719599D01*
X101765670Y-116568682D01*
X101846254Y-116488779D01*
X101970173Y-116439491D01*
X102174928Y-116413839D01*
X102498024Y-116404841D01*
X102648554Y-116404334D01*
X103037867Y-116410735D01*
X103302497Y-116435116D01*
X103486785Y-116485240D01*
X103635073Y-116568871D01*
X103650051Y-116579685D01*
X103805403Y-116702883D01*
X103927477Y-116832257D01*
X104020260Y-116989052D01*
X104087739Y-117194510D01*
X104133900Y-117469874D01*
X104162730Y-117836386D01*
X104178216Y-118315289D01*
X104184345Y-118927827D01*
X104185202Y-119431167D01*
X104185952Y-120082924D01*
X104189158Y-120586604D01*
X104196391Y-120963461D01*
X104209222Y-121234747D01*
X104229224Y-121421717D01*
X104257968Y-121545624D01*
X104297025Y-121627722D01*
X104347967Y-121689264D01*
X104352514Y-121693847D01*
X104561504Y-121843270D01*
X104735157Y-121915104D01*
X104969800Y-121918644D01*
X105235777Y-121849671D01*
X105453409Y-121733675D01*
X105520650Y-121663809D01*
X105537383Y-121558259D01*
X105555171Y-121304926D01*
X105573178Y-120925350D01*
X105590566Y-120441069D01*
X105606500Y-119873623D01*
X105620141Y-119244553D01*
X105624667Y-118986667D01*
X105667000Y-116404334D01*
X105999350Y-116415308D01*
X106151071Y-116423077D01*
X106272366Y-116446722D01*
X106366642Y-116503396D01*
X106437302Y-116610255D01*
X106487752Y-116784453D01*
X106521395Y-117043144D01*
X106541637Y-117403482D01*
X106551882Y-117882622D01*
X106555535Y-118497718D01*
X106556000Y-119219987D01*
X106555302Y-119941266D01*
G37*
X106555302Y-119941266D02*
X106552367Y-120514344D01*
X106545941Y-120960348D01*
X106534765Y-121300406D01*
X106517585Y-121555648D01*
X106493142Y-121747202D01*
X106460182Y-121896196D01*
X106417446Y-122023759D01*
X106384502Y-122103638D01*
X106152647Y-122487783D01*
X105832037Y-122749571D01*
X105402019Y-122901767D01*
X105014536Y-122950569D01*
X104446259Y-122925106D01*
X103989706Y-122773130D01*
X103643199Y-122493883D01*
X103484002Y-122258577D01*
X103426613Y-122142425D01*
X103381568Y-122019230D01*
X103346846Y-121866549D01*
X103320423Y-121661935D01*
X103300278Y-121382946D01*
X103284387Y-121007136D01*
X103270728Y-120512061D01*
X103257279Y-119875278D01*
X103254000Y-119706334D01*
X103211667Y-117505000D01*
X102578811Y-117479740D01*
X102149613Y-117440568D01*
X101865234Y-117355785D01*
X101704570Y-117213592D01*
X101646517Y-117002184D01*
X101645334Y-116957727D01*
X101690956Y-116719599D01*
X101765670Y-116568682D01*
X101846254Y-116488779D01*
X101970173Y-116439491D01*
X102174928Y-116413839D01*
X102498024Y-116404841D01*
X102648554Y-116404334D01*
X103037867Y-116410735D01*
X103302497Y-116435116D01*
X103486785Y-116485240D01*
X103635073Y-116568871D01*
X103650051Y-116579685D01*
X103805403Y-116702883D01*
X103927477Y-116832257D01*
X104020260Y-116989052D01*
X104087739Y-117194510D01*
X104133900Y-117469874D01*
X104162730Y-117836386D01*
X104178216Y-118315289D01*
X104184345Y-118927827D01*
X104185202Y-119431167D01*
X104185952Y-120082924D01*
X104189158Y-120586604D01*
X104196391Y-120963461D01*
X104209222Y-121234747D01*
X104229224Y-121421717D01*
X104257968Y-121545624D01*
X104297025Y-121627722D01*
X104347967Y-121689264D01*
X104352514Y-121693847D01*
X104561504Y-121843270D01*
X104735157Y-121915104D01*
X104969800Y-121918644D01*
X105235777Y-121849671D01*
X105453409Y-121733675D01*
X105520650Y-121663809D01*
X105537383Y-121558259D01*
X105555171Y-121304926D01*
X105573178Y-120925350D01*
X105590566Y-120441069D01*
X105606500Y-119873623D01*
X105620141Y-119244553D01*
X105624667Y-118986667D01*
X105667000Y-116404334D01*
X105999350Y-116415308D01*
X106151071Y-116423077D01*
X106272366Y-116446722D01*
X106366642Y-116503396D01*
X106437302Y-116610255D01*
X106487752Y-116784453D01*
X106521395Y-117043144D01*
X106541637Y-117403482D01*
X106551882Y-117882622D01*
X106555535Y-118497718D01*
X106556000Y-119219987D01*
X106555302Y-119941266D01*
G36*
X102573505Y-128239017D02*
G01*
X102560905Y-128735306D01*
X102534197Y-129101171D01*
X102488709Y-129356031D01*
X102419771Y-129519307D01*
X102322712Y-129610420D01*
X102192862Y-129648790D01*
X102080800Y-129654667D01*
X101946147Y-129648947D01*
X101842627Y-129618757D01*
X101766329Y-129544551D01*
X101713341Y-129406784D01*
X101679750Y-129185908D01*
X101661645Y-128862380D01*
X101655114Y-128416652D01*
X101656246Y-127829180D01*
X101658020Y-127542234D01*
X101663241Y-126976758D01*
X101670796Y-126456643D01*
X101680059Y-126009796D01*
X101690407Y-125664124D01*
X101701214Y-125447537D01*
X101705977Y-125400167D01*
X101737870Y-125231539D01*
X101761582Y-125167334D01*
X101828858Y-125220256D01*
X101984647Y-125358500D01*
X102179292Y-125537387D01*
X102576667Y-125907440D01*
X102576667Y-127592881D01*
X102573505Y-128239017D01*
G37*
X102573505Y-128239017D02*
X102560905Y-128735306D01*
X102534197Y-129101171D01*
X102488709Y-129356031D01*
X102419771Y-129519307D01*
X102322712Y-129610420D01*
X102192862Y-129648790D01*
X102080800Y-129654667D01*
X101946147Y-129648947D01*
X101842627Y-129618757D01*
X101766329Y-129544551D01*
X101713341Y-129406784D01*
X101679750Y-129185908D01*
X101661645Y-128862380D01*
X101655114Y-128416652D01*
X101656246Y-127829180D01*
X101658020Y-127542234D01*
X101663241Y-126976758D01*
X101670796Y-126456643D01*
X101680059Y-126009796D01*
X101690407Y-125664124D01*
X101701214Y-125447537D01*
X101705977Y-125400167D01*
X101737870Y-125231539D01*
X101761582Y-125167334D01*
X101828858Y-125220256D01*
X101984647Y-125358500D01*
X102179292Y-125537387D01*
X102576667Y-125907440D01*
X102576667Y-127592881D01*
X102573505Y-128239017D01*
G36*
X103804490Y-127550404D02*
G01*
X103714279Y-127533521D01*
X103713062Y-127532519D01*
X103601455Y-127396820D01*
X103458124Y-127167241D01*
X103364744Y-126992985D01*
X103226219Y-126731334D01*
X103100994Y-126519589D01*
X103043094Y-126437334D01*
X102945191Y-126275536D01*
X102841400Y-126040104D01*
X102824327Y-125993541D01*
X102682477Y-125736754D01*
X102462972Y-125481995D01*
X102385379Y-125413871D01*
X102173252Y-125224902D01*
X102032986Y-125035563D01*
X101924442Y-124781909D01*
X101858568Y-124574667D01*
X101830878Y-124459913D01*
X101859859Y-124442587D01*
X101969157Y-124530720D01*
X102104955Y-124658355D01*
X102302822Y-124829487D01*
X102422268Y-124882023D01*
X102484633Y-124840587D01*
X102613793Y-124754051D01*
X102798441Y-124715618D01*
X103021621Y-124671715D01*
X103135887Y-124542228D01*
X103174597Y-124288415D01*
X103174944Y-124278334D01*
X103183147Y-124024334D01*
X103311916Y-124320167D01*
X103403383Y-124734925D01*
X103391294Y-124976345D01*
X103382490Y-125224699D01*
X103427315Y-125519236D01*
X103533890Y-125904514D01*
X103594285Y-126090001D01*
X103717572Y-126503989D01*
X103802313Y-126882244D01*
X103846431Y-127199545D01*
X103847849Y-127430672D01*
X103804490Y-127550404D01*
G37*
X103804490Y-127550404D02*
X103714279Y-127533521D01*
X103713062Y-127532519D01*
X103601455Y-127396820D01*
X103458124Y-127167241D01*
X103364744Y-126992985D01*
X103226219Y-126731334D01*
X103100994Y-126519589D01*
X103043094Y-126437334D01*
X102945191Y-126275536D01*
X102841400Y-126040104D01*
X102824327Y-125993541D01*
X102682477Y-125736754D01*
X102462972Y-125481995D01*
X102385379Y-125413871D01*
X102173252Y-125224902D01*
X102032986Y-125035563D01*
X101924442Y-124781909D01*
X101858568Y-124574667D01*
X101830878Y-124459913D01*
X101859859Y-124442587D01*
X101969157Y-124530720D01*
X102104955Y-124658355D01*
X102302822Y-124829487D01*
X102422268Y-124882023D01*
X102484633Y-124840587D01*
X102613793Y-124754051D01*
X102798441Y-124715618D01*
X103021621Y-124671715D01*
X103135887Y-124542228D01*
X103174597Y-124288415D01*
X103174944Y-124278334D01*
X103183147Y-124024334D01*
X103311916Y-124320167D01*
X103403383Y-124734925D01*
X103391294Y-124976345D01*
X103382490Y-125224699D01*
X103427315Y-125519236D01*
X103533890Y-125904514D01*
X103594285Y-126090001D01*
X103717572Y-126503989D01*
X103802313Y-126882244D01*
X103846431Y-127199545D01*
X103847849Y-127430672D01*
X103804490Y-127550404D01*
G36*
X102204487Y-122943070D02*
G01*
X102166005Y-122917819D01*
X102160018Y-122831945D01*
X102180695Y-122741602D01*
X102211171Y-122780792D01*
X102221264Y-122913116D01*
X102204487Y-122943070D01*
G37*
X102204487Y-122943070D02*
X102166005Y-122917819D01*
X102160018Y-122831945D01*
X102180695Y-122741602D01*
X102211171Y-122780792D01*
X102221264Y-122913116D01*
X102204487Y-122943070D01*
G36*
X102346716Y-123423579D02*
G01*
X102322667Y-123389334D01*
X102252467Y-123208592D01*
X102245248Y-123135334D01*
X102269422Y-123084703D01*
X102322667Y-123177667D01*
X102386159Y-123357171D01*
X102394176Y-123449787D01*
X102346716Y-123423579D01*
G37*
X102346716Y-123423579D02*
X102322667Y-123389334D01*
X102252467Y-123208592D01*
X102245248Y-123135334D01*
X102269422Y-123084703D01*
X102322667Y-123177667D01*
X102386159Y-123357171D01*
X102394176Y-123449787D01*
X102346716Y-123423579D01*
G36*
X106543634Y-124414921D02*
G01*
X106491640Y-124546347D01*
X106377676Y-124637504D01*
X106179399Y-124695613D01*
X105874466Y-124727900D01*
X105440535Y-124741588D01*
X104984756Y-124744000D01*
X103679606Y-124744000D01*
X103561553Y-124461459D01*
X103436573Y-124147625D01*
X103380045Y-123952989D01*
X103387455Y-123843939D01*
X103454287Y-123786866D01*
X103470069Y-123780360D01*
X103598556Y-123762410D01*
X103863907Y-123747112D01*
X104233658Y-123735617D01*
X104675347Y-123729073D01*
X104948211Y-123728000D01*
X105508655Y-123731745D01*
X105921969Y-123747640D01*
X106210278Y-123782675D01*
X106395704Y-123843841D01*
X106500374Y-123938129D01*
X106546411Y-124072528D01*
X106556000Y-124236000D01*
X106543634Y-124414921D01*
G37*
X106543634Y-124414921D02*
X106491640Y-124546347D01*
X106377676Y-124637504D01*
X106179399Y-124695613D01*
X105874466Y-124727900D01*
X105440535Y-124741588D01*
X104984756Y-124744000D01*
X103679606Y-124744000D01*
X103561553Y-124461459D01*
X103436573Y-124147625D01*
X103380045Y-123952989D01*
X103387455Y-123843939D01*
X103454287Y-123786866D01*
X103470069Y-123780360D01*
X103598556Y-123762410D01*
X103863907Y-123747112D01*
X104233658Y-123735617D01*
X104675347Y-123729073D01*
X104948211Y-123728000D01*
X105508655Y-123731745D01*
X105921969Y-123747640D01*
X106210278Y-123782675D01*
X106395704Y-123843841D01*
X106500374Y-123938129D01*
X106546411Y-124072528D01*
X106556000Y-124236000D01*
X106543634Y-124414921D01*
D14*
%TO.C,VR3*%
X133357000Y-104070000D02*
X139458000Y-104070000D01*
X139458000Y-104070000D02*
X139458000Y-97530000D01*
X139458000Y-97530000D02*
X133357000Y-97530000D01*
D15*
X143605000Y-103100000D02*
G75*
G03*
X143605000Y-103100000I-100000J0D01*
G01*
D14*
%TO.C,VR2*%
X133357000Y-96270000D02*
X139458000Y-96270000D01*
X139458000Y-96270000D02*
X139458000Y-89730000D01*
X139458000Y-89730000D02*
X133357000Y-89730000D01*
D15*
X143605000Y-95300000D02*
G75*
G03*
X143605000Y-95300000I-100000J0D01*
G01*
D14*
%TO.C,VR1*%
X133357000Y-88470000D02*
X139458000Y-88470000D01*
X139458000Y-88470000D02*
X139458000Y-81930000D01*
X139458000Y-81930000D02*
X133357000Y-81930000D01*
D15*
X143605000Y-87500000D02*
G75*
G03*
X143605000Y-87500000I-100000J0D01*
G01*
D16*
%TO.C,J5*%
X107440000Y-78700000D02*
X117560000Y-78700000D01*
X107440000Y-72140000D02*
X117560000Y-72140000D01*
X107440000Y-82260000D02*
X117560000Y-82260000D01*
X107440000Y-72140000D02*
X107440000Y-82260000D01*
X117560000Y-72140000D02*
X117560000Y-82260000D01*
X107950000Y-73200000D02*
X108510000Y-73200000D01*
X111490000Y-73200000D02*
X112050000Y-73200000D01*
X107950000Y-78600000D02*
X112050000Y-78600000D01*
X107950000Y-73200000D02*
X107950000Y-78600000D01*
X112050000Y-73200000D02*
X112050000Y-78600000D01*
X112950000Y-73200000D02*
X114117000Y-73200000D01*
X115884000Y-73200000D02*
X117050000Y-73200000D01*
X112950000Y-78600000D02*
X117050000Y-78600000D01*
X112950000Y-73200000D02*
X112950000Y-78600000D01*
X117050000Y-73200000D02*
X117050000Y-78600000D01*
X107200000Y-80260000D02*
X107200000Y-82500000D01*
X107200000Y-82500000D02*
X109200000Y-82500000D01*
%TO.C,J4*%
X101870000Y-99950000D02*
X104530000Y-99950000D01*
X101870000Y-92270000D02*
X101870000Y-99950000D01*
X104530000Y-92270000D02*
X104530000Y-99950000D01*
X101870000Y-92270000D02*
X104530000Y-92270000D01*
X101870000Y-91000000D02*
X101870000Y-89670000D01*
X101870000Y-89670000D02*
X103200000Y-89670000D01*
%TO.C,C2*%
X148320000Y-100150000D02*
G75*
G03*
X148320000Y-100150000I-2120000J0D01*
G01*
X145360000Y-100150000D02*
X144120000Y-100150000D01*
X148280000Y-100150000D02*
X147040000Y-100150000D01*
X145360000Y-100190000D02*
X144120000Y-100190000D01*
X148280000Y-100190000D02*
X147040000Y-100190000D01*
X145360000Y-100230000D02*
X144121000Y-100230000D01*
X148279000Y-100230000D02*
X147040000Y-100230000D01*
X148277000Y-100270000D02*
X147040000Y-100270000D01*
X145360000Y-100270000D02*
X144123000Y-100270000D01*
X148274000Y-100310000D02*
X147040000Y-100310000D01*
X145360000Y-100310000D02*
X144126000Y-100310000D01*
X148271000Y-100350000D02*
X147040000Y-100350000D01*
X145360000Y-100350000D02*
X144129000Y-100350000D01*
X148267000Y-100390000D02*
X147040000Y-100390000D01*
X145360000Y-100390000D02*
X144133000Y-100390000D01*
X148262000Y-100430000D02*
X147040000Y-100430000D01*
X145360000Y-100430000D02*
X144138000Y-100430000D01*
X148256000Y-100470000D02*
X147040000Y-100470000D01*
X145360000Y-100470000D02*
X144144000Y-100470000D01*
X148250000Y-100510000D02*
X147040000Y-100510000D01*
X145360000Y-100510000D02*
X144150000Y-100510000D01*
X148242000Y-100550000D02*
X147040000Y-100550000D01*
X145360000Y-100550000D02*
X144158000Y-100550000D01*
X148234000Y-100590000D02*
X147040000Y-100590000D01*
X145360000Y-100590000D02*
X144166000Y-100590000D01*
X148225000Y-100630000D02*
X147040000Y-100630000D01*
X145360000Y-100630000D02*
X144175000Y-100630000D01*
X148216000Y-100670000D02*
X147040000Y-100670000D01*
X145360000Y-100670000D02*
X144184000Y-100670000D01*
X148205000Y-100710000D02*
X147040000Y-100710000D01*
X145360000Y-100710000D02*
X144195000Y-100710000D01*
X148194000Y-100750000D02*
X147040000Y-100750000D01*
X145360000Y-100750000D02*
X144206000Y-100750000D01*
X148182000Y-100790000D02*
X147040000Y-100790000D01*
X145360000Y-100790000D02*
X144218000Y-100790000D01*
X148168000Y-100830000D02*
X147040000Y-100830000D01*
X145360000Y-100830000D02*
X144232000Y-100830000D01*
X148154000Y-100871000D02*
X147040000Y-100871000D01*
X145360000Y-100871000D02*
X144246000Y-100871000D01*
X148140000Y-100911000D02*
X147040000Y-100911000D01*
X145360000Y-100911000D02*
X144260000Y-100911000D01*
X148124000Y-100951000D02*
X147040000Y-100951000D01*
X145360000Y-100951000D02*
X144276000Y-100951000D01*
X148107000Y-100991000D02*
X147040000Y-100991000D01*
X145360000Y-100991000D02*
X144293000Y-100991000D01*
X148089000Y-101031000D02*
X147040000Y-101031000D01*
X145360000Y-101031000D02*
X144311000Y-101031000D01*
X148070000Y-101071000D02*
X147040000Y-101071000D01*
X145360000Y-101071000D02*
X144330000Y-101071000D01*
X148051000Y-101111000D02*
X147040000Y-101111000D01*
X145360000Y-101111000D02*
X144349000Y-101111000D01*
X148030000Y-101151000D02*
X147040000Y-101151000D01*
X145360000Y-101151000D02*
X144370000Y-101151000D01*
X148008000Y-101191000D02*
X147040000Y-101191000D01*
X145360000Y-101191000D02*
X144392000Y-101191000D01*
X147985000Y-101231000D02*
X147040000Y-101231000D01*
X145360000Y-101231000D02*
X144415000Y-101231000D01*
X147960000Y-101271000D02*
X147040000Y-101271000D01*
X145360000Y-101271000D02*
X144440000Y-101271000D01*
X147935000Y-101311000D02*
X147040000Y-101311000D01*
X145360000Y-101311000D02*
X144465000Y-101311000D01*
X147908000Y-101351000D02*
X147040000Y-101351000D01*
X145360000Y-101351000D02*
X144492000Y-101351000D01*
X147880000Y-101391000D02*
X147040000Y-101391000D01*
X145360000Y-101391000D02*
X144520000Y-101391000D01*
X147850000Y-101431000D02*
X147040000Y-101431000D01*
X145360000Y-101431000D02*
X144550000Y-101431000D01*
X147819000Y-101471000D02*
X147040000Y-101471000D01*
X145360000Y-101471000D02*
X144581000Y-101471000D01*
X147787000Y-101511000D02*
X147040000Y-101511000D01*
X145360000Y-101511000D02*
X144613000Y-101511000D01*
X147752000Y-101551000D02*
X147040000Y-101551000D01*
X145360000Y-101551000D02*
X144648000Y-101551000D01*
X147716000Y-101591000D02*
X147040000Y-101591000D01*
X145360000Y-101591000D02*
X144684000Y-101591000D01*
X147678000Y-101631000D02*
X147040000Y-101631000D01*
X145360000Y-101631000D02*
X144722000Y-101631000D01*
X147638000Y-101671000D02*
X147040000Y-101671000D01*
X145360000Y-101671000D02*
X144762000Y-101671000D01*
X147596000Y-101711000D02*
X147040000Y-101711000D01*
X145360000Y-101711000D02*
X144804000Y-101711000D01*
X147551000Y-101751000D02*
X144849000Y-101751000D01*
X147504000Y-101791000D02*
X144896000Y-101791000D01*
X147454000Y-101831000D02*
X144946000Y-101831000D01*
X147400000Y-101871000D02*
X145000000Y-101871000D01*
X147342000Y-101911000D02*
X145058000Y-101911000D01*
X147280000Y-101951000D02*
X145120000Y-101951000D01*
X147213000Y-101991000D02*
X145187000Y-101991000D01*
X147140000Y-102031000D02*
X145260000Y-102031000D01*
X147059000Y-102071000D02*
X145341000Y-102071000D01*
X146968000Y-102111000D02*
X145432000Y-102111000D01*
X146864000Y-102151000D02*
X145536000Y-102151000D01*
X146737000Y-102191000D02*
X145663000Y-102191000D01*
X146570000Y-102231000D02*
X145830000Y-102231000D01*
X147395000Y-97880199D02*
X147395000Y-98280199D01*
X147595000Y-98080199D02*
X147195000Y-98080199D01*
%TO.C,C1*%
X120880000Y-81030000D02*
X128120000Y-81030000D01*
X120880000Y-83770000D02*
X128120000Y-83770000D01*
X120880000Y-81030000D02*
X120880000Y-83770000D01*
X128120000Y-81030000D02*
X128120000Y-83770000D01*
D15*
%TO.C,TB1*%
X107400000Y-93200000D02*
G75*
G03*
X107400000Y-93200000I-100000J0D01*
G01*
D14*
X108610000Y-89410000D02*
X126390000Y-89410000D01*
X126390000Y-89410000D02*
X126390000Y-132590000D01*
X126390000Y-132590000D02*
X108610000Y-132590000D01*
X108610000Y-132590000D02*
X108610000Y-89410000D01*
D16*
%TO.C,J3*%
X139590000Y-73170000D02*
X139590000Y-78370000D01*
X144730000Y-73170000D02*
X139590000Y-73170000D01*
X147330000Y-78370000D02*
X139590000Y-78370000D01*
X144730000Y-73170000D02*
X144730000Y-75770000D01*
X144730000Y-75770000D02*
X147330000Y-75770000D01*
X147330000Y-75770000D02*
X147330000Y-78370000D01*
X146000000Y-73170000D02*
X147330000Y-73170000D01*
X147330000Y-73170000D02*
X147330000Y-74500000D01*
%TO.C,J2*%
X149670000Y-128990000D02*
X154870000Y-128990000D01*
X149670000Y-80670000D02*
X149670000Y-128990000D01*
X154870000Y-78070000D02*
X154870000Y-128990000D01*
X149670000Y-80670000D02*
X152270000Y-80670000D01*
X152270000Y-80670000D02*
X152270000Y-78070000D01*
X152270000Y-78070000D02*
X154870000Y-78070000D01*
X149670000Y-79400000D02*
X149670000Y-78070000D01*
X149670000Y-78070000D02*
X151000000Y-78070000D01*
%TO.C,J1*%
X129920000Y-132490000D02*
X132580000Y-132490000D01*
X129920000Y-109570000D02*
X129920000Y-132490000D01*
X132580000Y-109570000D02*
X132580000Y-132490000D01*
X129920000Y-109570000D02*
X132580000Y-109570000D01*
X129920000Y-108300000D02*
X129920000Y-106970000D01*
X129920000Y-106970000D02*
X131250000Y-106970000D01*
%TO.C,H6*%
D12*
X142738095Y-126952380D02*
X142738095Y-125952380D01*
X142738095Y-126428571D02*
X143309523Y-126428571D01*
X143309523Y-126952380D02*
X143309523Y-125952380D01*
X144214285Y-125952380D02*
X144023809Y-125952380D01*
X143928571Y-126000000D01*
X143880952Y-126047619D01*
X143785714Y-126190476D01*
X143738095Y-126380952D01*
X143738095Y-126761904D01*
X143785714Y-126857142D01*
X143833333Y-126904761D01*
X143928571Y-126952380D01*
X144119047Y-126952380D01*
X144214285Y-126904761D01*
X144261904Y-126857142D01*
X144309523Y-126761904D01*
X144309523Y-126523809D01*
X144261904Y-126428571D01*
X144214285Y-126380952D01*
X144119047Y-126333333D01*
X143928571Y-126333333D01*
X143833333Y-126380952D01*
X143785714Y-126428571D01*
X143738095Y-126523809D01*
%TO.C,H5*%
X142138095Y-106452380D02*
X142138095Y-105452380D01*
X142138095Y-105928571D02*
X142709523Y-105928571D01*
X142709523Y-106452380D02*
X142709523Y-105452380D01*
X143661904Y-105452380D02*
X143185714Y-105452380D01*
X143138095Y-105928571D01*
X143185714Y-105880952D01*
X143280952Y-105833333D01*
X143519047Y-105833333D01*
X143614285Y-105880952D01*
X143661904Y-105928571D01*
X143709523Y-106023809D01*
X143709523Y-106261904D01*
X143661904Y-106357142D01*
X143614285Y-106404761D01*
X143519047Y-106452380D01*
X143280952Y-106452380D01*
X143185714Y-106404761D01*
X143138095Y-106357142D01*
%TO.C,VR3*%
X128690476Y-100052380D02*
X129023809Y-101052380D01*
X129357142Y-100052380D01*
X130261904Y-101052380D02*
X129928571Y-100576190D01*
X129690476Y-101052380D02*
X129690476Y-100052380D01*
X130071428Y-100052380D01*
X130166666Y-100100000D01*
X130214285Y-100147619D01*
X130261904Y-100242857D01*
X130261904Y-100385714D01*
X130214285Y-100480952D01*
X130166666Y-100528571D01*
X130071428Y-100576190D01*
X129690476Y-100576190D01*
X130595238Y-100052380D02*
X131214285Y-100052380D01*
X130880952Y-100433333D01*
X131023809Y-100433333D01*
X131119047Y-100480952D01*
X131166666Y-100528571D01*
X131214285Y-100623809D01*
X131214285Y-100861904D01*
X131166666Y-100957142D01*
X131119047Y-101004761D01*
X131023809Y-101052380D01*
X130738095Y-101052380D01*
X130642857Y-101004761D01*
X130595238Y-100957142D01*
%TO.C,VR2*%
X128790476Y-89952380D02*
X129123809Y-90952380D01*
X129457142Y-89952380D01*
X130361904Y-90952380D02*
X130028571Y-90476190D01*
X129790476Y-90952380D02*
X129790476Y-89952380D01*
X130171428Y-89952380D01*
X130266666Y-90000000D01*
X130314285Y-90047619D01*
X130361904Y-90142857D01*
X130361904Y-90285714D01*
X130314285Y-90380952D01*
X130266666Y-90428571D01*
X130171428Y-90476190D01*
X129790476Y-90476190D01*
X130742857Y-90047619D02*
X130790476Y-90000000D01*
X130885714Y-89952380D01*
X131123809Y-89952380D01*
X131219047Y-90000000D01*
X131266666Y-90047619D01*
X131314285Y-90142857D01*
X131314285Y-90238095D01*
X131266666Y-90380952D01*
X130695238Y-90952380D01*
X131314285Y-90952380D01*
%TO.C,VR1*%
X128990476Y-86252380D02*
X129323809Y-87252380D01*
X129657142Y-86252380D01*
X130561904Y-87252380D02*
X130228571Y-86776190D01*
X129990476Y-87252380D02*
X129990476Y-86252380D01*
X130371428Y-86252380D01*
X130466666Y-86300000D01*
X130514285Y-86347619D01*
X130561904Y-86442857D01*
X130561904Y-86585714D01*
X130514285Y-86680952D01*
X130466666Y-86728571D01*
X130371428Y-86776190D01*
X129990476Y-86776190D01*
X131514285Y-87252380D02*
X130942857Y-87252380D01*
X131228571Y-87252380D02*
X131228571Y-86252380D01*
X131133333Y-86395238D01*
X131038095Y-86490476D01*
X130942857Y-86538095D01*
%TO.C,J5*%
X105766666Y-81052380D02*
X105766666Y-81766666D01*
X105719047Y-81909523D01*
X105623809Y-82004761D01*
X105480952Y-82052380D01*
X105385714Y-82052380D01*
X106719047Y-81052380D02*
X106242857Y-81052380D01*
X106195238Y-81528571D01*
X106242857Y-81480952D01*
X106338095Y-81433333D01*
X106576190Y-81433333D01*
X106671428Y-81480952D01*
X106719047Y-81528571D01*
X106766666Y-81623809D01*
X106766666Y-81861904D01*
X106719047Y-81957142D01*
X106671428Y-82004761D01*
X106576190Y-82052380D01*
X106338095Y-82052380D01*
X106242857Y-82004761D01*
X106195238Y-81957142D01*
%TO.C,J4*%
X102866666Y-88122380D02*
X102866666Y-88836666D01*
X102819047Y-88979523D01*
X102723809Y-89074761D01*
X102580952Y-89122380D01*
X102485714Y-89122380D01*
X103771428Y-88455714D02*
X103771428Y-89122380D01*
X103533333Y-88074761D02*
X103295238Y-88789047D01*
X103914285Y-88789047D01*
%TO.C,C2*%
X147433333Y-103357142D02*
X147385714Y-103404761D01*
X147242857Y-103452380D01*
X147147619Y-103452380D01*
X147004761Y-103404761D01*
X146909523Y-103309523D01*
X146861904Y-103214285D01*
X146814285Y-103023809D01*
X146814285Y-102880952D01*
X146861904Y-102690476D01*
X146909523Y-102595238D01*
X147004761Y-102500000D01*
X147147619Y-102452380D01*
X147242857Y-102452380D01*
X147385714Y-102500000D01*
X147433333Y-102547619D01*
X147814285Y-102547619D02*
X147861904Y-102500000D01*
X147957142Y-102452380D01*
X148195238Y-102452380D01*
X148290476Y-102500000D01*
X148338095Y-102547619D01*
X148385714Y-102642857D01*
X148385714Y-102738095D01*
X148338095Y-102880952D01*
X147766666Y-103452380D01*
X148385714Y-103452380D01*
%TO.C,C1*%
X122833333Y-85057142D02*
X122785714Y-85104761D01*
X122642857Y-85152380D01*
X122547619Y-85152380D01*
X122404761Y-85104761D01*
X122309523Y-85009523D01*
X122261904Y-84914285D01*
X122214285Y-84723809D01*
X122214285Y-84580952D01*
X122261904Y-84390476D01*
X122309523Y-84295238D01*
X122404761Y-84200000D01*
X122547619Y-84152380D01*
X122642857Y-84152380D01*
X122785714Y-84200000D01*
X122833333Y-84247619D01*
X123785714Y-85152380D02*
X123214285Y-85152380D01*
X123500000Y-85152380D02*
X123500000Y-84152380D01*
X123404761Y-84295238D01*
X123309523Y-84390476D01*
X123214285Y-84438095D01*
%TO.C,H4*%
X154738095Y-135452380D02*
X154738095Y-134452380D01*
X154738095Y-134928571D02*
X155309523Y-134928571D01*
X155309523Y-135452380D02*
X155309523Y-134452380D01*
X156214285Y-134785714D02*
X156214285Y-135452380D01*
X155976190Y-134404761D02*
X155738095Y-135119047D01*
X156357142Y-135119047D01*
%TO.C,H3*%
X98738095Y-135452380D02*
X98738095Y-134452380D01*
X98738095Y-134928571D02*
X99309523Y-134928571D01*
X99309523Y-135452380D02*
X99309523Y-134452380D01*
X99690476Y-134452380D02*
X100309523Y-134452380D01*
X99976190Y-134833333D01*
X100119047Y-134833333D01*
X100214285Y-134880952D01*
X100261904Y-134928571D01*
X100309523Y-135023809D01*
X100309523Y-135261904D01*
X100261904Y-135357142D01*
X100214285Y-135404761D01*
X100119047Y-135452380D01*
X99833333Y-135452380D01*
X99738095Y-135404761D01*
X99690476Y-135357142D01*
%TO.C,H2*%
X98738095Y-72452380D02*
X98738095Y-71452380D01*
X98738095Y-71928571D02*
X99309523Y-71928571D01*
X99309523Y-72452380D02*
X99309523Y-71452380D01*
X99738095Y-71547619D02*
X99785714Y-71500000D01*
X99880952Y-71452380D01*
X100119047Y-71452380D01*
X100214285Y-71500000D01*
X100261904Y-71547619D01*
X100309523Y-71642857D01*
X100309523Y-71738095D01*
X100261904Y-71880952D01*
X99690476Y-72452380D01*
X100309523Y-72452380D01*
%TO.C,H1*%
X154738095Y-72452380D02*
X154738095Y-71452380D01*
X154738095Y-71928571D02*
X155309523Y-71928571D01*
X155309523Y-72452380D02*
X155309523Y-71452380D01*
X156309523Y-72452380D02*
X155738095Y-72452380D01*
X156023809Y-72452380D02*
X156023809Y-71452380D01*
X155928571Y-71595238D01*
X155833333Y-71690476D01*
X155738095Y-71738095D01*
%TO.C,TB1*%
X115433333Y-90433333D02*
X116233333Y-90433333D01*
X115833333Y-91833333D02*
X115833333Y-90433333D01*
X117166666Y-91100000D02*
X117366666Y-91166666D01*
X117433333Y-91233333D01*
X117500000Y-91366666D01*
X117500000Y-91566666D01*
X117433333Y-91700000D01*
X117366666Y-91766666D01*
X117233333Y-91833333D01*
X116700000Y-91833333D01*
X116700000Y-90433333D01*
X117166666Y-90433333D01*
X117300000Y-90500000D01*
X117366666Y-90566666D01*
X117433333Y-90700000D01*
X117433333Y-90833333D01*
X117366666Y-90966666D01*
X117300000Y-91033333D01*
X117166666Y-91100000D01*
X116700000Y-91100000D01*
X118833333Y-91833333D02*
X118033333Y-91833333D01*
X118433333Y-91833333D02*
X118433333Y-90433333D01*
X118300000Y-90633333D01*
X118166666Y-90766666D01*
X118033333Y-90833333D01*
X117733333Y-123957142D02*
X117733333Y-123004761D01*
X118304761Y-124147619D02*
X116304761Y-123480952D01*
X118304761Y-122814285D01*
X118304761Y-121004761D02*
X117352380Y-121671428D01*
X118304761Y-122147619D02*
X116304761Y-122147619D01*
X116304761Y-121385714D01*
X116400000Y-121195238D01*
X116495238Y-121100000D01*
X116685714Y-121004761D01*
X116971428Y-121004761D01*
X117161904Y-121100000D01*
X117257142Y-121195238D01*
X117352380Y-121385714D01*
X117352380Y-122147619D01*
X118304761Y-120147619D02*
X116304761Y-120147619D01*
X116304761Y-119671428D01*
X116400000Y-119385714D01*
X116590476Y-119195238D01*
X116780952Y-119100000D01*
X117161904Y-119004761D01*
X117447619Y-119004761D01*
X117828571Y-119100000D01*
X118019047Y-119195238D01*
X118209523Y-119385714D01*
X118304761Y-119671428D01*
X118304761Y-120147619D01*
X116304761Y-118147619D02*
X117923809Y-118147619D01*
X118114285Y-118052380D01*
X118209523Y-117957142D01*
X118304761Y-117766666D01*
X118304761Y-117385714D01*
X118209523Y-117195238D01*
X118114285Y-117100000D01*
X117923809Y-117004761D01*
X116304761Y-117004761D01*
X118304761Y-116052380D02*
X116304761Y-116052380D01*
X118304761Y-115100000D02*
X116304761Y-115100000D01*
X118304761Y-113957142D01*
X116304761Y-113957142D01*
X116304761Y-112623809D02*
X116304761Y-112242857D01*
X116400000Y-112052380D01*
X116590476Y-111861904D01*
X116971428Y-111766666D01*
X117638095Y-111766666D01*
X118019047Y-111861904D01*
X118209523Y-112052380D01*
X118304761Y-112242857D01*
X118304761Y-112623809D01*
X118209523Y-112814285D01*
X118019047Y-113004761D01*
X117638095Y-113100000D01*
X116971428Y-113100000D01*
X116590476Y-113004761D01*
X116400000Y-112814285D01*
X116304761Y-112623809D01*
X118304761Y-109385714D02*
X116304761Y-109385714D01*
X118304761Y-108242857D01*
X116304761Y-108242857D01*
X117733333Y-107385714D02*
X117733333Y-106433333D01*
X118304761Y-107576190D02*
X116304761Y-106909523D01*
X118304761Y-106242857D01*
X118304761Y-105576190D02*
X116304761Y-105576190D01*
X118304761Y-104433333D01*
X116304761Y-104433333D01*
X116304761Y-103100000D02*
X116304761Y-102719047D01*
X116400000Y-102528571D01*
X116590476Y-102338095D01*
X116971428Y-102242857D01*
X117638095Y-102242857D01*
X118019047Y-102338095D01*
X118209523Y-102528571D01*
X118304761Y-102719047D01*
X118304761Y-103100000D01*
X118209523Y-103290476D01*
X118019047Y-103480952D01*
X117638095Y-103576190D01*
X116971428Y-103576190D01*
X116590476Y-103480952D01*
X116400000Y-103290476D01*
X116304761Y-103100000D01*
%TO.C,J3*%
X148266666Y-73752380D02*
X148266666Y-74466666D01*
X148219047Y-74609523D01*
X148123809Y-74704761D01*
X147980952Y-74752380D01*
X147885714Y-74752380D01*
X148647619Y-73752380D02*
X149266666Y-73752380D01*
X148933333Y-74133333D01*
X149076190Y-74133333D01*
X149171428Y-74180952D01*
X149219047Y-74228571D01*
X149266666Y-74323809D01*
X149266666Y-74561904D01*
X149219047Y-74657142D01*
X149171428Y-74704761D01*
X149076190Y-74752380D01*
X148790476Y-74752380D01*
X148695238Y-74704761D01*
X148647619Y-74657142D01*
%TO.C,J2*%
X148066666Y-78952380D02*
X148066666Y-79666666D01*
X148019047Y-79809523D01*
X147923809Y-79904761D01*
X147780952Y-79952380D01*
X147685714Y-79952380D01*
X148495238Y-79047619D02*
X148542857Y-79000000D01*
X148638095Y-78952380D01*
X148876190Y-78952380D01*
X148971428Y-79000000D01*
X149019047Y-79047619D01*
X149066666Y-79142857D01*
X149066666Y-79238095D01*
X149019047Y-79380952D01*
X148447619Y-79952380D01*
X149066666Y-79952380D01*
X148704761Y-93585714D02*
X146704761Y-93585714D01*
X146704761Y-92823809D01*
X146800000Y-92633333D01*
X146895238Y-92538095D01*
X147085714Y-92442857D01*
X147371428Y-92442857D01*
X147561904Y-92538095D01*
X147657142Y-92633333D01*
X147752380Y-92823809D01*
X147752380Y-93585714D01*
X148704761Y-91585714D02*
X146704761Y-91585714D01*
X146800000Y-88061904D02*
X146704761Y-88252380D01*
X146704761Y-88538095D01*
X146800000Y-88823809D01*
X146990476Y-89014285D01*
X147180952Y-89109523D01*
X147561904Y-89204761D01*
X147847619Y-89204761D01*
X148228571Y-89109523D01*
X148419047Y-89014285D01*
X148609523Y-88823809D01*
X148704761Y-88538095D01*
X148704761Y-88347619D01*
X148609523Y-88061904D01*
X148514285Y-87966666D01*
X147847619Y-87966666D01*
X147847619Y-88347619D01*
X148704761Y-87109523D02*
X146704761Y-87109523D01*
X146704761Y-86347619D01*
X146800000Y-86157142D01*
X146895238Y-86061904D01*
X147085714Y-85966666D01*
X147371428Y-85966666D01*
X147561904Y-86061904D01*
X147657142Y-86157142D01*
X147752380Y-86347619D01*
X147752380Y-87109523D01*
X148704761Y-85109523D02*
X146704761Y-85109523D01*
X146704761Y-83776190D02*
X146704761Y-83395238D01*
X146800000Y-83204761D01*
X146990476Y-83014285D01*
X147371428Y-82919047D01*
X148038095Y-82919047D01*
X148419047Y-83014285D01*
X148609523Y-83204761D01*
X148704761Y-83395238D01*
X148704761Y-83776190D01*
X148609523Y-83966666D01*
X148419047Y-84157142D01*
X148038095Y-84252380D01*
X147371428Y-84252380D01*
X146990476Y-84157142D01*
X146800000Y-83966666D01*
X146704761Y-83776190D01*
%TO.C,J1*%
X133416666Y-107652380D02*
X133416666Y-108366666D01*
X133369047Y-108509523D01*
X133273809Y-108604761D01*
X133130952Y-108652380D01*
X133035714Y-108652380D01*
X134416666Y-108652380D02*
X133845238Y-108652380D01*
X134130952Y-108652380D02*
X134130952Y-107652380D01*
X134035714Y-107795238D01*
X133940476Y-107890476D01*
X133845238Y-107938095D01*
%TD*%
M02*
