%TF.GenerationSoftware,KiCad,Pcbnew,(5.1.10)-1*%
%TF.CreationDate,2022-04-09T19:23:49-04:00*%
%TF.ProjectId,Pi_HAT,50695f48-4154-42e6-9b69-6361645f7063,rev?*%
%TF.SameCoordinates,Original*%
%TF.FileFunction,Legend,Top*%
%TF.FilePolarity,Positive*%
%FSLAX46Y46*%
G04 Gerber Fmt 4.6, Leading zero omitted, Abs format (unit mm)*
G04 Created by KiCad (PCBNEW (5.1.10)-1) date 2022-04-09 19:23:49*
%MOMM*%
%LPD*%
G01*
G04 APERTURE LIST*
%ADD10C,0.300000*%
%ADD11C,0.500000*%
%ADD12C,0.150000*%
%ADD13C,0.127000*%
%ADD14C,0.200000*%
%ADD15C,0.120000*%
G04 APERTURE END LIST*
D10*
X103245238Y-104071428D02*
X104197619Y-103404761D01*
X103245238Y-102928571D02*
X105245238Y-102928571D01*
X105245238Y-103690476D01*
X105150000Y-103880952D01*
X105054761Y-103976190D01*
X104864285Y-104071428D01*
X104578571Y-104071428D01*
X104388095Y-103976190D01*
X104292857Y-103880952D01*
X104197619Y-103690476D01*
X104197619Y-102928571D01*
X103245238Y-105785714D02*
X104292857Y-105785714D01*
X104483333Y-105690476D01*
X104578571Y-105500000D01*
X104578571Y-105119047D01*
X104483333Y-104928571D01*
X103340476Y-105785714D02*
X103245238Y-105595238D01*
X103245238Y-105119047D01*
X103340476Y-104928571D01*
X103530952Y-104833333D01*
X103721428Y-104833333D01*
X103911904Y-104928571D01*
X104007142Y-105119047D01*
X104007142Y-105595238D01*
X104102380Y-105785714D01*
X103340476Y-106642857D02*
X103245238Y-106833333D01*
X103245238Y-107214285D01*
X103340476Y-107404761D01*
X103530952Y-107500000D01*
X103626190Y-107500000D01*
X103816666Y-107404761D01*
X103911904Y-107214285D01*
X103911904Y-106928571D01*
X104007142Y-106738095D01*
X104197619Y-106642857D01*
X104292857Y-106642857D01*
X104483333Y-106738095D01*
X104578571Y-106928571D01*
X104578571Y-107214285D01*
X104483333Y-107404761D01*
X104578571Y-108357142D02*
X102578571Y-108357142D01*
X104483333Y-108357142D02*
X104578571Y-108547619D01*
X104578571Y-108928571D01*
X104483333Y-109119047D01*
X104388095Y-109214285D01*
X104197619Y-109309523D01*
X103626190Y-109309523D01*
X103435714Y-109214285D01*
X103340476Y-109119047D01*
X103245238Y-108928571D01*
X103245238Y-108547619D01*
X103340476Y-108357142D01*
X103245238Y-110166666D02*
X105245238Y-110166666D01*
X104483333Y-110166666D02*
X104578571Y-110357142D01*
X104578571Y-110738095D01*
X104483333Y-110928571D01*
X104388095Y-111023809D01*
X104197619Y-111119047D01*
X103626190Y-111119047D01*
X103435714Y-111023809D01*
X103340476Y-110928571D01*
X103245238Y-110738095D01*
X103245238Y-110357142D01*
X103340476Y-110166666D01*
X103340476Y-112738095D02*
X103245238Y-112547619D01*
X103245238Y-112166666D01*
X103340476Y-111976190D01*
X103530952Y-111880952D01*
X104292857Y-111880952D01*
X104483333Y-111976190D01*
X104578571Y-112166666D01*
X104578571Y-112547619D01*
X104483333Y-112738095D01*
X104292857Y-112833333D01*
X104102380Y-112833333D01*
X103911904Y-111880952D01*
X103245238Y-113690476D02*
X104578571Y-113690476D01*
X104197619Y-113690476D02*
X104388095Y-113785714D01*
X104483333Y-113880952D01*
X104578571Y-114071428D01*
X104578571Y-114261904D01*
X103245238Y-114928571D02*
X104578571Y-114928571D01*
X104197619Y-114928571D02*
X104388095Y-115023809D01*
X104483333Y-115119047D01*
X104578571Y-115309523D01*
X104578571Y-115500000D01*
X104578571Y-115976190D02*
X103245238Y-116452380D01*
X104578571Y-116928571D02*
X103245238Y-116452380D01*
X102769047Y-116261904D01*
X102673809Y-116166666D01*
X102578571Y-115976190D01*
X103245238Y-119214285D02*
X105245238Y-119214285D01*
X105245238Y-119976190D01*
X105150000Y-120166666D01*
X105054761Y-120261904D01*
X104864285Y-120357142D01*
X104578571Y-120357142D01*
X104388095Y-120261904D01*
X104292857Y-120166666D01*
X104197619Y-119976190D01*
X104197619Y-119214285D01*
X103245238Y-121214285D02*
X104578571Y-121214285D01*
X105245238Y-121214285D02*
X105150000Y-121119047D01*
X105054761Y-121214285D01*
X105150000Y-121309523D01*
X105245238Y-121214285D01*
X105054761Y-121214285D01*
X103245238Y-123690476D02*
X105245238Y-123690476D01*
X104292857Y-123690476D02*
X104292857Y-124833333D01*
X103245238Y-124833333D02*
X105245238Y-124833333D01*
X103816666Y-125690476D02*
X103816666Y-126642857D01*
X103245238Y-125500000D02*
X105245238Y-126166666D01*
X103245238Y-126833333D01*
X105245238Y-127214285D02*
X105245238Y-128357142D01*
X103245238Y-127785714D02*
X105245238Y-127785714D01*
X100992857Y-103976190D02*
X100992857Y-104642857D01*
X99945238Y-104928571D02*
X99945238Y-103976190D01*
X101945238Y-103976190D01*
X101945238Y-104928571D01*
X100516666Y-105690476D02*
X100516666Y-106642857D01*
X99945238Y-105500000D02*
X101945238Y-106166666D01*
X99945238Y-106833333D01*
X100040476Y-107404761D02*
X99945238Y-107690476D01*
X99945238Y-108166666D01*
X100040476Y-108357142D01*
X100135714Y-108452380D01*
X100326190Y-108547619D01*
X100516666Y-108547619D01*
X100707142Y-108452380D01*
X100802380Y-108357142D01*
X100897619Y-108166666D01*
X100992857Y-107785714D01*
X101088095Y-107595238D01*
X101183333Y-107500000D01*
X101373809Y-107404761D01*
X101564285Y-107404761D01*
X101754761Y-107500000D01*
X101850000Y-107595238D01*
X101945238Y-107785714D01*
X101945238Y-108261904D01*
X101850000Y-108547619D01*
X100897619Y-109785714D02*
X99945238Y-109785714D01*
X101945238Y-109119047D02*
X100897619Y-109785714D01*
X101945238Y-110452380D01*
X100135714Y-113785714D02*
X100040476Y-113690476D01*
X99945238Y-113404761D01*
X99945238Y-113214285D01*
X100040476Y-112928571D01*
X100230952Y-112738095D01*
X100421428Y-112642857D01*
X100802380Y-112547619D01*
X101088095Y-112547619D01*
X101469047Y-112642857D01*
X101659523Y-112738095D01*
X101850000Y-112928571D01*
X101945238Y-113214285D01*
X101945238Y-113404761D01*
X101850000Y-113690476D01*
X101754761Y-113785714D01*
X101945238Y-115023809D02*
X101945238Y-115404761D01*
X101850000Y-115595238D01*
X101659523Y-115785714D01*
X101278571Y-115880952D01*
X100611904Y-115880952D01*
X100230952Y-115785714D01*
X100040476Y-115595238D01*
X99945238Y-115404761D01*
X99945238Y-115023809D01*
X100040476Y-114833333D01*
X100230952Y-114642857D01*
X100611904Y-114547619D01*
X101278571Y-114547619D01*
X101659523Y-114642857D01*
X101850000Y-114833333D01*
X101945238Y-115023809D01*
X99945238Y-116738095D02*
X101945238Y-116738095D01*
X99945238Y-117880952D01*
X101945238Y-117880952D01*
X101945238Y-118547619D02*
X101945238Y-119690476D01*
X99945238Y-119119047D02*
X101945238Y-119119047D01*
X99945238Y-121500000D02*
X100897619Y-120833333D01*
X99945238Y-120357142D02*
X101945238Y-120357142D01*
X101945238Y-121119047D01*
X101850000Y-121309523D01*
X101754761Y-121404761D01*
X101564285Y-121500000D01*
X101278571Y-121500000D01*
X101088095Y-121404761D01*
X100992857Y-121309523D01*
X100897619Y-121119047D01*
X100897619Y-120357142D01*
X101945238Y-122738095D02*
X101945238Y-123119047D01*
X101850000Y-123309523D01*
X101659523Y-123500000D01*
X101278571Y-123595238D01*
X100611904Y-123595238D01*
X100230952Y-123500000D01*
X100040476Y-123309523D01*
X99945238Y-123119047D01*
X99945238Y-122738095D01*
X100040476Y-122547619D01*
X100230952Y-122357142D01*
X100611904Y-122261904D01*
X101278571Y-122261904D01*
X101659523Y-122357142D01*
X101850000Y-122547619D01*
X101945238Y-122738095D01*
X99945238Y-125404761D02*
X99945238Y-124452380D01*
X101945238Y-124452380D01*
X100040476Y-125976190D02*
X99945238Y-126261904D01*
X99945238Y-126738095D01*
X100040476Y-126928571D01*
X100135714Y-127023809D01*
X100326190Y-127119047D01*
X100516666Y-127119047D01*
X100707142Y-127023809D01*
X100802380Y-126928571D01*
X100897619Y-126738095D01*
X100992857Y-126357142D01*
X101088095Y-126166666D01*
X101183333Y-126071428D01*
X101373809Y-125976190D01*
X101564285Y-125976190D01*
X101754761Y-126071428D01*
X101850000Y-126166666D01*
X101945238Y-126357142D01*
X101945238Y-126833333D01*
X101850000Y-127119047D01*
D11*
X120404761Y-74642857D02*
X122071428Y-74642857D01*
X122785714Y-77261904D02*
X120404761Y-77261904D01*
X120404761Y-72261904D01*
X122785714Y-72261904D01*
X124928571Y-77261904D02*
X124928571Y-72261904D01*
X126833333Y-72261904D01*
X127309523Y-72500000D01*
X127547619Y-72738095D01*
X127785714Y-73214285D01*
X127785714Y-73928571D01*
X127547619Y-74404761D01*
X127309523Y-74642857D01*
X126833333Y-74880952D01*
X124928571Y-74880952D01*
X129928571Y-77261904D02*
X129928571Y-72261904D01*
X131833333Y-72261904D01*
X132309523Y-72500000D01*
X132547619Y-72738095D01*
X132785714Y-73214285D01*
X132785714Y-73928571D01*
X132547619Y-74404761D01*
X132309523Y-74642857D01*
X131833333Y-74880952D01*
X129928571Y-74880952D01*
X137309523Y-77261904D02*
X134928571Y-77261904D01*
X134928571Y-72261904D01*
D12*
X147504761Y-126323809D02*
X145504761Y-126323809D01*
X146933333Y-125657142D01*
X145504761Y-124990476D01*
X147504761Y-124990476D01*
X147504761Y-124038095D02*
X145504761Y-124038095D01*
X145504761Y-123276190D01*
X145600000Y-123085714D01*
X145695238Y-122990476D01*
X145885714Y-122895238D01*
X146171428Y-122895238D01*
X146361904Y-122990476D01*
X146457142Y-123085714D01*
X146552380Y-123276190D01*
X146552380Y-124038095D01*
X145504761Y-122038095D02*
X147123809Y-122038095D01*
X147314285Y-121942857D01*
X147409523Y-121847619D01*
X147504761Y-121657142D01*
X147504761Y-121276190D01*
X147409523Y-121085714D01*
X147314285Y-120990476D01*
X147123809Y-120895238D01*
X145504761Y-120895238D01*
X147504761Y-119847619D02*
X147504761Y-119466666D01*
X147409523Y-119276190D01*
X147314285Y-119180952D01*
X147028571Y-118990476D01*
X146647619Y-118895238D01*
X145885714Y-118895238D01*
X145695238Y-118990476D01*
X145600000Y-119085714D01*
X145504761Y-119276190D01*
X145504761Y-119657142D01*
X145600000Y-119847619D01*
X145695238Y-119942857D01*
X145885714Y-120038095D01*
X146361904Y-120038095D01*
X146552380Y-119942857D01*
X146647619Y-119847619D01*
X146742857Y-119657142D01*
X146742857Y-119276190D01*
X146647619Y-119085714D01*
X146552380Y-118990476D01*
X146361904Y-118895238D01*
X145695238Y-118133333D02*
X145600000Y-118038095D01*
X145504761Y-117847619D01*
X145504761Y-117371428D01*
X145600000Y-117180952D01*
X145695238Y-117085714D01*
X145885714Y-116990476D01*
X146076190Y-116990476D01*
X146361904Y-117085714D01*
X147504761Y-118228571D01*
X147504761Y-116990476D01*
X145504761Y-115180952D02*
X145504761Y-116133333D01*
X146457142Y-116228571D01*
X146361904Y-116133333D01*
X146266666Y-115942857D01*
X146266666Y-115466666D01*
X146361904Y-115276190D01*
X146457142Y-115180952D01*
X146647619Y-115085714D01*
X147123809Y-115085714D01*
X147314285Y-115180952D01*
X147409523Y-115276190D01*
X147504761Y-115466666D01*
X147504761Y-115942857D01*
X147409523Y-116133333D01*
X147314285Y-116228571D01*
X145504761Y-113847619D02*
X145504761Y-113657142D01*
X145600000Y-113466666D01*
X145695238Y-113371428D01*
X145885714Y-113276190D01*
X146266666Y-113180952D01*
X146742857Y-113180952D01*
X147123809Y-113276190D01*
X147314285Y-113371428D01*
X147409523Y-113466666D01*
X147504761Y-113657142D01*
X147504761Y-113847619D01*
X147409523Y-114038095D01*
X147314285Y-114133333D01*
X147123809Y-114228571D01*
X146742857Y-114323809D01*
X146266666Y-114323809D01*
X145885714Y-114228571D01*
X145695238Y-114133333D01*
X145600000Y-114038095D01*
X145504761Y-113847619D01*
D13*
%TO.C,VR3*%
X133357000Y-104070000D02*
X139458000Y-104070000D01*
X139458000Y-104070000D02*
X139458000Y-97530000D01*
X139458000Y-97530000D02*
X133357000Y-97530000D01*
D14*
X143605000Y-103100000D02*
G75*
G03*
X143605000Y-103100000I-100000J0D01*
G01*
D13*
%TO.C,VR2*%
X133357000Y-96270000D02*
X139458000Y-96270000D01*
X139458000Y-96270000D02*
X139458000Y-89730000D01*
X139458000Y-89730000D02*
X133357000Y-89730000D01*
D14*
X143605000Y-95300000D02*
G75*
G03*
X143605000Y-95300000I-100000J0D01*
G01*
D13*
%TO.C,VR1*%
X133357000Y-88470000D02*
X139458000Y-88470000D01*
X139458000Y-88470000D02*
X139458000Y-81930000D01*
X139458000Y-81930000D02*
X133357000Y-81930000D01*
D14*
X143605000Y-87500000D02*
G75*
G03*
X143605000Y-87500000I-100000J0D01*
G01*
D15*
%TO.C,J5*%
X107440000Y-78700000D02*
X117560000Y-78700000D01*
X107440000Y-72140000D02*
X117560000Y-72140000D01*
X107440000Y-82260000D02*
X117560000Y-82260000D01*
X107440000Y-72140000D02*
X107440000Y-82260000D01*
X117560000Y-72140000D02*
X117560000Y-82260000D01*
X107950000Y-73200000D02*
X108510000Y-73200000D01*
X111490000Y-73200000D02*
X112050000Y-73200000D01*
X107950000Y-78600000D02*
X112050000Y-78600000D01*
X107950000Y-73200000D02*
X107950000Y-78600000D01*
X112050000Y-73200000D02*
X112050000Y-78600000D01*
X112950000Y-73200000D02*
X114117000Y-73200000D01*
X115884000Y-73200000D02*
X117050000Y-73200000D01*
X112950000Y-78600000D02*
X117050000Y-78600000D01*
X112950000Y-73200000D02*
X112950000Y-78600000D01*
X117050000Y-73200000D02*
X117050000Y-78600000D01*
X107200000Y-80260000D02*
X107200000Y-82500000D01*
X107200000Y-82500000D02*
X109200000Y-82500000D01*
%TO.C,J4*%
X101870000Y-99950000D02*
X104530000Y-99950000D01*
X101870000Y-92270000D02*
X101870000Y-99950000D01*
X104530000Y-92270000D02*
X104530000Y-99950000D01*
X101870000Y-92270000D02*
X104530000Y-92270000D01*
X101870000Y-91000000D02*
X101870000Y-89670000D01*
X101870000Y-89670000D02*
X103200000Y-89670000D01*
%TO.C,C2*%
X148320000Y-100150000D02*
G75*
G03*
X148320000Y-100150000I-2120000J0D01*
G01*
X145360000Y-100150000D02*
X144120000Y-100150000D01*
X148280000Y-100150000D02*
X147040000Y-100150000D01*
X145360000Y-100190000D02*
X144120000Y-100190000D01*
X148280000Y-100190000D02*
X147040000Y-100190000D01*
X145360000Y-100230000D02*
X144121000Y-100230000D01*
X148279000Y-100230000D02*
X147040000Y-100230000D01*
X148277000Y-100270000D02*
X147040000Y-100270000D01*
X145360000Y-100270000D02*
X144123000Y-100270000D01*
X148274000Y-100310000D02*
X147040000Y-100310000D01*
X145360000Y-100310000D02*
X144126000Y-100310000D01*
X148271000Y-100350000D02*
X147040000Y-100350000D01*
X145360000Y-100350000D02*
X144129000Y-100350000D01*
X148267000Y-100390000D02*
X147040000Y-100390000D01*
X145360000Y-100390000D02*
X144133000Y-100390000D01*
X148262000Y-100430000D02*
X147040000Y-100430000D01*
X145360000Y-100430000D02*
X144138000Y-100430000D01*
X148256000Y-100470000D02*
X147040000Y-100470000D01*
X145360000Y-100470000D02*
X144144000Y-100470000D01*
X148250000Y-100510000D02*
X147040000Y-100510000D01*
X145360000Y-100510000D02*
X144150000Y-100510000D01*
X148242000Y-100550000D02*
X147040000Y-100550000D01*
X145360000Y-100550000D02*
X144158000Y-100550000D01*
X148234000Y-100590000D02*
X147040000Y-100590000D01*
X145360000Y-100590000D02*
X144166000Y-100590000D01*
X148225000Y-100630000D02*
X147040000Y-100630000D01*
X145360000Y-100630000D02*
X144175000Y-100630000D01*
X148216000Y-100670000D02*
X147040000Y-100670000D01*
X145360000Y-100670000D02*
X144184000Y-100670000D01*
X148205000Y-100710000D02*
X147040000Y-100710000D01*
X145360000Y-100710000D02*
X144195000Y-100710000D01*
X148194000Y-100750000D02*
X147040000Y-100750000D01*
X145360000Y-100750000D02*
X144206000Y-100750000D01*
X148182000Y-100790000D02*
X147040000Y-100790000D01*
X145360000Y-100790000D02*
X144218000Y-100790000D01*
X148168000Y-100830000D02*
X147040000Y-100830000D01*
X145360000Y-100830000D02*
X144232000Y-100830000D01*
X148154000Y-100871000D02*
X147040000Y-100871000D01*
X145360000Y-100871000D02*
X144246000Y-100871000D01*
X148140000Y-100911000D02*
X147040000Y-100911000D01*
X145360000Y-100911000D02*
X144260000Y-100911000D01*
X148124000Y-100951000D02*
X147040000Y-100951000D01*
X145360000Y-100951000D02*
X144276000Y-100951000D01*
X148107000Y-100991000D02*
X147040000Y-100991000D01*
X145360000Y-100991000D02*
X144293000Y-100991000D01*
X148089000Y-101031000D02*
X147040000Y-101031000D01*
X145360000Y-101031000D02*
X144311000Y-101031000D01*
X148070000Y-101071000D02*
X147040000Y-101071000D01*
X145360000Y-101071000D02*
X144330000Y-101071000D01*
X148051000Y-101111000D02*
X147040000Y-101111000D01*
X145360000Y-101111000D02*
X144349000Y-101111000D01*
X148030000Y-101151000D02*
X147040000Y-101151000D01*
X145360000Y-101151000D02*
X144370000Y-101151000D01*
X148008000Y-101191000D02*
X147040000Y-101191000D01*
X145360000Y-101191000D02*
X144392000Y-101191000D01*
X147985000Y-101231000D02*
X147040000Y-101231000D01*
X145360000Y-101231000D02*
X144415000Y-101231000D01*
X147960000Y-101271000D02*
X147040000Y-101271000D01*
X145360000Y-101271000D02*
X144440000Y-101271000D01*
X147935000Y-101311000D02*
X147040000Y-101311000D01*
X145360000Y-101311000D02*
X144465000Y-101311000D01*
X147908000Y-101351000D02*
X147040000Y-101351000D01*
X145360000Y-101351000D02*
X144492000Y-101351000D01*
X147880000Y-101391000D02*
X147040000Y-101391000D01*
X145360000Y-101391000D02*
X144520000Y-101391000D01*
X147850000Y-101431000D02*
X147040000Y-101431000D01*
X145360000Y-101431000D02*
X144550000Y-101431000D01*
X147819000Y-101471000D02*
X147040000Y-101471000D01*
X145360000Y-101471000D02*
X144581000Y-101471000D01*
X147787000Y-101511000D02*
X147040000Y-101511000D01*
X145360000Y-101511000D02*
X144613000Y-101511000D01*
X147752000Y-101551000D02*
X147040000Y-101551000D01*
X145360000Y-101551000D02*
X144648000Y-101551000D01*
X147716000Y-101591000D02*
X147040000Y-101591000D01*
X145360000Y-101591000D02*
X144684000Y-101591000D01*
X147678000Y-101631000D02*
X147040000Y-101631000D01*
X145360000Y-101631000D02*
X144722000Y-101631000D01*
X147638000Y-101671000D02*
X147040000Y-101671000D01*
X145360000Y-101671000D02*
X144762000Y-101671000D01*
X147596000Y-101711000D02*
X147040000Y-101711000D01*
X145360000Y-101711000D02*
X144804000Y-101711000D01*
X147551000Y-101751000D02*
X144849000Y-101751000D01*
X147504000Y-101791000D02*
X144896000Y-101791000D01*
X147454000Y-101831000D02*
X144946000Y-101831000D01*
X147400000Y-101871000D02*
X145000000Y-101871000D01*
X147342000Y-101911000D02*
X145058000Y-101911000D01*
X147280000Y-101951000D02*
X145120000Y-101951000D01*
X147213000Y-101991000D02*
X145187000Y-101991000D01*
X147140000Y-102031000D02*
X145260000Y-102031000D01*
X147059000Y-102071000D02*
X145341000Y-102071000D01*
X146968000Y-102111000D02*
X145432000Y-102111000D01*
X146864000Y-102151000D02*
X145536000Y-102151000D01*
X146737000Y-102191000D02*
X145663000Y-102191000D01*
X146570000Y-102231000D02*
X145830000Y-102231000D01*
X147395000Y-97880199D02*
X147395000Y-98280199D01*
X147595000Y-98080199D02*
X147195000Y-98080199D01*
%TO.C,C1*%
X120880000Y-81030000D02*
X128120000Y-81030000D01*
X120880000Y-83770000D02*
X128120000Y-83770000D01*
X120880000Y-81030000D02*
X120880000Y-83770000D01*
X128120000Y-81030000D02*
X128120000Y-83770000D01*
D14*
%TO.C,TB1*%
X107400000Y-93200000D02*
G75*
G03*
X107400000Y-93200000I-100000J0D01*
G01*
D13*
X108610000Y-89410000D02*
X126390000Y-89410000D01*
X126390000Y-89410000D02*
X126390000Y-132590000D01*
X126390000Y-132590000D02*
X108610000Y-132590000D01*
X108610000Y-132590000D02*
X108610000Y-89410000D01*
D15*
%TO.C,J3*%
X139590000Y-73170000D02*
X139590000Y-78370000D01*
X144730000Y-73170000D02*
X139590000Y-73170000D01*
X147330000Y-78370000D02*
X139590000Y-78370000D01*
X144730000Y-73170000D02*
X144730000Y-75770000D01*
X144730000Y-75770000D02*
X147330000Y-75770000D01*
X147330000Y-75770000D02*
X147330000Y-78370000D01*
X146000000Y-73170000D02*
X147330000Y-73170000D01*
X147330000Y-73170000D02*
X147330000Y-74500000D01*
%TO.C,J2*%
X149670000Y-128990000D02*
X154870000Y-128990000D01*
X149670000Y-80670000D02*
X149670000Y-128990000D01*
X154870000Y-78070000D02*
X154870000Y-128990000D01*
X149670000Y-80670000D02*
X152270000Y-80670000D01*
X152270000Y-80670000D02*
X152270000Y-78070000D01*
X152270000Y-78070000D02*
X154870000Y-78070000D01*
X149670000Y-79400000D02*
X149670000Y-78070000D01*
X149670000Y-78070000D02*
X151000000Y-78070000D01*
%TO.C,J1*%
X129920000Y-132490000D02*
X132580000Y-132490000D01*
X129920000Y-109570000D02*
X129920000Y-132490000D01*
X132580000Y-109570000D02*
X132580000Y-132490000D01*
X129920000Y-109570000D02*
X132580000Y-109570000D01*
X129920000Y-108300000D02*
X129920000Y-106970000D01*
X129920000Y-106970000D02*
X131250000Y-106970000D01*
%TO.C,VR3*%
D12*
X128490476Y-100652380D02*
X128823809Y-101652380D01*
X129157142Y-100652380D01*
X130061904Y-101652380D02*
X129728571Y-101176190D01*
X129490476Y-101652380D02*
X129490476Y-100652380D01*
X129871428Y-100652380D01*
X129966666Y-100700000D01*
X130014285Y-100747619D01*
X130061904Y-100842857D01*
X130061904Y-100985714D01*
X130014285Y-101080952D01*
X129966666Y-101128571D01*
X129871428Y-101176190D01*
X129490476Y-101176190D01*
X130395238Y-100652380D02*
X131014285Y-100652380D01*
X130680952Y-101033333D01*
X130823809Y-101033333D01*
X130919047Y-101080952D01*
X130966666Y-101128571D01*
X131014285Y-101223809D01*
X131014285Y-101461904D01*
X130966666Y-101557142D01*
X130919047Y-101604761D01*
X130823809Y-101652380D01*
X130538095Y-101652380D01*
X130442857Y-101604761D01*
X130395238Y-101557142D01*
%TO.C,VR2*%
X128490476Y-92452380D02*
X128823809Y-93452380D01*
X129157142Y-92452380D01*
X130061904Y-93452380D02*
X129728571Y-92976190D01*
X129490476Y-93452380D02*
X129490476Y-92452380D01*
X129871428Y-92452380D01*
X129966666Y-92500000D01*
X130014285Y-92547619D01*
X130061904Y-92642857D01*
X130061904Y-92785714D01*
X130014285Y-92880952D01*
X129966666Y-92928571D01*
X129871428Y-92976190D01*
X129490476Y-92976190D01*
X130442857Y-92547619D02*
X130490476Y-92500000D01*
X130585714Y-92452380D01*
X130823809Y-92452380D01*
X130919047Y-92500000D01*
X130966666Y-92547619D01*
X131014285Y-92642857D01*
X131014285Y-92738095D01*
X130966666Y-92880952D01*
X130395238Y-93452380D01*
X131014285Y-93452380D01*
%TO.C,VR1*%
X128490476Y-84652380D02*
X128823809Y-85652380D01*
X129157142Y-84652380D01*
X130061904Y-85652380D02*
X129728571Y-85176190D01*
X129490476Y-85652380D02*
X129490476Y-84652380D01*
X129871428Y-84652380D01*
X129966666Y-84700000D01*
X130014285Y-84747619D01*
X130061904Y-84842857D01*
X130061904Y-84985714D01*
X130014285Y-85080952D01*
X129966666Y-85128571D01*
X129871428Y-85176190D01*
X129490476Y-85176190D01*
X131014285Y-85652380D02*
X130442857Y-85652380D01*
X130728571Y-85652380D02*
X130728571Y-84652380D01*
X130633333Y-84795238D01*
X130538095Y-84890476D01*
X130442857Y-84938095D01*
%TO.C,J5*%
X105766666Y-71952380D02*
X105766666Y-72666666D01*
X105719047Y-72809523D01*
X105623809Y-72904761D01*
X105480952Y-72952380D01*
X105385714Y-72952380D01*
X106719047Y-71952380D02*
X106242857Y-71952380D01*
X106195238Y-72428571D01*
X106242857Y-72380952D01*
X106338095Y-72333333D01*
X106576190Y-72333333D01*
X106671428Y-72380952D01*
X106719047Y-72428571D01*
X106766666Y-72523809D01*
X106766666Y-72761904D01*
X106719047Y-72857142D01*
X106671428Y-72904761D01*
X106576190Y-72952380D01*
X106338095Y-72952380D01*
X106242857Y-72904761D01*
X106195238Y-72857142D01*
%TO.C,J4*%
X102866666Y-88122380D02*
X102866666Y-88836666D01*
X102819047Y-88979523D01*
X102723809Y-89074761D01*
X102580952Y-89122380D01*
X102485714Y-89122380D01*
X103771428Y-88455714D02*
X103771428Y-89122380D01*
X103533333Y-88074761D02*
X103295238Y-88789047D01*
X103914285Y-88789047D01*
%TO.C,C2*%
X145833333Y-103557142D02*
X145785714Y-103604761D01*
X145642857Y-103652380D01*
X145547619Y-103652380D01*
X145404761Y-103604761D01*
X145309523Y-103509523D01*
X145261904Y-103414285D01*
X145214285Y-103223809D01*
X145214285Y-103080952D01*
X145261904Y-102890476D01*
X145309523Y-102795238D01*
X145404761Y-102700000D01*
X145547619Y-102652380D01*
X145642857Y-102652380D01*
X145785714Y-102700000D01*
X145833333Y-102747619D01*
X146214285Y-102747619D02*
X146261904Y-102700000D01*
X146357142Y-102652380D01*
X146595238Y-102652380D01*
X146690476Y-102700000D01*
X146738095Y-102747619D01*
X146785714Y-102842857D01*
X146785714Y-102938095D01*
X146738095Y-103080952D01*
X146166666Y-103652380D01*
X146785714Y-103652380D01*
%TO.C,C1*%
X124333333Y-80257142D02*
X124285714Y-80304761D01*
X124142857Y-80352380D01*
X124047619Y-80352380D01*
X123904761Y-80304761D01*
X123809523Y-80209523D01*
X123761904Y-80114285D01*
X123714285Y-79923809D01*
X123714285Y-79780952D01*
X123761904Y-79590476D01*
X123809523Y-79495238D01*
X123904761Y-79400000D01*
X124047619Y-79352380D01*
X124142857Y-79352380D01*
X124285714Y-79400000D01*
X124333333Y-79447619D01*
X125285714Y-80352380D02*
X124714285Y-80352380D01*
X125000000Y-80352380D02*
X125000000Y-79352380D01*
X124904761Y-79495238D01*
X124809523Y-79590476D01*
X124714285Y-79638095D01*
%TO.C,H4*%
X154738095Y-135452380D02*
X154738095Y-134452380D01*
X154738095Y-134928571D02*
X155309523Y-134928571D01*
X155309523Y-135452380D02*
X155309523Y-134452380D01*
X156214285Y-134785714D02*
X156214285Y-135452380D01*
X155976190Y-134404761D02*
X155738095Y-135119047D01*
X156357142Y-135119047D01*
%TO.C,H3*%
X98738095Y-135452380D02*
X98738095Y-134452380D01*
X98738095Y-134928571D02*
X99309523Y-134928571D01*
X99309523Y-135452380D02*
X99309523Y-134452380D01*
X99690476Y-134452380D02*
X100309523Y-134452380D01*
X99976190Y-134833333D01*
X100119047Y-134833333D01*
X100214285Y-134880952D01*
X100261904Y-134928571D01*
X100309523Y-135023809D01*
X100309523Y-135261904D01*
X100261904Y-135357142D01*
X100214285Y-135404761D01*
X100119047Y-135452380D01*
X99833333Y-135452380D01*
X99738095Y-135404761D01*
X99690476Y-135357142D01*
%TO.C,H2*%
X98738095Y-72452380D02*
X98738095Y-71452380D01*
X98738095Y-71928571D02*
X99309523Y-71928571D01*
X99309523Y-72452380D02*
X99309523Y-71452380D01*
X99738095Y-71547619D02*
X99785714Y-71500000D01*
X99880952Y-71452380D01*
X100119047Y-71452380D01*
X100214285Y-71500000D01*
X100261904Y-71547619D01*
X100309523Y-71642857D01*
X100309523Y-71738095D01*
X100261904Y-71880952D01*
X99690476Y-72452380D01*
X100309523Y-72452380D01*
%TO.C,H1*%
X154738095Y-72452380D02*
X154738095Y-71452380D01*
X154738095Y-71928571D02*
X155309523Y-71928571D01*
X155309523Y-72452380D02*
X155309523Y-71452380D01*
X156309523Y-72452380D02*
X155738095Y-72452380D01*
X156023809Y-72452380D02*
X156023809Y-71452380D01*
X155928571Y-71595238D01*
X155833333Y-71690476D01*
X155738095Y-71738095D01*
%TO.C,TB1*%
X115433333Y-90433333D02*
X116233333Y-90433333D01*
X115833333Y-91833333D02*
X115833333Y-90433333D01*
X117166666Y-91100000D02*
X117366666Y-91166666D01*
X117433333Y-91233333D01*
X117500000Y-91366666D01*
X117500000Y-91566666D01*
X117433333Y-91700000D01*
X117366666Y-91766666D01*
X117233333Y-91833333D01*
X116700000Y-91833333D01*
X116700000Y-90433333D01*
X117166666Y-90433333D01*
X117300000Y-90500000D01*
X117366666Y-90566666D01*
X117433333Y-90700000D01*
X117433333Y-90833333D01*
X117366666Y-90966666D01*
X117300000Y-91033333D01*
X117166666Y-91100000D01*
X116700000Y-91100000D01*
X118833333Y-91833333D02*
X118033333Y-91833333D01*
X118433333Y-91833333D02*
X118433333Y-90433333D01*
X118300000Y-90633333D01*
X118166666Y-90766666D01*
X118033333Y-90833333D01*
X106142857Y-88333333D02*
X107095238Y-88333333D01*
X105952380Y-88904761D02*
X106619047Y-86904761D01*
X107285714Y-88904761D01*
X109095238Y-88904761D02*
X108428571Y-87952380D01*
X107952380Y-88904761D02*
X107952380Y-86904761D01*
X108714285Y-86904761D01*
X108904761Y-87000000D01*
X109000000Y-87095238D01*
X109095238Y-87285714D01*
X109095238Y-87571428D01*
X109000000Y-87761904D01*
X108904761Y-87857142D01*
X108714285Y-87952380D01*
X107952380Y-87952380D01*
X109952380Y-88904761D02*
X109952380Y-86904761D01*
X110428571Y-86904761D01*
X110714285Y-87000000D01*
X110904761Y-87190476D01*
X111000000Y-87380952D01*
X111095238Y-87761904D01*
X111095238Y-88047619D01*
X111000000Y-88428571D01*
X110904761Y-88619047D01*
X110714285Y-88809523D01*
X110428571Y-88904761D01*
X109952380Y-88904761D01*
X111952380Y-86904761D02*
X111952380Y-88523809D01*
X112047619Y-88714285D01*
X112142857Y-88809523D01*
X112333333Y-88904761D01*
X112714285Y-88904761D01*
X112904761Y-88809523D01*
X113000000Y-88714285D01*
X113095238Y-88523809D01*
X113095238Y-86904761D01*
X114047619Y-88904761D02*
X114047619Y-86904761D01*
X115000000Y-88904761D02*
X115000000Y-86904761D01*
X116142857Y-88904761D01*
X116142857Y-86904761D01*
X117476190Y-86904761D02*
X117857142Y-86904761D01*
X118047619Y-87000000D01*
X118238095Y-87190476D01*
X118333333Y-87571428D01*
X118333333Y-88238095D01*
X118238095Y-88619047D01*
X118047619Y-88809523D01*
X117857142Y-88904761D01*
X117476190Y-88904761D01*
X117285714Y-88809523D01*
X117095238Y-88619047D01*
X117000000Y-88238095D01*
X117000000Y-87571428D01*
X117095238Y-87190476D01*
X117285714Y-87000000D01*
X117476190Y-86904761D01*
X118714285Y-89095238D02*
X120238095Y-89095238D01*
X120714285Y-88904761D02*
X120714285Y-86904761D01*
X121857142Y-88904761D01*
X121857142Y-86904761D01*
X122714285Y-88333333D02*
X123666666Y-88333333D01*
X122523809Y-88904761D02*
X123190476Y-86904761D01*
X123857142Y-88904761D01*
X124523809Y-88904761D02*
X124523809Y-86904761D01*
X125666666Y-88904761D01*
X125666666Y-86904761D01*
X127000000Y-86904761D02*
X127380952Y-86904761D01*
X127571428Y-87000000D01*
X127761904Y-87190476D01*
X127857142Y-87571428D01*
X127857142Y-88238095D01*
X127761904Y-88619047D01*
X127571428Y-88809523D01*
X127380952Y-88904761D01*
X127000000Y-88904761D01*
X126809523Y-88809523D01*
X126619047Y-88619047D01*
X126523809Y-88238095D01*
X126523809Y-87571428D01*
X126619047Y-87190476D01*
X126809523Y-87000000D01*
X127000000Y-86904761D01*
%TO.C,J3*%
X145552380Y-72133333D02*
X146266666Y-72133333D01*
X146409523Y-72180952D01*
X146504761Y-72276190D01*
X146552380Y-72419047D01*
X146552380Y-72514285D01*
X145552380Y-71752380D02*
X145552380Y-71133333D01*
X145933333Y-71466666D01*
X145933333Y-71323809D01*
X145980952Y-71228571D01*
X146028571Y-71180952D01*
X146123809Y-71133333D01*
X146361904Y-71133333D01*
X146457142Y-71180952D01*
X146504761Y-71228571D01*
X146552380Y-71323809D01*
X146552380Y-71609523D01*
X146504761Y-71704761D01*
X146457142Y-71752380D01*
%TO.C,J2*%
X148066666Y-78952380D02*
X148066666Y-79666666D01*
X148019047Y-79809523D01*
X147923809Y-79904761D01*
X147780952Y-79952380D01*
X147685714Y-79952380D01*
X148495238Y-79047619D02*
X148542857Y-79000000D01*
X148638095Y-78952380D01*
X148876190Y-78952380D01*
X148971428Y-79000000D01*
X149019047Y-79047619D01*
X149066666Y-79142857D01*
X149066666Y-79238095D01*
X149019047Y-79380952D01*
X148447619Y-79952380D01*
X149066666Y-79952380D01*
X148904761Y-93785714D02*
X146904761Y-93785714D01*
X146904761Y-93023809D01*
X147000000Y-92833333D01*
X147095238Y-92738095D01*
X147285714Y-92642857D01*
X147571428Y-92642857D01*
X147761904Y-92738095D01*
X147857142Y-92833333D01*
X147952380Y-93023809D01*
X147952380Y-93785714D01*
X148904761Y-91785714D02*
X147571428Y-91785714D01*
X146904761Y-91785714D02*
X147000000Y-91880952D01*
X147095238Y-91785714D01*
X147000000Y-91690476D01*
X146904761Y-91785714D01*
X147095238Y-91785714D01*
X149095238Y-91309523D02*
X149095238Y-89785714D01*
X147000000Y-88261904D02*
X146904761Y-88452380D01*
X146904761Y-88738095D01*
X147000000Y-89023809D01*
X147190476Y-89214285D01*
X147380952Y-89309523D01*
X147761904Y-89404761D01*
X148047619Y-89404761D01*
X148428571Y-89309523D01*
X148619047Y-89214285D01*
X148809523Y-89023809D01*
X148904761Y-88738095D01*
X148904761Y-88547619D01*
X148809523Y-88261904D01*
X148714285Y-88166666D01*
X148047619Y-88166666D01*
X148047619Y-88547619D01*
X148904761Y-87309523D02*
X146904761Y-87309523D01*
X146904761Y-86547619D01*
X147000000Y-86357142D01*
X147095238Y-86261904D01*
X147285714Y-86166666D01*
X147571428Y-86166666D01*
X147761904Y-86261904D01*
X147857142Y-86357142D01*
X147952380Y-86547619D01*
X147952380Y-87309523D01*
X148904761Y-85309523D02*
X146904761Y-85309523D01*
X146904761Y-83976190D02*
X146904761Y-83595238D01*
X147000000Y-83404761D01*
X147190476Y-83214285D01*
X147571428Y-83119047D01*
X148238095Y-83119047D01*
X148619047Y-83214285D01*
X148809523Y-83404761D01*
X148904761Y-83595238D01*
X148904761Y-83976190D01*
X148809523Y-84166666D01*
X148619047Y-84357142D01*
X148238095Y-84452380D01*
X147571428Y-84452380D01*
X147190476Y-84357142D01*
X147000000Y-84166666D01*
X146904761Y-83976190D01*
%TO.C,J1*%
X133416666Y-107652380D02*
X133416666Y-108366666D01*
X133369047Y-108509523D01*
X133273809Y-108604761D01*
X133130952Y-108652380D01*
X133035714Y-108652380D01*
X134416666Y-108652380D02*
X133845238Y-108652380D01*
X134130952Y-108652380D02*
X134130952Y-107652380D01*
X134035714Y-107795238D01*
X133940476Y-107890476D01*
X133845238Y-107938095D01*
%TD*%
M02*
