%TF.GenerationSoftware,KiCad,Pcbnew,(6.0.2)*%
%TF.CreationDate,2022-04-23T23:31:31-04:00*%
%TF.ProjectId,Pi_HAT,50695f48-4154-42e6-9b69-6361645f7063,rev?*%
%TF.SameCoordinates,Original*%
%TF.FileFunction,Legend,Top*%
%TF.FilePolarity,Positive*%
%FSLAX46Y46*%
G04 Gerber Fmt 4.6, Leading zero omitted, Abs format (unit mm)*
G04 Created by KiCad (PCBNEW (6.0.2)) date 2022-04-23 23:31:31*
%MOMM*%
%LPD*%
G01*
G04 APERTURE LIST*
%ADD10C,0.150000*%
%ADD11C,0.100000*%
%ADD12C,0.250000*%
%ADD13C,0.127000*%
%ADD14C,0.200000*%
%ADD15C,0.120000*%
%ADD16C,0.010000*%
G04 APERTURE END LIST*
D10*
X141004761Y-126223809D02*
X139004761Y-126223809D01*
X140433333Y-125557142D01*
X139004761Y-124890476D01*
X141004761Y-124890476D01*
X141004761Y-123938095D02*
X139004761Y-123938095D01*
X139004761Y-123176190D01*
X139100000Y-122985714D01*
X139195238Y-122890476D01*
X139385714Y-122795238D01*
X139671428Y-122795238D01*
X139861904Y-122890476D01*
X139957142Y-122985714D01*
X140052380Y-123176190D01*
X140052380Y-123938095D01*
X139004761Y-121938095D02*
X140623809Y-121938095D01*
X140814285Y-121842857D01*
X140909523Y-121747619D01*
X141004761Y-121557142D01*
X141004761Y-121176190D01*
X140909523Y-120985714D01*
X140814285Y-120890476D01*
X140623809Y-120795238D01*
X139004761Y-120795238D01*
X141004761Y-119747619D02*
X141004761Y-119366666D01*
X140909523Y-119176190D01*
X140814285Y-119080952D01*
X140528571Y-118890476D01*
X140147619Y-118795238D01*
X139385714Y-118795238D01*
X139195238Y-118890476D01*
X139100000Y-118985714D01*
X139004761Y-119176190D01*
X139004761Y-119557142D01*
X139100000Y-119747619D01*
X139195238Y-119842857D01*
X139385714Y-119938095D01*
X139861904Y-119938095D01*
X140052380Y-119842857D01*
X140147619Y-119747619D01*
X140242857Y-119557142D01*
X140242857Y-119176190D01*
X140147619Y-118985714D01*
X140052380Y-118890476D01*
X139861904Y-118795238D01*
X139195238Y-118033333D02*
X139100000Y-117938095D01*
X139004761Y-117747619D01*
X139004761Y-117271428D01*
X139100000Y-117080952D01*
X139195238Y-116985714D01*
X139385714Y-116890476D01*
X139576190Y-116890476D01*
X139861904Y-116985714D01*
X141004761Y-118128571D01*
X141004761Y-116890476D01*
X139004761Y-115080952D02*
X139004761Y-116033333D01*
X139957142Y-116128571D01*
X139861904Y-116033333D01*
X139766666Y-115842857D01*
X139766666Y-115366666D01*
X139861904Y-115176190D01*
X139957142Y-115080952D01*
X140147619Y-114985714D01*
X140623809Y-114985714D01*
X140814285Y-115080952D01*
X140909523Y-115176190D01*
X141004761Y-115366666D01*
X141004761Y-115842857D01*
X140909523Y-116033333D01*
X140814285Y-116128571D01*
X139004761Y-113747619D02*
X139004761Y-113557142D01*
X139100000Y-113366666D01*
X139195238Y-113271428D01*
X139385714Y-113176190D01*
X139766666Y-113080952D01*
X140242857Y-113080952D01*
X140623809Y-113176190D01*
X140814285Y-113271428D01*
X140909523Y-113366666D01*
X141004761Y-113557142D01*
X141004761Y-113747619D01*
X140909523Y-113938095D01*
X140814285Y-114033333D01*
X140623809Y-114128571D01*
X140242857Y-114223809D01*
X139766666Y-114223809D01*
X139385714Y-114128571D01*
X139195238Y-114033333D01*
X139100000Y-113938095D01*
X139004761Y-113747619D01*
D11*
X145361904Y-72026190D02*
X145671428Y-72026190D01*
X145504761Y-72216666D01*
X145576190Y-72216666D01*
X145623809Y-72240476D01*
X145647619Y-72264285D01*
X145671428Y-72311904D01*
X145671428Y-72430952D01*
X145647619Y-72478571D01*
X145623809Y-72502380D01*
X145576190Y-72526190D01*
X145433333Y-72526190D01*
X145385714Y-72502380D01*
X145361904Y-72478571D01*
X145885714Y-72478571D02*
X145909523Y-72502380D01*
X145885714Y-72526190D01*
X145861904Y-72502380D01*
X145885714Y-72478571D01*
X145885714Y-72526190D01*
X146076190Y-72026190D02*
X146385714Y-72026190D01*
X146219047Y-72216666D01*
X146290476Y-72216666D01*
X146338095Y-72240476D01*
X146361904Y-72264285D01*
X146385714Y-72311904D01*
X146385714Y-72430952D01*
X146361904Y-72478571D01*
X146338095Y-72502380D01*
X146290476Y-72526190D01*
X146147619Y-72526190D01*
X146100000Y-72502380D01*
X146076190Y-72478571D01*
X146528571Y-72026190D02*
X146695238Y-72526190D01*
X146861904Y-72026190D01*
D12*
X103147023Y-109832142D02*
X104397023Y-109832142D01*
X104397023Y-110308333D01*
X104337500Y-110427380D01*
X104277976Y-110486904D01*
X104158928Y-110546428D01*
X103980357Y-110546428D01*
X103861309Y-110486904D01*
X103801785Y-110427380D01*
X103742261Y-110308333D01*
X103742261Y-109832142D01*
X103147023Y-111082142D02*
X104397023Y-111082142D01*
X103147023Y-112629761D02*
X104397023Y-112629761D01*
X103801785Y-112629761D02*
X103801785Y-113344047D01*
X103147023Y-113344047D02*
X104397023Y-113344047D01*
X103504166Y-113879761D02*
X103504166Y-114475000D01*
X103147023Y-113760714D02*
X104397023Y-114177380D01*
X103147023Y-114594047D01*
X104397023Y-114832142D02*
X104397023Y-115546428D01*
X103147023Y-115189285D02*
X104397023Y-115189285D01*
X101789285Y-105397619D02*
X101789285Y-105814285D01*
X101134523Y-105992857D02*
X101134523Y-105397619D01*
X102384523Y-105397619D01*
X102384523Y-105992857D01*
X101491666Y-106469047D02*
X101491666Y-107064285D01*
X101134523Y-106350000D02*
X102384523Y-106766666D01*
X101134523Y-107183333D01*
X101194047Y-107540476D02*
X101134523Y-107719047D01*
X101134523Y-108016666D01*
X101194047Y-108135714D01*
X101253571Y-108195238D01*
X101372619Y-108254761D01*
X101491666Y-108254761D01*
X101610714Y-108195238D01*
X101670238Y-108135714D01*
X101729761Y-108016666D01*
X101789285Y-107778571D01*
X101848809Y-107659523D01*
X101908333Y-107600000D01*
X102027380Y-107540476D01*
X102146428Y-107540476D01*
X102265476Y-107600000D01*
X102325000Y-107659523D01*
X102384523Y-107778571D01*
X102384523Y-108076190D01*
X102325000Y-108254761D01*
X101729761Y-109028571D02*
X101134523Y-109028571D01*
X102384523Y-108611904D02*
X101729761Y-109028571D01*
X102384523Y-109445238D01*
X101253571Y-111528571D02*
X101194047Y-111469047D01*
X101134523Y-111290476D01*
X101134523Y-111171428D01*
X101194047Y-110992857D01*
X101313095Y-110873809D01*
X101432142Y-110814285D01*
X101670238Y-110754761D01*
X101848809Y-110754761D01*
X102086904Y-110814285D01*
X102205952Y-110873809D01*
X102325000Y-110992857D01*
X102384523Y-111171428D01*
X102384523Y-111290476D01*
X102325000Y-111469047D01*
X102265476Y-111528571D01*
X102384523Y-112302380D02*
X102384523Y-112540476D01*
X102325000Y-112659523D01*
X102205952Y-112778571D01*
X101967857Y-112838095D01*
X101551190Y-112838095D01*
X101313095Y-112778571D01*
X101194047Y-112659523D01*
X101134523Y-112540476D01*
X101134523Y-112302380D01*
X101194047Y-112183333D01*
X101313095Y-112064285D01*
X101551190Y-112004761D01*
X101967857Y-112004761D01*
X102205952Y-112064285D01*
X102325000Y-112183333D01*
X102384523Y-112302380D01*
X101134523Y-113373809D02*
X102384523Y-113373809D01*
X101134523Y-114088095D01*
X102384523Y-114088095D01*
X102384523Y-114504761D02*
X102384523Y-115219047D01*
X101134523Y-114861904D02*
X102384523Y-114861904D01*
X101134523Y-116350000D02*
X101729761Y-115933333D01*
X101134523Y-115635714D02*
X102384523Y-115635714D01*
X102384523Y-116111904D01*
X102325000Y-116230952D01*
X102265476Y-116290476D01*
X102146428Y-116350000D01*
X101967857Y-116350000D01*
X101848809Y-116290476D01*
X101789285Y-116230952D01*
X101729761Y-116111904D01*
X101729761Y-115635714D01*
X102384523Y-117123809D02*
X102384523Y-117361904D01*
X102325000Y-117480952D01*
X102205952Y-117600000D01*
X101967857Y-117659523D01*
X101551190Y-117659523D01*
X101313095Y-117600000D01*
X101194047Y-117480952D01*
X101134523Y-117361904D01*
X101134523Y-117123809D01*
X101194047Y-117004761D01*
X101313095Y-116885714D01*
X101551190Y-116826190D01*
X101967857Y-116826190D01*
X102205952Y-116885714D01*
X102325000Y-117004761D01*
X102384523Y-117123809D01*
X101134523Y-118790476D02*
X101134523Y-118195238D01*
X102384523Y-118195238D01*
X101194047Y-119147619D02*
X101134523Y-119326190D01*
X101134523Y-119623809D01*
X101194047Y-119742857D01*
X101253571Y-119802380D01*
X101372619Y-119861904D01*
X101491666Y-119861904D01*
X101610714Y-119802380D01*
X101670238Y-119742857D01*
X101729761Y-119623809D01*
X101789285Y-119385714D01*
X101848809Y-119266666D01*
X101908333Y-119207142D01*
X102027380Y-119147619D01*
X102146428Y-119147619D01*
X102265476Y-119207142D01*
X102325000Y-119266666D01*
X102384523Y-119385714D01*
X102384523Y-119683333D01*
X102325000Y-119861904D01*
X99122023Y-100100000D02*
X100372023Y-100100000D01*
X100372023Y-100397619D01*
X100312500Y-100576190D01*
X100193452Y-100695238D01*
X100074404Y-100754761D01*
X99836309Y-100814285D01*
X99657738Y-100814285D01*
X99419642Y-100754761D01*
X99300595Y-100695238D01*
X99181547Y-100576190D01*
X99122023Y-100397619D01*
X99122023Y-100100000D01*
X99181547Y-101826190D02*
X99122023Y-101707142D01*
X99122023Y-101469047D01*
X99181547Y-101350000D01*
X99300595Y-101290476D01*
X99776785Y-101290476D01*
X99895833Y-101350000D01*
X99955357Y-101469047D01*
X99955357Y-101707142D01*
X99895833Y-101826190D01*
X99776785Y-101885714D01*
X99657738Y-101885714D01*
X99538690Y-101290476D01*
X99181547Y-102361904D02*
X99122023Y-102480952D01*
X99122023Y-102719047D01*
X99181547Y-102838095D01*
X99300595Y-102897619D01*
X99360119Y-102897619D01*
X99479166Y-102838095D01*
X99538690Y-102719047D01*
X99538690Y-102540476D01*
X99598214Y-102421428D01*
X99717261Y-102361904D01*
X99776785Y-102361904D01*
X99895833Y-102421428D01*
X99955357Y-102540476D01*
X99955357Y-102719047D01*
X99895833Y-102838095D01*
X99122023Y-103433333D02*
X99955357Y-103433333D01*
X100372023Y-103433333D02*
X100312500Y-103373809D01*
X100252976Y-103433333D01*
X100312500Y-103492857D01*
X100372023Y-103433333D01*
X100252976Y-103433333D01*
X99955357Y-104564285D02*
X98943452Y-104564285D01*
X98824404Y-104504761D01*
X98764880Y-104445238D01*
X98705357Y-104326190D01*
X98705357Y-104147619D01*
X98764880Y-104028571D01*
X99181547Y-104564285D02*
X99122023Y-104445238D01*
X99122023Y-104207142D01*
X99181547Y-104088095D01*
X99241071Y-104028571D01*
X99360119Y-103969047D01*
X99717261Y-103969047D01*
X99836309Y-104028571D01*
X99895833Y-104088095D01*
X99955357Y-104207142D01*
X99955357Y-104445238D01*
X99895833Y-104564285D01*
X99955357Y-105159523D02*
X99122023Y-105159523D01*
X99836309Y-105159523D02*
X99895833Y-105219047D01*
X99955357Y-105338095D01*
X99955357Y-105516666D01*
X99895833Y-105635714D01*
X99776785Y-105695238D01*
X99122023Y-105695238D01*
X99181547Y-106766666D02*
X99122023Y-106647619D01*
X99122023Y-106409523D01*
X99181547Y-106290476D01*
X99300595Y-106230952D01*
X99776785Y-106230952D01*
X99895833Y-106290476D01*
X99955357Y-106409523D01*
X99955357Y-106647619D01*
X99895833Y-106766666D01*
X99776785Y-106826190D01*
X99657738Y-106826190D01*
X99538690Y-106230952D01*
X99122023Y-107897619D02*
X100372023Y-107897619D01*
X99181547Y-107897619D02*
X99122023Y-107778571D01*
X99122023Y-107540476D01*
X99181547Y-107421428D01*
X99241071Y-107361904D01*
X99360119Y-107302380D01*
X99717261Y-107302380D01*
X99836309Y-107361904D01*
X99895833Y-107421428D01*
X99955357Y-107540476D01*
X99955357Y-107778571D01*
X99895833Y-107897619D01*
X99122023Y-109445238D02*
X100372023Y-109445238D01*
X99895833Y-109445238D02*
X99955357Y-109564285D01*
X99955357Y-109802380D01*
X99895833Y-109921428D01*
X99836309Y-109980952D01*
X99717261Y-110040476D01*
X99360119Y-110040476D01*
X99241071Y-109980952D01*
X99181547Y-109921428D01*
X99122023Y-109802380D01*
X99122023Y-109564285D01*
X99181547Y-109445238D01*
X99955357Y-110457142D02*
X99122023Y-110754761D01*
X99955357Y-111052380D02*
X99122023Y-110754761D01*
X98824404Y-110635714D01*
X98764880Y-110576190D01*
X98705357Y-110457142D01*
X99241071Y-111528571D02*
X99181547Y-111588095D01*
X99122023Y-111528571D01*
X99181547Y-111469047D01*
X99241071Y-111528571D01*
X99122023Y-111528571D01*
X99895833Y-111528571D02*
X99836309Y-111588095D01*
X99776785Y-111528571D01*
X99836309Y-111469047D01*
X99895833Y-111528571D01*
X99776785Y-111528571D01*
X100372023Y-113433333D02*
X99479166Y-113433333D01*
X99300595Y-113373809D01*
X99181547Y-113254761D01*
X99122023Y-113076190D01*
X99122023Y-112957142D01*
X99122023Y-114564285D02*
X99776785Y-114564285D01*
X99895833Y-114504761D01*
X99955357Y-114385714D01*
X99955357Y-114147619D01*
X99895833Y-114028571D01*
X99181547Y-114564285D02*
X99122023Y-114445238D01*
X99122023Y-114147619D01*
X99181547Y-114028571D01*
X99300595Y-113969047D01*
X99419642Y-113969047D01*
X99538690Y-114028571D01*
X99598214Y-114147619D01*
X99598214Y-114445238D01*
X99657738Y-114564285D01*
X99181547Y-115695238D02*
X99122023Y-115576190D01*
X99122023Y-115338095D01*
X99181547Y-115219047D01*
X99241071Y-115159523D01*
X99360119Y-115100000D01*
X99717261Y-115100000D01*
X99836309Y-115159523D01*
X99895833Y-115219047D01*
X99955357Y-115338095D01*
X99955357Y-115576190D01*
X99895833Y-115695238D01*
X99122023Y-116409523D02*
X99181547Y-116290476D01*
X99241071Y-116230952D01*
X99360119Y-116171428D01*
X99717261Y-116171428D01*
X99836309Y-116230952D01*
X99895833Y-116290476D01*
X99955357Y-116409523D01*
X99955357Y-116588095D01*
X99895833Y-116707142D01*
X99836309Y-116766666D01*
X99717261Y-116826190D01*
X99360119Y-116826190D01*
X99241071Y-116766666D01*
X99181547Y-116707142D01*
X99122023Y-116588095D01*
X99122023Y-116409523D01*
X99122023Y-117361904D02*
X100372023Y-117361904D01*
X99895833Y-117361904D02*
X99955357Y-117480952D01*
X99955357Y-117719047D01*
X99895833Y-117838095D01*
X99836309Y-117897619D01*
X99717261Y-117957142D01*
X99360119Y-117957142D01*
X99241071Y-117897619D01*
X99181547Y-117838095D01*
X99122023Y-117719047D01*
X99122023Y-117480952D01*
X99181547Y-117361904D01*
X99122023Y-120159523D02*
X99717261Y-119742857D01*
X99122023Y-119445238D02*
X100372023Y-119445238D01*
X100372023Y-119921428D01*
X100312500Y-120040476D01*
X100252976Y-120100000D01*
X100133928Y-120159523D01*
X99955357Y-120159523D01*
X99836309Y-120100000D01*
X99776785Y-120040476D01*
X99717261Y-119921428D01*
X99717261Y-119445238D01*
X99122023Y-120873809D02*
X99181547Y-120754761D01*
X99241071Y-120695238D01*
X99360119Y-120635714D01*
X99717261Y-120635714D01*
X99836309Y-120695238D01*
X99895833Y-120754761D01*
X99955357Y-120873809D01*
X99955357Y-121052380D01*
X99895833Y-121171428D01*
X99836309Y-121230952D01*
X99717261Y-121290476D01*
X99360119Y-121290476D01*
X99241071Y-121230952D01*
X99181547Y-121171428D01*
X99122023Y-121052380D01*
X99122023Y-120873809D01*
X99122023Y-121826190D02*
X99955357Y-121826190D01*
X99836309Y-121826190D02*
X99895833Y-121885714D01*
X99955357Y-122004761D01*
X99955357Y-122183333D01*
X99895833Y-122302380D01*
X99776785Y-122361904D01*
X99122023Y-122361904D01*
X99776785Y-122361904D02*
X99895833Y-122421428D01*
X99955357Y-122540476D01*
X99955357Y-122719047D01*
X99895833Y-122838095D01*
X99776785Y-122897619D01*
X99122023Y-122897619D01*
X99181547Y-123969047D02*
X99122023Y-123850000D01*
X99122023Y-123611904D01*
X99181547Y-123492857D01*
X99300595Y-123433333D01*
X99776785Y-123433333D01*
X99895833Y-123492857D01*
X99955357Y-123611904D01*
X99955357Y-123850000D01*
X99895833Y-123969047D01*
X99776785Y-124028571D01*
X99657738Y-124028571D01*
X99538690Y-123433333D01*
X99122023Y-124742857D02*
X99181547Y-124623809D01*
X99241071Y-124564285D01*
X99360119Y-124504761D01*
X99717261Y-124504761D01*
X99836309Y-124564285D01*
X99895833Y-124623809D01*
X99955357Y-124742857D01*
X99955357Y-124921428D01*
X99895833Y-125040476D01*
X99836309Y-125100000D01*
X99717261Y-125159523D01*
X99360119Y-125159523D01*
X99241071Y-125100000D01*
X99181547Y-125040476D01*
X99122023Y-124921428D01*
X99122023Y-124742857D01*
D11*
X101150000Y-93119047D02*
X101173809Y-93071428D01*
X101173809Y-93000000D01*
X101150000Y-92928571D01*
X101102380Y-92880952D01*
X101054761Y-92857142D01*
X100959523Y-92833333D01*
X100888095Y-92833333D01*
X100792857Y-92857142D01*
X100745238Y-92880952D01*
X100697619Y-92928571D01*
X100673809Y-93000000D01*
X100673809Y-93047619D01*
X100697619Y-93119047D01*
X100721428Y-93142857D01*
X100888095Y-93142857D01*
X100888095Y-93047619D01*
X100673809Y-93357142D02*
X101173809Y-93357142D01*
X100673809Y-93642857D01*
X101173809Y-93642857D01*
X100673809Y-93880952D02*
X101173809Y-93880952D01*
X101173809Y-94000000D01*
X101150000Y-94071428D01*
X101102380Y-94119047D01*
X101054761Y-94142857D01*
X100959523Y-94166666D01*
X100888095Y-94166666D01*
X100792857Y-94142857D01*
X100745238Y-94119047D01*
X100697619Y-94071428D01*
X100673809Y-94000000D01*
X100673809Y-93880952D01*
X100697619Y-95492857D02*
X100673809Y-95564285D01*
X100673809Y-95683333D01*
X100697619Y-95730952D01*
X100721428Y-95754761D01*
X100769047Y-95778571D01*
X100816666Y-95778571D01*
X100864285Y-95754761D01*
X100888095Y-95730952D01*
X100911904Y-95683333D01*
X100935714Y-95588095D01*
X100959523Y-95540476D01*
X100983333Y-95516666D01*
X101030952Y-95492857D01*
X101078571Y-95492857D01*
X101126190Y-95516666D01*
X101150000Y-95540476D01*
X101173809Y-95588095D01*
X101173809Y-95707142D01*
X101150000Y-95778571D01*
X100673809Y-95992857D02*
X101173809Y-95992857D01*
X101173809Y-96111904D01*
X101150000Y-96183333D01*
X101102380Y-96230952D01*
X101054761Y-96254761D01*
X100959523Y-96278571D01*
X100888095Y-96278571D01*
X100792857Y-96254761D01*
X100745238Y-96230952D01*
X100697619Y-96183333D01*
X100673809Y-96111904D01*
X100673809Y-95992857D01*
X100816666Y-96469047D02*
X100816666Y-96707142D01*
X100673809Y-96421428D02*
X101173809Y-96588095D01*
X100673809Y-96754761D01*
X100673809Y-90790476D02*
X100673809Y-90504761D01*
X100673809Y-90647619D02*
X101173809Y-90647619D01*
X101102380Y-90600000D01*
X101054761Y-90552380D01*
X101030952Y-90504761D01*
X101126190Y-90980952D02*
X101150000Y-91004761D01*
X101173809Y-91052380D01*
X101173809Y-91171428D01*
X101150000Y-91219047D01*
X101126190Y-91242857D01*
X101078571Y-91266666D01*
X101030952Y-91266666D01*
X100959523Y-91242857D01*
X100673809Y-90957142D01*
X100673809Y-91266666D01*
X101173809Y-91409523D02*
X100673809Y-91576190D01*
X101173809Y-91742857D01*
X100797619Y-98004761D02*
X100773809Y-98076190D01*
X100773809Y-98195238D01*
X100797619Y-98242857D01*
X100821428Y-98266666D01*
X100869047Y-98290476D01*
X100916666Y-98290476D01*
X100964285Y-98266666D01*
X100988095Y-98242857D01*
X101011904Y-98195238D01*
X101035714Y-98100000D01*
X101059523Y-98052380D01*
X101083333Y-98028571D01*
X101130952Y-98004761D01*
X101178571Y-98004761D01*
X101226190Y-98028571D01*
X101250000Y-98052380D01*
X101273809Y-98100000D01*
X101273809Y-98219047D01*
X101250000Y-98290476D01*
X100821428Y-98790476D02*
X100797619Y-98766666D01*
X100773809Y-98695238D01*
X100773809Y-98647619D01*
X100797619Y-98576190D01*
X100845238Y-98528571D01*
X100892857Y-98504761D01*
X100988095Y-98480952D01*
X101059523Y-98480952D01*
X101154761Y-98504761D01*
X101202380Y-98528571D01*
X101250000Y-98576190D01*
X101273809Y-98647619D01*
X101273809Y-98695238D01*
X101250000Y-98766666D01*
X101226190Y-98790476D01*
X100773809Y-99242857D02*
X100773809Y-99004761D01*
X101273809Y-99004761D01*
D10*
%TO.C,TB1*%
X115433333Y-90433333D02*
X116233333Y-90433333D01*
X115833333Y-91833333D02*
X115833333Y-90433333D01*
X117166666Y-91100000D02*
X117366666Y-91166666D01*
X117433333Y-91233333D01*
X117500000Y-91366666D01*
X117500000Y-91566666D01*
X117433333Y-91700000D01*
X117366666Y-91766666D01*
X117233333Y-91833333D01*
X116700000Y-91833333D01*
X116700000Y-90433333D01*
X117166666Y-90433333D01*
X117300000Y-90500000D01*
X117366666Y-90566666D01*
X117433333Y-90700000D01*
X117433333Y-90833333D01*
X117366666Y-90966666D01*
X117300000Y-91033333D01*
X117166666Y-91100000D01*
X116700000Y-91100000D01*
X118833333Y-91833333D02*
X118033333Y-91833333D01*
X118433333Y-91833333D02*
X118433333Y-90433333D01*
X118300000Y-90633333D01*
X118166666Y-90766666D01*
X118033333Y-90833333D01*
X122433333Y-112157142D02*
X122433333Y-111204761D01*
X123004761Y-112347619D02*
X121004761Y-111680952D01*
X123004761Y-111014285D01*
X123004761Y-109204761D02*
X122052380Y-109871428D01*
X123004761Y-110347619D02*
X121004761Y-110347619D01*
X121004761Y-109585714D01*
X121100000Y-109395238D01*
X121195238Y-109300000D01*
X121385714Y-109204761D01*
X121671428Y-109204761D01*
X121861904Y-109300000D01*
X121957142Y-109395238D01*
X122052380Y-109585714D01*
X122052380Y-110347619D01*
X123004761Y-108347619D02*
X121004761Y-108347619D01*
X121004761Y-107871428D01*
X121100000Y-107585714D01*
X121290476Y-107395238D01*
X121480952Y-107300000D01*
X121861904Y-107204761D01*
X122147619Y-107204761D01*
X122528571Y-107300000D01*
X122719047Y-107395238D01*
X122909523Y-107585714D01*
X123004761Y-107871428D01*
X123004761Y-108347619D01*
X121004761Y-106347619D02*
X122623809Y-106347619D01*
X122814285Y-106252380D01*
X122909523Y-106157142D01*
X123004761Y-105966666D01*
X123004761Y-105585714D01*
X122909523Y-105395238D01*
X122814285Y-105300000D01*
X122623809Y-105204761D01*
X121004761Y-105204761D01*
X123004761Y-104252380D02*
X121004761Y-104252380D01*
X123004761Y-103300000D02*
X121004761Y-103300000D01*
X123004761Y-102157142D01*
X121004761Y-102157142D01*
X121004761Y-100823809D02*
X121004761Y-100442857D01*
X121100000Y-100252380D01*
X121290476Y-100061904D01*
X121671428Y-99966666D01*
X122338095Y-99966666D01*
X122719047Y-100061904D01*
X122909523Y-100252380D01*
X123004761Y-100442857D01*
X123004761Y-100823809D01*
X122909523Y-101014285D01*
X122719047Y-101204761D01*
X122338095Y-101300000D01*
X121671428Y-101300000D01*
X121290476Y-101204761D01*
X121100000Y-101014285D01*
X121004761Y-100823809D01*
X123004761Y-97585714D02*
X121004761Y-97585714D01*
X123004761Y-96442857D01*
X121004761Y-96442857D01*
X122433333Y-95585714D02*
X122433333Y-94633333D01*
X123004761Y-95776190D02*
X121004761Y-95109523D01*
X123004761Y-94442857D01*
X123004761Y-93776190D02*
X121004761Y-93776190D01*
X123004761Y-92633333D01*
X121004761Y-92633333D01*
X121004761Y-91300000D02*
X121004761Y-90919047D01*
X121100000Y-90728571D01*
X121290476Y-90538095D01*
X121671428Y-90442857D01*
X122338095Y-90442857D01*
X122719047Y-90538095D01*
X122909523Y-90728571D01*
X123004761Y-90919047D01*
X123004761Y-91300000D01*
X122909523Y-91490476D01*
X122719047Y-91680952D01*
X122338095Y-91776190D01*
X121671428Y-91776190D01*
X121290476Y-91680952D01*
X121100000Y-91490476D01*
X121004761Y-91300000D01*
%TO.C,J3*%
X148266666Y-73752380D02*
X148266666Y-74466666D01*
X148219047Y-74609523D01*
X148123809Y-74704761D01*
X147980952Y-74752380D01*
X147885714Y-74752380D01*
X148647619Y-73752380D02*
X149266666Y-73752380D01*
X148933333Y-74133333D01*
X149076190Y-74133333D01*
X149171428Y-74180952D01*
X149219047Y-74228571D01*
X149266666Y-74323809D01*
X149266666Y-74561904D01*
X149219047Y-74657142D01*
X149171428Y-74704761D01*
X149076190Y-74752380D01*
X148790476Y-74752380D01*
X148695238Y-74704761D01*
X148647619Y-74657142D01*
%TO.C,H1*%
X154738095Y-72452380D02*
X154738095Y-71452380D01*
X154738095Y-71928571D02*
X155309523Y-71928571D01*
X155309523Y-72452380D02*
X155309523Y-71452380D01*
X156309523Y-72452380D02*
X155738095Y-72452380D01*
X156023809Y-72452380D02*
X156023809Y-71452380D01*
X155928571Y-71595238D01*
X155833333Y-71690476D01*
X155738095Y-71738095D01*
%TO.C,H2*%
X98738095Y-72452380D02*
X98738095Y-71452380D01*
X98738095Y-71928571D02*
X99309523Y-71928571D01*
X99309523Y-72452380D02*
X99309523Y-71452380D01*
X99738095Y-71547619D02*
X99785714Y-71500000D01*
X99880952Y-71452380D01*
X100119047Y-71452380D01*
X100214285Y-71500000D01*
X100261904Y-71547619D01*
X100309523Y-71642857D01*
X100309523Y-71738095D01*
X100261904Y-71880952D01*
X99690476Y-72452380D01*
X100309523Y-72452380D01*
%TO.C,H3*%
X98738095Y-135452380D02*
X98738095Y-134452380D01*
X98738095Y-134928571D02*
X99309523Y-134928571D01*
X99309523Y-135452380D02*
X99309523Y-134452380D01*
X99690476Y-134452380D02*
X100309523Y-134452380D01*
X99976190Y-134833333D01*
X100119047Y-134833333D01*
X100214285Y-134880952D01*
X100261904Y-134928571D01*
X100309523Y-135023809D01*
X100309523Y-135261904D01*
X100261904Y-135357142D01*
X100214285Y-135404761D01*
X100119047Y-135452380D01*
X99833333Y-135452380D01*
X99738095Y-135404761D01*
X99690476Y-135357142D01*
%TO.C,J1*%
X133416666Y-107652380D02*
X133416666Y-108366666D01*
X133369047Y-108509523D01*
X133273809Y-108604761D01*
X133130952Y-108652380D01*
X133035714Y-108652380D01*
X134416666Y-108652380D02*
X133845238Y-108652380D01*
X134130952Y-108652380D02*
X134130952Y-107652380D01*
X134035714Y-107795238D01*
X133940476Y-107890476D01*
X133845238Y-107938095D01*
%TO.C,H4*%
X154738095Y-135452380D02*
X154738095Y-134452380D01*
X154738095Y-134928571D02*
X155309523Y-134928571D01*
X155309523Y-135452380D02*
X155309523Y-134452380D01*
X156214285Y-134785714D02*
X156214285Y-135452380D01*
X155976190Y-134404761D02*
X155738095Y-135119047D01*
X156357142Y-135119047D01*
%TO.C,J2*%
X148066666Y-78952380D02*
X148066666Y-79666666D01*
X148019047Y-79809523D01*
X147923809Y-79904761D01*
X147780952Y-79952380D01*
X147685714Y-79952380D01*
X148495238Y-79047619D02*
X148542857Y-79000000D01*
X148638095Y-78952380D01*
X148876190Y-78952380D01*
X148971428Y-79000000D01*
X149019047Y-79047619D01*
X149066666Y-79142857D01*
X149066666Y-79238095D01*
X149019047Y-79380952D01*
X148447619Y-79952380D01*
X149066666Y-79952380D01*
X148904761Y-123385714D02*
X146904761Y-123385714D01*
X146904761Y-122623809D01*
X147000000Y-122433333D01*
X147095238Y-122338095D01*
X147285714Y-122242857D01*
X147571428Y-122242857D01*
X147761904Y-122338095D01*
X147857142Y-122433333D01*
X147952380Y-122623809D01*
X147952380Y-123385714D01*
X148904761Y-121385714D02*
X147571428Y-121385714D01*
X146904761Y-121385714D02*
X147000000Y-121480952D01*
X147095238Y-121385714D01*
X147000000Y-121290476D01*
X146904761Y-121385714D01*
X147095238Y-121385714D01*
X147000000Y-117861904D02*
X146904761Y-118052380D01*
X146904761Y-118338095D01*
X147000000Y-118623809D01*
X147190476Y-118814285D01*
X147380952Y-118909523D01*
X147761904Y-119004761D01*
X148047619Y-119004761D01*
X148428571Y-118909523D01*
X148619047Y-118814285D01*
X148809523Y-118623809D01*
X148904761Y-118338095D01*
X148904761Y-118147619D01*
X148809523Y-117861904D01*
X148714285Y-117766666D01*
X148047619Y-117766666D01*
X148047619Y-118147619D01*
X148904761Y-116909523D02*
X146904761Y-116909523D01*
X146904761Y-116147619D01*
X147000000Y-115957142D01*
X147095238Y-115861904D01*
X147285714Y-115766666D01*
X147571428Y-115766666D01*
X147761904Y-115861904D01*
X147857142Y-115957142D01*
X147952380Y-116147619D01*
X147952380Y-116909523D01*
X148904761Y-114909523D02*
X146904761Y-114909523D01*
X146904761Y-113576190D02*
X146904761Y-113195238D01*
X147000000Y-113004761D01*
X147190476Y-112814285D01*
X147571428Y-112719047D01*
X148238095Y-112719047D01*
X148619047Y-112814285D01*
X148809523Y-113004761D01*
X148904761Y-113195238D01*
X148904761Y-113576190D01*
X148809523Y-113766666D01*
X148619047Y-113957142D01*
X148238095Y-114052380D01*
X147571428Y-114052380D01*
X147190476Y-113957142D01*
X147000000Y-113766666D01*
X146904761Y-113576190D01*
%TO.C,C1*%
X130033333Y-82057142D02*
X129985714Y-82104761D01*
X129842857Y-82152380D01*
X129747619Y-82152380D01*
X129604761Y-82104761D01*
X129509523Y-82009523D01*
X129461904Y-81914285D01*
X129414285Y-81723809D01*
X129414285Y-81580952D01*
X129461904Y-81390476D01*
X129509523Y-81295238D01*
X129604761Y-81200000D01*
X129747619Y-81152380D01*
X129842857Y-81152380D01*
X129985714Y-81200000D01*
X130033333Y-81247619D01*
X130985714Y-82152380D02*
X130414285Y-82152380D01*
X130700000Y-82152380D02*
X130700000Y-81152380D01*
X130604761Y-81295238D01*
X130509523Y-81390476D01*
X130414285Y-81438095D01*
%TO.C,J4*%
X102866666Y-88122380D02*
X102866666Y-88836666D01*
X102819047Y-88979523D01*
X102723809Y-89074761D01*
X102580952Y-89122380D01*
X102485714Y-89122380D01*
X103771428Y-88455714D02*
X103771428Y-89122380D01*
X103533333Y-88074761D02*
X103295238Y-88789047D01*
X103914285Y-88789047D01*
%TO.C,J5*%
X117016519Y-82852139D02*
X117016519Y-83566740D01*
X116968879Y-83709660D01*
X116873599Y-83804940D01*
X116730679Y-83852580D01*
X116635399Y-83852580D01*
X117969320Y-82852139D02*
X117492920Y-82852139D01*
X117445280Y-83328539D01*
X117492920Y-83280899D01*
X117588200Y-83233259D01*
X117826400Y-83233259D01*
X117921680Y-83280899D01*
X117969320Y-83328539D01*
X118016960Y-83423820D01*
X118016960Y-83662020D01*
X117969320Y-83757300D01*
X117921680Y-83804940D01*
X117826400Y-83852580D01*
X117588200Y-83852580D01*
X117492920Y-83804940D01*
X117445280Y-83757300D01*
%TO.C,H5*%
X145838095Y-107952380D02*
X145838095Y-106952380D01*
X145838095Y-107428571D02*
X146409523Y-107428571D01*
X146409523Y-107952380D02*
X146409523Y-106952380D01*
X147361904Y-106952380D02*
X146885714Y-106952380D01*
X146838095Y-107428571D01*
X146885714Y-107380952D01*
X146980952Y-107333333D01*
X147219047Y-107333333D01*
X147314285Y-107380952D01*
X147361904Y-107428571D01*
X147409523Y-107523809D01*
X147409523Y-107761904D01*
X147361904Y-107857142D01*
X147314285Y-107904761D01*
X147219047Y-107952380D01*
X146980952Y-107952380D01*
X146885714Y-107904761D01*
X146838095Y-107857142D01*
%TO.C,H6*%
X145738095Y-132652380D02*
X145738095Y-131652380D01*
X145738095Y-132128571D02*
X146309523Y-132128571D01*
X146309523Y-132652380D02*
X146309523Y-131652380D01*
X147214285Y-131652380D02*
X147023809Y-131652380D01*
X146928571Y-131700000D01*
X146880952Y-131747619D01*
X146785714Y-131890476D01*
X146738095Y-132080952D01*
X146738095Y-132461904D01*
X146785714Y-132557142D01*
X146833333Y-132604761D01*
X146928571Y-132652380D01*
X147119047Y-132652380D01*
X147214285Y-132604761D01*
X147261904Y-132557142D01*
X147309523Y-132461904D01*
X147309523Y-132223809D01*
X147261904Y-132128571D01*
X147214285Y-132080952D01*
X147119047Y-132033333D01*
X146928571Y-132033333D01*
X146833333Y-132080952D01*
X146785714Y-132128571D01*
X146738095Y-132223809D01*
%TO.C,C2*%
X106757142Y-124466666D02*
X106804761Y-124514285D01*
X106852380Y-124657142D01*
X106852380Y-124752380D01*
X106804761Y-124895238D01*
X106709523Y-124990476D01*
X106614285Y-125038095D01*
X106423809Y-125085714D01*
X106280952Y-125085714D01*
X106090476Y-125038095D01*
X105995238Y-124990476D01*
X105900000Y-124895238D01*
X105852380Y-124752380D01*
X105852380Y-124657142D01*
X105900000Y-124514285D01*
X105947619Y-124466666D01*
X105947619Y-124085714D02*
X105900000Y-124038095D01*
X105852380Y-123942857D01*
X105852380Y-123704761D01*
X105900000Y-123609523D01*
X105947619Y-123561904D01*
X106042857Y-123514285D01*
X106138095Y-123514285D01*
X106280952Y-123561904D01*
X106852380Y-124133333D01*
X106852380Y-123514285D01*
D13*
%TO.C,TB1*%
X126390000Y-132590000D02*
X108610000Y-132590000D01*
X108610000Y-132590000D02*
X108610000Y-89410000D01*
X108610000Y-89410000D02*
X126390000Y-89410000D01*
X126390000Y-89410000D02*
X126390000Y-132590000D01*
D14*
X107400000Y-93200000D02*
G75*
G03*
X107400000Y-93200000I-100000J0D01*
G01*
D15*
%TO.C,J3*%
X147330000Y-78370000D02*
X139590000Y-78370000D01*
X146000000Y-73170000D02*
X147330000Y-73170000D01*
X144730000Y-75770000D02*
X147330000Y-75770000D01*
X144730000Y-73170000D02*
X144730000Y-75770000D01*
X147330000Y-73170000D02*
X147330000Y-74500000D01*
X147330000Y-75770000D02*
X147330000Y-78370000D01*
X139590000Y-73170000D02*
X139590000Y-78370000D01*
X144730000Y-73170000D02*
X139590000Y-73170000D01*
%TO.C,J1*%
X129920000Y-106970000D02*
X131250000Y-106970000D01*
X129920000Y-108300000D02*
X129920000Y-106970000D01*
X129920000Y-132490000D02*
X132580000Y-132490000D01*
X129920000Y-109570000D02*
X132580000Y-109570000D01*
X132580000Y-109570000D02*
X132580000Y-132490000D01*
X129920000Y-109570000D02*
X129920000Y-132490000D01*
%TO.C,J2*%
X149670000Y-78070000D02*
X151000000Y-78070000D01*
X152270000Y-80670000D02*
X152270000Y-78070000D01*
X154870000Y-78070000D02*
X154870000Y-128990000D01*
X152270000Y-78070000D02*
X154870000Y-78070000D01*
X149670000Y-80670000D02*
X149670000Y-128990000D01*
X149670000Y-80670000D02*
X152270000Y-80670000D01*
X149670000Y-79400000D02*
X149670000Y-78070000D01*
X149670000Y-128990000D02*
X154870000Y-128990000D01*
%TO.C,C1*%
X128080000Y-78030000D02*
X135320000Y-78030000D01*
X128080000Y-78030000D02*
X128080000Y-80770000D01*
X135320000Y-78030000D02*
X135320000Y-80770000D01*
X128080000Y-80770000D02*
X135320000Y-80770000D01*
%TO.C,J4*%
X101870000Y-89670000D02*
X103200000Y-89670000D01*
X101870000Y-92270000D02*
X104530000Y-92270000D01*
X101870000Y-92270000D02*
X101870000Y-99950000D01*
X101870000Y-91000000D02*
X101870000Y-89670000D01*
X101870000Y-99950000D02*
X104530000Y-99950000D01*
X104530000Y-92270000D02*
X104530000Y-99950000D01*
D13*
%TO.C,J5*%
X121410000Y-87625750D02*
X121410000Y-88895750D01*
X109850000Y-67115750D02*
X109850000Y-85315750D01*
X116178000Y-85315750D02*
X119022000Y-85315750D01*
X125350000Y-85315750D02*
X125350000Y-67115750D01*
X109850000Y-85315750D02*
X111822000Y-85315750D01*
X125350000Y-85315750D02*
X123378000Y-85315750D01*
X121410000Y-87625750D02*
X121410000Y-86355750D01*
X125350000Y-67115750D02*
X109850000Y-67115750D01*
X120140000Y-87625750D02*
X121410000Y-87625750D01*
X122680000Y-87625750D02*
X121410000Y-87625750D01*
D15*
%TO.C,C2*%
X101138000Y-123770000D02*
X102360000Y-123770000D01*
X102830000Y-121969000D02*
X103570000Y-121969000D01*
X104040000Y-123530000D02*
X105216000Y-123530000D01*
X101805000Y-126119801D02*
X102205000Y-126119801D01*
X104040000Y-122689000D02*
X104787000Y-122689000D01*
X101946000Y-122369000D02*
X104454000Y-122369000D01*
X101684000Y-122609000D02*
X102360000Y-122609000D01*
X101392000Y-123009000D02*
X102360000Y-123009000D01*
X104040000Y-122569000D02*
X104678000Y-122569000D01*
X104040000Y-123890000D02*
X105274000Y-123890000D01*
X102000000Y-122329000D02*
X104400000Y-122329000D01*
X104040000Y-123169000D02*
X105089000Y-123169000D01*
X104040000Y-123329000D02*
X105154000Y-123329000D01*
X101896000Y-122409000D02*
X104504000Y-122409000D01*
X102341000Y-122129000D02*
X104059000Y-122129000D01*
X101492000Y-122849000D02*
X102360000Y-122849000D01*
X101206000Y-123450000D02*
X102360000Y-123450000D01*
X101648000Y-122649000D02*
X102360000Y-122649000D01*
X101260000Y-123289000D02*
X102360000Y-123289000D01*
X102663000Y-122009000D02*
X103737000Y-122009000D01*
X104040000Y-123770000D02*
X105262000Y-123770000D01*
X104040000Y-123049000D02*
X105030000Y-123049000D01*
X102432000Y-122089000D02*
X103968000Y-122089000D01*
X101330000Y-123129000D02*
X102360000Y-123129000D01*
X104040000Y-123209000D02*
X105107000Y-123209000D01*
X101465000Y-122889000D02*
X102360000Y-122889000D01*
X101166000Y-123610000D02*
X102360000Y-123610000D01*
X101520000Y-122809000D02*
X102360000Y-122809000D01*
X101349000Y-123089000D02*
X102360000Y-123089000D01*
X101246000Y-123329000D02*
X102360000Y-123329000D01*
X104040000Y-122929000D02*
X104960000Y-122929000D01*
X101550000Y-122769000D02*
X102360000Y-122769000D01*
X104040000Y-123730000D02*
X105256000Y-123730000D01*
X101581000Y-122729000D02*
X102360000Y-122729000D01*
X104040000Y-122889000D02*
X104935000Y-122889000D01*
X101120000Y-124010000D02*
X102360000Y-124010000D01*
X104040000Y-122609000D02*
X104716000Y-122609000D01*
X101195000Y-123490000D02*
X102360000Y-123490000D01*
X101184000Y-123530000D02*
X102360000Y-123530000D01*
X102120000Y-122249000D02*
X104280000Y-122249000D01*
X101311000Y-123169000D02*
X102360000Y-123169000D01*
X104040000Y-123370000D02*
X105168000Y-123370000D01*
X101126000Y-123890000D02*
X102360000Y-123890000D01*
X101370000Y-123049000D02*
X102360000Y-123049000D01*
X102005000Y-126319801D02*
X102005000Y-125919801D01*
X104040000Y-123410000D02*
X105182000Y-123410000D01*
X101150000Y-123690000D02*
X102360000Y-123690000D01*
X102260000Y-122169000D02*
X104140000Y-122169000D01*
X104040000Y-122529000D02*
X104638000Y-122529000D01*
X104040000Y-123930000D02*
X105277000Y-123930000D01*
X104040000Y-123089000D02*
X105051000Y-123089000D01*
X101762000Y-122529000D02*
X102360000Y-122529000D01*
X101175000Y-123570000D02*
X102360000Y-123570000D01*
X101120000Y-124050000D02*
X102360000Y-124050000D01*
X104040000Y-123009000D02*
X105008000Y-123009000D01*
X101218000Y-123410000D02*
X102360000Y-123410000D01*
X104040000Y-124050000D02*
X105280000Y-124050000D01*
X104040000Y-123450000D02*
X105194000Y-123450000D01*
X104040000Y-124010000D02*
X105280000Y-124010000D01*
X102536000Y-122049000D02*
X103864000Y-122049000D01*
X102058000Y-122289000D02*
X104342000Y-122289000D01*
X101804000Y-122489000D02*
X102360000Y-122489000D01*
X104040000Y-123490000D02*
X105205000Y-123490000D01*
X101133000Y-123810000D02*
X102360000Y-123810000D01*
X104040000Y-123850000D02*
X105271000Y-123850000D01*
X104040000Y-123610000D02*
X105234000Y-123610000D01*
X101121000Y-123970000D02*
X102360000Y-123970000D01*
X104040000Y-123810000D02*
X105267000Y-123810000D01*
X104040000Y-123650000D02*
X105242000Y-123650000D01*
X101129000Y-123850000D02*
X102360000Y-123850000D01*
X104040000Y-122769000D02*
X104850000Y-122769000D01*
X104040000Y-123690000D02*
X105250000Y-123690000D01*
X104040000Y-123970000D02*
X105279000Y-123970000D01*
X101849000Y-122449000D02*
X104551000Y-122449000D01*
X101293000Y-123209000D02*
X102360000Y-123209000D01*
X104040000Y-122969000D02*
X104985000Y-122969000D01*
X101144000Y-123730000D02*
X102360000Y-123730000D01*
X104040000Y-122489000D02*
X104596000Y-122489000D01*
X104040000Y-122809000D02*
X104880000Y-122809000D01*
X104040000Y-122849000D02*
X104908000Y-122849000D01*
X101613000Y-122689000D02*
X102360000Y-122689000D01*
X101232000Y-123370000D02*
X102360000Y-123370000D01*
X101722000Y-122569000D02*
X102360000Y-122569000D01*
X104040000Y-123249000D02*
X105124000Y-123249000D01*
X101123000Y-123930000D02*
X102360000Y-123930000D01*
X101440000Y-122929000D02*
X102360000Y-122929000D01*
X101415000Y-122969000D02*
X102360000Y-122969000D01*
X101276000Y-123249000D02*
X102360000Y-123249000D01*
X104040000Y-122649000D02*
X104752000Y-122649000D01*
X104040000Y-123289000D02*
X105140000Y-123289000D01*
X104040000Y-122729000D02*
X104819000Y-122729000D01*
X104040000Y-123129000D02*
X105070000Y-123129000D01*
X102187000Y-122209000D02*
X104213000Y-122209000D01*
X104040000Y-123570000D02*
X105225000Y-123570000D01*
X101158000Y-123650000D02*
X102360000Y-123650000D01*
X105320000Y-124050000D02*
G75*
G03*
X105320000Y-124050000I-2120000J0D01*
G01*
D16*
%TO.C,G\u002A\u002A\u002A*%
X141677287Y-83232301D02*
X141801596Y-83165044D01*
X141801596Y-83165044D02*
X141947492Y-83168468D01*
X141947492Y-83168468D02*
X142136732Y-83251404D01*
X142136732Y-83251404D02*
X142391078Y-83422678D01*
X142391078Y-83422678D02*
X142732287Y-83691118D01*
X142732287Y-83691118D02*
X143082985Y-83982239D01*
X143082985Y-83982239D02*
X144082788Y-84821173D01*
X144082788Y-84821173D02*
X143991607Y-85113495D01*
X143991607Y-85113495D02*
X143885619Y-85434242D01*
X143885619Y-85434242D02*
X143803812Y-85619677D01*
X143803812Y-85619677D02*
X143728040Y-85698451D01*
X143728040Y-85698451D02*
X143640158Y-85699213D01*
X143640158Y-85699213D02*
X143623886Y-85694052D01*
X143623886Y-85694052D02*
X143513922Y-85625213D01*
X143513922Y-85625213D02*
X143300817Y-85466367D01*
X143300817Y-85466367D02*
X143010183Y-85237502D01*
X143010183Y-85237502D02*
X142667623Y-84958603D01*
X142667623Y-84958603D02*
X142457907Y-84784031D01*
X142457907Y-84784031D02*
X142030990Y-84420916D01*
X142030990Y-84420916D02*
X141724590Y-84143066D01*
X141724590Y-84143066D02*
X141526252Y-83930906D01*
X141526252Y-83930906D02*
X141423525Y-83764861D01*
X141423525Y-83764861D02*
X141403950Y-83625352D01*
X141403950Y-83625352D02*
X141455074Y-83492804D01*
X141455074Y-83492804D02*
X141552806Y-83361413D01*
X141552806Y-83361413D02*
X141677287Y-83232301D01*
X141677287Y-83232301D02*
X141677287Y-83232301D01*
G36*
X141947492Y-83168468D02*
G01*
X142136732Y-83251404D01*
X142391078Y-83422678D01*
X142732287Y-83691118D01*
X143082985Y-83982239D01*
X144082788Y-84821173D01*
X143991607Y-85113495D01*
X143885619Y-85434242D01*
X143803812Y-85619677D01*
X143728040Y-85698451D01*
X143640158Y-85699213D01*
X143623886Y-85694052D01*
X143513922Y-85625213D01*
X143300817Y-85466367D01*
X143010183Y-85237502D01*
X142667623Y-84958603D01*
X142457907Y-84784031D01*
X142030990Y-84420916D01*
X141724590Y-84143066D01*
X141526252Y-83930906D01*
X141423525Y-83764861D01*
X141403950Y-83625352D01*
X141455074Y-83492804D01*
X141552806Y-83361413D01*
X141677287Y-83232301D01*
X141801596Y-83165044D01*
X141947492Y-83168468D01*
G37*
X141947492Y-83168468D02*
X142136732Y-83251404D01*
X142391078Y-83422678D01*
X142732287Y-83691118D01*
X143082985Y-83982239D01*
X144082788Y-84821173D01*
X143991607Y-85113495D01*
X143885619Y-85434242D01*
X143803812Y-85619677D01*
X143728040Y-85698451D01*
X143640158Y-85699213D01*
X143623886Y-85694052D01*
X143513922Y-85625213D01*
X143300817Y-85466367D01*
X143010183Y-85237502D01*
X142667623Y-84958603D01*
X142457907Y-84784031D01*
X142030990Y-84420916D01*
X141724590Y-84143066D01*
X141526252Y-83930906D01*
X141423525Y-83764861D01*
X141403950Y-83625352D01*
X141455074Y-83492804D01*
X141552806Y-83361413D01*
X141677287Y-83232301D01*
X141801596Y-83165044D01*
X141947492Y-83168468D01*
X143905836Y-87462505D02*
X143954596Y-87480339D01*
X143954596Y-87480339D02*
X143952246Y-87483958D01*
X143952246Y-87483958D02*
X143902110Y-87576317D01*
X143902110Y-87576317D02*
X143792989Y-87794958D01*
X143792989Y-87794958D02*
X143637840Y-88112871D01*
X143637840Y-88112871D02*
X143449621Y-88503047D01*
X143449621Y-88503047D02*
X143241289Y-88938478D01*
X143241289Y-88938478D02*
X143025803Y-89392153D01*
X143025803Y-89392153D02*
X142816120Y-89837065D01*
X142816120Y-89837065D02*
X142625198Y-90246204D01*
X142625198Y-90246204D02*
X142575490Y-90353657D01*
X142575490Y-90353657D02*
X141992373Y-91567625D01*
X141992373Y-91567625D02*
X141337224Y-92844285D01*
X141337224Y-92844285D02*
X140629801Y-94149348D01*
X140629801Y-94149348D02*
X139889865Y-95448528D01*
X139889865Y-95448528D02*
X139137174Y-96707536D01*
X139137174Y-96707536D02*
X138391488Y-97892085D01*
X138391488Y-97892085D02*
X137672566Y-98967888D01*
X137672566Y-98967888D02*
X137337717Y-99442629D01*
X137337717Y-99442629D02*
X136644501Y-100363023D01*
X136644501Y-100363023D02*
X135928608Y-101234414D01*
X135928608Y-101234414D02*
X135224665Y-102015747D01*
X135224665Y-102015747D02*
X134826874Y-102419909D01*
X134826874Y-102419909D02*
X134179466Y-102999836D01*
X134179466Y-102999836D02*
X133509811Y-103503070D01*
X133509811Y-103503070D02*
X132844064Y-103913961D01*
X132844064Y-103913961D02*
X132208381Y-104216858D01*
X132208381Y-104216858D02*
X131628915Y-104396111D01*
X131628915Y-104396111D02*
X131481127Y-104421898D01*
X131481127Y-104421898D02*
X131247012Y-104434527D01*
X131247012Y-104434527D02*
X130973579Y-104421430D01*
X130973579Y-104421430D02*
X130713415Y-104389077D01*
X130713415Y-104389077D02*
X130519102Y-104343940D01*
X130519102Y-104343940D02*
X130443284Y-104294173D01*
X130443284Y-104294173D02*
X130513665Y-104270140D01*
X130513665Y-104270140D02*
X130696064Y-104280342D01*
X130696064Y-104280342D02*
X130776501Y-104292080D01*
X130776501Y-104292080D02*
X131064406Y-104304511D01*
X131064406Y-104304511D02*
X131405602Y-104271366D01*
X131405602Y-104271366D02*
X131555822Y-104241529D01*
X131555822Y-104241529D02*
X132114701Y-104065249D01*
X132114701Y-104065249D02*
X132664010Y-103803999D01*
X132664010Y-103803999D02*
X133221410Y-103444910D01*
X133221410Y-103444910D02*
X133804563Y-102975105D01*
X133804563Y-102975105D02*
X134431132Y-102381715D01*
X134431132Y-102381715D02*
X135118776Y-101651865D01*
X135118776Y-101651865D02*
X135137769Y-101630797D01*
X135137769Y-101630797D02*
X135708322Y-100975814D01*
X135708322Y-100975814D02*
X136274896Y-100280219D01*
X136274896Y-100280219D02*
X136843877Y-99533740D01*
X136843877Y-99533740D02*
X137421655Y-98726104D01*
X137421655Y-98726104D02*
X138014617Y-97847039D01*
X138014617Y-97847039D02*
X138629151Y-96886272D01*
X138629151Y-96886272D02*
X139271644Y-95833529D01*
X139271644Y-95833529D02*
X139948485Y-94678541D01*
X139948485Y-94678541D02*
X140666060Y-93411031D01*
X140666060Y-93411031D02*
X141430760Y-92020729D01*
X141430760Y-92020729D02*
X142248970Y-90497360D01*
X142248970Y-90497360D02*
X143127081Y-88830654D01*
X143127081Y-88830654D02*
X143282496Y-88532856D01*
X143282496Y-88532856D02*
X143485933Y-88150937D01*
X143485933Y-88150937D02*
X143665803Y-87828886D01*
X143665803Y-87828886D02*
X143806311Y-87593829D01*
X143806311Y-87593829D02*
X143891660Y-87472886D01*
X143891660Y-87472886D02*
X143905836Y-87462505D01*
X143905836Y-87462505D02*
X143905836Y-87462505D01*
G36*
X143954596Y-87480339D02*
G01*
X143952246Y-87483958D01*
X143902110Y-87576317D01*
X143792989Y-87794958D01*
X143637840Y-88112871D01*
X143449621Y-88503047D01*
X143241289Y-88938478D01*
X143025803Y-89392153D01*
X142816120Y-89837065D01*
X142625198Y-90246204D01*
X142575490Y-90353657D01*
X141992373Y-91567625D01*
X141337224Y-92844285D01*
X140629801Y-94149348D01*
X139889865Y-95448528D01*
X139137174Y-96707536D01*
X138391488Y-97892085D01*
X137672566Y-98967888D01*
X137337717Y-99442629D01*
X136644501Y-100363023D01*
X135928608Y-101234414D01*
X135224665Y-102015747D01*
X134826874Y-102419909D01*
X134179466Y-102999836D01*
X133509811Y-103503070D01*
X132844064Y-103913961D01*
X132208381Y-104216858D01*
X131628915Y-104396111D01*
X131481127Y-104421898D01*
X131247012Y-104434527D01*
X130973579Y-104421430D01*
X130713415Y-104389077D01*
X130519102Y-104343940D01*
X130443284Y-104294173D01*
X130513665Y-104270140D01*
X130696064Y-104280342D01*
X130776501Y-104292080D01*
X131064406Y-104304511D01*
X131405602Y-104271366D01*
X131555822Y-104241529D01*
X132114701Y-104065249D01*
X132664010Y-103803999D01*
X133221410Y-103444910D01*
X133804563Y-102975105D01*
X134431132Y-102381715D01*
X135118776Y-101651865D01*
X135137769Y-101630797D01*
X135708322Y-100975814D01*
X136274896Y-100280219D01*
X136843877Y-99533740D01*
X137421655Y-98726104D01*
X138014617Y-97847039D01*
X138629151Y-96886272D01*
X139271644Y-95833529D01*
X139948485Y-94678541D01*
X140666060Y-93411031D01*
X141430760Y-92020729D01*
X142248970Y-90497360D01*
X143127081Y-88830654D01*
X143282496Y-88532856D01*
X143485933Y-88150937D01*
X143665803Y-87828886D01*
X143806311Y-87593829D01*
X143891660Y-87472886D01*
X143905836Y-87462505D01*
X143954596Y-87480339D01*
G37*
X143954596Y-87480339D02*
X143952246Y-87483958D01*
X143902110Y-87576317D01*
X143792989Y-87794958D01*
X143637840Y-88112871D01*
X143449621Y-88503047D01*
X143241289Y-88938478D01*
X143025803Y-89392153D01*
X142816120Y-89837065D01*
X142625198Y-90246204D01*
X142575490Y-90353657D01*
X141992373Y-91567625D01*
X141337224Y-92844285D01*
X140629801Y-94149348D01*
X139889865Y-95448528D01*
X139137174Y-96707536D01*
X138391488Y-97892085D01*
X137672566Y-98967888D01*
X137337717Y-99442629D01*
X136644501Y-100363023D01*
X135928608Y-101234414D01*
X135224665Y-102015747D01*
X134826874Y-102419909D01*
X134179466Y-102999836D01*
X133509811Y-103503070D01*
X132844064Y-103913961D01*
X132208381Y-104216858D01*
X131628915Y-104396111D01*
X131481127Y-104421898D01*
X131247012Y-104434527D01*
X130973579Y-104421430D01*
X130713415Y-104389077D01*
X130519102Y-104343940D01*
X130443284Y-104294173D01*
X130513665Y-104270140D01*
X130696064Y-104280342D01*
X130776501Y-104292080D01*
X131064406Y-104304511D01*
X131405602Y-104271366D01*
X131555822Y-104241529D01*
X132114701Y-104065249D01*
X132664010Y-103803999D01*
X133221410Y-103444910D01*
X133804563Y-102975105D01*
X134431132Y-102381715D01*
X135118776Y-101651865D01*
X135137769Y-101630797D01*
X135708322Y-100975814D01*
X136274896Y-100280219D01*
X136843877Y-99533740D01*
X137421655Y-98726104D01*
X138014617Y-97847039D01*
X138629151Y-96886272D01*
X139271644Y-95833529D01*
X139948485Y-94678541D01*
X140666060Y-93411031D01*
X141430760Y-92020729D01*
X142248970Y-90497360D01*
X143127081Y-88830654D01*
X143282496Y-88532856D01*
X143485933Y-88150937D01*
X143665803Y-87828886D01*
X143806311Y-87593829D01*
X143891660Y-87472886D01*
X143905836Y-87462505D01*
X143954596Y-87480339D01*
X145791043Y-82591069D02*
X145849296Y-82661989D01*
X145849296Y-82661989D02*
X145849584Y-82663539D01*
X145849584Y-82663539D02*
X145847854Y-82839230D01*
X145847854Y-82839230D02*
X145810082Y-83107229D01*
X145810082Y-83107229D02*
X145769605Y-83300740D01*
X145769605Y-83300740D02*
X145707536Y-83590219D01*
X145707536Y-83590219D02*
X145667357Y-83832918D01*
X145667357Y-83832918D02*
X145658838Y-83933146D01*
X145658838Y-83933146D02*
X145629834Y-84120022D01*
X145629834Y-84120022D02*
X145558010Y-84367088D01*
X145558010Y-84367088D02*
X145541159Y-84413732D01*
X145541159Y-84413732D02*
X145484763Y-84701622D01*
X145484763Y-84701622D02*
X145489157Y-85037874D01*
X145489157Y-85037874D02*
X145504808Y-85139935D01*
X145504808Y-85139935D02*
X145545839Y-85421047D01*
X145545839Y-85421047D02*
X145531585Y-85656250D01*
X145531585Y-85656250D02*
X145451689Y-85920331D01*
X145451689Y-85920331D02*
X145368938Y-86121431D01*
X145368938Y-86121431D02*
X145316388Y-86227136D01*
X145316388Y-86227136D02*
X145283050Y-86221780D01*
X145283050Y-86221780D02*
X145255974Y-86084011D01*
X145255974Y-86084011D02*
X145233989Y-85898947D01*
X145233989Y-85898947D02*
X145192415Y-85640666D01*
X145192415Y-85640666D02*
X145134684Y-85523643D01*
X145134684Y-85523643D02*
X145060275Y-85515297D01*
X145060275Y-85515297D02*
X144905708Y-85498565D01*
X144905708Y-85498565D02*
X144739555Y-85409317D01*
X144739555Y-85409317D02*
X144540369Y-85299491D01*
X144540369Y-85299491D02*
X144369604Y-85325235D01*
X144369604Y-85325235D02*
X144176802Y-85494785D01*
X144176802Y-85494785D02*
X144170057Y-85502285D01*
X144170057Y-85502285D02*
X144000505Y-85691587D01*
X144000505Y-85691587D02*
X144092020Y-85382195D01*
X144092020Y-85382195D02*
X144288553Y-85005678D01*
X144288553Y-85005678D02*
X144452996Y-84828510D01*
X144452996Y-84828510D02*
X144619379Y-84643919D01*
X144619379Y-84643919D02*
X144774366Y-84389478D01*
X144774366Y-84389478D02*
X144940376Y-84025832D01*
X144940376Y-84025832D02*
X145013340Y-83844920D01*
X145013340Y-83844920D02*
X145185003Y-83448539D01*
X145185003Y-83448539D02*
X145363225Y-83104309D01*
X145363225Y-83104309D02*
X145533386Y-82832884D01*
X145533386Y-82832884D02*
X145680865Y-82654919D01*
X145680865Y-82654919D02*
X145791043Y-82591069D01*
X145791043Y-82591069D02*
X145791043Y-82591069D01*
G36*
X145849296Y-82661989D02*
G01*
X145849584Y-82663539D01*
X145847854Y-82839230D01*
X145810082Y-83107229D01*
X145769605Y-83300740D01*
X145707536Y-83590219D01*
X145667357Y-83832918D01*
X145658838Y-83933146D01*
X145629834Y-84120022D01*
X145558010Y-84367088D01*
X145541159Y-84413732D01*
X145484763Y-84701622D01*
X145489157Y-85037874D01*
X145504808Y-85139935D01*
X145545839Y-85421047D01*
X145531585Y-85656250D01*
X145451689Y-85920331D01*
X145368938Y-86121431D01*
X145316388Y-86227136D01*
X145283050Y-86221780D01*
X145255974Y-86084011D01*
X145233989Y-85898947D01*
X145192415Y-85640666D01*
X145134684Y-85523643D01*
X145060275Y-85515297D01*
X144905708Y-85498565D01*
X144739555Y-85409317D01*
X144540369Y-85299491D01*
X144369604Y-85325235D01*
X144176802Y-85494785D01*
X144170057Y-85502285D01*
X144000505Y-85691587D01*
X144092020Y-85382195D01*
X144288553Y-85005678D01*
X144452996Y-84828510D01*
X144619379Y-84643919D01*
X144774366Y-84389478D01*
X144940376Y-84025832D01*
X145013340Y-83844920D01*
X145185003Y-83448539D01*
X145363225Y-83104309D01*
X145533386Y-82832884D01*
X145680865Y-82654919D01*
X145791043Y-82591069D01*
X145849296Y-82661989D01*
G37*
X145849296Y-82661989D02*
X145849584Y-82663539D01*
X145847854Y-82839230D01*
X145810082Y-83107229D01*
X145769605Y-83300740D01*
X145707536Y-83590219D01*
X145667357Y-83832918D01*
X145658838Y-83933146D01*
X145629834Y-84120022D01*
X145558010Y-84367088D01*
X145541159Y-84413732D01*
X145484763Y-84701622D01*
X145489157Y-85037874D01*
X145504808Y-85139935D01*
X145545839Y-85421047D01*
X145531585Y-85656250D01*
X145451689Y-85920331D01*
X145368938Y-86121431D01*
X145316388Y-86227136D01*
X145283050Y-86221780D01*
X145255974Y-86084011D01*
X145233989Y-85898947D01*
X145192415Y-85640666D01*
X145134684Y-85523643D01*
X145060275Y-85515297D01*
X144905708Y-85498565D01*
X144739555Y-85409317D01*
X144540369Y-85299491D01*
X144369604Y-85325235D01*
X144176802Y-85494785D01*
X144170057Y-85502285D01*
X144000505Y-85691587D01*
X144092020Y-85382195D01*
X144288553Y-85005678D01*
X144452996Y-84828510D01*
X144619379Y-84643919D01*
X144774366Y-84389478D01*
X144940376Y-84025832D01*
X145013340Y-83844920D01*
X145185003Y-83448539D01*
X145363225Y-83104309D01*
X145533386Y-82832884D01*
X145680865Y-82654919D01*
X145791043Y-82591069D01*
X145849296Y-82661989D01*
X130077317Y-97020771D02*
X130415253Y-96641373D01*
X130415253Y-96641373D02*
X130714137Y-96323438D01*
X130714137Y-96323438D02*
X130956255Y-96088198D01*
X130956255Y-96088198D02*
X131123894Y-95956885D01*
X131123894Y-95956885D02*
X131174472Y-95936815D01*
X131174472Y-95936815D02*
X131422759Y-95986780D01*
X131422759Y-95986780D02*
X131584173Y-96171777D01*
X131584173Y-96171777D02*
X131632954Y-96368894D01*
X131632954Y-96368894D02*
X131633890Y-96452013D01*
X131633890Y-96452013D02*
X131613038Y-96540976D01*
X131613038Y-96540976D02*
X131557533Y-96653846D01*
X131557533Y-96653846D02*
X131454508Y-96808690D01*
X131454508Y-96808690D02*
X131291100Y-97023567D01*
X131291100Y-97023567D02*
X131054442Y-97316542D01*
X131054442Y-97316542D02*
X130731671Y-97705679D01*
X130731671Y-97705679D02*
X130392074Y-98111152D01*
X130392074Y-98111152D02*
X129984324Y-98598789D01*
X129984324Y-98598789D02*
X129672421Y-98977438D01*
X129672421Y-98977438D02*
X129442153Y-99266798D01*
X129442153Y-99266798D02*
X129279306Y-99486565D01*
X129279306Y-99486565D02*
X129169668Y-99656438D01*
X129169668Y-99656438D02*
X129099024Y-99796117D01*
X129099024Y-99796117D02*
X129053161Y-99925299D01*
X129053161Y-99925299D02*
X129035192Y-99991669D01*
X129035192Y-99991669D02*
X129008598Y-100239807D01*
X129008598Y-100239807D02*
X129030205Y-100520034D01*
X129030205Y-100520034D02*
X129088711Y-100783218D01*
X129088711Y-100783218D02*
X129172814Y-100980229D01*
X129172814Y-100980229D02*
X129271215Y-101061937D01*
X129271215Y-101061937D02*
X129281355Y-101061880D01*
X129281355Y-101061880D02*
X129354413Y-100997704D01*
X129354413Y-100997704D02*
X129520444Y-100820406D01*
X129520444Y-100820406D02*
X129764296Y-100547180D01*
X129764296Y-100547180D02*
X130070819Y-100195221D01*
X130070819Y-100195221D02*
X130424861Y-99781726D01*
X130424861Y-99781726D02*
X130780856Y-99360154D01*
X130780856Y-99360154D02*
X131232843Y-98822867D01*
X131232843Y-98822867D02*
X131590694Y-98403799D01*
X131590694Y-98403799D02*
X131868577Y-98090997D01*
X131868577Y-98090997D02*
X132080656Y-97872508D01*
X132080656Y-97872508D02*
X132241099Y-97736381D01*
X132241099Y-97736381D02*
X132364074Y-97670664D01*
X132364074Y-97670664D02*
X132463747Y-97663405D01*
X132463747Y-97663405D02*
X132554284Y-97702652D01*
X132554284Y-97702652D02*
X132649854Y-97776453D01*
X132649854Y-97776453D02*
X132653933Y-97779912D01*
X132653933Y-97779912D02*
X132755698Y-97868990D01*
X132755698Y-97868990D02*
X132825195Y-97951832D01*
X132825195Y-97951832D02*
X132853541Y-98044741D01*
X132853541Y-98044741D02*
X132831856Y-98164016D01*
X132831856Y-98164016D02*
X132751259Y-98325959D01*
X132751259Y-98325959D02*
X132602868Y-98546868D01*
X132602868Y-98546868D02*
X132377803Y-98843046D01*
X132377803Y-98843046D02*
X132067183Y-99230793D01*
X132067183Y-99230793D02*
X131662127Y-99726409D01*
X131662127Y-99726409D02*
X131457710Y-99975525D01*
X131457710Y-99975525D02*
X131076987Y-100442883D01*
X131076987Y-100442883D02*
X130736983Y-100866829D01*
X130736983Y-100866829D02*
X130451082Y-101230138D01*
X130451082Y-101230138D02*
X130232667Y-101515583D01*
X130232667Y-101515583D02*
X130095121Y-101705939D01*
X130095121Y-101705939D02*
X130051830Y-101783977D01*
X130051830Y-101783977D02*
X130052269Y-101784536D01*
X130052269Y-101784536D02*
X130158422Y-101816514D01*
X130158422Y-101816514D02*
X130369409Y-101850144D01*
X130369409Y-101850144D02*
X130464618Y-101860976D01*
X130464618Y-101860976D02*
X130676232Y-101874842D01*
X130676232Y-101874842D02*
X130862967Y-101860607D01*
X130862967Y-101860607D02*
X131042188Y-101804597D01*
X131042188Y-101804597D02*
X131231261Y-101693139D01*
X131231261Y-101693139D02*
X131447546Y-101512559D01*
X131447546Y-101512559D02*
X131708410Y-101249186D01*
X131708410Y-101249186D02*
X132031217Y-100889344D01*
X132031217Y-100889344D02*
X132433331Y-100419361D01*
X132433331Y-100419361D02*
X132704414Y-100097259D01*
X132704414Y-100097259D02*
X133112886Y-99611619D01*
X133112886Y-99611619D02*
X133428592Y-99240623D01*
X133428592Y-99240623D02*
X133666904Y-98968609D01*
X133666904Y-98968609D02*
X133843197Y-98779916D01*
X133843197Y-98779916D02*
X133972844Y-98658880D01*
X133972844Y-98658880D02*
X134071217Y-98589841D01*
X134071217Y-98589841D02*
X134153690Y-98557136D01*
X134153690Y-98557136D02*
X134227291Y-98545801D01*
X134227291Y-98545801D02*
X134495982Y-98576807D01*
X134495982Y-98576807D02*
X134675666Y-98741035D01*
X134675666Y-98741035D02*
X134738071Y-98867762D01*
X134738071Y-98867762D02*
X134754097Y-98926292D01*
X134754097Y-98926292D02*
X134746963Y-98994642D01*
X134746963Y-98994642D02*
X134704843Y-99089042D01*
X134704843Y-99089042D02*
X134615908Y-99225720D01*
X134615908Y-99225720D02*
X134468333Y-99420907D01*
X134468333Y-99420907D02*
X134250289Y-99690830D01*
X134250289Y-99690830D02*
X133949952Y-100051720D01*
X133949952Y-100051720D02*
X133555493Y-100519805D01*
X133555493Y-100519805D02*
X133401079Y-100702422D01*
X133401079Y-100702422D02*
X133009045Y-101162277D01*
X133009045Y-101162277D02*
X132642409Y-101585595D01*
X132642409Y-101585595D02*
X132318435Y-101952970D01*
X132318435Y-101952970D02*
X132054391Y-102244998D01*
X132054391Y-102244998D02*
X131867541Y-102442270D01*
X131867541Y-102442270D02*
X131784333Y-102519501D01*
X131784333Y-102519501D02*
X131300021Y-102775614D01*
X131300021Y-102775614D02*
X130751298Y-102898807D01*
X130751298Y-102898807D02*
X130184480Y-102884280D01*
X130184480Y-102884280D02*
X129671541Y-102738588D01*
X129671541Y-102738588D02*
X129108720Y-102419643D01*
X129108720Y-102419643D02*
X128644763Y-102006697D01*
X128644763Y-102006697D02*
X128291645Y-101523660D01*
X128291645Y-101523660D02*
X128061339Y-100994437D01*
X128061339Y-100994437D02*
X127965824Y-100442934D01*
X127965824Y-100442934D02*
X128017074Y-99893056D01*
X128017074Y-99893056D02*
X128106371Y-99614050D01*
X128106371Y-99614050D02*
X128221653Y-99398901D01*
X128221653Y-99398901D02*
X128421887Y-99096592D01*
X128421887Y-99096592D02*
X128689358Y-98728355D01*
X128689358Y-98728355D02*
X129006351Y-98315424D01*
X129006351Y-98315424D02*
X129355153Y-97879028D01*
X129355153Y-97879028D02*
X129718045Y-97440399D01*
X129718045Y-97440399D02*
X130077317Y-97020771D01*
X130077317Y-97020771D02*
X130077317Y-97020771D01*
G36*
X131422759Y-95986780D02*
G01*
X131584173Y-96171777D01*
X131632954Y-96368894D01*
X131633890Y-96452013D01*
X131613038Y-96540976D01*
X131557533Y-96653846D01*
X131454508Y-96808690D01*
X131291100Y-97023567D01*
X131054442Y-97316542D01*
X130731671Y-97705679D01*
X130392074Y-98111152D01*
X129984324Y-98598789D01*
X129672421Y-98977438D01*
X129442153Y-99266798D01*
X129279306Y-99486565D01*
X129169668Y-99656438D01*
X129099024Y-99796117D01*
X129053161Y-99925299D01*
X129035192Y-99991669D01*
X129008598Y-100239807D01*
X129030205Y-100520034D01*
X129088711Y-100783218D01*
X129172814Y-100980229D01*
X129271215Y-101061937D01*
X129281355Y-101061880D01*
X129354413Y-100997704D01*
X129520444Y-100820406D01*
X129764296Y-100547180D01*
X130070819Y-100195221D01*
X130424861Y-99781726D01*
X130780856Y-99360154D01*
X131232843Y-98822867D01*
X131590694Y-98403799D01*
X131868577Y-98090997D01*
X132080656Y-97872508D01*
X132241099Y-97736381D01*
X132364074Y-97670664D01*
X132463747Y-97663405D01*
X132554284Y-97702652D01*
X132649854Y-97776453D01*
X132653933Y-97779912D01*
X132755698Y-97868990D01*
X132825195Y-97951832D01*
X132853541Y-98044741D01*
X132831856Y-98164016D01*
X132751259Y-98325959D01*
X132602868Y-98546868D01*
X132377803Y-98843046D01*
X132067183Y-99230793D01*
X131662127Y-99726409D01*
X131457710Y-99975525D01*
X131076987Y-100442883D01*
X130736983Y-100866829D01*
X130451082Y-101230138D01*
X130232667Y-101515583D01*
X130095121Y-101705939D01*
X130051830Y-101783977D01*
X130052269Y-101784536D01*
X130158422Y-101816514D01*
X130369409Y-101850144D01*
X130464618Y-101860976D01*
X130676232Y-101874842D01*
X130862967Y-101860607D01*
X131042188Y-101804597D01*
X131231261Y-101693139D01*
X131447546Y-101512559D01*
X131708410Y-101249186D01*
X132031217Y-100889344D01*
X132433331Y-100419361D01*
X132704414Y-100097259D01*
X133112886Y-99611619D01*
X133428592Y-99240623D01*
X133666904Y-98968609D01*
X133843197Y-98779916D01*
X133972844Y-98658880D01*
X134071217Y-98589841D01*
X134153690Y-98557136D01*
X134227291Y-98545801D01*
X134495982Y-98576807D01*
X134675666Y-98741035D01*
X134738071Y-98867762D01*
X134754097Y-98926292D01*
X134746963Y-98994642D01*
X134704843Y-99089042D01*
X134615908Y-99225720D01*
X134468333Y-99420907D01*
X134250289Y-99690830D01*
X133949952Y-100051720D01*
X133555493Y-100519805D01*
X133401079Y-100702422D01*
X133009045Y-101162277D01*
X132642409Y-101585595D01*
X132318435Y-101952970D01*
X132054391Y-102244998D01*
X131867541Y-102442270D01*
X131784333Y-102519501D01*
X131300021Y-102775614D01*
X130751298Y-102898807D01*
X130184480Y-102884280D01*
X129671541Y-102738588D01*
X129108720Y-102419643D01*
X128644763Y-102006697D01*
X128291645Y-101523660D01*
X128061339Y-100994437D01*
X127965824Y-100442934D01*
X128017074Y-99893056D01*
X128106371Y-99614050D01*
X128221653Y-99398901D01*
X128421887Y-99096592D01*
X128689358Y-98728355D01*
X129006351Y-98315424D01*
X129355153Y-97879028D01*
X129718045Y-97440399D01*
X130077317Y-97020771D01*
X130415253Y-96641373D01*
X130714137Y-96323438D01*
X130956255Y-96088198D01*
X131123894Y-95956885D01*
X131174472Y-95936815D01*
X131422759Y-95986780D01*
G37*
X131422759Y-95986780D02*
X131584173Y-96171777D01*
X131632954Y-96368894D01*
X131633890Y-96452013D01*
X131613038Y-96540976D01*
X131557533Y-96653846D01*
X131454508Y-96808690D01*
X131291100Y-97023567D01*
X131054442Y-97316542D01*
X130731671Y-97705679D01*
X130392074Y-98111152D01*
X129984324Y-98598789D01*
X129672421Y-98977438D01*
X129442153Y-99266798D01*
X129279306Y-99486565D01*
X129169668Y-99656438D01*
X129099024Y-99796117D01*
X129053161Y-99925299D01*
X129035192Y-99991669D01*
X129008598Y-100239807D01*
X129030205Y-100520034D01*
X129088711Y-100783218D01*
X129172814Y-100980229D01*
X129271215Y-101061937D01*
X129281355Y-101061880D01*
X129354413Y-100997704D01*
X129520444Y-100820406D01*
X129764296Y-100547180D01*
X130070819Y-100195221D01*
X130424861Y-99781726D01*
X130780856Y-99360154D01*
X131232843Y-98822867D01*
X131590694Y-98403799D01*
X131868577Y-98090997D01*
X132080656Y-97872508D01*
X132241099Y-97736381D01*
X132364074Y-97670664D01*
X132463747Y-97663405D01*
X132554284Y-97702652D01*
X132649854Y-97776453D01*
X132653933Y-97779912D01*
X132755698Y-97868990D01*
X132825195Y-97951832D01*
X132853541Y-98044741D01*
X132831856Y-98164016D01*
X132751259Y-98325959D01*
X132602868Y-98546868D01*
X132377803Y-98843046D01*
X132067183Y-99230793D01*
X131662127Y-99726409D01*
X131457710Y-99975525D01*
X131076987Y-100442883D01*
X130736983Y-100866829D01*
X130451082Y-101230138D01*
X130232667Y-101515583D01*
X130095121Y-101705939D01*
X130051830Y-101783977D01*
X130052269Y-101784536D01*
X130158422Y-101816514D01*
X130369409Y-101850144D01*
X130464618Y-101860976D01*
X130676232Y-101874842D01*
X130862967Y-101860607D01*
X131042188Y-101804597D01*
X131231261Y-101693139D01*
X131447546Y-101512559D01*
X131708410Y-101249186D01*
X132031217Y-100889344D01*
X132433331Y-100419361D01*
X132704414Y-100097259D01*
X133112886Y-99611619D01*
X133428592Y-99240623D01*
X133666904Y-98968609D01*
X133843197Y-98779916D01*
X133972844Y-98658880D01*
X134071217Y-98589841D01*
X134153690Y-98557136D01*
X134227291Y-98545801D01*
X134495982Y-98576807D01*
X134675666Y-98741035D01*
X134738071Y-98867762D01*
X134754097Y-98926292D01*
X134746963Y-98994642D01*
X134704843Y-99089042D01*
X134615908Y-99225720D01*
X134468333Y-99420907D01*
X134250289Y-99690830D01*
X133949952Y-100051720D01*
X133555493Y-100519805D01*
X133401079Y-100702422D01*
X133009045Y-101162277D01*
X132642409Y-101585595D01*
X132318435Y-101952970D01*
X132054391Y-102244998D01*
X131867541Y-102442270D01*
X131784333Y-102519501D01*
X131300021Y-102775614D01*
X130751298Y-102898807D01*
X130184480Y-102884280D01*
X129671541Y-102738588D01*
X129108720Y-102419643D01*
X128644763Y-102006697D01*
X128291645Y-101523660D01*
X128061339Y-100994437D01*
X127965824Y-100442934D01*
X128017074Y-99893056D01*
X128106371Y-99614050D01*
X128221653Y-99398901D01*
X128421887Y-99096592D01*
X128689358Y-98728355D01*
X129006351Y-98315424D01*
X129355153Y-97879028D01*
X129718045Y-97440399D01*
X130077317Y-97020771D01*
X130415253Y-96641373D01*
X130714137Y-96323438D01*
X130956255Y-96088198D01*
X131123894Y-95956885D01*
X131174472Y-95936815D01*
X131422759Y-95986780D01*
X144055179Y-87148954D02*
X144068427Y-87193033D01*
X144068427Y-87193033D02*
X144017814Y-87262665D01*
X144017814Y-87262665D02*
X143943903Y-87318581D01*
X143943903Y-87318581D02*
X143945748Y-87268970D01*
X143945748Y-87268970D02*
X144023073Y-87161116D01*
X144023073Y-87161116D02*
X144055179Y-87148954D01*
X144055179Y-87148954D02*
X144055179Y-87148954D01*
G36*
X144068427Y-87193033D02*
G01*
X144017814Y-87262665D01*
X143943903Y-87318581D01*
X143945748Y-87268970D01*
X144023073Y-87161116D01*
X144055179Y-87148954D01*
X144068427Y-87193033D01*
G37*
X144068427Y-87193033D02*
X144017814Y-87262665D01*
X143943903Y-87318581D01*
X143945748Y-87268970D01*
X144023073Y-87161116D01*
X144055179Y-87148954D01*
X144068427Y-87193033D01*
X138792739Y-86651819D02*
X139163354Y-86214703D01*
X139163354Y-86214703D02*
X139454963Y-85877174D01*
X139454963Y-85877174D02*
X139682109Y-85623859D01*
X139682109Y-85623859D02*
X139859336Y-85439375D01*
X139859336Y-85439375D02*
X140001189Y-85308348D01*
X140001189Y-85308348D02*
X140122210Y-85215398D01*
X140122210Y-85215398D02*
X140236943Y-85145149D01*
X140236943Y-85145149D02*
X140313525Y-85105134D01*
X140313525Y-85105134D02*
X140738060Y-84959896D01*
X140738060Y-84959896D02*
X141151935Y-84965439D01*
X141151935Y-84965439D02*
X141579178Y-85125260D01*
X141579178Y-85125260D02*
X141907377Y-85336945D01*
X141907377Y-85336945D02*
X142326335Y-85721732D01*
X142326335Y-85721732D02*
X142578386Y-86131619D01*
X142578386Y-86131619D02*
X142664330Y-86568265D01*
X142664330Y-86568265D02*
X142635030Y-86850850D01*
X142635030Y-86850850D02*
X142604331Y-86976716D01*
X142604331Y-86976716D02*
X142559649Y-87100043D01*
X142559649Y-87100043D02*
X142488107Y-87239323D01*
X142488107Y-87239323D02*
X142376824Y-87413050D01*
X142376824Y-87413050D02*
X142212926Y-87639717D01*
X142212926Y-87639717D02*
X141983533Y-87937819D01*
X141983533Y-87937819D02*
X141675768Y-88325848D01*
X141675768Y-88325848D02*
X141276755Y-88822297D01*
X141276755Y-88822297D02*
X141170671Y-88953824D01*
X141170671Y-88953824D02*
X139788110Y-90667354D01*
X139788110Y-90667354D02*
X140256669Y-91093497D01*
X140256669Y-91093497D02*
X140560275Y-91399387D01*
X140560275Y-91399387D02*
X140723624Y-91647130D01*
X140723624Y-91647130D02*
X140755300Y-91859329D01*
X140755300Y-91859329D02*
X140663881Y-92058593D01*
X140663881Y-92058593D02*
X140636210Y-92093409D01*
X140636210Y-92093409D02*
X140448196Y-92246501D01*
X140448196Y-92246501D02*
X140293954Y-92314085D01*
X140293954Y-92314085D02*
X140180863Y-92323495D01*
X140180863Y-92323495D02*
X140054254Y-92281599D01*
X140054254Y-92281599D02*
X139880913Y-92169635D01*
X139880913Y-92169635D02*
X139627624Y-91968846D01*
X139627624Y-91968846D02*
X139511985Y-91872476D01*
X139511985Y-91872476D02*
X139217869Y-91617327D01*
X139217869Y-91617327D02*
X139030822Y-91428549D01*
X139030822Y-91428549D02*
X138921868Y-91271693D01*
X138921868Y-91271693D02*
X138862030Y-91112311D01*
X138862030Y-91112311D02*
X138857507Y-91094399D01*
X138857507Y-91094399D02*
X138817691Y-90900166D01*
X138817691Y-90900166D02*
X138807337Y-90722592D01*
X138807337Y-90722592D02*
X138837047Y-90542840D01*
X138837047Y-90542840D02*
X138917421Y-90342075D01*
X138917421Y-90342075D02*
X139059060Y-90101463D01*
X139059060Y-90101463D02*
X139272564Y-89802166D01*
X139272564Y-89802166D02*
X139568534Y-89425351D01*
X139568534Y-89425351D02*
X139957571Y-88952180D01*
X139957571Y-88952180D02*
X140280455Y-88566049D01*
X140280455Y-88566049D02*
X140698822Y-88066292D01*
X140698822Y-88066292D02*
X141020125Y-87678390D01*
X141020125Y-87678390D02*
X141256824Y-87385051D01*
X141256824Y-87385051D02*
X141421374Y-87168986D01*
X141421374Y-87168986D02*
X141526233Y-87012902D01*
X141526233Y-87012902D02*
X141583860Y-86899508D01*
X141583860Y-86899508D02*
X141606712Y-86811511D01*
X141606712Y-86811511D02*
X141607247Y-86731623D01*
X141607247Y-86731623D02*
X141606710Y-86725189D01*
X141606710Y-86725189D02*
X141542661Y-86476388D01*
X141542661Y-86476388D02*
X141455809Y-86309738D01*
X141455809Y-86309738D02*
X141278338Y-86156201D01*
X141278338Y-86156201D02*
X141030253Y-86038071D01*
X141030253Y-86038071D02*
X140788976Y-85987037D01*
X140788976Y-85987037D02*
X140692557Y-85997336D01*
X140692557Y-85997336D02*
X140611893Y-86067436D01*
X140611893Y-86067436D02*
X140435427Y-86250067D01*
X140435427Y-86250067D02*
X140177646Y-86529264D01*
X140177646Y-86529264D02*
X139853036Y-86889068D01*
X139853036Y-86889068D02*
X139476083Y-87313515D01*
X139476083Y-87313515D02*
X139061275Y-87786642D01*
X139061275Y-87786642D02*
X138892042Y-87981285D01*
X138892042Y-87981285D02*
X137199721Y-89932256D01*
X137199721Y-89932256D02*
X136952180Y-89710219D01*
X136952180Y-89710219D02*
X136840949Y-89606743D01*
X136840949Y-89606743D02*
X136763231Y-89510663D01*
X136763231Y-89510663D02*
X136727440Y-89406649D01*
X136727440Y-89406649D02*
X136741999Y-89279371D01*
X136741999Y-89279371D02*
X136815325Y-89113499D01*
X136815325Y-89113499D02*
X136955836Y-88893704D01*
X136955836Y-88893704D02*
X137171951Y-88604658D01*
X137171951Y-88604658D02*
X137472088Y-88231030D01*
X137472088Y-88231030D02*
X137864665Y-87757491D01*
X137864665Y-87757491D02*
X138328575Y-87203902D01*
X138328575Y-87203902D02*
X138792739Y-86651819D01*
X138792739Y-86651819D02*
X138792739Y-86651819D01*
G36*
X141151935Y-84965439D02*
G01*
X141579178Y-85125260D01*
X141907377Y-85336945D01*
X142326335Y-85721732D01*
X142578386Y-86131619D01*
X142664330Y-86568265D01*
X142635030Y-86850850D01*
X142604331Y-86976716D01*
X142559649Y-87100043D01*
X142488107Y-87239323D01*
X142376824Y-87413050D01*
X142212926Y-87639717D01*
X141983533Y-87937819D01*
X141675768Y-88325848D01*
X141276755Y-88822297D01*
X141170671Y-88953824D01*
X139788110Y-90667354D01*
X140256669Y-91093497D01*
X140560275Y-91399387D01*
X140723624Y-91647130D01*
X140755300Y-91859329D01*
X140663881Y-92058593D01*
X140636210Y-92093409D01*
X140448196Y-92246501D01*
X140293954Y-92314085D01*
X140180863Y-92323495D01*
X140054254Y-92281599D01*
X139880913Y-92169635D01*
X139627624Y-91968846D01*
X139511985Y-91872476D01*
X139217869Y-91617327D01*
X139030822Y-91428549D01*
X138921868Y-91271693D01*
X138862030Y-91112311D01*
X138857507Y-91094399D01*
X138817691Y-90900166D01*
X138807337Y-90722592D01*
X138837047Y-90542840D01*
X138917421Y-90342075D01*
X139059060Y-90101463D01*
X139272564Y-89802166D01*
X139568534Y-89425351D01*
X139957571Y-88952180D01*
X140280455Y-88566049D01*
X140698822Y-88066292D01*
X141020125Y-87678390D01*
X141256824Y-87385051D01*
X141421374Y-87168986D01*
X141526233Y-87012902D01*
X141583860Y-86899508D01*
X141606712Y-86811511D01*
X141607247Y-86731623D01*
X141606710Y-86725189D01*
X141542661Y-86476388D01*
X141455809Y-86309738D01*
X141278338Y-86156201D01*
X141030253Y-86038071D01*
X140788976Y-85987037D01*
X140692557Y-85997336D01*
X140611893Y-86067436D01*
X140435427Y-86250067D01*
X140177646Y-86529264D01*
X139853036Y-86889068D01*
X139476083Y-87313515D01*
X139061275Y-87786642D01*
X138892042Y-87981285D01*
X137199721Y-89932256D01*
X136952180Y-89710219D01*
X136840949Y-89606743D01*
X136763231Y-89510663D01*
X136727440Y-89406649D01*
X136741999Y-89279371D01*
X136815325Y-89113499D01*
X136955836Y-88893704D01*
X137171951Y-88604658D01*
X137472088Y-88231030D01*
X137864665Y-87757491D01*
X138328575Y-87203902D01*
X138792739Y-86651819D01*
X139163354Y-86214703D01*
X139454963Y-85877174D01*
X139682109Y-85623859D01*
X139859336Y-85439375D01*
X140001189Y-85308348D01*
X140122210Y-85215398D01*
X140236943Y-85145149D01*
X140313525Y-85105134D01*
X140738060Y-84959896D01*
X141151935Y-84965439D01*
G37*
X141151935Y-84965439D02*
X141579178Y-85125260D01*
X141907377Y-85336945D01*
X142326335Y-85721732D01*
X142578386Y-86131619D01*
X142664330Y-86568265D01*
X142635030Y-86850850D01*
X142604331Y-86976716D01*
X142559649Y-87100043D01*
X142488107Y-87239323D01*
X142376824Y-87413050D01*
X142212926Y-87639717D01*
X141983533Y-87937819D01*
X141675768Y-88325848D01*
X141276755Y-88822297D01*
X141170671Y-88953824D01*
X139788110Y-90667354D01*
X140256669Y-91093497D01*
X140560275Y-91399387D01*
X140723624Y-91647130D01*
X140755300Y-91859329D01*
X140663881Y-92058593D01*
X140636210Y-92093409D01*
X140448196Y-92246501D01*
X140293954Y-92314085D01*
X140180863Y-92323495D01*
X140054254Y-92281599D01*
X139880913Y-92169635D01*
X139627624Y-91968846D01*
X139511985Y-91872476D01*
X139217869Y-91617327D01*
X139030822Y-91428549D01*
X138921868Y-91271693D01*
X138862030Y-91112311D01*
X138857507Y-91094399D01*
X138817691Y-90900166D01*
X138807337Y-90722592D01*
X138837047Y-90542840D01*
X138917421Y-90342075D01*
X139059060Y-90101463D01*
X139272564Y-89802166D01*
X139568534Y-89425351D01*
X139957571Y-88952180D01*
X140280455Y-88566049D01*
X140698822Y-88066292D01*
X141020125Y-87678390D01*
X141256824Y-87385051D01*
X141421374Y-87168986D01*
X141526233Y-87012902D01*
X141583860Y-86899508D01*
X141606712Y-86811511D01*
X141607247Y-86731623D01*
X141606710Y-86725189D01*
X141542661Y-86476388D01*
X141455809Y-86309738D01*
X141278338Y-86156201D01*
X141030253Y-86038071D01*
X140788976Y-85987037D01*
X140692557Y-85997336D01*
X140611893Y-86067436D01*
X140435427Y-86250067D01*
X140177646Y-86529264D01*
X139853036Y-86889068D01*
X139476083Y-87313515D01*
X139061275Y-87786642D01*
X138892042Y-87981285D01*
X137199721Y-89932256D01*
X136952180Y-89710219D01*
X136840949Y-89606743D01*
X136763231Y-89510663D01*
X136727440Y-89406649D01*
X136741999Y-89279371D01*
X136815325Y-89113499D01*
X136955836Y-88893704D01*
X137171951Y-88604658D01*
X137472088Y-88231030D01*
X137864665Y-87757491D01*
X138328575Y-87203902D01*
X138792739Y-86651819D01*
X139163354Y-86214703D01*
X139454963Y-85877174D01*
X139682109Y-85623859D01*
X139859336Y-85439375D01*
X140001189Y-85308348D01*
X140122210Y-85215398D01*
X140236943Y-85145149D01*
X140313525Y-85105134D01*
X140738060Y-84959896D01*
X141151935Y-84965439D01*
X144255090Y-86689440D02*
X144251501Y-86731131D01*
X144251501Y-86731131D02*
X144189098Y-86914711D01*
X144189098Y-86914711D02*
X144147539Y-86975470D01*
X144147539Y-86975470D02*
X144096476Y-86998717D01*
X144096476Y-86998717D02*
X144115444Y-86893278D01*
X144115444Y-86893278D02*
X144182189Y-86714958D01*
X144182189Y-86714958D02*
X144235580Y-86638856D01*
X144235580Y-86638856D02*
X144255090Y-86689440D01*
X144255090Y-86689440D02*
X144255090Y-86689440D01*
G36*
X144255090Y-86689440D02*
G01*
X144251501Y-86731131D01*
X144189098Y-86914711D01*
X144147539Y-86975470D01*
X144096476Y-86998717D01*
X144115444Y-86893278D01*
X144182189Y-86714958D01*
X144235580Y-86638856D01*
X144255090Y-86689440D01*
G37*
X144255090Y-86689440D02*
X144251501Y-86731131D01*
X144189098Y-86914711D01*
X144147539Y-86975470D01*
X144096476Y-86998717D01*
X144115444Y-86893278D01*
X144182189Y-86714958D01*
X144235580Y-86638856D01*
X144255090Y-86689440D01*
X133791558Y-92612295D02*
X134168661Y-92169873D01*
X134168661Y-92169873D02*
X134523006Y-91761248D01*
X134523006Y-91761248D02*
X134837751Y-91406527D01*
X134837751Y-91406527D02*
X135096058Y-91125813D01*
X135096058Y-91125813D02*
X135281085Y-90939211D01*
X135281085Y-90939211D02*
X135354041Y-90877938D01*
X135354041Y-90877938D02*
X135687656Y-90730137D01*
X135687656Y-90730137D02*
X136092714Y-90659468D01*
X136092714Y-90659468D02*
X136483444Y-90680133D01*
X136483444Y-90680133D02*
X136511805Y-90686223D01*
X136511805Y-90686223D02*
X136904691Y-90841132D01*
X136904691Y-90841132D02*
X137272413Y-91099913D01*
X137272413Y-91099913D02*
X137576119Y-91424227D01*
X137576119Y-91424227D02*
X137776961Y-91775736D01*
X137776961Y-91775736D02*
X137832691Y-91989743D01*
X137832691Y-91989743D02*
X137858646Y-92211622D01*
X137858646Y-92211622D02*
X137868934Y-92398318D01*
X137868934Y-92398318D02*
X137852820Y-92569728D01*
X137852820Y-92569728D02*
X137799568Y-92745748D01*
X137799568Y-92745748D02*
X137698444Y-92946274D01*
X137698444Y-92946274D02*
X137538712Y-93191202D01*
X137538712Y-93191202D02*
X137309636Y-93500429D01*
X137309636Y-93500429D02*
X137000482Y-93893851D01*
X137000482Y-93893851D02*
X136600515Y-94391362D01*
X136600515Y-94391362D02*
X136408686Y-94628937D01*
X136408686Y-94628937D02*
X134998914Y-96374896D01*
X134998914Y-96374896D02*
X135509322Y-96858441D01*
X135509322Y-96858441D02*
X135788902Y-97137893D01*
X135788902Y-97137893D02*
X135946340Y-97344955D01*
X135946340Y-97344955D02*
X135992899Y-97511526D01*
X135992899Y-97511526D02*
X135939844Y-97669505D01*
X135939844Y-97669505D02*
X135842082Y-97800807D01*
X135842082Y-97800807D02*
X135668329Y-97952706D01*
X135668329Y-97952706D02*
X135543698Y-98020162D01*
X135543698Y-98020162D02*
X135447532Y-98031661D01*
X135447532Y-98031661D02*
X135325811Y-97987506D01*
X135325811Y-97987506D02*
X135149084Y-97870281D01*
X135149084Y-97870281D02*
X134887900Y-97662573D01*
X134887900Y-97662573D02*
X134763214Y-97558677D01*
X134763214Y-97558677D02*
X134462029Y-97298921D01*
X134462029Y-97298921D02*
X134267269Y-97107946D01*
X134267269Y-97107946D02*
X134150462Y-96952174D01*
X134150462Y-96952174D02*
X134083139Y-96798027D01*
X134083139Y-96798027D02*
X134065304Y-96735581D01*
X134065304Y-96735581D02*
X134028290Y-96558503D01*
X134028290Y-96558503D02*
X134022087Y-96391918D01*
X134022087Y-96391918D02*
X134057293Y-96217585D01*
X134057293Y-96217585D02*
X134144501Y-96017267D01*
X134144501Y-96017267D02*
X134294309Y-95772722D01*
X134294309Y-95772722D02*
X134517310Y-95465711D01*
X134517310Y-95465711D02*
X134824102Y-95077997D01*
X134824102Y-95077997D02*
X135225279Y-94591338D01*
X135225279Y-94591338D02*
X135505489Y-94256426D01*
X135505489Y-94256426D02*
X136843067Y-92662363D01*
X136843067Y-92662363D02*
X136817452Y-92369583D01*
X136817452Y-92369583D02*
X136718627Y-92060078D01*
X136718627Y-92060078D02*
X136558936Y-91881374D01*
X136558936Y-91881374D02*
X136267076Y-91726669D01*
X136267076Y-91726669D02*
X136033254Y-91711563D01*
X136033254Y-91711563D02*
X135740474Y-91737178D01*
X135740474Y-91737178D02*
X132470165Y-95634580D01*
X132470165Y-95634580D02*
X132180584Y-95391593D01*
X132180584Y-95391593D02*
X131989795Y-95203526D01*
X131989795Y-95203526D02*
X131923262Y-95048926D01*
X131923262Y-95048926D02*
X131929130Y-94966815D01*
X131929130Y-94966815D02*
X131994031Y-94850734D01*
X131994031Y-94850734D02*
X132154051Y-94627718D01*
X132154051Y-94627718D02*
X132392351Y-94317873D01*
X132392351Y-94317873D02*
X132692092Y-93941304D01*
X132692092Y-93941304D02*
X133036434Y-93518115D01*
X133036434Y-93518115D02*
X133408535Y-93068410D01*
X133408535Y-93068410D02*
X133791558Y-92612295D01*
X133791558Y-92612295D02*
X133791558Y-92612295D01*
G36*
X136483444Y-90680133D02*
G01*
X136511805Y-90686223D01*
X136904691Y-90841132D01*
X137272413Y-91099913D01*
X137576119Y-91424227D01*
X137776961Y-91775736D01*
X137832691Y-91989743D01*
X137858646Y-92211622D01*
X137868934Y-92398318D01*
X137852820Y-92569728D01*
X137799568Y-92745748D01*
X137698444Y-92946274D01*
X137538712Y-93191202D01*
X137309636Y-93500429D01*
X137000482Y-93893851D01*
X136600515Y-94391362D01*
X136408686Y-94628937D01*
X134998914Y-96374896D01*
X135509322Y-96858441D01*
X135788902Y-97137893D01*
X135946340Y-97344955D01*
X135992899Y-97511526D01*
X135939844Y-97669505D01*
X135842082Y-97800807D01*
X135668329Y-97952706D01*
X135543698Y-98020162D01*
X135447532Y-98031661D01*
X135325811Y-97987506D01*
X135149084Y-97870281D01*
X134887900Y-97662573D01*
X134763214Y-97558677D01*
X134462029Y-97298921D01*
X134267269Y-97107946D01*
X134150462Y-96952174D01*
X134083139Y-96798027D01*
X134065304Y-96735581D01*
X134028290Y-96558503D01*
X134022087Y-96391918D01*
X134057293Y-96217585D01*
X134144501Y-96017267D01*
X134294309Y-95772722D01*
X134517310Y-95465711D01*
X134824102Y-95077997D01*
X135225279Y-94591338D01*
X135505489Y-94256426D01*
X136843067Y-92662363D01*
X136817452Y-92369583D01*
X136718627Y-92060078D01*
X136558936Y-91881374D01*
X136267076Y-91726669D01*
X136033254Y-91711563D01*
X135740474Y-91737178D01*
X132470165Y-95634580D01*
X132180584Y-95391593D01*
X131989795Y-95203526D01*
X131923262Y-95048926D01*
X131929130Y-94966815D01*
X131994031Y-94850734D01*
X132154051Y-94627718D01*
X132392351Y-94317873D01*
X132692092Y-93941304D01*
X133036434Y-93518115D01*
X133408535Y-93068410D01*
X133791558Y-92612295D01*
X134168661Y-92169873D01*
X134523006Y-91761248D01*
X134837751Y-91406527D01*
X135096058Y-91125813D01*
X135281085Y-90939211D01*
X135354041Y-90877938D01*
X135687656Y-90730137D01*
X136092714Y-90659468D01*
X136483444Y-90680133D01*
G37*
X136483444Y-90680133D02*
X136511805Y-90686223D01*
X136904691Y-90841132D01*
X137272413Y-91099913D01*
X137576119Y-91424227D01*
X137776961Y-91775736D01*
X137832691Y-91989743D01*
X137858646Y-92211622D01*
X137868934Y-92398318D01*
X137852820Y-92569728D01*
X137799568Y-92745748D01*
X137698444Y-92946274D01*
X137538712Y-93191202D01*
X137309636Y-93500429D01*
X137000482Y-93893851D01*
X136600515Y-94391362D01*
X136408686Y-94628937D01*
X134998914Y-96374896D01*
X135509322Y-96858441D01*
X135788902Y-97137893D01*
X135946340Y-97344955D01*
X135992899Y-97511526D01*
X135939844Y-97669505D01*
X135842082Y-97800807D01*
X135668329Y-97952706D01*
X135543698Y-98020162D01*
X135447532Y-98031661D01*
X135325811Y-97987506D01*
X135149084Y-97870281D01*
X134887900Y-97662573D01*
X134763214Y-97558677D01*
X134462029Y-97298921D01*
X134267269Y-97107946D01*
X134150462Y-96952174D01*
X134083139Y-96798027D01*
X134065304Y-96735581D01*
X134028290Y-96558503D01*
X134022087Y-96391918D01*
X134057293Y-96217585D01*
X134144501Y-96017267D01*
X134294309Y-95772722D01*
X134517310Y-95465711D01*
X134824102Y-95077997D01*
X135225279Y-94591338D01*
X135505489Y-94256426D01*
X136843067Y-92662363D01*
X136817452Y-92369583D01*
X136718627Y-92060078D01*
X136558936Y-91881374D01*
X136267076Y-91726669D01*
X136033254Y-91711563D01*
X135740474Y-91737178D01*
X132470165Y-95634580D01*
X132180584Y-95391593D01*
X131989795Y-95203526D01*
X131923262Y-95048926D01*
X131929130Y-94966815D01*
X131994031Y-94850734D01*
X132154051Y-94627718D01*
X132392351Y-94317873D01*
X132692092Y-93941304D01*
X133036434Y-93518115D01*
X133408535Y-93068410D01*
X133791558Y-92612295D01*
X134168661Y-92169873D01*
X134523006Y-91761248D01*
X134837751Y-91406527D01*
X135096058Y-91125813D01*
X135281085Y-90939211D01*
X135354041Y-90877938D01*
X135687656Y-90730137D01*
X136092714Y-90659468D01*
X136483444Y-90680133D01*
X147176664Y-82854823D02*
X147505324Y-82482743D01*
X147505324Y-82482743D02*
X147760957Y-82219641D01*
X147760957Y-82219641D02*
X147959624Y-82053646D01*
X147959624Y-82053646D02*
X148117385Y-81972882D01*
X148117385Y-81972882D02*
X148250303Y-81965474D01*
X148250303Y-81965474D02*
X148374438Y-82019547D01*
X148374438Y-82019547D02*
X148464060Y-82087077D01*
X148464060Y-82087077D02*
X148563533Y-82178012D01*
X148563533Y-82178012D02*
X148623428Y-82267680D01*
X148623428Y-82267680D02*
X148634177Y-82373569D01*
X148634177Y-82373569D02*
X148586214Y-82513164D01*
X148586214Y-82513164D02*
X148469970Y-82703957D01*
X148469970Y-82703957D02*
X148275879Y-82963432D01*
X148275879Y-82963432D02*
X147994374Y-83309077D01*
X147994374Y-83309077D02*
X147615887Y-83758379D01*
X147615887Y-83758379D02*
X147430082Y-83977052D01*
X147430082Y-83977052D02*
X147062602Y-84406876D01*
X147062602Y-84406876D02*
X146722491Y-84800451D01*
X146722491Y-84800451D02*
X146428167Y-85136801D01*
X146428167Y-85136801D02*
X146198047Y-85394950D01*
X146198047Y-85394950D02*
X146050549Y-85553919D01*
X146050549Y-85553919D02*
X146016451Y-85587144D01*
X146016451Y-85587144D02*
X145883628Y-85695821D01*
X145883628Y-85695821D02*
X145824193Y-85729763D01*
X145824193Y-85729763D02*
X145806674Y-85645978D01*
X145806674Y-85645978D02*
X145776194Y-85439938D01*
X145776194Y-85439938D02*
X145742074Y-85177787D01*
X145742074Y-85177787D02*
X145675533Y-84638882D01*
X145675533Y-84638882D02*
X146758913Y-83347759D01*
X146758913Y-83347759D02*
X147176664Y-82854823D01*
X147176664Y-82854823D02*
X147176664Y-82854823D01*
G36*
X148374438Y-82019547D02*
G01*
X148464060Y-82087077D01*
X148563533Y-82178012D01*
X148623428Y-82267680D01*
X148634177Y-82373569D01*
X148586214Y-82513164D01*
X148469970Y-82703957D01*
X148275879Y-82963432D01*
X147994374Y-83309077D01*
X147615887Y-83758379D01*
X147430082Y-83977052D01*
X147062602Y-84406876D01*
X146722491Y-84800451D01*
X146428167Y-85136801D01*
X146198047Y-85394950D01*
X146050549Y-85553919D01*
X146016451Y-85587144D01*
X145883628Y-85695821D01*
X145824193Y-85729763D01*
X145806674Y-85645978D01*
X145776194Y-85439938D01*
X145742074Y-85177787D01*
X145675533Y-84638882D01*
X146758913Y-83347759D01*
X147176664Y-82854823D01*
X147505324Y-82482743D01*
X147760957Y-82219641D01*
X147959624Y-82053646D01*
X148117385Y-81972882D01*
X148250303Y-81965474D01*
X148374438Y-82019547D01*
G37*
X148374438Y-82019547D02*
X148464060Y-82087077D01*
X148563533Y-82178012D01*
X148623428Y-82267680D01*
X148634177Y-82373569D01*
X148586214Y-82513164D01*
X148469970Y-82703957D01*
X148275879Y-82963432D01*
X147994374Y-83309077D01*
X147615887Y-83758379D01*
X147430082Y-83977052D01*
X147062602Y-84406876D01*
X146722491Y-84800451D01*
X146428167Y-85136801D01*
X146198047Y-85394950D01*
X146050549Y-85553919D01*
X146016451Y-85587144D01*
X145883628Y-85695821D01*
X145824193Y-85729763D01*
X145806674Y-85645978D01*
X145776194Y-85439938D01*
X145742074Y-85177787D01*
X145675533Y-84638882D01*
X146758913Y-83347759D01*
X147176664Y-82854823D01*
X147505324Y-82482743D01*
X147760957Y-82219641D01*
X147959624Y-82053646D01*
X148117385Y-81972882D01*
X148250303Y-81965474D01*
X148374438Y-82019547D01*
%TD*%
M02*
