%TF.GenerationSoftware,KiCad,Pcbnew,(6.0.2)*%
%TF.CreationDate,2022-04-23T23:31:31-04:00*%
%TF.ProjectId,Pi_HAT,50695f48-4154-42e6-9b69-6361645f7063,rev?*%
%TF.SameCoordinates,Original*%
%TF.FileFunction,Paste,Bot*%
%TF.FilePolarity,Positive*%
%FSLAX46Y46*%
G04 Gerber Fmt 4.6, Leading zero omitted, Abs format (unit mm)*
G04 Created by KiCad (PCBNEW (6.0.2)) date 2022-04-23 23:31:31*
%MOMM*%
%LPD*%
G01*
G04 APERTURE LIST*
%ADD10C,0.010000*%
%ADD11R,3.500000X1.600000*%
%ADD12R,1.600000X3.500000*%
G04 APERTURE END LIST*
D10*
%TO.C,VR1*%
X139651560Y-86455000D02*
X141030000Y-86455000D01*
X141030000Y-86455000D02*
X141030000Y-84983550D01*
X141030000Y-84983550D02*
X139651560Y-84983550D01*
X139651560Y-84983550D02*
X139651560Y-86455000D01*
G36*
X141030000Y-86455000D02*
G01*
X139651560Y-86455000D01*
X139651560Y-84983550D01*
X141030000Y-84983550D01*
X141030000Y-86455000D01*
G37*
X141030000Y-86455000D02*
X139651560Y-86455000D01*
X139651560Y-84983550D01*
X141030000Y-84983550D01*
X141030000Y-86455000D01*
X139652330Y-84390000D02*
X141030000Y-84390000D01*
X141030000Y-84390000D02*
X141030000Y-82915300D01*
X141030000Y-82915300D02*
X139652330Y-82915300D01*
X139652330Y-82915300D02*
X139652330Y-84390000D01*
G36*
X141030000Y-84390000D02*
G01*
X139652330Y-84390000D01*
X139652330Y-82915300D01*
X141030000Y-82915300D01*
X141030000Y-84390000D01*
G37*
X141030000Y-84390000D02*
X139652330Y-84390000D01*
X139652330Y-82915300D01*
X141030000Y-82915300D01*
X141030000Y-84390000D01*
X143593590Y-86455000D02*
X144970000Y-86455000D01*
X144970000Y-86455000D02*
X144970000Y-84983920D01*
X144970000Y-84983920D02*
X143593590Y-84983920D01*
X143593590Y-84983920D02*
X143593590Y-86455000D01*
G36*
X144970000Y-86455000D02*
G01*
X143593590Y-86455000D01*
X143593590Y-84983920D01*
X144970000Y-84983920D01*
X144970000Y-86455000D01*
G37*
X144970000Y-86455000D02*
X143593590Y-86455000D01*
X143593590Y-84983920D01*
X144970000Y-84983920D01*
X144970000Y-86455000D01*
X141626490Y-84390000D02*
X143000000Y-84390000D01*
X143000000Y-84390000D02*
X143000000Y-82913580D01*
X143000000Y-82913580D02*
X141626490Y-82913580D01*
X141626490Y-82913580D02*
X141626490Y-84390000D01*
G36*
X143000000Y-84390000D02*
G01*
X141626490Y-84390000D01*
X141626490Y-82913580D01*
X143000000Y-82913580D01*
X143000000Y-84390000D01*
G37*
X143000000Y-84390000D02*
X141626490Y-84390000D01*
X141626490Y-82913580D01*
X143000000Y-82913580D01*
X143000000Y-84390000D01*
X137679937Y-86455000D02*
X139060000Y-86455000D01*
X139060000Y-86455000D02*
X139060000Y-84983440D01*
X139060000Y-84983440D02*
X137679937Y-84983440D01*
X137679937Y-84983440D02*
X137679937Y-86455000D01*
G36*
X139060000Y-86455000D02*
G01*
X137679937Y-86455000D01*
X137679937Y-84983440D01*
X139060000Y-84983440D01*
X139060000Y-86455000D01*
G37*
X139060000Y-86455000D02*
X137679937Y-86455000D01*
X137679937Y-84983440D01*
X139060000Y-84983440D01*
X139060000Y-86455000D01*
X143600260Y-84390000D02*
X144970000Y-84390000D01*
X144970000Y-84390000D02*
X144970000Y-82913270D01*
X144970000Y-82913270D02*
X143600260Y-82913270D01*
X143600260Y-82913270D02*
X143600260Y-84390000D01*
G36*
X144970000Y-84390000D02*
G01*
X143600260Y-84390000D01*
X143600260Y-82913270D01*
X144970000Y-82913270D01*
X144970000Y-84390000D01*
G37*
X144970000Y-84390000D02*
X143600260Y-84390000D01*
X143600260Y-82913270D01*
X144970000Y-82913270D01*
X144970000Y-84390000D01*
X139652330Y-88515000D02*
X141030000Y-88515000D01*
X141030000Y-88515000D02*
X141030000Y-87045363D01*
X141030000Y-87045363D02*
X139652330Y-87045363D01*
X139652330Y-87045363D02*
X139652330Y-88515000D01*
G36*
X141030000Y-88515000D02*
G01*
X139652330Y-88515000D01*
X139652330Y-87045363D01*
X141030000Y-87045363D01*
X141030000Y-88515000D01*
G37*
X141030000Y-88515000D02*
X139652330Y-88515000D01*
X139652330Y-87045363D01*
X141030000Y-87045363D01*
X141030000Y-88515000D01*
X137679953Y-90580000D02*
X139060000Y-90580000D01*
X139060000Y-90580000D02*
X139060000Y-89111560D01*
X139060000Y-89111560D02*
X137679953Y-89111560D01*
X137679953Y-89111560D02*
X137679953Y-90580000D01*
G36*
X139060000Y-90580000D02*
G01*
X137679953Y-90580000D01*
X137679953Y-89111560D01*
X139060000Y-89111560D01*
X139060000Y-90580000D01*
G37*
X139060000Y-90580000D02*
X137679953Y-90580000D01*
X137679953Y-89111560D01*
X139060000Y-89111560D01*
X139060000Y-90580000D01*
X141624830Y-86455000D02*
X143000000Y-86455000D01*
X143000000Y-86455000D02*
X143000000Y-84982800D01*
X143000000Y-84982800D02*
X141624830Y-84982800D01*
X141624830Y-84982800D02*
X141624830Y-86455000D01*
G36*
X143000000Y-86455000D02*
G01*
X141624830Y-86455000D01*
X141624830Y-84982800D01*
X143000000Y-84982800D01*
X143000000Y-86455000D01*
G37*
X143000000Y-86455000D02*
X141624830Y-86455000D01*
X141624830Y-84982800D01*
X143000000Y-84982800D01*
X143000000Y-86455000D01*
X141626460Y-88515000D02*
X143000000Y-88515000D01*
X143000000Y-88515000D02*
X143000000Y-87045491D01*
X143000000Y-87045491D02*
X141626460Y-87045491D01*
X141626460Y-87045491D02*
X141626460Y-88515000D01*
G36*
X143000000Y-88515000D02*
G01*
X141626460Y-88515000D01*
X141626460Y-87045491D01*
X143000000Y-87045491D01*
X143000000Y-88515000D01*
G37*
X143000000Y-88515000D02*
X141626460Y-88515000D01*
X141626460Y-87045491D01*
X143000000Y-87045491D01*
X143000000Y-88515000D01*
X143599630Y-88515000D02*
X144970000Y-88515000D01*
X144970000Y-88515000D02*
X144970000Y-87045487D01*
X144970000Y-87045487D02*
X143599630Y-87045487D01*
X143599630Y-87045487D02*
X143599630Y-88515000D01*
G36*
X144970000Y-88515000D02*
G01*
X143599630Y-88515000D01*
X143599630Y-87045487D01*
X144970000Y-87045487D01*
X144970000Y-88515000D01*
G37*
X144970000Y-88515000D02*
X143599630Y-88515000D01*
X143599630Y-87045487D01*
X144970000Y-87045487D01*
X144970000Y-88515000D01*
X137679859Y-88515000D02*
X139060000Y-88515000D01*
X139060000Y-88515000D02*
X139060000Y-87045591D01*
X139060000Y-87045591D02*
X137679859Y-87045591D01*
X137679859Y-87045591D02*
X137679859Y-88515000D01*
G36*
X139060000Y-88515000D02*
G01*
X137679859Y-88515000D01*
X137679859Y-87045591D01*
X139060000Y-87045591D01*
X139060000Y-88515000D01*
G37*
X139060000Y-88515000D02*
X137679859Y-88515000D01*
X137679859Y-87045591D01*
X139060000Y-87045591D01*
X139060000Y-88515000D01*
X141624090Y-90580000D02*
X143000000Y-90580000D01*
X143000000Y-90580000D02*
X143000000Y-89112500D01*
X143000000Y-89112500D02*
X141624090Y-89112500D01*
X141624090Y-89112500D02*
X141624090Y-90580000D01*
G36*
X143000000Y-90580000D02*
G01*
X141624090Y-90580000D01*
X141624090Y-89112500D01*
X143000000Y-89112500D01*
X143000000Y-90580000D01*
G37*
X143000000Y-90580000D02*
X141624090Y-90580000D01*
X141624090Y-89112500D01*
X143000000Y-89112500D01*
X143000000Y-90580000D01*
X143594430Y-90580000D02*
X144970000Y-90580000D01*
X144970000Y-90580000D02*
X144970000Y-89111790D01*
X144970000Y-89111790D02*
X143594430Y-89111790D01*
X143594430Y-89111790D02*
X143594430Y-90580000D01*
G36*
X144970000Y-90580000D02*
G01*
X143594430Y-90580000D01*
X143594430Y-89111790D01*
X144970000Y-89111790D01*
X144970000Y-90580000D01*
G37*
X144970000Y-90580000D02*
X143594430Y-90580000D01*
X143594430Y-89111790D01*
X144970000Y-89111790D01*
X144970000Y-90580000D01*
X137679928Y-84390000D02*
X139060000Y-84390000D01*
X139060000Y-84390000D02*
X139060000Y-82916130D01*
X139060000Y-82916130D02*
X137679928Y-82916130D01*
X137679928Y-82916130D02*
X137679928Y-84390000D01*
G36*
X139060000Y-84390000D02*
G01*
X137679928Y-84390000D01*
X137679928Y-82916130D01*
X139060000Y-82916130D01*
X139060000Y-84390000D01*
G37*
X139060000Y-84390000D02*
X137679928Y-84390000D01*
X137679928Y-82916130D01*
X139060000Y-82916130D01*
X139060000Y-84390000D01*
X139651310Y-90580000D02*
X141030000Y-90580000D01*
X141030000Y-90580000D02*
X141030000Y-89111630D01*
X141030000Y-89111630D02*
X139651310Y-89111630D01*
X139651310Y-89111630D02*
X139651310Y-90580000D01*
G36*
X141030000Y-90580000D02*
G01*
X139651310Y-90580000D01*
X139651310Y-89111630D01*
X141030000Y-89111630D01*
X141030000Y-90580000D01*
G37*
X141030000Y-90580000D02*
X139651310Y-90580000D01*
X139651310Y-89111630D01*
X141030000Y-89111630D01*
X141030000Y-90580000D01*
%TO.C,VR2*%
X137679953Y-103830000D02*
X139060000Y-103830000D01*
X139060000Y-103830000D02*
X139060000Y-102361560D01*
X139060000Y-102361560D02*
X137679953Y-102361560D01*
X137679953Y-102361560D02*
X137679953Y-103830000D01*
G36*
X139060000Y-103830000D02*
G01*
X137679953Y-103830000D01*
X137679953Y-102361560D01*
X139060000Y-102361560D01*
X139060000Y-103830000D01*
G37*
X139060000Y-103830000D02*
X137679953Y-103830000D01*
X137679953Y-102361560D01*
X139060000Y-102361560D01*
X139060000Y-103830000D01*
X141624830Y-99705000D02*
X143000000Y-99705000D01*
X143000000Y-99705000D02*
X143000000Y-98232800D01*
X143000000Y-98232800D02*
X141624830Y-98232800D01*
X141624830Y-98232800D02*
X141624830Y-99705000D01*
G36*
X143000000Y-99705000D02*
G01*
X141624830Y-99705000D01*
X141624830Y-98232800D01*
X143000000Y-98232800D01*
X143000000Y-99705000D01*
G37*
X143000000Y-99705000D02*
X141624830Y-99705000D01*
X141624830Y-98232800D01*
X143000000Y-98232800D01*
X143000000Y-99705000D01*
X139651560Y-99705000D02*
X141030000Y-99705000D01*
X141030000Y-99705000D02*
X141030000Y-98233550D01*
X141030000Y-98233550D02*
X139651560Y-98233550D01*
X139651560Y-98233550D02*
X139651560Y-99705000D01*
G36*
X141030000Y-99705000D02*
G01*
X139651560Y-99705000D01*
X139651560Y-98233550D01*
X141030000Y-98233550D01*
X141030000Y-99705000D01*
G37*
X141030000Y-99705000D02*
X139651560Y-99705000D01*
X139651560Y-98233550D01*
X141030000Y-98233550D01*
X141030000Y-99705000D01*
X143600260Y-97640000D02*
X144970000Y-97640000D01*
X144970000Y-97640000D02*
X144970000Y-96163270D01*
X144970000Y-96163270D02*
X143600260Y-96163270D01*
X143600260Y-96163270D02*
X143600260Y-97640000D01*
G36*
X144970000Y-97640000D02*
G01*
X143600260Y-97640000D01*
X143600260Y-96163270D01*
X144970000Y-96163270D01*
X144970000Y-97640000D01*
G37*
X144970000Y-97640000D02*
X143600260Y-97640000D01*
X143600260Y-96163270D01*
X144970000Y-96163270D01*
X144970000Y-97640000D01*
X137679928Y-97640000D02*
X139060000Y-97640000D01*
X139060000Y-97640000D02*
X139060000Y-96166130D01*
X139060000Y-96166130D02*
X137679928Y-96166130D01*
X137679928Y-96166130D02*
X137679928Y-97640000D01*
G36*
X139060000Y-97640000D02*
G01*
X137679928Y-97640000D01*
X137679928Y-96166130D01*
X139060000Y-96166130D01*
X139060000Y-97640000D01*
G37*
X139060000Y-97640000D02*
X137679928Y-97640000D01*
X137679928Y-96166130D01*
X139060000Y-96166130D01*
X139060000Y-97640000D01*
X141626490Y-97640000D02*
X143000000Y-97640000D01*
X143000000Y-97640000D02*
X143000000Y-96163580D01*
X143000000Y-96163580D02*
X141626490Y-96163580D01*
X141626490Y-96163580D02*
X141626490Y-97640000D01*
G36*
X143000000Y-97640000D02*
G01*
X141626490Y-97640000D01*
X141626490Y-96163580D01*
X143000000Y-96163580D01*
X143000000Y-97640000D01*
G37*
X143000000Y-97640000D02*
X141626490Y-97640000D01*
X141626490Y-96163580D01*
X143000000Y-96163580D01*
X143000000Y-97640000D01*
X139652330Y-101765000D02*
X141030000Y-101765000D01*
X141030000Y-101765000D02*
X141030000Y-100295363D01*
X141030000Y-100295363D02*
X139652330Y-100295363D01*
X139652330Y-100295363D02*
X139652330Y-101765000D01*
G36*
X141030000Y-101765000D02*
G01*
X139652330Y-101765000D01*
X139652330Y-100295363D01*
X141030000Y-100295363D01*
X141030000Y-101765000D01*
G37*
X141030000Y-101765000D02*
X139652330Y-101765000D01*
X139652330Y-100295363D01*
X141030000Y-100295363D01*
X141030000Y-101765000D01*
X139652330Y-97640000D02*
X141030000Y-97640000D01*
X141030000Y-97640000D02*
X141030000Y-96165300D01*
X141030000Y-96165300D02*
X139652330Y-96165300D01*
X139652330Y-96165300D02*
X139652330Y-97640000D01*
G36*
X141030000Y-97640000D02*
G01*
X139652330Y-97640000D01*
X139652330Y-96165300D01*
X141030000Y-96165300D01*
X141030000Y-97640000D01*
G37*
X141030000Y-97640000D02*
X139652330Y-97640000D01*
X139652330Y-96165300D01*
X141030000Y-96165300D01*
X141030000Y-97640000D01*
X139651310Y-103830000D02*
X141030000Y-103830000D01*
X141030000Y-103830000D02*
X141030000Y-102361630D01*
X141030000Y-102361630D02*
X139651310Y-102361630D01*
X139651310Y-102361630D02*
X139651310Y-103830000D01*
G36*
X141030000Y-103830000D02*
G01*
X139651310Y-103830000D01*
X139651310Y-102361630D01*
X141030000Y-102361630D01*
X141030000Y-103830000D01*
G37*
X141030000Y-103830000D02*
X139651310Y-103830000D01*
X139651310Y-102361630D01*
X141030000Y-102361630D01*
X141030000Y-103830000D01*
X141626460Y-101765000D02*
X143000000Y-101765000D01*
X143000000Y-101765000D02*
X143000000Y-100295491D01*
X143000000Y-100295491D02*
X141626460Y-100295491D01*
X141626460Y-100295491D02*
X141626460Y-101765000D01*
G36*
X143000000Y-101765000D02*
G01*
X141626460Y-101765000D01*
X141626460Y-100295491D01*
X143000000Y-100295491D01*
X143000000Y-101765000D01*
G37*
X143000000Y-101765000D02*
X141626460Y-101765000D01*
X141626460Y-100295491D01*
X143000000Y-100295491D01*
X143000000Y-101765000D01*
X137679859Y-101765000D02*
X139060000Y-101765000D01*
X139060000Y-101765000D02*
X139060000Y-100295591D01*
X139060000Y-100295591D02*
X137679859Y-100295591D01*
X137679859Y-100295591D02*
X137679859Y-101765000D01*
G36*
X139060000Y-101765000D02*
G01*
X137679859Y-101765000D01*
X137679859Y-100295591D01*
X139060000Y-100295591D01*
X139060000Y-101765000D01*
G37*
X139060000Y-101765000D02*
X137679859Y-101765000D01*
X137679859Y-100295591D01*
X139060000Y-100295591D01*
X139060000Y-101765000D01*
X143593590Y-99705000D02*
X144970000Y-99705000D01*
X144970000Y-99705000D02*
X144970000Y-98233920D01*
X144970000Y-98233920D02*
X143593590Y-98233920D01*
X143593590Y-98233920D02*
X143593590Y-99705000D01*
G36*
X144970000Y-99705000D02*
G01*
X143593590Y-99705000D01*
X143593590Y-98233920D01*
X144970000Y-98233920D01*
X144970000Y-99705000D01*
G37*
X144970000Y-99705000D02*
X143593590Y-99705000D01*
X143593590Y-98233920D01*
X144970000Y-98233920D01*
X144970000Y-99705000D01*
X143599630Y-101765000D02*
X144970000Y-101765000D01*
X144970000Y-101765000D02*
X144970000Y-100295487D01*
X144970000Y-100295487D02*
X143599630Y-100295487D01*
X143599630Y-100295487D02*
X143599630Y-101765000D01*
G36*
X144970000Y-101765000D02*
G01*
X143599630Y-101765000D01*
X143599630Y-100295487D01*
X144970000Y-100295487D01*
X144970000Y-101765000D01*
G37*
X144970000Y-101765000D02*
X143599630Y-101765000D01*
X143599630Y-100295487D01*
X144970000Y-100295487D01*
X144970000Y-101765000D01*
X137679937Y-99705000D02*
X139060000Y-99705000D01*
X139060000Y-99705000D02*
X139060000Y-98233440D01*
X139060000Y-98233440D02*
X137679937Y-98233440D01*
X137679937Y-98233440D02*
X137679937Y-99705000D01*
G36*
X139060000Y-99705000D02*
G01*
X137679937Y-99705000D01*
X137679937Y-98233440D01*
X139060000Y-98233440D01*
X139060000Y-99705000D01*
G37*
X139060000Y-99705000D02*
X137679937Y-99705000D01*
X137679937Y-98233440D01*
X139060000Y-98233440D01*
X139060000Y-99705000D01*
X143594430Y-103830000D02*
X144970000Y-103830000D01*
X144970000Y-103830000D02*
X144970000Y-102361790D01*
X144970000Y-102361790D02*
X143594430Y-102361790D01*
X143594430Y-102361790D02*
X143594430Y-103830000D01*
G36*
X144970000Y-103830000D02*
G01*
X143594430Y-103830000D01*
X143594430Y-102361790D01*
X144970000Y-102361790D01*
X144970000Y-103830000D01*
G37*
X144970000Y-103830000D02*
X143594430Y-103830000D01*
X143594430Y-102361790D01*
X144970000Y-102361790D01*
X144970000Y-103830000D01*
X141624090Y-103830000D02*
X143000000Y-103830000D01*
X143000000Y-103830000D02*
X143000000Y-102362500D01*
X143000000Y-102362500D02*
X141624090Y-102362500D01*
X141624090Y-102362500D02*
X141624090Y-103830000D01*
G36*
X143000000Y-103830000D02*
G01*
X141624090Y-103830000D01*
X141624090Y-102362500D01*
X143000000Y-102362500D01*
X143000000Y-103830000D01*
G37*
X143000000Y-103830000D02*
X141624090Y-103830000D01*
X141624090Y-102362500D01*
X143000000Y-102362500D01*
X143000000Y-103830000D01*
%TO.C,VR3*%
X119265000Y-120347670D02*
X119265000Y-118970000D01*
X119265000Y-118970000D02*
X117795363Y-118970000D01*
X117795363Y-118970000D02*
X117795363Y-120347670D01*
X117795363Y-120347670D02*
X119265000Y-120347670D01*
G36*
X119265000Y-120347670D02*
G01*
X117795363Y-120347670D01*
X117795363Y-118970000D01*
X119265000Y-118970000D01*
X119265000Y-120347670D01*
G37*
X119265000Y-120347670D02*
X117795363Y-120347670D01*
X117795363Y-118970000D01*
X119265000Y-118970000D01*
X119265000Y-120347670D01*
X119265000Y-122320141D02*
X119265000Y-120940000D01*
X119265000Y-120940000D02*
X117795591Y-120940000D01*
X117795591Y-120940000D02*
X117795591Y-122320141D01*
X117795591Y-122320141D02*
X119265000Y-122320141D01*
G36*
X119265000Y-122320141D02*
G01*
X117795591Y-122320141D01*
X117795591Y-120940000D01*
X119265000Y-120940000D01*
X119265000Y-122320141D01*
G37*
X119265000Y-122320141D02*
X117795591Y-122320141D01*
X117795591Y-120940000D01*
X119265000Y-120940000D01*
X119265000Y-122320141D01*
X121330000Y-120348690D02*
X121330000Y-118970000D01*
X121330000Y-118970000D02*
X119861630Y-118970000D01*
X119861630Y-118970000D02*
X119861630Y-120348690D01*
X119861630Y-120348690D02*
X121330000Y-120348690D01*
G36*
X121330000Y-120348690D02*
G01*
X119861630Y-120348690D01*
X119861630Y-118970000D01*
X121330000Y-118970000D01*
X121330000Y-120348690D01*
G37*
X121330000Y-120348690D02*
X119861630Y-120348690D01*
X119861630Y-118970000D01*
X121330000Y-118970000D01*
X121330000Y-120348690D01*
X117205000Y-116406410D02*
X117205000Y-115030000D01*
X117205000Y-115030000D02*
X115733920Y-115030000D01*
X115733920Y-115030000D02*
X115733920Y-116406410D01*
X115733920Y-116406410D02*
X117205000Y-116406410D01*
G36*
X117205000Y-116406410D02*
G01*
X115733920Y-116406410D01*
X115733920Y-115030000D01*
X117205000Y-115030000D01*
X117205000Y-116406410D01*
G37*
X117205000Y-116406410D02*
X115733920Y-116406410D01*
X115733920Y-115030000D01*
X117205000Y-115030000D01*
X117205000Y-116406410D01*
X119265000Y-116400370D02*
X119265000Y-115030000D01*
X119265000Y-115030000D02*
X117795487Y-115030000D01*
X117795487Y-115030000D02*
X117795487Y-116400370D01*
X117795487Y-116400370D02*
X119265000Y-116400370D01*
G36*
X119265000Y-116400370D02*
G01*
X117795487Y-116400370D01*
X117795487Y-115030000D01*
X119265000Y-115030000D01*
X119265000Y-116400370D01*
G37*
X119265000Y-116400370D02*
X117795487Y-116400370D01*
X117795487Y-115030000D01*
X119265000Y-115030000D01*
X119265000Y-116400370D01*
X115140000Y-122320072D02*
X115140000Y-120940000D01*
X115140000Y-120940000D02*
X113666130Y-120940000D01*
X113666130Y-120940000D02*
X113666130Y-122320072D01*
X113666130Y-122320072D02*
X115140000Y-122320072D01*
G36*
X115140000Y-122320072D02*
G01*
X113666130Y-122320072D01*
X113666130Y-120940000D01*
X115140000Y-120940000D01*
X115140000Y-122320072D01*
G37*
X115140000Y-122320072D02*
X113666130Y-122320072D01*
X113666130Y-120940000D01*
X115140000Y-120940000D01*
X115140000Y-122320072D01*
X115140000Y-118373510D02*
X115140000Y-117000000D01*
X115140000Y-117000000D02*
X113663580Y-117000000D01*
X113663580Y-117000000D02*
X113663580Y-118373510D01*
X113663580Y-118373510D02*
X115140000Y-118373510D01*
G36*
X115140000Y-118373510D02*
G01*
X113663580Y-118373510D01*
X113663580Y-117000000D01*
X115140000Y-117000000D01*
X115140000Y-118373510D01*
G37*
X115140000Y-118373510D02*
X113663580Y-118373510D01*
X113663580Y-117000000D01*
X115140000Y-117000000D01*
X115140000Y-118373510D01*
X119265000Y-118373540D02*
X119265000Y-117000000D01*
X119265000Y-117000000D02*
X117795491Y-117000000D01*
X117795491Y-117000000D02*
X117795491Y-118373540D01*
X117795491Y-118373540D02*
X119265000Y-118373540D01*
G36*
X119265000Y-118373540D02*
G01*
X117795491Y-118373540D01*
X117795491Y-117000000D01*
X119265000Y-117000000D01*
X119265000Y-118373540D01*
G37*
X119265000Y-118373540D02*
X117795491Y-118373540D01*
X117795491Y-117000000D01*
X119265000Y-117000000D01*
X119265000Y-118373540D01*
X115140000Y-120347670D02*
X115140000Y-118970000D01*
X115140000Y-118970000D02*
X113665300Y-118970000D01*
X113665300Y-118970000D02*
X113665300Y-120347670D01*
X113665300Y-120347670D02*
X115140000Y-120347670D01*
G36*
X115140000Y-120347670D02*
G01*
X113665300Y-120347670D01*
X113665300Y-118970000D01*
X115140000Y-118970000D01*
X115140000Y-120347670D01*
G37*
X115140000Y-120347670D02*
X113665300Y-120347670D01*
X113665300Y-118970000D01*
X115140000Y-118970000D01*
X115140000Y-120347670D01*
X115140000Y-116399740D02*
X115140000Y-115030000D01*
X115140000Y-115030000D02*
X113663270Y-115030000D01*
X113663270Y-115030000D02*
X113663270Y-116399740D01*
X113663270Y-116399740D02*
X115140000Y-116399740D01*
G36*
X115140000Y-116399740D02*
G01*
X113663270Y-116399740D01*
X113663270Y-115030000D01*
X115140000Y-115030000D01*
X115140000Y-116399740D01*
G37*
X115140000Y-116399740D02*
X113663270Y-116399740D01*
X113663270Y-115030000D01*
X115140000Y-115030000D01*
X115140000Y-116399740D01*
X117205000Y-122320063D02*
X117205000Y-120940000D01*
X117205000Y-120940000D02*
X115733440Y-120940000D01*
X115733440Y-120940000D02*
X115733440Y-122320063D01*
X115733440Y-122320063D02*
X117205000Y-122320063D01*
G36*
X117205000Y-122320063D02*
G01*
X115733440Y-122320063D01*
X115733440Y-120940000D01*
X117205000Y-120940000D01*
X117205000Y-122320063D01*
G37*
X117205000Y-122320063D02*
X115733440Y-122320063D01*
X115733440Y-120940000D01*
X117205000Y-120940000D01*
X117205000Y-122320063D01*
X117205000Y-120348440D02*
X117205000Y-118970000D01*
X117205000Y-118970000D02*
X115733550Y-118970000D01*
X115733550Y-118970000D02*
X115733550Y-120348440D01*
X115733550Y-120348440D02*
X117205000Y-120348440D01*
G36*
X117205000Y-120348440D02*
G01*
X115733550Y-120348440D01*
X115733550Y-118970000D01*
X117205000Y-118970000D01*
X117205000Y-120348440D01*
G37*
X117205000Y-120348440D02*
X115733550Y-120348440D01*
X115733550Y-118970000D01*
X117205000Y-118970000D01*
X117205000Y-120348440D01*
X121330000Y-116405570D02*
X121330000Y-115030000D01*
X121330000Y-115030000D02*
X119861790Y-115030000D01*
X119861790Y-115030000D02*
X119861790Y-116405570D01*
X119861790Y-116405570D02*
X121330000Y-116405570D01*
G36*
X121330000Y-116405570D02*
G01*
X119861790Y-116405570D01*
X119861790Y-115030000D01*
X121330000Y-115030000D01*
X121330000Y-116405570D01*
G37*
X121330000Y-116405570D02*
X119861790Y-116405570D01*
X119861790Y-115030000D01*
X121330000Y-115030000D01*
X121330000Y-116405570D01*
X117205000Y-118375170D02*
X117205000Y-117000000D01*
X117205000Y-117000000D02*
X115732800Y-117000000D01*
X115732800Y-117000000D02*
X115732800Y-118375170D01*
X115732800Y-118375170D02*
X117205000Y-118375170D01*
G36*
X117205000Y-118375170D02*
G01*
X115732800Y-118375170D01*
X115732800Y-117000000D01*
X117205000Y-117000000D01*
X117205000Y-118375170D01*
G37*
X117205000Y-118375170D02*
X115732800Y-118375170D01*
X115732800Y-117000000D01*
X117205000Y-117000000D01*
X117205000Y-118375170D01*
X121330000Y-122320047D02*
X121330000Y-120940000D01*
X121330000Y-120940000D02*
X119861560Y-120940000D01*
X119861560Y-120940000D02*
X119861560Y-122320047D01*
X119861560Y-122320047D02*
X121330000Y-122320047D01*
G36*
X121330000Y-122320047D02*
G01*
X119861560Y-122320047D01*
X119861560Y-120940000D01*
X121330000Y-120940000D01*
X121330000Y-122320047D01*
G37*
X121330000Y-122320047D02*
X119861560Y-122320047D01*
X119861560Y-120940000D01*
X121330000Y-120940000D01*
X121330000Y-122320047D01*
X121330000Y-118375910D02*
X121330000Y-117000000D01*
X121330000Y-117000000D02*
X119862500Y-117000000D01*
X119862500Y-117000000D02*
X119862500Y-118375910D01*
X119862500Y-118375910D02*
X121330000Y-118375910D01*
G36*
X121330000Y-118375910D02*
G01*
X119862500Y-118375910D01*
X119862500Y-117000000D01*
X121330000Y-117000000D01*
X121330000Y-118375910D01*
G37*
X121330000Y-118375910D02*
X119862500Y-118375910D01*
X119862500Y-117000000D01*
X121330000Y-117000000D01*
X121330000Y-118375910D01*
%TD*%
D11*
%TO.C,VR1*%
X131050000Y-89290000D03*
X131050000Y-84210000D03*
%TD*%
%TO.C,VR2*%
X131050000Y-102540000D03*
X131050000Y-97460000D03*
%TD*%
D12*
%TO.C,VR3*%
X120040000Y-128950000D03*
X114960000Y-128950000D03*
%TD*%
M02*
