M48
; DRILL file {KiCad (5.1.10)-1} date 04/09/22 19:23:52
; FORMAT={-:-/ absolute / metric / decimal}
; #@! TF.CreationDate,2022-04-09T19:23:52-04:00
; #@! TF.GenerationSoftware,Kicad,Pcbnew,(5.1.10)-1
; #@! TF.FileFunction,Plated,1,2,PTH
FMAT,2
METRIC
T1C0.400
T2C0.600
T3C0.800
T4C0.900
T5C1.000
T6C1.300
%
G90
G05
T1
X105.2Y-78.8
X105.8Y-93.8
X127.8Y-95.6
X128.6Y-109.8
X129.6Y-81.8
X140.4Y-79.4
X156.0Y-84.4
T2
X146.2Y-99.4
X146.2Y-100.9
T3
X122.0Y-82.4
X127.0Y-82.4
T4
X109.88Y-93.22
X109.88Y-95.76
X109.88Y-98.3
X109.88Y-100.84
X109.88Y-103.38
X109.88Y-105.92
X109.88Y-108.46
X109.88Y-111.0
X109.88Y-113.54
X109.88Y-116.08
X109.88Y-118.62
X109.88Y-121.16
X109.88Y-123.7
X109.88Y-126.24
X109.88Y-128.78
X125.12Y-93.22
X125.12Y-95.76
X125.12Y-98.3
X125.12Y-100.84
X125.12Y-103.38
X125.12Y-105.92
X125.12Y-108.46
X125.12Y-111.0
X125.12Y-113.54
X125.12Y-116.08
X125.12Y-118.62
X125.12Y-121.16
X125.12Y-123.7
X125.12Y-126.24
X125.12Y-128.78
T5
X103.2Y-91.0
X103.2Y-93.54
X103.2Y-96.08
X103.2Y-98.62
X131.25Y-108.3
X131.25Y-110.84
X131.25Y-113.38
X131.25Y-115.92
X131.25Y-118.46
X131.25Y-121.0
X131.25Y-123.54
X131.25Y-126.08
X131.25Y-128.62
X131.25Y-131.16
X140.92Y-74.5
X140.92Y-77.04
X143.46Y-74.5
X143.46Y-77.04
X146.0Y-74.5
X146.0Y-77.04
X151.0Y-79.4
X151.0Y-81.94
X151.0Y-84.48
X151.0Y-87.02
X151.0Y-89.56
X151.0Y-92.1
X151.0Y-94.64
X151.0Y-97.18
X151.0Y-99.72
X151.0Y-102.26
X151.0Y-104.8
X151.0Y-107.34
X151.0Y-109.88
X151.0Y-112.42
X151.0Y-114.96
X151.0Y-117.5
X151.0Y-120.04
X151.0Y-122.58
X151.0Y-125.12
X151.0Y-127.66
X153.54Y-79.4
X153.54Y-81.94
X153.54Y-84.48
X153.54Y-87.02
X153.54Y-89.56
X153.54Y-92.1
X153.54Y-94.64
X153.54Y-97.18
X153.54Y-99.72
X153.54Y-102.26
X153.54Y-104.8
X153.54Y-107.34
X153.54Y-109.88
X153.54Y-112.42
X153.54Y-114.96
X153.54Y-117.5
X153.54Y-120.04
X153.54Y-122.58
X153.54Y-125.12
X153.54Y-127.66
T6
X110.0Y-74.5
X115.0Y-74.5
T0
M30
