%TF.GenerationSoftware,KiCad,Pcbnew,(6.0.2)*%
%TF.CreationDate,2022-04-29T01:07:20-04:00*%
%TF.ProjectId,Spacecraft ATmega328 MOSFET,53706163-6563-4726-9166-742041546d65,rev?*%
%TF.SameCoordinates,Original*%
%TF.FileFunction,Copper,L1,Top*%
%TF.FilePolarity,Positive*%
%FSLAX46Y46*%
G04 Gerber Fmt 4.6, Leading zero omitted, Abs format (unit mm)*
G04 Created by KiCad (PCBNEW (6.0.2)) date 2022-04-29 01:07:20*
%MOMM*%
%LPD*%
G01*
G04 APERTURE LIST*
G04 Aperture macros list*
%AMRoundRect*
0 Rectangle with rounded corners*
0 $1 Rounding radius*
0 $2 $3 $4 $5 $6 $7 $8 $9 X,Y pos of 4 corners*
0 Add a 4 corners polygon primitive as box body*
4,1,4,$2,$3,$4,$5,$6,$7,$8,$9,$2,$3,0*
0 Add four circle primitives for the rounded corners*
1,1,$1+$1,$2,$3*
1,1,$1+$1,$4,$5*
1,1,$1+$1,$6,$7*
1,1,$1+$1,$8,$9*
0 Add four rect primitives between the rounded corners*
20,1,$1+$1,$2,$3,$4,$5,0*
20,1,$1+$1,$4,$5,$6,$7,0*
20,1,$1+$1,$6,$7,$8,$9,0*
20,1,$1+$1,$8,$9,$2,$3,0*%
%AMRotRect*
0 Rectangle, with rotation*
0 The origin of the aperture is its center*
0 $1 length*
0 $2 width*
0 $3 Rotation angle, in degrees counterclockwise*
0 Add horizontal line*
21,1,$1,$2,0,0,$3*%
G04 Aperture macros list end*
%TA.AperFunction,SMDPad,CuDef*%
%ADD10RoundRect,0.225000X0.017678X-0.335876X0.335876X-0.017678X-0.017678X0.335876X-0.335876X0.017678X0*%
%TD*%
%TA.AperFunction,SMDPad,CuDef*%
%ADD11RoundRect,0.225000X0.250000X-0.225000X0.250000X0.225000X-0.250000X0.225000X-0.250000X-0.225000X0*%
%TD*%
%TA.AperFunction,SMDPad,CuDef*%
%ADD12RoundRect,0.225000X-0.335876X-0.017678X-0.017678X-0.335876X0.335876X0.017678X0.017678X0.335876X0*%
%TD*%
%TA.AperFunction,SMDPad,CuDef*%
%ADD13RoundRect,0.250000X-1.450000X0.312500X-1.450000X-0.312500X1.450000X-0.312500X1.450000X0.312500X0*%
%TD*%
%TA.AperFunction,ComponentPad*%
%ADD14R,1.700000X1.700000*%
%TD*%
%TA.AperFunction,ComponentPad*%
%ADD15O,1.700000X1.700000*%
%TD*%
%TA.AperFunction,SMDPad,CuDef*%
%ADD16RoundRect,0.250000X-0.503814X-0.132583X-0.132583X-0.503814X0.503814X0.132583X0.132583X0.503814X0*%
%TD*%
%TA.AperFunction,SMDPad,CuDef*%
%ADD17RoundRect,0.200000X0.053033X-0.335876X0.335876X-0.053033X-0.053033X0.335876X-0.335876X0.053033X0*%
%TD*%
%TA.AperFunction,SMDPad,CuDef*%
%ADD18RotRect,1.600000X0.550000X315.000000*%
%TD*%
%TA.AperFunction,SMDPad,CuDef*%
%ADD19RotRect,1.600000X0.550000X45.000000*%
%TD*%
%TA.AperFunction,SMDPad,CuDef*%
%ADD20R,2.000000X5.500000*%
%TD*%
%TA.AperFunction,SMDPad,CuDef*%
%ADD21R,1.250000X1.000000*%
%TD*%
%TA.AperFunction,SMDPad,CuDef*%
%ADD22RoundRect,0.225000X-0.250000X0.225000X-0.250000X-0.225000X0.250000X-0.225000X0.250000X0.225000X0*%
%TD*%
%TA.AperFunction,SMDPad,CuDef*%
%ADD23RoundRect,0.250000X0.450000X-0.262500X0.450000X0.262500X-0.450000X0.262500X-0.450000X-0.262500X0*%
%TD*%
%TA.AperFunction,SMDPad,CuDef*%
%ADD24RoundRect,0.041300X-0.253700X0.748700X-0.253700X-0.748700X0.253700X-0.748700X0.253700X0.748700X0*%
%TD*%
%TA.AperFunction,SMDPad,CuDef*%
%ADD25R,1.730000X0.960000*%
%TD*%
%TA.AperFunction,SMDPad,CuDef*%
%ADD26R,6.490000X5.630000*%
%TD*%
%TA.AperFunction,SMDPad,CuDef*%
%ADD27RoundRect,0.218750X-0.218750X-0.256250X0.218750X-0.256250X0.218750X0.256250X-0.218750X0.256250X0*%
%TD*%
%TA.AperFunction,ViaPad*%
%ADD28C,0.800000*%
%TD*%
%TA.AperFunction,Conductor*%
%ADD29C,0.250000*%
%TD*%
%TA.AperFunction,Conductor*%
%ADD30C,0.500000*%
%TD*%
G04 APERTURE END LIST*
D10*
%TO.P,C2,1*%
%TO.N,+5V*%
X114251992Y-77648008D03*
%TO.P,C2,2*%
%TO.N,GND*%
X115348008Y-76551992D03*
%TD*%
%TO.P,C1,1*%
%TO.N,+5V*%
X105151992Y-67948008D03*
%TO.P,C1,2*%
%TO.N,GND*%
X106248008Y-66851992D03*
%TD*%
%TO.P,C3,1*%
%TO.N,GND*%
X102651992Y-70448008D03*
%TO.P,C3,2*%
%TO.N,Net-(C3-Pad2)*%
X103748008Y-69351992D03*
%TD*%
D11*
%TO.P,C4,1*%
%TO.N,GND*%
X100550000Y-73575000D03*
%TO.P,C4,2*%
%TO.N,Net-(C4-Pad2)*%
X100550000Y-72025000D03*
%TD*%
D12*
%TO.P,C6,1*%
%TO.N,GND*%
X112851992Y-65051992D03*
%TO.P,C6,2*%
%TO.N,/Reset*%
X113948008Y-66148008D03*
%TD*%
D13*
%TO.P,D2,1*%
%TO.N,VCC*%
X98800000Y-80962500D03*
%TO.P,D2,2*%
%TO.N,/SOL1*%
X98800000Y-85237500D03*
%TD*%
D14*
%TO.P,J4,1*%
%TO.N,/LED*%
X104394000Y-90170000D03*
D15*
%TO.P,J4,2*%
%TO.N,GND*%
X106934000Y-90170000D03*
%TO.P,J4,3*%
%TO.N,+5V*%
X109474000Y-90170000D03*
%TD*%
D16*
%TO.P,R5,1*%
%TO.N,+5V*%
X114454765Y-63254765D03*
%TO.P,R5,2*%
%TO.N,/Reset*%
X115745235Y-64545235D03*
%TD*%
D17*
%TO.P,R7,1*%
%TO.N,GND*%
X100716637Y-69683363D03*
%TO.P,R7,2*%
%TO.N,Net-(D6-Pad1)*%
X101883363Y-68516637D03*
%TD*%
%TO.P,R8,1*%
%TO.N,GND*%
X103316637Y-67083363D03*
%TO.P,R8,2*%
%TO.N,Net-(D7-Pad1)*%
X104483363Y-65916637D03*
%TD*%
D18*
%TO.P,328p,1*%
%TO.N,Net-(U1-Pad1)*%
X109610695Y-67082897D03*
%TO.P,328p,2*%
%TO.N,Net-(U1-Pad2)*%
X109045010Y-67648583D03*
%TO.P,328p,3*%
%TO.N,GND*%
X108479324Y-68214268D03*
%TO.P,328p,4*%
%TO.N,+5V*%
X107913639Y-68779953D03*
%TO.P,328p,5*%
%TO.N,GND*%
X107347953Y-69345639D03*
%TO.P,328p,6*%
%TO.N,+5V*%
X106782268Y-69911324D03*
%TO.P,328p,7*%
%TO.N,Net-(C3-Pad2)*%
X106216583Y-70477010D03*
%TO.P,328p,8*%
%TO.N,Net-(C4-Pad2)*%
X105650897Y-71042695D03*
D19*
%TO.P,328p,9*%
%TO.N,/LED*%
X105650897Y-73093305D03*
%TO.P,328p,10*%
%TO.N,/Gate1*%
X106216583Y-73658990D03*
%TO.P,328p,11*%
%TO.N,/Gate2*%
X106782268Y-74224676D03*
%TO.P,328p,12*%
%TO.N,Net-(U1-Pad12)*%
X107347953Y-74790361D03*
%TO.P,328p,13*%
%TO.N,Net-(U1-Pad13)*%
X107913639Y-75356047D03*
%TO.P,328p,14*%
%TO.N,Net-(U1-Pad14)*%
X108479324Y-75921732D03*
%TO.P,328p,15*%
%TO.N,/MOSI*%
X109045010Y-76487417D03*
%TO.P,328p,16*%
%TO.N,/MISO*%
X109610695Y-77053103D03*
D18*
%TO.P,328p,17*%
%TO.N,/SCK*%
X111661305Y-77053103D03*
%TO.P,328p,18*%
%TO.N,+5V*%
X112226990Y-76487417D03*
%TO.P,328p,19*%
%TO.N,Net-(U1-Pad19)*%
X112792676Y-75921732D03*
%TO.P,328p,20*%
%TO.N,Net-(U1-Pad20)*%
X113358361Y-75356047D03*
%TO.P,328p,21*%
%TO.N,GND*%
X113924047Y-74790361D03*
%TO.P,328p,22*%
%TO.N,Net-(U1-Pad22)*%
X114489732Y-74224676D03*
%TO.P,328p,23*%
%TO.N,Net-(U1-Pad23)*%
X115055417Y-73658990D03*
%TO.P,328p,24*%
%TO.N,Net-(U1-Pad24)*%
X115621103Y-73093305D03*
D19*
%TO.P,328p,25*%
%TO.N,Net-(U1-Pad25)*%
X115621103Y-71042695D03*
%TO.P,328p,26*%
%TO.N,Net-(U1-Pad26)*%
X115055417Y-70477010D03*
%TO.P,328p,27*%
%TO.N,/SDA*%
X114489732Y-69911324D03*
%TO.P,328p,28*%
%TO.N,/SCL*%
X113924047Y-69345639D03*
%TO.P,328p,29*%
%TO.N,/Reset*%
X113358361Y-68779953D03*
%TO.P,328p,30*%
%TO.N,/RXD*%
X112792676Y-68214268D03*
%TO.P,328p,31*%
%TO.N,/TXD*%
X112226990Y-67648583D03*
%TO.P,328p,32*%
%TO.N,Net-(U1-Pad32)*%
X111661305Y-67082897D03*
%TD*%
D14*
%TO.P,J1,1*%
%TO.N,/SDA*%
X89408000Y-69088000D03*
D15*
%TO.P,J1,2*%
%TO.N,/SCL*%
X89408000Y-71628000D03*
%TO.P,J1,3*%
%TO.N,GND*%
X89408000Y-74168000D03*
%TO.P,J1,4*%
%TO.N,VCC*%
X89408000Y-76708000D03*
%TD*%
D14*
%TO.P,J5,1*%
%TO.N,VCC*%
X95504000Y-90170000D03*
D15*
%TO.P,J5,2*%
%TO.N,/SOL1*%
X98044000Y-90170000D03*
%TD*%
D20*
%TO.P,Y1,1*%
%TO.N,Net-(C3-Pad2)*%
X96012000Y-64770000D03*
%TO.P,Y1,2*%
%TO.N,Net-(C4-Pad2)*%
X96012000Y-74270000D03*
%TD*%
D14*
%TO.P,J3,1*%
%TO.N,/MISO*%
X89408000Y-83820000D03*
D15*
%TO.P,J3,2*%
%TO.N,+5V*%
X89408000Y-81280000D03*
%TO.P,J3,3*%
%TO.N,/SCK*%
X91948000Y-83820000D03*
%TO.P,J3,4*%
%TO.N,/MOSI*%
X91948000Y-81280000D03*
%TO.P,J3,5*%
%TO.N,/Reset*%
X94488000Y-83820000D03*
%TO.P,J3,6*%
%TO.N,GND*%
X94488000Y-81280000D03*
%TD*%
D17*
%TO.P,R6,1*%
%TO.N,GND*%
X107616637Y-65483363D03*
%TO.P,R6,2*%
%TO.N,Net-(D5-Pad1)*%
X108783363Y-64316637D03*
%TD*%
D21*
%TO.P,SW1,1*%
%TO.N,/Reset*%
X119300000Y-66325000D03*
%TO.P,SW1,2*%
%TO.N,GND*%
X119300000Y-74075000D03*
%TD*%
D11*
%TO.P,C7,1*%
%TO.N,+5V*%
X112700000Y-85275000D03*
%TO.P,C7,2*%
%TO.N,GND*%
X112700000Y-83725000D03*
%TD*%
D22*
%TO.P,C5,1*%
%TO.N,VCC*%
X112700000Y-80325000D03*
%TO.P,C5,2*%
%TO.N,GND*%
X112700000Y-81875000D03*
%TD*%
D23*
%TO.P,R2,1*%
%TO.N,/Gate1*%
X101350000Y-77762500D03*
%TO.P,R2,2*%
%TO.N,GND*%
X101350000Y-75937500D03*
%TD*%
D24*
%TO.P,U2,1*%
%TO.N,GND*%
X106045000Y-80350000D03*
%TO.P,U2,2*%
%TO.N,/Gate1*%
X104775000Y-80350000D03*
%TO.P,U2,3*%
%TO.N,GND*%
X103505000Y-80350000D03*
%TO.P,U2,4*%
%TO.N,/Gate2*%
X102235000Y-80350000D03*
%TO.P,U2,5*%
%TO.N,/SOL1*%
X102235000Y-85600000D03*
%TO.P,U2,6*%
X103505000Y-85600000D03*
%TO.P,U2,7*%
%TO.N,/SOL2*%
X104775000Y-85600000D03*
%TO.P,U2,8*%
X106045000Y-85600000D03*
%TD*%
D25*
%TO.P,VR1,1*%
%TO.N,VCC*%
X115154000Y-80519000D03*
%TO.P,VR1,3*%
%TO.N,+5V*%
X115154000Y-85089000D03*
D26*
%TO.P,VR1,4*%
%TO.N,GND*%
X122174000Y-82804000D03*
%TD*%
D27*
%TO.P,Rx,1*%
%TO.N,Net-(D7-Pad1)*%
X103462500Y-62400000D03*
%TO.P,Rx,2*%
%TO.N,/RXD*%
X105037500Y-62400000D03*
%TD*%
%TO.P,Tx,1*%
%TO.N,Net-(D6-Pad1)*%
X99662500Y-62400000D03*
%TO.P,Tx,2*%
%TO.N,/TXD*%
X101237500Y-62400000D03*
%TD*%
%TO.P,5V,1*%
%TO.N,Net-(D5-Pad1)*%
X107162500Y-62350000D03*
%TO.P,5V,2*%
%TO.N,+5V*%
X108737500Y-62350000D03*
%TD*%
D14*
%TO.P,Jv,1*%
%TO.N,VCC*%
X115316000Y-90170000D03*
D15*
%TO.P,Jv,2*%
%TO.N,/SOL2*%
X117856000Y-90170000D03*
%TD*%
D23*
%TO.P,R3,1*%
%TO.N,/Gate2*%
X104050000Y-77762500D03*
%TO.P,R3,2*%
%TO.N,GND*%
X104050000Y-75937500D03*
%TD*%
D13*
%TO.P,D3,1*%
%TO.N,VCC*%
X109200000Y-80862500D03*
%TO.P,D3,2*%
%TO.N,/SOL2*%
X109200000Y-85137500D03*
%TD*%
D14*
%TO.P,J2,1*%
%TO.N,/SDA*%
X123952000Y-69088000D03*
D15*
%TO.P,J2,2*%
%TO.N,/SCL*%
X123952000Y-71628000D03*
%TO.P,J2,3*%
%TO.N,GND*%
X123952000Y-74168000D03*
%TO.P,J2,4*%
%TO.N,VCC*%
X123952000Y-76708000D03*
%TD*%
D28*
%TO.N,+5V*%
X108950000Y-71200000D03*
%TO.N,GND*%
X99494158Y-75394158D03*
X101100000Y-65450000D03*
X111550000Y-82800000D03*
X110650000Y-65500000D03*
X97494438Y-78455562D03*
X110500394Y-68250394D03*
X105550000Y-78450000D03*
X99250000Y-69650000D03*
X124950000Y-79150000D03*
X106512299Y-65437701D03*
%TO.N,VCC*%
X115100000Y-79300000D03*
%TO.N,/Reset*%
X111218289Y-70322334D03*
%TO.N,/TXD*%
X110250000Y-70074500D03*
X101350000Y-64449989D03*
%TO.N,/RXD*%
X104918873Y-64494275D03*
X111450000Y-69350000D03*
%TO.N,/MISO*%
X108154424Y-71968363D03*
%TO.N,/SCK*%
X112450000Y-78900000D03*
%TO.N,/MOSI*%
X107600000Y-72800000D03*
%TO.N,/LED*%
X104400000Y-74225500D03*
%TO.N,/SDA*%
X116400000Y-69500000D03*
%TO.N,/SCL*%
X115675500Y-67100000D03*
%TD*%
D29*
%TO.N,+5V*%
X107150000Y-68000000D02*
X107150000Y-67900000D01*
D30*
X113387581Y-77648008D02*
X114251992Y-77648008D01*
D29*
X108850000Y-70000000D02*
X108850000Y-69716314D01*
X105151992Y-68281048D02*
X105151992Y-67948008D01*
X106782268Y-69911324D02*
X106782268Y-69932268D01*
D30*
X114251992Y-77648008D02*
X114698008Y-77648008D01*
D29*
X108450000Y-70400000D02*
X108850000Y-70000000D01*
X111795235Y-63254765D02*
X114454765Y-63254765D01*
D30*
X112226990Y-76487417D02*
X113387581Y-77648008D01*
D29*
X108000000Y-70850000D02*
X108450000Y-70400000D01*
X108850000Y-69716314D02*
X107913639Y-68779953D01*
D30*
X112700000Y-85275000D02*
X114968000Y-85275000D01*
X109474000Y-90170000D02*
X112700000Y-86944000D01*
D29*
X106782268Y-69911324D02*
X105151992Y-68281048D01*
D30*
X114968000Y-85275000D02*
X115154000Y-85089000D01*
X116850000Y-84500000D02*
X116261000Y-85089000D01*
D29*
X110799520Y-75059947D02*
X112226990Y-76487417D01*
D30*
X116850000Y-79800000D02*
X116850000Y-84500000D01*
D29*
X108737500Y-62350000D02*
X109642265Y-63254765D01*
D30*
X116261000Y-85089000D02*
X115154000Y-85089000D01*
D29*
X107150000Y-67900000D02*
X111795235Y-63254765D01*
X110799520Y-73563803D02*
X110799520Y-75059947D01*
X107700000Y-70850000D02*
X108000000Y-70850000D01*
X106782268Y-69932268D02*
X107700000Y-70850000D01*
X107913639Y-68779953D02*
X107913639Y-68763639D01*
D30*
X114698008Y-77648008D02*
X116850000Y-79800000D01*
D29*
X108950000Y-70900000D02*
X108450000Y-70400000D01*
D30*
X112700000Y-86944000D02*
X112700000Y-85275000D01*
D29*
X109642265Y-63254765D02*
X111795235Y-63254765D01*
X108950000Y-71200000D02*
X108950000Y-71714282D01*
X108950000Y-71200000D02*
X108950000Y-70900000D01*
X108950000Y-71714282D02*
X110799520Y-73563803D01*
X107913639Y-68763639D02*
X107150000Y-68000000D01*
%TO.N,GND*%
X115348008Y-76051992D02*
X115348008Y-76551992D01*
D30*
X122174000Y-82804000D02*
X122174000Y-81926000D01*
D29*
X99494158Y-75405842D02*
X99494158Y-75394158D01*
X103450000Y-66950000D02*
X106150000Y-66950000D01*
X92840000Y-77600000D02*
X97300000Y-77600000D01*
X110650000Y-65500000D02*
X112403984Y-65500000D01*
X106045000Y-79545000D02*
X106045000Y-80350000D01*
X102651992Y-70448008D02*
X101481282Y-70448008D01*
X105550000Y-79050000D02*
X105775000Y-79275000D01*
X105550000Y-79050000D02*
X105550000Y-78450000D01*
D30*
X122174000Y-81926000D02*
X124950000Y-79150000D01*
D29*
X106248008Y-68245694D02*
X106248008Y-66851992D01*
X112700000Y-81875000D02*
X112700000Y-82700000D01*
X100550000Y-75137500D02*
X101350000Y-75937500D01*
X119300000Y-74075000D02*
X117325000Y-74075000D01*
X105775000Y-79275000D02*
X106045000Y-79545000D01*
X104050000Y-75937500D02*
X101350000Y-75937500D01*
X112700000Y-82800000D02*
X112700000Y-83725000D01*
X115348008Y-76214322D02*
X113924047Y-74790361D01*
X103505000Y-79545000D02*
X104000000Y-79050000D01*
X89408000Y-74168000D02*
X92840000Y-77600000D01*
X112700000Y-82700000D02*
X112700000Y-82800000D01*
X106248008Y-66851992D02*
X107616637Y-65483363D01*
X112403984Y-65500000D02*
X112851992Y-65051992D01*
X109065056Y-68800000D02*
X109950788Y-68800000D01*
X101683274Y-65450000D02*
X101100000Y-65450000D01*
X100012500Y-75937500D02*
X101350000Y-75937500D01*
X103505000Y-80350000D02*
X103505000Y-79545000D01*
X100550000Y-73575000D02*
X100550000Y-75137500D01*
X103316637Y-67083363D02*
X101683274Y-65450000D01*
X123859000Y-74075000D02*
X123952000Y-74168000D01*
X103316637Y-67083363D02*
X103450000Y-66950000D01*
X106150000Y-66950000D02*
X106248008Y-66851992D01*
X109950788Y-68800000D02*
X110500394Y-68250394D01*
X107570975Y-65437701D02*
X106512299Y-65437701D01*
X100716637Y-69683363D02*
X99283363Y-69683363D01*
X115348008Y-76551992D02*
X115348008Y-76214322D01*
X107347953Y-69345639D02*
X106248008Y-68245694D01*
X97300000Y-77600000D02*
X99494158Y-75405842D01*
X97494438Y-78455562D02*
X100012500Y-75937500D01*
X119300000Y-74075000D02*
X123859000Y-74075000D01*
X101481282Y-70448008D02*
X100716637Y-69683363D01*
X108479324Y-68214268D02*
X109065056Y-68800000D01*
X117325000Y-74075000D02*
X115348008Y-76051992D01*
X104000000Y-79050000D02*
X105550000Y-79050000D01*
X112700000Y-82800000D02*
X111550000Y-82800000D01*
X107616637Y-65483363D02*
X107570975Y-65437701D01*
X99283363Y-69683363D02*
X99250000Y-69650000D01*
%TO.N,Net-(C3-Pad2)*%
X103748008Y-69351992D02*
X103722967Y-69377033D01*
X101750000Y-69500000D02*
X97020000Y-64770000D01*
X103748008Y-69351992D02*
X105091565Y-69351992D01*
X102500000Y-69500000D02*
X101750000Y-69500000D01*
X103722967Y-69377033D02*
X102622967Y-69377033D01*
X105091565Y-69351992D02*
X106216583Y-70477010D01*
X102622967Y-69377033D02*
X102500000Y-69500000D01*
X97020000Y-64770000D02*
X96012000Y-64770000D01*
D30*
%TO.N,Net-(C4-Pad2)*%
X97900000Y-72000000D02*
X100525000Y-72000000D01*
X96012000Y-74270000D02*
X96012000Y-73888000D01*
X100525000Y-72000000D02*
X100550000Y-72025000D01*
X100550000Y-72025000D02*
X104668592Y-72025000D01*
X96012000Y-73888000D02*
X97900000Y-72000000D01*
X104668592Y-72025000D02*
X105650897Y-71042695D01*
%TO.N,VCC*%
X112700000Y-80325000D02*
X109737500Y-80325000D01*
X106100000Y-83550000D02*
X108787500Y-80862500D01*
D29*
X95630000Y-90170000D02*
X96600000Y-89200000D01*
D30*
X102150000Y-83550000D02*
X106100000Y-83550000D01*
X89408000Y-76708000D02*
X90950000Y-78250000D01*
X98800000Y-80962500D02*
X99562500Y-80962500D01*
X96087500Y-78250000D02*
X98800000Y-80962500D01*
D29*
X96600000Y-83162500D02*
X98800000Y-80962500D01*
D30*
X90950000Y-78250000D02*
X96087500Y-78250000D01*
D29*
X96600000Y-89200000D02*
X96600000Y-83162500D01*
D30*
X99562500Y-80962500D02*
X102150000Y-83550000D01*
X114960000Y-80325000D02*
X115154000Y-80519000D01*
X115154000Y-80519000D02*
X115154000Y-79354000D01*
X112700000Y-80325000D02*
X114960000Y-80325000D01*
D29*
X95504000Y-90170000D02*
X95630000Y-90170000D01*
D30*
X108787500Y-80862500D02*
X109200000Y-80862500D01*
X115154000Y-79354000D02*
X115100000Y-79300000D01*
X109737500Y-80325000D02*
X109200000Y-80862500D01*
D29*
%TO.N,/Reset*%
X113948008Y-66148008D02*
X113948008Y-68190306D01*
X115745235Y-64545235D02*
X117525000Y-66325000D01*
X113358361Y-68779953D02*
X113270047Y-68779953D01*
X117525000Y-66325000D02*
X119300000Y-66325000D01*
X111727666Y-70322334D02*
X111218289Y-70322334D01*
X113948008Y-68190306D02*
X113358361Y-68779953D01*
X115550781Y-64545235D02*
X113948008Y-66148008D01*
X113270047Y-68779953D02*
X111727666Y-70322334D01*
X115745235Y-64545235D02*
X115550781Y-64545235D01*
%TO.N,/SOL1*%
X98044000Y-90170000D02*
X100050000Y-88164000D01*
X98800000Y-85237500D02*
X101872500Y-85237500D01*
X100050000Y-88164000D02*
X100050000Y-86487500D01*
X103505000Y-85600000D02*
X102235000Y-85600000D01*
X101872500Y-85237500D02*
X102235000Y-85600000D01*
X100050000Y-86487500D02*
X98800000Y-85237500D01*
%TO.N,/SOL2*%
X106507500Y-85137500D02*
X106045000Y-85600000D01*
X104775000Y-85600000D02*
X106045000Y-85600000D01*
X108800000Y-91450000D02*
X116576000Y-91450000D01*
X116576000Y-91450000D02*
X117856000Y-90170000D01*
X109200000Y-88500000D02*
X108200000Y-89500000D01*
X108200000Y-89500000D02*
X108200000Y-90850000D01*
X109200000Y-85137500D02*
X109200000Y-88500000D01*
X109200000Y-85137500D02*
X106507500Y-85137500D01*
X108200000Y-90850000D02*
X108800000Y-91450000D01*
%TO.N,Net-(D5-Pad1)*%
X107162500Y-62695774D02*
X108783363Y-64316637D01*
X107162500Y-62350000D02*
X107162500Y-62695774D01*
%TO.N,/TXD*%
X101350000Y-62512500D02*
X101237500Y-62400000D01*
X110250000Y-69525386D02*
X110250000Y-70074500D01*
X112126803Y-67648583D02*
X110250000Y-69525386D01*
X101350000Y-64449989D02*
X101350000Y-62512500D01*
X112226990Y-67648583D02*
X112126803Y-67648583D01*
%TO.N,Net-(D6-Pad1)*%
X99662500Y-62400000D02*
X99662500Y-66712500D01*
X101466637Y-68516637D02*
X101883363Y-68516637D01*
X99662500Y-66712500D02*
X101466637Y-68516637D01*
%TO.N,Net-(D7-Pad1)*%
X103462500Y-62400000D02*
X103462500Y-64895774D01*
X103462500Y-64895774D02*
X104483363Y-65916637D01*
%TO.N,/RXD*%
X111656944Y-69350000D02*
X112792676Y-68214268D01*
X104918873Y-62518627D02*
X105037500Y-62400000D01*
X104918873Y-64494275D02*
X104918873Y-62518627D01*
X111450000Y-69350000D02*
X111656944Y-69350000D01*
%TO.N,/MISO*%
X110350000Y-73750000D02*
X110350000Y-76313798D01*
X108568363Y-71968363D02*
X110350000Y-73750000D01*
X110350000Y-76313798D02*
X109610695Y-77053103D01*
X108154424Y-71968363D02*
X108568363Y-71968363D01*
%TO.N,/SCK*%
X112450000Y-78900000D02*
X112450000Y-77841798D01*
X112450000Y-77841798D02*
X111661305Y-77053103D01*
%TO.N,/MOSI*%
X109900000Y-75632427D02*
X109045010Y-76487417D01*
X108700000Y-72800000D02*
X109900000Y-74000000D01*
X109900000Y-74000000D02*
X109900000Y-75632427D01*
X107600000Y-72800000D02*
X108700000Y-72800000D01*
%TO.N,/LED*%
X104518702Y-74225500D02*
X105650897Y-73093305D01*
X104400000Y-74225500D02*
X104518702Y-74225500D01*
%TO.N,/Gate1*%
X104738896Y-76850000D02*
X105574991Y-76013905D01*
X101350000Y-77762500D02*
X101350000Y-81200000D01*
X104550000Y-81700000D02*
X104775000Y-81475000D01*
X101350000Y-77762500D02*
X101787500Y-77762500D01*
X101350000Y-81200000D02*
X101850000Y-81700000D01*
X105574991Y-74300582D02*
X106216583Y-73658990D01*
X102700000Y-76850000D02*
X104738896Y-76850000D01*
X104775000Y-81475000D02*
X104775000Y-80350000D01*
X105574991Y-76013905D02*
X105574991Y-74300582D01*
X101787500Y-77762500D02*
X102700000Y-76850000D01*
X101850000Y-81700000D02*
X104550000Y-81700000D01*
%TO.N,/Gate2*%
X104050000Y-77762500D02*
X102235000Y-79577500D01*
X106024511Y-76200103D02*
X106024511Y-74982433D01*
X104462114Y-77762500D02*
X106024511Y-76200103D01*
X104050000Y-77762500D02*
X104462114Y-77762500D01*
X106024511Y-74982433D02*
X106782268Y-74224676D01*
X102235000Y-79577500D02*
X102235000Y-80350000D01*
%TO.N,/SDA*%
X123952000Y-69088000D02*
X123952000Y-68902000D01*
X114489732Y-69809788D02*
X114489732Y-69911324D01*
X123299520Y-68249520D02*
X116050000Y-68249520D01*
X115024760Y-69274760D02*
X114489732Y-69809788D01*
X123952000Y-68902000D02*
X123299520Y-68249520D01*
X116050000Y-69500000D02*
X115424760Y-68874760D01*
X116050000Y-68249520D02*
X115424760Y-68874760D01*
X116400000Y-69500000D02*
X116050000Y-69500000D01*
X115424760Y-68874760D02*
X115149760Y-69149760D01*
X115149760Y-69149760D02*
X115024760Y-69274760D01*
%TO.N,/SCL*%
X114609843Y-68659843D02*
X113924047Y-69345639D01*
X125400000Y-70180000D02*
X125400000Y-68186978D01*
X123952000Y-71628000D02*
X125400000Y-70180000D01*
X115469686Y-67800000D02*
X115309843Y-67959843D01*
X115309843Y-67959843D02*
X114609843Y-68659843D01*
X125400000Y-68186978D02*
X125013022Y-67800000D01*
X115675500Y-67594186D02*
X115309843Y-67959843D01*
X115675500Y-67100000D02*
X115675500Y-67594186D01*
X125013022Y-67800000D02*
X115469686Y-67800000D01*
%TD*%
M02*
