M48
; DRILL file {KiCad (6.0.2)} date Fri Apr 29 01:07:22 2022
; FORMAT={-:-/ absolute / inch / decimal}
; #@! TF.CreationDate,2022-04-29T01:07:22-04:00
; #@! TF.GenerationSoftware,Kicad,Pcbnew,(6.0.2)
; #@! TF.FileFunction,Plated,1,2,PTH
FMAT,2
INCH
; #@! TA.AperFunction,Plated,PTH,ViaDrill
T1C0.0157
; #@! TA.AperFunction,Plated,PTH,ComponentDrill
T2C0.0394
%
G90
G05
T1
X3.8384Y-3.0888
X3.9075Y-2.7421
X3.9171Y-2.9683
X3.9803Y-2.5768
X3.9902Y-2.5374
X4.1102Y-2.9223
X4.1307Y-2.5391
X4.1555Y-3.0886
X4.1934Y-2.5763
X4.2362Y-2.8661
X4.258Y-2.8334
X4.2894Y-2.8031
X4.3406Y-2.7588
X4.3504Y-2.687
X4.3563Y-2.5787
X4.3787Y-2.7686
X4.3878Y-2.7303
X4.3917Y-3.2598
X4.4272Y-3.1063
X4.5315Y-3.122
X4.5542Y-2.6417
X4.5827Y-2.7362
X4.9193Y-3.1161
T2
X3.52Y-2.72
X3.52Y-2.82
X3.52Y-2.92
X3.52Y-3.02
X3.52Y-3.2
X3.52Y-3.3
X3.62Y-3.2
X3.62Y-3.3
X3.72Y-3.2
X3.72Y-3.3
X3.76Y-3.55
X3.86Y-3.55
X4.11Y-3.55
X4.21Y-3.55
X4.31Y-3.55
X4.54Y-3.55
X4.64Y-3.55
X4.88Y-2.72
X4.88Y-2.82
X4.88Y-2.92
X4.88Y-3.02
T0
M30
