%TF.GenerationSoftware,KiCad,Pcbnew,7.0.2-0*%
%TF.CreationDate,2024-03-04T15:55:28-05:00*%
%TF.ProjectId,Pi_HAT_V5_Simple,50695f48-4154-45f5-9635-5f53696d706c,rev?*%
%TF.SameCoordinates,Original*%
%TF.FileFunction,Copper,L1,Top*%
%TF.FilePolarity,Positive*%
%FSLAX46Y46*%
G04 Gerber Fmt 4.6, Leading zero omitted, Abs format (unit mm)*
G04 Created by KiCad (PCBNEW 7.0.2-0) date 2024-03-04 15:55:28*
%MOMM*%
%LPD*%
G01*
G04 APERTURE LIST*
%TA.AperFunction,ComponentPad*%
%ADD10R,2.000000X2.000000*%
%TD*%
%TA.AperFunction,ComponentPad*%
%ADD11R,1.700000X1.700000*%
%TD*%
%TA.AperFunction,ComponentPad*%
%ADD12O,1.700000X1.700000*%
%TD*%
%TA.AperFunction,ComponentPad*%
%ADD13C,1.635000*%
%TD*%
%TA.AperFunction,ComponentPad*%
%ADD14R,3.716000X3.716000*%
%TD*%
%TA.AperFunction,ComponentPad*%
%ADD15C,3.716000*%
%TD*%
%TA.AperFunction,ComponentPad*%
%ADD16O,1.200000X2.400000*%
%TD*%
%TA.AperFunction,Conductor*%
%ADD17C,0.250000*%
%TD*%
%TA.AperFunction,Conductor*%
%ADD18C,0.500000*%
%TD*%
%TA.AperFunction,Conductor*%
%ADD19C,1.000000*%
%TD*%
%TA.AperFunction,Conductor*%
%ADD20C,0.200000*%
%TD*%
G04 APERTURE END LIST*
D10*
%TO.P,U1,1,IN+*%
%TO.N,GND*%
X140309600Y-132410200D03*
%TO.P,U1,2,IN-*%
%TO.N,/12Vout*%
X123143600Y-132422600D03*
%TO.P,U1,3,OUT+*%
%TO.N,GND*%
X140309600Y-92938600D03*
%TO.P,U1,4,OUT-*%
%TO.N,/5V*%
X123139200Y-92938600D03*
%TD*%
D11*
%TO.P,J4,1,Pin_1*%
%TO.N,/3.3V*%
X109500000Y-110800000D03*
D12*
%TO.P,J4,2,Pin_2*%
%TO.N,unconnected-(J4-Pin_2-Pad2)*%
X106960000Y-110800000D03*
%TO.P,J4,3,Pin_3*%
%TO.N,GND*%
X104420000Y-110800000D03*
%TO.P,J4,4,Pin_4*%
%TO.N,/SCL*%
X101880000Y-110800000D03*
%TO.P,J4,5,Pin_5*%
%TO.N,/SDA*%
X99340000Y-110800000D03*
%TO.P,J4,6,Pin_6*%
%TO.N,unconnected-(J4-Pin_6-Pad6)*%
X96800000Y-110800000D03*
%TD*%
D13*
%TO.P,S1,1,1*%
%TO.N,/12Vin*%
X130149600Y-80746600D03*
%TO.P,S1,3,3*%
%TO.N,/12Vout*%
X130149600Y-75666600D03*
%TD*%
D11*
%TO.P,J3,1,Pin_1*%
%TO.N,/3.3V*%
X137475000Y-70525000D03*
D12*
%TO.P,J3,2,Pin_2*%
%TO.N,/5V*%
X137475000Y-67985000D03*
%TO.P,J3,3,Pin_3*%
%TO.N,/SDA*%
X140015000Y-70525000D03*
%TO.P,J3,4,Pin_4*%
%TO.N,/5V*%
X140015000Y-67985000D03*
%TO.P,J3,5,Pin_5*%
%TO.N,/SCL*%
X142555000Y-70525000D03*
%TO.P,J3,6,Pin_6*%
%TO.N,GND*%
X142555000Y-67985000D03*
%TD*%
D11*
%TO.P,J1,1,Pin_1*%
%TO.N,/3.3V*%
X114528400Y-90450000D03*
D12*
%TO.P,J1,2,Pin_2*%
%TO.N,GND*%
X111988400Y-90450000D03*
%TO.P,J1,3,Pin_3*%
%TO.N,/SCL*%
X109448400Y-90450000D03*
%TO.P,J1,4,Pin_4*%
%TO.N,/SDA*%
X106908400Y-90450000D03*
%TO.P,J1,5,Pin_5*%
%TO.N,unconnected-(J1-Pin_5-Pad5)*%
X104368400Y-90450000D03*
%TO.P,J1,6,Pin_6*%
%TO.N,unconnected-(J1-Pin_6-Pad6)*%
X101828400Y-90450000D03*
%TO.P,J1,7,Pin_7*%
%TO.N,unconnected-(J1-Pin_7-Pad7)*%
X99288400Y-90450000D03*
%TO.P,J1,8,Pin_8*%
%TO.N,unconnected-(J1-Pin_8-Pad8)*%
X96748400Y-90450000D03*
%TO.P,J1,9,Pin_9*%
%TO.N,unconnected-(J1-Pin_9-Pad9)*%
X94208400Y-90450000D03*
%TO.P,J1,10,Pin_10*%
%TO.N,unconnected-(J1-Pin_10-Pad10)*%
X91668400Y-90450000D03*
%TD*%
D11*
%TO.P,J2,1,Pin_1*%
%TO.N,/3.3V*%
X151000000Y-79400000D03*
D12*
%TO.P,J2,2,Pin_2*%
%TO.N,/5V*%
X153540000Y-79400000D03*
%TO.P,J2,3,Pin_3*%
%TO.N,/SDA*%
X151000000Y-81940000D03*
%TO.P,J2,4,Pin_4*%
%TO.N,/5V*%
X153540000Y-81940000D03*
%TO.P,J2,5,Pin_5*%
%TO.N,/SCL*%
X151000000Y-84480000D03*
%TO.P,J2,6,Pin_6*%
%TO.N,GND*%
X153540000Y-84480000D03*
%TO.P,J2,7,Pin_7*%
%TO.N,unconnected-(J2-Pin_7-Pad7)*%
X151000000Y-87020000D03*
%TO.P,J2,8,Pin_8*%
%TO.N,unconnected-(J2-Pin_8-Pad8)*%
X153540000Y-87020000D03*
%TO.P,J2,9,Pin_9*%
%TO.N,unconnected-(J2-Pin_9-Pad9)*%
X151000000Y-89560000D03*
%TO.P,J2,10,Pin_10*%
%TO.N,unconnected-(J2-Pin_10-Pad10)*%
X153540000Y-89560000D03*
%TO.P,J2,11,Pin_11*%
%TO.N,unconnected-(J2-Pin_11-Pad11)*%
X151000000Y-92100000D03*
%TO.P,J2,12,Pin_12*%
%TO.N,unconnected-(J2-Pin_12-Pad12)*%
X153540000Y-92100000D03*
%TO.P,J2,13,Pin_13*%
%TO.N,unconnected-(J2-Pin_13-Pad13)*%
X151000000Y-94640000D03*
%TO.P,J2,14,Pin_14*%
%TO.N,unconnected-(J2-Pin_14-Pad14)*%
X153540000Y-94640000D03*
%TO.P,J2,15,Pin_15*%
%TO.N,unconnected-(J2-Pin_15-Pad15)*%
X151000000Y-97180000D03*
%TO.P,J2,16,Pin_16*%
%TO.N,unconnected-(J2-Pin_16-Pad16)*%
X153540000Y-97180000D03*
%TO.P,J2,17,Pin_17*%
%TO.N,unconnected-(J2-Pin_17-Pad17)*%
X151000000Y-99720000D03*
%TO.P,J2,18,Pin_18*%
%TO.N,unconnected-(J2-Pin_18-Pad18)*%
X153540000Y-99720000D03*
%TO.P,J2,19,Pin_19*%
%TO.N,unconnected-(J2-Pin_19-Pad19)*%
X151000000Y-102260000D03*
%TO.P,J2,20,Pin_20*%
%TO.N,unconnected-(J2-Pin_20-Pad20)*%
X153540000Y-102260000D03*
%TO.P,J2,21,Pin_21*%
%TO.N,unconnected-(J2-Pin_21-Pad21)*%
X151000000Y-104800000D03*
%TO.P,J2,22,Pin_22*%
%TO.N,unconnected-(J2-Pin_22-Pad22)*%
X153540000Y-104800000D03*
%TO.P,J2,23,Pin_23*%
%TO.N,unconnected-(J2-Pin_23-Pad23)*%
X151000000Y-107340000D03*
%TO.P,J2,24,Pin_24*%
%TO.N,unconnected-(J2-Pin_24-Pad24)*%
X153540000Y-107340000D03*
%TO.P,J2,25,Pin_25*%
%TO.N,unconnected-(J2-Pin_25-Pad25)*%
X151000000Y-109880000D03*
%TO.P,J2,26,Pin_26*%
%TO.N,unconnected-(J2-Pin_26-Pad26)*%
X153540000Y-109880000D03*
%TO.P,J2,27,Pin_27*%
%TO.N,unconnected-(J2-Pin_27-Pad27)*%
X151000000Y-112420000D03*
%TO.P,J2,28,Pin_28*%
%TO.N,unconnected-(J2-Pin_28-Pad28)*%
X153540000Y-112420000D03*
%TO.P,J2,29,Pin_29*%
%TO.N,unconnected-(J2-Pin_29-Pad29)*%
X151000000Y-114960000D03*
%TO.P,J2,30,Pin_30*%
%TO.N,unconnected-(J2-Pin_30-Pad30)*%
X153540000Y-114960000D03*
%TO.P,J2,31,Pin_31*%
%TO.N,unconnected-(J2-Pin_31-Pad31)*%
X151000000Y-117500000D03*
%TO.P,J2,32,Pin_32*%
%TO.N,unconnected-(J2-Pin_32-Pad32)*%
X153540000Y-117500000D03*
%TO.P,J2,33,Pin_33*%
%TO.N,unconnected-(J2-Pin_33-Pad33)*%
X151000000Y-120040000D03*
%TO.P,J2,34,Pin_34*%
%TO.N,unconnected-(J2-Pin_34-Pad34)*%
X153540000Y-120040000D03*
%TO.P,J2,35,Pin_35*%
%TO.N,unconnected-(J2-Pin_35-Pad35)*%
X151000000Y-122580000D03*
%TO.P,J2,36,Pin_36*%
%TO.N,unconnected-(J2-Pin_36-Pad36)*%
X153540000Y-122580000D03*
%TO.P,J2,37,Pin_37*%
%TO.N,unconnected-(J2-Pin_37-Pad37)*%
X151000000Y-125120000D03*
%TO.P,J2,38,Pin_38*%
%TO.N,unconnected-(J2-Pin_38-Pad38)*%
X153540000Y-125120000D03*
%TO.P,J2,39,Pin_39*%
%TO.N,unconnected-(J2-Pin_39-Pad39)*%
X151000000Y-127660000D03*
%TO.P,J2,40,Pin_40*%
%TO.N,unconnected-(J2-Pin_40-Pad40)*%
X153540000Y-127660000D03*
%TD*%
D14*
%TO.P,J5,1,+*%
%TO.N,/12Vin*%
X119398600Y-81489200D03*
D15*
%TO.P,J5,2,-*%
%TO.N,GND*%
X112198600Y-81489200D03*
D16*
%TO.P,J5,S1*%
%TO.N,N/C*%
X122548600Y-75489200D03*
%TO.P,J5,S2*%
X109048600Y-75489200D03*
%TD*%
D11*
%TO.P,J7,1,Pin_1*%
%TO.N,/12Vout*%
X82829400Y-95935800D03*
D12*
%TO.P,J7,2,Pin_2*%
%TO.N,GND*%
X82829400Y-98475800D03*
%TO.P,J7,3,Pin_3*%
%TO.N,/SDA*%
X82829400Y-101015800D03*
%TO.P,J7,4,Pin_4*%
%TO.N,/SCL*%
X82829400Y-103555800D03*
%TD*%
D17*
%TO.N,/3.3V*%
X114528400Y-90450000D02*
X118678400Y-94600000D01*
X154300000Y-90850000D02*
X155050000Y-90100000D01*
X118678400Y-94600000D02*
X146200000Y-94600000D01*
X146200000Y-94600000D02*
X149950000Y-90850000D01*
X149950000Y-90850000D02*
X154300000Y-90850000D01*
X155050000Y-90100000D02*
X155050000Y-81150000D01*
X155050000Y-81150000D02*
X154600000Y-80700000D01*
X154600000Y-80700000D02*
X152507196Y-80700000D01*
X152507196Y-80700000D02*
X151207196Y-79400000D01*
X151207196Y-79400000D02*
X151000000Y-79400000D01*
D18*
%TO.N,/5V*%
X152200000Y-65650000D02*
X155650000Y-69100000D01*
X135550000Y-65650000D02*
X152200000Y-65650000D01*
X155650000Y-69100000D02*
X155650000Y-77290000D01*
X124161400Y-92938600D02*
X134250000Y-82850000D01*
X123139200Y-92938600D02*
X124161400Y-92938600D01*
X134250000Y-82850000D02*
X134250000Y-66950000D01*
X134250000Y-66950000D02*
X135550000Y-65650000D01*
X155650000Y-77290000D02*
X153540000Y-79400000D01*
D19*
%TO.N,/12Vout*%
X82829400Y-95935800D02*
X80814200Y-95935800D01*
X80814200Y-95935800D02*
X80000000Y-96750000D01*
X80000000Y-96750000D02*
X80000000Y-104650000D01*
X80000000Y-104650000D02*
X80100000Y-104750000D01*
X80100000Y-104750000D02*
X80100000Y-112150000D01*
X80100000Y-112150000D02*
X85500000Y-117550000D01*
X112322600Y-132422600D02*
X123143600Y-132422600D01*
X85500000Y-117550000D02*
X97450000Y-117550000D01*
X97450000Y-117550000D02*
X112322600Y-132422600D01*
D17*
%TO.N,/3.3V*%
X109500000Y-110800000D02*
X109500000Y-110500000D01*
X114528400Y-95757996D02*
X114528400Y-90450000D01*
X109500000Y-110500000D02*
X107300000Y-108300000D01*
X107300000Y-108300000D02*
X107300000Y-102986396D01*
X107300000Y-102986396D02*
X114528400Y-95757996D01*
%TO.N,/SDA*%
X82829400Y-101015800D02*
X84400000Y-102586400D01*
X84400000Y-110113604D02*
X88036396Y-113750000D01*
X84400000Y-102586400D02*
X84400000Y-110113604D01*
X88036396Y-113750000D02*
X97700000Y-113750000D01*
X97700000Y-113750000D02*
X99340000Y-112110000D01*
X99340000Y-112110000D02*
X99340000Y-110800000D01*
%TO.N,/SCL*%
X87850000Y-114200000D02*
X100550000Y-114200000D01*
X101880000Y-112870000D02*
X101880000Y-110800000D01*
X82829400Y-103555800D02*
X82829400Y-109179400D01*
X82829400Y-109179400D02*
X87850000Y-114200000D01*
X100550000Y-114200000D02*
X101880000Y-112870000D01*
%TO.N,/SDA*%
X106908400Y-90450000D02*
X108998400Y-92540000D01*
X100000000Y-109100000D02*
X99340000Y-109760000D01*
X108998400Y-92540000D02*
X108998400Y-99251600D01*
X108998400Y-99251600D02*
X105950000Y-102300000D01*
X105950000Y-102300000D02*
X105950000Y-106093604D01*
X105950000Y-106093604D02*
X102943604Y-109100000D01*
X102943604Y-109100000D02*
X100000000Y-109100000D01*
X99340000Y-109760000D02*
X99340000Y-110800000D01*
%TO.N,/SCL*%
X101880000Y-110800000D02*
X106400000Y-106280000D01*
X106400000Y-106280000D02*
X106400000Y-102613604D01*
X106400000Y-102613604D02*
X109448400Y-99565204D01*
X109448400Y-99565204D02*
X109448400Y-90450000D01*
%TO.N,GND*%
X104420000Y-110800000D02*
X106850000Y-108370000D01*
X106850000Y-108370000D02*
X106850000Y-102800000D01*
X106850000Y-102800000D02*
X111988400Y-97661600D01*
X111988400Y-97661600D02*
X111988400Y-90450000D01*
X112198600Y-81489200D02*
X112198600Y-90239800D01*
X112198600Y-90239800D02*
X111988400Y-90450000D01*
D19*
%TO.N,/12Vin*%
X129407000Y-81489200D02*
X130149600Y-80746600D01*
X119398600Y-81489200D02*
X129407000Y-81489200D01*
D17*
%TO.N,/5V*%
X137475000Y-67985000D02*
X140015000Y-67985000D01*
%TO.N,/SCL*%
X152273000Y-83207000D02*
X152273000Y-81102200D01*
X151000000Y-84480000D02*
X152273000Y-83207000D01*
X152273000Y-81102200D02*
X151866600Y-80695800D01*
X151866600Y-80695800D02*
X148596840Y-80695800D01*
X142555000Y-74653960D02*
X142555000Y-70525000D01*
X148596840Y-80695800D02*
X142555000Y-74653960D01*
D20*
%TO.N,/SDA*%
X140015000Y-70525000D02*
X140015000Y-72715000D01*
X140015000Y-72715000D02*
X149240000Y-81940000D01*
X149240000Y-81940000D02*
X151000000Y-81940000D01*
D19*
%TO.N,/12Vout*%
X127685800Y-78130400D02*
X99085400Y-78130400D01*
X130149600Y-75666600D02*
X127685800Y-78130400D01*
X99085400Y-78130400D02*
X82829400Y-94386400D01*
X82829400Y-94386400D02*
X82829400Y-95935800D01*
%TD*%
M02*
