M48
; DRILL file {KiCad 7.0.2-0} date 2024 March 04, Monday 15:55:26
; FORMAT={-:-/ absolute / metric / decimal}
; #@! TF.CreationDate,2024-03-04T15:55:26-05:00
; #@! TF.GenerationSoftware,Kicad,Pcbnew,7.0.2-0
; #@! TF.FileFunction,Plated,1,2,PTH
FMAT,2
METRIC
; #@! TA.AperFunction,Plated,PTH,ComponentDrill
T1C0.600
; #@! TA.AperFunction,Plated,PTH,ComponentDrill
T2C1.000
; #@! TA.AperFunction,Plated,PTH,ComponentDrill
T3C1.090
; #@! TA.AperFunction,Plated,PTH,ComponentDrill
T4C2.700
%
G90
G05
T2
X82.829Y-95.936
X82.829Y-98.476
X82.829Y-101.016
X82.829Y-103.556
X91.668Y-90.45
X94.208Y-90.45
X96.748Y-90.45
X96.8Y-110.8
X99.288Y-90.45
X99.34Y-110.8
X101.828Y-90.45
X101.88Y-110.8
X104.368Y-90.45
X104.42Y-110.8
X106.908Y-90.45
X106.96Y-110.8
X109.448Y-90.45
X109.5Y-110.8
X111.988Y-90.45
X114.528Y-90.45
X123.139Y-92.939
X123.144Y-132.423
X137.475Y-67.985
X137.475Y-70.525
X140.015Y-67.985
X140.015Y-70.525
X140.31Y-92.939
X140.31Y-132.41
X142.555Y-67.985
X142.555Y-70.525
X151.0Y-79.4
X151.0Y-81.94
X151.0Y-84.48
X151.0Y-87.02
X151.0Y-89.56
X151.0Y-92.1
X151.0Y-94.64
X151.0Y-97.18
X151.0Y-99.72
X151.0Y-102.26
X151.0Y-104.8
X151.0Y-107.34
X151.0Y-109.88
X151.0Y-112.42
X151.0Y-114.96
X151.0Y-117.5
X151.0Y-120.04
X151.0Y-122.58
X151.0Y-125.12
X151.0Y-127.66
X153.54Y-79.4
X153.54Y-81.94
X153.54Y-84.48
X153.54Y-87.02
X153.54Y-89.56
X153.54Y-92.1
X153.54Y-94.64
X153.54Y-97.18
X153.54Y-99.72
X153.54Y-102.26
X153.54Y-104.8
X153.54Y-107.34
X153.54Y-109.88
X153.54Y-112.42
X153.54Y-114.96
X153.54Y-117.5
X153.54Y-120.04
X153.54Y-122.58
X153.54Y-125.12
X153.54Y-127.66
T3
X130.15Y-75.667
X130.15Y-80.747
T4
X112.199Y-81.489
X119.399Y-81.489
T1
G00X109.049Y-74.939
M15
G01X109.049Y-76.039
M16
G05
G00X122.549Y-74.939
M15
G01X122.549Y-76.039
M16
G05
T0
M30
