%TF.GenerationSoftware,KiCad,Pcbnew,7.0.2-0*%
%TF.CreationDate,2024-03-04T15:55:25-05:00*%
%TF.ProjectId,Pi_HAT_V5_Simple,50695f48-4154-45f5-9635-5f53696d706c,rev?*%
%TF.SameCoordinates,Original*%
%TF.FileFunction,Drillmap*%
%TF.FilePolarity,Positive*%
%FSLAX45Y45*%
G04 Gerber Fmt 4.5, Leading zero omitted, Abs format (unit mm)*
G04 Created by KiCad (PCBNEW 7.0.2-0) date 2024-03-04 15:55:25*
%MOMM*%
%LPD*%
G01*
G04 APERTURE LIST*
%ADD10C,0.100000*%
%ADD11C,0.200000*%
%ADD12C,0.060000*%
%ADD13C,0.109000*%
%ADD14C,0.270000*%
G04 APERTURE END LIST*
D10*
X8051186Y-6475113D02*
X15562739Y-6473750D01*
X8051186Y-6475113D02*
G75*
G03*
X7900053Y-6626250I4J-151137D01*
G01*
X7913987Y-13450000D02*
X7900053Y-6626250D01*
X15564173Y-13598933D02*
G75*
G03*
X15714173Y-13448934I-3J150003D01*
G01*
X15712739Y-6623750D02*
X15714173Y-13448934D01*
X7913990Y-13450000D02*
G75*
G03*
X8063987Y-13600000I150000J0D01*
G01*
X15712740Y-6623750D02*
G75*
G03*
X15562739Y-6473750I-150000J0D01*
G01*
X15564173Y-13598934D02*
X8063987Y-13600000D01*
D11*
D12*
X10874860Y-7518920D02*
X10934860Y-7578920D01*
X10934860Y-7518920D02*
X10874860Y-7578920D01*
D11*
X10874860Y-7493920D02*
X10874860Y-7603920D01*
X10874860Y-7603920D02*
G75*
G03*
X10934860Y-7603920I30000J0D01*
G01*
X10934860Y-7603920D02*
X10934860Y-7493920D01*
X10934860Y-7493920D02*
G75*
G03*
X10874860Y-7493920I-30000J0D01*
G01*
D12*
X12224860Y-7518920D02*
X12284860Y-7578920D01*
X12284860Y-7518920D02*
X12224860Y-7578920D01*
D11*
X12224860Y-7493920D02*
X12224860Y-7603920D01*
X12224860Y-7603920D02*
G75*
G03*
X12284860Y-7603920I30000J0D01*
G01*
X12284860Y-7603920D02*
X12284860Y-7493920D01*
X12284860Y-7493920D02*
G75*
G03*
X12224860Y-7493920I-30000J0D01*
G01*
D10*
X8332940Y-9593580D02*
G75*
G03*
X8332940Y-9593580I-50000J0D01*
G01*
X8332940Y-9847580D02*
G75*
G03*
X8332940Y-9847580I-50000J0D01*
G01*
X8332940Y-10101580D02*
G75*
G03*
X8332940Y-10101580I-50000J0D01*
G01*
X8332940Y-10355580D02*
G75*
G03*
X8332940Y-10355580I-50000J0D01*
G01*
X9216840Y-9045000D02*
G75*
G03*
X9216840Y-9045000I-50000J0D01*
G01*
X9470840Y-9045000D02*
G75*
G03*
X9470840Y-9045000I-50000J0D01*
G01*
X9724840Y-9045000D02*
G75*
G03*
X9724840Y-9045000I-50000J0D01*
G01*
X9730000Y-11080000D02*
G75*
G03*
X9730000Y-11080000I-50000J0D01*
G01*
X9978840Y-9045000D02*
G75*
G03*
X9978840Y-9045000I-50000J0D01*
G01*
X9984000Y-11080000D02*
G75*
G03*
X9984000Y-11080000I-50000J0D01*
G01*
X10232840Y-9045000D02*
G75*
G03*
X10232840Y-9045000I-50000J0D01*
G01*
X10238000Y-11080000D02*
G75*
G03*
X10238000Y-11080000I-50000J0D01*
G01*
X10486840Y-9045000D02*
G75*
G03*
X10486840Y-9045000I-50000J0D01*
G01*
X10492000Y-11080000D02*
G75*
G03*
X10492000Y-11080000I-50000J0D01*
G01*
X10740840Y-9045000D02*
G75*
G03*
X10740840Y-9045000I-50000J0D01*
G01*
X10746000Y-11080000D02*
G75*
G03*
X10746000Y-11080000I-50000J0D01*
G01*
X10994840Y-9045000D02*
G75*
G03*
X10994840Y-9045000I-50000J0D01*
G01*
X11000000Y-11080000D02*
G75*
G03*
X11000000Y-11080000I-50000J0D01*
G01*
X11248840Y-9045000D02*
G75*
G03*
X11248840Y-9045000I-50000J0D01*
G01*
X11502840Y-9045000D02*
G75*
G03*
X11502840Y-9045000I-50000J0D01*
G01*
X12363920Y-9293860D02*
G75*
G03*
X12363920Y-9293860I-50000J0D01*
G01*
X12364360Y-13242260D02*
G75*
G03*
X12364360Y-13242260I-50000J0D01*
G01*
X13797500Y-6798500D02*
G75*
G03*
X13797500Y-6798500I-50000J0D01*
G01*
X13797500Y-7052500D02*
G75*
G03*
X13797500Y-7052500I-50000J0D01*
G01*
X14051500Y-6798500D02*
G75*
G03*
X14051500Y-6798500I-50000J0D01*
G01*
X14051500Y-7052500D02*
G75*
G03*
X14051500Y-7052500I-50000J0D01*
G01*
X14080960Y-9293860D02*
G75*
G03*
X14080960Y-9293860I-50000J0D01*
G01*
X14080960Y-13241020D02*
G75*
G03*
X14080960Y-13241020I-50000J0D01*
G01*
X14305500Y-6798500D02*
G75*
G03*
X14305500Y-6798500I-50000J0D01*
G01*
X14305500Y-7052500D02*
G75*
G03*
X14305500Y-7052500I-50000J0D01*
G01*
X15150000Y-7940000D02*
G75*
G03*
X15150000Y-7940000I-50000J0D01*
G01*
X15150000Y-8194000D02*
G75*
G03*
X15150000Y-8194000I-50000J0D01*
G01*
X15150000Y-8448000D02*
G75*
G03*
X15150000Y-8448000I-50000J0D01*
G01*
X15150000Y-8702000D02*
G75*
G03*
X15150000Y-8702000I-50000J0D01*
G01*
X15150000Y-8956000D02*
G75*
G03*
X15150000Y-8956000I-50000J0D01*
G01*
X15150000Y-9210000D02*
G75*
G03*
X15150000Y-9210000I-50000J0D01*
G01*
X15150000Y-9464000D02*
G75*
G03*
X15150000Y-9464000I-50000J0D01*
G01*
X15150000Y-9718000D02*
G75*
G03*
X15150000Y-9718000I-50000J0D01*
G01*
X15150000Y-9972000D02*
G75*
G03*
X15150000Y-9972000I-50000J0D01*
G01*
X15150000Y-10226000D02*
G75*
G03*
X15150000Y-10226000I-50000J0D01*
G01*
X15150000Y-10480000D02*
G75*
G03*
X15150000Y-10480000I-50000J0D01*
G01*
X15150000Y-10734000D02*
G75*
G03*
X15150000Y-10734000I-50000J0D01*
G01*
X15150000Y-10988000D02*
G75*
G03*
X15150000Y-10988000I-50000J0D01*
G01*
X15150000Y-11242000D02*
G75*
G03*
X15150000Y-11242000I-50000J0D01*
G01*
X15150000Y-11496000D02*
G75*
G03*
X15150000Y-11496000I-50000J0D01*
G01*
X15150000Y-11750000D02*
G75*
G03*
X15150000Y-11750000I-50000J0D01*
G01*
X15150000Y-12004000D02*
G75*
G03*
X15150000Y-12004000I-50000J0D01*
G01*
X15150000Y-12258000D02*
G75*
G03*
X15150000Y-12258000I-50000J0D01*
G01*
X15150000Y-12512000D02*
G75*
G03*
X15150000Y-12512000I-50000J0D01*
G01*
X15150000Y-12766000D02*
G75*
G03*
X15150000Y-12766000I-50000J0D01*
G01*
X15404000Y-7940000D02*
G75*
G03*
X15404000Y-7940000I-50000J0D01*
G01*
X15404000Y-8194000D02*
G75*
G03*
X15404000Y-8194000I-50000J0D01*
G01*
X15404000Y-8448000D02*
G75*
G03*
X15404000Y-8448000I-50000J0D01*
G01*
X15404000Y-8702000D02*
G75*
G03*
X15404000Y-8702000I-50000J0D01*
G01*
X15404000Y-8956000D02*
G75*
G03*
X15404000Y-8956000I-50000J0D01*
G01*
X15404000Y-9210000D02*
G75*
G03*
X15404000Y-9210000I-50000J0D01*
G01*
X15404000Y-9464000D02*
G75*
G03*
X15404000Y-9464000I-50000J0D01*
G01*
X15404000Y-9718000D02*
G75*
G03*
X15404000Y-9718000I-50000J0D01*
G01*
X15404000Y-9972000D02*
G75*
G03*
X15404000Y-9972000I-50000J0D01*
G01*
X15404000Y-10226000D02*
G75*
G03*
X15404000Y-10226000I-50000J0D01*
G01*
X15404000Y-10480000D02*
G75*
G03*
X15404000Y-10480000I-50000J0D01*
G01*
X15404000Y-10734000D02*
G75*
G03*
X15404000Y-10734000I-50000J0D01*
G01*
X15404000Y-10988000D02*
G75*
G03*
X15404000Y-10988000I-50000J0D01*
G01*
X15404000Y-11242000D02*
G75*
G03*
X15404000Y-11242000I-50000J0D01*
G01*
X15404000Y-11496000D02*
G75*
G03*
X15404000Y-11496000I-50000J0D01*
G01*
X15404000Y-11750000D02*
G75*
G03*
X15404000Y-11750000I-50000J0D01*
G01*
X15404000Y-12004000D02*
G75*
G03*
X15404000Y-12004000I-50000J0D01*
G01*
X15404000Y-12258000D02*
G75*
G03*
X15404000Y-12258000I-50000J0D01*
G01*
X15404000Y-12512000D02*
G75*
G03*
X15404000Y-12512000I-50000J0D01*
G01*
X15404000Y-12766000D02*
G75*
G03*
X15404000Y-12766000I-50000J0D01*
G01*
D13*
X13014960Y-7512160D02*
X13014960Y-7621160D01*
X12960460Y-7566660D02*
X13069460Y-7566660D01*
X13014960Y-8020160D02*
X13014960Y-8129160D01*
X12960460Y-8074660D02*
X13069460Y-8074660D01*
D14*
X11315320Y-8244380D02*
X11315320Y-8053460D01*
X11124400Y-8053460D01*
X11124400Y-8244380D01*
X11315320Y-8244380D01*
X12035320Y-8244380D02*
X12035320Y-8053460D01*
X11844400Y-8053460D01*
X11844400Y-8244380D01*
X12035320Y-8244380D01*
D11*
X8142672Y-13917524D02*
X8142672Y-13717524D01*
X8142672Y-13717524D02*
X8190291Y-13717524D01*
X8190291Y-13717524D02*
X8218862Y-13727048D01*
X8218862Y-13727048D02*
X8237910Y-13746095D01*
X8237910Y-13746095D02*
X8247434Y-13765143D01*
X8247434Y-13765143D02*
X8256958Y-13803238D01*
X8256958Y-13803238D02*
X8256958Y-13831809D01*
X8256958Y-13831809D02*
X8247434Y-13869905D01*
X8247434Y-13869905D02*
X8237910Y-13888952D01*
X8237910Y-13888952D02*
X8218862Y-13908000D01*
X8218862Y-13908000D02*
X8190291Y-13917524D01*
X8190291Y-13917524D02*
X8142672Y-13917524D01*
X8342672Y-13917524D02*
X8342672Y-13784190D01*
X8342672Y-13822286D02*
X8352196Y-13803238D01*
X8352196Y-13803238D02*
X8361720Y-13793714D01*
X8361720Y-13793714D02*
X8380767Y-13784190D01*
X8380767Y-13784190D02*
X8399815Y-13784190D01*
X8466482Y-13917524D02*
X8466482Y-13784190D01*
X8466482Y-13717524D02*
X8456958Y-13727048D01*
X8456958Y-13727048D02*
X8466482Y-13736571D01*
X8466482Y-13736571D02*
X8476005Y-13727048D01*
X8476005Y-13727048D02*
X8466482Y-13717524D01*
X8466482Y-13717524D02*
X8466482Y-13736571D01*
X8590291Y-13917524D02*
X8571243Y-13908000D01*
X8571243Y-13908000D02*
X8561720Y-13888952D01*
X8561720Y-13888952D02*
X8561720Y-13717524D01*
X8695053Y-13917524D02*
X8676005Y-13908000D01*
X8676005Y-13908000D02*
X8666482Y-13888952D01*
X8666482Y-13888952D02*
X8666482Y-13717524D01*
X8923624Y-13917524D02*
X8923624Y-13717524D01*
X8923624Y-13717524D02*
X8990291Y-13860381D01*
X8990291Y-13860381D02*
X9056958Y-13717524D01*
X9056958Y-13717524D02*
X9056958Y-13917524D01*
X9237910Y-13917524D02*
X9237910Y-13812762D01*
X9237910Y-13812762D02*
X9228386Y-13793714D01*
X9228386Y-13793714D02*
X9209339Y-13784190D01*
X9209339Y-13784190D02*
X9171243Y-13784190D01*
X9171243Y-13784190D02*
X9152196Y-13793714D01*
X9237910Y-13908000D02*
X9218863Y-13917524D01*
X9218863Y-13917524D02*
X9171243Y-13917524D01*
X9171243Y-13917524D02*
X9152196Y-13908000D01*
X9152196Y-13908000D02*
X9142672Y-13888952D01*
X9142672Y-13888952D02*
X9142672Y-13869905D01*
X9142672Y-13869905D02*
X9152196Y-13850857D01*
X9152196Y-13850857D02*
X9171243Y-13841333D01*
X9171243Y-13841333D02*
X9218863Y-13841333D01*
X9218863Y-13841333D02*
X9237910Y-13831809D01*
X9333148Y-13784190D02*
X9333148Y-13984190D01*
X9333148Y-13793714D02*
X9352196Y-13784190D01*
X9352196Y-13784190D02*
X9390291Y-13784190D01*
X9390291Y-13784190D02*
X9409339Y-13793714D01*
X9409339Y-13793714D02*
X9418863Y-13803238D01*
X9418863Y-13803238D02*
X9428386Y-13822286D01*
X9428386Y-13822286D02*
X9428386Y-13879428D01*
X9428386Y-13879428D02*
X9418863Y-13898476D01*
X9418863Y-13898476D02*
X9409339Y-13908000D01*
X9409339Y-13908000D02*
X9390291Y-13917524D01*
X9390291Y-13917524D02*
X9352196Y-13917524D01*
X9352196Y-13917524D02*
X9333148Y-13908000D01*
X9514101Y-13898476D02*
X9523624Y-13908000D01*
X9523624Y-13908000D02*
X9514101Y-13917524D01*
X9514101Y-13917524D02*
X9504577Y-13908000D01*
X9504577Y-13908000D02*
X9514101Y-13898476D01*
X9514101Y-13898476D02*
X9514101Y-13917524D01*
X9514101Y-13793714D02*
X9523624Y-13803238D01*
X9523624Y-13803238D02*
X9514101Y-13812762D01*
X9514101Y-13812762D02*
X9504577Y-13803238D01*
X9504577Y-13803238D02*
X9514101Y-13793714D01*
X9514101Y-13793714D02*
X9514101Y-13812762D01*
D12*
X7835053Y-14215000D02*
X7895053Y-14275000D01*
X7895053Y-14215000D02*
X7835053Y-14275000D01*
D11*
X8180767Y-14137524D02*
X8199815Y-14137524D01*
X8199815Y-14137524D02*
X8218862Y-14147048D01*
X8218862Y-14147048D02*
X8228386Y-14156571D01*
X8228386Y-14156571D02*
X8237910Y-14175619D01*
X8237910Y-14175619D02*
X8247434Y-14213714D01*
X8247434Y-14213714D02*
X8247434Y-14261333D01*
X8247434Y-14261333D02*
X8237910Y-14299428D01*
X8237910Y-14299428D02*
X8228386Y-14318476D01*
X8228386Y-14318476D02*
X8218862Y-14328000D01*
X8218862Y-14328000D02*
X8199815Y-14337524D01*
X8199815Y-14337524D02*
X8180767Y-14337524D01*
X8180767Y-14337524D02*
X8161720Y-14328000D01*
X8161720Y-14328000D02*
X8152196Y-14318476D01*
X8152196Y-14318476D02*
X8142672Y-14299428D01*
X8142672Y-14299428D02*
X8133148Y-14261333D01*
X8133148Y-14261333D02*
X8133148Y-14213714D01*
X8133148Y-14213714D02*
X8142672Y-14175619D01*
X8142672Y-14175619D02*
X8152196Y-14156571D01*
X8152196Y-14156571D02*
X8161720Y-14147048D01*
X8161720Y-14147048D02*
X8180767Y-14137524D01*
X8333148Y-14318476D02*
X8342672Y-14328000D01*
X8342672Y-14328000D02*
X8333148Y-14337524D01*
X8333148Y-14337524D02*
X8323624Y-14328000D01*
X8323624Y-14328000D02*
X8333148Y-14318476D01*
X8333148Y-14318476D02*
X8333148Y-14337524D01*
X8514101Y-14137524D02*
X8476005Y-14137524D01*
X8476005Y-14137524D02*
X8456958Y-14147048D01*
X8456958Y-14147048D02*
X8447434Y-14156571D01*
X8447434Y-14156571D02*
X8428386Y-14185143D01*
X8428386Y-14185143D02*
X8418863Y-14223238D01*
X8418863Y-14223238D02*
X8418863Y-14299428D01*
X8418863Y-14299428D02*
X8428386Y-14318476D01*
X8428386Y-14318476D02*
X8437910Y-14328000D01*
X8437910Y-14328000D02*
X8456958Y-14337524D01*
X8456958Y-14337524D02*
X8495053Y-14337524D01*
X8495053Y-14337524D02*
X8514101Y-14328000D01*
X8514101Y-14328000D02*
X8523624Y-14318476D01*
X8523624Y-14318476D02*
X8533148Y-14299428D01*
X8533148Y-14299428D02*
X8533148Y-14251809D01*
X8533148Y-14251809D02*
X8523624Y-14232762D01*
X8523624Y-14232762D02*
X8514101Y-14223238D01*
X8514101Y-14223238D02*
X8495053Y-14213714D01*
X8495053Y-14213714D02*
X8456958Y-14213714D01*
X8456958Y-14213714D02*
X8437910Y-14223238D01*
X8437910Y-14223238D02*
X8428386Y-14232762D01*
X8428386Y-14232762D02*
X8418863Y-14251809D01*
X8656958Y-14137524D02*
X8676005Y-14137524D01*
X8676005Y-14137524D02*
X8695053Y-14147048D01*
X8695053Y-14147048D02*
X8704577Y-14156571D01*
X8704577Y-14156571D02*
X8714101Y-14175619D01*
X8714101Y-14175619D02*
X8723624Y-14213714D01*
X8723624Y-14213714D02*
X8723624Y-14261333D01*
X8723624Y-14261333D02*
X8714101Y-14299428D01*
X8714101Y-14299428D02*
X8704577Y-14318476D01*
X8704577Y-14318476D02*
X8695053Y-14328000D01*
X8695053Y-14328000D02*
X8676005Y-14337524D01*
X8676005Y-14337524D02*
X8656958Y-14337524D01*
X8656958Y-14337524D02*
X8637910Y-14328000D01*
X8637910Y-14328000D02*
X8628386Y-14318476D01*
X8628386Y-14318476D02*
X8618863Y-14299428D01*
X8618863Y-14299428D02*
X8609339Y-14261333D01*
X8609339Y-14261333D02*
X8609339Y-14213714D01*
X8609339Y-14213714D02*
X8618863Y-14175619D01*
X8618863Y-14175619D02*
X8628386Y-14156571D01*
X8628386Y-14156571D02*
X8637910Y-14147048D01*
X8637910Y-14147048D02*
X8656958Y-14137524D01*
X8847434Y-14137524D02*
X8866482Y-14137524D01*
X8866482Y-14137524D02*
X8885529Y-14147048D01*
X8885529Y-14147048D02*
X8895053Y-14156571D01*
X8895053Y-14156571D02*
X8904577Y-14175619D01*
X8904577Y-14175619D02*
X8914101Y-14213714D01*
X8914101Y-14213714D02*
X8914101Y-14261333D01*
X8914101Y-14261333D02*
X8904577Y-14299428D01*
X8904577Y-14299428D02*
X8895053Y-14318476D01*
X8895053Y-14318476D02*
X8885529Y-14328000D01*
X8885529Y-14328000D02*
X8866482Y-14337524D01*
X8866482Y-14337524D02*
X8847434Y-14337524D01*
X8847434Y-14337524D02*
X8828386Y-14328000D01*
X8828386Y-14328000D02*
X8818863Y-14318476D01*
X8818863Y-14318476D02*
X8809339Y-14299428D01*
X8809339Y-14299428D02*
X8799815Y-14261333D01*
X8799815Y-14261333D02*
X8799815Y-14213714D01*
X8799815Y-14213714D02*
X8809339Y-14175619D01*
X8809339Y-14175619D02*
X8818863Y-14156571D01*
X8818863Y-14156571D02*
X8828386Y-14147048D01*
X8828386Y-14147048D02*
X8847434Y-14137524D01*
X8999815Y-14337524D02*
X8999815Y-14204190D01*
X8999815Y-14223238D02*
X9009339Y-14213714D01*
X9009339Y-14213714D02*
X9028386Y-14204190D01*
X9028386Y-14204190D02*
X9056958Y-14204190D01*
X9056958Y-14204190D02*
X9076005Y-14213714D01*
X9076005Y-14213714D02*
X9085529Y-14232762D01*
X9085529Y-14232762D02*
X9085529Y-14337524D01*
X9085529Y-14232762D02*
X9095053Y-14213714D01*
X9095053Y-14213714D02*
X9114101Y-14204190D01*
X9114101Y-14204190D02*
X9142672Y-14204190D01*
X9142672Y-14204190D02*
X9161720Y-14213714D01*
X9161720Y-14213714D02*
X9171244Y-14232762D01*
X9171244Y-14232762D02*
X9171244Y-14337524D01*
X9266482Y-14337524D02*
X9266482Y-14204190D01*
X9266482Y-14223238D02*
X9276005Y-14213714D01*
X9276005Y-14213714D02*
X9295053Y-14204190D01*
X9295053Y-14204190D02*
X9323625Y-14204190D01*
X9323625Y-14204190D02*
X9342672Y-14213714D01*
X9342672Y-14213714D02*
X9352196Y-14232762D01*
X9352196Y-14232762D02*
X9352196Y-14337524D01*
X9352196Y-14232762D02*
X9361720Y-14213714D01*
X9361720Y-14213714D02*
X9380767Y-14204190D01*
X9380767Y-14204190D02*
X9409339Y-14204190D01*
X9409339Y-14204190D02*
X9428386Y-14213714D01*
X9428386Y-14213714D02*
X9437910Y-14232762D01*
X9437910Y-14232762D02*
X9437910Y-14337524D01*
X9828386Y-14128000D02*
X9656958Y-14385143D01*
X10085529Y-14137524D02*
X10104577Y-14137524D01*
X10104577Y-14137524D02*
X10123625Y-14147048D01*
X10123625Y-14147048D02*
X10133148Y-14156571D01*
X10133148Y-14156571D02*
X10142672Y-14175619D01*
X10142672Y-14175619D02*
X10152196Y-14213714D01*
X10152196Y-14213714D02*
X10152196Y-14261333D01*
X10152196Y-14261333D02*
X10142672Y-14299428D01*
X10142672Y-14299428D02*
X10133148Y-14318476D01*
X10133148Y-14318476D02*
X10123625Y-14328000D01*
X10123625Y-14328000D02*
X10104577Y-14337524D01*
X10104577Y-14337524D02*
X10085529Y-14337524D01*
X10085529Y-14337524D02*
X10066482Y-14328000D01*
X10066482Y-14328000D02*
X10056958Y-14318476D01*
X10056958Y-14318476D02*
X10047434Y-14299428D01*
X10047434Y-14299428D02*
X10037910Y-14261333D01*
X10037910Y-14261333D02*
X10037910Y-14213714D01*
X10037910Y-14213714D02*
X10047434Y-14175619D01*
X10047434Y-14175619D02*
X10056958Y-14156571D01*
X10056958Y-14156571D02*
X10066482Y-14147048D01*
X10066482Y-14147048D02*
X10085529Y-14137524D01*
X10237910Y-14318476D02*
X10247434Y-14328000D01*
X10247434Y-14328000D02*
X10237910Y-14337524D01*
X10237910Y-14337524D02*
X10228387Y-14328000D01*
X10228387Y-14328000D02*
X10237910Y-14318476D01*
X10237910Y-14318476D02*
X10237910Y-14337524D01*
X10371244Y-14137524D02*
X10390291Y-14137524D01*
X10390291Y-14137524D02*
X10409339Y-14147048D01*
X10409339Y-14147048D02*
X10418863Y-14156571D01*
X10418863Y-14156571D02*
X10428387Y-14175619D01*
X10428387Y-14175619D02*
X10437910Y-14213714D01*
X10437910Y-14213714D02*
X10437910Y-14261333D01*
X10437910Y-14261333D02*
X10428387Y-14299428D01*
X10428387Y-14299428D02*
X10418863Y-14318476D01*
X10418863Y-14318476D02*
X10409339Y-14328000D01*
X10409339Y-14328000D02*
X10390291Y-14337524D01*
X10390291Y-14337524D02*
X10371244Y-14337524D01*
X10371244Y-14337524D02*
X10352196Y-14328000D01*
X10352196Y-14328000D02*
X10342672Y-14318476D01*
X10342672Y-14318476D02*
X10333148Y-14299428D01*
X10333148Y-14299428D02*
X10323625Y-14261333D01*
X10323625Y-14261333D02*
X10323625Y-14213714D01*
X10323625Y-14213714D02*
X10333148Y-14175619D01*
X10333148Y-14175619D02*
X10342672Y-14156571D01*
X10342672Y-14156571D02*
X10352196Y-14147048D01*
X10352196Y-14147048D02*
X10371244Y-14137524D01*
X10514101Y-14156571D02*
X10523625Y-14147048D01*
X10523625Y-14147048D02*
X10542672Y-14137524D01*
X10542672Y-14137524D02*
X10590291Y-14137524D01*
X10590291Y-14137524D02*
X10609339Y-14147048D01*
X10609339Y-14147048D02*
X10618863Y-14156571D01*
X10618863Y-14156571D02*
X10628387Y-14175619D01*
X10628387Y-14175619D02*
X10628387Y-14194667D01*
X10628387Y-14194667D02*
X10618863Y-14223238D01*
X10618863Y-14223238D02*
X10504577Y-14337524D01*
X10504577Y-14337524D02*
X10628387Y-14337524D01*
X10695053Y-14137524D02*
X10818863Y-14137524D01*
X10818863Y-14137524D02*
X10752196Y-14213714D01*
X10752196Y-14213714D02*
X10780768Y-14213714D01*
X10780768Y-14213714D02*
X10799815Y-14223238D01*
X10799815Y-14223238D02*
X10809339Y-14232762D01*
X10809339Y-14232762D02*
X10818863Y-14251809D01*
X10818863Y-14251809D02*
X10818863Y-14299428D01*
X10818863Y-14299428D02*
X10809339Y-14318476D01*
X10809339Y-14318476D02*
X10799815Y-14328000D01*
X10799815Y-14328000D02*
X10780768Y-14337524D01*
X10780768Y-14337524D02*
X10723625Y-14337524D01*
X10723625Y-14337524D02*
X10704577Y-14328000D01*
X10704577Y-14328000D02*
X10695053Y-14318476D01*
X10990291Y-14137524D02*
X10952196Y-14137524D01*
X10952196Y-14137524D02*
X10933148Y-14147048D01*
X10933148Y-14147048D02*
X10923625Y-14156571D01*
X10923625Y-14156571D02*
X10904577Y-14185143D01*
X10904577Y-14185143D02*
X10895053Y-14223238D01*
X10895053Y-14223238D02*
X10895053Y-14299428D01*
X10895053Y-14299428D02*
X10904577Y-14318476D01*
X10904577Y-14318476D02*
X10914101Y-14328000D01*
X10914101Y-14328000D02*
X10933148Y-14337524D01*
X10933148Y-14337524D02*
X10971244Y-14337524D01*
X10971244Y-14337524D02*
X10990291Y-14328000D01*
X10990291Y-14328000D02*
X10999815Y-14318476D01*
X10999815Y-14318476D02*
X11009339Y-14299428D01*
X11009339Y-14299428D02*
X11009339Y-14251809D01*
X11009339Y-14251809D02*
X10999815Y-14232762D01*
X10999815Y-14232762D02*
X10990291Y-14223238D01*
X10990291Y-14223238D02*
X10971244Y-14213714D01*
X10971244Y-14213714D02*
X10933148Y-14213714D01*
X10933148Y-14213714D02*
X10914101Y-14223238D01*
X10914101Y-14223238D02*
X10904577Y-14232762D01*
X10904577Y-14232762D02*
X10895053Y-14251809D01*
X11085529Y-14137524D02*
X11085529Y-14175619D01*
X11161720Y-14137524D02*
X11161720Y-14175619D01*
X11456958Y-14413714D02*
X11447434Y-14404190D01*
X11447434Y-14404190D02*
X11428387Y-14375619D01*
X11428387Y-14375619D02*
X11418863Y-14356571D01*
X11418863Y-14356571D02*
X11409339Y-14328000D01*
X11409339Y-14328000D02*
X11399815Y-14280381D01*
X11399815Y-14280381D02*
X11399815Y-14242286D01*
X11399815Y-14242286D02*
X11409339Y-14194667D01*
X11409339Y-14194667D02*
X11418863Y-14166095D01*
X11418863Y-14166095D02*
X11428387Y-14147048D01*
X11428387Y-14147048D02*
X11447434Y-14118476D01*
X11447434Y-14118476D02*
X11456958Y-14108952D01*
X11571244Y-14137524D02*
X11590291Y-14137524D01*
X11590291Y-14137524D02*
X11609339Y-14147048D01*
X11609339Y-14147048D02*
X11618863Y-14156571D01*
X11618863Y-14156571D02*
X11628387Y-14175619D01*
X11628387Y-14175619D02*
X11637910Y-14213714D01*
X11637910Y-14213714D02*
X11637910Y-14261333D01*
X11637910Y-14261333D02*
X11628387Y-14299428D01*
X11628387Y-14299428D02*
X11618863Y-14318476D01*
X11618863Y-14318476D02*
X11609339Y-14328000D01*
X11609339Y-14328000D02*
X11590291Y-14337524D01*
X11590291Y-14337524D02*
X11571244Y-14337524D01*
X11571244Y-14337524D02*
X11552196Y-14328000D01*
X11552196Y-14328000D02*
X11542672Y-14318476D01*
X11542672Y-14318476D02*
X11533148Y-14299428D01*
X11533148Y-14299428D02*
X11523625Y-14261333D01*
X11523625Y-14261333D02*
X11523625Y-14213714D01*
X11523625Y-14213714D02*
X11533148Y-14175619D01*
X11533148Y-14175619D02*
X11542672Y-14156571D01*
X11542672Y-14156571D02*
X11552196Y-14147048D01*
X11552196Y-14147048D02*
X11571244Y-14137524D01*
X11876006Y-14337524D02*
X11876006Y-14137524D01*
X11961720Y-14337524D02*
X11961720Y-14232762D01*
X11961720Y-14232762D02*
X11952196Y-14213714D01*
X11952196Y-14213714D02*
X11933149Y-14204190D01*
X11933149Y-14204190D02*
X11904577Y-14204190D01*
X11904577Y-14204190D02*
X11885529Y-14213714D01*
X11885529Y-14213714D02*
X11876006Y-14223238D01*
X12085529Y-14337524D02*
X12066482Y-14328000D01*
X12066482Y-14328000D02*
X12056958Y-14318476D01*
X12056958Y-14318476D02*
X12047434Y-14299428D01*
X12047434Y-14299428D02*
X12047434Y-14242286D01*
X12047434Y-14242286D02*
X12056958Y-14223238D01*
X12056958Y-14223238D02*
X12066482Y-14213714D01*
X12066482Y-14213714D02*
X12085529Y-14204190D01*
X12085529Y-14204190D02*
X12114101Y-14204190D01*
X12114101Y-14204190D02*
X12133149Y-14213714D01*
X12133149Y-14213714D02*
X12142672Y-14223238D01*
X12142672Y-14223238D02*
X12152196Y-14242286D01*
X12152196Y-14242286D02*
X12152196Y-14299428D01*
X12152196Y-14299428D02*
X12142672Y-14318476D01*
X12142672Y-14318476D02*
X12133149Y-14328000D01*
X12133149Y-14328000D02*
X12114101Y-14337524D01*
X12114101Y-14337524D02*
X12085529Y-14337524D01*
X12266482Y-14337524D02*
X12247434Y-14328000D01*
X12247434Y-14328000D02*
X12237910Y-14308952D01*
X12237910Y-14308952D02*
X12237910Y-14137524D01*
X12418863Y-14328000D02*
X12399815Y-14337524D01*
X12399815Y-14337524D02*
X12361720Y-14337524D01*
X12361720Y-14337524D02*
X12342672Y-14328000D01*
X12342672Y-14328000D02*
X12333149Y-14308952D01*
X12333149Y-14308952D02*
X12333149Y-14232762D01*
X12333149Y-14232762D02*
X12342672Y-14213714D01*
X12342672Y-14213714D02*
X12361720Y-14204190D01*
X12361720Y-14204190D02*
X12399815Y-14204190D01*
X12399815Y-14204190D02*
X12418863Y-14213714D01*
X12418863Y-14213714D02*
X12428387Y-14232762D01*
X12428387Y-14232762D02*
X12428387Y-14251809D01*
X12428387Y-14251809D02*
X12333149Y-14270857D01*
X12504577Y-14328000D02*
X12523625Y-14337524D01*
X12523625Y-14337524D02*
X12561720Y-14337524D01*
X12561720Y-14337524D02*
X12580768Y-14328000D01*
X12580768Y-14328000D02*
X12590291Y-14308952D01*
X12590291Y-14308952D02*
X12590291Y-14299428D01*
X12590291Y-14299428D02*
X12580768Y-14280381D01*
X12580768Y-14280381D02*
X12561720Y-14270857D01*
X12561720Y-14270857D02*
X12533149Y-14270857D01*
X12533149Y-14270857D02*
X12514101Y-14261333D01*
X12514101Y-14261333D02*
X12504577Y-14242286D01*
X12504577Y-14242286D02*
X12504577Y-14232762D01*
X12504577Y-14232762D02*
X12514101Y-14213714D01*
X12514101Y-14213714D02*
X12533149Y-14204190D01*
X12533149Y-14204190D02*
X12561720Y-14204190D01*
X12561720Y-14204190D02*
X12580768Y-14213714D01*
X12828387Y-14261333D02*
X12980768Y-14261333D01*
X12904577Y-14337524D02*
X12904577Y-14185143D01*
X13218863Y-14156571D02*
X13228387Y-14147048D01*
X13228387Y-14147048D02*
X13247434Y-14137524D01*
X13247434Y-14137524D02*
X13295053Y-14137524D01*
X13295053Y-14137524D02*
X13314101Y-14147048D01*
X13314101Y-14147048D02*
X13323625Y-14156571D01*
X13323625Y-14156571D02*
X13333149Y-14175619D01*
X13333149Y-14175619D02*
X13333149Y-14194667D01*
X13333149Y-14194667D02*
X13323625Y-14223238D01*
X13323625Y-14223238D02*
X13209339Y-14337524D01*
X13209339Y-14337524D02*
X13333149Y-14337524D01*
X13561720Y-14328000D02*
X13580768Y-14337524D01*
X13580768Y-14337524D02*
X13618863Y-14337524D01*
X13618863Y-14337524D02*
X13637911Y-14328000D01*
X13637911Y-14328000D02*
X13647434Y-14308952D01*
X13647434Y-14308952D02*
X13647434Y-14299428D01*
X13647434Y-14299428D02*
X13637911Y-14280381D01*
X13637911Y-14280381D02*
X13618863Y-14270857D01*
X13618863Y-14270857D02*
X13590292Y-14270857D01*
X13590292Y-14270857D02*
X13571244Y-14261333D01*
X13571244Y-14261333D02*
X13561720Y-14242286D01*
X13561720Y-14242286D02*
X13561720Y-14232762D01*
X13561720Y-14232762D02*
X13571244Y-14213714D01*
X13571244Y-14213714D02*
X13590292Y-14204190D01*
X13590292Y-14204190D02*
X13618863Y-14204190D01*
X13618863Y-14204190D02*
X13637911Y-14213714D01*
X13761720Y-14337524D02*
X13742673Y-14328000D01*
X13742673Y-14328000D02*
X13733149Y-14308952D01*
X13733149Y-14308952D02*
X13733149Y-14137524D01*
X13866482Y-14337524D02*
X13847434Y-14328000D01*
X13847434Y-14328000D02*
X13837911Y-14318476D01*
X13837911Y-14318476D02*
X13828387Y-14299428D01*
X13828387Y-14299428D02*
X13828387Y-14242286D01*
X13828387Y-14242286D02*
X13837911Y-14223238D01*
X13837911Y-14223238D02*
X13847434Y-14213714D01*
X13847434Y-14213714D02*
X13866482Y-14204190D01*
X13866482Y-14204190D02*
X13895054Y-14204190D01*
X13895054Y-14204190D02*
X13914101Y-14213714D01*
X13914101Y-14213714D02*
X13923625Y-14223238D01*
X13923625Y-14223238D02*
X13933149Y-14242286D01*
X13933149Y-14242286D02*
X13933149Y-14299428D01*
X13933149Y-14299428D02*
X13923625Y-14318476D01*
X13923625Y-14318476D02*
X13914101Y-14328000D01*
X13914101Y-14328000D02*
X13895054Y-14337524D01*
X13895054Y-14337524D02*
X13866482Y-14337524D01*
X13990292Y-14204190D02*
X14066482Y-14204190D01*
X14018863Y-14137524D02*
X14018863Y-14308952D01*
X14018863Y-14308952D02*
X14028387Y-14328000D01*
X14028387Y-14328000D02*
X14047434Y-14337524D01*
X14047434Y-14337524D02*
X14066482Y-14337524D01*
X14123625Y-14328000D02*
X14142673Y-14337524D01*
X14142673Y-14337524D02*
X14180768Y-14337524D01*
X14180768Y-14337524D02*
X14199815Y-14328000D01*
X14199815Y-14328000D02*
X14209339Y-14308952D01*
X14209339Y-14308952D02*
X14209339Y-14299428D01*
X14209339Y-14299428D02*
X14199815Y-14280381D01*
X14199815Y-14280381D02*
X14180768Y-14270857D01*
X14180768Y-14270857D02*
X14152196Y-14270857D01*
X14152196Y-14270857D02*
X14133149Y-14261333D01*
X14133149Y-14261333D02*
X14123625Y-14242286D01*
X14123625Y-14242286D02*
X14123625Y-14232762D01*
X14123625Y-14232762D02*
X14133149Y-14213714D01*
X14133149Y-14213714D02*
X14152196Y-14204190D01*
X14152196Y-14204190D02*
X14180768Y-14204190D01*
X14180768Y-14204190D02*
X14199815Y-14213714D01*
X14276006Y-14413714D02*
X14285530Y-14404190D01*
X14285530Y-14404190D02*
X14304577Y-14375619D01*
X14304577Y-14375619D02*
X14314101Y-14356571D01*
X14314101Y-14356571D02*
X14323625Y-14328000D01*
X14323625Y-14328000D02*
X14333149Y-14280381D01*
X14333149Y-14280381D02*
X14333149Y-14242286D01*
X14333149Y-14242286D02*
X14323625Y-14194667D01*
X14323625Y-14194667D02*
X14314101Y-14166095D01*
X14314101Y-14166095D02*
X14304577Y-14147048D01*
X14304577Y-14147048D02*
X14285530Y-14118476D01*
X14285530Y-14118476D02*
X14276006Y-14108952D01*
D10*
X7895053Y-14509000D02*
G75*
G03*
X7895053Y-14509000I-50000J0D01*
G01*
D11*
X8247434Y-14601524D02*
X8133148Y-14601524D01*
X8190291Y-14601524D02*
X8190291Y-14401524D01*
X8190291Y-14401524D02*
X8171243Y-14430095D01*
X8171243Y-14430095D02*
X8152196Y-14449143D01*
X8152196Y-14449143D02*
X8133148Y-14458667D01*
X8333148Y-14582476D02*
X8342672Y-14592000D01*
X8342672Y-14592000D02*
X8333148Y-14601524D01*
X8333148Y-14601524D02*
X8323624Y-14592000D01*
X8323624Y-14592000D02*
X8333148Y-14582476D01*
X8333148Y-14582476D02*
X8333148Y-14601524D01*
X8466482Y-14401524D02*
X8485529Y-14401524D01*
X8485529Y-14401524D02*
X8504577Y-14411048D01*
X8504577Y-14411048D02*
X8514101Y-14420571D01*
X8514101Y-14420571D02*
X8523624Y-14439619D01*
X8523624Y-14439619D02*
X8533148Y-14477714D01*
X8533148Y-14477714D02*
X8533148Y-14525333D01*
X8533148Y-14525333D02*
X8523624Y-14563428D01*
X8523624Y-14563428D02*
X8514101Y-14582476D01*
X8514101Y-14582476D02*
X8504577Y-14592000D01*
X8504577Y-14592000D02*
X8485529Y-14601524D01*
X8485529Y-14601524D02*
X8466482Y-14601524D01*
X8466482Y-14601524D02*
X8447434Y-14592000D01*
X8447434Y-14592000D02*
X8437910Y-14582476D01*
X8437910Y-14582476D02*
X8428386Y-14563428D01*
X8428386Y-14563428D02*
X8418863Y-14525333D01*
X8418863Y-14525333D02*
X8418863Y-14477714D01*
X8418863Y-14477714D02*
X8428386Y-14439619D01*
X8428386Y-14439619D02*
X8437910Y-14420571D01*
X8437910Y-14420571D02*
X8447434Y-14411048D01*
X8447434Y-14411048D02*
X8466482Y-14401524D01*
X8656958Y-14401524D02*
X8676005Y-14401524D01*
X8676005Y-14401524D02*
X8695053Y-14411048D01*
X8695053Y-14411048D02*
X8704577Y-14420571D01*
X8704577Y-14420571D02*
X8714101Y-14439619D01*
X8714101Y-14439619D02*
X8723624Y-14477714D01*
X8723624Y-14477714D02*
X8723624Y-14525333D01*
X8723624Y-14525333D02*
X8714101Y-14563428D01*
X8714101Y-14563428D02*
X8704577Y-14582476D01*
X8704577Y-14582476D02*
X8695053Y-14592000D01*
X8695053Y-14592000D02*
X8676005Y-14601524D01*
X8676005Y-14601524D02*
X8656958Y-14601524D01*
X8656958Y-14601524D02*
X8637910Y-14592000D01*
X8637910Y-14592000D02*
X8628386Y-14582476D01*
X8628386Y-14582476D02*
X8618863Y-14563428D01*
X8618863Y-14563428D02*
X8609339Y-14525333D01*
X8609339Y-14525333D02*
X8609339Y-14477714D01*
X8609339Y-14477714D02*
X8618863Y-14439619D01*
X8618863Y-14439619D02*
X8628386Y-14420571D01*
X8628386Y-14420571D02*
X8637910Y-14411048D01*
X8637910Y-14411048D02*
X8656958Y-14401524D01*
X8847434Y-14401524D02*
X8866482Y-14401524D01*
X8866482Y-14401524D02*
X8885529Y-14411048D01*
X8885529Y-14411048D02*
X8895053Y-14420571D01*
X8895053Y-14420571D02*
X8904577Y-14439619D01*
X8904577Y-14439619D02*
X8914101Y-14477714D01*
X8914101Y-14477714D02*
X8914101Y-14525333D01*
X8914101Y-14525333D02*
X8904577Y-14563428D01*
X8904577Y-14563428D02*
X8895053Y-14582476D01*
X8895053Y-14582476D02*
X8885529Y-14592000D01*
X8885529Y-14592000D02*
X8866482Y-14601524D01*
X8866482Y-14601524D02*
X8847434Y-14601524D01*
X8847434Y-14601524D02*
X8828386Y-14592000D01*
X8828386Y-14592000D02*
X8818863Y-14582476D01*
X8818863Y-14582476D02*
X8809339Y-14563428D01*
X8809339Y-14563428D02*
X8799815Y-14525333D01*
X8799815Y-14525333D02*
X8799815Y-14477714D01*
X8799815Y-14477714D02*
X8809339Y-14439619D01*
X8809339Y-14439619D02*
X8818863Y-14420571D01*
X8818863Y-14420571D02*
X8828386Y-14411048D01*
X8828386Y-14411048D02*
X8847434Y-14401524D01*
X8999815Y-14601524D02*
X8999815Y-14468190D01*
X8999815Y-14487238D02*
X9009339Y-14477714D01*
X9009339Y-14477714D02*
X9028386Y-14468190D01*
X9028386Y-14468190D02*
X9056958Y-14468190D01*
X9056958Y-14468190D02*
X9076005Y-14477714D01*
X9076005Y-14477714D02*
X9085529Y-14496762D01*
X9085529Y-14496762D02*
X9085529Y-14601524D01*
X9085529Y-14496762D02*
X9095053Y-14477714D01*
X9095053Y-14477714D02*
X9114101Y-14468190D01*
X9114101Y-14468190D02*
X9142672Y-14468190D01*
X9142672Y-14468190D02*
X9161720Y-14477714D01*
X9161720Y-14477714D02*
X9171244Y-14496762D01*
X9171244Y-14496762D02*
X9171244Y-14601524D01*
X9266482Y-14601524D02*
X9266482Y-14468190D01*
X9266482Y-14487238D02*
X9276005Y-14477714D01*
X9276005Y-14477714D02*
X9295053Y-14468190D01*
X9295053Y-14468190D02*
X9323625Y-14468190D01*
X9323625Y-14468190D02*
X9342672Y-14477714D01*
X9342672Y-14477714D02*
X9352196Y-14496762D01*
X9352196Y-14496762D02*
X9352196Y-14601524D01*
X9352196Y-14496762D02*
X9361720Y-14477714D01*
X9361720Y-14477714D02*
X9380767Y-14468190D01*
X9380767Y-14468190D02*
X9409339Y-14468190D01*
X9409339Y-14468190D02*
X9428386Y-14477714D01*
X9428386Y-14477714D02*
X9437910Y-14496762D01*
X9437910Y-14496762D02*
X9437910Y-14601524D01*
X9828386Y-14392000D02*
X9656958Y-14649143D01*
X10085529Y-14401524D02*
X10104577Y-14401524D01*
X10104577Y-14401524D02*
X10123625Y-14411048D01*
X10123625Y-14411048D02*
X10133148Y-14420571D01*
X10133148Y-14420571D02*
X10142672Y-14439619D01*
X10142672Y-14439619D02*
X10152196Y-14477714D01*
X10152196Y-14477714D02*
X10152196Y-14525333D01*
X10152196Y-14525333D02*
X10142672Y-14563428D01*
X10142672Y-14563428D02*
X10133148Y-14582476D01*
X10133148Y-14582476D02*
X10123625Y-14592000D01*
X10123625Y-14592000D02*
X10104577Y-14601524D01*
X10104577Y-14601524D02*
X10085529Y-14601524D01*
X10085529Y-14601524D02*
X10066482Y-14592000D01*
X10066482Y-14592000D02*
X10056958Y-14582476D01*
X10056958Y-14582476D02*
X10047434Y-14563428D01*
X10047434Y-14563428D02*
X10037910Y-14525333D01*
X10037910Y-14525333D02*
X10037910Y-14477714D01*
X10037910Y-14477714D02*
X10047434Y-14439619D01*
X10047434Y-14439619D02*
X10056958Y-14420571D01*
X10056958Y-14420571D02*
X10066482Y-14411048D01*
X10066482Y-14411048D02*
X10085529Y-14401524D01*
X10237910Y-14582476D02*
X10247434Y-14592000D01*
X10247434Y-14592000D02*
X10237910Y-14601524D01*
X10237910Y-14601524D02*
X10228387Y-14592000D01*
X10228387Y-14592000D02*
X10237910Y-14582476D01*
X10237910Y-14582476D02*
X10237910Y-14601524D01*
X10371244Y-14401524D02*
X10390291Y-14401524D01*
X10390291Y-14401524D02*
X10409339Y-14411048D01*
X10409339Y-14411048D02*
X10418863Y-14420571D01*
X10418863Y-14420571D02*
X10428387Y-14439619D01*
X10428387Y-14439619D02*
X10437910Y-14477714D01*
X10437910Y-14477714D02*
X10437910Y-14525333D01*
X10437910Y-14525333D02*
X10428387Y-14563428D01*
X10428387Y-14563428D02*
X10418863Y-14582476D01*
X10418863Y-14582476D02*
X10409339Y-14592000D01*
X10409339Y-14592000D02*
X10390291Y-14601524D01*
X10390291Y-14601524D02*
X10371244Y-14601524D01*
X10371244Y-14601524D02*
X10352196Y-14592000D01*
X10352196Y-14592000D02*
X10342672Y-14582476D01*
X10342672Y-14582476D02*
X10333148Y-14563428D01*
X10333148Y-14563428D02*
X10323625Y-14525333D01*
X10323625Y-14525333D02*
X10323625Y-14477714D01*
X10323625Y-14477714D02*
X10333148Y-14439619D01*
X10333148Y-14439619D02*
X10342672Y-14420571D01*
X10342672Y-14420571D02*
X10352196Y-14411048D01*
X10352196Y-14411048D02*
X10371244Y-14401524D01*
X10504577Y-14401524D02*
X10628387Y-14401524D01*
X10628387Y-14401524D02*
X10561720Y-14477714D01*
X10561720Y-14477714D02*
X10590291Y-14477714D01*
X10590291Y-14477714D02*
X10609339Y-14487238D01*
X10609339Y-14487238D02*
X10618863Y-14496762D01*
X10618863Y-14496762D02*
X10628387Y-14515809D01*
X10628387Y-14515809D02*
X10628387Y-14563428D01*
X10628387Y-14563428D02*
X10618863Y-14582476D01*
X10618863Y-14582476D02*
X10609339Y-14592000D01*
X10609339Y-14592000D02*
X10590291Y-14601524D01*
X10590291Y-14601524D02*
X10533148Y-14601524D01*
X10533148Y-14601524D02*
X10514101Y-14592000D01*
X10514101Y-14592000D02*
X10504577Y-14582476D01*
X10723625Y-14601524D02*
X10761720Y-14601524D01*
X10761720Y-14601524D02*
X10780768Y-14592000D01*
X10780768Y-14592000D02*
X10790291Y-14582476D01*
X10790291Y-14582476D02*
X10809339Y-14553905D01*
X10809339Y-14553905D02*
X10818863Y-14515809D01*
X10818863Y-14515809D02*
X10818863Y-14439619D01*
X10818863Y-14439619D02*
X10809339Y-14420571D01*
X10809339Y-14420571D02*
X10799815Y-14411048D01*
X10799815Y-14411048D02*
X10780768Y-14401524D01*
X10780768Y-14401524D02*
X10742672Y-14401524D01*
X10742672Y-14401524D02*
X10723625Y-14411048D01*
X10723625Y-14411048D02*
X10714101Y-14420571D01*
X10714101Y-14420571D02*
X10704577Y-14439619D01*
X10704577Y-14439619D02*
X10704577Y-14487238D01*
X10704577Y-14487238D02*
X10714101Y-14506286D01*
X10714101Y-14506286D02*
X10723625Y-14515809D01*
X10723625Y-14515809D02*
X10742672Y-14525333D01*
X10742672Y-14525333D02*
X10780768Y-14525333D01*
X10780768Y-14525333D02*
X10799815Y-14515809D01*
X10799815Y-14515809D02*
X10809339Y-14506286D01*
X10809339Y-14506286D02*
X10818863Y-14487238D01*
X10990291Y-14468190D02*
X10990291Y-14601524D01*
X10942672Y-14392000D02*
X10895053Y-14534857D01*
X10895053Y-14534857D02*
X11018863Y-14534857D01*
X11085529Y-14401524D02*
X11085529Y-14439619D01*
X11161720Y-14401524D02*
X11161720Y-14439619D01*
X11456958Y-14677714D02*
X11447434Y-14668190D01*
X11447434Y-14668190D02*
X11428387Y-14639619D01*
X11428387Y-14639619D02*
X11418863Y-14620571D01*
X11418863Y-14620571D02*
X11409339Y-14592000D01*
X11409339Y-14592000D02*
X11399815Y-14544381D01*
X11399815Y-14544381D02*
X11399815Y-14506286D01*
X11399815Y-14506286D02*
X11409339Y-14458667D01*
X11409339Y-14458667D02*
X11418863Y-14430095D01*
X11418863Y-14430095D02*
X11428387Y-14411048D01*
X11428387Y-14411048D02*
X11447434Y-14382476D01*
X11447434Y-14382476D02*
X11456958Y-14372952D01*
X11514101Y-14401524D02*
X11647434Y-14401524D01*
X11647434Y-14401524D02*
X11561720Y-14601524D01*
X11761720Y-14401524D02*
X11780768Y-14401524D01*
X11780768Y-14401524D02*
X11799815Y-14411048D01*
X11799815Y-14411048D02*
X11809339Y-14420571D01*
X11809339Y-14420571D02*
X11818863Y-14439619D01*
X11818863Y-14439619D02*
X11828387Y-14477714D01*
X11828387Y-14477714D02*
X11828387Y-14525333D01*
X11828387Y-14525333D02*
X11818863Y-14563428D01*
X11818863Y-14563428D02*
X11809339Y-14582476D01*
X11809339Y-14582476D02*
X11799815Y-14592000D01*
X11799815Y-14592000D02*
X11780768Y-14601524D01*
X11780768Y-14601524D02*
X11761720Y-14601524D01*
X11761720Y-14601524D02*
X11742672Y-14592000D01*
X11742672Y-14592000D02*
X11733148Y-14582476D01*
X11733148Y-14582476D02*
X11723625Y-14563428D01*
X11723625Y-14563428D02*
X11714101Y-14525333D01*
X11714101Y-14525333D02*
X11714101Y-14477714D01*
X11714101Y-14477714D02*
X11723625Y-14439619D01*
X11723625Y-14439619D02*
X11733148Y-14420571D01*
X11733148Y-14420571D02*
X11742672Y-14411048D01*
X11742672Y-14411048D02*
X11761720Y-14401524D01*
X12066482Y-14601524D02*
X12066482Y-14401524D01*
X12152196Y-14601524D02*
X12152196Y-14496762D01*
X12152196Y-14496762D02*
X12142672Y-14477714D01*
X12142672Y-14477714D02*
X12123625Y-14468190D01*
X12123625Y-14468190D02*
X12095053Y-14468190D01*
X12095053Y-14468190D02*
X12076006Y-14477714D01*
X12076006Y-14477714D02*
X12066482Y-14487238D01*
X12276006Y-14601524D02*
X12256958Y-14592000D01*
X12256958Y-14592000D02*
X12247434Y-14582476D01*
X12247434Y-14582476D02*
X12237910Y-14563428D01*
X12237910Y-14563428D02*
X12237910Y-14506286D01*
X12237910Y-14506286D02*
X12247434Y-14487238D01*
X12247434Y-14487238D02*
X12256958Y-14477714D01*
X12256958Y-14477714D02*
X12276006Y-14468190D01*
X12276006Y-14468190D02*
X12304577Y-14468190D01*
X12304577Y-14468190D02*
X12323625Y-14477714D01*
X12323625Y-14477714D02*
X12333149Y-14487238D01*
X12333149Y-14487238D02*
X12342672Y-14506286D01*
X12342672Y-14506286D02*
X12342672Y-14563428D01*
X12342672Y-14563428D02*
X12333149Y-14582476D01*
X12333149Y-14582476D02*
X12323625Y-14592000D01*
X12323625Y-14592000D02*
X12304577Y-14601524D01*
X12304577Y-14601524D02*
X12276006Y-14601524D01*
X12456958Y-14601524D02*
X12437910Y-14592000D01*
X12437910Y-14592000D02*
X12428387Y-14572952D01*
X12428387Y-14572952D02*
X12428387Y-14401524D01*
X12609339Y-14592000D02*
X12590291Y-14601524D01*
X12590291Y-14601524D02*
X12552196Y-14601524D01*
X12552196Y-14601524D02*
X12533149Y-14592000D01*
X12533149Y-14592000D02*
X12523625Y-14572952D01*
X12523625Y-14572952D02*
X12523625Y-14496762D01*
X12523625Y-14496762D02*
X12533149Y-14477714D01*
X12533149Y-14477714D02*
X12552196Y-14468190D01*
X12552196Y-14468190D02*
X12590291Y-14468190D01*
X12590291Y-14468190D02*
X12609339Y-14477714D01*
X12609339Y-14477714D02*
X12618863Y-14496762D01*
X12618863Y-14496762D02*
X12618863Y-14515809D01*
X12618863Y-14515809D02*
X12523625Y-14534857D01*
X12695053Y-14592000D02*
X12714101Y-14601524D01*
X12714101Y-14601524D02*
X12752196Y-14601524D01*
X12752196Y-14601524D02*
X12771244Y-14592000D01*
X12771244Y-14592000D02*
X12780768Y-14572952D01*
X12780768Y-14572952D02*
X12780768Y-14563428D01*
X12780768Y-14563428D02*
X12771244Y-14544381D01*
X12771244Y-14544381D02*
X12752196Y-14534857D01*
X12752196Y-14534857D02*
X12723625Y-14534857D01*
X12723625Y-14534857D02*
X12704577Y-14525333D01*
X12704577Y-14525333D02*
X12695053Y-14506286D01*
X12695053Y-14506286D02*
X12695053Y-14496762D01*
X12695053Y-14496762D02*
X12704577Y-14477714D01*
X12704577Y-14477714D02*
X12723625Y-14468190D01*
X12723625Y-14468190D02*
X12752196Y-14468190D01*
X12752196Y-14468190D02*
X12771244Y-14477714D01*
X12847434Y-14677714D02*
X12856958Y-14668190D01*
X12856958Y-14668190D02*
X12876006Y-14639619D01*
X12876006Y-14639619D02*
X12885530Y-14620571D01*
X12885530Y-14620571D02*
X12895053Y-14592000D01*
X12895053Y-14592000D02*
X12904577Y-14544381D01*
X12904577Y-14544381D02*
X12904577Y-14506286D01*
X12904577Y-14506286D02*
X12895053Y-14458667D01*
X12895053Y-14458667D02*
X12885530Y-14430095D01*
X12885530Y-14430095D02*
X12876006Y-14411048D01*
X12876006Y-14411048D02*
X12856958Y-14382476D01*
X12856958Y-14382476D02*
X12847434Y-14372952D01*
D13*
X7840553Y-14718500D02*
X7840553Y-14827500D01*
X7786053Y-14773000D02*
X7895053Y-14773000D01*
D11*
X8247434Y-14865524D02*
X8133148Y-14865524D01*
X8190291Y-14865524D02*
X8190291Y-14665524D01*
X8190291Y-14665524D02*
X8171243Y-14694095D01*
X8171243Y-14694095D02*
X8152196Y-14713143D01*
X8152196Y-14713143D02*
X8133148Y-14722667D01*
X8333148Y-14846476D02*
X8342672Y-14856000D01*
X8342672Y-14856000D02*
X8333148Y-14865524D01*
X8333148Y-14865524D02*
X8323624Y-14856000D01*
X8323624Y-14856000D02*
X8333148Y-14846476D01*
X8333148Y-14846476D02*
X8333148Y-14865524D01*
X8466482Y-14665524D02*
X8485529Y-14665524D01*
X8485529Y-14665524D02*
X8504577Y-14675048D01*
X8504577Y-14675048D02*
X8514101Y-14684571D01*
X8514101Y-14684571D02*
X8523624Y-14703619D01*
X8523624Y-14703619D02*
X8533148Y-14741714D01*
X8533148Y-14741714D02*
X8533148Y-14789333D01*
X8533148Y-14789333D02*
X8523624Y-14827428D01*
X8523624Y-14827428D02*
X8514101Y-14846476D01*
X8514101Y-14846476D02*
X8504577Y-14856000D01*
X8504577Y-14856000D02*
X8485529Y-14865524D01*
X8485529Y-14865524D02*
X8466482Y-14865524D01*
X8466482Y-14865524D02*
X8447434Y-14856000D01*
X8447434Y-14856000D02*
X8437910Y-14846476D01*
X8437910Y-14846476D02*
X8428386Y-14827428D01*
X8428386Y-14827428D02*
X8418863Y-14789333D01*
X8418863Y-14789333D02*
X8418863Y-14741714D01*
X8418863Y-14741714D02*
X8428386Y-14703619D01*
X8428386Y-14703619D02*
X8437910Y-14684571D01*
X8437910Y-14684571D02*
X8447434Y-14675048D01*
X8447434Y-14675048D02*
X8466482Y-14665524D01*
X8628386Y-14865524D02*
X8666482Y-14865524D01*
X8666482Y-14865524D02*
X8685529Y-14856000D01*
X8685529Y-14856000D02*
X8695053Y-14846476D01*
X8695053Y-14846476D02*
X8714101Y-14817905D01*
X8714101Y-14817905D02*
X8723624Y-14779809D01*
X8723624Y-14779809D02*
X8723624Y-14703619D01*
X8723624Y-14703619D02*
X8714101Y-14684571D01*
X8714101Y-14684571D02*
X8704577Y-14675048D01*
X8704577Y-14675048D02*
X8685529Y-14665524D01*
X8685529Y-14665524D02*
X8647434Y-14665524D01*
X8647434Y-14665524D02*
X8628386Y-14675048D01*
X8628386Y-14675048D02*
X8618863Y-14684571D01*
X8618863Y-14684571D02*
X8609339Y-14703619D01*
X8609339Y-14703619D02*
X8609339Y-14751238D01*
X8609339Y-14751238D02*
X8618863Y-14770286D01*
X8618863Y-14770286D02*
X8628386Y-14779809D01*
X8628386Y-14779809D02*
X8647434Y-14789333D01*
X8647434Y-14789333D02*
X8685529Y-14789333D01*
X8685529Y-14789333D02*
X8704577Y-14779809D01*
X8704577Y-14779809D02*
X8714101Y-14770286D01*
X8714101Y-14770286D02*
X8723624Y-14751238D01*
X8847434Y-14665524D02*
X8866482Y-14665524D01*
X8866482Y-14665524D02*
X8885529Y-14675048D01*
X8885529Y-14675048D02*
X8895053Y-14684571D01*
X8895053Y-14684571D02*
X8904577Y-14703619D01*
X8904577Y-14703619D02*
X8914101Y-14741714D01*
X8914101Y-14741714D02*
X8914101Y-14789333D01*
X8914101Y-14789333D02*
X8904577Y-14827428D01*
X8904577Y-14827428D02*
X8895053Y-14846476D01*
X8895053Y-14846476D02*
X8885529Y-14856000D01*
X8885529Y-14856000D02*
X8866482Y-14865524D01*
X8866482Y-14865524D02*
X8847434Y-14865524D01*
X8847434Y-14865524D02*
X8828386Y-14856000D01*
X8828386Y-14856000D02*
X8818863Y-14846476D01*
X8818863Y-14846476D02*
X8809339Y-14827428D01*
X8809339Y-14827428D02*
X8799815Y-14789333D01*
X8799815Y-14789333D02*
X8799815Y-14741714D01*
X8799815Y-14741714D02*
X8809339Y-14703619D01*
X8809339Y-14703619D02*
X8818863Y-14684571D01*
X8818863Y-14684571D02*
X8828386Y-14675048D01*
X8828386Y-14675048D02*
X8847434Y-14665524D01*
X8999815Y-14865524D02*
X8999815Y-14732190D01*
X8999815Y-14751238D02*
X9009339Y-14741714D01*
X9009339Y-14741714D02*
X9028386Y-14732190D01*
X9028386Y-14732190D02*
X9056958Y-14732190D01*
X9056958Y-14732190D02*
X9076005Y-14741714D01*
X9076005Y-14741714D02*
X9085529Y-14760762D01*
X9085529Y-14760762D02*
X9085529Y-14865524D01*
X9085529Y-14760762D02*
X9095053Y-14741714D01*
X9095053Y-14741714D02*
X9114101Y-14732190D01*
X9114101Y-14732190D02*
X9142672Y-14732190D01*
X9142672Y-14732190D02*
X9161720Y-14741714D01*
X9161720Y-14741714D02*
X9171244Y-14760762D01*
X9171244Y-14760762D02*
X9171244Y-14865524D01*
X9266482Y-14865524D02*
X9266482Y-14732190D01*
X9266482Y-14751238D02*
X9276005Y-14741714D01*
X9276005Y-14741714D02*
X9295053Y-14732190D01*
X9295053Y-14732190D02*
X9323625Y-14732190D01*
X9323625Y-14732190D02*
X9342672Y-14741714D01*
X9342672Y-14741714D02*
X9352196Y-14760762D01*
X9352196Y-14760762D02*
X9352196Y-14865524D01*
X9352196Y-14760762D02*
X9361720Y-14741714D01*
X9361720Y-14741714D02*
X9380767Y-14732190D01*
X9380767Y-14732190D02*
X9409339Y-14732190D01*
X9409339Y-14732190D02*
X9428386Y-14741714D01*
X9428386Y-14741714D02*
X9437910Y-14760762D01*
X9437910Y-14760762D02*
X9437910Y-14865524D01*
X9828386Y-14656000D02*
X9656958Y-14913143D01*
X10085529Y-14665524D02*
X10104577Y-14665524D01*
X10104577Y-14665524D02*
X10123625Y-14675048D01*
X10123625Y-14675048D02*
X10133148Y-14684571D01*
X10133148Y-14684571D02*
X10142672Y-14703619D01*
X10142672Y-14703619D02*
X10152196Y-14741714D01*
X10152196Y-14741714D02*
X10152196Y-14789333D01*
X10152196Y-14789333D02*
X10142672Y-14827428D01*
X10142672Y-14827428D02*
X10133148Y-14846476D01*
X10133148Y-14846476D02*
X10123625Y-14856000D01*
X10123625Y-14856000D02*
X10104577Y-14865524D01*
X10104577Y-14865524D02*
X10085529Y-14865524D01*
X10085529Y-14865524D02*
X10066482Y-14856000D01*
X10066482Y-14856000D02*
X10056958Y-14846476D01*
X10056958Y-14846476D02*
X10047434Y-14827428D01*
X10047434Y-14827428D02*
X10037910Y-14789333D01*
X10037910Y-14789333D02*
X10037910Y-14741714D01*
X10037910Y-14741714D02*
X10047434Y-14703619D01*
X10047434Y-14703619D02*
X10056958Y-14684571D01*
X10056958Y-14684571D02*
X10066482Y-14675048D01*
X10066482Y-14675048D02*
X10085529Y-14665524D01*
X10237910Y-14846476D02*
X10247434Y-14856000D01*
X10247434Y-14856000D02*
X10237910Y-14865524D01*
X10237910Y-14865524D02*
X10228387Y-14856000D01*
X10228387Y-14856000D02*
X10237910Y-14846476D01*
X10237910Y-14846476D02*
X10237910Y-14865524D01*
X10371244Y-14665524D02*
X10390291Y-14665524D01*
X10390291Y-14665524D02*
X10409339Y-14675048D01*
X10409339Y-14675048D02*
X10418863Y-14684571D01*
X10418863Y-14684571D02*
X10428387Y-14703619D01*
X10428387Y-14703619D02*
X10437910Y-14741714D01*
X10437910Y-14741714D02*
X10437910Y-14789333D01*
X10437910Y-14789333D02*
X10428387Y-14827428D01*
X10428387Y-14827428D02*
X10418863Y-14846476D01*
X10418863Y-14846476D02*
X10409339Y-14856000D01*
X10409339Y-14856000D02*
X10390291Y-14865524D01*
X10390291Y-14865524D02*
X10371244Y-14865524D01*
X10371244Y-14865524D02*
X10352196Y-14856000D01*
X10352196Y-14856000D02*
X10342672Y-14846476D01*
X10342672Y-14846476D02*
X10333148Y-14827428D01*
X10333148Y-14827428D02*
X10323625Y-14789333D01*
X10323625Y-14789333D02*
X10323625Y-14741714D01*
X10323625Y-14741714D02*
X10333148Y-14703619D01*
X10333148Y-14703619D02*
X10342672Y-14684571D01*
X10342672Y-14684571D02*
X10352196Y-14675048D01*
X10352196Y-14675048D02*
X10371244Y-14665524D01*
X10609339Y-14732190D02*
X10609339Y-14865524D01*
X10561720Y-14656000D02*
X10514101Y-14798857D01*
X10514101Y-14798857D02*
X10637910Y-14798857D01*
X10704577Y-14684571D02*
X10714101Y-14675048D01*
X10714101Y-14675048D02*
X10733148Y-14665524D01*
X10733148Y-14665524D02*
X10780768Y-14665524D01*
X10780768Y-14665524D02*
X10799815Y-14675048D01*
X10799815Y-14675048D02*
X10809339Y-14684571D01*
X10809339Y-14684571D02*
X10818863Y-14703619D01*
X10818863Y-14703619D02*
X10818863Y-14722667D01*
X10818863Y-14722667D02*
X10809339Y-14751238D01*
X10809339Y-14751238D02*
X10695053Y-14865524D01*
X10695053Y-14865524D02*
X10818863Y-14865524D01*
X10914101Y-14865524D02*
X10952196Y-14865524D01*
X10952196Y-14865524D02*
X10971244Y-14856000D01*
X10971244Y-14856000D02*
X10980768Y-14846476D01*
X10980768Y-14846476D02*
X10999815Y-14817905D01*
X10999815Y-14817905D02*
X11009339Y-14779809D01*
X11009339Y-14779809D02*
X11009339Y-14703619D01*
X11009339Y-14703619D02*
X10999815Y-14684571D01*
X10999815Y-14684571D02*
X10990291Y-14675048D01*
X10990291Y-14675048D02*
X10971244Y-14665524D01*
X10971244Y-14665524D02*
X10933148Y-14665524D01*
X10933148Y-14665524D02*
X10914101Y-14675048D01*
X10914101Y-14675048D02*
X10904577Y-14684571D01*
X10904577Y-14684571D02*
X10895053Y-14703619D01*
X10895053Y-14703619D02*
X10895053Y-14751238D01*
X10895053Y-14751238D02*
X10904577Y-14770286D01*
X10904577Y-14770286D02*
X10914101Y-14779809D01*
X10914101Y-14779809D02*
X10933148Y-14789333D01*
X10933148Y-14789333D02*
X10971244Y-14789333D01*
X10971244Y-14789333D02*
X10990291Y-14779809D01*
X10990291Y-14779809D02*
X10999815Y-14770286D01*
X10999815Y-14770286D02*
X11009339Y-14751238D01*
X11085529Y-14665524D02*
X11085529Y-14703619D01*
X11161720Y-14665524D02*
X11161720Y-14703619D01*
X11456958Y-14941714D02*
X11447434Y-14932190D01*
X11447434Y-14932190D02*
X11428387Y-14903619D01*
X11428387Y-14903619D02*
X11418863Y-14884571D01*
X11418863Y-14884571D02*
X11409339Y-14856000D01*
X11409339Y-14856000D02*
X11399815Y-14808381D01*
X11399815Y-14808381D02*
X11399815Y-14770286D01*
X11399815Y-14770286D02*
X11409339Y-14722667D01*
X11409339Y-14722667D02*
X11418863Y-14694095D01*
X11418863Y-14694095D02*
X11428387Y-14675048D01*
X11428387Y-14675048D02*
X11447434Y-14646476D01*
X11447434Y-14646476D02*
X11456958Y-14636952D01*
X11523625Y-14684571D02*
X11533148Y-14675048D01*
X11533148Y-14675048D02*
X11552196Y-14665524D01*
X11552196Y-14665524D02*
X11599815Y-14665524D01*
X11599815Y-14665524D02*
X11618863Y-14675048D01*
X11618863Y-14675048D02*
X11628387Y-14684571D01*
X11628387Y-14684571D02*
X11637910Y-14703619D01*
X11637910Y-14703619D02*
X11637910Y-14722667D01*
X11637910Y-14722667D02*
X11628387Y-14751238D01*
X11628387Y-14751238D02*
X11514101Y-14865524D01*
X11514101Y-14865524D02*
X11637910Y-14865524D01*
X11876006Y-14865524D02*
X11876006Y-14665524D01*
X11961720Y-14865524D02*
X11961720Y-14760762D01*
X11961720Y-14760762D02*
X11952196Y-14741714D01*
X11952196Y-14741714D02*
X11933149Y-14732190D01*
X11933149Y-14732190D02*
X11904577Y-14732190D01*
X11904577Y-14732190D02*
X11885529Y-14741714D01*
X11885529Y-14741714D02*
X11876006Y-14751238D01*
X12085529Y-14865524D02*
X12066482Y-14856000D01*
X12066482Y-14856000D02*
X12056958Y-14846476D01*
X12056958Y-14846476D02*
X12047434Y-14827428D01*
X12047434Y-14827428D02*
X12047434Y-14770286D01*
X12047434Y-14770286D02*
X12056958Y-14751238D01*
X12056958Y-14751238D02*
X12066482Y-14741714D01*
X12066482Y-14741714D02*
X12085529Y-14732190D01*
X12085529Y-14732190D02*
X12114101Y-14732190D01*
X12114101Y-14732190D02*
X12133149Y-14741714D01*
X12133149Y-14741714D02*
X12142672Y-14751238D01*
X12142672Y-14751238D02*
X12152196Y-14770286D01*
X12152196Y-14770286D02*
X12152196Y-14827428D01*
X12152196Y-14827428D02*
X12142672Y-14846476D01*
X12142672Y-14846476D02*
X12133149Y-14856000D01*
X12133149Y-14856000D02*
X12114101Y-14865524D01*
X12114101Y-14865524D02*
X12085529Y-14865524D01*
X12266482Y-14865524D02*
X12247434Y-14856000D01*
X12247434Y-14856000D02*
X12237910Y-14836952D01*
X12237910Y-14836952D02*
X12237910Y-14665524D01*
X12418863Y-14856000D02*
X12399815Y-14865524D01*
X12399815Y-14865524D02*
X12361720Y-14865524D01*
X12361720Y-14865524D02*
X12342672Y-14856000D01*
X12342672Y-14856000D02*
X12333149Y-14836952D01*
X12333149Y-14836952D02*
X12333149Y-14760762D01*
X12333149Y-14760762D02*
X12342672Y-14741714D01*
X12342672Y-14741714D02*
X12361720Y-14732190D01*
X12361720Y-14732190D02*
X12399815Y-14732190D01*
X12399815Y-14732190D02*
X12418863Y-14741714D01*
X12418863Y-14741714D02*
X12428387Y-14760762D01*
X12428387Y-14760762D02*
X12428387Y-14779809D01*
X12428387Y-14779809D02*
X12333149Y-14798857D01*
X12504577Y-14856000D02*
X12523625Y-14865524D01*
X12523625Y-14865524D02*
X12561720Y-14865524D01*
X12561720Y-14865524D02*
X12580768Y-14856000D01*
X12580768Y-14856000D02*
X12590291Y-14836952D01*
X12590291Y-14836952D02*
X12590291Y-14827428D01*
X12590291Y-14827428D02*
X12580768Y-14808381D01*
X12580768Y-14808381D02*
X12561720Y-14798857D01*
X12561720Y-14798857D02*
X12533149Y-14798857D01*
X12533149Y-14798857D02*
X12514101Y-14789333D01*
X12514101Y-14789333D02*
X12504577Y-14770286D01*
X12504577Y-14770286D02*
X12504577Y-14760762D01*
X12504577Y-14760762D02*
X12514101Y-14741714D01*
X12514101Y-14741714D02*
X12533149Y-14732190D01*
X12533149Y-14732190D02*
X12561720Y-14732190D01*
X12561720Y-14732190D02*
X12580768Y-14741714D01*
X12656958Y-14941714D02*
X12666482Y-14932190D01*
X12666482Y-14932190D02*
X12685530Y-14903619D01*
X12685530Y-14903619D02*
X12695053Y-14884571D01*
X12695053Y-14884571D02*
X12704577Y-14856000D01*
X12704577Y-14856000D02*
X12714101Y-14808381D01*
X12714101Y-14808381D02*
X12714101Y-14770286D01*
X12714101Y-14770286D02*
X12704577Y-14722667D01*
X12704577Y-14722667D02*
X12695053Y-14694095D01*
X12695053Y-14694095D02*
X12685530Y-14675048D01*
X12685530Y-14675048D02*
X12666482Y-14646476D01*
X12666482Y-14646476D02*
X12656958Y-14636952D01*
X7865764Y-15107711D02*
X7865764Y-14966289D01*
X7724342Y-14966289D01*
X7724342Y-15107711D01*
X7865764Y-15107711D01*
X8133148Y-14948571D02*
X8142672Y-14939048D01*
X8142672Y-14939048D02*
X8161720Y-14929524D01*
X8161720Y-14929524D02*
X8209339Y-14929524D01*
X8209339Y-14929524D02*
X8228386Y-14939048D01*
X8228386Y-14939048D02*
X8237910Y-14948571D01*
X8237910Y-14948571D02*
X8247434Y-14967619D01*
X8247434Y-14967619D02*
X8247434Y-14986667D01*
X8247434Y-14986667D02*
X8237910Y-15015238D01*
X8237910Y-15015238D02*
X8123624Y-15129524D01*
X8123624Y-15129524D02*
X8247434Y-15129524D01*
X8333148Y-15110476D02*
X8342672Y-15120000D01*
X8342672Y-15120000D02*
X8333148Y-15129524D01*
X8333148Y-15129524D02*
X8323624Y-15120000D01*
X8323624Y-15120000D02*
X8333148Y-15110476D01*
X8333148Y-15110476D02*
X8333148Y-15129524D01*
X8409339Y-14929524D02*
X8542672Y-14929524D01*
X8542672Y-14929524D02*
X8456958Y-15129524D01*
X8656958Y-14929524D02*
X8676005Y-14929524D01*
X8676005Y-14929524D02*
X8695053Y-14939048D01*
X8695053Y-14939048D02*
X8704577Y-14948571D01*
X8704577Y-14948571D02*
X8714101Y-14967619D01*
X8714101Y-14967619D02*
X8723624Y-15005714D01*
X8723624Y-15005714D02*
X8723624Y-15053333D01*
X8723624Y-15053333D02*
X8714101Y-15091428D01*
X8714101Y-15091428D02*
X8704577Y-15110476D01*
X8704577Y-15110476D02*
X8695053Y-15120000D01*
X8695053Y-15120000D02*
X8676005Y-15129524D01*
X8676005Y-15129524D02*
X8656958Y-15129524D01*
X8656958Y-15129524D02*
X8637910Y-15120000D01*
X8637910Y-15120000D02*
X8628386Y-15110476D01*
X8628386Y-15110476D02*
X8618863Y-15091428D01*
X8618863Y-15091428D02*
X8609339Y-15053333D01*
X8609339Y-15053333D02*
X8609339Y-15005714D01*
X8609339Y-15005714D02*
X8618863Y-14967619D01*
X8618863Y-14967619D02*
X8628386Y-14948571D01*
X8628386Y-14948571D02*
X8637910Y-14939048D01*
X8637910Y-14939048D02*
X8656958Y-14929524D01*
X8847434Y-14929524D02*
X8866482Y-14929524D01*
X8866482Y-14929524D02*
X8885529Y-14939048D01*
X8885529Y-14939048D02*
X8895053Y-14948571D01*
X8895053Y-14948571D02*
X8904577Y-14967619D01*
X8904577Y-14967619D02*
X8914101Y-15005714D01*
X8914101Y-15005714D02*
X8914101Y-15053333D01*
X8914101Y-15053333D02*
X8904577Y-15091428D01*
X8904577Y-15091428D02*
X8895053Y-15110476D01*
X8895053Y-15110476D02*
X8885529Y-15120000D01*
X8885529Y-15120000D02*
X8866482Y-15129524D01*
X8866482Y-15129524D02*
X8847434Y-15129524D01*
X8847434Y-15129524D02*
X8828386Y-15120000D01*
X8828386Y-15120000D02*
X8818863Y-15110476D01*
X8818863Y-15110476D02*
X8809339Y-15091428D01*
X8809339Y-15091428D02*
X8799815Y-15053333D01*
X8799815Y-15053333D02*
X8799815Y-15005714D01*
X8799815Y-15005714D02*
X8809339Y-14967619D01*
X8809339Y-14967619D02*
X8818863Y-14948571D01*
X8818863Y-14948571D02*
X8828386Y-14939048D01*
X8828386Y-14939048D02*
X8847434Y-14929524D01*
X8999815Y-15129524D02*
X8999815Y-14996190D01*
X8999815Y-15015238D02*
X9009339Y-15005714D01*
X9009339Y-15005714D02*
X9028386Y-14996190D01*
X9028386Y-14996190D02*
X9056958Y-14996190D01*
X9056958Y-14996190D02*
X9076005Y-15005714D01*
X9076005Y-15005714D02*
X9085529Y-15024762D01*
X9085529Y-15024762D02*
X9085529Y-15129524D01*
X9085529Y-15024762D02*
X9095053Y-15005714D01*
X9095053Y-15005714D02*
X9114101Y-14996190D01*
X9114101Y-14996190D02*
X9142672Y-14996190D01*
X9142672Y-14996190D02*
X9161720Y-15005714D01*
X9161720Y-15005714D02*
X9171244Y-15024762D01*
X9171244Y-15024762D02*
X9171244Y-15129524D01*
X9266482Y-15129524D02*
X9266482Y-14996190D01*
X9266482Y-15015238D02*
X9276005Y-15005714D01*
X9276005Y-15005714D02*
X9295053Y-14996190D01*
X9295053Y-14996190D02*
X9323625Y-14996190D01*
X9323625Y-14996190D02*
X9342672Y-15005714D01*
X9342672Y-15005714D02*
X9352196Y-15024762D01*
X9352196Y-15024762D02*
X9352196Y-15129524D01*
X9352196Y-15024762D02*
X9361720Y-15005714D01*
X9361720Y-15005714D02*
X9380767Y-14996190D01*
X9380767Y-14996190D02*
X9409339Y-14996190D01*
X9409339Y-14996190D02*
X9428386Y-15005714D01*
X9428386Y-15005714D02*
X9437910Y-15024762D01*
X9437910Y-15024762D02*
X9437910Y-15129524D01*
X9828386Y-14920000D02*
X9656958Y-15177143D01*
X10085529Y-14929524D02*
X10104577Y-14929524D01*
X10104577Y-14929524D02*
X10123625Y-14939048D01*
X10123625Y-14939048D02*
X10133148Y-14948571D01*
X10133148Y-14948571D02*
X10142672Y-14967619D01*
X10142672Y-14967619D02*
X10152196Y-15005714D01*
X10152196Y-15005714D02*
X10152196Y-15053333D01*
X10152196Y-15053333D02*
X10142672Y-15091428D01*
X10142672Y-15091428D02*
X10133148Y-15110476D01*
X10133148Y-15110476D02*
X10123625Y-15120000D01*
X10123625Y-15120000D02*
X10104577Y-15129524D01*
X10104577Y-15129524D02*
X10085529Y-15129524D01*
X10085529Y-15129524D02*
X10066482Y-15120000D01*
X10066482Y-15120000D02*
X10056958Y-15110476D01*
X10056958Y-15110476D02*
X10047434Y-15091428D01*
X10047434Y-15091428D02*
X10037910Y-15053333D01*
X10037910Y-15053333D02*
X10037910Y-15005714D01*
X10037910Y-15005714D02*
X10047434Y-14967619D01*
X10047434Y-14967619D02*
X10056958Y-14948571D01*
X10056958Y-14948571D02*
X10066482Y-14939048D01*
X10066482Y-14939048D02*
X10085529Y-14929524D01*
X10237910Y-15110476D02*
X10247434Y-15120000D01*
X10247434Y-15120000D02*
X10237910Y-15129524D01*
X10237910Y-15129524D02*
X10228387Y-15120000D01*
X10228387Y-15120000D02*
X10237910Y-15110476D01*
X10237910Y-15110476D02*
X10237910Y-15129524D01*
X10437910Y-15129524D02*
X10323625Y-15129524D01*
X10380767Y-15129524D02*
X10380767Y-14929524D01*
X10380767Y-14929524D02*
X10361720Y-14958095D01*
X10361720Y-14958095D02*
X10342672Y-14977143D01*
X10342672Y-14977143D02*
X10323625Y-14986667D01*
X10561720Y-14929524D02*
X10580768Y-14929524D01*
X10580768Y-14929524D02*
X10599815Y-14939048D01*
X10599815Y-14939048D02*
X10609339Y-14948571D01*
X10609339Y-14948571D02*
X10618863Y-14967619D01*
X10618863Y-14967619D02*
X10628387Y-15005714D01*
X10628387Y-15005714D02*
X10628387Y-15053333D01*
X10628387Y-15053333D02*
X10618863Y-15091428D01*
X10618863Y-15091428D02*
X10609339Y-15110476D01*
X10609339Y-15110476D02*
X10599815Y-15120000D01*
X10599815Y-15120000D02*
X10580768Y-15129524D01*
X10580768Y-15129524D02*
X10561720Y-15129524D01*
X10561720Y-15129524D02*
X10542672Y-15120000D01*
X10542672Y-15120000D02*
X10533148Y-15110476D01*
X10533148Y-15110476D02*
X10523625Y-15091428D01*
X10523625Y-15091428D02*
X10514101Y-15053333D01*
X10514101Y-15053333D02*
X10514101Y-15005714D01*
X10514101Y-15005714D02*
X10523625Y-14967619D01*
X10523625Y-14967619D02*
X10533148Y-14948571D01*
X10533148Y-14948571D02*
X10542672Y-14939048D01*
X10542672Y-14939048D02*
X10561720Y-14929524D01*
X10799815Y-14929524D02*
X10761720Y-14929524D01*
X10761720Y-14929524D02*
X10742672Y-14939048D01*
X10742672Y-14939048D02*
X10733148Y-14948571D01*
X10733148Y-14948571D02*
X10714101Y-14977143D01*
X10714101Y-14977143D02*
X10704577Y-15015238D01*
X10704577Y-15015238D02*
X10704577Y-15091428D01*
X10704577Y-15091428D02*
X10714101Y-15110476D01*
X10714101Y-15110476D02*
X10723625Y-15120000D01*
X10723625Y-15120000D02*
X10742672Y-15129524D01*
X10742672Y-15129524D02*
X10780768Y-15129524D01*
X10780768Y-15129524D02*
X10799815Y-15120000D01*
X10799815Y-15120000D02*
X10809339Y-15110476D01*
X10809339Y-15110476D02*
X10818863Y-15091428D01*
X10818863Y-15091428D02*
X10818863Y-15043809D01*
X10818863Y-15043809D02*
X10809339Y-15024762D01*
X10809339Y-15024762D02*
X10799815Y-15015238D01*
X10799815Y-15015238D02*
X10780768Y-15005714D01*
X10780768Y-15005714D02*
X10742672Y-15005714D01*
X10742672Y-15005714D02*
X10723625Y-15015238D01*
X10723625Y-15015238D02*
X10714101Y-15024762D01*
X10714101Y-15024762D02*
X10704577Y-15043809D01*
X10885529Y-14929524D02*
X11009339Y-14929524D01*
X11009339Y-14929524D02*
X10942672Y-15005714D01*
X10942672Y-15005714D02*
X10971244Y-15005714D01*
X10971244Y-15005714D02*
X10990291Y-15015238D01*
X10990291Y-15015238D02*
X10999815Y-15024762D01*
X10999815Y-15024762D02*
X11009339Y-15043809D01*
X11009339Y-15043809D02*
X11009339Y-15091428D01*
X11009339Y-15091428D02*
X10999815Y-15110476D01*
X10999815Y-15110476D02*
X10990291Y-15120000D01*
X10990291Y-15120000D02*
X10971244Y-15129524D01*
X10971244Y-15129524D02*
X10914101Y-15129524D01*
X10914101Y-15129524D02*
X10895053Y-15120000D01*
X10895053Y-15120000D02*
X10885529Y-15110476D01*
X11085529Y-14929524D02*
X11085529Y-14967619D01*
X11161720Y-14929524D02*
X11161720Y-14967619D01*
X11456958Y-15205714D02*
X11447434Y-15196190D01*
X11447434Y-15196190D02*
X11428387Y-15167619D01*
X11428387Y-15167619D02*
X11418863Y-15148571D01*
X11418863Y-15148571D02*
X11409339Y-15120000D01*
X11409339Y-15120000D02*
X11399815Y-15072381D01*
X11399815Y-15072381D02*
X11399815Y-15034286D01*
X11399815Y-15034286D02*
X11409339Y-14986667D01*
X11409339Y-14986667D02*
X11418863Y-14958095D01*
X11418863Y-14958095D02*
X11428387Y-14939048D01*
X11428387Y-14939048D02*
X11447434Y-14910476D01*
X11447434Y-14910476D02*
X11456958Y-14900952D01*
X11523625Y-14948571D02*
X11533148Y-14939048D01*
X11533148Y-14939048D02*
X11552196Y-14929524D01*
X11552196Y-14929524D02*
X11599815Y-14929524D01*
X11599815Y-14929524D02*
X11618863Y-14939048D01*
X11618863Y-14939048D02*
X11628387Y-14948571D01*
X11628387Y-14948571D02*
X11637910Y-14967619D01*
X11637910Y-14967619D02*
X11637910Y-14986667D01*
X11637910Y-14986667D02*
X11628387Y-15015238D01*
X11628387Y-15015238D02*
X11514101Y-15129524D01*
X11514101Y-15129524D02*
X11637910Y-15129524D01*
X11876006Y-15129524D02*
X11876006Y-14929524D01*
X11961720Y-15129524D02*
X11961720Y-15024762D01*
X11961720Y-15024762D02*
X11952196Y-15005714D01*
X11952196Y-15005714D02*
X11933149Y-14996190D01*
X11933149Y-14996190D02*
X11904577Y-14996190D01*
X11904577Y-14996190D02*
X11885529Y-15005714D01*
X11885529Y-15005714D02*
X11876006Y-15015238D01*
X12085529Y-15129524D02*
X12066482Y-15120000D01*
X12066482Y-15120000D02*
X12056958Y-15110476D01*
X12056958Y-15110476D02*
X12047434Y-15091428D01*
X12047434Y-15091428D02*
X12047434Y-15034286D01*
X12047434Y-15034286D02*
X12056958Y-15015238D01*
X12056958Y-15015238D02*
X12066482Y-15005714D01*
X12066482Y-15005714D02*
X12085529Y-14996190D01*
X12085529Y-14996190D02*
X12114101Y-14996190D01*
X12114101Y-14996190D02*
X12133149Y-15005714D01*
X12133149Y-15005714D02*
X12142672Y-15015238D01*
X12142672Y-15015238D02*
X12152196Y-15034286D01*
X12152196Y-15034286D02*
X12152196Y-15091428D01*
X12152196Y-15091428D02*
X12142672Y-15110476D01*
X12142672Y-15110476D02*
X12133149Y-15120000D01*
X12133149Y-15120000D02*
X12114101Y-15129524D01*
X12114101Y-15129524D02*
X12085529Y-15129524D01*
X12266482Y-15129524D02*
X12247434Y-15120000D01*
X12247434Y-15120000D02*
X12237910Y-15100952D01*
X12237910Y-15100952D02*
X12237910Y-14929524D01*
X12418863Y-15120000D02*
X12399815Y-15129524D01*
X12399815Y-15129524D02*
X12361720Y-15129524D01*
X12361720Y-15129524D02*
X12342672Y-15120000D01*
X12342672Y-15120000D02*
X12333149Y-15100952D01*
X12333149Y-15100952D02*
X12333149Y-15024762D01*
X12333149Y-15024762D02*
X12342672Y-15005714D01*
X12342672Y-15005714D02*
X12361720Y-14996190D01*
X12361720Y-14996190D02*
X12399815Y-14996190D01*
X12399815Y-14996190D02*
X12418863Y-15005714D01*
X12418863Y-15005714D02*
X12428387Y-15024762D01*
X12428387Y-15024762D02*
X12428387Y-15043809D01*
X12428387Y-15043809D02*
X12333149Y-15062857D01*
X12504577Y-15120000D02*
X12523625Y-15129524D01*
X12523625Y-15129524D02*
X12561720Y-15129524D01*
X12561720Y-15129524D02*
X12580768Y-15120000D01*
X12580768Y-15120000D02*
X12590291Y-15100952D01*
X12590291Y-15100952D02*
X12590291Y-15091428D01*
X12590291Y-15091428D02*
X12580768Y-15072381D01*
X12580768Y-15072381D02*
X12561720Y-15062857D01*
X12561720Y-15062857D02*
X12533149Y-15062857D01*
X12533149Y-15062857D02*
X12514101Y-15053333D01*
X12514101Y-15053333D02*
X12504577Y-15034286D01*
X12504577Y-15034286D02*
X12504577Y-15024762D01*
X12504577Y-15024762D02*
X12514101Y-15005714D01*
X12514101Y-15005714D02*
X12533149Y-14996190D01*
X12533149Y-14996190D02*
X12561720Y-14996190D01*
X12561720Y-14996190D02*
X12580768Y-15005714D01*
X12656958Y-15205714D02*
X12666482Y-15196190D01*
X12666482Y-15196190D02*
X12685530Y-15167619D01*
X12685530Y-15167619D02*
X12695053Y-15148571D01*
X12695053Y-15148571D02*
X12704577Y-15120000D01*
X12704577Y-15120000D02*
X12714101Y-15072381D01*
X12714101Y-15072381D02*
X12714101Y-15034286D01*
X12714101Y-15034286D02*
X12704577Y-14986667D01*
X12704577Y-14986667D02*
X12695053Y-14958095D01*
X12695053Y-14958095D02*
X12685530Y-14939048D01*
X12685530Y-14939048D02*
X12666482Y-14910476D01*
X12666482Y-14910476D02*
X12656958Y-14900952D01*
M02*
