%TF.GenerationSoftware,KiCad,Pcbnew,7.0.2-0*%
%TF.CreationDate,2024-03-04T15:55:25-05:00*%
%TF.ProjectId,Pi_HAT_V5_Simple,50695f48-4154-45f5-9635-5f53696d706c,rev?*%
%TF.SameCoordinates,Original*%
%TF.FileFunction,Drillmap*%
%TF.FilePolarity,Positive*%
%FSLAX45Y45*%
G04 Gerber Fmt 4.5, Leading zero omitted, Abs format (unit mm)*
G04 Created by KiCad (PCBNEW 7.0.2-0) date 2024-03-04 15:55:25*
%MOMM*%
%LPD*%
G01*
G04 APERTURE LIST*
%ADD10C,0.100000*%
%ADD11C,0.200000*%
%ADD12C,0.250000*%
G04 APERTURE END LIST*
D10*
X8051186Y-6475113D02*
X15562739Y-6473750D01*
X8051186Y-6475113D02*
G75*
G03*
X7900053Y-6626250I4J-151137D01*
G01*
X7913987Y-13450000D02*
X7900053Y-6626250D01*
X15564173Y-13598933D02*
G75*
G03*
X15714173Y-13448934I-3J150003D01*
G01*
X15712739Y-6623750D02*
X15714173Y-13448934D01*
X7913990Y-13450000D02*
G75*
G03*
X8063987Y-13600000I150000J0D01*
G01*
X15712740Y-6623750D02*
G75*
G03*
X15562739Y-6473750I-150000J0D01*
G01*
X15564173Y-13598934D02*
X8063987Y-13600000D01*
D11*
D12*
X10125000Y-7325000D02*
X10375000Y-7575000D01*
X10375000Y-7325000D02*
X10125000Y-7575000D01*
X10125000Y-13125000D02*
X10375000Y-13375000D01*
X10375000Y-13125000D02*
X10125000Y-13375000D01*
X15125000Y-7325000D02*
X15375000Y-7575000D01*
X15375000Y-7325000D02*
X15125000Y-7575000D01*
X15125000Y-13125000D02*
X15375000Y-13375000D01*
X15375000Y-13125000D02*
X15125000Y-13375000D01*
D11*
X8142672Y-13917524D02*
X8142672Y-13717524D01*
X8142672Y-13717524D02*
X8190291Y-13717524D01*
X8190291Y-13717524D02*
X8218862Y-13727048D01*
X8218862Y-13727048D02*
X8237910Y-13746095D01*
X8237910Y-13746095D02*
X8247434Y-13765143D01*
X8247434Y-13765143D02*
X8256958Y-13803238D01*
X8256958Y-13803238D02*
X8256958Y-13831809D01*
X8256958Y-13831809D02*
X8247434Y-13869905D01*
X8247434Y-13869905D02*
X8237910Y-13888952D01*
X8237910Y-13888952D02*
X8218862Y-13908000D01*
X8218862Y-13908000D02*
X8190291Y-13917524D01*
X8190291Y-13917524D02*
X8142672Y-13917524D01*
X8342672Y-13917524D02*
X8342672Y-13784190D01*
X8342672Y-13822286D02*
X8352196Y-13803238D01*
X8352196Y-13803238D02*
X8361720Y-13793714D01*
X8361720Y-13793714D02*
X8380767Y-13784190D01*
X8380767Y-13784190D02*
X8399815Y-13784190D01*
X8466482Y-13917524D02*
X8466482Y-13784190D01*
X8466482Y-13717524D02*
X8456958Y-13727048D01*
X8456958Y-13727048D02*
X8466482Y-13736571D01*
X8466482Y-13736571D02*
X8476005Y-13727048D01*
X8476005Y-13727048D02*
X8466482Y-13717524D01*
X8466482Y-13717524D02*
X8466482Y-13736571D01*
X8590291Y-13917524D02*
X8571243Y-13908000D01*
X8571243Y-13908000D02*
X8561720Y-13888952D01*
X8561720Y-13888952D02*
X8561720Y-13717524D01*
X8695053Y-13917524D02*
X8676005Y-13908000D01*
X8676005Y-13908000D02*
X8666482Y-13888952D01*
X8666482Y-13888952D02*
X8666482Y-13717524D01*
X8923624Y-13917524D02*
X8923624Y-13717524D01*
X8923624Y-13717524D02*
X8990291Y-13860381D01*
X8990291Y-13860381D02*
X9056958Y-13717524D01*
X9056958Y-13717524D02*
X9056958Y-13917524D01*
X9237910Y-13917524D02*
X9237910Y-13812762D01*
X9237910Y-13812762D02*
X9228386Y-13793714D01*
X9228386Y-13793714D02*
X9209339Y-13784190D01*
X9209339Y-13784190D02*
X9171243Y-13784190D01*
X9171243Y-13784190D02*
X9152196Y-13793714D01*
X9237910Y-13908000D02*
X9218863Y-13917524D01*
X9218863Y-13917524D02*
X9171243Y-13917524D01*
X9171243Y-13917524D02*
X9152196Y-13908000D01*
X9152196Y-13908000D02*
X9142672Y-13888952D01*
X9142672Y-13888952D02*
X9142672Y-13869905D01*
X9142672Y-13869905D02*
X9152196Y-13850857D01*
X9152196Y-13850857D02*
X9171243Y-13841333D01*
X9171243Y-13841333D02*
X9218863Y-13841333D01*
X9218863Y-13841333D02*
X9237910Y-13831809D01*
X9333148Y-13784190D02*
X9333148Y-13984190D01*
X9333148Y-13793714D02*
X9352196Y-13784190D01*
X9352196Y-13784190D02*
X9390291Y-13784190D01*
X9390291Y-13784190D02*
X9409339Y-13793714D01*
X9409339Y-13793714D02*
X9418863Y-13803238D01*
X9418863Y-13803238D02*
X9428386Y-13822286D01*
X9428386Y-13822286D02*
X9428386Y-13879428D01*
X9428386Y-13879428D02*
X9418863Y-13898476D01*
X9418863Y-13898476D02*
X9409339Y-13908000D01*
X9409339Y-13908000D02*
X9390291Y-13917524D01*
X9390291Y-13917524D02*
X9352196Y-13917524D01*
X9352196Y-13917524D02*
X9333148Y-13908000D01*
X9514101Y-13898476D02*
X9523624Y-13908000D01*
X9523624Y-13908000D02*
X9514101Y-13917524D01*
X9514101Y-13917524D02*
X9504577Y-13908000D01*
X9504577Y-13908000D02*
X9514101Y-13898476D01*
X9514101Y-13898476D02*
X9514101Y-13917524D01*
X9514101Y-13793714D02*
X9523624Y-13803238D01*
X9523624Y-13803238D02*
X9514101Y-13812762D01*
X9514101Y-13812762D02*
X9504577Y-13803238D01*
X9504577Y-13803238D02*
X9514101Y-13793714D01*
X9514101Y-13793714D02*
X9514101Y-13812762D01*
X7695053Y-14145000D02*
X7895053Y-14345000D01*
X7895053Y-14145000D02*
X7695053Y-14345000D01*
X8133148Y-14156571D02*
X8142672Y-14147048D01*
X8142672Y-14147048D02*
X8161720Y-14137524D01*
X8161720Y-14137524D02*
X8209339Y-14137524D01*
X8209339Y-14137524D02*
X8228386Y-14147048D01*
X8228386Y-14147048D02*
X8237910Y-14156571D01*
X8237910Y-14156571D02*
X8247434Y-14175619D01*
X8247434Y-14175619D02*
X8247434Y-14194667D01*
X8247434Y-14194667D02*
X8237910Y-14223238D01*
X8237910Y-14223238D02*
X8123624Y-14337524D01*
X8123624Y-14337524D02*
X8247434Y-14337524D01*
X8333148Y-14318476D02*
X8342672Y-14328000D01*
X8342672Y-14328000D02*
X8333148Y-14337524D01*
X8333148Y-14337524D02*
X8323624Y-14328000D01*
X8323624Y-14328000D02*
X8333148Y-14318476D01*
X8333148Y-14318476D02*
X8333148Y-14337524D01*
X8523624Y-14137524D02*
X8428386Y-14137524D01*
X8428386Y-14137524D02*
X8418863Y-14232762D01*
X8418863Y-14232762D02*
X8428386Y-14223238D01*
X8428386Y-14223238D02*
X8447434Y-14213714D01*
X8447434Y-14213714D02*
X8495053Y-14213714D01*
X8495053Y-14213714D02*
X8514101Y-14223238D01*
X8514101Y-14223238D02*
X8523624Y-14232762D01*
X8523624Y-14232762D02*
X8533148Y-14251809D01*
X8533148Y-14251809D02*
X8533148Y-14299428D01*
X8533148Y-14299428D02*
X8523624Y-14318476D01*
X8523624Y-14318476D02*
X8514101Y-14328000D01*
X8514101Y-14328000D02*
X8495053Y-14337524D01*
X8495053Y-14337524D02*
X8447434Y-14337524D01*
X8447434Y-14337524D02*
X8428386Y-14328000D01*
X8428386Y-14328000D02*
X8418863Y-14318476D01*
X8656958Y-14137524D02*
X8676005Y-14137524D01*
X8676005Y-14137524D02*
X8695053Y-14147048D01*
X8695053Y-14147048D02*
X8704577Y-14156571D01*
X8704577Y-14156571D02*
X8714101Y-14175619D01*
X8714101Y-14175619D02*
X8723624Y-14213714D01*
X8723624Y-14213714D02*
X8723624Y-14261333D01*
X8723624Y-14261333D02*
X8714101Y-14299428D01*
X8714101Y-14299428D02*
X8704577Y-14318476D01*
X8704577Y-14318476D02*
X8695053Y-14328000D01*
X8695053Y-14328000D02*
X8676005Y-14337524D01*
X8676005Y-14337524D02*
X8656958Y-14337524D01*
X8656958Y-14337524D02*
X8637910Y-14328000D01*
X8637910Y-14328000D02*
X8628386Y-14318476D01*
X8628386Y-14318476D02*
X8618863Y-14299428D01*
X8618863Y-14299428D02*
X8609339Y-14261333D01*
X8609339Y-14261333D02*
X8609339Y-14213714D01*
X8609339Y-14213714D02*
X8618863Y-14175619D01*
X8618863Y-14175619D02*
X8628386Y-14156571D01*
X8628386Y-14156571D02*
X8637910Y-14147048D01*
X8637910Y-14147048D02*
X8656958Y-14137524D01*
X8847434Y-14137524D02*
X8866482Y-14137524D01*
X8866482Y-14137524D02*
X8885529Y-14147048D01*
X8885529Y-14147048D02*
X8895053Y-14156571D01*
X8895053Y-14156571D02*
X8904577Y-14175619D01*
X8904577Y-14175619D02*
X8914101Y-14213714D01*
X8914101Y-14213714D02*
X8914101Y-14261333D01*
X8914101Y-14261333D02*
X8904577Y-14299428D01*
X8904577Y-14299428D02*
X8895053Y-14318476D01*
X8895053Y-14318476D02*
X8885529Y-14328000D01*
X8885529Y-14328000D02*
X8866482Y-14337524D01*
X8866482Y-14337524D02*
X8847434Y-14337524D01*
X8847434Y-14337524D02*
X8828386Y-14328000D01*
X8828386Y-14328000D02*
X8818863Y-14318476D01*
X8818863Y-14318476D02*
X8809339Y-14299428D01*
X8809339Y-14299428D02*
X8799815Y-14261333D01*
X8799815Y-14261333D02*
X8799815Y-14213714D01*
X8799815Y-14213714D02*
X8809339Y-14175619D01*
X8809339Y-14175619D02*
X8818863Y-14156571D01*
X8818863Y-14156571D02*
X8828386Y-14147048D01*
X8828386Y-14147048D02*
X8847434Y-14137524D01*
X8999815Y-14337524D02*
X8999815Y-14204190D01*
X8999815Y-14223238D02*
X9009339Y-14213714D01*
X9009339Y-14213714D02*
X9028386Y-14204190D01*
X9028386Y-14204190D02*
X9056958Y-14204190D01*
X9056958Y-14204190D02*
X9076005Y-14213714D01*
X9076005Y-14213714D02*
X9085529Y-14232762D01*
X9085529Y-14232762D02*
X9085529Y-14337524D01*
X9085529Y-14232762D02*
X9095053Y-14213714D01*
X9095053Y-14213714D02*
X9114101Y-14204190D01*
X9114101Y-14204190D02*
X9142672Y-14204190D01*
X9142672Y-14204190D02*
X9161720Y-14213714D01*
X9161720Y-14213714D02*
X9171244Y-14232762D01*
X9171244Y-14232762D02*
X9171244Y-14337524D01*
X9266482Y-14337524D02*
X9266482Y-14204190D01*
X9266482Y-14223238D02*
X9276005Y-14213714D01*
X9276005Y-14213714D02*
X9295053Y-14204190D01*
X9295053Y-14204190D02*
X9323625Y-14204190D01*
X9323625Y-14204190D02*
X9342672Y-14213714D01*
X9342672Y-14213714D02*
X9352196Y-14232762D01*
X9352196Y-14232762D02*
X9352196Y-14337524D01*
X9352196Y-14232762D02*
X9361720Y-14213714D01*
X9361720Y-14213714D02*
X9380767Y-14204190D01*
X9380767Y-14204190D02*
X9409339Y-14204190D01*
X9409339Y-14204190D02*
X9428386Y-14213714D01*
X9428386Y-14213714D02*
X9437910Y-14232762D01*
X9437910Y-14232762D02*
X9437910Y-14337524D01*
X9828386Y-14128000D02*
X9656958Y-14385143D01*
X10085529Y-14137524D02*
X10104577Y-14137524D01*
X10104577Y-14137524D02*
X10123625Y-14147048D01*
X10123625Y-14147048D02*
X10133148Y-14156571D01*
X10133148Y-14156571D02*
X10142672Y-14175619D01*
X10142672Y-14175619D02*
X10152196Y-14213714D01*
X10152196Y-14213714D02*
X10152196Y-14261333D01*
X10152196Y-14261333D02*
X10142672Y-14299428D01*
X10142672Y-14299428D02*
X10133148Y-14318476D01*
X10133148Y-14318476D02*
X10123625Y-14328000D01*
X10123625Y-14328000D02*
X10104577Y-14337524D01*
X10104577Y-14337524D02*
X10085529Y-14337524D01*
X10085529Y-14337524D02*
X10066482Y-14328000D01*
X10066482Y-14328000D02*
X10056958Y-14318476D01*
X10056958Y-14318476D02*
X10047434Y-14299428D01*
X10047434Y-14299428D02*
X10037910Y-14261333D01*
X10037910Y-14261333D02*
X10037910Y-14213714D01*
X10037910Y-14213714D02*
X10047434Y-14175619D01*
X10047434Y-14175619D02*
X10056958Y-14156571D01*
X10056958Y-14156571D02*
X10066482Y-14147048D01*
X10066482Y-14147048D02*
X10085529Y-14137524D01*
X10237910Y-14318476D02*
X10247434Y-14328000D01*
X10247434Y-14328000D02*
X10237910Y-14337524D01*
X10237910Y-14337524D02*
X10228387Y-14328000D01*
X10228387Y-14328000D02*
X10237910Y-14318476D01*
X10237910Y-14318476D02*
X10237910Y-14337524D01*
X10371244Y-14137524D02*
X10390291Y-14137524D01*
X10390291Y-14137524D02*
X10409339Y-14147048D01*
X10409339Y-14147048D02*
X10418863Y-14156571D01*
X10418863Y-14156571D02*
X10428387Y-14175619D01*
X10428387Y-14175619D02*
X10437910Y-14213714D01*
X10437910Y-14213714D02*
X10437910Y-14261333D01*
X10437910Y-14261333D02*
X10428387Y-14299428D01*
X10428387Y-14299428D02*
X10418863Y-14318476D01*
X10418863Y-14318476D02*
X10409339Y-14328000D01*
X10409339Y-14328000D02*
X10390291Y-14337524D01*
X10390291Y-14337524D02*
X10371244Y-14337524D01*
X10371244Y-14337524D02*
X10352196Y-14328000D01*
X10352196Y-14328000D02*
X10342672Y-14318476D01*
X10342672Y-14318476D02*
X10333148Y-14299428D01*
X10333148Y-14299428D02*
X10323625Y-14261333D01*
X10323625Y-14261333D02*
X10323625Y-14213714D01*
X10323625Y-14213714D02*
X10333148Y-14175619D01*
X10333148Y-14175619D02*
X10342672Y-14156571D01*
X10342672Y-14156571D02*
X10352196Y-14147048D01*
X10352196Y-14147048D02*
X10371244Y-14137524D01*
X10533148Y-14337524D02*
X10571244Y-14337524D01*
X10571244Y-14337524D02*
X10590291Y-14328000D01*
X10590291Y-14328000D02*
X10599815Y-14318476D01*
X10599815Y-14318476D02*
X10618863Y-14289905D01*
X10618863Y-14289905D02*
X10628387Y-14251809D01*
X10628387Y-14251809D02*
X10628387Y-14175619D01*
X10628387Y-14175619D02*
X10618863Y-14156571D01*
X10618863Y-14156571D02*
X10609339Y-14147048D01*
X10609339Y-14147048D02*
X10590291Y-14137524D01*
X10590291Y-14137524D02*
X10552196Y-14137524D01*
X10552196Y-14137524D02*
X10533148Y-14147048D01*
X10533148Y-14147048D02*
X10523625Y-14156571D01*
X10523625Y-14156571D02*
X10514101Y-14175619D01*
X10514101Y-14175619D02*
X10514101Y-14223238D01*
X10514101Y-14223238D02*
X10523625Y-14242286D01*
X10523625Y-14242286D02*
X10533148Y-14251809D01*
X10533148Y-14251809D02*
X10552196Y-14261333D01*
X10552196Y-14261333D02*
X10590291Y-14261333D01*
X10590291Y-14261333D02*
X10609339Y-14251809D01*
X10609339Y-14251809D02*
X10618863Y-14242286D01*
X10618863Y-14242286D02*
X10628387Y-14223238D01*
X10742672Y-14223238D02*
X10723625Y-14213714D01*
X10723625Y-14213714D02*
X10714101Y-14204190D01*
X10714101Y-14204190D02*
X10704577Y-14185143D01*
X10704577Y-14185143D02*
X10704577Y-14175619D01*
X10704577Y-14175619D02*
X10714101Y-14156571D01*
X10714101Y-14156571D02*
X10723625Y-14147048D01*
X10723625Y-14147048D02*
X10742672Y-14137524D01*
X10742672Y-14137524D02*
X10780768Y-14137524D01*
X10780768Y-14137524D02*
X10799815Y-14147048D01*
X10799815Y-14147048D02*
X10809339Y-14156571D01*
X10809339Y-14156571D02*
X10818863Y-14175619D01*
X10818863Y-14175619D02*
X10818863Y-14185143D01*
X10818863Y-14185143D02*
X10809339Y-14204190D01*
X10809339Y-14204190D02*
X10799815Y-14213714D01*
X10799815Y-14213714D02*
X10780768Y-14223238D01*
X10780768Y-14223238D02*
X10742672Y-14223238D01*
X10742672Y-14223238D02*
X10723625Y-14232762D01*
X10723625Y-14232762D02*
X10714101Y-14242286D01*
X10714101Y-14242286D02*
X10704577Y-14261333D01*
X10704577Y-14261333D02*
X10704577Y-14299428D01*
X10704577Y-14299428D02*
X10714101Y-14318476D01*
X10714101Y-14318476D02*
X10723625Y-14328000D01*
X10723625Y-14328000D02*
X10742672Y-14337524D01*
X10742672Y-14337524D02*
X10780768Y-14337524D01*
X10780768Y-14337524D02*
X10799815Y-14328000D01*
X10799815Y-14328000D02*
X10809339Y-14318476D01*
X10809339Y-14318476D02*
X10818863Y-14299428D01*
X10818863Y-14299428D02*
X10818863Y-14261333D01*
X10818863Y-14261333D02*
X10809339Y-14242286D01*
X10809339Y-14242286D02*
X10799815Y-14232762D01*
X10799815Y-14232762D02*
X10780768Y-14223238D01*
X10990291Y-14204190D02*
X10990291Y-14337524D01*
X10942672Y-14128000D02*
X10895053Y-14270857D01*
X10895053Y-14270857D02*
X11018863Y-14270857D01*
X11085529Y-14137524D02*
X11085529Y-14175619D01*
X11161720Y-14137524D02*
X11161720Y-14175619D01*
X11456958Y-14413714D02*
X11447434Y-14404190D01*
X11447434Y-14404190D02*
X11428387Y-14375619D01*
X11428387Y-14375619D02*
X11418863Y-14356571D01*
X11418863Y-14356571D02*
X11409339Y-14328000D01*
X11409339Y-14328000D02*
X11399815Y-14280381D01*
X11399815Y-14280381D02*
X11399815Y-14242286D01*
X11399815Y-14242286D02*
X11409339Y-14194667D01*
X11409339Y-14194667D02*
X11418863Y-14166095D01*
X11418863Y-14166095D02*
X11428387Y-14147048D01*
X11428387Y-14147048D02*
X11447434Y-14118476D01*
X11447434Y-14118476D02*
X11456958Y-14108952D01*
X11618863Y-14204190D02*
X11618863Y-14337524D01*
X11571244Y-14128000D02*
X11523625Y-14270857D01*
X11523625Y-14270857D02*
X11647434Y-14270857D01*
X11876006Y-14337524D02*
X11876006Y-14137524D01*
X11961720Y-14337524D02*
X11961720Y-14232762D01*
X11961720Y-14232762D02*
X11952196Y-14213714D01*
X11952196Y-14213714D02*
X11933149Y-14204190D01*
X11933149Y-14204190D02*
X11904577Y-14204190D01*
X11904577Y-14204190D02*
X11885529Y-14213714D01*
X11885529Y-14213714D02*
X11876006Y-14223238D01*
X12085529Y-14337524D02*
X12066482Y-14328000D01*
X12066482Y-14328000D02*
X12056958Y-14318476D01*
X12056958Y-14318476D02*
X12047434Y-14299428D01*
X12047434Y-14299428D02*
X12047434Y-14242286D01*
X12047434Y-14242286D02*
X12056958Y-14223238D01*
X12056958Y-14223238D02*
X12066482Y-14213714D01*
X12066482Y-14213714D02*
X12085529Y-14204190D01*
X12085529Y-14204190D02*
X12114101Y-14204190D01*
X12114101Y-14204190D02*
X12133149Y-14213714D01*
X12133149Y-14213714D02*
X12142672Y-14223238D01*
X12142672Y-14223238D02*
X12152196Y-14242286D01*
X12152196Y-14242286D02*
X12152196Y-14299428D01*
X12152196Y-14299428D02*
X12142672Y-14318476D01*
X12142672Y-14318476D02*
X12133149Y-14328000D01*
X12133149Y-14328000D02*
X12114101Y-14337524D01*
X12114101Y-14337524D02*
X12085529Y-14337524D01*
X12266482Y-14337524D02*
X12247434Y-14328000D01*
X12247434Y-14328000D02*
X12237910Y-14308952D01*
X12237910Y-14308952D02*
X12237910Y-14137524D01*
X12418863Y-14328000D02*
X12399815Y-14337524D01*
X12399815Y-14337524D02*
X12361720Y-14337524D01*
X12361720Y-14337524D02*
X12342672Y-14328000D01*
X12342672Y-14328000D02*
X12333149Y-14308952D01*
X12333149Y-14308952D02*
X12333149Y-14232762D01*
X12333149Y-14232762D02*
X12342672Y-14213714D01*
X12342672Y-14213714D02*
X12361720Y-14204190D01*
X12361720Y-14204190D02*
X12399815Y-14204190D01*
X12399815Y-14204190D02*
X12418863Y-14213714D01*
X12418863Y-14213714D02*
X12428387Y-14232762D01*
X12428387Y-14232762D02*
X12428387Y-14251809D01*
X12428387Y-14251809D02*
X12333149Y-14270857D01*
X12504577Y-14328000D02*
X12523625Y-14337524D01*
X12523625Y-14337524D02*
X12561720Y-14337524D01*
X12561720Y-14337524D02*
X12580768Y-14328000D01*
X12580768Y-14328000D02*
X12590291Y-14308952D01*
X12590291Y-14308952D02*
X12590291Y-14299428D01*
X12590291Y-14299428D02*
X12580768Y-14280381D01*
X12580768Y-14280381D02*
X12561720Y-14270857D01*
X12561720Y-14270857D02*
X12533149Y-14270857D01*
X12533149Y-14270857D02*
X12514101Y-14261333D01*
X12514101Y-14261333D02*
X12504577Y-14242286D01*
X12504577Y-14242286D02*
X12504577Y-14232762D01*
X12504577Y-14232762D02*
X12514101Y-14213714D01*
X12514101Y-14213714D02*
X12533149Y-14204190D01*
X12533149Y-14204190D02*
X12561720Y-14204190D01*
X12561720Y-14204190D02*
X12580768Y-14213714D01*
X12656958Y-14413714D02*
X12666482Y-14404190D01*
X12666482Y-14404190D02*
X12685530Y-14375619D01*
X12685530Y-14375619D02*
X12695053Y-14356571D01*
X12695053Y-14356571D02*
X12704577Y-14328000D01*
X12704577Y-14328000D02*
X12714101Y-14280381D01*
X12714101Y-14280381D02*
X12714101Y-14242286D01*
X12714101Y-14242286D02*
X12704577Y-14194667D01*
X12704577Y-14194667D02*
X12695053Y-14166095D01*
X12695053Y-14166095D02*
X12685530Y-14147048D01*
X12685530Y-14147048D02*
X12666482Y-14118476D01*
X12666482Y-14118476D02*
X12656958Y-14108952D01*
X13018863Y-14413714D02*
X13009339Y-14404190D01*
X13009339Y-14404190D02*
X12990291Y-14375619D01*
X12990291Y-14375619D02*
X12980768Y-14356571D01*
X12980768Y-14356571D02*
X12971244Y-14328000D01*
X12971244Y-14328000D02*
X12961720Y-14280381D01*
X12961720Y-14280381D02*
X12961720Y-14242286D01*
X12961720Y-14242286D02*
X12971244Y-14194667D01*
X12971244Y-14194667D02*
X12980768Y-14166095D01*
X12980768Y-14166095D02*
X12990291Y-14147048D01*
X12990291Y-14147048D02*
X13009339Y-14118476D01*
X13009339Y-14118476D02*
X13018863Y-14108952D01*
X13095053Y-14204190D02*
X13095053Y-14337524D01*
X13095053Y-14223238D02*
X13104577Y-14213714D01*
X13104577Y-14213714D02*
X13123625Y-14204190D01*
X13123625Y-14204190D02*
X13152196Y-14204190D01*
X13152196Y-14204190D02*
X13171244Y-14213714D01*
X13171244Y-14213714D02*
X13180768Y-14232762D01*
X13180768Y-14232762D02*
X13180768Y-14337524D01*
X13304577Y-14337524D02*
X13285530Y-14328000D01*
X13285530Y-14328000D02*
X13276006Y-14318476D01*
X13276006Y-14318476D02*
X13266482Y-14299428D01*
X13266482Y-14299428D02*
X13266482Y-14242286D01*
X13266482Y-14242286D02*
X13276006Y-14223238D01*
X13276006Y-14223238D02*
X13285530Y-14213714D01*
X13285530Y-14213714D02*
X13304577Y-14204190D01*
X13304577Y-14204190D02*
X13333149Y-14204190D01*
X13333149Y-14204190D02*
X13352196Y-14213714D01*
X13352196Y-14213714D02*
X13361720Y-14223238D01*
X13361720Y-14223238D02*
X13371244Y-14242286D01*
X13371244Y-14242286D02*
X13371244Y-14299428D01*
X13371244Y-14299428D02*
X13361720Y-14318476D01*
X13361720Y-14318476D02*
X13352196Y-14328000D01*
X13352196Y-14328000D02*
X13333149Y-14337524D01*
X13333149Y-14337524D02*
X13304577Y-14337524D01*
X13428387Y-14204190D02*
X13504577Y-14204190D01*
X13456958Y-14137524D02*
X13456958Y-14308952D01*
X13456958Y-14308952D02*
X13466482Y-14328000D01*
X13466482Y-14328000D02*
X13485530Y-14337524D01*
X13485530Y-14337524D02*
X13504577Y-14337524D01*
X13723625Y-14204190D02*
X13723625Y-14404190D01*
X13723625Y-14213714D02*
X13742672Y-14204190D01*
X13742672Y-14204190D02*
X13780768Y-14204190D01*
X13780768Y-14204190D02*
X13799815Y-14213714D01*
X13799815Y-14213714D02*
X13809339Y-14223238D01*
X13809339Y-14223238D02*
X13818863Y-14242286D01*
X13818863Y-14242286D02*
X13818863Y-14299428D01*
X13818863Y-14299428D02*
X13809339Y-14318476D01*
X13809339Y-14318476D02*
X13799815Y-14328000D01*
X13799815Y-14328000D02*
X13780768Y-14337524D01*
X13780768Y-14337524D02*
X13742672Y-14337524D01*
X13742672Y-14337524D02*
X13723625Y-14328000D01*
X13933149Y-14337524D02*
X13914101Y-14328000D01*
X13914101Y-14328000D02*
X13904577Y-14308952D01*
X13904577Y-14308952D02*
X13904577Y-14137524D01*
X14095053Y-14337524D02*
X14095053Y-14232762D01*
X14095053Y-14232762D02*
X14085530Y-14213714D01*
X14085530Y-14213714D02*
X14066482Y-14204190D01*
X14066482Y-14204190D02*
X14028387Y-14204190D01*
X14028387Y-14204190D02*
X14009339Y-14213714D01*
X14095053Y-14328000D02*
X14076006Y-14337524D01*
X14076006Y-14337524D02*
X14028387Y-14337524D01*
X14028387Y-14337524D02*
X14009339Y-14328000D01*
X14009339Y-14328000D02*
X13999815Y-14308952D01*
X13999815Y-14308952D02*
X13999815Y-14289905D01*
X13999815Y-14289905D02*
X14009339Y-14270857D01*
X14009339Y-14270857D02*
X14028387Y-14261333D01*
X14028387Y-14261333D02*
X14076006Y-14261333D01*
X14076006Y-14261333D02*
X14095053Y-14251809D01*
X14161720Y-14204190D02*
X14237911Y-14204190D01*
X14190292Y-14137524D02*
X14190292Y-14308952D01*
X14190292Y-14308952D02*
X14199815Y-14328000D01*
X14199815Y-14328000D02*
X14218863Y-14337524D01*
X14218863Y-14337524D02*
X14237911Y-14337524D01*
X14380768Y-14328000D02*
X14361720Y-14337524D01*
X14361720Y-14337524D02*
X14323625Y-14337524D01*
X14323625Y-14337524D02*
X14304577Y-14328000D01*
X14304577Y-14328000D02*
X14295053Y-14308952D01*
X14295053Y-14308952D02*
X14295053Y-14232762D01*
X14295053Y-14232762D02*
X14304577Y-14213714D01*
X14304577Y-14213714D02*
X14323625Y-14204190D01*
X14323625Y-14204190D02*
X14361720Y-14204190D01*
X14361720Y-14204190D02*
X14380768Y-14213714D01*
X14380768Y-14213714D02*
X14390292Y-14232762D01*
X14390292Y-14232762D02*
X14390292Y-14251809D01*
X14390292Y-14251809D02*
X14295053Y-14270857D01*
X14561720Y-14337524D02*
X14561720Y-14137524D01*
X14561720Y-14328000D02*
X14542673Y-14337524D01*
X14542673Y-14337524D02*
X14504577Y-14337524D01*
X14504577Y-14337524D02*
X14485530Y-14328000D01*
X14485530Y-14328000D02*
X14476006Y-14318476D01*
X14476006Y-14318476D02*
X14466482Y-14299428D01*
X14466482Y-14299428D02*
X14466482Y-14242286D01*
X14466482Y-14242286D02*
X14476006Y-14223238D01*
X14476006Y-14223238D02*
X14485530Y-14213714D01*
X14485530Y-14213714D02*
X14504577Y-14204190D01*
X14504577Y-14204190D02*
X14542673Y-14204190D01*
X14542673Y-14204190D02*
X14561720Y-14213714D01*
X14637911Y-14413714D02*
X14647434Y-14404190D01*
X14647434Y-14404190D02*
X14666482Y-14375619D01*
X14666482Y-14375619D02*
X14676006Y-14356571D01*
X14676006Y-14356571D02*
X14685530Y-14328000D01*
X14685530Y-14328000D02*
X14695053Y-14280381D01*
X14695053Y-14280381D02*
X14695053Y-14242286D01*
X14695053Y-14242286D02*
X14685530Y-14194667D01*
X14685530Y-14194667D02*
X14676006Y-14166095D01*
X14676006Y-14166095D02*
X14666482Y-14147048D01*
X14666482Y-14147048D02*
X14647434Y-14118476D01*
X14647434Y-14118476D02*
X14637911Y-14108952D01*
M02*
