%TF.GenerationSoftware,KiCad,Pcbnew,(6.0.4)*%
%TF.CreationDate,2022-09-15T01:58:29-04:00*%
%TF.ProjectId,Pi_HAT,50695f48-4154-42e6-9b69-6361645f7063,rev?*%
%TF.SameCoordinates,Original*%
%TF.FileFunction,Paste,Bot*%
%TF.FilePolarity,Positive*%
%FSLAX46Y46*%
G04 Gerber Fmt 4.6, Leading zero omitted, Abs format (unit mm)*
G04 Created by KiCad (PCBNEW (6.0.4)) date 2022-09-15 01:58:29*
%MOMM*%
%LPD*%
G01*
G04 APERTURE LIST*
%ADD10C,0.010000*%
%ADD11R,3.500000X1.600000*%
%ADD12R,1.600000X3.500000*%
G04 APERTURE END LIST*
%TO.C,VR1*%
G36*
X143880000Y-98505000D02*
G01*
X142501560Y-98505000D01*
X142501560Y-97033550D01*
X143880000Y-97033550D01*
X143880000Y-98505000D01*
G37*
D10*
X143880000Y-98505000D02*
X142501560Y-98505000D01*
X142501560Y-97033550D01*
X143880000Y-97033550D01*
X143880000Y-98505000D01*
G36*
X143880000Y-96440000D02*
G01*
X142502330Y-96440000D01*
X142502330Y-94965300D01*
X143880000Y-94965300D01*
X143880000Y-96440000D01*
G37*
X143880000Y-96440000D02*
X142502330Y-96440000D01*
X142502330Y-94965300D01*
X143880000Y-94965300D01*
X143880000Y-96440000D01*
G36*
X147820000Y-98505000D02*
G01*
X146443590Y-98505000D01*
X146443590Y-97033920D01*
X147820000Y-97033920D01*
X147820000Y-98505000D01*
G37*
X147820000Y-98505000D02*
X146443590Y-98505000D01*
X146443590Y-97033920D01*
X147820000Y-97033920D01*
X147820000Y-98505000D01*
G36*
X145850000Y-96440000D02*
G01*
X144476490Y-96440000D01*
X144476490Y-94963580D01*
X145850000Y-94963580D01*
X145850000Y-96440000D01*
G37*
X145850000Y-96440000D02*
X144476490Y-96440000D01*
X144476490Y-94963580D01*
X145850000Y-94963580D01*
X145850000Y-96440000D01*
G36*
X141910000Y-98505000D02*
G01*
X140529937Y-98505000D01*
X140529937Y-97033440D01*
X141910000Y-97033440D01*
X141910000Y-98505000D01*
G37*
X141910000Y-98505000D02*
X140529937Y-98505000D01*
X140529937Y-97033440D01*
X141910000Y-97033440D01*
X141910000Y-98505000D01*
G36*
X147820000Y-96440000D02*
G01*
X146450260Y-96440000D01*
X146450260Y-94963270D01*
X147820000Y-94963270D01*
X147820000Y-96440000D01*
G37*
X147820000Y-96440000D02*
X146450260Y-96440000D01*
X146450260Y-94963270D01*
X147820000Y-94963270D01*
X147820000Y-96440000D01*
G36*
X143880000Y-100565000D02*
G01*
X142502330Y-100565000D01*
X142502330Y-99095363D01*
X143880000Y-99095363D01*
X143880000Y-100565000D01*
G37*
X143880000Y-100565000D02*
X142502330Y-100565000D01*
X142502330Y-99095363D01*
X143880000Y-99095363D01*
X143880000Y-100565000D01*
G36*
X141910000Y-102630000D02*
G01*
X140529953Y-102630000D01*
X140529953Y-101161560D01*
X141910000Y-101161560D01*
X141910000Y-102630000D01*
G37*
X141910000Y-102630000D02*
X140529953Y-102630000D01*
X140529953Y-101161560D01*
X141910000Y-101161560D01*
X141910000Y-102630000D01*
G36*
X145850000Y-98505000D02*
G01*
X144474830Y-98505000D01*
X144474830Y-97032800D01*
X145850000Y-97032800D01*
X145850000Y-98505000D01*
G37*
X145850000Y-98505000D02*
X144474830Y-98505000D01*
X144474830Y-97032800D01*
X145850000Y-97032800D01*
X145850000Y-98505000D01*
G36*
X145850000Y-100565000D02*
G01*
X144476460Y-100565000D01*
X144476460Y-99095491D01*
X145850000Y-99095491D01*
X145850000Y-100565000D01*
G37*
X145850000Y-100565000D02*
X144476460Y-100565000D01*
X144476460Y-99095491D01*
X145850000Y-99095491D01*
X145850000Y-100565000D01*
G36*
X147820000Y-100565000D02*
G01*
X146449630Y-100565000D01*
X146449630Y-99095487D01*
X147820000Y-99095487D01*
X147820000Y-100565000D01*
G37*
X147820000Y-100565000D02*
X146449630Y-100565000D01*
X146449630Y-99095487D01*
X147820000Y-99095487D01*
X147820000Y-100565000D01*
G36*
X141910000Y-100565000D02*
G01*
X140529859Y-100565000D01*
X140529859Y-99095591D01*
X141910000Y-99095591D01*
X141910000Y-100565000D01*
G37*
X141910000Y-100565000D02*
X140529859Y-100565000D01*
X140529859Y-99095591D01*
X141910000Y-99095591D01*
X141910000Y-100565000D01*
G36*
X145850000Y-102630000D02*
G01*
X144474090Y-102630000D01*
X144474090Y-101162500D01*
X145850000Y-101162500D01*
X145850000Y-102630000D01*
G37*
X145850000Y-102630000D02*
X144474090Y-102630000D01*
X144474090Y-101162500D01*
X145850000Y-101162500D01*
X145850000Y-102630000D01*
G36*
X147820000Y-102630000D02*
G01*
X146444430Y-102630000D01*
X146444430Y-101161790D01*
X147820000Y-101161790D01*
X147820000Y-102630000D01*
G37*
X147820000Y-102630000D02*
X146444430Y-102630000D01*
X146444430Y-101161790D01*
X147820000Y-101161790D01*
X147820000Y-102630000D01*
G36*
X141910000Y-96440000D02*
G01*
X140529928Y-96440000D01*
X140529928Y-94966130D01*
X141910000Y-94966130D01*
X141910000Y-96440000D01*
G37*
X141910000Y-96440000D02*
X140529928Y-96440000D01*
X140529928Y-94966130D01*
X141910000Y-94966130D01*
X141910000Y-96440000D01*
G36*
X143880000Y-102630000D02*
G01*
X142501310Y-102630000D01*
X142501310Y-101161630D01*
X143880000Y-101161630D01*
X143880000Y-102630000D01*
G37*
X143880000Y-102630000D02*
X142501310Y-102630000D01*
X142501310Y-101161630D01*
X143880000Y-101161630D01*
X143880000Y-102630000D01*
%TO.C,VR2*%
G36*
X114138440Y-104060000D02*
G01*
X112670000Y-104060000D01*
X112670000Y-102679953D01*
X114138440Y-102679953D01*
X114138440Y-104060000D01*
G37*
X114138440Y-104060000D02*
X112670000Y-104060000D01*
X112670000Y-102679953D01*
X114138440Y-102679953D01*
X114138440Y-104060000D01*
G36*
X118267200Y-108000000D02*
G01*
X116795000Y-108000000D01*
X116795000Y-106624830D01*
X118267200Y-106624830D01*
X118267200Y-108000000D01*
G37*
X118267200Y-108000000D02*
X116795000Y-108000000D01*
X116795000Y-106624830D01*
X118267200Y-106624830D01*
X118267200Y-108000000D01*
G36*
X118266450Y-106030000D02*
G01*
X116795000Y-106030000D01*
X116795000Y-104651560D01*
X118266450Y-104651560D01*
X118266450Y-106030000D01*
G37*
X118266450Y-106030000D02*
X116795000Y-106030000D01*
X116795000Y-104651560D01*
X118266450Y-104651560D01*
X118266450Y-106030000D01*
G36*
X120336730Y-109970000D02*
G01*
X118860000Y-109970000D01*
X118860000Y-108600260D01*
X120336730Y-108600260D01*
X120336730Y-109970000D01*
G37*
X120336730Y-109970000D02*
X118860000Y-109970000D01*
X118860000Y-108600260D01*
X120336730Y-108600260D01*
X120336730Y-109970000D01*
G36*
X120333870Y-104060000D02*
G01*
X118860000Y-104060000D01*
X118860000Y-102679928D01*
X120333870Y-102679928D01*
X120333870Y-104060000D01*
G37*
X120333870Y-104060000D02*
X118860000Y-104060000D01*
X118860000Y-102679928D01*
X120333870Y-102679928D01*
X120333870Y-104060000D01*
G36*
X120336420Y-108000000D02*
G01*
X118860000Y-108000000D01*
X118860000Y-106626490D01*
X120336420Y-106626490D01*
X120336420Y-108000000D01*
G37*
X120336420Y-108000000D02*
X118860000Y-108000000D01*
X118860000Y-106626490D01*
X120336420Y-106626490D01*
X120336420Y-108000000D01*
G36*
X116204637Y-106030000D02*
G01*
X114735000Y-106030000D01*
X114735000Y-104652330D01*
X116204637Y-104652330D01*
X116204637Y-106030000D01*
G37*
X116204637Y-106030000D02*
X114735000Y-106030000D01*
X114735000Y-104652330D01*
X116204637Y-104652330D01*
X116204637Y-106030000D01*
G36*
X120334700Y-106030000D02*
G01*
X118860000Y-106030000D01*
X118860000Y-104652330D01*
X120334700Y-104652330D01*
X120334700Y-106030000D01*
G37*
X120334700Y-106030000D02*
X118860000Y-106030000D01*
X118860000Y-104652330D01*
X120334700Y-104652330D01*
X120334700Y-106030000D01*
G36*
X114138370Y-106030000D02*
G01*
X112670000Y-106030000D01*
X112670000Y-104651310D01*
X114138370Y-104651310D01*
X114138370Y-106030000D01*
G37*
X114138370Y-106030000D02*
X112670000Y-106030000D01*
X112670000Y-104651310D01*
X114138370Y-104651310D01*
X114138370Y-106030000D01*
G36*
X116204509Y-108000000D02*
G01*
X114735000Y-108000000D01*
X114735000Y-106626460D01*
X116204509Y-106626460D01*
X116204509Y-108000000D01*
G37*
X116204509Y-108000000D02*
X114735000Y-108000000D01*
X114735000Y-106626460D01*
X116204509Y-106626460D01*
X116204509Y-108000000D01*
G36*
X116204409Y-104060000D02*
G01*
X114735000Y-104060000D01*
X114735000Y-102679859D01*
X116204409Y-102679859D01*
X116204409Y-104060000D01*
G37*
X116204409Y-104060000D02*
X114735000Y-104060000D01*
X114735000Y-102679859D01*
X116204409Y-102679859D01*
X116204409Y-104060000D01*
G36*
X118266080Y-109970000D02*
G01*
X116795000Y-109970000D01*
X116795000Y-108593590D01*
X118266080Y-108593590D01*
X118266080Y-109970000D01*
G37*
X118266080Y-109970000D02*
X116795000Y-109970000D01*
X116795000Y-108593590D01*
X118266080Y-108593590D01*
X118266080Y-109970000D01*
G36*
X116204513Y-109970000D02*
G01*
X114735000Y-109970000D01*
X114735000Y-108599630D01*
X116204513Y-108599630D01*
X116204513Y-109970000D01*
G37*
X116204513Y-109970000D02*
X114735000Y-109970000D01*
X114735000Y-108599630D01*
X116204513Y-108599630D01*
X116204513Y-109970000D01*
G36*
X118266560Y-104060000D02*
G01*
X116795000Y-104060000D01*
X116795000Y-102679937D01*
X118266560Y-102679937D01*
X118266560Y-104060000D01*
G37*
X118266560Y-104060000D02*
X116795000Y-104060000D01*
X116795000Y-102679937D01*
X118266560Y-102679937D01*
X118266560Y-104060000D01*
G36*
X114138210Y-109970000D02*
G01*
X112670000Y-109970000D01*
X112670000Y-108594430D01*
X114138210Y-108594430D01*
X114138210Y-109970000D01*
G37*
X114138210Y-109970000D02*
X112670000Y-109970000D01*
X112670000Y-108594430D01*
X114138210Y-108594430D01*
X114138210Y-109970000D01*
G36*
X114137500Y-108000000D02*
G01*
X112670000Y-108000000D01*
X112670000Y-106624090D01*
X114137500Y-106624090D01*
X114137500Y-108000000D01*
G37*
X114137500Y-108000000D02*
X112670000Y-108000000D01*
X112670000Y-106624090D01*
X114137500Y-106624090D01*
X114137500Y-108000000D01*
%TO.C,VR3*%
G36*
X114040000Y-118323510D02*
G01*
X112563580Y-118323510D01*
X112563580Y-116950000D01*
X114040000Y-116950000D01*
X114040000Y-118323510D01*
G37*
X114040000Y-118323510D02*
X112563580Y-118323510D01*
X112563580Y-116950000D01*
X114040000Y-116950000D01*
X114040000Y-118323510D01*
G36*
X118165000Y-120297670D02*
G01*
X116695363Y-120297670D01*
X116695363Y-118920000D01*
X118165000Y-118920000D01*
X118165000Y-120297670D01*
G37*
X118165000Y-120297670D02*
X116695363Y-120297670D01*
X116695363Y-118920000D01*
X118165000Y-118920000D01*
X118165000Y-120297670D01*
G36*
X118165000Y-122270141D02*
G01*
X116695591Y-122270141D01*
X116695591Y-120890000D01*
X118165000Y-120890000D01*
X118165000Y-122270141D01*
G37*
X118165000Y-122270141D02*
X116695591Y-122270141D01*
X116695591Y-120890000D01*
X118165000Y-120890000D01*
X118165000Y-122270141D01*
G36*
X116105000Y-116356410D02*
G01*
X114633920Y-116356410D01*
X114633920Y-114980000D01*
X116105000Y-114980000D01*
X116105000Y-116356410D01*
G37*
X116105000Y-116356410D02*
X114633920Y-116356410D01*
X114633920Y-114980000D01*
X116105000Y-114980000D01*
X116105000Y-116356410D01*
G36*
X120230000Y-120298690D02*
G01*
X118761630Y-120298690D01*
X118761630Y-118920000D01*
X120230000Y-118920000D01*
X120230000Y-120298690D01*
G37*
X120230000Y-120298690D02*
X118761630Y-120298690D01*
X118761630Y-118920000D01*
X120230000Y-118920000D01*
X120230000Y-120298690D01*
G36*
X116105000Y-118325170D02*
G01*
X114632800Y-118325170D01*
X114632800Y-116950000D01*
X116105000Y-116950000D01*
X116105000Y-118325170D01*
G37*
X116105000Y-118325170D02*
X114632800Y-118325170D01*
X114632800Y-116950000D01*
X116105000Y-116950000D01*
X116105000Y-118325170D01*
G36*
X114040000Y-122270072D02*
G01*
X112566130Y-122270072D01*
X112566130Y-120890000D01*
X114040000Y-120890000D01*
X114040000Y-122270072D01*
G37*
X114040000Y-122270072D02*
X112566130Y-122270072D01*
X112566130Y-120890000D01*
X114040000Y-120890000D01*
X114040000Y-122270072D01*
G36*
X114040000Y-120297670D02*
G01*
X112565300Y-120297670D01*
X112565300Y-118920000D01*
X114040000Y-118920000D01*
X114040000Y-120297670D01*
G37*
X114040000Y-120297670D02*
X112565300Y-120297670D01*
X112565300Y-118920000D01*
X114040000Y-118920000D01*
X114040000Y-120297670D01*
G36*
X114040000Y-116349740D02*
G01*
X112563270Y-116349740D01*
X112563270Y-114980000D01*
X114040000Y-114980000D01*
X114040000Y-116349740D01*
G37*
X114040000Y-116349740D02*
X112563270Y-116349740D01*
X112563270Y-114980000D01*
X114040000Y-114980000D01*
X114040000Y-116349740D01*
G36*
X118165000Y-116350370D02*
G01*
X116695487Y-116350370D01*
X116695487Y-114980000D01*
X118165000Y-114980000D01*
X118165000Y-116350370D01*
G37*
X118165000Y-116350370D02*
X116695487Y-116350370D01*
X116695487Y-114980000D01*
X118165000Y-114980000D01*
X118165000Y-116350370D01*
G36*
X116105000Y-122270063D02*
G01*
X114633440Y-122270063D01*
X114633440Y-120890000D01*
X116105000Y-120890000D01*
X116105000Y-122270063D01*
G37*
X116105000Y-122270063D02*
X114633440Y-122270063D01*
X114633440Y-120890000D01*
X116105000Y-120890000D01*
X116105000Y-122270063D01*
G36*
X120230000Y-116355570D02*
G01*
X118761790Y-116355570D01*
X118761790Y-114980000D01*
X120230000Y-114980000D01*
X120230000Y-116355570D01*
G37*
X120230000Y-116355570D02*
X118761790Y-116355570D01*
X118761790Y-114980000D01*
X120230000Y-114980000D01*
X120230000Y-116355570D01*
G36*
X118165000Y-118323540D02*
G01*
X116695491Y-118323540D01*
X116695491Y-116950000D01*
X118165000Y-116950000D01*
X118165000Y-118323540D01*
G37*
X118165000Y-118323540D02*
X116695491Y-118323540D01*
X116695491Y-116950000D01*
X118165000Y-116950000D01*
X118165000Y-118323540D01*
G36*
X116105000Y-120298440D02*
G01*
X114633550Y-120298440D01*
X114633550Y-118920000D01*
X116105000Y-118920000D01*
X116105000Y-120298440D01*
G37*
X116105000Y-120298440D02*
X114633550Y-120298440D01*
X114633550Y-118920000D01*
X116105000Y-118920000D01*
X116105000Y-120298440D01*
G36*
X120230000Y-118325910D02*
G01*
X118762500Y-118325910D01*
X118762500Y-116950000D01*
X120230000Y-116950000D01*
X120230000Y-118325910D01*
G37*
X120230000Y-118325910D02*
X118762500Y-118325910D01*
X118762500Y-116950000D01*
X120230000Y-116950000D01*
X120230000Y-118325910D01*
G36*
X120230000Y-122270047D02*
G01*
X118761560Y-122270047D01*
X118761560Y-120890000D01*
X120230000Y-120890000D01*
X120230000Y-122270047D01*
G37*
X120230000Y-122270047D02*
X118761560Y-122270047D01*
X118761560Y-120890000D01*
X120230000Y-120890000D01*
X120230000Y-122270047D01*
%TD*%
D11*
%TO.C,VR1*%
X133900000Y-101340000D03*
X133900000Y-96260000D03*
%TD*%
D12*
%TO.C,VR2*%
X113960000Y-96050000D03*
X119040000Y-96050000D03*
%TD*%
%TO.C,VR3*%
X118940000Y-128900000D03*
X113860000Y-128900000D03*
%TD*%
M02*
