%TF.GenerationSoftware,KiCad,Pcbnew,(6.0.4)*%
%TF.CreationDate,2022-09-15T01:58:29-04:00*%
%TF.ProjectId,Pi_HAT,50695f48-4154-42e6-9b69-6361645f7063,rev?*%
%TF.SameCoordinates,Original*%
%TF.FileFunction,Soldermask,Bot*%
%TF.FilePolarity,Negative*%
%FSLAX46Y46*%
G04 Gerber Fmt 4.6, Leading zero omitted, Abs format (unit mm)*
G04 Created by KiCad (PCBNEW (6.0.4)) date 2022-09-15 01:58:29*
%MOMM*%
%LPD*%
G01*
G04 APERTURE LIST*
%ADD10R,1.800000X1.800000*%
%ADD11C,1.800000*%
%ADD12R,1.700000X1.700000*%
%ADD13O,1.700000X1.700000*%
%ADD14C,2.500000*%
%ADD15C,1.600000*%
%ADD16R,3.716000X3.716000*%
%ADD17C,3.716000*%
%ADD18O,1.200000X2.400000*%
%ADD19R,1.200000X1.200000*%
%ADD20C,1.200000*%
%ADD21R,3.500000X1.600000*%
%ADD22R,9.750000X12.200000*%
%ADD23R,1.600000X3.500000*%
%ADD24R,12.200000X9.750000*%
G04 APERTURE END LIST*
D10*
%TO.C,TB1*%
X108780000Y-93170000D03*
D11*
X108780000Y-95710000D03*
X108780000Y-98250000D03*
X108780000Y-100790000D03*
X108780000Y-103330000D03*
X108780000Y-105870000D03*
X108780000Y-108410000D03*
X108780000Y-110950000D03*
X108780000Y-113490000D03*
X108780000Y-116030000D03*
X108780000Y-118570000D03*
X108780000Y-121110000D03*
X108780000Y-123650000D03*
X108780000Y-126190000D03*
X108780000Y-128730000D03*
X124020000Y-128730000D03*
X124020000Y-126190000D03*
X124020000Y-123650000D03*
X124020000Y-121110000D03*
X124020000Y-118570000D03*
X124020000Y-116030000D03*
X124020000Y-113490000D03*
X124020000Y-110950000D03*
X124020000Y-108410000D03*
X124020000Y-105870000D03*
X124020000Y-103330000D03*
X124020000Y-100790000D03*
X124020000Y-98250000D03*
X124020000Y-95710000D03*
X124020000Y-93170000D03*
%TD*%
D12*
%TO.C,J3*%
X146000000Y-74500000D03*
D13*
X146000000Y-77040000D03*
X143460000Y-74500000D03*
X143460000Y-77040000D03*
X140920000Y-74500000D03*
X140920000Y-77040000D03*
%TD*%
D14*
%TO.C,H1*%
X153150000Y-74400000D03*
%TD*%
%TO.C,H2*%
X102600000Y-74450000D03*
%TD*%
%TO.C,H3*%
X102600000Y-132800000D03*
%TD*%
D12*
%TO.C,J1*%
X129400000Y-87300000D03*
D13*
X129400000Y-89840000D03*
X129400000Y-92380000D03*
X129400000Y-94920000D03*
X129400000Y-97460000D03*
X129400000Y-100000000D03*
X129400000Y-102540000D03*
X129400000Y-105080000D03*
X129400000Y-107620000D03*
X129400000Y-110160000D03*
%TD*%
D14*
%TO.C,H4*%
X153150000Y-132650000D03*
%TD*%
D13*
%TO.C,J2*%
X154265000Y-127660000D03*
X151725000Y-127660000D03*
X154265000Y-125120000D03*
X151725000Y-125120000D03*
X154265000Y-122580000D03*
X151725000Y-122580000D03*
X154265000Y-120040000D03*
X151725000Y-120040000D03*
X154265000Y-117500000D03*
X151725000Y-117500000D03*
X154265000Y-114960000D03*
X151725000Y-114960000D03*
X154265000Y-112420000D03*
X151725000Y-112420000D03*
X154265000Y-109880000D03*
X151725000Y-109880000D03*
X154265000Y-107340000D03*
X151725000Y-107340000D03*
X154265000Y-104800000D03*
X151725000Y-104800000D03*
X154265000Y-102260000D03*
X151725000Y-102260000D03*
X154265000Y-99720000D03*
X151725000Y-99720000D03*
X154265000Y-97180000D03*
X151725000Y-97180000D03*
X154265000Y-94640000D03*
X151725000Y-94640000D03*
X154265000Y-92100000D03*
X151725000Y-92100000D03*
X154265000Y-89560000D03*
X151725000Y-89560000D03*
X154265000Y-87020000D03*
X151725000Y-87020000D03*
X154265000Y-84480000D03*
X151725000Y-84480000D03*
X154265000Y-81940000D03*
X151725000Y-81940000D03*
X154265000Y-79400000D03*
D12*
X151725000Y-79400000D03*
%TD*%
D15*
%TO.C,C1*%
X129200000Y-79400000D03*
X134200000Y-79400000D03*
%TD*%
D12*
%TO.C,J4*%
X103000000Y-103200000D03*
D13*
X103000000Y-105740000D03*
X103000000Y-108280000D03*
X103000000Y-110820000D03*
%TD*%
D16*
%TO.C,J5*%
X121200000Y-83465750D03*
D17*
X114000000Y-83465750D03*
D18*
X124350000Y-77465750D03*
X110850000Y-77465750D03*
%TD*%
D14*
%TO.C,H5*%
X141150000Y-88500000D03*
%TD*%
%TO.C,H6*%
X141150000Y-109000000D03*
%TD*%
D19*
%TO.C,C2*%
X103200000Y-124800000D03*
D20*
X103200000Y-123300000D03*
%TD*%
D12*
%TO.C,J6*%
X159200000Y-103200000D03*
D13*
X159200000Y-105740000D03*
X159200000Y-108280000D03*
X159200000Y-110820000D03*
%TD*%
D12*
%TO.C,J7*%
X103000000Y-88475000D03*
D13*
X103000000Y-91015000D03*
X103000000Y-93555000D03*
%TD*%
D16*
%TO.C,J8*%
X134400000Y-116300000D03*
D17*
X141600000Y-116300000D03*
D18*
X131250000Y-122300000D03*
X144750000Y-122300000D03*
%TD*%
D21*
%TO.C,VR1*%
X133900000Y-101340000D03*
X133900000Y-96260000D03*
D22*
X144175000Y-98800000D03*
%TD*%
D23*
%TO.C,VR2*%
X113960000Y-96050000D03*
X119040000Y-96050000D03*
D24*
X116500000Y-106325000D03*
%TD*%
D23*
%TO.C,VR3*%
X118940000Y-128900000D03*
X113860000Y-128900000D03*
D24*
X116400000Y-118625000D03*
%TD*%
M02*
