M48
; DRILL file {KiCad (6.0.4)} date Thu Sep 15 01:58:31 2022
; FORMAT={-:-/ absolute / inch / decimal}
; #@! TF.CreationDate,2022-09-15T01:58:31-04:00
; #@! TF.GenerationSoftware,Kicad,Pcbnew,(6.0.4)
; #@! TF.FileFunction,Plated,1,2,PTH
FMAT,2
INCH
; #@! TA.AperFunction,Plated,PTH,ViaDrill
T1C0.0157
; #@! TA.AperFunction,Plated,PTH,ComponentDrill
T2C0.0236
; #@! TA.AperFunction,Plated,PTH,ComponentDrill
T3C0.0315
; #@! TA.AperFunction,Plated,PTH,ComponentDrill
T4C0.0354
; #@! TA.AperFunction,Plated,PTH,ComponentDrill
T5C0.0394
; #@! TA.AperFunction,Plated,PTH,ComponentDrill
T6C0.1063
%
G90
G05
T1
X5.8957Y-3.8957
T2
X4.063Y-4.8543
X4.063Y-4.9134
T3
X5.0866Y-3.126
X5.2835Y-3.126
T4
X4.2827Y-3.6681
X4.2827Y-3.7681
X4.2827Y-3.8681
X4.2827Y-3.9681
X4.2827Y-4.0681
X4.2827Y-4.1681
X4.2827Y-4.2681
X4.2827Y-4.3681
X4.2827Y-4.4681
X4.2827Y-4.5681
X4.2827Y-4.6681
X4.2827Y-4.7681
X4.2827Y-4.8681
X4.2827Y-4.9681
X4.2827Y-5.0681
X4.8827Y-3.6681
X4.8827Y-3.7681
X4.8827Y-3.8681
X4.8827Y-3.9681
X4.8827Y-4.0681
X4.8827Y-4.1681
X4.8827Y-4.2681
X4.8827Y-4.3681
X4.8827Y-4.4681
X4.8827Y-4.5681
X4.8827Y-4.6681
X4.8827Y-4.7681
X4.8827Y-4.8681
X4.8827Y-4.9681
X4.8827Y-5.0681
T5
X4.0551Y-3.4833
X4.0551Y-3.5833
X4.0551Y-3.6833
X4.0551Y-4.063
X4.0551Y-4.163
X4.0551Y-4.263
X4.0551Y-4.363
X5.0945Y-3.437
X5.0945Y-3.537
X5.0945Y-3.637
X5.0945Y-3.737
X5.0945Y-3.837
X5.0945Y-3.937
X5.0945Y-4.037
X5.0945Y-4.137
X5.0945Y-4.237
X5.0945Y-4.337
X5.548Y-2.9331
X5.548Y-3.0331
X5.648Y-2.9331
X5.648Y-3.0331
X5.748Y-2.9331
X5.748Y-3.0331
X5.9734Y-3.126
X5.9734Y-3.226
X5.9734Y-3.326
X5.9734Y-3.426
X5.9734Y-3.526
X5.9734Y-3.626
X5.9734Y-3.726
X5.9734Y-3.826
X5.9734Y-3.926
X5.9734Y-4.026
X5.9734Y-4.126
X5.9734Y-4.226
X5.9734Y-4.326
X5.9734Y-4.426
X5.9734Y-4.526
X5.9734Y-4.626
X5.9734Y-4.726
X5.9734Y-4.826
X5.9734Y-4.926
X5.9734Y-5.026
X6.0734Y-3.126
X6.0734Y-3.226
X6.0734Y-3.326
X6.0734Y-3.426
X6.0734Y-3.526
X6.0734Y-3.626
X6.0734Y-3.726
X6.0734Y-3.826
X6.0734Y-3.926
X6.0734Y-4.026
X6.0734Y-4.126
X6.0734Y-4.226
X6.0734Y-4.326
X6.0734Y-4.426
X6.0734Y-4.526
X6.0734Y-4.626
X6.0734Y-4.726
X6.0734Y-4.826
X6.0734Y-4.926
X6.0734Y-5.026
X6.2677Y-4.063
X6.2677Y-4.163
X6.2677Y-4.263
X6.2677Y-4.363
T6
X4.4882Y-3.2861
X4.7717Y-3.2861
X5.2913Y-4.5787
X5.5748Y-4.5787
T2
G00X4.3642Y-3.0282
M15
G01X4.3642Y-3.0715
M16
G05
G00X4.8957Y-3.0282
M15
G01X4.8957Y-3.0715
M16
G05
G00X5.1673Y-4.8366
M15
G01X5.1673Y-4.7933
M16
G05
G00X5.6988Y-4.8366
M15
G01X5.6988Y-4.7933
M16
G05
T0
M30
