%TF.GenerationSoftware,KiCad,Pcbnew,(6.0.4)*%
%TF.CreationDate,2022-09-08T01:36:39-04:00*%
%TF.ProjectId,Pi_HAT,50695f48-4154-42e6-9b69-6361645f7063,rev?*%
%TF.SameCoordinates,Original*%
%TF.FileFunction,Legend,Top*%
%TF.FilePolarity,Positive*%
%FSLAX46Y46*%
G04 Gerber Fmt 4.6, Leading zero omitted, Abs format (unit mm)*
G04 Created by KiCad (PCBNEW (6.0.4)) date 2022-09-08 01:36:39*
%MOMM*%
%LPD*%
G01*
G04 APERTURE LIST*
%ADD10C,0.150000*%
%ADD11C,0.100000*%
%ADD12C,0.250000*%
%ADD13C,0.127000*%
%ADD14C,0.200000*%
%ADD15C,0.120000*%
%ADD16C,0.010000*%
G04 APERTURE END LIST*
D10*
X141004761Y-126223809D02*
X139004761Y-126223809D01*
X140433333Y-125557142D01*
X139004761Y-124890476D01*
X141004761Y-124890476D01*
X141004761Y-123938095D02*
X139004761Y-123938095D01*
X139004761Y-123176190D01*
X139100000Y-122985714D01*
X139195238Y-122890476D01*
X139385714Y-122795238D01*
X139671428Y-122795238D01*
X139861904Y-122890476D01*
X139957142Y-122985714D01*
X140052380Y-123176190D01*
X140052380Y-123938095D01*
X139004761Y-121938095D02*
X140623809Y-121938095D01*
X140814285Y-121842857D01*
X140909523Y-121747619D01*
X141004761Y-121557142D01*
X141004761Y-121176190D01*
X140909523Y-120985714D01*
X140814285Y-120890476D01*
X140623809Y-120795238D01*
X139004761Y-120795238D01*
X141004761Y-119747619D02*
X141004761Y-119366666D01*
X140909523Y-119176190D01*
X140814285Y-119080952D01*
X140528571Y-118890476D01*
X140147619Y-118795238D01*
X139385714Y-118795238D01*
X139195238Y-118890476D01*
X139100000Y-118985714D01*
X139004761Y-119176190D01*
X139004761Y-119557142D01*
X139100000Y-119747619D01*
X139195238Y-119842857D01*
X139385714Y-119938095D01*
X139861904Y-119938095D01*
X140052380Y-119842857D01*
X140147619Y-119747619D01*
X140242857Y-119557142D01*
X140242857Y-119176190D01*
X140147619Y-118985714D01*
X140052380Y-118890476D01*
X139861904Y-118795238D01*
X139195238Y-118033333D02*
X139100000Y-117938095D01*
X139004761Y-117747619D01*
X139004761Y-117271428D01*
X139100000Y-117080952D01*
X139195238Y-116985714D01*
X139385714Y-116890476D01*
X139576190Y-116890476D01*
X139861904Y-116985714D01*
X141004761Y-118128571D01*
X141004761Y-116890476D01*
X139004761Y-115080952D02*
X139004761Y-116033333D01*
X139957142Y-116128571D01*
X139861904Y-116033333D01*
X139766666Y-115842857D01*
X139766666Y-115366666D01*
X139861904Y-115176190D01*
X139957142Y-115080952D01*
X140147619Y-114985714D01*
X140623809Y-114985714D01*
X140814285Y-115080952D01*
X140909523Y-115176190D01*
X141004761Y-115366666D01*
X141004761Y-115842857D01*
X140909523Y-116033333D01*
X140814285Y-116128571D01*
X139004761Y-113747619D02*
X139004761Y-113557142D01*
X139100000Y-113366666D01*
X139195238Y-113271428D01*
X139385714Y-113176190D01*
X139766666Y-113080952D01*
X140242857Y-113080952D01*
X140623809Y-113176190D01*
X140814285Y-113271428D01*
X140909523Y-113366666D01*
X141004761Y-113557142D01*
X141004761Y-113747619D01*
X140909523Y-113938095D01*
X140814285Y-114033333D01*
X140623809Y-114128571D01*
X140242857Y-114223809D01*
X139766666Y-114223809D01*
X139385714Y-114128571D01*
X139195238Y-114033333D01*
X139100000Y-113938095D01*
X139004761Y-113747619D01*
D11*
X145361904Y-72026190D02*
X145671428Y-72026190D01*
X145504761Y-72216666D01*
X145576190Y-72216666D01*
X145623809Y-72240476D01*
X145647619Y-72264285D01*
X145671428Y-72311904D01*
X145671428Y-72430952D01*
X145647619Y-72478571D01*
X145623809Y-72502380D01*
X145576190Y-72526190D01*
X145433333Y-72526190D01*
X145385714Y-72502380D01*
X145361904Y-72478571D01*
X145885714Y-72478571D02*
X145909523Y-72502380D01*
X145885714Y-72526190D01*
X145861904Y-72502380D01*
X145885714Y-72478571D01*
X145885714Y-72526190D01*
X146076190Y-72026190D02*
X146385714Y-72026190D01*
X146219047Y-72216666D01*
X146290476Y-72216666D01*
X146338095Y-72240476D01*
X146361904Y-72264285D01*
X146385714Y-72311904D01*
X146385714Y-72430952D01*
X146361904Y-72478571D01*
X146338095Y-72502380D01*
X146290476Y-72526190D01*
X146147619Y-72526190D01*
X146100000Y-72502380D01*
X146076190Y-72478571D01*
X146528571Y-72026190D02*
X146695238Y-72526190D01*
X146861904Y-72026190D01*
X101150000Y-93119047D02*
X101173809Y-93071428D01*
X101173809Y-93000000D01*
X101150000Y-92928571D01*
X101102380Y-92880952D01*
X101054761Y-92857142D01*
X100959523Y-92833333D01*
X100888095Y-92833333D01*
X100792857Y-92857142D01*
X100745238Y-92880952D01*
X100697619Y-92928571D01*
X100673809Y-93000000D01*
X100673809Y-93047619D01*
X100697619Y-93119047D01*
X100721428Y-93142857D01*
X100888095Y-93142857D01*
X100888095Y-93047619D01*
X100673809Y-93357142D02*
X101173809Y-93357142D01*
X100673809Y-93642857D01*
X101173809Y-93642857D01*
X100673809Y-93880952D02*
X101173809Y-93880952D01*
X101173809Y-94000000D01*
X101150000Y-94071428D01*
X101102380Y-94119047D01*
X101054761Y-94142857D01*
X100959523Y-94166666D01*
X100888095Y-94166666D01*
X100792857Y-94142857D01*
X100745238Y-94119047D01*
X100697619Y-94071428D01*
X100673809Y-94000000D01*
X100673809Y-93880952D01*
X100673809Y-90790476D02*
X100673809Y-90504761D01*
X100673809Y-90647619D02*
X101173809Y-90647619D01*
X101102380Y-90600000D01*
X101054761Y-90552380D01*
X101030952Y-90504761D01*
X101126190Y-90980952D02*
X101150000Y-91004761D01*
X101173809Y-91052380D01*
X101173809Y-91171428D01*
X101150000Y-91219047D01*
X101126190Y-91242857D01*
X101078571Y-91266666D01*
X101030952Y-91266666D01*
X100959523Y-91242857D01*
X100673809Y-90957142D01*
X100673809Y-91266666D01*
X101173809Y-91409523D02*
X100673809Y-91576190D01*
X101173809Y-91742857D01*
X100697619Y-95492857D02*
X100673809Y-95564285D01*
X100673809Y-95683333D01*
X100697619Y-95730952D01*
X100721428Y-95754761D01*
X100769047Y-95778571D01*
X100816666Y-95778571D01*
X100864285Y-95754761D01*
X100888095Y-95730952D01*
X100911904Y-95683333D01*
X100935714Y-95588095D01*
X100959523Y-95540476D01*
X100983333Y-95516666D01*
X101030952Y-95492857D01*
X101078571Y-95492857D01*
X101126190Y-95516666D01*
X101150000Y-95540476D01*
X101173809Y-95588095D01*
X101173809Y-95707142D01*
X101150000Y-95778571D01*
X100673809Y-95992857D02*
X101173809Y-95992857D01*
X101173809Y-96111904D01*
X101150000Y-96183333D01*
X101102380Y-96230952D01*
X101054761Y-96254761D01*
X100959523Y-96278571D01*
X100888095Y-96278571D01*
X100792857Y-96254761D01*
X100745238Y-96230952D01*
X100697619Y-96183333D01*
X100673809Y-96111904D01*
X100673809Y-95992857D01*
X100816666Y-96469047D02*
X100816666Y-96707142D01*
X100673809Y-96421428D02*
X101173809Y-96588095D01*
X100673809Y-96754761D01*
X100797619Y-98004761D02*
X100773809Y-98076190D01*
X100773809Y-98195238D01*
X100797619Y-98242857D01*
X100821428Y-98266666D01*
X100869047Y-98290476D01*
X100916666Y-98290476D01*
X100964285Y-98266666D01*
X100988095Y-98242857D01*
X101011904Y-98195238D01*
X101035714Y-98100000D01*
X101059523Y-98052380D01*
X101083333Y-98028571D01*
X101130952Y-98004761D01*
X101178571Y-98004761D01*
X101226190Y-98028571D01*
X101250000Y-98052380D01*
X101273809Y-98100000D01*
X101273809Y-98219047D01*
X101250000Y-98290476D01*
X100821428Y-98790476D02*
X100797619Y-98766666D01*
X100773809Y-98695238D01*
X100773809Y-98647619D01*
X100797619Y-98576190D01*
X100845238Y-98528571D01*
X100892857Y-98504761D01*
X100988095Y-98480952D01*
X101059523Y-98480952D01*
X101154761Y-98504761D01*
X101202380Y-98528571D01*
X101250000Y-98576190D01*
X101273809Y-98647619D01*
X101273809Y-98695238D01*
X101250000Y-98766666D01*
X101226190Y-98790476D01*
X100773809Y-99242857D02*
X100773809Y-99004761D01*
X101273809Y-99004761D01*
D12*
X136764285Y-68026619D02*
X136764285Y-66926619D01*
X137183333Y-66926619D01*
X137288095Y-66979000D01*
X137340476Y-67031380D01*
X137392857Y-67136142D01*
X137392857Y-67293285D01*
X137340476Y-67398047D01*
X137288095Y-67450428D01*
X137183333Y-67502809D01*
X136764285Y-67502809D01*
X137864285Y-68026619D02*
X137864285Y-66926619D01*
X139226190Y-68026619D02*
X139226190Y-66926619D01*
X139226190Y-67450428D02*
X139854761Y-67450428D01*
X139854761Y-68026619D02*
X139854761Y-66926619D01*
X140326190Y-67712333D02*
X140850000Y-67712333D01*
X140221428Y-68026619D02*
X140588095Y-66926619D01*
X140954761Y-68026619D01*
X141164285Y-66926619D02*
X141792857Y-66926619D01*
X141478571Y-68026619D02*
X141478571Y-66926619D01*
X132861904Y-69221428D02*
X133228571Y-69221428D01*
X133385714Y-69797619D02*
X132861904Y-69797619D01*
X132861904Y-68697619D01*
X133385714Y-68697619D01*
X133804761Y-69483333D02*
X134328571Y-69483333D01*
X133700000Y-69797619D02*
X134066666Y-68697619D01*
X134433333Y-69797619D01*
X134747619Y-69745238D02*
X134904761Y-69797619D01*
X135166666Y-69797619D01*
X135271428Y-69745238D01*
X135323809Y-69692857D01*
X135376190Y-69588095D01*
X135376190Y-69483333D01*
X135323809Y-69378571D01*
X135271428Y-69326190D01*
X135166666Y-69273809D01*
X134957142Y-69221428D01*
X134852380Y-69169047D01*
X134800000Y-69116666D01*
X134747619Y-69011904D01*
X134747619Y-68907142D01*
X134800000Y-68802380D01*
X134852380Y-68750000D01*
X134957142Y-68697619D01*
X135219047Y-68697619D01*
X135376190Y-68750000D01*
X136057142Y-69273809D02*
X136057142Y-69797619D01*
X135690476Y-68697619D02*
X136057142Y-69273809D01*
X136423809Y-68697619D01*
X138257142Y-69692857D02*
X138204761Y-69745238D01*
X138047619Y-69797619D01*
X137942857Y-69797619D01*
X137785714Y-69745238D01*
X137680952Y-69640476D01*
X137628571Y-69535714D01*
X137576190Y-69326190D01*
X137576190Y-69169047D01*
X137628571Y-68959523D01*
X137680952Y-68854761D01*
X137785714Y-68750000D01*
X137942857Y-68697619D01*
X138047619Y-68697619D01*
X138204761Y-68750000D01*
X138257142Y-68802380D01*
X138938095Y-68697619D02*
X139147619Y-68697619D01*
X139252380Y-68750000D01*
X139357142Y-68854761D01*
X139409523Y-69064285D01*
X139409523Y-69430952D01*
X139357142Y-69640476D01*
X139252380Y-69745238D01*
X139147619Y-69797619D01*
X138938095Y-69797619D01*
X138833333Y-69745238D01*
X138728571Y-69640476D01*
X138676190Y-69430952D01*
X138676190Y-69064285D01*
X138728571Y-68854761D01*
X138833333Y-68750000D01*
X138938095Y-68697619D01*
X139880952Y-69797619D02*
X139880952Y-68697619D01*
X140509523Y-69797619D01*
X140509523Y-68697619D01*
X140876190Y-68697619D02*
X141504761Y-68697619D01*
X141190476Y-69797619D02*
X141190476Y-68697619D01*
X142500000Y-69797619D02*
X142133333Y-69273809D01*
X141871428Y-69797619D02*
X141871428Y-68697619D01*
X142290476Y-68697619D01*
X142395238Y-68750000D01*
X142447619Y-68802380D01*
X142500000Y-68907142D01*
X142500000Y-69064285D01*
X142447619Y-69169047D01*
X142395238Y-69221428D01*
X142290476Y-69273809D01*
X141871428Y-69273809D01*
X143180952Y-68697619D02*
X143390476Y-68697619D01*
X143495238Y-68750000D01*
X143600000Y-68854761D01*
X143652380Y-69064285D01*
X143652380Y-69430952D01*
X143600000Y-69640476D01*
X143495238Y-69745238D01*
X143390476Y-69797619D01*
X143180952Y-69797619D01*
X143076190Y-69745238D01*
X142971428Y-69640476D01*
X142919047Y-69430952D01*
X142919047Y-69064285D01*
X142971428Y-68854761D01*
X143076190Y-68750000D01*
X143180952Y-68697619D01*
X144647619Y-69797619D02*
X144123809Y-69797619D01*
X144123809Y-68697619D01*
X144961904Y-69745238D02*
X145119047Y-69797619D01*
X145380952Y-69797619D01*
X145485714Y-69745238D01*
X145538095Y-69692857D01*
X145590476Y-69588095D01*
X145590476Y-69483333D01*
X145538095Y-69378571D01*
X145485714Y-69326190D01*
X145380952Y-69273809D01*
X145171428Y-69221428D01*
X145066666Y-69169047D01*
X145014285Y-69116666D01*
X144961904Y-69011904D01*
X144961904Y-68907142D01*
X145014285Y-68802380D01*
X145066666Y-68750000D01*
X145171428Y-68697619D01*
X145433333Y-68697619D01*
X145590476Y-68750000D01*
X128200000Y-71568619D02*
X128200000Y-70468619D01*
X128461904Y-70468619D01*
X128619047Y-70521000D01*
X128723809Y-70625761D01*
X128776190Y-70730523D01*
X128828571Y-70940047D01*
X128828571Y-71097190D01*
X128776190Y-71306714D01*
X128723809Y-71411476D01*
X128619047Y-71516238D01*
X128461904Y-71568619D01*
X128200000Y-71568619D01*
X129719047Y-71516238D02*
X129614285Y-71568619D01*
X129404761Y-71568619D01*
X129300000Y-71516238D01*
X129247619Y-71411476D01*
X129247619Y-70992428D01*
X129300000Y-70887666D01*
X129404761Y-70835285D01*
X129614285Y-70835285D01*
X129719047Y-70887666D01*
X129771428Y-70992428D01*
X129771428Y-71097190D01*
X129247619Y-71201952D01*
X130190476Y-71516238D02*
X130295238Y-71568619D01*
X130504761Y-71568619D01*
X130609523Y-71516238D01*
X130661904Y-71411476D01*
X130661904Y-71359095D01*
X130609523Y-71254333D01*
X130504761Y-71201952D01*
X130347619Y-71201952D01*
X130242857Y-71149571D01*
X130190476Y-71044809D01*
X130190476Y-70992428D01*
X130242857Y-70887666D01*
X130347619Y-70835285D01*
X130504761Y-70835285D01*
X130609523Y-70887666D01*
X131133333Y-71568619D02*
X131133333Y-70835285D01*
X131133333Y-70468619D02*
X131080952Y-70521000D01*
X131133333Y-70573380D01*
X131185714Y-70521000D01*
X131133333Y-70468619D01*
X131133333Y-70573380D01*
X132128571Y-70835285D02*
X132128571Y-71725761D01*
X132076190Y-71830523D01*
X132023809Y-71882904D01*
X131919047Y-71935285D01*
X131761904Y-71935285D01*
X131657142Y-71882904D01*
X132128571Y-71516238D02*
X132023809Y-71568619D01*
X131814285Y-71568619D01*
X131709523Y-71516238D01*
X131657142Y-71463857D01*
X131604761Y-71359095D01*
X131604761Y-71044809D01*
X131657142Y-70940047D01*
X131709523Y-70887666D01*
X131814285Y-70835285D01*
X132023809Y-70835285D01*
X132128571Y-70887666D01*
X132652380Y-70835285D02*
X132652380Y-71568619D01*
X132652380Y-70940047D02*
X132704761Y-70887666D01*
X132809523Y-70835285D01*
X132966666Y-70835285D01*
X133071428Y-70887666D01*
X133123809Y-70992428D01*
X133123809Y-71568619D01*
X134066666Y-71516238D02*
X133961904Y-71568619D01*
X133752380Y-71568619D01*
X133647619Y-71516238D01*
X133595238Y-71411476D01*
X133595238Y-70992428D01*
X133647619Y-70887666D01*
X133752380Y-70835285D01*
X133961904Y-70835285D01*
X134066666Y-70887666D01*
X134119047Y-70992428D01*
X134119047Y-71097190D01*
X133595238Y-71201952D01*
X135061904Y-71568619D02*
X135061904Y-70468619D01*
X135061904Y-71516238D02*
X134957142Y-71568619D01*
X134747619Y-71568619D01*
X134642857Y-71516238D01*
X134590476Y-71463857D01*
X134538095Y-71359095D01*
X134538095Y-71044809D01*
X134590476Y-70940047D01*
X134642857Y-70887666D01*
X134747619Y-70835285D01*
X134957142Y-70835285D01*
X135061904Y-70887666D01*
X136423809Y-71568619D02*
X136423809Y-70468619D01*
X136423809Y-70887666D02*
X136528571Y-70835285D01*
X136738095Y-70835285D01*
X136842857Y-70887666D01*
X136895238Y-70940047D01*
X136947619Y-71044809D01*
X136947619Y-71359095D01*
X136895238Y-71463857D01*
X136842857Y-71516238D01*
X136738095Y-71568619D01*
X136528571Y-71568619D01*
X136423809Y-71516238D01*
X137314285Y-70835285D02*
X137576190Y-71568619D01*
X137838095Y-70835285D02*
X137576190Y-71568619D01*
X137471428Y-71830523D01*
X137419047Y-71882904D01*
X137314285Y-71935285D01*
X138257142Y-71463857D02*
X138309523Y-71516238D01*
X138257142Y-71568619D01*
X138204761Y-71516238D01*
X138257142Y-71463857D01*
X138257142Y-71568619D01*
X138257142Y-70887666D02*
X138309523Y-70940047D01*
X138257142Y-70992428D01*
X138204761Y-70940047D01*
X138257142Y-70887666D01*
X138257142Y-70992428D01*
X139933333Y-70468619D02*
X139933333Y-71254333D01*
X139880952Y-71411476D01*
X139776190Y-71516238D01*
X139619047Y-71568619D01*
X139514285Y-71568619D01*
X140928571Y-71568619D02*
X140928571Y-70992428D01*
X140876190Y-70887666D01*
X140771428Y-70835285D01*
X140561904Y-70835285D01*
X140457142Y-70887666D01*
X140928571Y-71516238D02*
X140823809Y-71568619D01*
X140561904Y-71568619D01*
X140457142Y-71516238D01*
X140404761Y-71411476D01*
X140404761Y-71306714D01*
X140457142Y-71201952D01*
X140561904Y-71149571D01*
X140823809Y-71149571D01*
X140928571Y-71097190D01*
X141923809Y-71516238D02*
X141819047Y-71568619D01*
X141609523Y-71568619D01*
X141504761Y-71516238D01*
X141452380Y-71463857D01*
X141400000Y-71359095D01*
X141400000Y-71044809D01*
X141452380Y-70940047D01*
X141504761Y-70887666D01*
X141609523Y-70835285D01*
X141819047Y-70835285D01*
X141923809Y-70887666D01*
X142552380Y-71568619D02*
X142447619Y-71516238D01*
X142395238Y-71463857D01*
X142342857Y-71359095D01*
X142342857Y-71044809D01*
X142395238Y-70940047D01*
X142447619Y-70887666D01*
X142552380Y-70835285D01*
X142709523Y-70835285D01*
X142814285Y-70887666D01*
X142866666Y-70940047D01*
X142919047Y-71044809D01*
X142919047Y-71359095D01*
X142866666Y-71463857D01*
X142814285Y-71516238D01*
X142709523Y-71568619D01*
X142552380Y-71568619D01*
X143390476Y-71568619D02*
X143390476Y-70468619D01*
X143390476Y-70887666D02*
X143495238Y-70835285D01*
X143704761Y-70835285D01*
X143809523Y-70887666D01*
X143861904Y-70940047D01*
X143914285Y-71044809D01*
X143914285Y-71359095D01*
X143861904Y-71463857D01*
X143809523Y-71516238D01*
X143704761Y-71568619D01*
X143495238Y-71568619D01*
X143390476Y-71516238D01*
X145852380Y-71568619D02*
X145485714Y-71044809D01*
X145223809Y-71568619D02*
X145223809Y-70468619D01*
X145642857Y-70468619D01*
X145747619Y-70521000D01*
X145800000Y-70573380D01*
X145852380Y-70678142D01*
X145852380Y-70835285D01*
X145800000Y-70940047D01*
X145747619Y-70992428D01*
X145642857Y-71044809D01*
X145223809Y-71044809D01*
X146480952Y-71568619D02*
X146376190Y-71516238D01*
X146323809Y-71463857D01*
X146271428Y-71359095D01*
X146271428Y-71044809D01*
X146323809Y-70940047D01*
X146376190Y-70887666D01*
X146480952Y-70835285D01*
X146638095Y-70835285D01*
X146742857Y-70887666D01*
X146795238Y-70940047D01*
X146847619Y-71044809D01*
X146847619Y-71359095D01*
X146795238Y-71463857D01*
X146742857Y-71516238D01*
X146638095Y-71568619D01*
X146480952Y-71568619D01*
X147319047Y-71568619D02*
X147319047Y-70835285D01*
X147319047Y-70940047D02*
X147371428Y-70887666D01*
X147476190Y-70835285D01*
X147633333Y-70835285D01*
X147738095Y-70887666D01*
X147790476Y-70992428D01*
X147790476Y-71568619D01*
X147790476Y-70992428D02*
X147842857Y-70887666D01*
X147947619Y-70835285D01*
X148104761Y-70835285D01*
X148209523Y-70887666D01*
X148261904Y-70992428D01*
X148261904Y-71568619D01*
X149204761Y-71516238D02*
X149100000Y-71568619D01*
X148890476Y-71568619D01*
X148785714Y-71516238D01*
X148733333Y-71411476D01*
X148733333Y-70992428D01*
X148785714Y-70887666D01*
X148890476Y-70835285D01*
X149100000Y-70835285D01*
X149204761Y-70887666D01*
X149257142Y-70992428D01*
X149257142Y-71097190D01*
X148733333Y-71201952D01*
X149885714Y-71568619D02*
X149780952Y-71516238D01*
X149728571Y-71463857D01*
X149676190Y-71359095D01*
X149676190Y-71044809D01*
X149728571Y-70940047D01*
X149780952Y-70887666D01*
X149885714Y-70835285D01*
X150042857Y-70835285D01*
X150147619Y-70887666D01*
X150200000Y-70940047D01*
X150252380Y-71044809D01*
X150252380Y-71359095D01*
X150200000Y-71463857D01*
X150147619Y-71516238D01*
X150042857Y-71568619D01*
X149885714Y-71568619D01*
D10*
%TO.C,TB1*%
X115433333Y-90433333D02*
X116233333Y-90433333D01*
X115833333Y-91833333D02*
X115833333Y-90433333D01*
X117166666Y-91100000D02*
X117366666Y-91166666D01*
X117433333Y-91233333D01*
X117500000Y-91366666D01*
X117500000Y-91566666D01*
X117433333Y-91700000D01*
X117366666Y-91766666D01*
X117233333Y-91833333D01*
X116700000Y-91833333D01*
X116700000Y-90433333D01*
X117166666Y-90433333D01*
X117300000Y-90500000D01*
X117366666Y-90566666D01*
X117433333Y-90700000D01*
X117433333Y-90833333D01*
X117366666Y-90966666D01*
X117300000Y-91033333D01*
X117166666Y-91100000D01*
X116700000Y-91100000D01*
X118833333Y-91833333D02*
X118033333Y-91833333D01*
X118433333Y-91833333D02*
X118433333Y-90433333D01*
X118300000Y-90633333D01*
X118166666Y-90766666D01*
X118033333Y-90833333D01*
X122433333Y-112157142D02*
X122433333Y-111204761D01*
X123004761Y-112347619D02*
X121004761Y-111680952D01*
X123004761Y-111014285D01*
X123004761Y-109204761D02*
X122052380Y-109871428D01*
X123004761Y-110347619D02*
X121004761Y-110347619D01*
X121004761Y-109585714D01*
X121100000Y-109395238D01*
X121195238Y-109300000D01*
X121385714Y-109204761D01*
X121671428Y-109204761D01*
X121861904Y-109300000D01*
X121957142Y-109395238D01*
X122052380Y-109585714D01*
X122052380Y-110347619D01*
X123004761Y-108347619D02*
X121004761Y-108347619D01*
X121004761Y-107871428D01*
X121100000Y-107585714D01*
X121290476Y-107395238D01*
X121480952Y-107300000D01*
X121861904Y-107204761D01*
X122147619Y-107204761D01*
X122528571Y-107300000D01*
X122719047Y-107395238D01*
X122909523Y-107585714D01*
X123004761Y-107871428D01*
X123004761Y-108347619D01*
X121004761Y-106347619D02*
X122623809Y-106347619D01*
X122814285Y-106252380D01*
X122909523Y-106157142D01*
X123004761Y-105966666D01*
X123004761Y-105585714D01*
X122909523Y-105395238D01*
X122814285Y-105300000D01*
X122623809Y-105204761D01*
X121004761Y-105204761D01*
X123004761Y-104252380D02*
X121004761Y-104252380D01*
X123004761Y-103300000D02*
X121004761Y-103300000D01*
X123004761Y-102157142D01*
X121004761Y-102157142D01*
X121004761Y-100823809D02*
X121004761Y-100442857D01*
X121100000Y-100252380D01*
X121290476Y-100061904D01*
X121671428Y-99966666D01*
X122338095Y-99966666D01*
X122719047Y-100061904D01*
X122909523Y-100252380D01*
X123004761Y-100442857D01*
X123004761Y-100823809D01*
X122909523Y-101014285D01*
X122719047Y-101204761D01*
X122338095Y-101300000D01*
X121671428Y-101300000D01*
X121290476Y-101204761D01*
X121100000Y-101014285D01*
X121004761Y-100823809D01*
X123195238Y-99585714D02*
X123195238Y-98061904D01*
X123004761Y-97585714D02*
X121004761Y-97585714D01*
X123004761Y-96442857D01*
X121004761Y-96442857D01*
X122433333Y-95585714D02*
X122433333Y-94633333D01*
X123004761Y-95776190D02*
X121004761Y-95109523D01*
X123004761Y-94442857D01*
X123004761Y-93776190D02*
X121004761Y-93776190D01*
X123004761Y-92633333D01*
X121004761Y-92633333D01*
X121004761Y-91300000D02*
X121004761Y-90919047D01*
X121100000Y-90728571D01*
X121290476Y-90538095D01*
X121671428Y-90442857D01*
X122338095Y-90442857D01*
X122719047Y-90538095D01*
X122909523Y-90728571D01*
X123004761Y-90919047D01*
X123004761Y-91300000D01*
X122909523Y-91490476D01*
X122719047Y-91680952D01*
X122338095Y-91776190D01*
X121671428Y-91776190D01*
X121290476Y-91680952D01*
X121100000Y-91490476D01*
X121004761Y-91300000D01*
%TO.C,J3*%
X148266666Y-73752380D02*
X148266666Y-74466666D01*
X148219047Y-74609523D01*
X148123809Y-74704761D01*
X147980952Y-74752380D01*
X147885714Y-74752380D01*
X148647619Y-73752380D02*
X149266666Y-73752380D01*
X148933333Y-74133333D01*
X149076190Y-74133333D01*
X149171428Y-74180952D01*
X149219047Y-74228571D01*
X149266666Y-74323809D01*
X149266666Y-74561904D01*
X149219047Y-74657142D01*
X149171428Y-74704761D01*
X149076190Y-74752380D01*
X148790476Y-74752380D01*
X148695238Y-74704761D01*
X148647619Y-74657142D01*
%TO.C,H1*%
X154738095Y-72452380D02*
X154738095Y-71452380D01*
X154738095Y-71928571D02*
X155309523Y-71928571D01*
X155309523Y-72452380D02*
X155309523Y-71452380D01*
X156309523Y-72452380D02*
X155738095Y-72452380D01*
X156023809Y-72452380D02*
X156023809Y-71452380D01*
X155928571Y-71595238D01*
X155833333Y-71690476D01*
X155738095Y-71738095D01*
%TO.C,H2*%
X98738095Y-72452380D02*
X98738095Y-71452380D01*
X98738095Y-71928571D02*
X99309523Y-71928571D01*
X99309523Y-72452380D02*
X99309523Y-71452380D01*
X99738095Y-71547619D02*
X99785714Y-71500000D01*
X99880952Y-71452380D01*
X100119047Y-71452380D01*
X100214285Y-71500000D01*
X100261904Y-71547619D01*
X100309523Y-71642857D01*
X100309523Y-71738095D01*
X100261904Y-71880952D01*
X99690476Y-72452380D01*
X100309523Y-72452380D01*
%TO.C,H3*%
X98738095Y-135452380D02*
X98738095Y-134452380D01*
X98738095Y-134928571D02*
X99309523Y-134928571D01*
X99309523Y-135452380D02*
X99309523Y-134452380D01*
X99690476Y-134452380D02*
X100309523Y-134452380D01*
X99976190Y-134833333D01*
X100119047Y-134833333D01*
X100214285Y-134880952D01*
X100261904Y-134928571D01*
X100309523Y-135023809D01*
X100309523Y-135261904D01*
X100261904Y-135357142D01*
X100214285Y-135404761D01*
X100119047Y-135452380D01*
X99833333Y-135452380D01*
X99738095Y-135404761D01*
X99690476Y-135357142D01*
%TO.C,J1*%
X133416666Y-107652380D02*
X133416666Y-108366666D01*
X133369047Y-108509523D01*
X133273809Y-108604761D01*
X133130952Y-108652380D01*
X133035714Y-108652380D01*
X134416666Y-108652380D02*
X133845238Y-108652380D01*
X134130952Y-108652380D02*
X134130952Y-107652380D01*
X134035714Y-107795238D01*
X133940476Y-107890476D01*
X133845238Y-107938095D01*
%TO.C,H4*%
X154738095Y-135452380D02*
X154738095Y-134452380D01*
X154738095Y-134928571D02*
X155309523Y-134928571D01*
X155309523Y-135452380D02*
X155309523Y-134452380D01*
X156214285Y-134785714D02*
X156214285Y-135452380D01*
X155976190Y-134404761D02*
X155738095Y-135119047D01*
X156357142Y-135119047D01*
%TO.C,J2*%
X148066666Y-78952380D02*
X148066666Y-79666666D01*
X148019047Y-79809523D01*
X147923809Y-79904761D01*
X147780952Y-79952380D01*
X147685714Y-79952380D01*
X148495238Y-79047619D02*
X148542857Y-79000000D01*
X148638095Y-78952380D01*
X148876190Y-78952380D01*
X148971428Y-79000000D01*
X149019047Y-79047619D01*
X149066666Y-79142857D01*
X149066666Y-79238095D01*
X149019047Y-79380952D01*
X148447619Y-79952380D01*
X149066666Y-79952380D01*
X148904761Y-123385714D02*
X146904761Y-123385714D01*
X146904761Y-122623809D01*
X147000000Y-122433333D01*
X147095238Y-122338095D01*
X147285714Y-122242857D01*
X147571428Y-122242857D01*
X147761904Y-122338095D01*
X147857142Y-122433333D01*
X147952380Y-122623809D01*
X147952380Y-123385714D01*
X148904761Y-121385714D02*
X147571428Y-121385714D01*
X146904761Y-121385714D02*
X147000000Y-121480952D01*
X147095238Y-121385714D01*
X147000000Y-121290476D01*
X146904761Y-121385714D01*
X147095238Y-121385714D01*
X149095238Y-120909523D02*
X149095238Y-119385714D01*
X147000000Y-117861904D02*
X146904761Y-118052380D01*
X146904761Y-118338095D01*
X147000000Y-118623809D01*
X147190476Y-118814285D01*
X147380952Y-118909523D01*
X147761904Y-119004761D01*
X148047619Y-119004761D01*
X148428571Y-118909523D01*
X148619047Y-118814285D01*
X148809523Y-118623809D01*
X148904761Y-118338095D01*
X148904761Y-118147619D01*
X148809523Y-117861904D01*
X148714285Y-117766666D01*
X148047619Y-117766666D01*
X148047619Y-118147619D01*
X148904761Y-116909523D02*
X146904761Y-116909523D01*
X146904761Y-116147619D01*
X147000000Y-115957142D01*
X147095238Y-115861904D01*
X147285714Y-115766666D01*
X147571428Y-115766666D01*
X147761904Y-115861904D01*
X147857142Y-115957142D01*
X147952380Y-116147619D01*
X147952380Y-116909523D01*
X148904761Y-114909523D02*
X146904761Y-114909523D01*
X146904761Y-113576190D02*
X146904761Y-113195238D01*
X147000000Y-113004761D01*
X147190476Y-112814285D01*
X147571428Y-112719047D01*
X148238095Y-112719047D01*
X148619047Y-112814285D01*
X148809523Y-113004761D01*
X148904761Y-113195238D01*
X148904761Y-113576190D01*
X148809523Y-113766666D01*
X148619047Y-113957142D01*
X148238095Y-114052380D01*
X147571428Y-114052380D01*
X147190476Y-113957142D01*
X147000000Y-113766666D01*
X146904761Y-113576190D01*
%TO.C,C1*%
X130033333Y-82057142D02*
X129985714Y-82104761D01*
X129842857Y-82152380D01*
X129747619Y-82152380D01*
X129604761Y-82104761D01*
X129509523Y-82009523D01*
X129461904Y-81914285D01*
X129414285Y-81723809D01*
X129414285Y-81580952D01*
X129461904Y-81390476D01*
X129509523Y-81295238D01*
X129604761Y-81200000D01*
X129747619Y-81152380D01*
X129842857Y-81152380D01*
X129985714Y-81200000D01*
X130033333Y-81247619D01*
X130985714Y-82152380D02*
X130414285Y-82152380D01*
X130700000Y-82152380D02*
X130700000Y-81152380D01*
X130604761Y-81295238D01*
X130509523Y-81390476D01*
X130414285Y-81438095D01*
%TO.C,J4*%
X102866666Y-88122380D02*
X102866666Y-88836666D01*
X102819047Y-88979523D01*
X102723809Y-89074761D01*
X102580952Y-89122380D01*
X102485714Y-89122380D01*
X103771428Y-88455714D02*
X103771428Y-89122380D01*
X103533333Y-88074761D02*
X103295238Y-88789047D01*
X103914285Y-88789047D01*
%TO.C,J5*%
X117016519Y-82852139D02*
X117016519Y-83566740D01*
X116968879Y-83709660D01*
X116873599Y-83804940D01*
X116730679Y-83852580D01*
X116635399Y-83852580D01*
X117969320Y-82852139D02*
X117492920Y-82852139D01*
X117445280Y-83328539D01*
X117492920Y-83280899D01*
X117588200Y-83233259D01*
X117826400Y-83233259D01*
X117921680Y-83280899D01*
X117969320Y-83328539D01*
X118016960Y-83423820D01*
X118016960Y-83662020D01*
X117969320Y-83757300D01*
X117921680Y-83804940D01*
X117826400Y-83852580D01*
X117588200Y-83852580D01*
X117492920Y-83804940D01*
X117445280Y-83757300D01*
%TO.C,H5*%
X145838095Y-107952380D02*
X145838095Y-106952380D01*
X145838095Y-107428571D02*
X146409523Y-107428571D01*
X146409523Y-107952380D02*
X146409523Y-106952380D01*
X147361904Y-106952380D02*
X146885714Y-106952380D01*
X146838095Y-107428571D01*
X146885714Y-107380952D01*
X146980952Y-107333333D01*
X147219047Y-107333333D01*
X147314285Y-107380952D01*
X147361904Y-107428571D01*
X147409523Y-107523809D01*
X147409523Y-107761904D01*
X147361904Y-107857142D01*
X147314285Y-107904761D01*
X147219047Y-107952380D01*
X146980952Y-107952380D01*
X146885714Y-107904761D01*
X146838095Y-107857142D01*
%TO.C,H6*%
X145738095Y-132652380D02*
X145738095Y-131652380D01*
X145738095Y-132128571D02*
X146309523Y-132128571D01*
X146309523Y-132652380D02*
X146309523Y-131652380D01*
X147214285Y-131652380D02*
X147023809Y-131652380D01*
X146928571Y-131700000D01*
X146880952Y-131747619D01*
X146785714Y-131890476D01*
X146738095Y-132080952D01*
X146738095Y-132461904D01*
X146785714Y-132557142D01*
X146833333Y-132604761D01*
X146928571Y-132652380D01*
X147119047Y-132652380D01*
X147214285Y-132604761D01*
X147261904Y-132557142D01*
X147309523Y-132461904D01*
X147309523Y-132223809D01*
X147261904Y-132128571D01*
X147214285Y-132080952D01*
X147119047Y-132033333D01*
X146928571Y-132033333D01*
X146833333Y-132080952D01*
X146785714Y-132128571D01*
X146738095Y-132223809D01*
%TO.C,C2*%
X106757142Y-124466666D02*
X106804761Y-124514285D01*
X106852380Y-124657142D01*
X106852380Y-124752380D01*
X106804761Y-124895238D01*
X106709523Y-124990476D01*
X106614285Y-125038095D01*
X106423809Y-125085714D01*
X106280952Y-125085714D01*
X106090476Y-125038095D01*
X105995238Y-124990476D01*
X105900000Y-124895238D01*
X105852380Y-124752380D01*
X105852380Y-124657142D01*
X105900000Y-124514285D01*
X105947619Y-124466666D01*
X105947619Y-124085714D02*
X105900000Y-124038095D01*
X105852380Y-123942857D01*
X105852380Y-123704761D01*
X105900000Y-123609523D01*
X105947619Y-123561904D01*
X106042857Y-123514285D01*
X106138095Y-123514285D01*
X106280952Y-123561904D01*
X106852380Y-124133333D01*
X106852380Y-123514285D01*
%TO.C,J6*%
X102866666Y-104422380D02*
X102866666Y-105136666D01*
X102819047Y-105279523D01*
X102723809Y-105374761D01*
X102580952Y-105422380D01*
X102485714Y-105422380D01*
X103771428Y-104422380D02*
X103580952Y-104422380D01*
X103485714Y-104470000D01*
X103438095Y-104517619D01*
X103342857Y-104660476D01*
X103295238Y-104850952D01*
X103295238Y-105231904D01*
X103342857Y-105327142D01*
X103390476Y-105374761D01*
X103485714Y-105422380D01*
X103676190Y-105422380D01*
X103771428Y-105374761D01*
X103819047Y-105327142D01*
X103866666Y-105231904D01*
X103866666Y-104993809D01*
X103819047Y-104898571D01*
X103771428Y-104850952D01*
X103676190Y-104803333D01*
X103485714Y-104803333D01*
X103390476Y-104850952D01*
X103342857Y-104898571D01*
X103295238Y-104993809D01*
D13*
%TO.C,TB1*%
X126390000Y-132590000D02*
X108610000Y-132590000D01*
X108610000Y-132590000D02*
X108610000Y-89410000D01*
X108610000Y-89410000D02*
X126390000Y-89410000D01*
X126390000Y-89410000D02*
X126390000Y-132590000D01*
D14*
X107400000Y-93200000D02*
G75*
G03*
X107400000Y-93200000I-100000J0D01*
G01*
D15*
%TO.C,J3*%
X147330000Y-78370000D02*
X139590000Y-78370000D01*
X146000000Y-73170000D02*
X147330000Y-73170000D01*
X144730000Y-75770000D02*
X147330000Y-75770000D01*
X144730000Y-73170000D02*
X144730000Y-75770000D01*
X147330000Y-73170000D02*
X147330000Y-74500000D01*
X147330000Y-75770000D02*
X147330000Y-78370000D01*
X139590000Y-73170000D02*
X139590000Y-78370000D01*
X144730000Y-73170000D02*
X139590000Y-73170000D01*
%TO.C,J1*%
X129920000Y-106970000D02*
X131250000Y-106970000D01*
X129920000Y-108300000D02*
X129920000Y-106970000D01*
X129920000Y-132490000D02*
X132580000Y-132490000D01*
X129920000Y-109570000D02*
X132580000Y-109570000D01*
X132580000Y-109570000D02*
X132580000Y-132490000D01*
X129920000Y-109570000D02*
X129920000Y-132490000D01*
%TO.C,J2*%
X149670000Y-78070000D02*
X151000000Y-78070000D01*
X152270000Y-80670000D02*
X152270000Y-78070000D01*
X154870000Y-78070000D02*
X154870000Y-128990000D01*
X152270000Y-78070000D02*
X154870000Y-78070000D01*
X149670000Y-80670000D02*
X149670000Y-128990000D01*
X149670000Y-80670000D02*
X152270000Y-80670000D01*
X149670000Y-79400000D02*
X149670000Y-78070000D01*
X149670000Y-128990000D02*
X154870000Y-128990000D01*
%TO.C,C1*%
X128080000Y-78030000D02*
X135320000Y-78030000D01*
X128080000Y-78030000D02*
X128080000Y-80770000D01*
X135320000Y-78030000D02*
X135320000Y-80770000D01*
X128080000Y-80770000D02*
X135320000Y-80770000D01*
%TO.C,J4*%
X101870000Y-89670000D02*
X103200000Y-89670000D01*
X101870000Y-92270000D02*
X104530000Y-92270000D01*
X101870000Y-92270000D02*
X101870000Y-99950000D01*
X101870000Y-91000000D02*
X101870000Y-89670000D01*
X101870000Y-99950000D02*
X104530000Y-99950000D01*
X104530000Y-92270000D02*
X104530000Y-99950000D01*
D13*
%TO.C,J5*%
X121410000Y-87625750D02*
X121410000Y-88895750D01*
X109850000Y-67115750D02*
X109850000Y-85315750D01*
X116178000Y-85315750D02*
X119022000Y-85315750D01*
X125350000Y-85315750D02*
X125350000Y-67115750D01*
X109850000Y-85315750D02*
X111822000Y-85315750D01*
X125350000Y-85315750D02*
X123378000Y-85315750D01*
X121410000Y-87625750D02*
X121410000Y-86355750D01*
X125350000Y-67115750D02*
X109850000Y-67115750D01*
X120140000Y-87625750D02*
X121410000Y-87625750D01*
X122680000Y-87625750D02*
X121410000Y-87625750D01*
D15*
%TO.C,C2*%
X104040000Y-122729000D02*
X104819000Y-122729000D01*
X104040000Y-123530000D02*
X105216000Y-123530000D01*
X101805000Y-126119801D02*
X102205000Y-126119801D01*
X104040000Y-122689000D02*
X104787000Y-122689000D01*
X104040000Y-122609000D02*
X104716000Y-122609000D01*
X101150000Y-123690000D02*
X102360000Y-123690000D01*
X102830000Y-121969000D02*
X103570000Y-121969000D01*
X104040000Y-122929000D02*
X104960000Y-122929000D01*
X101684000Y-122609000D02*
X102360000Y-122609000D01*
X104040000Y-122569000D02*
X104678000Y-122569000D01*
X102000000Y-122329000D02*
X104400000Y-122329000D01*
X104040000Y-123169000D02*
X105089000Y-123169000D01*
X102120000Y-122249000D02*
X104280000Y-122249000D01*
X101896000Y-122409000D02*
X104504000Y-122409000D01*
X104040000Y-123209000D02*
X105107000Y-123209000D01*
X101232000Y-123370000D02*
X102360000Y-123370000D01*
X104040000Y-123890000D02*
X105274000Y-123890000D01*
X101492000Y-122849000D02*
X102360000Y-122849000D01*
X102058000Y-122289000D02*
X104342000Y-122289000D01*
X101849000Y-122449000D02*
X104551000Y-122449000D01*
X101260000Y-123289000D02*
X102360000Y-123289000D01*
X101121000Y-123970000D02*
X102360000Y-123970000D01*
X104040000Y-123049000D02*
X105030000Y-123049000D01*
X102187000Y-122209000D02*
X104213000Y-122209000D01*
X104040000Y-123249000D02*
X105124000Y-123249000D01*
X104040000Y-122529000D02*
X104638000Y-122529000D01*
X102432000Y-122089000D02*
X103968000Y-122089000D01*
X101330000Y-123129000D02*
X102360000Y-123129000D01*
X104040000Y-123770000D02*
X105262000Y-123770000D01*
X101349000Y-123089000D02*
X102360000Y-123089000D01*
X104040000Y-123610000D02*
X105234000Y-123610000D01*
X104040000Y-123690000D02*
X105250000Y-123690000D01*
X104040000Y-123450000D02*
X105194000Y-123450000D01*
X101195000Y-123490000D02*
X102360000Y-123490000D01*
X104040000Y-122769000D02*
X104850000Y-122769000D01*
X104040000Y-122649000D02*
X104752000Y-122649000D01*
X101138000Y-123770000D02*
X102360000Y-123770000D01*
X101133000Y-123810000D02*
X102360000Y-123810000D01*
X101804000Y-122489000D02*
X102360000Y-122489000D01*
X101581000Y-122729000D02*
X102360000Y-122729000D01*
X101722000Y-122569000D02*
X102360000Y-122569000D01*
X101158000Y-123650000D02*
X102360000Y-123650000D01*
X101166000Y-123610000D02*
X102360000Y-123610000D01*
X104040000Y-123570000D02*
X105225000Y-123570000D01*
X104040000Y-124050000D02*
X105280000Y-124050000D01*
X101311000Y-123169000D02*
X102360000Y-123169000D01*
X104040000Y-123370000D02*
X105168000Y-123370000D01*
X101126000Y-123890000D02*
X102360000Y-123890000D01*
X101946000Y-122369000D02*
X104454000Y-122369000D01*
X104040000Y-123289000D02*
X105140000Y-123289000D01*
X102005000Y-126319801D02*
X102005000Y-125919801D01*
X101415000Y-122969000D02*
X102360000Y-122969000D01*
X101648000Y-122649000D02*
X102360000Y-122649000D01*
X101276000Y-123249000D02*
X102360000Y-123249000D01*
X104040000Y-123930000D02*
X105277000Y-123930000D01*
X101762000Y-122529000D02*
X102360000Y-122529000D01*
X104040000Y-123009000D02*
X105008000Y-123009000D01*
X101370000Y-123049000D02*
X102360000Y-123049000D01*
X104040000Y-123089000D02*
X105051000Y-123089000D01*
X101392000Y-123009000D02*
X102360000Y-123009000D01*
X104040000Y-123970000D02*
X105279000Y-123970000D01*
X101184000Y-123530000D02*
X102360000Y-123530000D01*
X102536000Y-122049000D02*
X103864000Y-122049000D01*
X104040000Y-123490000D02*
X105205000Y-123490000D01*
X101120000Y-124050000D02*
X102360000Y-124050000D01*
X104040000Y-122489000D02*
X104596000Y-122489000D01*
X101550000Y-122769000D02*
X102360000Y-122769000D01*
X101175000Y-123570000D02*
X102360000Y-123570000D01*
X104040000Y-122809000D02*
X104880000Y-122809000D01*
X104040000Y-122889000D02*
X104935000Y-122889000D01*
X104040000Y-123650000D02*
X105242000Y-123650000D01*
X101129000Y-123850000D02*
X102360000Y-123850000D01*
X104040000Y-124010000D02*
X105280000Y-124010000D01*
X101246000Y-123329000D02*
X102360000Y-123329000D01*
X101293000Y-123209000D02*
X102360000Y-123209000D01*
X101465000Y-122889000D02*
X102360000Y-122889000D01*
X104040000Y-123850000D02*
X105271000Y-123850000D01*
X104040000Y-122969000D02*
X104985000Y-122969000D01*
X101520000Y-122809000D02*
X102360000Y-122809000D01*
X101144000Y-123730000D02*
X102360000Y-123730000D01*
X104040000Y-123410000D02*
X105182000Y-123410000D01*
X101218000Y-123410000D02*
X102360000Y-123410000D01*
X102341000Y-122129000D02*
X104059000Y-122129000D01*
X104040000Y-122849000D02*
X104908000Y-122849000D01*
X102260000Y-122169000D02*
X104140000Y-122169000D01*
X101613000Y-122689000D02*
X102360000Y-122689000D01*
X101123000Y-123930000D02*
X102360000Y-123930000D01*
X101120000Y-124010000D02*
X102360000Y-124010000D01*
X104040000Y-123810000D02*
X105267000Y-123810000D01*
X102663000Y-122009000D02*
X103737000Y-122009000D01*
X101440000Y-122929000D02*
X102360000Y-122929000D01*
X104040000Y-123730000D02*
X105256000Y-123730000D01*
X104040000Y-123129000D02*
X105070000Y-123129000D01*
X104040000Y-123329000D02*
X105154000Y-123329000D01*
X101206000Y-123450000D02*
X102360000Y-123450000D01*
X105320000Y-124050000D02*
G75*
G03*
X105320000Y-124050000I-2120000J0D01*
G01*
%TO.C,J6*%
X101870000Y-116250000D02*
X104530000Y-116250000D01*
X101870000Y-108570000D02*
X101870000Y-116250000D01*
X101870000Y-108570000D02*
X104530000Y-108570000D01*
X104530000Y-108570000D02*
X104530000Y-116250000D01*
X101870000Y-107300000D02*
X101870000Y-105970000D01*
X101870000Y-105970000D02*
X103200000Y-105970000D01*
%TO.C,G\u002A\u002A\u002A*%
G36*
X140441406Y-92460338D02*
G01*
X140853719Y-92625915D01*
X141184298Y-92859611D01*
X141325250Y-93030015D01*
X141442543Y-93220136D01*
X141530768Y-93384993D01*
X141588605Y-93547153D01*
X141614732Y-93729186D01*
X141607828Y-93953661D01*
X141566573Y-94243148D01*
X141489645Y-94620213D01*
X141375723Y-95107429D01*
X141223488Y-95727361D01*
X141150034Y-96023747D01*
X140610221Y-98201919D01*
X141277163Y-98424452D01*
X141648650Y-98559566D01*
X141878845Y-98680691D01*
X141991438Y-98811979D01*
X142010119Y-98977579D01*
X141977007Y-99137895D01*
X141883728Y-99348993D01*
X141799282Y-99462801D01*
X141716986Y-99513864D01*
X141588009Y-99525287D01*
X141378299Y-99493733D01*
X141053804Y-99415867D01*
X140896892Y-99374400D01*
X140514148Y-99266268D01*
X140256926Y-99175495D01*
X140085231Y-99083681D01*
X139959070Y-98972429D01*
X139916515Y-98923371D01*
X139808133Y-98778527D01*
X139732110Y-98630171D01*
X139690340Y-98457294D01*
X139684719Y-98238888D01*
X139717142Y-97953943D01*
X139789501Y-97581453D01*
X139903694Y-97100408D01*
X140061613Y-96489800D01*
X140174030Y-96067845D01*
X140712607Y-94057849D01*
X140565658Y-93803325D01*
X140345290Y-93564584D01*
X140125037Y-93470111D01*
X139795141Y-93453246D01*
X139576842Y-93538373D01*
X139322318Y-93685322D01*
X138005525Y-98599660D01*
X137640385Y-98501821D01*
X137387991Y-98412006D01*
X137262355Y-98300008D01*
X137232971Y-98223111D01*
X137242733Y-98090477D01*
X137293510Y-97820729D01*
X137378537Y-97439204D01*
X137491050Y-96971241D01*
X137624282Y-96442176D01*
X137771467Y-95877348D01*
X137925841Y-95302095D01*
X138080637Y-94741754D01*
X138229091Y-94221662D01*
X138364435Y-93767157D01*
X138479905Y-93403580D01*
X138568736Y-93156265D01*
X138608960Y-93069900D01*
X138848856Y-92794955D01*
X139186096Y-92559723D01*
X139548952Y-92413321D01*
X139577229Y-92406855D01*
X139998772Y-92381209D01*
X140441406Y-92460338D01*
G37*
D16*
X140441406Y-92460338D02*
X140853719Y-92625915D01*
X141184298Y-92859611D01*
X141325250Y-93030015D01*
X141442543Y-93220136D01*
X141530768Y-93384993D01*
X141588605Y-93547153D01*
X141614732Y-93729186D01*
X141607828Y-93953661D01*
X141566573Y-94243148D01*
X141489645Y-94620213D01*
X141375723Y-95107429D01*
X141223488Y-95727361D01*
X141150034Y-96023747D01*
X140610221Y-98201919D01*
X141277163Y-98424452D01*
X141648650Y-98559566D01*
X141878845Y-98680691D01*
X141991438Y-98811979D01*
X142010119Y-98977579D01*
X141977007Y-99137895D01*
X141883728Y-99348993D01*
X141799282Y-99462801D01*
X141716986Y-99513864D01*
X141588009Y-99525287D01*
X141378299Y-99493733D01*
X141053804Y-99415867D01*
X140896892Y-99374400D01*
X140514148Y-99266268D01*
X140256926Y-99175495D01*
X140085231Y-99083681D01*
X139959070Y-98972429D01*
X139916515Y-98923371D01*
X139808133Y-98778527D01*
X139732110Y-98630171D01*
X139690340Y-98457294D01*
X139684719Y-98238888D01*
X139717142Y-97953943D01*
X139789501Y-97581453D01*
X139903694Y-97100408D01*
X140061613Y-96489800D01*
X140174030Y-96067845D01*
X140712607Y-94057849D01*
X140565658Y-93803325D01*
X140345290Y-93564584D01*
X140125037Y-93470111D01*
X139795141Y-93453246D01*
X139576842Y-93538373D01*
X139322318Y-93685322D01*
X138005525Y-98599660D01*
X137640385Y-98501821D01*
X137387991Y-98412006D01*
X137262355Y-98300008D01*
X137232971Y-98223111D01*
X137242733Y-98090477D01*
X137293510Y-97820729D01*
X137378537Y-97439204D01*
X137491050Y-96971241D01*
X137624282Y-96442176D01*
X137771467Y-95877348D01*
X137925841Y-95302095D01*
X138080637Y-94741754D01*
X138229091Y-94221662D01*
X138364435Y-93767157D01*
X138479905Y-93403580D01*
X138568736Y-93156265D01*
X138608960Y-93069900D01*
X138848856Y-92794955D01*
X139186096Y-92559723D01*
X139548952Y-92413321D01*
X139577229Y-92406855D01*
X139998772Y-92381209D01*
X140441406Y-92460338D01*
G36*
X146775495Y-79562141D02*
G01*
X146904079Y-79602516D01*
X146996258Y-79658471D01*
X147050750Y-79749896D01*
X147066276Y-79896683D01*
X147041555Y-80118726D01*
X146975308Y-80435916D01*
X146866254Y-80868147D01*
X146713111Y-81435308D01*
X146637131Y-81712018D01*
X146485732Y-82256874D01*
X146343818Y-82757311D01*
X146219219Y-83186535D01*
X146119757Y-83517750D01*
X146053261Y-83724160D01*
X146036400Y-83768683D01*
X145961950Y-83923311D01*
X145922428Y-83979191D01*
X145871142Y-83910660D01*
X145756441Y-83736806D01*
X145614728Y-83513636D01*
X145326670Y-83053344D01*
X145762894Y-81425333D01*
X145933181Y-80802032D01*
X146073801Y-80325915D01*
X146194291Y-79979429D01*
X146304192Y-79745026D01*
X146413040Y-79605156D01*
X146530373Y-79542269D01*
X146665730Y-79538814D01*
X146775495Y-79562141D01*
G37*
X146775495Y-79562141D02*
X146904079Y-79602516D01*
X146996258Y-79658471D01*
X147050750Y-79749896D01*
X147066276Y-79896683D01*
X147041555Y-80118726D01*
X146975308Y-80435916D01*
X146866254Y-80868147D01*
X146713111Y-81435308D01*
X146637131Y-81712018D01*
X146485732Y-82256874D01*
X146343818Y-82757311D01*
X146219219Y-83186535D01*
X146119757Y-83517750D01*
X146053261Y-83724160D01*
X146036400Y-83768683D01*
X145961950Y-83923311D01*
X145922428Y-83979191D01*
X145871142Y-83910660D01*
X145756441Y-83736806D01*
X145614728Y-83513636D01*
X145326670Y-83053344D01*
X145762894Y-81425333D01*
X145933181Y-80802032D01*
X146073801Y-80325915D01*
X146194291Y-79979429D01*
X146304192Y-79745026D01*
X146413040Y-79605156D01*
X146530373Y-79542269D01*
X146665730Y-79538814D01*
X146775495Y-79562141D01*
G36*
X137429573Y-99460962D02*
G01*
X137557089Y-99618995D01*
X137593065Y-99693931D01*
X137611764Y-99783371D01*
X137609160Y-99909124D01*
X137581228Y-100093000D01*
X137523940Y-100356804D01*
X137433273Y-100722346D01*
X137305199Y-101211433D01*
X137168780Y-101722436D01*
X137005317Y-102336708D01*
X136882662Y-102811696D01*
X136796256Y-103171261D01*
X136741544Y-103439259D01*
X136713970Y-103639552D01*
X136708975Y-103795999D01*
X136722004Y-103932460D01*
X136733768Y-104000206D01*
X136814534Y-104236335D01*
X136952545Y-104481175D01*
X137116796Y-104694975D01*
X137276280Y-104837984D01*
X137399992Y-104870451D01*
X137409158Y-104866113D01*
X137448249Y-104777075D01*
X137523795Y-104546220D01*
X137629329Y-104195538D01*
X137758390Y-103747013D01*
X137904510Y-103222634D01*
X138048987Y-102690110D01*
X138231559Y-102012145D01*
X138378777Y-101481106D01*
X138498428Y-101080172D01*
X138598299Y-100792526D01*
X138686181Y-100601347D01*
X138769860Y-100489815D01*
X138857127Y-100441113D01*
X138955768Y-100438419D01*
X139073573Y-100464917D01*
X139078732Y-100466328D01*
X139208609Y-100504052D01*
X139306605Y-100549762D01*
X139371560Y-100621986D01*
X139402315Y-100739251D01*
X139397708Y-100920082D01*
X139356581Y-101183007D01*
X139277773Y-101546552D01*
X139160125Y-102029244D01*
X139002476Y-102649609D01*
X138922492Y-102961774D01*
X138774954Y-103546245D01*
X138645973Y-104074162D01*
X138540400Y-104524260D01*
X138463083Y-104875267D01*
X138418872Y-105105917D01*
X138412617Y-105194939D01*
X138413251Y-105195260D01*
X138522973Y-105179380D01*
X138728405Y-105120692D01*
X138819271Y-105090272D01*
X139016919Y-105013407D01*
X139180142Y-104921588D01*
X139318901Y-104795084D01*
X139443154Y-104614163D01*
X139562860Y-104359096D01*
X139687976Y-104010153D01*
X139828462Y-103547601D01*
X139994278Y-102951711D01*
X140103837Y-102545223D01*
X140268798Y-101932456D01*
X140398134Y-101462796D01*
X140499161Y-101115553D01*
X140579191Y-100870034D01*
X140645539Y-100705548D01*
X140705518Y-100601403D01*
X140766443Y-100536907D01*
X140828357Y-100495529D01*
X141084978Y-100410077D01*
X141317233Y-100482980D01*
X141427348Y-100571460D01*
X141466608Y-100617733D01*
X141489029Y-100682694D01*
X141490750Y-100786050D01*
X141467910Y-100947509D01*
X141416651Y-101186775D01*
X141333111Y-101523558D01*
X141213431Y-101977564D01*
X141053751Y-102568498D01*
X140990982Y-102799263D01*
X140830022Y-103381714D01*
X140676639Y-103920318D01*
X140538278Y-104390191D01*
X140422389Y-104766447D01*
X140336417Y-105024202D01*
X140293644Y-105129363D01*
X139962946Y-105566159D01*
X139517698Y-105909710D01*
X138997847Y-106136092D01*
X138471394Y-106220828D01*
X137826513Y-106169624D01*
X137231507Y-105991445D01*
X136707332Y-105702898D01*
X136274946Y-105320590D01*
X135955304Y-104861125D01*
X135769364Y-104341108D01*
X135732382Y-104050504D01*
X135745937Y-103806793D01*
X135799648Y-103448185D01*
X135886436Y-103001411D01*
X135999218Y-102493201D01*
X136130910Y-101950282D01*
X136274430Y-101399384D01*
X136422698Y-100867237D01*
X136568632Y-100380568D01*
X136705148Y-99966107D01*
X136825165Y-99650584D01*
X136921601Y-99460726D01*
X136958958Y-99421162D01*
X137205099Y-99361514D01*
X137429573Y-99460962D01*
G37*
X137429573Y-99460962D02*
X137557089Y-99618995D01*
X137593065Y-99693931D01*
X137611764Y-99783371D01*
X137609160Y-99909124D01*
X137581228Y-100093000D01*
X137523940Y-100356804D01*
X137433273Y-100722346D01*
X137305199Y-101211433D01*
X137168780Y-101722436D01*
X137005317Y-102336708D01*
X136882662Y-102811696D01*
X136796256Y-103171261D01*
X136741544Y-103439259D01*
X136713970Y-103639552D01*
X136708975Y-103795999D01*
X136722004Y-103932460D01*
X136733768Y-104000206D01*
X136814534Y-104236335D01*
X136952545Y-104481175D01*
X137116796Y-104694975D01*
X137276280Y-104837984D01*
X137399992Y-104870451D01*
X137409158Y-104866113D01*
X137448249Y-104777075D01*
X137523795Y-104546220D01*
X137629329Y-104195538D01*
X137758390Y-103747013D01*
X137904510Y-103222634D01*
X138048987Y-102690110D01*
X138231559Y-102012145D01*
X138378777Y-101481106D01*
X138498428Y-101080172D01*
X138598299Y-100792526D01*
X138686181Y-100601347D01*
X138769860Y-100489815D01*
X138857127Y-100441113D01*
X138955768Y-100438419D01*
X139073573Y-100464917D01*
X139078732Y-100466328D01*
X139208609Y-100504052D01*
X139306605Y-100549762D01*
X139371560Y-100621986D01*
X139402315Y-100739251D01*
X139397708Y-100920082D01*
X139356581Y-101183007D01*
X139277773Y-101546552D01*
X139160125Y-102029244D01*
X139002476Y-102649609D01*
X138922492Y-102961774D01*
X138774954Y-103546245D01*
X138645973Y-104074162D01*
X138540400Y-104524260D01*
X138463083Y-104875267D01*
X138418872Y-105105917D01*
X138412617Y-105194939D01*
X138413251Y-105195260D01*
X138522973Y-105179380D01*
X138728405Y-105120692D01*
X138819271Y-105090272D01*
X139016919Y-105013407D01*
X139180142Y-104921588D01*
X139318901Y-104795084D01*
X139443154Y-104614163D01*
X139562860Y-104359096D01*
X139687976Y-104010153D01*
X139828462Y-103547601D01*
X139994278Y-102951711D01*
X140103837Y-102545223D01*
X140268798Y-101932456D01*
X140398134Y-101462796D01*
X140499161Y-101115553D01*
X140579191Y-100870034D01*
X140645539Y-100705548D01*
X140705518Y-100601403D01*
X140766443Y-100536907D01*
X140828357Y-100495529D01*
X141084978Y-100410077D01*
X141317233Y-100482980D01*
X141427348Y-100571460D01*
X141466608Y-100617733D01*
X141489029Y-100682694D01*
X141490750Y-100786050D01*
X141467910Y-100947509D01*
X141416651Y-101186775D01*
X141333111Y-101523558D01*
X141213431Y-101977564D01*
X141053751Y-102568498D01*
X140990982Y-102799263D01*
X140830022Y-103381714D01*
X140676639Y-103920318D01*
X140538278Y-104390191D01*
X140422389Y-104766447D01*
X140336417Y-105024202D01*
X140293644Y-105129363D01*
X139962946Y-105566159D01*
X139517698Y-105909710D01*
X138997847Y-106136092D01*
X138471394Y-106220828D01*
X137826513Y-106169624D01*
X137231507Y-105991445D01*
X136707332Y-105702898D01*
X136274946Y-105320590D01*
X135955304Y-104861125D01*
X135769364Y-104341108D01*
X135732382Y-104050504D01*
X135745937Y-103806793D01*
X135799648Y-103448185D01*
X135886436Y-103001411D01*
X135999218Y-102493201D01*
X136130910Y-101950282D01*
X136274430Y-101399384D01*
X136422698Y-100867237D01*
X136568632Y-100380568D01*
X136705148Y-99966107D01*
X136825165Y-99650584D01*
X136921601Y-99460726D01*
X136958958Y-99421162D01*
X137205099Y-99361514D01*
X137429573Y-99460962D01*
G36*
X144949568Y-86047383D02*
G01*
X144933125Y-86131881D01*
X144889770Y-86213794D01*
X144870476Y-86168052D01*
X144894975Y-86037624D01*
X144918933Y-86013033D01*
X144949568Y-86047383D01*
G37*
X144949568Y-86047383D02*
X144933125Y-86131881D01*
X144889770Y-86213794D01*
X144870476Y-86168052D01*
X144894975Y-86037624D01*
X144918933Y-86013033D01*
X144949568Y-86047383D01*
G36*
X144905915Y-85512085D02*
G01*
X144920281Y-85551388D01*
X144941310Y-85744140D01*
X144929322Y-85816770D01*
X144892868Y-85859420D01*
X144865498Y-85755842D01*
X144850628Y-85566022D01*
X144866855Y-85474487D01*
X144905915Y-85512085D01*
G37*
X144905915Y-85512085D02*
X144920281Y-85551388D01*
X144941310Y-85744140D01*
X144929322Y-85816770D01*
X144892868Y-85859420D01*
X144865498Y-85755842D01*
X144850628Y-85566022D01*
X144866855Y-85474487D01*
X144905915Y-85512085D01*
G36*
X144648682Y-81188235D02*
G01*
X144649598Y-81189518D01*
X144722281Y-81349479D01*
X144801308Y-81608332D01*
X144846406Y-81800819D01*
X144912490Y-82089407D01*
X144978645Y-82326348D01*
X145013283Y-82420786D01*
X145065973Y-82602410D01*
X145105294Y-82856683D01*
X145109733Y-82906078D01*
X145180289Y-83190829D01*
X145326378Y-83493719D01*
X145383695Y-83579604D01*
X145539685Y-83817037D01*
X145626167Y-84036228D01*
X145665362Y-84309332D01*
X145675353Y-84526562D01*
X145672399Y-84644572D01*
X145639922Y-84653807D01*
X145557158Y-84540389D01*
X145459022Y-84381956D01*
X145312189Y-84165443D01*
X145210411Y-84083782D01*
X145139446Y-84107665D01*
X144992290Y-84157823D01*
X144803987Y-84147156D01*
X144577048Y-84131800D01*
X144433162Y-84227301D01*
X144330080Y-84462447D01*
X144327135Y-84472094D01*
X144253472Y-84715316D01*
X144205658Y-84396236D01*
X144224655Y-83971937D01*
X144298816Y-83741872D01*
X144371598Y-83504259D01*
X144404533Y-83208157D01*
X144401306Y-82808423D01*
X144390977Y-82613625D01*
X144379039Y-82181834D01*
X144395085Y-81794535D01*
X144434594Y-81476627D01*
X144493044Y-81253009D01*
X144565914Y-81148579D01*
X144648682Y-81188235D01*
G37*
X144648682Y-81188235D02*
X144649598Y-81189518D01*
X144722281Y-81349479D01*
X144801308Y-81608332D01*
X144846406Y-81800819D01*
X144912490Y-82089407D01*
X144978645Y-82326348D01*
X145013283Y-82420786D01*
X145065973Y-82602410D01*
X145105294Y-82856683D01*
X145109733Y-82906078D01*
X145180289Y-83190829D01*
X145326378Y-83493719D01*
X145383695Y-83579604D01*
X145539685Y-83817037D01*
X145626167Y-84036228D01*
X145665362Y-84309332D01*
X145675353Y-84526562D01*
X145672399Y-84644572D01*
X145639922Y-84653807D01*
X145557158Y-84540389D01*
X145459022Y-84381956D01*
X145312189Y-84165443D01*
X145210411Y-84083782D01*
X145139446Y-84107665D01*
X144992290Y-84157823D01*
X144803987Y-84147156D01*
X144577048Y-84131800D01*
X144433162Y-84227301D01*
X144330080Y-84462447D01*
X144327135Y-84472094D01*
X144253472Y-84715316D01*
X144205658Y-84396236D01*
X144224655Y-83971937D01*
X144298816Y-83741872D01*
X144371598Y-83504259D01*
X144404533Y-83208157D01*
X144401306Y-82808423D01*
X144390977Y-82613625D01*
X144379039Y-82181834D01*
X144395085Y-81794535D01*
X144434594Y-81476627D01*
X144493044Y-81253009D01*
X144565914Y-81148579D01*
X144648682Y-81188235D01*
G36*
X142206575Y-85278495D02*
G01*
X142748898Y-85450172D01*
X143150560Y-85715134D01*
X143412986Y-86074548D01*
X143505857Y-86343040D01*
X143531228Y-86470087D01*
X143542853Y-86600743D01*
X143536875Y-86757208D01*
X143509439Y-86961689D01*
X143456690Y-87236385D01*
X143374773Y-87603503D01*
X143259832Y-88085244D01*
X143108011Y-88703810D01*
X143067452Y-88867846D01*
X142538596Y-91005128D01*
X143143350Y-91193322D01*
X143547785Y-91342244D01*
X143800530Y-91497741D01*
X143918918Y-91676672D01*
X143920276Y-91895901D01*
X143909912Y-91939150D01*
X143804213Y-92157356D01*
X143692985Y-92283793D01*
X143594466Y-92340117D01*
X143462013Y-92355653D01*
X143257595Y-92327436D01*
X142943180Y-92252504D01*
X142797648Y-92214034D01*
X142423257Y-92107089D01*
X142173954Y-92015048D01*
X142008919Y-91918935D01*
X141887329Y-91799773D01*
X141875660Y-91785451D01*
X141757488Y-91626243D01*
X141673058Y-91469682D01*
X141624018Y-91294216D01*
X141612014Y-91078294D01*
X141638696Y-90800365D01*
X141705708Y-90438880D01*
X141814699Y-89972287D01*
X141967316Y-89379035D01*
X142096762Y-88892624D01*
X142264724Y-88262881D01*
X142391990Y-87775534D01*
X142482541Y-87409646D01*
X142540361Y-87144283D01*
X142569432Y-86958507D01*
X142573737Y-86831382D01*
X142557259Y-86741973D01*
X142523981Y-86669343D01*
X142520775Y-86663739D01*
X142357580Y-86465317D01*
X142208436Y-86350986D01*
X141982705Y-86286837D01*
X141707939Y-86284620D01*
X141467701Y-86340336D01*
X141384668Y-86390418D01*
X141341187Y-86488041D01*
X141258438Y-86728138D01*
X141142803Y-87090119D01*
X141000666Y-87553399D01*
X140838409Y-88097385D01*
X140662418Y-88701490D01*
X140591300Y-88949417D01*
X139882053Y-91432803D01*
X139563868Y-91336184D01*
X139419327Y-91289411D01*
X139308285Y-91235179D01*
X139231890Y-91156035D01*
X139191294Y-91034529D01*
X139187649Y-90853210D01*
X139222107Y-90594626D01*
X139295817Y-90241327D01*
X139409931Y-89775862D01*
X139565602Y-89180779D01*
X139752089Y-88483001D01*
X139939444Y-87786479D01*
X140090603Y-87233688D01*
X140212244Y-86804544D01*
X140311053Y-86478966D01*
X140393709Y-86236868D01*
X140466897Y-86058167D01*
X140537296Y-85922781D01*
X140611592Y-85810625D01*
X140664087Y-85741995D01*
X140987466Y-85430947D01*
X141364907Y-85261060D01*
X141819664Y-85225346D01*
X142206575Y-85278495D01*
G37*
X142206575Y-85278495D02*
X142748898Y-85450172D01*
X143150560Y-85715134D01*
X143412986Y-86074548D01*
X143505857Y-86343040D01*
X143531228Y-86470087D01*
X143542853Y-86600743D01*
X143536875Y-86757208D01*
X143509439Y-86961689D01*
X143456690Y-87236385D01*
X143374773Y-87603503D01*
X143259832Y-88085244D01*
X143108011Y-88703810D01*
X143067452Y-88867846D01*
X142538596Y-91005128D01*
X143143350Y-91193322D01*
X143547785Y-91342244D01*
X143800530Y-91497741D01*
X143918918Y-91676672D01*
X143920276Y-91895901D01*
X143909912Y-91939150D01*
X143804213Y-92157356D01*
X143692985Y-92283793D01*
X143594466Y-92340117D01*
X143462013Y-92355653D01*
X143257595Y-92327436D01*
X142943180Y-92252504D01*
X142797648Y-92214034D01*
X142423257Y-92107089D01*
X142173954Y-92015048D01*
X142008919Y-91918935D01*
X141887329Y-91799773D01*
X141875660Y-91785451D01*
X141757488Y-91626243D01*
X141673058Y-91469682D01*
X141624018Y-91294216D01*
X141612014Y-91078294D01*
X141638696Y-90800365D01*
X141705708Y-90438880D01*
X141814699Y-89972287D01*
X141967316Y-89379035D01*
X142096762Y-88892624D01*
X142264724Y-88262881D01*
X142391990Y-87775534D01*
X142482541Y-87409646D01*
X142540361Y-87144283D01*
X142569432Y-86958507D01*
X142573737Y-86831382D01*
X142557259Y-86741973D01*
X142523981Y-86669343D01*
X142520775Y-86663739D01*
X142357580Y-86465317D01*
X142208436Y-86350986D01*
X141982705Y-86286837D01*
X141707939Y-86284620D01*
X141467701Y-86340336D01*
X141384668Y-86390418D01*
X141341187Y-86488041D01*
X141258438Y-86728138D01*
X141142803Y-87090119D01*
X141000666Y-87553399D01*
X140838409Y-88097385D01*
X140662418Y-88701490D01*
X140591300Y-88949417D01*
X139882053Y-91432803D01*
X139563868Y-91336184D01*
X139419327Y-91289411D01*
X139308285Y-91235179D01*
X139231890Y-91156035D01*
X139191294Y-91034529D01*
X139187649Y-90853210D01*
X139222107Y-90594626D01*
X139295817Y-90241327D01*
X139409931Y-89775862D01*
X139565602Y-89180779D01*
X139752089Y-88483001D01*
X139939444Y-87786479D01*
X140090603Y-87233688D01*
X140212244Y-86804544D01*
X140311053Y-86478966D01*
X140393709Y-86236868D01*
X140466897Y-86058167D01*
X140537296Y-85922781D01*
X140611592Y-85810625D01*
X140664087Y-85741995D01*
X140987466Y-85430947D01*
X141364907Y-85261060D01*
X141819664Y-85225346D01*
X142206575Y-85278495D01*
G36*
X144967223Y-86360151D02*
G01*
X144960817Y-86465045D01*
X144954321Y-86709317D01*
X144948065Y-87063013D01*
X144942375Y-87496178D01*
X144937584Y-87978857D01*
X144934019Y-88481095D01*
X144932009Y-88972938D01*
X144931885Y-89424431D01*
X144932246Y-89542823D01*
X144916807Y-90889488D01*
X144862580Y-92323413D01*
X144772981Y-93805171D01*
X144651428Y-95295339D01*
X144501338Y-96754489D01*
X144326130Y-98143195D01*
X144129218Y-99422033D01*
X144026377Y-99993809D01*
X143787085Y-101120934D01*
X143506531Y-102213232D01*
X143198747Y-103218860D01*
X143009033Y-103753268D01*
X142667370Y-104552468D01*
X142273132Y-105291560D01*
X141843411Y-105945311D01*
X141395296Y-106488481D01*
X140945877Y-106895832D01*
X140822834Y-106981660D01*
X140615990Y-107092047D01*
X140362641Y-107195735D01*
X140113179Y-107276364D01*
X139917997Y-107317576D01*
X139828249Y-107304514D01*
X139881880Y-107252988D01*
X140051500Y-107185149D01*
X140129362Y-107161793D01*
X140395546Y-107051386D01*
X140690767Y-106877151D01*
X140814303Y-106786624D01*
X141246320Y-106390667D01*
X141633754Y-105921746D01*
X141987172Y-105360733D01*
X142317141Y-104688495D01*
X142634227Y-103885901D01*
X142948997Y-102933821D01*
X142957306Y-102906700D01*
X143197595Y-102071958D01*
X143417114Y-101202090D01*
X143617311Y-100285089D01*
X143799634Y-99308942D01*
X143965531Y-98261643D01*
X144116450Y-97131179D01*
X144253838Y-95905541D01*
X144379145Y-94572720D01*
X144493816Y-93120706D01*
X144599303Y-91537488D01*
X144697050Y-89811056D01*
X144788508Y-87929402D01*
X144803507Y-87593824D01*
X144826478Y-87161712D01*
X144853391Y-86793818D01*
X144881394Y-86521402D01*
X144907634Y-86375721D01*
X144916095Y-86360322D01*
X144967823Y-86355878D01*
X144967223Y-86360151D01*
G37*
X144967223Y-86360151D02*
X144960817Y-86465045D01*
X144954321Y-86709317D01*
X144948065Y-87063013D01*
X144942375Y-87496178D01*
X144937584Y-87978857D01*
X144934019Y-88481095D01*
X144932009Y-88972938D01*
X144931885Y-89424431D01*
X144932246Y-89542823D01*
X144916807Y-90889488D01*
X144862580Y-92323413D01*
X144772981Y-93805171D01*
X144651428Y-95295339D01*
X144501338Y-96754489D01*
X144326130Y-98143195D01*
X144129218Y-99422033D01*
X144026377Y-99993809D01*
X143787085Y-101120934D01*
X143506531Y-102213232D01*
X143198747Y-103218860D01*
X143009033Y-103753268D01*
X142667370Y-104552468D01*
X142273132Y-105291560D01*
X141843411Y-105945311D01*
X141395296Y-106488481D01*
X140945877Y-106895832D01*
X140822834Y-106981660D01*
X140615990Y-107092047D01*
X140362641Y-107195735D01*
X140113179Y-107276364D01*
X139917997Y-107317576D01*
X139828249Y-107304514D01*
X139881880Y-107252988D01*
X140051500Y-107185149D01*
X140129362Y-107161793D01*
X140395546Y-107051386D01*
X140690767Y-106877151D01*
X140814303Y-106786624D01*
X141246320Y-106390667D01*
X141633754Y-105921746D01*
X141987172Y-105360733D01*
X142317141Y-104688495D01*
X142634227Y-103885901D01*
X142948997Y-102933821D01*
X142957306Y-102906700D01*
X143197595Y-102071958D01*
X143417114Y-101202090D01*
X143617311Y-100285089D01*
X143799634Y-99308942D01*
X143965531Y-98261643D01*
X144116450Y-97131179D01*
X144253838Y-95905541D01*
X144379145Y-94572720D01*
X144493816Y-93120706D01*
X144599303Y-91537488D01*
X144697050Y-89811056D01*
X144788508Y-87929402D01*
X144803507Y-87593824D01*
X144826478Y-87161712D01*
X144853391Y-86793818D01*
X144881394Y-86521402D01*
X144907634Y-86375721D01*
X144916095Y-86360322D01*
X144967823Y-86355878D01*
X144967223Y-86360151D01*
G36*
X141835953Y-83339159D02*
G01*
X142258641Y-83438247D01*
X142699514Y-83553882D01*
X143960192Y-83891679D01*
X144001096Y-84195147D01*
X144040591Y-84530635D01*
X144044817Y-84733269D01*
X144009436Y-84836686D01*
X143930109Y-84874517D01*
X143913181Y-84876716D01*
X143784426Y-84860800D01*
X143524158Y-84806899D01*
X143164031Y-84722303D01*
X142735698Y-84614307D01*
X142471854Y-84544721D01*
X141931476Y-84396050D01*
X141536359Y-84273723D01*
X141266942Y-84165262D01*
X141103665Y-84058188D01*
X141026965Y-83940022D01*
X141017282Y-83798288D01*
X141050329Y-83637904D01*
X141108582Y-83468280D01*
X141192820Y-83354789D01*
X141326494Y-83296235D01*
X141533054Y-83291423D01*
X141835953Y-83339159D01*
G37*
X141835953Y-83339159D02*
X142258641Y-83438247D01*
X142699514Y-83553882D01*
X143960192Y-83891679D01*
X144001096Y-84195147D01*
X144040591Y-84530635D01*
X144044817Y-84733269D01*
X144009436Y-84836686D01*
X143930109Y-84874517D01*
X143913181Y-84876716D01*
X143784426Y-84860800D01*
X143524158Y-84806899D01*
X143164031Y-84722303D01*
X142735698Y-84614307D01*
X142471854Y-84544721D01*
X141931476Y-84396050D01*
X141536359Y-84273723D01*
X141266942Y-84165262D01*
X141103665Y-84058188D01*
X141026965Y-83940022D01*
X141017282Y-83798288D01*
X141050329Y-83637904D01*
X141108582Y-83468280D01*
X141192820Y-83354789D01*
X141326494Y-83296235D01*
X141533054Y-83291423D01*
X141835953Y-83339159D01*
%TD*%
M02*
