%TF.GenerationSoftware,KiCad,Pcbnew,(6.0.4)*%
%TF.CreationDate,2022-09-15T01:58:29-04:00*%
%TF.ProjectId,Pi_HAT,50695f48-4154-42e6-9b69-6361645f7063,rev?*%
%TF.SameCoordinates,Original*%
%TF.FileFunction,Legend,Top*%
%TF.FilePolarity,Positive*%
%FSLAX46Y46*%
G04 Gerber Fmt 4.6, Leading zero omitted, Abs format (unit mm)*
G04 Created by KiCad (PCBNEW (6.0.4)) date 2022-09-15 01:58:29*
%MOMM*%
%LPD*%
G01*
G04 APERTURE LIST*
%ADD10C,0.150000*%
%ADD11C,0.100000*%
%ADD12C,0.250000*%
%ADD13C,0.127000*%
%ADD14C,0.200000*%
%ADD15C,0.120000*%
%ADD16C,0.010000*%
G04 APERTURE END LIST*
D10*
X143154761Y-105223809D02*
X141154761Y-105223809D01*
X142583333Y-104557142D01*
X141154761Y-103890476D01*
X143154761Y-103890476D01*
X143154761Y-102938095D02*
X141154761Y-102938095D01*
X141154761Y-102176190D01*
X141250000Y-101985714D01*
X141345238Y-101890476D01*
X141535714Y-101795238D01*
X141821428Y-101795238D01*
X142011904Y-101890476D01*
X142107142Y-101985714D01*
X142202380Y-102176190D01*
X142202380Y-102938095D01*
X141154761Y-100938095D02*
X142773809Y-100938095D01*
X142964285Y-100842857D01*
X143059523Y-100747619D01*
X143154761Y-100557142D01*
X143154761Y-100176190D01*
X143059523Y-99985714D01*
X142964285Y-99890476D01*
X142773809Y-99795238D01*
X141154761Y-99795238D01*
X143154761Y-98747619D02*
X143154761Y-98366666D01*
X143059523Y-98176190D01*
X142964285Y-98080952D01*
X142678571Y-97890476D01*
X142297619Y-97795238D01*
X141535714Y-97795238D01*
X141345238Y-97890476D01*
X141250000Y-97985714D01*
X141154761Y-98176190D01*
X141154761Y-98557142D01*
X141250000Y-98747619D01*
X141345238Y-98842857D01*
X141535714Y-98938095D01*
X142011904Y-98938095D01*
X142202380Y-98842857D01*
X142297619Y-98747619D01*
X142392857Y-98557142D01*
X142392857Y-98176190D01*
X142297619Y-97985714D01*
X142202380Y-97890476D01*
X142011904Y-97795238D01*
X141345238Y-97033333D02*
X141250000Y-96938095D01*
X141154761Y-96747619D01*
X141154761Y-96271428D01*
X141250000Y-96080952D01*
X141345238Y-95985714D01*
X141535714Y-95890476D01*
X141726190Y-95890476D01*
X142011904Y-95985714D01*
X143154761Y-97128571D01*
X143154761Y-95890476D01*
X141154761Y-94080952D02*
X141154761Y-95033333D01*
X142107142Y-95128571D01*
X142011904Y-95033333D01*
X141916666Y-94842857D01*
X141916666Y-94366666D01*
X142011904Y-94176190D01*
X142107142Y-94080952D01*
X142297619Y-93985714D01*
X142773809Y-93985714D01*
X142964285Y-94080952D01*
X143059523Y-94176190D01*
X143154761Y-94366666D01*
X143154761Y-94842857D01*
X143059523Y-95033333D01*
X142964285Y-95128571D01*
X141154761Y-92747619D02*
X141154761Y-92557142D01*
X141250000Y-92366666D01*
X141345238Y-92271428D01*
X141535714Y-92176190D01*
X141916666Y-92080952D01*
X142392857Y-92080952D01*
X142773809Y-92176190D01*
X142964285Y-92271428D01*
X143059523Y-92366666D01*
X143154761Y-92557142D01*
X143154761Y-92747619D01*
X143059523Y-92938095D01*
X142964285Y-93033333D01*
X142773809Y-93128571D01*
X142392857Y-93223809D01*
X141916666Y-93223809D01*
X141535714Y-93128571D01*
X141345238Y-93033333D01*
X141250000Y-92938095D01*
X141154761Y-92747619D01*
D11*
X145361904Y-72026190D02*
X145671428Y-72026190D01*
X145504761Y-72216666D01*
X145576190Y-72216666D01*
X145623809Y-72240476D01*
X145647619Y-72264285D01*
X145671428Y-72311904D01*
X145671428Y-72430952D01*
X145647619Y-72478571D01*
X145623809Y-72502380D01*
X145576190Y-72526190D01*
X145433333Y-72526190D01*
X145385714Y-72502380D01*
X145361904Y-72478571D01*
X145885714Y-72478571D02*
X145909523Y-72502380D01*
X145885714Y-72526190D01*
X145861904Y-72502380D01*
X145885714Y-72478571D01*
X145885714Y-72526190D01*
X146076190Y-72026190D02*
X146385714Y-72026190D01*
X146219047Y-72216666D01*
X146290476Y-72216666D01*
X146338095Y-72240476D01*
X146361904Y-72264285D01*
X146385714Y-72311904D01*
X146385714Y-72430952D01*
X146361904Y-72478571D01*
X146338095Y-72502380D01*
X146290476Y-72526190D01*
X146147619Y-72526190D01*
X146100000Y-72502380D01*
X146076190Y-72478571D01*
X146528571Y-72026190D02*
X146695238Y-72526190D01*
X146861904Y-72026190D01*
X100250000Y-90619047D02*
X100273809Y-90571428D01*
X100273809Y-90500000D01*
X100250000Y-90428571D01*
X100202380Y-90380952D01*
X100154761Y-90357142D01*
X100059523Y-90333333D01*
X99988095Y-90333333D01*
X99892857Y-90357142D01*
X99845238Y-90380952D01*
X99797619Y-90428571D01*
X99773809Y-90500000D01*
X99773809Y-90547619D01*
X99797619Y-90619047D01*
X99821428Y-90642857D01*
X99988095Y-90642857D01*
X99988095Y-90547619D01*
X99773809Y-90857142D02*
X100273809Y-90857142D01*
X99773809Y-91142857D01*
X100273809Y-91142857D01*
X99773809Y-91380952D02*
X100273809Y-91380952D01*
X100273809Y-91500000D01*
X100250000Y-91571428D01*
X100202380Y-91619047D01*
X100154761Y-91642857D01*
X100059523Y-91666666D01*
X99988095Y-91666666D01*
X99892857Y-91642857D01*
X99845238Y-91619047D01*
X99797619Y-91571428D01*
X99773809Y-91500000D01*
X99773809Y-91380952D01*
X100350000Y-105319047D02*
X100373809Y-105271428D01*
X100373809Y-105200000D01*
X100350000Y-105128571D01*
X100302380Y-105080952D01*
X100254761Y-105057142D01*
X100159523Y-105033333D01*
X100088095Y-105033333D01*
X99992857Y-105057142D01*
X99945238Y-105080952D01*
X99897619Y-105128571D01*
X99873809Y-105200000D01*
X99873809Y-105247619D01*
X99897619Y-105319047D01*
X99921428Y-105342857D01*
X100088095Y-105342857D01*
X100088095Y-105247619D01*
X99873809Y-105557142D02*
X100373809Y-105557142D01*
X99873809Y-105842857D01*
X100373809Y-105842857D01*
X99873809Y-106080952D02*
X100373809Y-106080952D01*
X100373809Y-106200000D01*
X100350000Y-106271428D01*
X100302380Y-106319047D01*
X100254761Y-106342857D01*
X100159523Y-106366666D01*
X100088095Y-106366666D01*
X99992857Y-106342857D01*
X99945238Y-106319047D01*
X99897619Y-106271428D01*
X99873809Y-106200000D01*
X99873809Y-106080952D01*
X162002380Y-111607142D02*
X162026190Y-111535714D01*
X162026190Y-111416666D01*
X162002380Y-111369047D01*
X161978571Y-111345238D01*
X161930952Y-111321428D01*
X161883333Y-111321428D01*
X161835714Y-111345238D01*
X161811904Y-111369047D01*
X161788095Y-111416666D01*
X161764285Y-111511904D01*
X161740476Y-111559523D01*
X161716666Y-111583333D01*
X161669047Y-111607142D01*
X161621428Y-111607142D01*
X161573809Y-111583333D01*
X161550000Y-111559523D01*
X161526190Y-111511904D01*
X161526190Y-111392857D01*
X161550000Y-111321428D01*
X162026190Y-111107142D02*
X161526190Y-111107142D01*
X161526190Y-110988095D01*
X161550000Y-110916666D01*
X161597619Y-110869047D01*
X161645238Y-110845238D01*
X161740476Y-110821428D01*
X161811904Y-110821428D01*
X161907142Y-110845238D01*
X161954761Y-110869047D01*
X162002380Y-110916666D01*
X162026190Y-110988095D01*
X162026190Y-111107142D01*
X161883333Y-110630952D02*
X161883333Y-110392857D01*
X162026190Y-110678571D02*
X161526190Y-110511904D01*
X162026190Y-110345238D01*
X99873809Y-102990476D02*
X99873809Y-102704761D01*
X99873809Y-102847619D02*
X100373809Y-102847619D01*
X100302380Y-102800000D01*
X100254761Y-102752380D01*
X100230952Y-102704761D01*
X100326190Y-103180952D02*
X100350000Y-103204761D01*
X100373809Y-103252380D01*
X100373809Y-103371428D01*
X100350000Y-103419047D01*
X100326190Y-103442857D01*
X100278571Y-103466666D01*
X100230952Y-103466666D01*
X100159523Y-103442857D01*
X99873809Y-103157142D01*
X99873809Y-103466666D01*
X100373809Y-103609523D02*
X99873809Y-103776190D01*
X100373809Y-103942857D01*
X161550000Y-106180952D02*
X161526190Y-106228571D01*
X161526190Y-106300000D01*
X161550000Y-106371428D01*
X161597619Y-106419047D01*
X161645238Y-106442857D01*
X161740476Y-106466666D01*
X161811904Y-106466666D01*
X161907142Y-106442857D01*
X161954761Y-106419047D01*
X162002380Y-106371428D01*
X162026190Y-106300000D01*
X162026190Y-106252380D01*
X162002380Y-106180952D01*
X161978571Y-106157142D01*
X161811904Y-106157142D01*
X161811904Y-106252380D01*
X162026190Y-105942857D02*
X161526190Y-105942857D01*
X162026190Y-105657142D01*
X161526190Y-105657142D01*
X162026190Y-105419047D02*
X161526190Y-105419047D01*
X161526190Y-105300000D01*
X161550000Y-105228571D01*
X161597619Y-105180952D01*
X161645238Y-105157142D01*
X161740476Y-105133333D01*
X161811904Y-105133333D01*
X161907142Y-105157142D01*
X161954761Y-105180952D01*
X162002380Y-105228571D01*
X162026190Y-105300000D01*
X162026190Y-105419047D01*
X99997619Y-110192857D02*
X99973809Y-110264285D01*
X99973809Y-110383333D01*
X99997619Y-110430952D01*
X100021428Y-110454761D01*
X100069047Y-110478571D01*
X100116666Y-110478571D01*
X100164285Y-110454761D01*
X100188095Y-110430952D01*
X100211904Y-110383333D01*
X100235714Y-110288095D01*
X100259523Y-110240476D01*
X100283333Y-110216666D01*
X100330952Y-110192857D01*
X100378571Y-110192857D01*
X100426190Y-110216666D01*
X100450000Y-110240476D01*
X100473809Y-110288095D01*
X100473809Y-110407142D01*
X100450000Y-110478571D01*
X99973809Y-110692857D02*
X100473809Y-110692857D01*
X100473809Y-110811904D01*
X100450000Y-110883333D01*
X100402380Y-110930952D01*
X100354761Y-110954761D01*
X100259523Y-110978571D01*
X100188095Y-110978571D01*
X100092857Y-110954761D01*
X100045238Y-110930952D01*
X99997619Y-110883333D01*
X99973809Y-110811904D01*
X99973809Y-110692857D01*
X100116666Y-111169047D02*
X100116666Y-111407142D01*
X99973809Y-111121428D02*
X100473809Y-111288095D01*
X99973809Y-111454761D01*
X99773809Y-93630952D02*
X100273809Y-93630952D01*
X100273809Y-93821428D01*
X100250000Y-93869047D01*
X100226190Y-93892857D01*
X100178571Y-93916666D01*
X100107142Y-93916666D01*
X100059523Y-93892857D01*
X100035714Y-93869047D01*
X100011904Y-93821428D01*
X100011904Y-93630952D01*
X99797619Y-94107142D02*
X99773809Y-94178571D01*
X99773809Y-94297619D01*
X99797619Y-94345238D01*
X99821428Y-94369047D01*
X99869047Y-94392857D01*
X99916666Y-94392857D01*
X99964285Y-94369047D01*
X99988095Y-94345238D01*
X100011904Y-94297619D01*
X100035714Y-94202380D01*
X100059523Y-94154761D01*
X100083333Y-94130952D01*
X100130952Y-94107142D01*
X100178571Y-94107142D01*
X100226190Y-94130952D01*
X100250000Y-94154761D01*
X100273809Y-94202380D01*
X100273809Y-94321428D01*
X100250000Y-94392857D01*
X162002380Y-108995238D02*
X162026190Y-108923809D01*
X162026190Y-108804761D01*
X162002380Y-108757142D01*
X161978571Y-108733333D01*
X161930952Y-108709523D01*
X161883333Y-108709523D01*
X161835714Y-108733333D01*
X161811904Y-108757142D01*
X161788095Y-108804761D01*
X161764285Y-108900000D01*
X161740476Y-108947619D01*
X161716666Y-108971428D01*
X161669047Y-108995238D01*
X161621428Y-108995238D01*
X161573809Y-108971428D01*
X161550000Y-108947619D01*
X161526190Y-108900000D01*
X161526190Y-108780952D01*
X161550000Y-108709523D01*
X161978571Y-108209523D02*
X162002380Y-108233333D01*
X162026190Y-108304761D01*
X162026190Y-108352380D01*
X162002380Y-108423809D01*
X161954761Y-108471428D01*
X161907142Y-108495238D01*
X161811904Y-108519047D01*
X161740476Y-108519047D01*
X161645238Y-108495238D01*
X161597619Y-108471428D01*
X161550000Y-108423809D01*
X161526190Y-108352380D01*
X161526190Y-108304761D01*
X161550000Y-108233333D01*
X161573809Y-108209523D01*
X162026190Y-107757142D02*
X162026190Y-107995238D01*
X161526190Y-107995238D01*
X100273809Y-87904761D02*
X100273809Y-87666666D01*
X100035714Y-87642857D01*
X100059523Y-87666666D01*
X100083333Y-87714285D01*
X100083333Y-87833333D01*
X100059523Y-87880952D01*
X100035714Y-87904761D01*
X99988095Y-87928571D01*
X99869047Y-87928571D01*
X99821428Y-87904761D01*
X99797619Y-87880952D01*
X99773809Y-87833333D01*
X99773809Y-87714285D01*
X99797619Y-87666666D01*
X99821428Y-87642857D01*
X100273809Y-88071428D02*
X99773809Y-88238095D01*
X100273809Y-88404761D01*
X99997619Y-107604761D02*
X99973809Y-107676190D01*
X99973809Y-107795238D01*
X99997619Y-107842857D01*
X100021428Y-107866666D01*
X100069047Y-107890476D01*
X100116666Y-107890476D01*
X100164285Y-107866666D01*
X100188095Y-107842857D01*
X100211904Y-107795238D01*
X100235714Y-107700000D01*
X100259523Y-107652380D01*
X100283333Y-107628571D01*
X100330952Y-107604761D01*
X100378571Y-107604761D01*
X100426190Y-107628571D01*
X100450000Y-107652380D01*
X100473809Y-107700000D01*
X100473809Y-107819047D01*
X100450000Y-107890476D01*
X100021428Y-108390476D02*
X99997619Y-108366666D01*
X99973809Y-108295238D01*
X99973809Y-108247619D01*
X99997619Y-108176190D01*
X100045238Y-108128571D01*
X100092857Y-108104761D01*
X100188095Y-108080952D01*
X100259523Y-108080952D01*
X100354761Y-108104761D01*
X100402380Y-108128571D01*
X100450000Y-108176190D01*
X100473809Y-108247619D01*
X100473809Y-108295238D01*
X100450000Y-108366666D01*
X100426190Y-108390476D01*
X99973809Y-108842857D02*
X99973809Y-108604761D01*
X100473809Y-108604761D01*
X162026190Y-103609523D02*
X162026190Y-103895238D01*
X162026190Y-103752380D02*
X161526190Y-103752380D01*
X161597619Y-103800000D01*
X161645238Y-103847619D01*
X161669047Y-103895238D01*
X161573809Y-103419047D02*
X161550000Y-103395238D01*
X161526190Y-103347619D01*
X161526190Y-103228571D01*
X161550000Y-103180952D01*
X161573809Y-103157142D01*
X161621428Y-103133333D01*
X161669047Y-103133333D01*
X161740476Y-103157142D01*
X162026190Y-103442857D01*
X162026190Y-103133333D01*
X161526190Y-102990476D02*
X162026190Y-102823809D01*
X161526190Y-102657142D01*
D12*
X136764285Y-68026619D02*
X136764285Y-66926619D01*
X137183333Y-66926619D01*
X137288095Y-66979000D01*
X137340476Y-67031380D01*
X137392857Y-67136142D01*
X137392857Y-67293285D01*
X137340476Y-67398047D01*
X137288095Y-67450428D01*
X137183333Y-67502809D01*
X136764285Y-67502809D01*
X137864285Y-68026619D02*
X137864285Y-66926619D01*
X139226190Y-68026619D02*
X139226190Y-66926619D01*
X139226190Y-67450428D02*
X139854761Y-67450428D01*
X139854761Y-68026619D02*
X139854761Y-66926619D01*
X140326190Y-67712333D02*
X140850000Y-67712333D01*
X140221428Y-68026619D02*
X140588095Y-66926619D01*
X140954761Y-68026619D01*
X141164285Y-66926619D02*
X141792857Y-66926619D01*
X141478571Y-68026619D02*
X141478571Y-66926619D01*
X132861904Y-69221428D02*
X133228571Y-69221428D01*
X133385714Y-69797619D02*
X132861904Y-69797619D01*
X132861904Y-68697619D01*
X133385714Y-68697619D01*
X133804761Y-69483333D02*
X134328571Y-69483333D01*
X133700000Y-69797619D02*
X134066666Y-68697619D01*
X134433333Y-69797619D01*
X134747619Y-69745238D02*
X134904761Y-69797619D01*
X135166666Y-69797619D01*
X135271428Y-69745238D01*
X135323809Y-69692857D01*
X135376190Y-69588095D01*
X135376190Y-69483333D01*
X135323809Y-69378571D01*
X135271428Y-69326190D01*
X135166666Y-69273809D01*
X134957142Y-69221428D01*
X134852380Y-69169047D01*
X134800000Y-69116666D01*
X134747619Y-69011904D01*
X134747619Y-68907142D01*
X134800000Y-68802380D01*
X134852380Y-68750000D01*
X134957142Y-68697619D01*
X135219047Y-68697619D01*
X135376190Y-68750000D01*
X136057142Y-69273809D02*
X136057142Y-69797619D01*
X135690476Y-68697619D02*
X136057142Y-69273809D01*
X136423809Y-68697619D01*
X138257142Y-69692857D02*
X138204761Y-69745238D01*
X138047619Y-69797619D01*
X137942857Y-69797619D01*
X137785714Y-69745238D01*
X137680952Y-69640476D01*
X137628571Y-69535714D01*
X137576190Y-69326190D01*
X137576190Y-69169047D01*
X137628571Y-68959523D01*
X137680952Y-68854761D01*
X137785714Y-68750000D01*
X137942857Y-68697619D01*
X138047619Y-68697619D01*
X138204761Y-68750000D01*
X138257142Y-68802380D01*
X138938095Y-68697619D02*
X139147619Y-68697619D01*
X139252380Y-68750000D01*
X139357142Y-68854761D01*
X139409523Y-69064285D01*
X139409523Y-69430952D01*
X139357142Y-69640476D01*
X139252380Y-69745238D01*
X139147619Y-69797619D01*
X138938095Y-69797619D01*
X138833333Y-69745238D01*
X138728571Y-69640476D01*
X138676190Y-69430952D01*
X138676190Y-69064285D01*
X138728571Y-68854761D01*
X138833333Y-68750000D01*
X138938095Y-68697619D01*
X139880952Y-69797619D02*
X139880952Y-68697619D01*
X140509523Y-69797619D01*
X140509523Y-68697619D01*
X140876190Y-68697619D02*
X141504761Y-68697619D01*
X141190476Y-69797619D02*
X141190476Y-68697619D01*
X142500000Y-69797619D02*
X142133333Y-69273809D01*
X141871428Y-69797619D02*
X141871428Y-68697619D01*
X142290476Y-68697619D01*
X142395238Y-68750000D01*
X142447619Y-68802380D01*
X142500000Y-68907142D01*
X142500000Y-69064285D01*
X142447619Y-69169047D01*
X142395238Y-69221428D01*
X142290476Y-69273809D01*
X141871428Y-69273809D01*
X143180952Y-68697619D02*
X143390476Y-68697619D01*
X143495238Y-68750000D01*
X143600000Y-68854761D01*
X143652380Y-69064285D01*
X143652380Y-69430952D01*
X143600000Y-69640476D01*
X143495238Y-69745238D01*
X143390476Y-69797619D01*
X143180952Y-69797619D01*
X143076190Y-69745238D01*
X142971428Y-69640476D01*
X142919047Y-69430952D01*
X142919047Y-69064285D01*
X142971428Y-68854761D01*
X143076190Y-68750000D01*
X143180952Y-68697619D01*
X144647619Y-69797619D02*
X144123809Y-69797619D01*
X144123809Y-68697619D01*
X144961904Y-69745238D02*
X145119047Y-69797619D01*
X145380952Y-69797619D01*
X145485714Y-69745238D01*
X145538095Y-69692857D01*
X145590476Y-69588095D01*
X145590476Y-69483333D01*
X145538095Y-69378571D01*
X145485714Y-69326190D01*
X145380952Y-69273809D01*
X145171428Y-69221428D01*
X145066666Y-69169047D01*
X145014285Y-69116666D01*
X144961904Y-69011904D01*
X144961904Y-68907142D01*
X145014285Y-68802380D01*
X145066666Y-68750000D01*
X145171428Y-68697619D01*
X145433333Y-68697619D01*
X145590476Y-68750000D01*
X128200000Y-71568619D02*
X128200000Y-70468619D01*
X128461904Y-70468619D01*
X128619047Y-70521000D01*
X128723809Y-70625761D01*
X128776190Y-70730523D01*
X128828571Y-70940047D01*
X128828571Y-71097190D01*
X128776190Y-71306714D01*
X128723809Y-71411476D01*
X128619047Y-71516238D01*
X128461904Y-71568619D01*
X128200000Y-71568619D01*
X129719047Y-71516238D02*
X129614285Y-71568619D01*
X129404761Y-71568619D01*
X129300000Y-71516238D01*
X129247619Y-71411476D01*
X129247619Y-70992428D01*
X129300000Y-70887666D01*
X129404761Y-70835285D01*
X129614285Y-70835285D01*
X129719047Y-70887666D01*
X129771428Y-70992428D01*
X129771428Y-71097190D01*
X129247619Y-71201952D01*
X130190476Y-71516238D02*
X130295238Y-71568619D01*
X130504761Y-71568619D01*
X130609523Y-71516238D01*
X130661904Y-71411476D01*
X130661904Y-71359095D01*
X130609523Y-71254333D01*
X130504761Y-71201952D01*
X130347619Y-71201952D01*
X130242857Y-71149571D01*
X130190476Y-71044809D01*
X130190476Y-70992428D01*
X130242857Y-70887666D01*
X130347619Y-70835285D01*
X130504761Y-70835285D01*
X130609523Y-70887666D01*
X131133333Y-71568619D02*
X131133333Y-70835285D01*
X131133333Y-70468619D02*
X131080952Y-70521000D01*
X131133333Y-70573380D01*
X131185714Y-70521000D01*
X131133333Y-70468619D01*
X131133333Y-70573380D01*
X132128571Y-70835285D02*
X132128571Y-71725761D01*
X132076190Y-71830523D01*
X132023809Y-71882904D01*
X131919047Y-71935285D01*
X131761904Y-71935285D01*
X131657142Y-71882904D01*
X132128571Y-71516238D02*
X132023809Y-71568619D01*
X131814285Y-71568619D01*
X131709523Y-71516238D01*
X131657142Y-71463857D01*
X131604761Y-71359095D01*
X131604761Y-71044809D01*
X131657142Y-70940047D01*
X131709523Y-70887666D01*
X131814285Y-70835285D01*
X132023809Y-70835285D01*
X132128571Y-70887666D01*
X132652380Y-70835285D02*
X132652380Y-71568619D01*
X132652380Y-70940047D02*
X132704761Y-70887666D01*
X132809523Y-70835285D01*
X132966666Y-70835285D01*
X133071428Y-70887666D01*
X133123809Y-70992428D01*
X133123809Y-71568619D01*
X134066666Y-71516238D02*
X133961904Y-71568619D01*
X133752380Y-71568619D01*
X133647619Y-71516238D01*
X133595238Y-71411476D01*
X133595238Y-70992428D01*
X133647619Y-70887666D01*
X133752380Y-70835285D01*
X133961904Y-70835285D01*
X134066666Y-70887666D01*
X134119047Y-70992428D01*
X134119047Y-71097190D01*
X133595238Y-71201952D01*
X135061904Y-71568619D02*
X135061904Y-70468619D01*
X135061904Y-71516238D02*
X134957142Y-71568619D01*
X134747619Y-71568619D01*
X134642857Y-71516238D01*
X134590476Y-71463857D01*
X134538095Y-71359095D01*
X134538095Y-71044809D01*
X134590476Y-70940047D01*
X134642857Y-70887666D01*
X134747619Y-70835285D01*
X134957142Y-70835285D01*
X135061904Y-70887666D01*
X136423809Y-71568619D02*
X136423809Y-70468619D01*
X136423809Y-70887666D02*
X136528571Y-70835285D01*
X136738095Y-70835285D01*
X136842857Y-70887666D01*
X136895238Y-70940047D01*
X136947619Y-71044809D01*
X136947619Y-71359095D01*
X136895238Y-71463857D01*
X136842857Y-71516238D01*
X136738095Y-71568619D01*
X136528571Y-71568619D01*
X136423809Y-71516238D01*
X137314285Y-70835285D02*
X137576190Y-71568619D01*
X137838095Y-70835285D02*
X137576190Y-71568619D01*
X137471428Y-71830523D01*
X137419047Y-71882904D01*
X137314285Y-71935285D01*
X138257142Y-71463857D02*
X138309523Y-71516238D01*
X138257142Y-71568619D01*
X138204761Y-71516238D01*
X138257142Y-71463857D01*
X138257142Y-71568619D01*
X138257142Y-70887666D02*
X138309523Y-70940047D01*
X138257142Y-70992428D01*
X138204761Y-70940047D01*
X138257142Y-70887666D01*
X138257142Y-70992428D01*
X139933333Y-70468619D02*
X139933333Y-71254333D01*
X139880952Y-71411476D01*
X139776190Y-71516238D01*
X139619047Y-71568619D01*
X139514285Y-71568619D01*
X140928571Y-71568619D02*
X140928571Y-70992428D01*
X140876190Y-70887666D01*
X140771428Y-70835285D01*
X140561904Y-70835285D01*
X140457142Y-70887666D01*
X140928571Y-71516238D02*
X140823809Y-71568619D01*
X140561904Y-71568619D01*
X140457142Y-71516238D01*
X140404761Y-71411476D01*
X140404761Y-71306714D01*
X140457142Y-71201952D01*
X140561904Y-71149571D01*
X140823809Y-71149571D01*
X140928571Y-71097190D01*
X141923809Y-71516238D02*
X141819047Y-71568619D01*
X141609523Y-71568619D01*
X141504761Y-71516238D01*
X141452380Y-71463857D01*
X141400000Y-71359095D01*
X141400000Y-71044809D01*
X141452380Y-70940047D01*
X141504761Y-70887666D01*
X141609523Y-70835285D01*
X141819047Y-70835285D01*
X141923809Y-70887666D01*
X142552380Y-71568619D02*
X142447619Y-71516238D01*
X142395238Y-71463857D01*
X142342857Y-71359095D01*
X142342857Y-71044809D01*
X142395238Y-70940047D01*
X142447619Y-70887666D01*
X142552380Y-70835285D01*
X142709523Y-70835285D01*
X142814285Y-70887666D01*
X142866666Y-70940047D01*
X142919047Y-71044809D01*
X142919047Y-71359095D01*
X142866666Y-71463857D01*
X142814285Y-71516238D01*
X142709523Y-71568619D01*
X142552380Y-71568619D01*
X143390476Y-71568619D02*
X143390476Y-70468619D01*
X143390476Y-70887666D02*
X143495238Y-70835285D01*
X143704761Y-70835285D01*
X143809523Y-70887666D01*
X143861904Y-70940047D01*
X143914285Y-71044809D01*
X143914285Y-71359095D01*
X143861904Y-71463857D01*
X143809523Y-71516238D01*
X143704761Y-71568619D01*
X143495238Y-71568619D01*
X143390476Y-71516238D01*
X145852380Y-71568619D02*
X145485714Y-71044809D01*
X145223809Y-71568619D02*
X145223809Y-70468619D01*
X145642857Y-70468619D01*
X145747619Y-70521000D01*
X145800000Y-70573380D01*
X145852380Y-70678142D01*
X145852380Y-70835285D01*
X145800000Y-70940047D01*
X145747619Y-70992428D01*
X145642857Y-71044809D01*
X145223809Y-71044809D01*
X146480952Y-71568619D02*
X146376190Y-71516238D01*
X146323809Y-71463857D01*
X146271428Y-71359095D01*
X146271428Y-71044809D01*
X146323809Y-70940047D01*
X146376190Y-70887666D01*
X146480952Y-70835285D01*
X146638095Y-70835285D01*
X146742857Y-70887666D01*
X146795238Y-70940047D01*
X146847619Y-71044809D01*
X146847619Y-71359095D01*
X146795238Y-71463857D01*
X146742857Y-71516238D01*
X146638095Y-71568619D01*
X146480952Y-71568619D01*
X147319047Y-71568619D02*
X147319047Y-70835285D01*
X147319047Y-70940047D02*
X147371428Y-70887666D01*
X147476190Y-70835285D01*
X147633333Y-70835285D01*
X147738095Y-70887666D01*
X147790476Y-70992428D01*
X147790476Y-71568619D01*
X147790476Y-70992428D02*
X147842857Y-70887666D01*
X147947619Y-70835285D01*
X148104761Y-70835285D01*
X148209523Y-70887666D01*
X148261904Y-70992428D01*
X148261904Y-71568619D01*
X149204761Y-71516238D02*
X149100000Y-71568619D01*
X148890476Y-71568619D01*
X148785714Y-71516238D01*
X148733333Y-71411476D01*
X148733333Y-70992428D01*
X148785714Y-70887666D01*
X148890476Y-70835285D01*
X149100000Y-70835285D01*
X149204761Y-70887666D01*
X149257142Y-70992428D01*
X149257142Y-71097190D01*
X148733333Y-71201952D01*
X149885714Y-71568619D02*
X149780952Y-71516238D01*
X149728571Y-71463857D01*
X149676190Y-71359095D01*
X149676190Y-71044809D01*
X149728571Y-70940047D01*
X149780952Y-70887666D01*
X149885714Y-70835285D01*
X150042857Y-70835285D01*
X150147619Y-70887666D01*
X150200000Y-70940047D01*
X150252380Y-71044809D01*
X150252380Y-71359095D01*
X150200000Y-71463857D01*
X150147619Y-71516238D01*
X150042857Y-71568619D01*
X149885714Y-71568619D01*
D10*
%TO.C,TB1*%
X114333333Y-90383333D02*
X115133333Y-90383333D01*
X114733333Y-91783333D02*
X114733333Y-90383333D01*
X116066666Y-91050000D02*
X116266666Y-91116666D01*
X116333333Y-91183333D01*
X116400000Y-91316666D01*
X116400000Y-91516666D01*
X116333333Y-91650000D01*
X116266666Y-91716666D01*
X116133333Y-91783333D01*
X115600000Y-91783333D01*
X115600000Y-90383333D01*
X116066666Y-90383333D01*
X116200000Y-90450000D01*
X116266666Y-90516666D01*
X116333333Y-90650000D01*
X116333333Y-90783333D01*
X116266666Y-90916666D01*
X116200000Y-90983333D01*
X116066666Y-91050000D01*
X115600000Y-91050000D01*
X117733333Y-91783333D02*
X116933333Y-91783333D01*
X117333333Y-91783333D02*
X117333333Y-90383333D01*
X117200000Y-90583333D01*
X117066666Y-90716666D01*
X116933333Y-90783333D01*
X121333333Y-112107142D02*
X121333333Y-111154761D01*
X121904761Y-112297619D02*
X119904761Y-111630952D01*
X121904761Y-110964285D01*
X121904761Y-109154761D02*
X120952380Y-109821428D01*
X121904761Y-110297619D02*
X119904761Y-110297619D01*
X119904761Y-109535714D01*
X120000000Y-109345238D01*
X120095238Y-109250000D01*
X120285714Y-109154761D01*
X120571428Y-109154761D01*
X120761904Y-109250000D01*
X120857142Y-109345238D01*
X120952380Y-109535714D01*
X120952380Y-110297619D01*
X121904761Y-108297619D02*
X119904761Y-108297619D01*
X119904761Y-107821428D01*
X120000000Y-107535714D01*
X120190476Y-107345238D01*
X120380952Y-107250000D01*
X120761904Y-107154761D01*
X121047619Y-107154761D01*
X121428571Y-107250000D01*
X121619047Y-107345238D01*
X121809523Y-107535714D01*
X121904761Y-107821428D01*
X121904761Y-108297619D01*
X119904761Y-106297619D02*
X121523809Y-106297619D01*
X121714285Y-106202380D01*
X121809523Y-106107142D01*
X121904761Y-105916666D01*
X121904761Y-105535714D01*
X121809523Y-105345238D01*
X121714285Y-105250000D01*
X121523809Y-105154761D01*
X119904761Y-105154761D01*
X121904761Y-104202380D02*
X119904761Y-104202380D01*
X121904761Y-103250000D02*
X119904761Y-103250000D01*
X121904761Y-102107142D01*
X119904761Y-102107142D01*
X119904761Y-100773809D02*
X119904761Y-100392857D01*
X120000000Y-100202380D01*
X120190476Y-100011904D01*
X120571428Y-99916666D01*
X121238095Y-99916666D01*
X121619047Y-100011904D01*
X121809523Y-100202380D01*
X121904761Y-100392857D01*
X121904761Y-100773809D01*
X121809523Y-100964285D01*
X121619047Y-101154761D01*
X121238095Y-101250000D01*
X120571428Y-101250000D01*
X120190476Y-101154761D01*
X120000000Y-100964285D01*
X119904761Y-100773809D01*
X122095238Y-99535714D02*
X122095238Y-98011904D01*
X121904761Y-97535714D02*
X119904761Y-97535714D01*
X121904761Y-96392857D01*
X119904761Y-96392857D01*
X121333333Y-95535714D02*
X121333333Y-94583333D01*
X121904761Y-95726190D02*
X119904761Y-95059523D01*
X121904761Y-94392857D01*
X121904761Y-93726190D02*
X119904761Y-93726190D01*
X121904761Y-92583333D01*
X119904761Y-92583333D01*
X119904761Y-91250000D02*
X119904761Y-90869047D01*
X120000000Y-90678571D01*
X120190476Y-90488095D01*
X120571428Y-90392857D01*
X121238095Y-90392857D01*
X121619047Y-90488095D01*
X121809523Y-90678571D01*
X121904761Y-90869047D01*
X121904761Y-91250000D01*
X121809523Y-91440476D01*
X121619047Y-91630952D01*
X121238095Y-91726190D01*
X120571428Y-91726190D01*
X120190476Y-91630952D01*
X120000000Y-91440476D01*
X119904761Y-91250000D01*
%TO.C,J3*%
X148266666Y-73752380D02*
X148266666Y-74466666D01*
X148219047Y-74609523D01*
X148123809Y-74704761D01*
X147980952Y-74752380D01*
X147885714Y-74752380D01*
X148647619Y-73752380D02*
X149266666Y-73752380D01*
X148933333Y-74133333D01*
X149076190Y-74133333D01*
X149171428Y-74180952D01*
X149219047Y-74228571D01*
X149266666Y-74323809D01*
X149266666Y-74561904D01*
X149219047Y-74657142D01*
X149171428Y-74704761D01*
X149076190Y-74752380D01*
X148790476Y-74752380D01*
X148695238Y-74704761D01*
X148647619Y-74657142D01*
%TO.C,H1*%
X155388095Y-72352380D02*
X155388095Y-71352380D01*
X155388095Y-71828571D02*
X155959523Y-71828571D01*
X155959523Y-72352380D02*
X155959523Y-71352380D01*
X156959523Y-72352380D02*
X156388095Y-72352380D01*
X156673809Y-72352380D02*
X156673809Y-71352380D01*
X156578571Y-71495238D01*
X156483333Y-71590476D01*
X156388095Y-71638095D01*
%TO.C,H2*%
X98838095Y-72402380D02*
X98838095Y-71402380D01*
X98838095Y-71878571D02*
X99409523Y-71878571D01*
X99409523Y-72402380D02*
X99409523Y-71402380D01*
X99838095Y-71497619D02*
X99885714Y-71450000D01*
X99980952Y-71402380D01*
X100219047Y-71402380D01*
X100314285Y-71450000D01*
X100361904Y-71497619D01*
X100409523Y-71592857D01*
X100409523Y-71688095D01*
X100361904Y-71830952D01*
X99790476Y-72402380D01*
X100409523Y-72402380D01*
%TO.C,H3*%
X105738095Y-134402380D02*
X105738095Y-133402380D01*
X105738095Y-133878571D02*
X106309523Y-133878571D01*
X106309523Y-134402380D02*
X106309523Y-133402380D01*
X106690476Y-133402380D02*
X107309523Y-133402380D01*
X106976190Y-133783333D01*
X107119047Y-133783333D01*
X107214285Y-133830952D01*
X107261904Y-133878571D01*
X107309523Y-133973809D01*
X107309523Y-134211904D01*
X107261904Y-134307142D01*
X107214285Y-134354761D01*
X107119047Y-134402380D01*
X106833333Y-134402380D01*
X106738095Y-134354761D01*
X106690476Y-134307142D01*
%TO.C,J1*%
X131566666Y-86652380D02*
X131566666Y-87366666D01*
X131519047Y-87509523D01*
X131423809Y-87604761D01*
X131280952Y-87652380D01*
X131185714Y-87652380D01*
X132566666Y-87652380D02*
X131995238Y-87652380D01*
X132280952Y-87652380D02*
X132280952Y-86652380D01*
X132185714Y-86795238D01*
X132090476Y-86890476D01*
X131995238Y-86938095D01*
%TO.C,H4*%
X156638095Y-133202380D02*
X156638095Y-132202380D01*
X156638095Y-132678571D02*
X157209523Y-132678571D01*
X157209523Y-133202380D02*
X157209523Y-132202380D01*
X158114285Y-132535714D02*
X158114285Y-133202380D01*
X157876190Y-132154761D02*
X157638095Y-132869047D01*
X158257142Y-132869047D01*
%TO.C,J2*%
X148791666Y-78952380D02*
X148791666Y-79666666D01*
X148744047Y-79809523D01*
X148648809Y-79904761D01*
X148505952Y-79952380D01*
X148410714Y-79952380D01*
X149220238Y-79047619D02*
X149267857Y-79000000D01*
X149363095Y-78952380D01*
X149601190Y-78952380D01*
X149696428Y-79000000D01*
X149744047Y-79047619D01*
X149791666Y-79142857D01*
X149791666Y-79238095D01*
X149744047Y-79380952D01*
X149172619Y-79952380D01*
X149791666Y-79952380D01*
X149629761Y-123385714D02*
X147629761Y-123385714D01*
X147629761Y-122623809D01*
X147725000Y-122433333D01*
X147820238Y-122338095D01*
X148010714Y-122242857D01*
X148296428Y-122242857D01*
X148486904Y-122338095D01*
X148582142Y-122433333D01*
X148677380Y-122623809D01*
X148677380Y-123385714D01*
X149629761Y-121385714D02*
X148296428Y-121385714D01*
X147629761Y-121385714D02*
X147725000Y-121480952D01*
X147820238Y-121385714D01*
X147725000Y-121290476D01*
X147629761Y-121385714D01*
X147820238Y-121385714D01*
X149820238Y-120909523D02*
X149820238Y-119385714D01*
X147725000Y-117861904D02*
X147629761Y-118052380D01*
X147629761Y-118338095D01*
X147725000Y-118623809D01*
X147915476Y-118814285D01*
X148105952Y-118909523D01*
X148486904Y-119004761D01*
X148772619Y-119004761D01*
X149153571Y-118909523D01*
X149344047Y-118814285D01*
X149534523Y-118623809D01*
X149629761Y-118338095D01*
X149629761Y-118147619D01*
X149534523Y-117861904D01*
X149439285Y-117766666D01*
X148772619Y-117766666D01*
X148772619Y-118147619D01*
X149629761Y-116909523D02*
X147629761Y-116909523D01*
X147629761Y-116147619D01*
X147725000Y-115957142D01*
X147820238Y-115861904D01*
X148010714Y-115766666D01*
X148296428Y-115766666D01*
X148486904Y-115861904D01*
X148582142Y-115957142D01*
X148677380Y-116147619D01*
X148677380Y-116909523D01*
X149629761Y-114909523D02*
X147629761Y-114909523D01*
X147629761Y-113576190D02*
X147629761Y-113195238D01*
X147725000Y-113004761D01*
X147915476Y-112814285D01*
X148296428Y-112719047D01*
X148963095Y-112719047D01*
X149344047Y-112814285D01*
X149534523Y-113004761D01*
X149629761Y-113195238D01*
X149629761Y-113576190D01*
X149534523Y-113766666D01*
X149344047Y-113957142D01*
X148963095Y-114052380D01*
X148296428Y-114052380D01*
X147915476Y-113957142D01*
X147725000Y-113766666D01*
X147629761Y-113576190D01*
%TO.C,C1*%
X130033333Y-82057142D02*
X129985714Y-82104761D01*
X129842857Y-82152380D01*
X129747619Y-82152380D01*
X129604761Y-82104761D01*
X129509523Y-82009523D01*
X129461904Y-81914285D01*
X129414285Y-81723809D01*
X129414285Y-81580952D01*
X129461904Y-81390476D01*
X129509523Y-81295238D01*
X129604761Y-81200000D01*
X129747619Y-81152380D01*
X129842857Y-81152380D01*
X129985714Y-81200000D01*
X130033333Y-81247619D01*
X130985714Y-82152380D02*
X130414285Y-82152380D01*
X130700000Y-82152380D02*
X130700000Y-81152380D01*
X130604761Y-81295238D01*
X130509523Y-81390476D01*
X130414285Y-81438095D01*
%TO.C,J4*%
X102666666Y-100322380D02*
X102666666Y-101036666D01*
X102619047Y-101179523D01*
X102523809Y-101274761D01*
X102380952Y-101322380D01*
X102285714Y-101322380D01*
X103571428Y-100655714D02*
X103571428Y-101322380D01*
X103333333Y-100274761D02*
X103095238Y-100989047D01*
X103714285Y-100989047D01*
%TO.C,J5*%
X117016519Y-82852139D02*
X117016519Y-83566740D01*
X116968879Y-83709660D01*
X116873599Y-83804940D01*
X116730679Y-83852580D01*
X116635399Y-83852580D01*
X117969320Y-82852139D02*
X117492920Y-82852139D01*
X117445280Y-83328539D01*
X117492920Y-83280899D01*
X117588200Y-83233259D01*
X117826400Y-83233259D01*
X117921680Y-83280899D01*
X117969320Y-83328539D01*
X118016960Y-83423820D01*
X118016960Y-83662020D01*
X117969320Y-83757300D01*
X117921680Y-83804940D01*
X117826400Y-83852580D01*
X117588200Y-83852580D01*
X117492920Y-83804940D01*
X117445280Y-83757300D01*
%TO.C,H5*%
X143988095Y-86952380D02*
X143988095Y-85952380D01*
X143988095Y-86428571D02*
X144559523Y-86428571D01*
X144559523Y-86952380D02*
X144559523Y-85952380D01*
X145511904Y-85952380D02*
X145035714Y-85952380D01*
X144988095Y-86428571D01*
X145035714Y-86380952D01*
X145130952Y-86333333D01*
X145369047Y-86333333D01*
X145464285Y-86380952D01*
X145511904Y-86428571D01*
X145559523Y-86523809D01*
X145559523Y-86761904D01*
X145511904Y-86857142D01*
X145464285Y-86904761D01*
X145369047Y-86952380D01*
X145130952Y-86952380D01*
X145035714Y-86904761D01*
X144988095Y-86857142D01*
%TO.C,H6*%
X143888095Y-111652380D02*
X143888095Y-110652380D01*
X143888095Y-111128571D02*
X144459523Y-111128571D01*
X144459523Y-111652380D02*
X144459523Y-110652380D01*
X145364285Y-110652380D02*
X145173809Y-110652380D01*
X145078571Y-110700000D01*
X145030952Y-110747619D01*
X144935714Y-110890476D01*
X144888095Y-111080952D01*
X144888095Y-111461904D01*
X144935714Y-111557142D01*
X144983333Y-111604761D01*
X145078571Y-111652380D01*
X145269047Y-111652380D01*
X145364285Y-111604761D01*
X145411904Y-111557142D01*
X145459523Y-111461904D01*
X145459523Y-111223809D01*
X145411904Y-111128571D01*
X145364285Y-111080952D01*
X145269047Y-111033333D01*
X145078571Y-111033333D01*
X144983333Y-111080952D01*
X144935714Y-111128571D01*
X144888095Y-111223809D01*
%TO.C,C2*%
X106757142Y-124466666D02*
X106804761Y-124514285D01*
X106852380Y-124657142D01*
X106852380Y-124752380D01*
X106804761Y-124895238D01*
X106709523Y-124990476D01*
X106614285Y-125038095D01*
X106423809Y-125085714D01*
X106280952Y-125085714D01*
X106090476Y-125038095D01*
X105995238Y-124990476D01*
X105900000Y-124895238D01*
X105852380Y-124752380D01*
X105852380Y-124657142D01*
X105900000Y-124514285D01*
X105947619Y-124466666D01*
X105947619Y-124085714D02*
X105900000Y-124038095D01*
X105852380Y-123942857D01*
X105852380Y-123704761D01*
X105900000Y-123609523D01*
X105947619Y-123561904D01*
X106042857Y-123514285D01*
X106138095Y-123514285D01*
X106280952Y-123561904D01*
X106852380Y-124133333D01*
X106852380Y-123514285D01*
%TO.C,J6*%
X158866666Y-100322380D02*
X158866666Y-101036666D01*
X158819047Y-101179523D01*
X158723809Y-101274761D01*
X158580952Y-101322380D01*
X158485714Y-101322380D01*
X159771428Y-100322380D02*
X159580952Y-100322380D01*
X159485714Y-100370000D01*
X159438095Y-100417619D01*
X159342857Y-100560476D01*
X159295238Y-100750952D01*
X159295238Y-101131904D01*
X159342857Y-101227142D01*
X159390476Y-101274761D01*
X159485714Y-101322380D01*
X159676190Y-101322380D01*
X159771428Y-101274761D01*
X159819047Y-101227142D01*
X159866666Y-101131904D01*
X159866666Y-100893809D01*
X159819047Y-100798571D01*
X159771428Y-100750952D01*
X159676190Y-100703333D01*
X159485714Y-100703333D01*
X159390476Y-100750952D01*
X159342857Y-100798571D01*
X159295238Y-100893809D01*
%TO.C,J7*%
X102666666Y-85597380D02*
X102666666Y-86311666D01*
X102619047Y-86454523D01*
X102523809Y-86549761D01*
X102380952Y-86597380D01*
X102285714Y-86597380D01*
X103047619Y-85597380D02*
X103714285Y-85597380D01*
X103285714Y-86597380D01*
%TO.C,J8*%
X137666519Y-129752139D02*
X137666519Y-130466740D01*
X137618879Y-130609660D01*
X137523599Y-130704940D01*
X137380679Y-130752580D01*
X137285399Y-130752580D01*
X138285840Y-130180899D02*
X138190560Y-130133259D01*
X138142920Y-130085619D01*
X138095280Y-129990339D01*
X138095280Y-129942699D01*
X138142920Y-129847419D01*
X138190560Y-129799779D01*
X138285840Y-129752139D01*
X138476400Y-129752139D01*
X138571680Y-129799779D01*
X138619320Y-129847419D01*
X138666960Y-129942699D01*
X138666960Y-129990339D01*
X138619320Y-130085619D01*
X138571680Y-130133259D01*
X138476400Y-130180899D01*
X138285840Y-130180899D01*
X138190560Y-130228539D01*
X138142920Y-130276179D01*
X138095280Y-130371460D01*
X138095280Y-130562020D01*
X138142920Y-130657300D01*
X138190560Y-130704940D01*
X138285840Y-130752580D01*
X138476400Y-130752580D01*
X138571680Y-130704940D01*
X138619320Y-130657300D01*
X138666960Y-130562020D01*
X138666960Y-130371460D01*
X138619320Y-130276179D01*
X138571680Y-130228539D01*
X138476400Y-130180899D01*
D13*
%TO.C,TB1*%
X125290000Y-132540000D02*
X107510000Y-132540000D01*
X107510000Y-132540000D02*
X107510000Y-89360000D01*
X107510000Y-89360000D02*
X125290000Y-89360000D01*
X125290000Y-89360000D02*
X125290000Y-132540000D01*
D14*
X106300000Y-93150000D02*
G75*
G03*
X106300000Y-93150000I-100000J0D01*
G01*
D15*
%TO.C,J3*%
X147330000Y-78370000D02*
X139590000Y-78370000D01*
X146000000Y-73170000D02*
X147330000Y-73170000D01*
X144730000Y-75770000D02*
X147330000Y-75770000D01*
X144730000Y-73170000D02*
X144730000Y-75770000D01*
X147330000Y-73170000D02*
X147330000Y-74500000D01*
X147330000Y-75770000D02*
X147330000Y-78370000D01*
X139590000Y-73170000D02*
X139590000Y-78370000D01*
X144730000Y-73170000D02*
X139590000Y-73170000D01*
%TO.C,J1*%
X128070000Y-85970000D02*
X129400000Y-85970000D01*
X128070000Y-87300000D02*
X128070000Y-85970000D01*
X128070000Y-111490000D02*
X130730000Y-111490000D01*
X128070000Y-88570000D02*
X130730000Y-88570000D01*
X130730000Y-88570000D02*
X130730000Y-111490000D01*
X128070000Y-88570000D02*
X128070000Y-111490000D01*
%TO.C,J2*%
X150395000Y-128990000D02*
X155595000Y-128990000D01*
X150395000Y-79400000D02*
X150395000Y-78070000D01*
X150395000Y-80670000D02*
X152995000Y-80670000D01*
X150395000Y-80670000D02*
X150395000Y-128990000D01*
X152995000Y-78070000D02*
X155595000Y-78070000D01*
X155595000Y-78070000D02*
X155595000Y-128990000D01*
X152995000Y-80670000D02*
X152995000Y-78070000D01*
X150395000Y-78070000D02*
X151725000Y-78070000D01*
%TO.C,C1*%
X128080000Y-78030000D02*
X135320000Y-78030000D01*
X128080000Y-78030000D02*
X128080000Y-80770000D01*
X135320000Y-78030000D02*
X135320000Y-80770000D01*
X128080000Y-80770000D02*
X135320000Y-80770000D01*
%TO.C,J4*%
X101670000Y-101870000D02*
X103000000Y-101870000D01*
X101670000Y-104470000D02*
X104330000Y-104470000D01*
X101670000Y-104470000D02*
X101670000Y-112150000D01*
X101670000Y-103200000D02*
X101670000Y-101870000D01*
X101670000Y-112150000D02*
X104330000Y-112150000D01*
X104330000Y-104470000D02*
X104330000Y-112150000D01*
D13*
%TO.C,J5*%
X121410000Y-87625750D02*
X121410000Y-88895750D01*
X109850000Y-67115750D02*
X109850000Y-85315750D01*
X116178000Y-85315750D02*
X119022000Y-85315750D01*
X125350000Y-85315750D02*
X125350000Y-67115750D01*
X109850000Y-85315750D02*
X111822000Y-85315750D01*
X125350000Y-85315750D02*
X123378000Y-85315750D01*
X121410000Y-87625750D02*
X121410000Y-86355750D01*
X125350000Y-67115750D02*
X109850000Y-67115750D01*
X120140000Y-87625750D02*
X121410000Y-87625750D01*
X122680000Y-87625750D02*
X121410000Y-87625750D01*
D15*
%TO.C,C2*%
X104040000Y-122729000D02*
X104819000Y-122729000D01*
X104040000Y-123530000D02*
X105216000Y-123530000D01*
X101805000Y-126119801D02*
X102205000Y-126119801D01*
X104040000Y-122689000D02*
X104787000Y-122689000D01*
X104040000Y-122609000D02*
X104716000Y-122609000D01*
X101150000Y-123690000D02*
X102360000Y-123690000D01*
X102830000Y-121969000D02*
X103570000Y-121969000D01*
X104040000Y-122929000D02*
X104960000Y-122929000D01*
X101684000Y-122609000D02*
X102360000Y-122609000D01*
X104040000Y-122569000D02*
X104678000Y-122569000D01*
X102000000Y-122329000D02*
X104400000Y-122329000D01*
X104040000Y-123169000D02*
X105089000Y-123169000D01*
X102120000Y-122249000D02*
X104280000Y-122249000D01*
X101896000Y-122409000D02*
X104504000Y-122409000D01*
X104040000Y-123209000D02*
X105107000Y-123209000D01*
X101232000Y-123370000D02*
X102360000Y-123370000D01*
X104040000Y-123890000D02*
X105274000Y-123890000D01*
X101492000Y-122849000D02*
X102360000Y-122849000D01*
X102058000Y-122289000D02*
X104342000Y-122289000D01*
X101849000Y-122449000D02*
X104551000Y-122449000D01*
X101260000Y-123289000D02*
X102360000Y-123289000D01*
X101121000Y-123970000D02*
X102360000Y-123970000D01*
X104040000Y-123049000D02*
X105030000Y-123049000D01*
X102187000Y-122209000D02*
X104213000Y-122209000D01*
X104040000Y-123249000D02*
X105124000Y-123249000D01*
X104040000Y-122529000D02*
X104638000Y-122529000D01*
X102432000Y-122089000D02*
X103968000Y-122089000D01*
X101330000Y-123129000D02*
X102360000Y-123129000D01*
X104040000Y-123770000D02*
X105262000Y-123770000D01*
X101349000Y-123089000D02*
X102360000Y-123089000D01*
X104040000Y-123610000D02*
X105234000Y-123610000D01*
X104040000Y-123690000D02*
X105250000Y-123690000D01*
X104040000Y-123450000D02*
X105194000Y-123450000D01*
X101195000Y-123490000D02*
X102360000Y-123490000D01*
X104040000Y-122769000D02*
X104850000Y-122769000D01*
X104040000Y-122649000D02*
X104752000Y-122649000D01*
X101138000Y-123770000D02*
X102360000Y-123770000D01*
X101133000Y-123810000D02*
X102360000Y-123810000D01*
X101804000Y-122489000D02*
X102360000Y-122489000D01*
X101581000Y-122729000D02*
X102360000Y-122729000D01*
X101722000Y-122569000D02*
X102360000Y-122569000D01*
X101158000Y-123650000D02*
X102360000Y-123650000D01*
X101166000Y-123610000D02*
X102360000Y-123610000D01*
X104040000Y-123570000D02*
X105225000Y-123570000D01*
X104040000Y-124050000D02*
X105280000Y-124050000D01*
X101311000Y-123169000D02*
X102360000Y-123169000D01*
X104040000Y-123370000D02*
X105168000Y-123370000D01*
X101126000Y-123890000D02*
X102360000Y-123890000D01*
X101946000Y-122369000D02*
X104454000Y-122369000D01*
X104040000Y-123289000D02*
X105140000Y-123289000D01*
X102005000Y-126319801D02*
X102005000Y-125919801D01*
X101415000Y-122969000D02*
X102360000Y-122969000D01*
X101648000Y-122649000D02*
X102360000Y-122649000D01*
X101276000Y-123249000D02*
X102360000Y-123249000D01*
X104040000Y-123930000D02*
X105277000Y-123930000D01*
X101762000Y-122529000D02*
X102360000Y-122529000D01*
X104040000Y-123009000D02*
X105008000Y-123009000D01*
X101370000Y-123049000D02*
X102360000Y-123049000D01*
X104040000Y-123089000D02*
X105051000Y-123089000D01*
X101392000Y-123009000D02*
X102360000Y-123009000D01*
X104040000Y-123970000D02*
X105279000Y-123970000D01*
X101184000Y-123530000D02*
X102360000Y-123530000D01*
X102536000Y-122049000D02*
X103864000Y-122049000D01*
X104040000Y-123490000D02*
X105205000Y-123490000D01*
X101120000Y-124050000D02*
X102360000Y-124050000D01*
X104040000Y-122489000D02*
X104596000Y-122489000D01*
X101550000Y-122769000D02*
X102360000Y-122769000D01*
X101175000Y-123570000D02*
X102360000Y-123570000D01*
X104040000Y-122809000D02*
X104880000Y-122809000D01*
X104040000Y-122889000D02*
X104935000Y-122889000D01*
X104040000Y-123650000D02*
X105242000Y-123650000D01*
X101129000Y-123850000D02*
X102360000Y-123850000D01*
X104040000Y-124010000D02*
X105280000Y-124010000D01*
X101246000Y-123329000D02*
X102360000Y-123329000D01*
X101293000Y-123209000D02*
X102360000Y-123209000D01*
X101465000Y-122889000D02*
X102360000Y-122889000D01*
X104040000Y-123850000D02*
X105271000Y-123850000D01*
X104040000Y-122969000D02*
X104985000Y-122969000D01*
X101520000Y-122809000D02*
X102360000Y-122809000D01*
X101144000Y-123730000D02*
X102360000Y-123730000D01*
X104040000Y-123410000D02*
X105182000Y-123410000D01*
X101218000Y-123410000D02*
X102360000Y-123410000D01*
X102341000Y-122129000D02*
X104059000Y-122129000D01*
X104040000Y-122849000D02*
X104908000Y-122849000D01*
X102260000Y-122169000D02*
X104140000Y-122169000D01*
X101613000Y-122689000D02*
X102360000Y-122689000D01*
X101123000Y-123930000D02*
X102360000Y-123930000D01*
X101120000Y-124010000D02*
X102360000Y-124010000D01*
X104040000Y-123810000D02*
X105267000Y-123810000D01*
X102663000Y-122009000D02*
X103737000Y-122009000D01*
X101440000Y-122929000D02*
X102360000Y-122929000D01*
X104040000Y-123730000D02*
X105256000Y-123730000D01*
X104040000Y-123129000D02*
X105070000Y-123129000D01*
X104040000Y-123329000D02*
X105154000Y-123329000D01*
X101206000Y-123450000D02*
X102360000Y-123450000D01*
X105320000Y-124050000D02*
G75*
G03*
X105320000Y-124050000I-2120000J0D01*
G01*
%TO.C,J6*%
X157870000Y-112150000D02*
X160530000Y-112150000D01*
X157870000Y-104470000D02*
X157870000Y-112150000D01*
X157870000Y-104470000D02*
X160530000Y-104470000D01*
X160530000Y-104470000D02*
X160530000Y-112150000D01*
X157870000Y-103200000D02*
X157870000Y-101870000D01*
X157870000Y-101870000D02*
X159200000Y-101870000D01*
%TO.C,J7*%
X101670000Y-94885000D02*
X104330000Y-94885000D01*
X101670000Y-88475000D02*
X101670000Y-87145000D01*
X104330000Y-89745000D02*
X104330000Y-94885000D01*
X101670000Y-89745000D02*
X104330000Y-89745000D01*
X101670000Y-89745000D02*
X101670000Y-94885000D01*
X101670000Y-87145000D02*
X103000000Y-87145000D01*
%TO.C,G\u002A\u002A\u002A*%
G36*
X137803853Y-78401053D02*
G01*
X137907373Y-78431243D01*
X137983671Y-78505449D01*
X138036659Y-78643216D01*
X138070250Y-78864092D01*
X138088355Y-79187620D01*
X138094886Y-79633348D01*
X138093754Y-80220820D01*
X138091980Y-80507766D01*
X138086759Y-81073242D01*
X138079204Y-81593357D01*
X138069941Y-82040204D01*
X138059593Y-82385876D01*
X138048786Y-82602463D01*
X138044023Y-82649833D01*
X138012130Y-82818461D01*
X137988418Y-82882666D01*
X137921142Y-82829744D01*
X137765353Y-82691500D01*
X137570708Y-82512613D01*
X137173333Y-82142560D01*
X137173333Y-80457119D01*
X137176495Y-79810983D01*
X137189095Y-79314694D01*
X137215803Y-78948829D01*
X137261291Y-78693969D01*
X137330229Y-78530693D01*
X137427288Y-78439580D01*
X137557138Y-78401210D01*
X137669200Y-78395333D01*
X137803853Y-78401053D01*
G37*
D16*
X137803853Y-78401053D02*
X137907373Y-78431243D01*
X137983671Y-78505449D01*
X138036659Y-78643216D01*
X138070250Y-78864092D01*
X138088355Y-79187620D01*
X138094886Y-79633348D01*
X138093754Y-80220820D01*
X138091980Y-80507766D01*
X138086759Y-81073242D01*
X138079204Y-81593357D01*
X138069941Y-82040204D01*
X138059593Y-82385876D01*
X138048786Y-82602463D01*
X138044023Y-82649833D01*
X138012130Y-82818461D01*
X137988418Y-82882666D01*
X137921142Y-82829744D01*
X137765353Y-82691500D01*
X137570708Y-82512613D01*
X137173333Y-82142560D01*
X137173333Y-80457119D01*
X137176495Y-79810983D01*
X137189095Y-79314694D01*
X137215803Y-78948829D01*
X137261291Y-78693969D01*
X137330229Y-78530693D01*
X137427288Y-78439580D01*
X137557138Y-78401210D01*
X137669200Y-78395333D01*
X137803853Y-78401053D01*
G36*
X135303741Y-85124894D02*
G01*
X135760294Y-85276870D01*
X136106801Y-85556117D01*
X136265998Y-85791423D01*
X136323387Y-85907575D01*
X136368432Y-86030770D01*
X136403154Y-86183451D01*
X136429577Y-86388065D01*
X136449722Y-86667054D01*
X136465613Y-87042864D01*
X136479272Y-87537939D01*
X136492721Y-88174722D01*
X136496000Y-88343666D01*
X136538333Y-90545000D01*
X137171189Y-90570260D01*
X137600387Y-90609432D01*
X137884766Y-90694215D01*
X138045430Y-90836408D01*
X138103483Y-91047816D01*
X138104666Y-91092273D01*
X138059044Y-91330401D01*
X137984330Y-91481318D01*
X137903746Y-91561221D01*
X137779827Y-91610509D01*
X137575072Y-91636161D01*
X137251976Y-91645159D01*
X137101446Y-91645666D01*
X136712133Y-91639265D01*
X136447503Y-91614884D01*
X136263215Y-91564760D01*
X136114927Y-91481129D01*
X136099949Y-91470315D01*
X135944597Y-91347117D01*
X135822523Y-91217743D01*
X135729740Y-91060948D01*
X135662261Y-90855490D01*
X135616100Y-90580126D01*
X135587270Y-90213614D01*
X135571784Y-89734711D01*
X135565655Y-89122173D01*
X135564798Y-88618833D01*
X135564048Y-87967076D01*
X135560842Y-87463396D01*
X135553609Y-87086539D01*
X135540778Y-86815253D01*
X135520776Y-86628283D01*
X135492032Y-86504376D01*
X135452975Y-86422278D01*
X135402033Y-86360736D01*
X135397486Y-86356153D01*
X135188496Y-86206730D01*
X135014843Y-86134896D01*
X134780200Y-86131356D01*
X134514223Y-86200329D01*
X134296591Y-86316325D01*
X134229350Y-86386191D01*
X134212617Y-86491741D01*
X134194829Y-86745074D01*
X134176822Y-87124650D01*
X134159434Y-87608931D01*
X134143500Y-88176377D01*
X134129859Y-88805447D01*
X134125333Y-89063333D01*
X134083000Y-91645666D01*
X133750650Y-91634692D01*
X133598929Y-91626923D01*
X133477634Y-91603278D01*
X133383358Y-91546604D01*
X133312698Y-91439745D01*
X133262248Y-91265547D01*
X133228605Y-91006856D01*
X133208363Y-90646518D01*
X133198118Y-90167378D01*
X133194465Y-89552282D01*
X133194000Y-88830013D01*
X133194698Y-88108734D01*
X133197633Y-87535656D01*
X133204059Y-87089652D01*
X133215235Y-86749594D01*
X133232415Y-86494352D01*
X133256858Y-86302798D01*
X133289818Y-86153804D01*
X133332554Y-86026241D01*
X133365498Y-85946362D01*
X133597353Y-85562217D01*
X133917963Y-85300429D01*
X134347981Y-85148233D01*
X134735464Y-85099431D01*
X135303741Y-85124894D01*
G37*
X135303741Y-85124894D02*
X135760294Y-85276870D01*
X136106801Y-85556117D01*
X136265998Y-85791423D01*
X136323387Y-85907575D01*
X136368432Y-86030770D01*
X136403154Y-86183451D01*
X136429577Y-86388065D01*
X136449722Y-86667054D01*
X136465613Y-87042864D01*
X136479272Y-87537939D01*
X136492721Y-88174722D01*
X136496000Y-88343666D01*
X136538333Y-90545000D01*
X137171189Y-90570260D01*
X137600387Y-90609432D01*
X137884766Y-90694215D01*
X138045430Y-90836408D01*
X138103483Y-91047816D01*
X138104666Y-91092273D01*
X138059044Y-91330401D01*
X137984330Y-91481318D01*
X137903746Y-91561221D01*
X137779827Y-91610509D01*
X137575072Y-91636161D01*
X137251976Y-91645159D01*
X137101446Y-91645666D01*
X136712133Y-91639265D01*
X136447503Y-91614884D01*
X136263215Y-91564760D01*
X136114927Y-91481129D01*
X136099949Y-91470315D01*
X135944597Y-91347117D01*
X135822523Y-91217743D01*
X135729740Y-91060948D01*
X135662261Y-90855490D01*
X135616100Y-90580126D01*
X135587270Y-90213614D01*
X135571784Y-89734711D01*
X135565655Y-89122173D01*
X135564798Y-88618833D01*
X135564048Y-87967076D01*
X135560842Y-87463396D01*
X135553609Y-87086539D01*
X135540778Y-86815253D01*
X135520776Y-86628283D01*
X135492032Y-86504376D01*
X135452975Y-86422278D01*
X135402033Y-86360736D01*
X135397486Y-86356153D01*
X135188496Y-86206730D01*
X135014843Y-86134896D01*
X134780200Y-86131356D01*
X134514223Y-86200329D01*
X134296591Y-86316325D01*
X134229350Y-86386191D01*
X134212617Y-86491741D01*
X134194829Y-86745074D01*
X134176822Y-87124650D01*
X134159434Y-87608931D01*
X134143500Y-88176377D01*
X134129859Y-88805447D01*
X134125333Y-89063333D01*
X134083000Y-91645666D01*
X133750650Y-91634692D01*
X133598929Y-91626923D01*
X133477634Y-91603278D01*
X133383358Y-91546604D01*
X133312698Y-91439745D01*
X133262248Y-91265547D01*
X133228605Y-91006856D01*
X133208363Y-90646518D01*
X133198118Y-90167378D01*
X133194465Y-89552282D01*
X133194000Y-88830013D01*
X133194698Y-88108734D01*
X133197633Y-87535656D01*
X133204059Y-87089652D01*
X133215235Y-86749594D01*
X133232415Y-86494352D01*
X133256858Y-86302798D01*
X133289818Y-86153804D01*
X133332554Y-86026241D01*
X133365498Y-85946362D01*
X133597353Y-85562217D01*
X133917963Y-85300429D01*
X134347981Y-85148233D01*
X134735464Y-85099431D01*
X135303741Y-85124894D01*
G36*
X135330358Y-92546638D02*
G01*
X135710157Y-92686811D01*
X135890410Y-92814928D01*
X136052914Y-92968213D01*
X136180801Y-93104618D01*
X136278637Y-93246283D01*
X136350987Y-93415352D01*
X136402417Y-93633965D01*
X136437492Y-93924265D01*
X136460777Y-94308393D01*
X136476838Y-94808492D01*
X136490240Y-95446702D01*
X136496000Y-95752000D01*
X136538333Y-97995666D01*
X137240145Y-98038000D01*
X137633944Y-98072362D01*
X137887645Y-98129781D01*
X138030381Y-98227454D01*
X138091286Y-98382576D01*
X138100795Y-98546000D01*
X138065331Y-98774047D01*
X138013218Y-98905833D01*
X137946942Y-98976456D01*
X137825316Y-99020872D01*
X137614585Y-99044670D01*
X137280994Y-99053443D01*
X137118696Y-99054000D01*
X136721007Y-99048614D01*
X136449056Y-99027508D01*
X136259448Y-98983261D01*
X136108792Y-98908452D01*
X136054990Y-98872080D01*
X135912812Y-98760223D01*
X135800982Y-98636598D01*
X135715892Y-98480422D01*
X135653935Y-98270913D01*
X135611504Y-97987286D01*
X135584990Y-97608760D01*
X135570788Y-97114551D01*
X135565289Y-96483877D01*
X135564666Y-96047204D01*
X135564666Y-93966303D01*
X135356848Y-93758485D01*
X135082198Y-93584914D01*
X134844999Y-93550666D01*
X134521979Y-93619759D01*
X134333151Y-93758485D01*
X134125333Y-93966303D01*
X134125333Y-99054000D01*
X133747312Y-99054000D01*
X133480272Y-99032569D01*
X133329930Y-98956905D01*
X133281645Y-98890233D01*
X133256746Y-98759592D01*
X133235977Y-98485893D01*
X133219361Y-98095362D01*
X133206922Y-97614224D01*
X133198682Y-97068703D01*
X133194664Y-96485027D01*
X133194891Y-95889420D01*
X133199386Y-95308108D01*
X133208171Y-94767315D01*
X133221269Y-94293268D01*
X133238704Y-93912193D01*
X133260498Y-93650314D01*
X133276999Y-93556481D01*
X133437559Y-93228815D01*
X133702426Y-92914314D01*
X134015026Y-92678987D01*
X134040666Y-92665423D01*
X134441208Y-92531547D01*
X134889240Y-92493418D01*
X135330358Y-92546638D01*
G37*
X135330358Y-92546638D02*
X135710157Y-92686811D01*
X135890410Y-92814928D01*
X136052914Y-92968213D01*
X136180801Y-93104618D01*
X136278637Y-93246283D01*
X136350987Y-93415352D01*
X136402417Y-93633965D01*
X136437492Y-93924265D01*
X136460777Y-94308393D01*
X136476838Y-94808492D01*
X136490240Y-95446702D01*
X136496000Y-95752000D01*
X136538333Y-97995666D01*
X137240145Y-98038000D01*
X137633944Y-98072362D01*
X137887645Y-98129781D01*
X138030381Y-98227454D01*
X138091286Y-98382576D01*
X138100795Y-98546000D01*
X138065331Y-98774047D01*
X138013218Y-98905833D01*
X137946942Y-98976456D01*
X137825316Y-99020872D01*
X137614585Y-99044670D01*
X137280994Y-99053443D01*
X137118696Y-99054000D01*
X136721007Y-99048614D01*
X136449056Y-99027508D01*
X136259448Y-98983261D01*
X136108792Y-98908452D01*
X136054990Y-98872080D01*
X135912812Y-98760223D01*
X135800982Y-98636598D01*
X135715892Y-98480422D01*
X135653935Y-98270913D01*
X135611504Y-97987286D01*
X135584990Y-97608760D01*
X135570788Y-97114551D01*
X135565289Y-96483877D01*
X135564666Y-96047204D01*
X135564666Y-93966303D01*
X135356848Y-93758485D01*
X135082198Y-93584914D01*
X134844999Y-93550666D01*
X134521979Y-93619759D01*
X134333151Y-93758485D01*
X134125333Y-93966303D01*
X134125333Y-99054000D01*
X133747312Y-99054000D01*
X133480272Y-99032569D01*
X133329930Y-98956905D01*
X133281645Y-98890233D01*
X133256746Y-98759592D01*
X133235977Y-98485893D01*
X133219361Y-98095362D01*
X133206922Y-97614224D01*
X133198682Y-97068703D01*
X133194664Y-96485027D01*
X133194891Y-95889420D01*
X133199386Y-95308108D01*
X133208171Y-94767315D01*
X133221269Y-94293268D01*
X133238704Y-93912193D01*
X133260498Y-93650314D01*
X133276999Y-93556481D01*
X133437559Y-93228815D01*
X133702426Y-92914314D01*
X134015026Y-92678987D01*
X134040666Y-92665423D01*
X134441208Y-92531547D01*
X134889240Y-92493418D01*
X135330358Y-92546638D01*
G36*
X137403284Y-84626421D02*
G01*
X137427333Y-84660666D01*
X137497533Y-84841408D01*
X137504752Y-84914666D01*
X137480578Y-84965297D01*
X137427333Y-84872333D01*
X137363841Y-84692829D01*
X137355824Y-84600213D01*
X137403284Y-84626421D01*
G37*
X137403284Y-84626421D02*
X137427333Y-84660666D01*
X137497533Y-84841408D01*
X137504752Y-84914666D01*
X137480578Y-84965297D01*
X137427333Y-84872333D01*
X137363841Y-84692829D01*
X137355824Y-84600213D01*
X137403284Y-84626421D01*
G36*
X136188447Y-83588541D02*
G01*
X136313427Y-83902375D01*
X136369955Y-84097011D01*
X136362545Y-84206061D01*
X136295713Y-84263134D01*
X136279931Y-84269640D01*
X136151444Y-84287590D01*
X135886093Y-84302888D01*
X135516342Y-84314383D01*
X135074653Y-84320927D01*
X134801789Y-84322000D01*
X134241345Y-84318255D01*
X133828031Y-84302360D01*
X133539722Y-84267325D01*
X133354296Y-84206159D01*
X133249626Y-84111871D01*
X133203589Y-83977472D01*
X133194000Y-83814000D01*
X133206366Y-83635079D01*
X133258360Y-83503653D01*
X133372324Y-83412496D01*
X133570601Y-83354387D01*
X133875534Y-83322100D01*
X134309465Y-83308412D01*
X134765244Y-83306000D01*
X136070394Y-83306000D01*
X136188447Y-83588541D01*
G37*
X136188447Y-83588541D02*
X136313427Y-83902375D01*
X136369955Y-84097011D01*
X136362545Y-84206061D01*
X136295713Y-84263134D01*
X136279931Y-84269640D01*
X136151444Y-84287590D01*
X135886093Y-84302888D01*
X135516342Y-84314383D01*
X135074653Y-84320927D01*
X134801789Y-84322000D01*
X134241345Y-84318255D01*
X133828031Y-84302360D01*
X133539722Y-84267325D01*
X133354296Y-84206159D01*
X133249626Y-84111871D01*
X133203589Y-83977472D01*
X133194000Y-83814000D01*
X133206366Y-83635079D01*
X133258360Y-83503653D01*
X133372324Y-83412496D01*
X133570601Y-83354387D01*
X133875534Y-83322100D01*
X134309465Y-83308412D01*
X134765244Y-83306000D01*
X136070394Y-83306000D01*
X136188447Y-83588541D01*
G36*
X133791927Y-100035021D02*
G01*
X133956000Y-100154666D01*
X134010145Y-100217737D01*
X134051356Y-100299290D01*
X134081388Y-100421432D01*
X134101998Y-100606272D01*
X134114940Y-100875914D01*
X134121971Y-101252467D01*
X134124846Y-101758036D01*
X134125333Y-102286935D01*
X134126425Y-102922584D01*
X134130885Y-103413133D01*
X134140486Y-103782809D01*
X134157001Y-104055836D01*
X134182206Y-104256441D01*
X134217873Y-104408850D01*
X134265777Y-104537289D01*
X134294674Y-104599682D01*
X134433802Y-104806861D01*
X134630480Y-105007638D01*
X134844470Y-105171642D01*
X135035533Y-105268501D01*
X135163433Y-105267842D01*
X135171164Y-105261280D01*
X135185878Y-105165158D01*
X135199100Y-104922617D01*
X135210275Y-104556569D01*
X135218851Y-104089924D01*
X135224273Y-103545594D01*
X135226000Y-102993822D01*
X135226881Y-102291705D01*
X135231639Y-101740658D01*
X135243444Y-101322418D01*
X135265464Y-101018724D01*
X135300870Y-100811314D01*
X135352832Y-100681925D01*
X135424520Y-100612296D01*
X135519103Y-100584164D01*
X135639752Y-100579268D01*
X135645100Y-100579296D01*
X135780315Y-100582120D01*
X135886803Y-100600909D01*
X135968238Y-100653861D01*
X136028295Y-100759170D01*
X136070648Y-100935032D01*
X136098972Y-101199642D01*
X136116942Y-101571197D01*
X136128232Y-102067891D01*
X136136517Y-102707920D01*
X136140053Y-103030150D01*
X136148814Y-103632891D01*
X136160863Y-104176203D01*
X136175381Y-104638288D01*
X136191546Y-104997346D01*
X136208538Y-105231579D01*
X136225537Y-105319187D01*
X136226233Y-105319333D01*
X136328106Y-105275596D01*
X136511348Y-105165738D01*
X136591245Y-105112837D01*
X136762264Y-104987436D01*
X136896161Y-104856500D01*
X136997450Y-104698393D01*
X137070644Y-104491478D01*
X137120254Y-104214120D01*
X137150794Y-103844684D01*
X137166776Y-103361533D01*
X137172714Y-102743031D01*
X137173333Y-102322038D01*
X137174077Y-101687455D01*
X137177450Y-101200324D01*
X137185161Y-100838765D01*
X137198919Y-100580899D01*
X137220434Y-100404845D01*
X137251415Y-100288725D01*
X137293571Y-100210659D01*
X137342666Y-100154666D01*
X137568426Y-100005707D01*
X137811636Y-100016014D01*
X137940899Y-100072979D01*
X137990798Y-100107514D01*
X138029268Y-100164459D01*
X138057681Y-100263848D01*
X138077408Y-100425716D01*
X138089822Y-100670097D01*
X138096294Y-101017026D01*
X138098198Y-101486537D01*
X138096904Y-102098664D01*
X138096000Y-102337812D01*
X138091274Y-102942076D01*
X138082518Y-103502026D01*
X138070484Y-103991698D01*
X138055926Y-104385128D01*
X138039595Y-104656352D01*
X138025497Y-104769000D01*
X137819119Y-105276503D01*
X137477960Y-105723587D01*
X137034414Y-106076802D01*
X136547831Y-106294907D01*
X135911671Y-106412355D01*
X135290823Y-106394246D01*
X134709828Y-106251198D01*
X134193226Y-105993827D01*
X133765558Y-105632747D01*
X133451363Y-105178574D01*
X133340427Y-104907444D01*
X133290443Y-104668528D01*
X133249510Y-104308238D01*
X133217707Y-103854225D01*
X133195111Y-103334142D01*
X133181798Y-102775638D01*
X133177845Y-102206366D01*
X133183331Y-101653977D01*
X133198333Y-101146120D01*
X133222927Y-100710449D01*
X133257191Y-100374614D01*
X133301203Y-100166266D01*
X133327047Y-100118381D01*
X133549363Y-99997060D01*
X133791927Y-100035021D01*
G37*
X133791927Y-100035021D02*
X133956000Y-100154666D01*
X134010145Y-100217737D01*
X134051356Y-100299290D01*
X134081388Y-100421432D01*
X134101998Y-100606272D01*
X134114940Y-100875914D01*
X134121971Y-101252467D01*
X134124846Y-101758036D01*
X134125333Y-102286935D01*
X134126425Y-102922584D01*
X134130885Y-103413133D01*
X134140486Y-103782809D01*
X134157001Y-104055836D01*
X134182206Y-104256441D01*
X134217873Y-104408850D01*
X134265777Y-104537289D01*
X134294674Y-104599682D01*
X134433802Y-104806861D01*
X134630480Y-105007638D01*
X134844470Y-105171642D01*
X135035533Y-105268501D01*
X135163433Y-105267842D01*
X135171164Y-105261280D01*
X135185878Y-105165158D01*
X135199100Y-104922617D01*
X135210275Y-104556569D01*
X135218851Y-104089924D01*
X135224273Y-103545594D01*
X135226000Y-102993822D01*
X135226881Y-102291705D01*
X135231639Y-101740658D01*
X135243444Y-101322418D01*
X135265464Y-101018724D01*
X135300870Y-100811314D01*
X135352832Y-100681925D01*
X135424520Y-100612296D01*
X135519103Y-100584164D01*
X135639752Y-100579268D01*
X135645100Y-100579296D01*
X135780315Y-100582120D01*
X135886803Y-100600909D01*
X135968238Y-100653861D01*
X136028295Y-100759170D01*
X136070648Y-100935032D01*
X136098972Y-101199642D01*
X136116942Y-101571197D01*
X136128232Y-102067891D01*
X136136517Y-102707920D01*
X136140053Y-103030150D01*
X136148814Y-103632891D01*
X136160863Y-104176203D01*
X136175381Y-104638288D01*
X136191546Y-104997346D01*
X136208538Y-105231579D01*
X136225537Y-105319187D01*
X136226233Y-105319333D01*
X136328106Y-105275596D01*
X136511348Y-105165738D01*
X136591245Y-105112837D01*
X136762264Y-104987436D01*
X136896161Y-104856500D01*
X136997450Y-104698393D01*
X137070644Y-104491478D01*
X137120254Y-104214120D01*
X137150794Y-103844684D01*
X137166776Y-103361533D01*
X137172714Y-102743031D01*
X137173333Y-102322038D01*
X137174077Y-101687455D01*
X137177450Y-101200324D01*
X137185161Y-100838765D01*
X137198919Y-100580899D01*
X137220434Y-100404845D01*
X137251415Y-100288725D01*
X137293571Y-100210659D01*
X137342666Y-100154666D01*
X137568426Y-100005707D01*
X137811636Y-100016014D01*
X137940899Y-100072979D01*
X137990798Y-100107514D01*
X138029268Y-100164459D01*
X138057681Y-100263848D01*
X138077408Y-100425716D01*
X138089822Y-100670097D01*
X138096294Y-101017026D01*
X138098198Y-101486537D01*
X138096904Y-102098664D01*
X138096000Y-102337812D01*
X138091274Y-102942076D01*
X138082518Y-103502026D01*
X138070484Y-103991698D01*
X138055926Y-104385128D01*
X138039595Y-104656352D01*
X138025497Y-104769000D01*
X137819119Y-105276503D01*
X137477960Y-105723587D01*
X137034414Y-106076802D01*
X136547831Y-106294907D01*
X135911671Y-106412355D01*
X135290823Y-106394246D01*
X134709828Y-106251198D01*
X134193226Y-105993827D01*
X133765558Y-105632747D01*
X133451363Y-105178574D01*
X133340427Y-104907444D01*
X133290443Y-104668528D01*
X133249510Y-104308238D01*
X133217707Y-103854225D01*
X133195111Y-103334142D01*
X133181798Y-102775638D01*
X133177845Y-102206366D01*
X133183331Y-101653977D01*
X133198333Y-101146120D01*
X133222927Y-100710449D01*
X133257191Y-100374614D01*
X133301203Y-100166266D01*
X133327047Y-100118381D01*
X133549363Y-99997060D01*
X133791927Y-100035021D01*
G36*
X136035721Y-80516479D02*
G01*
X136036938Y-80517481D01*
X136148545Y-80653180D01*
X136291876Y-80882759D01*
X136385256Y-81057015D01*
X136523781Y-81318666D01*
X136649006Y-81530411D01*
X136706906Y-81612666D01*
X136804809Y-81774464D01*
X136908600Y-82009896D01*
X136925673Y-82056459D01*
X137067523Y-82313246D01*
X137287028Y-82568005D01*
X137364621Y-82636129D01*
X137576748Y-82825098D01*
X137717014Y-83014437D01*
X137825558Y-83268091D01*
X137891432Y-83475333D01*
X137919122Y-83590087D01*
X137890141Y-83607413D01*
X137780843Y-83519280D01*
X137645045Y-83391645D01*
X137447178Y-83220513D01*
X137327732Y-83167977D01*
X137265367Y-83209413D01*
X137136207Y-83295949D01*
X136951559Y-83334382D01*
X136728379Y-83378285D01*
X136614113Y-83507772D01*
X136575403Y-83761585D01*
X136575056Y-83771666D01*
X136566853Y-84025666D01*
X136438084Y-83729833D01*
X136346617Y-83315075D01*
X136358706Y-83073655D01*
X136367510Y-82825301D01*
X136322685Y-82530764D01*
X136216110Y-82145486D01*
X136155715Y-81959999D01*
X136032428Y-81546011D01*
X135947687Y-81167756D01*
X135903569Y-80850455D01*
X135902151Y-80619328D01*
X135945510Y-80499596D01*
X136035721Y-80516479D01*
G37*
X136035721Y-80516479D02*
X136036938Y-80517481D01*
X136148545Y-80653180D01*
X136291876Y-80882759D01*
X136385256Y-81057015D01*
X136523781Y-81318666D01*
X136649006Y-81530411D01*
X136706906Y-81612666D01*
X136804809Y-81774464D01*
X136908600Y-82009896D01*
X136925673Y-82056459D01*
X137067523Y-82313246D01*
X137287028Y-82568005D01*
X137364621Y-82636129D01*
X137576748Y-82825098D01*
X137717014Y-83014437D01*
X137825558Y-83268091D01*
X137891432Y-83475333D01*
X137919122Y-83590087D01*
X137890141Y-83607413D01*
X137780843Y-83519280D01*
X137645045Y-83391645D01*
X137447178Y-83220513D01*
X137327732Y-83167977D01*
X137265367Y-83209413D01*
X137136207Y-83295949D01*
X136951559Y-83334382D01*
X136728379Y-83378285D01*
X136614113Y-83507772D01*
X136575403Y-83761585D01*
X136575056Y-83771666D01*
X136566853Y-84025666D01*
X136438084Y-83729833D01*
X136346617Y-83315075D01*
X136358706Y-83073655D01*
X136367510Y-82825301D01*
X136322685Y-82530764D01*
X136216110Y-82145486D01*
X136155715Y-81959999D01*
X136032428Y-81546011D01*
X135947687Y-81167756D01*
X135903569Y-80850455D01*
X135902151Y-80619328D01*
X135945510Y-80499596D01*
X136035721Y-80516479D01*
G36*
X137583995Y-85132181D02*
G01*
X137589982Y-85218055D01*
X137569305Y-85308398D01*
X137538829Y-85269208D01*
X137528736Y-85136884D01*
X137545513Y-85106930D01*
X137583995Y-85132181D01*
G37*
X137583995Y-85132181D02*
X137589982Y-85218055D01*
X137569305Y-85308398D01*
X137538829Y-85269208D01*
X137528736Y-85136884D01*
X137545513Y-85106930D01*
X137583995Y-85132181D01*
G36*
X137681998Y-85429722D02*
G01*
X137702959Y-85532700D01*
X137759907Y-85770330D01*
X137845407Y-86113593D01*
X137952023Y-86533471D01*
X138072321Y-87000943D01*
X138198866Y-87486990D01*
X138324223Y-87962594D01*
X138440958Y-88398735D01*
X138471949Y-88513000D01*
X138805579Y-89817774D01*
X139124327Y-91216874D01*
X139421288Y-92671333D01*
X139689561Y-94142184D01*
X139922241Y-95590461D01*
X140112426Y-96977196D01*
X140253212Y-98263423D01*
X140301861Y-98842333D01*
X140362444Y-99992986D01*
X140374158Y-101120677D01*
X140337137Y-102171699D01*
X140292202Y-102737000D01*
X140169029Y-103597396D01*
X139979516Y-104413341D01*
X139733640Y-105156036D01*
X139441377Y-105796678D01*
X139112702Y-106306467D01*
X139016065Y-106421217D01*
X138844840Y-106581378D01*
X138626960Y-106747104D01*
X138406866Y-106889551D01*
X138229001Y-106979876D01*
X138138931Y-106990487D01*
X138177398Y-106926836D01*
X138323681Y-106817408D01*
X138392845Y-106774696D01*
X138621383Y-106599157D01*
X138861449Y-106354450D01*
X138957346Y-106235034D01*
X139272161Y-105740755D01*
X139525028Y-105187537D01*
X139721203Y-104554169D01*
X139865940Y-103819434D01*
X139964495Y-102962120D01*
X140022123Y-101961013D01*
X140023130Y-101932666D01*
X140039184Y-101064175D01*
X140026085Y-100167132D01*
X139982123Y-99229562D01*
X139905588Y-98239488D01*
X139794771Y-97184937D01*
X139647962Y-96053932D01*
X139463450Y-94834498D01*
X139239528Y-93514660D01*
X138974483Y-92082443D01*
X138666608Y-90525870D01*
X138314191Y-88832966D01*
X137915525Y-86991757D01*
X137843159Y-86663731D01*
X137753508Y-86240398D01*
X137684286Y-85878074D01*
X137640829Y-85607693D01*
X137628470Y-85460184D01*
X137632657Y-85443120D01*
X137681472Y-85425439D01*
X137681998Y-85429722D01*
G37*
X137681998Y-85429722D02*
X137702959Y-85532700D01*
X137759907Y-85770330D01*
X137845407Y-86113593D01*
X137952023Y-86533471D01*
X138072321Y-87000943D01*
X138198866Y-87486990D01*
X138324223Y-87962594D01*
X138440958Y-88398735D01*
X138471949Y-88513000D01*
X138805579Y-89817774D01*
X139124327Y-91216874D01*
X139421288Y-92671333D01*
X139689561Y-94142184D01*
X139922241Y-95590461D01*
X140112426Y-96977196D01*
X140253212Y-98263423D01*
X140301861Y-98842333D01*
X140362444Y-99992986D01*
X140374158Y-101120677D01*
X140337137Y-102171699D01*
X140292202Y-102737000D01*
X140169029Y-103597396D01*
X139979516Y-104413341D01*
X139733640Y-105156036D01*
X139441377Y-105796678D01*
X139112702Y-106306467D01*
X139016065Y-106421217D01*
X138844840Y-106581378D01*
X138626960Y-106747104D01*
X138406866Y-106889551D01*
X138229001Y-106979876D01*
X138138931Y-106990487D01*
X138177398Y-106926836D01*
X138323681Y-106817408D01*
X138392845Y-106774696D01*
X138621383Y-106599157D01*
X138861449Y-106354450D01*
X138957346Y-106235034D01*
X139272161Y-105740755D01*
X139525028Y-105187537D01*
X139721203Y-104554169D01*
X139865940Y-103819434D01*
X139964495Y-102962120D01*
X140022123Y-101961013D01*
X140023130Y-101932666D01*
X140039184Y-101064175D01*
X140026085Y-100167132D01*
X139982123Y-99229562D01*
X139905588Y-98239488D01*
X139794771Y-97184937D01*
X139647962Y-96053932D01*
X139463450Y-94834498D01*
X139239528Y-93514660D01*
X138974483Y-92082443D01*
X138666608Y-90525870D01*
X138314191Y-88832966D01*
X137915525Y-86991757D01*
X137843159Y-86663731D01*
X137753508Y-86240398D01*
X137684286Y-85878074D01*
X137640829Y-85607693D01*
X137628470Y-85460184D01*
X137632657Y-85443120D01*
X137681472Y-85425439D01*
X137681998Y-85429722D01*
D13*
%TO.C,J8*%
X130250000Y-114450000D02*
X132222000Y-114450000D01*
X134190000Y-112140000D02*
X134190000Y-110870000D01*
X145750000Y-114450000D02*
X143778000Y-114450000D01*
X139422000Y-114450000D02*
X136578000Y-114450000D01*
X130250000Y-114450000D02*
X130250000Y-132650000D01*
X130250000Y-132650000D02*
X145750000Y-132650000D01*
X134190000Y-112140000D02*
X134190000Y-113410000D01*
X145750000Y-132650000D02*
X145750000Y-114450000D01*
X132920000Y-112140000D02*
X134190000Y-112140000D01*
X135460000Y-112140000D02*
X134190000Y-112140000D01*
%TD*%
M02*
