%TF.GenerationSoftware,KiCad,Pcbnew,(6.0.4)*%
%TF.CreationDate,2022-09-08T01:36:39-04:00*%
%TF.ProjectId,Pi_HAT,50695f48-4154-42e6-9b69-6361645f7063,rev?*%
%TF.SameCoordinates,Original*%
%TF.FileFunction,Legend,Bot*%
%TF.FilePolarity,Positive*%
%FSLAX46Y46*%
G04 Gerber Fmt 4.6, Leading zero omitted, Abs format (unit mm)*
G04 Created by KiCad (PCBNEW (6.0.4)) date 2022-09-08 01:36:39*
%MOMM*%
%LPD*%
G01*
G04 APERTURE LIST*
%ADD10C,0.150000*%
%ADD11C,0.127000*%
G04 APERTURE END LIST*
D10*
%TO.C,VR1*%
X133560482Y-81701980D02*
X133226905Y-82702712D01*
X132893327Y-81701980D01*
X131987903Y-82702712D02*
X132321480Y-82226173D01*
X132559750Y-82702712D02*
X132559750Y-81701980D01*
X132178519Y-81701980D01*
X132083211Y-81749634D01*
X132035557Y-81797287D01*
X131987903Y-81892595D01*
X131987903Y-82035557D01*
X132035557Y-82130865D01*
X132083211Y-82178519D01*
X132178519Y-82226173D01*
X132559750Y-82226173D01*
X131034825Y-82702712D02*
X131606672Y-82702712D01*
X131320748Y-82702712D02*
X131320748Y-81701980D01*
X131416056Y-81844941D01*
X131511364Y-81940249D01*
X131606672Y-81987903D01*
%TO.C,VR2*%
X133560482Y-94951980D02*
X133226905Y-95952712D01*
X132893327Y-94951980D01*
X131987903Y-95952712D02*
X132321480Y-95476173D01*
X132559750Y-95952712D02*
X132559750Y-94951980D01*
X132178519Y-94951980D01*
X132083211Y-94999634D01*
X132035557Y-95047287D01*
X131987903Y-95142595D01*
X131987903Y-95285557D01*
X132035557Y-95380865D01*
X132083211Y-95428519D01*
X132178519Y-95476173D01*
X132559750Y-95476173D01*
X131606672Y-95047287D02*
X131559018Y-94999634D01*
X131463710Y-94951980D01*
X131225441Y-94951980D01*
X131130133Y-94999634D01*
X131082479Y-95047287D01*
X131034825Y-95142595D01*
X131034825Y-95237903D01*
X131082479Y-95380865D01*
X131654326Y-95952712D01*
X131034825Y-95952712D01*
%TO.C,VR3*%
X118810482Y-124151980D02*
X118476905Y-125152712D01*
X118143327Y-124151980D01*
X117237903Y-125152712D02*
X117571480Y-124676173D01*
X117809750Y-125152712D02*
X117809750Y-124151980D01*
X117428519Y-124151980D01*
X117333211Y-124199634D01*
X117285557Y-124247287D01*
X117237903Y-124342595D01*
X117237903Y-124485557D01*
X117285557Y-124580865D01*
X117333211Y-124628519D01*
X117428519Y-124676173D01*
X117809750Y-124676173D01*
X116904326Y-124151980D02*
X116284825Y-124151980D01*
X116618402Y-124533211D01*
X116475441Y-124533211D01*
X116380133Y-124580865D01*
X116332479Y-124628519D01*
X116284825Y-124723826D01*
X116284825Y-124962096D01*
X116332479Y-125057404D01*
X116380133Y-125105058D01*
X116475441Y-125152712D01*
X116761364Y-125152712D01*
X116856672Y-125105058D01*
X116904326Y-125057404D01*
D11*
%TO.C,VR1*%
X134350000Y-91750000D02*
X135235400Y-91750000D01*
X135235400Y-81750000D02*
X134350000Y-81750000D01*
X134350000Y-81750000D02*
X134350000Y-91750000D01*
X131527000Y-90687000D02*
G75*
G03*
X131527000Y-90687000I-127000J0D01*
G01*
%TO.C,VR2*%
X135235400Y-95000000D02*
X134350000Y-95000000D01*
X134350000Y-105000000D02*
X135235400Y-105000000D01*
X134350000Y-95000000D02*
X134350000Y-105000000D01*
X131527000Y-103937000D02*
G75*
G03*
X131527000Y-103937000I-127000J0D01*
G01*
%TO.C,VR3*%
X122500000Y-125650000D02*
X122500000Y-124764600D01*
X112500000Y-125650000D02*
X122500000Y-125650000D01*
X112500000Y-124764600D02*
X112500000Y-125650000D01*
X121564000Y-128600000D02*
G75*
G03*
X121564000Y-128600000I-127000J0D01*
G01*
%TD*%
M02*
