%TF.GenerationSoftware,KiCad,Pcbnew,6.0.8-f2edbf62ab~116~ubuntu22.04.1*%
%TF.CreationDate,2022-11-20T23:04:20-05:00*%
%TF.ProjectId,Pi_HAT_Simple_V3,50695f48-4154-45f5-9369-6d706c655f56,rev?*%
%TF.SameCoordinates,Original*%
%TF.FileFunction,Soldermask,Top*%
%TF.FilePolarity,Negative*%
%FSLAX46Y46*%
G04 Gerber Fmt 4.6, Leading zero omitted, Abs format (unit mm)*
G04 Created by KiCad (PCBNEW 6.0.8-f2edbf62ab~116~ubuntu22.04.1) date 2022-11-20 23:04:20*
%MOMM*%
%LPD*%
G01*
G04 APERTURE LIST*
%ADD10R,1.700000X1.700000*%
%ADD11O,1.700000X1.700000*%
%ADD12C,2.500000*%
%ADD13R,3.716000X3.716000*%
%ADD14C,3.716000*%
%ADD15O,1.200000X2.400000*%
%ADD16R,4.000000X4.000000*%
G04 APERTURE END LIST*
D10*
%TO.C,J2*%
X151000000Y-79400000D03*
D11*
X153540000Y-79400000D03*
X151000000Y-81940000D03*
X153540000Y-81940000D03*
X151000000Y-84480000D03*
X153540000Y-84480000D03*
X151000000Y-87020000D03*
X153540000Y-87020000D03*
X151000000Y-89560000D03*
X153540000Y-89560000D03*
X151000000Y-92100000D03*
X153540000Y-92100000D03*
X151000000Y-94640000D03*
X153540000Y-94640000D03*
X151000000Y-97180000D03*
X153540000Y-97180000D03*
X151000000Y-99720000D03*
X153540000Y-99720000D03*
X151000000Y-102260000D03*
X153540000Y-102260000D03*
X151000000Y-104800000D03*
X153540000Y-104800000D03*
X151000000Y-107340000D03*
X153540000Y-107340000D03*
X151000000Y-109880000D03*
X153540000Y-109880000D03*
X151000000Y-112420000D03*
X153540000Y-112420000D03*
X151000000Y-114960000D03*
X153540000Y-114960000D03*
X151000000Y-117500000D03*
X153540000Y-117500000D03*
X151000000Y-120040000D03*
X153540000Y-120040000D03*
X151000000Y-122580000D03*
X153540000Y-122580000D03*
X151000000Y-125120000D03*
X153540000Y-125120000D03*
X151000000Y-127660000D03*
X153540000Y-127660000D03*
%TD*%
D10*
%TO.C,J3*%
X132425000Y-73425000D03*
D11*
X132425000Y-70885000D03*
X134965000Y-73425000D03*
X134965000Y-70885000D03*
X137505000Y-73425000D03*
X137505000Y-70885000D03*
%TD*%
D12*
%TO.C,H1*%
X152500000Y-74500000D03*
%TD*%
%TO.C,H2*%
X102500000Y-74500000D03*
%TD*%
%TO.C,H3*%
X102500000Y-132500000D03*
%TD*%
D10*
%TO.C,J1*%
X98000000Y-107200000D03*
D11*
X98000000Y-109740000D03*
X98000000Y-112280000D03*
X98000000Y-114820000D03*
X98000000Y-117360000D03*
X98000000Y-119900000D03*
%TD*%
D12*
%TO.C,H4*%
X152500000Y-132500000D03*
%TD*%
D13*
%TO.C,J4*%
X117100000Y-81600000D03*
D14*
X109900000Y-81600000D03*
D15*
X120250000Y-75600000D03*
X106750000Y-75600000D03*
%TD*%
D10*
%TO.C,J5*%
X95100000Y-73550000D03*
D11*
X95100000Y-76090000D03*
X95100000Y-78630000D03*
%TD*%
%TO.C,J6*%
X103220000Y-66950000D03*
X100680000Y-66950000D03*
X98140000Y-66950000D03*
D10*
X95600000Y-66950000D03*
%TD*%
D11*
%TO.C,J8*%
X158150000Y-96620000D03*
X158150000Y-94080000D03*
X158150000Y-91540000D03*
D10*
X158150000Y-89000000D03*
%TD*%
D11*
%TO.C,J9*%
X96600000Y-96620000D03*
X96600000Y-94080000D03*
X96600000Y-91540000D03*
D10*
X96600000Y-89000000D03*
%TD*%
D16*
%TO.C,U1*%
X141852000Y-132236000D03*
X122400000Y-132350000D03*
X141900000Y-87600000D03*
X122400000Y-87600000D03*
%TD*%
M02*
