%TF.GenerationSoftware,KiCad,Pcbnew,6.0.8-f2edbf62ab~116~ubuntu22.04.1*%
%TF.CreationDate,2022-11-20T23:04:20-05:00*%
%TF.ProjectId,Pi_HAT_Simple_V3,50695f48-4154-45f5-9369-6d706c655f56,rev?*%
%TF.SameCoordinates,Original*%
%TF.FileFunction,Legend,Bot*%
%TF.FilePolarity,Positive*%
%FSLAX46Y46*%
G04 Gerber Fmt 4.6, Leading zero omitted, Abs format (unit mm)*
G04 Created by KiCad (PCBNEW 6.0.8-f2edbf62ab~116~ubuntu22.04.1) date 2022-11-20 23:04:20*
%MOMM*%
%LPD*%
G01*
G04 APERTURE LIST*
%ADD10C,0.150000*%
%ADD11C,0.120000*%
%ADD12C,0.200000*%
%ADD13C,0.127000*%
G04 APERTURE END LIST*
D10*
%TO.C,U1*%
X135447619Y-110361904D02*
X134638095Y-110361904D01*
X134542857Y-110314285D01*
X134495238Y-110266666D01*
X134447619Y-110171428D01*
X134447619Y-109980952D01*
X134495238Y-109885714D01*
X134542857Y-109838095D01*
X134638095Y-109790476D01*
X135447619Y-109790476D01*
X134447619Y-108790476D02*
X134447619Y-109361904D01*
X134447619Y-109076190D02*
X135447619Y-109076190D01*
X135304761Y-109171428D01*
X135209523Y-109266666D01*
X135161904Y-109361904D01*
%TO.C,U2*%
X142049404Y-105239380D02*
X142049404Y-106048904D01*
X142001785Y-106144142D01*
X141954166Y-106191761D01*
X141858928Y-106239380D01*
X141668452Y-106239380D01*
X141573214Y-106191761D01*
X141525595Y-106144142D01*
X141477976Y-106048904D01*
X141477976Y-105239380D01*
X141049404Y-105334619D02*
X141001785Y-105287000D01*
X140906547Y-105239380D01*
X140668452Y-105239380D01*
X140573214Y-105287000D01*
X140525595Y-105334619D01*
X140477976Y-105429857D01*
X140477976Y-105525095D01*
X140525595Y-105667952D01*
X141097023Y-106239380D01*
X140477976Y-106239380D01*
D11*
%TO.C,U1*%
X145900000Y-135600000D02*
X118400000Y-135600000D01*
X118400000Y-135600000D02*
X118400000Y-84600000D01*
X118400000Y-84600000D02*
X145900000Y-84600000D01*
X145900000Y-84600000D02*
X145900000Y-135600000D01*
D12*
%TO.C,U2*%
X137707500Y-104955000D02*
G75*
G03*
X137707500Y-104955000I-100000J0D01*
G01*
D13*
X140012500Y-104975000D02*
X143912500Y-104975000D01*
X140012500Y-94845000D02*
X143912500Y-94845000D01*
%TD*%
M02*
