%TF.GenerationSoftware,KiCad,Pcbnew,6.0.8-f2edbf62ab~116~ubuntu22.04.1*%
%TF.CreationDate,2022-11-20T23:04:20-05:00*%
%TF.ProjectId,Pi_HAT_Simple_V3,50695f48-4154-45f5-9369-6d706c655f56,rev?*%
%TF.SameCoordinates,Original*%
%TF.FileFunction,Legend,Top*%
%TF.FilePolarity,Positive*%
%FSLAX46Y46*%
G04 Gerber Fmt 4.6, Leading zero omitted, Abs format (unit mm)*
G04 Created by KiCad (PCBNEW 6.0.8-f2edbf62ab~116~ubuntu22.04.1) date 2022-11-20 23:04:20*
%MOMM*%
%LPD*%
G01*
G04 APERTURE LIST*
%ADD10C,0.100000*%
%ADD11C,0.150000*%
%ADD12C,0.250000*%
%ADD13C,0.010000*%
%ADD14C,0.120000*%
%ADD15C,0.127000*%
G04 APERTURE END LIST*
D10*
X161152380Y-94795238D02*
X161176190Y-94723809D01*
X161176190Y-94604761D01*
X161152380Y-94557142D01*
X161128571Y-94533333D01*
X161080952Y-94509523D01*
X161033333Y-94509523D01*
X160985714Y-94533333D01*
X160961904Y-94557142D01*
X160938095Y-94604761D01*
X160914285Y-94700000D01*
X160890476Y-94747619D01*
X160866666Y-94771428D01*
X160819047Y-94795238D01*
X160771428Y-94795238D01*
X160723809Y-94771428D01*
X160700000Y-94747619D01*
X160676190Y-94700000D01*
X160676190Y-94580952D01*
X160700000Y-94509523D01*
X161128571Y-94009523D02*
X161152380Y-94033333D01*
X161176190Y-94104761D01*
X161176190Y-94152380D01*
X161152380Y-94223809D01*
X161104761Y-94271428D01*
X161057142Y-94295238D01*
X160961904Y-94319047D01*
X160890476Y-94319047D01*
X160795238Y-94295238D01*
X160747619Y-94271428D01*
X160700000Y-94223809D01*
X160676190Y-94152380D01*
X160676190Y-94104761D01*
X160700000Y-94033333D01*
X160723809Y-94009523D01*
X161176190Y-93557142D02*
X161176190Y-93795238D01*
X160676190Y-93795238D01*
X161076190Y-89309523D02*
X161076190Y-89595238D01*
X161076190Y-89452380D02*
X160576190Y-89452380D01*
X160647619Y-89500000D01*
X160695238Y-89547619D01*
X160719047Y-89595238D01*
X160623809Y-89119047D02*
X160600000Y-89095238D01*
X160576190Y-89047619D01*
X160576190Y-88928571D01*
X160600000Y-88880952D01*
X160623809Y-88857142D01*
X160671428Y-88833333D01*
X160719047Y-88833333D01*
X160790476Y-88857142D01*
X161076190Y-89142857D01*
X161076190Y-88833333D01*
X160576190Y-88690476D02*
X161076190Y-88523809D01*
X160576190Y-88357142D01*
X160600000Y-91980952D02*
X160576190Y-92028571D01*
X160576190Y-92100000D01*
X160600000Y-92171428D01*
X160647619Y-92219047D01*
X160695238Y-92242857D01*
X160790476Y-92266666D01*
X160861904Y-92266666D01*
X160957142Y-92242857D01*
X161004761Y-92219047D01*
X161052380Y-92171428D01*
X161076190Y-92100000D01*
X161076190Y-92052380D01*
X161052380Y-91980952D01*
X161028571Y-91957142D01*
X160861904Y-91957142D01*
X160861904Y-92052380D01*
X161076190Y-91742857D02*
X160576190Y-91742857D01*
X161076190Y-91457142D01*
X160576190Y-91457142D01*
X161076190Y-91219047D02*
X160576190Y-91219047D01*
X160576190Y-91100000D01*
X160600000Y-91028571D01*
X160647619Y-90980952D01*
X160695238Y-90957142D01*
X160790476Y-90933333D01*
X160861904Y-90933333D01*
X160957142Y-90957142D01*
X161004761Y-90980952D01*
X161052380Y-91028571D01*
X161076190Y-91100000D01*
X161076190Y-91219047D01*
X161152380Y-97507142D02*
X161176190Y-97435714D01*
X161176190Y-97316666D01*
X161152380Y-97269047D01*
X161128571Y-97245238D01*
X161080952Y-97221428D01*
X161033333Y-97221428D01*
X160985714Y-97245238D01*
X160961904Y-97269047D01*
X160938095Y-97316666D01*
X160914285Y-97411904D01*
X160890476Y-97459523D01*
X160866666Y-97483333D01*
X160819047Y-97507142D01*
X160771428Y-97507142D01*
X160723809Y-97483333D01*
X160700000Y-97459523D01*
X160676190Y-97411904D01*
X160676190Y-97292857D01*
X160700000Y-97221428D01*
X161176190Y-97007142D02*
X160676190Y-97007142D01*
X160676190Y-96888095D01*
X160700000Y-96816666D01*
X160747619Y-96769047D01*
X160795238Y-96745238D01*
X160890476Y-96721428D01*
X160961904Y-96721428D01*
X161057142Y-96745238D01*
X161104761Y-96769047D01*
X161152380Y-96816666D01*
X161176190Y-96888095D01*
X161176190Y-97007142D01*
X161033333Y-96530952D02*
X161033333Y-96292857D01*
X161176190Y-96578571D02*
X160676190Y-96411904D01*
X161176190Y-96245238D01*
D11*
X107754761Y-120323809D02*
X105754761Y-120323809D01*
X107183333Y-119657142D01*
X105754761Y-118990476D01*
X107754761Y-118990476D01*
X107754761Y-118038095D02*
X105754761Y-118038095D01*
X105754761Y-117276190D01*
X105850000Y-117085714D01*
X105945238Y-116990476D01*
X106135714Y-116895238D01*
X106421428Y-116895238D01*
X106611904Y-116990476D01*
X106707142Y-117085714D01*
X106802380Y-117276190D01*
X106802380Y-118038095D01*
X105754761Y-116038095D02*
X107373809Y-116038095D01*
X107564285Y-115942857D01*
X107659523Y-115847619D01*
X107754761Y-115657142D01*
X107754761Y-115276190D01*
X107659523Y-115085714D01*
X107564285Y-114990476D01*
X107373809Y-114895238D01*
X105754761Y-114895238D01*
X105754761Y-113085714D02*
X105754761Y-113466666D01*
X105850000Y-113657142D01*
X105945238Y-113752380D01*
X106230952Y-113942857D01*
X106611904Y-114038095D01*
X107373809Y-114038095D01*
X107564285Y-113942857D01*
X107659523Y-113847619D01*
X107754761Y-113657142D01*
X107754761Y-113276190D01*
X107659523Y-113085714D01*
X107564285Y-112990476D01*
X107373809Y-112895238D01*
X106897619Y-112895238D01*
X106707142Y-112990476D01*
X106611904Y-113085714D01*
X106516666Y-113276190D01*
X106516666Y-113657142D01*
X106611904Y-113847619D01*
X106707142Y-113942857D01*
X106897619Y-114038095D01*
X105754761Y-111657142D02*
X105754761Y-111466666D01*
X105850000Y-111276190D01*
X105945238Y-111180952D01*
X106135714Y-111085714D01*
X106516666Y-110990476D01*
X106992857Y-110990476D01*
X107373809Y-111085714D01*
X107564285Y-111180952D01*
X107659523Y-111276190D01*
X107754761Y-111466666D01*
X107754761Y-111657142D01*
X107659523Y-111847619D01*
X107564285Y-111942857D01*
X107373809Y-112038095D01*
X106992857Y-112133333D01*
X106516666Y-112133333D01*
X106135714Y-112038095D01*
X105945238Y-111942857D01*
X105850000Y-111847619D01*
X105754761Y-111657142D01*
X105754761Y-109180952D02*
X105754761Y-110133333D01*
X106707142Y-110228571D01*
X106611904Y-110133333D01*
X106516666Y-109942857D01*
X106516666Y-109466666D01*
X106611904Y-109276190D01*
X106707142Y-109180952D01*
X106897619Y-109085714D01*
X107373809Y-109085714D01*
X107564285Y-109180952D01*
X107659523Y-109276190D01*
X107754761Y-109466666D01*
X107754761Y-109942857D01*
X107659523Y-110133333D01*
X107564285Y-110228571D01*
X105754761Y-107847619D02*
X105754761Y-107657142D01*
X105850000Y-107466666D01*
X105945238Y-107371428D01*
X106135714Y-107276190D01*
X106516666Y-107180952D01*
X106992857Y-107180952D01*
X107373809Y-107276190D01*
X107564285Y-107371428D01*
X107659523Y-107466666D01*
X107754761Y-107657142D01*
X107754761Y-107847619D01*
X107659523Y-108038095D01*
X107564285Y-108133333D01*
X107373809Y-108228571D01*
X106992857Y-108323809D01*
X106516666Y-108323809D01*
X106135714Y-108228571D01*
X105945238Y-108133333D01*
X105850000Y-108038095D01*
X105754761Y-107847619D01*
D10*
X131761904Y-75826190D02*
X132071428Y-75826190D01*
X131904761Y-76016666D01*
X131976190Y-76016666D01*
X132023809Y-76040476D01*
X132047619Y-76064285D01*
X132071428Y-76111904D01*
X132071428Y-76230952D01*
X132047619Y-76278571D01*
X132023809Y-76302380D01*
X131976190Y-76326190D01*
X131833333Y-76326190D01*
X131785714Y-76302380D01*
X131761904Y-76278571D01*
X132285714Y-76278571D02*
X132309523Y-76302380D01*
X132285714Y-76326190D01*
X132261904Y-76302380D01*
X132285714Y-76278571D01*
X132285714Y-76326190D01*
X132476190Y-75826190D02*
X132785714Y-75826190D01*
X132619047Y-76016666D01*
X132690476Y-76016666D01*
X132738095Y-76040476D01*
X132761904Y-76064285D01*
X132785714Y-76111904D01*
X132785714Y-76230952D01*
X132761904Y-76278571D01*
X132738095Y-76302380D01*
X132690476Y-76326190D01*
X132547619Y-76326190D01*
X132500000Y-76302380D01*
X132476190Y-76278571D01*
X132928571Y-75826190D02*
X133095238Y-76326190D01*
X133261904Y-75826190D01*
X132304761Y-68126190D02*
X132066666Y-68126190D01*
X132042857Y-68364285D01*
X132066666Y-68340476D01*
X132114285Y-68316666D01*
X132233333Y-68316666D01*
X132280952Y-68340476D01*
X132304761Y-68364285D01*
X132328571Y-68411904D01*
X132328571Y-68530952D01*
X132304761Y-68578571D01*
X132280952Y-68602380D01*
X132233333Y-68626190D01*
X132114285Y-68626190D01*
X132066666Y-68602380D01*
X132042857Y-68578571D01*
X132471428Y-68126190D02*
X132638095Y-68626190D01*
X132804761Y-68126190D01*
X94050000Y-91119047D02*
X94073809Y-91071428D01*
X94073809Y-91000000D01*
X94050000Y-90928571D01*
X94002380Y-90880952D01*
X93954761Y-90857142D01*
X93859523Y-90833333D01*
X93788095Y-90833333D01*
X93692857Y-90857142D01*
X93645238Y-90880952D01*
X93597619Y-90928571D01*
X93573809Y-91000000D01*
X93573809Y-91047619D01*
X93597619Y-91119047D01*
X93621428Y-91142857D01*
X93788095Y-91142857D01*
X93788095Y-91047619D01*
X93573809Y-91357142D02*
X94073809Y-91357142D01*
X93573809Y-91642857D01*
X94073809Y-91642857D01*
X93573809Y-91880952D02*
X94073809Y-91880952D01*
X94073809Y-92000000D01*
X94050000Y-92071428D01*
X94002380Y-92119047D01*
X93954761Y-92142857D01*
X93859523Y-92166666D01*
X93788095Y-92166666D01*
X93692857Y-92142857D01*
X93645238Y-92119047D01*
X93597619Y-92071428D01*
X93573809Y-92000000D01*
X93573809Y-91880952D01*
X93573809Y-88740476D02*
X93573809Y-88454761D01*
X93573809Y-88597619D02*
X94073809Y-88597619D01*
X94002380Y-88550000D01*
X93954761Y-88502380D01*
X93930952Y-88454761D01*
X94026190Y-88930952D02*
X94050000Y-88954761D01*
X94073809Y-89002380D01*
X94073809Y-89121428D01*
X94050000Y-89169047D01*
X94026190Y-89192857D01*
X93978571Y-89216666D01*
X93930952Y-89216666D01*
X93859523Y-89192857D01*
X93573809Y-88907142D01*
X93573809Y-89216666D01*
X94073809Y-89359523D02*
X93573809Y-89526190D01*
X94073809Y-89692857D01*
X93597619Y-96092857D02*
X93573809Y-96164285D01*
X93573809Y-96283333D01*
X93597619Y-96330952D01*
X93621428Y-96354761D01*
X93669047Y-96378571D01*
X93716666Y-96378571D01*
X93764285Y-96354761D01*
X93788095Y-96330952D01*
X93811904Y-96283333D01*
X93835714Y-96188095D01*
X93859523Y-96140476D01*
X93883333Y-96116666D01*
X93930952Y-96092857D01*
X93978571Y-96092857D01*
X94026190Y-96116666D01*
X94050000Y-96140476D01*
X94073809Y-96188095D01*
X94073809Y-96307142D01*
X94050000Y-96378571D01*
X93573809Y-96592857D02*
X94073809Y-96592857D01*
X94073809Y-96711904D01*
X94050000Y-96783333D01*
X94002380Y-96830952D01*
X93954761Y-96854761D01*
X93859523Y-96878571D01*
X93788095Y-96878571D01*
X93692857Y-96854761D01*
X93645238Y-96830952D01*
X93597619Y-96783333D01*
X93573809Y-96711904D01*
X93573809Y-96592857D01*
X93716666Y-97069047D02*
X93716666Y-97307142D01*
X93573809Y-97021428D02*
X94073809Y-97188095D01*
X93573809Y-97354761D01*
X93597619Y-93504761D02*
X93573809Y-93576190D01*
X93573809Y-93695238D01*
X93597619Y-93742857D01*
X93621428Y-93766666D01*
X93669047Y-93790476D01*
X93716666Y-93790476D01*
X93764285Y-93766666D01*
X93788095Y-93742857D01*
X93811904Y-93695238D01*
X93835714Y-93600000D01*
X93859523Y-93552380D01*
X93883333Y-93528571D01*
X93930952Y-93504761D01*
X93978571Y-93504761D01*
X94026190Y-93528571D01*
X94050000Y-93552380D01*
X94073809Y-93600000D01*
X94073809Y-93719047D01*
X94050000Y-93790476D01*
X93621428Y-94290476D02*
X93597619Y-94266666D01*
X93573809Y-94195238D01*
X93573809Y-94147619D01*
X93597619Y-94076190D01*
X93645238Y-94028571D01*
X93692857Y-94004761D01*
X93788095Y-93980952D01*
X93859523Y-93980952D01*
X93954761Y-94004761D01*
X94002380Y-94028571D01*
X94050000Y-94076190D01*
X94073809Y-94147619D01*
X94073809Y-94195238D01*
X94050000Y-94266666D01*
X94026190Y-94290476D01*
X93573809Y-94742857D02*
X93573809Y-94504761D01*
X94073809Y-94504761D01*
D12*
X125867857Y-78002976D02*
X125867857Y-76752976D01*
X126344047Y-76752976D01*
X126463095Y-76812500D01*
X126522619Y-76872023D01*
X126582142Y-76991071D01*
X126582142Y-77169642D01*
X126522619Y-77288690D01*
X126463095Y-77348214D01*
X126344047Y-77407738D01*
X125867857Y-77407738D01*
X127117857Y-78002976D02*
X127117857Y-76752976D01*
X128665476Y-78002976D02*
X128665476Y-76752976D01*
X128665476Y-77348214D02*
X129379761Y-77348214D01*
X129379761Y-78002976D02*
X129379761Y-76752976D01*
X129915476Y-77645833D02*
X130510714Y-77645833D01*
X129796428Y-78002976D02*
X130213095Y-76752976D01*
X130629761Y-78002976D01*
X130867857Y-76752976D02*
X131582142Y-76752976D01*
X131225000Y-78002976D02*
X131225000Y-76752976D01*
X132772619Y-76752976D02*
X133189285Y-78002976D01*
X133605952Y-76752976D01*
X133903571Y-76752976D02*
X134677380Y-76752976D01*
X134260714Y-77229166D01*
X134439285Y-77229166D01*
X134558333Y-77288690D01*
X134617857Y-77348214D01*
X134677380Y-77467261D01*
X134677380Y-77764880D01*
X134617857Y-77883928D01*
X134558333Y-77943452D01*
X134439285Y-78002976D01*
X134082142Y-78002976D01*
X133963095Y-77943452D01*
X133903571Y-77883928D01*
X136820238Y-78002976D02*
X136105952Y-78002976D01*
X136463095Y-78002976D02*
X136463095Y-76752976D01*
X136344047Y-76931547D01*
X136225000Y-77050595D01*
X136105952Y-77110119D01*
X137594047Y-76752976D02*
X137713095Y-76752976D01*
X137832142Y-76812500D01*
X137891666Y-76872023D01*
X137951190Y-76991071D01*
X138010714Y-77229166D01*
X138010714Y-77526785D01*
X137951190Y-77764880D01*
X137891666Y-77883928D01*
X137832142Y-77943452D01*
X137713095Y-78002976D01*
X137594047Y-78002976D01*
X137475000Y-77943452D01*
X137415476Y-77883928D01*
X137355952Y-77764880D01*
X137296428Y-77526785D01*
X137296428Y-77229166D01*
X137355952Y-76991071D01*
X137415476Y-76872023D01*
X137475000Y-76812500D01*
X137594047Y-76752976D01*
X139439285Y-76693452D02*
X138367857Y-78300595D01*
X139796428Y-76872023D02*
X139855952Y-76812500D01*
X139975000Y-76752976D01*
X140272619Y-76752976D01*
X140391666Y-76812500D01*
X140451190Y-76872023D01*
X140510714Y-76991071D01*
X140510714Y-77110119D01*
X140451190Y-77288690D01*
X139736904Y-78002976D01*
X140510714Y-78002976D01*
X141701190Y-78002976D02*
X140986904Y-78002976D01*
X141344047Y-78002976D02*
X141344047Y-76752976D01*
X141225000Y-76931547D01*
X141105952Y-77050595D01*
X140986904Y-77110119D01*
X143129761Y-76693452D02*
X142058333Y-78300595D01*
X143486904Y-76872023D02*
X143546428Y-76812500D01*
X143665476Y-76752976D01*
X143963095Y-76752976D01*
X144082142Y-76812500D01*
X144141666Y-76872023D01*
X144201190Y-76991071D01*
X144201190Y-77110119D01*
X144141666Y-77288690D01*
X143427380Y-78002976D01*
X144201190Y-78002976D01*
X144677380Y-76872023D02*
X144736904Y-76812500D01*
X144855952Y-76752976D01*
X145153571Y-76752976D01*
X145272619Y-76812500D01*
X145332142Y-76872023D01*
X145391666Y-76991071D01*
X145391666Y-77110119D01*
X145332142Y-77288690D01*
X144617857Y-78002976D01*
X145391666Y-78002976D01*
X128397619Y-79360714D02*
X128814285Y-79360714D01*
X128992857Y-80015476D02*
X128397619Y-80015476D01*
X128397619Y-78765476D01*
X128992857Y-78765476D01*
X129469047Y-79658333D02*
X130064285Y-79658333D01*
X129350000Y-80015476D02*
X129766666Y-78765476D01*
X130183333Y-80015476D01*
X130540476Y-79955952D02*
X130719047Y-80015476D01*
X131016666Y-80015476D01*
X131135714Y-79955952D01*
X131195238Y-79896428D01*
X131254761Y-79777380D01*
X131254761Y-79658333D01*
X131195238Y-79539285D01*
X131135714Y-79479761D01*
X131016666Y-79420238D01*
X130778571Y-79360714D01*
X130659523Y-79301190D01*
X130600000Y-79241666D01*
X130540476Y-79122619D01*
X130540476Y-79003571D01*
X130600000Y-78884523D01*
X130659523Y-78825000D01*
X130778571Y-78765476D01*
X131076190Y-78765476D01*
X131254761Y-78825000D01*
X132028571Y-79420238D02*
X132028571Y-80015476D01*
X131611904Y-78765476D02*
X132028571Y-79420238D01*
X132445238Y-78765476D01*
X134528571Y-79896428D02*
X134469047Y-79955952D01*
X134290476Y-80015476D01*
X134171428Y-80015476D01*
X133992857Y-79955952D01*
X133873809Y-79836904D01*
X133814285Y-79717857D01*
X133754761Y-79479761D01*
X133754761Y-79301190D01*
X133814285Y-79063095D01*
X133873809Y-78944047D01*
X133992857Y-78825000D01*
X134171428Y-78765476D01*
X134290476Y-78765476D01*
X134469047Y-78825000D01*
X134528571Y-78884523D01*
X135302380Y-78765476D02*
X135540476Y-78765476D01*
X135659523Y-78825000D01*
X135778571Y-78944047D01*
X135838095Y-79182142D01*
X135838095Y-79598809D01*
X135778571Y-79836904D01*
X135659523Y-79955952D01*
X135540476Y-80015476D01*
X135302380Y-80015476D01*
X135183333Y-79955952D01*
X135064285Y-79836904D01*
X135004761Y-79598809D01*
X135004761Y-79182142D01*
X135064285Y-78944047D01*
X135183333Y-78825000D01*
X135302380Y-78765476D01*
X136373809Y-80015476D02*
X136373809Y-78765476D01*
X137088095Y-80015476D01*
X137088095Y-78765476D01*
X137504761Y-78765476D02*
X138219047Y-78765476D01*
X137861904Y-80015476D02*
X137861904Y-78765476D01*
X139350000Y-80015476D02*
X138933333Y-79420238D01*
X138635714Y-80015476D02*
X138635714Y-78765476D01*
X139111904Y-78765476D01*
X139230952Y-78825000D01*
X139290476Y-78884523D01*
X139350000Y-79003571D01*
X139350000Y-79182142D01*
X139290476Y-79301190D01*
X139230952Y-79360714D01*
X139111904Y-79420238D01*
X138635714Y-79420238D01*
X140123809Y-78765476D02*
X140361904Y-78765476D01*
X140480952Y-78825000D01*
X140600000Y-78944047D01*
X140659523Y-79182142D01*
X140659523Y-79598809D01*
X140600000Y-79836904D01*
X140480952Y-79955952D01*
X140361904Y-80015476D01*
X140123809Y-80015476D01*
X140004761Y-79955952D01*
X139885714Y-79836904D01*
X139826190Y-79598809D01*
X139826190Y-79182142D01*
X139885714Y-78944047D01*
X140004761Y-78825000D01*
X140123809Y-78765476D01*
X141790476Y-80015476D02*
X141195238Y-80015476D01*
X141195238Y-78765476D01*
X142147619Y-79955952D02*
X142326190Y-80015476D01*
X142623809Y-80015476D01*
X142742857Y-79955952D01*
X142802380Y-79896428D01*
X142861904Y-79777380D01*
X142861904Y-79658333D01*
X142802380Y-79539285D01*
X142742857Y-79479761D01*
X142623809Y-79420238D01*
X142385714Y-79360714D01*
X142266666Y-79301190D01*
X142207142Y-79241666D01*
X142147619Y-79122619D01*
X142147619Y-79003571D01*
X142207142Y-78884523D01*
X142266666Y-78825000D01*
X142385714Y-78765476D01*
X142683333Y-78765476D01*
X142861904Y-78825000D01*
X123100000Y-82027976D02*
X123100000Y-80777976D01*
X123397619Y-80777976D01*
X123576190Y-80837500D01*
X123695238Y-80956547D01*
X123754761Y-81075595D01*
X123814285Y-81313690D01*
X123814285Y-81492261D01*
X123754761Y-81730357D01*
X123695238Y-81849404D01*
X123576190Y-81968452D01*
X123397619Y-82027976D01*
X123100000Y-82027976D01*
X124826190Y-81968452D02*
X124707142Y-82027976D01*
X124469047Y-82027976D01*
X124350000Y-81968452D01*
X124290476Y-81849404D01*
X124290476Y-81373214D01*
X124350000Y-81254166D01*
X124469047Y-81194642D01*
X124707142Y-81194642D01*
X124826190Y-81254166D01*
X124885714Y-81373214D01*
X124885714Y-81492261D01*
X124290476Y-81611309D01*
X125361904Y-81968452D02*
X125480952Y-82027976D01*
X125719047Y-82027976D01*
X125838095Y-81968452D01*
X125897619Y-81849404D01*
X125897619Y-81789880D01*
X125838095Y-81670833D01*
X125719047Y-81611309D01*
X125540476Y-81611309D01*
X125421428Y-81551785D01*
X125361904Y-81432738D01*
X125361904Y-81373214D01*
X125421428Y-81254166D01*
X125540476Y-81194642D01*
X125719047Y-81194642D01*
X125838095Y-81254166D01*
X126433333Y-82027976D02*
X126433333Y-81194642D01*
X126433333Y-80777976D02*
X126373809Y-80837500D01*
X126433333Y-80897023D01*
X126492857Y-80837500D01*
X126433333Y-80777976D01*
X126433333Y-80897023D01*
X127564285Y-81194642D02*
X127564285Y-82206547D01*
X127504761Y-82325595D01*
X127445238Y-82385119D01*
X127326190Y-82444642D01*
X127147619Y-82444642D01*
X127028571Y-82385119D01*
X127564285Y-81968452D02*
X127445238Y-82027976D01*
X127207142Y-82027976D01*
X127088095Y-81968452D01*
X127028571Y-81908928D01*
X126969047Y-81789880D01*
X126969047Y-81432738D01*
X127028571Y-81313690D01*
X127088095Y-81254166D01*
X127207142Y-81194642D01*
X127445238Y-81194642D01*
X127564285Y-81254166D01*
X128159523Y-81194642D02*
X128159523Y-82027976D01*
X128159523Y-81313690D02*
X128219047Y-81254166D01*
X128338095Y-81194642D01*
X128516666Y-81194642D01*
X128635714Y-81254166D01*
X128695238Y-81373214D01*
X128695238Y-82027976D01*
X129766666Y-81968452D02*
X129647619Y-82027976D01*
X129409523Y-82027976D01*
X129290476Y-81968452D01*
X129230952Y-81849404D01*
X129230952Y-81373214D01*
X129290476Y-81254166D01*
X129409523Y-81194642D01*
X129647619Y-81194642D01*
X129766666Y-81254166D01*
X129826190Y-81373214D01*
X129826190Y-81492261D01*
X129230952Y-81611309D01*
X130897619Y-82027976D02*
X130897619Y-80777976D01*
X130897619Y-81968452D02*
X130778571Y-82027976D01*
X130540476Y-82027976D01*
X130421428Y-81968452D01*
X130361904Y-81908928D01*
X130302380Y-81789880D01*
X130302380Y-81432738D01*
X130361904Y-81313690D01*
X130421428Y-81254166D01*
X130540476Y-81194642D01*
X130778571Y-81194642D01*
X130897619Y-81254166D01*
X132445238Y-82027976D02*
X132445238Y-80777976D01*
X132445238Y-81254166D02*
X132564285Y-81194642D01*
X132802380Y-81194642D01*
X132921428Y-81254166D01*
X132980952Y-81313690D01*
X133040476Y-81432738D01*
X133040476Y-81789880D01*
X132980952Y-81908928D01*
X132921428Y-81968452D01*
X132802380Y-82027976D01*
X132564285Y-82027976D01*
X132445238Y-81968452D01*
X133457142Y-81194642D02*
X133754761Y-82027976D01*
X134052380Y-81194642D02*
X133754761Y-82027976D01*
X133635714Y-82325595D01*
X133576190Y-82385119D01*
X133457142Y-82444642D01*
X134528571Y-81908928D02*
X134588095Y-81968452D01*
X134528571Y-82027976D01*
X134469047Y-81968452D01*
X134528571Y-81908928D01*
X134528571Y-82027976D01*
X134528571Y-81254166D02*
X134588095Y-81313690D01*
X134528571Y-81373214D01*
X134469047Y-81313690D01*
X134528571Y-81254166D01*
X134528571Y-81373214D01*
X136433333Y-80777976D02*
X136433333Y-81670833D01*
X136373809Y-81849404D01*
X136254761Y-81968452D01*
X136076190Y-82027976D01*
X135957142Y-82027976D01*
X137564285Y-82027976D02*
X137564285Y-81373214D01*
X137504761Y-81254166D01*
X137385714Y-81194642D01*
X137147619Y-81194642D01*
X137028571Y-81254166D01*
X137564285Y-81968452D02*
X137445238Y-82027976D01*
X137147619Y-82027976D01*
X137028571Y-81968452D01*
X136969047Y-81849404D01*
X136969047Y-81730357D01*
X137028571Y-81611309D01*
X137147619Y-81551785D01*
X137445238Y-81551785D01*
X137564285Y-81492261D01*
X138695238Y-81968452D02*
X138576190Y-82027976D01*
X138338095Y-82027976D01*
X138219047Y-81968452D01*
X138159523Y-81908928D01*
X138100000Y-81789880D01*
X138100000Y-81432738D01*
X138159523Y-81313690D01*
X138219047Y-81254166D01*
X138338095Y-81194642D01*
X138576190Y-81194642D01*
X138695238Y-81254166D01*
X139409523Y-82027976D02*
X139290476Y-81968452D01*
X139230952Y-81908928D01*
X139171428Y-81789880D01*
X139171428Y-81432738D01*
X139230952Y-81313690D01*
X139290476Y-81254166D01*
X139409523Y-81194642D01*
X139588095Y-81194642D01*
X139707142Y-81254166D01*
X139766666Y-81313690D01*
X139826190Y-81432738D01*
X139826190Y-81789880D01*
X139766666Y-81908928D01*
X139707142Y-81968452D01*
X139588095Y-82027976D01*
X139409523Y-82027976D01*
X140361904Y-82027976D02*
X140361904Y-80777976D01*
X140361904Y-81254166D02*
X140480952Y-81194642D01*
X140719047Y-81194642D01*
X140838095Y-81254166D01*
X140897619Y-81313690D01*
X140957142Y-81432738D01*
X140957142Y-81789880D01*
X140897619Y-81908928D01*
X140838095Y-81968452D01*
X140719047Y-82027976D01*
X140480952Y-82027976D01*
X140361904Y-81968452D01*
X143159523Y-82027976D02*
X142742857Y-81432738D01*
X142445238Y-82027976D02*
X142445238Y-80777976D01*
X142921428Y-80777976D01*
X143040476Y-80837500D01*
X143100000Y-80897023D01*
X143159523Y-81016071D01*
X143159523Y-81194642D01*
X143100000Y-81313690D01*
X143040476Y-81373214D01*
X142921428Y-81432738D01*
X142445238Y-81432738D01*
X143873809Y-82027976D02*
X143754761Y-81968452D01*
X143695238Y-81908928D01*
X143635714Y-81789880D01*
X143635714Y-81432738D01*
X143695238Y-81313690D01*
X143754761Y-81254166D01*
X143873809Y-81194642D01*
X144052380Y-81194642D01*
X144171428Y-81254166D01*
X144230952Y-81313690D01*
X144290476Y-81432738D01*
X144290476Y-81789880D01*
X144230952Y-81908928D01*
X144171428Y-81968452D01*
X144052380Y-82027976D01*
X143873809Y-82027976D01*
X144826190Y-82027976D02*
X144826190Y-81194642D01*
X144826190Y-81313690D02*
X144885714Y-81254166D01*
X145004761Y-81194642D01*
X145183333Y-81194642D01*
X145302380Y-81254166D01*
X145361904Y-81373214D01*
X145361904Y-82027976D01*
X145361904Y-81373214D02*
X145421428Y-81254166D01*
X145540476Y-81194642D01*
X145719047Y-81194642D01*
X145838095Y-81254166D01*
X145897619Y-81373214D01*
X145897619Y-82027976D01*
X146969047Y-81968452D02*
X146850000Y-82027976D01*
X146611904Y-82027976D01*
X146492857Y-81968452D01*
X146433333Y-81849404D01*
X146433333Y-81373214D01*
X146492857Y-81254166D01*
X146611904Y-81194642D01*
X146850000Y-81194642D01*
X146969047Y-81254166D01*
X147028571Y-81373214D01*
X147028571Y-81492261D01*
X146433333Y-81611309D01*
X147742857Y-82027976D02*
X147623809Y-81968452D01*
X147564285Y-81908928D01*
X147504761Y-81789880D01*
X147504761Y-81432738D01*
X147564285Y-81313690D01*
X147623809Y-81254166D01*
X147742857Y-81194642D01*
X147921428Y-81194642D01*
X148040476Y-81254166D01*
X148100000Y-81313690D01*
X148159523Y-81432738D01*
X148159523Y-81789880D01*
X148100000Y-81908928D01*
X148040476Y-81968452D01*
X147921428Y-82027976D01*
X147742857Y-82027976D01*
D11*
%TO.C,J2*%
X155516666Y-76252380D02*
X155516666Y-76966666D01*
X155469047Y-77109523D01*
X155373809Y-77204761D01*
X155230952Y-77252380D01*
X155135714Y-77252380D01*
X155945238Y-76347619D02*
X155992857Y-76300000D01*
X156088095Y-76252380D01*
X156326190Y-76252380D01*
X156421428Y-76300000D01*
X156469047Y-76347619D01*
X156516666Y-76442857D01*
X156516666Y-76538095D01*
X156469047Y-76680952D01*
X155897619Y-77252380D01*
X156516666Y-77252380D01*
X148904761Y-123385714D02*
X146904761Y-123385714D01*
X146904761Y-122623809D01*
X147000000Y-122433333D01*
X147095238Y-122338095D01*
X147285714Y-122242857D01*
X147571428Y-122242857D01*
X147761904Y-122338095D01*
X147857142Y-122433333D01*
X147952380Y-122623809D01*
X147952380Y-123385714D01*
X148904761Y-121385714D02*
X147571428Y-121385714D01*
X146904761Y-121385714D02*
X147000000Y-121480952D01*
X147095238Y-121385714D01*
X147000000Y-121290476D01*
X146904761Y-121385714D01*
X147095238Y-121385714D01*
X149095238Y-120909523D02*
X149095238Y-119385714D01*
X147000000Y-117861904D02*
X146904761Y-118052380D01*
X146904761Y-118338095D01*
X147000000Y-118623809D01*
X147190476Y-118814285D01*
X147380952Y-118909523D01*
X147761904Y-119004761D01*
X148047619Y-119004761D01*
X148428571Y-118909523D01*
X148619047Y-118814285D01*
X148809523Y-118623809D01*
X148904761Y-118338095D01*
X148904761Y-118147619D01*
X148809523Y-117861904D01*
X148714285Y-117766666D01*
X148047619Y-117766666D01*
X148047619Y-118147619D01*
X148904761Y-116909523D02*
X146904761Y-116909523D01*
X146904761Y-116147619D01*
X147000000Y-115957142D01*
X147095238Y-115861904D01*
X147285714Y-115766666D01*
X147571428Y-115766666D01*
X147761904Y-115861904D01*
X147857142Y-115957142D01*
X147952380Y-116147619D01*
X147952380Y-116909523D01*
X148904761Y-114909523D02*
X146904761Y-114909523D01*
X146904761Y-113576190D02*
X146904761Y-113195238D01*
X147000000Y-113004761D01*
X147190476Y-112814285D01*
X147571428Y-112719047D01*
X148238095Y-112719047D01*
X148619047Y-112814285D01*
X148809523Y-113004761D01*
X148904761Y-113195238D01*
X148904761Y-113576190D01*
X148809523Y-113766666D01*
X148619047Y-113957142D01*
X148238095Y-114052380D01*
X147571428Y-114052380D01*
X147190476Y-113957142D01*
X147000000Y-113766666D01*
X146904761Y-113576190D01*
%TO.C,J3*%
X129116666Y-71502380D02*
X129116666Y-72216666D01*
X129069047Y-72359523D01*
X128973809Y-72454761D01*
X128830952Y-72502380D01*
X128735714Y-72502380D01*
X129497619Y-71502380D02*
X130116666Y-71502380D01*
X129783333Y-71883333D01*
X129926190Y-71883333D01*
X130021428Y-71930952D01*
X130069047Y-71978571D01*
X130116666Y-72073809D01*
X130116666Y-72311904D01*
X130069047Y-72407142D01*
X130021428Y-72454761D01*
X129926190Y-72502380D01*
X129640476Y-72502380D01*
X129545238Y-72454761D01*
X129497619Y-72407142D01*
%TO.C,H1*%
X154738095Y-72452380D02*
X154738095Y-71452380D01*
X154738095Y-71928571D02*
X155309523Y-71928571D01*
X155309523Y-72452380D02*
X155309523Y-71452380D01*
X156309523Y-72452380D02*
X155738095Y-72452380D01*
X156023809Y-72452380D02*
X156023809Y-71452380D01*
X155928571Y-71595238D01*
X155833333Y-71690476D01*
X155738095Y-71738095D01*
%TO.C,H2*%
X98738095Y-72452380D02*
X98738095Y-71452380D01*
X98738095Y-71928571D02*
X99309523Y-71928571D01*
X99309523Y-72452380D02*
X99309523Y-71452380D01*
X99738095Y-71547619D02*
X99785714Y-71500000D01*
X99880952Y-71452380D01*
X100119047Y-71452380D01*
X100214285Y-71500000D01*
X100261904Y-71547619D01*
X100309523Y-71642857D01*
X100309523Y-71738095D01*
X100261904Y-71880952D01*
X99690476Y-72452380D01*
X100309523Y-72452380D01*
%TO.C,H3*%
X98738095Y-135452380D02*
X98738095Y-134452380D01*
X98738095Y-134928571D02*
X99309523Y-134928571D01*
X99309523Y-135452380D02*
X99309523Y-134452380D01*
X99690476Y-134452380D02*
X100309523Y-134452380D01*
X99976190Y-134833333D01*
X100119047Y-134833333D01*
X100214285Y-134880952D01*
X100261904Y-134928571D01*
X100309523Y-135023809D01*
X100309523Y-135261904D01*
X100261904Y-135357142D01*
X100214285Y-135404761D01*
X100119047Y-135452380D01*
X99833333Y-135452380D01*
X99738095Y-135404761D01*
X99690476Y-135357142D01*
%TO.C,J1*%
X97666666Y-104322380D02*
X97666666Y-105036666D01*
X97619047Y-105179523D01*
X97523809Y-105274761D01*
X97380952Y-105322380D01*
X97285714Y-105322380D01*
X98666666Y-105322380D02*
X98095238Y-105322380D01*
X98380952Y-105322380D02*
X98380952Y-104322380D01*
X98285714Y-104465238D01*
X98190476Y-104560476D01*
X98095238Y-104608095D01*
%TO.C,H4*%
X154738095Y-135452380D02*
X154738095Y-134452380D01*
X154738095Y-134928571D02*
X155309523Y-134928571D01*
X155309523Y-135452380D02*
X155309523Y-134452380D01*
X156214285Y-134785714D02*
X156214285Y-135452380D01*
X155976190Y-134404761D02*
X155738095Y-135119047D01*
X156357142Y-135119047D01*
%TO.C,J4*%
X108216519Y-70502139D02*
X108216519Y-71216740D01*
X108168879Y-71359660D01*
X108073599Y-71454940D01*
X107930679Y-71502580D01*
X107835399Y-71502580D01*
X109121680Y-70835619D02*
X109121680Y-71502580D01*
X108883480Y-70454499D02*
X108645280Y-71169100D01*
X109264600Y-71169100D01*
%TO.C,J5*%
X94766666Y-70672380D02*
X94766666Y-71386666D01*
X94719047Y-71529523D01*
X94623809Y-71624761D01*
X94480952Y-71672380D01*
X94385714Y-71672380D01*
X95719047Y-70672380D02*
X95242857Y-70672380D01*
X95195238Y-71148571D01*
X95242857Y-71100952D01*
X95338095Y-71053333D01*
X95576190Y-71053333D01*
X95671428Y-71100952D01*
X95719047Y-71148571D01*
X95766666Y-71243809D01*
X95766666Y-71481904D01*
X95719047Y-71577142D01*
X95671428Y-71624761D01*
X95576190Y-71672380D01*
X95338095Y-71672380D01*
X95242857Y-71624761D01*
X95195238Y-71577142D01*
%TO.C,J6*%
X103366666Y-69102380D02*
X103366666Y-69816666D01*
X103319047Y-69959523D01*
X103223809Y-70054761D01*
X103080952Y-70102380D01*
X102985714Y-70102380D01*
X104271428Y-69102380D02*
X104080952Y-69102380D01*
X103985714Y-69150000D01*
X103938095Y-69197619D01*
X103842857Y-69340476D01*
X103795238Y-69530952D01*
X103795238Y-69911904D01*
X103842857Y-70007142D01*
X103890476Y-70054761D01*
X103985714Y-70102380D01*
X104176190Y-70102380D01*
X104271428Y-70054761D01*
X104319047Y-70007142D01*
X104366666Y-69911904D01*
X104366666Y-69673809D01*
X104319047Y-69578571D01*
X104271428Y-69530952D01*
X104176190Y-69483333D01*
X103985714Y-69483333D01*
X103890476Y-69530952D01*
X103842857Y-69578571D01*
X103795238Y-69673809D01*
%TO.C,J8*%
X157816666Y-86122380D02*
X157816666Y-86836666D01*
X157769047Y-86979523D01*
X157673809Y-87074761D01*
X157530952Y-87122380D01*
X157435714Y-87122380D01*
X158435714Y-86550952D02*
X158340476Y-86503333D01*
X158292857Y-86455714D01*
X158245238Y-86360476D01*
X158245238Y-86312857D01*
X158292857Y-86217619D01*
X158340476Y-86170000D01*
X158435714Y-86122380D01*
X158626190Y-86122380D01*
X158721428Y-86170000D01*
X158769047Y-86217619D01*
X158816666Y-86312857D01*
X158816666Y-86360476D01*
X158769047Y-86455714D01*
X158721428Y-86503333D01*
X158626190Y-86550952D01*
X158435714Y-86550952D01*
X158340476Y-86598571D01*
X158292857Y-86646190D01*
X158245238Y-86741428D01*
X158245238Y-86931904D01*
X158292857Y-87027142D01*
X158340476Y-87074761D01*
X158435714Y-87122380D01*
X158626190Y-87122380D01*
X158721428Y-87074761D01*
X158769047Y-87027142D01*
X158816666Y-86931904D01*
X158816666Y-86741428D01*
X158769047Y-86646190D01*
X158721428Y-86598571D01*
X158626190Y-86550952D01*
%TO.C,J9*%
X98866666Y-92152380D02*
X98866666Y-92866666D01*
X98819047Y-93009523D01*
X98723809Y-93104761D01*
X98580952Y-93152380D01*
X98485714Y-93152380D01*
X99390476Y-93152380D02*
X99580952Y-93152380D01*
X99676190Y-93104761D01*
X99723809Y-93057142D01*
X99819047Y-92914285D01*
X99866666Y-92723809D01*
X99866666Y-92342857D01*
X99819047Y-92247619D01*
X99771428Y-92200000D01*
X99676190Y-92152380D01*
X99485714Y-92152380D01*
X99390476Y-92200000D01*
X99342857Y-92247619D01*
X99295238Y-92342857D01*
X99295238Y-92580952D01*
X99342857Y-92676190D01*
X99390476Y-92723809D01*
X99485714Y-92771428D01*
X99676190Y-92771428D01*
X99771428Y-92723809D01*
X99819047Y-92676190D01*
X99866666Y-92580952D01*
%TO.C,G\u002A\u002A\u002A*%
G36*
X97704008Y-83472654D02*
G01*
X97677948Y-83653469D01*
X97659243Y-83732577D01*
X97621768Y-84018303D01*
X97625049Y-84361089D01*
X97641680Y-84513338D01*
X97768580Y-85085454D01*
X97980960Y-85655442D01*
X98290102Y-86242018D01*
X98707294Y-86863898D01*
X99243817Y-87539800D01*
X99910958Y-88288439D01*
X99930290Y-88309195D01*
X100533054Y-88934663D01*
X101176622Y-89559706D01*
X101870670Y-90191582D01*
X102624876Y-90837551D01*
X103448916Y-91504872D01*
X104352467Y-92200804D01*
X105345206Y-92932604D01*
X106436810Y-93707534D01*
X107636955Y-94532849D01*
X108955319Y-95415812D01*
X110401579Y-96363679D01*
X111985410Y-97383711D01*
X112268530Y-97564490D01*
X112631264Y-97800439D01*
X112936413Y-98007693D01*
X113158330Y-98168153D01*
X113271374Y-98263718D01*
X113280480Y-98278745D01*
X113258465Y-98325765D01*
X113255064Y-98323108D01*
X113167426Y-98265114D01*
X112959128Y-98137352D01*
X112655947Y-97955086D01*
X112283659Y-97733576D01*
X111868043Y-97488087D01*
X111434875Y-97233881D01*
X111009931Y-96986219D01*
X110618989Y-96760365D01*
X110516278Y-96701481D01*
X109357751Y-96014779D01*
X108143049Y-95250854D01*
X106904608Y-94432380D01*
X105674862Y-93582029D01*
X104486246Y-92722472D01*
X103371195Y-91876383D01*
X102362144Y-91066434D01*
X101918393Y-90691483D01*
X101061920Y-89920687D01*
X100256239Y-89131572D01*
X99539232Y-88362210D01*
X99171277Y-87930708D01*
X98649982Y-87235219D01*
X98207028Y-86524253D01*
X97855724Y-85825228D01*
X97609383Y-85165564D01*
X97481316Y-84572681D01*
X97468508Y-84423208D01*
X97476331Y-84188882D01*
X97513210Y-83917632D01*
X97568114Y-83661277D01*
X97630015Y-83471638D01*
X97686201Y-83400446D01*
X97704008Y-83472654D01*
G37*
D13*
X97704008Y-83472654D02*
X97677948Y-83653469D01*
X97659243Y-83732577D01*
X97621768Y-84018303D01*
X97625049Y-84361089D01*
X97641680Y-84513338D01*
X97768580Y-85085454D01*
X97980960Y-85655442D01*
X98290102Y-86242018D01*
X98707294Y-86863898D01*
X99243817Y-87539800D01*
X99910958Y-88288439D01*
X99930290Y-88309195D01*
X100533054Y-88934663D01*
X101176622Y-89559706D01*
X101870670Y-90191582D01*
X102624876Y-90837551D01*
X103448916Y-91504872D01*
X104352467Y-92200804D01*
X105345206Y-92932604D01*
X106436810Y-93707534D01*
X107636955Y-94532849D01*
X108955319Y-95415812D01*
X110401579Y-96363679D01*
X111985410Y-97383711D01*
X112268530Y-97564490D01*
X112631264Y-97800439D01*
X112936413Y-98007693D01*
X113158330Y-98168153D01*
X113271374Y-98263718D01*
X113280480Y-98278745D01*
X113258465Y-98325765D01*
X113255064Y-98323108D01*
X113167426Y-98265114D01*
X112959128Y-98137352D01*
X112655947Y-97955086D01*
X112283659Y-97733576D01*
X111868043Y-97488087D01*
X111434875Y-97233881D01*
X111009931Y-96986219D01*
X110618989Y-96760365D01*
X110516278Y-96701481D01*
X109357751Y-96014779D01*
X108143049Y-95250854D01*
X106904608Y-94432380D01*
X105674862Y-93582029D01*
X104486246Y-92722472D01*
X103371195Y-91876383D01*
X102362144Y-91066434D01*
X101918393Y-90691483D01*
X101061920Y-89920687D01*
X100256239Y-89131572D01*
X99539232Y-88362210D01*
X99171277Y-87930708D01*
X98649982Y-87235219D01*
X98207028Y-86524253D01*
X97855724Y-85825228D01*
X97609383Y-85165564D01*
X97481316Y-84572681D01*
X97468508Y-84423208D01*
X97476331Y-84188882D01*
X97513210Y-83917632D01*
X97568114Y-83661277D01*
X97630015Y-83471638D01*
X97686201Y-83400446D01*
X97704008Y-83472654D01*
G36*
X102282028Y-81367050D02*
G01*
X102552189Y-81480325D01*
X102756472Y-81613920D01*
X103040180Y-81839739D01*
X103383704Y-82138287D01*
X103767436Y-82490063D01*
X104171771Y-82875572D01*
X104577102Y-83275312D01*
X104963821Y-83669790D01*
X105312322Y-84039507D01*
X105602998Y-84364963D01*
X105816241Y-84626663D01*
X105932444Y-84805108D01*
X105948029Y-84857243D01*
X105876615Y-85100231D01*
X105678254Y-85244907D01*
X105477635Y-85276322D01*
X105394751Y-85270010D01*
X105307943Y-85241484D01*
X105200340Y-85176353D01*
X105055065Y-85060225D01*
X104855248Y-84878710D01*
X104584013Y-84617419D01*
X104224489Y-84261960D01*
X103850156Y-83888317D01*
X103399913Y-83439617D01*
X103049888Y-83095900D01*
X102781699Y-82841289D01*
X102576962Y-82659907D01*
X102417290Y-82535881D01*
X102284300Y-82453332D01*
X102159607Y-82396385D01*
X102095055Y-82372700D01*
X101850179Y-82324580D01*
X101569136Y-82321682D01*
X101301854Y-82357027D01*
X101098262Y-82423640D01*
X101008289Y-82514545D01*
X101007463Y-82524651D01*
X101065027Y-82603024D01*
X101227180Y-82783876D01*
X101478113Y-83050613D01*
X101802017Y-83386645D01*
X102183082Y-83775378D01*
X102572023Y-84166761D01*
X103067871Y-84663856D01*
X103454156Y-85056869D01*
X103741549Y-85360957D01*
X103940723Y-85591272D01*
X104062348Y-85762969D01*
X104117097Y-85891203D01*
X104115641Y-85991129D01*
X104068653Y-86077902D01*
X103986803Y-86166676D01*
X103983002Y-86170437D01*
X103885394Y-86264052D01*
X103796809Y-86326065D01*
X103701783Y-86346205D01*
X103584852Y-86314207D01*
X103430551Y-86219802D01*
X103223415Y-86052722D01*
X102947979Y-85802700D01*
X102588780Y-85459468D01*
X102130353Y-85012757D01*
X101900002Y-84787407D01*
X101467605Y-84367399D01*
X101074905Y-83991740D01*
X100737896Y-83675262D01*
X100472573Y-83432800D01*
X100294930Y-83279187D01*
X100220962Y-83229259D01*
X100220367Y-83229648D01*
X100179258Y-83332610D01*
X100127368Y-83539863D01*
X100108279Y-83633765D01*
X100076022Y-83843366D01*
X100073928Y-84030631D01*
X100114105Y-84214052D01*
X100208660Y-84412119D01*
X100369702Y-84643320D01*
X100609338Y-84926146D01*
X100939676Y-85279086D01*
X101372824Y-85720632D01*
X101670073Y-86018757D01*
X102118265Y-86468001D01*
X102460334Y-86814839D01*
X102710542Y-87075953D01*
X102883153Y-87268020D01*
X102992428Y-87407722D01*
X103052630Y-87511738D01*
X103078023Y-87596748D01*
X103082900Y-87671057D01*
X103028594Y-87936023D01*
X102849330Y-88100710D01*
X102717647Y-88151833D01*
X102657943Y-88162697D01*
X102590475Y-88149633D01*
X102500105Y-88099445D01*
X102371698Y-87998936D01*
X102190116Y-87834911D01*
X101940224Y-87594171D01*
X101606883Y-87263523D01*
X101174959Y-86829769D01*
X101006495Y-86660027D01*
X100582558Y-86229406D01*
X100192805Y-85827270D01*
X99855064Y-85472510D01*
X99587161Y-85184019D01*
X99406924Y-84980687D01*
X99337239Y-84891064D01*
X99124311Y-84386274D01*
X99049411Y-83828902D01*
X99113285Y-83265507D01*
X99303127Y-82767217D01*
X99669912Y-82234336D01*
X100121723Y-81808135D01*
X100633699Y-81498460D01*
X101180980Y-81315156D01*
X101738709Y-81268071D01*
X102282028Y-81367050D01*
G37*
X102282028Y-81367050D02*
X102552189Y-81480325D01*
X102756472Y-81613920D01*
X103040180Y-81839739D01*
X103383704Y-82138287D01*
X103767436Y-82490063D01*
X104171771Y-82875572D01*
X104577102Y-83275312D01*
X104963821Y-83669790D01*
X105312322Y-84039507D01*
X105602998Y-84364963D01*
X105816241Y-84626663D01*
X105932444Y-84805108D01*
X105948029Y-84857243D01*
X105876615Y-85100231D01*
X105678254Y-85244907D01*
X105477635Y-85276322D01*
X105394751Y-85270010D01*
X105307943Y-85241484D01*
X105200340Y-85176353D01*
X105055065Y-85060225D01*
X104855248Y-84878710D01*
X104584013Y-84617419D01*
X104224489Y-84261960D01*
X103850156Y-83888317D01*
X103399913Y-83439617D01*
X103049888Y-83095900D01*
X102781699Y-82841289D01*
X102576962Y-82659907D01*
X102417290Y-82535881D01*
X102284300Y-82453332D01*
X102159607Y-82396385D01*
X102095055Y-82372700D01*
X101850179Y-82324580D01*
X101569136Y-82321682D01*
X101301854Y-82357027D01*
X101098262Y-82423640D01*
X101008289Y-82514545D01*
X101007463Y-82524651D01*
X101065027Y-82603024D01*
X101227180Y-82783876D01*
X101478113Y-83050613D01*
X101802017Y-83386645D01*
X102183082Y-83775378D01*
X102572023Y-84166761D01*
X103067871Y-84663856D01*
X103454156Y-85056869D01*
X103741549Y-85360957D01*
X103940723Y-85591272D01*
X104062348Y-85762969D01*
X104117097Y-85891203D01*
X104115641Y-85991129D01*
X104068653Y-86077902D01*
X103986803Y-86166676D01*
X103983002Y-86170437D01*
X103885394Y-86264052D01*
X103796809Y-86326065D01*
X103701783Y-86346205D01*
X103584852Y-86314207D01*
X103430551Y-86219802D01*
X103223415Y-86052722D01*
X102947979Y-85802700D01*
X102588780Y-85459468D01*
X102130353Y-85012757D01*
X101900002Y-84787407D01*
X101467605Y-84367399D01*
X101074905Y-83991740D01*
X100737896Y-83675262D01*
X100472573Y-83432800D01*
X100294930Y-83279187D01*
X100220962Y-83229259D01*
X100220367Y-83229648D01*
X100179258Y-83332610D01*
X100127368Y-83539863D01*
X100108279Y-83633765D01*
X100076022Y-83843366D01*
X100073928Y-84030631D01*
X100114105Y-84214052D01*
X100208660Y-84412119D01*
X100369702Y-84643320D01*
X100609338Y-84926146D01*
X100939676Y-85279086D01*
X101372824Y-85720632D01*
X101670073Y-86018757D01*
X102118265Y-86468001D01*
X102460334Y-86814839D01*
X102710542Y-87075953D01*
X102883153Y-87268020D01*
X102992428Y-87407722D01*
X103052630Y-87511738D01*
X103078023Y-87596748D01*
X103082900Y-87671057D01*
X103028594Y-87936023D01*
X102849330Y-88100710D01*
X102717647Y-88151833D01*
X102657943Y-88162697D01*
X102590475Y-88149633D01*
X102500105Y-88099445D01*
X102371698Y-87998936D01*
X102190116Y-87834911D01*
X101940224Y-87594171D01*
X101606883Y-87263523D01*
X101174959Y-86829769D01*
X101006495Y-86660027D01*
X100582558Y-86229406D01*
X100192805Y-85827270D01*
X99855064Y-85472510D01*
X99587161Y-85184019D01*
X99406924Y-84980687D01*
X99337239Y-84891064D01*
X99124311Y-84386274D01*
X99049411Y-83828902D01*
X99113285Y-83265507D01*
X99303127Y-82767217D01*
X99669912Y-82234336D01*
X100121723Y-81808135D01*
X100633699Y-81498460D01*
X101180980Y-81315156D01*
X101738709Y-81268071D01*
X102282028Y-81367050D01*
G36*
X106848565Y-85693570D02*
G01*
X106958548Y-85768341D01*
X107166769Y-85947190D01*
X107454665Y-86211587D01*
X107803677Y-86543008D01*
X108195245Y-86922923D01*
X108610807Y-87332803D01*
X109031804Y-87754121D01*
X109439676Y-88168349D01*
X109815862Y-88556960D01*
X110141802Y-88901423D01*
X110398935Y-89183212D01*
X110568700Y-89383799D01*
X110623382Y-89461817D01*
X110741544Y-89807045D01*
X110776641Y-90216720D01*
X110722000Y-90604163D01*
X110713461Y-90631884D01*
X110524900Y-91009775D01*
X110235055Y-91353543D01*
X109885505Y-91627828D01*
X109517829Y-91797269D01*
X109299779Y-91834135D01*
X109076482Y-91840654D01*
X108889600Y-91834631D01*
X108720247Y-91803639D01*
X108549538Y-91735248D01*
X108358589Y-91617032D01*
X108128514Y-91436561D01*
X107840429Y-91181406D01*
X107475449Y-90839140D01*
X107014690Y-90397334D01*
X106794739Y-90185528D01*
X105178293Y-88628951D01*
X104652102Y-89095272D01*
X104349347Y-89349433D01*
X104129352Y-89488225D01*
X103959357Y-89520089D01*
X103806603Y-89453468D01*
X103684321Y-89344633D01*
X103548144Y-89158303D01*
X103491807Y-89028267D01*
X103488733Y-88931465D01*
X103543329Y-88814055D01*
X103675510Y-88648218D01*
X103905191Y-88406130D01*
X104019559Y-88290974D01*
X104304576Y-88013574D01*
X104511799Y-87836200D01*
X104677159Y-87733414D01*
X104836587Y-87679782D01*
X104900350Y-87667457D01*
X105079980Y-87646017D01*
X105246472Y-87654358D01*
X105417072Y-87704623D01*
X105609028Y-87808958D01*
X105839586Y-87979509D01*
X106125992Y-88228419D01*
X106485493Y-88567836D01*
X106935335Y-89009901D01*
X107244550Y-89318235D01*
X108715970Y-90789654D01*
X109009869Y-90789654D01*
X109326809Y-90718181D01*
X109518751Y-90574672D01*
X109698304Y-90297407D01*
X109733732Y-90065791D01*
X109733732Y-89771892D01*
X106136187Y-86174347D01*
X106403488Y-85907046D01*
X106607468Y-85733374D01*
X106767278Y-85680569D01*
X106848565Y-85693570D01*
G37*
X106848565Y-85693570D02*
X106958548Y-85768341D01*
X107166769Y-85947190D01*
X107454665Y-86211587D01*
X107803677Y-86543008D01*
X108195245Y-86922923D01*
X108610807Y-87332803D01*
X109031804Y-87754121D01*
X109439676Y-88168349D01*
X109815862Y-88556960D01*
X110141802Y-88901423D01*
X110398935Y-89183212D01*
X110568700Y-89383799D01*
X110623382Y-89461817D01*
X110741544Y-89807045D01*
X110776641Y-90216720D01*
X110722000Y-90604163D01*
X110713461Y-90631884D01*
X110524900Y-91009775D01*
X110235055Y-91353543D01*
X109885505Y-91627828D01*
X109517829Y-91797269D01*
X109299779Y-91834135D01*
X109076482Y-91840654D01*
X108889600Y-91834631D01*
X108720247Y-91803639D01*
X108549538Y-91735248D01*
X108358589Y-91617032D01*
X108128514Y-91436561D01*
X107840429Y-91181406D01*
X107475449Y-90839140D01*
X107014690Y-90397334D01*
X106794739Y-90185528D01*
X105178293Y-88628951D01*
X104652102Y-89095272D01*
X104349347Y-89349433D01*
X104129352Y-89488225D01*
X103959357Y-89520089D01*
X103806603Y-89453468D01*
X103684321Y-89344633D01*
X103548144Y-89158303D01*
X103491807Y-89028267D01*
X103488733Y-88931465D01*
X103543329Y-88814055D01*
X103675510Y-88648218D01*
X103905191Y-88406130D01*
X104019559Y-88290974D01*
X104304576Y-88013574D01*
X104511799Y-87836200D01*
X104677159Y-87733414D01*
X104836587Y-87679782D01*
X104900350Y-87667457D01*
X105079980Y-87646017D01*
X105246472Y-87654358D01*
X105417072Y-87704623D01*
X105609028Y-87808958D01*
X105839586Y-87979509D01*
X106125992Y-88228419D01*
X106485493Y-88567836D01*
X106935335Y-89009901D01*
X107244550Y-89318235D01*
X108715970Y-90789654D01*
X109009869Y-90789654D01*
X109326809Y-90718181D01*
X109518751Y-90574672D01*
X109698304Y-90297407D01*
X109733732Y-90065791D01*
X109733732Y-89771892D01*
X106136187Y-86174347D01*
X106403488Y-85907046D01*
X106607468Y-85733374D01*
X106767278Y-85680569D01*
X106848565Y-85693570D01*
G36*
X112094898Y-90983819D02*
G01*
X112253748Y-91071322D01*
X112460459Y-91230455D01*
X112729570Y-91470939D01*
X113075617Y-91802498D01*
X113513139Y-92234853D01*
X114024189Y-92745246D01*
X114533717Y-93255760D01*
X114936869Y-93663063D01*
X115247697Y-93982979D01*
X115480252Y-94231339D01*
X115648587Y-94423971D01*
X115766753Y-94576704D01*
X115848801Y-94705365D01*
X115908783Y-94825784D01*
X115941971Y-94905562D01*
X116049656Y-95341140D01*
X116008063Y-95752958D01*
X115811613Y-96164645D01*
X115572129Y-96473145D01*
X115152292Y-96856973D01*
X114721997Y-97072341D01*
X114279522Y-97119901D01*
X114000566Y-97066084D01*
X113877854Y-97024532D01*
X113758890Y-96969272D01*
X113626376Y-96885862D01*
X113463009Y-96759862D01*
X113251489Y-96576832D01*
X112974515Y-96322331D01*
X112614785Y-95981918D01*
X112155002Y-95541154D01*
X112033222Y-95424011D01*
X110446710Y-93897367D01*
X109981351Y-94327002D01*
X109650164Y-94602793D01*
X109389127Y-94743928D01*
X109174975Y-94756989D01*
X108984437Y-94648551D01*
X108952164Y-94617951D01*
X108816042Y-94417310D01*
X108762158Y-94257765D01*
X108762640Y-94144283D01*
X108815412Y-94021807D01*
X108942057Y-93858885D01*
X109164158Y-93624059D01*
X109270240Y-93517260D01*
X109550052Y-93246500D01*
X109754414Y-93076619D01*
X109920168Y-92981750D01*
X110084160Y-92936031D01*
X110102397Y-92933086D01*
X110299362Y-92910350D01*
X110477163Y-92915512D01*
X110653641Y-92960775D01*
X110846636Y-93058341D01*
X111073989Y-93220412D01*
X111353538Y-93459189D01*
X111703124Y-93786875D01*
X112140587Y-94215671D01*
X112497109Y-94570980D01*
X112958501Y-95031311D01*
X113316923Y-95385200D01*
X113588516Y-95646563D01*
X113789417Y-95829319D01*
X113935768Y-95947383D01*
X114043709Y-96014673D01*
X114129378Y-96045108D01*
X114208916Y-96052603D01*
X114215372Y-96052629D01*
X114468809Y-96010508D01*
X114642394Y-95938512D01*
X114810815Y-95775097D01*
X114950118Y-95538252D01*
X115021985Y-95302341D01*
X115020129Y-95205392D01*
X114957326Y-95118925D01*
X114790771Y-94927213D01*
X114535103Y-94646079D01*
X114204960Y-94291346D01*
X113814982Y-93878834D01*
X113379808Y-93424369D01*
X113200655Y-93238815D01*
X111404604Y-91382896D01*
X111647371Y-91155649D01*
X111760147Y-91053860D01*
X111862635Y-90984811D01*
X111969373Y-90958222D01*
X112094898Y-90983819D01*
G37*
X112094898Y-90983819D02*
X112253748Y-91071322D01*
X112460459Y-91230455D01*
X112729570Y-91470939D01*
X113075617Y-91802498D01*
X113513139Y-92234853D01*
X114024189Y-92745246D01*
X114533717Y-93255760D01*
X114936869Y-93663063D01*
X115247697Y-93982979D01*
X115480252Y-94231339D01*
X115648587Y-94423971D01*
X115766753Y-94576704D01*
X115848801Y-94705365D01*
X115908783Y-94825784D01*
X115941971Y-94905562D01*
X116049656Y-95341140D01*
X116008063Y-95752958D01*
X115811613Y-96164645D01*
X115572129Y-96473145D01*
X115152292Y-96856973D01*
X114721997Y-97072341D01*
X114279522Y-97119901D01*
X114000566Y-97066084D01*
X113877854Y-97024532D01*
X113758890Y-96969272D01*
X113626376Y-96885862D01*
X113463009Y-96759862D01*
X113251489Y-96576832D01*
X112974515Y-96322331D01*
X112614785Y-95981918D01*
X112155002Y-95541154D01*
X112033222Y-95424011D01*
X110446710Y-93897367D01*
X109981351Y-94327002D01*
X109650164Y-94602793D01*
X109389127Y-94743928D01*
X109174975Y-94756989D01*
X108984437Y-94648551D01*
X108952164Y-94617951D01*
X108816042Y-94417310D01*
X108762158Y-94257765D01*
X108762640Y-94144283D01*
X108815412Y-94021807D01*
X108942057Y-93858885D01*
X109164158Y-93624059D01*
X109270240Y-93517260D01*
X109550052Y-93246500D01*
X109754414Y-93076619D01*
X109920168Y-92981750D01*
X110084160Y-92936031D01*
X110102397Y-92933086D01*
X110299362Y-92910350D01*
X110477163Y-92915512D01*
X110653641Y-92960775D01*
X110846636Y-93058341D01*
X111073989Y-93220412D01*
X111353538Y-93459189D01*
X111703124Y-93786875D01*
X112140587Y-94215671D01*
X112497109Y-94570980D01*
X112958501Y-95031311D01*
X113316923Y-95385200D01*
X113588516Y-95646563D01*
X113789417Y-95829319D01*
X113935768Y-95947383D01*
X114043709Y-96014673D01*
X114129378Y-96045108D01*
X114208916Y-96052603D01*
X114215372Y-96052629D01*
X114468809Y-96010508D01*
X114642394Y-95938512D01*
X114810815Y-95775097D01*
X114950118Y-95538252D01*
X115021985Y-95302341D01*
X115020129Y-95205392D01*
X114957326Y-95118925D01*
X114790771Y-94927213D01*
X114535103Y-94646079D01*
X114204960Y-94291346D01*
X113814982Y-93878834D01*
X113379808Y-93424369D01*
X113200655Y-93238815D01*
X111404604Y-91382896D01*
X111647371Y-91155649D01*
X111760147Y-91053860D01*
X111862635Y-90984811D01*
X111969373Y-90958222D01*
X112094898Y-90983819D01*
G36*
X117130906Y-101479589D02*
G01*
X117585557Y-101938712D01*
X117927577Y-102298551D01*
X118167397Y-102576142D01*
X118315445Y-102788520D01*
X118382153Y-102952720D01*
X118377948Y-103085778D01*
X118313262Y-103204727D01*
X118238178Y-103288123D01*
X118138919Y-103379292D01*
X118044372Y-103431144D01*
X117937949Y-103432624D01*
X117803065Y-103372676D01*
X117623130Y-103240245D01*
X117381559Y-103024279D01*
X117061764Y-102713720D01*
X116647159Y-102297514D01*
X116445511Y-102093358D01*
X116049351Y-101689814D01*
X115686917Y-101316695D01*
X115377498Y-100994177D01*
X115140388Y-100742432D01*
X114994880Y-100581641D01*
X114964752Y-100544777D01*
X114868066Y-100402987D01*
X114839433Y-100340821D01*
X114924426Y-100330671D01*
X115132339Y-100318265D01*
X115396466Y-100307122D01*
X115939119Y-100287802D01*
X117130906Y-101479589D01*
G37*
X117130906Y-101479589D02*
X117585557Y-101938712D01*
X117927577Y-102298551D01*
X118167397Y-102576142D01*
X118315445Y-102788520D01*
X118382153Y-102952720D01*
X118377948Y-103085778D01*
X118313262Y-103204727D01*
X118238178Y-103288123D01*
X118138919Y-103379292D01*
X118044372Y-103431144D01*
X117937949Y-103432624D01*
X117803065Y-103372676D01*
X117623130Y-103240245D01*
X117381559Y-103024279D01*
X117061764Y-102713720D01*
X116647159Y-102297514D01*
X116445511Y-102093358D01*
X116049351Y-101689814D01*
X115686917Y-101316695D01*
X115377498Y-100994177D01*
X115140388Y-100742432D01*
X114994880Y-100581641D01*
X114964752Y-100544777D01*
X114868066Y-100402987D01*
X114839433Y-100340821D01*
X114924426Y-100330671D01*
X115132339Y-100318265D01*
X115396466Y-100307122D01*
X115939119Y-100287802D01*
X117130906Y-101479589D01*
G36*
X115336647Y-98645531D02*
G01*
X115694602Y-98874133D01*
X115856764Y-99053390D01*
X116026151Y-99235229D01*
X116266116Y-99411802D01*
X116613909Y-99608874D01*
X116787774Y-99697328D01*
X117167685Y-99902885D01*
X117495072Y-100110430D01*
X117750634Y-100303600D01*
X117915068Y-100466029D01*
X117969072Y-100581351D01*
X117893345Y-100633202D01*
X117891776Y-100633354D01*
X117716904Y-100616319D01*
X117453217Y-100555332D01*
X117263970Y-100498144D01*
X116981003Y-100411081D01*
X116742729Y-100349902D01*
X116643624Y-100332680D01*
X116459988Y-100287500D01*
X116220121Y-100194415D01*
X116175124Y-100173563D01*
X115893245Y-100092290D01*
X115557890Y-100067362D01*
X115454852Y-100074057D01*
X115171234Y-100090433D01*
X114938168Y-100055733D01*
X114682056Y-99953124D01*
X114488934Y-99853162D01*
X114388210Y-99791599D01*
X114396452Y-99758855D01*
X114536057Y-99743889D01*
X114722332Y-99738117D01*
X114983254Y-99719212D01*
X115104863Y-99671900D01*
X115119662Y-99598501D01*
X115149802Y-99445981D01*
X115253192Y-99288239D01*
X115379960Y-99099383D01*
X115369197Y-98927023D01*
X115217096Y-98720178D01*
X115210213Y-98712805D01*
X115036408Y-98527399D01*
X115336647Y-98645531D01*
G37*
X115336647Y-98645531D02*
X115694602Y-98874133D01*
X115856764Y-99053390D01*
X116026151Y-99235229D01*
X116266116Y-99411802D01*
X116613909Y-99608874D01*
X116787774Y-99697328D01*
X117167685Y-99902885D01*
X117495072Y-100110430D01*
X117750634Y-100303600D01*
X117915068Y-100466029D01*
X117969072Y-100581351D01*
X117893345Y-100633202D01*
X117891776Y-100633354D01*
X117716904Y-100616319D01*
X117453217Y-100555332D01*
X117263970Y-100498144D01*
X116981003Y-100411081D01*
X116742729Y-100349902D01*
X116643624Y-100332680D01*
X116459988Y-100287500D01*
X116220121Y-100194415D01*
X116175124Y-100173563D01*
X115893245Y-100092290D01*
X115557890Y-100067362D01*
X115454852Y-100074057D01*
X115171234Y-100090433D01*
X114938168Y-100055733D01*
X114682056Y-99953124D01*
X114488934Y-99853162D01*
X114388210Y-99791599D01*
X114396452Y-99758855D01*
X114536057Y-99743889D01*
X114722332Y-99738117D01*
X114983254Y-99719212D01*
X115104863Y-99671900D01*
X115119662Y-99598501D01*
X115149802Y-99445981D01*
X115253192Y-99288239D01*
X115379960Y-99099383D01*
X115369197Y-98927023D01*
X115217096Y-98720178D01*
X115210213Y-98712805D01*
X115036408Y-98527399D01*
X115336647Y-98645531D01*
G36*
X113469800Y-98335373D02*
G01*
X113570504Y-98421803D01*
X113579822Y-98454847D01*
X113534756Y-98464203D01*
X113469800Y-98407714D01*
X113420539Y-98329211D01*
X113469800Y-98335373D01*
G37*
X113469800Y-98335373D02*
X113570504Y-98421803D01*
X113579822Y-98454847D01*
X113534756Y-98464203D01*
X113469800Y-98407714D01*
X113420539Y-98329211D01*
X113469800Y-98335373D01*
G36*
X113829273Y-98537166D02*
G01*
X114001097Y-98619199D01*
X114072255Y-98679020D01*
X114020164Y-98694047D01*
X113978944Y-98686838D01*
X113801501Y-98608673D01*
X113744596Y-98561976D01*
X113725888Y-98509081D01*
X113829273Y-98537166D01*
G37*
X113829273Y-98537166D02*
X114001097Y-98619199D01*
X114072255Y-98679020D01*
X114020164Y-98694047D01*
X113978944Y-98686838D01*
X113801501Y-98608673D01*
X113744596Y-98561976D01*
X113725888Y-98509081D01*
X113829273Y-98537166D01*
G36*
X117448673Y-96183291D02*
G01*
X117571046Y-96292102D01*
X117688818Y-96427363D01*
X117744985Y-96557060D01*
X117728858Y-96702103D01*
X117629744Y-96883395D01*
X117436954Y-97121846D01*
X117139798Y-97438360D01*
X116819219Y-97762350D01*
X115896338Y-98685230D01*
X115613076Y-98568920D01*
X115302787Y-98435380D01*
X115125188Y-98337723D01*
X115053317Y-98255373D01*
X115060218Y-98167759D01*
X115066777Y-98151999D01*
X115144938Y-98048452D01*
X115321753Y-97850004D01*
X115575078Y-97580422D01*
X115882772Y-97263473D01*
X116074957Y-97069771D01*
X116473899Y-96676125D01*
X116777396Y-96395107D01*
X117006034Y-96216016D01*
X117180401Y-96128151D01*
X117321086Y-96120809D01*
X117448673Y-96183291D01*
G37*
X117448673Y-96183291D02*
X117571046Y-96292102D01*
X117688818Y-96427363D01*
X117744985Y-96557060D01*
X117728858Y-96702103D01*
X117629744Y-96883395D01*
X117436954Y-97121846D01*
X117139798Y-97438360D01*
X116819219Y-97762350D01*
X115896338Y-98685230D01*
X115613076Y-98568920D01*
X115302787Y-98435380D01*
X115125188Y-98337723D01*
X115053317Y-98255373D01*
X115060218Y-98167759D01*
X115066777Y-98151999D01*
X115144938Y-98048452D01*
X115321753Y-97850004D01*
X115575078Y-97580422D01*
X115882772Y-97263473D01*
X116074957Y-97069771D01*
X116473899Y-96676125D01*
X116777396Y-96395107D01*
X117006034Y-96216016D01*
X117180401Y-96128151D01*
X117321086Y-96120809D01*
X117448673Y-96183291D01*
D14*
%TO.C,J2*%
X152270000Y-80670000D02*
X152270000Y-78070000D01*
X154870000Y-78070000D02*
X154870000Y-128990000D01*
X152270000Y-78070000D02*
X154870000Y-78070000D01*
X149670000Y-78070000D02*
X151000000Y-78070000D01*
X149670000Y-80670000D02*
X149670000Y-128990000D01*
X149670000Y-80670000D02*
X152270000Y-80670000D01*
X149670000Y-79400000D02*
X149670000Y-78070000D01*
X149670000Y-128990000D02*
X154870000Y-128990000D01*
%TO.C,J3*%
X131095000Y-69555000D02*
X138835000Y-69555000D01*
X132425000Y-74755000D02*
X131095000Y-74755000D01*
X133695000Y-72155000D02*
X131095000Y-72155000D01*
X133695000Y-74755000D02*
X133695000Y-72155000D01*
X131095000Y-74755000D02*
X131095000Y-73425000D01*
X131095000Y-72155000D02*
X131095000Y-69555000D01*
X138835000Y-74755000D02*
X138835000Y-69555000D01*
X133695000Y-74755000D02*
X138835000Y-74755000D01*
%TO.C,J1*%
X96670000Y-108470000D02*
X96670000Y-121230000D01*
X99330000Y-108470000D02*
X99330000Y-121230000D01*
X96670000Y-121230000D02*
X99330000Y-121230000D01*
X96670000Y-105870000D02*
X98000000Y-105870000D01*
X96670000Y-107200000D02*
X96670000Y-105870000D01*
X96670000Y-108470000D02*
X99330000Y-108470000D01*
D15*
%TO.C,J4*%
X121250000Y-83450000D02*
X121250000Y-65250000D01*
X118580000Y-85760000D02*
X117310000Y-85760000D01*
X121250000Y-83450000D02*
X119278000Y-83450000D01*
X105750000Y-65250000D02*
X105750000Y-83450000D01*
X116040000Y-85760000D02*
X117310000Y-85760000D01*
X117310000Y-85760000D02*
X117310000Y-87030000D01*
X112078000Y-83450000D02*
X114922000Y-83450000D01*
X117310000Y-85760000D02*
X117310000Y-84490000D01*
X105750000Y-83450000D02*
X107722000Y-83450000D01*
X121250000Y-65250000D02*
X105750000Y-65250000D01*
D14*
%TO.C,J5*%
X93770000Y-73550000D02*
X93770000Y-72220000D01*
X93770000Y-72220000D02*
X95100000Y-72220000D01*
X93770000Y-74820000D02*
X93770000Y-79960000D01*
X96430000Y-74820000D02*
X96430000Y-79960000D01*
X93770000Y-74820000D02*
X96430000Y-74820000D01*
X93770000Y-79960000D02*
X96430000Y-79960000D01*
%TO.C,J6*%
X96870000Y-68280000D02*
X104550000Y-68280000D01*
X94270000Y-68280000D02*
X94270000Y-66950000D01*
X96870000Y-68280000D02*
X96870000Y-65620000D01*
X95600000Y-68280000D02*
X94270000Y-68280000D01*
X104550000Y-68280000D02*
X104550000Y-65620000D01*
X96870000Y-65620000D02*
X104550000Y-65620000D01*
%TO.C,J8*%
X156820000Y-89000000D02*
X156820000Y-87670000D01*
X156820000Y-97950000D02*
X159480000Y-97950000D01*
X156820000Y-90270000D02*
X159480000Y-90270000D01*
X156820000Y-87670000D02*
X158150000Y-87670000D01*
X159480000Y-90270000D02*
X159480000Y-97950000D01*
X156820000Y-90270000D02*
X156820000Y-97950000D01*
%TO.C,J9*%
X95270000Y-90270000D02*
X97930000Y-90270000D01*
X95270000Y-89000000D02*
X95270000Y-87670000D01*
X95270000Y-90270000D02*
X95270000Y-97950000D01*
X97930000Y-90270000D02*
X97930000Y-97950000D01*
X95270000Y-87670000D02*
X96600000Y-87670000D01*
X95270000Y-97950000D02*
X97930000Y-97950000D01*
%TD*%
M02*
