%TF.GenerationSoftware,KiCad,Pcbnew,6.0.8-f2edbf62ab~116~ubuntu22.04.1*%
%TF.CreationDate,2022-11-20T23:04:19-05:00*%
%TF.ProjectId,Pi_HAT_Simple_V3,50695f48-4154-45f5-9369-6d706c655f56,rev?*%
%TF.SameCoordinates,Original*%
%TF.FileFunction,Copper,L1,Top*%
%TF.FilePolarity,Positive*%
%FSLAX46Y46*%
G04 Gerber Fmt 4.6, Leading zero omitted, Abs format (unit mm)*
G04 Created by KiCad (PCBNEW 6.0.8-f2edbf62ab~116~ubuntu22.04.1) date 2022-11-20 23:04:19*
%MOMM*%
%LPD*%
G01*
G04 APERTURE LIST*
%TA.AperFunction,ComponentPad*%
%ADD10R,1.700000X1.700000*%
%TD*%
%TA.AperFunction,ComponentPad*%
%ADD11O,1.700000X1.700000*%
%TD*%
%TA.AperFunction,ComponentPad*%
%ADD12R,3.716000X3.716000*%
%TD*%
%TA.AperFunction,ComponentPad*%
%ADD13C,3.716000*%
%TD*%
%TA.AperFunction,ComponentPad*%
%ADD14O,1.200000X2.400000*%
%TD*%
%TA.AperFunction,ComponentPad*%
%ADD15R,4.000000X4.000000*%
%TD*%
%TA.AperFunction,Conductor*%
%ADD16C,1.000000*%
%TD*%
%TA.AperFunction,Conductor*%
%ADD17C,0.250000*%
%TD*%
G04 APERTURE END LIST*
D10*
%TO.P,J2,1,Pin_1*%
%TO.N,/3.3V*%
X151000000Y-79400000D03*
D11*
%TO.P,J2,2,Pin_2*%
%TO.N,/5V*%
X153540000Y-79400000D03*
%TO.P,J2,3,Pin_3*%
%TO.N,/SDA*%
X151000000Y-81940000D03*
%TO.P,J2,4,Pin_4*%
%TO.N,/5V*%
X153540000Y-81940000D03*
%TO.P,J2,5,Pin_5*%
%TO.N,/SCL*%
X151000000Y-84480000D03*
%TO.P,J2,6,Pin_6*%
%TO.N,GND*%
X153540000Y-84480000D03*
%TO.P,J2,7,Pin_7*%
%TO.N,unconnected-(J2-Pad7)*%
X151000000Y-87020000D03*
%TO.P,J2,8,Pin_8*%
%TO.N,unconnected-(J2-Pad8)*%
X153540000Y-87020000D03*
%TO.P,J2,9,Pin_9*%
%TO.N,unconnected-(J2-Pad9)*%
X151000000Y-89560000D03*
%TO.P,J2,10,Pin_10*%
%TO.N,unconnected-(J2-Pad10)*%
X153540000Y-89560000D03*
%TO.P,J2,11,Pin_11*%
%TO.N,unconnected-(J2-Pad11)*%
X151000000Y-92100000D03*
%TO.P,J2,12,Pin_12*%
%TO.N,unconnected-(J2-Pad12)*%
X153540000Y-92100000D03*
%TO.P,J2,13,Pin_13*%
%TO.N,unconnected-(J2-Pad13)*%
X151000000Y-94640000D03*
%TO.P,J2,14,Pin_14*%
%TO.N,unconnected-(J2-Pad14)*%
X153540000Y-94640000D03*
%TO.P,J2,15,Pin_15*%
%TO.N,unconnected-(J2-Pad15)*%
X151000000Y-97180000D03*
%TO.P,J2,16,Pin_16*%
%TO.N,unconnected-(J2-Pad16)*%
X153540000Y-97180000D03*
%TO.P,J2,17,Pin_17*%
%TO.N,unconnected-(J2-Pad17)*%
X151000000Y-99720000D03*
%TO.P,J2,18,Pin_18*%
%TO.N,unconnected-(J2-Pad18)*%
X153540000Y-99720000D03*
%TO.P,J2,19,Pin_19*%
%TO.N,/MOSI*%
X151000000Y-102260000D03*
%TO.P,J2,20,Pin_20*%
%TO.N,unconnected-(J2-Pad20)*%
X153540000Y-102260000D03*
%TO.P,J2,21,Pin_21*%
%TO.N,/MISO*%
X151000000Y-104800000D03*
%TO.P,J2,22,Pin_22*%
%TO.N,unconnected-(J2-Pad22)*%
X153540000Y-104800000D03*
%TO.P,J2,23,Pin_23*%
%TO.N,/SCLK*%
X151000000Y-107340000D03*
%TO.P,J2,24,Pin_24*%
%TO.N,/CS*%
X153540000Y-107340000D03*
%TO.P,J2,25,Pin_25*%
%TO.N,unconnected-(J2-Pad25)*%
X151000000Y-109880000D03*
%TO.P,J2,26,Pin_26*%
%TO.N,unconnected-(J2-Pad26)*%
X153540000Y-109880000D03*
%TO.P,J2,27,Pin_27*%
%TO.N,unconnected-(J2-Pad27)*%
X151000000Y-112420000D03*
%TO.P,J2,28,Pin_28*%
%TO.N,unconnected-(J2-Pad28)*%
X153540000Y-112420000D03*
%TO.P,J2,29,Pin_29*%
%TO.N,unconnected-(J2-Pad29)*%
X151000000Y-114960000D03*
%TO.P,J2,30,Pin_30*%
%TO.N,unconnected-(J2-Pad30)*%
X153540000Y-114960000D03*
%TO.P,J2,31,Pin_31*%
%TO.N,unconnected-(J2-Pad31)*%
X151000000Y-117500000D03*
%TO.P,J2,32,Pin_32*%
%TO.N,unconnected-(J2-Pad32)*%
X153540000Y-117500000D03*
%TO.P,J2,33,Pin_33*%
%TO.N,unconnected-(J2-Pad33)*%
X151000000Y-120040000D03*
%TO.P,J2,34,Pin_34*%
%TO.N,unconnected-(J2-Pad34)*%
X153540000Y-120040000D03*
%TO.P,J2,35,Pin_35*%
%TO.N,unconnected-(J2-Pad35)*%
X151000000Y-122580000D03*
%TO.P,J2,36,Pin_36*%
%TO.N,unconnected-(J2-Pad36)*%
X153540000Y-122580000D03*
%TO.P,J2,37,Pin_37*%
%TO.N,unconnected-(J2-Pad37)*%
X151000000Y-125120000D03*
%TO.P,J2,38,Pin_38*%
%TO.N,unconnected-(J2-Pad38)*%
X153540000Y-125120000D03*
%TO.P,J2,39,Pin_39*%
%TO.N,unconnected-(J2-Pad39)*%
X151000000Y-127660000D03*
%TO.P,J2,40,Pin_40*%
%TO.N,unconnected-(J2-Pad40)*%
X153540000Y-127660000D03*
%TD*%
D10*
%TO.P,J3,1,Pin_1*%
%TO.N,/3.3V*%
X132425000Y-73425000D03*
D11*
%TO.P,J3,2,Pin_2*%
%TO.N,/5V*%
X132425000Y-70885000D03*
%TO.P,J3,3,Pin_3*%
%TO.N,/SDA*%
X134965000Y-73425000D03*
%TO.P,J3,4,Pin_4*%
%TO.N,/5V*%
X134965000Y-70885000D03*
%TO.P,J3,5,Pin_5*%
%TO.N,/SCL*%
X137505000Y-73425000D03*
%TO.P,J3,6,Pin_6*%
%TO.N,GND*%
X137505000Y-70885000D03*
%TD*%
D10*
%TO.P,J1,1,Pin_1*%
%TO.N,/3.3V*%
X98000000Y-107200000D03*
D11*
%TO.P,J1,2,Pin_2*%
%TO.N,unconnected-(J1-Pad2)*%
X98000000Y-109740000D03*
%TO.P,J1,3,Pin_3*%
%TO.N,GND*%
X98000000Y-112280000D03*
%TO.P,J1,4,Pin_4*%
%TO.N,/SCL*%
X98000000Y-114820000D03*
%TO.P,J1,5,Pin_5*%
%TO.N,/SDA*%
X98000000Y-117360000D03*
%TO.P,J1,6,Pin_6*%
%TO.N,unconnected-(J1-Pad6)*%
X98000000Y-119900000D03*
%TD*%
D12*
%TO.P,J4,1,+*%
%TO.N,/VCC*%
X117100000Y-81600000D03*
D13*
%TO.P,J4,2,-*%
%TO.N,GND*%
X109900000Y-81600000D03*
D14*
%TO.P,J4,S1*%
%TO.N,N/C*%
X120250000Y-75600000D03*
%TO.P,J4,S2*%
X106750000Y-75600000D03*
%TD*%
D10*
%TO.P,J5,1,Pin_1*%
%TO.N,/5V*%
X95100000Y-73550000D03*
D11*
%TO.P,J5,2,Pin_2*%
%TO.N,GND*%
X95100000Y-76090000D03*
%TO.P,J5,3,Pin_3*%
%TO.N,/A-D Converter/PS*%
X95100000Y-78630000D03*
%TD*%
%TO.P,J6,4,Pin_4*%
%TO.N,/A-D Converter/VT*%
X103220000Y-66950000D03*
%TO.P,J6,3,Pin_3*%
%TO.N,/A-D Converter/CELL3*%
X100680000Y-66950000D03*
%TO.P,J6,2,Pin_2*%
%TO.N,/A-D Converter/CELL2*%
X98140000Y-66950000D03*
D10*
%TO.P,J6,1,Pin_1*%
%TO.N,/A-D Converter/CELL1*%
X95600000Y-66950000D03*
%TD*%
D11*
%TO.P,J8,4,Pin_4*%
%TO.N,/SDA*%
X158150000Y-96620000D03*
%TO.P,J8,3,Pin_3*%
%TO.N,/SCL*%
X158150000Y-94080000D03*
%TO.P,J8,2,Pin_2*%
%TO.N,GND*%
X158150000Y-91540000D03*
D10*
%TO.P,J8,1,Pin_1*%
%TO.N,/VCC*%
X158150000Y-89000000D03*
%TD*%
D11*
%TO.P,J9,4,Pin_4*%
%TO.N,/SDA*%
X96600000Y-96620000D03*
%TO.P,J9,3,Pin_3*%
%TO.N,/SCL*%
X96600000Y-94080000D03*
%TO.P,J9,2,Pin_2*%
%TO.N,GND*%
X96600000Y-91540000D03*
D10*
%TO.P,J9,1,Pin_1*%
%TO.N,/VCC*%
X96600000Y-89000000D03*
%TD*%
D15*
%TO.P,U1,1,IN+*%
%TO.N,/VCC*%
X141852000Y-132236000D03*
%TO.P,U1,2,IN-*%
%TO.N,GND*%
X122400000Y-132350000D03*
%TO.P,U1,3,OUT+*%
%TO.N,/5V*%
X141900000Y-87600000D03*
%TO.P,U1,4,OUT-*%
%TO.N,GND*%
X122400000Y-87600000D03*
%TD*%
D16*
%TO.N,/VCC*%
X117100000Y-81600000D02*
X130500000Y-68200000D01*
X130500000Y-68200000D02*
X154150000Y-68200000D01*
X154150000Y-68200000D02*
X158150000Y-72200000D01*
X158150000Y-72200000D02*
X158150000Y-89000000D01*
X96600000Y-89000000D02*
X106850000Y-78750000D01*
X114550000Y-78750000D02*
X117100000Y-81300000D01*
X106850000Y-78750000D02*
X114550000Y-78750000D01*
X117100000Y-81300000D02*
X117100000Y-81600000D01*
X96600000Y-89000000D02*
X95000000Y-89000000D01*
X95000000Y-89000000D02*
X93900000Y-90100000D01*
X93900000Y-90100000D02*
X93900000Y-120400000D01*
X93900000Y-120400000D02*
X99800000Y-126300000D01*
X99800000Y-126300000D02*
X135916000Y-126300000D01*
X135916000Y-126300000D02*
X141852000Y-132236000D01*
D17*
%TO.N,/SCL*%
X98000000Y-114820000D02*
X99400000Y-113420000D01*
X99400000Y-113420000D02*
X99400000Y-96880000D01*
X99400000Y-96880000D02*
X96600000Y-94080000D01*
%TO.N,/SDA*%
X96600000Y-96620000D02*
X96600000Y-115960000D01*
X96600000Y-115960000D02*
X98000000Y-117360000D01*
%TO.N,/SCL*%
X137505000Y-73425000D02*
X137505000Y-73481396D01*
X137505000Y-73481396D02*
X126086396Y-84900000D01*
X126086396Y-84900000D02*
X106136396Y-84900000D01*
X106136396Y-84900000D02*
X96956396Y-94080000D01*
X96956396Y-94080000D02*
X96600000Y-94080000D01*
%TO.N,/SDA*%
X96600000Y-96620000D02*
X95150000Y-95170000D01*
X95150000Y-95170000D02*
X95150000Y-93350000D01*
X95150000Y-93350000D02*
X95750000Y-92750000D01*
X125900000Y-84450000D02*
X134965000Y-75385000D01*
X134965000Y-75385000D02*
X134965000Y-73425000D01*
X95750000Y-92750000D02*
X97650000Y-92750000D01*
X97650000Y-92750000D02*
X105950000Y-84450000D01*
X105950000Y-84450000D02*
X125900000Y-84450000D01*
%TO.N,/5V*%
X134965000Y-70885000D02*
X132425000Y-70885000D01*
%TO.N,/SDA*%
X134965000Y-73425000D02*
X136240000Y-72150000D01*
X136240000Y-72150000D02*
X139306396Y-72150000D01*
X149096396Y-81940000D02*
X151000000Y-81940000D01*
X139306396Y-72150000D02*
X149096396Y-81940000D01*
%TO.N,/SCL*%
X137505000Y-73425000D02*
X139945000Y-73425000D01*
X139945000Y-73425000D02*
X151000000Y-84480000D01*
%TO.N,/5V*%
X141900000Y-87600000D02*
X148200000Y-87600000D01*
X148200000Y-87600000D02*
X150100000Y-85700000D01*
X150100000Y-85700000D02*
X151850000Y-85700000D01*
X151850000Y-85700000D02*
X152250000Y-85300000D01*
X152250000Y-85300000D02*
X152250000Y-83230000D01*
X152250000Y-83230000D02*
X153540000Y-81940000D01*
%TO.N,GND*%
X158150000Y-91540000D02*
X155150000Y-88540000D01*
X155150000Y-88540000D02*
X155150000Y-86090000D01*
X155150000Y-86090000D02*
X153540000Y-84480000D01*
%TO.N,/5V*%
X153540000Y-81940000D02*
X153540000Y-79400000D01*
%TD*%
M02*
