%TF.GenerationSoftware,KiCad,Pcbnew,6.0.8-f2edbf62ab~116~ubuntu22.04.1*%
%TF.CreationDate,2022-11-20T23:04:20-05:00*%
%TF.ProjectId,Pi_HAT_Simple_V3,50695f48-4154-45f5-9369-6d706c655f56,rev?*%
%TF.SameCoordinates,Original*%
%TF.FileFunction,Copper,L2,Bot*%
%TF.FilePolarity,Positive*%
%FSLAX46Y46*%
G04 Gerber Fmt 4.6, Leading zero omitted, Abs format (unit mm)*
G04 Created by KiCad (PCBNEW 6.0.8-f2edbf62ab~116~ubuntu22.04.1) date 2022-11-20 23:04:20*
%MOMM*%
%LPD*%
G01*
G04 APERTURE LIST*
G04 Aperture macros list*
%AMRoundRect*
0 Rectangle with rounded corners*
0 $1 Rounding radius*
0 $2 $3 $4 $5 $6 $7 $8 $9 X,Y pos of 4 corners*
0 Add a 4 corners polygon primitive as box body*
4,1,4,$2,$3,$4,$5,$6,$7,$8,$9,$2,$3,0*
0 Add four circle primitives for the rounded corners*
1,1,$1+$1,$2,$3*
1,1,$1+$1,$4,$5*
1,1,$1+$1,$6,$7*
1,1,$1+$1,$8,$9*
0 Add four rect primitives between the rounded corners*
20,1,$1+$1,$2,$3,$4,$5,0*
20,1,$1+$1,$4,$5,$6,$7,0*
20,1,$1+$1,$6,$7,$8,$9,0*
20,1,$1+$1,$8,$9,$2,$3,0*%
G04 Aperture macros list end*
%TA.AperFunction,ComponentPad*%
%ADD10R,1.700000X1.700000*%
%TD*%
%TA.AperFunction,ComponentPad*%
%ADD11O,1.700000X1.700000*%
%TD*%
%TA.AperFunction,ComponentPad*%
%ADD12R,3.716000X3.716000*%
%TD*%
%TA.AperFunction,ComponentPad*%
%ADD13C,3.716000*%
%TD*%
%TA.AperFunction,ComponentPad*%
%ADD14O,1.200000X2.400000*%
%TD*%
%TA.AperFunction,ComponentPad*%
%ADD15R,4.000000X4.000000*%
%TD*%
%TA.AperFunction,SMDPad,CuDef*%
%ADD16RoundRect,0.042000X-0.908000X-0.258000X0.908000X-0.258000X0.908000X0.258000X-0.908000X0.258000X0*%
%TD*%
%TA.AperFunction,Conductor*%
%ADD17C,0.250000*%
%TD*%
G04 APERTURE END LIST*
D10*
%TO.P,J2,1,Pin_1*%
%TO.N,/3.3V*%
X151000000Y-79400000D03*
D11*
%TO.P,J2,2,Pin_2*%
%TO.N,/5V*%
X153540000Y-79400000D03*
%TO.P,J2,3,Pin_3*%
%TO.N,/SDA*%
X151000000Y-81940000D03*
%TO.P,J2,4,Pin_4*%
%TO.N,/5V*%
X153540000Y-81940000D03*
%TO.P,J2,5,Pin_5*%
%TO.N,/SCL*%
X151000000Y-84480000D03*
%TO.P,J2,6,Pin_6*%
%TO.N,GND*%
X153540000Y-84480000D03*
%TO.P,J2,7,Pin_7*%
%TO.N,unconnected-(J2-Pad7)*%
X151000000Y-87020000D03*
%TO.P,J2,8,Pin_8*%
%TO.N,unconnected-(J2-Pad8)*%
X153540000Y-87020000D03*
%TO.P,J2,9,Pin_9*%
%TO.N,unconnected-(J2-Pad9)*%
X151000000Y-89560000D03*
%TO.P,J2,10,Pin_10*%
%TO.N,unconnected-(J2-Pad10)*%
X153540000Y-89560000D03*
%TO.P,J2,11,Pin_11*%
%TO.N,unconnected-(J2-Pad11)*%
X151000000Y-92100000D03*
%TO.P,J2,12,Pin_12*%
%TO.N,unconnected-(J2-Pad12)*%
X153540000Y-92100000D03*
%TO.P,J2,13,Pin_13*%
%TO.N,unconnected-(J2-Pad13)*%
X151000000Y-94640000D03*
%TO.P,J2,14,Pin_14*%
%TO.N,unconnected-(J2-Pad14)*%
X153540000Y-94640000D03*
%TO.P,J2,15,Pin_15*%
%TO.N,unconnected-(J2-Pad15)*%
X151000000Y-97180000D03*
%TO.P,J2,16,Pin_16*%
%TO.N,unconnected-(J2-Pad16)*%
X153540000Y-97180000D03*
%TO.P,J2,17,Pin_17*%
%TO.N,unconnected-(J2-Pad17)*%
X151000000Y-99720000D03*
%TO.P,J2,18,Pin_18*%
%TO.N,unconnected-(J2-Pad18)*%
X153540000Y-99720000D03*
%TO.P,J2,19,Pin_19*%
%TO.N,/MOSI*%
X151000000Y-102260000D03*
%TO.P,J2,20,Pin_20*%
%TO.N,unconnected-(J2-Pad20)*%
X153540000Y-102260000D03*
%TO.P,J2,21,Pin_21*%
%TO.N,/MISO*%
X151000000Y-104800000D03*
%TO.P,J2,22,Pin_22*%
%TO.N,unconnected-(J2-Pad22)*%
X153540000Y-104800000D03*
%TO.P,J2,23,Pin_23*%
%TO.N,/SCLK*%
X151000000Y-107340000D03*
%TO.P,J2,24,Pin_24*%
%TO.N,/CS*%
X153540000Y-107340000D03*
%TO.P,J2,25,Pin_25*%
%TO.N,unconnected-(J2-Pad25)*%
X151000000Y-109880000D03*
%TO.P,J2,26,Pin_26*%
%TO.N,unconnected-(J2-Pad26)*%
X153540000Y-109880000D03*
%TO.P,J2,27,Pin_27*%
%TO.N,unconnected-(J2-Pad27)*%
X151000000Y-112420000D03*
%TO.P,J2,28,Pin_28*%
%TO.N,unconnected-(J2-Pad28)*%
X153540000Y-112420000D03*
%TO.P,J2,29,Pin_29*%
%TO.N,unconnected-(J2-Pad29)*%
X151000000Y-114960000D03*
%TO.P,J2,30,Pin_30*%
%TO.N,unconnected-(J2-Pad30)*%
X153540000Y-114960000D03*
%TO.P,J2,31,Pin_31*%
%TO.N,unconnected-(J2-Pad31)*%
X151000000Y-117500000D03*
%TO.P,J2,32,Pin_32*%
%TO.N,unconnected-(J2-Pad32)*%
X153540000Y-117500000D03*
%TO.P,J2,33,Pin_33*%
%TO.N,unconnected-(J2-Pad33)*%
X151000000Y-120040000D03*
%TO.P,J2,34,Pin_34*%
%TO.N,unconnected-(J2-Pad34)*%
X153540000Y-120040000D03*
%TO.P,J2,35,Pin_35*%
%TO.N,unconnected-(J2-Pad35)*%
X151000000Y-122580000D03*
%TO.P,J2,36,Pin_36*%
%TO.N,unconnected-(J2-Pad36)*%
X153540000Y-122580000D03*
%TO.P,J2,37,Pin_37*%
%TO.N,unconnected-(J2-Pad37)*%
X151000000Y-125120000D03*
%TO.P,J2,38,Pin_38*%
%TO.N,unconnected-(J2-Pad38)*%
X153540000Y-125120000D03*
%TO.P,J2,39,Pin_39*%
%TO.N,unconnected-(J2-Pad39)*%
X151000000Y-127660000D03*
%TO.P,J2,40,Pin_40*%
%TO.N,unconnected-(J2-Pad40)*%
X153540000Y-127660000D03*
%TD*%
D10*
%TO.P,J3,1,Pin_1*%
%TO.N,/3.3V*%
X132425000Y-73425000D03*
D11*
%TO.P,J3,2,Pin_2*%
%TO.N,/5V*%
X132425000Y-70885000D03*
%TO.P,J3,3,Pin_3*%
%TO.N,/SDA*%
X134965000Y-73425000D03*
%TO.P,J3,4,Pin_4*%
%TO.N,/5V*%
X134965000Y-70885000D03*
%TO.P,J3,5,Pin_5*%
%TO.N,/SCL*%
X137505000Y-73425000D03*
%TO.P,J3,6,Pin_6*%
%TO.N,GND*%
X137505000Y-70885000D03*
%TD*%
D10*
%TO.P,J1,1,Pin_1*%
%TO.N,/3.3V*%
X98000000Y-107200000D03*
D11*
%TO.P,J1,2,Pin_2*%
%TO.N,unconnected-(J1-Pad2)*%
X98000000Y-109740000D03*
%TO.P,J1,3,Pin_3*%
%TO.N,GND*%
X98000000Y-112280000D03*
%TO.P,J1,4,Pin_4*%
%TO.N,/SCL*%
X98000000Y-114820000D03*
%TO.P,J1,5,Pin_5*%
%TO.N,/SDA*%
X98000000Y-117360000D03*
%TO.P,J1,6,Pin_6*%
%TO.N,unconnected-(J1-Pad6)*%
X98000000Y-119900000D03*
%TD*%
D12*
%TO.P,J4,1,+*%
%TO.N,/VCC*%
X117100000Y-81600000D03*
D13*
%TO.P,J4,2,-*%
%TO.N,GND*%
X109900000Y-81600000D03*
D14*
%TO.P,J4,S1*%
%TO.N,N/C*%
X120250000Y-75600000D03*
%TO.P,J4,S2*%
X106750000Y-75600000D03*
%TD*%
D10*
%TO.P,J5,1,Pin_1*%
%TO.N,/5V*%
X95100000Y-73550000D03*
D11*
%TO.P,J5,2,Pin_2*%
%TO.N,GND*%
X95100000Y-76090000D03*
%TO.P,J5,3,Pin_3*%
%TO.N,/A-D Converter/PS*%
X95100000Y-78630000D03*
%TD*%
%TO.P,J6,4,Pin_4*%
%TO.N,/A-D Converter/VT*%
X103220000Y-66950000D03*
%TO.P,J6,3,Pin_3*%
%TO.N,/A-D Converter/CELL3*%
X100680000Y-66950000D03*
%TO.P,J6,2,Pin_2*%
%TO.N,/A-D Converter/CELL2*%
X98140000Y-66950000D03*
D10*
%TO.P,J6,1,Pin_1*%
%TO.N,/A-D Converter/CELL1*%
X95600000Y-66950000D03*
%TD*%
D11*
%TO.P,J8,4,Pin_4*%
%TO.N,/SDA*%
X158150000Y-96620000D03*
%TO.P,J8,3,Pin_3*%
%TO.N,/SCL*%
X158150000Y-94080000D03*
%TO.P,J8,2,Pin_2*%
%TO.N,GND*%
X158150000Y-91540000D03*
D10*
%TO.P,J8,1,Pin_1*%
%TO.N,/VCC*%
X158150000Y-89000000D03*
%TD*%
D11*
%TO.P,J9,4,Pin_4*%
%TO.N,/SDA*%
X96600000Y-96620000D03*
%TO.P,J9,3,Pin_3*%
%TO.N,/SCL*%
X96600000Y-94080000D03*
%TO.P,J9,2,Pin_2*%
%TO.N,GND*%
X96600000Y-91540000D03*
D10*
%TO.P,J9,1,Pin_1*%
%TO.N,/VCC*%
X96600000Y-89000000D03*
%TD*%
D15*
%TO.P,U1,1,IN+*%
%TO.N,/VCC*%
X141852000Y-132236000D03*
%TO.P,U1,2,IN-*%
%TO.N,GND*%
X122400000Y-132350000D03*
%TO.P,U1,3,OUT+*%
%TO.N,/5V*%
X141900000Y-87600000D03*
%TO.P,U1,4,OUT-*%
%TO.N,GND*%
X122400000Y-87600000D03*
%TD*%
D16*
%TO.P,U2,16,VDD*%
%TO.N,/3.3V*%
X144417500Y-104355000D03*
%TO.P,U2,15,VREF*%
X144417500Y-103085000D03*
%TO.P,U2,14,AGND*%
%TO.N,GND*%
X144417500Y-101815000D03*
%TO.P,U2,13,CLK*%
%TO.N,/SCLK*%
X144417500Y-100545000D03*
%TO.P,U2,12,DOUT*%
%TO.N,/MISO*%
X144417500Y-99275000D03*
%TO.P,U2,11,DIN*%
%TO.N,/MOSI*%
X144417500Y-98005000D03*
%TO.P,U2,10,~{CS/SHDN}*%
%TO.N,/CS*%
X144417500Y-96735000D03*
%TO.P,U2,9,DGND*%
%TO.N,GND*%
X144417500Y-95465000D03*
%TO.P,U2,8,CH7*%
%TO.N,unconnected-(U2-Pad8)*%
X139507500Y-95465000D03*
%TO.P,U2,7,CH6*%
%TO.N,unconnected-(U2-Pad7)*%
X139507500Y-96735000D03*
%TO.P,U2,6,CH5*%
%TO.N,unconnected-(U2-Pad6)*%
X139507500Y-98005000D03*
%TO.P,U2,5,CH4*%
%TO.N,/A-D Converter/VT*%
X139507500Y-99275000D03*
%TO.P,U2,4,CH3*%
%TO.N,/A-D Converter/CELL3*%
X139507500Y-100545000D03*
%TO.P,U2,3,CH2*%
%TO.N,/A-D Converter/CELL2*%
X139507500Y-101815000D03*
%TO.P,U2,2,CH1*%
%TO.N,/A-D Converter/CELL1*%
X139507500Y-103085000D03*
%TO.P,U2,1,CH0*%
%TO.N,/A-D Converter/PS*%
X139507500Y-104355000D03*
%TD*%
D17*
%TO.N,GND*%
X96600000Y-91540000D02*
X93700000Y-88640000D01*
X93700000Y-88640000D02*
X93700000Y-77490000D01*
X93700000Y-77490000D02*
X95100000Y-76090000D01*
%TO.N,/5V*%
X132425000Y-70885000D02*
X127140000Y-65600000D01*
X94250000Y-65600000D02*
X94050000Y-65800000D01*
X127140000Y-65600000D02*
X94250000Y-65600000D01*
X94050000Y-65800000D02*
X94050000Y-72500000D01*
X94050000Y-72500000D02*
X95100000Y-73550000D01*
X132425000Y-70885000D02*
X130850000Y-72460000D01*
X130850000Y-72460000D02*
X130850000Y-76550000D01*
X130850000Y-76550000D02*
X141900000Y-87600000D01*
%TO.N,/3.3V*%
X132425000Y-73425000D02*
X140300000Y-81300000D01*
X140300000Y-81300000D02*
X149100000Y-81300000D01*
%TO.N,/A-D Converter/PS*%
X139507500Y-104355000D02*
X119305000Y-104355000D01*
X119305000Y-104355000D02*
X95100000Y-80150000D01*
X95100000Y-80150000D02*
X95100000Y-78630000D01*
%TO.N,/A-D Converter/VT*%
X103220000Y-66950000D02*
X97950000Y-72220000D01*
X97950000Y-72220000D02*
X97950000Y-76250000D01*
X97950000Y-76250000D02*
X120975000Y-99275000D01*
X120975000Y-99275000D02*
X139507500Y-99275000D01*
%TO.N,/A-D Converter/CELL3*%
X97500000Y-70200000D02*
X97500000Y-77100000D01*
X100680000Y-66950000D02*
X97500000Y-70130000D01*
X97500000Y-70130000D02*
X97500000Y-70200000D01*
X97500000Y-77100000D02*
X120945000Y-100545000D01*
X120945000Y-100545000D02*
X139507500Y-100545000D01*
%TO.N,/A-D Converter/CELL2*%
X139507500Y-101815000D02*
X120565000Y-101815000D01*
X97050000Y-78300000D02*
X97050000Y-68040000D01*
X120565000Y-101815000D02*
X97050000Y-78300000D01*
X97050000Y-68040000D02*
X98140000Y-66950000D01*
%TO.N,/A-D Converter/CELL1*%
X95600000Y-66950000D02*
X95600000Y-67600000D01*
X119735000Y-103085000D02*
X139507500Y-103085000D01*
X95600000Y-67600000D02*
X96600000Y-68600000D01*
X96600000Y-68600000D02*
X96600000Y-79950000D01*
X96600000Y-79950000D02*
X119735000Y-103085000D01*
%TO.N,/3.3V*%
X144417500Y-103085000D02*
X143485000Y-103085000D01*
X143485000Y-103085000D02*
X142450000Y-102050000D01*
X142450000Y-102050000D02*
X142450000Y-95300000D01*
X142450000Y-95300000D02*
X143200000Y-94550000D01*
X143200000Y-94550000D02*
X144763604Y-94550000D01*
X149100000Y-81300000D02*
X151000000Y-79400000D01*
X144763604Y-94550000D02*
X149100000Y-90213604D01*
X149100000Y-90213604D02*
X149100000Y-81300000D01*
%TO.N,GND*%
X144417500Y-101815000D02*
X143415000Y-101815000D01*
X143415000Y-101815000D02*
X142900000Y-101300000D01*
X142900000Y-101300000D02*
X142900000Y-95850000D01*
X142900000Y-95850000D02*
X143300000Y-95450000D01*
X143300000Y-95450000D02*
X144402500Y-95450000D01*
X144402500Y-95450000D02*
X144417500Y-95465000D01*
X144417500Y-95465000D02*
X144485000Y-95465000D01*
X144485000Y-95465000D02*
X149550000Y-90400000D01*
X149550000Y-90400000D02*
X149550000Y-83950000D01*
X149550000Y-83950000D02*
X150300000Y-83200000D01*
X150300000Y-83200000D02*
X152260000Y-83200000D01*
X152260000Y-83200000D02*
X153540000Y-84480000D01*
%TO.N,/CS*%
X144417500Y-96735000D02*
X145757792Y-96735000D01*
X152250000Y-106050000D02*
X153540000Y-107340000D01*
X145757792Y-96735000D02*
X150022792Y-101000000D01*
X150022792Y-101000000D02*
X151900000Y-101000000D01*
X151900000Y-101000000D02*
X152250000Y-101350000D01*
X152250000Y-101350000D02*
X152250000Y-106050000D01*
%TO.N,/3.3V*%
X98000000Y-107200000D02*
X141572500Y-107200000D01*
X141572500Y-107200000D02*
X144417500Y-104355000D01*
%TO.N,/SDA*%
X158150000Y-96620000D02*
X159500000Y-95270000D01*
X159500000Y-87450000D02*
X155200000Y-83150000D01*
X159500000Y-95270000D02*
X159500000Y-87450000D01*
X155200000Y-83150000D02*
X155200000Y-81550000D01*
X155200000Y-81550000D02*
X154300000Y-80650000D01*
X154300000Y-80650000D02*
X152290000Y-80650000D01*
X152290000Y-80650000D02*
X151000000Y-81940000D01*
%TO.N,/SCL*%
X151000000Y-84480000D02*
X152270000Y-85750000D01*
X154900000Y-85750000D02*
X156750000Y-87600000D01*
X152270000Y-85750000D02*
X154900000Y-85750000D01*
X156750000Y-87600000D02*
X156750000Y-92680000D01*
X156750000Y-92680000D02*
X158150000Y-94080000D01*
%TO.N,/MOSI*%
X144417500Y-98005000D02*
X146391396Y-98005000D01*
X146391396Y-98005000D02*
X150646396Y-102260000D01*
X150646396Y-102260000D02*
X151000000Y-102260000D01*
%TO.N,/SCLK*%
X144417500Y-100545000D02*
X147658604Y-100545000D01*
X149100000Y-105440000D02*
X151000000Y-107340000D01*
X147658604Y-100545000D02*
X149100000Y-101986396D01*
X149100000Y-101986396D02*
X149100000Y-105440000D01*
%TO.N,/MISO*%
X144417500Y-99275000D02*
X147025000Y-99275000D01*
X147025000Y-99275000D02*
X149550000Y-101800000D01*
X149550000Y-101800000D02*
X149550000Y-104500000D01*
X149550000Y-104500000D02*
X149850000Y-104800000D01*
X149850000Y-104800000D02*
X151000000Y-104800000D01*
%TO.N,/3.3V*%
X144417500Y-104355000D02*
X144417500Y-103085000D01*
%TD*%
%TA.AperFunction,Conductor*%
%TO.N,GND*%
G36*
X160163031Y-65234110D02*
G01*
X160177672Y-65236390D01*
X160177676Y-65236390D01*
X160186544Y-65237771D01*
X160195446Y-65236607D01*
X160199217Y-65236114D01*
X160226536Y-65235530D01*
X160352232Y-65246529D01*
X160354010Y-65246685D01*
X160375639Y-65250499D01*
X160521285Y-65289527D01*
X160541923Y-65297039D01*
X160678580Y-65360766D01*
X160697597Y-65371745D01*
X160821112Y-65458233D01*
X160837936Y-65472350D01*
X160944554Y-65578969D01*
X160958671Y-65595793D01*
X161045160Y-65719312D01*
X161056136Y-65738323D01*
X161057639Y-65741545D01*
X161119865Y-65874989D01*
X161127376Y-65895626D01*
X161166402Y-66041266D01*
X161170216Y-66062897D01*
X161180770Y-66183521D01*
X161180218Y-66199962D01*
X161180630Y-66199967D01*
X161180521Y-66208936D01*
X161179139Y-66217811D01*
X161181776Y-66237976D01*
X161183275Y-66249436D01*
X161184339Y-66265745D01*
X161198610Y-134187408D01*
X161198660Y-134426586D01*
X161197159Y-134446000D01*
X161194860Y-134460762D01*
X161194860Y-134460769D01*
X161193479Y-134469637D01*
X161194643Y-134478539D01*
X161194643Y-134478541D01*
X161195136Y-134482312D01*
X161195720Y-134509631D01*
X161188858Y-134588054D01*
X161184566Y-134637110D01*
X161180752Y-134658737D01*
X161174726Y-134681229D01*
X161141725Y-134804386D01*
X161134214Y-134825024D01*
X161070485Y-134961692D01*
X161059508Y-134980705D01*
X160973016Y-135104232D01*
X160958902Y-135121052D01*
X160852276Y-135227681D01*
X160835454Y-135241798D01*
X160711932Y-135328293D01*
X160692925Y-135339267D01*
X160556252Y-135403004D01*
X160535630Y-135410511D01*
X160445897Y-135434558D01*
X160389968Y-135449546D01*
X160368340Y-135453360D01*
X160247961Y-135463897D01*
X160231273Y-135463338D01*
X160231268Y-135463719D01*
X160222291Y-135463610D01*
X160213422Y-135462229D01*
X160204523Y-135463393D01*
X160204521Y-135463393D01*
X160181758Y-135466371D01*
X160165461Y-135467435D01*
X94649292Y-135491481D01*
X94629862Y-135489981D01*
X94615150Y-135487690D01*
X94615145Y-135487690D01*
X94606276Y-135486309D01*
X94593603Y-135487966D01*
X94566293Y-135488551D01*
X94438806Y-135477397D01*
X94417183Y-135473585D01*
X94271533Y-135434558D01*
X94250896Y-135427046D01*
X94114240Y-135363322D01*
X94095220Y-135352340D01*
X93971703Y-135265853D01*
X93954878Y-135251735D01*
X93848265Y-135145122D01*
X93834147Y-135128297D01*
X93747660Y-135004780D01*
X93736678Y-134985760D01*
X93672954Y-134849104D01*
X93665443Y-134828466D01*
X93626417Y-134682822D01*
X93622602Y-134661191D01*
X93622388Y-134658739D01*
X93612349Y-134543993D01*
X93612374Y-134521758D01*
X93612770Y-134517344D01*
X93613576Y-134512552D01*
X93613729Y-134500000D01*
X93610282Y-134475927D01*
X93609680Y-134471723D01*
X93608408Y-134454120D01*
X93608287Y-134394669D01*
X119892001Y-134394669D01*
X119892371Y-134401490D01*
X119897895Y-134452352D01*
X119901521Y-134467604D01*
X119946676Y-134588054D01*
X119955214Y-134603649D01*
X120031715Y-134705724D01*
X120044276Y-134718285D01*
X120146351Y-134794786D01*
X120161946Y-134803324D01*
X120282394Y-134848478D01*
X120297649Y-134852105D01*
X120348514Y-134857631D01*
X120355328Y-134858000D01*
X122127885Y-134858000D01*
X122143124Y-134853525D01*
X122144329Y-134852135D01*
X122146000Y-134844452D01*
X122146000Y-134839884D01*
X122654000Y-134839884D01*
X122658475Y-134855123D01*
X122659865Y-134856328D01*
X122667548Y-134857999D01*
X124444669Y-134857999D01*
X124451490Y-134857629D01*
X124502352Y-134852105D01*
X124517604Y-134848479D01*
X124638054Y-134803324D01*
X124653649Y-134794786D01*
X124755724Y-134718285D01*
X124768285Y-134705724D01*
X124844786Y-134603649D01*
X124853324Y-134588054D01*
X124898478Y-134467606D01*
X124902105Y-134452351D01*
X124907631Y-134401486D01*
X124908000Y-134394672D01*
X124908000Y-134284134D01*
X139343500Y-134284134D01*
X139350255Y-134346316D01*
X139401385Y-134482705D01*
X139488739Y-134599261D01*
X139605295Y-134686615D01*
X139741684Y-134737745D01*
X139803866Y-134744500D01*
X143900134Y-134744500D01*
X143962316Y-134737745D01*
X144098705Y-134686615D01*
X144215261Y-134599261D01*
X144302615Y-134482705D01*
X144353745Y-134346316D01*
X144360500Y-134284134D01*
X144360500Y-132607655D01*
X150739858Y-132607655D01*
X150775104Y-132866638D01*
X150776412Y-132871124D01*
X150776412Y-132871126D01*
X150796098Y-132938664D01*
X150848243Y-133117567D01*
X150957668Y-133354928D01*
X150960231Y-133358837D01*
X151098410Y-133569596D01*
X151098414Y-133569601D01*
X151100976Y-133573509D01*
X151275018Y-133768506D01*
X151475970Y-133935637D01*
X151479973Y-133938066D01*
X151695422Y-134068804D01*
X151695426Y-134068806D01*
X151699419Y-134071229D01*
X151940455Y-134172303D01*
X152193783Y-134236641D01*
X152198434Y-134237109D01*
X152198438Y-134237110D01*
X152391308Y-134256531D01*
X152410867Y-134258500D01*
X152566354Y-134258500D01*
X152568679Y-134258327D01*
X152568685Y-134258327D01*
X152756000Y-134244407D01*
X152756004Y-134244406D01*
X152760652Y-134244061D01*
X152765200Y-134243032D01*
X152765206Y-134243031D01*
X152951601Y-134200853D01*
X153015577Y-134186377D01*
X153051769Y-134172303D01*
X153254824Y-134093340D01*
X153254827Y-134093339D01*
X153259177Y-134091647D01*
X153486098Y-133961951D01*
X153691357Y-133800138D01*
X153870443Y-133609763D01*
X154019424Y-133395009D01*
X154135025Y-133160593D01*
X154214707Y-132911665D01*
X154256721Y-132653693D01*
X154260142Y-132392345D01*
X154224896Y-132133362D01*
X154210473Y-132083877D01*
X154153068Y-131886932D01*
X154151757Y-131882433D01*
X154042332Y-131645072D01*
X154009519Y-131595024D01*
X153901590Y-131430404D01*
X153901586Y-131430399D01*
X153899024Y-131426491D01*
X153724982Y-131231494D01*
X153524030Y-131064363D01*
X153476844Y-131035730D01*
X153304578Y-130931196D01*
X153304574Y-130931194D01*
X153300581Y-130928771D01*
X153059545Y-130827697D01*
X152806217Y-130763359D01*
X152801566Y-130762891D01*
X152801562Y-130762890D01*
X152592271Y-130741816D01*
X152589133Y-130741500D01*
X152433646Y-130741500D01*
X152431321Y-130741673D01*
X152431315Y-130741673D01*
X152244000Y-130755593D01*
X152243996Y-130755594D01*
X152239348Y-130755939D01*
X152234800Y-130756968D01*
X152234794Y-130756969D01*
X152048399Y-130799147D01*
X151984423Y-130813623D01*
X151980071Y-130815315D01*
X151980069Y-130815316D01*
X151745176Y-130906660D01*
X151745173Y-130906661D01*
X151740823Y-130908353D01*
X151513902Y-131038049D01*
X151308643Y-131199862D01*
X151129557Y-131390237D01*
X150980576Y-131604991D01*
X150864975Y-131839407D01*
X150785293Y-132088335D01*
X150743279Y-132346307D01*
X150739858Y-132607655D01*
X144360500Y-132607655D01*
X144360500Y-130187866D01*
X144353745Y-130125684D01*
X144302615Y-129989295D01*
X144215261Y-129872739D01*
X144098705Y-129785385D01*
X143962316Y-129734255D01*
X143900134Y-129727500D01*
X139803866Y-129727500D01*
X139741684Y-129734255D01*
X139605295Y-129785385D01*
X139488739Y-129872739D01*
X139401385Y-129989295D01*
X139350255Y-130125684D01*
X139343500Y-130187866D01*
X139343500Y-134284134D01*
X124908000Y-134284134D01*
X124908000Y-132622115D01*
X124903525Y-132606876D01*
X124902135Y-132605671D01*
X124894452Y-132604000D01*
X122672115Y-132604000D01*
X122656876Y-132608475D01*
X122655671Y-132609865D01*
X122654000Y-132617548D01*
X122654000Y-134839884D01*
X122146000Y-134839884D01*
X122146000Y-132622115D01*
X122141525Y-132606876D01*
X122140135Y-132605671D01*
X122132452Y-132604000D01*
X119910116Y-132604000D01*
X119894877Y-132608475D01*
X119893672Y-132609865D01*
X119892001Y-132617548D01*
X119892001Y-134394669D01*
X93608287Y-134394669D01*
X93604638Y-132607655D01*
X100739858Y-132607655D01*
X100775104Y-132866638D01*
X100776412Y-132871124D01*
X100776412Y-132871126D01*
X100796098Y-132938664D01*
X100848243Y-133117567D01*
X100957668Y-133354928D01*
X100960231Y-133358837D01*
X101098410Y-133569596D01*
X101098414Y-133569601D01*
X101100976Y-133573509D01*
X101275018Y-133768506D01*
X101475970Y-133935637D01*
X101479973Y-133938066D01*
X101695422Y-134068804D01*
X101695426Y-134068806D01*
X101699419Y-134071229D01*
X101940455Y-134172303D01*
X102193783Y-134236641D01*
X102198434Y-134237109D01*
X102198438Y-134237110D01*
X102391308Y-134256531D01*
X102410867Y-134258500D01*
X102566354Y-134258500D01*
X102568679Y-134258327D01*
X102568685Y-134258327D01*
X102756000Y-134244407D01*
X102756004Y-134244406D01*
X102760652Y-134244061D01*
X102765200Y-134243032D01*
X102765206Y-134243031D01*
X102951601Y-134200853D01*
X103015577Y-134186377D01*
X103051769Y-134172303D01*
X103254824Y-134093340D01*
X103254827Y-134093339D01*
X103259177Y-134091647D01*
X103486098Y-133961951D01*
X103691357Y-133800138D01*
X103870443Y-133609763D01*
X104019424Y-133395009D01*
X104135025Y-133160593D01*
X104214707Y-132911665D01*
X104256721Y-132653693D01*
X104260142Y-132392345D01*
X104224896Y-132133362D01*
X104210473Y-132083877D01*
X104208726Y-132077885D01*
X119892000Y-132077885D01*
X119896475Y-132093124D01*
X119897865Y-132094329D01*
X119905548Y-132096000D01*
X122127885Y-132096000D01*
X122143124Y-132091525D01*
X122144329Y-132090135D01*
X122146000Y-132082452D01*
X122146000Y-132077885D01*
X122654000Y-132077885D01*
X122658475Y-132093124D01*
X122659865Y-132094329D01*
X122667548Y-132096000D01*
X124889884Y-132096000D01*
X124905123Y-132091525D01*
X124906328Y-132090135D01*
X124907999Y-132082452D01*
X124907999Y-130305331D01*
X124907629Y-130298510D01*
X124902105Y-130247648D01*
X124898479Y-130232396D01*
X124853324Y-130111946D01*
X124844786Y-130096351D01*
X124768285Y-129994276D01*
X124755724Y-129981715D01*
X124653649Y-129905214D01*
X124638054Y-129896676D01*
X124517606Y-129851522D01*
X124502351Y-129847895D01*
X124451486Y-129842369D01*
X124444672Y-129842000D01*
X122672115Y-129842000D01*
X122656876Y-129846475D01*
X122655671Y-129847865D01*
X122654000Y-129855548D01*
X122654000Y-132077885D01*
X122146000Y-132077885D01*
X122146000Y-129860116D01*
X122141525Y-129844877D01*
X122140135Y-129843672D01*
X122132452Y-129842001D01*
X120355331Y-129842001D01*
X120348510Y-129842371D01*
X120297648Y-129847895D01*
X120282396Y-129851521D01*
X120161946Y-129896676D01*
X120146351Y-129905214D01*
X120044276Y-129981715D01*
X120031715Y-129994276D01*
X119955214Y-130096351D01*
X119946676Y-130111946D01*
X119901522Y-130232394D01*
X119897895Y-130247649D01*
X119892369Y-130298514D01*
X119892000Y-130305328D01*
X119892000Y-132077885D01*
X104208726Y-132077885D01*
X104153068Y-131886932D01*
X104151757Y-131882433D01*
X104042332Y-131645072D01*
X104009519Y-131595024D01*
X103901590Y-131430404D01*
X103901586Y-131430399D01*
X103899024Y-131426491D01*
X103724982Y-131231494D01*
X103524030Y-131064363D01*
X103476844Y-131035730D01*
X103304578Y-130931196D01*
X103304574Y-130931194D01*
X103300581Y-130928771D01*
X103059545Y-130827697D01*
X102806217Y-130763359D01*
X102801566Y-130762891D01*
X102801562Y-130762890D01*
X102592271Y-130741816D01*
X102589133Y-130741500D01*
X102433646Y-130741500D01*
X102431321Y-130741673D01*
X102431315Y-130741673D01*
X102244000Y-130755593D01*
X102243996Y-130755594D01*
X102239348Y-130755939D01*
X102234800Y-130756968D01*
X102234794Y-130756969D01*
X102048399Y-130799147D01*
X101984423Y-130813623D01*
X101980071Y-130815315D01*
X101980069Y-130815316D01*
X101745176Y-130906660D01*
X101745173Y-130906661D01*
X101740823Y-130908353D01*
X101513902Y-131038049D01*
X101308643Y-131199862D01*
X101129557Y-131390237D01*
X100980576Y-131604991D01*
X100864975Y-131839407D01*
X100785293Y-132088335D01*
X100743279Y-132346307D01*
X100739858Y-132607655D01*
X93604638Y-132607655D01*
X93578621Y-119866695D01*
X96637251Y-119866695D01*
X96637548Y-119871848D01*
X96637548Y-119871851D01*
X96649812Y-120084547D01*
X96650110Y-120089715D01*
X96651247Y-120094761D01*
X96651248Y-120094767D01*
X96671119Y-120182939D01*
X96699222Y-120307639D01*
X96783266Y-120514616D01*
X96785965Y-120519020D01*
X96889286Y-120687625D01*
X96899987Y-120705088D01*
X97046250Y-120873938D01*
X97218126Y-121016632D01*
X97411000Y-121129338D01*
X97619692Y-121209030D01*
X97624760Y-121210061D01*
X97624763Y-121210062D01*
X97732017Y-121231883D01*
X97838597Y-121253567D01*
X97843772Y-121253757D01*
X97843774Y-121253757D01*
X98056673Y-121261564D01*
X98056677Y-121261564D01*
X98061837Y-121261753D01*
X98066957Y-121261097D01*
X98066959Y-121261097D01*
X98278288Y-121234025D01*
X98278289Y-121234025D01*
X98283416Y-121233368D01*
X98288366Y-121231883D01*
X98492429Y-121170661D01*
X98492434Y-121170659D01*
X98497384Y-121169174D01*
X98697994Y-121070896D01*
X98879860Y-120941173D01*
X99038096Y-120783489D01*
X99064836Y-120746277D01*
X99165435Y-120606277D01*
X99168453Y-120602077D01*
X99267430Y-120401811D01*
X99332370Y-120188069D01*
X99361529Y-119966590D01*
X99363156Y-119900000D01*
X99344852Y-119677361D01*
X99290431Y-119460702D01*
X99201354Y-119255840D01*
X99080014Y-119068277D01*
X98929670Y-118903051D01*
X98925619Y-118899852D01*
X98925615Y-118899848D01*
X98758414Y-118767800D01*
X98758410Y-118767798D01*
X98754359Y-118764598D01*
X98713053Y-118741796D01*
X98663084Y-118691364D01*
X98648312Y-118621921D01*
X98673428Y-118555516D01*
X98700780Y-118528909D01*
X98744603Y-118497650D01*
X98879860Y-118401173D01*
X99038096Y-118243489D01*
X99064836Y-118206277D01*
X99165435Y-118066277D01*
X99168453Y-118062077D01*
X99267430Y-117861811D01*
X99332370Y-117648069D01*
X99361529Y-117426590D01*
X99363156Y-117360000D01*
X99344852Y-117137361D01*
X99290431Y-116920702D01*
X99201354Y-116715840D01*
X99080014Y-116528277D01*
X98929670Y-116363051D01*
X98925619Y-116359852D01*
X98925615Y-116359848D01*
X98758414Y-116227800D01*
X98758410Y-116227798D01*
X98754359Y-116224598D01*
X98713053Y-116201796D01*
X98663084Y-116151364D01*
X98648312Y-116081921D01*
X98673428Y-116015516D01*
X98700780Y-115988909D01*
X98744603Y-115957650D01*
X98879860Y-115861173D01*
X99038096Y-115703489D01*
X99064836Y-115666277D01*
X99165435Y-115526277D01*
X99168453Y-115522077D01*
X99267430Y-115321811D01*
X99332370Y-115108069D01*
X99361529Y-114886590D01*
X99363156Y-114820000D01*
X99344852Y-114597361D01*
X99290431Y-114380702D01*
X99201354Y-114175840D01*
X99080014Y-113988277D01*
X98929670Y-113823051D01*
X98925619Y-113819852D01*
X98925615Y-113819848D01*
X98758414Y-113687800D01*
X98758410Y-113687798D01*
X98754359Y-113684598D01*
X98712569Y-113661529D01*
X98662598Y-113611097D01*
X98647826Y-113541654D01*
X98672942Y-113475248D01*
X98700294Y-113448641D01*
X98875328Y-113323792D01*
X98883200Y-113317139D01*
X99034052Y-113166812D01*
X99040730Y-113158965D01*
X99165003Y-112986020D01*
X99170313Y-112977183D01*
X99264670Y-112786267D01*
X99268469Y-112776672D01*
X99330377Y-112572910D01*
X99332555Y-112562837D01*
X99333986Y-112551962D01*
X99331775Y-112537778D01*
X99318617Y-112534000D01*
X96683225Y-112534000D01*
X96669694Y-112537973D01*
X96668257Y-112547966D01*
X96698565Y-112682446D01*
X96701645Y-112692275D01*
X96781770Y-112889603D01*
X96786413Y-112898794D01*
X96897694Y-113080388D01*
X96903777Y-113088699D01*
X97043213Y-113249667D01*
X97050580Y-113256883D01*
X97214434Y-113392916D01*
X97222881Y-113398831D01*
X97291969Y-113439203D01*
X97340693Y-113490842D01*
X97353764Y-113560625D01*
X97327033Y-113626396D01*
X97286584Y-113659752D01*
X97273607Y-113666507D01*
X97269474Y-113669610D01*
X97269471Y-113669612D01*
X97099100Y-113797530D01*
X97094965Y-113800635D01*
X96940629Y-113962138D01*
X96814743Y-114146680D01*
X96799003Y-114180590D01*
X96737637Y-114312792D01*
X96720688Y-114349305D01*
X96660989Y-114564570D01*
X96637251Y-114786695D01*
X96637548Y-114791848D01*
X96637548Y-114791851D01*
X96649812Y-115004547D01*
X96650110Y-115009715D01*
X96651247Y-115014761D01*
X96651248Y-115014767D01*
X96671119Y-115102939D01*
X96699222Y-115227639D01*
X96783266Y-115434616D01*
X96785965Y-115439020D01*
X96889286Y-115607625D01*
X96899987Y-115625088D01*
X97046250Y-115793938D01*
X97218126Y-115936632D01*
X97288595Y-115977811D01*
X97291445Y-115979476D01*
X97340169Y-116031114D01*
X97353240Y-116100897D01*
X97326509Y-116166669D01*
X97286055Y-116200027D01*
X97273607Y-116206507D01*
X97269474Y-116209610D01*
X97269471Y-116209612D01*
X97099100Y-116337530D01*
X97094965Y-116340635D01*
X96940629Y-116502138D01*
X96814743Y-116686680D01*
X96799003Y-116720590D01*
X96737637Y-116852792D01*
X96720688Y-116889305D01*
X96660989Y-117104570D01*
X96637251Y-117326695D01*
X96637548Y-117331848D01*
X96637548Y-117331851D01*
X96649812Y-117544547D01*
X96650110Y-117549715D01*
X96651247Y-117554761D01*
X96651248Y-117554767D01*
X96671119Y-117642939D01*
X96699222Y-117767639D01*
X96783266Y-117974616D01*
X96785965Y-117979020D01*
X96889286Y-118147625D01*
X96899987Y-118165088D01*
X97046250Y-118333938D01*
X97218126Y-118476632D01*
X97288595Y-118517811D01*
X97291445Y-118519476D01*
X97340169Y-118571114D01*
X97353240Y-118640897D01*
X97326509Y-118706669D01*
X97286055Y-118740027D01*
X97273607Y-118746507D01*
X97269474Y-118749610D01*
X97269471Y-118749612D01*
X97099100Y-118877530D01*
X97094965Y-118880635D01*
X96940629Y-119042138D01*
X96814743Y-119226680D01*
X96799003Y-119260590D01*
X96737637Y-119392792D01*
X96720688Y-119429305D01*
X96660989Y-119644570D01*
X96637251Y-119866695D01*
X93578621Y-119866695D01*
X93531083Y-96586695D01*
X95237251Y-96586695D01*
X95237548Y-96591848D01*
X95237548Y-96591851D01*
X95244608Y-96714297D01*
X95250110Y-96809715D01*
X95251247Y-96814761D01*
X95251248Y-96814767D01*
X95271119Y-96902939D01*
X95299222Y-97027639D01*
X95383266Y-97234616D01*
X95385965Y-97239020D01*
X95483177Y-97397656D01*
X95499987Y-97425088D01*
X95646250Y-97593938D01*
X95818126Y-97736632D01*
X96011000Y-97849338D01*
X96219692Y-97929030D01*
X96224760Y-97930061D01*
X96224763Y-97930062D01*
X96332017Y-97951883D01*
X96438597Y-97973567D01*
X96443772Y-97973757D01*
X96443774Y-97973757D01*
X96656673Y-97981564D01*
X96656677Y-97981564D01*
X96661837Y-97981753D01*
X96666957Y-97981097D01*
X96666959Y-97981097D01*
X96878288Y-97954025D01*
X96878289Y-97954025D01*
X96883416Y-97953368D01*
X96888366Y-97951883D01*
X97092429Y-97890661D01*
X97092434Y-97890659D01*
X97097384Y-97889174D01*
X97297994Y-97790896D01*
X97479860Y-97661173D01*
X97518675Y-97622494D01*
X97634435Y-97507137D01*
X97638096Y-97503489D01*
X97697594Y-97420689D01*
X97765435Y-97326277D01*
X97768453Y-97322077D01*
X97774248Y-97310353D01*
X97865136Y-97126453D01*
X97865137Y-97126451D01*
X97867430Y-97121811D01*
X97932370Y-96908069D01*
X97961529Y-96686590D01*
X97963156Y-96620000D01*
X97944852Y-96397361D01*
X97890431Y-96180702D01*
X97801354Y-95975840D01*
X97718255Y-95847388D01*
X97682822Y-95792617D01*
X97682820Y-95792614D01*
X97680014Y-95788277D01*
X97529670Y-95623051D01*
X97525619Y-95619852D01*
X97525615Y-95619848D01*
X97358414Y-95487800D01*
X97358410Y-95487798D01*
X97354359Y-95484598D01*
X97313053Y-95461796D01*
X97263084Y-95411364D01*
X97248312Y-95341921D01*
X97273428Y-95275516D01*
X97300780Y-95248909D01*
X97362149Y-95205135D01*
X97479860Y-95121173D01*
X97518675Y-95082494D01*
X97634435Y-94967137D01*
X97638096Y-94963489D01*
X97641356Y-94958953D01*
X97765435Y-94786277D01*
X97768453Y-94782077D01*
X97795141Y-94728079D01*
X97865136Y-94586453D01*
X97865137Y-94586451D01*
X97867430Y-94581811D01*
X97932370Y-94368069D01*
X97961529Y-94146590D01*
X97962896Y-94090637D01*
X97963074Y-94083365D01*
X97963074Y-94083361D01*
X97963156Y-94080000D01*
X97944852Y-93857361D01*
X97890431Y-93640702D01*
X97801354Y-93435840D01*
X97720665Y-93311114D01*
X97682822Y-93252617D01*
X97682820Y-93252614D01*
X97680014Y-93248277D01*
X97529670Y-93083051D01*
X97525619Y-93079852D01*
X97525615Y-93079848D01*
X97358414Y-92947800D01*
X97358410Y-92947798D01*
X97354359Y-92944598D01*
X97312569Y-92921529D01*
X97262598Y-92871097D01*
X97247826Y-92801654D01*
X97272942Y-92735248D01*
X97300294Y-92708641D01*
X97475328Y-92583792D01*
X97483200Y-92577139D01*
X97634052Y-92426812D01*
X97640730Y-92418965D01*
X97765003Y-92246020D01*
X97770313Y-92237183D01*
X97864670Y-92046267D01*
X97868469Y-92036672D01*
X97930377Y-91832910D01*
X97932555Y-91822837D01*
X97933986Y-91811962D01*
X97931775Y-91797778D01*
X97918617Y-91794000D01*
X95283225Y-91794000D01*
X95269694Y-91797973D01*
X95268257Y-91807966D01*
X95298565Y-91942446D01*
X95301645Y-91952275D01*
X95381770Y-92149603D01*
X95386413Y-92158794D01*
X95497694Y-92340388D01*
X95503777Y-92348699D01*
X95643213Y-92509667D01*
X95650580Y-92516883D01*
X95814434Y-92652916D01*
X95822881Y-92658831D01*
X95891969Y-92699203D01*
X95940693Y-92750842D01*
X95953764Y-92820625D01*
X95927033Y-92886396D01*
X95886584Y-92919752D01*
X95873607Y-92926507D01*
X95869474Y-92929610D01*
X95869471Y-92929612D01*
X95699100Y-93057530D01*
X95694965Y-93060635D01*
X95540629Y-93222138D01*
X95537715Y-93226410D01*
X95537714Y-93226411D01*
X95490574Y-93295516D01*
X95414743Y-93406680D01*
X95320688Y-93609305D01*
X95260989Y-93824570D01*
X95237251Y-94046695D01*
X95237548Y-94051848D01*
X95237548Y-94051851D01*
X95244608Y-94174297D01*
X95250110Y-94269715D01*
X95251247Y-94274761D01*
X95251248Y-94274767D01*
X95271119Y-94362939D01*
X95299222Y-94487639D01*
X95383266Y-94694616D01*
X95403772Y-94728079D01*
X95495292Y-94877426D01*
X95499987Y-94885088D01*
X95646250Y-95053938D01*
X95818126Y-95196632D01*
X95862199Y-95222386D01*
X95891445Y-95239476D01*
X95940169Y-95291114D01*
X95953240Y-95360897D01*
X95926509Y-95426669D01*
X95886055Y-95460027D01*
X95873607Y-95466507D01*
X95869474Y-95469610D01*
X95869471Y-95469612D01*
X95699100Y-95597530D01*
X95694965Y-95600635D01*
X95691393Y-95604373D01*
X95546282Y-95756223D01*
X95540629Y-95762138D01*
X95537715Y-95766410D01*
X95537714Y-95766411D01*
X95490574Y-95835516D01*
X95414743Y-95946680D01*
X95378798Y-96024118D01*
X95327885Y-96133801D01*
X95320688Y-96149305D01*
X95260989Y-96364570D01*
X95237251Y-96586695D01*
X93531083Y-96586695D01*
X93517425Y-89898134D01*
X95241500Y-89898134D01*
X95248255Y-89960316D01*
X95299385Y-90096705D01*
X95386739Y-90213261D01*
X95503295Y-90300615D01*
X95511704Y-90303767D01*
X95511705Y-90303768D01*
X95620960Y-90344726D01*
X95677725Y-90387367D01*
X95702425Y-90453929D01*
X95687218Y-90523278D01*
X95667825Y-90549759D01*
X95544590Y-90678717D01*
X95538104Y-90686727D01*
X95418098Y-90862649D01*
X95413000Y-90871623D01*
X95323338Y-91064783D01*
X95319775Y-91074470D01*
X95264389Y-91274183D01*
X95265912Y-91282607D01*
X95278292Y-91286000D01*
X97918344Y-91286000D01*
X97931875Y-91282027D01*
X97933180Y-91272947D01*
X97891214Y-91105875D01*
X97887894Y-91096124D01*
X97802972Y-90900814D01*
X97798105Y-90891739D01*
X97682426Y-90712926D01*
X97676136Y-90704757D01*
X97532293Y-90546677D01*
X97501241Y-90482831D01*
X97509635Y-90412333D01*
X97554812Y-90357564D01*
X97581256Y-90343895D01*
X97688297Y-90303767D01*
X97696705Y-90300615D01*
X97813261Y-90213261D01*
X97900615Y-90096705D01*
X97951745Y-89960316D01*
X97958500Y-89898134D01*
X97958500Y-88101866D01*
X97951745Y-88039684D01*
X97900615Y-87903295D01*
X97813261Y-87786739D01*
X97696705Y-87699385D01*
X97560316Y-87648255D01*
X97498134Y-87641500D01*
X95701866Y-87641500D01*
X95639684Y-87648255D01*
X95503295Y-87699385D01*
X95386739Y-87786739D01*
X95299385Y-87903295D01*
X95248255Y-88039684D01*
X95241500Y-88101866D01*
X95241500Y-89898134D01*
X93517425Y-89898134D01*
X93494690Y-78764278D01*
X93514553Y-78696117D01*
X93568114Y-78649514D01*
X93638367Y-78639267D01*
X93703008Y-78668628D01*
X93741513Y-78728276D01*
X93746480Y-78756766D01*
X93750110Y-78819715D01*
X93751247Y-78824761D01*
X93751248Y-78824767D01*
X93775304Y-78931508D01*
X93799222Y-79037639D01*
X93883266Y-79244616D01*
X93911926Y-79291385D01*
X93985371Y-79411236D01*
X93999987Y-79435088D01*
X94146250Y-79603938D01*
X94318126Y-79746632D01*
X94404070Y-79796853D01*
X94452794Y-79848491D01*
X94466500Y-79905641D01*
X94466500Y-80071233D01*
X94465973Y-80082416D01*
X94464298Y-80089909D01*
X94464547Y-80097835D01*
X94464547Y-80097836D01*
X94466438Y-80157986D01*
X94466500Y-80161945D01*
X94466500Y-80189856D01*
X94466997Y-80193790D01*
X94466997Y-80193791D01*
X94467005Y-80193856D01*
X94467938Y-80205693D01*
X94469327Y-80249889D01*
X94474978Y-80269339D01*
X94478987Y-80288700D01*
X94481526Y-80308797D01*
X94484445Y-80316168D01*
X94484445Y-80316170D01*
X94497804Y-80349912D01*
X94501649Y-80361142D01*
X94513982Y-80403593D01*
X94518015Y-80410412D01*
X94518017Y-80410417D01*
X94524293Y-80421028D01*
X94532988Y-80438776D01*
X94540448Y-80457617D01*
X94545110Y-80464033D01*
X94545110Y-80464034D01*
X94566436Y-80493387D01*
X94572952Y-80503307D01*
X94595458Y-80541362D01*
X94609779Y-80555683D01*
X94622619Y-80570716D01*
X94634528Y-80587107D01*
X94640634Y-80592158D01*
X94668605Y-80615298D01*
X94677384Y-80623288D01*
X118801343Y-104747247D01*
X118808887Y-104755537D01*
X118813000Y-104762018D01*
X118818777Y-104767443D01*
X118862667Y-104808658D01*
X118865509Y-104811413D01*
X118885230Y-104831134D01*
X118888425Y-104833612D01*
X118897447Y-104841318D01*
X118929679Y-104871586D01*
X118936628Y-104875406D01*
X118947432Y-104881346D01*
X118963956Y-104892199D01*
X118979959Y-104904613D01*
X119020543Y-104922176D01*
X119031173Y-104927383D01*
X119069940Y-104948695D01*
X119077617Y-104950666D01*
X119077622Y-104950668D01*
X119089558Y-104953732D01*
X119108266Y-104960137D01*
X119126855Y-104968181D01*
X119134683Y-104969421D01*
X119134690Y-104969423D01*
X119170524Y-104975099D01*
X119182144Y-104977505D01*
X119217289Y-104986528D01*
X119224970Y-104988500D01*
X119245224Y-104988500D01*
X119264934Y-104990051D01*
X119284943Y-104993220D01*
X119292835Y-104992474D01*
X119328961Y-104989059D01*
X119340819Y-104988500D01*
X138141221Y-104988500D01*
X138209342Y-105008502D01*
X138217401Y-105014138D01*
X138319872Y-105091918D01*
X138319875Y-105091920D01*
X138326717Y-105097113D01*
X138390332Y-105122300D01*
X138459423Y-105149655D01*
X138459425Y-105149656D01*
X138466953Y-105152636D01*
X138556728Y-105163500D01*
X140458272Y-105163500D01*
X140548047Y-105152636D01*
X140555575Y-105149656D01*
X140555577Y-105149655D01*
X140624668Y-105122300D01*
X140688283Y-105097113D01*
X140808422Y-105005922D01*
X140899613Y-104885783D01*
X140934905Y-104796646D01*
X140952155Y-104753077D01*
X140952156Y-104753073D01*
X140955136Y-104745547D01*
X140966000Y-104655772D01*
X140966000Y-104054228D01*
X140955136Y-103964453D01*
X140899613Y-103824217D01*
X140878331Y-103796179D01*
X140853078Y-103729826D01*
X140867706Y-103660353D01*
X140878331Y-103643821D01*
X140894421Y-103622623D01*
X140899613Y-103615783D01*
X140949676Y-103489338D01*
X140952155Y-103483077D01*
X140952156Y-103483075D01*
X140955136Y-103475547D01*
X140966000Y-103385772D01*
X140966000Y-102784228D01*
X140955136Y-102694453D01*
X140899613Y-102554217D01*
X140878331Y-102526179D01*
X140853078Y-102459826D01*
X140867706Y-102390353D01*
X140878331Y-102373821D01*
X140885760Y-102364034D01*
X140899613Y-102345783D01*
X140955136Y-102205547D01*
X140966000Y-102115772D01*
X140966000Y-101514228D01*
X140955136Y-101424453D01*
X140899613Y-101284217D01*
X140878331Y-101256179D01*
X140853078Y-101189826D01*
X140867706Y-101120353D01*
X140878331Y-101103821D01*
X140894421Y-101082623D01*
X140899613Y-101075783D01*
X140955136Y-100935547D01*
X140966000Y-100845772D01*
X140966000Y-100244228D01*
X140955136Y-100154453D01*
X140899613Y-100014217D01*
X140878331Y-99986179D01*
X140853078Y-99919826D01*
X140867706Y-99850353D01*
X140878331Y-99833821D01*
X140894421Y-99812623D01*
X140899613Y-99805783D01*
X140955136Y-99665547D01*
X140966000Y-99575772D01*
X140966000Y-98974228D01*
X140955136Y-98884453D01*
X140944822Y-98858401D01*
X140902774Y-98752202D01*
X140899613Y-98744217D01*
X140878331Y-98716179D01*
X140853078Y-98649826D01*
X140867706Y-98580353D01*
X140878331Y-98563821D01*
X140894421Y-98542623D01*
X140899613Y-98535783D01*
X140955136Y-98395547D01*
X140966000Y-98305772D01*
X140966000Y-97704228D01*
X140955136Y-97614453D01*
X140899613Y-97474217D01*
X140878331Y-97446179D01*
X140853078Y-97379826D01*
X140867706Y-97310353D01*
X140878331Y-97293821D01*
X140894421Y-97272623D01*
X140899613Y-97265783D01*
X140946763Y-97146695D01*
X140952155Y-97133077D01*
X140952156Y-97133075D01*
X140955136Y-97125547D01*
X140966000Y-97035772D01*
X140966000Y-96434228D01*
X140955136Y-96344453D01*
X140944822Y-96318401D01*
X140922360Y-96261669D01*
X140899613Y-96204217D01*
X140878331Y-96176179D01*
X140853078Y-96109826D01*
X140867706Y-96040353D01*
X140878331Y-96023821D01*
X140894421Y-96002623D01*
X140899613Y-95995783D01*
X140955136Y-95855547D01*
X140966000Y-95765772D01*
X140966000Y-95164228D01*
X140955136Y-95074453D01*
X140948622Y-95057999D01*
X140912647Y-94967137D01*
X140899613Y-94934217D01*
X140808422Y-94814078D01*
X140688283Y-94722887D01*
X140616878Y-94694616D01*
X140555577Y-94670345D01*
X140555575Y-94670344D01*
X140548047Y-94667364D01*
X140458272Y-94656500D01*
X138556728Y-94656500D01*
X138466953Y-94667364D01*
X138459425Y-94670344D01*
X138459423Y-94670345D01*
X138398122Y-94694616D01*
X138326717Y-94722887D01*
X138206578Y-94814078D01*
X138115387Y-94934217D01*
X138102353Y-94967137D01*
X138066379Y-95057999D01*
X138059864Y-95074453D01*
X138049000Y-95164228D01*
X138049000Y-95765772D01*
X138059864Y-95855547D01*
X138115387Y-95995783D01*
X138120579Y-96002623D01*
X138136669Y-96023821D01*
X138161922Y-96090174D01*
X138147294Y-96159647D01*
X138136669Y-96176179D01*
X138115387Y-96204217D01*
X138092640Y-96261669D01*
X138070179Y-96318401D01*
X138059864Y-96344453D01*
X138049000Y-96434228D01*
X138049000Y-97035772D01*
X138059864Y-97125547D01*
X138062844Y-97133075D01*
X138062845Y-97133077D01*
X138068237Y-97146695D01*
X138115387Y-97265783D01*
X138120579Y-97272623D01*
X138136669Y-97293821D01*
X138161922Y-97360174D01*
X138147294Y-97429647D01*
X138136669Y-97446179D01*
X138115387Y-97474217D01*
X138059864Y-97614453D01*
X138049000Y-97704228D01*
X138049000Y-98305772D01*
X138059864Y-98395547D01*
X138062844Y-98403075D01*
X138062845Y-98403077D01*
X138088992Y-98469117D01*
X138095471Y-98539817D01*
X138062698Y-98602797D01*
X138001079Y-98638061D01*
X137971840Y-98641500D01*
X121289595Y-98641500D01*
X121221474Y-98621498D01*
X121200500Y-98604595D01*
X112240574Y-89644669D01*
X119892001Y-89644669D01*
X119892371Y-89651490D01*
X119897895Y-89702352D01*
X119901521Y-89717604D01*
X119946676Y-89838054D01*
X119955214Y-89853649D01*
X120031715Y-89955724D01*
X120044276Y-89968285D01*
X120146351Y-90044786D01*
X120161946Y-90053324D01*
X120282394Y-90098478D01*
X120297649Y-90102105D01*
X120348514Y-90107631D01*
X120355328Y-90108000D01*
X122127885Y-90108000D01*
X122143124Y-90103525D01*
X122144329Y-90102135D01*
X122146000Y-90094452D01*
X122146000Y-90089884D01*
X122654000Y-90089884D01*
X122658475Y-90105123D01*
X122659865Y-90106328D01*
X122667548Y-90107999D01*
X124444669Y-90107999D01*
X124451490Y-90107629D01*
X124502352Y-90102105D01*
X124517604Y-90098479D01*
X124638054Y-90053324D01*
X124653649Y-90044786D01*
X124755724Y-89968285D01*
X124768285Y-89955724D01*
X124844786Y-89853649D01*
X124853324Y-89838054D01*
X124898478Y-89717606D01*
X124902105Y-89702351D01*
X124907631Y-89651486D01*
X124908000Y-89644672D01*
X124908000Y-87872115D01*
X124903525Y-87856876D01*
X124902135Y-87855671D01*
X124894452Y-87854000D01*
X122672115Y-87854000D01*
X122656876Y-87858475D01*
X122655671Y-87859865D01*
X122654000Y-87867548D01*
X122654000Y-90089884D01*
X122146000Y-90089884D01*
X122146000Y-87872115D01*
X122141525Y-87856876D01*
X122140135Y-87855671D01*
X122132452Y-87854000D01*
X119910116Y-87854000D01*
X119894877Y-87858475D01*
X119893672Y-87859865D01*
X119892001Y-87867548D01*
X119892001Y-89644669D01*
X112240574Y-89644669D01*
X109923790Y-87327885D01*
X119892000Y-87327885D01*
X119896475Y-87343124D01*
X119897865Y-87344329D01*
X119905548Y-87346000D01*
X122127885Y-87346000D01*
X122143124Y-87341525D01*
X122144329Y-87340135D01*
X122146000Y-87332452D01*
X122146000Y-87327885D01*
X122654000Y-87327885D01*
X122658475Y-87343124D01*
X122659865Y-87344329D01*
X122667548Y-87346000D01*
X124889884Y-87346000D01*
X124905123Y-87341525D01*
X124906328Y-87340135D01*
X124907999Y-87332452D01*
X124907999Y-85555331D01*
X124907629Y-85548510D01*
X124902105Y-85497648D01*
X124898479Y-85482396D01*
X124853324Y-85361946D01*
X124844786Y-85346351D01*
X124768285Y-85244276D01*
X124755724Y-85231715D01*
X124653649Y-85155214D01*
X124638054Y-85146676D01*
X124517606Y-85101522D01*
X124502351Y-85097895D01*
X124451486Y-85092369D01*
X124444672Y-85092000D01*
X122672115Y-85092000D01*
X122656876Y-85096475D01*
X122655671Y-85097865D01*
X122654000Y-85105548D01*
X122654000Y-87327885D01*
X122146000Y-87327885D01*
X122146000Y-85110116D01*
X122141525Y-85094877D01*
X122140135Y-85093672D01*
X122132452Y-85092001D01*
X120355331Y-85092001D01*
X120348510Y-85092371D01*
X120297648Y-85097895D01*
X120282396Y-85101521D01*
X120161946Y-85146676D01*
X120146351Y-85155214D01*
X120044276Y-85231715D01*
X120031715Y-85244276D01*
X119955214Y-85346351D01*
X119946676Y-85361946D01*
X119901522Y-85482394D01*
X119897895Y-85497649D01*
X119892369Y-85548514D01*
X119892000Y-85555328D01*
X119892000Y-87327885D01*
X109923790Y-87327885D01*
X106041292Y-83445387D01*
X108420070Y-83445387D01*
X108426528Y-83454747D01*
X108453488Y-83478391D01*
X108460003Y-83483389D01*
X108711028Y-83651119D01*
X108718165Y-83655240D01*
X108988930Y-83788766D01*
X108996534Y-83791916D01*
X109282413Y-83888959D01*
X109290365Y-83891090D01*
X109586469Y-83949988D01*
X109594627Y-83951062D01*
X109895881Y-83970807D01*
X109904119Y-83970807D01*
X110205373Y-83951062D01*
X110213531Y-83949988D01*
X110509635Y-83891090D01*
X110517587Y-83888959D01*
X110803466Y-83791916D01*
X110811070Y-83788766D01*
X111081835Y-83655240D01*
X111088972Y-83651119D01*
X111305957Y-83506134D01*
X114733500Y-83506134D01*
X114740255Y-83568316D01*
X114791385Y-83704705D01*
X114878739Y-83821261D01*
X114995295Y-83908615D01*
X115131684Y-83959745D01*
X115193866Y-83966500D01*
X119006134Y-83966500D01*
X119068316Y-83959745D01*
X119204705Y-83908615D01*
X119321261Y-83821261D01*
X119408615Y-83704705D01*
X119459745Y-83568316D01*
X119466500Y-83506134D01*
X119466500Y-79693866D01*
X119459745Y-79631684D01*
X119408615Y-79495295D01*
X119321261Y-79378739D01*
X119204705Y-79291385D01*
X119068316Y-79240255D01*
X119006134Y-79233500D01*
X115193866Y-79233500D01*
X115131684Y-79240255D01*
X114995295Y-79291385D01*
X114878739Y-79378739D01*
X114791385Y-79495295D01*
X114740255Y-79631684D01*
X114733500Y-79693866D01*
X114733500Y-83506134D01*
X111305957Y-83506134D01*
X111339997Y-83483389D01*
X111346512Y-83478391D01*
X111371609Y-83456381D01*
X111380004Y-83443146D01*
X111374169Y-83433379D01*
X109912812Y-81972022D01*
X109898868Y-81964408D01*
X109897035Y-81964539D01*
X109890420Y-81968790D01*
X108427584Y-83431626D01*
X108420070Y-83445387D01*
X106041292Y-83445387D01*
X104200024Y-81604119D01*
X107529193Y-81604119D01*
X107548938Y-81905373D01*
X107550012Y-81913531D01*
X107608910Y-82209635D01*
X107611041Y-82217587D01*
X107708081Y-82503457D01*
X107711236Y-82511076D01*
X107844761Y-82781835D01*
X107848882Y-82788973D01*
X108016611Y-83039997D01*
X108021609Y-83046512D01*
X108043619Y-83071609D01*
X108056854Y-83080004D01*
X108066621Y-83074169D01*
X109527978Y-81612812D01*
X109534356Y-81601132D01*
X110264408Y-81601132D01*
X110264539Y-81602965D01*
X110268790Y-81609580D01*
X111731626Y-83072416D01*
X111745387Y-83079930D01*
X111754747Y-83073472D01*
X111778391Y-83046512D01*
X111783389Y-83039997D01*
X111951118Y-82788973D01*
X111955239Y-82781835D01*
X112088764Y-82511076D01*
X112091919Y-82503457D01*
X112188959Y-82217587D01*
X112191090Y-82209635D01*
X112249988Y-81913531D01*
X112251062Y-81905373D01*
X112270807Y-81604119D01*
X112270807Y-81595881D01*
X112251062Y-81294627D01*
X112249988Y-81286469D01*
X112191090Y-80990365D01*
X112188959Y-80982413D01*
X112091919Y-80696543D01*
X112088764Y-80688924D01*
X111955239Y-80418165D01*
X111951118Y-80411027D01*
X111783389Y-80160003D01*
X111778391Y-80153488D01*
X111756381Y-80128391D01*
X111743146Y-80119996D01*
X111733379Y-80125831D01*
X110272022Y-81587188D01*
X110264408Y-81601132D01*
X109534356Y-81601132D01*
X109535592Y-81598868D01*
X109535461Y-81597035D01*
X109531210Y-81590420D01*
X108068374Y-80127584D01*
X108054613Y-80120070D01*
X108045253Y-80126528D01*
X108021609Y-80153488D01*
X108016611Y-80160003D01*
X107848882Y-80411027D01*
X107844761Y-80418165D01*
X107711236Y-80688924D01*
X107708081Y-80696543D01*
X107611041Y-80982413D01*
X107608910Y-80990365D01*
X107550012Y-81286469D01*
X107548938Y-81294627D01*
X107529193Y-81595881D01*
X107529193Y-81604119D01*
X104200024Y-81604119D01*
X102352759Y-79756854D01*
X108419996Y-79756854D01*
X108425831Y-79766621D01*
X109887188Y-81227978D01*
X109901132Y-81235592D01*
X109902965Y-81235461D01*
X109909580Y-81231210D01*
X111372416Y-79768374D01*
X111379930Y-79754613D01*
X111373472Y-79745253D01*
X111346512Y-79721609D01*
X111339997Y-79716611D01*
X111088972Y-79548881D01*
X111081835Y-79544760D01*
X110811070Y-79411234D01*
X110803466Y-79408084D01*
X110517587Y-79311041D01*
X110509635Y-79308910D01*
X110213531Y-79250012D01*
X110205373Y-79248938D01*
X109904119Y-79229193D01*
X109895881Y-79229193D01*
X109594627Y-79248938D01*
X109586469Y-79250012D01*
X109290365Y-79308910D01*
X109282413Y-79311041D01*
X108996543Y-79408081D01*
X108988924Y-79411236D01*
X108718165Y-79544761D01*
X108711027Y-79548882D01*
X108460003Y-79716611D01*
X108453488Y-79721609D01*
X108428391Y-79743619D01*
X108419996Y-79756854D01*
X102352759Y-79756854D01*
X98620405Y-76024500D01*
X98586379Y-75962188D01*
X98583500Y-75935405D01*
X98583500Y-74607655D01*
X100739858Y-74607655D01*
X100775104Y-74866638D01*
X100776412Y-74871124D01*
X100776412Y-74871126D01*
X100795720Y-74937367D01*
X100848243Y-75117567D01*
X100957668Y-75354928D01*
X100960231Y-75358837D01*
X101098410Y-75569596D01*
X101098414Y-75569601D01*
X101100976Y-75573509D01*
X101275018Y-75768506D01*
X101475970Y-75935637D01*
X101479973Y-75938066D01*
X101695422Y-76068804D01*
X101695426Y-76068806D01*
X101699419Y-76071229D01*
X101940455Y-76172303D01*
X102193783Y-76236641D01*
X102198434Y-76237109D01*
X102198438Y-76237110D01*
X102384351Y-76255830D01*
X102410867Y-76258500D01*
X102566354Y-76258500D01*
X102568679Y-76258327D01*
X102568685Y-76258327D01*
X102642440Y-76252846D01*
X105641500Y-76252846D01*
X105656548Y-76410566D01*
X105716092Y-76613534D01*
X105718836Y-76618861D01*
X105718836Y-76618862D01*
X105789174Y-76755431D01*
X105812942Y-76801580D01*
X105943604Y-76967920D01*
X105948135Y-76971852D01*
X105948138Y-76971855D01*
X106084802Y-77090446D01*
X106103363Y-77106552D01*
X106108549Y-77109552D01*
X106108553Y-77109555D01*
X106204957Y-77165326D01*
X106286454Y-77212473D01*
X106486271Y-77281861D01*
X106492206Y-77282722D01*
X106492208Y-77282722D01*
X106689664Y-77311352D01*
X106689667Y-77311352D01*
X106695604Y-77312213D01*
X106906899Y-77302433D01*
X107040791Y-77270165D01*
X107106701Y-77254281D01*
X107106703Y-77254280D01*
X107112534Y-77252875D01*
X107117992Y-77250393D01*
X107117996Y-77250392D01*
X107233041Y-77198084D01*
X107305087Y-77165326D01*
X107477611Y-77042946D01*
X107615697Y-76898699D01*
X107619736Y-76894480D01*
X107623881Y-76890150D01*
X107738620Y-76712452D01*
X107780801Y-76607786D01*
X107815442Y-76521832D01*
X107815443Y-76521829D01*
X107817686Y-76516263D01*
X107858228Y-76308663D01*
X107858500Y-76303101D01*
X107858500Y-76252846D01*
X119141500Y-76252846D01*
X119156548Y-76410566D01*
X119216092Y-76613534D01*
X119218836Y-76618861D01*
X119218836Y-76618862D01*
X119289174Y-76755431D01*
X119312942Y-76801580D01*
X119443604Y-76967920D01*
X119448135Y-76971852D01*
X119448138Y-76971855D01*
X119584802Y-77090446D01*
X119603363Y-77106552D01*
X119608549Y-77109552D01*
X119608553Y-77109555D01*
X119704957Y-77165326D01*
X119786454Y-77212473D01*
X119986271Y-77281861D01*
X119992206Y-77282722D01*
X119992208Y-77282722D01*
X120189664Y-77311352D01*
X120189667Y-77311352D01*
X120195604Y-77312213D01*
X120406899Y-77302433D01*
X120540791Y-77270165D01*
X120606701Y-77254281D01*
X120606703Y-77254280D01*
X120612534Y-77252875D01*
X120617992Y-77250393D01*
X120617996Y-77250392D01*
X120733041Y-77198084D01*
X120805087Y-77165326D01*
X120977611Y-77042946D01*
X121115697Y-76898699D01*
X121119736Y-76894480D01*
X121123881Y-76890150D01*
X121238620Y-76712452D01*
X121280801Y-76607786D01*
X121315442Y-76521832D01*
X121315443Y-76521829D01*
X121317686Y-76516263D01*
X121358228Y-76308663D01*
X121358500Y-76303101D01*
X121358500Y-74947154D01*
X121343452Y-74789434D01*
X121283908Y-74586466D01*
X121221953Y-74466173D01*
X121189804Y-74403751D01*
X121189802Y-74403748D01*
X121187058Y-74398420D01*
X121056396Y-74232080D01*
X121051865Y-74228148D01*
X121051862Y-74228145D01*
X120901167Y-74097379D01*
X120896637Y-74093448D01*
X120891451Y-74090448D01*
X120891447Y-74090445D01*
X120718742Y-73990533D01*
X120713546Y-73987527D01*
X120513729Y-73918139D01*
X120507794Y-73917278D01*
X120507792Y-73917278D01*
X120310336Y-73888648D01*
X120310333Y-73888648D01*
X120304396Y-73887787D01*
X120093101Y-73897567D01*
X119992313Y-73921857D01*
X119893299Y-73945719D01*
X119893297Y-73945720D01*
X119887466Y-73947125D01*
X119882008Y-73949607D01*
X119882004Y-73949608D01*
X119766959Y-74001916D01*
X119694913Y-74034674D01*
X119522389Y-74157054D01*
X119376119Y-74309850D01*
X119261380Y-74487548D01*
X119259137Y-74493114D01*
X119195213Y-74651731D01*
X119182314Y-74683737D01*
X119141772Y-74891337D01*
X119141500Y-74896899D01*
X119141500Y-76252846D01*
X107858500Y-76252846D01*
X107858500Y-74947154D01*
X107843452Y-74789434D01*
X107783908Y-74586466D01*
X107721953Y-74466173D01*
X107689804Y-74403751D01*
X107689802Y-74403748D01*
X107687058Y-74398420D01*
X107556396Y-74232080D01*
X107551865Y-74228148D01*
X107551862Y-74228145D01*
X107401167Y-74097379D01*
X107396637Y-74093448D01*
X107391451Y-74090448D01*
X107391447Y-74090445D01*
X107218742Y-73990533D01*
X107213546Y-73987527D01*
X107013729Y-73918139D01*
X107007794Y-73917278D01*
X107007792Y-73917278D01*
X106810336Y-73888648D01*
X106810333Y-73888648D01*
X106804396Y-73887787D01*
X106593101Y-73897567D01*
X106492313Y-73921857D01*
X106393299Y-73945719D01*
X106393297Y-73945720D01*
X106387466Y-73947125D01*
X106382008Y-73949607D01*
X106382004Y-73949608D01*
X106266959Y-74001916D01*
X106194913Y-74034674D01*
X106022389Y-74157054D01*
X105876119Y-74309850D01*
X105761380Y-74487548D01*
X105759137Y-74493114D01*
X105695213Y-74651731D01*
X105682314Y-74683737D01*
X105641772Y-74891337D01*
X105641500Y-74896899D01*
X105641500Y-76252846D01*
X102642440Y-76252846D01*
X102756000Y-76244407D01*
X102756004Y-76244406D01*
X102760652Y-76244061D01*
X102765200Y-76243032D01*
X102765206Y-76243031D01*
X102951601Y-76200853D01*
X103015577Y-76186377D01*
X103051769Y-76172303D01*
X103254824Y-76093340D01*
X103254827Y-76093339D01*
X103259177Y-76091647D01*
X103486098Y-75961951D01*
X103691357Y-75800138D01*
X103870443Y-75609763D01*
X104019424Y-75395009D01*
X104135025Y-75160593D01*
X104214707Y-74911665D01*
X104256721Y-74653693D01*
X104259412Y-74448134D01*
X104260081Y-74397022D01*
X104260081Y-74397019D01*
X104260142Y-74392345D01*
X104224896Y-74133362D01*
X104210473Y-74083877D01*
X104181815Y-73985559D01*
X104151757Y-73882433D01*
X104042332Y-73645072D01*
X103941705Y-73491590D01*
X103901590Y-73430404D01*
X103901586Y-73430399D01*
X103899024Y-73426491D01*
X103724982Y-73231494D01*
X103524030Y-73064363D01*
X103386576Y-72980954D01*
X103304578Y-72931196D01*
X103304574Y-72931194D01*
X103300581Y-72928771D01*
X103059545Y-72827697D01*
X102806217Y-72763359D01*
X102801566Y-72762891D01*
X102801562Y-72762890D01*
X102592271Y-72741816D01*
X102589133Y-72741500D01*
X102433646Y-72741500D01*
X102431321Y-72741673D01*
X102431315Y-72741673D01*
X102244000Y-72755593D01*
X102243996Y-72755594D01*
X102239348Y-72755939D01*
X102234800Y-72756968D01*
X102234794Y-72756969D01*
X102048399Y-72799147D01*
X101984423Y-72813623D01*
X101980071Y-72815315D01*
X101980069Y-72815316D01*
X101745176Y-72906660D01*
X101745173Y-72906661D01*
X101740823Y-72908353D01*
X101736769Y-72910670D01*
X101736767Y-72910671D01*
X101708264Y-72926962D01*
X101513902Y-73038049D01*
X101308643Y-73199862D01*
X101129557Y-73390237D01*
X100980576Y-73604991D01*
X100978510Y-73609181D01*
X100978508Y-73609184D01*
X100929808Y-73707939D01*
X100864975Y-73839407D01*
X100863553Y-73843850D01*
X100863552Y-73843852D01*
X100846358Y-73897567D01*
X100785293Y-74088335D01*
X100743279Y-74346307D01*
X100739858Y-74607655D01*
X98583500Y-74607655D01*
X98583500Y-72534594D01*
X98603502Y-72466473D01*
X98620405Y-72445499D01*
X102764549Y-68301355D01*
X102826861Y-68267329D01*
X102878762Y-68266979D01*
X103058597Y-68303567D01*
X103063772Y-68303757D01*
X103063774Y-68303757D01*
X103276673Y-68311564D01*
X103276677Y-68311564D01*
X103281837Y-68311753D01*
X103286957Y-68311097D01*
X103286959Y-68311097D01*
X103498288Y-68284025D01*
X103498289Y-68284025D01*
X103503416Y-68283368D01*
X103533728Y-68274274D01*
X103712429Y-68220661D01*
X103712434Y-68220659D01*
X103717384Y-68219174D01*
X103917994Y-68120896D01*
X104099860Y-67991173D01*
X104258096Y-67833489D01*
X104388453Y-67652077D01*
X104487430Y-67451811D01*
X104552370Y-67238069D01*
X104581529Y-67016590D01*
X104583156Y-66950000D01*
X104564852Y-66727361D01*
X104510431Y-66510702D01*
X104466532Y-66409742D01*
X104457712Y-66339296D01*
X104488379Y-66275264D01*
X104548796Y-66237976D01*
X104582082Y-66233500D01*
X126825406Y-66233500D01*
X126893527Y-66253502D01*
X126914501Y-66270405D01*
X131074778Y-70430682D01*
X131108804Y-70492994D01*
X131107100Y-70553448D01*
X131085989Y-70629570D01*
X131085441Y-70634700D01*
X131085440Y-70634704D01*
X131075654Y-70726281D01*
X131062251Y-70851695D01*
X131075110Y-71074715D01*
X131076247Y-71079761D01*
X131076248Y-71079767D01*
X131108453Y-71222668D01*
X131103917Y-71293520D01*
X131074631Y-71339464D01*
X130457747Y-71956348D01*
X130449461Y-71963888D01*
X130442982Y-71968000D01*
X130437557Y-71973777D01*
X130396357Y-72017651D01*
X130393602Y-72020493D01*
X130373865Y-72040230D01*
X130371385Y-72043427D01*
X130363682Y-72052447D01*
X130333414Y-72084679D01*
X130329595Y-72091625D01*
X130329593Y-72091628D01*
X130323652Y-72102434D01*
X130312801Y-72118953D01*
X130300386Y-72134959D01*
X130297241Y-72142228D01*
X130297238Y-72142232D01*
X130282826Y-72175537D01*
X130277609Y-72186187D01*
X130256305Y-72224940D01*
X130254334Y-72232615D01*
X130254334Y-72232616D01*
X130251267Y-72244562D01*
X130244863Y-72263266D01*
X130236819Y-72281855D01*
X130235580Y-72289678D01*
X130235577Y-72289688D01*
X130229901Y-72325524D01*
X130227495Y-72337144D01*
X130216500Y-72379970D01*
X130216500Y-72400224D01*
X130214949Y-72419934D01*
X130211780Y-72439943D01*
X130212526Y-72447835D01*
X130215941Y-72483961D01*
X130216500Y-72495819D01*
X130216500Y-76471233D01*
X130215973Y-76482416D01*
X130214298Y-76489909D01*
X130214547Y-76497835D01*
X130214547Y-76497836D01*
X130216438Y-76557986D01*
X130216500Y-76561945D01*
X130216500Y-76589856D01*
X130216997Y-76593790D01*
X130216997Y-76593791D01*
X130217005Y-76593856D01*
X130217938Y-76605693D01*
X130219327Y-76649889D01*
X130224978Y-76669339D01*
X130228987Y-76688700D01*
X130231526Y-76708797D01*
X130234445Y-76716168D01*
X130234445Y-76716170D01*
X130247804Y-76749912D01*
X130251649Y-76761142D01*
X130263982Y-76803593D01*
X130268015Y-76810412D01*
X130268017Y-76810417D01*
X130274293Y-76821028D01*
X130282988Y-76838776D01*
X130290448Y-76857617D01*
X130295110Y-76864033D01*
X130295110Y-76864034D01*
X130316436Y-76893387D01*
X130322952Y-76903307D01*
X130345458Y-76941362D01*
X130359779Y-76955683D01*
X130372619Y-76970716D01*
X130384528Y-76987107D01*
X130390634Y-76992158D01*
X130418605Y-77015298D01*
X130427384Y-77023288D01*
X139354595Y-85950500D01*
X139388621Y-86012812D01*
X139391500Y-86039595D01*
X139391500Y-89648134D01*
X139398255Y-89710316D01*
X139449385Y-89846705D01*
X139536739Y-89963261D01*
X139653295Y-90050615D01*
X139789684Y-90101745D01*
X139851866Y-90108500D01*
X143948134Y-90108500D01*
X144010316Y-90101745D01*
X144146705Y-90050615D01*
X144263261Y-89963261D01*
X144350615Y-89846705D01*
X144401745Y-89710316D01*
X144408500Y-89648134D01*
X144408500Y-85551866D01*
X144401745Y-85489684D01*
X144350615Y-85353295D01*
X144263261Y-85236739D01*
X144146705Y-85149385D01*
X144010316Y-85098255D01*
X143948134Y-85091500D01*
X140339594Y-85091500D01*
X140271473Y-85071498D01*
X140250499Y-85054595D01*
X131520405Y-76324500D01*
X131486379Y-76262188D01*
X131483500Y-76235405D01*
X131483500Y-74909500D01*
X131503502Y-74841379D01*
X131557158Y-74794886D01*
X131609500Y-74783500D01*
X132835406Y-74783500D01*
X132903527Y-74803502D01*
X132924501Y-74820405D01*
X136366196Y-78262101D01*
X139796348Y-81692253D01*
X139803888Y-81700539D01*
X139808000Y-81707018D01*
X139813777Y-81712443D01*
X139857651Y-81753643D01*
X139860493Y-81756398D01*
X139880230Y-81776135D01*
X139883427Y-81778615D01*
X139892447Y-81786318D01*
X139924679Y-81816586D01*
X139931625Y-81820405D01*
X139931628Y-81820407D01*
X139942434Y-81826348D01*
X139958953Y-81837199D01*
X139974959Y-81849614D01*
X139982228Y-81852759D01*
X139982232Y-81852762D01*
X140015537Y-81867174D01*
X140026187Y-81872391D01*
X140064940Y-81893695D01*
X140072615Y-81895666D01*
X140072616Y-81895666D01*
X140084562Y-81898733D01*
X140103266Y-81905137D01*
X140103812Y-81905373D01*
X140121855Y-81913181D01*
X140129678Y-81914420D01*
X140129688Y-81914423D01*
X140165524Y-81920099D01*
X140177144Y-81922505D01*
X140212289Y-81931528D01*
X140219970Y-81933500D01*
X140240224Y-81933500D01*
X140259934Y-81935051D01*
X140279943Y-81938220D01*
X140287835Y-81937474D01*
X140323961Y-81934059D01*
X140335819Y-81933500D01*
X148340500Y-81933500D01*
X148408621Y-81953502D01*
X148455114Y-82007158D01*
X148466500Y-82059500D01*
X148466500Y-89899010D01*
X148446498Y-89967131D01*
X148429595Y-89988105D01*
X144538104Y-93879595D01*
X144475792Y-93913621D01*
X144449009Y-93916500D01*
X143278767Y-93916500D01*
X143267584Y-93915973D01*
X143260091Y-93914298D01*
X143252165Y-93914547D01*
X143252164Y-93914547D01*
X143192014Y-93916438D01*
X143188055Y-93916500D01*
X143160144Y-93916500D01*
X143156210Y-93916997D01*
X143156209Y-93916997D01*
X143156144Y-93917005D01*
X143144307Y-93917938D01*
X143112490Y-93918938D01*
X143108029Y-93919078D01*
X143100110Y-93919327D01*
X143082454Y-93924456D01*
X143080658Y-93924978D01*
X143061306Y-93928986D01*
X143054235Y-93929880D01*
X143041203Y-93931526D01*
X143033834Y-93934443D01*
X143033832Y-93934444D01*
X143000097Y-93947800D01*
X142988869Y-93951645D01*
X142946407Y-93963982D01*
X142939585Y-93968016D01*
X142939579Y-93968019D01*
X142928968Y-93974294D01*
X142911218Y-93982990D01*
X142899756Y-93987528D01*
X142899751Y-93987531D01*
X142892383Y-93990448D01*
X142878424Y-94000590D01*
X142856625Y-94016427D01*
X142846707Y-94022943D01*
X142828019Y-94033995D01*
X142808637Y-94045458D01*
X142794313Y-94059782D01*
X142779281Y-94072621D01*
X142762893Y-94084528D01*
X142734712Y-94118593D01*
X142726722Y-94127373D01*
X142057747Y-94796348D01*
X142049461Y-94803888D01*
X142042982Y-94808000D01*
X142037557Y-94813777D01*
X141996357Y-94857651D01*
X141993602Y-94860493D01*
X141973865Y-94880230D01*
X141971385Y-94883427D01*
X141963682Y-94892447D01*
X141933414Y-94924679D01*
X141929595Y-94931625D01*
X141929593Y-94931628D01*
X141923652Y-94942434D01*
X141912801Y-94958953D01*
X141900386Y-94974959D01*
X141897241Y-94982228D01*
X141897238Y-94982232D01*
X141882826Y-95015537D01*
X141877609Y-95026187D01*
X141856305Y-95064940D01*
X141854334Y-95072615D01*
X141854334Y-95072616D01*
X141851267Y-95084562D01*
X141844863Y-95103266D01*
X141836819Y-95121855D01*
X141835580Y-95129678D01*
X141835577Y-95129688D01*
X141829901Y-95165524D01*
X141827495Y-95177144D01*
X141825298Y-95185702D01*
X141816500Y-95219970D01*
X141816500Y-95240224D01*
X141814949Y-95259934D01*
X141811780Y-95279943D01*
X141815108Y-95315144D01*
X141815941Y-95323961D01*
X141816500Y-95335819D01*
X141816500Y-101971233D01*
X141815973Y-101982416D01*
X141814298Y-101989909D01*
X141814547Y-101997835D01*
X141814547Y-101997836D01*
X141816438Y-102057986D01*
X141816500Y-102061945D01*
X141816500Y-102089856D01*
X141816997Y-102093790D01*
X141816997Y-102093791D01*
X141817005Y-102093856D01*
X141817938Y-102105693D01*
X141819327Y-102149889D01*
X141824978Y-102169339D01*
X141828987Y-102188700D01*
X141830100Y-102197506D01*
X141831526Y-102208797D01*
X141834445Y-102216168D01*
X141834445Y-102216170D01*
X141847804Y-102249912D01*
X141851649Y-102261142D01*
X141863982Y-102303593D01*
X141868015Y-102310412D01*
X141868017Y-102310417D01*
X141874293Y-102321028D01*
X141882988Y-102338776D01*
X141890448Y-102357617D01*
X141895110Y-102364033D01*
X141895110Y-102364034D01*
X141916436Y-102393387D01*
X141922952Y-102403307D01*
X141937663Y-102428181D01*
X141945458Y-102441362D01*
X141959779Y-102455683D01*
X141972619Y-102470716D01*
X141984528Y-102487107D01*
X141990632Y-102492157D01*
X141990637Y-102492162D01*
X142018598Y-102515293D01*
X142027379Y-102523283D01*
X142945005Y-103440910D01*
X142973060Y-103483620D01*
X143025387Y-103615783D01*
X143030579Y-103622623D01*
X143046669Y-103643821D01*
X143071922Y-103710174D01*
X143057294Y-103779647D01*
X143046669Y-103796179D01*
X143025387Y-103824217D01*
X142969864Y-103964453D01*
X142959000Y-104054228D01*
X142959000Y-104655772D01*
X142969864Y-104745547D01*
X142978533Y-104767443D01*
X142985113Y-104784061D01*
X142991592Y-104854761D01*
X142957056Y-104919540D01*
X142147808Y-105728787D01*
X141347000Y-106529595D01*
X141284688Y-106563621D01*
X141257905Y-106566500D01*
X99484500Y-106566500D01*
X99416379Y-106546498D01*
X99369886Y-106492842D01*
X99358500Y-106440500D01*
X99358500Y-106301866D01*
X99351745Y-106239684D01*
X99300615Y-106103295D01*
X99213261Y-105986739D01*
X99096705Y-105899385D01*
X98960316Y-105848255D01*
X98898134Y-105841500D01*
X97101866Y-105841500D01*
X97039684Y-105848255D01*
X96903295Y-105899385D01*
X96786739Y-105986739D01*
X96699385Y-106103295D01*
X96648255Y-106239684D01*
X96641500Y-106301866D01*
X96641500Y-108098134D01*
X96648255Y-108160316D01*
X96699385Y-108296705D01*
X96786739Y-108413261D01*
X96903295Y-108500615D01*
X96911704Y-108503767D01*
X96911705Y-108503768D01*
X97020451Y-108544535D01*
X97077216Y-108587176D01*
X97101916Y-108653738D01*
X97086709Y-108723087D01*
X97067316Y-108749568D01*
X96940629Y-108882138D01*
X96814743Y-109066680D01*
X96799003Y-109100590D01*
X96737637Y-109232792D01*
X96720688Y-109269305D01*
X96660989Y-109484570D01*
X96637251Y-109706695D01*
X96637548Y-109711848D01*
X96637548Y-109711851D01*
X96649812Y-109924547D01*
X96650110Y-109929715D01*
X96651247Y-109934761D01*
X96651248Y-109934767D01*
X96671119Y-110022939D01*
X96699222Y-110147639D01*
X96783266Y-110354616D01*
X96785965Y-110359020D01*
X96889286Y-110527625D01*
X96899987Y-110545088D01*
X97046250Y-110713938D01*
X97218126Y-110856632D01*
X97291955Y-110899774D01*
X97340679Y-110951412D01*
X97353750Y-111021195D01*
X97327019Y-111086967D01*
X97286562Y-111120327D01*
X97278457Y-111124546D01*
X97269738Y-111130036D01*
X97099433Y-111257905D01*
X97091726Y-111264748D01*
X96944590Y-111418717D01*
X96938104Y-111426727D01*
X96818098Y-111602649D01*
X96813000Y-111611623D01*
X96723338Y-111804783D01*
X96719775Y-111814470D01*
X96664389Y-112014183D01*
X96665912Y-112022607D01*
X96678292Y-112026000D01*
X99318344Y-112026000D01*
X99331875Y-112022027D01*
X99333180Y-112012947D01*
X99291214Y-111845875D01*
X99287894Y-111836124D01*
X99202972Y-111640814D01*
X99198105Y-111631739D01*
X99082426Y-111452926D01*
X99076136Y-111444757D01*
X98932806Y-111287240D01*
X98925273Y-111280215D01*
X98758139Y-111148222D01*
X98749556Y-111142520D01*
X98712602Y-111122120D01*
X98662631Y-111071687D01*
X98647859Y-111002245D01*
X98672975Y-110935839D01*
X98700327Y-110909232D01*
X98723797Y-110892491D01*
X98879860Y-110781173D01*
X99038096Y-110623489D01*
X99064836Y-110586277D01*
X99165435Y-110446277D01*
X99168453Y-110442077D01*
X99267430Y-110241811D01*
X99332370Y-110028069D01*
X99361529Y-109806590D01*
X99363156Y-109740000D01*
X99344852Y-109517361D01*
X99290431Y-109300702D01*
X99201354Y-109095840D01*
X99080014Y-108908277D01*
X99060535Y-108886870D01*
X98932798Y-108746488D01*
X98901746Y-108682642D01*
X98910141Y-108612143D01*
X98955317Y-108557375D01*
X98981761Y-108543706D01*
X99088297Y-108503767D01*
X99096705Y-108500615D01*
X99213261Y-108413261D01*
X99300615Y-108296705D01*
X99351745Y-108160316D01*
X99358500Y-108098134D01*
X99358500Y-107959500D01*
X99378502Y-107891379D01*
X99432158Y-107844886D01*
X99484500Y-107833500D01*
X141493733Y-107833500D01*
X141504916Y-107834027D01*
X141512409Y-107835702D01*
X141520335Y-107835453D01*
X141520336Y-107835453D01*
X141580486Y-107833562D01*
X141584445Y-107833500D01*
X141612356Y-107833500D01*
X141616291Y-107833003D01*
X141616356Y-107832995D01*
X141628193Y-107832062D01*
X141660451Y-107831048D01*
X141664470Y-107830922D01*
X141672389Y-107830673D01*
X141691843Y-107825021D01*
X141711200Y-107821013D01*
X141723430Y-107819468D01*
X141723431Y-107819468D01*
X141731297Y-107818474D01*
X141738668Y-107815555D01*
X141738670Y-107815555D01*
X141772412Y-107802196D01*
X141783642Y-107798351D01*
X141818483Y-107788229D01*
X141818484Y-107788229D01*
X141826093Y-107786018D01*
X141832912Y-107781985D01*
X141832917Y-107781983D01*
X141843528Y-107775707D01*
X141861276Y-107767012D01*
X141880117Y-107759552D01*
X141915887Y-107733564D01*
X141925807Y-107727048D01*
X141957035Y-107708580D01*
X141957038Y-107708578D01*
X141963862Y-107704542D01*
X141978183Y-107690221D01*
X141993217Y-107677380D01*
X142003194Y-107670131D01*
X142009607Y-107665472D01*
X142037798Y-107631395D01*
X142045788Y-107622616D01*
X144467999Y-105200405D01*
X144530311Y-105166379D01*
X144557094Y-105163500D01*
X145368272Y-105163500D01*
X145458047Y-105152636D01*
X145465575Y-105149656D01*
X145465577Y-105149655D01*
X145534668Y-105122300D01*
X145598283Y-105097113D01*
X145718422Y-105005922D01*
X145809613Y-104885783D01*
X145844905Y-104796646D01*
X145862155Y-104753077D01*
X145862156Y-104753073D01*
X145865136Y-104745547D01*
X145876000Y-104655772D01*
X145876000Y-104054228D01*
X145865136Y-103964453D01*
X145809613Y-103824217D01*
X145788331Y-103796179D01*
X145763078Y-103729826D01*
X145777706Y-103660353D01*
X145788331Y-103643821D01*
X145804421Y-103622623D01*
X145809613Y-103615783D01*
X145859676Y-103489338D01*
X145862155Y-103483077D01*
X145862156Y-103483075D01*
X145865136Y-103475547D01*
X145876000Y-103385772D01*
X145876000Y-102784228D01*
X145865136Y-102694453D01*
X145809613Y-102554217D01*
X145804423Y-102547379D01*
X145804421Y-102547376D01*
X145788017Y-102525765D01*
X145762764Y-102459411D01*
X145777393Y-102389938D01*
X145788018Y-102373405D01*
X145803980Y-102352376D01*
X145812335Y-102337549D01*
X145861666Y-102212953D01*
X145865619Y-102197388D01*
X145875044Y-102119498D01*
X145875500Y-102111943D01*
X145875500Y-102087115D01*
X145871025Y-102071876D01*
X145869635Y-102070671D01*
X145861952Y-102069000D01*
X144289500Y-102069000D01*
X144221379Y-102048998D01*
X144174886Y-101995342D01*
X144163500Y-101943000D01*
X144163500Y-101687000D01*
X144183502Y-101618879D01*
X144237158Y-101572386D01*
X144289500Y-101561000D01*
X145857385Y-101561000D01*
X145872624Y-101556525D01*
X145873829Y-101555135D01*
X145875500Y-101547452D01*
X145875500Y-101518057D01*
X145875044Y-101510502D01*
X145865619Y-101432612D01*
X145861665Y-101417043D01*
X145835471Y-101350883D01*
X145828992Y-101280183D01*
X145861765Y-101217203D01*
X145923385Y-101181939D01*
X145952623Y-101178500D01*
X147344010Y-101178500D01*
X147412131Y-101198502D01*
X147433105Y-101215405D01*
X148429595Y-102211896D01*
X148463621Y-102274208D01*
X148466500Y-102300991D01*
X148466500Y-105361233D01*
X148465973Y-105372416D01*
X148464298Y-105379909D01*
X148464547Y-105387835D01*
X148464547Y-105387836D01*
X148466438Y-105447986D01*
X148466500Y-105451945D01*
X148466500Y-105479856D01*
X148466997Y-105483790D01*
X148466997Y-105483791D01*
X148467005Y-105483856D01*
X148467938Y-105495693D01*
X148469327Y-105539889D01*
X148474978Y-105559339D01*
X148478987Y-105578700D01*
X148481526Y-105598797D01*
X148484445Y-105606168D01*
X148484445Y-105606170D01*
X148497804Y-105639912D01*
X148501649Y-105651142D01*
X148511771Y-105685983D01*
X148513982Y-105693593D01*
X148518015Y-105700412D01*
X148518017Y-105700417D01*
X148524293Y-105711028D01*
X148532988Y-105728776D01*
X148540448Y-105747617D01*
X148545110Y-105754033D01*
X148545110Y-105754034D01*
X148566436Y-105783387D01*
X148572952Y-105793307D01*
X148595458Y-105831362D01*
X148609779Y-105845683D01*
X148622619Y-105860716D01*
X148634528Y-105877107D01*
X148667968Y-105904771D01*
X148668605Y-105905298D01*
X148677384Y-105913288D01*
X149649778Y-106885682D01*
X149683804Y-106947994D01*
X149682100Y-107008448D01*
X149660989Y-107084570D01*
X149660441Y-107089700D01*
X149660440Y-107089704D01*
X149656933Y-107122522D01*
X149637251Y-107306695D01*
X149637548Y-107311848D01*
X149637548Y-107311851D01*
X149643011Y-107406590D01*
X149650110Y-107529715D01*
X149651247Y-107534761D01*
X149651248Y-107534767D01*
X149671046Y-107622616D01*
X149699222Y-107747639D01*
X149783266Y-107954616D01*
X149834019Y-108037438D01*
X149897291Y-108140688D01*
X149899987Y-108145088D01*
X150046250Y-108313938D01*
X150218126Y-108456632D01*
X150284177Y-108495229D01*
X150291445Y-108499476D01*
X150340169Y-108551114D01*
X150353240Y-108620897D01*
X150326509Y-108686669D01*
X150286055Y-108720027D01*
X150273607Y-108726507D01*
X150269474Y-108729610D01*
X150269471Y-108729612D01*
X150099100Y-108857530D01*
X150094965Y-108860635D01*
X149940629Y-109022138D01*
X149937720Y-109026403D01*
X149937714Y-109026411D01*
X149907042Y-109071375D01*
X149814743Y-109206680D01*
X149720688Y-109409305D01*
X149660989Y-109624570D01*
X149637251Y-109846695D01*
X149637548Y-109851848D01*
X149637548Y-109851851D01*
X149643011Y-109946590D01*
X149650110Y-110069715D01*
X149651247Y-110074761D01*
X149651248Y-110074767D01*
X149667671Y-110147639D01*
X149699222Y-110287639D01*
X149783266Y-110494616D01*
X149834019Y-110577438D01*
X149897291Y-110680688D01*
X149899987Y-110685088D01*
X150046250Y-110853938D01*
X150218126Y-110996632D01*
X150260161Y-111021195D01*
X150291445Y-111039476D01*
X150340169Y-111091114D01*
X150353240Y-111160897D01*
X150326509Y-111226669D01*
X150286055Y-111260027D01*
X150273607Y-111266507D01*
X150269474Y-111269610D01*
X150269471Y-111269612D01*
X150245993Y-111287240D01*
X150094965Y-111400635D01*
X149940629Y-111562138D01*
X149814743Y-111746680D01*
X149720688Y-111949305D01*
X149660989Y-112164570D01*
X149637251Y-112386695D01*
X149637548Y-112391848D01*
X149637548Y-112391851D01*
X149643011Y-112486590D01*
X149650110Y-112609715D01*
X149651247Y-112614761D01*
X149651248Y-112614767D01*
X149666501Y-112682446D01*
X149699222Y-112827639D01*
X149783266Y-113034616D01*
X149834019Y-113117438D01*
X149897291Y-113220688D01*
X149899987Y-113225088D01*
X150046250Y-113393938D01*
X150218126Y-113536632D01*
X150259185Y-113560625D01*
X150291445Y-113579476D01*
X150340169Y-113631114D01*
X150353240Y-113700897D01*
X150326509Y-113766669D01*
X150286055Y-113800027D01*
X150273607Y-113806507D01*
X150269474Y-113809610D01*
X150269471Y-113809612D01*
X150245247Y-113827800D01*
X150094965Y-113940635D01*
X149940629Y-114102138D01*
X149937720Y-114106403D01*
X149937714Y-114106411D01*
X149907042Y-114151375D01*
X149814743Y-114286680D01*
X149720688Y-114489305D01*
X149660989Y-114704570D01*
X149637251Y-114926695D01*
X149637548Y-114931848D01*
X149637548Y-114931851D01*
X149643011Y-115026590D01*
X149650110Y-115149715D01*
X149651247Y-115154761D01*
X149651248Y-115154767D01*
X149667671Y-115227639D01*
X149699222Y-115367639D01*
X149783266Y-115574616D01*
X149834019Y-115657438D01*
X149897291Y-115760688D01*
X149899987Y-115765088D01*
X150046250Y-115933938D01*
X150218126Y-116076632D01*
X150244078Y-116091797D01*
X150291445Y-116119476D01*
X150340169Y-116171114D01*
X150353240Y-116240897D01*
X150326509Y-116306669D01*
X150286055Y-116340027D01*
X150273607Y-116346507D01*
X150269474Y-116349610D01*
X150269471Y-116349612D01*
X150245247Y-116367800D01*
X150094965Y-116480635D01*
X149940629Y-116642138D01*
X149937720Y-116646403D01*
X149937714Y-116646411D01*
X149907042Y-116691375D01*
X149814743Y-116826680D01*
X149720688Y-117029305D01*
X149660989Y-117244570D01*
X149637251Y-117466695D01*
X149637548Y-117471848D01*
X149637548Y-117471851D01*
X149643011Y-117566590D01*
X149650110Y-117689715D01*
X149651247Y-117694761D01*
X149651248Y-117694767D01*
X149667671Y-117767639D01*
X149699222Y-117907639D01*
X149783266Y-118114616D01*
X149834019Y-118197438D01*
X149897291Y-118300688D01*
X149899987Y-118305088D01*
X150046250Y-118473938D01*
X150218126Y-118616632D01*
X150244078Y-118631797D01*
X150291445Y-118659476D01*
X150340169Y-118711114D01*
X150353240Y-118780897D01*
X150326509Y-118846669D01*
X150286055Y-118880027D01*
X150273607Y-118886507D01*
X150269474Y-118889610D01*
X150269471Y-118889612D01*
X150245247Y-118907800D01*
X150094965Y-119020635D01*
X149940629Y-119182138D01*
X149937720Y-119186403D01*
X149937714Y-119186411D01*
X149907042Y-119231375D01*
X149814743Y-119366680D01*
X149720688Y-119569305D01*
X149660989Y-119784570D01*
X149637251Y-120006695D01*
X149637548Y-120011848D01*
X149637548Y-120011851D01*
X149643011Y-120106590D01*
X149650110Y-120229715D01*
X149651247Y-120234761D01*
X149651248Y-120234767D01*
X149667671Y-120307639D01*
X149699222Y-120447639D01*
X149783266Y-120654616D01*
X149834019Y-120737438D01*
X149897291Y-120840688D01*
X149899987Y-120845088D01*
X150046250Y-121013938D01*
X150218126Y-121156632D01*
X150242134Y-121170661D01*
X150291445Y-121199476D01*
X150340169Y-121251114D01*
X150353240Y-121320897D01*
X150326509Y-121386669D01*
X150286055Y-121420027D01*
X150273607Y-121426507D01*
X150269474Y-121429610D01*
X150269471Y-121429612D01*
X150245247Y-121447800D01*
X150094965Y-121560635D01*
X149940629Y-121722138D01*
X149814743Y-121906680D01*
X149720688Y-122109305D01*
X149660989Y-122324570D01*
X149637251Y-122546695D01*
X149637548Y-122551848D01*
X149637548Y-122551851D01*
X149643011Y-122646590D01*
X149650110Y-122769715D01*
X149651247Y-122774761D01*
X149651248Y-122774767D01*
X149671119Y-122862939D01*
X149699222Y-122987639D01*
X149783266Y-123194616D01*
X149834019Y-123277438D01*
X149897291Y-123380688D01*
X149899987Y-123385088D01*
X150046250Y-123553938D01*
X150218126Y-123696632D01*
X150288595Y-123737811D01*
X150291445Y-123739476D01*
X150340169Y-123791114D01*
X150353240Y-123860897D01*
X150326509Y-123926669D01*
X150286055Y-123960027D01*
X150273607Y-123966507D01*
X150269474Y-123969610D01*
X150269471Y-123969612D01*
X150245247Y-123987800D01*
X150094965Y-124100635D01*
X149940629Y-124262138D01*
X149814743Y-124446680D01*
X149720688Y-124649305D01*
X149660989Y-124864570D01*
X149637251Y-125086695D01*
X149637548Y-125091848D01*
X149637548Y-125091851D01*
X149643011Y-125186590D01*
X149650110Y-125309715D01*
X149651247Y-125314761D01*
X149651248Y-125314767D01*
X149671119Y-125402939D01*
X149699222Y-125527639D01*
X149783266Y-125734616D01*
X149834019Y-125817438D01*
X149897291Y-125920688D01*
X149899987Y-125925088D01*
X150046250Y-126093938D01*
X150218126Y-126236632D01*
X150288595Y-126277811D01*
X150291445Y-126279476D01*
X150340169Y-126331114D01*
X150353240Y-126400897D01*
X150326509Y-126466669D01*
X150286055Y-126500027D01*
X150273607Y-126506507D01*
X150269474Y-126509610D01*
X150269471Y-126509612D01*
X150245247Y-126527800D01*
X150094965Y-126640635D01*
X149940629Y-126802138D01*
X149814743Y-126986680D01*
X149720688Y-127189305D01*
X149660989Y-127404570D01*
X149637251Y-127626695D01*
X149637548Y-127631848D01*
X149637548Y-127631851D01*
X149643011Y-127726590D01*
X149650110Y-127849715D01*
X149651247Y-127854761D01*
X149651248Y-127854767D01*
X149671119Y-127942939D01*
X149699222Y-128067639D01*
X149783266Y-128274616D01*
X149834019Y-128357438D01*
X149897291Y-128460688D01*
X149899987Y-128465088D01*
X150046250Y-128633938D01*
X150218126Y-128776632D01*
X150411000Y-128889338D01*
X150619692Y-128969030D01*
X150624760Y-128970061D01*
X150624763Y-128970062D01*
X150732017Y-128991883D01*
X150838597Y-129013567D01*
X150843772Y-129013757D01*
X150843774Y-129013757D01*
X151056673Y-129021564D01*
X151056677Y-129021564D01*
X151061837Y-129021753D01*
X151066957Y-129021097D01*
X151066959Y-129021097D01*
X151278288Y-128994025D01*
X151278289Y-128994025D01*
X151283416Y-128993368D01*
X151288366Y-128991883D01*
X151492429Y-128930661D01*
X151492434Y-128930659D01*
X151497384Y-128929174D01*
X151697994Y-128830896D01*
X151879860Y-128701173D01*
X152038096Y-128543489D01*
X152097594Y-128460689D01*
X152168453Y-128362077D01*
X152169776Y-128363028D01*
X152216645Y-128319857D01*
X152286580Y-128307625D01*
X152352026Y-128335144D01*
X152379875Y-128366994D01*
X152439987Y-128465088D01*
X152586250Y-128633938D01*
X152758126Y-128776632D01*
X152951000Y-128889338D01*
X153159692Y-128969030D01*
X153164760Y-128970061D01*
X153164763Y-128970062D01*
X153272017Y-128991883D01*
X153378597Y-129013567D01*
X153383772Y-129013757D01*
X153383774Y-129013757D01*
X153596673Y-129021564D01*
X153596677Y-129021564D01*
X153601837Y-129021753D01*
X153606957Y-129021097D01*
X153606959Y-129021097D01*
X153818288Y-128994025D01*
X153818289Y-128994025D01*
X153823416Y-128993368D01*
X153828366Y-128991883D01*
X154032429Y-128930661D01*
X154032434Y-128930659D01*
X154037384Y-128929174D01*
X154237994Y-128830896D01*
X154419860Y-128701173D01*
X154578096Y-128543489D01*
X154637594Y-128460689D01*
X154705435Y-128366277D01*
X154708453Y-128362077D01*
X154729320Y-128319857D01*
X154805136Y-128166453D01*
X154805137Y-128166451D01*
X154807430Y-128161811D01*
X154872370Y-127948069D01*
X154901529Y-127726590D01*
X154903156Y-127660000D01*
X154884852Y-127437361D01*
X154830431Y-127220702D01*
X154741354Y-127015840D01*
X154620014Y-126828277D01*
X154469670Y-126663051D01*
X154465619Y-126659852D01*
X154465615Y-126659848D01*
X154298414Y-126527800D01*
X154298410Y-126527798D01*
X154294359Y-126524598D01*
X154253053Y-126501796D01*
X154203084Y-126451364D01*
X154188312Y-126381921D01*
X154213428Y-126315516D01*
X154240780Y-126288909D01*
X154284603Y-126257650D01*
X154419860Y-126161173D01*
X154578096Y-126003489D01*
X154637594Y-125920689D01*
X154705435Y-125826277D01*
X154708453Y-125822077D01*
X154729320Y-125779857D01*
X154805136Y-125626453D01*
X154805137Y-125626451D01*
X154807430Y-125621811D01*
X154872370Y-125408069D01*
X154901529Y-125186590D01*
X154903156Y-125120000D01*
X154884852Y-124897361D01*
X154830431Y-124680702D01*
X154741354Y-124475840D01*
X154620014Y-124288277D01*
X154469670Y-124123051D01*
X154465619Y-124119852D01*
X154465615Y-124119848D01*
X154298414Y-123987800D01*
X154298410Y-123987798D01*
X154294359Y-123984598D01*
X154253053Y-123961796D01*
X154203084Y-123911364D01*
X154188312Y-123841921D01*
X154213428Y-123775516D01*
X154240780Y-123748909D01*
X154284603Y-123717650D01*
X154419860Y-123621173D01*
X154578096Y-123463489D01*
X154637594Y-123380689D01*
X154705435Y-123286277D01*
X154708453Y-123282077D01*
X154729320Y-123239857D01*
X154805136Y-123086453D01*
X154805137Y-123086451D01*
X154807430Y-123081811D01*
X154872370Y-122868069D01*
X154901529Y-122646590D01*
X154903156Y-122580000D01*
X154884852Y-122357361D01*
X154830431Y-122140702D01*
X154741354Y-121935840D01*
X154620014Y-121748277D01*
X154469670Y-121583051D01*
X154465619Y-121579852D01*
X154465615Y-121579848D01*
X154298414Y-121447800D01*
X154298410Y-121447798D01*
X154294359Y-121444598D01*
X154253053Y-121421796D01*
X154203084Y-121371364D01*
X154188312Y-121301921D01*
X154213428Y-121235516D01*
X154240780Y-121208909D01*
X154299681Y-121166895D01*
X154419860Y-121081173D01*
X154433188Y-121067892D01*
X154501209Y-121000107D01*
X154578096Y-120923489D01*
X154637594Y-120840689D01*
X154705435Y-120746277D01*
X154708453Y-120742077D01*
X154729320Y-120699857D01*
X154805136Y-120546453D01*
X154805137Y-120546451D01*
X154807430Y-120541811D01*
X154872370Y-120328069D01*
X154901529Y-120106590D01*
X154903156Y-120040000D01*
X154884852Y-119817361D01*
X154830431Y-119600702D01*
X154741354Y-119395840D01*
X154634957Y-119231375D01*
X154622822Y-119212617D01*
X154622820Y-119212614D01*
X154620014Y-119208277D01*
X154469670Y-119043051D01*
X154465619Y-119039852D01*
X154465615Y-119039848D01*
X154298414Y-118907800D01*
X154298410Y-118907798D01*
X154294359Y-118904598D01*
X154253053Y-118881796D01*
X154203084Y-118831364D01*
X154188312Y-118761921D01*
X154213428Y-118695516D01*
X154240780Y-118668909D01*
X154306655Y-118621921D01*
X154419860Y-118541173D01*
X154578096Y-118383489D01*
X154637594Y-118300689D01*
X154705435Y-118206277D01*
X154708453Y-118202077D01*
X154729320Y-118159857D01*
X154805136Y-118006453D01*
X154805137Y-118006451D01*
X154807430Y-118001811D01*
X154872370Y-117788069D01*
X154901529Y-117566590D01*
X154903156Y-117500000D01*
X154884852Y-117277361D01*
X154830431Y-117060702D01*
X154741354Y-116855840D01*
X154634957Y-116691375D01*
X154622822Y-116672617D01*
X154622820Y-116672614D01*
X154620014Y-116668277D01*
X154469670Y-116503051D01*
X154465619Y-116499852D01*
X154465615Y-116499848D01*
X154298414Y-116367800D01*
X154298410Y-116367798D01*
X154294359Y-116364598D01*
X154253053Y-116341796D01*
X154203084Y-116291364D01*
X154188312Y-116221921D01*
X154213428Y-116155516D01*
X154240780Y-116128909D01*
X154306655Y-116081921D01*
X154419860Y-116001173D01*
X154578096Y-115843489D01*
X154637594Y-115760689D01*
X154705435Y-115666277D01*
X154708453Y-115662077D01*
X154729320Y-115619857D01*
X154805136Y-115466453D01*
X154805137Y-115466451D01*
X154807430Y-115461811D01*
X154872370Y-115248069D01*
X154901529Y-115026590D01*
X154903156Y-114960000D01*
X154884852Y-114737361D01*
X154830431Y-114520702D01*
X154741354Y-114315840D01*
X154634957Y-114151375D01*
X154622822Y-114132617D01*
X154622820Y-114132614D01*
X154620014Y-114128277D01*
X154469670Y-113963051D01*
X154465619Y-113959852D01*
X154465615Y-113959848D01*
X154298414Y-113827800D01*
X154298410Y-113827798D01*
X154294359Y-113824598D01*
X154253053Y-113801796D01*
X154203084Y-113751364D01*
X154188312Y-113681921D01*
X154213428Y-113615516D01*
X154240780Y-113588909D01*
X154307029Y-113541654D01*
X154419860Y-113461173D01*
X154578096Y-113303489D01*
X154637594Y-113220689D01*
X154705435Y-113126277D01*
X154708453Y-113122077D01*
X154724950Y-113088699D01*
X154805136Y-112926453D01*
X154805137Y-112926451D01*
X154807430Y-112921811D01*
X154872370Y-112708069D01*
X154901529Y-112486590D01*
X154903156Y-112420000D01*
X154884852Y-112197361D01*
X154830431Y-111980702D01*
X154741354Y-111775840D01*
X154620014Y-111588277D01*
X154469670Y-111423051D01*
X154465619Y-111419852D01*
X154465615Y-111419848D01*
X154298414Y-111287800D01*
X154298410Y-111287798D01*
X154294359Y-111284598D01*
X154253053Y-111261796D01*
X154203084Y-111211364D01*
X154188312Y-111141921D01*
X154213428Y-111075516D01*
X154240780Y-111048909D01*
X154296486Y-111009174D01*
X154419860Y-110921173D01*
X154578096Y-110763489D01*
X154637594Y-110680689D01*
X154705435Y-110586277D01*
X154708453Y-110582077D01*
X154729320Y-110539857D01*
X154805136Y-110386453D01*
X154805137Y-110386451D01*
X154807430Y-110381811D01*
X154872370Y-110168069D01*
X154901529Y-109946590D01*
X154903156Y-109880000D01*
X154884852Y-109657361D01*
X154830431Y-109440702D01*
X154741354Y-109235840D01*
X154634957Y-109071375D01*
X154622822Y-109052617D01*
X154622820Y-109052614D01*
X154620014Y-109048277D01*
X154469670Y-108883051D01*
X154465619Y-108879852D01*
X154465615Y-108879848D01*
X154298414Y-108747800D01*
X154298410Y-108747798D01*
X154294359Y-108744598D01*
X154253053Y-108721796D01*
X154203084Y-108671364D01*
X154188312Y-108601921D01*
X154213428Y-108535516D01*
X154240780Y-108508909D01*
X154284603Y-108477650D01*
X154419860Y-108381173D01*
X154578096Y-108223489D01*
X154618174Y-108167715D01*
X154705435Y-108046277D01*
X154708453Y-108042077D01*
X154729320Y-107999857D01*
X154805136Y-107846453D01*
X154805137Y-107846451D01*
X154807430Y-107841811D01*
X154872370Y-107628069D01*
X154901529Y-107406590D01*
X154903156Y-107340000D01*
X154884852Y-107117361D01*
X154830431Y-106900702D01*
X154741354Y-106695840D01*
X154655818Y-106563621D01*
X154622822Y-106512617D01*
X154622820Y-106512614D01*
X154620014Y-106508277D01*
X154469670Y-106343051D01*
X154465619Y-106339852D01*
X154465615Y-106339848D01*
X154298414Y-106207800D01*
X154298410Y-106207798D01*
X154294359Y-106204598D01*
X154253053Y-106181796D01*
X154203084Y-106131364D01*
X154188312Y-106061921D01*
X154213428Y-105995516D01*
X154240780Y-105968909D01*
X154318758Y-105913288D01*
X154419860Y-105841173D01*
X154429706Y-105831362D01*
X154507304Y-105754034D01*
X154578096Y-105683489D01*
X154681283Y-105539889D01*
X154705435Y-105506277D01*
X154708453Y-105502077D01*
X154714541Y-105489760D01*
X154805136Y-105306453D01*
X154805137Y-105306451D01*
X154807430Y-105301811D01*
X154872370Y-105088069D01*
X154901529Y-104866590D01*
X154901818Y-104854761D01*
X154903074Y-104803365D01*
X154903074Y-104803361D01*
X154903156Y-104800000D01*
X154884852Y-104577361D01*
X154830431Y-104360702D01*
X154741354Y-104155840D01*
X154701906Y-104094862D01*
X154622822Y-103972617D01*
X154622820Y-103972614D01*
X154620014Y-103968277D01*
X154469670Y-103803051D01*
X154465619Y-103799852D01*
X154465615Y-103799848D01*
X154298414Y-103667800D01*
X154298410Y-103667798D01*
X154294359Y-103664598D01*
X154253053Y-103641796D01*
X154203084Y-103591364D01*
X154188312Y-103521921D01*
X154213428Y-103455516D01*
X154240780Y-103428909D01*
X154284603Y-103397650D01*
X154419860Y-103301173D01*
X154578096Y-103143489D01*
X154708453Y-102962077D01*
X154807430Y-102761811D01*
X154872370Y-102548069D01*
X154901529Y-102326590D01*
X154902091Y-102303593D01*
X154903074Y-102263365D01*
X154903074Y-102263361D01*
X154903156Y-102260000D01*
X154884852Y-102037361D01*
X154830431Y-101820702D01*
X154741354Y-101615840D01*
X154678095Y-101518057D01*
X154622822Y-101432617D01*
X154622818Y-101432612D01*
X154620014Y-101428277D01*
X154469670Y-101263051D01*
X154465619Y-101259852D01*
X154465615Y-101259848D01*
X154298414Y-101127800D01*
X154298410Y-101127798D01*
X154294359Y-101124598D01*
X154253053Y-101101796D01*
X154203084Y-101051364D01*
X154188312Y-100981921D01*
X154213428Y-100915516D01*
X154240780Y-100888909D01*
X154284603Y-100857650D01*
X154419860Y-100761173D01*
X154578096Y-100603489D01*
X154708453Y-100422077D01*
X154807430Y-100221811D01*
X154872370Y-100008069D01*
X154901529Y-99786590D01*
X154903156Y-99720000D01*
X154884852Y-99497361D01*
X154830431Y-99280702D01*
X154741354Y-99075840D01*
X154701906Y-99014862D01*
X154622822Y-98892617D01*
X154622820Y-98892614D01*
X154620014Y-98888277D01*
X154469670Y-98723051D01*
X154465619Y-98719852D01*
X154465615Y-98719848D01*
X154298414Y-98587800D01*
X154298410Y-98587798D01*
X154294359Y-98584598D01*
X154253053Y-98561796D01*
X154203084Y-98511364D01*
X154188312Y-98441921D01*
X154213428Y-98375516D01*
X154240780Y-98348909D01*
X154284603Y-98317650D01*
X154419860Y-98221173D01*
X154578096Y-98063489D01*
X154637594Y-97980689D01*
X154705435Y-97886277D01*
X154708453Y-97882077D01*
X154729320Y-97839857D01*
X154805136Y-97686453D01*
X154805137Y-97686451D01*
X154807430Y-97681811D01*
X154872370Y-97468069D01*
X154901529Y-97246590D01*
X154903156Y-97180000D01*
X154884852Y-96957361D01*
X154830431Y-96740702D01*
X154741354Y-96535840D01*
X154701906Y-96474862D01*
X154622822Y-96352617D01*
X154622820Y-96352614D01*
X154620014Y-96348277D01*
X154469670Y-96183051D01*
X154465619Y-96179852D01*
X154465615Y-96179848D01*
X154298414Y-96047800D01*
X154298410Y-96047798D01*
X154294359Y-96044598D01*
X154253053Y-96021796D01*
X154203084Y-95971364D01*
X154188312Y-95901921D01*
X154213428Y-95835516D01*
X154240780Y-95808909D01*
X154290201Y-95773657D01*
X154419860Y-95681173D01*
X154455817Y-95645342D01*
X154539045Y-95562404D01*
X154578096Y-95523489D01*
X154605436Y-95485442D01*
X154705435Y-95346277D01*
X154708453Y-95342077D01*
X154714533Y-95329776D01*
X154805136Y-95146453D01*
X154805137Y-95146451D01*
X154807430Y-95141811D01*
X154862987Y-94958953D01*
X154870865Y-94933023D01*
X154870865Y-94933021D01*
X154872370Y-94928069D01*
X154901529Y-94706590D01*
X154902415Y-94670345D01*
X154903074Y-94643365D01*
X154903074Y-94643361D01*
X154903156Y-94640000D01*
X154884852Y-94417361D01*
X154830431Y-94200702D01*
X154741354Y-93995840D01*
X154693286Y-93921538D01*
X154622822Y-93812617D01*
X154622820Y-93812614D01*
X154620014Y-93808277D01*
X154469670Y-93643051D01*
X154465619Y-93639852D01*
X154465615Y-93639848D01*
X154298414Y-93507800D01*
X154298410Y-93507798D01*
X154294359Y-93504598D01*
X154253053Y-93481796D01*
X154203084Y-93431364D01*
X154188312Y-93361921D01*
X154213428Y-93295516D01*
X154240780Y-93268909D01*
X154300360Y-93226411D01*
X154419860Y-93141173D01*
X154478186Y-93083051D01*
X154528104Y-93033307D01*
X154578096Y-92983489D01*
X154588661Y-92968787D01*
X154705435Y-92806277D01*
X154708453Y-92802077D01*
X154729320Y-92759857D01*
X154805136Y-92606453D01*
X154805137Y-92606451D01*
X154807430Y-92601811D01*
X154872370Y-92388069D01*
X154901529Y-92166590D01*
X154901611Y-92163240D01*
X154903074Y-92103365D01*
X154903074Y-92103361D01*
X154903156Y-92100000D01*
X154884852Y-91877361D01*
X154830431Y-91660702D01*
X154741354Y-91455840D01*
X154631480Y-91286000D01*
X154622822Y-91272617D01*
X154622820Y-91272614D01*
X154620014Y-91268277D01*
X154469670Y-91103051D01*
X154465619Y-91099852D01*
X154465615Y-91099848D01*
X154298414Y-90967800D01*
X154298410Y-90967798D01*
X154294359Y-90964598D01*
X154253053Y-90941796D01*
X154203084Y-90891364D01*
X154188312Y-90821921D01*
X154213428Y-90755516D01*
X154240780Y-90728909D01*
X154299917Y-90686727D01*
X154419860Y-90601173D01*
X154458682Y-90562487D01*
X154538616Y-90482831D01*
X154578096Y-90443489D01*
X154585316Y-90433442D01*
X154705435Y-90266277D01*
X154708453Y-90262077D01*
X154729320Y-90219857D01*
X154805136Y-90066453D01*
X154805137Y-90066451D01*
X154807430Y-90061811D01*
X154872370Y-89848069D01*
X154901529Y-89626590D01*
X154903156Y-89560000D01*
X154884852Y-89337361D01*
X154830431Y-89120702D01*
X154741354Y-88915840D01*
X154620014Y-88728277D01*
X154469670Y-88563051D01*
X154465619Y-88559852D01*
X154465615Y-88559848D01*
X154298414Y-88427800D01*
X154298410Y-88427798D01*
X154294359Y-88424598D01*
X154253053Y-88401796D01*
X154203084Y-88351364D01*
X154188312Y-88281921D01*
X154213428Y-88215516D01*
X154240780Y-88188909D01*
X154284603Y-88157650D01*
X154419860Y-88061173D01*
X154578096Y-87903489D01*
X154589016Y-87888293D01*
X154705435Y-87726277D01*
X154708453Y-87722077D01*
X154729320Y-87679857D01*
X154805136Y-87526453D01*
X154805137Y-87526451D01*
X154807430Y-87521811D01*
X154861353Y-87344329D01*
X154870865Y-87313023D01*
X154870865Y-87313021D01*
X154872370Y-87308069D01*
X154901529Y-87086590D01*
X154901611Y-87083240D01*
X154903074Y-87023365D01*
X154903074Y-87023361D01*
X154903156Y-87020000D01*
X154898063Y-86958057D01*
X154912415Y-86888528D01*
X154962081Y-86837795D01*
X155031290Y-86821967D01*
X155098071Y-86846068D01*
X155112734Y-86858639D01*
X156079595Y-87825500D01*
X156113621Y-87887812D01*
X156116500Y-87914595D01*
X156116500Y-92601233D01*
X156115973Y-92612416D01*
X156114298Y-92619909D01*
X156114547Y-92627835D01*
X156114547Y-92627836D01*
X156116438Y-92687986D01*
X156116500Y-92691945D01*
X156116500Y-92719856D01*
X156116997Y-92723790D01*
X156116997Y-92723791D01*
X156117005Y-92723856D01*
X156117938Y-92735693D01*
X156119327Y-92779889D01*
X156124978Y-92799339D01*
X156128987Y-92818700D01*
X156131526Y-92838797D01*
X156134445Y-92846168D01*
X156134445Y-92846170D01*
X156147804Y-92879912D01*
X156151649Y-92891142D01*
X156161231Y-92924124D01*
X156163982Y-92933593D01*
X156168015Y-92940412D01*
X156168017Y-92940417D01*
X156174293Y-92951028D01*
X156182988Y-92968776D01*
X156190448Y-92987617D01*
X156195110Y-92994033D01*
X156195110Y-92994034D01*
X156216436Y-93023387D01*
X156222952Y-93033307D01*
X156241325Y-93064373D01*
X156245458Y-93071362D01*
X156259779Y-93085683D01*
X156272619Y-93100716D01*
X156284528Y-93117107D01*
X156290634Y-93122158D01*
X156318605Y-93145298D01*
X156327384Y-93153288D01*
X156799778Y-93625682D01*
X156833804Y-93687994D01*
X156832100Y-93748448D01*
X156810989Y-93824570D01*
X156810441Y-93829700D01*
X156810440Y-93829704D01*
X156801472Y-93913621D01*
X156787251Y-94046695D01*
X156787548Y-94051848D01*
X156787548Y-94051851D01*
X156794608Y-94174297D01*
X156800110Y-94269715D01*
X156801247Y-94274761D01*
X156801248Y-94274767D01*
X156821119Y-94362939D01*
X156849222Y-94487639D01*
X156933266Y-94694616D01*
X156953772Y-94728079D01*
X157045292Y-94877426D01*
X157049987Y-94885088D01*
X157196250Y-95053938D01*
X157368126Y-95196632D01*
X157412199Y-95222386D01*
X157441445Y-95239476D01*
X157490169Y-95291114D01*
X157503240Y-95360897D01*
X157476509Y-95426669D01*
X157436055Y-95460027D01*
X157423607Y-95466507D01*
X157419474Y-95469610D01*
X157419471Y-95469612D01*
X157249100Y-95597530D01*
X157244965Y-95600635D01*
X157241393Y-95604373D01*
X157096282Y-95756223D01*
X157090629Y-95762138D01*
X157087715Y-95766410D01*
X157087714Y-95766411D01*
X157040574Y-95835516D01*
X156964743Y-95946680D01*
X156928798Y-96024118D01*
X156877885Y-96133801D01*
X156870688Y-96149305D01*
X156810989Y-96364570D01*
X156787251Y-96586695D01*
X156787548Y-96591848D01*
X156787548Y-96591851D01*
X156794608Y-96714297D01*
X156800110Y-96809715D01*
X156801247Y-96814761D01*
X156801248Y-96814767D01*
X156821119Y-96902939D01*
X156849222Y-97027639D01*
X156933266Y-97234616D01*
X156935965Y-97239020D01*
X157033177Y-97397656D01*
X157049987Y-97425088D01*
X157196250Y-97593938D01*
X157368126Y-97736632D01*
X157561000Y-97849338D01*
X157769692Y-97929030D01*
X157774760Y-97930061D01*
X157774763Y-97930062D01*
X157882017Y-97951883D01*
X157988597Y-97973567D01*
X157993772Y-97973757D01*
X157993774Y-97973757D01*
X158206673Y-97981564D01*
X158206677Y-97981564D01*
X158211837Y-97981753D01*
X158216957Y-97981097D01*
X158216959Y-97981097D01*
X158428288Y-97954025D01*
X158428289Y-97954025D01*
X158433416Y-97953368D01*
X158438366Y-97951883D01*
X158642429Y-97890661D01*
X158642434Y-97890659D01*
X158647384Y-97889174D01*
X158847994Y-97790896D01*
X159029860Y-97661173D01*
X159068675Y-97622494D01*
X159184435Y-97507137D01*
X159188096Y-97503489D01*
X159247594Y-97420689D01*
X159315435Y-97326277D01*
X159318453Y-97322077D01*
X159324248Y-97310353D01*
X159415136Y-97126453D01*
X159415137Y-97126451D01*
X159417430Y-97121811D01*
X159482370Y-96908069D01*
X159511529Y-96686590D01*
X159513156Y-96620000D01*
X159494852Y-96397361D01*
X159466821Y-96285765D01*
X159469625Y-96214823D01*
X159499930Y-96165974D01*
X159892247Y-95773657D01*
X159900537Y-95766113D01*
X159907018Y-95762000D01*
X159953659Y-95712332D01*
X159956413Y-95709491D01*
X159976134Y-95689770D01*
X159978612Y-95686575D01*
X159986318Y-95677553D01*
X160011158Y-95651101D01*
X160016586Y-95645321D01*
X160026346Y-95627568D01*
X160037199Y-95611045D01*
X160044753Y-95601306D01*
X160049613Y-95595041D01*
X160067176Y-95554457D01*
X160072383Y-95543827D01*
X160093695Y-95505060D01*
X160095666Y-95497383D01*
X160095668Y-95497378D01*
X160098732Y-95485442D01*
X160105138Y-95466730D01*
X160106269Y-95464118D01*
X160113181Y-95448145D01*
X160114421Y-95440317D01*
X160114423Y-95440310D01*
X160120099Y-95404476D01*
X160122505Y-95392856D01*
X160131528Y-95357711D01*
X160131528Y-95357710D01*
X160133500Y-95350030D01*
X160133500Y-95329776D01*
X160135051Y-95310065D01*
X160136980Y-95297886D01*
X160138220Y-95290057D01*
X160134059Y-95246038D01*
X160133500Y-95234181D01*
X160133500Y-87528763D01*
X160134027Y-87517579D01*
X160135701Y-87510091D01*
X160133562Y-87442032D01*
X160133500Y-87438075D01*
X160133500Y-87410144D01*
X160132994Y-87406138D01*
X160132061Y-87394292D01*
X160130922Y-87358037D01*
X160130673Y-87350110D01*
X160125022Y-87330658D01*
X160121014Y-87311306D01*
X160119467Y-87299063D01*
X160118474Y-87291203D01*
X160115556Y-87283832D01*
X160102200Y-87250097D01*
X160098355Y-87238870D01*
X160091555Y-87215465D01*
X160086018Y-87196407D01*
X160081984Y-87189585D01*
X160081981Y-87189579D01*
X160075706Y-87178968D01*
X160067010Y-87161218D01*
X160062472Y-87149756D01*
X160062469Y-87149751D01*
X160059552Y-87142383D01*
X160033573Y-87106625D01*
X160027057Y-87096707D01*
X160008575Y-87065457D01*
X160004542Y-87058637D01*
X159990218Y-87044313D01*
X159977376Y-87029278D01*
X159973080Y-87023365D01*
X159965472Y-87012893D01*
X159931406Y-86984711D01*
X159922627Y-86976722D01*
X155870405Y-82924500D01*
X155836379Y-82862188D01*
X155833500Y-82835405D01*
X155833500Y-81628767D01*
X155834027Y-81617584D01*
X155835702Y-81610091D01*
X155835421Y-81601132D01*
X155833562Y-81542014D01*
X155833500Y-81538055D01*
X155833500Y-81510144D01*
X155832995Y-81506144D01*
X155832062Y-81494301D01*
X155830922Y-81458029D01*
X155830673Y-81450110D01*
X155825022Y-81430658D01*
X155821014Y-81411306D01*
X155819467Y-81399063D01*
X155818474Y-81391203D01*
X155815556Y-81383832D01*
X155802200Y-81350097D01*
X155798355Y-81338870D01*
X155797721Y-81336687D01*
X155786018Y-81296407D01*
X155781984Y-81289585D01*
X155781981Y-81289579D01*
X155775706Y-81278968D01*
X155767010Y-81261218D01*
X155762472Y-81249756D01*
X155762469Y-81249751D01*
X155759552Y-81242383D01*
X155733573Y-81206625D01*
X155727057Y-81196707D01*
X155708575Y-81165457D01*
X155704542Y-81158637D01*
X155690218Y-81144313D01*
X155677376Y-81129278D01*
X155665472Y-81112893D01*
X155631406Y-81084711D01*
X155622627Y-81076722D01*
X154803652Y-80257747D01*
X154796112Y-80249461D01*
X154792000Y-80242982D01*
X154786222Y-80237556D01*
X154755461Y-80208669D01*
X154719496Y-80147456D01*
X154722335Y-80076517D01*
X154728758Y-80060993D01*
X154805136Y-79906453D01*
X154805137Y-79906451D01*
X154807430Y-79901811D01*
X154848504Y-79766621D01*
X154870865Y-79693023D01*
X154870865Y-79693021D01*
X154872370Y-79688069D01*
X154901529Y-79466590D01*
X154901611Y-79463240D01*
X154903074Y-79403365D01*
X154903074Y-79403361D01*
X154903156Y-79400000D01*
X154884852Y-79177361D01*
X154830431Y-78960702D01*
X154741354Y-78755840D01*
X154665940Y-78639267D01*
X154622822Y-78572617D01*
X154622820Y-78572614D01*
X154620014Y-78568277D01*
X154469670Y-78403051D01*
X154465619Y-78399852D01*
X154465615Y-78399848D01*
X154298414Y-78267800D01*
X154298410Y-78267798D01*
X154294359Y-78264598D01*
X154098789Y-78156638D01*
X154093920Y-78154914D01*
X154093916Y-78154912D01*
X153893087Y-78083795D01*
X153893083Y-78083794D01*
X153888212Y-78082069D01*
X153883119Y-78081162D01*
X153883116Y-78081161D01*
X153673373Y-78043800D01*
X153673367Y-78043799D01*
X153668284Y-78042894D01*
X153594452Y-78041992D01*
X153450081Y-78040228D01*
X153450079Y-78040228D01*
X153444911Y-78040165D01*
X153224091Y-78073955D01*
X153011756Y-78143357D01*
X152813607Y-78246507D01*
X152809474Y-78249610D01*
X152809471Y-78249612D01*
X152639100Y-78377530D01*
X152634965Y-78380635D01*
X152578537Y-78439684D01*
X152554283Y-78465064D01*
X152492759Y-78500494D01*
X152421846Y-78497037D01*
X152364060Y-78455791D01*
X152345207Y-78422243D01*
X152303767Y-78311703D01*
X152300615Y-78303295D01*
X152213261Y-78186739D01*
X152096705Y-78099385D01*
X151960316Y-78048255D01*
X151898134Y-78041500D01*
X150101866Y-78041500D01*
X150039684Y-78048255D01*
X149903295Y-78099385D01*
X149786739Y-78186739D01*
X149699385Y-78303295D01*
X149648255Y-78439684D01*
X149641500Y-78501866D01*
X149641500Y-79810405D01*
X149621498Y-79878526D01*
X149604595Y-79899501D01*
X148874499Y-80629596D01*
X148812187Y-80663621D01*
X148785404Y-80666500D01*
X140614594Y-80666500D01*
X140546473Y-80646498D01*
X140525499Y-80629595D01*
X134896318Y-75000413D01*
X134862292Y-74938101D01*
X134867357Y-74867286D01*
X134909904Y-74810450D01*
X134976424Y-74785639D01*
X134990024Y-74785403D01*
X135006698Y-74786015D01*
X135021674Y-74786564D01*
X135021678Y-74786564D01*
X135026837Y-74786753D01*
X135031957Y-74786097D01*
X135031959Y-74786097D01*
X135243288Y-74759025D01*
X135243289Y-74759025D01*
X135248416Y-74758368D01*
X135256039Y-74756081D01*
X135457429Y-74695661D01*
X135457434Y-74695659D01*
X135462384Y-74694174D01*
X135662994Y-74595896D01*
X135844860Y-74466173D01*
X136003096Y-74308489D01*
X136133453Y-74127077D01*
X136134776Y-74128028D01*
X136181645Y-74084857D01*
X136251580Y-74072625D01*
X136317026Y-74100144D01*
X136344875Y-74131994D01*
X136404987Y-74230088D01*
X136551250Y-74398938D01*
X136723126Y-74541632D01*
X136916000Y-74654338D01*
X137124692Y-74734030D01*
X137129760Y-74735061D01*
X137129763Y-74735062D01*
X137233075Y-74756081D01*
X137343597Y-74778567D01*
X137348772Y-74778757D01*
X137348774Y-74778757D01*
X137561673Y-74786564D01*
X137561677Y-74786564D01*
X137566837Y-74786753D01*
X137571957Y-74786097D01*
X137571959Y-74786097D01*
X137783288Y-74759025D01*
X137783289Y-74759025D01*
X137788416Y-74758368D01*
X137796039Y-74756081D01*
X137997429Y-74695661D01*
X137997434Y-74695659D01*
X138002384Y-74694174D01*
X138178991Y-74607655D01*
X150739858Y-74607655D01*
X150775104Y-74866638D01*
X150776412Y-74871124D01*
X150776412Y-74871126D01*
X150795720Y-74937367D01*
X150848243Y-75117567D01*
X150957668Y-75354928D01*
X150960231Y-75358837D01*
X151098410Y-75569596D01*
X151098414Y-75569601D01*
X151100976Y-75573509D01*
X151275018Y-75768506D01*
X151475970Y-75935637D01*
X151479973Y-75938066D01*
X151695422Y-76068804D01*
X151695426Y-76068806D01*
X151699419Y-76071229D01*
X151940455Y-76172303D01*
X152193783Y-76236641D01*
X152198434Y-76237109D01*
X152198438Y-76237110D01*
X152384351Y-76255830D01*
X152410867Y-76258500D01*
X152566354Y-76258500D01*
X152568679Y-76258327D01*
X152568685Y-76258327D01*
X152756000Y-76244407D01*
X152756004Y-76244406D01*
X152760652Y-76244061D01*
X152765200Y-76243032D01*
X152765206Y-76243031D01*
X152951601Y-76200853D01*
X153015577Y-76186377D01*
X153051769Y-76172303D01*
X153254824Y-76093340D01*
X153254827Y-76093339D01*
X153259177Y-76091647D01*
X153486098Y-75961951D01*
X153691357Y-75800138D01*
X153870443Y-75609763D01*
X154019424Y-75395009D01*
X154135025Y-75160593D01*
X154214707Y-74911665D01*
X154256721Y-74653693D01*
X154259412Y-74448134D01*
X154260081Y-74397022D01*
X154260081Y-74397019D01*
X154260142Y-74392345D01*
X154224896Y-74133362D01*
X154210473Y-74083877D01*
X154181815Y-73985559D01*
X154151757Y-73882433D01*
X154042332Y-73645072D01*
X153941705Y-73491590D01*
X153901590Y-73430404D01*
X153901586Y-73430399D01*
X153899024Y-73426491D01*
X153724982Y-73231494D01*
X153524030Y-73064363D01*
X153386576Y-72980954D01*
X153304578Y-72931196D01*
X153304574Y-72931194D01*
X153300581Y-72928771D01*
X153059545Y-72827697D01*
X152806217Y-72763359D01*
X152801566Y-72762891D01*
X152801562Y-72762890D01*
X152592271Y-72741816D01*
X152589133Y-72741500D01*
X152433646Y-72741500D01*
X152431321Y-72741673D01*
X152431315Y-72741673D01*
X152244000Y-72755593D01*
X152243996Y-72755594D01*
X152239348Y-72755939D01*
X152234800Y-72756968D01*
X152234794Y-72756969D01*
X152048399Y-72799147D01*
X151984423Y-72813623D01*
X151980071Y-72815315D01*
X151980069Y-72815316D01*
X151745176Y-72906660D01*
X151745173Y-72906661D01*
X151740823Y-72908353D01*
X151736769Y-72910670D01*
X151736767Y-72910671D01*
X151708264Y-72926962D01*
X151513902Y-73038049D01*
X151308643Y-73199862D01*
X151129557Y-73390237D01*
X150980576Y-73604991D01*
X150978510Y-73609181D01*
X150978508Y-73609184D01*
X150929808Y-73707939D01*
X150864975Y-73839407D01*
X150863553Y-73843850D01*
X150863552Y-73843852D01*
X150846358Y-73897567D01*
X150785293Y-74088335D01*
X150743279Y-74346307D01*
X150739858Y-74607655D01*
X138178991Y-74607655D01*
X138202994Y-74595896D01*
X138384860Y-74466173D01*
X138543096Y-74308489D01*
X138673453Y-74127077D01*
X138690074Y-74093448D01*
X138770136Y-73931453D01*
X138770137Y-73931451D01*
X138772430Y-73926811D01*
X138837370Y-73713069D01*
X138866529Y-73491590D01*
X138868156Y-73425000D01*
X138849852Y-73202361D01*
X138795431Y-72985702D01*
X138706354Y-72780840D01*
X138585014Y-72593277D01*
X138434670Y-72428051D01*
X138430619Y-72424852D01*
X138430615Y-72424848D01*
X138263414Y-72292800D01*
X138263410Y-72292798D01*
X138259359Y-72289598D01*
X138217569Y-72266529D01*
X138167598Y-72216097D01*
X138152826Y-72146654D01*
X138177942Y-72080248D01*
X138205294Y-72053641D01*
X138380328Y-71928792D01*
X138388200Y-71922139D01*
X138539052Y-71771812D01*
X138545730Y-71763965D01*
X138670003Y-71591020D01*
X138675313Y-71582183D01*
X138769670Y-71391267D01*
X138773469Y-71381672D01*
X138835377Y-71177910D01*
X138837555Y-71167837D01*
X138838986Y-71156962D01*
X138836775Y-71142778D01*
X138823617Y-71139000D01*
X137377000Y-71139000D01*
X137308879Y-71118998D01*
X137262386Y-71065342D01*
X137251000Y-71013000D01*
X137251000Y-70612885D01*
X137759000Y-70612885D01*
X137763475Y-70628124D01*
X137764865Y-70629329D01*
X137772548Y-70631000D01*
X138823344Y-70631000D01*
X138836875Y-70627027D01*
X138838180Y-70617947D01*
X138796214Y-70450875D01*
X138792894Y-70441124D01*
X138707972Y-70245814D01*
X138703105Y-70236739D01*
X138587426Y-70057926D01*
X138581136Y-70049757D01*
X138437806Y-69892240D01*
X138430273Y-69885215D01*
X138263139Y-69753222D01*
X138254552Y-69747517D01*
X138068117Y-69644599D01*
X138058705Y-69640369D01*
X137857959Y-69569280D01*
X137847988Y-69566646D01*
X137776837Y-69553972D01*
X137763540Y-69555432D01*
X137759000Y-69569989D01*
X137759000Y-70612885D01*
X137251000Y-70612885D01*
X137251000Y-69568102D01*
X137247082Y-69554758D01*
X137232806Y-69552771D01*
X137194324Y-69558660D01*
X137184288Y-69561051D01*
X136981868Y-69627212D01*
X136972359Y-69631209D01*
X136783463Y-69729542D01*
X136774738Y-69735036D01*
X136604433Y-69862905D01*
X136596726Y-69869748D01*
X136449590Y-70023717D01*
X136443109Y-70031722D01*
X136338498Y-70185074D01*
X136283587Y-70230076D01*
X136213062Y-70238247D01*
X136149315Y-70206993D01*
X136128618Y-70182509D01*
X136047822Y-70057617D01*
X136047820Y-70057614D01*
X136045014Y-70053277D01*
X135894670Y-69888051D01*
X135890619Y-69884852D01*
X135890615Y-69884848D01*
X135723414Y-69752800D01*
X135723410Y-69752798D01*
X135719359Y-69749598D01*
X135683028Y-69729542D01*
X135667136Y-69720769D01*
X135523789Y-69641638D01*
X135518920Y-69639914D01*
X135518916Y-69639912D01*
X135318087Y-69568795D01*
X135318083Y-69568794D01*
X135313212Y-69567069D01*
X135308119Y-69566162D01*
X135308116Y-69566161D01*
X135098373Y-69528800D01*
X135098367Y-69528799D01*
X135093284Y-69527894D01*
X135019452Y-69526992D01*
X134875081Y-69525228D01*
X134875079Y-69525228D01*
X134869911Y-69525165D01*
X134649091Y-69558955D01*
X134436756Y-69628357D01*
X134238607Y-69731507D01*
X134234474Y-69734610D01*
X134234471Y-69734612D01*
X134210247Y-69752800D01*
X134059965Y-69865635D01*
X133905629Y-70027138D01*
X133798201Y-70184621D01*
X133743293Y-70229621D01*
X133672768Y-70237792D01*
X133609021Y-70206538D01*
X133588324Y-70182054D01*
X133507822Y-70057617D01*
X133507820Y-70057614D01*
X133505014Y-70053277D01*
X133354670Y-69888051D01*
X133350619Y-69884852D01*
X133350615Y-69884848D01*
X133183414Y-69752800D01*
X133183410Y-69752798D01*
X133179359Y-69749598D01*
X133143028Y-69729542D01*
X133127136Y-69720769D01*
X132983789Y-69641638D01*
X132978920Y-69639914D01*
X132978916Y-69639912D01*
X132778087Y-69568795D01*
X132778083Y-69568794D01*
X132773212Y-69567069D01*
X132768119Y-69566162D01*
X132768116Y-69566161D01*
X132558373Y-69528800D01*
X132558367Y-69528799D01*
X132553284Y-69527894D01*
X132479452Y-69526992D01*
X132335081Y-69525228D01*
X132335079Y-69525228D01*
X132329911Y-69525165D01*
X132109091Y-69558955D01*
X132096532Y-69563060D01*
X132025568Y-69565210D01*
X131968294Y-69532389D01*
X127902401Y-65466496D01*
X127868375Y-65404184D01*
X127873440Y-65333369D01*
X127915987Y-65276533D01*
X127982507Y-65251722D01*
X127991412Y-65251401D01*
X146156533Y-65240785D01*
X160143571Y-65232610D01*
X160163031Y-65234110D01*
G37*
%TD.AperFunction*%
%TA.AperFunction,Conductor*%
G36*
X149868031Y-90348441D02*
G01*
X149914881Y-90382282D01*
X150046250Y-90533938D01*
X150218126Y-90676632D01*
X150267706Y-90705604D01*
X150291445Y-90719476D01*
X150340169Y-90771114D01*
X150353240Y-90840897D01*
X150326509Y-90906669D01*
X150286055Y-90940027D01*
X150273607Y-90946507D01*
X150269474Y-90949610D01*
X150269471Y-90949612D01*
X150103176Y-91074470D01*
X150094965Y-91080635D01*
X149940629Y-91242138D01*
X149937720Y-91246403D01*
X149937714Y-91246411D01*
X149913023Y-91282607D01*
X149814743Y-91426680D01*
X149720688Y-91629305D01*
X149660989Y-91844570D01*
X149637251Y-92066695D01*
X149637548Y-92071848D01*
X149637548Y-92071851D01*
X149643011Y-92166590D01*
X149650110Y-92289715D01*
X149651247Y-92294761D01*
X149651248Y-92294767D01*
X149661530Y-92340388D01*
X149699222Y-92507639D01*
X149737461Y-92601811D01*
X149773254Y-92689958D01*
X149783266Y-92714616D01*
X149823265Y-92779889D01*
X149897291Y-92900688D01*
X149899987Y-92905088D01*
X150046250Y-93073938D01*
X150218126Y-93216632D01*
X150234861Y-93226411D01*
X150291445Y-93259476D01*
X150340169Y-93311114D01*
X150353240Y-93380897D01*
X150326509Y-93446669D01*
X150286055Y-93480027D01*
X150273607Y-93486507D01*
X150269474Y-93489610D01*
X150269471Y-93489612D01*
X150245247Y-93507800D01*
X150094965Y-93620635D01*
X149940629Y-93782138D01*
X149937720Y-93786403D01*
X149937714Y-93786411D01*
X149911684Y-93824570D01*
X149814743Y-93966680D01*
X149775573Y-94051064D01*
X149729692Y-94149908D01*
X149720688Y-94169305D01*
X149660989Y-94384570D01*
X149637251Y-94606695D01*
X149637548Y-94611848D01*
X149637548Y-94611851D01*
X149642935Y-94705270D01*
X149650110Y-94829715D01*
X149651247Y-94834761D01*
X149651248Y-94834767D01*
X149662213Y-94883419D01*
X149699222Y-95047639D01*
X149737461Y-95141811D01*
X149780949Y-95248909D01*
X149783266Y-95254616D01*
X149823246Y-95319858D01*
X149897291Y-95440688D01*
X149899987Y-95445088D01*
X150046250Y-95613938D01*
X150218126Y-95756632D01*
X150247261Y-95773657D01*
X150291445Y-95799476D01*
X150340169Y-95851114D01*
X150353240Y-95920897D01*
X150326509Y-95986669D01*
X150286055Y-96020027D01*
X150273607Y-96026507D01*
X150269474Y-96029610D01*
X150269471Y-96029612D01*
X150110055Y-96149305D01*
X150094965Y-96160635D01*
X149940629Y-96322138D01*
X149937720Y-96326403D01*
X149937714Y-96326411D01*
X149919838Y-96352617D01*
X149814743Y-96506680D01*
X149775208Y-96591851D01*
X149729692Y-96689908D01*
X149720688Y-96709305D01*
X149660989Y-96924570D01*
X149637251Y-97146695D01*
X149637548Y-97151848D01*
X149637548Y-97151851D01*
X149643011Y-97246590D01*
X149650110Y-97369715D01*
X149651247Y-97374761D01*
X149651248Y-97374767D01*
X149662589Y-97425088D01*
X149699222Y-97587639D01*
X149737461Y-97681811D01*
X149780536Y-97787892D01*
X149783266Y-97794616D01*
X149834019Y-97877438D01*
X149897291Y-97980688D01*
X149899987Y-97985088D01*
X150046250Y-98153938D01*
X150218126Y-98296632D01*
X150288595Y-98337811D01*
X150291445Y-98339476D01*
X150340169Y-98391114D01*
X150353240Y-98460897D01*
X150326509Y-98526669D01*
X150286055Y-98560027D01*
X150273607Y-98566507D01*
X150269474Y-98569610D01*
X150269471Y-98569612D01*
X150099100Y-98697530D01*
X150094965Y-98700635D01*
X149940629Y-98862138D01*
X149937720Y-98866403D01*
X149937714Y-98866411D01*
X149919838Y-98892617D01*
X149814743Y-99046680D01*
X149720688Y-99249305D01*
X149660989Y-99464570D01*
X149660889Y-99465509D01*
X149629033Y-99527579D01*
X149567614Y-99563190D01*
X149496691Y-99559943D01*
X149448588Y-99529892D01*
X147907687Y-97988990D01*
X146261444Y-96342747D01*
X146253904Y-96334461D01*
X146249792Y-96327982D01*
X146200140Y-96281356D01*
X146197299Y-96278602D01*
X146177562Y-96258865D01*
X146174365Y-96256385D01*
X146165343Y-96248680D01*
X146138892Y-96223841D01*
X146133113Y-96218414D01*
X146126167Y-96214595D01*
X146126164Y-96214593D01*
X146115358Y-96208652D01*
X146098839Y-96197801D01*
X146098292Y-96197377D01*
X146082833Y-96185386D01*
X146075564Y-96182241D01*
X146075560Y-96182238D01*
X146042255Y-96167826D01*
X146031605Y-96162609D01*
X145992852Y-96141305D01*
X145973229Y-96136267D01*
X145954526Y-96129863D01*
X145943212Y-96124967D01*
X145943211Y-96124967D01*
X145935937Y-96121819D01*
X145928108Y-96120579D01*
X145928105Y-96120578D01*
X145924938Y-96120076D01*
X145922658Y-96118995D01*
X145920493Y-96118366D01*
X145920594Y-96118017D01*
X145860786Y-96089661D01*
X145823261Y-96029392D01*
X145824277Y-95958403D01*
X145827501Y-95949244D01*
X145861666Y-95862953D01*
X145865619Y-95847388D01*
X145875044Y-95769498D01*
X145875500Y-95761943D01*
X145875500Y-95737115D01*
X145871025Y-95721876D01*
X145869635Y-95720671D01*
X145861952Y-95719000D01*
X144289500Y-95719000D01*
X144221379Y-95698998D01*
X144174886Y-95645342D01*
X144163500Y-95593000D01*
X144163500Y-95337000D01*
X144183502Y-95268879D01*
X144237158Y-95222386D01*
X144289500Y-95211000D01*
X145857385Y-95211000D01*
X145872624Y-95206525D01*
X145873829Y-95205135D01*
X145875500Y-95197452D01*
X145875500Y-95168057D01*
X145875044Y-95160502D01*
X145865619Y-95082612D01*
X145861666Y-95067047D01*
X145812335Y-94942451D01*
X145803978Y-94927620D01*
X145723257Y-94821275D01*
X145711227Y-94809245D01*
X145649495Y-94762388D01*
X145607328Y-94705270D01*
X145602735Y-94634422D01*
X145636579Y-94572930D01*
X149492253Y-90717256D01*
X149500539Y-90709716D01*
X149507018Y-90705604D01*
X149553644Y-90655952D01*
X149556398Y-90653111D01*
X149576135Y-90633374D01*
X149578615Y-90630177D01*
X149586320Y-90621155D01*
X149611159Y-90594704D01*
X149616586Y-90588925D01*
X149620405Y-90581979D01*
X149620407Y-90581976D01*
X149626348Y-90571170D01*
X149637199Y-90554651D01*
X149644758Y-90544905D01*
X149649614Y-90538645D01*
X149652759Y-90531376D01*
X149652762Y-90531372D01*
X149667174Y-90498067D01*
X149672391Y-90487417D01*
X149693695Y-90448664D01*
X149697604Y-90433441D01*
X149733920Y-90372437D01*
X149797453Y-90340750D01*
X149868031Y-90348441D01*
G37*
%TD.AperFunction*%
%TA.AperFunction,Conductor*%
G36*
X154967030Y-83833198D02*
G01*
X155018427Y-83864331D01*
X158580501Y-87426405D01*
X158614527Y-87488717D01*
X158609462Y-87559532D01*
X158566915Y-87616368D01*
X158500395Y-87641179D01*
X158491406Y-87641500D01*
X157507219Y-87641500D01*
X157439098Y-87621498D01*
X157392605Y-87567842D01*
X157381281Y-87519457D01*
X157380922Y-87508029D01*
X157380673Y-87500110D01*
X157375022Y-87480658D01*
X157371014Y-87461306D01*
X157369467Y-87449063D01*
X157368474Y-87441203D01*
X157365556Y-87433832D01*
X157352200Y-87400097D01*
X157348355Y-87388870D01*
X157347721Y-87386687D01*
X157336018Y-87346407D01*
X157325707Y-87328972D01*
X157317012Y-87311224D01*
X157309552Y-87292383D01*
X157303340Y-87283832D01*
X157283564Y-87256613D01*
X157277048Y-87246693D01*
X157258580Y-87215465D01*
X157258578Y-87215462D01*
X157254542Y-87208638D01*
X157240221Y-87194317D01*
X157227380Y-87179283D01*
X157220131Y-87169306D01*
X157215472Y-87162893D01*
X157181395Y-87134702D01*
X157172616Y-87126712D01*
X155403652Y-85357747D01*
X155396112Y-85349461D01*
X155392000Y-85342982D01*
X155342348Y-85296356D01*
X155339507Y-85293602D01*
X155319770Y-85273865D01*
X155316573Y-85271385D01*
X155307551Y-85263680D01*
X155281100Y-85238841D01*
X155275321Y-85233414D01*
X155268375Y-85229595D01*
X155268372Y-85229593D01*
X155257566Y-85223652D01*
X155241047Y-85212801D01*
X155240583Y-85212441D01*
X155225041Y-85200386D01*
X155217772Y-85197241D01*
X155217768Y-85197238D01*
X155184463Y-85182826D01*
X155173813Y-85177609D01*
X155135060Y-85156305D01*
X155115437Y-85151267D01*
X155096734Y-85144863D01*
X155085420Y-85139967D01*
X155085419Y-85139967D01*
X155078145Y-85136819D01*
X155070322Y-85135580D01*
X155070312Y-85135577D01*
X155034476Y-85129901D01*
X155022856Y-85127495D01*
X154987711Y-85118472D01*
X154987710Y-85118472D01*
X154980030Y-85116500D01*
X154959776Y-85116500D01*
X154940065Y-85114949D01*
X154920057Y-85111780D01*
X154920485Y-85109080D01*
X154865518Y-85091042D01*
X154820738Y-85035948D01*
X154812853Y-84965391D01*
X154816386Y-84950613D01*
X154870377Y-84772910D01*
X154872555Y-84762837D01*
X154873986Y-84751962D01*
X154871775Y-84737778D01*
X154858617Y-84734000D01*
X153412000Y-84734000D01*
X153343879Y-84713998D01*
X153297386Y-84660342D01*
X153286000Y-84608000D01*
X153286000Y-84352000D01*
X153306002Y-84283879D01*
X153359658Y-84237386D01*
X153412000Y-84226000D01*
X154858344Y-84226000D01*
X154871875Y-84222027D01*
X154873180Y-84212947D01*
X154831214Y-84045875D01*
X154827892Y-84036118D01*
X154813783Y-84003669D01*
X154804962Y-83933222D01*
X154835629Y-83869190D01*
X154896045Y-83831902D01*
X154967030Y-83833198D01*
G37*
%TD.AperFunction*%
%TA.AperFunction,Conductor*%
G36*
X152352026Y-82615144D02*
G01*
X152379875Y-82646994D01*
X152439987Y-82745088D01*
X152586250Y-82913938D01*
X152758126Y-83056632D01*
X152788137Y-83074169D01*
X152831955Y-83099774D01*
X152880679Y-83151412D01*
X152893750Y-83221195D01*
X152867019Y-83286967D01*
X152826562Y-83320327D01*
X152818457Y-83324546D01*
X152809738Y-83330036D01*
X152639433Y-83457905D01*
X152631726Y-83464748D01*
X152484590Y-83618717D01*
X152478109Y-83626722D01*
X152373498Y-83780074D01*
X152318587Y-83825076D01*
X152248062Y-83833247D01*
X152184315Y-83801993D01*
X152163618Y-83777509D01*
X152082822Y-83652617D01*
X152082820Y-83652614D01*
X152080014Y-83648277D01*
X151929670Y-83483051D01*
X151925619Y-83479852D01*
X151925615Y-83479848D01*
X151758414Y-83347800D01*
X151758410Y-83347798D01*
X151754359Y-83344598D01*
X151713053Y-83321796D01*
X151663084Y-83271364D01*
X151648312Y-83201921D01*
X151673428Y-83135516D01*
X151700780Y-83108909D01*
X151763336Y-83064288D01*
X151879860Y-82981173D01*
X152038096Y-82823489D01*
X152049016Y-82808293D01*
X152168453Y-82642077D01*
X152169776Y-82643028D01*
X152216645Y-82599857D01*
X152286580Y-82587625D01*
X152352026Y-82615144D01*
G37*
%TD.AperFunction*%
%TA.AperFunction,Conductor*%
G36*
X149942012Y-82795567D02*
G01*
X149954737Y-82808293D01*
X150042865Y-82910031D01*
X150042869Y-82910035D01*
X150046250Y-82913938D01*
X150218126Y-83056632D01*
X150248137Y-83074169D01*
X150291445Y-83099476D01*
X150340169Y-83151114D01*
X150353240Y-83220897D01*
X150326509Y-83286669D01*
X150286055Y-83320027D01*
X150273607Y-83326507D01*
X150269474Y-83329610D01*
X150269471Y-83329612D01*
X150099100Y-83457530D01*
X150094965Y-83460635D01*
X150091393Y-83464373D01*
X149950594Y-83611710D01*
X149889069Y-83647140D01*
X149818157Y-83643683D01*
X149760371Y-83602437D01*
X149734057Y-83536496D01*
X149733500Y-83524659D01*
X149733500Y-82890791D01*
X149753502Y-82822670D01*
X149807158Y-82776177D01*
X149877432Y-82766073D01*
X149942012Y-82795567D01*
G37*
%TD.AperFunction*%
%TA.AperFunction,Conductor*%
G36*
X93691510Y-73037893D02*
G01*
X93698287Y-73044191D01*
X93704595Y-73050499D01*
X93738621Y-73112811D01*
X93741500Y-73139594D01*
X93741500Y-74448134D01*
X93748255Y-74510316D01*
X93799385Y-74646705D01*
X93886739Y-74763261D01*
X94003295Y-74850615D01*
X94011704Y-74853767D01*
X94011705Y-74853768D01*
X94120960Y-74894726D01*
X94177725Y-74937367D01*
X94202425Y-75003929D01*
X94187218Y-75073278D01*
X94167825Y-75099759D01*
X94044590Y-75228717D01*
X94038104Y-75236727D01*
X93918098Y-75412649D01*
X93913000Y-75421623D01*
X93823338Y-75614783D01*
X93819775Y-75624470D01*
X93764389Y-75824183D01*
X93765912Y-75832607D01*
X93778292Y-75836000D01*
X95228000Y-75836000D01*
X95296121Y-75856002D01*
X95342614Y-75909658D01*
X95354000Y-75962000D01*
X95354000Y-76218000D01*
X95333998Y-76286121D01*
X95280342Y-76332614D01*
X95228000Y-76344000D01*
X93783225Y-76344000D01*
X93769694Y-76347973D01*
X93768257Y-76357966D01*
X93798565Y-76492446D01*
X93801645Y-76502275D01*
X93881770Y-76699603D01*
X93886413Y-76708794D01*
X93997694Y-76890388D01*
X94003777Y-76898699D01*
X94143213Y-77059667D01*
X94150580Y-77066883D01*
X94314434Y-77202916D01*
X94322881Y-77208831D01*
X94391969Y-77249203D01*
X94440693Y-77300842D01*
X94453764Y-77370625D01*
X94427033Y-77436396D01*
X94386584Y-77469752D01*
X94373607Y-77476507D01*
X94369474Y-77479610D01*
X94369471Y-77479612D01*
X94199100Y-77607530D01*
X94194965Y-77610635D01*
X94040629Y-77772138D01*
X93914743Y-77956680D01*
X93870948Y-78051029D01*
X93828091Y-78143357D01*
X93820688Y-78159305D01*
X93760989Y-78374570D01*
X93760440Y-78379704D01*
X93760440Y-78379706D01*
X93745451Y-78519966D01*
X93718323Y-78585576D01*
X93660031Y-78626104D01*
X93589081Y-78628683D01*
X93528000Y-78592494D01*
X93496180Y-78529028D01*
X93494164Y-78506834D01*
X93483192Y-73133543D01*
X93503055Y-73065382D01*
X93556616Y-73018779D01*
X93626869Y-73008532D01*
X93691510Y-73037893D01*
G37*
%TD.AperFunction*%
%TD*%
M02*
