%TF.GenerationSoftware,KiCad,Pcbnew,(6.0.4)*%
%TF.CreationDate,2022-10-02T20:23:54-04:00*%
%TF.ProjectId,NANO_HAT,4e414e4f-5f48-4415-942e-6b696361645f,rev?*%
%TF.SameCoordinates,Original*%
%TF.FileFunction,Legend,Bot*%
%TF.FilePolarity,Positive*%
%FSLAX46Y46*%
G04 Gerber Fmt 4.6, Leading zero omitted, Abs format (unit mm)*
G04 Created by KiCad (PCBNEW (6.0.4)) date 2022-10-02 20:23:54*
%MOMM*%
%LPD*%
G01*
G04 APERTURE LIST*
%ADD10C,0.100000*%
%ADD11C,0.150000*%
%ADD12C,0.120000*%
%ADD13C,0.127000*%
%ADD14C,0.200000*%
G04 APERTURE END LIST*
D10*
G36*
X158634000Y-101824000D02*
G01*
X157618000Y-100300000D01*
X159650000Y-100300000D01*
X158634000Y-101824000D01*
G37*
X158634000Y-101824000D02*
X157618000Y-100300000D01*
X159650000Y-100300000D01*
X158634000Y-101824000D01*
G36*
X165634000Y-101824000D02*
G01*
X164618000Y-100300000D01*
X166650000Y-100300000D01*
X165634000Y-101824000D01*
G37*
X165634000Y-101824000D02*
X164618000Y-100300000D01*
X166650000Y-100300000D01*
X165634000Y-101824000D01*
D11*
%TO.C,R1*%
X159582380Y-85918333D02*
X159106190Y-85585000D01*
X159582380Y-85346904D02*
X158582380Y-85346904D01*
X158582380Y-85727857D01*
X158630000Y-85823095D01*
X158677619Y-85870714D01*
X158772857Y-85918333D01*
X158915714Y-85918333D01*
X159010952Y-85870714D01*
X159058571Y-85823095D01*
X159106190Y-85727857D01*
X159106190Y-85346904D01*
X159582380Y-86870714D02*
X159582380Y-86299285D01*
X159582380Y-86585000D02*
X158582380Y-86585000D01*
X158725238Y-86489761D01*
X158820476Y-86394523D01*
X158868095Y-86299285D01*
%TO.C,R2*%
X165982380Y-86233333D02*
X165506190Y-85900000D01*
X165982380Y-85661904D02*
X164982380Y-85661904D01*
X164982380Y-86042857D01*
X165030000Y-86138095D01*
X165077619Y-86185714D01*
X165172857Y-86233333D01*
X165315714Y-86233333D01*
X165410952Y-86185714D01*
X165458571Y-86138095D01*
X165506190Y-86042857D01*
X165506190Y-85661904D01*
X165077619Y-86614285D02*
X165030000Y-86661904D01*
X164982380Y-86757142D01*
X164982380Y-86995238D01*
X165030000Y-87090476D01*
X165077619Y-87138095D01*
X165172857Y-87185714D01*
X165268095Y-87185714D01*
X165410952Y-87138095D01*
X165982380Y-86566666D01*
X165982380Y-87185714D01*
%TO.C,C2*%
X157827142Y-82233333D02*
X157874761Y-82185714D01*
X157922380Y-82042857D01*
X157922380Y-81947619D01*
X157874761Y-81804761D01*
X157779523Y-81709523D01*
X157684285Y-81661904D01*
X157493809Y-81614285D01*
X157350952Y-81614285D01*
X157160476Y-81661904D01*
X157065238Y-81709523D01*
X156970000Y-81804761D01*
X156922380Y-81947619D01*
X156922380Y-82042857D01*
X156970000Y-82185714D01*
X157017619Y-82233333D01*
X157017619Y-82614285D02*
X156970000Y-82661904D01*
X156922380Y-82757142D01*
X156922380Y-82995238D01*
X156970000Y-83090476D01*
X157017619Y-83138095D01*
X157112857Y-83185714D01*
X157208095Y-83185714D01*
X157350952Y-83138095D01*
X157922380Y-82566666D01*
X157922380Y-83185714D01*
%TO.C,C1*%
X164727142Y-82233333D02*
X164774761Y-82185714D01*
X164822380Y-82042857D01*
X164822380Y-81947619D01*
X164774761Y-81804761D01*
X164679523Y-81709523D01*
X164584285Y-81661904D01*
X164393809Y-81614285D01*
X164250952Y-81614285D01*
X164060476Y-81661904D01*
X163965238Y-81709523D01*
X163870000Y-81804761D01*
X163822380Y-81947619D01*
X163822380Y-82042857D01*
X163870000Y-82185714D01*
X163917619Y-82233333D01*
X164822380Y-83185714D02*
X164822380Y-82614285D01*
X164822380Y-82900000D02*
X163822380Y-82900000D01*
X163965238Y-82804761D01*
X164060476Y-82709523D01*
X164108095Y-82614285D01*
%TO.C,D2*%
X161767380Y-100171904D02*
X160767380Y-100171904D01*
X160767380Y-100410000D01*
X160815000Y-100552857D01*
X160910238Y-100648095D01*
X161005476Y-100695714D01*
X161195952Y-100743333D01*
X161338809Y-100743333D01*
X161529285Y-100695714D01*
X161624523Y-100648095D01*
X161719761Y-100552857D01*
X161767380Y-100410000D01*
X161767380Y-100171904D01*
X160862619Y-101124285D02*
X160815000Y-101171904D01*
X160767380Y-101267142D01*
X160767380Y-101505238D01*
X160815000Y-101600476D01*
X160862619Y-101648095D01*
X160957857Y-101695714D01*
X161053095Y-101695714D01*
X161195952Y-101648095D01*
X161767380Y-101076666D01*
X161767380Y-101695714D01*
%TO.C,U1*%
X158385380Y-91368095D02*
X159194904Y-91368095D01*
X159290142Y-91415714D01*
X159337761Y-91463333D01*
X159385380Y-91558571D01*
X159385380Y-91749047D01*
X159337761Y-91844285D01*
X159290142Y-91891904D01*
X159194904Y-91939523D01*
X158385380Y-91939523D01*
X159385380Y-92939523D02*
X159385380Y-92368095D01*
X159385380Y-92653809D02*
X158385380Y-92653809D01*
X158528238Y-92558571D01*
X158623476Y-92463333D01*
X158671095Y-92368095D01*
%TO.C,D1*%
X168767380Y-100146904D02*
X167767380Y-100146904D01*
X167767380Y-100385000D01*
X167815000Y-100527857D01*
X167910238Y-100623095D01*
X168005476Y-100670714D01*
X168195952Y-100718333D01*
X168338809Y-100718333D01*
X168529285Y-100670714D01*
X168624523Y-100623095D01*
X168719761Y-100527857D01*
X168767380Y-100385000D01*
X168767380Y-100146904D01*
X168767380Y-101670714D02*
X168767380Y-101099285D01*
X168767380Y-101385000D02*
X167767380Y-101385000D01*
X167910238Y-101289761D01*
X168005476Y-101194523D01*
X168053095Y-101099285D01*
%TO.C,VR1*%
X166452380Y-75222976D02*
X167452380Y-75556309D01*
X166452380Y-75889642D01*
X167452380Y-76794404D02*
X166976190Y-76461071D01*
X167452380Y-76222976D02*
X166452380Y-76222976D01*
X166452380Y-76603928D01*
X166500000Y-76699166D01*
X166547619Y-76746785D01*
X166642857Y-76794404D01*
X166785714Y-76794404D01*
X166880952Y-76746785D01*
X166928571Y-76699166D01*
X166976190Y-76603928D01*
X166976190Y-76222976D01*
X167452380Y-77746785D02*
X167452380Y-77175357D01*
X167452380Y-77461071D02*
X166452380Y-77461071D01*
X166595238Y-77365833D01*
X166690476Y-77270595D01*
X166738095Y-77175357D01*
D12*
%TO.C,R1*%
X161800000Y-85857936D02*
X161800000Y-86312064D01*
X160330000Y-85857936D02*
X160330000Y-86312064D01*
%TO.C,R2*%
X164400000Y-85857936D02*
X164400000Y-86312064D01*
X162930000Y-85857936D02*
X162930000Y-86312064D01*
%TO.C,C2*%
X158390000Y-82253733D02*
X158390000Y-82546267D01*
X159410000Y-82253733D02*
X159410000Y-82546267D01*
%TO.C,C1*%
X165290000Y-82253733D02*
X165290000Y-82546267D01*
X166310000Y-82253733D02*
X166310000Y-82546267D01*
%TO.C,D2*%
X156705000Y-104045000D02*
X156705000Y-98660000D01*
X160625000Y-104045000D02*
X156705000Y-104045000D01*
X160625000Y-98660000D02*
X160625000Y-104045000D01*
D13*
%TO.C,U1*%
X164785000Y-90535000D02*
X164785000Y-94435000D01*
X159745000Y-90535000D02*
X159745000Y-94435000D01*
D14*
X159870000Y-88280000D02*
G75*
G03*
X159870000Y-88280000I-100000J0D01*
G01*
D12*
%TO.C,D1*%
X167625000Y-104020000D02*
X163705000Y-104020000D01*
X163705000Y-104020000D02*
X163705000Y-98635000D01*
X167625000Y-98635000D02*
X167625000Y-104020000D01*
D13*
%TO.C,VR1*%
X165635000Y-70259500D02*
X165635000Y-76360500D01*
X165635000Y-76360500D02*
X159095000Y-76360500D01*
X159095000Y-76360500D02*
X159095000Y-70259500D01*
D14*
X164765000Y-80407500D02*
G75*
G03*
X164765000Y-80407500I-100000J0D01*
G01*
%TD*%
M02*
