M48
; DRILL file {KiCad (6.0.4)} date Thu Sep 15 01:44:33 2022
; FORMAT={-:-/ absolute / inch / decimal}
; #@! TF.CreationDate,2022-09-15T01:44:33-04:00
; #@! TF.GenerationSoftware,Kicad,Pcbnew,(6.0.4)
; #@! TF.FileFunction,Plated,1,2,PTH
FMAT,2
INCH
; #@! TA.AperFunction,Plated,PTH,ViaDrill
T1C0.0157
; #@! TA.AperFunction,Plated,PTH,ComponentDrill
T2C0.0354
; #@! TA.AperFunction,Plated,PTH,ComponentDrill
T3C0.0394
%
G90
G05
T1
X6.378Y-2.6378
X6.3819Y-3.8228
X6.6299Y-3.3287
T2
X6.0866Y-2.678
X6.0866Y-2.778
X6.0866Y-2.878
X6.0866Y-2.978
X6.0866Y-3.078
X6.0866Y-3.178
X6.0866Y-3.278
X6.0866Y-3.378
X6.0866Y-3.478
X6.0866Y-3.578
X6.0866Y-3.678
X6.0866Y-3.778
X6.0866Y-3.878
X6.0866Y-3.978
X6.0866Y-4.078
X6.6866Y-2.678
X6.6866Y-2.778
X6.6866Y-2.878
X6.6866Y-2.978
X6.6866Y-3.078
X6.6866Y-3.178
X6.6866Y-3.278
X6.6866Y-3.378
X6.6866Y-3.478
X6.6866Y-3.578
X6.6866Y-3.678
X6.6866Y-3.778
X6.6866Y-3.878
X6.6866Y-3.978
X6.6866Y-4.078
T3
X5.811Y-3.69
X5.811Y-3.79
X5.811Y-4.0207
X5.811Y-4.1207
X5.8189Y-3.1654
X5.8189Y-3.2654
X5.8189Y-3.3654
X5.8189Y-3.4654
X6.2785Y-4.3543
X6.3785Y-4.3543
X6.4785Y-4.3543
X6.9764Y-3.1417
X6.9764Y-3.2417
X6.9764Y-3.3417
X6.9764Y-3.4417
X6.9764Y-3.6904
X6.9764Y-3.7904
X6.9764Y-4.0181
X6.9764Y-4.1181
T0
M30
