%TF.GenerationSoftware,KiCad,Pcbnew,(6.0.4)*%
%TF.CreationDate,2022-10-02T20:23:54-04:00*%
%TF.ProjectId,NANO_HAT,4e414e4f-5f48-4415-942e-6b696361645f,rev?*%
%TF.SameCoordinates,Original*%
%TF.FileFunction,Soldermask,Top*%
%TF.FilePolarity,Negative*%
%FSLAX46Y46*%
G04 Gerber Fmt 4.6, Leading zero omitted, Abs format (unit mm)*
G04 Created by KiCad (PCBNEW (6.0.4)) date 2022-10-02 20:23:54*
%MOMM*%
%LPD*%
G01*
G04 APERTURE LIST*
%ADD10R,1.700000X1.700000*%
%ADD11O,1.700000X1.700000*%
%ADD12C,3.200000*%
%ADD13R,1.800000X1.800000*%
%ADD14C,1.800000*%
G04 APERTURE END LIST*
D10*
%TO.C,J5*%
X176750000Y-93750000D03*
D11*
X176750000Y-96290000D03*
%TD*%
D12*
%TO.C,H1*%
X183200000Y-64200000D03*
%TD*%
D10*
%TO.C,J7*%
X176700000Y-79775000D03*
D11*
X176700000Y-82315000D03*
X176700000Y-84855000D03*
X176700000Y-87395000D03*
%TD*%
D10*
%TO.C,J2*%
X176750000Y-104600000D03*
D11*
X176750000Y-102060000D03*
%TD*%
D13*
%TO.C,TB1*%
X169840000Y-103580000D03*
D14*
X169840000Y-101040000D03*
X169840000Y-98500000D03*
X169840000Y-95960000D03*
X169840000Y-93420000D03*
X169840000Y-90880000D03*
X169840000Y-88340000D03*
X169840000Y-85800000D03*
X169840000Y-83260000D03*
X169840000Y-80720000D03*
X169840000Y-78180000D03*
X169840000Y-75640000D03*
X169840000Y-73100000D03*
X169840000Y-70560000D03*
X169840000Y-68020000D03*
X154600000Y-68020000D03*
X154600000Y-70560000D03*
X154600000Y-73100000D03*
X154600000Y-75640000D03*
X154600000Y-78180000D03*
X154600000Y-80720000D03*
X154600000Y-83260000D03*
X154600000Y-85800000D03*
X154600000Y-88340000D03*
X154600000Y-90880000D03*
X154600000Y-93420000D03*
X154600000Y-95960000D03*
X154600000Y-98500000D03*
X154600000Y-101040000D03*
X154600000Y-103580000D03*
%TD*%
D10*
%TO.C,J3*%
X147800000Y-93775000D03*
D11*
X147800000Y-96315000D03*
%TD*%
D10*
%TO.C,J4*%
X147800000Y-80400000D03*
D11*
X147800000Y-82940000D03*
X147800000Y-85480000D03*
X147800000Y-88020000D03*
%TD*%
D12*
%TO.C,H3*%
X141600000Y-111800000D03*
%TD*%
D10*
%TO.C,J6*%
X147800000Y-104625000D03*
D11*
X147800000Y-102085000D03*
%TD*%
D12*
%TO.C,H4*%
X183200000Y-111800000D03*
%TD*%
D10*
%TO.C,J1*%
X159475000Y-111000000D03*
D11*
X162015000Y-111000000D03*
X164555000Y-111000000D03*
%TD*%
D12*
%TO.C,H2*%
X141600000Y-64000000D03*
%TD*%
M02*
