M48
; DRILL file {KiCad (6.0.4)} date Sun Oct  2 20:23:56 2022
; FORMAT={-:-/ absolute / inch / decimal}
; #@! TF.CreationDate,2022-10-02T20:23:56-04:00
; #@! TF.GenerationSoftware,Kicad,Pcbnew,(6.0.4)
; #@! TF.FileFunction,Plated,1,2,PTH
FMAT,2
INCH
; #@! TA.AperFunction,Plated,PTH,ViaDrill
T1C0.0157
; #@! TA.AperFunction,Plated,PTH,ComponentDrill
T2C0.0354
; #@! TA.AperFunction,Plated,PTH,ComponentDrill
T3C0.0394
%
G90
G05
T1
X6.1339Y-3.9291
X6.1693Y-3.6772
X6.3937Y-2.6654
T2
X6.0866Y-2.678
X6.0866Y-2.778
X6.0866Y-2.878
X6.0866Y-2.978
X6.0866Y-3.078
X6.0866Y-3.178
X6.0866Y-3.278
X6.0866Y-3.378
X6.0866Y-3.478
X6.0866Y-3.578
X6.0866Y-3.678
X6.0866Y-3.778
X6.0866Y-3.878
X6.0866Y-3.978
X6.0866Y-4.078
X6.6866Y-2.678
X6.6866Y-2.778
X6.6866Y-2.878
X6.6866Y-2.978
X6.6866Y-3.078
X6.6866Y-3.178
X6.6866Y-3.278
X6.6866Y-3.378
X6.6866Y-3.478
X6.6866Y-3.578
X6.6866Y-3.678
X6.6866Y-3.778
X6.6866Y-3.878
X6.6866Y-3.978
X6.6866Y-4.078
T3
X5.8189Y-3.1654
X5.8189Y-3.2654
X5.8189Y-3.3654
X5.8189Y-3.4654
X5.8189Y-3.6919
X5.8189Y-3.7919
X5.8189Y-4.0191
X5.8189Y-4.1191
X6.2785Y-4.3701
X6.3785Y-4.3701
X6.4785Y-4.3701
X6.9567Y-3.1407
X6.9567Y-3.2407
X6.9567Y-3.3407
X6.9567Y-3.4407
X6.9587Y-3.6909
X6.9587Y-3.7909
X6.9587Y-4.0181
X6.9587Y-4.1181
T0
M30
