%TF.GenerationSoftware,KiCad,Pcbnew,(6.0.4)*%
%TF.CreationDate,2022-09-15T01:44:32-04:00*%
%TF.ProjectId,NANO_HAT,4e414e4f-5f48-4415-942e-6b696361645f,rev?*%
%TF.SameCoordinates,Original*%
%TF.FileFunction,Paste,Bot*%
%TF.FilePolarity,Positive*%
%FSLAX46Y46*%
G04 Gerber Fmt 4.6, Leading zero omitted, Abs format (unit mm)*
G04 Created by KiCad (PCBNEW (6.0.4)) date 2022-09-15 01:44:32*
%MOMM*%
%LPD*%
G01*
G04 APERTURE LIST*
G04 Aperture macros list*
%AMRoundRect*
0 Rectangle with rounded corners*
0 $1 Rounding radius*
0 $2 $3 $4 $5 $6 $7 $8 $9 X,Y pos of 4 corners*
0 Add a 4 corners polygon primitive as box body*
4,1,4,$2,$3,$4,$5,$6,$7,$8,$9,$2,$3,0*
0 Add four circle primitives for the rounded corners*
1,1,$1+$1,$2,$3*
1,1,$1+$1,$4,$5*
1,1,$1+$1,$6,$7*
1,1,$1+$1,$8,$9*
0 Add four rect primitives between the rounded corners*
20,1,$1+$1,$2,$3,$4,$5,0*
20,1,$1+$1,$4,$5,$6,$7,0*
20,1,$1+$1,$6,$7,$8,$9,0*
20,1,$1+$1,$8,$9,$2,$3,0*%
G04 Aperture macros list end*
%ADD10C,0.010000*%
%ADD11R,0.960000X1.730000*%
%ADD12RoundRect,0.250000X-0.450000X0.350000X-0.450000X-0.350000X0.450000X-0.350000X0.450000X0.350000X0*%
%ADD13RoundRect,0.250000X1.450000X-0.400000X1.450000X0.400000X-1.450000X0.400000X-1.450000X-0.400000X0*%
%ADD14RoundRect,0.041300X-0.253700X0.748700X-0.253700X-0.748700X0.253700X-0.748700X0.253700X0.748700X0*%
G04 APERTURE END LIST*
%TO.C,VR1*%
G36*
X161510000Y-74867500D02*
G01*
X159800000Y-74867500D01*
X159800000Y-73437500D01*
X161510000Y-73437500D01*
X161510000Y-74867500D01*
G37*
D10*
X161510000Y-74867500D02*
X159800000Y-74867500D01*
X159800000Y-73437500D01*
X161510000Y-73437500D01*
X161510000Y-74867500D01*
G36*
X164330000Y-74867500D02*
G01*
X162620000Y-74867500D01*
X162620000Y-73437500D01*
X164330000Y-73437500D01*
X164330000Y-74867500D01*
G37*
X164330000Y-74867500D02*
X162620000Y-74867500D01*
X162620000Y-73437500D01*
X164330000Y-73437500D01*
X164330000Y-74867500D01*
G36*
X164330000Y-72697500D02*
G01*
X162620000Y-72697500D01*
X162620000Y-71267500D01*
X164330000Y-71267500D01*
X164330000Y-72697500D01*
G37*
X164330000Y-72697500D02*
X162620000Y-72697500D01*
X162620000Y-71267500D01*
X164330000Y-71267500D01*
X164330000Y-72697500D01*
G36*
X161510000Y-70527500D02*
G01*
X159800000Y-70527500D01*
X159800000Y-69097500D01*
X161510000Y-69097500D01*
X161510000Y-70527500D01*
G37*
X161510000Y-70527500D02*
X159800000Y-70527500D01*
X159800000Y-69097500D01*
X161510000Y-69097500D01*
X161510000Y-70527500D01*
G36*
X164330000Y-70527500D02*
G01*
X162620000Y-70527500D01*
X162620000Y-69097500D01*
X164330000Y-69097500D01*
X164330000Y-70527500D01*
G37*
X164330000Y-70527500D02*
X162620000Y-70527500D01*
X162620000Y-69097500D01*
X164330000Y-69097500D01*
X164330000Y-70527500D01*
G36*
X161510000Y-72697500D02*
G01*
X159800000Y-72697500D01*
X159800000Y-71267500D01*
X161510000Y-71267500D01*
X161510000Y-72697500D01*
G37*
X161510000Y-72697500D02*
X159800000Y-72697500D01*
X159800000Y-71267500D01*
X161510000Y-71267500D01*
X161510000Y-72697500D01*
%TD*%
D11*
%TO.C,VR1*%
X164350000Y-79002500D03*
X159780000Y-79002500D03*
%TD*%
D12*
%TO.C,R1*%
X161065000Y-85085000D03*
X161065000Y-87085000D03*
%TD*%
D13*
%TO.C,D2*%
X158665000Y-103135000D03*
X158665000Y-98685000D03*
%TD*%
D12*
%TO.C,R2*%
X163665000Y-85085000D03*
X163665000Y-87085000D03*
%TD*%
D13*
%TO.C,D1*%
X165665000Y-103110000D03*
X165665000Y-98660000D03*
%TD*%
D14*
%TO.C,U1*%
X160360000Y-89860000D03*
X161630000Y-89860000D03*
X162900000Y-89860000D03*
X164170000Y-89860000D03*
X164170000Y-95110000D03*
X162900000Y-95110000D03*
X161630000Y-95110000D03*
X160360000Y-95110000D03*
%TD*%
M02*
