%TF.GenerationSoftware,KiCad,Pcbnew,7.0.2-0*%
%TF.CreationDate,2024-02-16T15:53:17-05:00*%
%TF.ProjectId,Pi_HAT_V4,50695f48-4154-45f5-9634-2e6b69636164,rev?*%
%TF.SameCoordinates,Original*%
%TF.FileFunction,Legend,Top*%
%TF.FilePolarity,Positive*%
%FSLAX46Y46*%
G04 Gerber Fmt 4.6, Leading zero omitted, Abs format (unit mm)*
G04 Created by KiCad (PCBNEW 7.0.2-0) date 2024-02-16 15:53:17*
%MOMM*%
%LPD*%
G01*
G04 APERTURE LIST*
%ADD10C,0.150000*%
%ADD11C,0.100000*%
%ADD12C,0.250000*%
%ADD13C,0.254000*%
%ADD14C,0.120000*%
%ADD15C,0.127000*%
G04 APERTURE END LIST*
D10*
X138590238Y-109206314D02*
X136590238Y-109206314D01*
X136590238Y-109206314D02*
X138018809Y-108539647D01*
X138018809Y-108539647D02*
X136590238Y-107872981D01*
X136590238Y-107872981D02*
X138590238Y-107872981D01*
X138590238Y-106920600D02*
X136590238Y-106920600D01*
X136590238Y-106920600D02*
X136590238Y-106158695D01*
X136590238Y-106158695D02*
X136685476Y-105968219D01*
X136685476Y-105968219D02*
X136780714Y-105872981D01*
X136780714Y-105872981D02*
X136971190Y-105777743D01*
X136971190Y-105777743D02*
X137256904Y-105777743D01*
X137256904Y-105777743D02*
X137447380Y-105872981D01*
X137447380Y-105872981D02*
X137542619Y-105968219D01*
X137542619Y-105968219D02*
X137637857Y-106158695D01*
X137637857Y-106158695D02*
X137637857Y-106920600D01*
X136590238Y-104920600D02*
X138209285Y-104920600D01*
X138209285Y-104920600D02*
X138399761Y-104825362D01*
X138399761Y-104825362D02*
X138495000Y-104730124D01*
X138495000Y-104730124D02*
X138590238Y-104539648D01*
X138590238Y-104539648D02*
X138590238Y-104158695D01*
X138590238Y-104158695D02*
X138495000Y-103968219D01*
X138495000Y-103968219D02*
X138399761Y-103872981D01*
X138399761Y-103872981D02*
X138209285Y-103777743D01*
X138209285Y-103777743D02*
X136590238Y-103777743D01*
X138590238Y-101206314D02*
X138590238Y-100825362D01*
X138590238Y-100825362D02*
X138495000Y-100634885D01*
X138495000Y-100634885D02*
X138399761Y-100539647D01*
X138399761Y-100539647D02*
X138114047Y-100349171D01*
X138114047Y-100349171D02*
X137733095Y-100253933D01*
X137733095Y-100253933D02*
X136971190Y-100253933D01*
X136971190Y-100253933D02*
X136780714Y-100349171D01*
X136780714Y-100349171D02*
X136685476Y-100444409D01*
X136685476Y-100444409D02*
X136590238Y-100634885D01*
X136590238Y-100634885D02*
X136590238Y-101015838D01*
X136590238Y-101015838D02*
X136685476Y-101206314D01*
X136685476Y-101206314D02*
X136780714Y-101301552D01*
X136780714Y-101301552D02*
X136971190Y-101396790D01*
X136971190Y-101396790D02*
X137447380Y-101396790D01*
X137447380Y-101396790D02*
X137637857Y-101301552D01*
X137637857Y-101301552D02*
X137733095Y-101206314D01*
X137733095Y-101206314D02*
X137828333Y-101015838D01*
X137828333Y-101015838D02*
X137828333Y-100634885D01*
X137828333Y-100634885D02*
X137733095Y-100444409D01*
X137733095Y-100444409D02*
X137637857Y-100349171D01*
X137637857Y-100349171D02*
X137447380Y-100253933D01*
X136780714Y-99492028D02*
X136685476Y-99396790D01*
X136685476Y-99396790D02*
X136590238Y-99206314D01*
X136590238Y-99206314D02*
X136590238Y-98730123D01*
X136590238Y-98730123D02*
X136685476Y-98539647D01*
X136685476Y-98539647D02*
X136780714Y-98444409D01*
X136780714Y-98444409D02*
X136971190Y-98349171D01*
X136971190Y-98349171D02*
X137161666Y-98349171D01*
X137161666Y-98349171D02*
X137447380Y-98444409D01*
X137447380Y-98444409D02*
X138590238Y-99587266D01*
X138590238Y-99587266D02*
X138590238Y-98349171D01*
X136590238Y-96539647D02*
X136590238Y-97492028D01*
X136590238Y-97492028D02*
X137542619Y-97587266D01*
X137542619Y-97587266D02*
X137447380Y-97492028D01*
X137447380Y-97492028D02*
X137352142Y-97301552D01*
X137352142Y-97301552D02*
X137352142Y-96825361D01*
X137352142Y-96825361D02*
X137447380Y-96634885D01*
X137447380Y-96634885D02*
X137542619Y-96539647D01*
X137542619Y-96539647D02*
X137733095Y-96444409D01*
X137733095Y-96444409D02*
X138209285Y-96444409D01*
X138209285Y-96444409D02*
X138399761Y-96539647D01*
X138399761Y-96539647D02*
X138495000Y-96634885D01*
X138495000Y-96634885D02*
X138590238Y-96825361D01*
X138590238Y-96825361D02*
X138590238Y-97301552D01*
X138590238Y-97301552D02*
X138495000Y-97492028D01*
X138495000Y-97492028D02*
X138399761Y-97587266D01*
X136590238Y-95206314D02*
X136590238Y-95015837D01*
X136590238Y-95015837D02*
X136685476Y-94825361D01*
X136685476Y-94825361D02*
X136780714Y-94730123D01*
X136780714Y-94730123D02*
X136971190Y-94634885D01*
X136971190Y-94634885D02*
X137352142Y-94539647D01*
X137352142Y-94539647D02*
X137828333Y-94539647D01*
X137828333Y-94539647D02*
X138209285Y-94634885D01*
X138209285Y-94634885D02*
X138399761Y-94730123D01*
X138399761Y-94730123D02*
X138495000Y-94825361D01*
X138495000Y-94825361D02*
X138590238Y-95015837D01*
X138590238Y-95015837D02*
X138590238Y-95206314D01*
X138590238Y-95206314D02*
X138495000Y-95396790D01*
X138495000Y-95396790D02*
X138399761Y-95492028D01*
X138399761Y-95492028D02*
X138209285Y-95587266D01*
X138209285Y-95587266D02*
X137828333Y-95682504D01*
X137828333Y-95682504D02*
X137352142Y-95682504D01*
X137352142Y-95682504D02*
X136971190Y-95587266D01*
X136971190Y-95587266D02*
X136780714Y-95492028D01*
X136780714Y-95492028D02*
X136685476Y-95396790D01*
X136685476Y-95396790D02*
X136590238Y-95206314D01*
D11*
X136119047Y-72520095D02*
X136614285Y-72520095D01*
X136614285Y-72520095D02*
X136347619Y-72824857D01*
X136347619Y-72824857D02*
X136461904Y-72824857D01*
X136461904Y-72824857D02*
X136538095Y-72862952D01*
X136538095Y-72862952D02*
X136576190Y-72901047D01*
X136576190Y-72901047D02*
X136614285Y-72977238D01*
X136614285Y-72977238D02*
X136614285Y-73167714D01*
X136614285Y-73167714D02*
X136576190Y-73243904D01*
X136576190Y-73243904D02*
X136538095Y-73282000D01*
X136538095Y-73282000D02*
X136461904Y-73320095D01*
X136461904Y-73320095D02*
X136233333Y-73320095D01*
X136233333Y-73320095D02*
X136157142Y-73282000D01*
X136157142Y-73282000D02*
X136119047Y-73243904D01*
X136957143Y-73243904D02*
X136995238Y-73282000D01*
X136995238Y-73282000D02*
X136957143Y-73320095D01*
X136957143Y-73320095D02*
X136919047Y-73282000D01*
X136919047Y-73282000D02*
X136957143Y-73243904D01*
X136957143Y-73243904D02*
X136957143Y-73320095D01*
X137261904Y-72520095D02*
X137757142Y-72520095D01*
X137757142Y-72520095D02*
X137490476Y-72824857D01*
X137490476Y-72824857D02*
X137604761Y-72824857D01*
X137604761Y-72824857D02*
X137680952Y-72862952D01*
X137680952Y-72862952D02*
X137719047Y-72901047D01*
X137719047Y-72901047D02*
X137757142Y-72977238D01*
X137757142Y-72977238D02*
X137757142Y-73167714D01*
X137757142Y-73167714D02*
X137719047Y-73243904D01*
X137719047Y-73243904D02*
X137680952Y-73282000D01*
X137680952Y-73282000D02*
X137604761Y-73320095D01*
X137604761Y-73320095D02*
X137376190Y-73320095D01*
X137376190Y-73320095D02*
X137299999Y-73282000D01*
X137299999Y-73282000D02*
X137261904Y-73243904D01*
X137985714Y-72520095D02*
X138252381Y-73320095D01*
X138252381Y-73320095D02*
X138519047Y-72520095D01*
X137347619Y-65070095D02*
X136966667Y-65070095D01*
X136966667Y-65070095D02*
X136928571Y-65451047D01*
X136928571Y-65451047D02*
X136966667Y-65412952D01*
X136966667Y-65412952D02*
X137042857Y-65374857D01*
X137042857Y-65374857D02*
X137233333Y-65374857D01*
X137233333Y-65374857D02*
X137309524Y-65412952D01*
X137309524Y-65412952D02*
X137347619Y-65451047D01*
X137347619Y-65451047D02*
X137385714Y-65527238D01*
X137385714Y-65527238D02*
X137385714Y-65717714D01*
X137385714Y-65717714D02*
X137347619Y-65793904D01*
X137347619Y-65793904D02*
X137309524Y-65832000D01*
X137309524Y-65832000D02*
X137233333Y-65870095D01*
X137233333Y-65870095D02*
X137042857Y-65870095D01*
X137042857Y-65870095D02*
X136966667Y-65832000D01*
X136966667Y-65832000D02*
X136928571Y-65793904D01*
X137614286Y-65070095D02*
X137880953Y-65870095D01*
X137880953Y-65870095D02*
X138147619Y-65070095D01*
X163882000Y-104552381D02*
X163920095Y-104438095D01*
X163920095Y-104438095D02*
X163920095Y-104247619D01*
X163920095Y-104247619D02*
X163882000Y-104171428D01*
X163882000Y-104171428D02*
X163843904Y-104133333D01*
X163843904Y-104133333D02*
X163767714Y-104095238D01*
X163767714Y-104095238D02*
X163691523Y-104095238D01*
X163691523Y-104095238D02*
X163615333Y-104133333D01*
X163615333Y-104133333D02*
X163577238Y-104171428D01*
X163577238Y-104171428D02*
X163539142Y-104247619D01*
X163539142Y-104247619D02*
X163501047Y-104400000D01*
X163501047Y-104400000D02*
X163462952Y-104476190D01*
X163462952Y-104476190D02*
X163424857Y-104514285D01*
X163424857Y-104514285D02*
X163348666Y-104552381D01*
X163348666Y-104552381D02*
X163272476Y-104552381D01*
X163272476Y-104552381D02*
X163196285Y-104514285D01*
X163196285Y-104514285D02*
X163158190Y-104476190D01*
X163158190Y-104476190D02*
X163120095Y-104400000D01*
X163120095Y-104400000D02*
X163120095Y-104209523D01*
X163120095Y-104209523D02*
X163158190Y-104095238D01*
X163843904Y-103295237D02*
X163882000Y-103333333D01*
X163882000Y-103333333D02*
X163920095Y-103447618D01*
X163920095Y-103447618D02*
X163920095Y-103523809D01*
X163920095Y-103523809D02*
X163882000Y-103638095D01*
X163882000Y-103638095D02*
X163805809Y-103714285D01*
X163805809Y-103714285D02*
X163729619Y-103752380D01*
X163729619Y-103752380D02*
X163577238Y-103790476D01*
X163577238Y-103790476D02*
X163462952Y-103790476D01*
X163462952Y-103790476D02*
X163310571Y-103752380D01*
X163310571Y-103752380D02*
X163234380Y-103714285D01*
X163234380Y-103714285D02*
X163158190Y-103638095D01*
X163158190Y-103638095D02*
X163120095Y-103523809D01*
X163120095Y-103523809D02*
X163120095Y-103447618D01*
X163120095Y-103447618D02*
X163158190Y-103333333D01*
X163158190Y-103333333D02*
X163196285Y-103295237D01*
X163920095Y-102571428D02*
X163920095Y-102952380D01*
X163920095Y-102952380D02*
X163120095Y-102952380D01*
X94041809Y-97540476D02*
X94079904Y-97464286D01*
X94079904Y-97464286D02*
X94079904Y-97350000D01*
X94079904Y-97350000D02*
X94041809Y-97235714D01*
X94041809Y-97235714D02*
X93965619Y-97159524D01*
X93965619Y-97159524D02*
X93889428Y-97121429D01*
X93889428Y-97121429D02*
X93737047Y-97083333D01*
X93737047Y-97083333D02*
X93622761Y-97083333D01*
X93622761Y-97083333D02*
X93470380Y-97121429D01*
X93470380Y-97121429D02*
X93394190Y-97159524D01*
X93394190Y-97159524D02*
X93318000Y-97235714D01*
X93318000Y-97235714D02*
X93279904Y-97350000D01*
X93279904Y-97350000D02*
X93279904Y-97426191D01*
X93279904Y-97426191D02*
X93318000Y-97540476D01*
X93318000Y-97540476D02*
X93356095Y-97578572D01*
X93356095Y-97578572D02*
X93622761Y-97578572D01*
X93622761Y-97578572D02*
X93622761Y-97426191D01*
X93279904Y-97921429D02*
X94079904Y-97921429D01*
X94079904Y-97921429D02*
X93279904Y-98378572D01*
X93279904Y-98378572D02*
X94079904Y-98378572D01*
X93279904Y-98759524D02*
X94079904Y-98759524D01*
X94079904Y-98759524D02*
X94079904Y-98950000D01*
X94079904Y-98950000D02*
X94041809Y-99064286D01*
X94041809Y-99064286D02*
X93965619Y-99140476D01*
X93965619Y-99140476D02*
X93889428Y-99178571D01*
X93889428Y-99178571D02*
X93737047Y-99216667D01*
X93737047Y-99216667D02*
X93622761Y-99216667D01*
X93622761Y-99216667D02*
X93470380Y-99178571D01*
X93470380Y-99178571D02*
X93394190Y-99140476D01*
X93394190Y-99140476D02*
X93318000Y-99064286D01*
X93318000Y-99064286D02*
X93279904Y-98950000D01*
X93279904Y-98950000D02*
X93279904Y-98759524D01*
X163782000Y-102071428D02*
X163820095Y-101957142D01*
X163820095Y-101957142D02*
X163820095Y-101766666D01*
X163820095Y-101766666D02*
X163782000Y-101690475D01*
X163782000Y-101690475D02*
X163743904Y-101652380D01*
X163743904Y-101652380D02*
X163667714Y-101614285D01*
X163667714Y-101614285D02*
X163591523Y-101614285D01*
X163591523Y-101614285D02*
X163515333Y-101652380D01*
X163515333Y-101652380D02*
X163477238Y-101690475D01*
X163477238Y-101690475D02*
X163439142Y-101766666D01*
X163439142Y-101766666D02*
X163401047Y-101919047D01*
X163401047Y-101919047D02*
X163362952Y-101995237D01*
X163362952Y-101995237D02*
X163324857Y-102033332D01*
X163324857Y-102033332D02*
X163248666Y-102071428D01*
X163248666Y-102071428D02*
X163172476Y-102071428D01*
X163172476Y-102071428D02*
X163096285Y-102033332D01*
X163096285Y-102033332D02*
X163058190Y-101995237D01*
X163058190Y-101995237D02*
X163020095Y-101919047D01*
X163020095Y-101919047D02*
X163020095Y-101728570D01*
X163020095Y-101728570D02*
X163058190Y-101614285D01*
X163820095Y-101271427D02*
X163020095Y-101271427D01*
X163020095Y-101271427D02*
X163020095Y-101080951D01*
X163020095Y-101080951D02*
X163058190Y-100966665D01*
X163058190Y-100966665D02*
X163134380Y-100890475D01*
X163134380Y-100890475D02*
X163210571Y-100852380D01*
X163210571Y-100852380D02*
X163362952Y-100814284D01*
X163362952Y-100814284D02*
X163477238Y-100814284D01*
X163477238Y-100814284D02*
X163629619Y-100852380D01*
X163629619Y-100852380D02*
X163705809Y-100890475D01*
X163705809Y-100890475D02*
X163782000Y-100966665D01*
X163782000Y-100966665D02*
X163820095Y-101080951D01*
X163820095Y-101080951D02*
X163820095Y-101271427D01*
X163591523Y-100509523D02*
X163591523Y-100128570D01*
X163820095Y-100585713D02*
X163020095Y-100319046D01*
X163020095Y-100319046D02*
X163820095Y-100052380D01*
X93329904Y-88309524D02*
X94129904Y-88309524D01*
X94129904Y-88309524D02*
X94129904Y-88614286D01*
X94129904Y-88614286D02*
X94091809Y-88690476D01*
X94091809Y-88690476D02*
X94053714Y-88728571D01*
X94053714Y-88728571D02*
X93977523Y-88766667D01*
X93977523Y-88766667D02*
X93863238Y-88766667D01*
X93863238Y-88766667D02*
X93787047Y-88728571D01*
X93787047Y-88728571D02*
X93748952Y-88690476D01*
X93748952Y-88690476D02*
X93710857Y-88614286D01*
X93710857Y-88614286D02*
X93710857Y-88309524D01*
X93368000Y-89071428D02*
X93329904Y-89185714D01*
X93329904Y-89185714D02*
X93329904Y-89376190D01*
X93329904Y-89376190D02*
X93368000Y-89452381D01*
X93368000Y-89452381D02*
X93406095Y-89490476D01*
X93406095Y-89490476D02*
X93482285Y-89528571D01*
X93482285Y-89528571D02*
X93558476Y-89528571D01*
X93558476Y-89528571D02*
X93634666Y-89490476D01*
X93634666Y-89490476D02*
X93672761Y-89452381D01*
X93672761Y-89452381D02*
X93710857Y-89376190D01*
X93710857Y-89376190D02*
X93748952Y-89223809D01*
X93748952Y-89223809D02*
X93787047Y-89147619D01*
X93787047Y-89147619D02*
X93825142Y-89109524D01*
X93825142Y-89109524D02*
X93901333Y-89071428D01*
X93901333Y-89071428D02*
X93977523Y-89071428D01*
X93977523Y-89071428D02*
X94053714Y-89109524D01*
X94053714Y-89109524D02*
X94091809Y-89147619D01*
X94091809Y-89147619D02*
X94129904Y-89223809D01*
X94129904Y-89223809D02*
X94129904Y-89414286D01*
X94129904Y-89414286D02*
X94091809Y-89528571D01*
X94091809Y-85690476D02*
X94129904Y-85614286D01*
X94129904Y-85614286D02*
X94129904Y-85500000D01*
X94129904Y-85500000D02*
X94091809Y-85385714D01*
X94091809Y-85385714D02*
X94015619Y-85309524D01*
X94015619Y-85309524D02*
X93939428Y-85271429D01*
X93939428Y-85271429D02*
X93787047Y-85233333D01*
X93787047Y-85233333D02*
X93672761Y-85233333D01*
X93672761Y-85233333D02*
X93520380Y-85271429D01*
X93520380Y-85271429D02*
X93444190Y-85309524D01*
X93444190Y-85309524D02*
X93368000Y-85385714D01*
X93368000Y-85385714D02*
X93329904Y-85500000D01*
X93329904Y-85500000D02*
X93329904Y-85576191D01*
X93329904Y-85576191D02*
X93368000Y-85690476D01*
X93368000Y-85690476D02*
X93406095Y-85728572D01*
X93406095Y-85728572D02*
X93672761Y-85728572D01*
X93672761Y-85728572D02*
X93672761Y-85576191D01*
X93329904Y-86071429D02*
X94129904Y-86071429D01*
X94129904Y-86071429D02*
X93329904Y-86528572D01*
X93329904Y-86528572D02*
X94129904Y-86528572D01*
X93329904Y-86909524D02*
X94129904Y-86909524D01*
X94129904Y-86909524D02*
X94129904Y-87100000D01*
X94129904Y-87100000D02*
X94091809Y-87214286D01*
X94091809Y-87214286D02*
X94015619Y-87290476D01*
X94015619Y-87290476D02*
X93939428Y-87328571D01*
X93939428Y-87328571D02*
X93787047Y-87366667D01*
X93787047Y-87366667D02*
X93672761Y-87366667D01*
X93672761Y-87366667D02*
X93520380Y-87328571D01*
X93520380Y-87328571D02*
X93444190Y-87290476D01*
X93444190Y-87290476D02*
X93368000Y-87214286D01*
X93368000Y-87214286D02*
X93329904Y-87100000D01*
X93329904Y-87100000D02*
X93329904Y-86909524D01*
X93279904Y-95254761D02*
X93279904Y-94797618D01*
X93279904Y-95026190D02*
X94079904Y-95026190D01*
X94079904Y-95026190D02*
X93965619Y-94949999D01*
X93965619Y-94949999D02*
X93889428Y-94873809D01*
X93889428Y-94873809D02*
X93851333Y-94797618D01*
X94003714Y-95559523D02*
X94041809Y-95597619D01*
X94041809Y-95597619D02*
X94079904Y-95673809D01*
X94079904Y-95673809D02*
X94079904Y-95864285D01*
X94079904Y-95864285D02*
X94041809Y-95940476D01*
X94041809Y-95940476D02*
X94003714Y-95978571D01*
X94003714Y-95978571D02*
X93927523Y-96016666D01*
X93927523Y-96016666D02*
X93851333Y-96016666D01*
X93851333Y-96016666D02*
X93737047Y-95978571D01*
X93737047Y-95978571D02*
X93279904Y-95521428D01*
X93279904Y-95521428D02*
X93279904Y-96016666D01*
X94079904Y-96245238D02*
X93279904Y-96511905D01*
X93279904Y-96511905D02*
X94079904Y-96778571D01*
X93318000Y-99778571D02*
X93279904Y-99892857D01*
X93279904Y-99892857D02*
X93279904Y-100083333D01*
X93279904Y-100083333D02*
X93318000Y-100159524D01*
X93318000Y-100159524D02*
X93356095Y-100197619D01*
X93356095Y-100197619D02*
X93432285Y-100235714D01*
X93432285Y-100235714D02*
X93508476Y-100235714D01*
X93508476Y-100235714D02*
X93584666Y-100197619D01*
X93584666Y-100197619D02*
X93622761Y-100159524D01*
X93622761Y-100159524D02*
X93660857Y-100083333D01*
X93660857Y-100083333D02*
X93698952Y-99930952D01*
X93698952Y-99930952D02*
X93737047Y-99854762D01*
X93737047Y-99854762D02*
X93775142Y-99816667D01*
X93775142Y-99816667D02*
X93851333Y-99778571D01*
X93851333Y-99778571D02*
X93927523Y-99778571D01*
X93927523Y-99778571D02*
X94003714Y-99816667D01*
X94003714Y-99816667D02*
X94041809Y-99854762D01*
X94041809Y-99854762D02*
X94079904Y-99930952D01*
X94079904Y-99930952D02*
X94079904Y-100121429D01*
X94079904Y-100121429D02*
X94041809Y-100235714D01*
X93279904Y-100578572D02*
X94079904Y-100578572D01*
X94079904Y-100578572D02*
X94079904Y-100769048D01*
X94079904Y-100769048D02*
X94041809Y-100883334D01*
X94041809Y-100883334D02*
X93965619Y-100959524D01*
X93965619Y-100959524D02*
X93889428Y-100997619D01*
X93889428Y-100997619D02*
X93737047Y-101035715D01*
X93737047Y-101035715D02*
X93622761Y-101035715D01*
X93622761Y-101035715D02*
X93470380Y-100997619D01*
X93470380Y-100997619D02*
X93394190Y-100959524D01*
X93394190Y-100959524D02*
X93318000Y-100883334D01*
X93318000Y-100883334D02*
X93279904Y-100769048D01*
X93279904Y-100769048D02*
X93279904Y-100578572D01*
X93508476Y-101340476D02*
X93508476Y-101721429D01*
X93279904Y-101264286D02*
X94079904Y-101530953D01*
X94079904Y-101530953D02*
X93279904Y-101797619D01*
X94129904Y-83747619D02*
X94129904Y-83366667D01*
X94129904Y-83366667D02*
X93748952Y-83328571D01*
X93748952Y-83328571D02*
X93787047Y-83366667D01*
X93787047Y-83366667D02*
X93825142Y-83442857D01*
X93825142Y-83442857D02*
X93825142Y-83633333D01*
X93825142Y-83633333D02*
X93787047Y-83709524D01*
X93787047Y-83709524D02*
X93748952Y-83747619D01*
X93748952Y-83747619D02*
X93672761Y-83785714D01*
X93672761Y-83785714D02*
X93482285Y-83785714D01*
X93482285Y-83785714D02*
X93406095Y-83747619D01*
X93406095Y-83747619D02*
X93368000Y-83709524D01*
X93368000Y-83709524D02*
X93329904Y-83633333D01*
X93329904Y-83633333D02*
X93329904Y-83442857D01*
X93329904Y-83442857D02*
X93368000Y-83366667D01*
X93368000Y-83366667D02*
X93406095Y-83328571D01*
X94129904Y-84014286D02*
X93329904Y-84280953D01*
X93329904Y-84280953D02*
X94129904Y-84547619D01*
X93418000Y-102297618D02*
X93379904Y-102411904D01*
X93379904Y-102411904D02*
X93379904Y-102602380D01*
X93379904Y-102602380D02*
X93418000Y-102678571D01*
X93418000Y-102678571D02*
X93456095Y-102716666D01*
X93456095Y-102716666D02*
X93532285Y-102754761D01*
X93532285Y-102754761D02*
X93608476Y-102754761D01*
X93608476Y-102754761D02*
X93684666Y-102716666D01*
X93684666Y-102716666D02*
X93722761Y-102678571D01*
X93722761Y-102678571D02*
X93760857Y-102602380D01*
X93760857Y-102602380D02*
X93798952Y-102449999D01*
X93798952Y-102449999D02*
X93837047Y-102373809D01*
X93837047Y-102373809D02*
X93875142Y-102335714D01*
X93875142Y-102335714D02*
X93951333Y-102297618D01*
X93951333Y-102297618D02*
X94027523Y-102297618D01*
X94027523Y-102297618D02*
X94103714Y-102335714D01*
X94103714Y-102335714D02*
X94141809Y-102373809D01*
X94141809Y-102373809D02*
X94179904Y-102449999D01*
X94179904Y-102449999D02*
X94179904Y-102640476D01*
X94179904Y-102640476D02*
X94141809Y-102754761D01*
X93456095Y-103554762D02*
X93418000Y-103516666D01*
X93418000Y-103516666D02*
X93379904Y-103402381D01*
X93379904Y-103402381D02*
X93379904Y-103326190D01*
X93379904Y-103326190D02*
X93418000Y-103211904D01*
X93418000Y-103211904D02*
X93494190Y-103135714D01*
X93494190Y-103135714D02*
X93570380Y-103097619D01*
X93570380Y-103097619D02*
X93722761Y-103059523D01*
X93722761Y-103059523D02*
X93837047Y-103059523D01*
X93837047Y-103059523D02*
X93989428Y-103097619D01*
X93989428Y-103097619D02*
X94065619Y-103135714D01*
X94065619Y-103135714D02*
X94141809Y-103211904D01*
X94141809Y-103211904D02*
X94179904Y-103326190D01*
X94179904Y-103326190D02*
X94179904Y-103402381D01*
X94179904Y-103402381D02*
X94141809Y-103516666D01*
X94141809Y-103516666D02*
X94103714Y-103554762D01*
X93379904Y-104278571D02*
X93379904Y-103897619D01*
X93379904Y-103897619D02*
X94179904Y-103897619D01*
X163058190Y-99109523D02*
X163020095Y-99185713D01*
X163020095Y-99185713D02*
X163020095Y-99299999D01*
X163020095Y-99299999D02*
X163058190Y-99414285D01*
X163058190Y-99414285D02*
X163134380Y-99490475D01*
X163134380Y-99490475D02*
X163210571Y-99528570D01*
X163210571Y-99528570D02*
X163362952Y-99566666D01*
X163362952Y-99566666D02*
X163477238Y-99566666D01*
X163477238Y-99566666D02*
X163629619Y-99528570D01*
X163629619Y-99528570D02*
X163705809Y-99490475D01*
X163705809Y-99490475D02*
X163782000Y-99414285D01*
X163782000Y-99414285D02*
X163820095Y-99299999D01*
X163820095Y-99299999D02*
X163820095Y-99223808D01*
X163820095Y-99223808D02*
X163782000Y-99109523D01*
X163782000Y-99109523D02*
X163743904Y-99071427D01*
X163743904Y-99071427D02*
X163477238Y-99071427D01*
X163477238Y-99071427D02*
X163477238Y-99223808D01*
X163820095Y-98728570D02*
X163020095Y-98728570D01*
X163020095Y-98728570D02*
X163820095Y-98271427D01*
X163820095Y-98271427D02*
X163020095Y-98271427D01*
X163820095Y-97890475D02*
X163020095Y-97890475D01*
X163020095Y-97890475D02*
X163020095Y-97699999D01*
X163020095Y-97699999D02*
X163058190Y-97585713D01*
X163058190Y-97585713D02*
X163134380Y-97509523D01*
X163134380Y-97509523D02*
X163210571Y-97471428D01*
X163210571Y-97471428D02*
X163362952Y-97433332D01*
X163362952Y-97433332D02*
X163477238Y-97433332D01*
X163477238Y-97433332D02*
X163629619Y-97471428D01*
X163629619Y-97471428D02*
X163705809Y-97509523D01*
X163705809Y-97509523D02*
X163782000Y-97585713D01*
X163782000Y-97585713D02*
X163820095Y-97699999D01*
X163820095Y-97699999D02*
X163820095Y-97890475D01*
X163820095Y-96595238D02*
X163820095Y-97052381D01*
X163820095Y-96823809D02*
X163020095Y-96823809D01*
X163020095Y-96823809D02*
X163134380Y-96900000D01*
X163134380Y-96900000D02*
X163210571Y-96976190D01*
X163210571Y-96976190D02*
X163248666Y-97052381D01*
X163096285Y-96290476D02*
X163058190Y-96252380D01*
X163058190Y-96252380D02*
X163020095Y-96176190D01*
X163020095Y-96176190D02*
X163020095Y-95985714D01*
X163020095Y-95985714D02*
X163058190Y-95909523D01*
X163058190Y-95909523D02*
X163096285Y-95871428D01*
X163096285Y-95871428D02*
X163172476Y-95833333D01*
X163172476Y-95833333D02*
X163248666Y-95833333D01*
X163248666Y-95833333D02*
X163362952Y-95871428D01*
X163362952Y-95871428D02*
X163820095Y-96328571D01*
X163820095Y-96328571D02*
X163820095Y-95833333D01*
X163020095Y-95604761D02*
X163820095Y-95338094D01*
X163820095Y-95338094D02*
X163020095Y-95071428D01*
D12*
X100646726Y-110067857D02*
X101896726Y-110067857D01*
X101896726Y-110067857D02*
X101896726Y-110544047D01*
X101896726Y-110544047D02*
X101837202Y-110663095D01*
X101837202Y-110663095D02*
X101777678Y-110722618D01*
X101777678Y-110722618D02*
X101658630Y-110782142D01*
X101658630Y-110782142D02*
X101480059Y-110782142D01*
X101480059Y-110782142D02*
X101361011Y-110722618D01*
X101361011Y-110722618D02*
X101301488Y-110663095D01*
X101301488Y-110663095D02*
X101241964Y-110544047D01*
X101241964Y-110544047D02*
X101241964Y-110067857D01*
X100646726Y-111317857D02*
X101896726Y-111317857D01*
X100646726Y-112865476D02*
X101896726Y-112865476D01*
X101301488Y-112865476D02*
X101301488Y-113579761D01*
X100646726Y-113579761D02*
X101896726Y-113579761D01*
X101003869Y-114115476D02*
X101003869Y-114710714D01*
X100646726Y-113996428D02*
X101896726Y-114413095D01*
X101896726Y-114413095D02*
X100646726Y-114829761D01*
X101896726Y-115067857D02*
X101896726Y-115782143D01*
X100646726Y-115425000D02*
X101896726Y-115425000D01*
X101896726Y-116972619D02*
X100646726Y-117389286D01*
X100646726Y-117389286D02*
X101896726Y-117805952D01*
X101896726Y-118103572D02*
X101896726Y-118877381D01*
X101896726Y-118877381D02*
X101420535Y-118460715D01*
X101420535Y-118460715D02*
X101420535Y-118639286D01*
X101420535Y-118639286D02*
X101361011Y-118758334D01*
X101361011Y-118758334D02*
X101301488Y-118817858D01*
X101301488Y-118817858D02*
X101182440Y-118877381D01*
X101182440Y-118877381D02*
X100884821Y-118877381D01*
X100884821Y-118877381D02*
X100765773Y-118817858D01*
X100765773Y-118817858D02*
X100706250Y-118758334D01*
X100706250Y-118758334D02*
X100646726Y-118639286D01*
X100646726Y-118639286D02*
X100646726Y-118282143D01*
X100646726Y-118282143D02*
X100706250Y-118163096D01*
X100706250Y-118163096D02*
X100765773Y-118103572D01*
X100646726Y-121020238D02*
X100646726Y-120305953D01*
X100646726Y-120663096D02*
X101896726Y-120663096D01*
X101896726Y-120663096D02*
X101718154Y-120544048D01*
X101718154Y-120544048D02*
X101599107Y-120425000D01*
X101599107Y-120425000D02*
X101539583Y-120305953D01*
X101896726Y-121794048D02*
X101896726Y-121913095D01*
X101896726Y-121913095D02*
X101837202Y-122032143D01*
X101837202Y-122032143D02*
X101777678Y-122091667D01*
X101777678Y-122091667D02*
X101658630Y-122151191D01*
X101658630Y-122151191D02*
X101420535Y-122210714D01*
X101420535Y-122210714D02*
X101122916Y-122210714D01*
X101122916Y-122210714D02*
X100884821Y-122151191D01*
X100884821Y-122151191D02*
X100765773Y-122091667D01*
X100765773Y-122091667D02*
X100706250Y-122032143D01*
X100706250Y-122032143D02*
X100646726Y-121913095D01*
X100646726Y-121913095D02*
X100646726Y-121794048D01*
X100646726Y-121794048D02*
X100706250Y-121675000D01*
X100706250Y-121675000D02*
X100765773Y-121615476D01*
X100765773Y-121615476D02*
X100884821Y-121555953D01*
X100884821Y-121555953D02*
X101122916Y-121496429D01*
X101122916Y-121496429D02*
X101420535Y-121496429D01*
X101420535Y-121496429D02*
X101658630Y-121555953D01*
X101658630Y-121555953D02*
X101777678Y-121615476D01*
X101777678Y-121615476D02*
X101837202Y-121675000D01*
X101837202Y-121675000D02*
X101896726Y-121794048D01*
X101956250Y-123639286D02*
X100349107Y-122567857D01*
X101777678Y-123996429D02*
X101837202Y-124055953D01*
X101837202Y-124055953D02*
X101896726Y-124175000D01*
X101896726Y-124175000D02*
X101896726Y-124472619D01*
X101896726Y-124472619D02*
X101837202Y-124591667D01*
X101837202Y-124591667D02*
X101777678Y-124651191D01*
X101777678Y-124651191D02*
X101658630Y-124710714D01*
X101658630Y-124710714D02*
X101539583Y-124710714D01*
X101539583Y-124710714D02*
X101361011Y-124651191D01*
X101361011Y-124651191D02*
X100646726Y-123936905D01*
X100646726Y-123936905D02*
X100646726Y-124710714D01*
X100646726Y-125901190D02*
X100646726Y-125186905D01*
X100646726Y-125544048D02*
X101896726Y-125544048D01*
X101896726Y-125544048D02*
X101718154Y-125425000D01*
X101718154Y-125425000D02*
X101599107Y-125305952D01*
X101599107Y-125305952D02*
X101539583Y-125186905D01*
X101956250Y-127329762D02*
X100349107Y-126258333D01*
X101777678Y-127686905D02*
X101837202Y-127746429D01*
X101837202Y-127746429D02*
X101896726Y-127865476D01*
X101896726Y-127865476D02*
X101896726Y-128163095D01*
X101896726Y-128163095D02*
X101837202Y-128282143D01*
X101837202Y-128282143D02*
X101777678Y-128341667D01*
X101777678Y-128341667D02*
X101658630Y-128401190D01*
X101658630Y-128401190D02*
X101539583Y-128401190D01*
X101539583Y-128401190D02*
X101361011Y-128341667D01*
X101361011Y-128341667D02*
X100646726Y-127627381D01*
X100646726Y-127627381D02*
X100646726Y-128401190D01*
X101777678Y-128877381D02*
X101837202Y-128936905D01*
X101837202Y-128936905D02*
X101896726Y-129055952D01*
X101896726Y-129055952D02*
X101896726Y-129353571D01*
X101896726Y-129353571D02*
X101837202Y-129472619D01*
X101837202Y-129472619D02*
X101777678Y-129532143D01*
X101777678Y-129532143D02*
X101658630Y-129591666D01*
X101658630Y-129591666D02*
X101539583Y-129591666D01*
X101539583Y-129591666D02*
X101361011Y-129532143D01*
X101361011Y-129532143D02*
X100646726Y-128817857D01*
X100646726Y-128817857D02*
X100646726Y-129591666D01*
X99276488Y-112597619D02*
X99276488Y-113014285D01*
X98621726Y-113192857D02*
X98621726Y-112597619D01*
X98621726Y-112597619D02*
X99871726Y-112597619D01*
X99871726Y-112597619D02*
X99871726Y-113192857D01*
X98978869Y-113669047D02*
X98978869Y-114264285D01*
X98621726Y-113549999D02*
X99871726Y-113966666D01*
X99871726Y-113966666D02*
X98621726Y-114383332D01*
X98681250Y-114740476D02*
X98621726Y-114919047D01*
X98621726Y-114919047D02*
X98621726Y-115216666D01*
X98621726Y-115216666D02*
X98681250Y-115335714D01*
X98681250Y-115335714D02*
X98740773Y-115395238D01*
X98740773Y-115395238D02*
X98859821Y-115454761D01*
X98859821Y-115454761D02*
X98978869Y-115454761D01*
X98978869Y-115454761D02*
X99097916Y-115395238D01*
X99097916Y-115395238D02*
X99157440Y-115335714D01*
X99157440Y-115335714D02*
X99216964Y-115216666D01*
X99216964Y-115216666D02*
X99276488Y-114978571D01*
X99276488Y-114978571D02*
X99336011Y-114859523D01*
X99336011Y-114859523D02*
X99395535Y-114800000D01*
X99395535Y-114800000D02*
X99514583Y-114740476D01*
X99514583Y-114740476D02*
X99633630Y-114740476D01*
X99633630Y-114740476D02*
X99752678Y-114800000D01*
X99752678Y-114800000D02*
X99812202Y-114859523D01*
X99812202Y-114859523D02*
X99871726Y-114978571D01*
X99871726Y-114978571D02*
X99871726Y-115276190D01*
X99871726Y-115276190D02*
X99812202Y-115454761D01*
X99216964Y-116228571D02*
X98621726Y-116228571D01*
X99871726Y-115811904D02*
X99216964Y-116228571D01*
X99216964Y-116228571D02*
X99871726Y-116645237D01*
X98740773Y-118728571D02*
X98681250Y-118669047D01*
X98681250Y-118669047D02*
X98621726Y-118490476D01*
X98621726Y-118490476D02*
X98621726Y-118371428D01*
X98621726Y-118371428D02*
X98681250Y-118192857D01*
X98681250Y-118192857D02*
X98800297Y-118073809D01*
X98800297Y-118073809D02*
X98919345Y-118014286D01*
X98919345Y-118014286D02*
X99157440Y-117954762D01*
X99157440Y-117954762D02*
X99336011Y-117954762D01*
X99336011Y-117954762D02*
X99574107Y-118014286D01*
X99574107Y-118014286D02*
X99693154Y-118073809D01*
X99693154Y-118073809D02*
X99812202Y-118192857D01*
X99812202Y-118192857D02*
X99871726Y-118371428D01*
X99871726Y-118371428D02*
X99871726Y-118490476D01*
X99871726Y-118490476D02*
X99812202Y-118669047D01*
X99812202Y-118669047D02*
X99752678Y-118728571D01*
X99871726Y-119502381D02*
X99871726Y-119740476D01*
X99871726Y-119740476D02*
X99812202Y-119859524D01*
X99812202Y-119859524D02*
X99693154Y-119978571D01*
X99693154Y-119978571D02*
X99455059Y-120038095D01*
X99455059Y-120038095D02*
X99038392Y-120038095D01*
X99038392Y-120038095D02*
X98800297Y-119978571D01*
X98800297Y-119978571D02*
X98681250Y-119859524D01*
X98681250Y-119859524D02*
X98621726Y-119740476D01*
X98621726Y-119740476D02*
X98621726Y-119502381D01*
X98621726Y-119502381D02*
X98681250Y-119383333D01*
X98681250Y-119383333D02*
X98800297Y-119264286D01*
X98800297Y-119264286D02*
X99038392Y-119204762D01*
X99038392Y-119204762D02*
X99455059Y-119204762D01*
X99455059Y-119204762D02*
X99693154Y-119264286D01*
X99693154Y-119264286D02*
X99812202Y-119383333D01*
X99812202Y-119383333D02*
X99871726Y-119502381D01*
X98621726Y-120573810D02*
X99871726Y-120573810D01*
X99871726Y-120573810D02*
X98621726Y-121288095D01*
X98621726Y-121288095D02*
X99871726Y-121288095D01*
X99871726Y-121704762D02*
X99871726Y-122419048D01*
X98621726Y-122061905D02*
X99871726Y-122061905D01*
X98621726Y-123550000D02*
X99216964Y-123133334D01*
X98621726Y-122835715D02*
X99871726Y-122835715D01*
X99871726Y-122835715D02*
X99871726Y-123311905D01*
X99871726Y-123311905D02*
X99812202Y-123430953D01*
X99812202Y-123430953D02*
X99752678Y-123490476D01*
X99752678Y-123490476D02*
X99633630Y-123550000D01*
X99633630Y-123550000D02*
X99455059Y-123550000D01*
X99455059Y-123550000D02*
X99336011Y-123490476D01*
X99336011Y-123490476D02*
X99276488Y-123430953D01*
X99276488Y-123430953D02*
X99216964Y-123311905D01*
X99216964Y-123311905D02*
X99216964Y-122835715D01*
X99871726Y-124323810D02*
X99871726Y-124561905D01*
X99871726Y-124561905D02*
X99812202Y-124680953D01*
X99812202Y-124680953D02*
X99693154Y-124800000D01*
X99693154Y-124800000D02*
X99455059Y-124859524D01*
X99455059Y-124859524D02*
X99038392Y-124859524D01*
X99038392Y-124859524D02*
X98800297Y-124800000D01*
X98800297Y-124800000D02*
X98681250Y-124680953D01*
X98681250Y-124680953D02*
X98621726Y-124561905D01*
X98621726Y-124561905D02*
X98621726Y-124323810D01*
X98621726Y-124323810D02*
X98681250Y-124204762D01*
X98681250Y-124204762D02*
X98800297Y-124085715D01*
X98800297Y-124085715D02*
X99038392Y-124026191D01*
X99038392Y-124026191D02*
X99455059Y-124026191D01*
X99455059Y-124026191D02*
X99693154Y-124085715D01*
X99693154Y-124085715D02*
X99812202Y-124204762D01*
X99812202Y-124204762D02*
X99871726Y-124323810D01*
X98621726Y-125990477D02*
X98621726Y-125395239D01*
X98621726Y-125395239D02*
X99871726Y-125395239D01*
X98681250Y-126347620D02*
X98621726Y-126526191D01*
X98621726Y-126526191D02*
X98621726Y-126823810D01*
X98621726Y-126823810D02*
X98681250Y-126942858D01*
X98681250Y-126942858D02*
X98740773Y-127002382D01*
X98740773Y-127002382D02*
X98859821Y-127061905D01*
X98859821Y-127061905D02*
X98978869Y-127061905D01*
X98978869Y-127061905D02*
X99097916Y-127002382D01*
X99097916Y-127002382D02*
X99157440Y-126942858D01*
X99157440Y-126942858D02*
X99216964Y-126823810D01*
X99216964Y-126823810D02*
X99276488Y-126585715D01*
X99276488Y-126585715D02*
X99336011Y-126466667D01*
X99336011Y-126466667D02*
X99395535Y-126407144D01*
X99395535Y-126407144D02*
X99514583Y-126347620D01*
X99514583Y-126347620D02*
X99633630Y-126347620D01*
X99633630Y-126347620D02*
X99752678Y-126407144D01*
X99752678Y-126407144D02*
X99812202Y-126466667D01*
X99812202Y-126466667D02*
X99871726Y-126585715D01*
X99871726Y-126585715D02*
X99871726Y-126883334D01*
X99871726Y-126883334D02*
X99812202Y-127061905D01*
X96596726Y-107300001D02*
X97846726Y-107300001D01*
X97846726Y-107300001D02*
X97846726Y-107597620D01*
X97846726Y-107597620D02*
X97787202Y-107776191D01*
X97787202Y-107776191D02*
X97668154Y-107895239D01*
X97668154Y-107895239D02*
X97549107Y-107954762D01*
X97549107Y-107954762D02*
X97311011Y-108014286D01*
X97311011Y-108014286D02*
X97132440Y-108014286D01*
X97132440Y-108014286D02*
X96894345Y-107954762D01*
X96894345Y-107954762D02*
X96775297Y-107895239D01*
X96775297Y-107895239D02*
X96656250Y-107776191D01*
X96656250Y-107776191D02*
X96596726Y-107597620D01*
X96596726Y-107597620D02*
X96596726Y-107300001D01*
X96656250Y-109026191D02*
X96596726Y-108907143D01*
X96596726Y-108907143D02*
X96596726Y-108669048D01*
X96596726Y-108669048D02*
X96656250Y-108550001D01*
X96656250Y-108550001D02*
X96775297Y-108490477D01*
X96775297Y-108490477D02*
X97251488Y-108490477D01*
X97251488Y-108490477D02*
X97370535Y-108550001D01*
X97370535Y-108550001D02*
X97430059Y-108669048D01*
X97430059Y-108669048D02*
X97430059Y-108907143D01*
X97430059Y-108907143D02*
X97370535Y-109026191D01*
X97370535Y-109026191D02*
X97251488Y-109085715D01*
X97251488Y-109085715D02*
X97132440Y-109085715D01*
X97132440Y-109085715D02*
X97013392Y-108490477D01*
X96656250Y-109561906D02*
X96596726Y-109680953D01*
X96596726Y-109680953D02*
X96596726Y-109919049D01*
X96596726Y-109919049D02*
X96656250Y-110038096D01*
X96656250Y-110038096D02*
X96775297Y-110097620D01*
X96775297Y-110097620D02*
X96834821Y-110097620D01*
X96834821Y-110097620D02*
X96953869Y-110038096D01*
X96953869Y-110038096D02*
X97013392Y-109919049D01*
X97013392Y-109919049D02*
X97013392Y-109740477D01*
X97013392Y-109740477D02*
X97072916Y-109621430D01*
X97072916Y-109621430D02*
X97191964Y-109561906D01*
X97191964Y-109561906D02*
X97251488Y-109561906D01*
X97251488Y-109561906D02*
X97370535Y-109621430D01*
X97370535Y-109621430D02*
X97430059Y-109740477D01*
X97430059Y-109740477D02*
X97430059Y-109919049D01*
X97430059Y-109919049D02*
X97370535Y-110038096D01*
X96596726Y-110633335D02*
X97430059Y-110633335D01*
X97846726Y-110633335D02*
X97787202Y-110573811D01*
X97787202Y-110573811D02*
X97727678Y-110633335D01*
X97727678Y-110633335D02*
X97787202Y-110692858D01*
X97787202Y-110692858D02*
X97846726Y-110633335D01*
X97846726Y-110633335D02*
X97727678Y-110633335D01*
X97430059Y-111764287D02*
X96418154Y-111764287D01*
X96418154Y-111764287D02*
X96299107Y-111704763D01*
X96299107Y-111704763D02*
X96239583Y-111645239D01*
X96239583Y-111645239D02*
X96180059Y-111526192D01*
X96180059Y-111526192D02*
X96180059Y-111347620D01*
X96180059Y-111347620D02*
X96239583Y-111228573D01*
X96656250Y-111764287D02*
X96596726Y-111645239D01*
X96596726Y-111645239D02*
X96596726Y-111407144D01*
X96596726Y-111407144D02*
X96656250Y-111288096D01*
X96656250Y-111288096D02*
X96715773Y-111228573D01*
X96715773Y-111228573D02*
X96834821Y-111169049D01*
X96834821Y-111169049D02*
X97191964Y-111169049D01*
X97191964Y-111169049D02*
X97311011Y-111228573D01*
X97311011Y-111228573D02*
X97370535Y-111288096D01*
X97370535Y-111288096D02*
X97430059Y-111407144D01*
X97430059Y-111407144D02*
X97430059Y-111645239D01*
X97430059Y-111645239D02*
X97370535Y-111764287D01*
X97430059Y-112359525D02*
X96596726Y-112359525D01*
X97311011Y-112359525D02*
X97370535Y-112419048D01*
X97370535Y-112419048D02*
X97430059Y-112538096D01*
X97430059Y-112538096D02*
X97430059Y-112716667D01*
X97430059Y-112716667D02*
X97370535Y-112835715D01*
X97370535Y-112835715D02*
X97251488Y-112895239D01*
X97251488Y-112895239D02*
X96596726Y-112895239D01*
X96656250Y-113966667D02*
X96596726Y-113847619D01*
X96596726Y-113847619D02*
X96596726Y-113609524D01*
X96596726Y-113609524D02*
X96656250Y-113490477D01*
X96656250Y-113490477D02*
X96775297Y-113430953D01*
X96775297Y-113430953D02*
X97251488Y-113430953D01*
X97251488Y-113430953D02*
X97370535Y-113490477D01*
X97370535Y-113490477D02*
X97430059Y-113609524D01*
X97430059Y-113609524D02*
X97430059Y-113847619D01*
X97430059Y-113847619D02*
X97370535Y-113966667D01*
X97370535Y-113966667D02*
X97251488Y-114026191D01*
X97251488Y-114026191D02*
X97132440Y-114026191D01*
X97132440Y-114026191D02*
X97013392Y-113430953D01*
X96596726Y-115097620D02*
X97846726Y-115097620D01*
X96656250Y-115097620D02*
X96596726Y-114978572D01*
X96596726Y-114978572D02*
X96596726Y-114740477D01*
X96596726Y-114740477D02*
X96656250Y-114621429D01*
X96656250Y-114621429D02*
X96715773Y-114561906D01*
X96715773Y-114561906D02*
X96834821Y-114502382D01*
X96834821Y-114502382D02*
X97191964Y-114502382D01*
X97191964Y-114502382D02*
X97311011Y-114561906D01*
X97311011Y-114561906D02*
X97370535Y-114621429D01*
X97370535Y-114621429D02*
X97430059Y-114740477D01*
X97430059Y-114740477D02*
X97430059Y-114978572D01*
X97430059Y-114978572D02*
X97370535Y-115097620D01*
X96596726Y-116645239D02*
X97846726Y-116645239D01*
X97370535Y-116645239D02*
X97430059Y-116764286D01*
X97430059Y-116764286D02*
X97430059Y-117002381D01*
X97430059Y-117002381D02*
X97370535Y-117121429D01*
X97370535Y-117121429D02*
X97311011Y-117180953D01*
X97311011Y-117180953D02*
X97191964Y-117240477D01*
X97191964Y-117240477D02*
X96834821Y-117240477D01*
X96834821Y-117240477D02*
X96715773Y-117180953D01*
X96715773Y-117180953D02*
X96656250Y-117121429D01*
X96656250Y-117121429D02*
X96596726Y-117002381D01*
X96596726Y-117002381D02*
X96596726Y-116764286D01*
X96596726Y-116764286D02*
X96656250Y-116645239D01*
X97430059Y-117657143D02*
X96596726Y-117954762D01*
X97430059Y-118252381D02*
X96596726Y-117954762D01*
X96596726Y-117954762D02*
X96299107Y-117835714D01*
X96299107Y-117835714D02*
X96239583Y-117776191D01*
X96239583Y-117776191D02*
X96180059Y-117657143D01*
X96715773Y-118728572D02*
X96656250Y-118788095D01*
X96656250Y-118788095D02*
X96596726Y-118728572D01*
X96596726Y-118728572D02*
X96656250Y-118669048D01*
X96656250Y-118669048D02*
X96715773Y-118728572D01*
X96715773Y-118728572D02*
X96596726Y-118728572D01*
X97370535Y-118728572D02*
X97311011Y-118788095D01*
X97311011Y-118788095D02*
X97251488Y-118728572D01*
X97251488Y-118728572D02*
X97311011Y-118669048D01*
X97311011Y-118669048D02*
X97370535Y-118728572D01*
X97370535Y-118728572D02*
X97251488Y-118728572D01*
X97846726Y-120633333D02*
X96953869Y-120633333D01*
X96953869Y-120633333D02*
X96775297Y-120573810D01*
X96775297Y-120573810D02*
X96656250Y-120454762D01*
X96656250Y-120454762D02*
X96596726Y-120276191D01*
X96596726Y-120276191D02*
X96596726Y-120157143D01*
X96596726Y-121764286D02*
X97251488Y-121764286D01*
X97251488Y-121764286D02*
X97370535Y-121704762D01*
X97370535Y-121704762D02*
X97430059Y-121585714D01*
X97430059Y-121585714D02*
X97430059Y-121347619D01*
X97430059Y-121347619D02*
X97370535Y-121228572D01*
X96656250Y-121764286D02*
X96596726Y-121645238D01*
X96596726Y-121645238D02*
X96596726Y-121347619D01*
X96596726Y-121347619D02*
X96656250Y-121228572D01*
X96656250Y-121228572D02*
X96775297Y-121169048D01*
X96775297Y-121169048D02*
X96894345Y-121169048D01*
X96894345Y-121169048D02*
X97013392Y-121228572D01*
X97013392Y-121228572D02*
X97072916Y-121347619D01*
X97072916Y-121347619D02*
X97072916Y-121645238D01*
X97072916Y-121645238D02*
X97132440Y-121764286D01*
X96656250Y-122895238D02*
X96596726Y-122776190D01*
X96596726Y-122776190D02*
X96596726Y-122538095D01*
X96596726Y-122538095D02*
X96656250Y-122419047D01*
X96656250Y-122419047D02*
X96715773Y-122359524D01*
X96715773Y-122359524D02*
X96834821Y-122300000D01*
X96834821Y-122300000D02*
X97191964Y-122300000D01*
X97191964Y-122300000D02*
X97311011Y-122359524D01*
X97311011Y-122359524D02*
X97370535Y-122419047D01*
X97370535Y-122419047D02*
X97430059Y-122538095D01*
X97430059Y-122538095D02*
X97430059Y-122776190D01*
X97430059Y-122776190D02*
X97370535Y-122895238D01*
X96596726Y-123609524D02*
X96656250Y-123490476D01*
X96656250Y-123490476D02*
X96715773Y-123430953D01*
X96715773Y-123430953D02*
X96834821Y-123371429D01*
X96834821Y-123371429D02*
X97191964Y-123371429D01*
X97191964Y-123371429D02*
X97311011Y-123430953D01*
X97311011Y-123430953D02*
X97370535Y-123490476D01*
X97370535Y-123490476D02*
X97430059Y-123609524D01*
X97430059Y-123609524D02*
X97430059Y-123788095D01*
X97430059Y-123788095D02*
X97370535Y-123907143D01*
X97370535Y-123907143D02*
X97311011Y-123966667D01*
X97311011Y-123966667D02*
X97191964Y-124026191D01*
X97191964Y-124026191D02*
X96834821Y-124026191D01*
X96834821Y-124026191D02*
X96715773Y-123966667D01*
X96715773Y-123966667D02*
X96656250Y-123907143D01*
X96656250Y-123907143D02*
X96596726Y-123788095D01*
X96596726Y-123788095D02*
X96596726Y-123609524D01*
X96596726Y-124561905D02*
X97846726Y-124561905D01*
X97370535Y-124561905D02*
X97430059Y-124680952D01*
X97430059Y-124680952D02*
X97430059Y-124919047D01*
X97430059Y-124919047D02*
X97370535Y-125038095D01*
X97370535Y-125038095D02*
X97311011Y-125097619D01*
X97311011Y-125097619D02*
X97191964Y-125157143D01*
X97191964Y-125157143D02*
X96834821Y-125157143D01*
X96834821Y-125157143D02*
X96715773Y-125097619D01*
X96715773Y-125097619D02*
X96656250Y-125038095D01*
X96656250Y-125038095D02*
X96596726Y-124919047D01*
X96596726Y-124919047D02*
X96596726Y-124680952D01*
X96596726Y-124680952D02*
X96656250Y-124561905D01*
X96596726Y-127359523D02*
X97191964Y-126942857D01*
X96596726Y-126645238D02*
X97846726Y-126645238D01*
X97846726Y-126645238D02*
X97846726Y-127121428D01*
X97846726Y-127121428D02*
X97787202Y-127240476D01*
X97787202Y-127240476D02*
X97727678Y-127299999D01*
X97727678Y-127299999D02*
X97608630Y-127359523D01*
X97608630Y-127359523D02*
X97430059Y-127359523D01*
X97430059Y-127359523D02*
X97311011Y-127299999D01*
X97311011Y-127299999D02*
X97251488Y-127240476D01*
X97251488Y-127240476D02*
X97191964Y-127121428D01*
X97191964Y-127121428D02*
X97191964Y-126645238D01*
X96596726Y-128073809D02*
X96656250Y-127954761D01*
X96656250Y-127954761D02*
X96715773Y-127895238D01*
X96715773Y-127895238D02*
X96834821Y-127835714D01*
X96834821Y-127835714D02*
X97191964Y-127835714D01*
X97191964Y-127835714D02*
X97311011Y-127895238D01*
X97311011Y-127895238D02*
X97370535Y-127954761D01*
X97370535Y-127954761D02*
X97430059Y-128073809D01*
X97430059Y-128073809D02*
X97430059Y-128252380D01*
X97430059Y-128252380D02*
X97370535Y-128371428D01*
X97370535Y-128371428D02*
X97311011Y-128430952D01*
X97311011Y-128430952D02*
X97191964Y-128490476D01*
X97191964Y-128490476D02*
X96834821Y-128490476D01*
X96834821Y-128490476D02*
X96715773Y-128430952D01*
X96715773Y-128430952D02*
X96656250Y-128371428D01*
X96656250Y-128371428D02*
X96596726Y-128252380D01*
X96596726Y-128252380D02*
X96596726Y-128073809D01*
X96596726Y-129026190D02*
X97430059Y-129026190D01*
X97311011Y-129026190D02*
X97370535Y-129085713D01*
X97370535Y-129085713D02*
X97430059Y-129204761D01*
X97430059Y-129204761D02*
X97430059Y-129383332D01*
X97430059Y-129383332D02*
X97370535Y-129502380D01*
X97370535Y-129502380D02*
X97251488Y-129561904D01*
X97251488Y-129561904D02*
X96596726Y-129561904D01*
X97251488Y-129561904D02*
X97370535Y-129621428D01*
X97370535Y-129621428D02*
X97430059Y-129740475D01*
X97430059Y-129740475D02*
X97430059Y-129919047D01*
X97430059Y-129919047D02*
X97370535Y-130038094D01*
X97370535Y-130038094D02*
X97251488Y-130097618D01*
X97251488Y-130097618D02*
X96596726Y-130097618D01*
X96656250Y-131169047D02*
X96596726Y-131049999D01*
X96596726Y-131049999D02*
X96596726Y-130811904D01*
X96596726Y-130811904D02*
X96656250Y-130692857D01*
X96656250Y-130692857D02*
X96775297Y-130633333D01*
X96775297Y-130633333D02*
X97251488Y-130633333D01*
X97251488Y-130633333D02*
X97370535Y-130692857D01*
X97370535Y-130692857D02*
X97430059Y-130811904D01*
X97430059Y-130811904D02*
X97430059Y-131049999D01*
X97430059Y-131049999D02*
X97370535Y-131169047D01*
X97370535Y-131169047D02*
X97251488Y-131228571D01*
X97251488Y-131228571D02*
X97132440Y-131228571D01*
X97132440Y-131228571D02*
X97013392Y-130633333D01*
X96596726Y-131942857D02*
X96656250Y-131823809D01*
X96656250Y-131823809D02*
X96715773Y-131764286D01*
X96715773Y-131764286D02*
X96834821Y-131704762D01*
X96834821Y-131704762D02*
X97191964Y-131704762D01*
X97191964Y-131704762D02*
X97311011Y-131764286D01*
X97311011Y-131764286D02*
X97370535Y-131823809D01*
X97370535Y-131823809D02*
X97430059Y-131942857D01*
X97430059Y-131942857D02*
X97430059Y-132121428D01*
X97430059Y-132121428D02*
X97370535Y-132240476D01*
X97370535Y-132240476D02*
X97311011Y-132300000D01*
X97311011Y-132300000D02*
X97191964Y-132359524D01*
X97191964Y-132359524D02*
X96834821Y-132359524D01*
X96834821Y-132359524D02*
X96715773Y-132300000D01*
X96715773Y-132300000D02*
X96656250Y-132240476D01*
X96656250Y-132240476D02*
X96596726Y-132121428D01*
X96596726Y-132121428D02*
X96596726Y-131942857D01*
D10*
%TO.C,J3*%
X134541666Y-70187619D02*
X134541666Y-70901904D01*
X134541666Y-70901904D02*
X134494047Y-71044761D01*
X134494047Y-71044761D02*
X134398809Y-71140000D01*
X134398809Y-71140000D02*
X134255952Y-71187619D01*
X134255952Y-71187619D02*
X134160714Y-71187619D01*
X134922619Y-70187619D02*
X135541666Y-70187619D01*
X135541666Y-70187619D02*
X135208333Y-70568571D01*
X135208333Y-70568571D02*
X135351190Y-70568571D01*
X135351190Y-70568571D02*
X135446428Y-70616190D01*
X135446428Y-70616190D02*
X135494047Y-70663809D01*
X135494047Y-70663809D02*
X135541666Y-70759047D01*
X135541666Y-70759047D02*
X135541666Y-70997142D01*
X135541666Y-70997142D02*
X135494047Y-71092380D01*
X135494047Y-71092380D02*
X135446428Y-71140000D01*
X135446428Y-71140000D02*
X135351190Y-71187619D01*
X135351190Y-71187619D02*
X135065476Y-71187619D01*
X135065476Y-71187619D02*
X134970238Y-71140000D01*
X134970238Y-71140000D02*
X134922619Y-71092380D01*
%TO.C,H1*%
X154738095Y-72462619D02*
X154738095Y-71462619D01*
X154738095Y-71938809D02*
X155309523Y-71938809D01*
X155309523Y-72462619D02*
X155309523Y-71462619D01*
X156309523Y-72462619D02*
X155738095Y-72462619D01*
X156023809Y-72462619D02*
X156023809Y-71462619D01*
X156023809Y-71462619D02*
X155928571Y-71605476D01*
X155928571Y-71605476D02*
X155833333Y-71700714D01*
X155833333Y-71700714D02*
X155738095Y-71748333D01*
%TO.C,H2*%
X98738095Y-72462619D02*
X98738095Y-71462619D01*
X98738095Y-71938809D02*
X99309523Y-71938809D01*
X99309523Y-72462619D02*
X99309523Y-71462619D01*
X99738095Y-71557857D02*
X99785714Y-71510238D01*
X99785714Y-71510238D02*
X99880952Y-71462619D01*
X99880952Y-71462619D02*
X100119047Y-71462619D01*
X100119047Y-71462619D02*
X100214285Y-71510238D01*
X100214285Y-71510238D02*
X100261904Y-71557857D01*
X100261904Y-71557857D02*
X100309523Y-71653095D01*
X100309523Y-71653095D02*
X100309523Y-71748333D01*
X100309523Y-71748333D02*
X100261904Y-71891190D01*
X100261904Y-71891190D02*
X99690476Y-72462619D01*
X99690476Y-72462619D02*
X100309523Y-72462619D01*
%TO.C,H3*%
X98738095Y-135462619D02*
X98738095Y-134462619D01*
X98738095Y-134938809D02*
X99309523Y-134938809D01*
X99309523Y-135462619D02*
X99309523Y-134462619D01*
X99690476Y-134462619D02*
X100309523Y-134462619D01*
X100309523Y-134462619D02*
X99976190Y-134843571D01*
X99976190Y-134843571D02*
X100119047Y-134843571D01*
X100119047Y-134843571D02*
X100214285Y-134891190D01*
X100214285Y-134891190D02*
X100261904Y-134938809D01*
X100261904Y-134938809D02*
X100309523Y-135034047D01*
X100309523Y-135034047D02*
X100309523Y-135272142D01*
X100309523Y-135272142D02*
X100261904Y-135367380D01*
X100261904Y-135367380D02*
X100214285Y-135415000D01*
X100214285Y-135415000D02*
X100119047Y-135462619D01*
X100119047Y-135462619D02*
X99833333Y-135462619D01*
X99833333Y-135462619D02*
X99738095Y-135415000D01*
X99738095Y-135415000D02*
X99690476Y-135367380D01*
%TO.C,J1*%
X128481666Y-88486819D02*
X128481666Y-89201104D01*
X128481666Y-89201104D02*
X128434047Y-89343961D01*
X128434047Y-89343961D02*
X128338809Y-89439200D01*
X128338809Y-89439200D02*
X128195952Y-89486819D01*
X128195952Y-89486819D02*
X128100714Y-89486819D01*
X129481666Y-89486819D02*
X128910238Y-89486819D01*
X129195952Y-89486819D02*
X129195952Y-88486819D01*
X129195952Y-88486819D02*
X129100714Y-88629676D01*
X129100714Y-88629676D02*
X129005476Y-88724914D01*
X129005476Y-88724914D02*
X128910238Y-88772533D01*
%TO.C,H4*%
X154738095Y-135462619D02*
X154738095Y-134462619D01*
X154738095Y-134938809D02*
X155309523Y-134938809D01*
X155309523Y-135462619D02*
X155309523Y-134462619D01*
X156214285Y-134795952D02*
X156214285Y-135462619D01*
X155976190Y-134415000D02*
X155738095Y-135129285D01*
X155738095Y-135129285D02*
X156357142Y-135129285D01*
%TO.C,J2*%
X155516666Y-76262619D02*
X155516666Y-76976904D01*
X155516666Y-76976904D02*
X155469047Y-77119761D01*
X155469047Y-77119761D02*
X155373809Y-77215000D01*
X155373809Y-77215000D02*
X155230952Y-77262619D01*
X155230952Y-77262619D02*
X155135714Y-77262619D01*
X155945238Y-76357857D02*
X155992857Y-76310238D01*
X155992857Y-76310238D02*
X156088095Y-76262619D01*
X156088095Y-76262619D02*
X156326190Y-76262619D01*
X156326190Y-76262619D02*
X156421428Y-76310238D01*
X156421428Y-76310238D02*
X156469047Y-76357857D01*
X156469047Y-76357857D02*
X156516666Y-76453095D01*
X156516666Y-76453095D02*
X156516666Y-76548333D01*
X156516666Y-76548333D02*
X156469047Y-76691190D01*
X156469047Y-76691190D02*
X155897619Y-77262619D01*
X155897619Y-77262619D02*
X156516666Y-77262619D01*
X148925238Y-123385714D02*
X146925238Y-123385714D01*
X146925238Y-123385714D02*
X146925238Y-122623809D01*
X146925238Y-122623809D02*
X147020476Y-122433333D01*
X147020476Y-122433333D02*
X147115714Y-122338095D01*
X147115714Y-122338095D02*
X147306190Y-122242857D01*
X147306190Y-122242857D02*
X147591904Y-122242857D01*
X147591904Y-122242857D02*
X147782380Y-122338095D01*
X147782380Y-122338095D02*
X147877619Y-122433333D01*
X147877619Y-122433333D02*
X147972857Y-122623809D01*
X147972857Y-122623809D02*
X147972857Y-123385714D01*
X148925238Y-121385714D02*
X147591904Y-121385714D01*
X146925238Y-121385714D02*
X147020476Y-121480952D01*
X147020476Y-121480952D02*
X147115714Y-121385714D01*
X147115714Y-121385714D02*
X147020476Y-121290476D01*
X147020476Y-121290476D02*
X146925238Y-121385714D01*
X146925238Y-121385714D02*
X147115714Y-121385714D01*
X149115714Y-120909524D02*
X149115714Y-119385714D01*
X147020476Y-117861904D02*
X146925238Y-118052380D01*
X146925238Y-118052380D02*
X146925238Y-118338094D01*
X146925238Y-118338094D02*
X147020476Y-118623809D01*
X147020476Y-118623809D02*
X147210952Y-118814285D01*
X147210952Y-118814285D02*
X147401428Y-118909523D01*
X147401428Y-118909523D02*
X147782380Y-119004761D01*
X147782380Y-119004761D02*
X148068095Y-119004761D01*
X148068095Y-119004761D02*
X148449047Y-118909523D01*
X148449047Y-118909523D02*
X148639523Y-118814285D01*
X148639523Y-118814285D02*
X148830000Y-118623809D01*
X148830000Y-118623809D02*
X148925238Y-118338094D01*
X148925238Y-118338094D02*
X148925238Y-118147618D01*
X148925238Y-118147618D02*
X148830000Y-117861904D01*
X148830000Y-117861904D02*
X148734761Y-117766666D01*
X148734761Y-117766666D02*
X148068095Y-117766666D01*
X148068095Y-117766666D02*
X148068095Y-118147618D01*
X148925238Y-116909523D02*
X146925238Y-116909523D01*
X146925238Y-116909523D02*
X146925238Y-116147618D01*
X146925238Y-116147618D02*
X147020476Y-115957142D01*
X147020476Y-115957142D02*
X147115714Y-115861904D01*
X147115714Y-115861904D02*
X147306190Y-115766666D01*
X147306190Y-115766666D02*
X147591904Y-115766666D01*
X147591904Y-115766666D02*
X147782380Y-115861904D01*
X147782380Y-115861904D02*
X147877619Y-115957142D01*
X147877619Y-115957142D02*
X147972857Y-116147618D01*
X147972857Y-116147618D02*
X147972857Y-116909523D01*
X148925238Y-114909523D02*
X146925238Y-114909523D01*
X146925238Y-113576190D02*
X146925238Y-113195237D01*
X146925238Y-113195237D02*
X147020476Y-113004761D01*
X147020476Y-113004761D02*
X147210952Y-112814285D01*
X147210952Y-112814285D02*
X147591904Y-112719047D01*
X147591904Y-112719047D02*
X148258571Y-112719047D01*
X148258571Y-112719047D02*
X148639523Y-112814285D01*
X148639523Y-112814285D02*
X148830000Y-113004761D01*
X148830000Y-113004761D02*
X148925238Y-113195237D01*
X148925238Y-113195237D02*
X148925238Y-113576190D01*
X148925238Y-113576190D02*
X148830000Y-113766666D01*
X148830000Y-113766666D02*
X148639523Y-113957142D01*
X148639523Y-113957142D02*
X148258571Y-114052380D01*
X148258571Y-114052380D02*
X147591904Y-114052380D01*
X147591904Y-114052380D02*
X147210952Y-113957142D01*
X147210952Y-113957142D02*
X147020476Y-113766666D01*
X147020476Y-113766666D02*
X146925238Y-113576190D01*
%TO.C,J4*%
X96216666Y-93132619D02*
X96216666Y-93846904D01*
X96216666Y-93846904D02*
X96169047Y-93989761D01*
X96169047Y-93989761D02*
X96073809Y-94085000D01*
X96073809Y-94085000D02*
X95930952Y-94132619D01*
X95930952Y-94132619D02*
X95835714Y-94132619D01*
X97121428Y-93465952D02*
X97121428Y-94132619D01*
X96883333Y-93085000D02*
X96645238Y-93799285D01*
X96645238Y-93799285D02*
X97264285Y-93799285D01*
%TO.C,J5*%
X115916519Y-81396633D02*
X115916519Y-82111233D01*
X115916519Y-82111233D02*
X115868879Y-82254153D01*
X115868879Y-82254153D02*
X115773599Y-82349434D01*
X115773599Y-82349434D02*
X115630679Y-82397074D01*
X115630679Y-82397074D02*
X115535399Y-82397074D01*
X116869320Y-81396633D02*
X116392920Y-81396633D01*
X116392920Y-81396633D02*
X116345280Y-81873033D01*
X116345280Y-81873033D02*
X116392920Y-81825393D01*
X116392920Y-81825393D02*
X116488200Y-81777753D01*
X116488200Y-81777753D02*
X116726400Y-81777753D01*
X116726400Y-81777753D02*
X116821680Y-81825393D01*
X116821680Y-81825393D02*
X116869320Y-81873033D01*
X116869320Y-81873033D02*
X116916960Y-81968313D01*
X116916960Y-81968313D02*
X116916960Y-82206513D01*
X116916960Y-82206513D02*
X116869320Y-82301793D01*
X116869320Y-82301793D02*
X116821680Y-82349434D01*
X116821680Y-82349434D02*
X116726400Y-82397074D01*
X116726400Y-82397074D02*
X116488200Y-82397074D01*
X116488200Y-82397074D02*
X116392920Y-82349434D01*
X116392920Y-82349434D02*
X116345280Y-82301793D01*
%TO.C,J8*%
X120866519Y-130462383D02*
X120866519Y-131176983D01*
X120866519Y-131176983D02*
X120818879Y-131319903D01*
X120818879Y-131319903D02*
X120723599Y-131415184D01*
X120723599Y-131415184D02*
X120580679Y-131462824D01*
X120580679Y-131462824D02*
X120485399Y-131462824D01*
X121485840Y-130891143D02*
X121390560Y-130843503D01*
X121390560Y-130843503D02*
X121342920Y-130795863D01*
X121342920Y-130795863D02*
X121295280Y-130700583D01*
X121295280Y-130700583D02*
X121295280Y-130652943D01*
X121295280Y-130652943D02*
X121342920Y-130557663D01*
X121342920Y-130557663D02*
X121390560Y-130510023D01*
X121390560Y-130510023D02*
X121485840Y-130462383D01*
X121485840Y-130462383D02*
X121676400Y-130462383D01*
X121676400Y-130462383D02*
X121771680Y-130510023D01*
X121771680Y-130510023D02*
X121819320Y-130557663D01*
X121819320Y-130557663D02*
X121866960Y-130652943D01*
X121866960Y-130652943D02*
X121866960Y-130700583D01*
X121866960Y-130700583D02*
X121819320Y-130795863D01*
X121819320Y-130795863D02*
X121771680Y-130843503D01*
X121771680Y-130843503D02*
X121676400Y-130891143D01*
X121676400Y-130891143D02*
X121485840Y-130891143D01*
X121485840Y-130891143D02*
X121390560Y-130938783D01*
X121390560Y-130938783D02*
X121342920Y-130986423D01*
X121342920Y-130986423D02*
X121295280Y-131081703D01*
X121295280Y-131081703D02*
X121295280Y-131272263D01*
X121295280Y-131272263D02*
X121342920Y-131367543D01*
X121342920Y-131367543D02*
X121390560Y-131415184D01*
X121390560Y-131415184D02*
X121485840Y-131462824D01*
X121485840Y-131462824D02*
X121676400Y-131462824D01*
X121676400Y-131462824D02*
X121771680Y-131415184D01*
X121771680Y-131415184D02*
X121819320Y-131367543D01*
X121819320Y-131367543D02*
X121866960Y-131272263D01*
X121866960Y-131272263D02*
X121866960Y-131081703D01*
X121866960Y-131081703D02*
X121819320Y-130986423D01*
X121819320Y-130986423D02*
X121771680Y-130938783D01*
X121771680Y-130938783D02*
X121676400Y-130891143D01*
%TO.C,J6*%
X160016666Y-93132619D02*
X160016666Y-93846904D01*
X160016666Y-93846904D02*
X159969047Y-93989761D01*
X159969047Y-93989761D02*
X159873809Y-94085000D01*
X159873809Y-94085000D02*
X159730952Y-94132619D01*
X159730952Y-94132619D02*
X159635714Y-94132619D01*
X160921428Y-93132619D02*
X160730952Y-93132619D01*
X160730952Y-93132619D02*
X160635714Y-93180238D01*
X160635714Y-93180238D02*
X160588095Y-93227857D01*
X160588095Y-93227857D02*
X160492857Y-93370714D01*
X160492857Y-93370714D02*
X160445238Y-93561190D01*
X160445238Y-93561190D02*
X160445238Y-93942142D01*
X160445238Y-93942142D02*
X160492857Y-94037380D01*
X160492857Y-94037380D02*
X160540476Y-94085000D01*
X160540476Y-94085000D02*
X160635714Y-94132619D01*
X160635714Y-94132619D02*
X160826190Y-94132619D01*
X160826190Y-94132619D02*
X160921428Y-94085000D01*
X160921428Y-94085000D02*
X160969047Y-94037380D01*
X160969047Y-94037380D02*
X161016666Y-93942142D01*
X161016666Y-93942142D02*
X161016666Y-93704047D01*
X161016666Y-93704047D02*
X160969047Y-93608809D01*
X160969047Y-93608809D02*
X160921428Y-93561190D01*
X160921428Y-93561190D02*
X160826190Y-93513571D01*
X160826190Y-93513571D02*
X160635714Y-93513571D01*
X160635714Y-93513571D02*
X160540476Y-93561190D01*
X160540476Y-93561190D02*
X160492857Y-93608809D01*
X160492857Y-93608809D02*
X160445238Y-93704047D01*
D13*
%TO.C,S1*%
X111351180Y-101365050D02*
X111532609Y-101425526D01*
X111532609Y-101425526D02*
X111834990Y-101425526D01*
X111834990Y-101425526D02*
X111955942Y-101365050D01*
X111955942Y-101365050D02*
X112016418Y-101304573D01*
X112016418Y-101304573D02*
X112076895Y-101183621D01*
X112076895Y-101183621D02*
X112076895Y-101062669D01*
X112076895Y-101062669D02*
X112016418Y-100941716D01*
X112016418Y-100941716D02*
X111955942Y-100881240D01*
X111955942Y-100881240D02*
X111834990Y-100820764D01*
X111834990Y-100820764D02*
X111593085Y-100760288D01*
X111593085Y-100760288D02*
X111472133Y-100699811D01*
X111472133Y-100699811D02*
X111411656Y-100639335D01*
X111411656Y-100639335D02*
X111351180Y-100518383D01*
X111351180Y-100518383D02*
X111351180Y-100397430D01*
X111351180Y-100397430D02*
X111411656Y-100276478D01*
X111411656Y-100276478D02*
X111472133Y-100216002D01*
X111472133Y-100216002D02*
X111593085Y-100155526D01*
X111593085Y-100155526D02*
X111895466Y-100155526D01*
X111895466Y-100155526D02*
X112076895Y-100216002D01*
X113286419Y-101425526D02*
X112560704Y-101425526D01*
X112923561Y-101425526D02*
X112923561Y-100155526D01*
X112923561Y-100155526D02*
X112802609Y-100336954D01*
X112802609Y-100336954D02*
X112681657Y-100457907D01*
X112681657Y-100457907D02*
X112560704Y-100518383D01*
D10*
%TO.C,J7*%
X128466666Y-116432619D02*
X128466666Y-117146904D01*
X128466666Y-117146904D02*
X128419047Y-117289761D01*
X128419047Y-117289761D02*
X128323809Y-117385000D01*
X128323809Y-117385000D02*
X128180952Y-117432619D01*
X128180952Y-117432619D02*
X128085714Y-117432619D01*
X128847619Y-116432619D02*
X129514285Y-116432619D01*
X129514285Y-116432619D02*
X129085714Y-117432619D01*
D14*
%TO.C,J3*%
X136145000Y-71855000D02*
X136145000Y-70525000D01*
X137475000Y-71855000D02*
X136145000Y-71855000D01*
X138745000Y-71855000D02*
X143885000Y-71855000D01*
X138745000Y-71855000D02*
X138745000Y-69255000D01*
X143885000Y-71855000D02*
X143885000Y-66655000D01*
X136145000Y-69255000D02*
X136145000Y-66655000D01*
X138745000Y-69255000D02*
X136145000Y-69255000D01*
X136145000Y-66655000D02*
X143885000Y-66655000D01*
%TO.C,J1*%
X127485000Y-90024200D02*
X128815000Y-90024200D01*
X127485000Y-91354200D02*
X127485000Y-90024200D01*
X127485000Y-92624200D02*
X127485000Y-115544200D01*
X127485000Y-92624200D02*
X130145000Y-92624200D01*
X127485000Y-115544200D02*
X130145000Y-115544200D01*
X130145000Y-92624200D02*
X130145000Y-115544200D01*
%TO.C,J2*%
X149670000Y-78070000D02*
X151000000Y-78070000D01*
X149670000Y-79400000D02*
X149670000Y-78070000D01*
X149670000Y-80670000D02*
X149670000Y-128990000D01*
X149670000Y-80670000D02*
X152270000Y-80670000D01*
X149670000Y-128990000D02*
X154870000Y-128990000D01*
X152270000Y-78070000D02*
X154870000Y-78070000D01*
X152270000Y-80670000D02*
X152270000Y-78070000D01*
X154870000Y-78070000D02*
X154870000Y-128990000D01*
%TO.C,J4*%
X95220000Y-94670000D02*
X96550000Y-94670000D01*
X95220000Y-96000000D02*
X95220000Y-94670000D01*
X95220000Y-97270000D02*
X95220000Y-104950000D01*
X95220000Y-97270000D02*
X97880000Y-97270000D01*
X95220000Y-104950000D02*
X97880000Y-104950000D01*
X97880000Y-97270000D02*
X97880000Y-104950000D01*
D15*
%TO.C,J5*%
X108750000Y-65650000D02*
X108750000Y-83850000D01*
X108750000Y-83850000D02*
X110722000Y-83850000D01*
X115078000Y-83850000D02*
X117922000Y-83850000D01*
X119040000Y-86160000D02*
X120310000Y-86160000D01*
X120310000Y-86160000D02*
X120310000Y-84890000D01*
X120310000Y-86160000D02*
X120310000Y-87430000D01*
X121580000Y-86160000D02*
X120310000Y-86160000D01*
X124250000Y-65650000D02*
X108750000Y-65650000D01*
X124250000Y-83850000D02*
X122278000Y-83850000D01*
X124250000Y-83850000D02*
X124250000Y-65650000D01*
%TO.C,J8*%
X125150000Y-135450000D02*
X125150000Y-117250000D01*
X125150000Y-117250000D02*
X123178000Y-117250000D01*
X118822000Y-117250000D02*
X115978000Y-117250000D01*
X114860000Y-114940000D02*
X113590000Y-114940000D01*
X113590000Y-114940000D02*
X113590000Y-116210000D01*
X113590000Y-114940000D02*
X113590000Y-113670000D01*
X112320000Y-114940000D02*
X113590000Y-114940000D01*
X109650000Y-135450000D02*
X125150000Y-135450000D01*
X109650000Y-117250000D02*
X111622000Y-117250000D01*
X109650000Y-117250000D02*
X109650000Y-135450000D01*
D14*
%TO.C,J6*%
X159020000Y-94670000D02*
X160350000Y-94670000D01*
X159020000Y-96000000D02*
X159020000Y-94670000D01*
X159020000Y-97270000D02*
X159020000Y-104950000D01*
X159020000Y-97270000D02*
X161680000Y-97270000D01*
X159020000Y-104950000D02*
X161680000Y-104950000D01*
X161680000Y-97270000D02*
X161680000Y-104950000D01*
D11*
%TO.C,S1*%
X109318800Y-96773000D02*
X115318800Y-96773000D01*
X109318800Y-104903000D02*
X109318800Y-96773000D01*
X112318800Y-105478000D02*
X112318800Y-105478000D01*
X112318800Y-105578000D02*
X112318800Y-105578000D01*
X115318800Y-96773000D02*
X115318800Y-104903000D01*
X115318800Y-104903000D02*
X109318800Y-104903000D01*
X112318800Y-105578000D02*
G75*
G03*
X112318800Y-105478000I0J50000D01*
G01*
X112318800Y-105478000D02*
G75*
G03*
X112318800Y-105578000I0J-50000D01*
G01*
D14*
%TO.C,J7*%
X127470000Y-117970000D02*
X128800000Y-117970000D01*
X127470000Y-119300000D02*
X127470000Y-117970000D01*
X127470000Y-120570000D02*
X127470000Y-133330000D01*
X127470000Y-120570000D02*
X130130000Y-120570000D01*
X127470000Y-133330000D02*
X130130000Y-133330000D01*
X130130000Y-120570000D02*
X130130000Y-133330000D01*
%TD*%
M02*
