M48
; DRILL file {KiCad 7.0.2-0} date 2024 February 16, Friday 15:53:19
; FORMAT={-:-/ absolute / metric / decimal}
; #@! TF.CreationDate,2024-02-16T15:53:19-05:00
; #@! TF.GenerationSoftware,Kicad,Pcbnew,7.0.2-0
; #@! TF.FileFunction,Plated,1,2,PTH
FMAT,2
METRIC
; #@! TA.AperFunction,Plated,PTH,ViaDrill
T1C0.400
; #@! TA.AperFunction,Plated,PTH,ComponentDrill
T2C0.600
; #@! TA.AperFunction,Plated,PTH,ComponentDrill
T3C1.000
; #@! TA.AperFunction,Plated,PTH,ComponentDrill
T4C1.090
; #@! TA.AperFunction,Plated,PTH,ComponentDrill
T5C2.700
%
G90
G05
T1
X129.8Y-84.4
X131.15Y-79.45
X131.7Y-82.3
X137.45Y-79.75
X137.546Y-76.048
X138.3Y-82.0
X138.5Y-75.75
X139.7Y-75.9
X145.186Y-67.869
X152.197Y-85.801
T3
X96.55Y-96.0
X96.55Y-98.54
X96.55Y-101.08
X96.55Y-103.62
X128.8Y-119.3
X128.8Y-121.84
X128.8Y-124.38
X128.8Y-126.92
X128.8Y-129.46
X128.8Y-132.0
X128.815Y-91.354
X128.815Y-93.894
X128.815Y-96.434
X128.815Y-98.974
X128.815Y-101.514
X128.815Y-104.054
X128.815Y-106.594
X128.815Y-109.134
X128.815Y-111.674
X128.815Y-114.214
X137.475Y-67.985
X137.475Y-70.525
X140.015Y-67.985
X140.015Y-70.525
X142.555Y-67.985
X142.555Y-70.525
X151.0Y-79.4
X151.0Y-81.94
X151.0Y-84.48
X151.0Y-87.02
X151.0Y-89.56
X151.0Y-92.1
X151.0Y-94.64
X151.0Y-97.18
X151.0Y-99.72
X151.0Y-102.26
X151.0Y-104.8
X151.0Y-107.34
X151.0Y-109.88
X151.0Y-112.42
X151.0Y-114.96
X151.0Y-117.5
X151.0Y-120.04
X151.0Y-122.58
X151.0Y-125.12
X151.0Y-127.66
X153.54Y-79.4
X153.54Y-81.94
X153.54Y-84.48
X153.54Y-87.02
X153.54Y-89.56
X153.54Y-92.1
X153.54Y-94.64
X153.54Y-97.18
X153.54Y-99.72
X153.54Y-102.26
X153.54Y-104.8
X153.54Y-107.34
X153.54Y-109.88
X153.54Y-112.42
X153.54Y-114.96
X153.54Y-117.5
X153.54Y-120.04
X153.54Y-122.58
X153.54Y-125.12
X153.54Y-127.66
X160.35Y-96.0
X160.35Y-98.54
X160.35Y-101.08
X160.35Y-103.62
T4
X112.319Y-98.298
X112.319Y-103.378
T5
X112.9Y-82.0
X113.8Y-119.1
X120.1Y-82.0
X121.0Y-119.1
T2
G00X109.75Y-75.45
M15
G01X109.75Y-76.55
M16
G05
G00X110.65Y-125.65
M15
G01X110.65Y-124.55
M16
G05
G00X123.25Y-75.45
M15
G01X123.25Y-76.55
M16
G05
G00X124.15Y-125.65
M15
G01X124.15Y-124.55
M16
G05
T0
M30
