%TF.GenerationSoftware,KiCad,Pcbnew,7.0.2-0*%
%TF.CreationDate,2024-02-16T15:53:20-05:00*%
%TF.ProjectId,Pi_HAT_V4,50695f48-4154-45f5-9634-2e6b69636164,rev?*%
%TF.SameCoordinates,Original*%
%TF.FileFunction,Drillmap*%
%TF.FilePolarity,Positive*%
%FSLAX45Y45*%
G04 Gerber Fmt 4.5, Leading zero omitted, Abs format (unit mm)*
G04 Created by KiCad (PCBNEW 7.0.2-0) date 2024-02-16 15:53:20*
%MOMM*%
%LPD*%
G01*
G04 APERTURE LIST*
%ADD10C,0.100000*%
%ADD11C,0.200000*%
%ADD12C,0.040000*%
%ADD13C,0.060000*%
%ADD14C,0.109000*%
%ADD15C,0.270000*%
G04 APERTURE END LIST*
D10*
X9446066Y-6476250D02*
X16315000Y-6473750D01*
X9446066Y-6476246D02*
G75*
G03*
X9296066Y-6626250I4J-150004D01*
G01*
X9310000Y-13450000D02*
X9296066Y-6626250D01*
X16316434Y-13598934D02*
G75*
G03*
X16466434Y-13448934I-4J150004D01*
G01*
X16465000Y-6623750D02*
X16466434Y-13448934D01*
X9310000Y-13450000D02*
G75*
G03*
X9460000Y-13600000I150000J0D01*
G01*
X16465000Y-6623750D02*
G75*
G03*
X16315000Y-6473750I-150000J0D01*
G01*
X16316434Y-13598934D02*
X9460000Y-13600000D01*
D11*
D12*
X12960000Y-8420000D02*
X13000000Y-8460000D01*
X13000000Y-8420000D02*
X12960000Y-8460000D01*
X13095000Y-7925000D02*
X13135000Y-7965000D01*
X13135000Y-7925000D02*
X13095000Y-7965000D01*
X13150000Y-8210000D02*
X13190000Y-8250000D01*
X13190000Y-8210000D02*
X13150000Y-8250000D01*
X13725000Y-7955000D02*
X13765000Y-7995000D01*
X13765000Y-7955000D02*
X13725000Y-7995000D01*
X13734599Y-7584813D02*
X13774599Y-7624813D01*
X13774599Y-7584813D02*
X13734599Y-7624813D01*
X13810000Y-8180000D02*
X13850000Y-8220000D01*
X13850000Y-8180000D02*
X13810000Y-8220000D01*
X13830000Y-7555000D02*
X13870000Y-7595000D01*
X13870000Y-7555000D02*
X13830000Y-7595000D01*
X13950000Y-7570000D02*
X13990000Y-7610000D01*
X13990000Y-7570000D02*
X13950000Y-7610000D01*
X14498640Y-6766880D02*
X14538640Y-6806880D01*
X14538640Y-6766880D02*
X14498640Y-6806880D01*
X15199680Y-8560120D02*
X15239680Y-8600120D01*
X15239680Y-8560120D02*
X15199680Y-8600120D01*
D13*
X11005000Y-7600000D02*
G75*
G03*
X11005000Y-7600000I-30000J0D01*
G01*
D11*
X10945000Y-7545000D02*
X10945000Y-7655000D01*
X10945000Y-7655000D02*
G75*
G03*
X11005000Y-7655000I30000J0D01*
G01*
X11005000Y-7655000D02*
X11005000Y-7545000D01*
X11005000Y-7545000D02*
G75*
G03*
X10945000Y-7545000I-30000J0D01*
G01*
D13*
X11095000Y-12510000D02*
G75*
G03*
X11095000Y-12510000I-30000J0D01*
G01*
D11*
X11095000Y-12565000D02*
X11095000Y-12455000D01*
X11095000Y-12455000D02*
G75*
G03*
X11035000Y-12455000I-30000J0D01*
G01*
X11035000Y-12455000D02*
X11035000Y-12565000D01*
X11035000Y-12565000D02*
G75*
G03*
X11095000Y-12565000I30000J0D01*
G01*
D13*
X12355000Y-7600000D02*
G75*
G03*
X12355000Y-7600000I-30000J0D01*
G01*
D11*
X12295000Y-7545000D02*
X12295000Y-7655000D01*
X12295000Y-7655000D02*
G75*
G03*
X12355000Y-7655000I30000J0D01*
G01*
X12355000Y-7655000D02*
X12355000Y-7545000D01*
X12355000Y-7545000D02*
G75*
G03*
X12295000Y-7545000I-30000J0D01*
G01*
D13*
X12445000Y-12510000D02*
G75*
G03*
X12445000Y-12510000I-30000J0D01*
G01*
D11*
X12445000Y-12565000D02*
X12445000Y-12455000D01*
X12445000Y-12455000D02*
G75*
G03*
X12385000Y-12455000I-30000J0D01*
G01*
X12385000Y-12455000D02*
X12385000Y-12565000D01*
X12385000Y-12565000D02*
G75*
G03*
X12445000Y-12565000I30000J0D01*
G01*
D10*
X9655000Y-9550000D02*
X9655000Y-9650000D01*
X9605000Y-9600000D02*
X9705000Y-9600000D01*
X9655000Y-9804000D02*
X9655000Y-9904000D01*
X9605000Y-9854000D02*
X9705000Y-9854000D01*
X9655000Y-10058000D02*
X9655000Y-10158000D01*
X9605000Y-10108000D02*
X9705000Y-10108000D01*
X9655000Y-10312000D02*
X9655000Y-10412000D01*
X9605000Y-10362000D02*
X9705000Y-10362000D01*
X12880000Y-11880000D02*
X12880000Y-11980000D01*
X12830000Y-11930000D02*
X12930000Y-11930000D01*
X12880000Y-12134000D02*
X12880000Y-12234000D01*
X12830000Y-12184000D02*
X12930000Y-12184000D01*
X12880000Y-12388000D02*
X12880000Y-12488000D01*
X12830000Y-12438000D02*
X12930000Y-12438000D01*
X12880000Y-12642000D02*
X12880000Y-12742000D01*
X12830000Y-12692000D02*
X12930000Y-12692000D01*
X12880000Y-12896000D02*
X12880000Y-12996000D01*
X12830000Y-12946000D02*
X12930000Y-12946000D01*
X12880000Y-13150000D02*
X12880000Y-13250000D01*
X12830000Y-13200000D02*
X12930000Y-13200000D01*
X12881500Y-9085420D02*
X12881500Y-9185420D01*
X12831500Y-9135420D02*
X12931500Y-9135420D01*
X12881500Y-9339420D02*
X12881500Y-9439420D01*
X12831500Y-9389420D02*
X12931500Y-9389420D01*
X12881500Y-9593420D02*
X12881500Y-9693420D01*
X12831500Y-9643420D02*
X12931500Y-9643420D01*
X12881500Y-9847420D02*
X12881500Y-9947420D01*
X12831500Y-9897420D02*
X12931500Y-9897420D01*
X12881500Y-10101420D02*
X12881500Y-10201420D01*
X12831500Y-10151420D02*
X12931500Y-10151420D01*
X12881500Y-10355420D02*
X12881500Y-10455420D01*
X12831500Y-10405420D02*
X12931500Y-10405420D01*
X12881500Y-10609420D02*
X12881500Y-10709420D01*
X12831500Y-10659420D02*
X12931500Y-10659420D01*
X12881500Y-10863420D02*
X12881500Y-10963420D01*
X12831500Y-10913420D02*
X12931500Y-10913420D01*
X12881500Y-11117420D02*
X12881500Y-11217420D01*
X12831500Y-11167420D02*
X12931500Y-11167420D01*
X12881500Y-11371420D02*
X12881500Y-11471420D01*
X12831500Y-11421420D02*
X12931500Y-11421420D01*
X13747500Y-6748500D02*
X13747500Y-6848500D01*
X13697500Y-6798500D02*
X13797500Y-6798500D01*
X13747500Y-7002500D02*
X13747500Y-7102500D01*
X13697500Y-7052500D02*
X13797500Y-7052500D01*
X14001500Y-6748500D02*
X14001500Y-6848500D01*
X13951500Y-6798500D02*
X14051500Y-6798500D01*
X14001500Y-7002500D02*
X14001500Y-7102500D01*
X13951500Y-7052500D02*
X14051500Y-7052500D01*
X14255500Y-6748500D02*
X14255500Y-6848500D01*
X14205500Y-6798500D02*
X14305500Y-6798500D01*
X14255500Y-7002500D02*
X14255500Y-7102500D01*
X14205500Y-7052500D02*
X14305500Y-7052500D01*
X15100000Y-7890000D02*
X15100000Y-7990000D01*
X15050000Y-7940000D02*
X15150000Y-7940000D01*
X15100000Y-8144000D02*
X15100000Y-8244000D01*
X15050000Y-8194000D02*
X15150000Y-8194000D01*
X15100000Y-8398000D02*
X15100000Y-8498000D01*
X15050000Y-8448000D02*
X15150000Y-8448000D01*
X15100000Y-8652000D02*
X15100000Y-8752000D01*
X15050000Y-8702000D02*
X15150000Y-8702000D01*
X15100000Y-8906000D02*
X15100000Y-9006000D01*
X15050000Y-8956000D02*
X15150000Y-8956000D01*
X15100000Y-9160000D02*
X15100000Y-9260000D01*
X15050000Y-9210000D02*
X15150000Y-9210000D01*
X15100000Y-9414000D02*
X15100000Y-9514000D01*
X15050000Y-9464000D02*
X15150000Y-9464000D01*
X15100000Y-9668000D02*
X15100000Y-9768000D01*
X15050000Y-9718000D02*
X15150000Y-9718000D01*
X15100000Y-9922000D02*
X15100000Y-10022000D01*
X15050000Y-9972000D02*
X15150000Y-9972000D01*
X15100000Y-10176000D02*
X15100000Y-10276000D01*
X15050000Y-10226000D02*
X15150000Y-10226000D01*
X15100000Y-10430000D02*
X15100000Y-10530000D01*
X15050000Y-10480000D02*
X15150000Y-10480000D01*
X15100000Y-10684000D02*
X15100000Y-10784000D01*
X15050000Y-10734000D02*
X15150000Y-10734000D01*
X15100000Y-10938000D02*
X15100000Y-11038000D01*
X15050000Y-10988000D02*
X15150000Y-10988000D01*
X15100000Y-11192000D02*
X15100000Y-11292000D01*
X15050000Y-11242000D02*
X15150000Y-11242000D01*
X15100000Y-11446000D02*
X15100000Y-11546000D01*
X15050000Y-11496000D02*
X15150000Y-11496000D01*
X15100000Y-11700000D02*
X15100000Y-11800000D01*
X15050000Y-11750000D02*
X15150000Y-11750000D01*
X15100000Y-11954000D02*
X15100000Y-12054000D01*
X15050000Y-12004000D02*
X15150000Y-12004000D01*
X15100000Y-12208000D02*
X15100000Y-12308000D01*
X15050000Y-12258000D02*
X15150000Y-12258000D01*
X15100000Y-12462000D02*
X15100000Y-12562000D01*
X15050000Y-12512000D02*
X15150000Y-12512000D01*
X15100000Y-12716000D02*
X15100000Y-12816000D01*
X15050000Y-12766000D02*
X15150000Y-12766000D01*
X15354000Y-7890000D02*
X15354000Y-7990000D01*
X15304000Y-7940000D02*
X15404000Y-7940000D01*
X15354000Y-8144000D02*
X15354000Y-8244000D01*
X15304000Y-8194000D02*
X15404000Y-8194000D01*
X15354000Y-8398000D02*
X15354000Y-8498000D01*
X15304000Y-8448000D02*
X15404000Y-8448000D01*
X15354000Y-8652000D02*
X15354000Y-8752000D01*
X15304000Y-8702000D02*
X15404000Y-8702000D01*
X15354000Y-8906000D02*
X15354000Y-9006000D01*
X15304000Y-8956000D02*
X15404000Y-8956000D01*
X15354000Y-9160000D02*
X15354000Y-9260000D01*
X15304000Y-9210000D02*
X15404000Y-9210000D01*
X15354000Y-9414000D02*
X15354000Y-9514000D01*
X15304000Y-9464000D02*
X15404000Y-9464000D01*
X15354000Y-9668000D02*
X15354000Y-9768000D01*
X15304000Y-9718000D02*
X15404000Y-9718000D01*
X15354000Y-9922000D02*
X15354000Y-10022000D01*
X15304000Y-9972000D02*
X15404000Y-9972000D01*
X15354000Y-10176000D02*
X15354000Y-10276000D01*
X15304000Y-10226000D02*
X15404000Y-10226000D01*
X15354000Y-10430000D02*
X15354000Y-10530000D01*
X15304000Y-10480000D02*
X15404000Y-10480000D01*
X15354000Y-10684000D02*
X15354000Y-10784000D01*
X15304000Y-10734000D02*
X15404000Y-10734000D01*
X15354000Y-10938000D02*
X15354000Y-11038000D01*
X15304000Y-10988000D02*
X15404000Y-10988000D01*
X15354000Y-11192000D02*
X15354000Y-11292000D01*
X15304000Y-11242000D02*
X15404000Y-11242000D01*
X15354000Y-11446000D02*
X15354000Y-11546000D01*
X15304000Y-11496000D02*
X15404000Y-11496000D01*
X15354000Y-11700000D02*
X15354000Y-11800000D01*
X15304000Y-11750000D02*
X15404000Y-11750000D01*
X15354000Y-11954000D02*
X15354000Y-12054000D01*
X15304000Y-12004000D02*
X15404000Y-12004000D01*
X15354000Y-12208000D02*
X15354000Y-12308000D01*
X15304000Y-12258000D02*
X15404000Y-12258000D01*
X15354000Y-12462000D02*
X15354000Y-12562000D01*
X15304000Y-12512000D02*
X15404000Y-12512000D01*
X15354000Y-12716000D02*
X15354000Y-12816000D01*
X15304000Y-12766000D02*
X15404000Y-12766000D01*
X16035000Y-9550000D02*
X16035000Y-9650000D01*
X15985000Y-9600000D02*
X16085000Y-9600000D01*
X16035000Y-9804000D02*
X16035000Y-9904000D01*
X15985000Y-9854000D02*
X16085000Y-9854000D01*
X16035000Y-10058000D02*
X16035000Y-10158000D01*
X15985000Y-10108000D02*
X16085000Y-10108000D01*
X16035000Y-10312000D02*
X16035000Y-10412000D01*
X15985000Y-10362000D02*
X16085000Y-10362000D01*
D14*
X11270418Y-9868338D02*
X11270418Y-9791262D01*
X11193342Y-9791262D01*
X11193342Y-9868338D01*
X11270418Y-9868338D01*
X11270418Y-10376338D02*
X11270418Y-10299262D01*
X11193342Y-10299262D01*
X11193342Y-10376338D01*
X11270418Y-10376338D01*
D15*
X11290000Y-8335000D02*
X11425000Y-8200000D01*
X11290000Y-8065000D01*
X11155000Y-8200000D01*
X11290000Y-8335000D01*
X11380000Y-12045000D02*
X11515000Y-11910000D01*
X11380000Y-11775000D01*
X11245000Y-11910000D01*
X11380000Y-12045000D01*
X12010000Y-8335000D02*
X12145000Y-8200000D01*
X12010000Y-8065000D01*
X11875000Y-8200000D01*
X12010000Y-8335000D01*
X12100000Y-12045000D02*
X12235000Y-11910000D01*
X12100000Y-11775000D01*
X11965000Y-11910000D01*
X12100000Y-12045000D01*
D11*
X9538685Y-13917524D02*
X9538685Y-13717524D01*
X9538685Y-13717524D02*
X9586304Y-13717524D01*
X9586304Y-13717524D02*
X9614876Y-13727048D01*
X9614876Y-13727048D02*
X9633923Y-13746095D01*
X9633923Y-13746095D02*
X9643447Y-13765143D01*
X9643447Y-13765143D02*
X9652971Y-13803238D01*
X9652971Y-13803238D02*
X9652971Y-13831809D01*
X9652971Y-13831809D02*
X9643447Y-13869905D01*
X9643447Y-13869905D02*
X9633923Y-13888952D01*
X9633923Y-13888952D02*
X9614876Y-13908000D01*
X9614876Y-13908000D02*
X9586304Y-13917524D01*
X9586304Y-13917524D02*
X9538685Y-13917524D01*
X9738685Y-13917524D02*
X9738685Y-13784190D01*
X9738685Y-13822286D02*
X9748209Y-13803238D01*
X9748209Y-13803238D02*
X9757733Y-13793714D01*
X9757733Y-13793714D02*
X9776780Y-13784190D01*
X9776780Y-13784190D02*
X9795828Y-13784190D01*
X9862495Y-13917524D02*
X9862495Y-13784190D01*
X9862495Y-13717524D02*
X9852971Y-13727048D01*
X9852971Y-13727048D02*
X9862495Y-13736571D01*
X9862495Y-13736571D02*
X9872018Y-13727048D01*
X9872018Y-13727048D02*
X9862495Y-13717524D01*
X9862495Y-13717524D02*
X9862495Y-13736571D01*
X9986304Y-13917524D02*
X9967256Y-13908000D01*
X9967256Y-13908000D02*
X9957733Y-13888952D01*
X9957733Y-13888952D02*
X9957733Y-13717524D01*
X10091066Y-13917524D02*
X10072018Y-13908000D01*
X10072018Y-13908000D02*
X10062495Y-13888952D01*
X10062495Y-13888952D02*
X10062495Y-13717524D01*
X10319637Y-13917524D02*
X10319637Y-13717524D01*
X10319637Y-13717524D02*
X10386304Y-13860381D01*
X10386304Y-13860381D02*
X10452971Y-13717524D01*
X10452971Y-13717524D02*
X10452971Y-13917524D01*
X10633923Y-13917524D02*
X10633923Y-13812762D01*
X10633923Y-13812762D02*
X10624399Y-13793714D01*
X10624399Y-13793714D02*
X10605352Y-13784190D01*
X10605352Y-13784190D02*
X10567256Y-13784190D01*
X10567256Y-13784190D02*
X10548209Y-13793714D01*
X10633923Y-13908000D02*
X10614876Y-13917524D01*
X10614876Y-13917524D02*
X10567256Y-13917524D01*
X10567256Y-13917524D02*
X10548209Y-13908000D01*
X10548209Y-13908000D02*
X10538685Y-13888952D01*
X10538685Y-13888952D02*
X10538685Y-13869905D01*
X10538685Y-13869905D02*
X10548209Y-13850857D01*
X10548209Y-13850857D02*
X10567256Y-13841333D01*
X10567256Y-13841333D02*
X10614876Y-13841333D01*
X10614876Y-13841333D02*
X10633923Y-13831809D01*
X10729161Y-13784190D02*
X10729161Y-13984190D01*
X10729161Y-13793714D02*
X10748209Y-13784190D01*
X10748209Y-13784190D02*
X10786304Y-13784190D01*
X10786304Y-13784190D02*
X10805352Y-13793714D01*
X10805352Y-13793714D02*
X10814876Y-13803238D01*
X10814876Y-13803238D02*
X10824399Y-13822286D01*
X10824399Y-13822286D02*
X10824399Y-13879428D01*
X10824399Y-13879428D02*
X10814876Y-13898476D01*
X10814876Y-13898476D02*
X10805352Y-13908000D01*
X10805352Y-13908000D02*
X10786304Y-13917524D01*
X10786304Y-13917524D02*
X10748209Y-13917524D01*
X10748209Y-13917524D02*
X10729161Y-13908000D01*
X10910114Y-13898476D02*
X10919637Y-13908000D01*
X10919637Y-13908000D02*
X10910114Y-13917524D01*
X10910114Y-13917524D02*
X10900590Y-13908000D01*
X10900590Y-13908000D02*
X10910114Y-13898476D01*
X10910114Y-13898476D02*
X10910114Y-13917524D01*
X10910114Y-13793714D02*
X10919637Y-13803238D01*
X10919637Y-13803238D02*
X10910114Y-13812762D01*
X10910114Y-13812762D02*
X10900590Y-13803238D01*
X10900590Y-13803238D02*
X10910114Y-13793714D01*
X10910114Y-13793714D02*
X10910114Y-13812762D01*
D12*
X9251066Y-14225000D02*
X9291066Y-14265000D01*
X9291066Y-14225000D02*
X9251066Y-14265000D01*
D11*
X9576780Y-14137524D02*
X9595828Y-14137524D01*
X9595828Y-14137524D02*
X9614876Y-14147048D01*
X9614876Y-14147048D02*
X9624399Y-14156571D01*
X9624399Y-14156571D02*
X9633923Y-14175619D01*
X9633923Y-14175619D02*
X9643447Y-14213714D01*
X9643447Y-14213714D02*
X9643447Y-14261333D01*
X9643447Y-14261333D02*
X9633923Y-14299428D01*
X9633923Y-14299428D02*
X9624399Y-14318476D01*
X9624399Y-14318476D02*
X9614876Y-14328000D01*
X9614876Y-14328000D02*
X9595828Y-14337524D01*
X9595828Y-14337524D02*
X9576780Y-14337524D01*
X9576780Y-14337524D02*
X9557733Y-14328000D01*
X9557733Y-14328000D02*
X9548209Y-14318476D01*
X9548209Y-14318476D02*
X9538685Y-14299428D01*
X9538685Y-14299428D02*
X9529161Y-14261333D01*
X9529161Y-14261333D02*
X9529161Y-14213714D01*
X9529161Y-14213714D02*
X9538685Y-14175619D01*
X9538685Y-14175619D02*
X9548209Y-14156571D01*
X9548209Y-14156571D02*
X9557733Y-14147048D01*
X9557733Y-14147048D02*
X9576780Y-14137524D01*
X9729161Y-14318476D02*
X9738685Y-14328000D01*
X9738685Y-14328000D02*
X9729161Y-14337524D01*
X9729161Y-14337524D02*
X9719637Y-14328000D01*
X9719637Y-14328000D02*
X9729161Y-14318476D01*
X9729161Y-14318476D02*
X9729161Y-14337524D01*
X9910114Y-14204190D02*
X9910114Y-14337524D01*
X9862495Y-14128000D02*
X9814876Y-14270857D01*
X9814876Y-14270857D02*
X9938685Y-14270857D01*
X10052971Y-14137524D02*
X10072018Y-14137524D01*
X10072018Y-14137524D02*
X10091066Y-14147048D01*
X10091066Y-14147048D02*
X10100590Y-14156571D01*
X10100590Y-14156571D02*
X10110114Y-14175619D01*
X10110114Y-14175619D02*
X10119637Y-14213714D01*
X10119637Y-14213714D02*
X10119637Y-14261333D01*
X10119637Y-14261333D02*
X10110114Y-14299428D01*
X10110114Y-14299428D02*
X10100590Y-14318476D01*
X10100590Y-14318476D02*
X10091066Y-14328000D01*
X10091066Y-14328000D02*
X10072018Y-14337524D01*
X10072018Y-14337524D02*
X10052971Y-14337524D01*
X10052971Y-14337524D02*
X10033923Y-14328000D01*
X10033923Y-14328000D02*
X10024399Y-14318476D01*
X10024399Y-14318476D02*
X10014876Y-14299428D01*
X10014876Y-14299428D02*
X10005352Y-14261333D01*
X10005352Y-14261333D02*
X10005352Y-14213714D01*
X10005352Y-14213714D02*
X10014876Y-14175619D01*
X10014876Y-14175619D02*
X10024399Y-14156571D01*
X10024399Y-14156571D02*
X10033923Y-14147048D01*
X10033923Y-14147048D02*
X10052971Y-14137524D01*
X10243447Y-14137524D02*
X10262495Y-14137524D01*
X10262495Y-14137524D02*
X10281542Y-14147048D01*
X10281542Y-14147048D02*
X10291066Y-14156571D01*
X10291066Y-14156571D02*
X10300590Y-14175619D01*
X10300590Y-14175619D02*
X10310114Y-14213714D01*
X10310114Y-14213714D02*
X10310114Y-14261333D01*
X10310114Y-14261333D02*
X10300590Y-14299428D01*
X10300590Y-14299428D02*
X10291066Y-14318476D01*
X10291066Y-14318476D02*
X10281542Y-14328000D01*
X10281542Y-14328000D02*
X10262495Y-14337524D01*
X10262495Y-14337524D02*
X10243447Y-14337524D01*
X10243447Y-14337524D02*
X10224399Y-14328000D01*
X10224399Y-14328000D02*
X10214876Y-14318476D01*
X10214876Y-14318476D02*
X10205352Y-14299428D01*
X10205352Y-14299428D02*
X10195828Y-14261333D01*
X10195828Y-14261333D02*
X10195828Y-14213714D01*
X10195828Y-14213714D02*
X10205352Y-14175619D01*
X10205352Y-14175619D02*
X10214876Y-14156571D01*
X10214876Y-14156571D02*
X10224399Y-14147048D01*
X10224399Y-14147048D02*
X10243447Y-14137524D01*
X10395828Y-14337524D02*
X10395828Y-14204190D01*
X10395828Y-14223238D02*
X10405352Y-14213714D01*
X10405352Y-14213714D02*
X10424399Y-14204190D01*
X10424399Y-14204190D02*
X10452971Y-14204190D01*
X10452971Y-14204190D02*
X10472018Y-14213714D01*
X10472018Y-14213714D02*
X10481542Y-14232762D01*
X10481542Y-14232762D02*
X10481542Y-14337524D01*
X10481542Y-14232762D02*
X10491066Y-14213714D01*
X10491066Y-14213714D02*
X10510114Y-14204190D01*
X10510114Y-14204190D02*
X10538685Y-14204190D01*
X10538685Y-14204190D02*
X10557733Y-14213714D01*
X10557733Y-14213714D02*
X10567257Y-14232762D01*
X10567257Y-14232762D02*
X10567257Y-14337524D01*
X10662495Y-14337524D02*
X10662495Y-14204190D01*
X10662495Y-14223238D02*
X10672018Y-14213714D01*
X10672018Y-14213714D02*
X10691066Y-14204190D01*
X10691066Y-14204190D02*
X10719638Y-14204190D01*
X10719638Y-14204190D02*
X10738685Y-14213714D01*
X10738685Y-14213714D02*
X10748209Y-14232762D01*
X10748209Y-14232762D02*
X10748209Y-14337524D01*
X10748209Y-14232762D02*
X10757733Y-14213714D01*
X10757733Y-14213714D02*
X10776780Y-14204190D01*
X10776780Y-14204190D02*
X10805352Y-14204190D01*
X10805352Y-14204190D02*
X10824399Y-14213714D01*
X10824399Y-14213714D02*
X10833923Y-14232762D01*
X10833923Y-14232762D02*
X10833923Y-14337524D01*
X11224399Y-14128000D02*
X11052971Y-14385143D01*
X11481542Y-14137524D02*
X11500590Y-14137524D01*
X11500590Y-14137524D02*
X11519638Y-14147048D01*
X11519638Y-14147048D02*
X11529161Y-14156571D01*
X11529161Y-14156571D02*
X11538685Y-14175619D01*
X11538685Y-14175619D02*
X11548209Y-14213714D01*
X11548209Y-14213714D02*
X11548209Y-14261333D01*
X11548209Y-14261333D02*
X11538685Y-14299428D01*
X11538685Y-14299428D02*
X11529161Y-14318476D01*
X11529161Y-14318476D02*
X11519638Y-14328000D01*
X11519638Y-14328000D02*
X11500590Y-14337524D01*
X11500590Y-14337524D02*
X11481542Y-14337524D01*
X11481542Y-14337524D02*
X11462495Y-14328000D01*
X11462495Y-14328000D02*
X11452971Y-14318476D01*
X11452971Y-14318476D02*
X11443447Y-14299428D01*
X11443447Y-14299428D02*
X11433923Y-14261333D01*
X11433923Y-14261333D02*
X11433923Y-14213714D01*
X11433923Y-14213714D02*
X11443447Y-14175619D01*
X11443447Y-14175619D02*
X11452971Y-14156571D01*
X11452971Y-14156571D02*
X11462495Y-14147048D01*
X11462495Y-14147048D02*
X11481542Y-14137524D01*
X11633923Y-14318476D02*
X11643447Y-14328000D01*
X11643447Y-14328000D02*
X11633923Y-14337524D01*
X11633923Y-14337524D02*
X11624399Y-14328000D01*
X11624399Y-14328000D02*
X11633923Y-14318476D01*
X11633923Y-14318476D02*
X11633923Y-14337524D01*
X11767257Y-14137524D02*
X11786304Y-14137524D01*
X11786304Y-14137524D02*
X11805352Y-14147048D01*
X11805352Y-14147048D02*
X11814876Y-14156571D01*
X11814876Y-14156571D02*
X11824399Y-14175619D01*
X11824399Y-14175619D02*
X11833923Y-14213714D01*
X11833923Y-14213714D02*
X11833923Y-14261333D01*
X11833923Y-14261333D02*
X11824399Y-14299428D01*
X11824399Y-14299428D02*
X11814876Y-14318476D01*
X11814876Y-14318476D02*
X11805352Y-14328000D01*
X11805352Y-14328000D02*
X11786304Y-14337524D01*
X11786304Y-14337524D02*
X11767257Y-14337524D01*
X11767257Y-14337524D02*
X11748209Y-14328000D01*
X11748209Y-14328000D02*
X11738685Y-14318476D01*
X11738685Y-14318476D02*
X11729161Y-14299428D01*
X11729161Y-14299428D02*
X11719638Y-14261333D01*
X11719638Y-14261333D02*
X11719638Y-14213714D01*
X11719638Y-14213714D02*
X11729161Y-14175619D01*
X11729161Y-14175619D02*
X11738685Y-14156571D01*
X11738685Y-14156571D02*
X11748209Y-14147048D01*
X11748209Y-14147048D02*
X11767257Y-14137524D01*
X12024399Y-14337524D02*
X11910114Y-14337524D01*
X11967257Y-14337524D02*
X11967257Y-14137524D01*
X11967257Y-14137524D02*
X11948209Y-14166095D01*
X11948209Y-14166095D02*
X11929161Y-14185143D01*
X11929161Y-14185143D02*
X11910114Y-14194667D01*
X12205352Y-14137524D02*
X12110114Y-14137524D01*
X12110114Y-14137524D02*
X12100590Y-14232762D01*
X12100590Y-14232762D02*
X12110114Y-14223238D01*
X12110114Y-14223238D02*
X12129161Y-14213714D01*
X12129161Y-14213714D02*
X12176780Y-14213714D01*
X12176780Y-14213714D02*
X12195828Y-14223238D01*
X12195828Y-14223238D02*
X12205352Y-14232762D01*
X12205352Y-14232762D02*
X12214876Y-14251809D01*
X12214876Y-14251809D02*
X12214876Y-14299428D01*
X12214876Y-14299428D02*
X12205352Y-14318476D01*
X12205352Y-14318476D02*
X12195828Y-14328000D01*
X12195828Y-14328000D02*
X12176780Y-14337524D01*
X12176780Y-14337524D02*
X12129161Y-14337524D01*
X12129161Y-14337524D02*
X12110114Y-14328000D01*
X12110114Y-14328000D02*
X12100590Y-14318476D01*
X12281542Y-14137524D02*
X12414876Y-14137524D01*
X12414876Y-14137524D02*
X12329161Y-14337524D01*
X12481542Y-14137524D02*
X12481542Y-14175619D01*
X12557733Y-14137524D02*
X12557733Y-14175619D01*
X12852971Y-14413714D02*
X12843447Y-14404190D01*
X12843447Y-14404190D02*
X12824400Y-14375619D01*
X12824400Y-14375619D02*
X12814876Y-14356571D01*
X12814876Y-14356571D02*
X12805352Y-14328000D01*
X12805352Y-14328000D02*
X12795828Y-14280381D01*
X12795828Y-14280381D02*
X12795828Y-14242286D01*
X12795828Y-14242286D02*
X12805352Y-14194667D01*
X12805352Y-14194667D02*
X12814876Y-14166095D01*
X12814876Y-14166095D02*
X12824400Y-14147048D01*
X12824400Y-14147048D02*
X12843447Y-14118476D01*
X12843447Y-14118476D02*
X12852971Y-14108952D01*
X13033923Y-14337524D02*
X12919638Y-14337524D01*
X12976780Y-14337524D02*
X12976780Y-14137524D01*
X12976780Y-14137524D02*
X12957733Y-14166095D01*
X12957733Y-14166095D02*
X12938685Y-14185143D01*
X12938685Y-14185143D02*
X12919638Y-14194667D01*
X13157733Y-14137524D02*
X13176781Y-14137524D01*
X13176781Y-14137524D02*
X13195828Y-14147048D01*
X13195828Y-14147048D02*
X13205352Y-14156571D01*
X13205352Y-14156571D02*
X13214876Y-14175619D01*
X13214876Y-14175619D02*
X13224400Y-14213714D01*
X13224400Y-14213714D02*
X13224400Y-14261333D01*
X13224400Y-14261333D02*
X13214876Y-14299428D01*
X13214876Y-14299428D02*
X13205352Y-14318476D01*
X13205352Y-14318476D02*
X13195828Y-14328000D01*
X13195828Y-14328000D02*
X13176781Y-14337524D01*
X13176781Y-14337524D02*
X13157733Y-14337524D01*
X13157733Y-14337524D02*
X13138685Y-14328000D01*
X13138685Y-14328000D02*
X13129161Y-14318476D01*
X13129161Y-14318476D02*
X13119638Y-14299428D01*
X13119638Y-14299428D02*
X13110114Y-14261333D01*
X13110114Y-14261333D02*
X13110114Y-14213714D01*
X13110114Y-14213714D02*
X13119638Y-14175619D01*
X13119638Y-14175619D02*
X13129161Y-14156571D01*
X13129161Y-14156571D02*
X13138685Y-14147048D01*
X13138685Y-14147048D02*
X13157733Y-14137524D01*
X13462495Y-14337524D02*
X13462495Y-14137524D01*
X13548209Y-14337524D02*
X13548209Y-14232762D01*
X13548209Y-14232762D02*
X13538685Y-14213714D01*
X13538685Y-14213714D02*
X13519638Y-14204190D01*
X13519638Y-14204190D02*
X13491066Y-14204190D01*
X13491066Y-14204190D02*
X13472019Y-14213714D01*
X13472019Y-14213714D02*
X13462495Y-14223238D01*
X13672019Y-14337524D02*
X13652971Y-14328000D01*
X13652971Y-14328000D02*
X13643447Y-14318476D01*
X13643447Y-14318476D02*
X13633923Y-14299428D01*
X13633923Y-14299428D02*
X13633923Y-14242286D01*
X13633923Y-14242286D02*
X13643447Y-14223238D01*
X13643447Y-14223238D02*
X13652971Y-14213714D01*
X13652971Y-14213714D02*
X13672019Y-14204190D01*
X13672019Y-14204190D02*
X13700590Y-14204190D01*
X13700590Y-14204190D02*
X13719638Y-14213714D01*
X13719638Y-14213714D02*
X13729162Y-14223238D01*
X13729162Y-14223238D02*
X13738685Y-14242286D01*
X13738685Y-14242286D02*
X13738685Y-14299428D01*
X13738685Y-14299428D02*
X13729162Y-14318476D01*
X13729162Y-14318476D02*
X13719638Y-14328000D01*
X13719638Y-14328000D02*
X13700590Y-14337524D01*
X13700590Y-14337524D02*
X13672019Y-14337524D01*
X13852971Y-14337524D02*
X13833923Y-14328000D01*
X13833923Y-14328000D02*
X13824400Y-14308952D01*
X13824400Y-14308952D02*
X13824400Y-14137524D01*
X14005352Y-14328000D02*
X13986304Y-14337524D01*
X13986304Y-14337524D02*
X13948209Y-14337524D01*
X13948209Y-14337524D02*
X13929162Y-14328000D01*
X13929162Y-14328000D02*
X13919638Y-14308952D01*
X13919638Y-14308952D02*
X13919638Y-14232762D01*
X13919638Y-14232762D02*
X13929162Y-14213714D01*
X13929162Y-14213714D02*
X13948209Y-14204190D01*
X13948209Y-14204190D02*
X13986304Y-14204190D01*
X13986304Y-14204190D02*
X14005352Y-14213714D01*
X14005352Y-14213714D02*
X14014876Y-14232762D01*
X14014876Y-14232762D02*
X14014876Y-14251809D01*
X14014876Y-14251809D02*
X13919638Y-14270857D01*
X14091066Y-14328000D02*
X14110114Y-14337524D01*
X14110114Y-14337524D02*
X14148209Y-14337524D01*
X14148209Y-14337524D02*
X14167257Y-14328000D01*
X14167257Y-14328000D02*
X14176781Y-14308952D01*
X14176781Y-14308952D02*
X14176781Y-14299428D01*
X14176781Y-14299428D02*
X14167257Y-14280381D01*
X14167257Y-14280381D02*
X14148209Y-14270857D01*
X14148209Y-14270857D02*
X14119638Y-14270857D01*
X14119638Y-14270857D02*
X14100590Y-14261333D01*
X14100590Y-14261333D02*
X14091066Y-14242286D01*
X14091066Y-14242286D02*
X14091066Y-14232762D01*
X14091066Y-14232762D02*
X14100590Y-14213714D01*
X14100590Y-14213714D02*
X14119638Y-14204190D01*
X14119638Y-14204190D02*
X14148209Y-14204190D01*
X14148209Y-14204190D02*
X14167257Y-14213714D01*
X14243447Y-14413714D02*
X14252971Y-14404190D01*
X14252971Y-14404190D02*
X14272019Y-14375619D01*
X14272019Y-14375619D02*
X14281543Y-14356571D01*
X14281543Y-14356571D02*
X14291066Y-14328000D01*
X14291066Y-14328000D02*
X14300590Y-14280381D01*
X14300590Y-14280381D02*
X14300590Y-14242286D01*
X14300590Y-14242286D02*
X14291066Y-14194667D01*
X14291066Y-14194667D02*
X14281543Y-14166095D01*
X14281543Y-14166095D02*
X14272019Y-14147048D01*
X14272019Y-14147048D02*
X14252971Y-14118476D01*
X14252971Y-14118476D02*
X14243447Y-14108952D01*
D13*
X9291066Y-14509000D02*
G75*
G03*
X9291066Y-14509000I-30000J0D01*
G01*
D11*
X9576780Y-14401524D02*
X9595828Y-14401524D01*
X9595828Y-14401524D02*
X9614876Y-14411048D01*
X9614876Y-14411048D02*
X9624399Y-14420571D01*
X9624399Y-14420571D02*
X9633923Y-14439619D01*
X9633923Y-14439619D02*
X9643447Y-14477714D01*
X9643447Y-14477714D02*
X9643447Y-14525333D01*
X9643447Y-14525333D02*
X9633923Y-14563428D01*
X9633923Y-14563428D02*
X9624399Y-14582476D01*
X9624399Y-14582476D02*
X9614876Y-14592000D01*
X9614876Y-14592000D02*
X9595828Y-14601524D01*
X9595828Y-14601524D02*
X9576780Y-14601524D01*
X9576780Y-14601524D02*
X9557733Y-14592000D01*
X9557733Y-14592000D02*
X9548209Y-14582476D01*
X9548209Y-14582476D02*
X9538685Y-14563428D01*
X9538685Y-14563428D02*
X9529161Y-14525333D01*
X9529161Y-14525333D02*
X9529161Y-14477714D01*
X9529161Y-14477714D02*
X9538685Y-14439619D01*
X9538685Y-14439619D02*
X9548209Y-14420571D01*
X9548209Y-14420571D02*
X9557733Y-14411048D01*
X9557733Y-14411048D02*
X9576780Y-14401524D01*
X9729161Y-14582476D02*
X9738685Y-14592000D01*
X9738685Y-14592000D02*
X9729161Y-14601524D01*
X9729161Y-14601524D02*
X9719637Y-14592000D01*
X9719637Y-14592000D02*
X9729161Y-14582476D01*
X9729161Y-14582476D02*
X9729161Y-14601524D01*
X9910114Y-14401524D02*
X9872018Y-14401524D01*
X9872018Y-14401524D02*
X9852971Y-14411048D01*
X9852971Y-14411048D02*
X9843447Y-14420571D01*
X9843447Y-14420571D02*
X9824399Y-14449143D01*
X9824399Y-14449143D02*
X9814876Y-14487238D01*
X9814876Y-14487238D02*
X9814876Y-14563428D01*
X9814876Y-14563428D02*
X9824399Y-14582476D01*
X9824399Y-14582476D02*
X9833923Y-14592000D01*
X9833923Y-14592000D02*
X9852971Y-14601524D01*
X9852971Y-14601524D02*
X9891066Y-14601524D01*
X9891066Y-14601524D02*
X9910114Y-14592000D01*
X9910114Y-14592000D02*
X9919637Y-14582476D01*
X9919637Y-14582476D02*
X9929161Y-14563428D01*
X9929161Y-14563428D02*
X9929161Y-14515809D01*
X9929161Y-14515809D02*
X9919637Y-14496762D01*
X9919637Y-14496762D02*
X9910114Y-14487238D01*
X9910114Y-14487238D02*
X9891066Y-14477714D01*
X9891066Y-14477714D02*
X9852971Y-14477714D01*
X9852971Y-14477714D02*
X9833923Y-14487238D01*
X9833923Y-14487238D02*
X9824399Y-14496762D01*
X9824399Y-14496762D02*
X9814876Y-14515809D01*
X10052971Y-14401524D02*
X10072018Y-14401524D01*
X10072018Y-14401524D02*
X10091066Y-14411048D01*
X10091066Y-14411048D02*
X10100590Y-14420571D01*
X10100590Y-14420571D02*
X10110114Y-14439619D01*
X10110114Y-14439619D02*
X10119637Y-14477714D01*
X10119637Y-14477714D02*
X10119637Y-14525333D01*
X10119637Y-14525333D02*
X10110114Y-14563428D01*
X10110114Y-14563428D02*
X10100590Y-14582476D01*
X10100590Y-14582476D02*
X10091066Y-14592000D01*
X10091066Y-14592000D02*
X10072018Y-14601524D01*
X10072018Y-14601524D02*
X10052971Y-14601524D01*
X10052971Y-14601524D02*
X10033923Y-14592000D01*
X10033923Y-14592000D02*
X10024399Y-14582476D01*
X10024399Y-14582476D02*
X10014876Y-14563428D01*
X10014876Y-14563428D02*
X10005352Y-14525333D01*
X10005352Y-14525333D02*
X10005352Y-14477714D01*
X10005352Y-14477714D02*
X10014876Y-14439619D01*
X10014876Y-14439619D02*
X10024399Y-14420571D01*
X10024399Y-14420571D02*
X10033923Y-14411048D01*
X10033923Y-14411048D02*
X10052971Y-14401524D01*
X10243447Y-14401524D02*
X10262495Y-14401524D01*
X10262495Y-14401524D02*
X10281542Y-14411048D01*
X10281542Y-14411048D02*
X10291066Y-14420571D01*
X10291066Y-14420571D02*
X10300590Y-14439619D01*
X10300590Y-14439619D02*
X10310114Y-14477714D01*
X10310114Y-14477714D02*
X10310114Y-14525333D01*
X10310114Y-14525333D02*
X10300590Y-14563428D01*
X10300590Y-14563428D02*
X10291066Y-14582476D01*
X10291066Y-14582476D02*
X10281542Y-14592000D01*
X10281542Y-14592000D02*
X10262495Y-14601524D01*
X10262495Y-14601524D02*
X10243447Y-14601524D01*
X10243447Y-14601524D02*
X10224399Y-14592000D01*
X10224399Y-14592000D02*
X10214876Y-14582476D01*
X10214876Y-14582476D02*
X10205352Y-14563428D01*
X10205352Y-14563428D02*
X10195828Y-14525333D01*
X10195828Y-14525333D02*
X10195828Y-14477714D01*
X10195828Y-14477714D02*
X10205352Y-14439619D01*
X10205352Y-14439619D02*
X10214876Y-14420571D01*
X10214876Y-14420571D02*
X10224399Y-14411048D01*
X10224399Y-14411048D02*
X10243447Y-14401524D01*
X10395828Y-14601524D02*
X10395828Y-14468190D01*
X10395828Y-14487238D02*
X10405352Y-14477714D01*
X10405352Y-14477714D02*
X10424399Y-14468190D01*
X10424399Y-14468190D02*
X10452971Y-14468190D01*
X10452971Y-14468190D02*
X10472018Y-14477714D01*
X10472018Y-14477714D02*
X10481542Y-14496762D01*
X10481542Y-14496762D02*
X10481542Y-14601524D01*
X10481542Y-14496762D02*
X10491066Y-14477714D01*
X10491066Y-14477714D02*
X10510114Y-14468190D01*
X10510114Y-14468190D02*
X10538685Y-14468190D01*
X10538685Y-14468190D02*
X10557733Y-14477714D01*
X10557733Y-14477714D02*
X10567257Y-14496762D01*
X10567257Y-14496762D02*
X10567257Y-14601524D01*
X10662495Y-14601524D02*
X10662495Y-14468190D01*
X10662495Y-14487238D02*
X10672018Y-14477714D01*
X10672018Y-14477714D02*
X10691066Y-14468190D01*
X10691066Y-14468190D02*
X10719638Y-14468190D01*
X10719638Y-14468190D02*
X10738685Y-14477714D01*
X10738685Y-14477714D02*
X10748209Y-14496762D01*
X10748209Y-14496762D02*
X10748209Y-14601524D01*
X10748209Y-14496762D02*
X10757733Y-14477714D01*
X10757733Y-14477714D02*
X10776780Y-14468190D01*
X10776780Y-14468190D02*
X10805352Y-14468190D01*
X10805352Y-14468190D02*
X10824399Y-14477714D01*
X10824399Y-14477714D02*
X10833923Y-14496762D01*
X10833923Y-14496762D02*
X10833923Y-14601524D01*
X11224399Y-14392000D02*
X11052971Y-14649143D01*
X11481542Y-14401524D02*
X11500590Y-14401524D01*
X11500590Y-14401524D02*
X11519638Y-14411048D01*
X11519638Y-14411048D02*
X11529161Y-14420571D01*
X11529161Y-14420571D02*
X11538685Y-14439619D01*
X11538685Y-14439619D02*
X11548209Y-14477714D01*
X11548209Y-14477714D02*
X11548209Y-14525333D01*
X11548209Y-14525333D02*
X11538685Y-14563428D01*
X11538685Y-14563428D02*
X11529161Y-14582476D01*
X11529161Y-14582476D02*
X11519638Y-14592000D01*
X11519638Y-14592000D02*
X11500590Y-14601524D01*
X11500590Y-14601524D02*
X11481542Y-14601524D01*
X11481542Y-14601524D02*
X11462495Y-14592000D01*
X11462495Y-14592000D02*
X11452971Y-14582476D01*
X11452971Y-14582476D02*
X11443447Y-14563428D01*
X11443447Y-14563428D02*
X11433923Y-14525333D01*
X11433923Y-14525333D02*
X11433923Y-14477714D01*
X11433923Y-14477714D02*
X11443447Y-14439619D01*
X11443447Y-14439619D02*
X11452971Y-14420571D01*
X11452971Y-14420571D02*
X11462495Y-14411048D01*
X11462495Y-14411048D02*
X11481542Y-14401524D01*
X11633923Y-14582476D02*
X11643447Y-14592000D01*
X11643447Y-14592000D02*
X11633923Y-14601524D01*
X11633923Y-14601524D02*
X11624399Y-14592000D01*
X11624399Y-14592000D02*
X11633923Y-14582476D01*
X11633923Y-14582476D02*
X11633923Y-14601524D01*
X11767257Y-14401524D02*
X11786304Y-14401524D01*
X11786304Y-14401524D02*
X11805352Y-14411048D01*
X11805352Y-14411048D02*
X11814876Y-14420571D01*
X11814876Y-14420571D02*
X11824399Y-14439619D01*
X11824399Y-14439619D02*
X11833923Y-14477714D01*
X11833923Y-14477714D02*
X11833923Y-14525333D01*
X11833923Y-14525333D02*
X11824399Y-14563428D01*
X11824399Y-14563428D02*
X11814876Y-14582476D01*
X11814876Y-14582476D02*
X11805352Y-14592000D01*
X11805352Y-14592000D02*
X11786304Y-14601524D01*
X11786304Y-14601524D02*
X11767257Y-14601524D01*
X11767257Y-14601524D02*
X11748209Y-14592000D01*
X11748209Y-14592000D02*
X11738685Y-14582476D01*
X11738685Y-14582476D02*
X11729161Y-14563428D01*
X11729161Y-14563428D02*
X11719638Y-14525333D01*
X11719638Y-14525333D02*
X11719638Y-14477714D01*
X11719638Y-14477714D02*
X11729161Y-14439619D01*
X11729161Y-14439619D02*
X11738685Y-14420571D01*
X11738685Y-14420571D02*
X11748209Y-14411048D01*
X11748209Y-14411048D02*
X11767257Y-14401524D01*
X11910114Y-14420571D02*
X11919638Y-14411048D01*
X11919638Y-14411048D02*
X11938685Y-14401524D01*
X11938685Y-14401524D02*
X11986304Y-14401524D01*
X11986304Y-14401524D02*
X12005352Y-14411048D01*
X12005352Y-14411048D02*
X12014876Y-14420571D01*
X12014876Y-14420571D02*
X12024399Y-14439619D01*
X12024399Y-14439619D02*
X12024399Y-14458667D01*
X12024399Y-14458667D02*
X12014876Y-14487238D01*
X12014876Y-14487238D02*
X11900590Y-14601524D01*
X11900590Y-14601524D02*
X12024399Y-14601524D01*
X12091066Y-14401524D02*
X12214876Y-14401524D01*
X12214876Y-14401524D02*
X12148209Y-14477714D01*
X12148209Y-14477714D02*
X12176780Y-14477714D01*
X12176780Y-14477714D02*
X12195828Y-14487238D01*
X12195828Y-14487238D02*
X12205352Y-14496762D01*
X12205352Y-14496762D02*
X12214876Y-14515809D01*
X12214876Y-14515809D02*
X12214876Y-14563428D01*
X12214876Y-14563428D02*
X12205352Y-14582476D01*
X12205352Y-14582476D02*
X12195828Y-14592000D01*
X12195828Y-14592000D02*
X12176780Y-14601524D01*
X12176780Y-14601524D02*
X12119638Y-14601524D01*
X12119638Y-14601524D02*
X12100590Y-14592000D01*
X12100590Y-14592000D02*
X12091066Y-14582476D01*
X12386304Y-14401524D02*
X12348209Y-14401524D01*
X12348209Y-14401524D02*
X12329161Y-14411048D01*
X12329161Y-14411048D02*
X12319638Y-14420571D01*
X12319638Y-14420571D02*
X12300590Y-14449143D01*
X12300590Y-14449143D02*
X12291066Y-14487238D01*
X12291066Y-14487238D02*
X12291066Y-14563428D01*
X12291066Y-14563428D02*
X12300590Y-14582476D01*
X12300590Y-14582476D02*
X12310114Y-14592000D01*
X12310114Y-14592000D02*
X12329161Y-14601524D01*
X12329161Y-14601524D02*
X12367257Y-14601524D01*
X12367257Y-14601524D02*
X12386304Y-14592000D01*
X12386304Y-14592000D02*
X12395828Y-14582476D01*
X12395828Y-14582476D02*
X12405352Y-14563428D01*
X12405352Y-14563428D02*
X12405352Y-14515809D01*
X12405352Y-14515809D02*
X12395828Y-14496762D01*
X12395828Y-14496762D02*
X12386304Y-14487238D01*
X12386304Y-14487238D02*
X12367257Y-14477714D01*
X12367257Y-14477714D02*
X12329161Y-14477714D01*
X12329161Y-14477714D02*
X12310114Y-14487238D01*
X12310114Y-14487238D02*
X12300590Y-14496762D01*
X12300590Y-14496762D02*
X12291066Y-14515809D01*
X12481542Y-14401524D02*
X12481542Y-14439619D01*
X12557733Y-14401524D02*
X12557733Y-14439619D01*
X12852971Y-14677714D02*
X12843447Y-14668190D01*
X12843447Y-14668190D02*
X12824400Y-14639619D01*
X12824400Y-14639619D02*
X12814876Y-14620571D01*
X12814876Y-14620571D02*
X12805352Y-14592000D01*
X12805352Y-14592000D02*
X12795828Y-14544381D01*
X12795828Y-14544381D02*
X12795828Y-14506286D01*
X12795828Y-14506286D02*
X12805352Y-14458667D01*
X12805352Y-14458667D02*
X12814876Y-14430095D01*
X12814876Y-14430095D02*
X12824400Y-14411048D01*
X12824400Y-14411048D02*
X12843447Y-14382476D01*
X12843447Y-14382476D02*
X12852971Y-14372952D01*
X12967257Y-14401524D02*
X12986304Y-14401524D01*
X12986304Y-14401524D02*
X13005352Y-14411048D01*
X13005352Y-14411048D02*
X13014876Y-14420571D01*
X13014876Y-14420571D02*
X13024400Y-14439619D01*
X13024400Y-14439619D02*
X13033923Y-14477714D01*
X13033923Y-14477714D02*
X13033923Y-14525333D01*
X13033923Y-14525333D02*
X13024400Y-14563428D01*
X13024400Y-14563428D02*
X13014876Y-14582476D01*
X13014876Y-14582476D02*
X13005352Y-14592000D01*
X13005352Y-14592000D02*
X12986304Y-14601524D01*
X12986304Y-14601524D02*
X12967257Y-14601524D01*
X12967257Y-14601524D02*
X12948209Y-14592000D01*
X12948209Y-14592000D02*
X12938685Y-14582476D01*
X12938685Y-14582476D02*
X12929161Y-14563428D01*
X12929161Y-14563428D02*
X12919638Y-14525333D01*
X12919638Y-14525333D02*
X12919638Y-14477714D01*
X12919638Y-14477714D02*
X12929161Y-14439619D01*
X12929161Y-14439619D02*
X12938685Y-14420571D01*
X12938685Y-14420571D02*
X12948209Y-14411048D01*
X12948209Y-14411048D02*
X12967257Y-14401524D01*
X13272019Y-14601524D02*
X13272019Y-14401524D01*
X13357733Y-14601524D02*
X13357733Y-14496762D01*
X13357733Y-14496762D02*
X13348209Y-14477714D01*
X13348209Y-14477714D02*
X13329162Y-14468190D01*
X13329162Y-14468190D02*
X13300590Y-14468190D01*
X13300590Y-14468190D02*
X13281542Y-14477714D01*
X13281542Y-14477714D02*
X13272019Y-14487238D01*
X13481542Y-14601524D02*
X13462495Y-14592000D01*
X13462495Y-14592000D02*
X13452971Y-14582476D01*
X13452971Y-14582476D02*
X13443447Y-14563428D01*
X13443447Y-14563428D02*
X13443447Y-14506286D01*
X13443447Y-14506286D02*
X13452971Y-14487238D01*
X13452971Y-14487238D02*
X13462495Y-14477714D01*
X13462495Y-14477714D02*
X13481542Y-14468190D01*
X13481542Y-14468190D02*
X13510114Y-14468190D01*
X13510114Y-14468190D02*
X13529162Y-14477714D01*
X13529162Y-14477714D02*
X13538685Y-14487238D01*
X13538685Y-14487238D02*
X13548209Y-14506286D01*
X13548209Y-14506286D02*
X13548209Y-14563428D01*
X13548209Y-14563428D02*
X13538685Y-14582476D01*
X13538685Y-14582476D02*
X13529162Y-14592000D01*
X13529162Y-14592000D02*
X13510114Y-14601524D01*
X13510114Y-14601524D02*
X13481542Y-14601524D01*
X13662495Y-14601524D02*
X13643447Y-14592000D01*
X13643447Y-14592000D02*
X13633923Y-14572952D01*
X13633923Y-14572952D02*
X13633923Y-14401524D01*
X13814876Y-14592000D02*
X13795828Y-14601524D01*
X13795828Y-14601524D02*
X13757733Y-14601524D01*
X13757733Y-14601524D02*
X13738685Y-14592000D01*
X13738685Y-14592000D02*
X13729162Y-14572952D01*
X13729162Y-14572952D02*
X13729162Y-14496762D01*
X13729162Y-14496762D02*
X13738685Y-14477714D01*
X13738685Y-14477714D02*
X13757733Y-14468190D01*
X13757733Y-14468190D02*
X13795828Y-14468190D01*
X13795828Y-14468190D02*
X13814876Y-14477714D01*
X13814876Y-14477714D02*
X13824400Y-14496762D01*
X13824400Y-14496762D02*
X13824400Y-14515809D01*
X13824400Y-14515809D02*
X13729162Y-14534857D01*
X13900590Y-14592000D02*
X13919638Y-14601524D01*
X13919638Y-14601524D02*
X13957733Y-14601524D01*
X13957733Y-14601524D02*
X13976781Y-14592000D01*
X13976781Y-14592000D02*
X13986304Y-14572952D01*
X13986304Y-14572952D02*
X13986304Y-14563428D01*
X13986304Y-14563428D02*
X13976781Y-14544381D01*
X13976781Y-14544381D02*
X13957733Y-14534857D01*
X13957733Y-14534857D02*
X13929162Y-14534857D01*
X13929162Y-14534857D02*
X13910114Y-14525333D01*
X13910114Y-14525333D02*
X13900590Y-14506286D01*
X13900590Y-14506286D02*
X13900590Y-14496762D01*
X13900590Y-14496762D02*
X13910114Y-14477714D01*
X13910114Y-14477714D02*
X13929162Y-14468190D01*
X13929162Y-14468190D02*
X13957733Y-14468190D01*
X13957733Y-14468190D02*
X13976781Y-14477714D01*
X14224400Y-14525333D02*
X14376781Y-14525333D01*
X14300590Y-14601524D02*
X14300590Y-14449143D01*
X14710114Y-14468190D02*
X14710114Y-14601524D01*
X14662495Y-14392000D02*
X14614876Y-14534857D01*
X14614876Y-14534857D02*
X14738685Y-14534857D01*
X14957733Y-14592000D02*
X14976781Y-14601524D01*
X14976781Y-14601524D02*
X15014876Y-14601524D01*
X15014876Y-14601524D02*
X15033924Y-14592000D01*
X15033924Y-14592000D02*
X15043447Y-14572952D01*
X15043447Y-14572952D02*
X15043447Y-14563428D01*
X15043447Y-14563428D02*
X15033924Y-14544381D01*
X15033924Y-14544381D02*
X15014876Y-14534857D01*
X15014876Y-14534857D02*
X14986305Y-14534857D01*
X14986305Y-14534857D02*
X14967257Y-14525333D01*
X14967257Y-14525333D02*
X14957733Y-14506286D01*
X14957733Y-14506286D02*
X14957733Y-14496762D01*
X14957733Y-14496762D02*
X14967257Y-14477714D01*
X14967257Y-14477714D02*
X14986305Y-14468190D01*
X14986305Y-14468190D02*
X15014876Y-14468190D01*
X15014876Y-14468190D02*
X15033924Y-14477714D01*
X15157733Y-14601524D02*
X15138686Y-14592000D01*
X15138686Y-14592000D02*
X15129162Y-14572952D01*
X15129162Y-14572952D02*
X15129162Y-14401524D01*
X15262495Y-14601524D02*
X15243447Y-14592000D01*
X15243447Y-14592000D02*
X15233924Y-14582476D01*
X15233924Y-14582476D02*
X15224400Y-14563428D01*
X15224400Y-14563428D02*
X15224400Y-14506286D01*
X15224400Y-14506286D02*
X15233924Y-14487238D01*
X15233924Y-14487238D02*
X15243447Y-14477714D01*
X15243447Y-14477714D02*
X15262495Y-14468190D01*
X15262495Y-14468190D02*
X15291067Y-14468190D01*
X15291067Y-14468190D02*
X15310114Y-14477714D01*
X15310114Y-14477714D02*
X15319638Y-14487238D01*
X15319638Y-14487238D02*
X15329162Y-14506286D01*
X15329162Y-14506286D02*
X15329162Y-14563428D01*
X15329162Y-14563428D02*
X15319638Y-14582476D01*
X15319638Y-14582476D02*
X15310114Y-14592000D01*
X15310114Y-14592000D02*
X15291067Y-14601524D01*
X15291067Y-14601524D02*
X15262495Y-14601524D01*
X15386305Y-14468190D02*
X15462495Y-14468190D01*
X15414876Y-14401524D02*
X15414876Y-14572952D01*
X15414876Y-14572952D02*
X15424400Y-14592000D01*
X15424400Y-14592000D02*
X15443447Y-14601524D01*
X15443447Y-14601524D02*
X15462495Y-14601524D01*
X15519638Y-14592000D02*
X15538686Y-14601524D01*
X15538686Y-14601524D02*
X15576781Y-14601524D01*
X15576781Y-14601524D02*
X15595828Y-14592000D01*
X15595828Y-14592000D02*
X15605352Y-14572952D01*
X15605352Y-14572952D02*
X15605352Y-14563428D01*
X15605352Y-14563428D02*
X15595828Y-14544381D01*
X15595828Y-14544381D02*
X15576781Y-14534857D01*
X15576781Y-14534857D02*
X15548209Y-14534857D01*
X15548209Y-14534857D02*
X15529162Y-14525333D01*
X15529162Y-14525333D02*
X15519638Y-14506286D01*
X15519638Y-14506286D02*
X15519638Y-14496762D01*
X15519638Y-14496762D02*
X15529162Y-14477714D01*
X15529162Y-14477714D02*
X15548209Y-14468190D01*
X15548209Y-14468190D02*
X15576781Y-14468190D01*
X15576781Y-14468190D02*
X15595828Y-14477714D01*
X15672019Y-14677714D02*
X15681543Y-14668190D01*
X15681543Y-14668190D02*
X15700590Y-14639619D01*
X15700590Y-14639619D02*
X15710114Y-14620571D01*
X15710114Y-14620571D02*
X15719638Y-14592000D01*
X15719638Y-14592000D02*
X15729162Y-14544381D01*
X15729162Y-14544381D02*
X15729162Y-14506286D01*
X15729162Y-14506286D02*
X15719638Y-14458667D01*
X15719638Y-14458667D02*
X15710114Y-14430095D01*
X15710114Y-14430095D02*
X15700590Y-14411048D01*
X15700590Y-14411048D02*
X15681543Y-14382476D01*
X15681543Y-14382476D02*
X15672019Y-14372952D01*
D10*
X9241066Y-14723000D02*
X9241066Y-14823000D01*
X9191066Y-14773000D02*
X9291066Y-14773000D01*
D11*
X9643447Y-14865524D02*
X9529161Y-14865524D01*
X9586304Y-14865524D02*
X9586304Y-14665524D01*
X9586304Y-14665524D02*
X9567256Y-14694095D01*
X9567256Y-14694095D02*
X9548209Y-14713143D01*
X9548209Y-14713143D02*
X9529161Y-14722667D01*
X9729161Y-14846476D02*
X9738685Y-14856000D01*
X9738685Y-14856000D02*
X9729161Y-14865524D01*
X9729161Y-14865524D02*
X9719637Y-14856000D01*
X9719637Y-14856000D02*
X9729161Y-14846476D01*
X9729161Y-14846476D02*
X9729161Y-14865524D01*
X9862495Y-14665524D02*
X9881542Y-14665524D01*
X9881542Y-14665524D02*
X9900590Y-14675048D01*
X9900590Y-14675048D02*
X9910114Y-14684571D01*
X9910114Y-14684571D02*
X9919637Y-14703619D01*
X9919637Y-14703619D02*
X9929161Y-14741714D01*
X9929161Y-14741714D02*
X9929161Y-14789333D01*
X9929161Y-14789333D02*
X9919637Y-14827428D01*
X9919637Y-14827428D02*
X9910114Y-14846476D01*
X9910114Y-14846476D02*
X9900590Y-14856000D01*
X9900590Y-14856000D02*
X9881542Y-14865524D01*
X9881542Y-14865524D02*
X9862495Y-14865524D01*
X9862495Y-14865524D02*
X9843447Y-14856000D01*
X9843447Y-14856000D02*
X9833923Y-14846476D01*
X9833923Y-14846476D02*
X9824399Y-14827428D01*
X9824399Y-14827428D02*
X9814876Y-14789333D01*
X9814876Y-14789333D02*
X9814876Y-14741714D01*
X9814876Y-14741714D02*
X9824399Y-14703619D01*
X9824399Y-14703619D02*
X9833923Y-14684571D01*
X9833923Y-14684571D02*
X9843447Y-14675048D01*
X9843447Y-14675048D02*
X9862495Y-14665524D01*
X10052971Y-14665524D02*
X10072018Y-14665524D01*
X10072018Y-14665524D02*
X10091066Y-14675048D01*
X10091066Y-14675048D02*
X10100590Y-14684571D01*
X10100590Y-14684571D02*
X10110114Y-14703619D01*
X10110114Y-14703619D02*
X10119637Y-14741714D01*
X10119637Y-14741714D02*
X10119637Y-14789333D01*
X10119637Y-14789333D02*
X10110114Y-14827428D01*
X10110114Y-14827428D02*
X10100590Y-14846476D01*
X10100590Y-14846476D02*
X10091066Y-14856000D01*
X10091066Y-14856000D02*
X10072018Y-14865524D01*
X10072018Y-14865524D02*
X10052971Y-14865524D01*
X10052971Y-14865524D02*
X10033923Y-14856000D01*
X10033923Y-14856000D02*
X10024399Y-14846476D01*
X10024399Y-14846476D02*
X10014876Y-14827428D01*
X10014876Y-14827428D02*
X10005352Y-14789333D01*
X10005352Y-14789333D02*
X10005352Y-14741714D01*
X10005352Y-14741714D02*
X10014876Y-14703619D01*
X10014876Y-14703619D02*
X10024399Y-14684571D01*
X10024399Y-14684571D02*
X10033923Y-14675048D01*
X10033923Y-14675048D02*
X10052971Y-14665524D01*
X10243447Y-14665524D02*
X10262495Y-14665524D01*
X10262495Y-14665524D02*
X10281542Y-14675048D01*
X10281542Y-14675048D02*
X10291066Y-14684571D01*
X10291066Y-14684571D02*
X10300590Y-14703619D01*
X10300590Y-14703619D02*
X10310114Y-14741714D01*
X10310114Y-14741714D02*
X10310114Y-14789333D01*
X10310114Y-14789333D02*
X10300590Y-14827428D01*
X10300590Y-14827428D02*
X10291066Y-14846476D01*
X10291066Y-14846476D02*
X10281542Y-14856000D01*
X10281542Y-14856000D02*
X10262495Y-14865524D01*
X10262495Y-14865524D02*
X10243447Y-14865524D01*
X10243447Y-14865524D02*
X10224399Y-14856000D01*
X10224399Y-14856000D02*
X10214876Y-14846476D01*
X10214876Y-14846476D02*
X10205352Y-14827428D01*
X10205352Y-14827428D02*
X10195828Y-14789333D01*
X10195828Y-14789333D02*
X10195828Y-14741714D01*
X10195828Y-14741714D02*
X10205352Y-14703619D01*
X10205352Y-14703619D02*
X10214876Y-14684571D01*
X10214876Y-14684571D02*
X10224399Y-14675048D01*
X10224399Y-14675048D02*
X10243447Y-14665524D01*
X10395828Y-14865524D02*
X10395828Y-14732190D01*
X10395828Y-14751238D02*
X10405352Y-14741714D01*
X10405352Y-14741714D02*
X10424399Y-14732190D01*
X10424399Y-14732190D02*
X10452971Y-14732190D01*
X10452971Y-14732190D02*
X10472018Y-14741714D01*
X10472018Y-14741714D02*
X10481542Y-14760762D01*
X10481542Y-14760762D02*
X10481542Y-14865524D01*
X10481542Y-14760762D02*
X10491066Y-14741714D01*
X10491066Y-14741714D02*
X10510114Y-14732190D01*
X10510114Y-14732190D02*
X10538685Y-14732190D01*
X10538685Y-14732190D02*
X10557733Y-14741714D01*
X10557733Y-14741714D02*
X10567257Y-14760762D01*
X10567257Y-14760762D02*
X10567257Y-14865524D01*
X10662495Y-14865524D02*
X10662495Y-14732190D01*
X10662495Y-14751238D02*
X10672018Y-14741714D01*
X10672018Y-14741714D02*
X10691066Y-14732190D01*
X10691066Y-14732190D02*
X10719638Y-14732190D01*
X10719638Y-14732190D02*
X10738685Y-14741714D01*
X10738685Y-14741714D02*
X10748209Y-14760762D01*
X10748209Y-14760762D02*
X10748209Y-14865524D01*
X10748209Y-14760762D02*
X10757733Y-14741714D01*
X10757733Y-14741714D02*
X10776780Y-14732190D01*
X10776780Y-14732190D02*
X10805352Y-14732190D01*
X10805352Y-14732190D02*
X10824399Y-14741714D01*
X10824399Y-14741714D02*
X10833923Y-14760762D01*
X10833923Y-14760762D02*
X10833923Y-14865524D01*
X11224399Y-14656000D02*
X11052971Y-14913143D01*
X11481542Y-14665524D02*
X11500590Y-14665524D01*
X11500590Y-14665524D02*
X11519638Y-14675048D01*
X11519638Y-14675048D02*
X11529161Y-14684571D01*
X11529161Y-14684571D02*
X11538685Y-14703619D01*
X11538685Y-14703619D02*
X11548209Y-14741714D01*
X11548209Y-14741714D02*
X11548209Y-14789333D01*
X11548209Y-14789333D02*
X11538685Y-14827428D01*
X11538685Y-14827428D02*
X11529161Y-14846476D01*
X11529161Y-14846476D02*
X11519638Y-14856000D01*
X11519638Y-14856000D02*
X11500590Y-14865524D01*
X11500590Y-14865524D02*
X11481542Y-14865524D01*
X11481542Y-14865524D02*
X11462495Y-14856000D01*
X11462495Y-14856000D02*
X11452971Y-14846476D01*
X11452971Y-14846476D02*
X11443447Y-14827428D01*
X11443447Y-14827428D02*
X11433923Y-14789333D01*
X11433923Y-14789333D02*
X11433923Y-14741714D01*
X11433923Y-14741714D02*
X11443447Y-14703619D01*
X11443447Y-14703619D02*
X11452971Y-14684571D01*
X11452971Y-14684571D02*
X11462495Y-14675048D01*
X11462495Y-14675048D02*
X11481542Y-14665524D01*
X11633923Y-14846476D02*
X11643447Y-14856000D01*
X11643447Y-14856000D02*
X11633923Y-14865524D01*
X11633923Y-14865524D02*
X11624399Y-14856000D01*
X11624399Y-14856000D02*
X11633923Y-14846476D01*
X11633923Y-14846476D02*
X11633923Y-14865524D01*
X11767257Y-14665524D02*
X11786304Y-14665524D01*
X11786304Y-14665524D02*
X11805352Y-14675048D01*
X11805352Y-14675048D02*
X11814876Y-14684571D01*
X11814876Y-14684571D02*
X11824399Y-14703619D01*
X11824399Y-14703619D02*
X11833923Y-14741714D01*
X11833923Y-14741714D02*
X11833923Y-14789333D01*
X11833923Y-14789333D02*
X11824399Y-14827428D01*
X11824399Y-14827428D02*
X11814876Y-14846476D01*
X11814876Y-14846476D02*
X11805352Y-14856000D01*
X11805352Y-14856000D02*
X11786304Y-14865524D01*
X11786304Y-14865524D02*
X11767257Y-14865524D01*
X11767257Y-14865524D02*
X11748209Y-14856000D01*
X11748209Y-14856000D02*
X11738685Y-14846476D01*
X11738685Y-14846476D02*
X11729161Y-14827428D01*
X11729161Y-14827428D02*
X11719638Y-14789333D01*
X11719638Y-14789333D02*
X11719638Y-14741714D01*
X11719638Y-14741714D02*
X11729161Y-14703619D01*
X11729161Y-14703619D02*
X11738685Y-14684571D01*
X11738685Y-14684571D02*
X11748209Y-14675048D01*
X11748209Y-14675048D02*
X11767257Y-14665524D01*
X11900590Y-14665524D02*
X12024399Y-14665524D01*
X12024399Y-14665524D02*
X11957733Y-14741714D01*
X11957733Y-14741714D02*
X11986304Y-14741714D01*
X11986304Y-14741714D02*
X12005352Y-14751238D01*
X12005352Y-14751238D02*
X12014876Y-14760762D01*
X12014876Y-14760762D02*
X12024399Y-14779809D01*
X12024399Y-14779809D02*
X12024399Y-14827428D01*
X12024399Y-14827428D02*
X12014876Y-14846476D01*
X12014876Y-14846476D02*
X12005352Y-14856000D01*
X12005352Y-14856000D02*
X11986304Y-14865524D01*
X11986304Y-14865524D02*
X11929161Y-14865524D01*
X11929161Y-14865524D02*
X11910114Y-14856000D01*
X11910114Y-14856000D02*
X11900590Y-14846476D01*
X12119638Y-14865524D02*
X12157733Y-14865524D01*
X12157733Y-14865524D02*
X12176780Y-14856000D01*
X12176780Y-14856000D02*
X12186304Y-14846476D01*
X12186304Y-14846476D02*
X12205352Y-14817905D01*
X12205352Y-14817905D02*
X12214876Y-14779809D01*
X12214876Y-14779809D02*
X12214876Y-14703619D01*
X12214876Y-14703619D02*
X12205352Y-14684571D01*
X12205352Y-14684571D02*
X12195828Y-14675048D01*
X12195828Y-14675048D02*
X12176780Y-14665524D01*
X12176780Y-14665524D02*
X12138685Y-14665524D01*
X12138685Y-14665524D02*
X12119638Y-14675048D01*
X12119638Y-14675048D02*
X12110114Y-14684571D01*
X12110114Y-14684571D02*
X12100590Y-14703619D01*
X12100590Y-14703619D02*
X12100590Y-14751238D01*
X12100590Y-14751238D02*
X12110114Y-14770286D01*
X12110114Y-14770286D02*
X12119638Y-14779809D01*
X12119638Y-14779809D02*
X12138685Y-14789333D01*
X12138685Y-14789333D02*
X12176780Y-14789333D01*
X12176780Y-14789333D02*
X12195828Y-14779809D01*
X12195828Y-14779809D02*
X12205352Y-14770286D01*
X12205352Y-14770286D02*
X12214876Y-14751238D01*
X12386304Y-14732190D02*
X12386304Y-14865524D01*
X12338685Y-14656000D02*
X12291066Y-14798857D01*
X12291066Y-14798857D02*
X12414876Y-14798857D01*
X12481542Y-14665524D02*
X12481542Y-14703619D01*
X12557733Y-14665524D02*
X12557733Y-14703619D01*
X12852971Y-14941714D02*
X12843447Y-14932190D01*
X12843447Y-14932190D02*
X12824400Y-14903619D01*
X12824400Y-14903619D02*
X12814876Y-14884571D01*
X12814876Y-14884571D02*
X12805352Y-14856000D01*
X12805352Y-14856000D02*
X12795828Y-14808381D01*
X12795828Y-14808381D02*
X12795828Y-14770286D01*
X12795828Y-14770286D02*
X12805352Y-14722667D01*
X12805352Y-14722667D02*
X12814876Y-14694095D01*
X12814876Y-14694095D02*
X12824400Y-14675048D01*
X12824400Y-14675048D02*
X12843447Y-14646476D01*
X12843447Y-14646476D02*
X12852971Y-14636952D01*
X12910114Y-14665524D02*
X13043447Y-14665524D01*
X13043447Y-14665524D02*
X12957733Y-14865524D01*
X13157733Y-14665524D02*
X13176781Y-14665524D01*
X13176781Y-14665524D02*
X13195828Y-14675048D01*
X13195828Y-14675048D02*
X13205352Y-14684571D01*
X13205352Y-14684571D02*
X13214876Y-14703619D01*
X13214876Y-14703619D02*
X13224400Y-14741714D01*
X13224400Y-14741714D02*
X13224400Y-14789333D01*
X13224400Y-14789333D02*
X13214876Y-14827428D01*
X13214876Y-14827428D02*
X13205352Y-14846476D01*
X13205352Y-14846476D02*
X13195828Y-14856000D01*
X13195828Y-14856000D02*
X13176781Y-14865524D01*
X13176781Y-14865524D02*
X13157733Y-14865524D01*
X13157733Y-14865524D02*
X13138685Y-14856000D01*
X13138685Y-14856000D02*
X13129161Y-14846476D01*
X13129161Y-14846476D02*
X13119638Y-14827428D01*
X13119638Y-14827428D02*
X13110114Y-14789333D01*
X13110114Y-14789333D02*
X13110114Y-14741714D01*
X13110114Y-14741714D02*
X13119638Y-14703619D01*
X13119638Y-14703619D02*
X13129161Y-14684571D01*
X13129161Y-14684571D02*
X13138685Y-14675048D01*
X13138685Y-14675048D02*
X13157733Y-14665524D01*
X13462495Y-14865524D02*
X13462495Y-14665524D01*
X13548209Y-14865524D02*
X13548209Y-14760762D01*
X13548209Y-14760762D02*
X13538685Y-14741714D01*
X13538685Y-14741714D02*
X13519638Y-14732190D01*
X13519638Y-14732190D02*
X13491066Y-14732190D01*
X13491066Y-14732190D02*
X13472019Y-14741714D01*
X13472019Y-14741714D02*
X13462495Y-14751238D01*
X13672019Y-14865524D02*
X13652971Y-14856000D01*
X13652971Y-14856000D02*
X13643447Y-14846476D01*
X13643447Y-14846476D02*
X13633923Y-14827428D01*
X13633923Y-14827428D02*
X13633923Y-14770286D01*
X13633923Y-14770286D02*
X13643447Y-14751238D01*
X13643447Y-14751238D02*
X13652971Y-14741714D01*
X13652971Y-14741714D02*
X13672019Y-14732190D01*
X13672019Y-14732190D02*
X13700590Y-14732190D01*
X13700590Y-14732190D02*
X13719638Y-14741714D01*
X13719638Y-14741714D02*
X13729162Y-14751238D01*
X13729162Y-14751238D02*
X13738685Y-14770286D01*
X13738685Y-14770286D02*
X13738685Y-14827428D01*
X13738685Y-14827428D02*
X13729162Y-14846476D01*
X13729162Y-14846476D02*
X13719638Y-14856000D01*
X13719638Y-14856000D02*
X13700590Y-14865524D01*
X13700590Y-14865524D02*
X13672019Y-14865524D01*
X13852971Y-14865524D02*
X13833923Y-14856000D01*
X13833923Y-14856000D02*
X13824400Y-14836952D01*
X13824400Y-14836952D02*
X13824400Y-14665524D01*
X14005352Y-14856000D02*
X13986304Y-14865524D01*
X13986304Y-14865524D02*
X13948209Y-14865524D01*
X13948209Y-14865524D02*
X13929162Y-14856000D01*
X13929162Y-14856000D02*
X13919638Y-14836952D01*
X13919638Y-14836952D02*
X13919638Y-14760762D01*
X13919638Y-14760762D02*
X13929162Y-14741714D01*
X13929162Y-14741714D02*
X13948209Y-14732190D01*
X13948209Y-14732190D02*
X13986304Y-14732190D01*
X13986304Y-14732190D02*
X14005352Y-14741714D01*
X14005352Y-14741714D02*
X14014876Y-14760762D01*
X14014876Y-14760762D02*
X14014876Y-14779809D01*
X14014876Y-14779809D02*
X13919638Y-14798857D01*
X14091066Y-14856000D02*
X14110114Y-14865524D01*
X14110114Y-14865524D02*
X14148209Y-14865524D01*
X14148209Y-14865524D02*
X14167257Y-14856000D01*
X14167257Y-14856000D02*
X14176781Y-14836952D01*
X14176781Y-14836952D02*
X14176781Y-14827428D01*
X14176781Y-14827428D02*
X14167257Y-14808381D01*
X14167257Y-14808381D02*
X14148209Y-14798857D01*
X14148209Y-14798857D02*
X14119638Y-14798857D01*
X14119638Y-14798857D02*
X14100590Y-14789333D01*
X14100590Y-14789333D02*
X14091066Y-14770286D01*
X14091066Y-14770286D02*
X14091066Y-14760762D01*
X14091066Y-14760762D02*
X14100590Y-14741714D01*
X14100590Y-14741714D02*
X14119638Y-14732190D01*
X14119638Y-14732190D02*
X14148209Y-14732190D01*
X14148209Y-14732190D02*
X14167257Y-14741714D01*
X14243447Y-14941714D02*
X14252971Y-14932190D01*
X14252971Y-14932190D02*
X14272019Y-14903619D01*
X14272019Y-14903619D02*
X14281543Y-14884571D01*
X14281543Y-14884571D02*
X14291066Y-14856000D01*
X14291066Y-14856000D02*
X14300590Y-14808381D01*
X14300590Y-14808381D02*
X14300590Y-14770286D01*
X14300590Y-14770286D02*
X14291066Y-14722667D01*
X14291066Y-14722667D02*
X14281543Y-14694095D01*
X14281543Y-14694095D02*
X14272019Y-14675048D01*
X14272019Y-14675048D02*
X14252971Y-14646476D01*
X14252971Y-14646476D02*
X14243447Y-14636952D01*
D14*
X9275104Y-15075538D02*
X9275104Y-14998462D01*
X9198028Y-14998462D01*
X9198028Y-15075538D01*
X9275104Y-15075538D01*
D11*
X9643447Y-15129524D02*
X9529161Y-15129524D01*
X9586304Y-15129524D02*
X9586304Y-14929524D01*
X9586304Y-14929524D02*
X9567256Y-14958095D01*
X9567256Y-14958095D02*
X9548209Y-14977143D01*
X9548209Y-14977143D02*
X9529161Y-14986667D01*
X9729161Y-15110476D02*
X9738685Y-15120000D01*
X9738685Y-15120000D02*
X9729161Y-15129524D01*
X9729161Y-15129524D02*
X9719637Y-15120000D01*
X9719637Y-15120000D02*
X9729161Y-15110476D01*
X9729161Y-15110476D02*
X9729161Y-15129524D01*
X9862495Y-14929524D02*
X9881542Y-14929524D01*
X9881542Y-14929524D02*
X9900590Y-14939048D01*
X9900590Y-14939048D02*
X9910114Y-14948571D01*
X9910114Y-14948571D02*
X9919637Y-14967619D01*
X9919637Y-14967619D02*
X9929161Y-15005714D01*
X9929161Y-15005714D02*
X9929161Y-15053333D01*
X9929161Y-15053333D02*
X9919637Y-15091428D01*
X9919637Y-15091428D02*
X9910114Y-15110476D01*
X9910114Y-15110476D02*
X9900590Y-15120000D01*
X9900590Y-15120000D02*
X9881542Y-15129524D01*
X9881542Y-15129524D02*
X9862495Y-15129524D01*
X9862495Y-15129524D02*
X9843447Y-15120000D01*
X9843447Y-15120000D02*
X9833923Y-15110476D01*
X9833923Y-15110476D02*
X9824399Y-15091428D01*
X9824399Y-15091428D02*
X9814876Y-15053333D01*
X9814876Y-15053333D02*
X9814876Y-15005714D01*
X9814876Y-15005714D02*
X9824399Y-14967619D01*
X9824399Y-14967619D02*
X9833923Y-14948571D01*
X9833923Y-14948571D02*
X9843447Y-14939048D01*
X9843447Y-14939048D02*
X9862495Y-14929524D01*
X10024399Y-15129524D02*
X10062495Y-15129524D01*
X10062495Y-15129524D02*
X10081542Y-15120000D01*
X10081542Y-15120000D02*
X10091066Y-15110476D01*
X10091066Y-15110476D02*
X10110114Y-15081905D01*
X10110114Y-15081905D02*
X10119637Y-15043809D01*
X10119637Y-15043809D02*
X10119637Y-14967619D01*
X10119637Y-14967619D02*
X10110114Y-14948571D01*
X10110114Y-14948571D02*
X10100590Y-14939048D01*
X10100590Y-14939048D02*
X10081542Y-14929524D01*
X10081542Y-14929524D02*
X10043447Y-14929524D01*
X10043447Y-14929524D02*
X10024399Y-14939048D01*
X10024399Y-14939048D02*
X10014876Y-14948571D01*
X10014876Y-14948571D02*
X10005352Y-14967619D01*
X10005352Y-14967619D02*
X10005352Y-15015238D01*
X10005352Y-15015238D02*
X10014876Y-15034286D01*
X10014876Y-15034286D02*
X10024399Y-15043809D01*
X10024399Y-15043809D02*
X10043447Y-15053333D01*
X10043447Y-15053333D02*
X10081542Y-15053333D01*
X10081542Y-15053333D02*
X10100590Y-15043809D01*
X10100590Y-15043809D02*
X10110114Y-15034286D01*
X10110114Y-15034286D02*
X10119637Y-15015238D01*
X10243447Y-14929524D02*
X10262495Y-14929524D01*
X10262495Y-14929524D02*
X10281542Y-14939048D01*
X10281542Y-14939048D02*
X10291066Y-14948571D01*
X10291066Y-14948571D02*
X10300590Y-14967619D01*
X10300590Y-14967619D02*
X10310114Y-15005714D01*
X10310114Y-15005714D02*
X10310114Y-15053333D01*
X10310114Y-15053333D02*
X10300590Y-15091428D01*
X10300590Y-15091428D02*
X10291066Y-15110476D01*
X10291066Y-15110476D02*
X10281542Y-15120000D01*
X10281542Y-15120000D02*
X10262495Y-15129524D01*
X10262495Y-15129524D02*
X10243447Y-15129524D01*
X10243447Y-15129524D02*
X10224399Y-15120000D01*
X10224399Y-15120000D02*
X10214876Y-15110476D01*
X10214876Y-15110476D02*
X10205352Y-15091428D01*
X10205352Y-15091428D02*
X10195828Y-15053333D01*
X10195828Y-15053333D02*
X10195828Y-15005714D01*
X10195828Y-15005714D02*
X10205352Y-14967619D01*
X10205352Y-14967619D02*
X10214876Y-14948571D01*
X10214876Y-14948571D02*
X10224399Y-14939048D01*
X10224399Y-14939048D02*
X10243447Y-14929524D01*
X10395828Y-15129524D02*
X10395828Y-14996190D01*
X10395828Y-15015238D02*
X10405352Y-15005714D01*
X10405352Y-15005714D02*
X10424399Y-14996190D01*
X10424399Y-14996190D02*
X10452971Y-14996190D01*
X10452971Y-14996190D02*
X10472018Y-15005714D01*
X10472018Y-15005714D02*
X10481542Y-15024762D01*
X10481542Y-15024762D02*
X10481542Y-15129524D01*
X10481542Y-15024762D02*
X10491066Y-15005714D01*
X10491066Y-15005714D02*
X10510114Y-14996190D01*
X10510114Y-14996190D02*
X10538685Y-14996190D01*
X10538685Y-14996190D02*
X10557733Y-15005714D01*
X10557733Y-15005714D02*
X10567257Y-15024762D01*
X10567257Y-15024762D02*
X10567257Y-15129524D01*
X10662495Y-15129524D02*
X10662495Y-14996190D01*
X10662495Y-15015238D02*
X10672018Y-15005714D01*
X10672018Y-15005714D02*
X10691066Y-14996190D01*
X10691066Y-14996190D02*
X10719638Y-14996190D01*
X10719638Y-14996190D02*
X10738685Y-15005714D01*
X10738685Y-15005714D02*
X10748209Y-15024762D01*
X10748209Y-15024762D02*
X10748209Y-15129524D01*
X10748209Y-15024762D02*
X10757733Y-15005714D01*
X10757733Y-15005714D02*
X10776780Y-14996190D01*
X10776780Y-14996190D02*
X10805352Y-14996190D01*
X10805352Y-14996190D02*
X10824399Y-15005714D01*
X10824399Y-15005714D02*
X10833923Y-15024762D01*
X10833923Y-15024762D02*
X10833923Y-15129524D01*
X11224399Y-14920000D02*
X11052971Y-15177143D01*
X11481542Y-14929524D02*
X11500590Y-14929524D01*
X11500590Y-14929524D02*
X11519638Y-14939048D01*
X11519638Y-14939048D02*
X11529161Y-14948571D01*
X11529161Y-14948571D02*
X11538685Y-14967619D01*
X11538685Y-14967619D02*
X11548209Y-15005714D01*
X11548209Y-15005714D02*
X11548209Y-15053333D01*
X11548209Y-15053333D02*
X11538685Y-15091428D01*
X11538685Y-15091428D02*
X11529161Y-15110476D01*
X11529161Y-15110476D02*
X11519638Y-15120000D01*
X11519638Y-15120000D02*
X11500590Y-15129524D01*
X11500590Y-15129524D02*
X11481542Y-15129524D01*
X11481542Y-15129524D02*
X11462495Y-15120000D01*
X11462495Y-15120000D02*
X11452971Y-15110476D01*
X11452971Y-15110476D02*
X11443447Y-15091428D01*
X11443447Y-15091428D02*
X11433923Y-15053333D01*
X11433923Y-15053333D02*
X11433923Y-15005714D01*
X11433923Y-15005714D02*
X11443447Y-14967619D01*
X11443447Y-14967619D02*
X11452971Y-14948571D01*
X11452971Y-14948571D02*
X11462495Y-14939048D01*
X11462495Y-14939048D02*
X11481542Y-14929524D01*
X11633923Y-15110476D02*
X11643447Y-15120000D01*
X11643447Y-15120000D02*
X11633923Y-15129524D01*
X11633923Y-15129524D02*
X11624399Y-15120000D01*
X11624399Y-15120000D02*
X11633923Y-15110476D01*
X11633923Y-15110476D02*
X11633923Y-15129524D01*
X11767257Y-14929524D02*
X11786304Y-14929524D01*
X11786304Y-14929524D02*
X11805352Y-14939048D01*
X11805352Y-14939048D02*
X11814876Y-14948571D01*
X11814876Y-14948571D02*
X11824399Y-14967619D01*
X11824399Y-14967619D02*
X11833923Y-15005714D01*
X11833923Y-15005714D02*
X11833923Y-15053333D01*
X11833923Y-15053333D02*
X11824399Y-15091428D01*
X11824399Y-15091428D02*
X11814876Y-15110476D01*
X11814876Y-15110476D02*
X11805352Y-15120000D01*
X11805352Y-15120000D02*
X11786304Y-15129524D01*
X11786304Y-15129524D02*
X11767257Y-15129524D01*
X11767257Y-15129524D02*
X11748209Y-15120000D01*
X11748209Y-15120000D02*
X11738685Y-15110476D01*
X11738685Y-15110476D02*
X11729161Y-15091428D01*
X11729161Y-15091428D02*
X11719638Y-15053333D01*
X11719638Y-15053333D02*
X11719638Y-15005714D01*
X11719638Y-15005714D02*
X11729161Y-14967619D01*
X11729161Y-14967619D02*
X11738685Y-14948571D01*
X11738685Y-14948571D02*
X11748209Y-14939048D01*
X11748209Y-14939048D02*
X11767257Y-14929524D01*
X12005352Y-14996190D02*
X12005352Y-15129524D01*
X11957733Y-14920000D02*
X11910114Y-15062857D01*
X11910114Y-15062857D02*
X12033923Y-15062857D01*
X12100590Y-14948571D02*
X12110114Y-14939048D01*
X12110114Y-14939048D02*
X12129161Y-14929524D01*
X12129161Y-14929524D02*
X12176780Y-14929524D01*
X12176780Y-14929524D02*
X12195828Y-14939048D01*
X12195828Y-14939048D02*
X12205352Y-14948571D01*
X12205352Y-14948571D02*
X12214876Y-14967619D01*
X12214876Y-14967619D02*
X12214876Y-14986667D01*
X12214876Y-14986667D02*
X12205352Y-15015238D01*
X12205352Y-15015238D02*
X12091066Y-15129524D01*
X12091066Y-15129524D02*
X12214876Y-15129524D01*
X12310114Y-15129524D02*
X12348209Y-15129524D01*
X12348209Y-15129524D02*
X12367257Y-15120000D01*
X12367257Y-15120000D02*
X12376780Y-15110476D01*
X12376780Y-15110476D02*
X12395828Y-15081905D01*
X12395828Y-15081905D02*
X12405352Y-15043809D01*
X12405352Y-15043809D02*
X12405352Y-14967619D01*
X12405352Y-14967619D02*
X12395828Y-14948571D01*
X12395828Y-14948571D02*
X12386304Y-14939048D01*
X12386304Y-14939048D02*
X12367257Y-14929524D01*
X12367257Y-14929524D02*
X12329161Y-14929524D01*
X12329161Y-14929524D02*
X12310114Y-14939048D01*
X12310114Y-14939048D02*
X12300590Y-14948571D01*
X12300590Y-14948571D02*
X12291066Y-14967619D01*
X12291066Y-14967619D02*
X12291066Y-15015238D01*
X12291066Y-15015238D02*
X12300590Y-15034286D01*
X12300590Y-15034286D02*
X12310114Y-15043809D01*
X12310114Y-15043809D02*
X12329161Y-15053333D01*
X12329161Y-15053333D02*
X12367257Y-15053333D01*
X12367257Y-15053333D02*
X12386304Y-15043809D01*
X12386304Y-15043809D02*
X12395828Y-15034286D01*
X12395828Y-15034286D02*
X12405352Y-15015238D01*
X12481542Y-14929524D02*
X12481542Y-14967619D01*
X12557733Y-14929524D02*
X12557733Y-14967619D01*
X12852971Y-15205714D02*
X12843447Y-15196190D01*
X12843447Y-15196190D02*
X12824400Y-15167619D01*
X12824400Y-15167619D02*
X12814876Y-15148571D01*
X12814876Y-15148571D02*
X12805352Y-15120000D01*
X12805352Y-15120000D02*
X12795828Y-15072381D01*
X12795828Y-15072381D02*
X12795828Y-15034286D01*
X12795828Y-15034286D02*
X12805352Y-14986667D01*
X12805352Y-14986667D02*
X12814876Y-14958095D01*
X12814876Y-14958095D02*
X12824400Y-14939048D01*
X12824400Y-14939048D02*
X12843447Y-14910476D01*
X12843447Y-14910476D02*
X12852971Y-14900952D01*
X12919638Y-14948571D02*
X12929161Y-14939048D01*
X12929161Y-14939048D02*
X12948209Y-14929524D01*
X12948209Y-14929524D02*
X12995828Y-14929524D01*
X12995828Y-14929524D02*
X13014876Y-14939048D01*
X13014876Y-14939048D02*
X13024400Y-14948571D01*
X13024400Y-14948571D02*
X13033923Y-14967619D01*
X13033923Y-14967619D02*
X13033923Y-14986667D01*
X13033923Y-14986667D02*
X13024400Y-15015238D01*
X13024400Y-15015238D02*
X12910114Y-15129524D01*
X12910114Y-15129524D02*
X13033923Y-15129524D01*
X13272019Y-15129524D02*
X13272019Y-14929524D01*
X13357733Y-15129524D02*
X13357733Y-15024762D01*
X13357733Y-15024762D02*
X13348209Y-15005714D01*
X13348209Y-15005714D02*
X13329162Y-14996190D01*
X13329162Y-14996190D02*
X13300590Y-14996190D01*
X13300590Y-14996190D02*
X13281542Y-15005714D01*
X13281542Y-15005714D02*
X13272019Y-15015238D01*
X13481542Y-15129524D02*
X13462495Y-15120000D01*
X13462495Y-15120000D02*
X13452971Y-15110476D01*
X13452971Y-15110476D02*
X13443447Y-15091428D01*
X13443447Y-15091428D02*
X13443447Y-15034286D01*
X13443447Y-15034286D02*
X13452971Y-15015238D01*
X13452971Y-15015238D02*
X13462495Y-15005714D01*
X13462495Y-15005714D02*
X13481542Y-14996190D01*
X13481542Y-14996190D02*
X13510114Y-14996190D01*
X13510114Y-14996190D02*
X13529162Y-15005714D01*
X13529162Y-15005714D02*
X13538685Y-15015238D01*
X13538685Y-15015238D02*
X13548209Y-15034286D01*
X13548209Y-15034286D02*
X13548209Y-15091428D01*
X13548209Y-15091428D02*
X13538685Y-15110476D01*
X13538685Y-15110476D02*
X13529162Y-15120000D01*
X13529162Y-15120000D02*
X13510114Y-15129524D01*
X13510114Y-15129524D02*
X13481542Y-15129524D01*
X13662495Y-15129524D02*
X13643447Y-15120000D01*
X13643447Y-15120000D02*
X13633923Y-15100952D01*
X13633923Y-15100952D02*
X13633923Y-14929524D01*
X13814876Y-15120000D02*
X13795828Y-15129524D01*
X13795828Y-15129524D02*
X13757733Y-15129524D01*
X13757733Y-15129524D02*
X13738685Y-15120000D01*
X13738685Y-15120000D02*
X13729162Y-15100952D01*
X13729162Y-15100952D02*
X13729162Y-15024762D01*
X13729162Y-15024762D02*
X13738685Y-15005714D01*
X13738685Y-15005714D02*
X13757733Y-14996190D01*
X13757733Y-14996190D02*
X13795828Y-14996190D01*
X13795828Y-14996190D02*
X13814876Y-15005714D01*
X13814876Y-15005714D02*
X13824400Y-15024762D01*
X13824400Y-15024762D02*
X13824400Y-15043809D01*
X13824400Y-15043809D02*
X13729162Y-15062857D01*
X13900590Y-15120000D02*
X13919638Y-15129524D01*
X13919638Y-15129524D02*
X13957733Y-15129524D01*
X13957733Y-15129524D02*
X13976781Y-15120000D01*
X13976781Y-15120000D02*
X13986304Y-15100952D01*
X13986304Y-15100952D02*
X13986304Y-15091428D01*
X13986304Y-15091428D02*
X13976781Y-15072381D01*
X13976781Y-15072381D02*
X13957733Y-15062857D01*
X13957733Y-15062857D02*
X13929162Y-15062857D01*
X13929162Y-15062857D02*
X13910114Y-15053333D01*
X13910114Y-15053333D02*
X13900590Y-15034286D01*
X13900590Y-15034286D02*
X13900590Y-15024762D01*
X13900590Y-15024762D02*
X13910114Y-15005714D01*
X13910114Y-15005714D02*
X13929162Y-14996190D01*
X13929162Y-14996190D02*
X13957733Y-14996190D01*
X13957733Y-14996190D02*
X13976781Y-15005714D01*
X14052971Y-15205714D02*
X14062495Y-15196190D01*
X14062495Y-15196190D02*
X14081543Y-15167619D01*
X14081543Y-15167619D02*
X14091066Y-15148571D01*
X14091066Y-15148571D02*
X14100590Y-15120000D01*
X14100590Y-15120000D02*
X14110114Y-15072381D01*
X14110114Y-15072381D02*
X14110114Y-15034286D01*
X14110114Y-15034286D02*
X14100590Y-14986667D01*
X14100590Y-14986667D02*
X14091066Y-14958095D01*
X14091066Y-14958095D02*
X14081543Y-14939048D01*
X14081543Y-14939048D02*
X14062495Y-14910476D01*
X14062495Y-14910476D02*
X14052971Y-14900952D01*
X9191066Y-15401000D02*
X9291066Y-15301000D01*
X9191066Y-15201000D01*
X9091066Y-15301000D01*
X9191066Y-15401000D01*
X9529161Y-15212571D02*
X9538685Y-15203048D01*
X9538685Y-15203048D02*
X9557733Y-15193524D01*
X9557733Y-15193524D02*
X9605352Y-15193524D01*
X9605352Y-15193524D02*
X9624399Y-15203048D01*
X9624399Y-15203048D02*
X9633923Y-15212571D01*
X9633923Y-15212571D02*
X9643447Y-15231619D01*
X9643447Y-15231619D02*
X9643447Y-15250667D01*
X9643447Y-15250667D02*
X9633923Y-15279238D01*
X9633923Y-15279238D02*
X9519637Y-15393524D01*
X9519637Y-15393524D02*
X9643447Y-15393524D01*
X9729161Y-15374476D02*
X9738685Y-15384000D01*
X9738685Y-15384000D02*
X9729161Y-15393524D01*
X9729161Y-15393524D02*
X9719637Y-15384000D01*
X9719637Y-15384000D02*
X9729161Y-15374476D01*
X9729161Y-15374476D02*
X9729161Y-15393524D01*
X9805352Y-15193524D02*
X9938685Y-15193524D01*
X9938685Y-15193524D02*
X9852971Y-15393524D01*
X10052971Y-15193524D02*
X10072018Y-15193524D01*
X10072018Y-15193524D02*
X10091066Y-15203048D01*
X10091066Y-15203048D02*
X10100590Y-15212571D01*
X10100590Y-15212571D02*
X10110114Y-15231619D01*
X10110114Y-15231619D02*
X10119637Y-15269714D01*
X10119637Y-15269714D02*
X10119637Y-15317333D01*
X10119637Y-15317333D02*
X10110114Y-15355428D01*
X10110114Y-15355428D02*
X10100590Y-15374476D01*
X10100590Y-15374476D02*
X10091066Y-15384000D01*
X10091066Y-15384000D02*
X10072018Y-15393524D01*
X10072018Y-15393524D02*
X10052971Y-15393524D01*
X10052971Y-15393524D02*
X10033923Y-15384000D01*
X10033923Y-15384000D02*
X10024399Y-15374476D01*
X10024399Y-15374476D02*
X10014876Y-15355428D01*
X10014876Y-15355428D02*
X10005352Y-15317333D01*
X10005352Y-15317333D02*
X10005352Y-15269714D01*
X10005352Y-15269714D02*
X10014876Y-15231619D01*
X10014876Y-15231619D02*
X10024399Y-15212571D01*
X10024399Y-15212571D02*
X10033923Y-15203048D01*
X10033923Y-15203048D02*
X10052971Y-15193524D01*
X10243447Y-15193524D02*
X10262495Y-15193524D01*
X10262495Y-15193524D02*
X10281542Y-15203048D01*
X10281542Y-15203048D02*
X10291066Y-15212571D01*
X10291066Y-15212571D02*
X10300590Y-15231619D01*
X10300590Y-15231619D02*
X10310114Y-15269714D01*
X10310114Y-15269714D02*
X10310114Y-15317333D01*
X10310114Y-15317333D02*
X10300590Y-15355428D01*
X10300590Y-15355428D02*
X10291066Y-15374476D01*
X10291066Y-15374476D02*
X10281542Y-15384000D01*
X10281542Y-15384000D02*
X10262495Y-15393524D01*
X10262495Y-15393524D02*
X10243447Y-15393524D01*
X10243447Y-15393524D02*
X10224399Y-15384000D01*
X10224399Y-15384000D02*
X10214876Y-15374476D01*
X10214876Y-15374476D02*
X10205352Y-15355428D01*
X10205352Y-15355428D02*
X10195828Y-15317333D01*
X10195828Y-15317333D02*
X10195828Y-15269714D01*
X10195828Y-15269714D02*
X10205352Y-15231619D01*
X10205352Y-15231619D02*
X10214876Y-15212571D01*
X10214876Y-15212571D02*
X10224399Y-15203048D01*
X10224399Y-15203048D02*
X10243447Y-15193524D01*
X10395828Y-15393524D02*
X10395828Y-15260190D01*
X10395828Y-15279238D02*
X10405352Y-15269714D01*
X10405352Y-15269714D02*
X10424399Y-15260190D01*
X10424399Y-15260190D02*
X10452971Y-15260190D01*
X10452971Y-15260190D02*
X10472018Y-15269714D01*
X10472018Y-15269714D02*
X10481542Y-15288762D01*
X10481542Y-15288762D02*
X10481542Y-15393524D01*
X10481542Y-15288762D02*
X10491066Y-15269714D01*
X10491066Y-15269714D02*
X10510114Y-15260190D01*
X10510114Y-15260190D02*
X10538685Y-15260190D01*
X10538685Y-15260190D02*
X10557733Y-15269714D01*
X10557733Y-15269714D02*
X10567257Y-15288762D01*
X10567257Y-15288762D02*
X10567257Y-15393524D01*
X10662495Y-15393524D02*
X10662495Y-15260190D01*
X10662495Y-15279238D02*
X10672018Y-15269714D01*
X10672018Y-15269714D02*
X10691066Y-15260190D01*
X10691066Y-15260190D02*
X10719638Y-15260190D01*
X10719638Y-15260190D02*
X10738685Y-15269714D01*
X10738685Y-15269714D02*
X10748209Y-15288762D01*
X10748209Y-15288762D02*
X10748209Y-15393524D01*
X10748209Y-15288762D02*
X10757733Y-15269714D01*
X10757733Y-15269714D02*
X10776780Y-15260190D01*
X10776780Y-15260190D02*
X10805352Y-15260190D01*
X10805352Y-15260190D02*
X10824399Y-15269714D01*
X10824399Y-15269714D02*
X10833923Y-15288762D01*
X10833923Y-15288762D02*
X10833923Y-15393524D01*
X11224399Y-15184000D02*
X11052971Y-15441143D01*
X11481542Y-15193524D02*
X11500590Y-15193524D01*
X11500590Y-15193524D02*
X11519638Y-15203048D01*
X11519638Y-15203048D02*
X11529161Y-15212571D01*
X11529161Y-15212571D02*
X11538685Y-15231619D01*
X11538685Y-15231619D02*
X11548209Y-15269714D01*
X11548209Y-15269714D02*
X11548209Y-15317333D01*
X11548209Y-15317333D02*
X11538685Y-15355428D01*
X11538685Y-15355428D02*
X11529161Y-15374476D01*
X11529161Y-15374476D02*
X11519638Y-15384000D01*
X11519638Y-15384000D02*
X11500590Y-15393524D01*
X11500590Y-15393524D02*
X11481542Y-15393524D01*
X11481542Y-15393524D02*
X11462495Y-15384000D01*
X11462495Y-15384000D02*
X11452971Y-15374476D01*
X11452971Y-15374476D02*
X11443447Y-15355428D01*
X11443447Y-15355428D02*
X11433923Y-15317333D01*
X11433923Y-15317333D02*
X11433923Y-15269714D01*
X11433923Y-15269714D02*
X11443447Y-15231619D01*
X11443447Y-15231619D02*
X11452971Y-15212571D01*
X11452971Y-15212571D02*
X11462495Y-15203048D01*
X11462495Y-15203048D02*
X11481542Y-15193524D01*
X11633923Y-15374476D02*
X11643447Y-15384000D01*
X11643447Y-15384000D02*
X11633923Y-15393524D01*
X11633923Y-15393524D02*
X11624399Y-15384000D01*
X11624399Y-15384000D02*
X11633923Y-15374476D01*
X11633923Y-15374476D02*
X11633923Y-15393524D01*
X11833923Y-15393524D02*
X11719638Y-15393524D01*
X11776780Y-15393524D02*
X11776780Y-15193524D01*
X11776780Y-15193524D02*
X11757733Y-15222095D01*
X11757733Y-15222095D02*
X11738685Y-15241143D01*
X11738685Y-15241143D02*
X11719638Y-15250667D01*
X11957733Y-15193524D02*
X11976780Y-15193524D01*
X11976780Y-15193524D02*
X11995828Y-15203048D01*
X11995828Y-15203048D02*
X12005352Y-15212571D01*
X12005352Y-15212571D02*
X12014876Y-15231619D01*
X12014876Y-15231619D02*
X12024399Y-15269714D01*
X12024399Y-15269714D02*
X12024399Y-15317333D01*
X12024399Y-15317333D02*
X12014876Y-15355428D01*
X12014876Y-15355428D02*
X12005352Y-15374476D01*
X12005352Y-15374476D02*
X11995828Y-15384000D01*
X11995828Y-15384000D02*
X11976780Y-15393524D01*
X11976780Y-15393524D02*
X11957733Y-15393524D01*
X11957733Y-15393524D02*
X11938685Y-15384000D01*
X11938685Y-15384000D02*
X11929161Y-15374476D01*
X11929161Y-15374476D02*
X11919638Y-15355428D01*
X11919638Y-15355428D02*
X11910114Y-15317333D01*
X11910114Y-15317333D02*
X11910114Y-15269714D01*
X11910114Y-15269714D02*
X11919638Y-15231619D01*
X11919638Y-15231619D02*
X11929161Y-15212571D01*
X11929161Y-15212571D02*
X11938685Y-15203048D01*
X11938685Y-15203048D02*
X11957733Y-15193524D01*
X12195828Y-15193524D02*
X12157733Y-15193524D01*
X12157733Y-15193524D02*
X12138685Y-15203048D01*
X12138685Y-15203048D02*
X12129161Y-15212571D01*
X12129161Y-15212571D02*
X12110114Y-15241143D01*
X12110114Y-15241143D02*
X12100590Y-15279238D01*
X12100590Y-15279238D02*
X12100590Y-15355428D01*
X12100590Y-15355428D02*
X12110114Y-15374476D01*
X12110114Y-15374476D02*
X12119638Y-15384000D01*
X12119638Y-15384000D02*
X12138685Y-15393524D01*
X12138685Y-15393524D02*
X12176780Y-15393524D01*
X12176780Y-15393524D02*
X12195828Y-15384000D01*
X12195828Y-15384000D02*
X12205352Y-15374476D01*
X12205352Y-15374476D02*
X12214876Y-15355428D01*
X12214876Y-15355428D02*
X12214876Y-15307809D01*
X12214876Y-15307809D02*
X12205352Y-15288762D01*
X12205352Y-15288762D02*
X12195828Y-15279238D01*
X12195828Y-15279238D02*
X12176780Y-15269714D01*
X12176780Y-15269714D02*
X12138685Y-15269714D01*
X12138685Y-15269714D02*
X12119638Y-15279238D01*
X12119638Y-15279238D02*
X12110114Y-15288762D01*
X12110114Y-15288762D02*
X12100590Y-15307809D01*
X12281542Y-15193524D02*
X12405352Y-15193524D01*
X12405352Y-15193524D02*
X12338685Y-15269714D01*
X12338685Y-15269714D02*
X12367257Y-15269714D01*
X12367257Y-15269714D02*
X12386304Y-15279238D01*
X12386304Y-15279238D02*
X12395828Y-15288762D01*
X12395828Y-15288762D02*
X12405352Y-15307809D01*
X12405352Y-15307809D02*
X12405352Y-15355428D01*
X12405352Y-15355428D02*
X12395828Y-15374476D01*
X12395828Y-15374476D02*
X12386304Y-15384000D01*
X12386304Y-15384000D02*
X12367257Y-15393524D01*
X12367257Y-15393524D02*
X12310114Y-15393524D01*
X12310114Y-15393524D02*
X12291066Y-15384000D01*
X12291066Y-15384000D02*
X12281542Y-15374476D01*
X12481542Y-15193524D02*
X12481542Y-15231619D01*
X12557733Y-15193524D02*
X12557733Y-15231619D01*
X12852971Y-15469714D02*
X12843447Y-15460190D01*
X12843447Y-15460190D02*
X12824400Y-15431619D01*
X12824400Y-15431619D02*
X12814876Y-15412571D01*
X12814876Y-15412571D02*
X12805352Y-15384000D01*
X12805352Y-15384000D02*
X12795828Y-15336381D01*
X12795828Y-15336381D02*
X12795828Y-15298286D01*
X12795828Y-15298286D02*
X12805352Y-15250667D01*
X12805352Y-15250667D02*
X12814876Y-15222095D01*
X12814876Y-15222095D02*
X12824400Y-15203048D01*
X12824400Y-15203048D02*
X12843447Y-15174476D01*
X12843447Y-15174476D02*
X12852971Y-15164952D01*
X13014876Y-15260190D02*
X13014876Y-15393524D01*
X12967257Y-15184000D02*
X12919638Y-15326857D01*
X12919638Y-15326857D02*
X13043447Y-15326857D01*
X13272019Y-15393524D02*
X13272019Y-15193524D01*
X13357733Y-15393524D02*
X13357733Y-15288762D01*
X13357733Y-15288762D02*
X13348209Y-15269714D01*
X13348209Y-15269714D02*
X13329162Y-15260190D01*
X13329162Y-15260190D02*
X13300590Y-15260190D01*
X13300590Y-15260190D02*
X13281542Y-15269714D01*
X13281542Y-15269714D02*
X13272019Y-15279238D01*
X13481542Y-15393524D02*
X13462495Y-15384000D01*
X13462495Y-15384000D02*
X13452971Y-15374476D01*
X13452971Y-15374476D02*
X13443447Y-15355428D01*
X13443447Y-15355428D02*
X13443447Y-15298286D01*
X13443447Y-15298286D02*
X13452971Y-15279238D01*
X13452971Y-15279238D02*
X13462495Y-15269714D01*
X13462495Y-15269714D02*
X13481542Y-15260190D01*
X13481542Y-15260190D02*
X13510114Y-15260190D01*
X13510114Y-15260190D02*
X13529162Y-15269714D01*
X13529162Y-15269714D02*
X13538685Y-15279238D01*
X13538685Y-15279238D02*
X13548209Y-15298286D01*
X13548209Y-15298286D02*
X13548209Y-15355428D01*
X13548209Y-15355428D02*
X13538685Y-15374476D01*
X13538685Y-15374476D02*
X13529162Y-15384000D01*
X13529162Y-15384000D02*
X13510114Y-15393524D01*
X13510114Y-15393524D02*
X13481542Y-15393524D01*
X13662495Y-15393524D02*
X13643447Y-15384000D01*
X13643447Y-15384000D02*
X13633923Y-15364952D01*
X13633923Y-15364952D02*
X13633923Y-15193524D01*
X13814876Y-15384000D02*
X13795828Y-15393524D01*
X13795828Y-15393524D02*
X13757733Y-15393524D01*
X13757733Y-15393524D02*
X13738685Y-15384000D01*
X13738685Y-15384000D02*
X13729162Y-15364952D01*
X13729162Y-15364952D02*
X13729162Y-15288762D01*
X13729162Y-15288762D02*
X13738685Y-15269714D01*
X13738685Y-15269714D02*
X13757733Y-15260190D01*
X13757733Y-15260190D02*
X13795828Y-15260190D01*
X13795828Y-15260190D02*
X13814876Y-15269714D01*
X13814876Y-15269714D02*
X13824400Y-15288762D01*
X13824400Y-15288762D02*
X13824400Y-15307809D01*
X13824400Y-15307809D02*
X13729162Y-15326857D01*
X13900590Y-15384000D02*
X13919638Y-15393524D01*
X13919638Y-15393524D02*
X13957733Y-15393524D01*
X13957733Y-15393524D02*
X13976781Y-15384000D01*
X13976781Y-15384000D02*
X13986304Y-15364952D01*
X13986304Y-15364952D02*
X13986304Y-15355428D01*
X13986304Y-15355428D02*
X13976781Y-15336381D01*
X13976781Y-15336381D02*
X13957733Y-15326857D01*
X13957733Y-15326857D02*
X13929162Y-15326857D01*
X13929162Y-15326857D02*
X13910114Y-15317333D01*
X13910114Y-15317333D02*
X13900590Y-15298286D01*
X13900590Y-15298286D02*
X13900590Y-15288762D01*
X13900590Y-15288762D02*
X13910114Y-15269714D01*
X13910114Y-15269714D02*
X13929162Y-15260190D01*
X13929162Y-15260190D02*
X13957733Y-15260190D01*
X13957733Y-15260190D02*
X13976781Y-15269714D01*
X14052971Y-15469714D02*
X14062495Y-15460190D01*
X14062495Y-15460190D02*
X14081543Y-15431619D01*
X14081543Y-15431619D02*
X14091066Y-15412571D01*
X14091066Y-15412571D02*
X14100590Y-15384000D01*
X14100590Y-15384000D02*
X14110114Y-15336381D01*
X14110114Y-15336381D02*
X14110114Y-15298286D01*
X14110114Y-15298286D02*
X14100590Y-15250667D01*
X14100590Y-15250667D02*
X14091066Y-15222095D01*
X14091066Y-15222095D02*
X14081543Y-15203048D01*
X14081543Y-15203048D02*
X14062495Y-15174476D01*
X14062495Y-15174476D02*
X14052971Y-15164952D01*
M02*
